<svg id="g4c680460-fccd-46be-980b-2b3f8f00a993-dark" width="100%" xmlns="http://www.w3.org/2000/svg" xmlns:xlink="http://www.w3.org/1999/xlink" class="flowchart" style="max-width: 989.109375px;" viewBox="0 0 989.109375 979.0187377929688" role="graphics-document document" aria-roledescription="flowchart-v2"><style>#g4c680460-fccd-46be-980b-2b3f8f00a993-dark{font-family:"trebuchet ms",verdana,arial,sans-serif;font-size:16px;fill:#e5e5e5;}@keyframes edge-animation-frame{from{stroke-dashoffset:0;}}@keyframes dash{to{stroke-dashoffset:0;}}#g4c680460-fccd-46be-980b-2b3f8f00a993-dark .edge-animation-slow{stroke-dasharray:9,5!important;stroke-dashoffset:900;animation:dash 50s linear infinite;stroke-linecap:round;}#g4c680460-fccd-46be-980b-2b3f8f00a993-dark .edge-animation-fast{stroke-dasharray:9,5!important;stroke-dashoffset:900;animation:dash 20s linear infinite;stroke-linecap:round;}#g4c680460-fccd-46be-980b-2b3f8f00a993-dark .error-icon{fill:#252525;}#g4c680460-fccd-46be-980b-2b3f8f00a993-dark .error-text{fill:#cccccc;stroke:#cccccc;}#g4c680460-fccd-46be-980b-2b3f8f00a993-dark .edge-thickness-normal{stroke-width:1px;}#g4c680460-fccd-46be-980b-2b3f8f00a993-dark .edge-thickness-thick{stroke-width:3.5px;}#g4c680460-fccd-46be-980b-2b3f8f00a993-dark .edge-pattern-solid{stroke-dasharray:0;}#g4c680460-fccd-46be-980b-2b3f8f00a993-dark .edge-thickness-invisible{stroke-width:0;fill:none;}#g4c680460-fccd-46be-980b-2b3f8f00a993-dark .edge-pattern-dashed{stroke-dasharray:3;}#g4c680460-fccd-46be-980b-2b3f8f00a993-dark .edge-pattern-dotted{stroke-dasharray:2;}#g4c680460-fccd-46be-980b-2b3f8f00a993-dark .marker{fill:#cccccc;stroke:#cccccc;}#g4c680460-fccd-46be-980b-2b3f8f00a993-dark .marker.cross{stroke:#cccccc;}#g4c680460-fccd-46be-980b-2b3f8f00a993-dark svg{font-family:"trebuchet ms",verdana,arial,sans-serif;font-size:16px;}#g4c680460-fccd-46be-980b-2b3f8f00a993-dark p{margin:0;}#g4c680460-fccd-46be-980b-2b3f8f00a993-dark .label{font-family:"trebuchet ms",verdana,arial,sans-serif;color:#e5e5e5;}#g4c680460-fccd-46be-980b-2b3f8f00a993-dark .cluster-label text{fill:#e5e5e5;}#g4c680460-fccd-46be-980b-2b3f8f00a993-dark .cluster-label span{color:#e5e5e5;}#g4c680460-fccd-46be-980b-2b3f8f00a993-dark .cluster-label span p{background-color:transparent;}#g4c680460-fccd-46be-980b-2b3f8f00a993-dark .label text,#g4c680460-fccd-46be-980b-2b3f8f00a993-dark span{fill:#e5e5e5;color:#e5e5e5;}#g4c680460-fccd-46be-980b-2b3f8f00a993-dark .node rect,#g4c680460-fccd-46be-980b-2b3f8f00a993-dark .node circle,#g4c680460-fccd-46be-980b-2b3f8f00a993-dark .node ellipse,#g4c680460-fccd-46be-980b-2b3f8f00a993-dark .node polygon,#g4c680460-fccd-46be-980b-2b3f8f00a993-dark .node path{fill:#2d2d2d;stroke:#555555;stroke-width:1px;}#g4c680460-fccd-46be-980b-2b3f8f00a993-dark .rough-node .label text,#g4c680460-fccd-46be-980b-2b3f8f00a993-dark .node .label text,#g4c680460-fccd-46be-980b-2b3f8f00a993-dark .image-shape .label,#g4c680460-fccd-46be-980b-2b3f8f00a993-dark .icon-shape .label{text-anchor:middle;}#g4c680460-fccd-46be-980b-2b3f8f00a993-dark .node .katex path{fill:#000;stroke:#000;stroke-width:1px;}#g4c680460-fccd-46be-980b-2b3f8f00a993-dark .rough-node .label,#g4c680460-fccd-46be-980b-2b3f8f00a993-dark .node .label,#g4c680460-fccd-46be-980b-2b3f8f00a993-dark .image-shape .label,#g4c680460-fccd-46be-980b-2b3f8f00a993-dark .icon-shape .label{text-align:center;}#g4c680460-fccd-46be-980b-2b3f8f00a993-dark .node.clickable{cursor:pointer;}#g4c680460-fccd-46be-980b-2b3f8f00a993-dark .root .anchor path{fill:#cccccc!important;stroke-width:0;stroke:#cccccc;}#g4c680460-fccd-46be-980b-2b3f8f00a993-dark .arrowheadPath{fill:#cccccc;}#g4c680460-fccd-46be-980b-2b3f8f00a993-dark .edgePath .path{stroke:#cccccc;stroke-width:1px;}#g4c680460-fccd-46be-980b-2b3f8f00a993-dark .flowchart-link{stroke:#cccccc;fill:none;}#g4c680460-fccd-46be-980b-2b3f8f00a993-dark .edgeLabel{background-color:#1e1e1e;text-align:center;}#g4c680460-fccd-46be-980b-2b3f8f00a993-dark .edgeLabel p{background-color:#1e1e1e;}#g4c680460-fccd-46be-980b-2b3f8f00a993-dark .edgeLabel rect{opacity:0.5;background-color:#1e1e1e;fill:#1e1e1e;}#g4c680460-fccd-46be-980b-2b3f8f00a993-dark .labelBkg{background-color:rgba(30, 30, 30, 0.5);}#g4c680460-fccd-46be-980b-2b3f8f00a993-dark .cluster rect{fill:#1e1e1e;stroke:#555555;stroke-width:1px;}#g4c680460-fccd-46be-980b-2b3f8f00a993-dark .cluster text{fill:#e5e5e5;}#g4c680460-fccd-46be-980b-2b3f8f00a993-dark .cluster span{color:#e5e5e5;}#g4c680460-fccd-46be-980b-2b3f8f00a993-dark div.mermaidTooltip{position:absolute;text-align:center;max-width:200px;padding:2px;font-family:"trebuchet ms",verdana,arial,sans-serif;font-size:12px;background:#252525;border:1px solid #555555;border-radius:2px;pointer-events:none;z-index:100;}#g4c680460-fccd-46be-980b-2b3f8f00a993-dark .flowchartTitleText{text-anchor:middle;font-size:18px;fill:#e5e5e5;}#g4c680460-fccd-46be-980b-2b3f8f00a993-dark rect.text{fill:none;stroke-width:0;}#g4c680460-fccd-46be-980b-2b3f8f00a993-dark .icon-shape,#g4c680460-fccd-46be-980b-2b3f8f00a993-dark .image-shape{background-color:#1e1e1e;text-align:center;}#g4c680460-fccd-46be-980b-2b3f8f00a993-dark .icon-shape p,#g4c680460-fccd-46be-980b-2b3f8f00a993-dark .image-shape p{background-color:#1e1e1e;padding:2px;}#g4c680460-fccd-46be-980b-2b3f8f00a993-dark .icon-shape .label rect,#g4c680460-fccd-46be-980b-2b3f8f00a993-dark .image-shape .label rect{opacity:0.5;background-color:#1e1e1e;fill:#1e1e1e;}#g4c680460-fccd-46be-980b-2b3f8f00a993-dark .label-icon{display:inline-block;height:1em;overflow:visible;vertical-align:-0.125em;}#g4c680460-fccd-46be-980b-2b3f8f00a993-dark .node .label-icon path{fill:currentColor;stroke:revert;stroke-width:revert;}#g4c680460-fccd-46be-980b-2b3f8f00a993-dark .node .neo-node{stroke:#555555;}#g4c680460-fccd-46be-980b-2b3f8f00a993-dark [data-look="neo"].node rect,#g4c680460-fccd-46be-980b-2b3f8f00a993-dark [data-look="neo"].cluster rect,#g4c680460-fccd-46be-980b-2b3f8f00a993-dark [data-look="neo"].node polygon{stroke:url(#g4c680460-fccd-46be-980b-2b3f8f00a993-dark-gradient);filter:drop-shadow( 1px 2px 2px rgba(185,185,185,1));}#g4c680460-fccd-46be-980b-2b3f8f00a993-dark [data-look="neo"].node path{stroke:url(#g4c680460-fccd-46be-980b-2b3f8f00a993-dark-gradient);stroke-width:1px;}#g4c680460-fccd-46be-980b-2b3f8f00a993-dark [data-look="neo"].node .outer-path{filter:drop-shadow( 1px 2px 2px rgba(185,185,185,1));}#g4c680460-fccd-46be-980b-2b3f8f00a993-dark [data-look="neo"].node .neo-line path{stroke:#555555;filter:none;}#g4c680460-fccd-46be-980b-2b3f8f00a993-dark [data-look="neo"].node circle{stroke:url(#g4c680460-fccd-46be-980b-2b3f8f00a993-dark-gradient);filter:drop-shadow( 1px 2px 2px rgba(185,185,185,1));}#g4c680460-fccd-46be-980b-2b3f8f00a993-dark [data-look="neo"].node circle .state-start{fill:#000000;}#g4c680460-fccd-46be-980b-2b3f8f00a993-dark [data-look="neo"].icon-shape .icon{fill:url(#g4c680460-fccd-46be-980b-2b3f8f00a993-dark-gradient);filter:drop-shadow( 1px 2px 2px rgba(185,185,185,1));}#g4c680460-fccd-46be-980b-2b3f8f00a993-dark [data-look="neo"].icon-shape .icon-neo path{stroke:url(#g4c680460-fccd-46be-980b-2b3f8f00a993-dark-gradient);filter:drop-shadow( 1px 2px 2px rgba(185,185,185,1));}#g4c680460-fccd-46be-980b-2b3f8f00a993-dark :root{--mermaid-font-family:"trebuchet ms",verdana,arial,sans-serif;}</style><g><marker id="g4c680460-fccd-46be-980b-2b3f8f00a993-dark_flowchart-v2-pointEnd" class="marker flowchart-v2" viewBox="0 0 10 10" refX="5" refY="5" markerUnits="userSpaceOnUse" markerWidth="8" markerHeight="8" orient="auto"><path d="M 0 0 L 10 5 L 0 10 z" class="arrowMarkerPath" style="stroke-width: 1; stroke-dasharray: 1, 0;"></path></marker><marker id="g4c680460-fccd-46be-980b-2b3f8f00a993-dark_flowchart-v2-pointStart" class="marker flowchart-v2" viewBox="0 0 10 10" refX="4.5" refY="5" markerUnits="userSpaceOnUse" markerWidth="8" markerHeight="8" orient="auto"><path d="M 0 5 L 10 10 L 10 0 z" class="arrowMarkerPath" style="stroke-width: 1; stroke-dasharray: 1, 0;"></path></marker><marker id="g4c680460-fccd-46be-980b-2b3f8f00a993-dark_flowchart-v2-pointEnd-margin" class="marker flowchart-v2" viewBox="0 0 11.5 14" refX="11.5" refY="7" markerUnits="userSpaceOnUse" markerWidth="10.5" markerHeight="14" orient="auto"><path d="M 0 0 L 11.5 7 L 0 14 z" class="arrowMarkerPath" style="stroke-width: 0; stroke-dasharray: 1, 0;"></path></marker><marker id="g4c680460-fccd-46be-980b-2b3f8f00a993-dark_flowchart-v2-pointStart-margin" class="marker flowchart-v2" viewBox="0 0 11.5 14" refX="1" refY="7" markerUnits="userSpaceOnUse" markerWidth="11.5" markerHeight="14" orient="auto"><polygon points="0,7 11.5,14 11.5,0" class="arrowMarkerPath" style="stroke-width: 0; stroke-dasharray: 1, 0;"></polygon></marker><marker id="g4c680460-fccd-46be-980b-2b3f8f00a993-dark_flowchart-v2-circleEnd" class="marker flowchart-v2" viewBox="0 0 10 10" refX="11" refY="5" markerUnits="userSpaceOnUse" markerWidth="11" markerHeight="11" orient="auto"><circle cx="5" cy="5" r="5" class="arrowMarkerPath" style="stroke-width: 1; stroke-dasharray: 1, 0;"></circle></marker><marker id="g4c680460-fccd-46be-980b-2b3f8f00a993-dark_flowchart-v2-circleStart" class="marker flowchart-v2" viewBox="0 0 10 10" refX="-1" refY="5" markerUnits="userSpaceOnUse" markerWidth="11" markerHeight="11" orient="auto"><circle cx="5" cy="5" r="5" class="arrowMarkerPath" style="stroke-width: 1; stroke-dasharray: 1, 0;"></circle></marker><marker id="g4c680460-fccd-46be-980b-2b3f8f00a993-dark_flowchart-v2-circleEnd-margin" class="marker flowchart-v2" viewBox="0 0 10 10" refY="5" refX="12.25" markerUnits="userSpaceOnUse" markerWidth="14" markerHeight="14" orient="auto"><circle cx="5" cy="5" r="5" class="arrowMarkerPath" style="stroke-width: 0; stroke-dasharray: 1, 0;"></circle></marker><marker id="g4c680460-fccd-46be-980b-2b3f8f00a993-dark_flowchart-v2-circleStart-margin" class="marker flowchart-v2" viewBox="0 0 10 10" refX="-2" refY="5" markerUnits="userSpaceOnUse" markerWidth="14" markerHeight="14" orient="auto"><circle cx="5" cy="5" r="5" class="arrowMarkerPath" style="stroke-width: 0; stroke-dasharray: 1, 0;"></circle></marker><marker id="g4c680460-fccd-46be-980b-2b3f8f00a993-dark_flowchart-v2-crossEnd" class="marker cross flowchart-v2" viewBox="0 0 11 11" refX="12" refY="5.2" markerUnits="userSpaceOnUse" markerWidth="11" markerHeight="11" orient="auto"><path d="M 1,1 l 9,9 M 10,1 l -9,9" class="arrowMarkerPath" style="stroke-width: 2; stroke-dasharray: 1, 0;"></path></marker><marker id="g4c680460-fccd-46be-980b-2b3f8f00a993-dark_flowchart-v2-crossStart" class="marker cross flowchart-v2" viewBox="0 0 11 11" refX="-1" refY="5.2" markerUnits="userSpaceOnUse" markerWidth="11" markerHeight="11" orient="auto"><path d="M 1,1 l 9,9 M 10,1 l -9,9" class="arrowMarkerPath" style="stroke-width: 2; stroke-dasharray: 1, 0;"></path></marker><marker id="g4c680460-fccd-46be-980b-2b3f8f00a993-dark_flowchart-v2-crossEnd-margin" class="marker cross flowchart-v2" viewBox="0 0 15 15" refX="17.7" refY="7.5" markerUnits="userSpaceOnUse" markerWidth="12" markerHeight="12" orient="auto"><path d="M 1,1 L 14,14 M 1,14 L 14,1" class="arrowMarkerPath" style="stroke-width: 2.5;"></path></marker><marker id="g4c680460-fccd-46be-980b-2b3f8f00a993-dark_flowchart-v2-crossStart-margin" class="marker cross flowchart-v2" viewBox="0 0 15 15" refX="-3.5" refY="7.5" markerUnits="userSpaceOnUse" markerWidth="12" markerHeight="12" orient="auto"><path d="M 1,1 L 14,14 M 1,14 L 14,1" class="arrowMarkerPath" style="stroke-width: 2.5; stroke-dasharray: 1, 0;"></path></marker><g class="root"><g class="clusters"></g><g class="edgePaths"><path d="M364.264,42.5L364.181,46.583C364.097,50.667,363.931,58.833,363.847,66.417C363.764,74,363.764,81,363.764,84.5L363.764,88" id="g4c680460-fccd-46be-980b-2b3f8f00a993-dark-L_Start_Q1_0" class="edge-thickness-normal edge-pattern-solid edge-thickness-normal edge-pattern-solid flowchart-link" style=";" data-edge="true" data-et="edge" data-id="L_Start_Q1_0" data-points="W3sieCI6MzY0LjI2NDA2MDk3NDEyMTEsInkiOjQyLjV9LHsieCI6MzYzLjc2NDA2MDk3NDEyMTEsInkiOjY3fSx7IngiOjM2My43NjQwNjA5NzQxMjExLCJ5Ijo5Mn1d" data-look="classic" marker-end="url(#g4c680460-fccd-46be-980b-2b3f8f00a993-dark_flowchart-v2-pointEnd)"></path><path d="M318.198,220.7L303.205,234.378C288.212,248.055,258.226,275.41,243.232,306.462C228.239,337.513,228.239,372.26,228.239,389.634L228.239,407.008" id="g4c680460-fccd-46be-980b-2b3f8f00a993-dark-L_Q1_SSR_0" class="edge-thickness-normal edge-pattern-solid edge-thickness-normal edge-pattern-solid flowchart-link" style=";" data-edge="true" data-et="edge" data-id="L_Q1_SSR_0" data-points="W3sieCI6MzE4LjE5ODQ4Njk5NTk1MjYsInkiOjIyMC43MDAwNTEwMjE4MzE0OH0seyJ4IjoyMjguMjM5MDU5NDQ4MjQyMiwieSI6MzAyLjc2NTYyNX0seyJ4IjoyMjguMjM5MDU5NDQ4MjQyMiwieSI6NDExLjAwNzgxNjMxNDY5NzI3fV0=" data-look="classic" marker-end="url(#g4c680460-fccd-46be-980b-2b3f8f00a993-dark_flowchart-v2-pointEnd)"></path><path d="M409.33,220.7L424.323,234.378C439.316,248.055,469.303,275.41,484.296,294.505C499.289,313.599,499.289,324.432,499.289,329.849L499.289,335.266" id="g4c680460-fccd-46be-980b-2b3f8f00a993-dark-L_Q1_Q2_0" class="edge-thickness-normal edge-pattern-solid edge-thickness-normal edge-pattern-solid flowchart-link" style=";" data-edge="true" data-et="edge" data-id="L_Q1_Q2_0" data-points="W3sieCI6NDA5LjMyOTYzNDk1MjI4OTYsInkiOjIyMC43MDAwNTEwMjE4MzE1fSx7IngiOjQ5OS4yODkwNjI1LCJ5IjozMDIuNzY1NjI1fSx7IngiOjQ5OS4yODkwNjI1LCJ5IjozMzkuMjY1NjI1fV0=" data-look="classic" marker-end="url(#g4c680460-fccd-46be-980b-2b3f8f00a993-dark_flowchart-v2-pointEnd)"></path><path d="M431.612,481.672L400.163,499.035C368.714,516.398,305.816,551.124,274.367,575.037C242.918,598.949,242.918,612.048,242.918,618.597L242.918,625.147" id="g4c680460-fccd-46be-980b-2b3f8f00a993-dark-L_Q2_Q3_0" class="edge-thickness-normal edge-pattern-solid edge-thickness-normal edge-pattern-solid flowchart-link" style=";" data-edge="true" data-et="edge" data-id="L_Q2_Q3_0" data-points="W3sieCI6NDMxLjYxMTU0OTk3NjM3MjI2LCJ5Ijo0ODEuNjcyNDkzNTc5ODg3OX0seyJ4IjoyNDIuOTE3OTY4NzUsInkiOjU4NS44NTAwMDYxMDM1MTU2fSx7IngiOjI0Mi45MTc5Njg3NSwieSI6NjI5LjE0Njg4MTEwMzUxNTZ9XQ==" data-look="classic" marker-end="url(#g4c680460-fccd-46be-980b-2b3f8f00a993-dark_flowchart-v2-pointEnd)"></path><path d="M566.76,481.879L597.878,499.208C628.996,516.536,691.232,551.193,722.351,573.938C753.469,596.683,753.469,607.517,753.469,612.933L753.469,618.35" id="g4c680460-fccd-46be-980b-2b3f8f00a993-dark-L_Q2_Q4_0" class="edge-thickness-normal edge-pattern-solid edge-thickness-normal edge-pattern-solid flowchart-link" style=";" data-edge="true" data-et="edge" data-id="L_Q2_Q4_0" data-points="W3sieCI6NTY2Ljc1OTY1OTAyMTUwMjEsInkiOjQ4MS44Nzk0MDk1ODIwMTMzNX0seyJ4Ijo3NTMuNDY4NzUsInkiOjU4NS44NTAwMDYxMDM1MTU2fSx7IngiOjc1My40Njg3NTAwMDAwMDAxLCJ5Ijo2MjIuMzUwMDA2MTAzNTE1NX1d" data-look="classic" marker-end="url(#g4c680460-fccd-46be-980b-2b3f8f00a993-dark_flowchart-v2-pointEnd)"></path><path d="M196.648,778.352L183.227,793.28C169.807,808.207,142.966,838.063,129.545,858.408C116.125,878.752,116.125,889.585,116.125,895.002L116.125,900.419" id="g4c680460-fccd-46be-980b-2b3f8f00a993-dark-L_Q3_ISR_0" class="edge-thickness-normal edge-pattern-solid edge-thickness-normal edge-pattern-solid flowchart-link" style=";" data-edge="true" data-et="edge" data-id="L_Q3_ISR_0" data-points="W3sieCI6MTk2LjY0Nzc1NjU0NzUxOTksInkiOjc3OC4zNTE2NzUwMDQ1NTExfSx7IngiOjExNi4xMjUsInkiOjg2Ny45MTg3NjIyMDcwMzEyfSx7IngiOjExNi4xMjUsInkiOjkwNC40MTg3NjIyMDcwMzEyfV0=" data-look="classic" marker-end="url(#g4c680460-fccd-46be-980b-2b3f8f00a993-dark_flowchart-v2-pointEnd)"></path><path d="M289.188,778.352L302.609,793.28C316.029,808.207,342.87,838.063,356.29,858.408C369.711,878.752,369.711,889.585,369.711,895.002L369.711,900.419" id="g4c680460-fccd-46be-980b-2b3f8f00a993-dark-L_Q3_SSRC_0" class="edge-thickness-normal edge-pattern-solid edge-thickness-normal edge-pattern-solid flowchart-link" style=";" data-edge="true" data-et="edge" data-id="L_Q3_SSRC_0" data-points="W3sieCI6Mjg5LjE4ODE4MDk1MjQ4LCJ5Ijo3NzguMzUxNjc1MDA0NTUxMX0seyJ4IjozNjkuNzEwOTM3NSwieSI6ODY3LjkxODc2MjIwNzAzMTJ9LHsieCI6MzY5LjcxMDkzNzUsInkiOjkwNC40MTg3NjIyMDcwMzEyfV0=" data-look="classic" marker-end="url(#g4c680460-fccd-46be-980b-2b3f8f00a993-dark_flowchart-v2-pointEnd)"></path><path d="M703.534,781.484L690.359,795.89C677.184,810.296,650.834,839.107,637.659,858.93C624.484,878.752,624.484,889.585,624.484,895.002L624.484,900.419" id="g4c680460-fccd-46be-980b-2b3f8f00a993-dark-L_Q4_SSG_0" class="edge-thickness-normal edge-pattern-solid edge-thickness-normal edge-pattern-solid flowchart-link" style=";" data-edge="true" data-et="edge" data-id="L_Q4_SSG_0" data-points="W3sieCI6NzAzLjUzNDA2NDg0NzA5NDMsInkiOjc4MS40ODQwNzcwNTQxMjU2fSx7IngiOjYyNC40ODQzNzUsInkiOjg2Ny45MTg3NjIyMDcwMzEyfSx7IngiOjYyNC40ODQzNzUsInkiOjkwNC40MTg3NjIyMDcwMzEyfV0=" data-look="classic" marker-end="url(#g4c680460-fccd-46be-980b-2b3f8f00a993-dark_flowchart-v2-pointEnd)"></path><path d="M803.403,781.484L816.578,795.89C829.753,810.296,856.103,839.107,869.278,858.93C882.453,878.752,882.453,889.585,882.453,895.002L882.453,900.419" id="g4c680460-fccd-46be-980b-2b3f8f00a993-dark-L_Q4_ISRB_0" class="edge-thickness-normal edge-pattern-solid edge-thickness-normal edge-pattern-solid flowchart-link" style=";" data-edge="true" data-et="edge" data-id="L_Q4_ISRB_0" data-points="W3sieCI6ODAzLjQwMzQzNTE1MjkwNTYsInkiOjc4MS40ODQwNzcwNTQxMjU2fSx7IngiOjg4Mi40NTMxMjUsInkiOjg2Ny45MTg3NjIyMDcwMzEyfSx7IngiOjg4Mi40NTMxMjUsInkiOjkwNC40MTg3NjIyMDcwMzEyfV0=" data-look="classic" marker-end="url(#g4c680460-fccd-46be-980b-2b3f8f00a993-dark_flowchart-v2-pointEnd)"></path></g><g class="edgeLabels"><g class="edgeLabel"><g class="label" data-id="L_Start_Q1_0" transform="translate(0, 0)"><text y="-10.1" text-anchor="middle"><tspan class="text-outer-tspan row" x="0" y="-0.1em" dy="1.1em" text-anchor="middle"></tspan></text></g></g><g><rect class="background" style="stroke: none"></rect></g><g class="edgeLabel" transform="translate(228.2390594482422, 302.765625)"><g class="label" data-id="L_Q1_SSR_0" transform="translate(0, -10.5)"><g><rect class="background" style="" x="-13.328125" y="-1" width="26.65625" height="23"></rect><text y="-10.1" text-anchor="middle" style=""><tspan class="text-outer-tspan row" x="0" y="-0.1em" dy="1.1em" text-anchor="middle"><tspan font-style="normal" class="text-inner-tspan" font-weight="normal">Yes</tspan></tspan></text></g></g></g><g class="edgeLabel" transform="translate(499.2890625, 302.765625)"><g class="label" data-id="L_Q1_Q2_0" transform="translate(0, -10.5)"><g><rect class="background" style="" x="-11.3984375" y="-1" width="22.796875" height="23"></rect><text y="-10.1" text-anchor="middle" style=""><tspan class="text-outer-tspan row" x="0" y="-0.1em" dy="1.1em" text-anchor="middle"><tspan font-style="normal" class="text-inner-tspan" font-weight="normal">No</tspan></tspan></text></g></g></g><g class="edgeLabel" transform="translate(242.91796875, 585.8500061035156)"><g class="label" data-id="L_Q2_Q3_0" transform="translate(0, -10.5)"><g><rect class="background" style="" x="-13.328125" y="-1" width="26.65625" height="23"></rect><text y="-10.1" text-anchor="middle" style=""><tspan class="text-outer-tspan row" x="0" y="-0.1em" dy="1.1em" text-anchor="middle"><tspan font-style="normal" class="text-inner-tspan" font-weight="normal">Yes</tspan></tspan></text></g></g></g><g class="edgeLabel" transform="translate(753.46875, 585.8500061035156)"><g class="label" data-id="L_Q2_Q4_0" transform="translate(0, -10.5)"><g><rect class="background" style="" x="-11.3984375" y="-1" width="22.796875" height="23"></rect><text y="-10.1" text-anchor="middle" style=""><tspan class="text-outer-tspan row" x="0" y="-0.1em" dy="1.1em" text-anchor="middle"><tspan font-style="normal" class="text-inner-tspan" font-weight="normal">No</tspan></tspan></text></g></g></g><g class="edgeLabel" transform="translate(116.125, 867.9187622070312)"><g class="label" data-id="L_Q3_ISR_0" transform="translate(0, -10.5)"><g><rect class="background" style="" x="-13.328125" y="-1" width="26.65625" height="23"></rect><text y="-10.1" text-anchor="middle" style=""><tspan class="text-outer-tspan row" x="0" y="-0.1em" dy="1.1em" text-anchor="middle"><tspan font-style="normal" class="text-inner-tspan" font-weight="normal">Yes</tspan></tspan></text></g></g></g><g class="edgeLabel" transform="translate(369.7109375, 867.9187622070312)"><g class="label" data-id="L_Q3_SSRC_0" transform="translate(0, -10.5)"><g><rect class="background" style="" x="-11.3984375" y="-1" width="22.796875" height="23"></rect><text y="-10.1" text-anchor="middle" style=""><tspan class="text-outer-tspan row" x="0" y="-0.1em" dy="1.1em" text-anchor="middle"><tspan font-style="normal" class="text-inner-tspan" font-weight="normal">No</tspan></tspan></text></g></g></g><g class="edgeLabel" transform="translate(624.484375, 867.9187622070312)"><g class="label" data-id="L_Q4_SSG_0" transform="translate(0, -10.5)"><g><rect class="background" style="" x="-13.328125" y="-1" width="26.65625" height="23"></rect><text y="-10.1" text-anchor="middle" style=""><tspan class="text-outer-tspan row" x="0" y="-0.1em" dy="1.1em" text-anchor="middle"><tspan font-style="normal" class="text-inner-tspan" font-weight="normal">Yes</tspan></tspan></text></g></g></g><g class="edgeLabel" transform="translate(882.453125, 867.9187622070312)"><g class="label" data-id="L_Q4_ISRB_0" transform="translate(0, -10.5)"><g><rect class="background" style="" x="-11.3984375" y="-1" width="22.796875" height="23"></rect><text y="-10.1" text-anchor="middle" style=""><tspan class="text-outer-tspan row" x="0" y="-0.1em" dy="1.1em" text-anchor="middle"><tspan font-style="normal" class="text-inner-tspan" font-weight="normal">No</tspan></tspan></text></g></g></g></g><g class="nodes"><g class="node default" id="g4c680460-fccd-46be-980b-2b3f8f00a993-dark-flowchart-Start-0" data-look="classic" transform="translate(363.7640609741211, 25)"><g class="basic label-container outer-path"><path d="M-40.90625 -17 C-8.878415892457426 -17, 23.14941821508515 -17, 40.90625 -17 C40.90625 -17, 40.90625 -17, 40.90625 -17 C41.32401428787882 -16.98660311241658, 41.74177857575763 -16.973206224833167, 41.99544373967212 -16.965071676755716 C42.35649598254622 -16.930241401114504, 42.71754822542032 -16.89541112547329, 43.0801617486366 -16.860430234995185 C43.31582956258795 -16.822329290466723, 43.5514973765393 -16.784228345938264, 44.155946687923326 -16.686505668848113 C44.50643306164842 -16.60650944118269, 44.85691943537352 -16.52651321351727, 45.21837792646162 -16.4440126716635 C45.6277759799686 -16.322505478356863, 46.03717403347558 -16.20099828505023, 46.26308970640155 -16.133947699181366 C46.51810815812814 -16.040098551581252, 46.773126609854735 -15.946249403981142, 47.28578908294936 -15.757584874882369 C47.66951383959671 -15.587721307905063, 48.05323859624406 -15.417857740927756, 48.28227356499849 -15.316470754341125 C48.62900546521962 -15.135580944088144, 48.97573736544075 -14.95469113383516, 49.24844838406694 -14.812417970097622 C49.55189446291552 -14.628467173852515, 49.8553405417641 -14.444516377607409, 50.180343320579325 -14.247497783161291 C50.534577908804614 -14.000399068983507, 50.888812497029896 -13.753300354805724, 51.074129018350675 -13.624031571755262 C51.29257027301532 -13.44983048412612, 51.511011527679976 -13.275629396496978, 51.9261327202324 -12.944581292275288 C52.15344049502526 -12.738146385442565, 52.38074826981812 -12.531711478609841, 52.73285336025927 -12.21193895166137 C52.99541917152604 -11.94081819447442, 53.257984982792806 -11.669697437287471, 53.49097595028036 -11.42911513444239 C53.72723396267172 -11.151593029625756, 53.96349197506308 -10.874070924809125, 54.19738520195651 -10.59932663159847 C54.44431602399683 -10.268461825925115, 54.691246846037146 -9.937597020251758, 54.84917832814825 -9.725983222076888 C55.02897838662635 -9.449762049178558, 55.20877844510444 -9.17354087628023, 55.44367697109088 -8.812673661278927 C55.57333161139988 -8.58245871845431, 55.702986251708886 -8.352243775629692, 55.978438208341004 -7.863150934094199 C56.12794334892065 -7.552700310783002, 56.2774484895003 -7.242249687471804, 56.45126459126881 -6.881316833080699 C56.54931948867515 -6.639119340724554, 56.6473743860815 -6.39692184836841, 56.860213174845924 -5.871205925162238 C56.944148183626965 -5.6184070519412685, 57.02808319240801 -5.365608178720299, 57.203603501623235 -4.836968972727556 C57.271362465838614 -4.5785746752534635, 57.339121430053986 -4.320180377779371, 57.480024507091 -3.7828558772573464 C57.540051507334745 -3.4746299177167037, 57.600078507578495 -3.166403958176061, 57.68834031804565 -2.713198215567453 C57.73331871713065 -2.3643546342536617, 57.77829711621566 -2.01551105293987, 57.827694920136366 -1.632391440430593 C57.846246291872184 -1.3434388512475113, 57.864797663608 -1.0544862620644295, 57.8975156754117 -0.5448768187181379 C57.8975156754117 -0.11960432051647135, 57.8975156754117 0.30566817768519516, 57.8975156754117 0.5448768187181336 C57.875905098440136 0.8814789987939761, 57.85429452146857 1.2180811788698185, 57.827694920136366 1.6323914404305815 C57.78594210676969 1.9562180158769866, 57.74418929340301 2.280044591323392, 57.688340318045654 2.7131982155674415 C57.6373850646101 2.9748426725623704, 57.586429811174554 3.236487129557299, 57.480024507091 3.782855877257343 C57.42131183619847 4.006752737603113, 57.36259916530593 4.230649597948883, 57.203603501623235 4.836968972727545 C57.08720281045457 5.1875493085960045, 56.970802119285906 5.538129644464464, 56.860213174845924 5.871205925162227 C56.752982729393814 6.136067198588559, 56.64575228394171 6.400928472014891, 56.45126459126881 6.881316833080694 C56.3286815721658 7.135863095104541, 56.20609855306278 7.390409357128387, 55.978438208341004 7.863150934094196 C55.77348526421199 8.227065640131315, 55.56853232008297 8.590980346168433, 55.44367697109089 8.812673661278923 C55.230311299110404 9.14046063014617, 55.016945627129914 9.468247599013418, 54.849178328148255 9.725983222076879 C54.60078018390432 10.05881410582728, 54.352382039660384 10.39164498957768, 54.19738520195651 10.599326631598467 C54.01397069472611 10.814775748372405, 53.83055618749572 11.03022486514634, 53.49097595028037 11.42911513444238 C53.289646146463014 11.637004686368101, 53.088316342645655 11.84489423829382, 52.73285336025927 12.211938951661365 C52.47458628013006 12.446490280462232, 52.216319200000854 12.681041609263099, 51.92613272023242 12.944581292275275 C51.725871926194685 13.104283946356825, 51.52561113215695 13.263986600438374, 51.074129018350675 13.62403157175526 C50.7554980834417 13.8462947186369, 50.43686714853273 14.068557865518539, 50.18034332057934 14.247497783161286 C49.870029660882814 14.4356117472748, 49.55971600118629 14.623725711388316, 49.24844838406695 14.81241797009762 C48.938225033102675 14.97426129358814, 48.628001682138404 15.136104617078662, 48.28227356499849 15.316470754341124 C47.92303799234985 15.475493686008035, 47.563802419701204 15.634516617674945, 47.285789082949364 15.757584874882367 C46.923820958942606 15.890792490513514, 46.56185283493584 16.02400010614466, 46.26308970640156 16.133947699181363 C45.9545566035428 16.22551870458654, 45.64602350068403 16.317089709991716, 45.21837792646164 16.444012671663497 C44.88590004504625 16.519898578475622, 44.553422163630856 16.595784485287748, 44.15594668792333 16.68650566884811 C43.7695466325488 16.74897583322388, 43.383146577174266 16.81144599759965, 43.08016174863661 16.86043023499518 C42.79913188617827 16.88754084783868, 42.51810202371994 16.914651460682176, 41.99544373967212 16.965071676755716 C41.58156038799003 16.978344110269088, 41.167677036307936 16.99161654378246, 40.90625 17 C40.90625 17, 40.90625 17, 40.90625 17 C12.07932844110368 17, -16.74759311779264 17, -40.90625 17 C-41.319161582882934 16.986758729220583, -41.73207316576586 16.973517458441165, -41.99544373967211 16.965071676755716 C-42.21415763629611 16.943972610190343, -42.432871532920096 16.922873543624974, -43.080161748636606 16.86043023499518 C-43.39572654282962 16.80941216631158, -43.711291337022644 16.758394097627985, -44.155946687923326 16.68650566884811 C-44.517201992374986 16.60405150301819, -44.87845729682665 16.521597337188272, -45.21837792646162 16.4440126716635 C-45.6304291887255 16.321718019924795, -46.04248045098937 16.19942336818609, -46.263089706401544 16.13394769918137 C-46.544237627722794 16.030482665232256, -46.82538554904404 15.927017631283139, -47.285789082949364 15.757584874882369 C-47.49357395224017 15.66560467696648, -47.701358821530974 15.57362447905059, -48.28227356499848 15.316470754341127 C-48.62537984153044 15.137472429644465, -48.968486118062394 14.958474104947802, -49.24844838406693 14.812417970097624 C-49.55012240396499 14.6295414064021, -49.85179642386305 14.446664842706573, -50.18034332057932 14.247497783161299 C-50.50821972409326 14.018785397610719, -50.836096127607206 13.790073012060141, -51.07412901835067 13.624031571755264 C-51.25850564061979 13.476996121963621, -51.4428822628889 13.329960672171978, -51.9261327202324 12.94458129227529 C-52.23183975426166 12.6669462525348, -52.53754678829092 12.389311212794308, -52.73285336025926 12.211938951661377 C-52.8905598031235 12.04909410146429, -53.04826624598775 11.8862492512672, -53.490975950280365 11.429115134442386 C-53.647503126437485 11.245249406679598, -53.8040303025946 11.06138367891681, -54.19738520195651 10.599326631598473 C-54.38876440153971 10.342895939160734, -54.58014360112291 10.086465246722994, -54.84917832814825 9.72598322207689 C-54.96912759187839 9.541708942100128, -55.08907685560854 9.357434662123365, -55.44367697109088 8.812673661278936 C-55.57369896640839 8.581806442437992, -55.70372096172589 8.350939223597047, -55.978438208341004 7.863150934094201 C-56.07786496396542 7.656689148648334, -56.17729171958983 7.450227363202467, -56.45126459126881 6.881316833080701 C-56.55985228999194 6.613103117834238, -56.66843998871507 6.344889402587774, -56.860213174845924 5.87120592516224 C-56.968566005994326 5.544864461422449, -57.07691883714273 5.218522997682658, -57.203603501623235 4.8369689727275516 C-57.28528541091032 4.525480451452487, -57.366967320197396 4.213991930177422, -57.480024507091 3.782855877257349 C-57.553574689149286 3.405191237224531, -57.62712487120757 3.0275265971917125, -57.68834031804565 2.713198215567455 C-57.72178766467832 2.4537872000101215, -57.75523501131099 2.1943761844527883, -57.827694920136366 1.6323914404306026 C-57.843725932171154 1.3826954879887836, -57.85975694420594 1.1329995355469646, -57.8975156754117 0.54487681871814 C-57.8975156754117 0.21214302228455972, -57.8975156754117 -0.12059077414902053, -57.8975156754117 -0.5448768187181317 C-57.877086474653936 -0.8630781106742371, -57.85665727389618 -1.1812794026303428, -57.827694920136366 -1.6323914404305793 C-57.78207986361493 -1.9861728110990782, -57.736464807093505 -2.339954181767577, -57.688340318045654 -2.713198215567447 C-57.636444368895845 -2.979672946238995, -57.58454841974603 -3.2461476769105433, -57.480024507091 -3.782855877257341 C-57.38441928620421 -4.147440020063521, -57.28881406531742 -4.512024162869701, -57.203603501623235 -4.836968972727544 C-57.07791810219579 -5.215513370554105, -56.952232702768335 -5.594057768380666, -56.86021317484593 -5.871205925162218 C-56.70188273404837 -6.2622851750430275, -56.543552293250805 -6.653364424923838, -56.45126459126881 -6.881316833080692 C-56.27729206527544 -7.242574505721672, -56.10331953928206 -7.6038321783626515, -55.978438208341004 -7.863150934094194 C-55.77084490141748 -8.231753871638677, -55.56325159449396 -8.600356809183161, -55.44367697109088 -8.812673661278929 C-55.3188794157329 -9.004396219144638, -55.19408186037492 -9.196118777010346, -54.84917832814825 -9.725983222076884 C-54.59264861126725 -10.069709672359444, -54.336118894386246 -10.413436122642004, -54.19738520195651 -10.599326631598467 C-53.95013850756441 -10.889756667566889, -53.702891813172315 -11.180186703535309, -53.49097595028037 -11.42911513444238 C-53.291348241409516 -11.635247133591244, -53.09172053253866 -11.841379132740109, -52.73285336025928 -12.21193895166136 C-52.532984293334756 -12.393454749996488, -52.33311522641023 -12.574970548331619, -51.92613272023242 -12.944581292275274 C-51.600228472715564 -13.20448125699371, -51.274324225198704 -13.464381221712145, -51.074129018350675 -13.624031571755259 C-50.88408988645472 -13.756594643504451, -50.69405075455876 -13.889157715253642, -50.18034332057934 -14.247497783161284 C-49.95627123395996 -14.383331598863693, -49.73219914734059 -14.519165414566103, -49.24844838406695 -14.812417970097618 C-48.98034015996451 -14.952289858880345, -48.71223193586207 -15.092161747663072, -48.28227356499849 -15.316470754341124 C-47.93891636587726 -15.468464801062666, -47.595559166756026 -15.620458847784208, -47.28578908294937 -15.757584874882365 C-46.951574533878386 -15.880578918385913, -46.61735998480741 -16.00357296188946, -46.263089706401566 -16.133947699181363 C-46.01524314794353 -16.207507256758575, -45.76739658948549 -16.281066814335787, -45.21837792646164 -16.444012671663494 C-44.837392373011596 -16.530970138075386, -44.45640681956156 -16.617927604487278, -44.15594668792333 -16.68650566884811 C-43.76648705367294 -16.74947048220914, -43.37702741942255 -16.81243529557017, -43.08016174863661 -16.86043023499518 C-42.74016309192235 -16.893229496500197, -42.400164435208076 -16.926028758005213, -41.99544373967212 -16.965071676755716 C-41.67664415870221 -16.97529495881168, -41.35784457773231 -16.985518240867645, -40.90625000000001 -17 C-40.90625000000001 -17, -40.90625000000001 -17, -40.90625 -17" stroke="none" stroke-width="0" fill="#2d2d2d" style=""></path><path d="M-40.90625 -17 C-15.853175192452316 -17, 9.199899615095369 -17, 40.90625 -17 M-40.90625 -17 C-9.57651698054659 -17, 21.75321603890682 -17, 40.90625 -17 M40.90625 -17 C40.90625 -17, 40.90625 -17, 40.90625 -17 M40.90625 -17 C40.90625 -17, 40.90625 -17, 40.90625 -17 M40.90625 -17 C41.23023824559677 -16.989610327568574, 41.55422649119355 -16.979220655137148, 41.99544373967212 -16.965071676755716 M40.90625 -17 C41.17092311530366 -16.991512448347176, 41.43559623060732 -16.983024896694356, 41.99544373967212 -16.965071676755716 M41.99544373967212 -16.965071676755716 C42.30558840310513 -16.935152394077864, 42.61573306653815 -16.905233111400012, 43.0801617486366 -16.860430234995185 M41.99544373967212 -16.965071676755716 C42.383091761324984 -16.92767573832182, 42.770739782977856 -16.890279799887924, 43.0801617486366 -16.860430234995185 M43.0801617486366 -16.860430234995185 C43.48155591286633 -16.79553593938076, 43.882950077096055 -16.73064164376633, 44.155946687923326 -16.686505668848113 M43.0801617486366 -16.860430234995185 C43.45462928845964 -16.799889227195738, 43.82909682828268 -16.739348219396295, 44.155946687923326 -16.686505668848113 M44.155946687923326 -16.686505668848113 C44.507582568816915 -16.60624707367272, 44.8592184497105 -16.525988478497325, 45.21837792646162 -16.4440126716635 M44.155946687923326 -16.686505668848113 C44.469200119500655 -16.615007617260268, 44.78245355107798 -16.54350956567242, 45.21837792646162 -16.4440126716635 M45.21837792646162 -16.4440126716635 C45.5904635128868 -16.33357962272961, 45.96254909931197 -16.223146573795713, 46.26308970640155 -16.133947699181366 M45.21837792646162 -16.4440126716635 C45.58828598310879 -16.334225902137632, 45.95819403975595 -16.224439132611767, 46.26308970640155 -16.133947699181366 M46.26308970640155 -16.133947699181366 C46.542644346511274 -16.031069007446224, 46.822198986621004 -15.928190315711078, 47.28578908294936 -15.757584874882369 M46.26308970640155 -16.133947699181366 C46.47926144901855 -16.05439449962863, 46.695433191635544 -15.974841300075889, 47.28578908294936 -15.757584874882369 M47.28578908294936 -15.757584874882369 C47.58328618167029 -15.625891734216498, 47.88078328039121 -15.494198593550626, 48.28227356499849 -15.316470754341125 M47.28578908294936 -15.757584874882369 C47.5022779688693 -15.66175166700024, 47.718766854789244 -15.565918459118114, 48.28227356499849 -15.316470754341125 M48.28227356499849 -15.316470754341125 C48.62472922333464 -15.137811856740473, 48.96718488167079 -14.959152959139821, 49.24844838406694 -14.812417970097622 M48.28227356499849 -15.316470754341125 C48.55403035387469 -15.174695411652943, 48.82578714275089 -15.032920068964762, 49.24844838406694 -14.812417970097622 M49.24844838406694 -14.812417970097622 C49.54776822744235 -14.630968522044803, 49.847088070817755 -14.449519073991985, 50.180343320579325 -14.247497783161291 M49.24844838406694 -14.812417970097622 C49.562736081447845 -14.621894920985797, 49.87702377882875 -14.431371871873973, 50.180343320579325 -14.247497783161291 M50.180343320579325 -14.247497783161291 C50.44200624663089 -14.064973053153226, 50.70366917268246 -13.882448323145159, 51.074129018350675 -13.624031571755262 M50.180343320579325 -14.247497783161291 C50.38576689656078 -14.104203189199907, 50.591190472542245 -13.960908595238521, 51.074129018350675 -13.624031571755262 M51.074129018350675 -13.624031571755262 C51.316941477188294 -13.430395097343157, 51.55975393602591 -13.236758622931049, 51.9261327202324 -12.944581292275288 M51.074129018350675 -13.624031571755262 C51.28194808124346 -13.458301399395786, 51.489767144136245 -13.29257122703631, 51.9261327202324 -12.944581292275288 M51.9261327202324 -12.944581292275288 C52.18683413207534 -12.707819167820904, 52.44753554391827 -12.471057043366521, 52.73285336025927 -12.21193895166137 M51.9261327202324 -12.944581292275288 C52.245737376704724 -12.654324799542943, 52.56534203317705 -12.3640683068106, 52.73285336025927 -12.21193895166137 M52.73285336025927 -12.21193895166137 C52.888521221741996 -12.051199104111337, 53.04418908322473 -11.890459256561305, 53.49097595028036 -11.42911513444239 M52.73285336025927 -12.21193895166137 C53.01518261432179 -11.920410817178979, 53.297511868384305 -11.628882682696586, 53.49097595028036 -11.42911513444239 M53.49097595028036 -11.42911513444239 C53.712135957176265 -11.16932800598157, 53.933295964072165 -10.909540877520751, 54.19738520195651 -10.59932663159847 M53.49097595028036 -11.42911513444239 C53.65909344765274 -11.231634755872197, 53.827210945025115 -11.034154377302006, 54.19738520195651 -10.59932663159847 M54.19738520195651 -10.59932663159847 C54.35187435509037 -10.392325240650484, 54.506363508224226 -10.185323849702497, 54.84917832814825 -9.725983222076888 M54.19738520195651 -10.59932663159847 C54.44335610563523 -10.26974802907929, 54.689327009313956 -9.94016942656011, 54.84917832814825 -9.725983222076888 M54.84917832814825 -9.725983222076888 C55.01866196724467 -9.465610839695305, 55.18814560634109 -9.20523845731372, 55.44367697109088 -8.812673661278927 M54.84917832814825 -9.725983222076888 C54.97922192913904 -9.526201329358685, 55.109265530129825 -9.326419436640483, 55.44367697109088 -8.812673661278927 M55.44367697109088 -8.812673661278927 C55.63173306117413 -8.47876103059207, 55.81978915125739 -8.144848399905213, 55.978438208341004 -7.863150934094199 M55.44367697109088 -8.812673661278927 C55.65158527841099 -8.443511408633048, 55.8594935857311 -8.07434915598717, 55.978438208341004 -7.863150934094199 M55.978438208341004 -7.863150934094199 C56.13371450532185 -7.540716381032947, 56.2889908023027 -7.218281827971695, 56.45126459126881 -6.881316833080699 M55.978438208341004 -7.863150934094199 C56.146960354611906 -7.513211091566377, 56.31548250088281 -7.163271249038553, 56.45126459126881 -6.881316833080699 M56.45126459126881 -6.881316833080699 C56.60734632327042 -6.495791937401715, 56.76342805527204 -6.110267041722731, 56.860213174845924 -5.871205925162238 M56.45126459126881 -6.881316833080699 C56.59709109616801 -6.521122546616001, 56.74291760106721 -6.160928260151304, 56.860213174845924 -5.871205925162238 M56.860213174845924 -5.871205925162238 C56.93565515856893 -5.643986690236307, 57.01109714229193 -5.416767455310376, 57.203603501623235 -4.836968972727556 M56.860213174845924 -5.871205925162238 C56.94085414708478 -5.628328165172896, 57.02149511932363 -5.385450405183554, 57.203603501623235 -4.836968972727556 M57.203603501623235 -4.836968972727556 C57.26391092176285 -4.6069906423339715, 57.324218341902466 -4.377012311940387, 57.480024507091 -3.7828558772573464 M57.203603501623235 -4.836968972727556 C57.302406989679 -4.4601884510683245, 57.401210477734764 -4.083407929409093, 57.480024507091 -3.7828558772573464 M57.480024507091 -3.7828558772573464 C57.54821126300183 -3.432731296931178, 57.61639801891267 -3.0826067166050097, 57.68834031804565 -2.713198215567453 M57.480024507091 -3.7828558772573464 C57.563231155783456 -3.3556073219530296, 57.6464378044759 -2.9283587666487128, 57.68834031804565 -2.713198215567453 M57.68834031804565 -2.713198215567453 C57.73503812492825 -2.3510192469109765, 57.78173593181086 -1.9888402782545, 57.827694920136366 -1.632391440430593 M57.68834031804565 -2.713198215567453 C57.7164143470331 -2.495461590584829, 57.744488376020556 -2.2777249656022054, 57.827694920136366 -1.632391440430593 M57.827694920136366 -1.632391440430593 C57.846184103034155 -1.3444074925977867, 57.864673285931936 -1.0564235447649803, 57.8975156754117 -0.5448768187181379 M57.827694920136366 -1.632391440430593 C57.851930461039345 -1.2549033282902566, 57.876166001942316 -0.8774152161499202, 57.8975156754117 -0.5448768187181379 M57.8975156754117 -0.5448768187181379 C57.8975156754117 -0.13400005073488158, 57.8975156754117 0.2768767172483747, 57.8975156754117 0.5448768187181336 M57.8975156754117 -0.5448768187181379 C57.8975156754117 -0.2626772063884287, 57.8975156754117 0.01952240594128052, 57.8975156754117 0.5448768187181336 M57.8975156754117 0.5448768187181336 C57.87941649768265 0.8267861212413463, 57.8613173199536 1.108695423764559, 57.827694920136366 1.6323914404305815 M57.8975156754117 0.5448768187181336 C57.8696857442356 0.9783504607018216, 57.84185581305952 1.4118241026855096, 57.827694920136366 1.6323914404305815 M57.827694920136366 1.6323914404305815 C57.79013971372816 1.9236622052183527, 57.752584507319945 2.214932970006124, 57.688340318045654 2.7131982155674415 M57.827694920136366 1.6323914404305815 C57.77627208843862 2.0312167684916553, 57.72484925674087 2.430042096552729, 57.688340318045654 2.7131982155674415 M57.688340318045654 2.7131982155674415 C57.639704913900786 2.9629307367550237, 57.59106950975592 3.212663257942606, 57.480024507091 3.782855877257343 M57.688340318045654 2.7131982155674415 C57.621772322387336 3.0550108041220474, 57.55520432672901 3.396823392676654, 57.480024507091 3.782855877257343 M57.480024507091 3.782855877257343 C57.40415682569047 4.072172227698678, 57.32828914428995 4.361488578140014, 57.203603501623235 4.836968972727545 M57.480024507091 3.782855877257343 C57.41792876293814 4.019653862177974, 57.35583301878527 4.256451847098606, 57.203603501623235 4.836968972727545 M57.203603501623235 4.836968972727545 C57.07692794865745 5.218495555252026, 56.95025239569166 5.600022137776506, 56.860213174845924 5.871205925162227 M57.203603501623235 4.836968972727545 C57.130192570629085 5.058071000438482, 57.05678163963493 5.279173028149419, 56.860213174845924 5.871205925162227 M56.860213174845924 5.871205925162227 C56.730180879322575 6.192388209108312, 56.600148583799225 6.513570493054398, 56.45126459126881 6.881316833080694 M56.860213174845924 5.871205925162227 C56.73537266192645 6.17956440570045, 56.61053214900698 6.487922886238674, 56.45126459126881 6.881316833080694 M56.45126459126881 6.881316833080694 C56.31829812655916 7.157424542076871, 56.1853316618495 7.433532251073048, 55.978438208341004 7.863150934094196 M56.45126459126881 6.881316833080694 C56.27701957663891 7.243140334205745, 56.10277456200901 7.604963835330796, 55.978438208341004 7.863150934094196 M55.978438208341004 7.863150934094196 C55.85219916233629 8.087301143365126, 55.72596011633158 8.311451352636055, 55.44367697109089 8.812673661278923 M55.978438208341004 7.863150934094196 C55.866266270910444 8.06232356764251, 55.754094333479884 8.261496201190823, 55.44367697109089 8.812673661278923 M55.44367697109089 8.812673661278923 C55.30387086189932 9.027453388194035, 55.16406475270775 9.242233115109146, 54.849178328148255 9.725983222076879 M55.44367697109089 8.812673661278923 C55.28636383522623 9.0543488824588, 55.12905069936158 9.296024103638679, 54.849178328148255 9.725983222076879 M54.849178328148255 9.725983222076879 C54.68065546601974 9.951788504580511, 54.512132603891224 10.177593787084144, 54.19738520195651 10.599326631598467 M54.849178328148255 9.725983222076879 C54.66803936486879 9.968692930772326, 54.486900401589324 10.21140263946777, 54.19738520195651 10.599326631598467 M54.19738520195651 10.599326631598467 C53.97163046769038 10.864510988275747, 53.745875733424256 11.129695344953028, 53.49097595028037 11.42911513444238 M54.19738520195651 10.599326631598467 C53.953005779674946 10.88638860659345, 53.708626357393385 11.17345058158843, 53.49097595028037 11.42911513444238 M53.49097595028037 11.42911513444238 C53.193631292508876 11.736147906041865, 52.89628663473737 12.043180677641347, 52.73285336025927 12.211938951661365 M53.49097595028037 11.42911513444238 C53.30228042004642 11.623958761600079, 53.11358488981247 11.818802388757776, 52.73285336025927 12.211938951661365 M52.73285336025927 12.211938951661365 C52.52498924143504 12.400715644594328, 52.317125122610804 12.589492337527291, 51.92613272023242 12.944581292275275 M52.73285336025927 12.211938951661365 C52.486158888784615 12.43598034347661, 52.23946441730996 12.660021735291856, 51.92613272023242 12.944581292275275 M51.92613272023242 12.944581292275275 C51.643301958028 13.17013129869063, 51.36047119582357 13.395681305105983, 51.074129018350675 13.62403157175526 M51.92613272023242 12.944581292275275 C51.60335632414079 13.201986878717715, 51.28057992804916 13.459392465160155, 51.074129018350675 13.62403157175526 M51.074129018350675 13.62403157175526 C50.72248213964941 13.869325211789231, 50.37083526094814 14.1146188518232, 50.18034332057934 14.247497783161286 M51.074129018350675 13.62403157175526 C50.7945901471181 13.819025787284406, 50.51505127588552 14.01402000281355, 50.18034332057934 14.247497783161286 M50.18034332057934 14.247497783161286 C49.88572793351177 14.426095362153843, 49.59111254644419 14.604692941146398, 49.24844838406695 14.81241797009762 M50.18034332057934 14.247497783161286 C49.944785448861296 14.390294349288473, 49.70922757714325 14.533090915415658, 49.24844838406695 14.81241797009762 M49.24844838406695 14.81241797009762 C49.043059575802886 14.919569179811168, 48.83767076753883 15.026720389524717, 48.28227356499849 15.316470754341124 M49.24844838406695 14.81241797009762 C49.00998195942972 14.936825751085824, 48.771515534792506 15.061233532074025, 48.28227356499849 15.316470754341124 M48.28227356499849 15.316470754341124 C47.972233382882116 15.453716345948811, 47.662193200765735 15.590961937556498, 47.285789082949364 15.757584874882367 M48.28227356499849 15.316470754341124 C48.080226882598836 15.405910827137568, 47.87818020019918 15.49535089993401, 47.285789082949364 15.757584874882367 M47.285789082949364 15.757584874882367 C46.931133428551895 15.888101434101566, 46.57647777415443 16.018617993320767, 46.26308970640156 16.133947699181363 M47.285789082949364 15.757584874882367 C46.95169895827482 15.88053312905786, 46.617608833600265 16.00348138323335, 46.26308970640156 16.133947699181363 M46.26308970640156 16.133947699181363 C46.002756800487724 16.211213139141282, 45.74242389457388 16.288478579101202, 45.21837792646164 16.444012671663497 M46.26308970640156 16.133947699181363 C46.03929144307616 16.200369848995287, 45.81549317975075 16.26679199880921, 45.21837792646164 16.444012671663497 M45.21837792646164 16.444012671663497 C44.82245384730865 16.534379759084096, 44.42652976815565 16.624746846504696, 44.15594668792333 16.68650566884811 M45.21837792646164 16.444012671663497 C44.88777701953156 16.51947017129775, 44.55717611260148 16.59492767093201, 44.15594668792333 16.68650566884811 M44.15594668792333 16.68650566884811 C43.72896951662348 16.755536026646453, 43.301992345323626 16.824566384444797, 43.08016174863661 16.86043023499518 M44.15594668792333 16.68650566884811 C43.74120911817048 16.75355722278786, 43.32647154841763 16.820608776727614, 43.08016174863661 16.86043023499518 M43.08016174863661 16.86043023499518 C42.81303766237981 16.88619937433266, 42.54591357612302 16.911968513670136, 41.99544373967212 16.965071676755716 M43.08016174863661 16.86043023499518 C42.860231511551525 16.881646640461973, 42.64030127446643 16.90286304592876, 41.99544373967212 16.965071676755716 M41.99544373967212 16.965071676755716 C41.77221349385285 16.972230236247825, 41.54898324803359 16.979388795739936, 40.90625 17 M41.99544373967212 16.965071676755716 C41.566603813413515 16.978823738504552, 41.137763887154904 16.992575800253388, 40.90625 17 M40.90625 17 C40.90625 17, 40.90625 17, 40.90625 17 M40.90625 17 C40.90625 17, 40.90625 17, 40.90625 17 M40.90625 17 C19.752038013866247 17, -1.402173972267505 17, -40.90625 17 M40.90625 17 C17.669206725181102 17, -5.567836549637796 17, -40.90625 17 M-40.90625 17 C-41.16603001621945 16.99166936051097, -41.425810032438896 16.983338721021937, -41.99544373967211 16.965071676755716 M-40.90625 17 C-41.21872877827065 16.989979413783903, -41.531207556541304 16.97995882756781, -41.99544373967211 16.965071676755716 M-41.99544373967211 16.965071676755716 C-42.31286522723011 16.93445040760619, -42.63028671478812 16.903829138456658, -43.080161748636606 16.86043023499518 M-41.99544373967211 16.965071676755716 C-42.31069981248409 16.934659302562444, -42.625955885296065 16.904246928369172, -43.080161748636606 16.86043023499518 M-43.080161748636606 16.86043023499518 C-43.40186566907382 16.808419639990056, -43.72356958951104 16.75640904498493, -44.155946687923326 16.68650566884811 M-43.080161748636606 16.86043023499518 C-43.46630322576189 16.798001875545445, -43.852444702887176 16.73557351609571, -44.155946687923326 16.68650566884811 M-44.155946687923326 16.68650566884811 C-44.45315909543717 16.618668876325287, -44.75037150295102 16.55083208380247, -45.21837792646162 16.4440126716635 M-44.155946687923326 16.68650566884811 C-44.52383755815815 16.6025369784293, -44.89172842839298 16.518568288010485, -45.21837792646162 16.4440126716635 M-45.21837792646162 16.4440126716635 C-45.52079951610928 16.354255531299394, -45.823221105756936 16.264498390935287, -46.263089706401544 16.13394769918137 M-45.21837792646162 16.4440126716635 C-45.427829491515936 16.381848546589083, -45.637281056570245 16.319684421514662, -46.263089706401544 16.13394769918137 M-46.263089706401544 16.13394769918137 C-46.48626347052123 16.051817690989665, -46.70943723464092 15.969687682797957, -47.285789082949364 15.757584874882369 M-46.263089706401544 16.13394769918137 C-46.55823678711182 16.025330845170284, -46.853383867822096 15.916713991159197, -47.285789082949364 15.757584874882369 M-47.285789082949364 15.757584874882369 C-47.54435233185076 15.643126594599984, -47.802915580752156 15.5286683143176, -48.28227356499848 15.316470754341127 M-47.285789082949364 15.757584874882369 C-47.58118039575092 15.626823903177081, -47.87657170855248 15.496062931471796, -48.28227356499848 15.316470754341127 M-48.28227356499848 15.316470754341127 C-48.536655127118614 15.183760056322223, -48.79103668923874 15.051049358303318, -49.24844838406693 14.812417970097624 M-48.28227356499848 15.316470754341127 C-48.534401698835616 15.184935668414072, -48.78652983267275 15.053400582487017, -49.24844838406693 14.812417970097624 M-49.24844838406693 14.812417970097624 C-49.534887261105816 14.638777039534968, -49.8213261381447 14.465136108972313, -50.18034332057932 14.247497783161299 M-49.24844838406693 14.812417970097624 C-49.49482601544238 14.663062402082156, -49.74120364681782 14.513706834066689, -50.18034332057932 14.247497783161299 M-50.18034332057932 14.247497783161299 C-50.5079433658773 14.018978173138818, -50.83554341117529 13.790458563116337, -51.07412901835067 13.624031571755264 M-50.18034332057932 14.247497783161299 C-50.49502239883559 14.027991280407472, -50.809701477091856 13.808484777653643, -51.07412901835067 13.624031571755264 M-51.07412901835067 13.624031571755264 C-51.40979632614526 13.35634582627128, -51.745463633939856 13.088660080787294, -51.9261327202324 12.94458129227529 M-51.07412901835067 13.624031571755264 C-51.29612522076933 13.446995507893428, -51.518121423188 13.26995944403159, -51.9261327202324 12.94458129227529 M-51.9261327202324 12.94458129227529 C-52.175467791884536 12.718141777245307, -52.42480286353668 12.491702262215325, -52.73285336025926 12.211938951661377 M-51.9261327202324 12.94458129227529 C-52.1675240437195 12.725356079148733, -52.4089153672066 12.506130866022177, -52.73285336025926 12.211938951661377 M-52.73285336025926 12.211938951661377 C-53.01278270314602 11.922888922504328, -53.29271204603278 11.63383889334728, -53.490975950280365 11.429115134442386 M-52.73285336025926 12.211938951661377 C-53.01067724815145 11.925062977647292, -53.28850113604364 11.638187003633206, -53.490975950280365 11.429115134442386 M-53.490975950280365 11.429115134442386 C-53.76125073330478 11.111634995231087, -54.03152551632919 10.79415485601979, -54.19738520195651 10.599326631598473 M-53.490975950280365 11.429115134442386 C-53.6392191129635 11.254980280279858, -53.78746227564663 11.080845426117332, -54.19738520195651 10.599326631598473 M-54.19738520195651 10.599326631598473 C-54.33941205312093 10.409023589950467, -54.481438904285355 10.21872054830246, -54.84917832814825 9.72598322207689 M-54.19738520195651 10.599326631598473 C-54.331931465441286 10.41904689594563, -54.466477728926066 10.238767160292788, -54.84917832814825 9.72598322207689 M-54.84917832814825 9.72598322207689 C-54.99989048186822 9.494448882083145, -55.150602635588186 9.262914542089398, -55.44367697109088 8.812673661278936 M-54.84917832814825 9.72598322207689 C-54.986867764619284 9.514455272866726, -55.12455720109032 9.302927323656563, -55.44367697109088 8.812673661278936 M-55.44367697109088 8.812673661278936 C-55.64419368494798 8.456635931306636, -55.84471039880508 8.100598201334336, -55.978438208341004 7.863150934094201 M-55.44367697109088 8.812673661278936 C-55.577497080933995 8.575062505496973, -55.71131719077711 8.337451349715012, -55.978438208341004 7.863150934094201 M-55.978438208341004 7.863150934094201 C-56.165388608199635 7.474944428689998, -56.352339008058266 7.086737923285795, -56.45126459126881 6.881316833080701 M-55.978438208341004 7.863150934094201 C-56.15506411266296 7.496383464580708, -56.33169001698493 7.129615995067215, -56.45126459126881 6.881316833080701 M-56.45126459126881 6.881316833080701 C-56.60299452074656 6.506540973772032, -56.754724450224316 6.131765114463363, -56.860213174845924 5.87120592516224 M-56.45126459126881 6.881316833080701 C-56.58988618747303 6.538918810390039, -56.72850778367725 6.196520787699378, -56.860213174845924 5.87120592516224 M-56.860213174845924 5.87120592516224 C-56.93361000917717 5.650146354353977, -57.007006843508414 5.429086783545714, -57.203603501623235 4.8369689727275516 M-56.860213174845924 5.87120592516224 C-56.957400125067984 5.57849431573106, -57.054587075290044 5.285782706299879, -57.203603501623235 4.8369689727275516 M-57.203603501623235 4.8369689727275516 C-57.28416060605157 4.529769819872382, -57.36471771047991 4.222570667017212, -57.480024507091 3.782855877257349 M-57.203603501623235 4.8369689727275516 C-57.26559683730085 4.600561515707171, -57.32759017297846 4.3641540586867915, -57.480024507091 3.782855877257349 M-57.480024507091 3.782855877257349 C-57.543317503226945 3.457859719078741, -57.60661049936289 3.132863560900133, -57.68834031804565 2.713198215567455 M-57.480024507091 3.782855877257349 C-57.5571776103346 3.3866909984155997, -57.6343307135782 2.9905261195738504, -57.68834031804565 2.713198215567455 M-57.68834031804565 2.713198215567455 C-57.73340212505587 2.3637077388564394, -57.778463932066096 2.0142172621454235, -57.827694920136366 1.6323914404306026 M-57.68834031804565 2.713198215567455 C-57.73759676719926 2.331174922718146, -57.78685321635286 1.949151629868837, -57.827694920136366 1.6323914404306026 M-57.827694920136366 1.6323914404306026 C-57.85557040857829 1.1982082072584377, -57.88344589702021 0.7640249740862728, -57.8975156754117 0.54487681871814 M-57.827694920136366 1.6323914404306026 C-57.84653058491316 1.339010757657069, -57.865366249689956 1.0456300748835352, -57.8975156754117 0.54487681871814 M-57.8975156754117 0.54487681871814 C-57.8975156754117 0.20892205912512424, -57.8975156754117 -0.1270327004678915, -57.8975156754117 -0.5448768187181317 M-57.8975156754117 0.54487681871814 C-57.8975156754117 0.1592754082622213, -57.8975156754117 -0.22632600219369736, -57.8975156754117 -0.5448768187181317 M-57.8975156754117 -0.5448768187181317 C-57.87869929098953 -0.8379571944055343, -57.85988290656736 -1.131037570092937, -57.827694920136366 -1.6323914404305793 M-57.8975156754117 -0.5448768187181317 C-57.86993517084709 -0.9744654398943474, -57.842354666282496 -1.4040540610705632, -57.827694920136366 -1.6323914404305793 M-57.827694920136366 -1.6323914404305793 C-57.791285572596514 -1.9147751501108101, -57.754876225056655 -2.197158859791041, -57.688340318045654 -2.713198215567447 M-57.827694920136366 -1.6323914404305793 C-57.77596741725712 -2.0335797380112144, -57.724239914377875 -2.4347680355918495, -57.688340318045654 -2.713198215567447 M-57.688340318045654 -2.713198215567447 C-57.629441332648305 -3.0156320572778483, -57.570542347250964 -3.3180658989882494, -57.480024507091 -3.782855877257341 M-57.688340318045654 -2.713198215567447 C-57.61696627110693 -3.079688861687608, -57.54559222416822 -3.446179507807769, -57.480024507091 -3.782855877257341 M-57.480024507091 -3.782855877257341 C-57.37236049527441 -4.193425416191906, -57.26469648345781 -4.603994955126472, -57.203603501623235 -4.836968972727544 M-57.480024507091 -3.782855877257341 C-57.38602831092427 -4.141304111450232, -57.292032114757525 -4.499752345643123, -57.203603501623235 -4.836968972727544 M-57.203603501623235 -4.836968972727544 C-57.09428306647421 -5.166224705550453, -56.98496263132519 -5.495480438373364, -56.86021317484593 -5.871205925162218 M-57.203603501623235 -4.836968972727544 C-57.077254943838795 -5.217510697865427, -56.950906386054356 -5.598052423003311, -56.86021317484593 -5.871205925162218 M-56.86021317484593 -5.871205925162218 C-56.756903176830164 -6.126383617624101, -56.65359317881439 -6.381561310085983, -56.45126459126881 -6.881316833080692 M-56.86021317484593 -5.871205925162218 C-56.7751372024333 -6.081345221853449, -56.69006123002067 -6.291484518544681, -56.45126459126881 -6.881316833080692 M-56.45126459126881 -6.881316833080692 C-56.310679246666794 -7.173245309191282, -56.17009390206477 -7.465173785301872, -55.978438208341004 -7.863150934094194 M-56.45126459126881 -6.881316833080692 C-56.269926588706596 -7.2578690754128194, -56.08858858614438 -7.6344213177449465, -55.978438208341004 -7.863150934094194 M-55.978438208341004 -7.863150934094194 C-55.80839443857368 -8.165080866114907, -55.63835066880635 -8.46701079813562, -55.44367697109088 -8.812673661278929 M-55.978438208341004 -7.863150934094194 C-55.79815340284446 -8.183264862069448, -55.61786859734792 -8.503378790044703, -55.44367697109088 -8.812673661278929 M-55.44367697109088 -8.812673661278929 C-55.27864772750798 -9.066202895979067, -55.11361848392508 -9.319732130679206, -54.84917832814825 -9.725983222076884 M-55.44367697109088 -8.812673661278929 C-55.264558190990954 -9.08784820763953, -55.08543941089102 -9.36302275400013, -54.84917832814825 -9.725983222076884 M-54.84917832814825 -9.725983222076884 C-54.679153189428455 -9.953801418352622, -54.509128050708654 -10.18161961462836, -54.19738520195651 -10.599326631598467 M-54.84917832814825 -9.725983222076884 C-54.637067013458534 -10.010193060022809, -54.42495569876881 -10.294402897968734, -54.19738520195651 -10.599326631598467 M-54.19738520195651 -10.599326631598467 C-54.04233400962792 -10.781458584770403, -53.88728281729934 -10.96359053794234, -53.49097595028037 -11.42911513444238 M-54.19738520195651 -10.599326631598467 C-54.01315342503449 -10.815735759856151, -53.82892164811247 -11.032144888113836, -53.49097595028037 -11.42911513444238 M-53.49097595028037 -11.42911513444238 C-53.22521559778814 -11.70353451772133, -52.95945524529591 -11.97795390100028, -52.73285336025928 -12.21193895166136 M-53.49097595028037 -11.42911513444238 C-53.19916176448321 -11.73043723966817, -52.90734757868604 -12.03175934489396, -52.73285336025928 -12.21193895166136 M-52.73285336025928 -12.21193895166136 C-52.45667852384938 -12.462753630903082, -52.180503687439476 -12.713568310144803, -51.92613272023242 -12.944581292275274 M-52.73285336025928 -12.21193895166136 C-52.51247049682306 -12.412084837223091, -52.292087633386856 -12.612230722784822, -51.92613272023242 -12.944581292275274 M-51.92613272023242 -12.944581292275274 C-51.63269560795411 -13.17858958062772, -51.33925849567581 -13.412597868980166, -51.074129018350675 -13.624031571755259 M-51.92613272023242 -12.944581292275274 C-51.63207353700994 -13.179085665651696, -51.33801435378746 -13.413590039028119, -51.074129018350675 -13.624031571755259 M-51.074129018350675 -13.624031571755259 C-50.76594527274091 -13.839007211633307, -50.45776152713114 -14.053982851511353, -50.18034332057934 -14.247497783161284 M-51.074129018350675 -13.624031571755259 C-50.88884197240715 -13.753279794058518, -50.703554926463624 -13.882528016361777, -50.18034332057934 -14.247497783161284 M-50.18034332057934 -14.247497783161284 C-49.970839961687034 -14.374499950500198, -49.76133660279472 -14.501502117839111, -49.24844838406695 -14.812417970097618 M-50.18034332057934 -14.247497783161284 C-49.871868225540666 -14.434497198574604, -49.56339313050199 -14.621496613987924, -49.24844838406695 -14.812417970097618 M-49.24844838406695 -14.812417970097618 C-48.93513523855434 -14.975873237424898, -48.621822093041736 -15.139328504752175, -48.28227356499849 -15.316470754341124 M-49.24844838406695 -14.812417970097618 C-48.97979503313182 -14.952574251199788, -48.7111416821967 -15.092730532301958, -48.28227356499849 -15.316470754341124 M-48.28227356499849 -15.316470754341124 C-48.02223857368925 -15.431580531329775, -47.76220358238001 -15.546690308318425, -47.28578908294937 -15.757584874882365 M-48.28227356499849 -15.316470754341124 C-48.024173790926525 -15.43072386806501, -47.76607401685456 -15.5449769817889, -47.28578908294937 -15.757584874882365 M-47.28578908294937 -15.757584874882365 C-46.884992689154984 -15.905081652719952, -46.48419629536059 -16.05257843055754, -46.263089706401566 -16.133947699181363 M-47.28578908294937 -15.757584874882365 C-46.90786239783113 -15.896665388521859, -46.52993571271289 -16.035745902161352, -46.263089706401566 -16.133947699181363 M-46.263089706401566 -16.133947699181363 C-45.98705944821759 -16.215872030897973, -45.71102919003362 -16.297796362614584, -45.21837792646164 -16.444012671663494 M-46.263089706401566 -16.133947699181363 C-46.04296495148469 -16.199279570982274, -45.82284019656782 -16.264611442783185, -45.21837792646164 -16.444012671663494 M-45.21837792646164 -16.444012671663494 C-45.00378972134369 -16.49299102916276, -44.78920151622575 -16.541969386662025, -44.15594668792333 -16.68650566884811 M-45.21837792646164 -16.444012671663494 C-44.906504617079065 -16.515195719366528, -44.59463130769649 -16.58637876706956, -44.15594668792333 -16.68650566884811 M-44.15594668792333 -16.68650566884811 C-43.82374884375823 -16.740212840059964, -43.49155099959312 -16.793920011271823, -43.08016174863661 -16.86043023499518 M-44.15594668792333 -16.68650566884811 C-43.7259344551669 -16.7560267118455, -43.29592222241047 -16.825547754842887, -43.08016174863661 -16.86043023499518 M-43.08016174863661 -16.86043023499518 C-42.66959144704329 -16.90003745820686, -42.259021145449964 -16.939644681418535, -41.99544373967212 -16.965071676755716 M-43.08016174863661 -16.86043023499518 C-42.75513801659658 -16.891784883526856, -42.43011428455655 -16.923139532058528, -41.99544373967212 -16.965071676755716 M-41.99544373967212 -16.965071676755716 C-41.75065208150797 -16.972921668774983, -41.505860423343826 -16.98077166079425, -40.90625000000001 -17 M-41.99544373967212 -16.965071676755716 C-41.562194031761386 -16.978965151619015, -41.128944323850654 -16.992858626482317, -40.90625000000001 -17 M-40.90625000000001 -17 C-40.90625000000001 -17, -40.90625000000001 -17, -40.90625 -17 M-40.90625000000001 -17 C-40.90625000000001 -17, -40.90625 -17, -40.90625 -17" stroke="#555555" stroke-width="1.3" fill="none" stroke-dasharray="0 0" style=""></path></g><g class="label" style="" transform="translate(0, -9.5)"><rect></rect><g><rect class="background" style="stroke: none"></rect><text y="-10.1" style=""><tspan class="text-outer-tspan row" x="0" y="-0.1em" dy="1.1em"><tspan font-style="normal" class="text-inner-tspan" font-weight="normal">Page</tspan><tspan font-style="normal" class="text-inner-tspan" font-weight="normal"> request</tspan></tspan></text></g></g></g><g class="node default" id="g4c680460-fccd-46be-980b-2b3f8f00a993-dark-flowchart-Q1-1" data-look="classic" transform="translate(363.7640609741211, 179.1328125)"><polygon points="87.1328125,0 174.265625,-87.1328125 87.1328125,-174.265625 0,-87.1328125" class="label-container" transform="translate(-86.6328125, 87.1328125)"></polygon><g class="label" style="" transform="translate(0, -9.5)"><rect></rect><g><rect class="background" style="stroke: none"></rect><text y="-10.1" style=""><tspan class="text-outer-tspan row" x="0" y="-0.1em" dy="1.1em"><tspan font-style="normal" class="text-inner-tspan" font-weight="normal">Per-user</tspan><tspan font-style="normal" class="text-inner-tspan" font-weight="normal"> content?</tspan></tspan></text></g></g></g><g class="node default" id="g4c680460-fccd-46be-980b-2b3f8f00a993-dark-flowchart-SSR-3" data-look="classic" transform="translate(228.2390594482422, 444.3078155517578)"><rect class="basic label-container" style="" x="-116.0078125" y="-33.29999923706055" width="232.015625" height="66.5999984741211"></rect><g class="label" style="" transform="translate(0, -18.299999237060547)"><rect></rect><g><rect class="background" style="stroke: none"></rect><text y="-10.1" style=""><tspan class="text-outer-tspan row" x="0" y="-0.1em" dy="1.1em"><tspan font-style="normal" class="text-inner-tspan" font-weight="normal">SSR</tspan><tspan font-style="normal" class="text-inner-tspan" font-weight="normal"> no-cache</tspan></tspan><tspan class="text-outer-tspan row" x="0" y="1em" dy="1.1em"><tspan font-style="normal" class="text-inner-tspan" font-weight="normal">account,</tspan><tspan font-style="normal" class="text-inner-tspan" font-weight="normal"> cart,</tspan><tspan font-style="normal" class="text-inner-tspan" font-weight="normal"> checkout</tspan></tspan></text></g></g></g><g class="node default" id="g4c680460-fccd-46be-980b-2b3f8f00a993-dark-flowchart-Q2-5" data-look="classic" transform="translate(499.2890625, 444.3078155517578)"><polygon points="105.04218673706055,0 210.0843734741211,-105.04218673706055 105.04218673706055,-210.0843734741211 0,-105.04218673706055" class="label-container" transform="translate(-104.54218673706055, 105.04218673706055)"></polygon><g class="label" style="" transform="translate(0, -18.299999237060547)"><rect></rect><g><rect class="background" style="stroke: none"></rect><text y="-10.1" style=""><tspan class="text-outer-tspan row" x="0" y="-0.1em" dy="1.1em"><tspan font-style="normal" class="text-inner-tspan" font-weight="normal">Changes</tspan><tspan font-style="normal" class="text-inner-tspan" font-weight="normal"> more</tspan><tspan font-style="normal" class="text-inner-tspan" font-weight="normal"> often</tspan></tspan><tspan class="text-outer-tspan row" x="0" y="1em" dy="1.1em"><tspan font-style="normal" class="text-inner-tspan" font-weight="normal">than</tspan><tspan font-style="normal" class="text-inner-tspan" font-weight="normal"> once</tspan><tspan font-style="normal" class="text-inner-tspan" font-weight="normal"> an</tspan><tspan font-style="normal" class="text-inner-tspan" font-weight="normal"> hour?</tspan></tspan></text></g></g></g><g class="node default" id="g4c680460-fccd-46be-980b-2b3f8f00a993-dark-flowchart-Q3-7" data-look="classic" transform="translate(242.91796875, 726.8843841552734)"><polygon points="97.73749923706055,0 195.4749984741211,-97.73749923706055 97.73749923706055,-195.4749984741211 0,-97.73749923706055" class="label-container" transform="translate(-97.23749923706055, 97.73749923706055)"></polygon><g class="label" style="" transform="translate(0, -18.299999237060547)"><rect></rect><g><rect class="background" style="stroke: none"></rect><text y="-10.1" style=""><tspan class="text-outer-tspan row" x="0" y="-0.1em" dy="1.1em"><tspan font-style="normal" class="text-inner-tspan" font-weight="normal">Tolerable</tspan><tspan font-style="normal" class="text-inner-tspan" font-weight="normal"> to</tspan><tspan font-style="normal" class="text-inner-tspan" font-weight="normal"> serve</tspan></tspan><tspan class="text-outer-tspan row" x="0" y="1em" dy="1.1em"><tspan font-style="normal" class="text-inner-tspan" font-weight="normal">stale</tspan><tspan font-style="normal" class="text-inner-tspan" font-weight="normal"> for</tspan><tspan font-style="normal" class="text-inner-tspan" font-weight="normal"> seconds?</tspan></tspan></text></g></g></g><g class="node default" id="g4c680460-fccd-46be-980b-2b3f8f00a993-dark-flowchart-Q4-9" data-look="classic" transform="translate(753.46875, 726.8843841552734)"><polygon points="104.53437423706055,0 209.0687484741211,-104.53437423706055 104.53437423706055,-209.0687484741211 0,-104.53437423706055" class="label-container" transform="translate(-104.03437423706055, 104.53437423706055)"></polygon><g class="label" style="" transform="translate(0, -18.299999237060547)"><rect></rect><g><rect class="background" style="stroke: none"></rect><text y="-10.1" style=""><tspan class="text-outer-tspan row" x="0" y="-0.1em" dy="1.1em"><tspan font-style="normal" class="text-inner-tspan" font-weight="normal">Total</tspan><tspan font-style="normal" class="text-inner-tspan" font-weight="normal"> page</tspan><tspan font-style="normal" class="text-inner-tspan" font-weight="normal"> count</tspan></tspan><tspan class="text-outer-tspan row" x="0" y="1em" dy="1.1em"><tspan font-style="normal" class="text-inner-tspan" font-weight="normal">fits</tspan><tspan font-style="normal" class="text-inner-tspan" font-weight="normal"> in</tspan><tspan font-style="normal" class="text-inner-tspan" font-weight="normal"> build</tspan><tspan font-style="normal" class="text-inner-tspan" font-weight="normal"> budget?</tspan></tspan></text></g></g></g><g class="node default" id="g4c680460-fccd-46be-980b-2b3f8f00a993-dark-flowchart-ISR-11" data-look="classic" transform="translate(116.125, 937.7187614440918)"><rect class="basic label-container" style="" x="-108.125" y="-33.29999923706055" width="216.25" height="66.5999984741211"></rect><g class="label" style="" transform="translate(0, -18.299999237060547)"><rect></rect><g><rect class="background" style="stroke: none"></rect><text y="-10.1" style=""><tspan class="text-outer-tspan row" x="0" y="-0.1em" dy="1.1em"><tspan font-style="normal" class="text-inner-tspan" font-weight="normal">ISR</tspan><tspan font-style="normal" class="text-inner-tspan" font-weight="normal"> or</tspan><tspan font-style="normal" class="text-inner-tspan" font-weight="normal"> SSR</tspan><tspan font-style="normal" class="text-inner-tspan" font-weight="normal"> +</tspan><tspan font-style="normal" class="text-inner-tspan" font-weight="normal"> short</tspan><tspan font-style="normal" class="text-inner-tspan" font-weight="normal"> TTL</tspan></tspan><tspan class="text-outer-tspan row" x="0" y="1em" dy="1.1em"><tspan font-style="normal" class="text-inner-tspan" font-weight="normal">PDP,</tspan><tspan font-style="normal" class="text-inner-tspan" font-weight="normal"> search,</tspan><tspan font-style="normal" class="text-inner-tspan" font-weight="normal"> listings</tspan></tspan></text></g></g></g><g class="node default" id="g4c680460-fccd-46be-980b-2b3f8f00a993-dark-flowchart-SSRC-13" data-look="classic" transform="translate(369.7109375, 937.7187614440918)"><rect class="basic label-container" style="" x="-95.4609375" y="-33.29999923706055" width="190.921875" height="66.5999984741211"></rect><g class="label" style="" transform="translate(0, -18.299999237060547)"><rect></rect><g><rect class="background" style="stroke: none"></rect><text y="-10.1" style=""><tspan class="text-outer-tspan row" x="0" y="-0.1em" dy="1.1em"><tspan font-style="normal" class="text-inner-tspan" font-weight="normal">SSR</tspan><tspan font-style="normal" class="text-inner-tspan" font-weight="normal"> +</tspan><tspan font-style="normal" class="text-inner-tspan" font-weight="normal"> on-demand</tspan></tspan><tspan class="text-outer-tspan row" x="0" y="1em" dy="1.1em"><tspan font-style="normal" class="text-inner-tspan" font-weight="normal">cache</tspan><tspan font-style="normal" class="text-inner-tspan" font-weight="normal"> invalidation</tspan></tspan></text></g></g></g><g class="node default" id="g4c680460-fccd-46be-980b-2b3f8f00a993-dark-flowchart-SSG-15" data-look="classic" transform="translate(624.484375, 937.7187614440918)"><rect class="basic label-container" style="" x="-109.3125" y="-33.29999923706055" width="218.625" height="66.5999984741211"></rect><g class="label" style="" transform="translate(0, -18.299999237060547)"><rect></rect><g><rect class="background" style="stroke: none"></rect><text y="-10.1" style=""><tspan class="text-outer-tspan row" x="0" y="-0.1em" dy="1.1em"><tspan font-style="normal" class="text-inner-tspan" font-weight="normal">SSG</tspan></tspan><tspan class="text-outer-tspan row" x="0" y="1em" dy="1.1em"><tspan font-style="normal" class="text-inner-tspan" font-weight="normal">blog,</tspan><tspan font-style="normal" class="text-inner-tspan" font-weight="normal"> marketing,</tspan><tspan font-style="normal" class="text-inner-tspan" font-weight="normal"> legal</tspan></tspan></text></g></g></g><g class="node default" id="g4c680460-fccd-46be-980b-2b3f8f00a993-dark-flowchart-ISRB-17" data-look="classic" transform="translate(882.453125, 937.7187614440918)"><rect class="basic label-container" style="" x="-98.65625" y="-33.29999923706055" width="197.3125" height="66.5999984741211"></rect><g class="label" style="" transform="translate(0, -18.299999237060547)"><rect></rect><g><rect class="background" style="stroke: none"></rect><text y="-10.1" style=""><tspan class="text-outer-tspan row" x="0" y="-0.1em" dy="1.1em"><tspan font-style="normal" class="text-inner-tspan" font-weight="normal">ISR</tspan><tspan font-style="normal" class="text-inner-tspan" font-weight="normal"> with</tspan><tspan font-style="normal" class="text-inner-tspan" font-weight="normal"> build-time</tspan></tspan><tspan class="text-outer-tspan row" x="0" y="1em" dy="1.1em"><tspan font-style="normal" class="text-inner-tspan" font-weight="normal">fallback</tspan><tspan font-style="normal" class="text-inner-tspan" font-weight="normal"> blocking</tspan></tspan></text></g></g></g></g></g></g><defs><filter id="g4c680460-fccd-46be-980b-2b3f8f00a993-dark-drop-shadow" height="130%" width="130%"><feDropShadow dx="4" dy="4" stdDeviation="0" flood-opacity="0.06" flood-color="#000000"></feDropShadow></filter></defs><defs><filter id="g4c680460-fccd-46be-980b-2b3f8f00a993-dark-drop-shadow-small" height="150%" width="150%"><feDropShadow dx="2" dy="2" stdDeviation="0" flood-opacity="0.06" flood-color="#000000"></feDropShadow></filter></defs><linearGradient id="g4c680460-fccd-46be-980b-2b3f8f00a993-dark-gradient" gradientUnits="objectBoundingBox" x1="0%" y1="0%" x2="100%" y2="0%"><stop offset="0%" stop-color="#555555" stop-opacity="1"></stop><stop offset="100%" stop-color="#555555" stop-opacity="1"></stop></linearGradient></svg>