<svg id="g8f2cf7df-2aaa-4e5f-8fb8-1b8981f7134c-dark" width="100%" xmlns="http://www.w3.org/2000/svg" xmlns:xlink="http://www.w3.org/1999/xlink" class="flowchart" style="max-width: 1180.468017578125px;" viewBox="0 0 1180.468017578125 996.6187744140625" role="graphics-document document" aria-roledescription="flowchart-v2"><style>#g8f2cf7df-2aaa-4e5f-8fb8-1b8981f7134c-dark{font-family:"trebuchet ms",verdana,arial,sans-serif;font-size:16px;fill:#e5e5e5;}@keyframes edge-animation-frame{from{stroke-dashoffset:0;}}@keyframes dash{to{stroke-dashoffset:0;}}#g8f2cf7df-2aaa-4e5f-8fb8-1b8981f7134c-dark .edge-animation-slow{stroke-dasharray:9,5!important;stroke-dashoffset:900;animation:dash 50s linear infinite;stroke-linecap:round;}#g8f2cf7df-2aaa-4e5f-8fb8-1b8981f7134c-dark .edge-animation-fast{stroke-dasharray:9,5!important;stroke-dashoffset:900;animation:dash 20s linear infinite;stroke-linecap:round;}#g8f2cf7df-2aaa-4e5f-8fb8-1b8981f7134c-dark .error-icon{fill:#252525;}#g8f2cf7df-2aaa-4e5f-8fb8-1b8981f7134c-dark .error-text{fill:#cccccc;stroke:#cccccc;}#g8f2cf7df-2aaa-4e5f-8fb8-1b8981f7134c-dark .edge-thickness-normal{stroke-width:1px;}#g8f2cf7df-2aaa-4e5f-8fb8-1b8981f7134c-dark .edge-thickness-thick{stroke-width:3.5px;}#g8f2cf7df-2aaa-4e5f-8fb8-1b8981f7134c-dark .edge-pattern-solid{stroke-dasharray:0;}#g8f2cf7df-2aaa-4e5f-8fb8-1b8981f7134c-dark .edge-thickness-invisible{stroke-width:0;fill:none;}#g8f2cf7df-2aaa-4e5f-8fb8-1b8981f7134c-dark .edge-pattern-dashed{stroke-dasharray:3;}#g8f2cf7df-2aaa-4e5f-8fb8-1b8981f7134c-dark .edge-pattern-dotted{stroke-dasharray:2;}#g8f2cf7df-2aaa-4e5f-8fb8-1b8981f7134c-dark .marker{fill:#cccccc;stroke:#cccccc;}#g8f2cf7df-2aaa-4e5f-8fb8-1b8981f7134c-dark .marker.cross{stroke:#cccccc;}#g8f2cf7df-2aaa-4e5f-8fb8-1b8981f7134c-dark svg{font-family:"trebuchet ms",verdana,arial,sans-serif;font-size:16px;}#g8f2cf7df-2aaa-4e5f-8fb8-1b8981f7134c-dark p{margin:0;}#g8f2cf7df-2aaa-4e5f-8fb8-1b8981f7134c-dark .label{font-family:"trebuchet ms",verdana,arial,sans-serif;color:#e5e5e5;}#g8f2cf7df-2aaa-4e5f-8fb8-1b8981f7134c-dark .cluster-label text{fill:#e5e5e5;}#g8f2cf7df-2aaa-4e5f-8fb8-1b8981f7134c-dark .cluster-label span{color:#e5e5e5;}#g8f2cf7df-2aaa-4e5f-8fb8-1b8981f7134c-dark .cluster-label span p{background-color:transparent;}#g8f2cf7df-2aaa-4e5f-8fb8-1b8981f7134c-dark .label text,#g8f2cf7df-2aaa-4e5f-8fb8-1b8981f7134c-dark span{fill:#e5e5e5;color:#e5e5e5;}#g8f2cf7df-2aaa-4e5f-8fb8-1b8981f7134c-dark .node rect,#g8f2cf7df-2aaa-4e5f-8fb8-1b8981f7134c-dark .node circle,#g8f2cf7df-2aaa-4e5f-8fb8-1b8981f7134c-dark .node ellipse,#g8f2cf7df-2aaa-4e5f-8fb8-1b8981f7134c-dark .node polygon,#g8f2cf7df-2aaa-4e5f-8fb8-1b8981f7134c-dark .node path{fill:#2d2d2d;stroke:#555555;stroke-width:1px;}#g8f2cf7df-2aaa-4e5f-8fb8-1b8981f7134c-dark .rough-node .label text,#g8f2cf7df-2aaa-4e5f-8fb8-1b8981f7134c-dark .node .label text,#g8f2cf7df-2aaa-4e5f-8fb8-1b8981f7134c-dark .image-shape .label,#g8f2cf7df-2aaa-4e5f-8fb8-1b8981f7134c-dark .icon-shape .label{text-anchor:middle;}#g8f2cf7df-2aaa-4e5f-8fb8-1b8981f7134c-dark .node .katex path{fill:#000;stroke:#000;stroke-width:1px;}#g8f2cf7df-2aaa-4e5f-8fb8-1b8981f7134c-dark .rough-node .label,#g8f2cf7df-2aaa-4e5f-8fb8-1b8981f7134c-dark .node .label,#g8f2cf7df-2aaa-4e5f-8fb8-1b8981f7134c-dark .image-shape .label,#g8f2cf7df-2aaa-4e5f-8fb8-1b8981f7134c-dark .icon-shape .label{text-align:center;}#g8f2cf7df-2aaa-4e5f-8fb8-1b8981f7134c-dark .node.clickable{cursor:pointer;}#g8f2cf7df-2aaa-4e5f-8fb8-1b8981f7134c-dark .root .anchor path{fill:#cccccc!important;stroke-width:0;stroke:#cccccc;}#g8f2cf7df-2aaa-4e5f-8fb8-1b8981f7134c-dark .arrowheadPath{fill:#cccccc;}#g8f2cf7df-2aaa-4e5f-8fb8-1b8981f7134c-dark .edgePath .path{stroke:#cccccc;stroke-width:1px;}#g8f2cf7df-2aaa-4e5f-8fb8-1b8981f7134c-dark .flowchart-link{stroke:#cccccc;fill:none;}#g8f2cf7df-2aaa-4e5f-8fb8-1b8981f7134c-dark .edgeLabel{background-color:#1e1e1e;text-align:center;}#g8f2cf7df-2aaa-4e5f-8fb8-1b8981f7134c-dark .edgeLabel p{background-color:#1e1e1e;}#g8f2cf7df-2aaa-4e5f-8fb8-1b8981f7134c-dark .edgeLabel rect{opacity:0.5;background-color:#1e1e1e;fill:#1e1e1e;}#g8f2cf7df-2aaa-4e5f-8fb8-1b8981f7134c-dark .labelBkg{background-color:rgba(30, 30, 30, 0.5);}#g8f2cf7df-2aaa-4e5f-8fb8-1b8981f7134c-dark .cluster rect{fill:#1e1e1e;stroke:#555555;stroke-width:1px;}#g8f2cf7df-2aaa-4e5f-8fb8-1b8981f7134c-dark .cluster text{fill:#e5e5e5;}#g8f2cf7df-2aaa-4e5f-8fb8-1b8981f7134c-dark .cluster span{color:#e5e5e5;}#g8f2cf7df-2aaa-4e5f-8fb8-1b8981f7134c-dark div.mermaidTooltip{position:absolute;text-align:center;max-width:200px;padding:2px;font-family:"trebuchet ms",verdana,arial,sans-serif;font-size:12px;background:#252525;border:1px solid #555555;border-radius:2px;pointer-events:none;z-index:100;}#g8f2cf7df-2aaa-4e5f-8fb8-1b8981f7134c-dark .flowchartTitleText{text-anchor:middle;font-size:18px;fill:#e5e5e5;}#g8f2cf7df-2aaa-4e5f-8fb8-1b8981f7134c-dark rect.text{fill:none;stroke-width:0;}#g8f2cf7df-2aaa-4e5f-8fb8-1b8981f7134c-dark .icon-shape,#g8f2cf7df-2aaa-4e5f-8fb8-1b8981f7134c-dark .image-shape{background-color:#1e1e1e;text-align:center;}#g8f2cf7df-2aaa-4e5f-8fb8-1b8981f7134c-dark .icon-shape p,#g8f2cf7df-2aaa-4e5f-8fb8-1b8981f7134c-dark .image-shape p{background-color:#1e1e1e;padding:2px;}#g8f2cf7df-2aaa-4e5f-8fb8-1b8981f7134c-dark .icon-shape .label rect,#g8f2cf7df-2aaa-4e5f-8fb8-1b8981f7134c-dark .image-shape .label rect{opacity:0.5;background-color:#1e1e1e;fill:#1e1e1e;}#g8f2cf7df-2aaa-4e5f-8fb8-1b8981f7134c-dark .label-icon{display:inline-block;height:1em;overflow:visible;vertical-align:-0.125em;}#g8f2cf7df-2aaa-4e5f-8fb8-1b8981f7134c-dark .node .label-icon path{fill:currentColor;stroke:revert;stroke-width:revert;}#g8f2cf7df-2aaa-4e5f-8fb8-1b8981f7134c-dark .node .neo-node{stroke:#555555;}#g8f2cf7df-2aaa-4e5f-8fb8-1b8981f7134c-dark [data-look="neo"].node rect,#g8f2cf7df-2aaa-4e5f-8fb8-1b8981f7134c-dark [data-look="neo"].cluster rect,#g8f2cf7df-2aaa-4e5f-8fb8-1b8981f7134c-dark [data-look="neo"].node polygon{stroke:url(#g8f2cf7df-2aaa-4e5f-8fb8-1b8981f7134c-dark-gradient);filter:drop-shadow( 1px 2px 2px rgba(185,185,185,1));}#g8f2cf7df-2aaa-4e5f-8fb8-1b8981f7134c-dark [data-look="neo"].node path{stroke:url(#g8f2cf7df-2aaa-4e5f-8fb8-1b8981f7134c-dark-gradient);stroke-width:1px;}#g8f2cf7df-2aaa-4e5f-8fb8-1b8981f7134c-dark [data-look="neo"].node .outer-path{filter:drop-shadow( 1px 2px 2px rgba(185,185,185,1));}#g8f2cf7df-2aaa-4e5f-8fb8-1b8981f7134c-dark [data-look="neo"].node .neo-line path{stroke:#555555;filter:none;}#g8f2cf7df-2aaa-4e5f-8fb8-1b8981f7134c-dark [data-look="neo"].node circle{stroke:url(#g8f2cf7df-2aaa-4e5f-8fb8-1b8981f7134c-dark-gradient);filter:drop-shadow( 1px 2px 2px rgba(185,185,185,1));}#g8f2cf7df-2aaa-4e5f-8fb8-1b8981f7134c-dark [data-look="neo"].node circle .state-start{fill:#000000;}#g8f2cf7df-2aaa-4e5f-8fb8-1b8981f7134c-dark [data-look="neo"].icon-shape .icon{fill:url(#g8f2cf7df-2aaa-4e5f-8fb8-1b8981f7134c-dark-gradient);filter:drop-shadow( 1px 2px 2px rgba(185,185,185,1));}#g8f2cf7df-2aaa-4e5f-8fb8-1b8981f7134c-dark [data-look="neo"].icon-shape .icon-neo path{stroke:url(#g8f2cf7df-2aaa-4e5f-8fb8-1b8981f7134c-dark-gradient);filter:drop-shadow( 1px 2px 2px rgba(185,185,185,1));}#g8f2cf7df-2aaa-4e5f-8fb8-1b8981f7134c-dark :root{--mermaid-font-family:"trebuchet ms",verdana,arial,sans-serif;}</style><g><marker id="g8f2cf7df-2aaa-4e5f-8fb8-1b8981f7134c-dark_flowchart-v2-pointEnd" class="marker flowchart-v2" viewBox="0 0 10 10" refX="5" refY="5" markerUnits="userSpaceOnUse" markerWidth="8" markerHeight="8" orient="auto"><path d="M 0 0 L 10 5 L 0 10 z" class="arrowMarkerPath" style="stroke-width: 1; stroke-dasharray: 1, 0;"></path></marker><marker id="g8f2cf7df-2aaa-4e5f-8fb8-1b8981f7134c-dark_flowchart-v2-pointStart" class="marker flowchart-v2" viewBox="0 0 10 10" refX="4.5" refY="5" markerUnits="userSpaceOnUse" markerWidth="8" markerHeight="8" orient="auto"><path d="M 0 5 L 10 10 L 10 0 z" class="arrowMarkerPath" style="stroke-width: 1; stroke-dasharray: 1, 0;"></path></marker><marker id="g8f2cf7df-2aaa-4e5f-8fb8-1b8981f7134c-dark_flowchart-v2-pointEnd-margin" class="marker flowchart-v2" viewBox="0 0 11.5 14" refX="11.5" refY="7" markerUnits="userSpaceOnUse" markerWidth="10.5" markerHeight="14" orient="auto"><path d="M 0 0 L 11.5 7 L 0 14 z" class="arrowMarkerPath" style="stroke-width: 0; stroke-dasharray: 1, 0;"></path></marker><marker id="g8f2cf7df-2aaa-4e5f-8fb8-1b8981f7134c-dark_flowchart-v2-pointStart-margin" class="marker flowchart-v2" viewBox="0 0 11.5 14" refX="1" refY="7" markerUnits="userSpaceOnUse" markerWidth="11.5" markerHeight="14" orient="auto"><polygon points="0,7 11.5,14 11.5,0" class="arrowMarkerPath" style="stroke-width: 0; stroke-dasharray: 1, 0;"></polygon></marker><marker id="g8f2cf7df-2aaa-4e5f-8fb8-1b8981f7134c-dark_flowchart-v2-circleEnd" class="marker flowchart-v2" viewBox="0 0 10 10" refX="11" refY="5" markerUnits="userSpaceOnUse" markerWidth="11" markerHeight="11" orient="auto"><circle cx="5" cy="5" r="5" class="arrowMarkerPath" style="stroke-width: 1; stroke-dasharray: 1, 0;"></circle></marker><marker id="g8f2cf7df-2aaa-4e5f-8fb8-1b8981f7134c-dark_flowchart-v2-circleStart" class="marker flowchart-v2" viewBox="0 0 10 10" refX="-1" refY="5" markerUnits="userSpaceOnUse" markerWidth="11" markerHeight="11" orient="auto"><circle cx="5" cy="5" r="5" class="arrowMarkerPath" style="stroke-width: 1; stroke-dasharray: 1, 0;"></circle></marker><marker id="g8f2cf7df-2aaa-4e5f-8fb8-1b8981f7134c-dark_flowchart-v2-circleEnd-margin" class="marker flowchart-v2" viewBox="0 0 10 10" refY="5" refX="12.25" markerUnits="userSpaceOnUse" markerWidth="14" markerHeight="14" orient="auto"><circle cx="5" cy="5" r="5" class="arrowMarkerPath" style="stroke-width: 0; stroke-dasharray: 1, 0;"></circle></marker><marker id="g8f2cf7df-2aaa-4e5f-8fb8-1b8981f7134c-dark_flowchart-v2-circleStart-margin" class="marker flowchart-v2" viewBox="0 0 10 10" refX="-2" refY="5" markerUnits="userSpaceOnUse" markerWidth="14" markerHeight="14" orient="auto"><circle cx="5" cy="5" r="5" class="arrowMarkerPath" style="stroke-width: 0; stroke-dasharray: 1, 0;"></circle></marker><marker id="g8f2cf7df-2aaa-4e5f-8fb8-1b8981f7134c-dark_flowchart-v2-crossEnd" class="marker cross flowchart-v2" viewBox="0 0 11 11" refX="12" refY="5.2" markerUnits="userSpaceOnUse" markerWidth="11" markerHeight="11" orient="auto"><path d="M 1,1 l 9,9 M 10,1 l -9,9" class="arrowMarkerPath" style="stroke-width: 2; stroke-dasharray: 1, 0;"></path></marker><marker id="g8f2cf7df-2aaa-4e5f-8fb8-1b8981f7134c-dark_flowchart-v2-crossStart" class="marker cross flowchart-v2" viewBox="0 0 11 11" refX="-1" refY="5.2" markerUnits="userSpaceOnUse" markerWidth="11" markerHeight="11" orient="auto"><path d="M 1,1 l 9,9 M 10,1 l -9,9" class="arrowMarkerPath" style="stroke-width: 2; stroke-dasharray: 1, 0;"></path></marker><marker id="g8f2cf7df-2aaa-4e5f-8fb8-1b8981f7134c-dark_flowchart-v2-crossEnd-margin" class="marker cross flowchart-v2" viewBox="0 0 15 15" refX="17.7" refY="7.5" markerUnits="userSpaceOnUse" markerWidth="12" markerHeight="12" orient="auto"><path d="M 1,1 L 14,14 M 1,14 L 14,1" class="arrowMarkerPath" style="stroke-width: 2.5;"></path></marker><marker id="g8f2cf7df-2aaa-4e5f-8fb8-1b8981f7134c-dark_flowchart-v2-crossStart-margin" class="marker cross flowchart-v2" viewBox="0 0 15 15" refX="-3.5" refY="7.5" markerUnits="userSpaceOnUse" markerWidth="12" markerHeight="12" orient="auto"><path d="M 1,1 L 14,14 M 1,14 L 14,1" class="arrowMarkerPath" style="stroke-width: 2.5; stroke-dasharray: 1, 0;"></path></marker><g class="root"><g class="clusters"></g><g class="edgePaths"><path d="M419.57,42.5L419.487,46.583C419.404,50.667,419.237,58.833,419.154,66.417C419.07,74,419.07,81,419.07,84.5L419.07,88" id="g8f2cf7df-2aaa-4e5f-8fb8-1b8981f7134c-dark-L_Start_Q1_0" class="edge-thickness-normal edge-pattern-solid edge-thickness-normal edge-pattern-solid flowchart-link" style=";" data-edge="true" data-et="edge" data-id="L_Start_Q1_0" data-points="W3sieCI6NDE5LjU3MDMxMjUsInkiOjQyLjV9LHsieCI6NDE5LjA3MDMxMjUsInkiOjY3fSx7IngiOjQxOS4wNzAzMTI1LCJ5Ijo5Mn1d" data-look="classic" marker-end="url(#g8f2cf7df-2aaa-4e5f-8fb8-1b8981f7134c-dark_flowchart-v2-pointEnd)"></path><path d="M358.93,206.125L319.776,223.699C280.623,241.272,202.315,276.419,163.162,312.833C124.008,349.246,124.008,386.927,124.008,405.767L124.008,424.608" id="g8f2cf7df-2aaa-4e5f-8fb8-1b8981f7134c-dark-L_Q1_SSR_0" class="edge-thickness-normal edge-pattern-solid edge-thickness-normal edge-pattern-solid flowchart-link" style=";" data-edge="true" data-et="edge" data-id="L_Q1_SSR_0" data-points="W3sieCI6MzU4LjkzMDE3ODEzNDk4MzksInkiOjIwNi4xMjU0OTA2MzQ5ODM5Mn0seyJ4IjoxMjQuMDA3ODEyNSwieSI6MzExLjU2NTYyNDIzNzA2MDU1fSx7IngiOjEyNC4wMDc4MTI1LCJ5Ijo0MjguNjA3ODE0Nzg4ODE4MzZ9XQ==" data-look="classic" marker-end="url(#g8f2cf7df-2aaa-4e5f-8fb8-1b8981f7134c-dark_flowchart-v2-pointEnd)"></path><path d="M419.07,266.266L419.07,273.816C419.07,281.366,419.07,296.466,419.07,322.856C419.07,349.246,419.07,386.927,419.07,405.767L419.07,424.608" id="g8f2cf7df-2aaa-4e5f-8fb8-1b8981f7134c-dark-L_Q1_PPR_0" class="edge-thickness-normal edge-pattern-solid edge-thickness-normal edge-pattern-solid flowchart-link" style=";" data-edge="true" data-et="edge" data-id="L_Q1_PPR_0" data-points="W3sieCI6NDE5LjA3MDMxMjUsInkiOjI2Ni4yNjU2MjUwMDAwMDAwNn0seyJ4Ijo0MTkuMDcwMzEyNSwieSI6MzExLjU2NTYyNDIzNzA2MDU1fSx7IngiOjQxOS4wNzAzMTI1LCJ5Ijo0MjguNjA3ODE0Nzg4ODE4MzZ9XQ==" data-look="classic" marker-end="url(#g8f2cf7df-2aaa-4e5f-8fb8-1b8981f7134c-dark_flowchart-v2-pointEnd)"></path><path d="M478.5,206.836L515.944,224.291C553.389,241.746,628.278,276.656,665.723,300.994C703.167,325.332,703.167,339.099,703.167,345.982L703.167,352.866" id="g8f2cf7df-2aaa-4e5f-8fb8-1b8981f7134c-dark-L_Q1_Q2_0" class="edge-thickness-normal edge-pattern-solid edge-thickness-normal edge-pattern-solid flowchart-link" style=";" data-edge="true" data-et="edge" data-id="L_Q1_Q2_0" data-points="W3sieCI6NDc4LjQ5OTgzMzY0NTcwNjUzLCJ5IjoyMDYuODM2MTAzODU0MjkzNH0seyJ4Ijo3MDMuMTY3MTkwNTUxNzU3OCwieSI6MzExLjU2NTYyNDIzNzA2MDU1fSx7IngiOjcwMy4xNjcxOTA1NTE3NTc4LCJ5IjozNTYuODY1NjIzNDc0MTIxMX1d" data-look="classic" marker-end="url(#g8f2cf7df-2aaa-4e5f-8fb8-1b8981f7134c-dark_flowchart-v2-pointEnd)"></path><path d="M635.919,499.702L605.152,516.993C574.385,534.285,512.85,568.867,482.083,592.708C451.316,616.549,451.316,629.648,451.316,636.197L451.316,642.747" id="g8f2cf7df-2aaa-4e5f-8fb8-1b8981f7134c-dark-L_Q2_Q3_0" class="edge-thickness-normal edge-pattern-solid edge-thickness-normal edge-pattern-solid flowchart-link" style=";" data-edge="true" data-et="edge" data-id="L_Q2_Q3_0" data-points="W3sieCI6NjM1LjkxODk0NDcwNzMzOTcsInkiOjQ5OS43MDE3NTg3MzMyMTg1fSx7IngiOjQ1MS4zMTU2MjgwNTE3NTc4LCJ5Ijo2MDMuNDUwMDA0NTc3NjM2N30seyJ4Ijo0NTEuMzE1NjI4MDUxNzU3OCwieSI6NjQ2Ljc0Njg3OTU3NzYzNjh9XQ==" data-look="classic" marker-end="url(#g8f2cf7df-2aaa-4e5f-8fb8-1b8981f7134c-dark_flowchart-v2-pointEnd)"></path><path d="M769.41,500.707L798.646,517.831C827.883,534.955,886.355,569.202,915.591,591.743C944.827,614.283,944.827,625.117,944.827,630.533L944.827,635.95" id="g8f2cf7df-2aaa-4e5f-8fb8-1b8981f7134c-dark-L_Q2_Q4_0" class="edge-thickness-normal edge-pattern-solid edge-thickness-normal edge-pattern-solid flowchart-link" style=";" data-edge="true" data-et="edge" data-id="L_Q2_Q4_0" data-points="W3sieCI6NzY5LjQxMDI5MjY0NTA1NTMsInkiOjUwMC43MDY5MDI0ODQzMzkxfSx7IngiOjk0NC44MjczNDY4MDE3NTc4LCJ5Ijo2MDMuNDUwMDA0NTc3NjM2N30seyJ4Ijo5NDQuODI3MzQ2ODAxNzU3OSwieSI6NjM5Ljk1MDAwNDU3NzYzNjd9XQ==" data-look="classic" marker-end="url(#g8f2cf7df-2aaa-4e5f-8fb8-1b8981f7134c-dark_flowchart-v2-pointEnd)"></path><path d="M406.63,797.536L394.279,812.2C381.928,826.864,357.225,856.191,344.874,876.272C332.523,896.352,332.523,907.185,332.523,912.602L332.523,918.019" id="g8f2cf7df-2aaa-4e5f-8fb8-1b8981f7134c-dark-L_Q3_ISR_0" class="edge-thickness-normal edge-pattern-solid edge-thickness-normal edge-pattern-solid flowchart-link" style=";" data-edge="true" data-et="edge" data-id="L_Q3_ISR_0" data-points="W3sieCI6NDA2LjYzMDA3NzA5Mzk5NDEsInkiOjc5Ny41MzYzMzQ3MjMzODg2fSx7IngiOjMzMi41MjI2NTkzMDE3NTc4LCJ5Ijo4ODUuNTE4NzYwNjgxMTUyM30seyJ4IjozMzIuNTIyNjU5MzAxNzU3OCwieSI6OTIyLjAxODc2MDY4MTE1MjN9XQ==" data-look="classic" marker-end="url(#g8f2cf7df-2aaa-4e5f-8fb8-1b8981f7134c-dark_flowchart-v2-pointEnd)"></path><path d="M496.001,797.536L508.352,812.2C520.704,826.864,545.406,856.191,557.757,876.272C570.109,896.352,570.109,907.185,570.109,912.602L570.109,918.019" id="g8f2cf7df-2aaa-4e5f-8fb8-1b8981f7134c-dark-L_Q3_SSRC_0" class="edge-thickness-normal edge-pattern-solid edge-thickness-normal edge-pattern-solid flowchart-link" style=";" data-edge="true" data-et="edge" data-id="L_Q3_SSRC_0" data-points="W3sieCI6NDk2LjAwMTE3OTAwOTUyMTU0LCJ5Ijo3OTcuNTM2MzM0NzIzMzg4NH0seyJ4Ijo1NzAuMTA4NTk2ODAxNzU3OCwieSI6ODg1LjUxODc2MDY4MTE1MjN9LHsieCI6NTcwLjEwODU5NjgwMTc1NzgsInkiOjkyMi4wMTg3NjA2ODExNTIzfV0=" data-look="classic" marker-end="url(#g8f2cf7df-2aaa-4e5f-8fb8-1b8981f7134c-dark_flowchart-v2-pointEnd)"></path><path d="M894.893,799.084L881.718,813.49C868.543,827.896,842.193,856.707,829.018,876.53C815.843,896.352,815.843,907.185,815.843,912.602L815.843,918.019" id="g8f2cf7df-2aaa-4e5f-8fb8-1b8981f7134c-dark-L_Q4_SSG_0" class="edge-thickness-normal edge-pattern-solid edge-thickness-normal edge-pattern-solid flowchart-link" style=";" data-edge="true" data-et="edge" data-id="L_Q4_SSG_0" data-points="W3sieCI6ODk0Ljg5MjY2MTY0ODg1MjMsInkiOjc5OS4wODQwNzU1MjgyNDY4fSx7IngiOjgxNS44NDI5NzE4MDE3NTc4LCJ5Ijo4ODUuNTE4NzYwNjgxMTUyM30seyJ4Ijo4MTUuODQyOTcxODAxNzU3OCwieSI6OTIyLjAxODc2MDY4MTE1MjN9XQ==" data-look="classic" marker-end="url(#g8f2cf7df-2aaa-4e5f-8fb8-1b8981f7134c-dark_flowchart-v2-pointEnd)"></path><path d="M994.762,799.084L1007.937,813.49C1021.112,827.896,1047.462,856.707,1060.637,876.53C1073.812,896.352,1073.812,907.185,1073.812,912.602L1073.812,918.019" id="g8f2cf7df-2aaa-4e5f-8fb8-1b8981f7134c-dark-L_Q4_ISRB_0" class="edge-thickness-normal edge-pattern-solid edge-thickness-normal edge-pattern-solid flowchart-link" style=";" data-edge="true" data-et="edge" data-id="L_Q4_ISRB_0" data-points="W3sieCI6OTk0Ljc2MjAzMTk1NDY2MzUsInkiOjc5OS4wODQwNzU1MjgyNDY4fSx7IngiOjEwNzMuODExNzIxODAxNzU3OCwieSI6ODg1LjUxODc2MDY4MTE1MjN9LHsieCI6MTA3My44MTE3MjE4MDE3NTc4LCJ5Ijo5MjIuMDE4NzYwNjgxMTUyM31d" data-look="classic" marker-end="url(#g8f2cf7df-2aaa-4e5f-8fb8-1b8981f7134c-dark_flowchart-v2-pointEnd)"></path></g><g class="edgeLabels"><g class="edgeLabel"><g class="label" data-id="L_Start_Q1_0" transform="translate(0, 0)"><text y="-10.1" text-anchor="middle"><tspan class="text-outer-tspan row" x="0" y="-0.1em" dy="1.1em" text-anchor="middle"></tspan></text></g></g><g><rect class="background" style="stroke: none"></rect></g><g class="edgeLabel" transform="translate(124.0078125, 311.56562423706055)"><g class="label" data-id="L_Q1_SSR_0" transform="translate(0, -10.5)"><g><rect class="background" style="" x="-43.65625" y="-1" width="87.3125" height="23"></rect><text y="-10.1" text-anchor="middle" style=""><tspan class="text-outer-tspan row" x="0" y="-0.1em" dy="1.1em" text-anchor="middle"><tspan font-style="normal" class="text-inner-tspan" font-weight="normal">Whole</tspan><tspan font-style="normal" class="text-inner-tspan" font-weight="normal"> page</tspan></tspan></text></g></g></g><g class="edgeLabel" transform="translate(419.0703125, 311.56562423706055)"><g class="label" data-id="L_Q1_PPR_0" transform="translate(0, -19.299999237060547)"><g><rect class="background" style="" x="-39.015625" y="-1" width="78.03125" height="40.599998474121094"></rect><text y="-10.1" text-anchor="middle" style=""><tspan class="text-outer-tspan row" x="0" y="-0.1em" dy="1.1em" text-anchor="middle"><tspan font-style="normal" class="text-inner-tspan" font-weight="normal">Only</tspan><tspan font-style="normal" class="text-inner-tspan" font-weight="normal"> some</tspan></tspan><tspan class="text-outer-tspan row" x="0" y="1em" dy="1.1em" text-anchor="middle"><tspan font-style="normal" class="text-inner-tspan" font-weight="normal">regions</tspan></tspan></text></g></g></g><g class="edgeLabel" transform="translate(703.1671905517578, 311.56562423706055)"><g class="label" data-id="L_Q1_Q2_0" transform="translate(0, -10.5)"><g><rect class="background" style="" x="-11.3984375" y="-1" width="22.796875" height="23"></rect><text y="-10.1" text-anchor="middle" style=""><tspan class="text-outer-tspan row" x="0" y="-0.1em" dy="1.1em" text-anchor="middle"><tspan font-style="normal" class="text-inner-tspan" font-weight="normal">No</tspan></tspan></text></g></g></g><g class="edgeLabel" transform="translate(451.3156280517578, 603.4500045776367)"><g class="label" data-id="L_Q2_Q3_0" transform="translate(0, -10.5)"><g><rect class="background" style="" x="-13.328125" y="-1" width="26.65625" height="23"></rect><text y="-10.1" text-anchor="middle" style=""><tspan class="text-outer-tspan row" x="0" y="-0.1em" dy="1.1em" text-anchor="middle"><tspan font-style="normal" class="text-inner-tspan" font-weight="normal">Yes</tspan></tspan></text></g></g></g><g class="edgeLabel" transform="translate(944.8273468017578, 603.4500045776367)"><g class="label" data-id="L_Q2_Q4_0" transform="translate(0, -10.5)"><g><rect class="background" style="" x="-11.3984375" y="-1" width="22.796875" height="23"></rect><text y="-10.1" text-anchor="middle" style=""><tspan class="text-outer-tspan row" x="0" y="-0.1em" dy="1.1em" text-anchor="middle"><tspan font-style="normal" class="text-inner-tspan" font-weight="normal">No</tspan></tspan></text></g></g></g><g class="edgeLabel" transform="translate(332.5226593017578, 885.5187606811523)"><g class="label" data-id="L_Q3_ISR_0" transform="translate(0, -10.5)"><g><rect class="background" style="" x="-13.328125" y="-1" width="26.65625" height="23"></rect><text y="-10.1" text-anchor="middle" style=""><tspan class="text-outer-tspan row" x="0" y="-0.1em" dy="1.1em" text-anchor="middle"><tspan font-style="normal" class="text-inner-tspan" font-weight="normal">Yes</tspan></tspan></text></g></g></g><g class="edgeLabel" transform="translate(570.1085968017578, 885.5187606811523)"><g class="label" data-id="L_Q3_SSRC_0" transform="translate(0, -10.5)"><g><rect class="background" style="" x="-11.3984375" y="-1" width="22.796875" height="23"></rect><text y="-10.1" text-anchor="middle" style=""><tspan class="text-outer-tspan row" x="0" y="-0.1em" dy="1.1em" text-anchor="middle"><tspan font-style="normal" class="text-inner-tspan" font-weight="normal">No</tspan></tspan></text></g></g></g><g class="edgeLabel" transform="translate(815.8429718017578, 885.5187606811523)"><g class="label" data-id="L_Q4_SSG_0" transform="translate(0, -10.5)"><g><rect class="background" style="" x="-13.328125" y="-1" width="26.65625" height="23"></rect><text y="-10.1" text-anchor="middle" style=""><tspan class="text-outer-tspan row" x="0" y="-0.1em" dy="1.1em" text-anchor="middle"><tspan font-style="normal" class="text-inner-tspan" font-weight="normal">Yes</tspan></tspan></text></g></g></g><g class="edgeLabel" transform="translate(1073.8117218017578, 885.5187606811523)"><g class="label" data-id="L_Q4_ISRB_0" transform="translate(0, -10.5)"><g><rect class="background" style="" x="-11.3984375" y="-1" width="22.796875" height="23"></rect><text y="-10.1" text-anchor="middle" style=""><tspan class="text-outer-tspan row" x="0" y="-0.1em" dy="1.1em" text-anchor="middle"><tspan font-style="normal" class="text-inner-tspan" font-weight="normal">No</tspan></tspan></text></g></g></g></g><g class="nodes"><g class="node default" id="g8f2cf7df-2aaa-4e5f-8fb8-1b8981f7134c-dark-flowchart-Start-0" data-look="classic" transform="translate(419.0703125, 25)"><g class="basic label-container outer-path"><path d="M-40.90625 -17 C-21.693168134474924 -17, -2.4800862689498473 -17, 40.90625 -17 C40.90625 -17, 40.90625 -17, 40.90625 -17 C41.16084294102944 -16.991835699916283, 41.41543588205889 -16.983671399832566, 41.99544373967212 -16.965071676755716 C42.317461336807945 -16.934007026442846, 42.639478933943764 -16.902942376129975, 43.0801617486366 -16.860430234995185 C43.420153844961746 -16.80546294953942, 43.76014594128689 -16.750495664083658, 44.155946687923326 -16.686505668848113 C44.48532833375581 -16.61132645760296, 44.8147099795883 -16.536147246357807, 45.21837792646162 -16.4440126716635 C45.62836025308081 -16.322332069164073, 46.0383425797 -16.200651466664645, 46.26308970640155 -16.133947699181366 C46.51722628848811 -16.0404230877607, 46.77136287057466 -15.946898476340035, 47.28578908294936 -15.757584874882369 C47.55004084407988 -15.64060845897987, 47.81429260521041 -15.523632043077368, 48.28227356499849 -15.316470754341125 C48.48444701979805 -15.210996992470474, 48.68662047459761 -15.105523230599822, 49.24844838406694 -14.812417970097622 C49.509359985001 -14.654251824324637, 49.77027158593505 -14.496085678551653, 50.180343320579325 -14.247497783161291 C50.37892314252102 -14.108977095756709, 50.57750296446272 -13.970456408352126, 51.074129018350675 -13.624031571755262 C51.39227552107241 -13.370318202068672, 51.71042202379415 -13.116604832382084, 51.9261327202324 -12.944581292275288 C52.222838111144675 -12.675121306643215, 52.51954350205695 -12.405661321011143, 52.73285336025927 -12.21193895166137 C52.921353462845715 -12.017297119594627, 53.109853565432154 -11.822655287527885, 53.49097595028036 -11.42911513444239 C53.68257413592415 -11.204053003339586, 53.87417232156793 -10.978990872236784, 54.19738520195651 -10.59932663159847 C54.3440872652711 -10.402759231589826, 54.49078932858569 -10.206191831581183, 54.84917832814825 -9.725983222076888 C55.08568015955987 -9.36265289939471, 55.322181990971494 -8.999322576712535, 55.44367697109088 -8.812673661278927 C55.57250050206156 -8.583934437243446, 55.70132403303224 -8.355195213207963, 55.978438208341004 -7.863150934094199 C56.10921445965034 -7.591591250086839, 56.239990710959674 -7.32003156607948, 56.45126459126881 -6.881316833080699 C56.58578770825834 -6.549042133289028, 56.72031082524787 -6.216767433497357, 56.860213174845924 -5.871205925162238 C56.973652079286964 -5.529546019020759, 57.087090983728 -5.18788611287928, 57.203603501623235 -4.836968972727556 C57.278822641580184 -4.550125791890221, 57.354041781537134 -4.263282611052887, 57.480024507091 -3.7828558772573464 C57.553925760127534 -3.4033885619501247, 57.62782701316406 -3.023921246642903, 57.68834031804565 -2.713198215567453 C57.735200141841766 -2.349762675723617, 57.782059965637885 -1.9863271358797818, 57.827694920136366 -1.632391440430593 C57.854219135092556 -1.21925538252697, 57.88074335004875 -0.8061193246233469, 57.8975156754117 -0.5448768187181379 C57.8975156754117 -0.20926858845454505, 57.8975156754117 0.12633964180904778, 57.8975156754117 0.5448768187181336 C57.88008987106341 0.8162977872987318, 57.862664066715126 1.08771875587933, 57.827694920136366 1.6323914404305815 C57.78421877908423 1.9695838050958652, 57.74074263803209 2.306776169761149, 57.688340318045654 2.7131982155674415 C57.64292696557958 2.946386182365285, 57.597513613113506 3.179574149163129, 57.480024507091 3.782855877257343 C57.39217293677247 4.117871989993336, 57.30432136645394 4.4528881027293306, 57.203603501623235 4.836968972727545 C57.06673272280997 5.249201951115996, 56.929861943996706 5.661434929504446, 56.860213174845924 5.871205925162227 C56.71009852305623 6.241992017352114, 56.559983871266546 6.612778109542002, 56.45126459126881 6.881316833080694 C56.32418120700859 7.145208199645866, 56.19709782274837 7.409099566211039, 55.978438208341004 7.863150934094196 C55.85855721419746 8.076011778463055, 55.73867622005391 8.288872622831914, 55.44367697109089 8.812673661278923 C55.21044653942378 9.1709782354597, 54.97721610775666 9.529282809640474, 54.849178328148255 9.725983222076879 C54.695239491658896 9.932247238856112, 54.541300655169536 10.138511255635343, 54.19738520195651 10.599326631598467 C53.96783315339287 10.868971529722907, 53.738281104829234 11.138616427847348, 53.49097595028037 11.42911513444238 C53.29198050156249 11.634594273073771, 53.09298505284461 11.840073411705161, 52.73285336025927 12.211938951661365 C52.43202624389971 12.485142179289785, 52.13119912754015 12.758345406918204, 51.92613272023242 12.944581292275275 C51.72930987644754 13.101542272517873, 51.532487032662665 13.258503252760471, 51.074129018350675 13.62403157175526 C50.85000269304601 13.780372394015549, 50.62587636774134 13.936713216275836, 50.18034332057934 14.247497783161286 C49.97265937940272 14.373397008788862, 49.7649754382261 14.49929623441644, 49.24844838406695 14.81241797009762 C48.970311704937714 14.957521697444294, 48.69217502580848 15.102625424790968, 48.28227356499849 15.316470754341124 C48.02712892055992 15.429415719837115, 47.771984276121344 15.542360685333106, 47.285789082949364 15.757584874882367 C47.06047445901003 15.840502739277593, 46.8351598350707 15.92342060367282, 46.26308970640156 16.133947699181363 C45.88690967258831 16.245595958607844, 45.510729638775054 16.357244218034328, 45.21837792646164 16.444012671663497 C44.884092697945796 16.52031109365726, 44.54980746942996 16.596609515651018, 44.15594668792333 16.68650566884811 C43.846926770696975 16.736465612580016, 43.537906853470616 16.786425556311926, 43.08016174863661 16.86043023499518 C42.74664147750031 16.892604534434888, 42.41312120636402 16.924778833874598, 41.99544373967212 16.965071676755716 C41.62916441041963 16.97681754192538, 41.26288508116714 16.988563407095043, 40.90625 17 C40.90625 17, 40.90625 17, 40.90625 17 C8.553145089484367 17, -23.799959821031266 17, -40.90625 17 C-41.22738518023757 16.98970181982149, -41.54852036047514 16.979403639642978, -41.99544373967211 16.965071676755716 C-42.34556992662069 16.931295424589134, -42.69569611356927 16.89751917242255, -43.080161748636606 16.86043023499518 C-43.470573553291224 16.797311482107386, -43.860985357945836 16.734192729219593, -44.155946687923326 16.68650566884811 C-44.42418051859195 16.625283047387324, -44.69241434926059 16.564060425926534, -45.21837792646162 16.4440126716635 C-45.62194895916906 16.324234907543513, -46.0255199918765 16.204457143423525, -46.263089706401544 16.13394769918137 C-46.57575655694137 16.018883407922033, -46.8884234074812 15.903819116662692, -47.285789082949364 15.757584874882369 C-47.611711162439875 15.613308838426898, -47.93763324193039 15.469032801971426, -48.28227356499848 15.316470754341127 C-48.53072415627009 15.186854240014927, -48.7791747475417 15.057237725688728, -49.24844838406693 14.812417970097624 C-49.60311561731724 14.597416609045275, -49.957782850567554 14.382415247992927, -50.18034332057932 14.247497783161299 C-50.45424275343213 14.056437395718522, -50.72814218628495 13.865377008275745, -51.07412901835067 13.624031571755264 C-51.33015087223852 13.419860956307364, -51.58617272612638 13.215690340859462, -51.9261327202324 12.94458129227529 C-52.10818153894724 12.779249371866264, -52.29023035766208 12.613917451457239, -52.73285336025926 12.211938951661377 C-52.954309011196955 11.983267810221129, -53.175764662134654 11.75459666878088, -53.490975950280365 11.429115134442386 C-53.64743136091952 11.24533370654057, -53.80388677155867 11.061552278638757, -54.19738520195651 10.599326631598473 C-54.34244206714519 10.40496364719791, -54.48749893233388 10.210600662797347, -54.84917832814825 9.72598322207689 C-55.03373726381273 9.44245113588282, -55.218296199477216 9.158919049688752, -55.44367697109088 8.812673661278936 C-55.61842766540055 8.502386108105492, -55.79317835971022 8.192098554932048, -55.978438208341004 7.863150934094201 C-56.12296647661742 7.5630348926086715, -56.26749474489384 7.262918851123142, -56.45126459126881 6.881316833080701 C-56.53414612717408 6.676597836989199, -56.61702766307935 6.471878840897696, -56.860213174845924 5.87120592516224 C-56.963025982938476 5.561550128183866, -57.06583879103103 5.2518943312054915, -57.203603501623235 4.8369689727275516 C-57.30502149132079 4.450218223176016, -57.40643948101833 4.063467473624479, -57.480024507091 3.782855877257349 C-57.56265976407201 3.358541297627624, -57.64529502105301 2.9342267179978996, -57.68834031804565 2.713198215567455 C-57.7404563480318 2.3089965784690274, -57.79257237801795 1.9047949413705998, -57.827694920136366 1.6323914404306026 C-57.843820262654994 1.3812262145608383, -57.859945605173614 1.1300609886910742, -57.8975156754117 0.54487681871814 C-57.8975156754117 0.30806337198662215, -57.8975156754117 0.07124992525510426, -57.8975156754117 -0.5448768187181317 C-57.88205947452479 -0.785619623552549, -57.86660327363788 -1.0263624283869663, -57.827694920136366 -1.6323914404305793 C-57.790718459558484 -1.919173566844629, -57.7537419989806 -2.205955693258679, -57.688340318045654 -2.713198215567447 C-57.60900422074075 -3.120572307538005, -57.529668123435854 -3.527946399508563, -57.480024507091 -3.782855877257341 C-57.415250396989194 -4.0298676323524365, -57.350476286887385 -4.276879387447532, -57.203603501623235 -4.836968972727544 C-57.12483168551385 -5.074217132264519, -57.04605986940446 -5.311465291801496, -56.86021317484593 -5.871205925162218 C-56.767787407686654 -6.099499356976267, -56.675361640527385 -6.327792788790317, -56.45126459126881 -6.881316833080692 C-56.27497186481235 -7.247392451627608, -56.09867913835589 -7.613468070174524, -55.978438208341004 -7.863150934094194 C-55.826711050971554 -8.13255786604435, -55.67498389360211 -8.401964797994506, -55.44367697109088 -8.812673661278929 C-55.32363447260596 -8.997091174876068, -55.20359197412103 -9.181508688473208, -54.84917832814825 -9.725983222076884 C-54.599670069442475 -10.060301558072641, -54.350161810736694 -10.3946198940684, -54.19738520195651 -10.599326631598467 C-54.007009907146674 -10.822952285543249, -53.81663461233684 -11.046577939488031, -53.49097595028037 -11.42911513444238 C-53.194881284385275 -11.734857186803236, -52.898786618490185 -12.04059923916409, -52.73285336025928 -12.21193895166136 C-52.45441658777135 -12.464807861401601, -52.17597981528341 -12.717676771141843, -51.92613272023242 -12.944581292275274 C-51.59147772788633 -13.211459743127923, -51.25682273554024 -13.478338193980571, -51.074129018350675 -13.624031571755259 C-50.77943938436935 -13.829594303511982, -50.484749750388026 -14.035157035268707, -50.18034332057934 -14.247497783161284 C-49.98601726707865 -14.365299378780051, -49.79169121357796 -14.483100974398818, -49.24844838406695 -14.812417970097618 C-48.88263908419512 -15.00326044752871, -48.5168297843233 -15.194102924959802, -48.28227356499849 -15.316470754341124 C-47.88662326033749 -15.491613407665263, -47.49097295567648 -15.6667560609894, -47.28578908294937 -15.757584874882365 C-47.00343585248271 -15.861493473738747, -46.72108262201605 -15.965402072595131, -46.263089706401566 -16.133947699181363 C-46.01388762008685 -16.207909570311127, -45.76468553377213 -16.281871441440888, -45.21837792646164 -16.444012671663494 C-44.89566538682071 -16.51766970294041, -44.57295284717978 -16.591326734217326, -44.15594668792333 -16.68650566884811 C-43.88129141246455 -16.730909803800813, -43.60663613700577 -16.775313938753516, -43.08016174863661 -16.86043023499518 C-42.75460687784825 -16.89183612184312, -42.429052007059894 -16.923242008691055, -41.99544373967212 -16.965071676755716 C-41.679960507223804 -16.975188609969475, -41.36447727477549 -16.985305543183234, -40.90625000000001 -17 C-40.90625000000001 -17, -40.90625 -17, -40.90625 -17" stroke="none" stroke-width="0" fill="#2d2d2d" style=""></path><path d="M-40.90625 -17 C-18.94276046404631 -17, 3.0207290719073825 -17, 40.90625 -17 M-40.90625 -17 C-9.36348199701202 -17, 22.17928600597596 -17, 40.90625 -17 M40.90625 -17 C40.90625 -17, 40.90625 -17, 40.90625 -17 M40.90625 -17 C40.90625 -17, 40.90625 -17, 40.90625 -17 M40.90625 -17 C41.24908006702684 -16.989006107028693, 41.591910134053684 -16.978012214057387, 41.99544373967212 -16.965071676755716 M40.90625 -17 C41.29131008264952 -16.987651872623413, 41.67637016529903 -16.975303745246826, 41.99544373967212 -16.965071676755716 M41.99544373967212 -16.965071676755716 C42.26506491100209 -16.939061646624413, 42.534686082332065 -16.913051616493114, 43.0801617486366 -16.860430234995185 M41.99544373967212 -16.965071676755716 C42.28113785597829 -16.937511108953107, 42.56683197228445 -16.909950541150497, 43.0801617486366 -16.860430234995185 M43.0801617486366 -16.860430234995185 C43.43954365644475 -16.802328155189084, 43.7989255642529 -16.744226075382983, 44.155946687923326 -16.686505668848113 M43.0801617486366 -16.860430234995185 C43.48748709546894 -16.794577031774576, 43.89481244230129 -16.728723828553964, 44.155946687923326 -16.686505668848113 M44.155946687923326 -16.686505668848113 C44.565658791198246 -16.592991554896948, 44.97537089447317 -16.499477440945782, 45.21837792646162 -16.4440126716635 M44.155946687923326 -16.686505668848113 C44.41358203982428 -16.62770208100451, 44.67121739172523 -16.56889849316091, 45.21837792646162 -16.4440126716635 M45.21837792646162 -16.4440126716635 C45.47760325855731 -16.367075953799034, 45.736828590653005 -16.290139235934568, 46.26308970640155 -16.133947699181366 M45.21837792646162 -16.4440126716635 C45.5062812479565 -16.358564477079195, 45.79418456945138 -16.273116282494886, 46.26308970640155 -16.133947699181366 M46.26308970640155 -16.133947699181366 C46.63203865559333 -15.998171075352092, 47.0009876047851 -15.86239445152282, 47.28578908294936 -15.757584874882369 M46.26308970640155 -16.133947699181366 C46.496778299896796 -16.04794813658144, 46.730466893392034 -15.96194857398151, 47.28578908294936 -15.757584874882369 M47.28578908294936 -15.757584874882369 C47.563878955572214 -15.634482737515206, 47.84196882819507 -15.511380600148046, 48.28227356499849 -15.316470754341125 M47.28578908294936 -15.757584874882369 C47.626941357742034 -15.606566882754322, 47.96809363253471 -15.455548890626275, 48.28227356499849 -15.316470754341125 M48.28227356499849 -15.316470754341125 C48.527101945948324 -15.188743944819661, 48.77193032689815 -15.061017135298197, 49.24844838406694 -14.812417970097622 M48.28227356499849 -15.316470754341125 C48.619912030453975 -15.140324983180758, 48.95755049590946 -14.96417921202039, 49.24844838406694 -14.812417970097622 M49.24844838406694 -14.812417970097622 C49.53410283950375 -14.639252560519914, 49.819757294940565 -14.466087150942206, 50.180343320579325 -14.247497783161291 M49.24844838406694 -14.812417970097622 C49.54448267032353 -14.632960246078305, 49.840516956580124 -14.45350252205899, 50.180343320579325 -14.247497783161291 M50.180343320579325 -14.247497783161291 C50.38307343465602 -14.106082031626586, 50.585803548732706 -13.96466628009188, 51.074129018350675 -13.624031571755262 M50.180343320579325 -14.247497783161291 C50.49875624546752 -14.025386710632649, 50.81716917035571 -13.803275638104006, 51.074129018350675 -13.624031571755262 M51.074129018350675 -13.624031571755262 C51.2875863589397 -13.453805022973906, 51.50104369952872 -13.283578474192552, 51.9261327202324 -12.944581292275288 M51.074129018350675 -13.624031571755262 C51.385274033365285 -13.375901702197693, 51.6964190483799 -13.127771832640125, 51.9261327202324 -12.944581292275288 M51.9261327202324 -12.944581292275288 C52.17087673977973 -12.72231124929431, 52.41562075932706 -12.500041206313332, 52.73285336025927 -12.21193895166137 M51.9261327202324 -12.944581292275288 C52.21367889476005 -12.683439464624149, 52.5012250692877 -12.422297636973008, 52.73285336025927 -12.21193895166137 M52.73285336025927 -12.21193895166137 C52.91349685642649 -12.02540971076186, 53.094140352593705 -11.83888046986235, 53.49097595028036 -11.42911513444239 M52.73285336025927 -12.21193895166137 C52.900208694470095 -12.03913082896022, 53.06756402868093 -11.866322706259067, 53.49097595028036 -11.42911513444239 M53.49097595028036 -11.42911513444239 C53.63951191322605 -11.254636340430652, 53.78804787617175 -11.080157546418913, 54.19738520195651 -10.59932663159847 M53.49097595028036 -11.42911513444239 C53.678184185827696 -11.209209688518117, 53.86539242137503 -10.989304242593843, 54.19738520195651 -10.59932663159847 M54.19738520195651 -10.59932663159847 C54.40182945600753 -10.3253899564248, 54.60627371005855 -10.051453281251131, 54.84917832814825 -9.725983222076888 M54.19738520195651 -10.59932663159847 C54.37706615414395 -10.358570524938797, 54.556747106331386 -10.117814418279123, 54.84917832814825 -9.725983222076888 M54.84917832814825 -9.725983222076888 C55.061065395720824 -9.400467786641059, 55.27295246329341 -9.074952351205232, 55.44367697109088 -8.812673661278927 M54.84917832814825 -9.725983222076888 C55.02076140538142 -9.462385538939177, 55.192344482614594 -9.198787855801468, 55.44367697109088 -8.812673661278927 M55.44367697109088 -8.812673661278927 C55.55647583172223 -8.612387862104757, 55.66927469235358 -8.412102062930588, 55.978438208341004 -7.863150934094199 M55.44367697109088 -8.812673661278927 C55.5611269147527 -8.604129393210929, 55.67857685841452 -8.39558512514293, 55.978438208341004 -7.863150934094199 M55.978438208341004 -7.863150934094199 C56.08767643084644 -7.6363154277381184, 56.19691465335189 -7.4094799213820375, 56.45126459126881 -6.881316833080699 M55.978438208341004 -7.863150934094199 C56.108102054428116 -7.593901183332442, 56.237765900515235 -7.324651432570685, 56.45126459126881 -6.881316833080699 M56.45126459126881 -6.881316833080699 C56.56960648804369 -6.5890100600618196, 56.68794838481857 -6.296703287042941, 56.860213174845924 -5.871205925162238 M56.45126459126881 -6.881316833080699 C56.55188151890654 -6.632791076519546, 56.65249844654427 -6.384265319958394, 56.860213174845924 -5.871205925162238 M56.860213174845924 -5.871205925162238 C56.973359865434965 -5.530426120585017, 57.086506556024005 -5.189646316007796, 57.203603501623235 -4.836968972727556 M56.860213174845924 -5.871205925162238 C56.968135382773774 -5.5461614299522655, 57.076057590701616 -5.221116934742292, 57.203603501623235 -4.836968972727556 M57.203603501623235 -4.836968972727556 C57.30489793082928 -4.450689412881574, 57.40619236003533 -4.064409853035592, 57.480024507091 -3.7828558772573464 M57.203603501623235 -4.836968972727556 C57.27429113893227 -4.567406375452393, 57.344978776241305 -4.2978437781772305, 57.480024507091 -3.7828558772573464 M57.480024507091 -3.7828558772573464 C57.53267577997034 -3.512502718872402, 57.58532705284968 -3.2421495604874577, 57.68834031804565 -2.713198215567453 M57.480024507091 -3.7828558772573464 C57.543964360164736 -3.4545382454164555, 57.60790421323847 -3.126220613575565, 57.68834031804565 -2.713198215567453 M57.68834031804565 -2.713198215567453 C57.716727922333654 -2.4930295624762118, 57.74511552662165 -2.2728609093849705, 57.827694920136366 -1.632391440430593 M57.68834031804565 -2.713198215567453 C57.73561527490043 -2.3465429856979023, 57.78289023175521 -1.9798877558283519, 57.827694920136366 -1.632391440430593 M57.827694920136366 -1.632391440430593 C57.843192876982634 -1.390998252824378, 57.8586908338289 -1.1496050652181629, 57.8975156754117 -0.5448768187181379 M57.827694920136366 -1.632391440430593 C57.849608797980856 -1.2910651044389159, 57.87152267582534 -0.9497387684472387, 57.8975156754117 -0.5448768187181379 M57.8975156754117 -0.5448768187181379 C57.8975156754117 -0.2103976490288465, 57.8975156754117 0.12408152066044487, 57.8975156754117 0.5448768187181336 M57.8975156754117 -0.5448768187181379 C57.8975156754117 -0.13242535190294313, 57.8975156754117 0.2800261149122516, 57.8975156754117 0.5448768187181336 M57.8975156754117 0.5448768187181336 C57.87151796745449 0.949812105123748, 57.845520259497285 1.3547473915293624, 57.827694920136366 1.6323914404305815 M57.8975156754117 0.5448768187181336 C57.871012798903244 0.9576805130741289, 57.84450992239479 1.3704842074301242, 57.827694920136366 1.6323914404305815 M57.827694920136366 1.6323914404305815 C57.77925862064233 2.0080538144771243, 57.7308223211483 2.383716188523667, 57.688340318045654 2.7131982155674415 M57.827694920136366 1.6323914404305815 C57.793628294840985 1.8966054590055221, 57.7595616695456 2.160819477580463, 57.688340318045654 2.7131982155674415 M57.688340318045654 2.7131982155674415 C57.611241099638036 3.1090864071649853, 57.53414188123042 3.504974598762529, 57.480024507091 3.782855877257343 M57.688340318045654 2.7131982155674415 C57.616523530705756 3.0819622400744553, 57.54470674336585 3.450726264581469, 57.480024507091 3.782855877257343 M57.480024507091 3.782855877257343 C57.382046821464144 4.1564872563501165, 57.284069135837285 4.53011863544289, 57.203603501623235 4.836968972727545 M57.480024507091 3.782855877257343 C57.395741166568826 4.104264783299262, 57.31145782604665 4.42567368934118, 57.203603501623235 4.836968972727545 M57.203603501623235 4.836968972727545 C57.07856846068972 5.213554594390911, 56.95353341975621 5.590140216054276, 56.860213174845924 5.871205925162227 M57.203603501623235 4.836968972727545 C57.076728808749685 5.219095332925567, 56.94985411587614 5.6012216931235885, 56.860213174845924 5.871205925162227 M56.860213174845924 5.871205925162227 C56.699598170575754 6.2679280909894, 56.53898316630559 6.664650256816573, 56.45126459126881 6.881316833080694 M56.860213174845924 5.871205925162227 C56.75229916583303 6.13775561379951, 56.644385156820135 6.404305302436793, 56.45126459126881 6.881316833080694 M56.45126459126881 6.881316833080694 C56.32198294364555 7.149772940554521, 56.19270129602229 7.418229048028347, 55.978438208341004 7.863150934094196 M56.45126459126881 6.881316833080694 C56.31397530172421 7.1664009803402635, 56.176686012179616 7.451485127599834, 55.978438208341004 7.863150934094196 M55.978438208341004 7.863150934094196 C55.77135000632547 8.23085700672713, 55.56426180430994 8.598563079360062, 55.44367697109089 8.812673661278923 M55.978438208341004 7.863150934094196 C55.814038966015325 8.155058436071885, 55.64963972368965 8.446965938049573, 55.44367697109089 8.812673661278923 M55.44367697109089 8.812673661278923 C55.256476887345364 9.100263260173035, 55.06927680359984 9.387852859067149, 54.849178328148255 9.725983222076879 M55.44367697109089 8.812673661278923 C55.259355302906876 9.095841240907754, 55.07503363472286 9.379008820536583, 54.849178328148255 9.725983222076879 M54.849178328148255 9.725983222076879 C54.6264430975516 10.024428139479454, 54.40370786695494 10.322873056882027, 54.19738520195651 10.599326631598467 M54.849178328148255 9.725983222076879 C54.66951209525574 9.966719606222313, 54.489845862363225 10.207455990367745, 54.19738520195651 10.599326631598467 M54.19738520195651 10.599326631598467 C54.03373549301026 10.79155889165896, 53.870085784064024 10.983791151719455, 53.49097595028037 11.42911513444238 M54.19738520195651 10.599326631598467 C53.98233701615526 10.851934467229032, 53.76728883035402 11.104542302859597, 53.49097595028037 11.42911513444238 M53.49097595028037 11.42911513444238 C53.275359518351415 11.65175680284731, 53.05974308642246 11.874398471252238, 52.73285336025927 12.211938951661365 M53.49097595028037 11.42911513444238 C53.27435440496949 11.652794664935488, 53.05773285965861 11.876474195428598, 52.73285336025927 12.211938951661365 M52.73285336025927 12.211938951661365 C52.4803787311017 12.441229729749645, 52.22790410194413 12.670520507837924, 51.92613272023242 12.944581292275275 M52.73285336025927 12.211938951661365 C52.51648465622555 12.40843928386259, 52.30011595219183 12.604939616063815, 51.92613272023242 12.944581292275275 M51.92613272023242 12.944581292275275 C51.67226514407862 13.147033928558004, 51.41839756792483 13.349486564840731, 51.074129018350675 13.62403157175526 M51.92613272023242 12.944581292275275 C51.71200411682109 13.11534315529436, 51.49787551340977 13.286105018313444, 51.074129018350675 13.62403157175526 M51.074129018350675 13.62403157175526 C50.76626267376219 13.838785806420928, 50.45839632917371 14.053540041086595, 50.18034332057934 14.247497783161286 M51.074129018350675 13.62403157175526 C50.806127659609544 13.810977718021237, 50.53812630086842 13.997923864287213, 50.18034332057934 14.247497783161286 M50.18034332057934 14.247497783161286 C49.83547419920973 14.456559471211458, 49.49060507784012 14.665621159261631, 49.24844838406695 14.81241797009762 M50.18034332057934 14.247497783161286 C49.86839970459065 14.436599836357798, 49.55645608860196 14.62570188955431, 49.24844838406695 14.81241797009762 M49.24844838406695 14.81241797009762 C48.9800200635578 14.952456852970696, 48.71159174304866 15.092495735843771, 48.28227356499849 15.316470754341124 M49.24844838406695 14.81241797009762 C49.01117461856763 14.936203541577514, 48.773900853068305 15.059989113057409, 48.28227356499849 15.316470754341124 M48.28227356499849 15.316470754341124 C47.897056862753274 15.48699476137761, 47.511840160508065 15.657518768414096, 47.285789082949364 15.757584874882367 M48.28227356499849 15.316470754341124 C48.01680436947274 15.433986092336482, 47.75133517394699 15.55150143033184, 47.285789082949364 15.757584874882367 M47.285789082949364 15.757584874882367 C46.9193881966662 15.892423788007237, 46.552987310383024 16.02726270113211, 46.26308970640156 16.133947699181363 M47.285789082949364 15.757584874882367 C46.92751662149099 15.889432452533379, 46.56924416003261 16.02128003018439, 46.26308970640156 16.133947699181363 M46.26308970640156 16.133947699181363 C45.98764369331186 16.21569863002076, 45.71219768022216 16.297449560860155, 45.21837792646164 16.444012671663497 M46.26308970640156 16.133947699181363 C45.85549476396132 16.254919738588114, 45.44789982152108 16.375891777994866, 45.21837792646164 16.444012671663497 M45.21837792646164 16.444012671663497 C44.93395917060026 16.508929396683023, 44.64954041473887 16.573846121702548, 44.15594668792333 16.68650566884811 M45.21837792646164 16.444012671663497 C44.96130154621777 16.502688677874, 44.7042251659739 16.561364684084506, 44.15594668792333 16.68650566884811 M44.15594668792333 16.68650566884811 C43.73138894550873 16.755144872147238, 43.306831203094134 16.823784075446362, 43.08016174863661 16.86043023499518 M44.15594668792333 16.68650566884811 C43.88517770045633 16.730281498896915, 43.61440871298933 16.77405732894572, 43.08016174863661 16.86043023499518 M43.08016174863661 16.86043023499518 C42.82936373920554 16.884624417336262, 42.57856572977446 16.908818599677343, 41.99544373967212 16.965071676755716 M43.08016174863661 16.86043023499518 C42.83582083819196 16.88400150876284, 42.5914799277473 16.907572782530497, 41.99544373967212 16.965071676755716 M41.99544373967212 16.965071676755716 C41.56858475647569 16.978760213516217, 41.141725773279255 16.992448750276722, 40.90625 17 M41.99544373967212 16.965071676755716 C41.71767458295074 16.973979192966908, 41.43990542622937 16.982886709178096, 40.90625 17 M40.90625 17 C40.90625 17, 40.90625 17, 40.90625 17 M40.90625 17 C40.90625 17, 40.90625 17, 40.90625 17 M40.90625 17 C24.0266176476092 17, 7.1469852952184 17, -40.90625 17 M40.90625 17 C23.58322390979877 17, 6.260197819597543 17, -40.90625 17 M-40.90625 17 C-41.15520906784668 16.992016367263584, -41.404168135693354 16.98403273452717, -41.99544373967211 16.965071676755716 M-40.90625 17 C-41.278523875904106 16.988061901386896, -41.65079775180822 16.97612380277379, -41.99544373967211 16.965071676755716 M-41.99544373967211 16.965071676755716 C-42.24548203534708 16.940950783087, -42.49552033102205 16.91682988941828, -43.080161748636606 16.86043023499518 M-41.99544373967211 16.965071676755716 C-42.39078377192813 16.92693369930993, -42.786123804184136 16.888795721864145, -43.080161748636606 16.86043023499518 M-43.080161748636606 16.86043023499518 C-43.496684330551886 16.793090094131983, -43.91320691246716 16.72574995326879, -44.155946687923326 16.68650566884811 M-43.080161748636606 16.86043023499518 C-43.3039588783003 16.824248450643818, -43.52775600796399 16.788066666292455, -44.155946687923326 16.68650566884811 M-44.155946687923326 16.68650566884811 C-44.458216411028076 16.617514577043735, -44.76048613413282 16.548523485239357, -45.21837792646162 16.4440126716635 M-44.155946687923326 16.68650566884811 C-44.481087273554614 16.612294451918377, -44.8062278591859 16.538083234988644, -45.21837792646162 16.4440126716635 M-45.21837792646162 16.4440126716635 C-45.589181715640635 16.333960053423976, -45.959985504819656 16.223907435184454, -46.263089706401544 16.13394769918137 M-45.21837792646162 16.4440126716635 C-45.556598760101494 16.34363050359657, -45.89481959374136 16.243248335529643, -46.263089706401544 16.13394769918137 M-46.263089706401544 16.13394769918137 C-46.55053145934846 16.028166477014466, -46.83797321229538 15.922385254847566, -47.285789082949364 15.757584874882369 M-46.263089706401544 16.13394769918137 C-46.49326950732435 16.04923940468302, -46.723449308247154 15.964531110184677, -47.285789082949364 15.757584874882369 M-47.285789082949364 15.757584874882369 C-47.62636856774143 15.606820439896378, -47.9669480525335 15.456056004910387, -48.28227356499848 15.316470754341127 M-47.285789082949364 15.757584874882369 C-47.603865651138925 15.616781813551006, -47.921942219328486 15.475978752219643, -48.28227356499848 15.316470754341127 M-48.28227356499848 15.316470754341127 C-48.56122989078253 15.170939417859646, -48.84018621656657 15.025408081378163, -49.24844838406693 14.812417970097624 M-48.28227356499848 15.316470754341127 C-48.53453603392374 15.184865585884642, -48.786798502848995 15.05326041742816, -49.24844838406693 14.812417970097624 M-49.24844838406693 14.812417970097624 C-49.55657175084585 14.625631774422356, -49.86469511762476 14.438845578747088, -50.18034332057932 14.247497783161299 M-49.24844838406693 14.812417970097624 C-49.554428543569124 14.626930999268387, -49.86040870307132 14.44144402843915, -50.18034332057932 14.247497783161299 M-50.18034332057932 14.247497783161299 C-50.4961295783681 14.02721895989462, -50.81191583615688 13.806940136627942, -51.07412901835067 13.624031571755264 M-50.18034332057932 14.247497783161299 C-50.415901197675126 14.083182805235413, -50.65145907477093 13.918867827309526, -51.07412901835067 13.624031571755264 M-51.07412901835067 13.624031571755264 C-51.345960619989654 13.407253103190895, -51.61779222162863 13.190474634626526, -51.9261327202324 12.94458129227529 M-51.07412901835067 13.624031571755264 C-51.38067767290647 13.379567177349308, -51.68722632746228 13.135102782943353, -51.9261327202324 12.94458129227529 M-51.9261327202324 12.94458129227529 C-52.14580094341526 12.745084424083311, -52.36546916659812 12.545587555891332, -52.73285336025926 12.211938951661377 M-51.9261327202324 12.94458129227529 C-52.13693801912126 12.753133497426992, -52.34774331801012 12.561685702578696, -52.73285336025926 12.211938951661377 M-52.73285336025926 12.211938951661377 C-52.95959465798058 11.977809945957366, -53.1863359557019 11.743680940253354, -53.490975950280365 11.429115134442386 M-52.73285336025926 12.211938951661377 C-52.96455824739183 11.972684632371982, -53.1962631345244 11.733430313082588, -53.490975950280365 11.429115134442386 M-53.490975950280365 11.429115134442386 C-53.70943140182774 11.172504930587502, -53.92788685337512 10.915894726732619, -54.19738520195651 10.599326631598473 M-53.490975950280365 11.429115134442386 C-53.697802563144236 11.186164826204813, -53.904629176008115 10.94321451796724, -54.19738520195651 10.599326631598473 M-54.19738520195651 10.599326631598473 C-54.43689158021506 10.27840990421194, -54.676397958473615 9.957493176825409, -54.84917832814825 9.72598322207689 M-54.19738520195651 10.599326631598473 C-54.37655839377564 10.359250877574409, -54.55573158559476 10.119175123550347, -54.84917832814825 9.72598322207689 M-54.84917832814825 9.72598322207689 C-55.03110456929537 9.446495661638954, -55.21303081044249 9.167008101201017, -55.44367697109088 8.812673661278936 M-54.84917832814825 9.72598322207689 C-55.03892395073518 9.434482991949487, -55.228669573322115 9.142982761822086, -55.44367697109088 8.812673661278936 M-55.44367697109088 8.812673661278936 C-55.57843351823737 8.573399766240271, -55.713190065383856 8.334125871201607, -55.978438208341004 7.863150934094201 M-55.44367697109088 8.812673661278936 C-55.599673236895136 8.535686495008672, -55.75566950269939 8.258699328738409, -55.978438208341004 7.863150934094201 M-55.978438208341004 7.863150934094201 C-56.15664384660291 7.493103113253524, -56.33484948486481 7.1230552924128485, -56.45126459126881 6.881316833080701 M-55.978438208341004 7.863150934094201 C-56.1638148926765 7.478212282645914, -56.349191577011986 7.0932736311976265, -56.45126459126881 6.881316833080701 M-56.45126459126881 6.881316833080701 C-56.61469042172465 6.477651872231282, -56.778116252180496 6.073986911381862, -56.860213174845924 5.87120592516224 M-56.45126459126881 6.881316833080701 C-56.540104400184525 6.661880787458035, -56.62894420910023 6.442444741835367, -56.860213174845924 5.87120592516224 M-56.860213174845924 5.87120592516224 C-56.94015896334793 5.630421947825783, -57.02010475184994 5.389637970489326, -57.203603501623235 4.8369689727275516 M-56.860213174845924 5.87120592516224 C-56.934507450363355 5.647443404489031, -57.00880172588078 5.423680883815822, -57.203603501623235 4.8369689727275516 M-57.203603501623235 4.8369689727275516 C-57.305260005115635 4.449308666703716, -57.406916508608035 4.061648360679879, -57.480024507091 3.782855877257349 M-57.203603501623235 4.8369689727275516 C-57.27258102102893 4.573927796187625, -57.34155854043462 4.310886619647698, -57.480024507091 3.782855877257349 M-57.480024507091 3.782855877257349 C-57.55333790794451 3.406407058667325, -57.626651308798024 3.029958240077301, -57.68834031804565 2.713198215567455 M-57.480024507091 3.782855877257349 C-57.556002732347366 3.3927237485694963, -57.63198095760373 3.0025916198816436, -57.68834031804565 2.713198215567455 M-57.68834031804565 2.713198215567455 C-57.730640876944015 2.385123433941854, -57.77294143584239 2.0570486523162534, -57.827694920136366 1.6323914404306026 M-57.68834031804565 2.713198215567455 C-57.721507797675514 2.4559577932178627, -57.75467527730539 2.1987173708682706, -57.827694920136366 1.6323914404306026 M-57.827694920136366 1.6323914404306026 C-57.843602899091465 1.3846118275155197, -57.85951087804656 1.1368322146004366, -57.8975156754117 0.54487681871814 M-57.827694920136366 1.6323914404306026 C-57.843807576894285 1.3814238055236019, -57.859920233652204 1.130456170616601, -57.8975156754117 0.54487681871814 M-57.8975156754117 0.54487681871814 C-57.8975156754117 0.25578999101584216, -57.8975156754117 -0.033296836686455666, -57.8975156754117 -0.5448768187181317 M-57.8975156754117 0.54487681871814 C-57.8975156754117 0.2875005073224166, -57.8975156754117 0.030124195926693242, -57.8975156754117 -0.5448768187181317 M-57.8975156754117 -0.5448768187181317 C-57.87290825269603 -0.9281572902687139, -57.84830082998036 -1.3114377618192963, -57.827694920136366 -1.6323914404305793 M-57.8975156754117 -0.5448768187181317 C-57.876767984286275 -0.8680388552313416, -57.85602029316086 -1.1912008917445516, -57.827694920136366 -1.6323914404305793 M-57.827694920136366 -1.6323914404305793 C-57.77671301800062 -2.027797005880135, -57.72573111586488 -2.4232025713296905, -57.688340318045654 -2.713198215567447 M-57.827694920136366 -1.6323914404305793 C-57.787205036980666 -1.9464229785544402, -57.74671515382496 -2.260454516678301, -57.688340318045654 -2.713198215567447 M-57.688340318045654 -2.713198215567447 C-57.614151531267 -3.0941419558702186, -57.539962744488335 -3.47508569617299, -57.480024507091 -3.782855877257341 M-57.688340318045654 -2.713198215567447 C-57.62524316272794 -3.0371887725354094, -57.56214600741023 -3.361179329503372, -57.480024507091 -3.782855877257341 M-57.480024507091 -3.782855877257341 C-57.38415841794204 -4.1484348238081985, -57.28829232879308 -4.514013770359055, -57.203603501623235 -4.836968972727544 M-57.480024507091 -3.782855877257341 C-57.37252797108071 -4.192786758358005, -57.26503143507042 -4.602717639458669, -57.203603501623235 -4.836968972727544 M-57.203603501623235 -4.836968972727544 C-57.08559120714005 -5.192403201005233, -56.96757891265686 -5.547837429282921, -56.86021317484593 -5.871205925162218 M-57.203603501623235 -4.836968972727544 C-57.124827651025065 -5.074229283501938, -57.04605180042689 -5.311489594276333, -56.86021317484593 -5.871205925162218 M-56.86021317484593 -5.871205925162218 C-56.75016732429936 -6.143021303604029, -56.640121473752785 -6.414836682045841, -56.45126459126881 -6.881316833080692 M-56.86021317484593 -5.871205925162218 C-56.76002802973638 -6.118665170530808, -56.65984288462684 -6.3661244158993995, -56.45126459126881 -6.881316833080692 M-56.45126459126881 -6.881316833080692 C-56.30432564456321 -7.186438699904687, -56.157386697857596 -7.4915605667286815, -55.978438208341004 -7.863150934094194 M-56.45126459126881 -6.881316833080692 C-56.26514898547857 -7.267789870740149, -56.07903337968833 -7.654262908399606, -55.978438208341004 -7.863150934094194 M-55.978438208341004 -7.863150934094194 C-55.78226022027229 -8.211484817085594, -55.58608223220357 -8.559818700076994, -55.44367697109088 -8.812673661278929 M-55.978438208341004 -7.863150934094194 C-55.85808105089083 -8.076857254630735, -55.73772389344066 -8.290563575167274, -55.44367697109088 -8.812673661278929 M-55.44367697109088 -8.812673661278929 C-55.222138023138136 -9.153016976871466, -55.0005990751854 -9.493360292464006, -54.84917832814825 -9.725983222076884 M-55.44367697109088 -8.812673661278929 C-55.29125240305159 -9.046838729514787, -55.138827835012286 -9.281003797750648, -54.84917832814825 -9.725983222076884 M-54.84917832814825 -9.725983222076884 C-54.62225686953211 -10.030037303652344, -54.395335410915976 -10.334091385227802, -54.19738520195651 -10.599326631598467 M-54.84917832814825 -9.725983222076884 C-54.6511228554638 -9.991359512249305, -54.453067382779345 -10.256735802421725, -54.19738520195651 -10.599326631598467 M-54.19738520195651 -10.599326631598467 C-54.04150546167845 -10.782431844337573, -53.88562572140038 -10.965537057076679, -53.49097595028037 -11.42911513444238 M-54.19738520195651 -10.599326631598467 C-53.92776207138057 -10.916041302763714, -53.65813894080463 -11.232755973928963, -53.49097595028037 -11.42911513444238 M-53.49097595028037 -11.42911513444238 C-53.19521535435311 -11.734512232133794, -52.89945475842585 -12.039909329825205, -52.73285336025928 -12.21193895166136 M-53.49097595028037 -11.42911513444238 C-53.267593987211384 -11.659775351311357, -53.04421202414239 -11.890435568180335, -52.73285336025928 -12.21193895166136 M-52.73285336025928 -12.21193895166136 C-52.56113470708806 -12.367889289044868, -52.38941605391685 -12.523839626428376, -51.92613272023242 -12.944581292275274 M-52.73285336025928 -12.21193895166136 C-52.559187064026574 -12.369658086941499, -52.38552076779387 -12.527377222221638, -51.92613272023242 -12.944581292275274 M-51.92613272023242 -12.944581292275274 C-51.61401139488466 -13.193489743342816, -51.3018900695369 -13.442398194410357, -51.074129018350675 -13.624031571755259 M-51.92613272023242 -12.944581292275274 C-51.67225064481327 -13.147045491336279, -51.418368569394126 -13.349509690397282, -51.074129018350675 -13.624031571755259 M-51.074129018350675 -13.624031571755259 C-50.82825154440858 -13.795545053712965, -50.582374070466486 -13.967058535670674, -50.18034332057934 -14.247497783161284 M-51.074129018350675 -13.624031571755259 C-50.844000681630845 -13.784559137355876, -50.613872344911016 -13.945086702956493, -50.18034332057934 -14.247497783161284 M-50.18034332057934 -14.247497783161284 C-49.9912628194868 -14.362119494083943, -49.80218231839426 -14.476741205006602, -49.24844838406695 -14.812417970097618 M-50.18034332057934 -14.247497783161284 C-49.96142561576249 -14.380206982324493, -49.74250791094563 -14.512916181487702, -49.24844838406695 -14.812417970097618 M-49.24844838406695 -14.812417970097618 C-48.91864912926782 -14.984474030079818, -48.58884987446869 -15.156530090062018, -48.28227356499849 -15.316470754341124 M-49.24844838406695 -14.812417970097618 C-48.9609960847224 -14.962381650543682, -48.67354378537786 -15.112345330989745, -48.28227356499849 -15.316470754341124 M-48.28227356499849 -15.316470754341124 C-47.9697731018612 -15.454805439375129, -47.6572726387239 -15.593140124409132, -47.28578908294937 -15.757584874882365 M-48.28227356499849 -15.316470754341124 C-47.92453129656699 -15.474832644528403, -47.56678902813549 -15.633194534715683, -47.28578908294937 -15.757584874882365 M-47.28578908294937 -15.757584874882365 C-46.99216691214072 -15.865640547953543, -46.69854474133207 -15.97369622102472, -46.263089706401566 -16.133947699181363 M-47.28578908294937 -15.757584874882365 C-46.876825577501265 -15.908087225304472, -46.46786207205316 -16.05858957572658, -46.263089706401566 -16.133947699181363 M-46.263089706401566 -16.133947699181363 C-45.98958478596676 -16.215122523909788, -45.71607986553195 -16.296297348638216, -45.21837792646164 -16.444012671663494 M-46.263089706401566 -16.133947699181363 C-46.040742163569114 -16.199939282767964, -45.81839462073666 -16.26593086635457, -45.21837792646164 -16.444012671663494 M-45.21837792646164 -16.444012671663494 C-44.95645329188299 -16.503795260288097, -44.69452865730434 -16.563577848912697, -44.15594668792333 -16.68650566884811 M-45.21837792646164 -16.444012671663494 C-44.82450265765487 -16.533912131492308, -44.43062738884809 -16.62381159132112, -44.15594668792333 -16.68650566884811 M-44.15594668792333 -16.68650566884811 C-43.911715654891815 -16.725991048228696, -43.667484621860304 -16.765476427609283, -43.08016174863661 -16.86043023499518 M-44.15594668792333 -16.68650566884811 C-43.89585997747615 -16.728554471190648, -43.635773267028966 -16.770603273533183, -43.08016174863661 -16.86043023499518 M-43.08016174863661 -16.86043023499518 C-42.84031844719925 -16.88356762983107, -42.60047514576189 -16.906705024666962, -41.99544373967212 -16.965071676755716 M-43.08016174863661 -16.86043023499518 C-42.84832246297767 -16.882795492055166, -42.61648317731873 -16.905160749115147, -41.99544373967212 -16.965071676755716 M-41.99544373967212 -16.965071676755716 C-41.679993533732976 -16.975187550873606, -41.36454332779383 -16.9853034249915, -40.90625000000001 -17 M-41.99544373967212 -16.965071676755716 C-41.677800801464635 -16.97525786752956, -41.36015786325716 -16.9854440583034, -40.90625000000001 -17 M-40.90625000000001 -17 C-40.90625000000001 -17, -40.90625 -17, -40.90625 -17 M-40.90625000000001 -17 C-40.90625000000001 -17, -40.90625 -17, -40.90625 -17" stroke="#555555" stroke-width="1.3" fill="none" stroke-dasharray="0 0" style=""></path></g><g class="label" style="" transform="translate(0, -9.5)"><rect></rect><g><rect class="background" style="stroke: none"></rect><text y="-10.1" style=""><tspan class="text-outer-tspan row" x="0" y="-0.1em" dy="1.1em"><tspan font-style="normal" class="text-inner-tspan" font-weight="normal">Page</tspan><tspan font-style="normal" class="text-inner-tspan" font-weight="normal"> request</tspan></tspan></text></g></g></g><g class="node default" id="g8f2cf7df-2aaa-4e5f-8fb8-1b8981f7134c-dark-flowchart-Q1-1" data-look="classic" transform="translate(419.0703125, 179.1328125)"><polygon points="87.1328125,0 174.265625,-87.1328125 87.1328125,-174.265625 0,-87.1328125" class="label-container" transform="translate(-86.6328125, 87.1328125)"></polygon><g class="label" style="" transform="translate(0, -9.5)"><rect></rect><g><rect class="background" style="stroke: none"></rect><text y="-10.1" style=""><tspan class="text-outer-tspan row" x="0" y="-0.1em" dy="1.1em"><tspan font-style="normal" class="text-inner-tspan" font-weight="normal">Per-user</tspan><tspan font-style="normal" class="text-inner-tspan" font-weight="normal"> content?</tspan></tspan></text></g></g></g><g class="node default" id="g8f2cf7df-2aaa-4e5f-8fb8-1b8981f7134c-dark-flowchart-SSR-3" data-look="classic" transform="translate(124.0078125, 461.9078140258789)"><rect class="basic label-container" style="" x="-116.0078125" y="-33.29999923706055" width="232.015625" height="66.5999984741211"></rect><g class="label" style="" transform="translate(0, -18.299999237060547)"><rect></rect><g><rect class="background" style="stroke: none"></rect><text y="-10.1" style=""><tspan class="text-outer-tspan row" x="0" y="-0.1em" dy="1.1em"><tspan font-style="normal" class="text-inner-tspan" font-weight="normal">SSR</tspan><tspan font-style="normal" class="text-inner-tspan" font-weight="normal"> no-cache</tspan></tspan><tspan class="text-outer-tspan row" x="0" y="1em" dy="1.1em"><tspan font-style="normal" class="text-inner-tspan" font-weight="normal">account,</tspan><tspan font-style="normal" class="text-inner-tspan" font-weight="normal"> cart,</tspan><tspan font-style="normal" class="text-inner-tspan" font-weight="normal"> checkout</tspan></tspan></text></g></g></g><g class="node default" id="g8f2cf7df-2aaa-4e5f-8fb8-1b8981f7134c-dark-flowchart-PPR-5" data-look="classic" transform="translate(419.0703125, 461.9078140258789)"><rect class="basic label-container" style="" x="-129.0546875" y="-33.29999923706055" width="258.109375" height="66.5999984741211"></rect><g class="label" style="" transform="translate(0, -18.299999237060547)"><rect></rect><g><rect class="background" style="stroke: none"></rect><text y="-10.1" style=""><tspan class="text-outer-tspan row" x="0" y="-0.1em" dy="1.1em"><tspan font-style="normal" class="text-inner-tspan" font-weight="normal">PPR</tspan><tspan font-style="normal" class="text-inner-tspan" font-weight="normal"> /</tspan><tspan font-style="normal" class="text-inner-tspan" font-weight="normal"> Cache</tspan><tspan font-style="normal" class="text-inner-tspan" font-weight="normal"> Components</tspan></tspan><tspan class="text-outer-tspan row" x="0" y="1em" dy="1.1em"><tspan font-style="normal" class="text-inner-tspan" font-weight="normal">static</tspan><tspan font-style="normal" class="text-inner-tspan" font-weight="normal"> shell</tspan><tspan font-style="normal" class="text-inner-tspan" font-weight="normal"> +</tspan><tspan font-style="normal" class="text-inner-tspan" font-weight="normal"> dynamic</tspan><tspan font-style="normal" class="text-inner-tspan" font-weight="normal"> holes</tspan></tspan></text></g></g></g><g class="node default" id="g8f2cf7df-2aaa-4e5f-8fb8-1b8981f7134c-dark-flowchart-Q2-7" data-look="classic" transform="translate(703.1671905517578, 461.9078140258789)"><polygon points="105.04218673706055,0 210.0843734741211,-105.04218673706055 105.04218673706055,-210.0843734741211 0,-105.04218673706055" class="label-container" transform="translate(-104.54218673706055, 105.04218673706055)"></polygon><g class="label" style="" transform="translate(0, -18.299999237060547)"><rect></rect><g><rect class="background" style="stroke: none"></rect><text y="-10.1" style=""><tspan class="text-outer-tspan row" x="0" y="-0.1em" dy="1.1em"><tspan font-style="normal" class="text-inner-tspan" font-weight="normal">Changes</tspan><tspan font-style="normal" class="text-inner-tspan" font-weight="normal"> more</tspan><tspan font-style="normal" class="text-inner-tspan" font-weight="normal"> often</tspan></tspan><tspan class="text-outer-tspan row" x="0" y="1em" dy="1.1em"><tspan font-style="normal" class="text-inner-tspan" font-weight="normal">than</tspan><tspan font-style="normal" class="text-inner-tspan" font-weight="normal"> once</tspan><tspan font-style="normal" class="text-inner-tspan" font-weight="normal"> an</tspan><tspan font-style="normal" class="text-inner-tspan" font-weight="normal"> hour?</tspan></tspan></text></g></g></g><g class="node default" id="g8f2cf7df-2aaa-4e5f-8fb8-1b8981f7134c-dark-flowchart-Q3-9" data-look="classic" transform="translate(451.3156280517578, 744.4843826293945)"><polygon points="97.73749923706055,0 195.4749984741211,-97.73749923706055 97.73749923706055,-195.4749984741211 0,-97.73749923706055" class="label-container" transform="translate(-97.23749923706055, 97.73749923706055)"></polygon><g class="label" style="" transform="translate(0, -18.299999237060547)"><rect></rect><g><rect class="background" style="stroke: none"></rect><text y="-10.1" style=""><tspan class="text-outer-tspan row" x="0" y="-0.1em" dy="1.1em"><tspan font-style="normal" class="text-inner-tspan" font-weight="normal">Tolerable</tspan><tspan font-style="normal" class="text-inner-tspan" font-weight="normal"> to</tspan><tspan font-style="normal" class="text-inner-tspan" font-weight="normal"> serve</tspan></tspan><tspan class="text-outer-tspan row" x="0" y="1em" dy="1.1em"><tspan font-style="normal" class="text-inner-tspan" font-weight="normal">stale</tspan><tspan font-style="normal" class="text-inner-tspan" font-weight="normal"> for</tspan><tspan font-style="normal" class="text-inner-tspan" font-weight="normal"> seconds?</tspan></tspan></text></g></g></g><g class="node default" id="g8f2cf7df-2aaa-4e5f-8fb8-1b8981f7134c-dark-flowchart-Q4-11" data-look="classic" transform="translate(944.8273468017578, 744.4843826293945)"><polygon points="104.53437423706055,0 209.0687484741211,-104.53437423706055 104.53437423706055,-209.0687484741211 0,-104.53437423706055" class="label-container" transform="translate(-104.03437423706055, 104.53437423706055)"></polygon><g class="label" style="" transform="translate(0, -18.299999237060547)"><rect></rect><g><rect class="background" style="stroke: none"></rect><text y="-10.1" style=""><tspan class="text-outer-tspan row" x="0" y="-0.1em" dy="1.1em"><tspan font-style="normal" class="text-inner-tspan" font-weight="normal">Total</tspan><tspan font-style="normal" class="text-inner-tspan" font-weight="normal"> page</tspan><tspan font-style="normal" class="text-inner-tspan" font-weight="normal"> count</tspan></tspan><tspan class="text-outer-tspan row" x="0" y="1em" dy="1.1em"><tspan font-style="normal" class="text-inner-tspan" font-weight="normal">fits</tspan><tspan font-style="normal" class="text-inner-tspan" font-weight="normal"> in</tspan><tspan font-style="normal" class="text-inner-tspan" font-weight="normal"> build</tspan><tspan font-style="normal" class="text-inner-tspan" font-weight="normal"> budget?</tspan></tspan></text></g></g></g><g class="node default" id="g8f2cf7df-2aaa-4e5f-8fb8-1b8981f7134c-dark-flowchart-ISR-13" data-look="classic" transform="translate(332.5226593017578, 955.3187599182129)"><rect class="basic label-container" style="" x="-101.1640625" y="-33.29999923706055" width="202.328125" height="66.5999984741211"></rect><g class="label" style="" transform="translate(0, -18.299999237060547)"><rect></rect><g><rect class="background" style="stroke: none"></rect><text y="-10.1" style=""><tspan class="text-outer-tspan row" x="0" y="-0.1em" dy="1.1em"><tspan font-style="normal" class="text-inner-tspan" font-weight="normal">ISR</tspan><tspan font-style="normal" class="text-inner-tspan" font-weight="normal"> /</tspan><tspan font-style="normal" class="text-inner-tspan" font-weight="normal"> SWR</tspan></tspan><tspan class="text-outer-tspan row" x="0" y="1em" dy="1.1em"><tspan font-style="normal" class="text-inner-tspan" font-weight="normal">PDP,</tspan><tspan font-style="normal" class="text-inner-tspan" font-weight="normal"> search,</tspan><tspan font-style="normal" class="text-inner-tspan" font-weight="normal"> listings</tspan></tspan></text></g></g></g><g class="node default" id="g8f2cf7df-2aaa-4e5f-8fb8-1b8981f7134c-dark-flowchart-SSRC-15" data-look="classic" transform="translate(570.1085968017578, 955.3187599182129)"><rect class="basic label-container" style="" x="-86.421875" y="-33.29999923706055" width="172.84375" height="66.5999984741211"></rect><g class="label" style="" transform="translate(0, -18.299999237060547)"><rect></rect><g><rect class="background" style="stroke: none"></rect><text y="-10.1" style=""><tspan class="text-outer-tspan row" x="0" y="-0.1em" dy="1.1em"><tspan font-style="normal" class="text-inner-tspan" font-weight="normal">SSR</tspan><tspan font-style="normal" class="text-inner-tspan" font-weight="normal"> +</tspan><tspan font-style="normal" class="text-inner-tspan" font-weight="normal"> tag-based</tspan></tspan><tspan class="text-outer-tspan row" x="0" y="1em" dy="1.1em"><tspan font-style="normal" class="text-inner-tspan" font-weight="normal">invalidation</tspan></tspan></text></g></g></g><g class="node default" id="g8f2cf7df-2aaa-4e5f-8fb8-1b8981f7134c-dark-flowchart-SSG-17" data-look="classic" transform="translate(815.8429718017578, 955.3187599182129)"><rect class="basic label-container" style="" x="-109.3125" y="-33.29999923706055" width="218.625" height="66.5999984741211"></rect><g class="label" style="" transform="translate(0, -18.299999237060547)"><rect></rect><g><rect class="background" style="stroke: none"></rect><text y="-10.1" style=""><tspan class="text-outer-tspan row" x="0" y="-0.1em" dy="1.1em"><tspan font-style="normal" class="text-inner-tspan" font-weight="normal">SSG</tspan></tspan><tspan class="text-outer-tspan row" x="0" y="1em" dy="1.1em"><tspan font-style="normal" class="text-inner-tspan" font-weight="normal">blog,</tspan><tspan font-style="normal" class="text-inner-tspan" font-weight="normal"> marketing,</tspan><tspan font-style="normal" class="text-inner-tspan" font-weight="normal"> legal</tspan></tspan></text></g></g></g><g class="node default" id="g8f2cf7df-2aaa-4e5f-8fb8-1b8981f7134c-dark-flowchart-ISRB-19" data-look="classic" transform="translate(1073.8117218017578, 955.3187599182129)"><rect class="basic label-container" style="" x="-98.65625" y="-33.29999923706055" width="197.3125" height="66.5999984741211"></rect><g class="label" style="" transform="translate(0, -18.299999237060547)"><rect></rect><g><rect class="background" style="stroke: none"></rect><text y="-10.1" style=""><tspan class="text-outer-tspan row" x="0" y="-0.1em" dy="1.1em"><tspan font-style="normal" class="text-inner-tspan" font-weight="normal">ISR</tspan><tspan font-style="normal" class="text-inner-tspan" font-weight="normal"> with</tspan><tspan font-style="normal" class="text-inner-tspan" font-weight="normal"> build-time</tspan></tspan><tspan class="text-outer-tspan row" x="0" y="1em" dy="1.1em"><tspan font-style="normal" class="text-inner-tspan" font-weight="normal">fallback</tspan><tspan font-style="normal" class="text-inner-tspan" font-weight="normal"> blocking</tspan></tspan></text></g></g></g></g></g></g><defs><filter id="g8f2cf7df-2aaa-4e5f-8fb8-1b8981f7134c-dark-drop-shadow" height="130%" width="130%"><feDropShadow dx="4" dy="4" stdDeviation="0" flood-opacity="0.06" flood-color="#000000"></feDropShadow></filter></defs><defs><filter id="g8f2cf7df-2aaa-4e5f-8fb8-1b8981f7134c-dark-drop-shadow-small" height="150%" width="150%"><feDropShadow dx="2" dy="2" stdDeviation="0" flood-opacity="0.06" flood-color="#000000"></feDropShadow></filter></defs><linearGradient id="g8f2cf7df-2aaa-4e5f-8fb8-1b8981f7134c-dark-gradient" gradientUnits="objectBoundingBox" x1="0%" y1="0%" x2="100%" y2="0%"><stop offset="0%" stop-color="#555555" stop-opacity="1"></stop><stop offset="100%" stop-color="#555555" stop-opacity="1"></stop></linearGradient></svg>