<svg id="geaf0707e-2e73-49bf-b443-bea78767a325-dark" width="100%" xmlns="http://www.w3.org/2000/svg" xmlns:xlink="http://www.w3.org/1999/xlink" class="flowchart" style="max-width: 855.3234252929688px;" viewBox="0.5 0 855.3234252929688 817.2188110351562" role="graphics-document document" aria-roledescription="flowchart-v2"><style>#geaf0707e-2e73-49bf-b443-bea78767a325-dark{font-family:"trebuchet ms",verdana,arial,sans-serif;font-size:16px;fill:#e5e5e5;}@keyframes edge-animation-frame{from{stroke-dashoffset:0;}}@keyframes dash{to{stroke-dashoffset:0;}}#geaf0707e-2e73-49bf-b443-bea78767a325-dark .edge-animation-slow{stroke-dasharray:9,5!important;stroke-dashoffset:900;animation:dash 50s linear infinite;stroke-linecap:round;}#geaf0707e-2e73-49bf-b443-bea78767a325-dark .edge-animation-fast{stroke-dasharray:9,5!important;stroke-dashoffset:900;animation:dash 20s linear infinite;stroke-linecap:round;}#geaf0707e-2e73-49bf-b443-bea78767a325-dark .error-icon{fill:#252525;}#geaf0707e-2e73-49bf-b443-bea78767a325-dark .error-text{fill:#cccccc;stroke:#cccccc;}#geaf0707e-2e73-49bf-b443-bea78767a325-dark .edge-thickness-normal{stroke-width:1px;}#geaf0707e-2e73-49bf-b443-bea78767a325-dark .edge-thickness-thick{stroke-width:3.5px;}#geaf0707e-2e73-49bf-b443-bea78767a325-dark .edge-pattern-solid{stroke-dasharray:0;}#geaf0707e-2e73-49bf-b443-bea78767a325-dark .edge-thickness-invisible{stroke-width:0;fill:none;}#geaf0707e-2e73-49bf-b443-bea78767a325-dark .edge-pattern-dashed{stroke-dasharray:3;}#geaf0707e-2e73-49bf-b443-bea78767a325-dark .edge-pattern-dotted{stroke-dasharray:2;}#geaf0707e-2e73-49bf-b443-bea78767a325-dark .marker{fill:#cccccc;stroke:#cccccc;}#geaf0707e-2e73-49bf-b443-bea78767a325-dark .marker.cross{stroke:#cccccc;}#geaf0707e-2e73-49bf-b443-bea78767a325-dark svg{font-family:"trebuchet ms",verdana,arial,sans-serif;font-size:16px;}#geaf0707e-2e73-49bf-b443-bea78767a325-dark p{margin:0;}#geaf0707e-2e73-49bf-b443-bea78767a325-dark .label{font-family:"trebuchet ms",verdana,arial,sans-serif;color:#e5e5e5;}#geaf0707e-2e73-49bf-b443-bea78767a325-dark .cluster-label text{fill:#e5e5e5;}#geaf0707e-2e73-49bf-b443-bea78767a325-dark .cluster-label span{color:#e5e5e5;}#geaf0707e-2e73-49bf-b443-bea78767a325-dark .cluster-label span p{background-color:transparent;}#geaf0707e-2e73-49bf-b443-bea78767a325-dark .label text,#geaf0707e-2e73-49bf-b443-bea78767a325-dark span{fill:#e5e5e5;color:#e5e5e5;}#geaf0707e-2e73-49bf-b443-bea78767a325-dark .node rect,#geaf0707e-2e73-49bf-b443-bea78767a325-dark .node circle,#geaf0707e-2e73-49bf-b443-bea78767a325-dark .node ellipse,#geaf0707e-2e73-49bf-b443-bea78767a325-dark .node polygon,#geaf0707e-2e73-49bf-b443-bea78767a325-dark .node path{fill:#2d2d2d;stroke:#555555;stroke-width:1px;}#geaf0707e-2e73-49bf-b443-bea78767a325-dark .rough-node .label text,#geaf0707e-2e73-49bf-b443-bea78767a325-dark .node .label text,#geaf0707e-2e73-49bf-b443-bea78767a325-dark .image-shape .label,#geaf0707e-2e73-49bf-b443-bea78767a325-dark .icon-shape .label{text-anchor:middle;}#geaf0707e-2e73-49bf-b443-bea78767a325-dark .node .katex path{fill:#000;stroke:#000;stroke-width:1px;}#geaf0707e-2e73-49bf-b443-bea78767a325-dark .rough-node .label,#geaf0707e-2e73-49bf-b443-bea78767a325-dark .node .label,#geaf0707e-2e73-49bf-b443-bea78767a325-dark .image-shape .label,#geaf0707e-2e73-49bf-b443-bea78767a325-dark .icon-shape .label{text-align:center;}#geaf0707e-2e73-49bf-b443-bea78767a325-dark .node.clickable{cursor:pointer;}#geaf0707e-2e73-49bf-b443-bea78767a325-dark .root .anchor path{fill:#cccccc!important;stroke-width:0;stroke:#cccccc;}#geaf0707e-2e73-49bf-b443-bea78767a325-dark .arrowheadPath{fill:#cccccc;}#geaf0707e-2e73-49bf-b443-bea78767a325-dark .edgePath .path{stroke:#cccccc;stroke-width:1px;}#geaf0707e-2e73-49bf-b443-bea78767a325-dark .flowchart-link{stroke:#cccccc;fill:none;}#geaf0707e-2e73-49bf-b443-bea78767a325-dark .edgeLabel{background-color:#1e1e1e;text-align:center;}#geaf0707e-2e73-49bf-b443-bea78767a325-dark .edgeLabel p{background-color:#1e1e1e;}#geaf0707e-2e73-49bf-b443-bea78767a325-dark .edgeLabel rect{opacity:0.5;background-color:#1e1e1e;fill:#1e1e1e;}#geaf0707e-2e73-49bf-b443-bea78767a325-dark .labelBkg{background-color:rgba(30, 30, 30, 0.5);}#geaf0707e-2e73-49bf-b443-bea78767a325-dark .cluster rect{fill:#1e1e1e;stroke:#555555;stroke-width:1px;}#geaf0707e-2e73-49bf-b443-bea78767a325-dark .cluster text{fill:#e5e5e5;}#geaf0707e-2e73-49bf-b443-bea78767a325-dark .cluster span{color:#e5e5e5;}#geaf0707e-2e73-49bf-b443-bea78767a325-dark div.mermaidTooltip{position:absolute;text-align:center;max-width:200px;padding:2px;font-family:"trebuchet ms",verdana,arial,sans-serif;font-size:12px;background:#252525;border:1px solid #555555;border-radius:2px;pointer-events:none;z-index:100;}#geaf0707e-2e73-49bf-b443-bea78767a325-dark .flowchartTitleText{text-anchor:middle;font-size:18px;fill:#e5e5e5;}#geaf0707e-2e73-49bf-b443-bea78767a325-dark rect.text{fill:none;stroke-width:0;}#geaf0707e-2e73-49bf-b443-bea78767a325-dark .icon-shape,#geaf0707e-2e73-49bf-b443-bea78767a325-dark .image-shape{background-color:#1e1e1e;text-align:center;}#geaf0707e-2e73-49bf-b443-bea78767a325-dark .icon-shape p,#geaf0707e-2e73-49bf-b443-bea78767a325-dark .image-shape p{background-color:#1e1e1e;padding:2px;}#geaf0707e-2e73-49bf-b443-bea78767a325-dark .icon-shape .label rect,#geaf0707e-2e73-49bf-b443-bea78767a325-dark .image-shape .label rect{opacity:0.5;background-color:#1e1e1e;fill:#1e1e1e;}#geaf0707e-2e73-49bf-b443-bea78767a325-dark .label-icon{display:inline-block;height:1em;overflow:visible;vertical-align:-0.125em;}#geaf0707e-2e73-49bf-b443-bea78767a325-dark .node .label-icon path{fill:currentColor;stroke:revert;stroke-width:revert;}#geaf0707e-2e73-49bf-b443-bea78767a325-dark .node .neo-node{stroke:#555555;}#geaf0707e-2e73-49bf-b443-bea78767a325-dark [data-look="neo"].node rect,#geaf0707e-2e73-49bf-b443-bea78767a325-dark [data-look="neo"].cluster rect,#geaf0707e-2e73-49bf-b443-bea78767a325-dark [data-look="neo"].node polygon{stroke:url(#geaf0707e-2e73-49bf-b443-bea78767a325-dark-gradient);filter:drop-shadow( 1px 2px 2px rgba(185,185,185,1));}#geaf0707e-2e73-49bf-b443-bea78767a325-dark [data-look="neo"].node path{stroke:url(#geaf0707e-2e73-49bf-b443-bea78767a325-dark-gradient);stroke-width:1px;}#geaf0707e-2e73-49bf-b443-bea78767a325-dark [data-look="neo"].node .outer-path{filter:drop-shadow( 1px 2px 2px rgba(185,185,185,1));}#geaf0707e-2e73-49bf-b443-bea78767a325-dark [data-look="neo"].node .neo-line path{stroke:#555555;filter:none;}#geaf0707e-2e73-49bf-b443-bea78767a325-dark [data-look="neo"].node circle{stroke:url(#geaf0707e-2e73-49bf-b443-bea78767a325-dark-gradient);filter:drop-shadow( 1px 2px 2px rgba(185,185,185,1));}#geaf0707e-2e73-49bf-b443-bea78767a325-dark [data-look="neo"].node circle .state-start{fill:#000000;}#geaf0707e-2e73-49bf-b443-bea78767a325-dark [data-look="neo"].icon-shape .icon{fill:url(#geaf0707e-2e73-49bf-b443-bea78767a325-dark-gradient);filter:drop-shadow( 1px 2px 2px rgba(185,185,185,1));}#geaf0707e-2e73-49bf-b443-bea78767a325-dark [data-look="neo"].icon-shape .icon-neo path{stroke:url(#geaf0707e-2e73-49bf-b443-bea78767a325-dark-gradient);filter:drop-shadow( 1px 2px 2px rgba(185,185,185,1));}#geaf0707e-2e73-49bf-b443-bea78767a325-dark :root{--mermaid-font-family:"trebuchet ms",verdana,arial,sans-serif;}</style><g><marker id="geaf0707e-2e73-49bf-b443-bea78767a325-dark_flowchart-v2-pointEnd" class="marker flowchart-v2" viewBox="0 0 10 10" refX="5" refY="5" markerUnits="userSpaceOnUse" markerWidth="8" markerHeight="8" orient="auto"><path d="M 0 0 L 10 5 L 0 10 z" class="arrowMarkerPath" style="stroke-width: 1; stroke-dasharray: 1, 0;"></path></marker><marker id="geaf0707e-2e73-49bf-b443-bea78767a325-dark_flowchart-v2-pointStart" class="marker flowchart-v2" viewBox="0 0 10 10" refX="4.5" refY="5" markerUnits="userSpaceOnUse" markerWidth="8" markerHeight="8" orient="auto"><path d="M 0 5 L 10 10 L 10 0 z" class="arrowMarkerPath" style="stroke-width: 1; stroke-dasharray: 1, 0;"></path></marker><marker id="geaf0707e-2e73-49bf-b443-bea78767a325-dark_flowchart-v2-pointEnd-margin" class="marker flowchart-v2" viewBox="0 0 11.5 14" refX="11.5" refY="7" markerUnits="userSpaceOnUse" markerWidth="10.5" markerHeight="14" orient="auto"><path d="M 0 0 L 11.5 7 L 0 14 z" class="arrowMarkerPath" style="stroke-width: 0; stroke-dasharray: 1, 0;"></path></marker><marker id="geaf0707e-2e73-49bf-b443-bea78767a325-dark_flowchart-v2-pointStart-margin" class="marker flowchart-v2" viewBox="0 0 11.5 14" refX="1" refY="7" markerUnits="userSpaceOnUse" markerWidth="11.5" markerHeight="14" orient="auto"><polygon points="0,7 11.5,14 11.5,0" class="arrowMarkerPath" style="stroke-width: 0; stroke-dasharray: 1, 0;"></polygon></marker><marker id="geaf0707e-2e73-49bf-b443-bea78767a325-dark_flowchart-v2-circleEnd" class="marker flowchart-v2" viewBox="0 0 10 10" refX="11" refY="5" markerUnits="userSpaceOnUse" markerWidth="11" markerHeight="11" orient="auto"><circle cx="5" cy="5" r="5" class="arrowMarkerPath" style="stroke-width: 1; stroke-dasharray: 1, 0;"></circle></marker><marker id="geaf0707e-2e73-49bf-b443-bea78767a325-dark_flowchart-v2-circleStart" class="marker flowchart-v2" viewBox="0 0 10 10" refX="-1" refY="5" markerUnits="userSpaceOnUse" markerWidth="11" markerHeight="11" orient="auto"><circle cx="5" cy="5" r="5" class="arrowMarkerPath" style="stroke-width: 1; stroke-dasharray: 1, 0;"></circle></marker><marker id="geaf0707e-2e73-49bf-b443-bea78767a325-dark_flowchart-v2-circleEnd-margin" class="marker flowchart-v2" viewBox="0 0 10 10" refY="5" refX="12.25" markerUnits="userSpaceOnUse" markerWidth="14" markerHeight="14" orient="auto"><circle cx="5" cy="5" r="5" class="arrowMarkerPath" style="stroke-width: 0; stroke-dasharray: 1, 0;"></circle></marker><marker id="geaf0707e-2e73-49bf-b443-bea78767a325-dark_flowchart-v2-circleStart-margin" class="marker flowchart-v2" viewBox="0 0 10 10" refX="-2" refY="5" markerUnits="userSpaceOnUse" markerWidth="14" markerHeight="14" orient="auto"><circle cx="5" cy="5" r="5" class="arrowMarkerPath" style="stroke-width: 0; stroke-dasharray: 1, 0;"></circle></marker><marker id="geaf0707e-2e73-49bf-b443-bea78767a325-dark_flowchart-v2-crossEnd" class="marker cross flowchart-v2" viewBox="0 0 11 11" refX="12" refY="5.2" markerUnits="userSpaceOnUse" markerWidth="11" markerHeight="11" orient="auto"><path d="M 1,1 l 9,9 M 10,1 l -9,9" class="arrowMarkerPath" style="stroke-width: 2; stroke-dasharray: 1, 0;"></path></marker><marker id="geaf0707e-2e73-49bf-b443-bea78767a325-dark_flowchart-v2-crossStart" class="marker cross flowchart-v2" viewBox="0 0 11 11" refX="-1" refY="5.2" markerUnits="userSpaceOnUse" markerWidth="11" markerHeight="11" orient="auto"><path d="M 1,1 l 9,9 M 10,1 l -9,9" class="arrowMarkerPath" style="stroke-width: 2; stroke-dasharray: 1, 0;"></path></marker><marker id="geaf0707e-2e73-49bf-b443-bea78767a325-dark_flowchart-v2-crossEnd-margin" class="marker cross flowchart-v2" viewBox="0 0 15 15" refX="17.7" refY="7.5" markerUnits="userSpaceOnUse" markerWidth="12" markerHeight="12" orient="auto"><path d="M 1,1 L 14,14 M 1,14 L 14,1" class="arrowMarkerPath" style="stroke-width: 2.5;"></path></marker><marker id="geaf0707e-2e73-49bf-b443-bea78767a325-dark_flowchart-v2-crossStart-margin" class="marker cross flowchart-v2" viewBox="0 0 15 15" refX="-3.5" refY="7.5" markerUnits="userSpaceOnUse" markerWidth="12" markerHeight="12" orient="auto"><path d="M 1,1 L 14,14 M 1,14 L 14,1" class="arrowMarkerPath" style="stroke-width: 2.5; stroke-dasharray: 1, 0;"></path></marker><g class="root"><g class="clusters"></g><g class="edgePaths"><path d="M347.641,36.3L310.936,41.417C274.23,46.534,200.82,56.767,164.115,65.383C127.409,74,127.409,81,127.409,84.5L127.409,88" id="geaf0707e-2e73-49bf-b443-bea78767a325-dark-L_Start_Resource_0" class="edge-thickness-normal edge-pattern-solid edge-thickness-normal edge-pattern-solid flowchart-link" style=";" data-edge="true" data-et="edge" data-id="L_Start_Resource_0" data-points="W3sieCI6MzQ3LjY0MTAyNjAxMTQ3NjcsInkiOjM2LjMwMDQ1MDU5ODcxNTF9LHsieCI6MTI3LjQwOTM3ODA1MTc1NzgxLCJ5Ijo2N30seyJ4IjoxMjcuNDA5Mzc4MDUxNzU3ODEsInkiOjkyfV0=" data-look="classic" marker-end="url(#geaf0707e-2e73-49bf-b443-bea78767a325-dark_flowchart-v2-pointEnd)"></path><path d="M423.706,42.5L423.623,46.583C423.54,50.667,423.373,58.833,423.29,66.918C423.206,75.003,423.206,83.005,423.206,87.007L423.206,91.008" id="geaf0707e-2e73-49bf-b443-bea78767a325-dark-L_Start_Service_0" class="edge-thickness-normal edge-pattern-solid edge-thickness-normal edge-pattern-solid flowchart-link" style=";" data-edge="true" data-et="edge" data-id="L_Start_Service_0" data-points="W3sieCI6NDIzLjcwNjI1MzA1MTc1NzgsInkiOjQyLjV9LHsieCI6NDIzLjIwNjI1MzA1MTc1NzgsInkiOjY3fSx7IngiOjQyMy4yMDYyNTMwNTE3NTc4LCJ5Ijo5NS4wMDc4MTI0OTk5OTk5NH1d" data-look="classic" marker-end="url(#geaf0707e-2e73-49bf-b443-bea78767a325-dark_flowchart-v2-pointEnd)"></path><path d="M499.925,36.12L537.378,41.266C574.831,46.413,649.738,56.707,687.191,68.154C724.644,79.602,724.644,92.203,724.644,98.504L724.644,104.805" id="geaf0707e-2e73-49bf-b443-bea78767a325-dark-L_Start_UserFacing_0" class="edge-thickness-normal edge-pattern-solid edge-thickness-normal edge-pattern-solid flowchart-link" style=";" data-edge="true" data-et="edge" data-id="L_Start_UserFacing_0" data-points="W3sieCI6NDk5LjkyNTI5MDg1NjUwNjcsInkiOjM2LjExOTc3ODg1MjMzMDc2fSx7IngiOjcyNC42NDM3NTMwNTE3NTc4LCJ5Ijo2N30seyJ4Ijo3MjQuNjQzNzUzMDUxNzU3OCwieSI6MTA4LjgwNDY4NzQ5OTk5OTk3fV0=" data-look="classic" marker-end="url(#geaf0707e-2e73-49bf-b443-bea78767a325-dark_flowchart-v2-pointEnd)"></path><path d="M127.409,330.819L127.409,336.902C127.409,342.985,127.409,355.152,127.409,368.119C127.409,381.085,127.409,394.852,127.409,401.735L127.409,408.619" id="geaf0707e-2e73-49bf-b443-bea78767a325-dark-L_Resource_USE_0" class="edge-thickness-normal edge-pattern-solid edge-thickness-normal edge-pattern-solid flowchart-link" style=";" data-edge="true" data-et="edge" data-id="L_Resource_USE_0" data-points="W3sieCI6MTI3LjQwOTM3ODA1MTc1NzgsInkiOjMzMC44MTg3NTYxMDM1MTU3fSx7IngiOjEyNy40MDkzNzgwNTE3NTc4MSwieSI6MzY3LjMxODc1NjEwMzUxNTZ9LHsieCI6MTI3LjQwOTM3ODA1MTc1NzgxLCJ5Ijo0MTIuNjE4NzU1MzQwNTc2Mn1d" data-look="classic" marker-end="url(#geaf0707e-2e73-49bf-b443-bea78767a325-dark_flowchart-v2-pointEnd)"></path><path d="M423.206,327.811L423.206,334.396C423.206,340.98,423.206,354.149,423.206,370.551C423.206,386.952,423.206,406.585,423.206,416.402L423.206,426.219" id="geaf0707e-2e73-49bf-b443-bea78767a325-dark-L_Service_RED_0" class="edge-thickness-normal edge-pattern-solid edge-thickness-normal edge-pattern-solid flowchart-link" style=";" data-edge="true" data-et="edge" data-id="L_Service_RED_0" data-points="W3sieCI6NDIzLjIwNjI1MzA1MTc1NzgsInkiOjMyNy44MTA5NDM2MDM1MTU2fSx7IngiOjQyMy4yMDYyNTMwNTE3NTc4LCJ5IjozNjcuMzE4NzU2MTAzNTE1Nn0seyJ4Ijo0MjMuMjA2MjUzMDUxNzU3OCwieSI6NDMwLjIxODc1NzYyOTM5NDUzfV0=" data-look="classic" marker-end="url(#geaf0707e-2e73-49bf-b443-bea78767a325-dark_flowchart-v2-pointEnd)"></path><path d="M724.644,314.014L724.644,322.898C724.644,331.782,724.644,349.551,724.644,363.851C724.644,378.152,724.644,388.985,724.644,394.402L724.644,399.819" id="geaf0707e-2e73-49bf-b443-bea78767a325-dark-L_UserFacing_Golden_0" class="edge-thickness-normal edge-pattern-solid edge-thickness-normal edge-pattern-solid flowchart-link" style=";" data-edge="true" data-et="edge" data-id="L_UserFacing_Golden_0" data-points="W3sieCI6NzI0LjY0Mzc1MzA1MTc1NzgsInkiOjMxNC4wMTQwNjg2MDM1MTU2fSx7IngiOjcyNC42NDM3NTMwNTE3NTc4LCJ5IjozNjcuMzE4NzU2MTAzNTE1Nn0seyJ4Ijo3MjQuNjQzNzUzMDUxNzU3OCwieSI6NDAzLjgxODc1NjEwMzUxNTZ9XQ==" data-look="classic" marker-end="url(#geaf0707e-2e73-49bf-b443-bea78767a325-dark_flowchart-v2-pointEnd)"></path><path d="M423.206,514.419L423.206,522.985C423.206,531.552,423.206,548.685,431.956,561.148C440.706,573.61,458.206,581.401,466.957,585.296L475.707,589.192" id="geaf0707e-2e73-49bf-b443-bea78767a325-dark-L_RED_Slo_0" class="edge-thickness-normal edge-pattern-solid edge-thickness-normal edge-pattern-solid flowchart-link" style=";" data-edge="true" data-et="edge" data-id="L_RED_Slo_0" data-points="W3sieCI6NDIzLjIwNjI1MzA1MTc1NzgsInkiOjUxNC40MTg3NTQ1Nzc2MzY3fSx7IngiOjQyMy4yMDYyNTMwNTE3NTc4LCJ5Ijo1NjUuODE4NzU2MTAzNTE1Nn0seyJ4Ijo0NzkuMzYwNzgxMTU0MzY2LCJ5Ijo1OTAuODE4NzU2MTAzNTE1Nn1d" data-look="classic" marker-end="url(#geaf0707e-2e73-49bf-b443-bea78767a325-dark_flowchart-v2-pointEnd)"></path><path d="M724.644,540.819L724.644,544.985C724.644,549.152,724.644,557.485,715.894,565.548C707.144,573.61,689.644,581.401,680.893,585.296L672.143,589.192" id="geaf0707e-2e73-49bf-b443-bea78767a325-dark-L_Golden_Slo_0" class="edge-thickness-normal edge-pattern-solid edge-thickness-normal edge-pattern-solid flowchart-link" style=";" data-edge="true" data-et="edge" data-id="L_Golden_Slo_0" data-points="W3sieCI6NzI0LjY0Mzc1MzA1MTc1NzgsInkiOjU0MC44MTg3NTYxMDM1MTU2fSx7IngiOjcyNC42NDM3NTMwNTE3NTc4LCJ5Ijo1NjUuODE4NzU2MTAzNTE1Nn0seyJ4Ijo2NjguNDg5MjI0OTQ5MTQ5NiwieSI6NTkwLjgxODc1NjEwMzUxNTZ9XQ==" data-look="classic" marker-end="url(#geaf0707e-2e73-49bf-b443-bea78767a325-dark_flowchart-v2-pointEnd)"></path><path d="M573.925,675.019L573.925,679.185C573.925,683.352,573.925,691.685,573.925,699.352C573.925,707.019,573.925,714.019,573.925,717.519L573.925,721.019" id="geaf0707e-2e73-49bf-b443-bea78767a325-dark-L_Slo_Alert_0" class="edge-thickness-normal edge-pattern-solid edge-thickness-normal edge-pattern-solid flowchart-link" style=";" data-edge="true" data-et="edge" data-id="L_Slo_Alert_0" data-points="W3sieCI6NTczLjkyNTAwMzA1MTc1NzgsInkiOjY3NS4wMTg3NTMwNTE3NTc4fSx7IngiOjU3My45MjUwMDMwNTE3NTc4LCJ5Ijo3MDAuMDE4NzUzMDUxNzU3OH0seyJ4Ijo1NzMuOTI1MDAzMDUxNzU3OCwieSI6NzI1LjAxODc1MzA1MTc1Nzh9XQ==" data-look="classic" marker-end="url(#geaf0707e-2e73-49bf-b443-bea78767a325-dark_flowchart-v2-pointEnd)"></path></g><g class="edgeLabels"><g class="edgeLabel"><g class="label" data-id="L_Start_Resource_0" transform="translate(0, 0)"><text y="-10.1" text-anchor="middle"><tspan class="text-outer-tspan row" x="0" y="-0.1em" dy="1.1em" text-anchor="middle"></tspan></text></g></g><g><rect class="background" style="stroke: none"></rect></g><g class="edgeLabel"><g class="label" data-id="L_Start_Service_0" transform="translate(0, 0)"><text y="-10.1" text-anchor="middle"><tspan class="text-outer-tspan row" x="0" y="-0.1em" dy="1.1em" text-anchor="middle"></tspan></text></g></g><g><rect class="background" style="stroke: none"></rect></g><g class="edgeLabel"><g class="label" data-id="L_Start_UserFacing_0" transform="translate(0, 0)"><text y="-10.1" text-anchor="middle"><tspan class="text-outer-tspan row" x="0" y="-0.1em" dy="1.1em" text-anchor="middle"></tspan></text></g></g><g><rect class="background" style="stroke: none"></rect></g><g class="edgeLabel" transform="translate(127.40937805175781, 367.3187561035156)"><g class="label" data-id="L_Resource_USE_0" transform="translate(0, -10.5)"><g><rect class="background" style="" x="-13.546875" y="-1" width="27.09375" height="23"></rect><text y="-10.1" text-anchor="middle" style=""><tspan class="text-outer-tspan row" x="0" y="-0.1em" dy="1.1em" text-anchor="middle"><tspan font-style="normal" class="text-inner-tspan" font-weight="normal">yes</tspan></tspan></text></g></g></g><g class="edgeLabel" transform="translate(423.2062530517578, 367.3187561035156)"><g class="label" data-id="L_Service_RED_0" transform="translate(0, -10.5)"><g><rect class="background" style="" x="-13.546875" y="-1" width="27.09375" height="23"></rect><text y="-10.1" text-anchor="middle" style=""><tspan class="text-outer-tspan row" x="0" y="-0.1em" dy="1.1em" text-anchor="middle"><tspan font-style="normal" class="text-inner-tspan" font-weight="normal">yes</tspan></tspan></text></g></g></g><g class="edgeLabel" transform="translate(724.6437530517578, 367.3187561035156)"><g class="label" data-id="L_UserFacing_Golden_0" transform="translate(0, -10.5)"><g><rect class="background" style="" x="-13.546875" y="-1" width="27.09375" height="23"></rect><text y="-10.1" text-anchor="middle" style=""><tspan class="text-outer-tspan row" x="0" y="-0.1em" dy="1.1em" text-anchor="middle"><tspan font-style="normal" class="text-inner-tspan" font-weight="normal">yes</tspan></tspan></text></g></g></g><g class="edgeLabel"><g class="label" data-id="L_RED_Slo_0" transform="translate(0, 0)"><text y="-10.1" text-anchor="middle"><tspan class="text-outer-tspan row" x="0" y="-0.1em" dy="1.1em" text-anchor="middle"></tspan></text></g></g><g><rect class="background" style="stroke: none"></rect></g><g class="edgeLabel"><g class="label" data-id="L_Golden_Slo_0" transform="translate(0, 0)"><text y="-10.1" text-anchor="middle"><tspan class="text-outer-tspan row" x="0" y="-0.1em" dy="1.1em" text-anchor="middle"></tspan></text></g></g><g><rect class="background" style="stroke: none"></rect></g><g class="edgeLabel"><g class="label" data-id="L_Slo_Alert_0" transform="translate(0, 0)"><text y="-10.1" text-anchor="middle"><tspan class="text-outer-tspan row" x="0" y="-0.1em" dy="1.1em" text-anchor="middle"></tspan></text></g></g><g><rect class="background" style="stroke: none"></rect></g></g><g class="nodes"><g class="node default" id="geaf0707e-2e73-49bf-b443-bea78767a325-dark-flowchart-Start-0" data-look="classic" transform="translate(423.2062530517578, 25)"><g class="basic label-container outer-path"><path d="M-62.9453125 -17 C-15.761657917934485 -17, 31.42199666413103 -17, 62.9453125 -17 C62.9453125 -17, 62.9453125 -17, 62.9453125 -17 C63.306721256975706 -16.988410324603258, 63.668130013951405 -16.97682064920652, 64.03450623967211 -16.965071676755716 C64.34262626215255 -16.93534770875557, 64.65074628463299 -16.905623740755427, 65.1192242486366 -16.860430234995185 C65.467934282879 -16.804053500945578, 65.81664431712139 -16.747676766895975, 66.19500918792333 -16.686505668848113 C66.44155069090972 -16.63023417962513, 66.68809219389611 -16.573962690402148, 67.25744042646163 -16.4440126716635 C67.64339785451163 -16.329462532950142, 68.02935528256164 -16.214912394236784, 68.30215220640156 -16.133947699181366 C68.59210694003731 -16.027241676891233, 68.88206167367308 -15.920535654601096, 69.32485158294936 -15.757584874882369 C69.71990785964442 -15.582705180117543, 70.11496413633947 -15.407825485352717, 70.32133606499849 -15.316470754341125 C70.60046762338273 -15.170847999124362, 70.87959918176696 -15.025225243907599, 71.28751088406693 -14.812417970097622 C71.60022040942252 -14.622851618141915, 71.9129299347781 -14.433285266186209, 72.21940582057933 -14.247497783161291 C72.46790183320716 -14.074157721971122, 72.716397845835 -13.900817660780953, 73.11319151835067 -13.624031571755262 C73.3854525196968 -13.40691066835125, 73.65771352104294 -13.189789764947237, 73.9651952202324 -12.944581292275288 C74.13015754721086 -12.794766871577458, 74.2951198741893 -12.644952450879627, 74.77191586025927 -12.21193895166137 C75.07499863162828 -11.89898110666457, 75.37808140299728 -11.586023261667767, 75.53003845028036 -11.42911513444239 C75.76128466448422 -11.157480172956182, 75.99253087868809 -10.885845211469977, 76.23644770195651 -10.59932663159847 C76.39400403883825 -10.388215493854508, 76.55156037571999 -10.177104356110545, 76.88824082814824 -9.725983222076888 C77.04956109530413 -9.478151971168263, 77.21088136246001 -9.230320720259638, 77.48273947109088 -8.812673661278927 C77.6483586608617 -8.518600019079315, 77.81397785063253 -8.224526376879705, 78.017500708341 -7.863150934094199 C78.17202795217382 -7.542271805921991, 78.32655519600665 -7.221392677749783, 78.49032709126881 -6.881316833080699 C78.61104244932878 -6.583147564799917, 78.73175780738873 -6.284978296519137, 78.89927567484592 -5.871205925162238 C79.01648461336842 -5.5181912770407875, 79.1336935518909 -5.165176628919336, 79.24266600162323 -4.836968972727556 C79.31145491949421 -4.574647015579925, 79.38024383736519 -4.312325058432293, 79.519087007091 -3.7828558772573464 C79.56830184236131 -3.5301480997034274, 79.61751667763161 -3.2774403221495083, 79.72740281804565 -2.713198215567453 C79.76860528238403 -2.393640038505777, 79.80980774672243 -2.0740818614441, 79.86675742013637 -1.632391440430593 C79.89264721179096 -1.2291370375465727, 79.91853700344556 -0.8258826346625523, 79.9365781754117 -0.5448768187181379 C79.9365781754117 -0.20868867680530007, 79.9365781754117 0.12749946510753773, 79.9365781754117 0.5448768187181336 C79.91664068010998 0.8554194012989346, 79.89670318480826 1.1659619838797355, 79.86675742013637 1.6323914404305815 C79.81620520963561 2.02446440241133, 79.76565299913486 2.4165373643920782, 79.72740281804565 2.7131982155674415 C79.64523268567918 3.1351244786056274, 79.56306255331272 3.5570507416438137, 79.519087007091 3.782855877257343 C79.45078855825638 4.0433074633987385, 79.38249010942175 4.303759049540134, 79.24266600162323 4.836968972727545 C79.13034619904447 5.175258322364536, 79.0180263964657 5.513547672001527, 78.89927567484592 5.871205925162227 C78.78580566552709 6.151479041973124, 78.67233565620826 6.431752158784021, 78.49032709126881 6.881316833080694 C78.30340956336005 7.269455079177656, 78.11649203545127 7.657593325274618, 78.017500708341 7.863150934094196 C77.89192444797055 8.086124300357163, 77.7663481876001 8.309097666620131, 77.48273947109088 8.812673661278923 C77.25118640336335 9.168401354013218, 77.01963333563582 9.524129046747513, 76.88824082814826 9.725983222076879 C76.71405079182747 9.95938200170795, 76.53986075550671 10.192780781339021, 76.23644770195651 10.599326631598467 C76.06843853131384 10.796679763427967, 75.9004293606712 10.994032895257469, 75.53003845028037 11.42911513444238 C75.32617066580383 11.639625359770791, 75.1223028813273 11.850135585099201, 74.77191586025927 12.211938951661365 C74.52305070503354 12.437951701026188, 74.27418554980783 12.66396445039101, 73.96519522023242 12.944581292275275 C73.65079635881621 13.195306017749624, 73.33639749740001 13.446030743223972, 73.11319151835067 13.62403157175526 C72.81807464016859 13.829892330571335, 72.52295776198649 14.03575308938741, 72.21940582057934 14.247497783161286 C71.93239454024727 14.421485707964084, 71.6453832599152 14.595473632766883, 71.28751088406695 14.81241797009762 C70.90226899798256 15.013398415308638, 70.51702711189817 15.214378860519655, 70.32133606499849 15.316470754341124 C70.00523670682064 15.456398563452153, 69.6891373486428 15.59632637256318, 69.32485158294936 15.757584874882367 C69.0822253764241 15.846873561695732, 68.83959916989883 15.936162248509095, 68.30215220640156 16.133947699181363 C67.99676508597827 16.224584993513293, 67.69137796555496 16.31522228784522, 67.25744042646164 16.444012671663497 C66.90284949813888 16.524945737131112, 66.54825856981611 16.605878802598728, 66.19500918792333 16.68650566884811 C65.8702905558367 16.739003659053274, 65.54557192375009 16.791501649258436, 65.11922424863661 16.86043023499518 C64.70270431371547 16.900611412178513, 64.28618437879433 16.94079258936184, 64.03450623967211 16.965071676755716 C63.72272448856321 16.975069910667415, 63.4109427374543 16.985068144579117, 62.9453125 17 C62.9453125 17, 62.9453125 17, 62.9453125 17 C32.764557803165424 17, 2.5838031063308478 17, -62.9453125 17 C-63.29897704209679 16.988658666501227, -63.65264158419357 16.977317333002453, -64.03450623967211 16.965071676755716 C-64.25543384738019 16.94375905614444, -64.47636145508825 16.922446435533164, -65.1192242486366 16.86043023499518 C-65.47698992815674 16.802589454444647, -65.83475560767688 16.744748673894115, -66.19500918792333 16.68650566884811 C-66.55786182658363 16.603686921908647, -66.92071446524393 16.520868174969188, -67.25744042646161 16.4440126716635 C-67.58020667799423 16.34821734244325, -67.90297292952683 16.252422013223, -68.30215220640154 16.13394769918137 C-68.66528760922778 16.00031051415445, -69.02842301205402 15.866673329127527, -69.32485158294936 15.757584874882369 C-69.63289984804592 15.621221045851232, -69.9409481131425 15.484857216820098, -70.32133606499849 15.316470754341127 C-70.66507188139494 15.137143999100397, -71.00880769779138 14.957817243859665, -71.28751088406693 14.812417970097624 C-71.55025674275413 14.65313988649539, -71.81300260144133 14.493861802893157, -72.21940582057931 14.247497783161299 C-72.47397327546274 14.06992254668213, -72.72854073034617 13.892347310202965, -73.11319151835067 13.624031571755264 C-73.33064592301639 13.450617470739092, -73.5481003276821 13.277203369722919, -73.9651952202324 12.94458129227529 C-74.15827489203622 12.769231442951236, -74.35135456384003 12.593881593627184, -74.77191586025926 12.211938951661377 C-74.9668431990991 12.010660470477083, -75.16177053793895 11.809381989292788, -75.53003845028036 11.429115134442386 C-75.70646690880598 11.221872227994513, -75.8828953673316 11.014629321546643, -76.23644770195651 10.599326631598473 C-76.37428358199816 10.414639109449647, -76.51211946203982 10.229951587300823, -76.88824082814824 9.72598322207689 C-77.05383778134912 9.471581832952161, -77.21943473454999 9.217180443827433, -77.48273947109088 8.812673661278936 C-77.68356262833898 8.456091810035158, -77.88438578558707 8.09950995879138, -78.017500708341 7.863150934094201 C-78.1508419343767 7.586265025185901, -78.28418316041238 7.309379116277602, -78.49032709126881 6.881316833080701 C-78.63755634239052 6.517657736326146, -78.78478559351224 6.153998639571589, -78.89927567484592 5.87120592516224 C-79.03662536494144 5.457530542295777, -79.17397505503698 5.043855159429315, -79.24266600162323 4.8369689727275516 C-79.33670491579038 4.478357836285, -79.43074382995754 4.11974669984245, -79.519087007091 3.782855877257349 C-79.60221753145628 3.355998204284175, -79.68534805582156 2.9291405313110013, -79.72740281804565 2.713198215567455 C-79.77859125122929 2.3161908360946004, -79.82977968441293 1.9191834566217454, -79.86675742013637 1.6323914404306026 C-79.89420515837067 1.2048707620158512, -79.92165289660497 0.7773500836010998, -79.9365781754117 0.54487681871814 C-79.9365781754117 0.1479779785025933, -79.9365781754117 -0.24892086171295336, -79.9365781754117 -0.5448768187181317 C-79.911092207025 -0.9418413482443085, -79.8856062386383 -1.3388058777704854, -79.86675742013637 -1.6323914404305793 C-79.81983807502561 -1.9962886158369135, -79.77291872991486 -2.360185791243248, -79.72740281804565 -2.713198215567447 C-79.68034794241441 -2.954815056882321, -79.6332930667832 -3.1964318981971953, -79.519087007091 -3.782855877257341 C-79.42896742823535 -4.126520889506496, -79.33884784937969 -4.470185901755651, -79.24266600162323 -4.836968972727544 C-79.12313467532712 -5.1969782828009405, -79.003603349031 -5.556987592874337, -78.89927567484594 -5.871205925162218 C-78.75687664532717 -6.222934281171502, -78.61447761580841 -6.5746626371807855, -78.49032709126881 -6.881316833080692 C-78.39297084920317 -7.0834791528198835, -78.29561460713752 -7.285641472559074, -78.017500708341 -7.863150934094194 C-77.88547893148115 -8.097568967563427, -77.75345715462129 -8.33198700103266, -77.48273947109088 -8.812673661278929 C-77.3061772623902 -9.083920627434757, -77.1296150536895 -9.355167593590586, -76.88824082814826 -9.725983222076884 C-76.6593924625632 -10.032619183445851, -76.43054409697815 -10.339255144814818, -76.23644770195651 -10.599326631598467 C-75.96452258320429 -10.91874534906241, -75.69259746445208 -11.238164066526355, -75.53003845028037 -11.42911513444238 C-75.23517217502022 -11.733588772619896, -74.94030589976009 -12.038062410797412, -74.77191586025927 -12.21193895166136 C-74.45347047352801 -12.501142626287464, -74.13502508679676 -12.79034630091357, -73.96519522023242 -12.944581292275274 C-73.70039792650724 -13.155750087469187, -73.43560063278204 -13.366918882663098, -73.11319151835067 -13.624031571755259 C-72.92452378069105 -13.755638018251888, -72.73585604303142 -13.887244464748516, -72.21940582057934 -14.247497783161284 C-72.0140901065539 -14.371961375572571, -71.80877439252845 -14.49642496798386, -71.28751088406695 -14.812417970097618 C-70.99926776657675 -14.962794219863728, -70.71102464908654 -15.113170469629837, -70.32133606499849 -15.316470754341124 C-70.04197797050556 -15.440134295909703, -69.76261987601264 -15.56379783747828, -69.32485158294936 -15.757584874882365 C-68.92858239529527 -15.903415599011288, -68.53231320764118 -16.04924632314021, -68.30215220640156 -16.133947699181363 C-67.92190787306582 -16.246802221372175, -67.54166353973008 -16.359656743562986, -67.25744042646164 -16.444012671663494 C-66.9731690717761 -16.508895753326517, -66.68889771709057 -16.57377883498954, -66.19500918792333 -16.68650566884811 C-65.85818132431346 -16.74096138569746, -65.5213534607036 -16.795417102546807, -65.11922424863661 -16.86043023499518 C-64.87609820227033 -16.883884312286288, -64.63297215590404 -16.90733838957739, -64.03450623967213 -16.965071676755716 C-63.7102031825203 -16.97547144458097, -63.38590012536848 -16.98587121240622, -62.94531250000001 -17 C-62.94531250000001 -17, -62.9453125 -17, -62.9453125 -17" stroke="none" stroke-width="0" fill="#2d2d2d" style=""></path><path d="M-62.9453125 -17 C-14.780285885179694 -17, 33.38474072964061 -17, 62.9453125 -17 M-62.9453125 -17 C-32.23988641425861 -17, -1.534460328517227 -17, 62.9453125 -17 M62.9453125 -17 C62.9453125 -17, 62.9453125 -17, 62.9453125 -17 M62.9453125 -17 C62.9453125 -17, 62.9453125 -17, 62.9453125 -17 M62.9453125 -17 C63.235529512646124 -16.990693305277585, 63.52574652529224 -16.98138661055517, 64.03450623967211 -16.965071676755716 M62.9453125 -17 C63.32246342775919 -16.98790550382651, 63.69961435551838 -16.975811007653018, 64.03450623967211 -16.965071676755716 M64.03450623967211 -16.965071676755716 C64.2783057731023 -16.941552628977544, 64.5221053065325 -16.91803358119937, 65.1192242486366 -16.860430234995185 M64.03450623967211 -16.965071676755716 C64.36663169754802 -16.933031933273732, 64.69875715542392 -16.900992189791747, 65.1192242486366 -16.860430234995185 M65.1192242486366 -16.860430234995185 C65.35241110104884 -16.82273039308822, 65.5855979534611 -16.785030551181258, 66.19500918792333 -16.686505668848113 M65.1192242486366 -16.860430234995185 C65.45581976915172 -16.80601208157555, 65.79241528966683 -16.751593928155913, 66.19500918792333 -16.686505668848113 M66.19500918792333 -16.686505668848113 C66.4615050613812 -16.62567972477945, 66.72800093483909 -16.564853780710784, 67.25744042646163 -16.4440126716635 M66.19500918792333 -16.686505668848113 C66.54591293251342 -16.606414179006357, 66.8968166771035 -16.526322689164605, 67.25744042646163 -16.4440126716635 M67.25744042646163 -16.4440126716635 C67.63943867234663 -16.330637597434542, 68.02143691823163 -16.217262523205587, 68.30215220640156 -16.133947699181366 M67.25744042646163 -16.4440126716635 C67.58996789018151 -16.345320265903712, 67.92249535390141 -16.246627860143924, 68.30215220640156 -16.133947699181366 M68.30215220640156 -16.133947699181366 C68.60428503136708 -16.022760026708834, 68.90641785633261 -15.9115723542363, 69.32485158294936 -15.757584874882369 M68.30215220640156 -16.133947699181366 C68.70627065777339 -15.985228373446517, 69.11038910914522 -15.836509047711669, 69.32485158294936 -15.757584874882369 M69.32485158294936 -15.757584874882369 C69.72082661710438 -15.582298473443991, 70.1168016512594 -15.407012072005612, 70.32133606499849 -15.316470754341125 M69.32485158294936 -15.757584874882369 C69.62126063877726 -15.626373378529596, 69.91766969460515 -15.495161882176825, 70.32133606499849 -15.316470754341125 M70.32133606499849 -15.316470754341125 C70.613491004431 -15.164053709573356, 70.9056459438635 -15.011636664805584, 71.28751088406693 -14.812417970097622 M70.32133606499849 -15.316470754341125 C70.69220772815223 -15.122987245228456, 71.06307939130596 -14.929503736115786, 71.28751088406693 -14.812417970097622 M71.28751088406693 -14.812417970097622 C71.49137907347925 -14.688831875613413, 71.69524726289156 -14.565245781129207, 72.21940582057933 -14.247497783161291 M71.28751088406693 -14.812417970097622 C71.47682742581878 -14.697653169940162, 71.66614396757063 -14.582888369782703, 72.21940582057933 -14.247497783161291 M72.21940582057933 -14.247497783161291 C72.40070912681517 -14.1210284452248, 72.582012433051 -13.994559107288309, 73.11319151835067 -13.624031571755262 M72.21940582057933 -14.247497783161291 C72.5296049838387 -14.031116275176903, 72.83980414709808 -13.814734767192515, 73.11319151835067 -13.624031571755262 M73.11319151835067 -13.624031571755262 C73.28497240377779 -13.48704088690848, 73.45675328920491 -13.350050202061697, 73.9651952202324 -12.944581292275288 M73.11319151835067 -13.624031571755262 C73.3179408860074 -13.460749399658523, 73.52269025366412 -13.297467227561784, 73.9651952202324 -12.944581292275288 M73.9651952202324 -12.944581292275288 C74.2778448693024 -12.660641153246328, 74.5904945183724 -12.37670101421737, 74.77191586025927 -12.21193895166137 M73.9651952202324 -12.944581292275288 C74.22899095309138 -12.705008987345385, 74.49278668595035 -12.465436682415483, 74.77191586025927 -12.21193895166137 M74.77191586025927 -12.21193895166137 C74.92488720502118 -12.053983479013722, 75.07785854978309 -11.896028006366071, 75.53003845028036 -11.42911513444239 M74.77191586025927 -12.21193895166137 C74.96191498653431 -12.015749254564017, 75.15191411280935 -11.819559557466663, 75.53003845028036 -11.42911513444239 M75.53003845028036 -11.42911513444239 C75.77517260578723 -11.141166606855428, 76.0203067612941 -10.85321807926847, 76.23644770195651 -10.59932663159847 M75.53003845028036 -11.42911513444239 C75.6825873010836 -11.249922574013386, 75.83513615188684 -11.070730013584383, 76.23644770195651 -10.59932663159847 M76.23644770195651 -10.59932663159847 C76.44681953539671 -10.317447540056886, 76.65719136883692 -10.035568448515303, 76.88824082814824 -9.725983222076888 M76.23644770195651 -10.59932663159847 C76.38542299768841 -10.39971330724636, 76.53439829342031 -10.20009998289425, 76.88824082814824 -9.725983222076888 M76.88824082814824 -9.725983222076888 C77.0583119053654 -9.464708376992624, 77.22838298258257 -9.20343353190836, 77.48273947109088 -8.812673661278927 M76.88824082814824 -9.725983222076888 C77.04577309436762 -9.483971357827418, 77.203305360587 -9.241959493577948, 77.48273947109088 -8.812673661278927 M77.48273947109088 -8.812673661278927 C77.69285588821425 -8.439590686081988, 77.90297230533763 -8.06650771088505, 78.017500708341 -7.863150934094199 M77.48273947109088 -8.812673661278927 C77.65868115463113 -8.50027138612587, 77.83462283817136 -8.187869110972814, 78.017500708341 -7.863150934094199 M78.017500708341 -7.863150934094199 C78.13110404804027 -7.627251168486583, 78.24470738773955 -7.391351402878967, 78.49032709126881 -6.881316833080699 M78.017500708341 -7.863150934094199 C78.20238371605915 -7.479237412704841, 78.38726672377727 -7.095323891315482, 78.49032709126881 -6.881316833080699 M78.49032709126881 -6.881316833080699 C78.6488875320007 -6.489669478915343, 78.8074479727326 -6.098022124749987, 78.89927567484592 -5.871205925162238 M78.49032709126881 -6.881316833080699 C78.6262289611149 -6.545636587076936, 78.762130830961 -6.209956341073174, 78.89927567484592 -5.871205925162238 M78.89927567484592 -5.871205925162238 C79.03655140122473 -5.4577533092260335, 79.17382712760353 -5.044300693289828, 79.24266600162323 -4.836968972727556 M78.89927567484592 -5.871205925162238 C79.01716293274977 -5.516148287139641, 79.13505019065363 -5.161090649117044, 79.24266600162323 -4.836968972727556 M79.24266600162323 -4.836968972727556 C79.3007223282471 -4.615575037539617, 79.35877865487097 -4.394181102351679, 79.519087007091 -3.7828558772573464 M79.24266600162323 -4.836968972727556 C79.32895783575707 -4.5079008100577695, 79.4152496698909 -4.178832647387983, 79.519087007091 -3.7828558772573464 M79.519087007091 -3.7828558772573464 C79.57693566719543 -3.4858152339397614, 79.63478432729985 -3.188774590622176, 79.72740281804565 -2.713198215567453 M79.519087007091 -3.7828558772573464 C79.56583598468868 -3.5428097576932025, 79.61258496228635 -3.3027636381290586, 79.72740281804565 -2.713198215567453 M79.72740281804565 -2.713198215567453 C79.76108983694924 -2.4519283492055504, 79.79477685585282 -2.1906584828436477, 79.86675742013637 -1.632391440430593 M79.72740281804565 -2.713198215567453 C79.76144338525826 -2.4491862983367763, 79.79548395247086 -2.1851743811060995, 79.86675742013637 -1.632391440430593 M79.86675742013637 -1.632391440430593 C79.88599792083834 -1.3327051113447708, 79.9052384215403 -1.0330187822589485, 79.9365781754117 -0.5448768187181379 M79.86675742013637 -1.632391440430593 C79.8872755344013 -1.3128052488304869, 79.90779364866624 -0.9932190572303806, 79.9365781754117 -0.5448768187181379 M79.9365781754117 -0.5448768187181379 C79.9365781754117 -0.21030909100859851, 79.9365781754117 0.12425863670094084, 79.9365781754117 0.5448768187181336 M79.9365781754117 -0.5448768187181379 C79.9365781754117 -0.3207123400834121, 79.9365781754117 -0.09654786144868632, 79.9365781754117 0.5448768187181336 M79.9365781754117 0.5448768187181336 C79.91883801385336 0.8211941545899297, 79.90109785229501 1.0975114904617258, 79.86675742013637 1.6323914404305815 M79.9365781754117 0.5448768187181336 C79.9214611773002 0.7803362665258864, 79.90634417918871 1.0157957143336391, 79.86675742013637 1.6323914404305815 M79.86675742013637 1.6323914404305815 C79.8332049253707 1.8926179641436682, 79.79965243060501 2.152844487856755, 79.72740281804565 2.7131982155674415 M79.86675742013637 1.6323914404305815 C79.82947362551769 1.9215571889749563, 79.79218983089903 2.210722937519331, 79.72740281804565 2.7131982155674415 M79.72740281804565 2.7131982155674415 C79.65617573989287 3.078934208033634, 79.5849486617401 3.444670200499827, 79.519087007091 3.782855877257343 M79.72740281804565 2.7131982155674415 C79.66587144339611 3.0291488197321357, 79.6043400687466 3.34509942389683, 79.519087007091 3.782855877257343 M79.519087007091 3.782855877257343 C79.45717669952707 4.018946712095645, 79.39526639196313 4.255037546933947, 79.24266600162323 4.836968972727545 M79.519087007091 3.782855877257343 C79.42361358311581 4.14693742131845, 79.32814015914062 4.511018965379558, 79.24266600162323 4.836968972727545 M79.24266600162323 4.836968972727545 C79.13318945068248 5.166694901441463, 79.02371289974172 5.4964208301553805, 78.89927567484592 5.871205925162227 M79.24266600162323 4.836968972727545 C79.11991880144714 5.206663982547479, 78.99717160127106 5.576358992367412, 78.89927567484592 5.871205925162227 M78.89927567484592 5.871205925162227 C78.75177737931082 6.23552956681946, 78.60427908377574 6.599853208476694, 78.49032709126881 6.881316833080694 M78.89927567484592 5.871205925162227 C78.7852685528608 6.152805720643225, 78.67126143087569 6.434405516124223, 78.49032709126881 6.881316833080694 M78.49032709126881 6.881316833080694 C78.36494625513828 7.14167282202588, 78.23956541900775 7.402028810971066, 78.017500708341 7.863150934094196 M78.49032709126881 6.881316833080694 C78.3675579108056 7.136249663152195, 78.24478873034239 7.391182493223695, 78.017500708341 7.863150934094196 M78.017500708341 7.863150934094196 C77.86634216400145 8.131548236031461, 77.7151836196619 8.399945537968728, 77.48273947109088 8.812673661278923 M78.017500708341 7.863150934094196 C77.82612317802554 8.202961118245625, 77.63474564771009 8.542771302397055, 77.48273947109088 8.812673661278923 M77.48273947109088 8.812673661278923 C77.29297767616879 9.104198736456018, 77.1032158812467 9.395723811633113, 76.88824082814826 9.725983222076879 M77.48273947109088 8.812673661278923 C77.31856850609432 9.064884349590383, 77.15439754109775 9.31709503790184, 76.88824082814826 9.725983222076879 M76.88824082814826 9.725983222076879 C76.73355078611323 9.933253785851083, 76.57886074407818 10.140524349625286, 76.23644770195651 10.599326631598467 M76.88824082814826 9.725983222076879 C76.68013091706817 10.00483154372126, 76.4720210059881 10.283679865365642, 76.23644770195651 10.599326631598467 M76.23644770195651 10.599326631598467 C76.02839647386202 10.843715442568497, 75.82034524576754 11.088104253538527, 75.53003845028037 11.42911513444238 M76.23644770195651 10.599326631598467 C75.95829552740722 10.926060003131168, 75.68014335285793 11.25279337466387, 75.53003845028037 11.42911513444238 M75.53003845028037 11.42911513444238 C75.22988820991813 11.739044900409422, 74.92973796955589 12.048974666376465, 74.77191586025927 12.211938951661365 M75.53003845028037 11.42911513444238 C75.33654795303796 11.628909958710429, 75.14305745579554 11.828704782978479, 74.77191586025927 12.211938951661365 M74.77191586025927 12.211938951661365 C74.48852715922833 12.469305071883522, 74.20513845819738 12.72667119210568, 73.96519522023242 12.944581292275275 M74.77191586025927 12.211938951661365 C74.47894183558611 12.478010209201614, 74.18596781091296 12.74408146674186, 73.96519522023242 12.944581292275275 M73.96519522023242 12.944581292275275 C73.79340526917859 13.081579206718109, 73.62161531812477 13.21857712116094, 73.11319151835067 13.62403157175526 M73.96519522023242 12.944581292275275 C73.74326840295213 13.12156202333567, 73.52134158567185 13.298542754396065, 73.11319151835067 13.62403157175526 M73.11319151835067 13.62403157175526 C72.92691379717037 13.753970846218062, 72.74063607599005 13.883910120680863, 72.21940582057934 14.247497783161286 M73.11319151835067 13.62403157175526 C72.80948319814246 13.835885348611233, 72.50577487793423 14.047739125467206, 72.21940582057934 14.247497783161286 M72.21940582057934 14.247497783161286 C72.01581082640624 14.370918265086011, 71.81221583223314 14.494338747010737, 71.28751088406695 14.81241797009762 M72.21940582057934 14.247497783161286 C71.95355398320676 14.40865872929536, 71.68770214583417 14.569819675429432, 71.28751088406695 14.81241797009762 M71.28751088406695 14.81241797009762 C71.04212472112576 14.940435774126698, 70.79673855818457 15.068453578155774, 70.32133606499849 15.316470754341124 M71.28751088406695 14.81241797009762 C71.00607085419185 14.959245053412515, 70.72463082431676 15.106072136727407, 70.32133606499849 15.316470754341124 M70.32133606499849 15.316470754341124 C70.03147190517653 15.444785019379513, 69.74160774535456 15.5730992844179, 69.32485158294936 15.757584874882367 M70.32133606499849 15.316470754341124 C70.11498713189711 15.407815305901488, 69.90863819879573 15.499159857461853, 69.32485158294936 15.757584874882367 M69.32485158294936 15.757584874882367 C68.9723850481471 15.887295817854529, 68.61991851334486 16.01700676082669, 68.30215220640156 16.133947699181363 M69.32485158294936 15.757584874882367 C69.06516144286475 15.853153246982846, 68.80547130278013 15.948721619083322, 68.30215220640156 16.133947699181363 M68.30215220640156 16.133947699181363 C67.95350084853435 16.23742559208803, 67.60484949066714 16.340903484994698, 67.25744042646164 16.444012671663497 M68.30215220640156 16.133947699181363 C67.92746627266897 16.245152517546597, 67.55278033893639 16.356357335911827, 67.25744042646164 16.444012671663497 M67.25744042646164 16.444012671663497 C66.83941252583455 16.539424812094648, 66.42138462520744 16.634836952525795, 66.19500918792333 16.68650566884811 M67.25744042646164 16.444012671663497 C66.84242920253583 16.53873627532323, 66.42741797861002 16.63345987898297, 66.19500918792333 16.68650566884811 M66.19500918792333 16.68650566884811 C65.88580828056836 16.736494873660412, 65.57660737321339 16.786484078472714, 65.11922424863661 16.86043023499518 M66.19500918792333 16.68650566884811 C65.77900172289854 16.753762529607243, 65.36299425787377 16.821019390366374, 65.11922424863661 16.86043023499518 M65.11922424863661 16.86043023499518 C64.86397593801381 16.88505373253996, 64.608727627391 16.909677230084732, 64.03450623967211 16.965071676755716 M65.11922424863661 16.86043023499518 C64.88351789950536 16.883168543017515, 64.64781155037412 16.905906851039845, 64.03450623967211 16.965071676755716 M64.03450623967211 16.965071676755716 C63.68624067224487 16.976239875645305, 63.33797510481763 16.987408074534894, 62.9453125 17 M64.03450623967211 16.965071676755716 C63.77688421919246 16.973333113521655, 63.51926219871281 16.981594550287596, 62.9453125 17 M62.9453125 17 C62.9453125 17, 62.9453125 17, 62.9453125 17 M62.9453125 17 C62.9453125 17, 62.9453125 17, 62.9453125 17 M62.9453125 17 C16.475257250386647 17, -29.994797999226705 17, -62.9453125 17 M62.9453125 17 C18.98190348624601 17, -24.981505527507977 17, -62.9453125 17 M-62.9453125 17 C-63.23648768269695 16.99066257862902, -63.5276628653939 16.981325157258038, -64.03450623967211 16.965071676755716 M-62.9453125 17 C-63.30789663913639 16.988372632385108, -63.670480778272776 16.976745264770216, -64.03450623967211 16.965071676755716 M-64.03450623967211 16.965071676755716 C-64.3288696395033 16.936674793597785, -64.62323303933448 16.908277910439853, -65.1192242486366 16.86043023499518 M-64.03450623967211 16.965071676755716 C-64.26201205992302 16.94312446389189, -64.48951788017395 16.921177251028066, -65.1192242486366 16.86043023499518 M-65.1192242486366 16.86043023499518 C-65.53226916249457 16.793652336533775, -65.94531407635253 16.726874438072365, -66.19500918792333 16.68650566884811 M-65.1192242486366 16.86043023499518 C-65.49464352060549 16.79973535852319, -65.87006279257437 16.739040482051195, -66.19500918792333 16.68650566884811 M-66.19500918792333 16.68650566884811 C-66.44103653533678 16.630351532279473, -66.68706388275022 16.574197395710833, -67.25744042646161 16.4440126716635 M-66.19500918792333 16.68650566884811 C-66.4746502054311 16.62267943143014, -66.75429122293887 16.55885319401217, -67.25744042646161 16.4440126716635 M-67.25744042646161 16.4440126716635 C-67.4919085386734 16.37442376670728, -67.72637665088519 16.304834861751058, -68.30215220640154 16.13394769918137 M-67.25744042646161 16.4440126716635 C-67.55980037969576 16.354273824663387, -67.8621603329299 16.264534977663274, -68.30215220640154 16.13394769918137 M-68.30215220640154 16.13394769918137 C-68.6318705127911 16.012608314547403, -68.96158881918063 15.891268929913439, -69.32485158294936 15.757584874882369 M-68.30215220640154 16.13394769918137 C-68.64033210402376 16.00949437075569, -68.97851200164598 15.885041042330009, -69.32485158294936 15.757584874882369 M-69.32485158294936 15.757584874882369 C-69.63866491375832 15.618669022274954, -69.95247824456729 15.47975316966754, -70.32133606499849 15.316470754341127 M-69.32485158294936 15.757584874882369 C-69.62787639952862 15.623444777494539, -69.93090121610788 15.489304680106711, -70.32133606499849 15.316470754341127 M-70.32133606499849 15.316470754341127 C-70.58494953699577 15.178943774852636, -70.84856300899304 15.041416795364144, -71.28751088406693 14.812417970097624 M-70.32133606499849 15.316470754341127 C-70.65210899926161 15.14390672640623, -70.98288193352474 14.971342698471334, -71.28751088406693 14.812417970097624 M-71.28751088406693 14.812417970097624 C-71.59122732734345 14.628303277347465, -71.89494377061996 14.444188584597304, -72.21940582057931 14.247497783161299 M-71.28751088406693 14.812417970097624 C-71.55190657454277 14.652139748769628, -71.8163022650186 14.491861527441632, -72.21940582057931 14.247497783161299 M-72.21940582057931 14.247497783161299 C-72.46214661273793 14.078172314630983, -72.70488740489654 13.908846846100667, -73.11319151835067 13.624031571755264 M-72.21940582057931 14.247497783161299 C-72.56964932788644 14.00318307426092, -72.91989283519355 13.75886836536054, -73.11319151835067 13.624031571755264 M-73.11319151835067 13.624031571755264 C-73.44140137453006 13.362292945483285, -73.76961123070944 13.100554319211305, -73.9651952202324 12.94458129227529 M-73.11319151835067 13.624031571755264 C-73.33663697410043 13.445839766928133, -73.56008242985018 13.267647962101002, -73.9651952202324 12.94458129227529 M-73.9651952202324 12.94458129227529 C-74.26736557788159 12.670158168447848, -74.56953593553077 12.395735044620407, -74.77191586025926 12.211938951661377 M-73.9651952202324 12.94458129227529 C-74.27931172181142 12.65930899660842, -74.59342822339045 12.374036700941549, -74.77191586025926 12.211938951661377 M-74.77191586025926 12.211938951661377 C-75.06377267546942 11.910572828066723, -75.35562949067959 11.609206704472069, -75.53003845028036 11.429115134442386 M-74.77191586025926 12.211938951661377 C-75.05297451174269 11.921722818660308, -75.33403316322611 11.63150668565924, -75.53003845028036 11.429115134442386 M-75.53003845028036 11.429115134442386 C-75.69691499785863 11.233092446112398, -75.8637915454369 11.03706975778241, -76.23644770195651 10.599326631598473 M-75.53003845028036 11.429115134442386 C-75.69918692288665 11.230423713698277, -75.86833539549296 11.031732292954167, -76.23644770195651 10.599326631598473 M-76.23644770195651 10.599326631598473 C-76.42666508637242 10.344452665641352, -76.61688247078834 10.089578699684232, -76.88824082814824 9.72598322207689 M-76.23644770195651 10.599326631598473 C-76.4160988575602 10.35861044964648, -76.59575001316391 10.117894267694489, -76.88824082814824 9.72598322207689 M-76.88824082814824 9.72598322207689 C-77.0147680452989 9.53160343921841, -77.14129526244955 9.33722365635993, -77.48273947109088 8.812673661278936 M-76.88824082814824 9.72598322207689 C-77.11915352931697 9.371239304339417, -77.35006623048571 9.016495386601946, -77.48273947109088 8.812673661278936 M-77.48273947109088 8.812673661278936 C-77.60464102152329 8.596225114615685, -77.7265425719557 8.379776567952433, -78.017500708341 7.863150934094201 M-77.48273947109088 8.812673661278936 C-77.61470790122664 8.578350350320278, -77.74667633136241 8.344027039361618, -78.017500708341 7.863150934094201 M-78.017500708341 7.863150934094201 C-78.11927626486934 7.65181181331505, -78.22105182139768 7.440472692535899, -78.49032709126881 6.881316833080701 M-78.017500708341 7.863150934094201 C-78.18230179371093 7.520937954145198, -78.34710287908086 7.1787249741961965, -78.49032709126881 6.881316833080701 M-78.49032709126881 6.881316833080701 C-78.64080200759518 6.509640880519954, -78.79127692392157 6.137964927959207, -78.89927567484592 5.87120592516224 M-78.49032709126881 6.881316833080701 C-78.59178390561887 6.630716540102005, -78.69324071996891 6.3801162471233095, -78.89927567484592 5.87120592516224 M-78.89927567484592 5.87120592516224 C-78.99930539438853 5.569932347471366, -79.09933511393113 5.268658769780492, -79.24266600162323 4.8369689727275516 M-78.89927567484592 5.87120592516224 C-78.9850447581023 5.612883111841617, -79.0708138413587 5.354560298520993, -79.24266600162323 4.8369689727275516 M-79.24266600162323 4.8369689727275516 C-79.34442560236224 4.4489155122197825, -79.44618520310125 4.060862051712013, -79.519087007091 3.782855877257349 M-79.24266600162323 4.8369689727275516 C-79.32590289996709 4.519550604242477, -79.40913979831095 4.202132235757402, -79.519087007091 3.782855877257349 M-79.519087007091 3.782855877257349 C-79.56792968481855 3.5320590500299556, -79.6167723625461 3.2812622228025625, -79.72740281804565 2.713198215567455 M-79.519087007091 3.782855877257349 C-79.59556543797659 3.3901552983819228, -79.67204386886219 2.9974547195064964, -79.72740281804565 2.713198215567455 M-79.72740281804565 2.713198215567455 C-79.77240344524864 2.3641822373600214, -79.81740407245162 2.015166259152588, -79.86675742013637 1.6323914404306026 M-79.72740281804565 2.713198215567455 C-79.78091023402378 2.29820526347546, -79.83441765000191 1.8832123113834642, -79.86675742013637 1.6323914404306026 M-79.86675742013637 1.6323914404306026 C-79.88923643903674 1.2822625763199627, -79.91171545793709 0.9321337122093227, -79.9365781754117 0.54487681871814 M-79.86675742013637 1.6323914404306026 C-79.88824058646145 1.2977737840176737, -79.90972375278653 0.9631561276047448, -79.9365781754117 0.54487681871814 M-79.9365781754117 0.54487681871814 C-79.9365781754117 0.18023678856990788, -79.9365781754117 -0.18440324157832422, -79.9365781754117 -0.5448768187181317 M-79.9365781754117 0.54487681871814 C-79.9365781754117 0.18980578327575415, -79.9365781754117 -0.16526525216663168, -79.9365781754117 -0.5448768187181317 M-79.9365781754117 -0.5448768187181317 C-79.91226972150858 -0.9235006096900188, -79.88796126760546 -1.302124400661906, -79.86675742013637 -1.6323914404305793 M-79.9365781754117 -0.5448768187181317 C-79.91297250988862 -0.9125541133903013, -79.88936684436554 -1.280231408062471, -79.86675742013637 -1.6323914404305793 M-79.86675742013637 -1.6323914404305793 C-79.81549453275183 -2.029976271982946, -79.76423164536729 -2.427561103535313, -79.72740281804565 -2.713198215567447 M-79.86675742013637 -1.6323914404305793 C-79.82006336280705 -1.9945413282921887, -79.77336930547773 -2.356691216153798, -79.72740281804565 -2.713198215567447 M-79.72740281804565 -2.713198215567447 C-79.6742811352423 -2.9859668294910526, -79.62115945243893 -3.2587354434146585, -79.519087007091 -3.782855877257341 M-79.72740281804565 -2.713198215567447 C-79.66379023906305 -3.039835364119746, -79.60017766008046 -3.3664725126720456, -79.519087007091 -3.782855877257341 M-79.519087007091 -3.782855877257341 C-79.41006607472941 -4.198599942323033, -79.30104514236784 -4.614344007388725, -79.24266600162323 -4.836968972727544 M-79.519087007091 -3.782855877257341 C-79.45883929620825 -4.012606510376321, -79.3985915853255 -4.2423571434953, -79.24266600162323 -4.836968972727544 M-79.24266600162323 -4.836968972727544 C-79.13354772421884 -5.165615838633089, -79.02442944681445 -5.4942627045386345, -78.89927567484594 -5.871205925162218 M-79.24266600162323 -4.836968972727544 C-79.1280898793313 -5.1820539978448945, -79.01351375703935 -5.527139022962246, -78.89927567484594 -5.871205925162218 M-78.89927567484594 -5.871205925162218 C-78.79777661556969 -6.121910563925372, -78.69627755629344 -6.372615202688526, -78.49032709126881 -6.881316833080692 M-78.89927567484594 -5.871205925162218 C-78.76026234041784 -6.214571548839586, -78.62124900598975 -6.5579371725169535, -78.49032709126881 -6.881316833080692 M-78.49032709126881 -6.881316833080692 C-78.3543253805888 -7.163727295278179, -78.21832366990878 -7.446137757475666, -78.017500708341 -7.863150934094194 M-78.49032709126881 -6.881316833080692 C-78.32358579282837 -7.227558706984516, -78.15684449438794 -7.5738005808883395, -78.017500708341 -7.863150934094194 M-78.017500708341 -7.863150934094194 C-77.8791872965279 -8.108740402520036, -77.7408738847148 -8.354329870945877, -77.48273947109088 -8.812673661278929 M-78.017500708341 -7.863150934094194 C-77.89394519686073 -8.082536256079646, -77.77038968538045 -8.301921578065098, -77.48273947109088 -8.812673661278929 M-77.48273947109088 -8.812673661278929 C-77.30103668977011 -9.091817927416223, -77.11933390844935 -9.370962193553517, -76.88824082814826 -9.725983222076884 M-77.48273947109088 -8.812673661278929 C-77.29706289378426 -9.097922745164125, -77.11138631647763 -9.38317182904932, -76.88824082814826 -9.725983222076884 M-76.88824082814826 -9.725983222076884 C-76.73816225746593 -9.927074834352132, -76.58808368678362 -10.128166446627379, -76.23644770195651 -10.599326631598467 M-76.88824082814826 -9.725983222076884 C-76.74530578866126 -9.91750315333949, -76.60237074917424 -10.109023084602095, -76.23644770195651 -10.599326631598467 M-76.23644770195651 -10.599326631598467 C-76.0912727022175 -10.769857446983409, -75.9460977024785 -10.940388262368348, -75.53003845028037 -11.42911513444238 M-76.23644770195651 -10.599326631598467 C-75.97253217732326 -10.90933682405146, -75.70861665269 -11.219347016504452, -75.53003845028037 -11.42911513444238 M-75.53003845028037 -11.42911513444238 C-75.35777514991503 -11.606991135149574, -75.1855118495497 -11.78486713585677, -74.77191586025927 -12.21193895166136 M-75.53003845028037 -11.42911513444238 C-75.3176012322641 -11.648474003464147, -75.10516401424782 -11.867832872485911, -74.77191586025927 -12.21193895166136 M-74.77191586025927 -12.21193895166136 C-74.50372426574252 -12.455503461840728, -74.23553267122578 -12.699067972020096, -73.96519522023242 -12.944581292275274 M-74.77191586025927 -12.21193895166136 C-74.55650483681406 -12.40756954369095, -74.34109381336883 -12.603200135720542, -73.96519522023242 -12.944581292275274 M-73.96519522023242 -12.944581292275274 C-73.74900007765137 -13.11699116528929, -73.53280493507033 -13.289401038303307, -73.11319151835067 -13.624031571755259 M-73.96519522023242 -12.944581292275274 C-73.77536464058913 -13.09596612793691, -73.58553406094586 -13.247350963598546, -73.11319151835067 -13.624031571755259 M-73.11319151835067 -13.624031571755259 C-72.85002201972351 -13.807607221573589, -72.58685252109635 -13.991182871391919, -72.21940582057934 -14.247497783161284 M-73.11319151835067 -13.624031571755259 C-72.83691813220477 -13.816747926248514, -72.56064474605886 -14.00946428074177, -72.21940582057934 -14.247497783161284 M-72.21940582057934 -14.247497783161284 C-71.91572888851077 -14.431588523984995, -71.61205195644219 -14.615679264808707, -71.28751088406695 -14.812417970097618 M-72.21940582057934 -14.247497783161284 C-71.9953002160676 -14.38335191760701, -71.77119461155588 -14.519206052052738, -71.28751088406695 -14.812417970097618 M-71.28751088406695 -14.812417970097618 C-71.06535799999445 -14.928314987422528, -70.84320511592195 -15.04421200474744, -70.32133606499849 -15.316470754341124 M-71.28751088406695 -14.812417970097618 C-71.01300998018826 -14.955624915824911, -70.73850907630955 -15.098831861552204, -70.32133606499849 -15.316470754341124 M-70.32133606499849 -15.316470754341124 C-69.97654369840481 -15.46910010712999, -69.63175133181112 -15.621729459918857, -69.32485158294936 -15.757584874882365 M-70.32133606499849 -15.316470754341124 C-70.0866575675587 -15.420355963667431, -69.85197907011892 -15.524241172993738, -69.32485158294936 -15.757584874882365 M-69.32485158294936 -15.757584874882365 C-69.07348086686535 -15.85009162204671, -68.82211015078133 -15.942598369211057, -68.30215220640156 -16.133947699181363 M-69.32485158294936 -15.757584874882365 C-69.02678378978378 -15.867276578075774, -68.7287159966182 -15.976968281269185, -68.30215220640156 -16.133947699181363 M-68.30215220640156 -16.133947699181363 C-67.99201625562578 -16.225994421434788, -67.68188030485001 -16.31804114368821, -67.25744042646164 -16.444012671663494 M-68.30215220640156 -16.133947699181363 C-67.99986229101978 -16.223665759314528, -67.697572375638 -16.313383819447697, -67.25744042646164 -16.444012671663494 M-67.25744042646164 -16.444012671663494 C-66.85584858845702 -16.535673388056395, -66.45425675045242 -16.627334104449297, -66.19500918792333 -16.68650566884811 M-67.25744042646164 -16.444012671663494 C-66.8493133981756 -16.53716500259203, -66.44118636988954 -16.630317333520566, -66.19500918792333 -16.68650566884811 M-66.19500918792333 -16.68650566884811 C-65.95969846113765 -16.72454888229288, -65.72438773435195 -16.76259209573765, -65.11922424863661 -16.86043023499518 M-66.19500918792333 -16.68650566884811 C-65.88416681263197 -16.736760253466592, -65.57332443734062 -16.787014838085078, -65.11922424863661 -16.86043023499518 M-65.11922424863661 -16.86043023499518 C-64.6980190917933 -16.901063389902543, -64.27681393494997 -16.9416965448099, -64.03450623967213 -16.965071676755716 M-65.11922424863661 -16.86043023499518 C-64.75585648579099 -16.89548388606323, -64.39248872294537 -16.930537537131272, -64.03450623967213 -16.965071676755716 M-64.03450623967213 -16.965071676755716 C-63.69893472953999 -16.975832801935333, -63.36336321940786 -16.986593927114953, -62.94531250000001 -17 M-64.03450623967213 -16.965071676755716 C-63.725483051630434 -16.974981448919067, -63.41645986358875 -16.984891221082417, -62.94531250000001 -17 M-62.94531250000001 -17 C-62.94531250000001 -17, -62.9453125 -17, -62.9453125 -17 M-62.94531250000001 -17 C-62.94531250000001 -17, -62.94531250000001 -17, -62.9453125 -17" stroke="#555555" stroke-width="1.3" fill="none" stroke-dasharray="0 0" style=""></path></g><g class="label" style="" transform="translate(0, -9.5)"><rect></rect><g><rect class="background" style="stroke: none"></rect><text y="-10.1" style=""><tspan class="text-outer-tspan row" x="0" y="-0.1em" dy="1.1em"><tspan font-style="normal" class="text-inner-tspan" font-weight="normal">What</tspan><tspan font-style="normal" class="text-inner-tspan" font-weight="normal"> is</tspan><tspan font-style="normal" class="text-inner-tspan" font-weight="normal"> the</tspan><tspan font-style="normal" class="text-inner-tspan" font-weight="normal"> target?</tspan></tspan></text></g></g></g><g class="node default" id="geaf0707e-2e73-49bf-b443-bea78767a325-dark-flowchart-Resource-1" data-look="classic" transform="translate(127.40937805175781, 211.4093780517578)"><polygon points="119.40937423706055,0 238.8187484741211,-119.40937423706055 119.40937423706055,-238.8187484741211 0,-119.40937423706055" class="label-container" transform="translate(-118.90937423706055, 119.40937423706055)"></polygon><g class="label" style="" transform="translate(0, -18.299999237060547)"><rect></rect><g><rect class="background" style="stroke: none"></rect><text y="-10.1" style=""><tspan class="text-outer-tspan row" x="0" y="-0.1em" dy="1.1em"><tspan font-style="normal" class="text-inner-tspan" font-weight="normal">Hardware</tspan><tspan font-style="normal" class="text-inner-tspan" font-weight="normal"> /</tspan><tspan font-style="normal" class="text-inner-tspan" font-weight="normal"> OS</tspan><tspan font-style="normal" class="text-inner-tspan" font-weight="normal"> resource</tspan></tspan><tspan class="text-outer-tspan row" x="0" y="1em" dy="1.1em"><tspan font-style="normal" class="text-inner-tspan" font-weight="normal">CPU,</tspan><tspan font-style="normal" class="text-inner-tspan" font-weight="normal"> disk,</tspan><tspan font-style="normal" class="text-inner-tspan" font-weight="normal"> NIC,</tspan><tspan font-style="normal" class="text-inner-tspan" font-weight="normal"> queue?</tspan></tspan></text></g></g></g><g class="node default" id="geaf0707e-2e73-49bf-b443-bea78767a325-dark-flowchart-Service-2" data-look="classic" transform="translate(423.2062530517578, 211.4093780517578)"><polygon points="116.40156173706055,0 232.8031234741211,-116.40156173706055 116.40156173706055,-232.8031234741211 0,-116.40156173706055" class="label-container" transform="translate(-115.90156173706055, 116.40156173706055)"></polygon><g class="label" style="" transform="translate(0, -18.299999237060547)"><rect></rect><g><rect class="background" style="stroke: none"></rect><text y="-10.1" style=""><tspan class="text-outer-tspan row" x="0" y="-0.1em" dy="1.1em"><tspan font-style="normal" class="text-inner-tspan" font-weight="normal">Internal</tspan><tspan font-style="normal" class="text-inner-tspan" font-weight="normal"> request-driven</tspan></tspan><tspan class="text-outer-tspan row" x="0" y="1em" dy="1.1em"><tspan font-style="normal" class="text-inner-tspan" font-weight="normal">microservice?</tspan></tspan></text></g></g></g><g class="node default" id="geaf0707e-2e73-49bf-b443-bea78767a325-dark-flowchart-UserFacing-3" data-look="classic" transform="translate(724.6437530517578, 211.4093780517578)"><polygon points="102.60468673706055,0 205.2093734741211,-102.60468673706055 102.60468673706055,-205.2093734741211 0,-102.60468673706055" class="label-container" transform="translate(-102.10468673706055, 102.60468673706055)"></polygon><g class="label" style="" transform="translate(0, -18.299999237060547)"><rect></rect><g><rect class="background" style="stroke: none"></rect><text y="-10.1" style=""><tspan class="text-outer-tspan row" x="0" y="-0.1em" dy="1.1em"><tspan font-style="normal" class="text-inner-tspan" font-weight="normal">User-facing</tspan></tspan><tspan class="text-outer-tspan row" x="0" y="1em" dy="1.1em"><tspan font-style="normal" class="text-inner-tspan" font-weight="normal">distributed</tspan><tspan font-style="normal" class="text-inner-tspan" font-weight="normal"> system?</tspan></tspan></text></g></g></g><g class="node default" id="geaf0707e-2e73-49bf-b443-bea78767a325-dark-flowchart-USE-4" data-look="classic" transform="translate(127.40937805175781, 472.3187561035156)"><rect class="basic label-container" style="" x="-117.5390625" y="-59.70000076293945" width="235.078125" height="119.4000015258789"></rect><g class="label" style="" transform="translate(0, -44.70000076293945)"><rect></rect><g><rect class="background" style="stroke: none"></rect><text y="-10.1" style=""><tspan class="text-outer-tspan row" x="0" y="-0.1em" dy="1.1em"><tspan font-style="normal" class="text-inner-tspan" font-weight="normal">USE</tspan><tspan font-style="normal" class="text-inner-tspan" font-weight="normal"> method</tspan><tspan font-style="normal" class="text-inner-tspan" font-weight="normal"> (Brendan</tspan></tspan><tspan class="text-outer-tspan row" x="0" y="1em" dy="1.1em"><tspan font-style="normal" class="text-inner-tspan" font-weight="normal">Gregg)</tspan></tspan><tspan class="text-outer-tspan row" x="0" y="2.1em" dy="1.1em"><tspan font-style="normal" class="text-inner-tspan" font-weight="normal">Utilization</tspan><tspan font-style="normal" class="text-inner-tspan" font-weight="normal"> ·</tspan><tspan font-style="normal" class="text-inner-tspan" font-weight="normal"> Saturation</tspan><tspan font-style="normal" class="text-inner-tspan" font-weight="normal"> ·</tspan></tspan><tspan class="text-outer-tspan row" x="0" y="3.2em" dy="1.1em"><tspan font-style="normal" class="text-inner-tspan" font-weight="normal">Errors</tspan></tspan><tspan class="text-outer-tspan row" x="0" y="4.300000000000001em" dy="1.1em"><tspan font-style="normal" class="text-inner-tspan" font-weight="normal">Check</tspan><tspan font-style="normal" class="text-inner-tspan" font-weight="normal"> per</tspan><tspan font-style="normal" class="text-inner-tspan" font-weight="normal"> resource.</tspan></tspan></text></g></g></g><g class="node default" id="geaf0707e-2e73-49bf-b443-bea78767a325-dark-flowchart-RED-5" data-look="classic" transform="translate(423.2062530517578, 472.3187561035156)"><rect class="basic label-container" style="" x="-128.2578125" y="-42.099998474121094" width="256.515625" height="84.19999694824219"></rect><g class="label" style="" transform="translate(0, -27.099998474121094)"><rect></rect><g><rect class="background" style="stroke: none"></rect><text y="-10.1" style=""><tspan class="text-outer-tspan row" x="0" y="-0.1em" dy="1.1em"><tspan font-style="normal" class="text-inner-tspan" font-weight="normal">RED</tspan><tspan font-style="normal" class="text-inner-tspan" font-weight="normal"> method</tspan><tspan font-style="normal" class="text-inner-tspan" font-weight="normal"> (Tom</tspan><tspan font-style="normal" class="text-inner-tspan" font-weight="normal"> Wilkie)</tspan></tspan><tspan class="text-outer-tspan row" x="0" y="1em" dy="1.1em"><tspan font-style="normal" class="text-inner-tspan" font-weight="normal">Rate</tspan><tspan font-style="normal" class="text-inner-tspan" font-weight="normal"> ·</tspan><tspan font-style="normal" class="text-inner-tspan" font-weight="normal"> Errors</tspan><tspan font-style="normal" class="text-inner-tspan" font-weight="normal"> ·</tspan><tspan font-style="normal" class="text-inner-tspan" font-weight="normal"> Duration</tspan></tspan><tspan class="text-outer-tspan row" x="0" y="2.1em" dy="1.1em"><tspan font-style="normal" class="text-inner-tspan" font-weight="normal">One</tspan><tspan font-style="normal" class="text-inner-tspan" font-weight="normal"> dashboard</tspan><tspan font-style="normal" class="text-inner-tspan" font-weight="normal"> per</tspan><tspan font-style="normal" class="text-inner-tspan" font-weight="normal"> service.</tspan></tspan></text></g></g></g><g class="node default" id="geaf0707e-2e73-49bf-b443-bea78767a325-dark-flowchart-Golden-6" data-look="classic" transform="translate(724.6437530517578, 472.3187561035156)"><rect class="basic label-container" style="" x="-123.1796875" y="-68.5" width="246.359375" height="137"></rect><g class="label" style="" transform="translate(0, -53.5)"><rect></rect><g><rect class="background" style="stroke: none"></rect><text y="-10.1" style=""><tspan class="text-outer-tspan row" x="0" y="-0.1em" dy="1.1em"><tspan font-style="normal" class="text-inner-tspan" font-weight="normal">Four</tspan><tspan font-style="normal" class="text-inner-tspan" font-weight="normal"> Golden</tspan><tspan font-style="normal" class="text-inner-tspan" font-weight="normal"> Signals</tspan></tspan><tspan class="text-outer-tspan row" x="0" y="1em" dy="1.1em"><tspan font-style="normal" class="text-inner-tspan" font-weight="normal">(Google</tspan><tspan font-style="normal" class="text-inner-tspan" font-weight="normal"> SRE)</tspan></tspan><tspan class="text-outer-tspan row" x="0" y="2.1em" dy="1.1em"><tspan font-style="normal" class="text-inner-tspan" font-weight="normal">Latency</tspan><tspan font-style="normal" class="text-inner-tspan" font-weight="normal"> ·</tspan><tspan font-style="normal" class="text-inner-tspan" font-weight="normal"> Traffic</tspan><tspan font-style="normal" class="text-inner-tspan" font-weight="normal"> ·</tspan><tspan font-style="normal" class="text-inner-tspan" font-weight="normal"> Errors</tspan><tspan font-style="normal" class="text-inner-tspan" font-weight="normal"> ·</tspan></tspan><tspan class="text-outer-tspan row" x="0" y="3.2em" dy="1.1em"><tspan font-style="normal" class="text-inner-tspan" font-weight="normal">Saturation</tspan></tspan><tspan class="text-outer-tspan row" x="0" y="4.300000000000001em" dy="1.1em"><tspan font-style="normal" class="text-inner-tspan" font-weight="normal">Latency:</tspan><tspan font-style="normal" class="text-inner-tspan" font-weight="normal"> split</tspan><tspan font-style="normal" class="text-inner-tspan" font-weight="normal"> success</tspan><tspan font-style="normal" class="text-inner-tspan" font-weight="normal"> vs</tspan></tspan><tspan class="text-outer-tspan row" x="0" y="5.4em" dy="1.1em"><tspan font-style="normal" class="text-inner-tspan" font-weight="normal">failure;</tspan><tspan font-style="normal" class="text-inner-tspan" font-weight="normal"> track</tspan><tspan font-style="normal" class="text-inner-tspan" font-weight="normal"> p99.</tspan></tspan></text></g></g></g><g class="node default" id="geaf0707e-2e73-49bf-b443-bea78767a325-dark-flowchart-Slo-7" data-look="classic" transform="translate(573.9250030517578, 632.9187545776367)"><rect class="basic label-container" style="" x="-124.03125" y="-42.099998474121094" width="248.0625" height="84.19999694824219"></rect><g class="label" style="" transform="translate(0, -27.099998474121094)"><rect></rect><g><rect class="background" style="stroke: none"></rect><text y="-10.1" style=""><tspan class="text-outer-tspan row" x="0" y="-0.1em" dy="1.1em"><tspan font-style="normal" class="text-inner-tspan" font-weight="normal">SLO</tspan><tspan font-style="normal" class="text-inner-tspan" font-weight="normal"> +</tspan><tspan font-style="normal" class="text-inner-tspan" font-weight="normal"> error</tspan><tspan font-style="normal" class="text-inner-tspan" font-weight="normal"> budget</tspan></tspan><tspan class="text-outer-tspan row" x="0" y="1em" dy="1.1em"><tspan font-style="normal" class="text-inner-tspan" font-weight="normal">1</tspan><tspan font-style="normal" class="text-inner-tspan" font-weight="normal"> minus</tspan><tspan font-style="normal" class="text-inner-tspan" font-weight="normal"> availability</tspan><tspan font-style="normal" class="text-inner-tspan" font-weight="normal"> target</tspan></tspan><tspan class="text-outer-tspan row" x="0" y="2.1em" dy="1.1em"><tspan font-style="normal" class="text-inner-tspan" font-weight="normal">over</tspan><tspan font-style="normal" class="text-inner-tspan" font-weight="normal"> rolling</tspan><tspan font-style="normal" class="text-inner-tspan" font-weight="normal"> 28</tspan><tspan font-style="normal" class="text-inner-tspan" font-weight="normal"> to</tspan><tspan font-style="normal" class="text-inner-tspan" font-weight="normal"> 30</tspan><tspan font-style="normal" class="text-inner-tspan" font-weight="normal"> days.</tspan></tspan></text></g></g></g><g class="node default" id="geaf0707e-2e73-49bf-b443-bea78767a325-dark-flowchart-Alert-8" data-look="classic" transform="translate(573.9250030517578, 767.1187515258789)"><rect class="basic label-container" style="" x="-105.4765625" y="-42.099998474121094" width="210.953125" height="84.19999694824219"></rect><g class="label" style="" transform="translate(0, -27.099998474121094)"><rect></rect><g><rect class="background" style="stroke: none"></rect><text y="-10.1" style=""><tspan class="text-outer-tspan row" x="0" y="-0.1em" dy="1.1em"><tspan font-style="normal" class="text-inner-tspan" font-weight="normal">Multi-window</tspan></tspan><tspan class="text-outer-tspan row" x="0" y="1em" dy="1.1em"><tspan font-style="normal" class="text-inner-tspan" font-weight="normal">multi-burn-rate</tspan><tspan font-style="normal" class="text-inner-tspan" font-weight="normal"> alert</tspan></tspan><tspan class="text-outer-tspan row" x="0" y="2.1em" dy="1.1em"><tspan font-style="normal" class="text-inner-tspan" font-weight="normal">(see</tspan><tspan font-style="normal" class="text-inner-tspan" font-weight="normal"> SLO</tspan><tspan font-style="normal" class="text-inner-tspan" font-weight="normal"> section).</tspan></tspan></text></g></g></g></g></g></g><defs><filter id="geaf0707e-2e73-49bf-b443-bea78767a325-dark-drop-shadow" height="130%" width="130%"><feDropShadow dx="4" dy="4" stdDeviation="0" flood-opacity="0.06" flood-color="#000000"></feDropShadow></filter></defs><defs><filter id="geaf0707e-2e73-49bf-b443-bea78767a325-dark-drop-shadow-small" height="150%" width="150%"><feDropShadow dx="2" dy="2" stdDeviation="0" flood-opacity="0.06" flood-color="#000000"></feDropShadow></filter></defs><linearGradient id="geaf0707e-2e73-49bf-b443-bea78767a325-dark-gradient" gradientUnits="objectBoundingBox" x1="0%" y1="0%" x2="100%" y2="0%"><stop offset="0%" stop-color="#555555" stop-opacity="1"></stop><stop offset="100%" stop-color="#555555" stop-opacity="1"></stop></linearGradient></svg>