<svg id="geaf0707e-2e73-49bf-b443-bea78767a325-light" width="100%" xmlns="http://www.w3.org/2000/svg" xmlns:xlink="http://www.w3.org/1999/xlink" class="flowchart" style="max-width: 855.3234252929688px;" viewBox="0.5 0 855.3234252929688 817.2188110351562" role="graphics-document document" aria-roledescription="flowchart-v2"><style>#geaf0707e-2e73-49bf-b443-bea78767a325-light{font-family:"trebuchet ms",verdana,arial,sans-serif;font-size:16px;fill:#333;}@keyframes edge-animation-frame{from{stroke-dashoffset:0;}}@keyframes dash{to{stroke-dashoffset:0;}}#geaf0707e-2e73-49bf-b443-bea78767a325-light .edge-animation-slow{stroke-dasharray:9,5!important;stroke-dashoffset:900;animation:dash 50s linear infinite;stroke-linecap:round;}#geaf0707e-2e73-49bf-b443-bea78767a325-light .edge-animation-fast{stroke-dasharray:9,5!important;stroke-dashoffset:900;animation:dash 20s linear infinite;stroke-linecap:round;}#geaf0707e-2e73-49bf-b443-bea78767a325-light .error-icon{fill:#552222;}#geaf0707e-2e73-49bf-b443-bea78767a325-light .error-text{fill:#552222;stroke:#552222;}#geaf0707e-2e73-49bf-b443-bea78767a325-light .edge-thickness-normal{stroke-width:1px;}#geaf0707e-2e73-49bf-b443-bea78767a325-light .edge-thickness-thick{stroke-width:3.5px;}#geaf0707e-2e73-49bf-b443-bea78767a325-light .edge-pattern-solid{stroke-dasharray:0;}#geaf0707e-2e73-49bf-b443-bea78767a325-light .edge-thickness-invisible{stroke-width:0;fill:none;}#geaf0707e-2e73-49bf-b443-bea78767a325-light .edge-pattern-dashed{stroke-dasharray:3;}#geaf0707e-2e73-49bf-b443-bea78767a325-light .edge-pattern-dotted{stroke-dasharray:2;}#geaf0707e-2e73-49bf-b443-bea78767a325-light .marker{fill:#333333;stroke:#333333;}#geaf0707e-2e73-49bf-b443-bea78767a325-light .marker.cross{stroke:#333333;}#geaf0707e-2e73-49bf-b443-bea78767a325-light svg{font-family:"trebuchet ms",verdana,arial,sans-serif;font-size:16px;}#geaf0707e-2e73-49bf-b443-bea78767a325-light p{margin:0;}#geaf0707e-2e73-49bf-b443-bea78767a325-light .label{font-family:"trebuchet ms",verdana,arial,sans-serif;color:#333;}#geaf0707e-2e73-49bf-b443-bea78767a325-light .cluster-label text{fill:#333;}#geaf0707e-2e73-49bf-b443-bea78767a325-light .cluster-label span{color:#333;}#geaf0707e-2e73-49bf-b443-bea78767a325-light .cluster-label span p{background-color:transparent;}#geaf0707e-2e73-49bf-b443-bea78767a325-light .label text,#geaf0707e-2e73-49bf-b443-bea78767a325-light span{fill:#333;color:#333;}#geaf0707e-2e73-49bf-b443-bea78767a325-light .node rect,#geaf0707e-2e73-49bf-b443-bea78767a325-light .node circle,#geaf0707e-2e73-49bf-b443-bea78767a325-light .node ellipse,#geaf0707e-2e73-49bf-b443-bea78767a325-light .node polygon,#geaf0707e-2e73-49bf-b443-bea78767a325-light .node path{fill:#ECECFF;stroke:#9370DB;stroke-width:1px;}#geaf0707e-2e73-49bf-b443-bea78767a325-light .rough-node .label text,#geaf0707e-2e73-49bf-b443-bea78767a325-light .node .label text,#geaf0707e-2e73-49bf-b443-bea78767a325-light .image-shape .label,#geaf0707e-2e73-49bf-b443-bea78767a325-light .icon-shape .label{text-anchor:middle;}#geaf0707e-2e73-49bf-b443-bea78767a325-light .node .katex path{fill:#000;stroke:#000;stroke-width:1px;}#geaf0707e-2e73-49bf-b443-bea78767a325-light .rough-node .label,#geaf0707e-2e73-49bf-b443-bea78767a325-light .node .label,#geaf0707e-2e73-49bf-b443-bea78767a325-light .image-shape .label,#geaf0707e-2e73-49bf-b443-bea78767a325-light .icon-shape .label{text-align:center;}#geaf0707e-2e73-49bf-b443-bea78767a325-light .node.clickable{cursor:pointer;}#geaf0707e-2e73-49bf-b443-bea78767a325-light .root .anchor path{fill:#333333!important;stroke-width:0;stroke:#333333;}#geaf0707e-2e73-49bf-b443-bea78767a325-light .arrowheadPath{fill:#333333;}#geaf0707e-2e73-49bf-b443-bea78767a325-light .edgePath .path{stroke:#333333;stroke-width:1px;}#geaf0707e-2e73-49bf-b443-bea78767a325-light .flowchart-link{stroke:#333333;fill:none;}#geaf0707e-2e73-49bf-b443-bea78767a325-light .edgeLabel{background-color:rgba(232,232,232, 0.8);text-align:center;}#geaf0707e-2e73-49bf-b443-bea78767a325-light .edgeLabel p{background-color:rgba(232,232,232, 0.8);}#geaf0707e-2e73-49bf-b443-bea78767a325-light .edgeLabel rect{opacity:0.5;background-color:rgba(232,232,232, 0.8);fill:rgba(232,232,232, 0.8);}#geaf0707e-2e73-49bf-b443-bea78767a325-light .labelBkg{background-color:rgba(232, 232, 232, 0.5);}#geaf0707e-2e73-49bf-b443-bea78767a325-light .cluster rect{fill:#ffffde;stroke:#aaaa33;stroke-width:1px;}#geaf0707e-2e73-49bf-b443-bea78767a325-light .cluster text{fill:#333;}#geaf0707e-2e73-49bf-b443-bea78767a325-light .cluster span{color:#333;}#geaf0707e-2e73-49bf-b443-bea78767a325-light div.mermaidTooltip{position:absolute;text-align:center;max-width:200px;padding:2px;font-family:"trebuchet ms",verdana,arial,sans-serif;font-size:12px;background:hsl(80, 100%, 96.2745098039%);border:1px solid #aaaa33;border-radius:2px;pointer-events:none;z-index:100;}#geaf0707e-2e73-49bf-b443-bea78767a325-light .flowchartTitleText{text-anchor:middle;font-size:18px;fill:#333;}#geaf0707e-2e73-49bf-b443-bea78767a325-light rect.text{fill:none;stroke-width:0;}#geaf0707e-2e73-49bf-b443-bea78767a325-light .icon-shape,#geaf0707e-2e73-49bf-b443-bea78767a325-light .image-shape{background-color:rgba(232,232,232, 0.8);text-align:center;}#geaf0707e-2e73-49bf-b443-bea78767a325-light .icon-shape p,#geaf0707e-2e73-49bf-b443-bea78767a325-light .image-shape p{background-color:rgba(232,232,232, 0.8);padding:2px;}#geaf0707e-2e73-49bf-b443-bea78767a325-light .icon-shape .label rect,#geaf0707e-2e73-49bf-b443-bea78767a325-light .image-shape .label rect{opacity:0.5;background-color:rgba(232,232,232, 0.8);fill:rgba(232,232,232, 0.8);}#geaf0707e-2e73-49bf-b443-bea78767a325-light .label-icon{display:inline-block;height:1em;overflow:visible;vertical-align:-0.125em;}#geaf0707e-2e73-49bf-b443-bea78767a325-light .node .label-icon path{fill:currentColor;stroke:revert;stroke-width:revert;}#geaf0707e-2e73-49bf-b443-bea78767a325-light .node .neo-node{stroke:#9370DB;}#geaf0707e-2e73-49bf-b443-bea78767a325-light [data-look="neo"].node rect,#geaf0707e-2e73-49bf-b443-bea78767a325-light [data-look="neo"].cluster rect,#geaf0707e-2e73-49bf-b443-bea78767a325-light [data-look="neo"].node polygon{stroke:#9370DB;filter:drop-shadow(1px 2px 2px rgba(185, 185, 185, 1));}#geaf0707e-2e73-49bf-b443-bea78767a325-light [data-look="neo"].node path{stroke:#9370DB;stroke-width:1px;}#geaf0707e-2e73-49bf-b443-bea78767a325-light [data-look="neo"].node .outer-path{filter:drop-shadow(1px 2px 2px rgba(185, 185, 185, 1));}#geaf0707e-2e73-49bf-b443-bea78767a325-light [data-look="neo"].node .neo-line path{stroke:#9370DB;filter:none;}#geaf0707e-2e73-49bf-b443-bea78767a325-light [data-look="neo"].node circle{stroke:#9370DB;filter:drop-shadow(1px 2px 2px rgba(185, 185, 185, 1));}#geaf0707e-2e73-49bf-b443-bea78767a325-light [data-look="neo"].node circle .state-start{fill:#000000;}#geaf0707e-2e73-49bf-b443-bea78767a325-light [data-look="neo"].icon-shape .icon{fill:#9370DB;filter:drop-shadow(1px 2px 2px rgba(185, 185, 185, 1));}#geaf0707e-2e73-49bf-b443-bea78767a325-light [data-look="neo"].icon-shape .icon-neo path{stroke:#9370DB;filter:drop-shadow(1px 2px 2px rgba(185, 185, 185, 1));}#geaf0707e-2e73-49bf-b443-bea78767a325-light :root{--mermaid-font-family:"trebuchet ms",verdana,arial,sans-serif;}</style><g><marker id="geaf0707e-2e73-49bf-b443-bea78767a325-light_flowchart-v2-pointEnd" class="marker flowchart-v2" viewBox="0 0 10 10" refX="5" refY="5" markerUnits="userSpaceOnUse" markerWidth="8" markerHeight="8" orient="auto"><path d="M 0 0 L 10 5 L 0 10 z" class="arrowMarkerPath" style="stroke-width: 1; stroke-dasharray: 1, 0;"></path></marker><marker id="geaf0707e-2e73-49bf-b443-bea78767a325-light_flowchart-v2-pointStart" class="marker flowchart-v2" viewBox="0 0 10 10" refX="4.5" refY="5" markerUnits="userSpaceOnUse" markerWidth="8" markerHeight="8" orient="auto"><path d="M 0 5 L 10 10 L 10 0 z" class="arrowMarkerPath" style="stroke-width: 1; stroke-dasharray: 1, 0;"></path></marker><marker id="geaf0707e-2e73-49bf-b443-bea78767a325-light_flowchart-v2-pointEnd-margin" class="marker flowchart-v2" viewBox="0 0 11.5 14" refX="11.5" refY="7" markerUnits="userSpaceOnUse" markerWidth="10.5" markerHeight="14" orient="auto"><path d="M 0 0 L 11.5 7 L 0 14 z" class="arrowMarkerPath" style="stroke-width: 0; stroke-dasharray: 1, 0;"></path></marker><marker id="geaf0707e-2e73-49bf-b443-bea78767a325-light_flowchart-v2-pointStart-margin" class="marker flowchart-v2" viewBox="0 0 11.5 14" refX="1" refY="7" markerUnits="userSpaceOnUse" markerWidth="11.5" markerHeight="14" orient="auto"><polygon points="0,7 11.5,14 11.5,0" class="arrowMarkerPath" style="stroke-width: 0; stroke-dasharray: 1, 0;"></polygon></marker><marker id="geaf0707e-2e73-49bf-b443-bea78767a325-light_flowchart-v2-circleEnd" class="marker flowchart-v2" viewBox="0 0 10 10" refX="11" refY="5" markerUnits="userSpaceOnUse" markerWidth="11" markerHeight="11" orient="auto"><circle cx="5" cy="5" r="5" class="arrowMarkerPath" style="stroke-width: 1; stroke-dasharray: 1, 0;"></circle></marker><marker id="geaf0707e-2e73-49bf-b443-bea78767a325-light_flowchart-v2-circleStart" class="marker flowchart-v2" viewBox="0 0 10 10" refX="-1" refY="5" markerUnits="userSpaceOnUse" markerWidth="11" markerHeight="11" orient="auto"><circle cx="5" cy="5" r="5" class="arrowMarkerPath" style="stroke-width: 1; stroke-dasharray: 1, 0;"></circle></marker><marker id="geaf0707e-2e73-49bf-b443-bea78767a325-light_flowchart-v2-circleEnd-margin" class="marker flowchart-v2" viewBox="0 0 10 10" refY="5" refX="12.25" markerUnits="userSpaceOnUse" markerWidth="14" markerHeight="14" orient="auto"><circle cx="5" cy="5" r="5" class="arrowMarkerPath" style="stroke-width: 0; stroke-dasharray: 1, 0;"></circle></marker><marker id="geaf0707e-2e73-49bf-b443-bea78767a325-light_flowchart-v2-circleStart-margin" class="marker flowchart-v2" viewBox="0 0 10 10" refX="-2" refY="5" markerUnits="userSpaceOnUse" markerWidth="14" markerHeight="14" orient="auto"><circle cx="5" cy="5" r="5" class="arrowMarkerPath" style="stroke-width: 0; stroke-dasharray: 1, 0;"></circle></marker><marker id="geaf0707e-2e73-49bf-b443-bea78767a325-light_flowchart-v2-crossEnd" class="marker cross flowchart-v2" viewBox="0 0 11 11" refX="12" refY="5.2" markerUnits="userSpaceOnUse" markerWidth="11" markerHeight="11" orient="auto"><path d="M 1,1 l 9,9 M 10,1 l -9,9" class="arrowMarkerPath" style="stroke-width: 2; stroke-dasharray: 1, 0;"></path></marker><marker id="geaf0707e-2e73-49bf-b443-bea78767a325-light_flowchart-v2-crossStart" class="marker cross flowchart-v2" viewBox="0 0 11 11" refX="-1" refY="5.2" markerUnits="userSpaceOnUse" markerWidth="11" markerHeight="11" orient="auto"><path d="M 1,1 l 9,9 M 10,1 l -9,9" class="arrowMarkerPath" style="stroke-width: 2; stroke-dasharray: 1, 0;"></path></marker><marker id="geaf0707e-2e73-49bf-b443-bea78767a325-light_flowchart-v2-crossEnd-margin" class="marker cross flowchart-v2" viewBox="0 0 15 15" refX="17.7" refY="7.5" markerUnits="userSpaceOnUse" markerWidth="12" markerHeight="12" orient="auto"><path d="M 1,1 L 14,14 M 1,14 L 14,1" class="arrowMarkerPath" style="stroke-width: 2.5;"></path></marker><marker id="geaf0707e-2e73-49bf-b443-bea78767a325-light_flowchart-v2-crossStart-margin" class="marker cross flowchart-v2" viewBox="0 0 15 15" refX="-3.5" refY="7.5" markerUnits="userSpaceOnUse" markerWidth="12" markerHeight="12" orient="auto"><path d="M 1,1 L 14,14 M 1,14 L 14,1" class="arrowMarkerPath" style="stroke-width: 2.5; stroke-dasharray: 1, 0;"></path></marker><g class="root"><g class="clusters"></g><g class="edgePaths"><path d="M347.641,36.3L310.936,41.417C274.23,46.534,200.82,56.767,164.115,65.383C127.409,74,127.409,81,127.409,84.5L127.409,88" id="geaf0707e-2e73-49bf-b443-bea78767a325-light-L_Start_Resource_0" class="edge-thickness-normal edge-pattern-solid edge-thickness-normal edge-pattern-solid flowchart-link" style=";" data-edge="true" data-et="edge" data-id="L_Start_Resource_0" data-points="W3sieCI6MzQ3LjY0MTAyNjAxMTQ3NjcsInkiOjM2LjMwMDQ1MDU5ODcxNTF9LHsieCI6MTI3LjQwOTM3ODA1MTc1NzgxLCJ5Ijo2N30seyJ4IjoxMjcuNDA5Mzc4MDUxNzU3ODEsInkiOjkyfV0=" data-look="classic" marker-end="url(#geaf0707e-2e73-49bf-b443-bea78767a325-light_flowchart-v2-pointEnd)"></path><path d="M423.706,42.5L423.623,46.583C423.54,50.667,423.373,58.833,423.29,66.918C423.206,75.003,423.206,83.005,423.206,87.007L423.206,91.008" id="geaf0707e-2e73-49bf-b443-bea78767a325-light-L_Start_Service_0" class="edge-thickness-normal edge-pattern-solid edge-thickness-normal edge-pattern-solid flowchart-link" style=";" data-edge="true" data-et="edge" data-id="L_Start_Service_0" data-points="W3sieCI6NDIzLjcwNjI1MzA1MTc1NzgsInkiOjQyLjV9LHsieCI6NDIzLjIwNjI1MzA1MTc1NzgsInkiOjY3fSx7IngiOjQyMy4yMDYyNTMwNTE3NTc4LCJ5Ijo5NS4wMDc4MTI0OTk5OTk5NH1d" data-look="classic" marker-end="url(#geaf0707e-2e73-49bf-b443-bea78767a325-light_flowchart-v2-pointEnd)"></path><path d="M499.925,36.12L537.378,41.266C574.831,46.413,649.738,56.707,687.191,68.154C724.644,79.602,724.644,92.203,724.644,98.504L724.644,104.805" id="geaf0707e-2e73-49bf-b443-bea78767a325-light-L_Start_UserFacing_0" class="edge-thickness-normal edge-pattern-solid edge-thickness-normal edge-pattern-solid flowchart-link" style=";" data-edge="true" data-et="edge" data-id="L_Start_UserFacing_0" data-points="W3sieCI6NDk5LjkyNTI5MDg1NjUwNjcsInkiOjM2LjExOTc3ODg1MjMzMDc2fSx7IngiOjcyNC42NDM3NTMwNTE3NTc4LCJ5Ijo2N30seyJ4Ijo3MjQuNjQzNzUzMDUxNzU3OCwieSI6MTA4LjgwNDY4NzQ5OTk5OTk3fV0=" data-look="classic" marker-end="url(#geaf0707e-2e73-49bf-b443-bea78767a325-light_flowchart-v2-pointEnd)"></path><path d="M127.409,330.819L127.409,336.902C127.409,342.985,127.409,355.152,127.409,368.119C127.409,381.085,127.409,394.852,127.409,401.735L127.409,408.619" id="geaf0707e-2e73-49bf-b443-bea78767a325-light-L_Resource_USE_0" class="edge-thickness-normal edge-pattern-solid edge-thickness-normal edge-pattern-solid flowchart-link" style=";" data-edge="true" data-et="edge" data-id="L_Resource_USE_0" data-points="W3sieCI6MTI3LjQwOTM3ODA1MTc1NzgsInkiOjMzMC44MTg3NTYxMDM1MTU3fSx7IngiOjEyNy40MDkzNzgwNTE3NTc4MSwieSI6MzY3LjMxODc1NjEwMzUxNTZ9LHsieCI6MTI3LjQwOTM3ODA1MTc1NzgxLCJ5Ijo0MTIuNjE4NzU1MzQwNTc2Mn1d" data-look="classic" marker-end="url(#geaf0707e-2e73-49bf-b443-bea78767a325-light_flowchart-v2-pointEnd)"></path><path d="M423.206,327.811L423.206,334.396C423.206,340.98,423.206,354.149,423.206,370.551C423.206,386.952,423.206,406.585,423.206,416.402L423.206,426.219" id="geaf0707e-2e73-49bf-b443-bea78767a325-light-L_Service_RED_0" class="edge-thickness-normal edge-pattern-solid edge-thickness-normal edge-pattern-solid flowchart-link" style=";" data-edge="true" data-et="edge" data-id="L_Service_RED_0" data-points="W3sieCI6NDIzLjIwNjI1MzA1MTc1NzgsInkiOjMyNy44MTA5NDM2MDM1MTU2fSx7IngiOjQyMy4yMDYyNTMwNTE3NTc4LCJ5IjozNjcuMzE4NzU2MTAzNTE1Nn0seyJ4Ijo0MjMuMjA2MjUzMDUxNzU3OCwieSI6NDMwLjIxODc1NzYyOTM5NDUzfV0=" data-look="classic" marker-end="url(#geaf0707e-2e73-49bf-b443-bea78767a325-light_flowchart-v2-pointEnd)"></path><path d="M724.644,314.014L724.644,322.898C724.644,331.782,724.644,349.551,724.644,363.851C724.644,378.152,724.644,388.985,724.644,394.402L724.644,399.819" id="geaf0707e-2e73-49bf-b443-bea78767a325-light-L_UserFacing_Golden_0" class="edge-thickness-normal edge-pattern-solid edge-thickness-normal edge-pattern-solid flowchart-link" style=";" data-edge="true" data-et="edge" data-id="L_UserFacing_Golden_0" data-points="W3sieCI6NzI0LjY0Mzc1MzA1MTc1NzgsInkiOjMxNC4wMTQwNjg2MDM1MTU2fSx7IngiOjcyNC42NDM3NTMwNTE3NTc4LCJ5IjozNjcuMzE4NzU2MTAzNTE1Nn0seyJ4Ijo3MjQuNjQzNzUzMDUxNzU3OCwieSI6NDAzLjgxODc1NjEwMzUxNTZ9XQ==" data-look="classic" marker-end="url(#geaf0707e-2e73-49bf-b443-bea78767a325-light_flowchart-v2-pointEnd)"></path><path d="M423.206,514.419L423.206,522.985C423.206,531.552,423.206,548.685,431.956,561.148C440.706,573.61,458.206,581.401,466.957,585.296L475.707,589.192" id="geaf0707e-2e73-49bf-b443-bea78767a325-light-L_RED_Slo_0" class="edge-thickness-normal edge-pattern-solid edge-thickness-normal edge-pattern-solid flowchart-link" style=";" data-edge="true" data-et="edge" data-id="L_RED_Slo_0" data-points="W3sieCI6NDIzLjIwNjI1MzA1MTc1NzgsInkiOjUxNC40MTg3NTQ1Nzc2MzY3fSx7IngiOjQyMy4yMDYyNTMwNTE3NTc4LCJ5Ijo1NjUuODE4NzU2MTAzNTE1Nn0seyJ4Ijo0NzkuMzYwNzgxMTU0MzY2LCJ5Ijo1OTAuODE4NzU2MTAzNTE1Nn1d" data-look="classic" marker-end="url(#geaf0707e-2e73-49bf-b443-bea78767a325-light_flowchart-v2-pointEnd)"></path><path d="M724.644,540.819L724.644,544.985C724.644,549.152,724.644,557.485,715.894,565.548C707.144,573.61,689.644,581.401,680.893,585.296L672.143,589.192" id="geaf0707e-2e73-49bf-b443-bea78767a325-light-L_Golden_Slo_0" class="edge-thickness-normal edge-pattern-solid edge-thickness-normal edge-pattern-solid flowchart-link" style=";" data-edge="true" data-et="edge" data-id="L_Golden_Slo_0" data-points="W3sieCI6NzI0LjY0Mzc1MzA1MTc1NzgsInkiOjU0MC44MTg3NTYxMDM1MTU2fSx7IngiOjcyNC42NDM3NTMwNTE3NTc4LCJ5Ijo1NjUuODE4NzU2MTAzNTE1Nn0seyJ4Ijo2NjguNDg5MjI0OTQ5MTQ5NiwieSI6NTkwLjgxODc1NjEwMzUxNTZ9XQ==" data-look="classic" marker-end="url(#geaf0707e-2e73-49bf-b443-bea78767a325-light_flowchart-v2-pointEnd)"></path><path d="M573.925,675.019L573.925,679.185C573.925,683.352,573.925,691.685,573.925,699.352C573.925,707.019,573.925,714.019,573.925,717.519L573.925,721.019" id="geaf0707e-2e73-49bf-b443-bea78767a325-light-L_Slo_Alert_0" class="edge-thickness-normal edge-pattern-solid edge-thickness-normal edge-pattern-solid flowchart-link" style=";" data-edge="true" data-et="edge" data-id="L_Slo_Alert_0" data-points="W3sieCI6NTczLjkyNTAwMzA1MTc1NzgsInkiOjY3NS4wMTg3NTMwNTE3NTc4fSx7IngiOjU3My45MjUwMDMwNTE3NTc4LCJ5Ijo3MDAuMDE4NzUzMDUxNzU3OH0seyJ4Ijo1NzMuOTI1MDAzMDUxNzU3OCwieSI6NzI1LjAxODc1MzA1MTc1Nzh9XQ==" data-look="classic" marker-end="url(#geaf0707e-2e73-49bf-b443-bea78767a325-light_flowchart-v2-pointEnd)"></path></g><g class="edgeLabels"><g class="edgeLabel"><g class="label" data-id="L_Start_Resource_0" transform="translate(0, 0)"><text y="-10.1" text-anchor="middle"><tspan class="text-outer-tspan row" x="0" y="-0.1em" dy="1.1em" text-anchor="middle"></tspan></text></g></g><g><rect class="background" style="stroke: none"></rect></g><g class="edgeLabel"><g class="label" data-id="L_Start_Service_0" transform="translate(0, 0)"><text y="-10.1" text-anchor="middle"><tspan class="text-outer-tspan row" x="0" y="-0.1em" dy="1.1em" text-anchor="middle"></tspan></text></g></g><g><rect class="background" style="stroke: none"></rect></g><g class="edgeLabel"><g class="label" data-id="L_Start_UserFacing_0" transform="translate(0, 0)"><text y="-10.1" text-anchor="middle"><tspan class="text-outer-tspan row" x="0" y="-0.1em" dy="1.1em" text-anchor="middle"></tspan></text></g></g><g><rect class="background" style="stroke: none"></rect></g><g class="edgeLabel" transform="translate(127.40937805175781, 367.3187561035156)"><g class="label" data-id="L_Resource_USE_0" transform="translate(0, -10.5)"><g><rect class="background" style="" x="-13.546875" y="-1" width="27.09375" height="23"></rect><text y="-10.1" text-anchor="middle" style=""><tspan class="text-outer-tspan row" x="0" y="-0.1em" dy="1.1em" text-anchor="middle"><tspan font-style="normal" class="text-inner-tspan" font-weight="normal">yes</tspan></tspan></text></g></g></g><g class="edgeLabel" transform="translate(423.2062530517578, 367.3187561035156)"><g class="label" data-id="L_Service_RED_0" transform="translate(0, -10.5)"><g><rect class="background" style="" x="-13.546875" y="-1" width="27.09375" height="23"></rect><text y="-10.1" text-anchor="middle" style=""><tspan class="text-outer-tspan row" x="0" y="-0.1em" dy="1.1em" text-anchor="middle"><tspan font-style="normal" class="text-inner-tspan" font-weight="normal">yes</tspan></tspan></text></g></g></g><g class="edgeLabel" transform="translate(724.6437530517578, 367.3187561035156)"><g class="label" data-id="L_UserFacing_Golden_0" transform="translate(0, -10.5)"><g><rect class="background" style="" x="-13.546875" y="-1" width="27.09375" height="23"></rect><text y="-10.1" text-anchor="middle" style=""><tspan class="text-outer-tspan row" x="0" y="-0.1em" dy="1.1em" text-anchor="middle"><tspan font-style="normal" class="text-inner-tspan" font-weight="normal">yes</tspan></tspan></text></g></g></g><g class="edgeLabel"><g class="label" data-id="L_RED_Slo_0" transform="translate(0, 0)"><text y="-10.1" text-anchor="middle"><tspan class="text-outer-tspan row" x="0" y="-0.1em" dy="1.1em" text-anchor="middle"></tspan></text></g></g><g><rect class="background" style="stroke: none"></rect></g><g class="edgeLabel"><g class="label" data-id="L_Golden_Slo_0" transform="translate(0, 0)"><text y="-10.1" text-anchor="middle"><tspan class="text-outer-tspan row" x="0" y="-0.1em" dy="1.1em" text-anchor="middle"></tspan></text></g></g><g><rect class="background" style="stroke: none"></rect></g><g class="edgeLabel"><g class="label" data-id="L_Slo_Alert_0" transform="translate(0, 0)"><text y="-10.1" text-anchor="middle"><tspan class="text-outer-tspan row" x="0" y="-0.1em" dy="1.1em" text-anchor="middle"></tspan></text></g></g><g><rect class="background" style="stroke: none"></rect></g></g><g class="nodes"><g class="node default" id="geaf0707e-2e73-49bf-b443-bea78767a325-light-flowchart-Start-0" data-look="classic" transform="translate(423.2062530517578, 25)"><g class="basic label-container outer-path"><path d="M-62.9453125 -17 C-31.39906711461631 -17, 0.14717827076737677 -17, 62.9453125 -17 C62.9453125 -17, 62.9453125 -17, 62.9453125 -17 C63.22801709863194 -16.99093421377299, 63.51072169726388 -16.981868427545987, 64.03450623967211 -16.965071676755716 C64.33268824820539 -16.936306417008844, 64.63087025673866 -16.907541157261974, 65.1192242486366 -16.860430234995185 C65.52467609430795 -16.794879924913065, 65.9301279399793 -16.72932961483095, 66.19500918792333 -16.686505668848113 C66.57552203883418 -16.59965609370612, 66.95603488974503 -16.512806518564126, 67.25744042646163 -16.4440126716635 C67.49909868464016 -16.372289769126198, 67.74075694281868 -16.30056686658889, 68.30215220640156 -16.133947699181366 C68.61682584966057 -16.01814488965078, 68.93149949291957 -15.902342080120194, 69.32485158294936 -15.757584874882369 C69.60134298070166 -15.635190334923331, 69.87783437845395 -15.512795794964294, 70.32133606499849 -15.316470754341125 C70.67962876331049 -15.129549683129182, 71.03792146162247 -14.94262861191724, 71.28751088406693 -14.812417970097622 C71.60321888675422 -14.621033923562432, 71.9189268894415 -14.429649877027241, 72.21940582057933 -14.247497783161291 C72.51429012868223 -14.041799255164655, 72.80917443678516 -13.83610072716802, 73.11319151835067 -13.624031571755262 C73.40066118510924 -13.394782162404418, 73.6881308518678 -13.165532753053572, 73.9651952202324 -12.944581292275288 C74.14261219649364 -12.783455888630783, 74.32002917275489 -12.622330484986279, 74.77191586025927 -12.21193895166137 C74.99385525795219 -11.982768301980009, 75.2157946556451 -11.753597652298648, 75.53003845028036 -11.42911513444239 C75.78828426624676 -11.125764904405036, 76.04653008221318 -10.822414674367685, 76.23644770195651 -10.59932663159847 C76.40689097228139 -10.370948177064486, 76.57733424260627 -10.142569722530501, 76.88824082814824 -9.725983222076888 C77.04654992716485 -9.48277793404206, 77.20485902618145 -9.239572646007232, 77.48273947109088 -8.812673661278927 C77.62748995197468 -8.555654524894152, 77.77224043285847 -8.298635388509377, 78.017500708341 -7.863150934094199 C78.18206161420663 -7.521436692024885, 78.34662252007227 -7.17972244995557, 78.49032709126881 -6.881316833080699 C78.596812015122 -6.618297012417387, 78.70329693897517 -6.355277191754075, 78.89927567484592 -5.871205925162238 C78.97347025376122 -5.647743674770171, 79.0476648326765 -5.424281424378103, 79.24266600162323 -4.836968972727556 C79.29873905938112 -4.623138101279755, 79.35481211713902 -4.4093072298319544, 79.519087007091 -3.7828558772573464 C79.58621985412334 -3.438142896278482, 79.6533527011557 -3.093429915299618, 79.72740281804565 -2.713198215567453 C79.76512088718067 -2.4206643196313746, 79.80283895631571 -2.1281304236952963, 79.86675742013637 -1.632391440430593 C79.88761627722403 -1.3074979043238935, 79.90847513431169 -0.982604368217194, 79.9365781754117 -0.5448768187181379 C79.9365781754117 -0.26611018729968067, 79.9365781754117 0.012656444118776533, 79.9365781754117 0.5448768187181336 C79.92167091957731 0.7770693612590089, 79.90676366374292 1.0092619037998842, 79.86675742013637 1.6323914404305815 C79.81452276619274 2.037513101518227, 79.76228811224911 2.442634762605872, 79.72740281804565 2.7131982155674415 C79.66486057162652 3.034339432621244, 79.60231832520738 3.355480649675046, 79.519087007091 3.782855877257343 C79.44923163590937 4.049244683082278, 79.37937626472774 4.3156334889072125, 79.24266600162323 4.836968972727545 C79.12422540016017 5.193693193387185, 79.00578479869709 5.550417414046825, 78.89927567484592 5.871205925162227 C78.77241353092813 6.184557873351868, 78.64555138701034 6.497909821541509, 78.49032709126881 6.881316833080694 C78.34096845108289 7.1914632451897145, 78.19160981089696 7.501609657298735, 78.017500708341 7.863150934094196 C77.88180688581764 8.104089056473933, 77.74611306329426 8.345027178853671, 77.48273947109088 8.812673661278923 C77.27920607297585 9.125355617153613, 77.07567267486083 9.438037573028302, 76.88824082814826 9.725983222076879 C76.73783959127054 9.927507177658457, 76.58743835439283 10.129031133240035, 76.23644770195651 10.599326631598467 C76.0230755054227 10.849965754869014, 75.80970330888888 11.100604878139563, 75.53003845028037 11.42911513444238 C75.32198211413103 11.643950383259453, 75.11392577798168 11.858785632076527, 74.77191586025927 12.211938951661365 C74.5228184267316 12.438162650034261, 74.27372099320394 12.66438634840716, 73.96519522023242 12.944581292275275 C73.75472308466254 13.112427219493501, 73.54425094909267 13.280273146711725, 73.11319151835067 13.62403157175526 C72.84758730701536 13.80930557176178, 72.58198309568004 13.994579571768298, 72.21940582057934 14.247497783161286 C71.95252770060793 14.409280867837873, 71.68564958063652 14.57106395251446, 71.28751088406695 14.81241797009762 C70.92273489099726 15.002721372031898, 70.55795889792758 15.193024773966178, 70.32133606499849 15.316470754341124 C70.04340086718125 15.439504421760104, 69.76546566936402 15.562538089179084, 69.32485158294936 15.757584874882367 C69.10837853108907 15.837248959021908, 68.89190547922878 15.91691304316145, 68.30215220640156 16.133947699181363 C67.92575188264274 16.24566133950736, 67.54935155888394 16.35737497983336, 67.25744042646164 16.444012671663497 C66.96117076770325 16.511634287934896, 66.66490110894486 16.579255904206295, 66.19500918792333 16.68650566884811 C65.89194952130973 16.735502005483383, 65.58888985469612 16.784498342118653, 65.11922424863661 16.86043023499518 C64.75546346109928 16.895521800682555, 64.39170267356194 16.93061336636993, 64.03450623967211 16.965071676755716 C63.714845738414816 16.975322566849616, 63.39518523715753 16.98557345694352, 62.9453125 17 C62.9453125 17, 62.9453125 17, 62.9453125 17 C21.385909148535205 17, -20.17349420292959 17, -62.9453125 17 C-63.36030473487186 16.986692006761043, -63.77529696974372 16.973384013522082, -64.03450623967211 16.965071676755716 C-64.35891650720029 16.933776208407703, -64.68332677472846 16.902480740059687, -65.1192242486366 16.86043023499518 C-65.37793409125393 16.818604033965606, -65.63664393387126 16.77677783293603, -66.19500918792333 16.68650566884811 C-66.60672547882422 16.592534112149863, -67.01844176972511 16.49856255545162, -67.25744042646161 16.4440126716635 C-67.57899745198067 16.34857623437672, -67.90055447749971 16.253139797089936, -68.30215220640154 16.13394769918137 C-68.53284258105323 16.049051508831102, -68.76353295570492 15.964155318480834, -69.32485158294936 15.757584874882369 C-69.55342233808672 15.656403381893607, -69.78199309322407 15.555221888904846, -70.32133606499849 15.316470754341127 C-70.681558677541 15.128542848111293, -71.0417812900835 14.940614941881458, -71.28751088406693 14.812417970097624 C-71.57467467894912 14.638337590078264, -71.86183847383131 14.464257210058902, -72.21940582057931 14.247497783161299 C-72.50321301929876 14.04952616715024, -72.78702021801818 13.851554551139182, -73.11319151835067 13.624031571755264 C-73.39441325344744 13.399764721640258, -73.6756349885442 13.175497871525252, -73.9651952202324 12.94458129227529 C-74.13094262384809 12.794053885747507, -74.29669002746378 12.643526479219723, -74.77191586025926 12.211938951661377 C-74.94306015212969 12.03521841909748, -75.11420444400011 11.858497886533582, -75.53003845028036 11.429115134442386 C-75.77519091262526 11.14114510260178, -76.02034337497017 10.853175070761175, -76.23644770195651 10.599326631598473 C-76.46339885923899 10.29523275651571, -76.69035001652148 9.991138881432946, -76.88824082814824 9.72598322207689 C-77.02871662706531 9.51017467190655, -77.16919242598237 9.294366121736209, -77.48273947109088 8.812673661278936 C-77.65916735858347 8.499408081774982, -77.83559524607607 8.186142502271029, -78.017500708341 7.863150934094201 C-78.16547084031205 7.555887789002674, -78.31344097228312 7.248624643911147, -78.49032709126881 6.881316833080701 C-78.61739177856305 6.567464598835321, -78.7444564658573 6.253612364589942, -78.89927567484592 5.87120592516224 C-78.99925969278893 5.570069993407812, -79.09924371073193 5.268934061653384, -79.24266600162323 4.8369689727275516 C-79.30398005192494 4.603151925249674, -79.36529410222663 4.369334877771796, -79.519087007091 3.782855877257349 C-79.60211144437305 3.3565429390350685, -79.68513588165509 2.930230000812788, -79.72740281804565 2.713198215567455 C-79.75581714654727 2.492822294752637, -79.7842314750489 2.272446373937819, -79.86675742013637 1.6323914404306026 C-79.88394836552031 1.3646285897943995, -79.90113931090424 1.0968657391581964, -79.9365781754117 0.54487681871814 C-79.9365781754117 0.2612173965557518, -79.9365781754117 -0.02244202560663633, -79.9365781754117 -0.5448768187181317 C-79.91177417733543 -0.9312191101827669, -79.88697017925917 -1.3175614016474024, -79.86675742013637 -1.6323914404305793 C-79.8381285119031 -1.8544315992704643, -79.80949960366982 -2.0764717581103493, -79.72740281804565 -2.713198215567447 C-79.6556690636435 -3.0815358834881135, -79.58393530924135 -3.44987355140878, -79.519087007091 -3.782855877257341 C-79.45291022381855 -4.035216633074513, -79.3867334405461 -4.287577388891686, -79.24266600162323 -4.836968972727544 C-79.13786570691775 -5.152610762721072, -79.03306541221228 -5.468252552714601, -78.89927567484594 -5.871205925162218 C-78.78599390006312 -6.151014099029912, -78.67271212528028 -6.430822272897607, -78.49032709126881 -6.881316833080692 C-78.34917908713868 -7.1744136837404024, -78.20803108300854 -7.467510534400112, -78.017500708341 -7.863150934094194 C-77.87816920010374 -8.110548135814565, -77.7388376918665 -8.357945337534934, -77.48273947109088 -8.812673661278929 C-77.2793084835718 -9.125198286977163, -77.07587749605271 -9.437722912675397, -76.88824082814826 -9.725983222076884 C-76.66442120529527 -10.025881126312772, -76.44060158244228 -10.325779030548658, -76.23644770195651 -10.599326631598467 C-75.99300683966919 -10.885286120618627, -75.74956597738188 -11.171245609638786, -75.53003845028037 -11.42911513444238 C-75.3120613205371 -11.654194417157482, -75.09408419079382 -11.879273699872586, -74.77191586025927 -12.21193895166136 C-74.60806189481562 -12.360746787738929, -74.44420792937197 -12.509554623816497, -73.96519522023242 -12.944581292275274 C-73.71374287858004 -13.145107843315213, -73.46229053692765 -13.345634394355153, -73.11319151835067 -13.624031571755259 C-72.75621180117629 -13.873045169053215, -72.39923208400192 -14.12205876635117, -72.21940582057934 -14.247497783161284 C-71.88624584758436 -14.449461316656159, -71.55308587458939 -14.651424850151033, -71.28751088406695 -14.812417970097618 C-71.02322371246674 -14.950296418237432, -70.75893654086653 -15.088174866377248, -70.32133606499849 -15.316470754341124 C-70.0106044614324 -15.45402241771431, -69.69987285786631 -15.591574081087497, -69.32485158294936 -15.757584874882365 C-68.99912671733003 -15.877454636397932, -68.6734018517107 -15.9973243979135, -68.30215220640156 -16.133947699181363 C-67.9036481526887 -16.252221610532875, -67.50514409897585 -16.370495521884386, -67.25744042646164 -16.444012671663494 C-66.8467725134133 -16.537744942958202, -66.43610460036494 -16.631477214252907, -66.19500918792333 -16.68650566884811 C-65.83127219815826 -16.745311844530843, -65.46753520839319 -16.804118020213572, -65.11922424863661 -16.86043023499518 C-64.70611743015247 -16.900282152940708, -64.29301061166835 -16.940134070886234, -64.03450623967213 -16.965071676755716 C-63.78524219819519 -16.97306508940286, -63.53597815671826 -16.98105850205, -62.94531250000001 -17 C-62.94531250000001 -17, -62.9453125 -17, -62.9453125 -17" stroke="none" stroke-width="0" fill="#ECECFF" style=""></path><path d="M-62.9453125 -17 C-22.237824458404873 -17, 18.469663583190254 -17, 62.9453125 -17 M-62.9453125 -17 C-20.622588473397457 -17, 21.700135553205087 -17, 62.9453125 -17 M62.9453125 -17 C62.9453125 -17, 62.9453125 -17, 62.9453125 -17 M62.9453125 -17 C62.9453125 -17, 62.9453125 -17, 62.9453125 -17 M62.9453125 -17 C63.36646238256244 -16.98649454298474, 63.78761226512487 -16.972989085969477, 64.03450623967211 -16.965071676755716 M62.9453125 -17 C63.20838888086396 -16.991563652512802, 63.471465261727914 -16.983127305025608, 64.03450623967211 -16.965071676755716 M64.03450623967211 -16.965071676755716 C64.36950119768028 -16.93275511604705, 64.70449615568843 -16.900438555338386, 65.1192242486366 -16.860430234995185 M64.03450623967211 -16.965071676755716 C64.44222187508491 -16.925739839757238, 64.84993751049771 -16.886408002758756, 65.1192242486366 -16.860430234995185 M65.1192242486366 -16.860430234995185 C65.49278468298995 -16.800035880973372, 65.86634511734331 -16.739641526951555, 66.19500918792333 -16.686505668848113 M65.1192242486366 -16.860430234995185 C65.43254448968702 -16.809775048256913, 65.74586473073744 -16.75911986151864, 66.19500918792333 -16.686505668848113 M66.19500918792333 -16.686505668848113 C66.6071362088825 -16.592440365694333, 67.01926322984164 -16.49837506254055, 67.25744042646163 -16.4440126716635 M66.19500918792333 -16.686505668848113 C66.49955943171602 -16.6169940630785, 66.80410967550873 -16.547482457308888, 67.25744042646163 -16.4440126716635 M67.25744042646163 -16.4440126716635 C67.61785296293458 -16.33704412268234, 67.97826549940753 -16.23007557370118, 68.30215220640156 -16.133947699181366 M67.25744042646163 -16.4440126716635 C67.474300164911 -16.379649839611723, 67.69115990336037 -16.315287007559945, 68.30215220640156 -16.133947699181366 M68.30215220640156 -16.133947699181366 C68.70752881589965 -15.984765359625767, 69.11290542539774 -15.83558302007017, 69.32485158294936 -15.757584874882369 M68.30215220640156 -16.133947699181366 C68.62135501032265 -16.016478116660032, 68.94055781424373 -15.8990085341387, 69.32485158294936 -15.757584874882369 M69.32485158294936 -15.757584874882369 C69.58208514058629 -15.643715209478877, 69.83931869822321 -15.529845544075384, 70.32133606499849 -15.316470754341125 M69.32485158294936 -15.757584874882369 C69.5829469783853 -15.643333699450764, 69.84104237382124 -15.52908252401916, 70.32133606499849 -15.316470754341125 M70.32133606499849 -15.316470754341125 C70.64601919072673 -15.14708377561817, 70.97070231645496 -14.977696796895216, 71.28751088406693 -14.812417970097622 M70.32133606499849 -15.316470754341125 C70.67171118767942 -15.13368027726446, 71.02208631036035 -14.950889800187795, 71.28751088406693 -14.812417970097622 M71.28751088406693 -14.812417970097622 C71.61188594340253 -14.615779902888951, 71.9362610027381 -14.419141835680279, 72.21940582057933 -14.247497783161291 M71.28751088406693 -14.812417970097622 C71.59449755409302 -14.626320846673883, 71.90148422411913 -14.440223723250146, 72.21940582057933 -14.247497783161291 M72.21940582057933 -14.247497783161291 C72.44521771932288 -14.089981177837332, 72.67102961806644 -13.932464572513375, 73.11319151835067 -13.624031571755262 M72.21940582057933 -14.247497783161291 C72.42682092963611 -14.102813981938642, 72.63423603869288 -13.958130180715992, 73.11319151835067 -13.624031571755262 M73.11319151835067 -13.624031571755262 C73.34930312914291 -13.435738845342293, 73.58541473993515 -13.247446118929325, 73.9651952202324 -12.944581292275288 M73.11319151835067 -13.624031571755262 C73.32008486325299 -13.459039634858803, 73.52697820815528 -13.294047697962343, 73.9651952202324 -12.944581292275288 M73.9651952202324 -12.944581292275288 C74.18030599563092 -12.749223377577593, 74.39541677102942 -12.553865462879898, 74.77191586025927 -12.21193895166137 M73.9651952202324 -12.944581292275288 C74.1675149087044 -12.760839904290636, 74.3698345971764 -12.577098516305982, 74.77191586025927 -12.21193895166137 M74.77191586025927 -12.21193895166137 C75.05548609373687 -11.91912940404659, 75.3390563272145 -11.626319856431811, 75.53003845028036 -11.42911513444239 M74.77191586025927 -12.21193895166137 C75.04443369304059 -11.930541915184477, 75.31695152582192 -11.649144878707583, 75.53003845028036 -11.42911513444239 M75.53003845028036 -11.42911513444239 C75.7408256032595 -11.18151255042431, 75.95161275623863 -10.933909966406231, 76.23644770195651 -10.59932663159847 M75.53003845028036 -11.42911513444239 C75.77848531236496 -11.137275313210882, 76.02693217444956 -10.845435491979375, 76.23644770195651 -10.59932663159847 M76.23644770195651 -10.59932663159847 C76.45257897607598 -10.309730414242507, 76.66871025019546 -10.020134196886543, 76.88824082814824 -9.725983222076888 M76.23644770195651 -10.59932663159847 C76.38731519710105 -10.397177932416334, 76.5381826922456 -10.195029233234196, 76.88824082814824 -9.725983222076888 M76.88824082814824 -9.725983222076888 C77.12427734960482 -9.363367740438868, 77.36031387106142 -9.000752258800846, 77.48273947109088 -8.812673661278927 M76.88824082814824 -9.725983222076888 C77.04694018153855 -9.482178398526084, 77.20563953492886 -9.238373574975281, 77.48273947109088 -8.812673661278927 M77.48273947109088 -8.812673661278927 C77.6876835328639 -8.448774726764327, 77.8926275946369 -8.084875792249727, 78.017500708341 -7.863150934094199 M77.48273947109088 -8.812673661278927 C77.68533792657398 -8.452939588250473, 77.88793638205708 -8.093205515222017, 78.017500708341 -7.863150934094199 M78.017500708341 -7.863150934094199 C78.13234593535466 -7.624672362906118, 78.24719116236832 -7.3861937917180365, 78.49032709126881 -6.881316833080699 M78.017500708341 -7.863150934094199 C78.1985058491186 -7.487289886379909, 78.37951098989622 -7.111428838665618, 78.49032709126881 -6.881316833080699 M78.49032709126881 -6.881316833080699 C78.62731257130567 -6.54296004895558, 78.76429805134252 -6.204603264830462, 78.89927567484592 -5.871205925162238 M78.49032709126881 -6.881316833080699 C78.58682443490041 -6.642966528661449, 78.68332177853199 -6.404616224242199, 78.89927567484592 -5.871205925162238 M78.89927567484592 -5.871205925162238 C79.02192670053525 -5.501800577573113, 79.14457772622457 -5.132395229983987, 79.24266600162323 -4.836968972727556 M78.89927567484592 -5.871205925162238 C79.01260307339454 -5.529881857002678, 79.12593047194316 -5.188557788843117, 79.24266600162323 -4.836968972727556 M79.24266600162323 -4.836968972727556 C79.33601429538838 -4.480991471194631, 79.42936258915351 -4.125013969661706, 79.519087007091 -3.7828558772573464 M79.24266600162323 -4.836968972727556 C79.30789611785491 -4.588218268624989, 79.37312623408657 -4.339467564522423, 79.519087007091 -3.7828558772573464 M79.519087007091 -3.7828558772573464 C79.58233869968323 -3.4580718040462006, 79.64559039227547 -3.1332877308350544, 79.72740281804565 -2.713198215567453 M79.519087007091 -3.7828558772573464 C79.60040929446389 -3.365283119069065, 79.68173158183679 -2.947710360880784, 79.72740281804565 -2.713198215567453 M79.72740281804565 -2.713198215567453 C79.75844240928497 -2.472461275375883, 79.78948200052429 -2.2317243351843135, 79.86675742013637 -1.632391440430593 M79.72740281804565 -2.713198215567453 C79.76349226227569 -2.433295612786115, 79.79958170650572 -2.153393010004777, 79.86675742013637 -1.632391440430593 M79.86675742013637 -1.632391440430593 C79.89014544251974 -1.2681041133377284, 79.91353346490311 -0.903816786244864, 79.9365781754117 -0.5448768187181379 M79.86675742013637 -1.632391440430593 C79.883001303336 -1.379379847769881, 79.89924518653562 -1.1263682551091692, 79.9365781754117 -0.5448768187181379 M79.9365781754117 -0.5448768187181379 C79.9365781754117 -0.11525449396885429, 79.9365781754117 0.3143678307804293, 79.9365781754117 0.5448768187181336 M79.9365781754117 -0.5448768187181379 C79.9365781754117 -0.2621487898298388, 79.9365781754117 0.020579239058460264, 79.9365781754117 0.5448768187181336 M79.9365781754117 0.5448768187181336 C79.9100006128509 0.9588438086249098, 79.8834230502901 1.372810798531686, 79.86675742013637 1.6323914404305815 M79.9365781754117 0.5448768187181336 C79.90974170204238 0.962876553456696, 79.88290522867305 1.3808762881952583, 79.86675742013637 1.6323914404305815 M79.86675742013637 1.6323914404305815 C79.8159919216074 2.02611862223968, 79.76522642307843 2.4198458040487787, 79.72740281804565 2.7131982155674415 M79.86675742013637 1.6323914404305815 C79.82337638114302 1.9688462123078412, 79.77999534214969 2.305300984185101, 79.72740281804565 2.7131982155674415 M79.72740281804565 2.7131982155674415 C79.6616334159892 3.050910194759258, 79.59586401393275 3.3886221739510742, 79.519087007091 3.782855877257343 M79.72740281804565 2.7131982155674415 C79.64643859116187 3.1289324088202743, 79.56547436427807 3.544666602073107, 79.519087007091 3.782855877257343 M79.519087007091 3.782855877257343 C79.41199771741105 4.191233751598724, 79.3049084277311 4.599611625940105, 79.24266600162323 4.836968972727545 M79.519087007091 3.782855877257343 C79.46168530959285 4.0017534278708595, 79.4042836120947 4.220650978484377, 79.24266600162323 4.836968972727545 M79.24266600162323 4.836968972727545 C79.10684248267671 5.246047771255551, 78.9710189637302 5.655126569783556, 78.89927567484592 5.871205925162227 M79.24266600162323 4.836968972727545 C79.13779410046737 5.152826429940688, 79.03292219931151 5.46868388715383, 78.89927567484592 5.871205925162227 M78.89927567484592 5.871205925162227 C78.78748266941913 6.147336809937119, 78.67568966399234 6.423467694712013, 78.49032709126881 6.881316833080694 M78.89927567484592 5.871205925162227 C78.76090569449251 6.212982451836729, 78.6225357141391 6.554758978511232, 78.49032709126881 6.881316833080694 M78.49032709126881 6.881316833080694 C78.32875123043566 7.2168325652703285, 78.1671753696025 7.552348297459964, 78.017500708341 7.863150934094196 M78.49032709126881 6.881316833080694 C78.31259916841402 7.2503726676570155, 78.13487124555924 7.619428502233337, 78.017500708341 7.863150934094196 M78.017500708341 7.863150934094196 C77.87313930521569 8.119479223520402, 77.72877790209037 8.37580751294661, 77.48273947109088 8.812673661278923 M78.017500708341 7.863150934094196 C77.8897022160747 8.090070098113644, 77.76190372380839 8.316989262133093, 77.48273947109088 8.812673661278923 M77.48273947109088 8.812673661278923 C77.25348282345858 9.16487343607181, 77.02422617582627 9.517073210864694, 76.88824082814826 9.725983222076879 M77.48273947109088 8.812673661278923 C77.2466317346428 9.175398548267772, 77.01052399819474 9.53812343525662, 76.88824082814826 9.725983222076879 M76.88824082814826 9.725983222076879 C76.6918599557247 9.989115700458918, 76.49547908330115 10.252248178840954, 76.23644770195651 10.599326631598467 M76.88824082814826 9.725983222076879 C76.75093004906346 9.909967156781198, 76.61361926997866 10.093951091485518, 76.23644770195651 10.599326631598467 M76.23644770195651 10.599326631598467 C76.04924594876536 10.819224462978303, 75.86204419557421 11.03912229435814, 75.53003845028037 11.42911513444238 M76.23644770195651 10.599326631598467 C76.03790206847687 10.832549630250249, 75.83935643499723 11.06577262890203, 75.53003845028037 11.42911513444238 M75.53003845028037 11.42911513444238 C75.29162651109914 11.675295035631242, 75.05321457191789 11.921474936820104, 74.77191586025927 12.211938951661365 M75.53003845028037 11.42911513444238 C75.30016976668233 11.666473422827261, 75.07030108308429 11.903831711212144, 74.77191586025927 12.211938951661365 M74.77191586025927 12.211938951661365 C74.48579198255838 12.47178908696636, 74.19966810485748 12.731639222271356, 73.96519522023242 12.944581292275275 M74.77191586025927 12.211938951661365 C74.48482895239765 12.472663685477947, 74.19774204453604 12.733388419294528, 73.96519522023242 12.944581292275275 M73.96519522023242 12.944581292275275 C73.69544709041388 13.159698247506357, 73.42569896059534 13.374815202737441, 73.11319151835067 13.62403157175526 M73.96519522023242 12.944581292275275 C73.76426090467437 13.104821061846117, 73.56332658911633 13.265060831416957, 73.11319151835067 13.62403157175526 M73.11319151835067 13.62403157175526 C72.81978160601584 13.828701625089648, 72.52637169368101 14.033371678424036, 72.21940582057934 14.247497783161286 M73.11319151835067 13.62403157175526 C72.7929777300042 13.84739884867428, 72.47276394165772 14.0707661255933, 72.21940582057934 14.247497783161286 M72.21940582057934 14.247497783161286 C71.95082947941744 14.410310339503402, 71.68225313825555 14.573122895845518, 71.28751088406695 14.81241797009762 M72.21940582057934 14.247497783161286 C71.88976740775414 14.447326526186258, 71.56012899492895 14.647155269211229, 71.28751088406695 14.81241797009762 M71.28751088406695 14.81241797009762 C71.00910316387896 14.957663099391034, 70.73069544369098 15.102908228684448, 70.32133606499849 15.316470754341124 M71.28751088406695 14.81241797009762 C70.90217141630447 15.013449323607597, 70.51683194854198 15.214480677117574, 70.32133606499849 15.316470754341124 M70.32133606499849 15.316470754341124 C70.009376408341 15.45456604038897, 69.69741675168352 15.592661326436819, 69.32485158294936 15.757584874882367 M70.32133606499849 15.316470754341124 C69.98719599052146 15.464384653398966, 69.65305591604444 15.612298552456808, 69.32485158294936 15.757584874882367 M69.32485158294936 15.757584874882367 C69.06228982923135 15.854210027344841, 68.79972807551333 15.950835179807317, 68.30215220640156 16.133947699181363 M69.32485158294936 15.757584874882367 C68.95844179623056 15.892427063449823, 68.59203200951177 16.02726925201728, 68.30215220640156 16.133947699181363 M68.30215220640156 16.133947699181363 C68.05898095490501 16.206119650193592, 67.81580970340846 16.278291601205822, 67.25744042646164 16.444012671663497 M68.30215220640156 16.133947699181363 C67.9339243039796 16.2432358077525, 67.56569640155762 16.35252391632364, 67.25744042646164 16.444012671663497 M67.25744042646164 16.444012671663497 C67.00740512656824 16.501081597231348, 66.75736982667485 16.5581505227992, 66.19500918792333 16.68650566884811 M67.25744042646164 16.444012671663497 C66.93502280487954 16.517602389818006, 66.61260518329743 16.591192107972514, 66.19500918792333 16.68650566884811 M66.19500918792333 16.68650566884811 C65.94577271586756 16.72680028879238, 65.69653624381179 16.76709490873665, 65.11922424863661 16.86043023499518 M66.19500918792333 16.68650566884811 C65.8727397373701 16.738607694376643, 65.55047028681686 16.790709719905173, 65.11922424863661 16.86043023499518 M65.11922424863661 16.86043023499518 C64.79135355438918 16.89205952654703, 64.46348286014174 16.923688818098878, 64.03450623967211 16.965071676755716 M65.11922424863661 16.86043023499518 C64.88028735043503 16.883480190201027, 64.64135045223344 16.90653014540687, 64.03450623967211 16.965071676755716 M64.03450623967211 16.965071676755716 C63.81402836937235 16.97214197292209, 63.593550499072585 16.979212269088464, 62.9453125 17 M64.03450623967211 16.965071676755716 C63.80061736582028 16.97257203770307, 63.56672849196844 16.980072398650425, 62.9453125 17 M62.9453125 17 C62.9453125 17, 62.9453125 17, 62.9453125 17 M62.9453125 17 C62.9453125 17, 62.9453125 17, 62.9453125 17 M62.9453125 17 C24.91946490440285 17, -13.106382691194298 17, -62.9453125 17 M62.9453125 17 C21.937141150224 17, -19.071030199552 17, -62.9453125 17 M-62.9453125 17 C-63.31751826371991 16.98806408561207, -63.689724027439816 16.976128171224143, -64.03450623967211 16.965071676755716 M-62.9453125 17 C-63.17814551185216 16.992533498491866, -63.41097852370431 16.985066996983733, -64.03450623967211 16.965071676755716 M-64.03450623967211 16.965071676755716 C-64.29962571935444 16.939495919403587, -64.56474519903676 16.913920162051458, -65.1192242486366 16.86043023499518 M-64.03450623967211 16.965071676755716 C-64.44169132171574 16.925791021602677, -64.84887640375938 16.886510366449635, -65.1192242486366 16.86043023499518 M-65.1192242486366 16.86043023499518 C-65.46965124025296 16.803775916592556, -65.8200782318693 16.747121598189935, -66.19500918792333 16.68650566884811 M-65.1192242486366 16.86043023499518 C-65.36692623206947 16.820383699271325, -65.61462821550234 16.780337163547472, -66.19500918792333 16.68650566884811 M-66.19500918792333 16.68650566884811 C-66.60519889213329 16.59288254560016, -67.01538859634326 16.49925942235221, -67.25744042646161 16.4440126716635 M-66.19500918792333 16.68650566884811 C-66.61183244403391 16.591368480666816, -67.02865570014448 16.496231292485522, -67.25744042646161 16.4440126716635 M-67.25744042646161 16.4440126716635 C-67.5146466192454 16.36767522374813, -67.77185281202918 16.291337775832762, -68.30215220640154 16.13394769918137 M-67.25744042646161 16.4440126716635 C-67.66702928501178 16.322448848421605, -68.07661814356194 16.20088502517971, -68.30215220640154 16.13394769918137 M-68.30215220640154 16.13394769918137 C-68.63013356562332 16.013247527161305, -68.95811492484512 15.892547355141238, -69.32485158294936 15.757584874882369 M-68.30215220640154 16.13394769918137 C-68.5701495526892 16.035322198407197, -68.83814689897686 15.936696697633028, -69.32485158294936 15.757584874882369 M-69.32485158294936 15.757584874882369 C-69.66607644884841 15.606534748824872, -70.00730131474745 15.455484622767376, -70.32133606499849 15.316470754341127 M-69.32485158294936 15.757584874882369 C-69.6897971476233 15.59603429912676, -70.05474271229723 15.43448372337115, -70.32133606499849 15.316470754341127 M-70.32133606499849 15.316470754341127 C-70.6553470401374 15.142217442555395, -70.98935801527632 14.967964130769662, -71.28751088406693 14.812417970097624 M-70.32133606499849 15.316470754341127 C-70.69050887730026 15.12387353462976, -71.05968168960204 14.931276314918394, -71.28751088406693 14.812417970097624 M-71.28751088406693 14.812417970097624 C-71.60949957896635 14.617226531033994, -71.93148827386577 14.422035091970365, -72.21940582057931 14.247497783161299 M-71.28751088406693 14.812417970097624 C-71.59036684914258 14.628824904289564, -71.89322281421822 14.445231838481504, -72.21940582057931 14.247497783161299 M-72.21940582057931 14.247497783161299 C-72.47869741286621 14.066627192934083, -72.73798900515311 13.885756602706868, -73.11319151835067 13.624031571755264 M-72.21940582057931 14.247497783161299 C-72.48198552708274 14.064333546796798, -72.74456523358617 13.881169310432298, -73.11319151835067 13.624031571755264 M-73.11319151835067 13.624031571755264 C-73.32248557640456 13.457125130006084, -73.53177963445845 13.290218688256903, -73.9651952202324 12.94458129227529 M-73.11319151835067 13.624031571755264 C-73.38340826250788 13.408540909059449, -73.65362500666508 13.193050246363633, -73.9651952202324 12.94458129227529 M-73.9651952202324 12.94458129227529 C-74.14414758626995 12.782061488260132, -74.3230999523075 12.619541684244973, -74.77191586025926 12.211938951661377 M-73.9651952202324 12.94458129227529 C-74.13076315917365 12.79421687081645, -74.29633109811492 12.643852449357611, -74.77191586025926 12.211938951661377 M-74.77191586025926 12.211938951661377 C-75.01160566419867 11.964439550195053, -75.25129546813808 11.716940148728726, -75.53003845028036 11.429115134442386 M-74.77191586025926 12.211938951661377 C-75.05206576734898 11.922661171856106, -75.33221567443871 11.633383392050836, -75.53003845028036 11.429115134442386 M-75.53003845028036 11.429115134442386 C-75.69311861225255 11.237551896665765, -75.85619877422472 11.045988658889145, -76.23644770195651 10.599326631598473 M-75.53003845028036 11.429115134442386 C-75.79498128764793 11.117898201995924, -76.05992412501548 10.806681269549463, -76.23644770195651 10.599326631598473 M-76.23644770195651 10.599326631598473 C-76.40529650048212 10.373084624016133, -76.57414529900774 10.146842616433796, -76.88824082814824 9.72598322207689 M-76.23644770195651 10.599326631598473 C-76.4579021581833 10.302597835170564, -76.6793566144101 10.005869038742656, -76.88824082814824 9.72598322207689 M-76.88824082814824 9.72598322207689 C-77.0321100595356 9.504961448367972, -77.17597929092295 9.283939674659054, -77.48273947109088 8.812673661278936 M-76.88824082814824 9.72598322207689 C-77.07446644244021 9.439890669945129, -77.26069205673218 9.153798117813368, -77.48273947109088 8.812673661278936 M-77.48273947109088 8.812673661278936 C-77.65232745118998 8.511553029967873, -77.82191543128907 8.21043239865681, -78.017500708341 7.863150934094201 M-77.48273947109088 8.812673661278936 C-77.61732591544242 8.573701800977478, -77.75191235979396 8.334729940676018, -78.017500708341 7.863150934094201 M-78.017500708341 7.863150934094201 C-78.16595530281607 7.554881792247257, -78.31440989729113 7.246612650400313, -78.49032709126881 6.881316833080701 M-78.017500708341 7.863150934094201 C-78.1779209228501 7.530034926223316, -78.33834113735922 7.196918918352431, -78.49032709126881 6.881316833080701 M-78.49032709126881 6.881316833080701 C-78.65110046074608 6.484203502130213, -78.81187383022335 6.0870901711797245, -78.89927567484592 5.87120592516224 M-78.49032709126881 6.881316833080701 C-78.60906890198147 6.588022264903688, -78.72781071269414 6.2947276967266745, -78.89927567484592 5.87120592516224 M-78.89927567484592 5.87120592516224 C-79.0270276752192 5.486437254554986, -79.15477967559248 5.101668583947733, -79.24266600162323 4.8369689727275516 M-78.89927567484592 5.87120592516224 C-79.00126094330041 5.564042545723195, -79.1032462117549 5.2568791662841505, -79.24266600162323 4.8369689727275516 M-79.24266600162323 4.8369689727275516 C-79.3495840044525 4.429244289384041, -79.45650200728176 4.02151960604053, -79.519087007091 3.782855877257349 M-79.24266600162323 4.8369689727275516 C-79.34580756107061 4.443645504720031, -79.44894912051801 4.050322036712512, -79.519087007091 3.782855877257349 M-79.519087007091 3.782855877257349 C-79.58026078880955 3.468741437215893, -79.64143457052812 3.1546269971744367, -79.72740281804565 2.713198215567455 M-79.519087007091 3.782855877257349 C-79.5682504371127 3.530412054790592, -79.61741386713437 3.2779682323238353, -79.72740281804565 2.713198215567455 M-79.72740281804565 2.713198215567455 C-79.77366477792535 2.3543995901977572, -79.81992673780505 1.9956009648280593, -79.86675742013637 1.6323914404306026 M-79.72740281804565 2.713198215567455 C-79.77432051686101 2.349313808503091, -79.82123821567637 1.985429401438727, -79.86675742013637 1.6323914404306026 M-79.86675742013637 1.6323914404306026 C-79.88631790727536 1.327721064299913, -79.90587839441433 1.0230506881692234, -79.9365781754117 0.54487681871814 M-79.86675742013637 1.6323914404306026 C-79.88115337617508 1.4081628049211774, -79.89554933221378 1.1839341694117522, -79.9365781754117 0.54487681871814 M-79.9365781754117 0.54487681871814 C-79.9365781754117 0.18310674341736444, -79.9365781754117 -0.1786633318834111, -79.9365781754117 -0.5448768187181317 M-79.9365781754117 0.54487681871814 C-79.9365781754117 0.15831052379336102, -79.9365781754117 -0.22825577113141793, -79.9365781754117 -0.5448768187181317 M-79.9365781754117 -0.5448768187181317 C-79.91648204116807 -0.8578903308702093, -79.89638590692444 -1.170903843022287, -79.86675742013637 -1.6323914404305793 M-79.9365781754117 -0.5448768187181317 C-79.91399071352286 -0.89669476990784, -79.89140325163402 -1.2485127210975486, -79.86675742013637 -1.6323914404305793 M-79.86675742013637 -1.6323914404305793 C-79.83262900061571 -1.897084722814086, -79.79850058109506 -2.1617780051975926, -79.72740281804565 -2.713198215567447 M-79.86675742013637 -1.6323914404305793 C-79.81831869682917 -2.008072613093423, -79.76987997352197 -2.3837537857562667, -79.72740281804565 -2.713198215567447 M-79.72740281804565 -2.713198215567447 C-79.64658703923604 -3.128170159333906, -79.56577126042643 -3.5431421031003647, -79.519087007091 -3.782855877257341 M-79.72740281804565 -2.713198215567447 C-79.65765707381964 -3.0713278713997405, -79.58791132959364 -3.4294575272320342, -79.519087007091 -3.782855877257341 M-79.519087007091 -3.782855877257341 C-79.43689590445766 -4.096286173447484, -79.35470480182433 -4.409716469637627, -79.24266600162323 -4.836968972727544 M-79.519087007091 -3.782855877257341 C-79.41477670998769 -4.180636248480986, -79.3104664128844 -4.57841661970463, -79.24266600162323 -4.836968972727544 M-79.24266600162323 -4.836968972727544 C-79.12492031808546 -5.191600211316338, -79.0071746345477 -5.546231449905132, -78.89927567484594 -5.871205925162218 M-79.24266600162323 -4.836968972727544 C-79.1064503803847 -5.247228720886101, -78.97023475914617 -5.657488469044659, -78.89927567484594 -5.871205925162218 M-78.89927567484594 -5.871205925162218 C-78.75786849457708 -6.220484394348126, -78.61646131430822 -6.5697628635340335, -78.49032709126881 -6.881316833080692 M-78.89927567484594 -5.871205925162218 C-78.78978355951759 -6.1416535669092625, -78.68029144418925 -6.412101208656308, -78.49032709126881 -6.881316833080692 M-78.49032709126881 -6.881316833080692 C-78.3909843200431 -7.087604223125674, -78.29164154881738 -7.293891613170656, -78.017500708341 -7.863150934094194 M-78.49032709126881 -6.881316833080692 C-78.38577998807965 -7.098411129802658, -78.28123288489047 -7.3155054265246235, -78.017500708341 -7.863150934094194 M-78.017500708341 -7.863150934094194 C-77.87943871286834 -8.108293987348924, -77.74137671739567 -8.353437040603655, -77.48273947109088 -8.812673661278929 M-78.017500708341 -7.863150934094194 C-77.83737284538138 -8.182986194703004, -77.65724498242176 -8.502821455311812, -77.48273947109088 -8.812673661278929 M-77.48273947109088 -8.812673661278929 C-77.35749124795271 -9.005088565876266, -77.23224302481452 -9.197503470473604, -76.88824082814826 -9.725983222076884 M-77.48273947109088 -8.812673661278929 C-77.34979617380478 -9.01691026618421, -77.21685287651869 -9.221146871089493, -76.88824082814826 -9.725983222076884 M-76.88824082814826 -9.725983222076884 C-76.6731857660891 -10.014137413316945, -76.45813070402995 -10.302291604557004, -76.23644770195651 -10.599326631598467 M-76.88824082814826 -9.725983222076884 C-76.6808244071632 -10.003902330172183, -76.47340798617813 -10.281821438267482, -76.23644770195651 -10.599326631598467 M-76.23644770195651 -10.599326631598467 C-76.04486190849993 -10.824374206133042, -75.85327611504334 -11.049421780667615, -75.53003845028037 -11.42911513444238 M-76.23644770195651 -10.599326631598467 C-76.00478337898755 -10.871452727431206, -75.7731190560186 -11.143578823263946, -75.53003845028037 -11.42911513444238 M-75.53003845028037 -11.42911513444238 C-75.23537175982561 -11.733382684922127, -74.94070506937084 -12.037650235401875, -74.77191586025927 -12.21193895166136 M-75.53003845028037 -11.42911513444238 C-75.26319633275448 -11.704651528933157, -74.99635421522856 -11.980187923423934, -74.77191586025927 -12.21193895166136 M-74.77191586025927 -12.21193895166136 C-74.53901264416253 -12.423455490239006, -74.3061094280658 -12.634972028816652, -73.96519522023242 -12.944581292275274 M-74.77191586025927 -12.21193895166136 C-74.46694836661173 -12.488902360394343, -74.1619808729642 -12.765865769127327, -73.96519522023242 -12.944581292275274 M-73.96519522023242 -12.944581292275274 C-73.77629609842029 -13.095223315103702, -73.58739697660816 -13.245865337932129, -73.11319151835067 -13.624031571755259 M-73.96519522023242 -12.944581292275274 C-73.7303854398077 -13.131835843613304, -73.49557565938298 -13.319090394951337, -73.11319151835067 -13.624031571755259 M-73.11319151835067 -13.624031571755259 C-72.84493323066441 -13.811156940531088, -72.57667494297814 -13.99828230930692, -72.21940582057934 -14.247497783161284 M-73.11319151835067 -13.624031571755259 C-72.80811870370047 -13.836837160865947, -72.50304588905027 -14.049642749976634, -72.21940582057934 -14.247497783161284 M-72.21940582057934 -14.247497783161284 C-71.97133869999331 -14.397877529464752, -71.72327157940728 -14.548257275768218, -71.28751088406695 -14.812417970097618 M-72.21940582057934 -14.247497783161284 C-71.8643701485856 -14.462722493945087, -71.50933447659186 -14.677947204728888, -71.28751088406695 -14.812417970097618 M-71.28751088406695 -14.812417970097618 C-70.96877218069712 -14.978703747483776, -70.65003347732728 -15.144989524869931, -70.32133606499849 -15.316470754341124 M-71.28751088406695 -14.812417970097618 C-71.0338226596001 -14.944766954306903, -70.78013443513328 -15.077115938516188, -70.32133606499849 -15.316470754341124 M-70.32133606499849 -15.316470754341124 C-70.1110442315815 -15.409560710909224, -69.90075239816451 -15.502650667477324, -69.32485158294936 -15.757584874882365 M-70.32133606499849 -15.316470754341124 C-70.06664729508537 -15.42921391770773, -69.81195852517227 -15.541957081074337, -69.32485158294936 -15.757584874882365 M-69.32485158294936 -15.757584874882365 C-69.06884499892593 -15.85179766430191, -68.8128384149025 -15.946010453721454, -68.30215220640156 -16.133947699181363 M-69.32485158294936 -15.757584874882365 C-69.0214558280188 -15.869237317256426, -68.71806007308824 -15.980889759630488, -68.30215220640156 -16.133947699181363 M-68.30215220640156 -16.133947699181363 C-67.92705492422165 -16.245274603606546, -67.55195764204174 -16.35660150803173, -67.25744042646164 -16.444012671663494 M-68.30215220640156 -16.133947699181363 C-67.91121378028032 -16.24997617197647, -67.5202753541591 -16.36600464477158, -67.25744042646164 -16.444012671663494 M-67.25744042646164 -16.444012671663494 C-66.91066561459927 -16.523161759553954, -66.56389080273689 -16.602310847444414, -66.19500918792333 -16.68650566884811 M-67.25744042646164 -16.444012671663494 C-66.9116174275819 -16.52294451445183, -66.56579442870215 -16.60187635724016, -66.19500918792333 -16.68650566884811 M-66.19500918792333 -16.68650566884811 C-65.93945655622063 -16.727821436501543, -65.68390392451794 -16.76913720415498, -65.11922424863661 -16.86043023499518 M-66.19500918792333 -16.68650566884811 C-65.78691366040204 -16.75248338890967, -65.37881813288072 -16.81846110897123, -65.11922424863661 -16.86043023499518 M-65.11922424863661 -16.86043023499518 C-64.89770739644088 -16.88179969931351, -64.67619054424513 -16.903169163631844, -64.03450623967213 -16.965071676755716 M-65.11922424863661 -16.86043023499518 C-64.86609639190229 -16.884849174903554, -64.61296853516798 -16.909268114811926, -64.03450623967213 -16.965071676755716 M-64.03450623967213 -16.965071676755716 C-63.734715154960796 -16.97468539333446, -63.43492407024947 -16.984299109913206, -62.94531250000001 -17 M-64.03450623967213 -16.965071676755716 C-63.79875895916309 -16.972631633187397, -63.56301167865404 -16.98019158961908, -62.94531250000001 -17 M-62.94531250000001 -17 C-62.94531250000001 -17, -62.9453125 -17, -62.9453125 -17 M-62.94531250000001 -17 C-62.94531250000001 -17, -62.9453125 -17, -62.9453125 -17" stroke="#9370DB" stroke-width="1.3" fill="none" stroke-dasharray="0 0" style=""></path></g><g class="label" style="" transform="translate(0, -9.5)"><rect></rect><g><rect class="background" style="stroke: none"></rect><text y="-10.1" style=""><tspan class="text-outer-tspan row" x="0" y="-0.1em" dy="1.1em"><tspan font-style="normal" class="text-inner-tspan" font-weight="normal">What</tspan><tspan font-style="normal" class="text-inner-tspan" font-weight="normal"> is</tspan><tspan font-style="normal" class="text-inner-tspan" font-weight="normal"> the</tspan><tspan font-style="normal" class="text-inner-tspan" font-weight="normal"> target?</tspan></tspan></text></g></g></g><g class="node default" id="geaf0707e-2e73-49bf-b443-bea78767a325-light-flowchart-Resource-1" data-look="classic" transform="translate(127.40937805175781, 211.4093780517578)"><polygon points="119.40937423706055,0 238.8187484741211,-119.40937423706055 119.40937423706055,-238.8187484741211 0,-119.40937423706055" class="label-container" transform="translate(-118.90937423706055, 119.40937423706055)"></polygon><g class="label" style="" transform="translate(0, -18.299999237060547)"><rect></rect><g><rect class="background" style="stroke: none"></rect><text y="-10.1" style=""><tspan class="text-outer-tspan row" x="0" y="-0.1em" dy="1.1em"><tspan font-style="normal" class="text-inner-tspan" font-weight="normal">Hardware</tspan><tspan font-style="normal" class="text-inner-tspan" font-weight="normal"> /</tspan><tspan font-style="normal" class="text-inner-tspan" font-weight="normal"> OS</tspan><tspan font-style="normal" class="text-inner-tspan" font-weight="normal"> resource</tspan></tspan><tspan class="text-outer-tspan row" x="0" y="1em" dy="1.1em"><tspan font-style="normal" class="text-inner-tspan" font-weight="normal">CPU,</tspan><tspan font-style="normal" class="text-inner-tspan" font-weight="normal"> disk,</tspan><tspan font-style="normal" class="text-inner-tspan" font-weight="normal"> NIC,</tspan><tspan font-style="normal" class="text-inner-tspan" font-weight="normal"> queue?</tspan></tspan></text></g></g></g><g class="node default" id="geaf0707e-2e73-49bf-b443-bea78767a325-light-flowchart-Service-2" data-look="classic" transform="translate(423.2062530517578, 211.4093780517578)"><polygon points="116.40156173706055,0 232.8031234741211,-116.40156173706055 116.40156173706055,-232.8031234741211 0,-116.40156173706055" class="label-container" transform="translate(-115.90156173706055, 116.40156173706055)"></polygon><g class="label" style="" transform="translate(0, -18.299999237060547)"><rect></rect><g><rect class="background" style="stroke: none"></rect><text y="-10.1" style=""><tspan class="text-outer-tspan row" x="0" y="-0.1em" dy="1.1em"><tspan font-style="normal" class="text-inner-tspan" font-weight="normal">Internal</tspan><tspan font-style="normal" class="text-inner-tspan" font-weight="normal"> request-driven</tspan></tspan><tspan class="text-outer-tspan row" x="0" y="1em" dy="1.1em"><tspan font-style="normal" class="text-inner-tspan" font-weight="normal">microservice?</tspan></tspan></text></g></g></g><g class="node default" id="geaf0707e-2e73-49bf-b443-bea78767a325-light-flowchart-UserFacing-3" data-look="classic" transform="translate(724.6437530517578, 211.4093780517578)"><polygon points="102.60468673706055,0 205.2093734741211,-102.60468673706055 102.60468673706055,-205.2093734741211 0,-102.60468673706055" class="label-container" transform="translate(-102.10468673706055, 102.60468673706055)"></polygon><g class="label" style="" transform="translate(0, -18.299999237060547)"><rect></rect><g><rect class="background" style="stroke: none"></rect><text y="-10.1" style=""><tspan class="text-outer-tspan row" x="0" y="-0.1em" dy="1.1em"><tspan font-style="normal" class="text-inner-tspan" font-weight="normal">User-facing</tspan></tspan><tspan class="text-outer-tspan row" x="0" y="1em" dy="1.1em"><tspan font-style="normal" class="text-inner-tspan" font-weight="normal">distributed</tspan><tspan font-style="normal" class="text-inner-tspan" font-weight="normal"> system?</tspan></tspan></text></g></g></g><g class="node default" id="geaf0707e-2e73-49bf-b443-bea78767a325-light-flowchart-USE-4" data-look="classic" transform="translate(127.40937805175781, 472.3187561035156)"><rect class="basic label-container" style="" x="-117.5390625" y="-59.70000076293945" width="235.078125" height="119.4000015258789"></rect><g class="label" style="" transform="translate(0, -44.70000076293945)"><rect></rect><g><rect class="background" style="stroke: none"></rect><text y="-10.1" style=""><tspan class="text-outer-tspan row" x="0" y="-0.1em" dy="1.1em"><tspan font-style="normal" class="text-inner-tspan" font-weight="normal">USE</tspan><tspan font-style="normal" class="text-inner-tspan" font-weight="normal"> method</tspan><tspan font-style="normal" class="text-inner-tspan" font-weight="normal"> (Brendan</tspan></tspan><tspan class="text-outer-tspan row" x="0" y="1em" dy="1.1em"><tspan font-style="normal" class="text-inner-tspan" font-weight="normal">Gregg)</tspan></tspan><tspan class="text-outer-tspan row" x="0" y="2.1em" dy="1.1em"><tspan font-style="normal" class="text-inner-tspan" font-weight="normal">Utilization</tspan><tspan font-style="normal" class="text-inner-tspan" font-weight="normal"> ·</tspan><tspan font-style="normal" class="text-inner-tspan" font-weight="normal"> Saturation</tspan><tspan font-style="normal" class="text-inner-tspan" font-weight="normal"> ·</tspan></tspan><tspan class="text-outer-tspan row" x="0" y="3.2em" dy="1.1em"><tspan font-style="normal" class="text-inner-tspan" font-weight="normal">Errors</tspan></tspan><tspan class="text-outer-tspan row" x="0" y="4.300000000000001em" dy="1.1em"><tspan font-style="normal" class="text-inner-tspan" font-weight="normal">Check</tspan><tspan font-style="normal" class="text-inner-tspan" font-weight="normal"> per</tspan><tspan font-style="normal" class="text-inner-tspan" font-weight="normal"> resource.</tspan></tspan></text></g></g></g><g class="node default" id="geaf0707e-2e73-49bf-b443-bea78767a325-light-flowchart-RED-5" data-look="classic" transform="translate(423.2062530517578, 472.3187561035156)"><rect class="basic label-container" style="" x="-128.2578125" y="-42.099998474121094" width="256.515625" height="84.19999694824219"></rect><g class="label" style="" transform="translate(0, -27.099998474121094)"><rect></rect><g><rect class="background" style="stroke: none"></rect><text y="-10.1" style=""><tspan class="text-outer-tspan row" x="0" y="-0.1em" dy="1.1em"><tspan font-style="normal" class="text-inner-tspan" font-weight="normal">RED</tspan><tspan font-style="normal" class="text-inner-tspan" font-weight="normal"> method</tspan><tspan font-style="normal" class="text-inner-tspan" font-weight="normal"> (Tom</tspan><tspan font-style="normal" class="text-inner-tspan" font-weight="normal"> Wilkie)</tspan></tspan><tspan class="text-outer-tspan row" x="0" y="1em" dy="1.1em"><tspan font-style="normal" class="text-inner-tspan" font-weight="normal">Rate</tspan><tspan font-style="normal" class="text-inner-tspan" font-weight="normal"> ·</tspan><tspan font-style="normal" class="text-inner-tspan" font-weight="normal"> Errors</tspan><tspan font-style="normal" class="text-inner-tspan" font-weight="normal"> ·</tspan><tspan font-style="normal" class="text-inner-tspan" font-weight="normal"> Duration</tspan></tspan><tspan class="text-outer-tspan row" x="0" y="2.1em" dy="1.1em"><tspan font-style="normal" class="text-inner-tspan" font-weight="normal">One</tspan><tspan font-style="normal" class="text-inner-tspan" font-weight="normal"> dashboard</tspan><tspan font-style="normal" class="text-inner-tspan" font-weight="normal"> per</tspan><tspan font-style="normal" class="text-inner-tspan" font-weight="normal"> service.</tspan></tspan></text></g></g></g><g class="node default" id="geaf0707e-2e73-49bf-b443-bea78767a325-light-flowchart-Golden-6" data-look="classic" transform="translate(724.6437530517578, 472.3187561035156)"><rect class="basic label-container" style="" x="-123.1796875" y="-68.5" width="246.359375" height="137"></rect><g class="label" style="" transform="translate(0, -53.5)"><rect></rect><g><rect class="background" style="stroke: none"></rect><text y="-10.1" style=""><tspan class="text-outer-tspan row" x="0" y="-0.1em" dy="1.1em"><tspan font-style="normal" class="text-inner-tspan" font-weight="normal">Four</tspan><tspan font-style="normal" class="text-inner-tspan" font-weight="normal"> Golden</tspan><tspan font-style="normal" class="text-inner-tspan" font-weight="normal"> Signals</tspan></tspan><tspan class="text-outer-tspan row" x="0" y="1em" dy="1.1em"><tspan font-style="normal" class="text-inner-tspan" font-weight="normal">(Google</tspan><tspan font-style="normal" class="text-inner-tspan" font-weight="normal"> SRE)</tspan></tspan><tspan class="text-outer-tspan row" x="0" y="2.1em" dy="1.1em"><tspan font-style="normal" class="text-inner-tspan" font-weight="normal">Latency</tspan><tspan font-style="normal" class="text-inner-tspan" font-weight="normal"> ·</tspan><tspan font-style="normal" class="text-inner-tspan" font-weight="normal"> Traffic</tspan><tspan font-style="normal" class="text-inner-tspan" font-weight="normal"> ·</tspan><tspan font-style="normal" class="text-inner-tspan" font-weight="normal"> Errors</tspan><tspan font-style="normal" class="text-inner-tspan" font-weight="normal"> ·</tspan></tspan><tspan class="text-outer-tspan row" x="0" y="3.2em" dy="1.1em"><tspan font-style="normal" class="text-inner-tspan" font-weight="normal">Saturation</tspan></tspan><tspan class="text-outer-tspan row" x="0" y="4.300000000000001em" dy="1.1em"><tspan font-style="normal" class="text-inner-tspan" font-weight="normal">Latency:</tspan><tspan font-style="normal" class="text-inner-tspan" font-weight="normal"> split</tspan><tspan font-style="normal" class="text-inner-tspan" font-weight="normal"> success</tspan><tspan font-style="normal" class="text-inner-tspan" font-weight="normal"> vs</tspan></tspan><tspan class="text-outer-tspan row" x="0" y="5.4em" dy="1.1em"><tspan font-style="normal" class="text-inner-tspan" font-weight="normal">failure;</tspan><tspan font-style="normal" class="text-inner-tspan" font-weight="normal"> track</tspan><tspan font-style="normal" class="text-inner-tspan" font-weight="normal"> p99.</tspan></tspan></text></g></g></g><g class="node default" id="geaf0707e-2e73-49bf-b443-bea78767a325-light-flowchart-Slo-7" data-look="classic" transform="translate(573.9250030517578, 632.9187545776367)"><rect class="basic label-container" style="" x="-124.03125" y="-42.099998474121094" width="248.0625" height="84.19999694824219"></rect><g class="label" style="" transform="translate(0, -27.099998474121094)"><rect></rect><g><rect class="background" style="stroke: none"></rect><text y="-10.1" style=""><tspan class="text-outer-tspan row" x="0" y="-0.1em" dy="1.1em"><tspan font-style="normal" class="text-inner-tspan" font-weight="normal">SLO</tspan><tspan font-style="normal" class="text-inner-tspan" font-weight="normal"> +</tspan><tspan font-style="normal" class="text-inner-tspan" font-weight="normal"> error</tspan><tspan font-style="normal" class="text-inner-tspan" font-weight="normal"> budget</tspan></tspan><tspan class="text-outer-tspan row" x="0" y="1em" dy="1.1em"><tspan font-style="normal" class="text-inner-tspan" font-weight="normal">1</tspan><tspan font-style="normal" class="text-inner-tspan" font-weight="normal"> minus</tspan><tspan font-style="normal" class="text-inner-tspan" font-weight="normal"> availability</tspan><tspan font-style="normal" class="text-inner-tspan" font-weight="normal"> target</tspan></tspan><tspan class="text-outer-tspan row" x="0" y="2.1em" dy="1.1em"><tspan font-style="normal" class="text-inner-tspan" font-weight="normal">over</tspan><tspan font-style="normal" class="text-inner-tspan" font-weight="normal"> rolling</tspan><tspan font-style="normal" class="text-inner-tspan" font-weight="normal"> 28</tspan><tspan font-style="normal" class="text-inner-tspan" font-weight="normal"> to</tspan><tspan font-style="normal" class="text-inner-tspan" font-weight="normal"> 30</tspan><tspan font-style="normal" class="text-inner-tspan" font-weight="normal"> days.</tspan></tspan></text></g></g></g><g class="node default" id="geaf0707e-2e73-49bf-b443-bea78767a325-light-flowchart-Alert-8" data-look="classic" transform="translate(573.9250030517578, 767.1187515258789)"><rect class="basic label-container" style="" x="-105.4765625" y="-42.099998474121094" width="210.953125" height="84.19999694824219"></rect><g class="label" style="" transform="translate(0, -27.099998474121094)"><rect></rect><g><rect class="background" style="stroke: none"></rect><text y="-10.1" style=""><tspan class="text-outer-tspan row" x="0" y="-0.1em" dy="1.1em"><tspan font-style="normal" class="text-inner-tspan" font-weight="normal">Multi-window</tspan></tspan><tspan class="text-outer-tspan row" x="0" y="1em" dy="1.1em"><tspan font-style="normal" class="text-inner-tspan" font-weight="normal">multi-burn-rate</tspan><tspan font-style="normal" class="text-inner-tspan" font-weight="normal"> alert</tspan></tspan><tspan class="text-outer-tspan row" x="0" y="2.1em" dy="1.1em"><tspan font-style="normal" class="text-inner-tspan" font-weight="normal">(see</tspan><tspan font-style="normal" class="text-inner-tspan" font-weight="normal"> SLO</tspan><tspan font-style="normal" class="text-inner-tspan" font-weight="normal"> section).</tspan></tspan></text></g></g></g></g></g></g><defs><filter id="geaf0707e-2e73-49bf-b443-bea78767a325-light-drop-shadow" height="130%" width="130%"><feDropShadow dx="4" dy="4" stdDeviation="0" flood-opacity="0.06" flood-color="#000000"></feDropShadow></filter></defs><defs><filter id="geaf0707e-2e73-49bf-b443-bea78767a325-light-drop-shadow-small" height="150%" width="150%"><feDropShadow dx="2" dy="2" stdDeviation="0" flood-opacity="0.06" flood-color="#000000"></feDropShadow></filter></defs></svg>