<svg id="gfae7b07a-7b10-4023-8fd4-d09b2c00c5b4-light" width="100%" xmlns="http://www.w3.org/2000/svg" xmlns:xlink="http://www.w3.org/1999/xlink" class="flowchart" style="max-width: 746.7867431640625px;" viewBox="0 0 746.7867431640625 849.4000244140625" role="graphics-document document" aria-roledescription="flowchart-v2"><style>#gfae7b07a-7b10-4023-8fd4-d09b2c00c5b4-light{font-family:"trebuchet ms",verdana,arial,sans-serif;font-size:16px;fill:#333;}@keyframes edge-animation-frame{from{stroke-dashoffset:0;}}@keyframes dash{to{stroke-dashoffset:0;}}#gfae7b07a-7b10-4023-8fd4-d09b2c00c5b4-light .edge-animation-slow{stroke-dasharray:9,5!important;stroke-dashoffset:900;animation:dash 50s linear infinite;stroke-linecap:round;}#gfae7b07a-7b10-4023-8fd4-d09b2c00c5b4-light .edge-animation-fast{stroke-dasharray:9,5!important;stroke-dashoffset:900;animation:dash 20s linear infinite;stroke-linecap:round;}#gfae7b07a-7b10-4023-8fd4-d09b2c00c5b4-light .error-icon{fill:#552222;}#gfae7b07a-7b10-4023-8fd4-d09b2c00c5b4-light .error-text{fill:#552222;stroke:#552222;}#gfae7b07a-7b10-4023-8fd4-d09b2c00c5b4-light .edge-thickness-normal{stroke-width:1px;}#gfae7b07a-7b10-4023-8fd4-d09b2c00c5b4-light .edge-thickness-thick{stroke-width:3.5px;}#gfae7b07a-7b10-4023-8fd4-d09b2c00c5b4-light .edge-pattern-solid{stroke-dasharray:0;}#gfae7b07a-7b10-4023-8fd4-d09b2c00c5b4-light .edge-thickness-invisible{stroke-width:0;fill:none;}#gfae7b07a-7b10-4023-8fd4-d09b2c00c5b4-light .edge-pattern-dashed{stroke-dasharray:3;}#gfae7b07a-7b10-4023-8fd4-d09b2c00c5b4-light .edge-pattern-dotted{stroke-dasharray:2;}#gfae7b07a-7b10-4023-8fd4-d09b2c00c5b4-light .marker{fill:#333333;stroke:#333333;}#gfae7b07a-7b10-4023-8fd4-d09b2c00c5b4-light .marker.cross{stroke:#333333;}#gfae7b07a-7b10-4023-8fd4-d09b2c00c5b4-light svg{font-family:"trebuchet ms",verdana,arial,sans-serif;font-size:16px;}#gfae7b07a-7b10-4023-8fd4-d09b2c00c5b4-light p{margin:0;}#gfae7b07a-7b10-4023-8fd4-d09b2c00c5b4-light .label{font-family:"trebuchet ms",verdana,arial,sans-serif;color:#333;}#gfae7b07a-7b10-4023-8fd4-d09b2c00c5b4-light .cluster-label text{fill:#333;}#gfae7b07a-7b10-4023-8fd4-d09b2c00c5b4-light .cluster-label span{color:#333;}#gfae7b07a-7b10-4023-8fd4-d09b2c00c5b4-light .cluster-label span p{background-color:transparent;}#gfae7b07a-7b10-4023-8fd4-d09b2c00c5b4-light .label text,#gfae7b07a-7b10-4023-8fd4-d09b2c00c5b4-light span{fill:#333;color:#333;}#gfae7b07a-7b10-4023-8fd4-d09b2c00c5b4-light .node rect,#gfae7b07a-7b10-4023-8fd4-d09b2c00c5b4-light .node circle,#gfae7b07a-7b10-4023-8fd4-d09b2c00c5b4-light .node ellipse,#gfae7b07a-7b10-4023-8fd4-d09b2c00c5b4-light .node polygon,#gfae7b07a-7b10-4023-8fd4-d09b2c00c5b4-light .node path{fill:#ECECFF;stroke:#9370DB;stroke-width:1px;}#gfae7b07a-7b10-4023-8fd4-d09b2c00c5b4-light .rough-node .label text,#gfae7b07a-7b10-4023-8fd4-d09b2c00c5b4-light .node .label text,#gfae7b07a-7b10-4023-8fd4-d09b2c00c5b4-light .image-shape .label,#gfae7b07a-7b10-4023-8fd4-d09b2c00c5b4-light .icon-shape .label{text-anchor:middle;}#gfae7b07a-7b10-4023-8fd4-d09b2c00c5b4-light .node .katex path{fill:#000;stroke:#000;stroke-width:1px;}#gfae7b07a-7b10-4023-8fd4-d09b2c00c5b4-light .rough-node .label,#gfae7b07a-7b10-4023-8fd4-d09b2c00c5b4-light .node .label,#gfae7b07a-7b10-4023-8fd4-d09b2c00c5b4-light .image-shape .label,#gfae7b07a-7b10-4023-8fd4-d09b2c00c5b4-light .icon-shape .label{text-align:center;}#gfae7b07a-7b10-4023-8fd4-d09b2c00c5b4-light .node.clickable{cursor:pointer;}#gfae7b07a-7b10-4023-8fd4-d09b2c00c5b4-light .root .anchor path{fill:#333333!important;stroke-width:0;stroke:#333333;}#gfae7b07a-7b10-4023-8fd4-d09b2c00c5b4-light .arrowheadPath{fill:#333333;}#gfae7b07a-7b10-4023-8fd4-d09b2c00c5b4-light .edgePath .path{stroke:#333333;stroke-width:1px;}#gfae7b07a-7b10-4023-8fd4-d09b2c00c5b4-light .flowchart-link{stroke:#333333;fill:none;}#gfae7b07a-7b10-4023-8fd4-d09b2c00c5b4-light .edgeLabel{background-color:rgba(232,232,232, 0.8);text-align:center;}#gfae7b07a-7b10-4023-8fd4-d09b2c00c5b4-light .edgeLabel p{background-color:rgba(232,232,232, 0.8);}#gfae7b07a-7b10-4023-8fd4-d09b2c00c5b4-light .edgeLabel rect{opacity:0.5;background-color:rgba(232,232,232, 0.8);fill:rgba(232,232,232, 0.8);}#gfae7b07a-7b10-4023-8fd4-d09b2c00c5b4-light .labelBkg{background-color:rgba(232, 232, 232, 0.5);}#gfae7b07a-7b10-4023-8fd4-d09b2c00c5b4-light .cluster rect{fill:#ffffde;stroke:#aaaa33;stroke-width:1px;}#gfae7b07a-7b10-4023-8fd4-d09b2c00c5b4-light .cluster text{fill:#333;}#gfae7b07a-7b10-4023-8fd4-d09b2c00c5b4-light .cluster span{color:#333;}#gfae7b07a-7b10-4023-8fd4-d09b2c00c5b4-light div.mermaidTooltip{position:absolute;text-align:center;max-width:200px;padding:2px;font-family:"trebuchet ms",verdana,arial,sans-serif;font-size:12px;background:hsl(80, 100%, 96.2745098039%);border:1px solid #aaaa33;border-radius:2px;pointer-events:none;z-index:100;}#gfae7b07a-7b10-4023-8fd4-d09b2c00c5b4-light .flowchartTitleText{text-anchor:middle;font-size:18px;fill:#333;}#gfae7b07a-7b10-4023-8fd4-d09b2c00c5b4-light rect.text{fill:none;stroke-width:0;}#gfae7b07a-7b10-4023-8fd4-d09b2c00c5b4-light .icon-shape,#gfae7b07a-7b10-4023-8fd4-d09b2c00c5b4-light .image-shape{background-color:rgba(232,232,232, 0.8);text-align:center;}#gfae7b07a-7b10-4023-8fd4-d09b2c00c5b4-light .icon-shape p,#gfae7b07a-7b10-4023-8fd4-d09b2c00c5b4-light .image-shape p{background-color:rgba(232,232,232, 0.8);padding:2px;}#gfae7b07a-7b10-4023-8fd4-d09b2c00c5b4-light .icon-shape .label rect,#gfae7b07a-7b10-4023-8fd4-d09b2c00c5b4-light .image-shape .label rect{opacity:0.5;background-color:rgba(232,232,232, 0.8);fill:rgba(232,232,232, 0.8);}#gfae7b07a-7b10-4023-8fd4-d09b2c00c5b4-light .label-icon{display:inline-block;height:1em;overflow:visible;vertical-align:-0.125em;}#gfae7b07a-7b10-4023-8fd4-d09b2c00c5b4-light .node .label-icon path{fill:currentColor;stroke:revert;stroke-width:revert;}#gfae7b07a-7b10-4023-8fd4-d09b2c00c5b4-light .node .neo-node{stroke:#9370DB;}#gfae7b07a-7b10-4023-8fd4-d09b2c00c5b4-light [data-look="neo"].node rect,#gfae7b07a-7b10-4023-8fd4-d09b2c00c5b4-light [data-look="neo"].cluster rect,#gfae7b07a-7b10-4023-8fd4-d09b2c00c5b4-light [data-look="neo"].node polygon{stroke:#9370DB;filter:drop-shadow(1px 2px 2px rgba(185, 185, 185, 1));}#gfae7b07a-7b10-4023-8fd4-d09b2c00c5b4-light [data-look="neo"].node path{stroke:#9370DB;stroke-width:1px;}#gfae7b07a-7b10-4023-8fd4-d09b2c00c5b4-light [data-look="neo"].node .outer-path{filter:drop-shadow(1px 2px 2px rgba(185, 185, 185, 1));}#gfae7b07a-7b10-4023-8fd4-d09b2c00c5b4-light [data-look="neo"].node .neo-line path{stroke:#9370DB;filter:none;}#gfae7b07a-7b10-4023-8fd4-d09b2c00c5b4-light [data-look="neo"].node circle{stroke:#9370DB;filter:drop-shadow(1px 2px 2px rgba(185, 185, 185, 1));}#gfae7b07a-7b10-4023-8fd4-d09b2c00c5b4-light [data-look="neo"].node circle .state-start{fill:#000000;}#gfae7b07a-7b10-4023-8fd4-d09b2c00c5b4-light [data-look="neo"].icon-shape .icon{fill:#9370DB;filter:drop-shadow(1px 2px 2px rgba(185, 185, 185, 1));}#gfae7b07a-7b10-4023-8fd4-d09b2c00c5b4-light [data-look="neo"].icon-shape .icon-neo path{stroke:#9370DB;filter:drop-shadow(1px 2px 2px rgba(185, 185, 185, 1));}#gfae7b07a-7b10-4023-8fd4-d09b2c00c5b4-light :root{--mermaid-font-family:"trebuchet ms",verdana,arial,sans-serif;}</style><g><marker id="gfae7b07a-7b10-4023-8fd4-d09b2c00c5b4-light_flowchart-v2-pointEnd" class="marker flowchart-v2" viewBox="0 0 10 10" refX="5" refY="5" markerUnits="userSpaceOnUse" markerWidth="8" markerHeight="8" orient="auto"><path d="M 0 0 L 10 5 L 0 10 z" class="arrowMarkerPath" style="stroke-width: 1; stroke-dasharray: 1, 0;"></path></marker><marker id="gfae7b07a-7b10-4023-8fd4-d09b2c00c5b4-light_flowchart-v2-pointStart" class="marker flowchart-v2" viewBox="0 0 10 10" refX="4.5" refY="5" markerUnits="userSpaceOnUse" markerWidth="8" markerHeight="8" orient="auto"><path d="M 0 5 L 10 10 L 10 0 z" class="arrowMarkerPath" style="stroke-width: 1; stroke-dasharray: 1, 0;"></path></marker><marker id="gfae7b07a-7b10-4023-8fd4-d09b2c00c5b4-light_flowchart-v2-pointEnd-margin" class="marker flowchart-v2" viewBox="0 0 11.5 14" refX="11.5" refY="7" markerUnits="userSpaceOnUse" markerWidth="10.5" markerHeight="14" orient="auto"><path d="M 0 0 L 11.5 7 L 0 14 z" class="arrowMarkerPath" style="stroke-width: 0; stroke-dasharray: 1, 0;"></path></marker><marker id="gfae7b07a-7b10-4023-8fd4-d09b2c00c5b4-light_flowchart-v2-pointStart-margin" class="marker flowchart-v2" viewBox="0 0 11.5 14" refX="1" refY="7" markerUnits="userSpaceOnUse" markerWidth="11.5" markerHeight="14" orient="auto"><polygon points="0,7 11.5,14 11.5,0" class="arrowMarkerPath" style="stroke-width: 0; stroke-dasharray: 1, 0;"></polygon></marker><marker id="gfae7b07a-7b10-4023-8fd4-d09b2c00c5b4-light_flowchart-v2-circleEnd" class="marker flowchart-v2" viewBox="0 0 10 10" refX="11" refY="5" markerUnits="userSpaceOnUse" markerWidth="11" markerHeight="11" orient="auto"><circle cx="5" cy="5" r="5" class="arrowMarkerPath" style="stroke-width: 1; stroke-dasharray: 1, 0;"></circle></marker><marker id="gfae7b07a-7b10-4023-8fd4-d09b2c00c5b4-light_flowchart-v2-circleStart" class="marker flowchart-v2" viewBox="0 0 10 10" refX="-1" refY="5" markerUnits="userSpaceOnUse" markerWidth="11" markerHeight="11" orient="auto"><circle cx="5" cy="5" r="5" class="arrowMarkerPath" style="stroke-width: 1; stroke-dasharray: 1, 0;"></circle></marker><marker id="gfae7b07a-7b10-4023-8fd4-d09b2c00c5b4-light_flowchart-v2-circleEnd-margin" class="marker flowchart-v2" viewBox="0 0 10 10" refY="5" refX="12.25" markerUnits="userSpaceOnUse" markerWidth="14" markerHeight="14" orient="auto"><circle cx="5" cy="5" r="5" class="arrowMarkerPath" style="stroke-width: 0; stroke-dasharray: 1, 0;"></circle></marker><marker id="gfae7b07a-7b10-4023-8fd4-d09b2c00c5b4-light_flowchart-v2-circleStart-margin" class="marker flowchart-v2" viewBox="0 0 10 10" refX="-2" refY="5" markerUnits="userSpaceOnUse" markerWidth="14" markerHeight="14" orient="auto"><circle cx="5" cy="5" r="5" class="arrowMarkerPath" style="stroke-width: 0; stroke-dasharray: 1, 0;"></circle></marker><marker id="gfae7b07a-7b10-4023-8fd4-d09b2c00c5b4-light_flowchart-v2-crossEnd" class="marker cross flowchart-v2" viewBox="0 0 11 11" refX="12" refY="5.2" markerUnits="userSpaceOnUse" markerWidth="11" markerHeight="11" orient="auto"><path d="M 1,1 l 9,9 M 10,1 l -9,9" class="arrowMarkerPath" style="stroke-width: 2; stroke-dasharray: 1, 0;"></path></marker><marker id="gfae7b07a-7b10-4023-8fd4-d09b2c00c5b4-light_flowchart-v2-crossStart" class="marker cross flowchart-v2" viewBox="0 0 11 11" refX="-1" refY="5.2" markerUnits="userSpaceOnUse" markerWidth="11" markerHeight="11" orient="auto"><path d="M 1,1 l 9,9 M 10,1 l -9,9" class="arrowMarkerPath" style="stroke-width: 2; stroke-dasharray: 1, 0;"></path></marker><marker id="gfae7b07a-7b10-4023-8fd4-d09b2c00c5b4-light_flowchart-v2-crossEnd-margin" class="marker cross flowchart-v2" viewBox="0 0 15 15" refX="17.7" refY="7.5" markerUnits="userSpaceOnUse" markerWidth="12" markerHeight="12" orient="auto"><path d="M 1,1 L 14,14 M 1,14 L 14,1" class="arrowMarkerPath" style="stroke-width: 2.5;"></path></marker><marker id="gfae7b07a-7b10-4023-8fd4-d09b2c00c5b4-light_flowchart-v2-crossStart-margin" class="marker cross flowchart-v2" viewBox="0 0 15 15" refX="-3.5" refY="7.5" markerUnits="userSpaceOnUse" markerWidth="12" markerHeight="12" orient="auto"><path d="M 1,1 L 14,14 M 1,14 L 14,1" class="arrowMarkerPath" style="stroke-width: 2.5; stroke-dasharray: 1, 0;"></path></marker><g class="root"><g class="clusters"></g><g class="edgePaths"><path d="M266.52,42.5L266.437,46.583C266.354,50.667,266.187,58.833,266.174,66.5C266.161,74.167,266.301,81.334,266.372,84.917L266.442,88.501" id="gfae7b07a-7b10-4023-8fd4-d09b2c00c5b4-light-L_Asset_Vec_0" class="edge-thickness-normal edge-pattern-solid edge-thickness-normal edge-pattern-solid flowchart-link" style=";" data-edge="true" data-et="edge" data-id="L_Asset_Vec_0" data-points="W3sieCI6MjY2LjUyMDMxMzI2MjkzOTQ1LCJ5Ijo0Mi41fSx7IngiOjI2Ni4wMjAzMTMyNjI5Mzk0NSwieSI6Njd9LHsieCI6MjY2LjUyMDMxMzI2MjkzOTQ1LCJ5Ijo5Mi41fV0=" data-look="classic" marker-end="url(#gfae7b07a-7b10-4023-8fd4-d09b2c00c5b4-light_flowchart-v2-pointEnd)"></path><path d="M212.627,144.1L199.836,150.1C187.046,156.1,161.464,168.1,148.674,179.517C135.883,190.933,135.883,201.767,135.883,207.183L135.883,212.6" id="gfae7b07a-7b10-4023-8fd4-d09b2c00c5b4-light-L_Vec_SVG_0" class="edge-thickness-normal edge-pattern-solid edge-thickness-normal edge-pattern-solid flowchart-link" style=";" data-edge="true" data-et="edge" data-id="L_Vec_SVG_0" data-points="W3sieCI6MjEyLjYyNzA5NTU4MjEzNTgsInkiOjE0NC4wOTk5OTg0NzQxMjExfSx7IngiOjEzNS44ODI4MTI1LCJ5IjoxODAuMDk5OTk4NDc0MTIxMX0seyJ4IjoxMzUuODgyODEyNSwieSI6MjE2LjU5OTk5ODQ3NDEyMTF9XQ==" data-look="classic" marker-end="url(#gfae7b07a-7b10-4023-8fd4-d09b2c00c5b4-light_flowchart-v2-pointEnd)"></path><path d="M320.414,144.1L333.038,150.1C345.662,156.1,370.91,168.1,383.61,180.85C396.31,193.6,396.461,207.1,396.537,213.85L396.613,220.6" id="gfae7b07a-7b10-4023-8fd4-d09b2c00c5b4-light-L_Vec_Photo_0" class="edge-thickness-normal edge-pattern-solid edge-thickness-normal edge-pattern-solid flowchart-link" style=";" data-edge="true" data-et="edge" data-id="L_Vec_Photo_0" data-points="W3sieCI6MzIwLjQxMzUzMDk0Mzc0MzA3LCJ5IjoxNDQuMDk5OTk4NDc0MTIxMX0seyJ4IjozOTYuMTU3ODE0MDI1ODc4OSwieSI6MTgwLjA5OTk5ODQ3NDEyMTF9LHsieCI6Mzk2LjY1NzgxNDAyNTg3ODksInkiOjIyNC41OTk5OTg0NzQxMjExfV0=" data-look="classic" marker-end="url(#gfae7b07a-7b10-4023-8fd4-d09b2c00c5b4-light_flowchart-v2-pointEnd)"></path><path d="M325.024,271.916L298.147,279.88C271.271,287.844,217.519,303.772,190.719,318.703C163.919,333.633,164.071,347.567,164.147,354.534L164.224,361.5" id="gfae7b07a-7b10-4023-8fd4-d09b2c00c5b4-light-L_Photo_Anim_0" class="edge-thickness-normal edge-pattern-solid edge-thickness-normal edge-pattern-solid flowchart-link" style=";" data-edge="true" data-et="edge" data-id="L_Photo_Anim_0" data-points="W3sieCI6MzI1LjAyMzUzMDgxNzU5NzYsInkiOjI3MS45MTU4MDkzNDYzNzc0fSx7IngiOjE2My43NjcxODkwMjU4Nzg5LCJ5IjozMTkuNjk5OTk2OTQ4MjQyMn0seyJ4IjoxNjQuMjY3MTg5MDI1ODc4OSwieSI6MzY1LjQ5OTk5NjE4NTMwMjczfV0=" data-look="classic" marker-end="url(#gfae7b07a-7b10-4023-8fd4-d09b2c00c5b4-light_flowchart-v2-pointEnd)"></path><path d="M158.165,399.5L155.371,406.967C152.578,414.433,146.991,429.367,144.197,443.717C141.404,458.067,141.404,471.833,141.404,478.717L141.404,485.6" id="gfae7b07a-7b10-4023-8fd4-d09b2c00c5b4-light-L_Anim_AnimChoice_0" class="edge-thickness-normal edge-pattern-solid edge-thickness-normal edge-pattern-solid flowchart-link" style=";" data-edge="true" data-et="edge" data-id="L_Anim_AnimChoice_0" data-points="W3sieCI6MTU4LjE2NDg0ODk2MzE4NjgsInkiOjM5OS40OTk5OTYxODUzMDI4fSx7IngiOjE0MS40MDM5MDc3NzU4Nzg5LCJ5Ijo0NDQuMjk5OTk1NDIyMzYzM30seyJ4IjoxNDEuNDAzOTA3Nzc1ODc4OSwieSI6NDg5LjU5OTk5ODQ3NDEyMTF9XQ==" data-look="classic" marker-end="url(#gfae7b07a-7b10-4023-8fd4-d09b2c00c5b4-light_flowchart-v2-pointEnd)"></path><path d="M199.643,399.5L215.27,406.967C230.898,414.433,262.153,429.367,284.73,442.496C307.308,455.624,321.208,466.949,328.158,472.611L335.108,478.273" id="gfae7b07a-7b10-4023-8fd4-d09b2c00c5b4-light-L_Anim_Tier_0" class="edge-thickness-normal edge-pattern-solid edge-thickness-normal edge-pattern-solid flowchart-link" style=";" data-edge="true" data-et="edge" data-id="L_Anim_Tier_0" data-points="W3sieCI6MTk5LjY0MjY0MDkwMzcxNzIyLCJ5IjozOTkuNDk5OTk2MTg1MzAyOH0seyJ4IjoyOTMuNDA3ODE0MDI1ODc4OSwieSI6NDQ0LjI5OTk5NTQyMjM2MzN9LHsieCI6MzM4LjIwODk5MjI2OTc0NDIsInkiOjQ4MC43OTk5OTU0MjIzNjMzfV0=" data-look="classic" marker-end="url(#gfae7b07a-7b10-4023-8fd4-d09b2c00c5b4-light_flowchart-v2-pointEnd)"></path><path d="M468.292,271.916L495.001,279.88C521.711,287.844,575.13,303.772,601.913,317.236C628.697,330.7,628.846,341.7,628.92,347.2L628.994,352.7" id="gfae7b07a-7b10-4023-8fd4-d09b2c00c5b4-light-L_Photo_Alpha_0" class="edge-thickness-normal edge-pattern-solid edge-thickness-normal edge-pattern-solid flowchart-link" style=";" data-edge="true" data-et="edge" data-id="L_Photo_Alpha_0" data-points="W3sieCI6NDY4LjI5MjA5MzkxNzU0NTQ2LCJ5IjoyNzEuOTE1ODA4MzUwMjExMTR9LHsieCI6NjI4LjU0ODQzOTAyNTg3ODksInkiOjMxOS42OTk5OTY5NDgyNDIyfSx7IngiOjYyOS4wNDg0MzkwMjU4Nzg5LCJ5IjozNTYuNjk5OTk2OTQ4MjQyMn1d" data-look="classic" marker-end="url(#gfae7b07a-7b10-4023-8fd4-d09b2c00c5b4-light_flowchart-v2-pointEnd)"></path><path d="M638.31,408.3L640.41,414.3C642.51,420.3,646.711,432.3,648.811,443.717C650.912,455.133,650.912,465.967,650.912,471.383L650.912,476.8" id="gfae7b07a-7b10-4023-8fd4-d09b2c00c5b4-light-L_Alpha_Lossless_0" class="edge-thickness-normal edge-pattern-solid edge-thickness-normal edge-pattern-solid flowchart-link" style=";" data-edge="true" data-et="edge" data-id="L_Alpha_Lossless_0" data-points="W3sieCI6NjM4LjMwOTYzNzIwMDA5ODgsInkiOjQwOC4yOTk5OTU0MjIzNjMzfSx7IngiOjY1MC45MTE3MjAyNzU4Nzg5LCJ5Ijo0NDQuMjk5OTk1NDIyMzYzM30seyJ4Ijo2NTAuOTExNzIwMjc1ODc4OSwieSI6NDgwLjc5OTk5NTQyMjM2MzN9XQ==" data-look="classic" marker-end="url(#gfae7b07a-7b10-4023-8fd4-d09b2c00c5b4-light_flowchart-v2-pointEnd)"></path><path d="M577.236,408.3L564.936,414.3C552.636,420.3,528.035,432.3,509.091,443.951C490.147,455.603,476.859,466.906,470.215,472.557L463.572,478.208" id="gfae7b07a-7b10-4023-8fd4-d09b2c00c5b4-light-L_Alpha_Tier_0" class="edge-thickness-normal edge-pattern-solid edge-thickness-normal edge-pattern-solid flowchart-link" style=";" data-edge="true" data-et="edge" data-id="L_Alpha_Tier_0" data-points="W3sieCI6NTc3LjIzNTg3NzIyMjg5MzUsInkiOjQwOC4yOTk5OTU0MjIzNjMzfSx7IngiOjUwMy40MzUxNTc3NzU4Nzg5LCJ5Ijo0NDQuMjk5OTk1NDIyMzYzM30seyJ4Ijo0NjAuNTI0Njg5NDE3NDgyNzYsInkiOjQ4MC43OTk5OTU0MjIzNjMzfV0=" data-look="classic" marker-end="url(#gfae7b07a-7b10-4023-8fd4-d09b2c00c5b4-light_flowchart-v2-pointEnd)"></path><path d="M400.685,582.6L400.685,586.767C400.685,590.933,400.685,599.267,400.755,607.017C400.826,614.767,400.966,621.934,401.036,625.517L401.107,629.101" id="gfae7b07a-7b10-4023-8fd4-d09b2c00c5b4-light-L_Tier_CDN_0" class="edge-thickness-normal edge-pattern-solid edge-thickness-normal edge-pattern-solid flowchart-link" style=";" data-edge="true" data-et="edge" data-id="L_Tier_CDN_0" data-points="W3sieCI6NDAwLjY4NTE1Nzc3NTg3ODksInkiOjU4Mi41OTk5OTg0NzQxMjExfSx7IngiOjQwMC42ODUxNTc3NzU4Nzg5LCJ5Ijo2MDcuNTk5OTk4NDc0MTIxMX0seyJ4Ijo0MDEuMTg1MTU3Nzc1ODc4MzQsInkiOjYzMy4wOTk5OTg0NzQxMjExfV0=" data-look="classic" marker-end="url(#gfae7b07a-7b10-4023-8fd4-d09b2c00c5b4-light_flowchart-v2-pointEnd)"></path><path d="M342.709,684.7L328.838,690.7C314.967,696.7,287.224,708.7,273.353,721.583C259.482,734.467,259.482,748.233,259.482,755.117L259.482,762" id="gfae7b07a-7b10-4023-8fd4-d09b2c00c5b4-light-L_CDN_Auto_0" class="edge-thickness-normal edge-pattern-solid edge-thickness-normal edge-pattern-solid flowchart-link" style=";" data-edge="true" data-et="edge" data-id="L_CDN_Auto_0" data-points="W3sieCI6MzQyLjcwOTM4NjMxNzA2NjQsInkiOjY4NC42OTk5OTY5NDgyNDJ9LHsieCI6MjU5LjQ4MjAzMjc3NTg3ODksInkiOjcyMC42OTk5OTY5NDgyNDIyfSx7IngiOjI1OS40ODIwMzI3NzU4Nzg5LCJ5Ijo3NjUuOTk5OTk2MTg1MzAyN31d" data-look="classic" marker-end="url(#gfae7b07a-7b10-4023-8fd4-d09b2c00c5b4-light_flowchart-v2-pointEnd)"></path><path d="M459.661,684.7L473.365,690.7C487.07,696.7,514.479,708.7,528.184,720.117C541.888,731.533,541.888,742.367,541.888,747.783L541.888,753.2" id="gfae7b07a-7b10-4023-8fd4-d09b2c00c5b4-light-L_CDN_Markup_0" class="edge-thickness-normal edge-pattern-solid edge-thickness-normal edge-pattern-solid flowchart-link" style=";" data-edge="true" data-et="edge" data-id="L_CDN_Markup_0" data-points="W3sieCI6NDU5LjY2MDkyOTIzNDY5MTgsInkiOjY4NC42OTk5OTY5NDgyNDJ9LHsieCI6NTQxLjg4ODI4Mjc3NTg3ODksInkiOjcyMC42OTk5OTY5NDgyNDIyfSx7IngiOjU0MS44ODgyODI3NzU4Nzg5LCJ5Ijo3NTcuMTk5OTk2OTQ4MjQyMn1d" data-look="classic" marker-end="url(#gfae7b07a-7b10-4023-8fd4-d09b2c00c5b4-light_flowchart-v2-pointEnd)"></path></g><g class="edgeLabels"><g class="edgeLabel"><g class="label" data-id="L_Asset_Vec_0" transform="translate(0, 0)"><text y="-10.1" text-anchor="middle"><tspan class="text-outer-tspan row" x="0" y="-0.1em" dy="1.1em" text-anchor="middle"></tspan></text></g></g><g><rect class="background" style="stroke: none"></rect></g><g class="edgeLabel" transform="translate(135.8828125, 180.0999984741211)"><g class="label" data-id="L_Vec_SVG_0" transform="translate(0, -10.5)"><g><rect class="background" style="" x="-13.328125" y="-1" width="26.65625" height="23"></rect><text y="-10.1" text-anchor="middle" style=""><tspan class="text-outer-tspan row" x="0" y="-0.1em" dy="1.1em" text-anchor="middle"><tspan font-style="normal" class="text-inner-tspan" font-weight="normal">Yes</tspan></tspan></text></g></g></g><g class="edgeLabel" transform="translate(396.1578140258789, 180.0999984741211)"><g class="label" data-id="L_Vec_Photo_0" transform="translate(0, -10.5)"><g><rect class="background" style="" x="-11.3984375" y="-1" width="22.796875" height="23"></rect><text y="-10.1" text-anchor="middle" style=""><tspan class="text-outer-tspan row" x="0" y="-0.1em" dy="1.1em" text-anchor="middle"><tspan font-style="normal" class="text-inner-tspan" font-weight="normal">No</tspan></tspan></text></g></g></g><g class="edgeLabel" transform="translate(163.7671890258789, 319.6999969482422)"><g class="label" data-id="L_Photo_Anim_0" transform="translate(0, -10.5)"><g><rect class="background" style="" x="-13.328125" y="-1" width="26.65625" height="23"></rect><text y="-10.1" text-anchor="middle" style=""><tspan class="text-outer-tspan row" x="0" y="-0.1em" dy="1.1em" text-anchor="middle"><tspan font-style="normal" class="text-inner-tspan" font-weight="normal">Yes</tspan></tspan></text></g></g></g><g class="edgeLabel" transform="translate(141.4039077758789, 444.2999954223633)"><g class="label" data-id="L_Anim_AnimChoice_0" transform="translate(0, -10.5)"><g><rect class="background" style="" x="-13.328125" y="-1" width="26.65625" height="23"></rect><text y="-10.1" text-anchor="middle" style=""><tspan class="text-outer-tspan row" x="0" y="-0.1em" dy="1.1em" text-anchor="middle"><tspan font-style="normal" class="text-inner-tspan" font-weight="normal">Yes</tspan></tspan></text></g></g></g><g class="edgeLabel" transform="translate(272.59605, 434.35636)"><g class="label" data-id="L_Anim_Tier_0" transform="translate(0, -10.5)"><g><rect class="background" style="" x="-11.3984375" y="-1" width="22.796875" height="23"></rect><text y="-10.1" text-anchor="middle" style=""><tspan class="text-outer-tspan row" x="0" y="-0.1em" dy="1.1em" text-anchor="middle"><tspan font-style="normal" class="text-inner-tspan" font-weight="normal">No</tspan></tspan></text></g></g></g><g class="edgeLabel" transform="translate(628.5484390258789, 319.6999969482422)"><g class="label" data-id="L_Photo_Alpha_0" transform="translate(0, -10.5)"><g><rect class="background" style="" x="-59.921875" y="-1" width="119.84375" height="23"></rect><text y="-10.1" text-anchor="middle" style=""><tspan class="text-outer-tspan row" x="0" y="-0.1em" dy="1.1em" text-anchor="middle"><tspan font-style="normal" class="text-inner-tspan" font-weight="normal">No,</tspan><tspan font-style="normal" class="text-inner-tspan" font-weight="normal"> UI</tspan><tspan font-style="normal" class="text-inner-tspan" font-weight="normal"> /</tspan><tspan font-style="normal" class="text-inner-tspan" font-weight="normal"> chrome</tspan></tspan></text></g></g></g><g class="edgeLabel" transform="translate(650.9117202758789, 444.2999954223633)"><g class="label" data-id="L_Alpha_Lossless_0" transform="translate(0, -10.5)"><g><rect class="background" style="" x="-13.328125" y="-1" width="26.65625" height="23"></rect><text y="-10.1" text-anchor="middle" style=""><tspan class="text-outer-tspan row" x="0" y="-0.1em" dy="1.1em" text-anchor="middle"><tspan font-style="normal" class="text-inner-tspan" font-weight="normal">Yes</tspan></tspan></text></g></g></g><g class="edgeLabel" transform="translate(503.4351577758789, 444.2999954223633)"><g class="label" data-id="L_Alpha_Tier_0" transform="translate(0, -10.5)"><g><rect class="background" style="" x="-11.3984375" y="-1" width="22.796875" height="23"></rect><text y="-10.1" text-anchor="middle" style=""><tspan class="text-outer-tspan row" x="0" y="-0.1em" dy="1.1em" text-anchor="middle"><tspan font-style="normal" class="text-inner-tspan" font-weight="normal">No</tspan></tspan></text></g></g></g><g class="edgeLabel"><g class="label" data-id="L_Tier_CDN_0" transform="translate(0, 0)"><text y="-10.1" text-anchor="middle"><tspan class="text-outer-tspan row" x="0" y="-0.1em" dy="1.1em" text-anchor="middle"></tspan></text></g></g><g><rect class="background" style="stroke: none"></rect></g><g class="edgeLabel" transform="translate(259.4820327758789, 720.6999969482422)"><g class="label" data-id="L_CDN_Auto_0" transform="translate(0, -10.5)"><g><rect class="background" style="" x="-13.328125" y="-1" width="26.65625" height="23"></rect><text y="-10.1" text-anchor="middle" style=""><tspan class="text-outer-tspan row" x="0" y="-0.1em" dy="1.1em" text-anchor="middle"><tspan font-style="normal" class="text-inner-tspan" font-weight="normal">Yes</tspan></tspan></text></g></g></g><g class="edgeLabel" transform="translate(541.8882827758789, 720.6999969482422)"><g class="label" data-id="L_CDN_Markup_0" transform="translate(0, -10.5)"><g><rect class="background" style="" x="-11.3984375" y="-1" width="22.796875" height="23"></rect><text y="-10.1" text-anchor="middle" style=""><tspan class="text-outer-tspan row" x="0" y="-0.1em" dy="1.1em" text-anchor="middle"><tspan font-style="normal" class="text-inner-tspan" font-weight="normal">No</tspan></tspan></text></g></g></g></g><g class="nodes"><g class="node default" id="gfae7b07a-7b10-4023-8fd4-d09b2c00c5b4-light-flowchart-Asset-0" data-look="classic" transform="translate(266.02031326293945, 25)"><g class="basic label-container outer-path"><path d="M-39.3203125 -17 C-11.564400910148226 -17, 16.191510679703548 -17, 39.3203125 -17 C39.3203125 -17, 39.3203125 -17, 39.3203125 -17 C39.60368839503899 -16.990912686603817, 39.88706429007798 -16.981825373207634, 40.40950623967212 -16.965071676755716 C40.75843331562328 -16.931411101384914, 41.10736039157443 -16.89775052601411, 41.4942242486366 -16.860430234995185 C41.761203997074425 -16.81726701972663, 42.02818374551226 -16.774103804458072, 42.570009187923326 -16.686505668848113 C42.91469185928724 -16.607834098373935, 43.259374530651144 -16.529162527899757, 43.63244042646162 -16.4440126716635 C43.87933529402768 -16.3707355709475, 44.126230161593746 -16.297458470231497, 44.67715220640155 -16.133947699181366 C45.043519097395766 -15.999121296637078, 45.40988598838999 -15.86429489409279, 45.69985158294936 -15.757584874882369 C45.93477424513597 -15.65359158106553, 46.16969690732258 -15.549598287248694, 46.69633606499849 -15.316470754341125 C46.94991425201795 -15.184179176597654, 47.20349243903741 -15.051887598854183, 47.66251088406694 -14.812417970097622 C47.99958526516755 -14.608081499405491, 48.336659646268174 -14.403745028713361, 48.594405820579325 -14.247497783161291 C48.81962583436474 -14.090394051161846, 49.04484584815016 -13.933290319162401, 49.488191518350675 -13.624031571755262 C49.68636958016633 -13.46598984119699, 49.884547641981975 -13.307948110638717, 50.3401952202324 -12.944581292275288 C50.5905596566911 -12.717206935363487, 50.8409240931498 -12.489832578451686, 51.14691586025927 -12.21193895166137 C51.44758631101179 -11.901472025756297, 51.74825676176431 -11.591005099851222, 51.90503845028036 -11.42911513444239 C52.11356417114906 -11.184168957260365, 52.32208989201776 -10.939222780078342, 52.61144770195651 -10.59932663159847 C52.79893897801899 -10.348105402481378, 52.986430254081476 -10.096884173364288, 53.26324082814825 -9.725983222076888 C53.42211653073468 -9.48190747880445, 53.580992233321105 -9.237831735532012, 53.85773947109088 -8.812673661278927 C53.97196735548342 -8.609850485712414, 54.08619523987596 -8.4070273101459, 54.392500708341004 -7.863150934094199 C54.53192858702611 -7.573625960725885, 54.67135646571121 -7.284100987357571, 54.86532709126881 -6.881316833080699 C54.997059159796315 -6.555936076951487, 55.12879122832381 -6.230555320822274, 55.274275674845924 -5.871205925162238 C55.40062029414235 -5.4906760621227555, 55.52696491343877 -5.110146199083274, 55.617666001623235 -4.836968972727556 C55.69546126046322 -4.540301934092221, 55.77325651930321 -4.243634895456885, 55.894087007091 -3.7828558772573464 C55.937002884847594 -3.5624919152512096, 55.979918762604186 -3.3421279532450727, 56.10240281804565 -2.713198215567453 C56.136700274105614 -2.447193919165103, 56.17099773016558 -2.1811896227627536, 56.241757420136366 -1.632391440430593 C56.262965264593724 -1.3020621443433287, 56.28417310905108 -0.9717328482560642, 56.3115781754117 -0.5448768187181379 C56.3115781754117 -0.2680965698905786, 56.3115781754117 0.008683678936980632, 56.3115781754117 0.5448768187181336 C56.28842651398015 0.9054826331992516, 56.26527485254859 1.2660884476803695, 56.241757420136366 1.6323914404305815 C56.212747438966424 1.8573871257159402, 56.183737457796475 2.082382811001299, 56.102402818045654 2.7131982155674415 C56.05932314319848 2.934403241015151, 56.01624346835132 3.15560826646286, 55.894087007091 3.782855877257343 C55.78588492134897 4.195477325272305, 55.677682835606944 4.608098773287267, 55.617666001623235 4.836968972727545 C55.53342536689025 5.090688342620874, 55.44918473215727 5.344407712514203, 55.274275674845924 5.871205925162227 C55.17005506493179 6.12863284661856, 55.06583445501765 6.386059768074893, 54.86532709126881 6.881316833080694 C54.710376991315215 7.203074031035365, 54.55542689136161 7.5248312289900365, 54.392500708341004 7.863150934094196 C54.20016949142891 8.204654485369199, 54.007838274516814 8.5461580366442, 53.85773947109089 8.812673661278923 C53.682216025191984 9.082324808824334, 53.50669257929309 9.351975956369744, 53.263240828148255 9.725983222076879 C53.01633229763925 10.056818159129074, 52.76942376713024 10.38765309618127, 52.61144770195651 10.599326631598467 C52.42692372509001 10.816078994537584, 52.24239974822351 11.0328313574767, 51.90503845028037 11.42911513444238 C51.62786250936365 11.715322050006852, 51.35068656844694 12.001528965571323, 51.14691586025927 12.211938951661365 C50.897583369188425 12.438376123075697, 50.64825087811758 12.66481329449003, 50.34019522023242 12.944581292275275 C50.00774791590538 13.209699170681779, 49.67530061157834 13.47481704908828, 49.488191518350675 13.62403157175526 C49.277940163371476 13.770693815354283, 49.06768880839228 13.917356058953308, 48.59440582057934 14.247497783161286 C48.31051513274083 14.419593986455855, 48.026624444902325 14.591690189750421, 47.66251088406695 14.81241797009762 C47.425851600238026 14.93588296688366, 47.189192316409105 15.059347963669701, 46.69633606499849 15.316470754341124 C46.3762637719296 15.45815726387549, 46.05619147886071 15.599843773409857, 45.699851582949364 15.757584874882367 C45.421301582847356 15.86009384980788, 45.14275158274535 15.962602824733395, 44.67715220640156 16.133947699181363 C44.416537809427254 16.211296684210453, 44.15592341245296 16.28864566923954, 43.63244042646164 16.444012671663497 C43.40316748644501 16.496342724076538, 43.17389454642837 16.54867277648958, 42.57000918792333 16.68650566884811 C42.34116789330019 16.723502954672036, 42.112326598677036 16.76050024049596, 41.49422424863661 16.86043023499518 C41.204787082353995 16.888351890327343, 40.915349916071385 16.916273545659507, 40.40950623967212 16.965071676755716 C40.13430248805295 16.973896925418536, 39.859098736433786 16.982722174081356, 39.3203125 17 C39.3203125 17, 39.3203125 17, 39.3203125 17 C20.538530022051784 17, 1.7567475441035683 17, -39.3203125 17 C-39.66688111351647 16.98888621911941, -40.01344972703294 16.97777243823882, -40.40950623967211 16.965071676755716 C-40.67366976488615 16.93958813918144, -40.93783329010019 16.91410460160716, -41.494224248636606 16.86043023499518 C-41.89035309793405 16.796387194665876, -42.2864819472315 16.732344154336573, -42.570009187923326 16.68650566884811 C-42.94115961852202 16.60179300504686, -43.312310049120725 16.517080341245617, -43.63244042646162 16.4440126716635 C-44.02526144364414 16.327425455723326, -44.41808246082666 16.21083823978315, -44.677152206401544 16.13394769918137 C-44.9248643971156 16.042787323172206, -45.17257658782966 15.951626947163046, -45.699851582949364 15.757584874882369 C-46.09618344431193 15.582140516624108, -46.4925153056745 15.406696158365847, -46.69633606499848 15.316470754341127 C-46.90629527595298 15.206935168471459, -47.11625448690748 15.09739958260179, -47.66251088406693 14.812417970097624 C-47.95436904607711 14.635491837138117, -48.246227208087284 14.458565704178612, -48.59440582057932 14.247497783161299 C-48.89864672029401 14.03527250189661, -49.202887620008696 13.823047220631922, -49.48819151835067 13.624031571755264 C-49.79357560270099 13.380495891097665, -50.09895968705131 13.136960210440066, -50.3401952202324 12.94458129227529 C-50.61425149328203 12.695690636223247, -50.88830776633167 12.446799980171205, -51.14691586025926 12.211938951661377 C-51.355092318811884 11.996979666600687, -51.563268777364506 11.782020381539999, -51.905038450280365 11.429115134442386 C-52.05458738497933 11.253446446169534, -52.20413631967829 11.077777757896682, -52.61144770195651 10.599326631598473 C-52.81359622973929 10.328466020479283, -53.01574475752207 10.057605409360091, -53.26324082814825 9.72598322207689 C-53.41931307395724 9.486214341248148, -53.575385319766234 9.246445460419405, -53.85773947109088 8.812673661278936 C-54.03941779539213 8.490085399556838, -54.22109611969338 8.167497137834742, -54.392500708341004 7.863150934094201 C-54.50043296673657 7.639027290155435, -54.60836522513213 7.414903646216668, -54.86532709126881 6.881316833080701 C-54.98145826715572 6.594470583396491, -55.09758944304263 6.3076243337122815, -55.274275674845924 5.87120592516224 C-55.384177377156426 5.5401995082613, -55.494079079466935 5.209193091360361, -55.617666001623235 4.8369689727275516 C-55.6772904785371 4.609595000843203, -55.73691495545098 4.382221028958854, -55.894087007091 3.782855877257349 C-55.957937383305705 3.4549976901766484, -56.0217877595204 3.127139503095948, -56.10240281804565 2.713198215567455 C-56.14484536514172 2.3840222015192194, -56.18728791223779 2.0548461874709836, -56.241757420136366 1.6323914404306026 C-56.26246941029398 1.3097854753082734, -56.28318140045159 0.9871795101859443, -56.3115781754117 0.54487681871814 C-56.3115781754117 0.22636587138068892, -56.3115781754117 -0.09214507595676213, -56.3115781754117 -0.5448768187181317 C-56.28377493216432 -0.9779347746699899, -56.255971688916944 -1.4109927306218482, -56.241757420136366 -1.6323914404305793 C-56.18968077409005 -2.036287623468918, -56.13760412804373 -2.4401838065072563, -56.102402818045654 -2.713198215567447 C-56.03691656289875 -3.0494562952218502, -55.97143030775185 -3.3857143748762533, -55.894087007091 -3.782855877257341 C-55.80179936031904 -4.134788672117966, -55.70951171354707 -4.48672146697859, -55.617666001623235 -4.836968972727544 C-55.52898518314553 -5.104061468612773, -55.440304364667824 -5.371153964498003, -55.27427567484593 -5.871205925162218 C-55.140023149838605 -6.202812257526313, -55.00577062483127 -6.534418589890408, -54.86532709126881 -6.881316833080692 C-54.691261909209125 -7.242766908025893, -54.51719672714944 -7.604216982971094, -54.392500708341004 -7.863150934094194 C-54.2641037399524 -8.091132753071058, -54.13570677156379 -8.319114572047921, -53.85773947109088 -8.812673661278929 C-53.66126329748597 -9.114513825175962, -53.46478712388105 -9.416353989072993, -53.26324082814825 -9.725983222076884 C-53.034169642680254 -10.032917741789687, -52.80509845721226 -10.339852261502491, -52.61144770195651 -10.599326631598467 C-52.42387783256165 -10.819656873217594, -52.23630796316679 -11.03998711483672, -51.90503845028037 -11.42911513444238 C-51.62077986402732 -11.722635462812615, -51.33652127777427 -12.016155791182852, -51.14691586025928 -12.21193895166136 C-50.85965904406586 -12.472817991729356, -50.57240222787244 -12.733697031797352, -50.34019522023242 -12.944581292275274 C-50.00102356145224 -13.215061664415561, -49.661851902672076 -13.48554203655585, -49.488191518350675 -13.624031571755259 C-49.240607467992604 -13.79673548754425, -48.99302341763453 -13.969439403333242, -48.59440582057934 -14.247497783161284 C-48.361711145410005 -14.388558662714633, -48.12901647024067 -14.529619542267982, -47.66251088406695 -14.812417970097618 C-47.40959175366449 -14.944365718426145, -47.15667262326203 -15.076313466754671, -46.69633606499849 -15.316470754341124 C-46.42008033850291 -15.43876096962575, -46.14382461200734 -15.561051184910378, -45.69985158294937 -15.757584874882365 C-45.31117418704814 -15.90062174946848, -44.92249679114691 -16.043658624054594, -44.677152206401566 -16.133947699181363 C-44.32668093964634 -16.237965731493095, -43.97620967289111 -16.341983763804826, -43.63244042646164 -16.444012671663494 C-43.29973108800631 -16.519951407034586, -42.96702174955098 -16.59589014240568, -42.57000918792333 -16.68650566884811 C-42.144803286555515 -16.755249661460244, -41.71959738518769 -16.823993654072382, -41.49422424863661 -16.86043023499518 C-41.249186338954054 -16.884068747441056, -41.004148429271496 -16.90770725988693, -40.40950623967212 -16.965071676755716 C-40.14219171307576 -16.9736439333275, -39.87487718647941 -16.982216189899283, -39.32031250000001 -17 C-39.32031250000001 -17, -39.3203125 -17, -39.3203125 -17" stroke="none" stroke-width="0" fill="#ECECFF" style=""></path><path d="M-39.3203125 -17 C-8.70912375945704 -17, 21.90206498108592 -17, 39.3203125 -17 M-39.3203125 -17 C-17.835463437932717 -17, 3.649385624134567 -17, 39.3203125 -17 M39.3203125 -17 C39.3203125 -17, 39.3203125 -17, 39.3203125 -17 M39.3203125 -17 C39.3203125 -17, 39.3203125 -17, 39.3203125 -17 M39.3203125 -17 C39.56874858484931 -16.992033138310386, 39.81718466969862 -16.984066276620773, 40.40950623967212 -16.965071676755716 M39.3203125 -17 C39.571072749141415 -16.991958606885248, 39.82183299828283 -16.9839172137705, 40.40950623967212 -16.965071676755716 M40.40950623967212 -16.965071676755716 C40.67184994732396 -16.93976369479301, 40.93419365497581 -16.91445571283031, 41.4942242486366 -16.860430234995185 M40.40950623967212 -16.965071676755716 C40.787953993346235 -16.92856327710879, 41.16640174702035 -16.892054877461863, 41.4942242486366 -16.860430234995185 M41.4942242486366 -16.860430234995185 C41.787333821169824 -16.813042552406696, 42.08044339370305 -16.76565486981821, 42.570009187923326 -16.686505668848113 M41.4942242486366 -16.860430234995185 C41.729009605724706 -16.82247195924882, 41.96379496281281 -16.78451368350245, 42.570009187923326 -16.686505668848113 M42.570009187923326 -16.686505668848113 C42.80118438431042 -16.633741438831898, 43.032359580697516 -16.580977208815682, 43.63244042646162 -16.4440126716635 M42.570009187923326 -16.686505668848113 C42.80949302817602 -16.631845045088543, 43.04897686842872 -16.57718442132897, 43.63244042646162 -16.4440126716635 M43.63244042646162 -16.4440126716635 C44.02757906674936 -16.326737597351148, 44.422717707037094 -16.209462523038795, 44.67715220640155 -16.133947699181366 M43.63244042646162 -16.4440126716635 C43.91153827486696 -16.361177895271297, 44.190636123272306 -16.278343118879093, 44.67715220640155 -16.133947699181366 M44.67715220640155 -16.133947699181366 C45.030809535657056 -16.003798532842826, 45.384466864912554 -15.873649366504287, 45.69985158294936 -15.757584874882369 M44.67715220640155 -16.133947699181366 C45.068559126707704 -15.989906334382793, 45.45996604701385 -15.845864969584222, 45.69985158294936 -15.757584874882369 M45.69985158294936 -15.757584874882369 C45.89977277268516 -15.669085694637715, 46.09969396242096 -15.58058651439306, 46.69633606499849 -15.316470754341125 M45.69985158294936 -15.757584874882369 C46.043046002289664 -15.605662885941154, 46.386240421629964 -15.453740896999939, 46.69633606499849 -15.316470754341125 M46.69633606499849 -15.316470754341125 C46.89516103995946 -15.21274389225746, 47.09398601492043 -15.109017030173796, 47.66251088406694 -14.812417970097622 M46.69633606499849 -15.316470754341125 C47.02028267665846 -15.147468014535827, 47.34422928831843 -14.97846527473053, 47.66251088406694 -14.812417970097622 M47.66251088406694 -14.812417970097622 C47.899922504593526 -14.668497650548858, 48.13733412512012 -14.524577331000094, 48.594405820579325 -14.247497783161291 M47.66251088406694 -14.812417970097622 C47.95908950021905 -14.632630270096808, 48.255668116371154 -14.452842570095992, 48.594405820579325 -14.247497783161291 M48.594405820579325 -14.247497783161291 C48.94300691513782 -14.004328750295452, 49.29160800969631 -13.761159717429612, 49.488191518350675 -13.624031571755262 M48.594405820579325 -14.247497783161291 C48.88306046215189 -14.04614480085831, 49.17171510372445 -13.84479181855533, 49.488191518350675 -13.624031571755262 M49.488191518350675 -13.624031571755262 C49.790314302947294 -13.383096690864408, 50.092437087543914 -13.142161809973551, 50.3401952202324 -12.944581292275288 M49.488191518350675 -13.624031571755262 C49.812673708397845 -13.36526566002636, 50.137155898445016 -13.106499748297457, 50.3401952202324 -12.944581292275288 M50.3401952202324 -12.944581292275288 C50.62980213914449 -12.68156795109851, 50.91940905805657 -12.41855460992173, 51.14691586025927 -12.21193895166137 M50.3401952202324 -12.944581292275288 C50.6382484500761 -12.673897234987566, 50.93630167991979 -12.403213177699843, 51.14691586025927 -12.21193895166137 M51.14691586025927 -12.21193895166137 C51.35856589914605 -11.993392909719411, 51.57021593803283 -11.774846867777452, 51.90503845028036 -11.42911513444239 M51.14691586025927 -12.21193895166137 C51.368177178224876 -11.983468474969833, 51.58943849619049 -11.754997998278297, 51.90503845028036 -11.42911513444239 M51.90503845028036 -11.42911513444239 C52.118556589476874 -11.17830457861586, 52.3320747286734 -10.927494022789329, 52.61144770195651 -10.59932663159847 M51.90503845028036 -11.42911513444239 C52.116224528248196 -11.18104395043311, 52.327410606216034 -10.932972766423832, 52.61144770195651 -10.59932663159847 M52.61144770195651 -10.59932663159847 C52.865771939076865 -10.258555323271834, 53.12009617619722 -9.917784014945198, 53.26324082814825 -9.725983222076888 M52.61144770195651 -10.59932663159847 C52.78905527553075 -10.361348663391805, 52.966662849104985 -10.123370695185137, 53.26324082814825 -9.725983222076888 M53.26324082814825 -9.725983222076888 C53.49176713888218 -9.374905440882817, 53.720293449616115 -9.023827659688747, 53.85773947109088 -8.812673661278927 M53.26324082814825 -9.725983222076888 C53.39676524533147 -9.520853860957079, 53.5302896625147 -9.31572449983727, 53.85773947109088 -8.812673661278927 M53.85773947109088 -8.812673661278927 C54.03105973468115 -8.5049259826946, 54.20437999827142 -8.197178304110274, 54.392500708341004 -7.863150934094199 M53.85773947109088 -8.812673661278927 C54.043737206072024 -8.482415848506916, 54.229734941053174 -8.152158035734905, 54.392500708341004 -7.863150934094199 M54.392500708341004 -7.863150934094199 C54.533906195448075 -7.5695194145236355, 54.67531168255514 -7.2758878949530725, 54.86532709126881 -6.881316833080699 M54.392500708341004 -7.863150934094199 C54.56287161537367 -7.509372100287423, 54.73324252240634 -7.155593266480647, 54.86532709126881 -6.881316833080699 M54.86532709126881 -6.881316833080699 C54.968633926354975 -6.626146953116092, 55.07194076144114 -6.3709770731514865, 55.274275674845924 -5.871205925162238 M54.86532709126881 -6.881316833080699 C54.95489589598538 -6.660080153735744, 55.044464700701944 -6.438843474390789, 55.274275674845924 -5.871205925162238 M55.274275674845924 -5.871205925162238 C55.39997169992406 -5.492629524568785, 55.525667725002194 -5.114053123975331, 55.617666001623235 -4.836968972727556 M55.274275674845924 -5.871205925162238 C55.3862201097777 -5.53404712307126, 55.49816454470949 -5.196888320980282, 55.617666001623235 -4.836968972727556 M55.617666001623235 -4.836968972727556 C55.70379732362899 -4.508512912368511, 55.789928645634745 -4.180056852009466, 55.894087007091 -3.7828558772573464 M55.617666001623235 -4.836968972727556 C55.69179143306162 -4.554296576487784, 55.76591686450001 -4.271624180248011, 55.894087007091 -3.7828558772573464 M55.894087007091 -3.7828558772573464 C55.95677021170536 -3.460990869662572, 56.01945341631973 -3.139125862067798, 56.10240281804565 -2.713198215567453 M55.894087007091 -3.7828558772573464 C55.976987163362956 -3.357181095755087, 56.05988731963491 -2.9315063142528275, 56.10240281804565 -2.713198215567453 M56.10240281804565 -2.713198215567453 C56.148102612220164 -2.3587596363949888, 56.19380240639468 -2.0043210572225245, 56.241757420136366 -1.632391440430593 M56.10240281804565 -2.713198215567453 C56.15590034749648 -2.2982819414289035, 56.20939787694731 -1.8833656672903543, 56.241757420136366 -1.632391440430593 M56.241757420136366 -1.632391440430593 C56.26662581752331 -1.2450460777199164, 56.29149421491025 -0.8577007150092396, 56.3115781754117 -0.5448768187181379 M56.241757420136366 -1.632391440430593 C56.26578659156225 -1.2581176994744565, 56.28981576298813 -0.8838439585183202, 56.3115781754117 -0.5448768187181379 M56.3115781754117 -0.5448768187181379 C56.3115781754117 -0.15319696797843751, 56.3115781754117 0.23848288276126284, 56.3115781754117 0.5448768187181336 M56.3115781754117 -0.5448768187181379 C56.3115781754117 -0.24372769744074163, 56.3115781754117 0.057421423836654606, 56.3115781754117 0.5448768187181336 M56.3115781754117 0.5448768187181336 C56.28827266259529 0.9078789927049683, 56.26496714977888 1.270881166691803, 56.241757420136366 1.6323914404305815 M56.3115781754117 0.5448768187181336 C56.29747648649039 0.7645220063458664, 56.28337479756909 0.9841671939735992, 56.241757420136366 1.6323914404305815 M56.241757420136366 1.6323914404305815 C56.2032904071779 1.9307339967655486, 56.16482339421944 2.2290765531005157, 56.102402818045654 2.7131982155674415 M56.241757420136366 1.6323914404305815 C56.206870699047485 1.9029659600336346, 56.17198397795861 2.1735404796366877, 56.102402818045654 2.7131982155674415 M56.102402818045654 2.7131982155674415 C56.05811465939914 2.9406085499116403, 56.01382650075263 3.168018884255839, 55.894087007091 3.782855877257343 M56.102402818045654 2.7131982155674415 C56.02397456484651 3.115910719927867, 55.94554631164736 3.5186232242882927, 55.894087007091 3.782855877257343 M55.894087007091 3.782855877257343 C55.82754143789886 4.036622973619128, 55.76099586870671 4.290390069980913, 55.617666001623235 4.836968972727545 M55.894087007091 3.782855877257343 C55.83879565729432 3.993705757454693, 55.78350430749763 4.204555637652043, 55.617666001623235 4.836968972727545 M55.617666001623235 4.836968972727545 C55.48381752962268 5.240099244535321, 55.34996905762211 5.643229516343097, 55.274275674845924 5.871205925162227 M55.617666001623235 4.836968972727545 C55.541440649048496 5.0665475898220205, 55.46521529647376 5.296126206916495, 55.274275674845924 5.871205925162227 M55.274275674845924 5.871205925162227 C55.171339266644736 6.125460843559219, 55.068402858443555 6.379715761956211, 54.86532709126881 6.881316833080694 M55.274275674845924 5.871205925162227 C55.191013216924134 6.0768658059991605, 55.10775075900234 6.2825256868360935, 54.86532709126881 6.881316833080694 M54.86532709126881 6.881316833080694 C54.688622906794016 7.2482468530064645, 54.51191872231923 7.615176872932236, 54.392500708341004 7.863150934094196 M54.86532709126881 6.881316833080694 C54.705230651007376 7.213760516798631, 54.54513421074594 7.546204200516568, 54.392500708341004 7.863150934094196 M54.392500708341004 7.863150934094196 C54.274705641187374 8.072308003869448, 54.156910574033745 8.2814650736447, 53.85773947109089 8.812673661278923 M54.392500708341004 7.863150934094196 C54.214198248733844 8.179745006208565, 54.03589578912669 8.496339078322933, 53.85773947109089 8.812673661278923 M53.85773947109089 8.812673661278923 C53.680296800240264 9.08527325373424, 53.50285412938964 9.357872846189558, 53.263240828148255 9.725983222076879 M53.85773947109089 8.812673661278923 C53.691825130725036 9.067562642319444, 53.525910790359184 9.322451623359964, 53.263240828148255 9.725983222076879 M53.263240828148255 9.725983222076879 C53.13073895448914 9.903523661611075, 52.99823708083002 10.081064101145273, 52.61144770195651 10.599326631598467 M53.263240828148255 9.725983222076879 C53.03684703835355 10.029330275503238, 52.810453248558844 10.332677328929599, 52.61144770195651 10.599326631598467 M52.61144770195651 10.599326631598467 C52.44743866026199 10.791980984351703, 52.28342961856746 10.984635337104939, 51.90503845028037 11.42911513444238 M52.61144770195651 10.599326631598467 C52.34092538431211 10.917097539059528, 52.0704030666677 11.234868446520586, 51.90503845028037 11.42911513444238 M51.90503845028037 11.42911513444238 C51.74810749751829 11.591159227440064, 51.59117654475621 11.75320332043775, 51.14691586025927 12.211938951661365 M51.90503845028037 11.42911513444238 C51.668265383779335 11.67360276503498, 51.431492317278305 11.918090395627578, 51.14691586025927 12.211938951661365 M51.14691586025927 12.211938951661365 C50.96418534737009 12.377889968682888, 50.781454834480904 12.543840985704414, 50.34019522023242 12.944581292275275 M51.14691586025927 12.211938951661365 C50.87932574405232 12.454957215154014, 50.61173562784538 12.697975478646665, 50.34019522023242 12.944581292275275 M50.34019522023242 12.944581292275275 C50.006602518255164 13.210612594827511, 49.67300981627792 13.476643897379745, 49.488191518350675 13.62403157175526 M50.34019522023242 12.944581292275275 C50.06032320830546 13.167771774079998, 49.78045119637851 13.390962255884723, 49.488191518350675 13.62403157175526 M49.488191518350675 13.62403157175526 C49.21405002695303 13.815260808760364, 48.93990853555539 14.006490045765467, 48.59440582057934 14.247497783161286 M49.488191518350675 13.62403157175526 C49.15707282450731 13.855005638683156, 48.82595413066395 14.085979705611052, 48.59440582057934 14.247497783161286 M48.59440582057934 14.247497783161286 C48.25759923895832 14.451671912235122, 47.920792657337294 14.655846041308958, 47.66251088406695 14.81241797009762 M48.59440582057934 14.247497783161286 C48.38511542342079 14.37437085184569, 48.17582502626225 14.501243920530092, 47.66251088406695 14.81241797009762 M47.66251088406695 14.81241797009762 C47.433140297807036 14.932080458030544, 47.20376971154712 15.051742945963468, 46.69633606499849 15.316470754341124 M47.66251088406695 14.81241797009762 C47.33272287594878 14.984468162693567, 47.00293486783061 15.156518355289512, 46.69633606499849 15.316470754341124 M46.69633606499849 15.316470754341124 C46.426110531109174 15.43609158223827, 46.15588499721986 15.555712410135413, 45.699851582949364 15.757584874882367 M46.69633606499849 15.316470754341124 C46.41387508532387 15.441507851135817, 46.131414105649256 15.56654494793051, 45.699851582949364 15.757584874882367 M45.699851582949364 15.757584874882367 C45.35017844314623 15.886267822672991, 45.0005053033431 16.014950770463614, 44.67715220640156 16.133947699181363 M45.699851582949364 15.757584874882367 C45.438436757192136 15.853787947253187, 45.1770219314349 15.949991019624006, 44.67715220640156 16.133947699181363 M44.67715220640156 16.133947699181363 C44.35571634088452 16.229348176815535, 44.034280475367474 16.324748654449703, 43.63244042646164 16.444012671663497 M44.67715220640156 16.133947699181363 C44.36700951161817 16.225996423020845, 44.05686681683479 16.31804514686033, 43.63244042646164 16.444012671663497 M43.63244042646164 16.444012671663497 C43.41873127112648 16.49279039178618, 43.20502211579132 16.54156811190886, 42.57000918792333 16.68650566884811 M43.63244042646164 16.444012671663497 C43.32307900850059 16.51462239654119, 43.01371759053955 16.585232121418883, 42.57000918792333 16.68650566884811 M42.57000918792333 16.68650566884811 C42.18058325237266 16.74946503406471, 41.79115731682198 16.812424399281305, 41.49422424863661 16.86043023499518 M42.57000918792333 16.68650566884811 C42.34110314351637 16.72351342291494, 42.112197099109416 16.76052117698177, 41.49422424863661 16.86043023499518 M41.49422424863661 16.86043023499518 C41.124211658119364 16.896124904597134, 40.75419906760211 16.931819574199086, 40.40950623967212 16.965071676755716 M41.49422424863661 16.86043023499518 C41.16939974244249 16.891765664449103, 40.84457523624837 16.92310109390303, 40.40950623967212 16.965071676755716 M40.40950623967212 16.965071676755716 C40.167681009991426 16.97282654118732, 39.92585578031074 16.980581405618928, 39.3203125 17 M40.40950623967212 16.965071676755716 C40.00135280390693 16.978160363018237, 39.59319936814175 16.99124904928076, 39.3203125 17 M39.3203125 17 C39.3203125 17, 39.3203125 17, 39.3203125 17 M39.3203125 17 C39.3203125 17, 39.3203125 17, 39.3203125 17 M39.3203125 17 C21.229932227902417 17, 3.1395519558048335 17, -39.3203125 17 M39.3203125 17 C15.088203790190054 17, -9.143904919619892 17, -39.3203125 17 M-39.3203125 17 C-39.5969772514866 16.991127899915096, -39.873642002973206 16.982255799830188, -40.40950623967211 16.965071676755716 M-39.3203125 17 C-39.6610309927119 16.98907382110704, -40.001749485423794 16.978147642214086, -40.40950623967211 16.965071676755716 M-40.40950623967211 16.965071676755716 C-40.78978596094699 16.928386549397608, -41.170065682221875 16.891701422039496, -41.494224248636606 16.86043023499518 M-40.40950623967211 16.965071676755716 C-40.78226466486022 16.929112119785415, -41.15502309004833 16.893152562815114, -41.494224248636606 16.86043023499518 M-41.494224248636606 16.86043023499518 C-41.82236321219837 16.807379272122184, -42.150502175760124 16.75432830924919, -42.570009187923326 16.68650566884811 M-41.494224248636606 16.86043023499518 C-41.72861925446291 16.822535068213604, -41.96301426028923 16.784639901432023, -42.570009187923326 16.68650566884811 M-42.570009187923326 16.68650566884811 C-42.78655707882648 16.637080025856513, -43.00310496972964 16.58765438286492, -43.63244042646162 16.4440126716635 M-42.570009187923326 16.68650566884811 C-42.83829933124699 16.625270194391284, -43.10658947457066 16.564034719934458, -43.63244042646162 16.4440126716635 M-43.63244042646162 16.4440126716635 C-43.944696758080504 16.351336631505948, -44.25695308969939 16.258660591348395, -44.677152206401544 16.13394769918137 M-43.63244042646162 16.4440126716635 C-43.89390550945957 16.366411207487936, -44.15537059245753 16.28880974331237, -44.677152206401544 16.13394769918137 M-44.677152206401544 16.13394769918137 C-44.935789232617395 16.038766882719475, -45.194426258833246 15.94358606625758, -45.699851582949364 15.757584874882369 M-44.677152206401544 16.13394769918137 C-44.924281105961796 16.04300197970869, -45.17141000552205 15.952056260236013, -45.699851582949364 15.757584874882369 M-45.699851582949364 15.757584874882369 C-45.97326870110809 15.63655122730414, -46.24668581926681 15.515517579725913, -46.69633606499848 15.316470754341127 M-45.699851582949364 15.757584874882369 C-45.95483371226018 15.644711850012595, -46.209815841571 15.531838825142819, -46.69633606499848 15.316470754341127 M-46.69633606499848 15.316470754341127 C-47.02362168842055 15.145726054238281, -47.35090731184261 14.974981354135437, -47.66251088406693 14.812417970097624 M-46.69633606499848 15.316470754341127 C-47.03507109462035 15.13975290635754, -47.37380612424222 14.963035058373952, -47.66251088406693 14.812417970097624 M-47.66251088406693 14.812417970097624 C-47.86293969045885 14.690916849812437, -48.06336849685077 14.56941572952725, -48.59440582057932 14.247497783161299 M-47.66251088406693 14.812417970097624 C-47.96215814885535 14.630770037260096, -48.26180541364378 14.449122104422568, -48.59440582057932 14.247497783161299 M-48.59440582057932 14.247497783161299 C-48.826397627442375 14.085670341457087, -49.05838943430543 13.923842899752877, -49.48819151835067 13.624031571755264 M-48.59440582057932 14.247497783161299 C-48.83274290837634 14.08124414816034, -49.07107999617335 13.914990513159383, -49.48819151835067 13.624031571755264 M-49.48819151835067 13.624031571755264 C-49.75318831395294 13.412703679123346, -50.018185109555205 13.201375786491429, -50.3401952202324 12.94458129227529 M-49.48819151835067 13.624031571755264 C-49.71494286142012 13.443203409764036, -49.941694204489565 13.262375247772807, -50.3401952202324 12.94458129227529 M-50.3401952202324 12.94458129227529 C-50.620822753100896 12.689722791921769, -50.90145028596938 12.434864291568246, -51.14691586025926 12.211938951661377 M-50.3401952202324 12.94458129227529 C-50.55100336353213 12.753130914208295, -50.76181150683187 12.561680536141303, -51.14691586025926 12.211938951661377 M-51.14691586025926 12.211938951661377 C-51.34666429246864 12.005682295753923, -51.54641272467801 11.799425639846469, -51.905038450280365 11.429115134442386 M-51.14691586025926 12.211938951661377 C-51.29860740191028 12.055304980799514, -51.45029894356131 11.898671009937651, -51.905038450280365 11.429115134442386 M-51.905038450280365 11.429115134442386 C-52.061291446257194 11.245571474320663, -52.217544442234015 11.062027814198938, -52.61144770195651 10.599326631598473 M-51.905038450280365 11.429115134442386 C-52.049068729894024 11.259928972453098, -52.19309900950769 11.090742810463812, -52.61144770195651 10.599326631598473 M-52.61144770195651 10.599326631598473 C-52.80037815340391 10.346177038577157, -52.989308604851324 10.093027445555839, -53.26324082814825 9.72598322207689 M-52.61144770195651 10.599326631598473 C-52.80607013852458 10.338550297065975, -53.00069257509266 10.077773962533476, -53.26324082814825 9.72598322207689 M-53.26324082814825 9.72598322207689 C-53.42507664008038 9.477359955948799, -53.58691245201251 9.22873668982071, -53.85773947109088 8.812673661278936 M-53.26324082814825 9.72598322207689 C-53.4021824676633 9.512531552727522, -53.54112410717835 9.299079883378152, -53.85773947109088 8.812673661278936 M-53.85773947109088 8.812673661278936 C-53.987725124860305 8.581870970536585, -54.117710778629736 8.351068279794235, -54.392500708341004 7.863150934094201 M-53.85773947109088 8.812673661278936 C-54.00931619278733 8.543533843099448, -54.16089291448378 8.274394024919962, -54.392500708341004 7.863150934094201 M-54.392500708341004 7.863150934094201 C-54.54283924827646 7.550969739188783, -54.69317778821191 7.2387885442833655, -54.86532709126881 6.881316833080701 M-54.392500708341004 7.863150934094201 C-54.545716181834884 7.544995725098197, -54.698931655328764 7.226840516102193, -54.86532709126881 6.881316833080701 M-54.86532709126881 6.881316833080701 C-54.96288624177847 6.64034384514398, -55.06044539228813 6.39937085720726, -55.274275674845924 5.87120592516224 M-54.86532709126881 6.881316833080701 C-54.97660187276038 6.606465971444994, -55.087876654251936 6.331615109809287, -55.274275674845924 5.87120592516224 M-55.274275674845924 5.87120592516224 C-55.35603195467525 5.624969036410515, -55.43778823450458 5.3787321476587895, -55.617666001623235 4.8369689727275516 M-55.274275674845924 5.87120592516224 C-55.38420391612938 5.540119577103191, -55.49413215741283 5.209033229044143, -55.617666001623235 4.8369689727275516 M-55.617666001623235 4.8369689727275516 C-55.71088489798046 4.481484919592201, -55.804103794337685 4.12600086645685, -55.894087007091 3.782855877257349 M-55.617666001623235 4.8369689727275516 C-55.68311461926475 4.5873850280501465, -55.74856323690626 4.337801083372742, -55.894087007091 3.782855877257349 M-55.894087007091 3.782855877257349 C-55.957683227943264 3.456302724247021, -56.021279448795525 3.1297495712366934, -56.10240281804565 2.713198215567455 M-55.894087007091 3.782855877257349 C-55.97219467552847 3.381789507892501, -56.05030234396594 2.9807231385276527, -56.10240281804565 2.713198215567455 M-56.10240281804565 2.713198215567455 C-56.13314341208706 2.4747802385991986, -56.16388400612846 2.236362261630942, -56.241757420136366 1.6323914404306026 M-56.10240281804565 2.713198215567455 C-56.14759099232165 2.362727659297068, -56.19277916659766 2.012257103026681, -56.241757420136366 1.6323914404306026 M-56.241757420136366 1.6323914404306026 C-56.26597038174869 1.2552550189679446, -56.290183343361 0.8781185975052866, -56.3115781754117 0.54487681871814 M-56.241757420136366 1.6323914404306026 C-56.26432573530361 1.280871714884714, -56.28689405047085 0.9293519893388252, -56.3115781754117 0.54487681871814 M-56.3115781754117 0.54487681871814 C-56.3115781754117 0.18654252997859316, -56.3115781754117 -0.17179175876095365, -56.3115781754117 -0.5448768187181317 M-56.3115781754117 0.54487681871814 C-56.3115781754117 0.1263031145633456, -56.3115781754117 -0.2922705895914488, -56.3115781754117 -0.5448768187181317 M-56.3115781754117 -0.5448768187181317 C-56.28422170709443 -0.9709758945032556, -56.256865238777166 -1.3970749702883793, -56.241757420136366 -1.6323914404305793 M-56.3115781754117 -0.5448768187181317 C-56.28536879536319 -0.9531090688044086, -56.25915941531468 -1.3613413188906855, -56.241757420136366 -1.6323914404305793 M-56.241757420136366 -1.6323914404305793 C-56.19845854393997 -1.9682089738796122, -56.15515966774358 -2.3040265073286452, -56.102402818045654 -2.713198215567447 M-56.241757420136366 -1.6323914404305793 C-56.1948642321403 -1.9960857464207669, -56.14797104414423 -2.3597800524109545, -56.102402818045654 -2.713198215567447 M-56.102402818045654 -2.713198215567447 C-56.05528109532961 -2.955158302534696, -56.00815937261357 -3.197118389501945, -55.894087007091 -3.782855877257341 M-56.102402818045654 -2.713198215567447 C-56.04595229687892 -3.0030597109367427, -55.98950177571219 -3.2929212063060387, -55.894087007091 -3.782855877257341 M-55.894087007091 -3.782855877257341 C-55.8075486384218 -4.112864182959234, -55.721010269752604 -4.442872488661126, -55.617666001623235 -4.836968972727544 M-55.894087007091 -3.782855877257341 C-55.81140039807877 -4.09817575402402, -55.72871378906654 -4.413495630790698, -55.617666001623235 -4.836968972727544 M-55.617666001623235 -4.836968972727544 C-55.48621391843761 -5.232881703237427, -55.354761835252 -5.628794433747312, -55.27427567484593 -5.871205925162218 M-55.617666001623235 -4.836968972727544 C-55.53380310985129 -5.089550641007387, -55.44994021807935 -5.34213230928723, -55.27427567484593 -5.871205925162218 M-55.27427567484593 -5.871205925162218 C-55.17823301571512 -6.108433150073803, -55.08219035658432 -6.345660374985387, -54.86532709126881 -6.881316833080692 M-55.27427567484593 -5.871205925162218 C-55.18311797804031 -6.0963671986862815, -55.091960281234684 -6.321528472210345, -54.86532709126881 -6.881316833080692 M-54.86532709126881 -6.881316833080692 C-54.70290002210077 -7.218600117590662, -54.54047295293273 -7.555883402100632, -54.392500708341004 -7.863150934094194 M-54.86532709126881 -6.881316833080692 C-54.739719686719624 -7.142143296195002, -54.61411228217043 -7.402969759309311, -54.392500708341004 -7.863150934094194 M-54.392500708341004 -7.863150934094194 C-54.236582032047934 -8.140000332330551, -54.08066335575487 -8.41684973056691, -53.85773947109088 -8.812673661278929 M-54.392500708341004 -7.863150934094194 C-54.23765266351781 -8.138099317742604, -54.08280461869461 -8.413047701391013, -53.85773947109088 -8.812673661278929 M-53.85773947109088 -8.812673661278929 C-53.659143845483456 -9.117769872604367, -53.46054821987603 -9.422866083929804, -53.26324082814825 -9.725983222076884 M-53.85773947109088 -8.812673661278929 C-53.66606599079094 -9.107135598555793, -53.474392510491 -9.401597535832657, -53.26324082814825 -9.725983222076884 M-53.26324082814825 -9.725983222076884 C-53.102797785615955 -9.940962282408288, -52.94235474308366 -10.15594134273969, -52.61144770195651 -10.599326631598467 M-53.26324082814825 -9.725983222076884 C-53.078953134144484 -9.972911943087619, -52.89466544014073 -10.219840664098353, -52.61144770195651 -10.599326631598467 M-52.61144770195651 -10.599326631598467 C-52.394730908962664 -10.853894508183895, -52.17801411596882 -11.108462384769323, -51.90503845028037 -11.42911513444238 M-52.61144770195651 -10.599326631598467 C-52.3780675616146 -10.873468224150258, -52.14468742127269 -11.147609816702051, -51.90503845028037 -11.42911513444238 M-51.90503845028037 -11.42911513444238 C-51.68616306228478 -11.655121942551384, -51.46728767428918 -11.881128750660388, -51.14691586025928 -12.21193895166136 M-51.90503845028037 -11.42911513444238 C-51.62950065903581 -11.713630525975764, -51.353962867791246 -11.998145917509149, -51.14691586025928 -12.21193895166136 M-51.14691586025928 -12.21193895166136 C-50.94902620067605 -12.391657104621371, -50.751136541092826 -12.571375257581384, -50.34019522023242 -12.944581292275274 M-51.14691586025928 -12.21193895166136 C-50.93212844975368 -12.407003194919081, -50.717341039248076 -12.602067438176801, -50.34019522023242 -12.944581292275274 M-50.34019522023242 -12.944581292275274 C-50.09639128092623 -13.13900844597666, -49.85258734162004 -13.333435599678047, -49.488191518350675 -13.624031571755259 M-50.34019522023242 -12.944581292275274 C-50.15378996612533 -13.093234521973537, -49.967384712018244 -13.241887751671799, -49.488191518350675 -13.624031571755259 M-49.488191518350675 -13.624031571755259 C-49.14388431797553 -13.864205369918482, -48.79957711760038 -14.104379168081705, -48.59440582057934 -14.247497783161284 M-49.488191518350675 -13.624031571755259 C-49.287297510086226 -13.764166535359086, -49.08640350182177 -13.904301498962914, -48.59440582057934 -14.247497783161284 M-48.59440582057934 -14.247497783161284 C-48.25648388173298 -14.452348048339685, -47.918561942886626 -14.657198313518084, -47.66251088406695 -14.812417970097618 M-48.59440582057934 -14.247497783161284 C-48.299302929022204 -14.426390890240306, -48.00420003746507 -14.605283997319328, -47.66251088406695 -14.812417970097618 M-47.66251088406695 -14.812417970097618 C-47.38383665809128 -14.957802135289763, -47.10516243211561 -15.103186300481907, -46.69633606499849 -15.316470754341124 M-47.66251088406695 -14.812417970097618 C-47.45642766503377 -14.919931453464622, -47.250344446000604 -15.027444936831627, -46.69633606499849 -15.316470754341124 M-46.69633606499849 -15.316470754341124 C-46.43131696328841 -15.433786849155846, -46.16629786157832 -15.551102943970566, -45.69985158294937 -15.757584874882365 M-46.69633606499849 -15.316470754341124 C-46.482776681112966 -15.411007158573208, -46.269217297227435 -15.50554356280529, -45.69985158294937 -15.757584874882365 M-45.69985158294937 -15.757584874882365 C-45.39613152875172 -15.869356662384506, -45.09241147455406 -15.981128449886647, -44.677152206401566 -16.133947699181363 M-45.69985158294937 -15.757584874882365 C-45.440573326781234 -15.853001669894166, -45.181295070613096 -15.948418464905968, -44.677152206401566 -16.133947699181363 M-44.677152206401566 -16.133947699181363 C-44.45812296730826 -16.19895442763632, -44.239093728214954 -16.263961156091273, -43.63244042646164 -16.444012671663494 M-44.677152206401566 -16.133947699181363 C-44.45025078817831 -16.201290849080177, -44.22334936995505 -16.26863399897899, -43.63244042646164 -16.444012671663494 M-43.63244042646164 -16.444012671663494 C-43.29337937524894 -16.521401144022658, -42.954318324036244 -16.598789616381822, -42.57000918792333 -16.68650566884811 M-43.63244042646164 -16.444012671663494 C-43.41135479940852 -16.49447402331982, -43.19026917235541 -16.544935374976152, -42.57000918792333 -16.68650566884811 M-42.57000918792333 -16.68650566884811 C-42.192547499208985 -16.74753074742033, -41.81508581049464 -16.808555825992553, -41.49422424863661 -16.86043023499518 M-42.57000918792333 -16.68650566884811 C-42.28329084640507 -16.732860066770833, -41.99657250488682 -16.77921446469356, -41.49422424863661 -16.86043023499518 M-41.49422424863661 -16.86043023499518 C-41.23093980424798 -16.88582896869948, -40.96765535985936 -16.91122770240378, -40.40950623967212 -16.965071676755716 M-41.49422424863661 -16.86043023499518 C-41.13115361701708 -16.895455222171197, -40.76808298539755 -16.930480209347216, -40.40950623967212 -16.965071676755716 M-40.40950623967212 -16.965071676755716 C-40.11597772385614 -16.97448456493934, -39.82244920804017 -16.98389745312296, -39.32031250000001 -17 M-40.40950623967212 -16.965071676755716 C-39.977677611237596 -16.978919580366178, -39.54584898280308 -16.99276748397664, -39.32031250000001 -17 M-39.32031250000001 -17 C-39.32031250000001 -17, -39.32031250000001 -17, -39.3203125 -17 M-39.32031250000001 -17 C-39.32031250000001 -17, -39.32031250000001 -17, -39.3203125 -17" stroke="#9370DB" stroke-width="1.3" fill="none" stroke-dasharray="0 0" style=""></path></g><g class="label" style="" transform="translate(0, -9.5)"><rect></rect><g><rect class="background" style="stroke: none"></rect><text y="-10.1" style=""><tspan class="text-outer-tspan row" x="0" y="-0.1em" dy="1.1em"><tspan font-style="normal" class="text-inner-tspan" font-weight="normal">Source</tspan><tspan font-style="normal" class="text-inner-tspan" font-weight="normal"> asset</tspan></tspan></text></g></g></g><g class="node default" id="gfae7b07a-7b10-4023-8fd4-d09b2c00c5b4-light-flowchart-Vec-1" data-look="classic" transform="translate(266.02031326293945, 117.79999923706055)"><polygon points="12.899999618530273,0 184.47812461853027,0 197.37812423706055,-25.799999237060547 184.47812461853027,-51.599998474121094 12.899999618530273,-51.599998474121094 0,-25.799999237060547" class="label-container" transform="translate(-98.68906211853027,25.799999237060547)"></polygon><g class="label" style="" transform="translate(0, -18.299999237060547)"><rect></rect><g><rect class="background" style="stroke: none"></rect><text y="-10.1" style=""><tspan class="text-outer-tspan row" x="0" y="-0.1em" dy="1.1em"><tspan font-style="normal" class="text-inner-tspan" font-weight="normal">Vector</tspan><tspan font-style="normal" class="text-inner-tspan" font-weight="normal"> geometry</tspan></tspan><tspan class="text-outer-tspan row" x="0" y="1em" dy="1.1em"><tspan font-style="normal" class="text-inner-tspan" font-weight="normal">(icon,</tspan><tspan font-style="normal" class="text-inner-tspan" font-weight="normal"> logo,</tspan><tspan font-style="normal" class="text-inner-tspan" font-weight="normal"> diagram)?</tspan></tspan></text></g></g></g><g class="node default" id="gfae7b07a-7b10-4023-8fd4-d09b2c00c5b4-light-flowchart-SVG-3" data-look="classic" transform="translate(135.8828125, 249.89999771118164)"><rect class="basic label-container" style="" x="-127.8828125" y="-33.29999923706055" width="255.765625" height="66.5999984741211"></rect><g class="label" style="" transform="translate(0, -18.299999237060547)"><rect></rect><g><rect class="background" style="stroke: none"></rect><text y="-10.1" style=""><tspan class="text-outer-tspan row" x="0" y="-0.1em" dy="1.1em"><tspan font-style="normal" class="text-inner-tspan" font-weight="normal">SVG</tspan></tspan><tspan class="text-outer-tspan row" x="0" y="1em" dy="1.1em"><tspan font-style="normal" class="text-inner-tspan" font-weight="normal">(no</tspan><tspan font-style="normal" class="text-inner-tspan" font-weight="normal"> raster</tspan><tspan font-style="normal" class="text-inner-tspan" font-weight="normal"> fallback</tspan><tspan font-style="normal" class="text-inner-tspan" font-weight="normal"> needed)</tspan></tspan></text></g></g></g><g class="node default" id="gfae7b07a-7b10-4023-8fd4-d09b2c00c5b4-light-flowchart-Photo-5" data-look="classic" transform="translate(396.1578140258789, 249.89999771118164)"><polygon points="12.899999618530273,0 151.88437461853027,0 164.78437423706055,-25.799999237060547 151.88437461853027,-51.599998474121094 12.899999618530273,-51.599998474121094 0,-25.799999237060547" class="label-container" transform="translate(-82.39218711853027,25.799999237060547)"></polygon><g class="label" style="" transform="translate(0, -18.299999237060547)"><rect></rect><g><rect class="background" style="stroke: none"></rect><text y="-10.1" style=""><tspan class="text-outer-tspan row" x="0" y="-0.1em" dy="1.1em"><tspan font-style="normal" class="text-inner-tspan" font-weight="normal">Photographic</tspan><tspan font-style="normal" class="text-inner-tspan" font-weight="normal"> /</tspan></tspan><tspan class="text-outer-tspan row" x="0" y="1em" dy="1.1em"><tspan font-style="normal" class="text-inner-tspan" font-weight="normal">complex</tspan><tspan font-style="normal" class="text-inner-tspan" font-weight="normal"> texture?</tspan></tspan></text></g></g></g><g class="node default" id="gfae7b07a-7b10-4023-8fd4-d09b2c00c5b4-light-flowchart-Anim-7" data-look="classic" transform="translate(163.7671890258789, 381.99999618530273)"><polygon points="8.5,0 97.796875,0 106.296875,-17 97.796875,-34 8.5,-34 0,-17" class="label-container" transform="translate(-53.1484375,17)"></polygon><g class="label" style="" transform="translate(0, -9.5)"><rect></rect><g><rect class="background" style="stroke: none"></rect><text y="-10.1" style=""><tspan class="text-outer-tspan row" x="0" y="-0.1em" dy="1.1em"><tspan font-style="normal" class="text-inner-tspan" font-weight="normal">Animated?</tspan></tspan></text></g></g></g><g class="node default" id="gfae7b07a-7b10-4023-8fd4-d09b2c00c5b4-light-flowchart-AnimChoice-9" data-look="classic" transform="translate(141.4039077758789, 531.6999969482422)"><rect class="basic label-container" style="" x="-96.9296875" y="-42.099998474121094" width="193.859375" height="84.19999694824219"></rect><g class="label" style="" transform="translate(0, -27.099998474121094)"><rect></rect><g><rect class="background" style="stroke: none"></rect><text y="-10.1" style=""><tspan class="text-outer-tspan row" x="0" y="-0.1em" dy="1.1em"><tspan font-style="normal" class="text-inner-tspan" font-weight="normal">AVIF</tspan><tspan font-style="normal" class="text-inner-tspan" font-weight="normal"> (animated)</tspan><tspan font-style="normal" class="text-inner-tspan" font-weight="normal"> or</tspan></tspan><tspan class="text-outer-tspan row" x="0" y="1em" dy="1.1em"><tspan font-style="normal" class="text-inner-tspan" font-weight="normal">MP4</tspan><tspan font-style="normal" class="text-inner-tspan" font-weight="normal"> /</tspan><tspan font-style="normal" class="text-inner-tspan" font-weight="normal"> WebM</tspan><tspan font-style="normal" class="text-inner-tspan" font-weight="normal"> video</tspan></tspan><tspan class="text-outer-tspan row" x="0" y="2.1em" dy="1.1em"><tspan font-style="normal" class="text-inner-tspan" font-weight="normal">with</tspan><tspan font-style="normal" class="text-inner-tspan" font-weight="normal"> poster</tspan></tspan></text></g></g></g><g class="node default" id="gfae7b07a-7b10-4023-8fd4-d09b2c00c5b4-light-flowchart-Tier-11" data-look="classic" transform="translate(400.6851577758789, 531.6999969482422)"><rect class="basic label-container" style="" x="-112.3515625" y="-50.900001525878906" width="224.703125" height="101.80000305175781"></rect><g class="label" style="" transform="translate(0, -35.900001525878906)"><rect></rect><g><rect class="background" style="stroke: none"></rect><text y="-10.1" style=""><tspan class="text-outer-tspan row" x="0" y="-0.1em" dy="1.1em"><tspan font-style="normal" class="text-inner-tspan" font-weight="normal">picture</tspan><tspan font-style="normal" class="text-inner-tspan" font-weight="normal"> order:</tspan></tspan><tspan class="text-outer-tspan row" x="0" y="1em" dy="1.1em"><tspan font-style="normal" class="text-inner-tspan" font-weight="normal">1.</tspan><tspan font-style="normal" class="text-inner-tspan" font-weight="normal"> AVIF</tspan><tspan font-style="normal" class="text-inner-tspan" font-weight="normal"> (image/avif)</tspan></tspan><tspan class="text-outer-tspan row" x="0" y="2.1em" dy="1.1em"><tspan font-style="normal" class="text-inner-tspan" font-weight="normal">2.</tspan><tspan font-style="normal" class="text-inner-tspan" font-weight="normal"> WebP</tspan><tspan font-style="normal" class="text-inner-tspan" font-weight="normal"> (image/webp)</tspan></tspan><tspan class="text-outer-tspan row" x="0" y="3.2em" dy="1.1em"><tspan font-style="normal" class="text-inner-tspan" font-weight="normal">3.</tspan><tspan font-style="normal" class="text-inner-tspan" font-weight="normal"> JPEG</tspan><tspan font-style="normal" class="text-inner-tspan" font-weight="normal"> fallback</tspan></tspan></text></g></g></g><g class="node default" id="gfae7b07a-7b10-4023-8fd4-d09b2c00c5b4-light-flowchart-Alpha-13" data-look="classic" transform="translate(628.5484390258789, 381.99999618530273)"><polygon points="12.899999618530273,0 173.05624961853027,0 185.95624923706055,-25.799999237060547 173.05624961853027,-51.599998474121094 12.899999618530273,-51.599998474121094 0,-25.799999237060547" class="label-container" transform="translate(-92.97812461853027,25.799999237060547)"></polygon><g class="label" style="" transform="translate(0, -18.299999237060547)"><rect></rect><g><rect class="background" style="stroke: none"></rect><text y="-10.1" style=""><tspan class="text-outer-tspan row" x="0" y="-0.1em" dy="1.1em"><tspan font-style="normal" class="text-inner-tspan" font-weight="normal">Needs</tspan><tspan font-style="normal" class="text-inner-tspan" font-weight="normal"> alpha</tspan><tspan font-style="normal" class="text-inner-tspan" font-weight="normal"> or</tspan></tspan><tspan class="text-outer-tspan row" x="0" y="1em" dy="1.1em"><tspan font-style="normal" class="text-inner-tspan" font-weight="normal">pixel-perfect</tspan><tspan font-style="normal" class="text-inner-tspan" font-weight="normal"> edges?</tspan></tspan></text></g></g></g><g class="node default" id="gfae7b07a-7b10-4023-8fd4-d09b2c00c5b4-light-flowchart-Lossless-15" data-look="classic" transform="translate(650.9117202758789, 531.6999969482422)"><rect class="basic label-container" style="" x="-87.875" y="-50.900001525878906" width="175.75" height="101.80000305175781"></rect><g class="label" style="" transform="translate(0, -35.900001525878906)"><rect></rect><g><rect class="background" style="stroke: none"></rect><text y="-10.1" style=""><tspan class="text-outer-tspan row" x="0" y="-0.1em" dy="1.1em"><tspan font-style="normal" class="text-inner-tspan" font-weight="normal">picture</tspan><tspan font-style="normal" class="text-inner-tspan" font-weight="normal"> order:</tspan></tspan><tspan class="text-outer-tspan row" x="0" y="1em" dy="1.1em"><tspan font-style="normal" class="text-inner-tspan" font-weight="normal">1.</tspan><tspan font-style="normal" class="text-inner-tspan" font-weight="normal"> AVIF</tspan><tspan font-style="normal" class="text-inner-tspan" font-weight="normal"> lossless</tspan></tspan><tspan class="text-outer-tspan row" x="0" y="2.1em" dy="1.1em"><tspan font-style="normal" class="text-inner-tspan" font-weight="normal">2.</tspan><tspan font-style="normal" class="text-inner-tspan" font-weight="normal"> WebP</tspan><tspan font-style="normal" class="text-inner-tspan" font-weight="normal"> lossless</tspan></tspan><tspan class="text-outer-tspan row" x="0" y="3.2em" dy="1.1em"><tspan font-style="normal" class="text-inner-tspan" font-weight="normal">3.</tspan><tspan font-style="normal" class="text-inner-tspan" font-weight="normal"> PNG</tspan><tspan font-style="normal" class="text-inner-tspan" font-weight="normal"> fallback</tspan></tspan></text></g></g></g><g class="node default" id="gfae7b07a-7b10-4023-8fd4-d09b2c00c5b4-light-flowchart-CDN-19" data-look="classic" transform="translate(400.6851577758789, 658.3999977111816)"><polygon points="12.899999618530273,0 169.49374961853027,0 182.39374923706055,-25.799999237060547 169.49374961853027,-51.599998474121094 12.899999618530273,-51.599998474121094 0,-25.799999237060547" class="label-container" transform="translate(-91.19687461853027,25.799999237060547)"></polygon><g class="label" style="" transform="translate(0, -18.299999237060547)"><rect></rect><g><rect class="background" style="stroke: none"></rect><text y="-10.1" style=""><tspan class="text-outer-tspan row" x="0" y="-0.1em" dy="1.1em"><tspan font-style="normal" class="text-inner-tspan" font-weight="normal">Image</tspan><tspan font-style="normal" class="text-inner-tspan" font-weight="normal"> CDN</tspan><tspan font-style="normal" class="text-inner-tspan" font-weight="normal"> with</tspan></tspan><tspan class="text-outer-tspan row" x="0" y="1em" dy="1.1em"><tspan font-style="normal" class="text-inner-tspan" font-weight="normal">Accept</tspan><tspan font-style="normal" class="text-inner-tspan" font-weight="normal"> negotiation?</tspan></tspan></text></g></g></g><g class="node default" id="gfae7b07a-7b10-4023-8fd4-d09b2c00c5b4-light-flowchart-Auto-21" data-look="classic" transform="translate(259.4820327758789, 799.2999954223633)"><rect class="basic label-container" style="" x="-119.7890625" y="-33.29999923706055" width="239.578125" height="66.5999984741211"></rect><g class="label" style="" transform="translate(0, -18.299999237060547)"><rect></rect><g><rect class="background" style="stroke: none"></rect><text y="-10.1" style=""><tspan class="text-outer-tspan row" x="0" y="-0.1em" dy="1.1em"><tspan font-style="normal" class="text-inner-tspan" font-weight="normal">Single</tspan><tspan font-style="normal" class="text-inner-tspan" font-weight="normal"> URL</tspan><tspan font-style="normal" class="text-inner-tspan" font-weight="normal"> with</tspan><tspan font-style="normal" class="text-inner-tspan" font-weight="normal"> f=auto</tspan></tspan><tspan class="text-outer-tspan row" x="0" y="1em" dy="1.1em"><tspan font-style="normal" class="text-inner-tspan" font-weight="normal">Vary:</tspan><tspan font-style="normal" class="text-inner-tspan" font-weight="normal"> Accept</tspan><tspan font-style="normal" class="text-inner-tspan" font-weight="normal"> on</tspan><tspan font-style="normal" class="text-inner-tspan" font-weight="normal"> response</tspan></tspan></text></g></g></g><g class="node default" id="gfae7b07a-7b10-4023-8fd4-d09b2c00c5b4-light-flowchart-Markup-23" data-look="classic" transform="translate(541.8882827758789, 799.2999954223633)"><rect class="basic label-container" style="" x="-112.6171875" y="-42.099998474121094" width="225.234375" height="84.19999694824219"></rect><g class="label" style="" transform="translate(0, -27.099998474121094)"><rect></rect><g><rect class="background" style="stroke: none"></rect><text y="-10.1" style=""><tspan class="text-outer-tspan row" x="0" y="-0.1em" dy="1.1em"><tspan font-style="normal" class="text-inner-tspan" font-weight="normal">picture</tspan><tspan font-style="normal" class="text-inner-tspan" font-weight="normal"> per</tspan><tspan font-style="normal" class="text-inner-tspan" font-weight="normal"> image</tspan></tspan><tspan class="text-outer-tspan row" x="0" y="1em" dy="1.1em"><tspan font-style="normal" class="text-inner-tspan" font-weight="normal">with</tspan><tspan font-style="normal" class="text-inner-tspan" font-weight="normal"> explicit</tspan></tspan><tspan class="text-outer-tspan row" x="0" y="2.1em" dy="1.1em"><tspan font-style="normal" class="text-inner-tspan" font-weight="normal">type=image/avif|webp</tspan></tspan></text></g></g></g></g></g></g><defs><filter id="gfae7b07a-7b10-4023-8fd4-d09b2c00c5b4-light-drop-shadow" height="130%" width="130%"><feDropShadow dx="4" dy="4" stdDeviation="0" flood-opacity="0.06" flood-color="#000000"></feDropShadow></filter></defs><defs><filter id="gfae7b07a-7b10-4023-8fd4-d09b2c00c5b4-light-drop-shadow-small" height="150%" width="150%"><feDropShadow dx="2" dy="2" stdDeviation="0" flood-opacity="0.06" flood-color="#000000"></feDropShadow></filter></defs></svg>