<svg id="gfae7b07a-7b10-4023-8fd4-d09b2c00c5b4-dark" width="100%" xmlns="http://www.w3.org/2000/svg" xmlns:xlink="http://www.w3.org/1999/xlink" class="flowchart" style="max-width: 746.7867431640625px;" viewBox="0 0 746.7867431640625 849.4000244140625" role="graphics-document document" aria-roledescription="flowchart-v2"><style>#gfae7b07a-7b10-4023-8fd4-d09b2c00c5b4-dark{font-family:"trebuchet ms",verdana,arial,sans-serif;font-size:16px;fill:#e5e5e5;}@keyframes edge-animation-frame{from{stroke-dashoffset:0;}}@keyframes dash{to{stroke-dashoffset:0;}}#gfae7b07a-7b10-4023-8fd4-d09b2c00c5b4-dark .edge-animation-slow{stroke-dasharray:9,5!important;stroke-dashoffset:900;animation:dash 50s linear infinite;stroke-linecap:round;}#gfae7b07a-7b10-4023-8fd4-d09b2c00c5b4-dark .edge-animation-fast{stroke-dasharray:9,5!important;stroke-dashoffset:900;animation:dash 20s linear infinite;stroke-linecap:round;}#gfae7b07a-7b10-4023-8fd4-d09b2c00c5b4-dark .error-icon{fill:#252525;}#gfae7b07a-7b10-4023-8fd4-d09b2c00c5b4-dark .error-text{fill:#cccccc;stroke:#cccccc;}#gfae7b07a-7b10-4023-8fd4-d09b2c00c5b4-dark .edge-thickness-normal{stroke-width:1px;}#gfae7b07a-7b10-4023-8fd4-d09b2c00c5b4-dark .edge-thickness-thick{stroke-width:3.5px;}#gfae7b07a-7b10-4023-8fd4-d09b2c00c5b4-dark .edge-pattern-solid{stroke-dasharray:0;}#gfae7b07a-7b10-4023-8fd4-d09b2c00c5b4-dark .edge-thickness-invisible{stroke-width:0;fill:none;}#gfae7b07a-7b10-4023-8fd4-d09b2c00c5b4-dark .edge-pattern-dashed{stroke-dasharray:3;}#gfae7b07a-7b10-4023-8fd4-d09b2c00c5b4-dark .edge-pattern-dotted{stroke-dasharray:2;}#gfae7b07a-7b10-4023-8fd4-d09b2c00c5b4-dark .marker{fill:#cccccc;stroke:#cccccc;}#gfae7b07a-7b10-4023-8fd4-d09b2c00c5b4-dark .marker.cross{stroke:#cccccc;}#gfae7b07a-7b10-4023-8fd4-d09b2c00c5b4-dark svg{font-family:"trebuchet ms",verdana,arial,sans-serif;font-size:16px;}#gfae7b07a-7b10-4023-8fd4-d09b2c00c5b4-dark p{margin:0;}#gfae7b07a-7b10-4023-8fd4-d09b2c00c5b4-dark .label{font-family:"trebuchet ms",verdana,arial,sans-serif;color:#e5e5e5;}#gfae7b07a-7b10-4023-8fd4-d09b2c00c5b4-dark .cluster-label text{fill:#e5e5e5;}#gfae7b07a-7b10-4023-8fd4-d09b2c00c5b4-dark .cluster-label span{color:#e5e5e5;}#gfae7b07a-7b10-4023-8fd4-d09b2c00c5b4-dark .cluster-label span p{background-color:transparent;}#gfae7b07a-7b10-4023-8fd4-d09b2c00c5b4-dark .label text,#gfae7b07a-7b10-4023-8fd4-d09b2c00c5b4-dark span{fill:#e5e5e5;color:#e5e5e5;}#gfae7b07a-7b10-4023-8fd4-d09b2c00c5b4-dark .node rect,#gfae7b07a-7b10-4023-8fd4-d09b2c00c5b4-dark .node circle,#gfae7b07a-7b10-4023-8fd4-d09b2c00c5b4-dark .node ellipse,#gfae7b07a-7b10-4023-8fd4-d09b2c00c5b4-dark .node polygon,#gfae7b07a-7b10-4023-8fd4-d09b2c00c5b4-dark .node path{fill:#2d2d2d;stroke:#555555;stroke-width:1px;}#gfae7b07a-7b10-4023-8fd4-d09b2c00c5b4-dark .rough-node .label text,#gfae7b07a-7b10-4023-8fd4-d09b2c00c5b4-dark .node .label text,#gfae7b07a-7b10-4023-8fd4-d09b2c00c5b4-dark .image-shape .label,#gfae7b07a-7b10-4023-8fd4-d09b2c00c5b4-dark .icon-shape .label{text-anchor:middle;}#gfae7b07a-7b10-4023-8fd4-d09b2c00c5b4-dark .node .katex path{fill:#000;stroke:#000;stroke-width:1px;}#gfae7b07a-7b10-4023-8fd4-d09b2c00c5b4-dark .rough-node .label,#gfae7b07a-7b10-4023-8fd4-d09b2c00c5b4-dark .node .label,#gfae7b07a-7b10-4023-8fd4-d09b2c00c5b4-dark .image-shape .label,#gfae7b07a-7b10-4023-8fd4-d09b2c00c5b4-dark .icon-shape .label{text-align:center;}#gfae7b07a-7b10-4023-8fd4-d09b2c00c5b4-dark .node.clickable{cursor:pointer;}#gfae7b07a-7b10-4023-8fd4-d09b2c00c5b4-dark .root .anchor path{fill:#cccccc!important;stroke-width:0;stroke:#cccccc;}#gfae7b07a-7b10-4023-8fd4-d09b2c00c5b4-dark .arrowheadPath{fill:#cccccc;}#gfae7b07a-7b10-4023-8fd4-d09b2c00c5b4-dark .edgePath .path{stroke:#cccccc;stroke-width:1px;}#gfae7b07a-7b10-4023-8fd4-d09b2c00c5b4-dark .flowchart-link{stroke:#cccccc;fill:none;}#gfae7b07a-7b10-4023-8fd4-d09b2c00c5b4-dark .edgeLabel{background-color:#1e1e1e;text-align:center;}#gfae7b07a-7b10-4023-8fd4-d09b2c00c5b4-dark .edgeLabel p{background-color:#1e1e1e;}#gfae7b07a-7b10-4023-8fd4-d09b2c00c5b4-dark .edgeLabel rect{opacity:0.5;background-color:#1e1e1e;fill:#1e1e1e;}#gfae7b07a-7b10-4023-8fd4-d09b2c00c5b4-dark .labelBkg{background-color:rgba(30, 30, 30, 0.5);}#gfae7b07a-7b10-4023-8fd4-d09b2c00c5b4-dark .cluster rect{fill:#1e1e1e;stroke:#555555;stroke-width:1px;}#gfae7b07a-7b10-4023-8fd4-d09b2c00c5b4-dark .cluster text{fill:#e5e5e5;}#gfae7b07a-7b10-4023-8fd4-d09b2c00c5b4-dark .cluster span{color:#e5e5e5;}#gfae7b07a-7b10-4023-8fd4-d09b2c00c5b4-dark div.mermaidTooltip{position:absolute;text-align:center;max-width:200px;padding:2px;font-family:"trebuchet ms",verdana,arial,sans-serif;font-size:12px;background:#252525;border:1px solid #555555;border-radius:2px;pointer-events:none;z-index:100;}#gfae7b07a-7b10-4023-8fd4-d09b2c00c5b4-dark .flowchartTitleText{text-anchor:middle;font-size:18px;fill:#e5e5e5;}#gfae7b07a-7b10-4023-8fd4-d09b2c00c5b4-dark rect.text{fill:none;stroke-width:0;}#gfae7b07a-7b10-4023-8fd4-d09b2c00c5b4-dark .icon-shape,#gfae7b07a-7b10-4023-8fd4-d09b2c00c5b4-dark .image-shape{background-color:#1e1e1e;text-align:center;}#gfae7b07a-7b10-4023-8fd4-d09b2c00c5b4-dark .icon-shape p,#gfae7b07a-7b10-4023-8fd4-d09b2c00c5b4-dark .image-shape p{background-color:#1e1e1e;padding:2px;}#gfae7b07a-7b10-4023-8fd4-d09b2c00c5b4-dark .icon-shape .label rect,#gfae7b07a-7b10-4023-8fd4-d09b2c00c5b4-dark .image-shape .label rect{opacity:0.5;background-color:#1e1e1e;fill:#1e1e1e;}#gfae7b07a-7b10-4023-8fd4-d09b2c00c5b4-dark .label-icon{display:inline-block;height:1em;overflow:visible;vertical-align:-0.125em;}#gfae7b07a-7b10-4023-8fd4-d09b2c00c5b4-dark .node .label-icon path{fill:currentColor;stroke:revert;stroke-width:revert;}#gfae7b07a-7b10-4023-8fd4-d09b2c00c5b4-dark .node .neo-node{stroke:#555555;}#gfae7b07a-7b10-4023-8fd4-d09b2c00c5b4-dark [data-look="neo"].node rect,#gfae7b07a-7b10-4023-8fd4-d09b2c00c5b4-dark [data-look="neo"].cluster rect,#gfae7b07a-7b10-4023-8fd4-d09b2c00c5b4-dark [data-look="neo"].node polygon{stroke:url(#gfae7b07a-7b10-4023-8fd4-d09b2c00c5b4-dark-gradient);filter:drop-shadow( 1px 2px 2px rgba(185,185,185,1));}#gfae7b07a-7b10-4023-8fd4-d09b2c00c5b4-dark [data-look="neo"].node path{stroke:url(#gfae7b07a-7b10-4023-8fd4-d09b2c00c5b4-dark-gradient);stroke-width:1px;}#gfae7b07a-7b10-4023-8fd4-d09b2c00c5b4-dark [data-look="neo"].node .outer-path{filter:drop-shadow( 1px 2px 2px rgba(185,185,185,1));}#gfae7b07a-7b10-4023-8fd4-d09b2c00c5b4-dark [data-look="neo"].node .neo-line path{stroke:#555555;filter:none;}#gfae7b07a-7b10-4023-8fd4-d09b2c00c5b4-dark [data-look="neo"].node circle{stroke:url(#gfae7b07a-7b10-4023-8fd4-d09b2c00c5b4-dark-gradient);filter:drop-shadow( 1px 2px 2px rgba(185,185,185,1));}#gfae7b07a-7b10-4023-8fd4-d09b2c00c5b4-dark [data-look="neo"].node circle .state-start{fill:#000000;}#gfae7b07a-7b10-4023-8fd4-d09b2c00c5b4-dark [data-look="neo"].icon-shape .icon{fill:url(#gfae7b07a-7b10-4023-8fd4-d09b2c00c5b4-dark-gradient);filter:drop-shadow( 1px 2px 2px rgba(185,185,185,1));}#gfae7b07a-7b10-4023-8fd4-d09b2c00c5b4-dark [data-look="neo"].icon-shape .icon-neo path{stroke:url(#gfae7b07a-7b10-4023-8fd4-d09b2c00c5b4-dark-gradient);filter:drop-shadow( 1px 2px 2px rgba(185,185,185,1));}#gfae7b07a-7b10-4023-8fd4-d09b2c00c5b4-dark :root{--mermaid-font-family:"trebuchet ms",verdana,arial,sans-serif;}</style><g><marker id="gfae7b07a-7b10-4023-8fd4-d09b2c00c5b4-dark_flowchart-v2-pointEnd" class="marker flowchart-v2" viewBox="0 0 10 10" refX="5" refY="5" markerUnits="userSpaceOnUse" markerWidth="8" markerHeight="8" orient="auto"><path d="M 0 0 L 10 5 L 0 10 z" class="arrowMarkerPath" style="stroke-width: 1; stroke-dasharray: 1, 0;"></path></marker><marker id="gfae7b07a-7b10-4023-8fd4-d09b2c00c5b4-dark_flowchart-v2-pointStart" class="marker flowchart-v2" viewBox="0 0 10 10" refX="4.5" refY="5" markerUnits="userSpaceOnUse" markerWidth="8" markerHeight="8" orient="auto"><path d="M 0 5 L 10 10 L 10 0 z" class="arrowMarkerPath" style="stroke-width: 1; stroke-dasharray: 1, 0;"></path></marker><marker id="gfae7b07a-7b10-4023-8fd4-d09b2c00c5b4-dark_flowchart-v2-pointEnd-margin" class="marker flowchart-v2" viewBox="0 0 11.5 14" refX="11.5" refY="7" markerUnits="userSpaceOnUse" markerWidth="10.5" markerHeight="14" orient="auto"><path d="M 0 0 L 11.5 7 L 0 14 z" class="arrowMarkerPath" style="stroke-width: 0; stroke-dasharray: 1, 0;"></path></marker><marker id="gfae7b07a-7b10-4023-8fd4-d09b2c00c5b4-dark_flowchart-v2-pointStart-margin" class="marker flowchart-v2" viewBox="0 0 11.5 14" refX="1" refY="7" markerUnits="userSpaceOnUse" markerWidth="11.5" markerHeight="14" orient="auto"><polygon points="0,7 11.5,14 11.5,0" class="arrowMarkerPath" style="stroke-width: 0; stroke-dasharray: 1, 0;"></polygon></marker><marker id="gfae7b07a-7b10-4023-8fd4-d09b2c00c5b4-dark_flowchart-v2-circleEnd" class="marker flowchart-v2" viewBox="0 0 10 10" refX="11" refY="5" markerUnits="userSpaceOnUse" markerWidth="11" markerHeight="11" orient="auto"><circle cx="5" cy="5" r="5" class="arrowMarkerPath" style="stroke-width: 1; stroke-dasharray: 1, 0;"></circle></marker><marker id="gfae7b07a-7b10-4023-8fd4-d09b2c00c5b4-dark_flowchart-v2-circleStart" class="marker flowchart-v2" viewBox="0 0 10 10" refX="-1" refY="5" markerUnits="userSpaceOnUse" markerWidth="11" markerHeight="11" orient="auto"><circle cx="5" cy="5" r="5" class="arrowMarkerPath" style="stroke-width: 1; stroke-dasharray: 1, 0;"></circle></marker><marker id="gfae7b07a-7b10-4023-8fd4-d09b2c00c5b4-dark_flowchart-v2-circleEnd-margin" class="marker flowchart-v2" viewBox="0 0 10 10" refY="5" refX="12.25" markerUnits="userSpaceOnUse" markerWidth="14" markerHeight="14" orient="auto"><circle cx="5" cy="5" r="5" class="arrowMarkerPath" style="stroke-width: 0; stroke-dasharray: 1, 0;"></circle></marker><marker id="gfae7b07a-7b10-4023-8fd4-d09b2c00c5b4-dark_flowchart-v2-circleStart-margin" class="marker flowchart-v2" viewBox="0 0 10 10" refX="-2" refY="5" markerUnits="userSpaceOnUse" markerWidth="14" markerHeight="14" orient="auto"><circle cx="5" cy="5" r="5" class="arrowMarkerPath" style="stroke-width: 0; stroke-dasharray: 1, 0;"></circle></marker><marker id="gfae7b07a-7b10-4023-8fd4-d09b2c00c5b4-dark_flowchart-v2-crossEnd" class="marker cross flowchart-v2" viewBox="0 0 11 11" refX="12" refY="5.2" markerUnits="userSpaceOnUse" markerWidth="11" markerHeight="11" orient="auto"><path d="M 1,1 l 9,9 M 10,1 l -9,9" class="arrowMarkerPath" style="stroke-width: 2; stroke-dasharray: 1, 0;"></path></marker><marker id="gfae7b07a-7b10-4023-8fd4-d09b2c00c5b4-dark_flowchart-v2-crossStart" class="marker cross flowchart-v2" viewBox="0 0 11 11" refX="-1" refY="5.2" markerUnits="userSpaceOnUse" markerWidth="11" markerHeight="11" orient="auto"><path d="M 1,1 l 9,9 M 10,1 l -9,9" class="arrowMarkerPath" style="stroke-width: 2; stroke-dasharray: 1, 0;"></path></marker><marker id="gfae7b07a-7b10-4023-8fd4-d09b2c00c5b4-dark_flowchart-v2-crossEnd-margin" class="marker cross flowchart-v2" viewBox="0 0 15 15" refX="17.7" refY="7.5" markerUnits="userSpaceOnUse" markerWidth="12" markerHeight="12" orient="auto"><path d="M 1,1 L 14,14 M 1,14 L 14,1" class="arrowMarkerPath" style="stroke-width: 2.5;"></path></marker><marker id="gfae7b07a-7b10-4023-8fd4-d09b2c00c5b4-dark_flowchart-v2-crossStart-margin" class="marker cross flowchart-v2" viewBox="0 0 15 15" refX="-3.5" refY="7.5" markerUnits="userSpaceOnUse" markerWidth="12" markerHeight="12" orient="auto"><path d="M 1,1 L 14,14 M 1,14 L 14,1" class="arrowMarkerPath" style="stroke-width: 2.5; stroke-dasharray: 1, 0;"></path></marker><g class="root"><g class="clusters"></g><g class="edgePaths"><path d="M266.52,42.5L266.437,46.583C266.354,50.667,266.187,58.833,266.174,66.5C266.161,74.167,266.301,81.334,266.372,84.917L266.442,88.501" id="gfae7b07a-7b10-4023-8fd4-d09b2c00c5b4-dark-L_Asset_Vec_0" class="edge-thickness-normal edge-pattern-solid edge-thickness-normal edge-pattern-solid flowchart-link" style=";" data-edge="true" data-et="edge" data-id="L_Asset_Vec_0" data-points="W3sieCI6MjY2LjUyMDMxMzI2MjkzOTQ1LCJ5Ijo0Mi41fSx7IngiOjI2Ni4wMjAzMTMyNjI5Mzk0NSwieSI6Njd9LHsieCI6MjY2LjUyMDMxMzI2MjkzOTQ1LCJ5Ijo5Mi41fV0=" data-look="classic" marker-end="url(#gfae7b07a-7b10-4023-8fd4-d09b2c00c5b4-dark_flowchart-v2-pointEnd)"></path><path d="M212.627,144.1L199.836,150.1C187.046,156.1,161.464,168.1,148.674,179.517C135.883,190.933,135.883,201.767,135.883,207.183L135.883,212.6" id="gfae7b07a-7b10-4023-8fd4-d09b2c00c5b4-dark-L_Vec_SVG_0" class="edge-thickness-normal edge-pattern-solid edge-thickness-normal edge-pattern-solid flowchart-link" style=";" data-edge="true" data-et="edge" data-id="L_Vec_SVG_0" data-points="W3sieCI6MjEyLjYyNzA5NTU4MjEzNTgsInkiOjE0NC4wOTk5OTg0NzQxMjExfSx7IngiOjEzNS44ODI4MTI1LCJ5IjoxODAuMDk5OTk4NDc0MTIxMX0seyJ4IjoxMzUuODgyODEyNSwieSI6MjE2LjU5OTk5ODQ3NDEyMTF9XQ==" data-look="classic" marker-end="url(#gfae7b07a-7b10-4023-8fd4-d09b2c00c5b4-dark_flowchart-v2-pointEnd)"></path><path d="M320.414,144.1L333.038,150.1C345.662,156.1,370.91,168.1,383.61,180.85C396.31,193.6,396.461,207.1,396.537,213.85L396.613,220.6" id="gfae7b07a-7b10-4023-8fd4-d09b2c00c5b4-dark-L_Vec_Photo_0" class="edge-thickness-normal edge-pattern-solid edge-thickness-normal edge-pattern-solid flowchart-link" style=";" data-edge="true" data-et="edge" data-id="L_Vec_Photo_0" data-points="W3sieCI6MzIwLjQxMzUzMDk0Mzc0MzA3LCJ5IjoxNDQuMDk5OTk4NDc0MTIxMX0seyJ4IjozOTYuMTU3ODE0MDI1ODc4OSwieSI6MTgwLjA5OTk5ODQ3NDEyMTF9LHsieCI6Mzk2LjY1NzgxNDAyNTg3ODksInkiOjIyNC41OTk5OTg0NzQxMjExfV0=" data-look="classic" marker-end="url(#gfae7b07a-7b10-4023-8fd4-d09b2c00c5b4-dark_flowchart-v2-pointEnd)"></path><path d="M325.024,271.916L298.147,279.88C271.271,287.844,217.519,303.772,190.719,318.703C163.919,333.633,164.071,347.567,164.147,354.534L164.224,361.5" id="gfae7b07a-7b10-4023-8fd4-d09b2c00c5b4-dark-L_Photo_Anim_0" class="edge-thickness-normal edge-pattern-solid edge-thickness-normal edge-pattern-solid flowchart-link" style=";" data-edge="true" data-et="edge" data-id="L_Photo_Anim_0" data-points="W3sieCI6MzI1LjAyMzUzMDgxNzU5NzYsInkiOjI3MS45MTU4MDkzNDYzNzc0fSx7IngiOjE2My43NjcxODkwMjU4Nzg5LCJ5IjozMTkuNjk5OTk2OTQ4MjQyMn0seyJ4IjoxNjQuMjY3MTg5MDI1ODc4OSwieSI6MzY1LjQ5OTk5NjE4NTMwMjczfV0=" data-look="classic" marker-end="url(#gfae7b07a-7b10-4023-8fd4-d09b2c00c5b4-dark_flowchart-v2-pointEnd)"></path><path d="M158.165,399.5L155.371,406.967C152.578,414.433,146.991,429.367,144.197,443.717C141.404,458.067,141.404,471.833,141.404,478.717L141.404,485.6" id="gfae7b07a-7b10-4023-8fd4-d09b2c00c5b4-dark-L_Anim_AnimChoice_0" class="edge-thickness-normal edge-pattern-solid edge-thickness-normal edge-pattern-solid flowchart-link" style=";" data-edge="true" data-et="edge" data-id="L_Anim_AnimChoice_0" data-points="W3sieCI6MTU4LjE2NDg0ODk2MzE4NjgsInkiOjM5OS40OTk5OTYxODUzMDI4fSx7IngiOjE0MS40MDM5MDc3NzU4Nzg5LCJ5Ijo0NDQuMjk5OTk1NDIyMzYzM30seyJ4IjoxNDEuNDAzOTA3Nzc1ODc4OSwieSI6NDg5LjU5OTk5ODQ3NDEyMTF9XQ==" data-look="classic" marker-end="url(#gfae7b07a-7b10-4023-8fd4-d09b2c00c5b4-dark_flowchart-v2-pointEnd)"></path><path d="M199.643,399.5L215.27,406.967C230.898,414.433,262.153,429.367,284.73,442.496C307.308,455.624,321.208,466.949,328.158,472.611L335.108,478.273" id="gfae7b07a-7b10-4023-8fd4-d09b2c00c5b4-dark-L_Anim_Tier_0" class="edge-thickness-normal edge-pattern-solid edge-thickness-normal edge-pattern-solid flowchart-link" style=";" data-edge="true" data-et="edge" data-id="L_Anim_Tier_0" data-points="W3sieCI6MTk5LjY0MjY0MDkwMzcxNzIyLCJ5IjozOTkuNDk5OTk2MTg1MzAyOH0seyJ4IjoyOTMuNDA3ODE0MDI1ODc4OSwieSI6NDQ0LjI5OTk5NTQyMjM2MzN9LHsieCI6MzM4LjIwODk5MjI2OTc0NDIsInkiOjQ4MC43OTk5OTU0MjIzNjMzfV0=" data-look="classic" marker-end="url(#gfae7b07a-7b10-4023-8fd4-d09b2c00c5b4-dark_flowchart-v2-pointEnd)"></path><path d="M468.292,271.916L495.001,279.88C521.711,287.844,575.13,303.772,601.913,317.236C628.697,330.7,628.846,341.7,628.92,347.2L628.994,352.7" id="gfae7b07a-7b10-4023-8fd4-d09b2c00c5b4-dark-L_Photo_Alpha_0" class="edge-thickness-normal edge-pattern-solid edge-thickness-normal edge-pattern-solid flowchart-link" style=";" data-edge="true" data-et="edge" data-id="L_Photo_Alpha_0" data-points="W3sieCI6NDY4LjI5MjA5MzkxNzU0NTQ2LCJ5IjoyNzEuOTE1ODA4MzUwMjExMTR9LHsieCI6NjI4LjU0ODQzOTAyNTg3ODksInkiOjMxOS42OTk5OTY5NDgyNDIyfSx7IngiOjYyOS4wNDg0MzkwMjU4Nzg5LCJ5IjozNTYuNjk5OTk2OTQ4MjQyMn1d" data-look="classic" marker-end="url(#gfae7b07a-7b10-4023-8fd4-d09b2c00c5b4-dark_flowchart-v2-pointEnd)"></path><path d="M638.31,408.3L640.41,414.3C642.51,420.3,646.711,432.3,648.811,443.717C650.912,455.133,650.912,465.967,650.912,471.383L650.912,476.8" id="gfae7b07a-7b10-4023-8fd4-d09b2c00c5b4-dark-L_Alpha_Lossless_0" class="edge-thickness-normal edge-pattern-solid edge-thickness-normal edge-pattern-solid flowchart-link" style=";" data-edge="true" data-et="edge" data-id="L_Alpha_Lossless_0" data-points="W3sieCI6NjM4LjMwOTYzNzIwMDA5ODgsInkiOjQwOC4yOTk5OTU0MjIzNjMzfSx7IngiOjY1MC45MTE3MjAyNzU4Nzg5LCJ5Ijo0NDQuMjk5OTk1NDIyMzYzM30seyJ4Ijo2NTAuOTExNzIwMjc1ODc4OSwieSI6NDgwLjc5OTk5NTQyMjM2MzN9XQ==" data-look="classic" marker-end="url(#gfae7b07a-7b10-4023-8fd4-d09b2c00c5b4-dark_flowchart-v2-pointEnd)"></path><path d="M577.236,408.3L564.936,414.3C552.636,420.3,528.035,432.3,509.091,443.951C490.147,455.603,476.859,466.906,470.215,472.557L463.572,478.208" id="gfae7b07a-7b10-4023-8fd4-d09b2c00c5b4-dark-L_Alpha_Tier_0" class="edge-thickness-normal edge-pattern-solid edge-thickness-normal edge-pattern-solid flowchart-link" style=";" data-edge="true" data-et="edge" data-id="L_Alpha_Tier_0" data-points="W3sieCI6NTc3LjIzNTg3NzIyMjg5MzUsInkiOjQwOC4yOTk5OTU0MjIzNjMzfSx7IngiOjUwMy40MzUxNTc3NzU4Nzg5LCJ5Ijo0NDQuMjk5OTk1NDIyMzYzM30seyJ4Ijo0NjAuNTI0Njg5NDE3NDgyNzYsInkiOjQ4MC43OTk5OTU0MjIzNjMzfV0=" data-look="classic" marker-end="url(#gfae7b07a-7b10-4023-8fd4-d09b2c00c5b4-dark_flowchart-v2-pointEnd)"></path><path d="M400.685,582.6L400.685,586.767C400.685,590.933,400.685,599.267,400.755,607.017C400.826,614.767,400.966,621.934,401.036,625.517L401.107,629.101" id="gfae7b07a-7b10-4023-8fd4-d09b2c00c5b4-dark-L_Tier_CDN_0" class="edge-thickness-normal edge-pattern-solid edge-thickness-normal edge-pattern-solid flowchart-link" style=";" data-edge="true" data-et="edge" data-id="L_Tier_CDN_0" data-points="W3sieCI6NDAwLjY4NTE1Nzc3NTg3ODksInkiOjU4Mi41OTk5OTg0NzQxMjExfSx7IngiOjQwMC42ODUxNTc3NzU4Nzg5LCJ5Ijo2MDcuNTk5OTk4NDc0MTIxMX0seyJ4Ijo0MDEuMTg1MTU3Nzc1ODc4MzQsInkiOjYzMy4wOTk5OTg0NzQxMjExfV0=" data-look="classic" marker-end="url(#gfae7b07a-7b10-4023-8fd4-d09b2c00c5b4-dark_flowchart-v2-pointEnd)"></path><path d="M342.709,684.7L328.838,690.7C314.967,696.7,287.224,708.7,273.353,721.583C259.482,734.467,259.482,748.233,259.482,755.117L259.482,762" id="gfae7b07a-7b10-4023-8fd4-d09b2c00c5b4-dark-L_CDN_Auto_0" class="edge-thickness-normal edge-pattern-solid edge-thickness-normal edge-pattern-solid flowchart-link" style=";" data-edge="true" data-et="edge" data-id="L_CDN_Auto_0" data-points="W3sieCI6MzQyLjcwOTM4NjMxNzA2NjQsInkiOjY4NC42OTk5OTY5NDgyNDJ9LHsieCI6MjU5LjQ4MjAzMjc3NTg3ODksInkiOjcyMC42OTk5OTY5NDgyNDIyfSx7IngiOjI1OS40ODIwMzI3NzU4Nzg5LCJ5Ijo3NjUuOTk5OTk2MTg1MzAyN31d" data-look="classic" marker-end="url(#gfae7b07a-7b10-4023-8fd4-d09b2c00c5b4-dark_flowchart-v2-pointEnd)"></path><path d="M459.661,684.7L473.365,690.7C487.07,696.7,514.479,708.7,528.184,720.117C541.888,731.533,541.888,742.367,541.888,747.783L541.888,753.2" id="gfae7b07a-7b10-4023-8fd4-d09b2c00c5b4-dark-L_CDN_Markup_0" class="edge-thickness-normal edge-pattern-solid edge-thickness-normal edge-pattern-solid flowchart-link" style=";" data-edge="true" data-et="edge" data-id="L_CDN_Markup_0" data-points="W3sieCI6NDU5LjY2MDkyOTIzNDY5MTgsInkiOjY4NC42OTk5OTY5NDgyNDJ9LHsieCI6NTQxLjg4ODI4Mjc3NTg3ODksInkiOjcyMC42OTk5OTY5NDgyNDIyfSx7IngiOjU0MS44ODgyODI3NzU4Nzg5LCJ5Ijo3NTcuMTk5OTk2OTQ4MjQyMn1d" data-look="classic" marker-end="url(#gfae7b07a-7b10-4023-8fd4-d09b2c00c5b4-dark_flowchart-v2-pointEnd)"></path></g><g class="edgeLabels"><g class="edgeLabel"><g class="label" data-id="L_Asset_Vec_0" transform="translate(0, 0)"><text y="-10.1" text-anchor="middle"><tspan class="text-outer-tspan row" x="0" y="-0.1em" dy="1.1em" text-anchor="middle"></tspan></text></g></g><g><rect class="background" style="stroke: none"></rect></g><g class="edgeLabel" transform="translate(135.8828125, 180.0999984741211)"><g class="label" data-id="L_Vec_SVG_0" transform="translate(0, -10.5)"><g><rect class="background" style="" x="-13.328125" y="-1" width="26.65625" height="23"></rect><text y="-10.1" text-anchor="middle" style=""><tspan class="text-outer-tspan row" x="0" y="-0.1em" dy="1.1em" text-anchor="middle"><tspan font-style="normal" class="text-inner-tspan" font-weight="normal">Yes</tspan></tspan></text></g></g></g><g class="edgeLabel" transform="translate(396.1578140258789, 180.0999984741211)"><g class="label" data-id="L_Vec_Photo_0" transform="translate(0, -10.5)"><g><rect class="background" style="" x="-11.3984375" y="-1" width="22.796875" height="23"></rect><text y="-10.1" text-anchor="middle" style=""><tspan class="text-outer-tspan row" x="0" y="-0.1em" dy="1.1em" text-anchor="middle"><tspan font-style="normal" class="text-inner-tspan" font-weight="normal">No</tspan></tspan></text></g></g></g><g class="edgeLabel" transform="translate(163.7671890258789, 319.6999969482422)"><g class="label" data-id="L_Photo_Anim_0" transform="translate(0, -10.5)"><g><rect class="background" style="" x="-13.328125" y="-1" width="26.65625" height="23"></rect><text y="-10.1" text-anchor="middle" style=""><tspan class="text-outer-tspan row" x="0" y="-0.1em" dy="1.1em" text-anchor="middle"><tspan font-style="normal" class="text-inner-tspan" font-weight="normal">Yes</tspan></tspan></text></g></g></g><g class="edgeLabel" transform="translate(141.4039077758789, 444.2999954223633)"><g class="label" data-id="L_Anim_AnimChoice_0" transform="translate(0, -10.5)"><g><rect class="background" style="" x="-13.328125" y="-1" width="26.65625" height="23"></rect><text y="-10.1" text-anchor="middle" style=""><tspan class="text-outer-tspan row" x="0" y="-0.1em" dy="1.1em" text-anchor="middle"><tspan font-style="normal" class="text-inner-tspan" font-weight="normal">Yes</tspan></tspan></text></g></g></g><g class="edgeLabel" transform="translate(272.59605, 434.35636)"><g class="label" data-id="L_Anim_Tier_0" transform="translate(0, -10.5)"><g><rect class="background" style="" x="-11.3984375" y="-1" width="22.796875" height="23"></rect><text y="-10.1" text-anchor="middle" style=""><tspan class="text-outer-tspan row" x="0" y="-0.1em" dy="1.1em" text-anchor="middle"><tspan font-style="normal" class="text-inner-tspan" font-weight="normal">No</tspan></tspan></text></g></g></g><g class="edgeLabel" transform="translate(628.5484390258789, 319.6999969482422)"><g class="label" data-id="L_Photo_Alpha_0" transform="translate(0, -10.5)"><g><rect class="background" style="" x="-59.921875" y="-1" width="119.84375" height="23"></rect><text y="-10.1" text-anchor="middle" style=""><tspan class="text-outer-tspan row" x="0" y="-0.1em" dy="1.1em" text-anchor="middle"><tspan font-style="normal" class="text-inner-tspan" font-weight="normal">No,</tspan><tspan font-style="normal" class="text-inner-tspan" font-weight="normal"> UI</tspan><tspan font-style="normal" class="text-inner-tspan" font-weight="normal"> /</tspan><tspan font-style="normal" class="text-inner-tspan" font-weight="normal"> chrome</tspan></tspan></text></g></g></g><g class="edgeLabel" transform="translate(650.9117202758789, 444.2999954223633)"><g class="label" data-id="L_Alpha_Lossless_0" transform="translate(0, -10.5)"><g><rect class="background" style="" x="-13.328125" y="-1" width="26.65625" height="23"></rect><text y="-10.1" text-anchor="middle" style=""><tspan class="text-outer-tspan row" x="0" y="-0.1em" dy="1.1em" text-anchor="middle"><tspan font-style="normal" class="text-inner-tspan" font-weight="normal">Yes</tspan></tspan></text></g></g></g><g class="edgeLabel" transform="translate(503.4351577758789, 444.2999954223633)"><g class="label" data-id="L_Alpha_Tier_0" transform="translate(0, -10.5)"><g><rect class="background" style="" x="-11.3984375" y="-1" width="22.796875" height="23"></rect><text y="-10.1" text-anchor="middle" style=""><tspan class="text-outer-tspan row" x="0" y="-0.1em" dy="1.1em" text-anchor="middle"><tspan font-style="normal" class="text-inner-tspan" font-weight="normal">No</tspan></tspan></text></g></g></g><g class="edgeLabel"><g class="label" data-id="L_Tier_CDN_0" transform="translate(0, 0)"><text y="-10.1" text-anchor="middle"><tspan class="text-outer-tspan row" x="0" y="-0.1em" dy="1.1em" text-anchor="middle"></tspan></text></g></g><g><rect class="background" style="stroke: none"></rect></g><g class="edgeLabel" transform="translate(259.4820327758789, 720.6999969482422)"><g class="label" data-id="L_CDN_Auto_0" transform="translate(0, -10.5)"><g><rect class="background" style="" x="-13.328125" y="-1" width="26.65625" height="23"></rect><text y="-10.1" text-anchor="middle" style=""><tspan class="text-outer-tspan row" x="0" y="-0.1em" dy="1.1em" text-anchor="middle"><tspan font-style="normal" class="text-inner-tspan" font-weight="normal">Yes</tspan></tspan></text></g></g></g><g class="edgeLabel" transform="translate(541.8882827758789, 720.6999969482422)"><g class="label" data-id="L_CDN_Markup_0" transform="translate(0, -10.5)"><g><rect class="background" style="" x="-11.3984375" y="-1" width="22.796875" height="23"></rect><text y="-10.1" text-anchor="middle" style=""><tspan class="text-outer-tspan row" x="0" y="-0.1em" dy="1.1em" text-anchor="middle"><tspan font-style="normal" class="text-inner-tspan" font-weight="normal">No</tspan></tspan></text></g></g></g></g><g class="nodes"><g class="node default" id="gfae7b07a-7b10-4023-8fd4-d09b2c00c5b4-dark-flowchart-Asset-0" data-look="classic" transform="translate(266.02031326293945, 25)"><g class="basic label-container outer-path"><path d="M-39.3203125 -17 C-22.57803935969696 -17, -5.835766219393918 -17, 39.3203125 -17 C39.3203125 -17, 39.3203125 -17, 39.3203125 -17 C39.62570441703579 -16.990206675629967, 39.93109633407159 -16.980413351259934, 40.40950623967212 -16.965071676755716 C40.72391316027085 -16.9347412192552, 41.038320080869575 -16.904410761754686, 41.4942242486366 -16.860430234995185 C41.7608285100105 -16.817327725563178, 42.0274327713844 -16.77422521613117, 42.570009187923326 -16.686505668848113 C42.85838028662974 -16.620686847365654, 43.14675138533616 -16.5548680258832, 43.63244042646162 -16.4440126716635 C43.85099585697294 -16.379146567108606, 44.06955128748427 -16.314280462553707, 44.67715220640155 -16.133947699181366 C45.07216766502233 -15.988578358926048, 45.4671831236431 -15.84320901867073, 45.69985158294936 -15.757584874882369 C45.92780220732251 -15.656677895387398, 46.15575283169565 -15.555770915892428, 46.69633606499849 -15.316470754341125 C46.90786176024559 -15.206117934619389, 47.119387455492685 -15.095765114897652, 47.66251088406694 -14.812417970097622 C47.929430238238304 -14.650609889006704, 48.19634959240967 -14.488801807915786, 48.594405820579325 -14.247497783161291 C48.84624071447029 -14.071828662939808, 49.09807560836125 -13.896159542718324, 49.488191518350675 -13.624031571755262 C49.67340721373269 -13.47632698348476, 49.85862290911469 -13.328622395214257, 50.3401952202324 -12.944581292275288 C50.64201394867388 -12.670477508790693, 50.94383267711535 -12.396373725306098, 51.14691586025927 -12.21193895166137 C51.431857940619956 -11.917712859509091, 51.71680002098064 -11.623486767356813, 51.90503845028036 -11.42911513444239 C52.08072857606754 -11.222739515641402, 52.25641870185473 -11.016363896840415, 52.61144770195651 -10.59932663159847 C52.813088240500306 -10.329146679780747, 53.0147287790441 -10.058966727963025, 53.26324082814825 -9.725983222076888 C53.44139276713968 -9.452294003292126, 53.61954470613111 -9.178604784507366, 53.85773947109088 -8.812673661278927 C53.9836261105836 -8.589149185455074, 54.10951275007632 -8.365624709631224, 54.392500708341004 -7.863150934094199 C54.49444251251916 -7.651466596513068, 54.59638431669732 -7.439782258931937, 54.86532709126881 -6.881316833080699 C54.97848759806808 -6.601808193476947, 55.091648104867346 -6.322299553873194, 55.274275674845924 -5.871205925162238 C55.38140254322213 -5.5485568659616655, 55.48852941159833 -5.225907806761093, 55.617666001623235 -4.836968972727556 C55.68743363709698 -4.570914741181671, 55.757201272570725 -4.304860509635787, 55.894087007091 -3.7828558772573464 C55.94685197090871 -3.5119189399324626, 55.99961693472642 -3.240982002607579, 56.10240281804565 -2.713198215567453 C56.15195438677221 -2.3288860335882435, 56.201505955498774 -1.944573851609034, 56.241757420136366 -1.632391440430593 C56.25829161698433 -1.3748579783601516, 56.27482581383229 -1.1173245162897099, 56.3115781754117 -0.5448768187181379 C56.3115781754117 -0.20957802773860013, 56.3115781754117 0.12572076324093762, 56.3115781754117 0.5448768187181336 C56.29069469872641 0.8701538249303613, 56.26981122204113 1.195430831142589, 56.241757420136366 1.6323914404305815 C56.20513614015632 1.9164188562661182, 56.16851486017628 2.200446272101655, 56.102402818045654 2.7131982155674415 C56.044479990337564 3.010619693854524, 55.98655716262947 3.3080411721416074, 55.894087007091 3.782855877257343 C55.82060197591433 4.0630861497479644, 55.74711694473766 4.343316422238586, 55.617666001623235 4.836968972727545 C55.52824496730353 5.10629088079149, 55.43882393298383 5.375612788855435, 55.274275674845924 5.871205925162227 C55.178084457853394 6.108800090864448, 55.08189324086086 6.346394256566669, 54.86532709126881 6.881316833080694 C54.717691841367774 7.187884588388501, 54.57005659146674 7.494452343696308, 54.392500708341004 7.863150934094196 C54.24386436849471 8.127069806552779, 54.09522802864842 8.390988679011363, 53.85773947109089 8.812673661278923 C53.62069478920342 9.176837948067764, 53.383650107315944 9.541002234856602, 53.263240828148255 9.725983222076879 C53.02818385037079 10.040938158167478, 52.79312687259332 10.355893094258077, 52.61144770195651 10.599326631598467 C52.44556861054669 10.794177651156131, 52.27968951913687 10.989028670713795, 51.90503845028037 11.42911513444238 C51.6741176255652 11.667559844913088, 51.44319680085004 11.906004555383793, 51.14691586025927 12.211938951661365 C50.96038425817233 12.381342017320982, 50.773852656085396 12.550745082980598, 50.34019522023242 12.944581292275275 C50.11855779695833 13.121331239316827, 49.89692037368423 13.298081186358381, 49.488191518350675 13.62403157175526 C49.25845130952854 13.784288396136235, 49.028711100706396 13.944545220517211, 48.59440582057934 14.247497783161286 C48.23775799923837 14.463699788353424, 47.8811101778974 14.679901793545561, 47.66251088406695 14.81241797009762 C47.4651687659623 14.915371226709158, 47.26782664785764 15.018324483320695, 46.69633606499849 15.316470754341124 C46.46945361103631 15.41690488648131, 46.242571157074124 15.517339018621497, 45.699851582949364 15.757584874882367 C45.39237569256468 15.870738844819904, 45.08489980218 15.983892814757441, 44.67715220640156 16.133947699181363 C44.33305986219187 16.23607250076523, 43.98896751798217 16.338197302349094, 43.63244042646164 16.444012671663497 C43.21273279456196 16.539808199796344, 42.793025162662275 16.635603727929187, 42.57000918792333 16.68650566884811 C42.350260311650835 16.72203296298586, 42.13051143537834 16.757560257123608, 41.49422424863661 16.86043023499518 C41.21444218051369 16.887420474619834, 40.934660112390766 16.914410714244486, 40.40950623967212 16.965071676755716 C39.99997065335596 16.978204685896216, 39.5904350670398 16.991337695036712, 39.3203125 17 C39.3203125 17, 39.3203125 17, 39.3203125 17 C11.463753302437201 17, -16.392805895125598 17, -39.3203125 17 C-39.580399176998164 16.991659526496676, -39.84048585399633 16.983319052993348, -40.40950623967211 16.965071676755716 C-40.70019099980433 16.937029667545332, -40.99087575993655 16.90898765833495, -41.494224248636606 16.86043023499518 C-41.7590148006604 16.817620952025376, -42.02380535268419 16.774811669055566, -42.570009187923326 16.68650566884811 C-42.785926600816744 16.637223928347986, -43.001844013710155 16.587942187847858, -43.63244042646162 16.4440126716635 C-43.90332097032317 16.363616748126383, -44.174201514184716 16.283220824589264, -44.677152206401544 16.13394769918137 C-44.97709261301832 16.023566856927673, -45.2770330196351 15.913186014673972, -45.699851582949364 15.757584874882369 C-45.961571659083525 15.64172916082799, -46.223291735217686 15.525873446773614, -46.69633606499848 15.316470754341127 C-47.00544548241627 15.155208569268298, -47.31455489983406 14.993946384195471, -47.66251088406693 14.812417970097624 C-48.02663660745073 14.591682816742095, -48.39076233083454 14.370947663386564, -48.59440582057932 14.247497783161299 C-48.77959350728979 14.118318869557825, -48.96478119400026 13.989139955954354, -49.48819151835067 13.624031571755264 C-49.78769194829651 13.385187948914615, -50.087192378242364 13.146344326073965, -50.3401952202324 12.94458129227529 C-50.583867379482534 12.723284684456356, -50.827539538732665 12.501988076637423, -51.14691586025926 12.211938951661377 C-51.3304912779587 12.022382261064614, -51.514066695658144 11.832825570467852, -51.905038450280365 11.429115134442386 C-52.13716783538145 11.156442750166462, -52.36929722048253 10.883770365890541, -52.61144770195651 10.599326631598473 C-52.804059727016664 10.341244065334324, -52.99667175207683 10.083161499070176, -53.26324082814825 9.72598322207689 C-53.45327926046575 9.434033157572918, -53.64331769278324 9.142083093068946, -53.85773947109088 8.812673661278936 C-53.994287873175274 8.570218146353033, -54.13083627525967 8.327762631427131, -54.392500708341004 7.863150934094201 C-54.50352048929092 7.63261598350892, -54.61454027024084 7.402081032923639, -54.86532709126881 6.881316833080701 C-54.94997273987806 6.672240444503566, -55.03461838848731 6.4631640559264305, -55.274275674845924 5.87120592516224 C-55.39195414866279 5.51677711154441, -55.50963262247966 5.162348297926581, -55.617666001623235 4.8369689727275516 C-55.69280688828031 4.550424205637854, -55.767947774937376 4.263879438548156, -55.894087007091 3.782855877257349 C-55.95976142413052 3.445631626052363, -56.025435841170044 3.1084073748473773, -56.10240281804565 2.713198215567455 C-56.134349886838706 2.46542305867078, -56.166296955631765 2.2176479017741055, -56.241757420136366 1.6323914404306026 C-56.265014838327104 1.2701383790598275, -56.28827225651784 0.9078853176890525, -56.3115781754117 0.54487681871814 C-56.3115781754117 0.18734398459621587, -56.3115781754117 -0.17018884952570823, -56.3115781754117 -0.5448768187181317 C-56.28545268068898 -0.9518024871442528, -56.25932718596626 -1.3587281555703736, -56.241757420136366 -1.6323914404305793 C-56.20836747853232 -1.8913572339218676, -56.17497753692826 -2.150323027413156, -56.102402818045654 -2.713198215567447 C-56.03252334954587 -3.0720145172829585, -55.96264388104608 -3.43083081899847, -55.894087007091 -3.782855877257341 C-55.80687282627352 -4.115441347579486, -55.71965864545603 -4.44802681790163, -55.617666001623235 -4.836968972727544 C-55.5040464824726 -5.1791728615972765, -55.39042696332197 -5.5213767504670095, -55.27427567484593 -5.871205925162218 C-55.189261977963724 -6.081191400089274, -55.104248281081524 -6.29117687501633, -54.86532709126881 -6.881316833080692 C-54.7369727296036 -7.14784741142189, -54.60861836793839 -7.4143779897630875, -54.392500708341004 -7.863150934094194 C-54.18092300828371 -8.238828565111241, -53.96934530822642 -8.614506196128287, -53.85773947109088 -8.812673661278929 C-53.71911772534624 -9.025633887893449, -53.580495979601594 -9.238594114507968, -53.26324082814825 -9.725983222076884 C-53.097615577020036 -9.947905969817908, -52.93199032589182 -10.169828717558934, -52.61144770195651 -10.599326631598467 C-52.399551006940676 -10.848232546827578, -52.187654311924845 -11.09713846205669, -51.90503845028037 -11.42911513444238 C-51.656245182513864 -11.68601460971846, -51.407451914747355 -11.942914084994543, -51.14691586025928 -12.21193895166136 C-50.919416103314354 -12.41854821160502, -50.69191634636943 -12.62515747154868, -50.34019522023242 -12.944581292275274 C-50.144104397135976 -13.100958505498733, -49.94801357403953 -13.257335718722194, -49.488191518350675 -13.624031571755259 C-49.19037820721644 -13.831773245472046, -48.89256489608221 -14.039514919188832, -48.59440582057934 -14.247497783161284 C-48.28837725011686 -14.433014100999143, -47.98234867965437 -14.618530418837004, -47.66251088406695 -14.812417970097618 C-47.443222675857996 -14.926820487859427, -47.223934467649045 -15.041223005621234, -46.69633606499849 -15.316470754341124 C-46.392901780856775 -15.450792110872431, -46.08946749671506 -15.585113467403739, -45.69985158294937 -15.757584874882365 C-45.347424120858236 -15.88728143873565, -44.9949966587671 -16.016978002588935, -44.677152206401566 -16.133947699181363 C-44.271172568044754 -16.254440324815057, -43.865192929687936 -16.37493295044875, -43.63244042646164 -16.444012671663494 C-43.394332885075904 -16.49835916418787, -43.15622534369017 -16.55270565671225, -42.57000918792333 -16.68650566884811 C-42.19042397210572 -16.747874062814187, -41.810838756288106 -16.809242456780268, -41.49422424863661 -16.86043023499518 C-41.16014798954092 -16.89265816992466, -40.82607173044522 -16.924886104854135, -40.40950623967212 -16.965071676755716 C-40.06209243374624 -16.976212561311808, -39.71467862782036 -16.987353445867903, -39.32031250000001 -17 C-39.32031250000001 -17, -39.32031250000001 -17, -39.3203125 -17" stroke="none" stroke-width="0" fill="#2d2d2d" style=""></path><path d="M-39.3203125 -17 C-17.665660086152627 -17, 3.9889923276947457 -17, 39.3203125 -17 M-39.3203125 -17 C-9.443732987334904 -17, 20.43284652533019 -17, 39.3203125 -17 M39.3203125 -17 C39.3203125 -17, 39.3203125 -17, 39.3203125 -17 M39.3203125 -17 C39.3203125 -17, 39.3203125 -17, 39.3203125 -17 M39.3203125 -17 C39.561241277795276 -16.992273883035523, 39.80217005559056 -16.984547766071046, 40.40950623967212 -16.965071676755716 M39.3203125 -17 C39.647468380109665 -16.989508747695172, 39.974624260219336 -16.979017495390345, 40.40950623967212 -16.965071676755716 M40.40950623967212 -16.965071676755716 C40.73202762346408 -16.93395842675002, 41.054549007256036 -16.902845176744325, 41.4942242486366 -16.860430234995185 M40.40950623967212 -16.965071676755716 C40.83813519331494 -16.923722357099532, 41.26676414695776 -16.882373037443347, 41.4942242486366 -16.860430234995185 M41.4942242486366 -16.860430234995185 C41.88544647857116 -16.797180458833072, 42.27666870850573 -16.733930682670955, 42.570009187923326 -16.686505668848113 M41.4942242486366 -16.860430234995185 C41.74117021469195 -16.820505926297926, 41.988116180747305 -16.780581617600664, 42.570009187923326 -16.686505668848113 M42.570009187923326 -16.686505668848113 C42.974336093263965 -16.594220691183747, 43.378662998604604 -16.501935713519384, 43.63244042646162 -16.4440126716635 M42.570009187923326 -16.686505668848113 C42.849689094598 -16.622670555231572, 43.12936900127267 -16.55883544161503, 43.63244042646162 -16.4440126716635 M43.63244042646162 -16.4440126716635 C43.93017279682979 -16.35564726696733, 44.22790516719795 -16.267281862271165, 44.67715220640155 -16.133947699181366 M43.63244042646162 -16.4440126716635 C43.91333399701939 -16.360644934362394, 44.19422756757717 -16.277277197061284, 44.67715220640155 -16.133947699181366 M44.67715220640155 -16.133947699181366 C44.993793387796934 -16.017420817428867, 45.310434569192324 -15.900893935676372, 45.69985158294936 -15.757584874882369 M44.67715220640155 -16.133947699181366 C44.91540317539458 -16.046269140224116, 45.15365414438761 -15.958590581266867, 45.69985158294936 -15.757584874882369 M45.69985158294936 -15.757584874882369 C45.960909397004976 -15.642022324604856, 46.221967211060594 -15.526459774327343, 46.69633606499849 -15.316470754341125 M45.69985158294936 -15.757584874882369 C45.920891715412786 -15.659736965163372, 46.141931847876215 -15.561889055444373, 46.69633606499849 -15.316470754341125 M46.69633606499849 -15.316470754341125 C46.923234819900074 -15.198097819244557, 47.15013357480166 -15.07972488414799, 47.66251088406694 -14.812417970097622 M46.69633606499849 -15.316470754341125 C47.017568210776 -15.148884149648008, 47.338800356553506 -14.981297544954892, 47.66251088406694 -14.812417970097622 M47.66251088406694 -14.812417970097622 C47.85803382364057 -14.693890815107755, 48.053556763214196 -14.57536366011789, 48.594405820579325 -14.247497783161291 M47.66251088406694 -14.812417970097622 C48.00984161667988 -14.601864038845708, 48.357172349292824 -14.391310107593794, 48.594405820579325 -14.247497783161291 M48.594405820579325 -14.247497783161291 C48.90263057565809 -14.032493536852948, 49.21085533073684 -13.817489290544605, 49.488191518350675 -13.624031571755262 M48.594405820579325 -14.247497783161291 C48.884322586472955 -14.045264397568415, 49.17423935236659 -13.843031011975539, 49.488191518350675 -13.624031571755262 M49.488191518350675 -13.624031571755262 C49.80024451019983 -13.37517761483442, 50.112297502048996 -13.126323657913577, 50.3401952202324 -12.944581292275288 M49.488191518350675 -13.624031571755262 C49.79349639429044 -13.380559057697255, 50.098801270230204 -13.137086543639247, 50.3401952202324 -12.944581292275288 M50.3401952202324 -12.944581292275288 C50.51838094389276 -12.782757732582855, 50.69656666755311 -12.62093417289042, 51.14691586025927 -12.21193895166137 M50.3401952202324 -12.944581292275288 C50.648456257809045 -12.664626774088294, 50.95671729538569 -12.3846722559013, 51.14691586025927 -12.21193895166137 M51.14691586025927 -12.21193895166137 C51.42088082980826 -11.929047627659726, 51.694845799357246 -11.646156303658083, 51.90503845028036 -11.42911513444239 M51.14691586025927 -12.21193895166137 C51.33907226698472 -12.013521685382946, 51.53122867371018 -11.815104419104522, 51.90503845028036 -11.42911513444239 M51.90503845028036 -11.42911513444239 C52.05014080188159 -11.258669655693883, 52.195243153482814 -11.088224176945376, 52.61144770195651 -10.59932663159847 M51.90503845028036 -11.42911513444239 C52.18367619332326 -11.101811386527467, 52.462313936366165 -10.774507638612546, 52.61144770195651 -10.59932663159847 M52.61144770195651 -10.59932663159847 C52.86325728970127 -10.261924724345866, 53.115066877446026 -9.92452281709326, 53.26324082814825 -9.725983222076888 M52.61144770195651 -10.59932663159847 C52.803900407493515 -10.341457538981036, 52.99635311303053 -10.0835884463636, 53.26324082814825 -9.725983222076888 M53.26324082814825 -9.725983222076888 C53.49689631433743 -9.367025650007093, 53.73055180052661 -9.008068077937299, 53.85773947109088 -8.812673661278927 M53.26324082814825 -9.725983222076888 C53.42797865953991 -9.472901674757615, 53.59271649093157 -9.219820127438343, 53.85773947109088 -8.812673661278927 M53.85773947109088 -8.812673661278927 C54.05521130676111 -8.462042420854768, 54.25268314243134 -8.11141118043061, 54.392500708341004 -7.863150934094199 M53.85773947109088 -8.812673661278927 C54.064371269666346 -8.445777979169689, 54.27100306824182 -8.078882297060453, 54.392500708341004 -7.863150934094199 M54.392500708341004 -7.863150934094199 C54.49043184310752 -7.659794837360919, 54.588362977874034 -7.456438740627638, 54.86532709126881 -6.881316833080699 M54.392500708341004 -7.863150934094199 C54.52295700587305 -7.592255640951285, 54.65341330340511 -7.32136034780837, 54.86532709126881 -6.881316833080699 M54.86532709126881 -6.881316833080699 C54.9846689885634 -6.586540039444442, 55.10401088585799 -6.291763245808186, 55.274275674845924 -5.871205925162238 M54.86532709126881 -6.881316833080699 C54.99437210245602 -6.562573160532733, 55.12341711364323 -6.243829487984768, 55.274275674845924 -5.871205925162238 M55.274275674845924 -5.871205925162238 C55.40588619781235 -5.474815999276529, 55.53749672077877 -5.078426073390818, 55.617666001623235 -4.836968972727556 M55.274275674845924 -5.871205925162238 C55.38229857402782 -5.54585816393804, 55.49032147320972 -5.220510402713842, 55.617666001623235 -4.836968972727556 M55.617666001623235 -4.836968972727556 C55.72820716492971 -4.4154276081967465, 55.83874832823617 -3.993886243665937, 55.894087007091 -3.7828558772573464 M55.617666001623235 -4.836968972727556 C55.67470546410363 -4.619452781230373, 55.731744926584035 -4.4019365897331895, 55.894087007091 -3.7828558772573464 M55.894087007091 -3.7828558772573464 C55.95435371630281 -3.473399062828184, 56.01462042551463 -3.163942248399022, 56.10240281804565 -2.713198215567453 M55.894087007091 -3.7828558772573464 C55.953003646653364 -3.4803313851408015, 56.01192028621572 -3.1778068930242567, 56.10240281804565 -2.713198215567453 M56.10240281804565 -2.713198215567453 C56.140102772831014 -2.4208048109502927, 56.177802727616374 -2.1284114063331323, 56.241757420136366 -1.632391440430593 M56.10240281804565 -2.713198215567453 C56.15346887903822 -2.317139930643377, 56.2045349400308 -1.9210816457193016, 56.241757420136366 -1.632391440430593 M56.241757420136366 -1.632391440430593 C56.26909713773951 -1.2065532705388755, 56.29643685534265 -0.780715100647158, 56.3115781754117 -0.5448768187181379 M56.241757420136366 -1.632391440430593 C56.26615026375652 -1.2524532114976905, 56.29054310737668 -0.8725149825647879, 56.3115781754117 -0.5448768187181379 M56.3115781754117 -0.5448768187181379 C56.3115781754117 -0.1385616572829912, 56.3115781754117 0.2677535041521555, 56.3115781754117 0.5448768187181336 M56.3115781754117 -0.5448768187181379 C56.3115781754117 -0.14220562369925432, 56.3115781754117 0.2604655713196292, 56.3115781754117 0.5448768187181336 M56.3115781754117 0.5448768187181336 C56.2858837095316 0.9450888650001187, 56.26018924365151 1.3453009112821037, 56.241757420136366 1.6323914404305815 M56.3115781754117 0.5448768187181336 C56.29653195813747 0.77923379785211, 56.28148574086325 1.0135907769860864, 56.241757420136366 1.6323914404305815 M56.241757420136366 1.6323914404305815 C56.19235756797183 2.0155269387145567, 56.14295771580729 2.398662436998532, 56.102402818045654 2.7131982155674415 M56.241757420136366 1.6323914404305815 C56.18635025848963 2.0621184447810403, 56.1309430968429 2.4918454491314987, 56.102402818045654 2.7131982155674415 M56.102402818045654 2.7131982155674415 C56.040550484657174 3.0307968750219874, 55.978698151268695 3.3483955344765333, 55.894087007091 3.782855877257343 M56.102402818045654 2.7131982155674415 C56.03939687770715 3.036720402895475, 55.976390937368635 3.3602425902235087, 55.894087007091 3.782855877257343 M55.894087007091 3.782855877257343 C55.82989975936235 4.027629671775846, 55.765712511633694 4.2724034662943495, 55.617666001623235 4.836968972727545 M55.894087007091 3.782855877257343 C55.80768170076005 4.1123567585939105, 55.721276394429104 4.441857639930477, 55.617666001623235 4.836968972727545 M55.617666001623235 4.836968972727545 C55.51853755175449 5.13552806975858, 55.41940910188574 5.434087166789615, 55.274275674845924 5.871205925162227 M55.617666001623235 4.836968972727545 C55.500918889018365 5.188592674767105, 55.38417177641349 5.540216376806664, 55.274275674845924 5.871205925162227 M55.274275674845924 5.871205925162227 C55.18899810611406 6.0818431686595495, 55.10372053738221 6.2924804121568725, 54.86532709126881 6.881316833080694 M55.274275674845924 5.871205925162227 C55.14027902415158 6.202180243026256, 55.00628237345724 6.533154560890286, 54.86532709126881 6.881316833080694 M54.86532709126881 6.881316833080694 C54.69544790731048 7.234074593402411, 54.52556872335216 7.5868323537241285, 54.392500708341004 7.863150934094196 M54.86532709126881 6.881316833080694 C54.70221700885574 7.220018409208116, 54.53910692644267 7.5587199853355385, 54.392500708341004 7.863150934094196 M54.392500708341004 7.863150934094196 C54.25913929650182 8.099947625121967, 54.12577788466265 8.336744316149737, 53.85773947109089 8.812673661278923 M54.392500708341004 7.863150934094196 C54.18492653345043 8.231719900776865, 53.97735235855985 8.600288867459533, 53.85773947109089 8.812673661278923 M53.85773947109089 8.812673661278923 C53.640529715195804 9.146366175320056, 53.42331995930073 9.480058689361186, 53.263240828148255 9.725983222076879 M53.85773947109089 8.812673661278923 C53.71594067846626 9.030514685057641, 53.57414188584163 9.248355708836357, 53.263240828148255 9.725983222076879 M53.263240828148255 9.725983222076879 C53.05368727766867 10.006765888998334, 52.844133727189096 10.28754855591979, 52.61144770195651 10.599326631598467 M53.263240828148255 9.725983222076879 C53.03148521155735 10.03651463493767, 52.79972959496645 10.347046047798461, 52.61144770195651 10.599326631598467 M52.61144770195651 10.599326631598467 C52.38727028702729 10.862658179230596, 52.16309287209808 11.125989726862723, 51.90503845028037 11.42911513444238 M52.61144770195651 10.599326631598467 C52.466816991240144 10.769218094126483, 52.32218628052379 10.939109556654499, 51.90503845028037 11.42911513444238 M51.90503845028037 11.42911513444238 C51.636518894681586 11.706383621463633, 51.36799933908281 11.983652108484886, 51.14691586025927 12.211938951661365 M51.90503845028037 11.42911513444238 C51.73963728697193 11.599905415246402, 51.57423612366349 11.770695696050424, 51.14691586025927 12.211938951661365 M51.14691586025927 12.211938951661365 C50.92344132045173 12.414892615902266, 50.69996678064418 12.617846280143167, 50.34019522023242 12.944581292275275 M51.14691586025927 12.211938951661365 C50.90629575116994 12.430463768277077, 50.66567564208062 12.64898858489279, 50.34019522023242 12.944581292275275 M50.34019522023242 12.944581292275275 C50.09382710235648 13.14105331015038, 49.84745898448054 13.337525328025485, 49.488191518350675 13.62403157175526 M50.34019522023242 12.944581292275275 C50.005205106213275 13.211726993744223, 49.67021499219413 13.478872695213173, 49.488191518350675 13.62403157175526 M49.488191518350675 13.62403157175526 C49.13366760635952 13.871332105667493, 48.779143694368365 14.118632639579724, 48.59440582057934 14.247497783161286 M49.488191518350675 13.62403157175526 C49.304379573164304 13.752250827626414, 49.12056762797793 13.880470083497567, 48.59440582057934 14.247497783161286 M48.59440582057934 14.247497783161286 C48.30905017127177 14.420482054707467, 48.0236945219642 14.593466326253646, 47.66251088406695 14.81241797009762 M48.59440582057934 14.247497783161286 C48.22356587972207 14.472303134606355, 47.8527259388648 14.697108486051423, 47.66251088406695 14.81241797009762 M47.66251088406695 14.81241797009762 C47.292560746568064 15.005420719866413, 46.92261060906918 15.198423469635205, 46.69633606499849 15.316470754341124 M47.66251088406695 14.81241797009762 C47.387852121791504 14.955707270449384, 47.11319335951607 15.098996570801146, 46.69633606499849 15.316470754341124 M46.69633606499849 15.316470754341124 C46.342304911059216 15.473189844228992, 45.98827375711994 15.629908934116862, 45.699851582949364 15.757584874882367 M46.69633606499849 15.316470754341124 C46.32177811494575 15.482276447962652, 45.94722016489301 15.64808214158418, 45.699851582949364 15.757584874882367 M45.699851582949364 15.757584874882367 C45.48122852846829 15.838040179860764, 45.262605473987215 15.91849548483916, 44.67715220640156 16.133947699181363 M45.699851582949364 15.757584874882367 C45.366750426061955 15.880169179770274, 45.033649269174546 16.002753484658182, 44.67715220640156 16.133947699181363 M44.67715220640156 16.133947699181363 C44.362045183356976 16.22746980959048, 44.04693816031239 16.320991919999596, 43.63244042646164 16.444012671663497 M44.67715220640156 16.133947699181363 C44.27405018930045 16.253586261931307, 43.870948172199355 16.373224824681248, 43.63244042646164 16.444012671663497 M43.63244042646164 16.444012671663497 C43.357773119495704 16.50670369210679, 43.083105812529766 16.56939471255008, 42.57000918792333 16.68650566884811 M43.63244042646164 16.444012671663497 C43.270086389855145 16.52671761593786, 42.90773235324865 16.60942256021222, 42.57000918792333 16.68650566884811 M42.57000918792333 16.68650566884811 C42.160980638911184 16.752634232588623, 41.75195208989903 16.818762796329136, 41.49422424863661 16.86043023499518 M42.57000918792333 16.68650566884811 C42.29558934028862 16.730871741655985, 42.02116949265392 16.775237814463864, 41.49422424863661 16.86043023499518 M41.49422424863661 16.86043023499518 C41.18450353165867 16.890308620068385, 40.874782814680735 16.920187005141585, 40.40950623967212 16.965071676755716 M41.49422424863661 16.86043023499518 C41.1655710736409 16.892135011523745, 40.836917898645176 16.923839788052312, 40.40950623967212 16.965071676755716 M40.40950623967212 16.965071676755716 C40.13783901812748 16.973783515782486, 39.86617179658283 16.982495354809252, 39.3203125 17 M40.40950623967212 16.965071676755716 C39.98974732695838 16.978532528075288, 39.569988414244634 16.99199337939486, 39.3203125 17 M39.3203125 17 C39.3203125 17, 39.3203125 17, 39.3203125 17 M39.3203125 17 C39.3203125 17, 39.3203125 17, 39.3203125 17 M39.3203125 17 C9.819160085865335 17, -19.68199232826933 17, -39.3203125 17 M39.3203125 17 C20.46143335589327 17, 1.60255421178654 17, -39.3203125 17 M-39.3203125 17 C-39.544017623834485 16.992826212094236, -39.76772274766897 16.985652424188473, -40.40950623967211 16.965071676755716 M-39.3203125 17 C-39.724772681972915 16.987029749198115, -40.12923286394583 16.974059498396226, -40.40950623967211 16.965071676755716 M-40.40950623967211 16.965071676755716 C-40.628156727618624 16.9439787271492, -40.846807215565136 16.922885777542685, -41.494224248636606 16.86043023499518 M-40.40950623967211 16.965071676755716 C-40.678838914825796 16.939089477503575, -40.948171589979474 16.91310727825143, -41.494224248636606 16.86043023499518 M-41.494224248636606 16.86043023499518 C-41.84742025693229 16.803328243449887, -42.20061626522797 16.746226251904595, -42.570009187923326 16.68650566884811 M-41.494224248636606 16.86043023499518 C-41.85996174632235 16.801300632706006, -42.22569924400809 16.74217103041683, -42.570009187923326 16.68650566884811 M-42.570009187923326 16.68650566884811 C-42.853865805660405 16.62171724818716, -43.13772242339749 16.556928827526214, -43.63244042646162 16.4440126716635 M-42.570009187923326 16.68650566884811 C-42.97067053794389 16.59505733026557, -43.371331887964445 16.50360899168303, -43.63244042646162 16.4440126716635 M-43.63244042646162 16.4440126716635 C-43.933102897559316 16.35477762845122, -44.23376536865701 16.265542585238943, -44.677152206401544 16.13394769918137 M-43.63244042646162 16.4440126716635 C-44.0387374057713 16.323425860900752, -44.44503438508098 16.202839050138007, -44.677152206401544 16.13394769918137 M-44.677152206401544 16.13394769918137 C-44.90363704274555 16.0505991858039, -45.13012187908956 15.967250672426427, -45.699851582949364 15.757584874882369 M-44.677152206401544 16.13394769918137 C-45.009607123447495 16.011601216528895, -45.342062040493445 15.889254733876422, -45.699851582949364 15.757584874882369 M-45.699851582949364 15.757584874882369 C-45.925788984732364 15.657569089307929, -46.15172638651537 15.557553303733489, -46.69633606499848 15.316470754341127 M-45.699851582949364 15.757584874882369 C-46.09126952924339 15.584315761058841, -46.48268747553742 15.411046647235311, -46.69633606499848 15.316470754341127 M-46.69633606499848 15.316470754341127 C-47.04875970354485 15.132611567849601, -47.40118334209122 14.948752381358073, -47.66251088406693 14.812417970097624 M-46.69633606499848 15.316470754341127 C-46.90818827349713 15.205947592865199, -47.12004048199578 15.095424431389269, -47.66251088406693 14.812417970097624 M-47.66251088406693 14.812417970097624 C-47.91204158064591 14.661150995426308, -48.161572277224884 14.509884020754992, -48.59440582057932 14.247497783161299 M-47.66251088406693 14.812417970097624 C-48.00348529071119 14.605717281001844, -48.344459697355454 14.399016591906065, -48.59440582057932 14.247497783161299 M-48.59440582057932 14.247497783161299 C-48.77479230910622 14.121667977570166, -48.95517879763312 13.995838171979031, -49.48819151835067 13.624031571755264 M-48.59440582057932 14.247497783161299 C-48.89722503231032 14.036264209890154, -49.20004424404131 13.82503063661901, -49.48819151835067 13.624031571755264 M-49.48819151835067 13.624031571755264 C-49.66265890336633 13.484898474977374, -49.837126288381995 13.345765378199482, -50.3401952202324 12.94458129227529 M-49.48819151835067 13.624031571755264 C-49.758221784023505 13.408689620688335, -50.028252049696334 13.193347669621406, -50.3401952202324 12.94458129227529 M-50.3401952202324 12.94458129227529 C-50.54473973808202 12.758819373115642, -50.74928425593164 12.573057453955995, -51.14691586025926 12.211938951661377 M-50.3401952202324 12.94458129227529 C-50.65632331598258 12.657482120006042, -50.972451411732756 12.370382947736795, -51.14691586025926 12.211938951661377 M-51.14691586025926 12.211938951661377 C-51.39520849347872 11.95555642265799, -51.643501126698176 11.699173893654601, -51.905038450280365 11.429115134442386 M-51.14691586025926 12.211938951661377 C-51.41223613618614 11.93797398356711, -51.67755641211302 11.664009015472843, -51.905038450280365 11.429115134442386 M-51.905038450280365 11.429115134442386 C-52.17921054085494 11.107056996019589, -52.453382631429506 10.784998857596793, -52.61144770195651 10.599326631598473 M-51.905038450280365 11.429115134442386 C-52.17852920857921 11.10785732767957, -52.45201996687804 10.786599520916752, -52.61144770195651 10.599326631598473 M-52.61144770195651 10.599326631598473 C-52.79585593972637 10.352236392922924, -52.98026417749624 10.105146154247374, -53.26324082814825 9.72598322207689 M-52.61144770195651 10.599326631598473 C-52.79927772240617 10.347651515862811, -52.98710774285583 10.095976400127148, -53.26324082814825 9.72598322207689 M-53.26324082814825 9.72598322207689 C-53.46445413165148 9.416865554558552, -53.66566743515472 9.107747887040215, -53.85773947109088 8.812673661278936 M-53.26324082814825 9.72598322207689 C-53.479797812046904 9.393293541116092, -53.69635479594556 9.060603860155295, -53.85773947109088 8.812673661278936 M-53.85773947109088 8.812673661278936 C-53.97453576925546 8.60529000698007, -54.09133206742004 8.397906352681204, -54.392500708341004 7.863150934094201 M-53.85773947109088 8.812673661278936 C-54.03039495720634 8.506106362417151, -54.2030504433218 8.199539063555367, -54.392500708341004 7.863150934094201 M-54.392500708341004 7.863150934094201 C-54.5432857404849 7.550042588564564, -54.694070772628784 7.236934243034926, -54.86532709126881 6.881316833080701 M-54.392500708341004 7.863150934094201 C-54.57363142595672 7.4870291233886705, -54.75476214357243 7.110907312683139, -54.86532709126881 6.881316833080701 M-54.86532709126881 6.881316833080701 C-54.97600809628812 6.607932610811349, -55.08668910130743 6.334548388541996, -55.274275674845924 5.87120592516224 M-54.86532709126881 6.881316833080701 C-55.00709578856713 6.531145409842553, -55.148864485865445 6.180973986604405, -55.274275674845924 5.87120592516224 M-55.274275674845924 5.87120592516224 C-55.376549225558335 5.563174285493841, -55.47882277627075 5.255142645825442, -55.617666001623235 4.8369689727275516 M-55.274275674845924 5.87120592516224 C-55.35902472911347 5.6159552766364556, -55.44377378338102 5.36070462811067, -55.617666001623235 4.8369689727275516 M-55.617666001623235 4.8369689727275516 C-55.708775015878516 4.4895308144755965, -55.799884030133796 4.142092656223642, -55.894087007091 3.782855877257349 M-55.617666001623235 4.8369689727275516 C-55.69076454459645 4.558212547261753, -55.76386308756966 4.279456121795954, -55.894087007091 3.782855877257349 M-55.894087007091 3.782855877257349 C-55.96877858093555 3.3993304316353106, -56.043470154780096 3.015804986013272, -56.10240281804565 2.713198215567455 M-55.894087007091 3.782855877257349 C-55.97662015359062 3.3590656133684726, -56.059153300090244 2.9352753494795967, -56.10240281804565 2.713198215567455 M-56.10240281804565 2.713198215567455 C-56.15246280377455 2.3249428517164223, -56.20252278950345 1.9366874878653897, -56.241757420136366 1.6323914404306026 M-56.10240281804565 2.713198215567455 C-56.14925235631469 2.3498424482404867, -56.19610189458374 1.986486680913518, -56.241757420136366 1.6323914404306026 M-56.241757420136366 1.6323914404306026 C-56.25673180995015 1.3991532319710225, -56.27170619976393 1.1659150235114426, -56.3115781754117 0.54487681871814 M-56.241757420136366 1.6323914404306026 C-56.266383121386475 1.2488262659519334, -56.291008822636584 0.865261091473264, -56.3115781754117 0.54487681871814 M-56.3115781754117 0.54487681871814 C-56.3115781754117 0.25040184405115995, -56.3115781754117 -0.04407313061582008, -56.3115781754117 -0.5448768187181317 M-56.3115781754117 0.54487681871814 C-56.3115781754117 0.15460282676217046, -56.3115781754117 -0.23567116519379905, -56.3115781754117 -0.5448768187181317 M-56.3115781754117 -0.5448768187181317 C-56.285535803398844 -0.9505077838426668, -56.259493431385984 -1.3561387489672019, -56.241757420136366 -1.6323914404305793 M-56.3115781754117 -0.5448768187181317 C-56.29437299060681 -0.8128614598294217, -56.27716780580192 -1.0808461009407115, -56.241757420136366 -1.6323914404305793 M-56.241757420136366 -1.6323914404305793 C-56.19935439857234 -1.9612609022575014, -56.156951377008305 -2.2901303640844235, -56.102402818045654 -2.713198215567447 M-56.241757420136366 -1.6323914404305793 C-56.186478665733816 -2.0611225435520577, -56.13119991133126 -2.4898536466735357, -56.102402818045654 -2.713198215567447 M-56.102402818045654 -2.713198215567447 C-56.05803451243296 -2.9410200876439188, -56.01366620682027 -3.1688419597203907, -55.894087007091 -3.782855877257341 M-56.102402818045654 -2.713198215567447 C-56.0558011012997 -2.952488181781614, -56.00919938455374 -3.1917781479957816, -55.894087007091 -3.782855877257341 M-55.894087007091 -3.782855877257341 C-55.83202026710391 -4.019543256723402, -55.76995352711681 -4.256230636189464, -55.617666001623235 -4.836968972727544 M-55.894087007091 -3.782855877257341 C-55.83277454181729 -4.016666880336575, -55.771462076543564 -4.250477883415809, -55.617666001623235 -4.836968972727544 M-55.617666001623235 -4.836968972727544 C-55.51087631758081 -5.158602486437798, -55.40408663353839 -5.480236000148052, -55.27427567484593 -5.871205925162218 M-55.617666001623235 -4.836968972727544 C-55.531811599460276 -5.095548753001038, -55.44595719729732 -5.354128533274533, -55.27427567484593 -5.871205925162218 M-55.27427567484593 -5.871205925162218 C-55.14333934102101 -6.194621201191575, -55.012403007196085 -6.5180364772209325, -54.86532709126881 -6.881316833080692 M-55.27427567484593 -5.871205925162218 C-55.18181210855009 -6.0995927215743775, -55.08934854225426 -6.327979517986536, -54.86532709126881 -6.881316833080692 M-54.86532709126881 -6.881316833080692 C-54.728451651334986 -7.16554161276853, -54.59157621140116 -7.449766392456367, -54.392500708341004 -7.863150934094194 M-54.86532709126881 -6.881316833080692 C-54.72960395044543 -7.163148839010445, -54.59388080962205 -7.444980844940196, -54.392500708341004 -7.863150934094194 M-54.392500708341004 -7.863150934094194 C-54.21284328315927 -8.182150884791353, -54.03318585797755 -8.501150835488511, -53.85773947109088 -8.812673661278929 M-54.392500708341004 -7.863150934094194 C-54.22265503460498 -8.164729126551936, -54.052809360868956 -8.466307319009676, -53.85773947109088 -8.812673661278929 M-53.85773947109088 -8.812673661278929 C-53.69149879250376 -9.068063985461402, -53.525258113916635 -9.323454309643877, -53.26324082814825 -9.725983222076884 M-53.85773947109088 -8.812673661278929 C-53.65594511780122 -9.122683977302938, -53.45415076451155 -9.432694293326948, -53.26324082814825 -9.725983222076884 M-53.26324082814825 -9.725983222076884 C-53.065168344062904 -9.991382305976733, -52.86709585997755 -10.256781389876581, -52.61144770195651 -10.599326631598467 M-53.26324082814825 -9.725983222076884 C-53.06184908554873 -9.995829809995048, -52.86045734294922 -10.265676397913213, -52.61144770195651 -10.599326631598467 M-52.61144770195651 -10.599326631598467 C-52.46039207892619 -10.776765161718323, -52.309336455895874 -10.954203691838181, -51.90503845028037 -11.42911513444238 M-52.61144770195651 -10.599326631598467 C-52.36707282301226 -10.886383269730919, -52.12269794406801 -11.173439907863369, -51.90503845028037 -11.42911513444238 M-51.90503845028037 -11.42911513444238 C-51.71862275684341 -11.621604642929107, -51.53220706340645 -11.814094151415834, -51.14691586025928 -12.21193895166136 M-51.90503845028037 -11.42911513444238 C-51.6274325753917 -11.715765992131132, -51.34982670050303 -12.002416849819884, -51.14691586025928 -12.21193895166136 M-51.14691586025928 -12.21193895166136 C-50.963724374744615 -12.378308611824679, -50.780532889229946 -12.544678271987998, -50.34019522023242 -12.944581292275274 M-51.14691586025928 -12.21193895166136 C-50.951873868529724 -12.389070928021829, -50.75683187680017 -12.566202904382296, -50.34019522023242 -12.944581292275274 M-50.34019522023242 -12.944581292275274 C-50.00602610913599 -13.211072265761164, -49.67185699803956 -13.477563239247054, -49.488191518350675 -13.624031571755259 M-50.34019522023242 -12.944581292275274 C-50.06517184669064 -13.163905113995508, -49.790148473148854 -13.383228935715744, -49.488191518350675 -13.624031571755259 M-49.488191518350675 -13.624031571755259 C-49.23468562191448 -13.800866311015765, -48.98117972547828 -13.977701050276272, -48.59440582057934 -14.247497783161284 M-49.488191518350675 -13.624031571755259 C-49.21075973406363 -13.817555974645526, -48.93332794977658 -14.011080377535794, -48.59440582057934 -14.247497783161284 M-48.59440582057934 -14.247497783161284 C-48.333558491846524 -14.405624966748173, -48.0727111631137 -14.56375215033506, -47.66251088406695 -14.812417970097618 M-48.59440582057934 -14.247497783161284 C-48.34103222741726 -14.401094344324646, -48.08765863425518 -14.554690905488009, -47.66251088406695 -14.812417970097618 M-47.66251088406695 -14.812417970097618 C-47.422273405176455 -14.937749708955339, -47.18203592628596 -15.06308144781306, -46.69633606499849 -15.316470754341124 M-47.66251088406695 -14.812417970097618 C-47.35754314378142 -14.971519444863414, -47.0525754034959 -15.130620919629212, -46.69633606499849 -15.316470754341124 M-46.69633606499849 -15.316470754341124 C-46.37766586896552 -15.457536597109419, -46.058995672932554 -15.598602439877716, -45.69985158294937 -15.757584874882365 M-46.69633606499849 -15.316470754341124 C-46.460019958816176 -15.421080884479812, -46.22370385263386 -15.525691014618502, -45.69985158294937 -15.757584874882365 M-45.69985158294937 -15.757584874882365 C-45.39625766564539 -15.869310242841635, -45.09266374834142 -15.981035610800907, -44.677152206401566 -16.133947699181363 M-45.69985158294937 -15.757584874882365 C-45.34443140422057 -15.88838278612268, -44.98901122549177 -16.019180697362994, -44.677152206401566 -16.133947699181363 M-44.677152206401566 -16.133947699181363 C-44.27958991284117 -16.251942101063023, -43.88202761928078 -16.369936502944686, -43.63244042646164 -16.444012671663494 M-44.677152206401566 -16.133947699181363 C-44.45199811941747 -16.20077225034032, -44.22684403243337 -16.267596801499284, -43.63244042646164 -16.444012671663494 M-43.63244042646164 -16.444012671663494 C-43.268691840321345 -16.52703591276866, -42.904943254181056 -16.610059153873827, -42.57000918792333 -16.68650566884811 M-43.63244042646164 -16.444012671663494 C-43.32716661945183 -16.513689426015723, -43.02189281244201 -16.58336618036795, -42.57000918792333 -16.68650566884811 M-42.57000918792333 -16.68650566884811 C-42.33126485287986 -16.725104001447967, -42.0925205178364 -16.763702334047824, -41.49422424863661 -16.86043023499518 M-42.57000918792333 -16.68650566884811 C-42.24036455057166 -16.739800057382784, -41.910719913219985 -16.79309444591746, -41.49422424863661 -16.86043023499518 M-41.49422424863661 -16.86043023499518 C-41.080533818429096 -16.900338453261767, -40.66684338822158 -16.940246671528353, -40.40950623967212 -16.965071676755716 M-41.49422424863661 -16.86043023499518 C-41.12343118264439 -16.896200196127545, -40.75263811665217 -16.931970157259908, -40.40950623967212 -16.965071676755716 M-40.40950623967212 -16.965071676755716 C-40.086134712381444 -16.975441572231436, -39.762763185090776 -16.98581146770715, -39.32031250000001 -17 M-40.40950623967212 -16.965071676755716 C-40.17324402042914 -16.972648146270327, -39.93698180118616 -16.980224615784937, -39.32031250000001 -17 M-39.32031250000001 -17 C-39.32031250000001 -17, -39.3203125 -17, -39.3203125 -17 M-39.32031250000001 -17 C-39.32031250000001 -17, -39.3203125 -17, -39.3203125 -17" stroke="#555555" stroke-width="1.3" fill="none" stroke-dasharray="0 0" style=""></path></g><g class="label" style="" transform="translate(0, -9.5)"><rect></rect><g><rect class="background" style="stroke: none"></rect><text y="-10.1" style=""><tspan class="text-outer-tspan row" x="0" y="-0.1em" dy="1.1em"><tspan font-style="normal" class="text-inner-tspan" font-weight="normal">Source</tspan><tspan font-style="normal" class="text-inner-tspan" font-weight="normal"> asset</tspan></tspan></text></g></g></g><g class="node default" id="gfae7b07a-7b10-4023-8fd4-d09b2c00c5b4-dark-flowchart-Vec-1" data-look="classic" transform="translate(266.02031326293945, 117.79999923706055)"><polygon points="12.899999618530273,0 184.47812461853027,0 197.37812423706055,-25.799999237060547 184.47812461853027,-51.599998474121094 12.899999618530273,-51.599998474121094 0,-25.799999237060547" class="label-container" transform="translate(-98.68906211853027,25.799999237060547)"></polygon><g class="label" style="" transform="translate(0, -18.299999237060547)"><rect></rect><g><rect class="background" style="stroke: none"></rect><text y="-10.1" style=""><tspan class="text-outer-tspan row" x="0" y="-0.1em" dy="1.1em"><tspan font-style="normal" class="text-inner-tspan" font-weight="normal">Vector</tspan><tspan font-style="normal" class="text-inner-tspan" font-weight="normal"> geometry</tspan></tspan><tspan class="text-outer-tspan row" x="0" y="1em" dy="1.1em"><tspan font-style="normal" class="text-inner-tspan" font-weight="normal">(icon,</tspan><tspan font-style="normal" class="text-inner-tspan" font-weight="normal"> logo,</tspan><tspan font-style="normal" class="text-inner-tspan" font-weight="normal"> diagram)?</tspan></tspan></text></g></g></g><g class="node default" id="gfae7b07a-7b10-4023-8fd4-d09b2c00c5b4-dark-flowchart-SVG-3" data-look="classic" transform="translate(135.8828125, 249.89999771118164)"><rect class="basic label-container" style="" x="-127.8828125" y="-33.29999923706055" width="255.765625" height="66.5999984741211"></rect><g class="label" style="" transform="translate(0, -18.299999237060547)"><rect></rect><g><rect class="background" style="stroke: none"></rect><text y="-10.1" style=""><tspan class="text-outer-tspan row" x="0" y="-0.1em" dy="1.1em"><tspan font-style="normal" class="text-inner-tspan" font-weight="normal">SVG</tspan></tspan><tspan class="text-outer-tspan row" x="0" y="1em" dy="1.1em"><tspan font-style="normal" class="text-inner-tspan" font-weight="normal">(no</tspan><tspan font-style="normal" class="text-inner-tspan" font-weight="normal"> raster</tspan><tspan font-style="normal" class="text-inner-tspan" font-weight="normal"> fallback</tspan><tspan font-style="normal" class="text-inner-tspan" font-weight="normal"> needed)</tspan></tspan></text></g></g></g><g class="node default" id="gfae7b07a-7b10-4023-8fd4-d09b2c00c5b4-dark-flowchart-Photo-5" data-look="classic" transform="translate(396.1578140258789, 249.89999771118164)"><polygon points="12.899999618530273,0 151.88437461853027,0 164.78437423706055,-25.799999237060547 151.88437461853027,-51.599998474121094 12.899999618530273,-51.599998474121094 0,-25.799999237060547" class="label-container" transform="translate(-82.39218711853027,25.799999237060547)"></polygon><g class="label" style="" transform="translate(0, -18.299999237060547)"><rect></rect><g><rect class="background" style="stroke: none"></rect><text y="-10.1" style=""><tspan class="text-outer-tspan row" x="0" y="-0.1em" dy="1.1em"><tspan font-style="normal" class="text-inner-tspan" font-weight="normal">Photographic</tspan><tspan font-style="normal" class="text-inner-tspan" font-weight="normal"> /</tspan></tspan><tspan class="text-outer-tspan row" x="0" y="1em" dy="1.1em"><tspan font-style="normal" class="text-inner-tspan" font-weight="normal">complex</tspan><tspan font-style="normal" class="text-inner-tspan" font-weight="normal"> texture?</tspan></tspan></text></g></g></g><g class="node default" id="gfae7b07a-7b10-4023-8fd4-d09b2c00c5b4-dark-flowchart-Anim-7" data-look="classic" transform="translate(163.7671890258789, 381.99999618530273)"><polygon points="8.5,0 97.796875,0 106.296875,-17 97.796875,-34 8.5,-34 0,-17" class="label-container" transform="translate(-53.1484375,17)"></polygon><g class="label" style="" transform="translate(0, -9.5)"><rect></rect><g><rect class="background" style="stroke: none"></rect><text y="-10.1" style=""><tspan class="text-outer-tspan row" x="0" y="-0.1em" dy="1.1em"><tspan font-style="normal" class="text-inner-tspan" font-weight="normal">Animated?</tspan></tspan></text></g></g></g><g class="node default" id="gfae7b07a-7b10-4023-8fd4-d09b2c00c5b4-dark-flowchart-AnimChoice-9" data-look="classic" transform="translate(141.4039077758789, 531.6999969482422)"><rect class="basic label-container" style="" x="-96.9296875" y="-42.099998474121094" width="193.859375" height="84.19999694824219"></rect><g class="label" style="" transform="translate(0, -27.099998474121094)"><rect></rect><g><rect class="background" style="stroke: none"></rect><text y="-10.1" style=""><tspan class="text-outer-tspan row" x="0" y="-0.1em" dy="1.1em"><tspan font-style="normal" class="text-inner-tspan" font-weight="normal">AVIF</tspan><tspan font-style="normal" class="text-inner-tspan" font-weight="normal"> (animated)</tspan><tspan font-style="normal" class="text-inner-tspan" font-weight="normal"> or</tspan></tspan><tspan class="text-outer-tspan row" x="0" y="1em" dy="1.1em"><tspan font-style="normal" class="text-inner-tspan" font-weight="normal">MP4</tspan><tspan font-style="normal" class="text-inner-tspan" font-weight="normal"> /</tspan><tspan font-style="normal" class="text-inner-tspan" font-weight="normal"> WebM</tspan><tspan font-style="normal" class="text-inner-tspan" font-weight="normal"> video</tspan></tspan><tspan class="text-outer-tspan row" x="0" y="2.1em" dy="1.1em"><tspan font-style="normal" class="text-inner-tspan" font-weight="normal">with</tspan><tspan font-style="normal" class="text-inner-tspan" font-weight="normal"> poster</tspan></tspan></text></g></g></g><g class="node default" id="gfae7b07a-7b10-4023-8fd4-d09b2c00c5b4-dark-flowchart-Tier-11" data-look="classic" transform="translate(400.6851577758789, 531.6999969482422)"><rect class="basic label-container" style="" x="-112.3515625" y="-50.900001525878906" width="224.703125" height="101.80000305175781"></rect><g class="label" style="" transform="translate(0, -35.900001525878906)"><rect></rect><g><rect class="background" style="stroke: none"></rect><text y="-10.1" style=""><tspan class="text-outer-tspan row" x="0" y="-0.1em" dy="1.1em"><tspan font-style="normal" class="text-inner-tspan" font-weight="normal">picture</tspan><tspan font-style="normal" class="text-inner-tspan" font-weight="normal"> order:</tspan></tspan><tspan class="text-outer-tspan row" x="0" y="1em" dy="1.1em"><tspan font-style="normal" class="text-inner-tspan" font-weight="normal">1.</tspan><tspan font-style="normal" class="text-inner-tspan" font-weight="normal"> AVIF</tspan><tspan font-style="normal" class="text-inner-tspan" font-weight="normal"> (image/avif)</tspan></tspan><tspan class="text-outer-tspan row" x="0" y="2.1em" dy="1.1em"><tspan font-style="normal" class="text-inner-tspan" font-weight="normal">2.</tspan><tspan font-style="normal" class="text-inner-tspan" font-weight="normal"> WebP</tspan><tspan font-style="normal" class="text-inner-tspan" font-weight="normal"> (image/webp)</tspan></tspan><tspan class="text-outer-tspan row" x="0" y="3.2em" dy="1.1em"><tspan font-style="normal" class="text-inner-tspan" font-weight="normal">3.</tspan><tspan font-style="normal" class="text-inner-tspan" font-weight="normal"> JPEG</tspan><tspan font-style="normal" class="text-inner-tspan" font-weight="normal"> fallback</tspan></tspan></text></g></g></g><g class="node default" id="gfae7b07a-7b10-4023-8fd4-d09b2c00c5b4-dark-flowchart-Alpha-13" data-look="classic" transform="translate(628.5484390258789, 381.99999618530273)"><polygon points="12.899999618530273,0 173.05624961853027,0 185.95624923706055,-25.799999237060547 173.05624961853027,-51.599998474121094 12.899999618530273,-51.599998474121094 0,-25.799999237060547" class="label-container" transform="translate(-92.97812461853027,25.799999237060547)"></polygon><g class="label" style="" transform="translate(0, -18.299999237060547)"><rect></rect><g><rect class="background" style="stroke: none"></rect><text y="-10.1" style=""><tspan class="text-outer-tspan row" x="0" y="-0.1em" dy="1.1em"><tspan font-style="normal" class="text-inner-tspan" font-weight="normal">Needs</tspan><tspan font-style="normal" class="text-inner-tspan" font-weight="normal"> alpha</tspan><tspan font-style="normal" class="text-inner-tspan" font-weight="normal"> or</tspan></tspan><tspan class="text-outer-tspan row" x="0" y="1em" dy="1.1em"><tspan font-style="normal" class="text-inner-tspan" font-weight="normal">pixel-perfect</tspan><tspan font-style="normal" class="text-inner-tspan" font-weight="normal"> edges?</tspan></tspan></text></g></g></g><g class="node default" id="gfae7b07a-7b10-4023-8fd4-d09b2c00c5b4-dark-flowchart-Lossless-15" data-look="classic" transform="translate(650.9117202758789, 531.6999969482422)"><rect class="basic label-container" style="" x="-87.875" y="-50.900001525878906" width="175.75" height="101.80000305175781"></rect><g class="label" style="" transform="translate(0, -35.900001525878906)"><rect></rect><g><rect class="background" style="stroke: none"></rect><text y="-10.1" style=""><tspan class="text-outer-tspan row" x="0" y="-0.1em" dy="1.1em"><tspan font-style="normal" class="text-inner-tspan" font-weight="normal">picture</tspan><tspan font-style="normal" class="text-inner-tspan" font-weight="normal"> order:</tspan></tspan><tspan class="text-outer-tspan row" x="0" y="1em" dy="1.1em"><tspan font-style="normal" class="text-inner-tspan" font-weight="normal">1.</tspan><tspan font-style="normal" class="text-inner-tspan" font-weight="normal"> AVIF</tspan><tspan font-style="normal" class="text-inner-tspan" font-weight="normal"> lossless</tspan></tspan><tspan class="text-outer-tspan row" x="0" y="2.1em" dy="1.1em"><tspan font-style="normal" class="text-inner-tspan" font-weight="normal">2.</tspan><tspan font-style="normal" class="text-inner-tspan" font-weight="normal"> WebP</tspan><tspan font-style="normal" class="text-inner-tspan" font-weight="normal"> lossless</tspan></tspan><tspan class="text-outer-tspan row" x="0" y="3.2em" dy="1.1em"><tspan font-style="normal" class="text-inner-tspan" font-weight="normal">3.</tspan><tspan font-style="normal" class="text-inner-tspan" font-weight="normal"> PNG</tspan><tspan font-style="normal" class="text-inner-tspan" font-weight="normal"> fallback</tspan></tspan></text></g></g></g><g class="node default" id="gfae7b07a-7b10-4023-8fd4-d09b2c00c5b4-dark-flowchart-CDN-19" data-look="classic" transform="translate(400.6851577758789, 658.3999977111816)"><polygon points="12.899999618530273,0 169.49374961853027,0 182.39374923706055,-25.799999237060547 169.49374961853027,-51.599998474121094 12.899999618530273,-51.599998474121094 0,-25.799999237060547" class="label-container" transform="translate(-91.19687461853027,25.799999237060547)"></polygon><g class="label" style="" transform="translate(0, -18.299999237060547)"><rect></rect><g><rect class="background" style="stroke: none"></rect><text y="-10.1" style=""><tspan class="text-outer-tspan row" x="0" y="-0.1em" dy="1.1em"><tspan font-style="normal" class="text-inner-tspan" font-weight="normal">Image</tspan><tspan font-style="normal" class="text-inner-tspan" font-weight="normal"> CDN</tspan><tspan font-style="normal" class="text-inner-tspan" font-weight="normal"> with</tspan></tspan><tspan class="text-outer-tspan row" x="0" y="1em" dy="1.1em"><tspan font-style="normal" class="text-inner-tspan" font-weight="normal">Accept</tspan><tspan font-style="normal" class="text-inner-tspan" font-weight="normal"> negotiation?</tspan></tspan></text></g></g></g><g class="node default" id="gfae7b07a-7b10-4023-8fd4-d09b2c00c5b4-dark-flowchart-Auto-21" data-look="classic" transform="translate(259.4820327758789, 799.2999954223633)"><rect class="basic label-container" style="" x="-119.7890625" y="-33.29999923706055" width="239.578125" height="66.5999984741211"></rect><g class="label" style="" transform="translate(0, -18.299999237060547)"><rect></rect><g><rect class="background" style="stroke: none"></rect><text y="-10.1" style=""><tspan class="text-outer-tspan row" x="0" y="-0.1em" dy="1.1em"><tspan font-style="normal" class="text-inner-tspan" font-weight="normal">Single</tspan><tspan font-style="normal" class="text-inner-tspan" font-weight="normal"> URL</tspan><tspan font-style="normal" class="text-inner-tspan" font-weight="normal"> with</tspan><tspan font-style="normal" class="text-inner-tspan" font-weight="normal"> f=auto</tspan></tspan><tspan class="text-outer-tspan row" x="0" y="1em" dy="1.1em"><tspan font-style="normal" class="text-inner-tspan" font-weight="normal">Vary:</tspan><tspan font-style="normal" class="text-inner-tspan" font-weight="normal"> Accept</tspan><tspan font-style="normal" class="text-inner-tspan" font-weight="normal"> on</tspan><tspan font-style="normal" class="text-inner-tspan" font-weight="normal"> response</tspan></tspan></text></g></g></g><g class="node default" id="gfae7b07a-7b10-4023-8fd4-d09b2c00c5b4-dark-flowchart-Markup-23" data-look="classic" transform="translate(541.8882827758789, 799.2999954223633)"><rect class="basic label-container" style="" x="-112.6171875" y="-42.099998474121094" width="225.234375" height="84.19999694824219"></rect><g class="label" style="" transform="translate(0, -27.099998474121094)"><rect></rect><g><rect class="background" style="stroke: none"></rect><text y="-10.1" style=""><tspan class="text-outer-tspan row" x="0" y="-0.1em" dy="1.1em"><tspan font-style="normal" class="text-inner-tspan" font-weight="normal">picture</tspan><tspan font-style="normal" class="text-inner-tspan" font-weight="normal"> per</tspan><tspan font-style="normal" class="text-inner-tspan" font-weight="normal"> image</tspan></tspan><tspan class="text-outer-tspan row" x="0" y="1em" dy="1.1em"><tspan font-style="normal" class="text-inner-tspan" font-weight="normal">with</tspan><tspan font-style="normal" class="text-inner-tspan" font-weight="normal"> explicit</tspan></tspan><tspan class="text-outer-tspan row" x="0" y="2.1em" dy="1.1em"><tspan font-style="normal" class="text-inner-tspan" font-weight="normal">type=image/avif|webp</tspan></tspan></text></g></g></g></g></g></g><defs><filter id="gfae7b07a-7b10-4023-8fd4-d09b2c00c5b4-dark-drop-shadow" height="130%" width="130%"><feDropShadow dx="4" dy="4" stdDeviation="0" flood-opacity="0.06" flood-color="#000000"></feDropShadow></filter></defs><defs><filter id="gfae7b07a-7b10-4023-8fd4-d09b2c00c5b4-dark-drop-shadow-small" height="150%" width="150%"><feDropShadow dx="2" dy="2" stdDeviation="0" flood-opacity="0.06" flood-color="#000000"></feDropShadow></filter></defs><linearGradient id="gfae7b07a-7b10-4023-8fd4-d09b2c00c5b4-dark-gradient" gradientUnits="objectBoundingBox" x1="0%" y1="0%" x2="100%" y2="0%"><stop offset="0%" stop-color="#555555" stop-opacity="1"></stop><stop offset="100%" stop-color="#555555" stop-opacity="1"></stop></linearGradient></svg>