<svg id="gaf1af025-5df3-45aa-beaf-49cf6fa965d4-light" width="100%" xmlns="http://www.w3.org/2000/svg" xmlns:xlink="http://www.w3.org/1999/xlink" class="flowchart" style="max-width: 1060.703125px;" viewBox="0 0 1060.703125 1368.0531005859375" role="graphics-document document" aria-roledescription="flowchart-v2"><style>#gaf1af025-5df3-45aa-beaf-49cf6fa965d4-light{font-family:"trebuchet ms",verdana,arial,sans-serif;font-size:16px;fill:#333;}@keyframes edge-animation-frame{from{stroke-dashoffset:0;}}@keyframes dash{to{stroke-dashoffset:0;}}#gaf1af025-5df3-45aa-beaf-49cf6fa965d4-light .edge-animation-slow{stroke-dasharray:9,5!important;stroke-dashoffset:900;animation:dash 50s linear infinite;stroke-linecap:round;}#gaf1af025-5df3-45aa-beaf-49cf6fa965d4-light .edge-animation-fast{stroke-dasharray:9,5!important;stroke-dashoffset:900;animation:dash 20s linear infinite;stroke-linecap:round;}#gaf1af025-5df3-45aa-beaf-49cf6fa965d4-light .error-icon{fill:#552222;}#gaf1af025-5df3-45aa-beaf-49cf6fa965d4-light .error-text{fill:#552222;stroke:#552222;}#gaf1af025-5df3-45aa-beaf-49cf6fa965d4-light .edge-thickness-normal{stroke-width:1px;}#gaf1af025-5df3-45aa-beaf-49cf6fa965d4-light .edge-thickness-thick{stroke-width:3.5px;}#gaf1af025-5df3-45aa-beaf-49cf6fa965d4-light .edge-pattern-solid{stroke-dasharray:0;}#gaf1af025-5df3-45aa-beaf-49cf6fa965d4-light .edge-thickness-invisible{stroke-width:0;fill:none;}#gaf1af025-5df3-45aa-beaf-49cf6fa965d4-light .edge-pattern-dashed{stroke-dasharray:3;}#gaf1af025-5df3-45aa-beaf-49cf6fa965d4-light .edge-pattern-dotted{stroke-dasharray:2;}#gaf1af025-5df3-45aa-beaf-49cf6fa965d4-light .marker{fill:#333333;stroke:#333333;}#gaf1af025-5df3-45aa-beaf-49cf6fa965d4-light .marker.cross{stroke:#333333;}#gaf1af025-5df3-45aa-beaf-49cf6fa965d4-light svg{font-family:"trebuchet ms",verdana,arial,sans-serif;font-size:16px;}#gaf1af025-5df3-45aa-beaf-49cf6fa965d4-light p{margin:0;}#gaf1af025-5df3-45aa-beaf-49cf6fa965d4-light .label{font-family:"trebuchet ms",verdana,arial,sans-serif;color:#333;}#gaf1af025-5df3-45aa-beaf-49cf6fa965d4-light .cluster-label text{fill:#333;}#gaf1af025-5df3-45aa-beaf-49cf6fa965d4-light .cluster-label span{color:#333;}#gaf1af025-5df3-45aa-beaf-49cf6fa965d4-light .cluster-label span p{background-color:transparent;}#gaf1af025-5df3-45aa-beaf-49cf6fa965d4-light .label text,#gaf1af025-5df3-45aa-beaf-49cf6fa965d4-light span{fill:#333;color:#333;}#gaf1af025-5df3-45aa-beaf-49cf6fa965d4-light .node rect,#gaf1af025-5df3-45aa-beaf-49cf6fa965d4-light .node circle,#gaf1af025-5df3-45aa-beaf-49cf6fa965d4-light .node ellipse,#gaf1af025-5df3-45aa-beaf-49cf6fa965d4-light .node polygon,#gaf1af025-5df3-45aa-beaf-49cf6fa965d4-light .node path{fill:#ECECFF;stroke:#9370DB;stroke-width:1px;}#gaf1af025-5df3-45aa-beaf-49cf6fa965d4-light .rough-node .label text,#gaf1af025-5df3-45aa-beaf-49cf6fa965d4-light .node .label text,#gaf1af025-5df3-45aa-beaf-49cf6fa965d4-light .image-shape .label,#gaf1af025-5df3-45aa-beaf-49cf6fa965d4-light .icon-shape .label{text-anchor:middle;}#gaf1af025-5df3-45aa-beaf-49cf6fa965d4-light .node .katex path{fill:#000;stroke:#000;stroke-width:1px;}#gaf1af025-5df3-45aa-beaf-49cf6fa965d4-light .rough-node .label,#gaf1af025-5df3-45aa-beaf-49cf6fa965d4-light .node .label,#gaf1af025-5df3-45aa-beaf-49cf6fa965d4-light .image-shape .label,#gaf1af025-5df3-45aa-beaf-49cf6fa965d4-light .icon-shape .label{text-align:center;}#gaf1af025-5df3-45aa-beaf-49cf6fa965d4-light .node.clickable{cursor:pointer;}#gaf1af025-5df3-45aa-beaf-49cf6fa965d4-light .root .anchor path{fill:#333333!important;stroke-width:0;stroke:#333333;}#gaf1af025-5df3-45aa-beaf-49cf6fa965d4-light .arrowheadPath{fill:#333333;}#gaf1af025-5df3-45aa-beaf-49cf6fa965d4-light .edgePath .path{stroke:#333333;stroke-width:1px;}#gaf1af025-5df3-45aa-beaf-49cf6fa965d4-light .flowchart-link{stroke:#333333;fill:none;}#gaf1af025-5df3-45aa-beaf-49cf6fa965d4-light .edgeLabel{background-color:rgba(232,232,232, 0.8);text-align:center;}#gaf1af025-5df3-45aa-beaf-49cf6fa965d4-light .edgeLabel p{background-color:rgba(232,232,232, 0.8);}#gaf1af025-5df3-45aa-beaf-49cf6fa965d4-light .edgeLabel rect{opacity:0.5;background-color:rgba(232,232,232, 0.8);fill:rgba(232,232,232, 0.8);}#gaf1af025-5df3-45aa-beaf-49cf6fa965d4-light .labelBkg{background-color:rgba(232, 232, 232, 0.5);}#gaf1af025-5df3-45aa-beaf-49cf6fa965d4-light .cluster rect{fill:#ffffde;stroke:#aaaa33;stroke-width:1px;}#gaf1af025-5df3-45aa-beaf-49cf6fa965d4-light .cluster text{fill:#333;}#gaf1af025-5df3-45aa-beaf-49cf6fa965d4-light .cluster span{color:#333;}#gaf1af025-5df3-45aa-beaf-49cf6fa965d4-light div.mermaidTooltip{position:absolute;text-align:center;max-width:200px;padding:2px;font-family:"trebuchet ms",verdana,arial,sans-serif;font-size:12px;background:hsl(80, 100%, 96.2745098039%);border:1px solid #aaaa33;border-radius:2px;pointer-events:none;z-index:100;}#gaf1af025-5df3-45aa-beaf-49cf6fa965d4-light .flowchartTitleText{text-anchor:middle;font-size:18px;fill:#333;}#gaf1af025-5df3-45aa-beaf-49cf6fa965d4-light rect.text{fill:none;stroke-width:0;}#gaf1af025-5df3-45aa-beaf-49cf6fa965d4-light .icon-shape,#gaf1af025-5df3-45aa-beaf-49cf6fa965d4-light .image-shape{background-color:rgba(232,232,232, 0.8);text-align:center;}#gaf1af025-5df3-45aa-beaf-49cf6fa965d4-light .icon-shape p,#gaf1af025-5df3-45aa-beaf-49cf6fa965d4-light .image-shape p{background-color:rgba(232,232,232, 0.8);padding:2px;}#gaf1af025-5df3-45aa-beaf-49cf6fa965d4-light .icon-shape .label rect,#gaf1af025-5df3-45aa-beaf-49cf6fa965d4-light .image-shape .label rect{opacity:0.5;background-color:rgba(232,232,232, 0.8);fill:rgba(232,232,232, 0.8);}#gaf1af025-5df3-45aa-beaf-49cf6fa965d4-light .label-icon{display:inline-block;height:1em;overflow:visible;vertical-align:-0.125em;}#gaf1af025-5df3-45aa-beaf-49cf6fa965d4-light .node .label-icon path{fill:currentColor;stroke:revert;stroke-width:revert;}#gaf1af025-5df3-45aa-beaf-49cf6fa965d4-light .node .neo-node{stroke:#9370DB;}#gaf1af025-5df3-45aa-beaf-49cf6fa965d4-light [data-look="neo"].node rect,#gaf1af025-5df3-45aa-beaf-49cf6fa965d4-light [data-look="neo"].cluster rect,#gaf1af025-5df3-45aa-beaf-49cf6fa965d4-light [data-look="neo"].node polygon{stroke:#9370DB;filter:drop-shadow(1px 2px 2px rgba(185, 185, 185, 1));}#gaf1af025-5df3-45aa-beaf-49cf6fa965d4-light [data-look="neo"].node path{stroke:#9370DB;stroke-width:1px;}#gaf1af025-5df3-45aa-beaf-49cf6fa965d4-light [data-look="neo"].node .outer-path{filter:drop-shadow(1px 2px 2px rgba(185, 185, 185, 1));}#gaf1af025-5df3-45aa-beaf-49cf6fa965d4-light [data-look="neo"].node .neo-line path{stroke:#9370DB;filter:none;}#gaf1af025-5df3-45aa-beaf-49cf6fa965d4-light [data-look="neo"].node circle{stroke:#9370DB;filter:drop-shadow(1px 2px 2px rgba(185, 185, 185, 1));}#gaf1af025-5df3-45aa-beaf-49cf6fa965d4-light [data-look="neo"].node circle .state-start{fill:#000000;}#gaf1af025-5df3-45aa-beaf-49cf6fa965d4-light [data-look="neo"].icon-shape .icon{fill:#9370DB;filter:drop-shadow(1px 2px 2px rgba(185, 185, 185, 1));}#gaf1af025-5df3-45aa-beaf-49cf6fa965d4-light [data-look="neo"].icon-shape .icon-neo path{stroke:#9370DB;filter:drop-shadow(1px 2px 2px rgba(185, 185, 185, 1));}#gaf1af025-5df3-45aa-beaf-49cf6fa965d4-light :root{--mermaid-font-family:"trebuchet ms",verdana,arial,sans-serif;}</style><g><marker id="gaf1af025-5df3-45aa-beaf-49cf6fa965d4-light_flowchart-v2-pointEnd" class="marker flowchart-v2" viewBox="0 0 10 10" refX="5" refY="5" markerUnits="userSpaceOnUse" markerWidth="8" markerHeight="8" orient="auto"><path d="M 0 0 L 10 5 L 0 10 z" class="arrowMarkerPath" style="stroke-width: 1; stroke-dasharray: 1, 0;"></path></marker><marker id="gaf1af025-5df3-45aa-beaf-49cf6fa965d4-light_flowchart-v2-pointStart" class="marker flowchart-v2" viewBox="0 0 10 10" refX="4.5" refY="5" markerUnits="userSpaceOnUse" markerWidth="8" markerHeight="8" orient="auto"><path d="M 0 5 L 10 10 L 10 0 z" class="arrowMarkerPath" style="stroke-width: 1; stroke-dasharray: 1, 0;"></path></marker><marker id="gaf1af025-5df3-45aa-beaf-49cf6fa965d4-light_flowchart-v2-pointEnd-margin" class="marker flowchart-v2" viewBox="0 0 11.5 14" refX="11.5" refY="7" markerUnits="userSpaceOnUse" markerWidth="10.5" markerHeight="14" orient="auto"><path d="M 0 0 L 11.5 7 L 0 14 z" class="arrowMarkerPath" style="stroke-width: 0; stroke-dasharray: 1, 0;"></path></marker><marker id="gaf1af025-5df3-45aa-beaf-49cf6fa965d4-light_flowchart-v2-pointStart-margin" class="marker flowchart-v2" viewBox="0 0 11.5 14" refX="1" refY="7" markerUnits="userSpaceOnUse" markerWidth="11.5" markerHeight="14" orient="auto"><polygon points="0,7 11.5,14 11.5,0" class="arrowMarkerPath" style="stroke-width: 0; stroke-dasharray: 1, 0;"></polygon></marker><marker id="gaf1af025-5df3-45aa-beaf-49cf6fa965d4-light_flowchart-v2-circleEnd" class="marker flowchart-v2" viewBox="0 0 10 10" refX="11" refY="5" markerUnits="userSpaceOnUse" markerWidth="11" markerHeight="11" orient="auto"><circle cx="5" cy="5" r="5" class="arrowMarkerPath" style="stroke-width: 1; stroke-dasharray: 1, 0;"></circle></marker><marker id="gaf1af025-5df3-45aa-beaf-49cf6fa965d4-light_flowchart-v2-circleStart" class="marker flowchart-v2" viewBox="0 0 10 10" refX="-1" refY="5" markerUnits="userSpaceOnUse" markerWidth="11" markerHeight="11" orient="auto"><circle cx="5" cy="5" r="5" class="arrowMarkerPath" style="stroke-width: 1; stroke-dasharray: 1, 0;"></circle></marker><marker id="gaf1af025-5df3-45aa-beaf-49cf6fa965d4-light_flowchart-v2-circleEnd-margin" class="marker flowchart-v2" viewBox="0 0 10 10" refY="5" refX="12.25" markerUnits="userSpaceOnUse" markerWidth="14" markerHeight="14" orient="auto"><circle cx="5" cy="5" r="5" class="arrowMarkerPath" style="stroke-width: 0; stroke-dasharray: 1, 0;"></circle></marker><marker id="gaf1af025-5df3-45aa-beaf-49cf6fa965d4-light_flowchart-v2-circleStart-margin" class="marker flowchart-v2" viewBox="0 0 10 10" refX="-2" refY="5" markerUnits="userSpaceOnUse" markerWidth="14" markerHeight="14" orient="auto"><circle cx="5" cy="5" r="5" class="arrowMarkerPath" style="stroke-width: 0; stroke-dasharray: 1, 0;"></circle></marker><marker id="gaf1af025-5df3-45aa-beaf-49cf6fa965d4-light_flowchart-v2-crossEnd" class="marker cross flowchart-v2" viewBox="0 0 11 11" refX="12" refY="5.2" markerUnits="userSpaceOnUse" markerWidth="11" markerHeight="11" orient="auto"><path d="M 1,1 l 9,9 M 10,1 l -9,9" class="arrowMarkerPath" style="stroke-width: 2; stroke-dasharray: 1, 0;"></path></marker><marker id="gaf1af025-5df3-45aa-beaf-49cf6fa965d4-light_flowchart-v2-crossStart" class="marker cross flowchart-v2" viewBox="0 0 11 11" refX="-1" refY="5.2" markerUnits="userSpaceOnUse" markerWidth="11" markerHeight="11" orient="auto"><path d="M 1,1 l 9,9 M 10,1 l -9,9" class="arrowMarkerPath" style="stroke-width: 2; stroke-dasharray: 1, 0;"></path></marker><marker id="gaf1af025-5df3-45aa-beaf-49cf6fa965d4-light_flowchart-v2-crossEnd-margin" class="marker cross flowchart-v2" viewBox="0 0 15 15" refX="17.7" refY="7.5" markerUnits="userSpaceOnUse" markerWidth="12" markerHeight="12" orient="auto"><path d="M 1,1 L 14,14 M 1,14 L 14,1" class="arrowMarkerPath" style="stroke-width: 2.5;"></path></marker><marker id="gaf1af025-5df3-45aa-beaf-49cf6fa965d4-light_flowchart-v2-crossStart-margin" class="marker cross flowchart-v2" viewBox="0 0 15 15" refX="-3.5" refY="7.5" markerUnits="userSpaceOnUse" markerWidth="12" markerHeight="12" orient="auto"><path d="M 1,1 L 14,14 M 1,14 L 14,1" class="arrowMarkerPath" style="stroke-width: 2.5; stroke-dasharray: 1, 0;"></path></marker><g class="root"><g class="clusters"></g><g class="edgePaths"><path d="M238.195,42.5L238.112,46.583C238.029,50.667,237.862,58.833,237.779,66.417C237.695,74,237.695,81,237.695,84.5L237.695,88" id="gaf1af025-5df3-45aa-beaf-49cf6fa965d4-light-L_Start_Q1_0" class="edge-thickness-normal edge-pattern-solid edge-thickness-normal edge-pattern-solid flowchart-link" style=";" data-edge="true" data-et="edge" data-id="L_Start_Q1_0" data-points="W3sieCI6MjM4LjE5NTMxMjUsInkiOjQyLjV9LHsieCI6MjM3LjY5NTMxMjUsInkiOjY3fSx7IngiOjIzNy42OTUzMTI1LCJ5Ijo5MS45OTk5OTk5OTk5OTk5Nn1d" data-look="classic" marker-end="url(#gaf1af025-5df3-45aa-beaf-49cf6fa965d4-light_flowchart-v2-pointEnd)"></path><path d="M190.747,252.698L175.634,271.006C160.521,289.315,130.296,325.931,115.183,364.921C100.07,403.912,100.07,445.277,100.07,465.96L100.07,486.642" id="gaf1af025-5df3-45aa-beaf-49cf6fa965d4-light-L_Q1_DROP1_0" class="edge-thickness-normal edge-pattern-solid edge-thickness-normal edge-pattern-solid flowchart-link" style=";" data-edge="true" data-et="edge" data-id="L_Q1_DROP1_0" data-points="W3sieCI6MTkwLjc0NjgxODUwMjgxMTMsInkiOjI1Mi42OTgzODcxMDYzMjY5Mn0seyJ4IjoxMDAuMDcwMzEyNSwieSI6MzYyLjU0Njg4MjYyOTM5NDUzfSx7IngiOjEwMC4wNzAzMTI1LCJ5Ijo0OTAuNjQyMjAwNDY5OTcwN31d" data-look="classic" marker-end="url(#gaf1af025-5df3-45aa-beaf-49cf6fa965d4-light_flowchart-v2-pointEnd)"></path><path d="M277.844,259.498L288.674,276.673C299.503,293.848,321.162,328.197,331.991,366.055C342.82,403.912,342.82,445.277,342.82,465.96L342.82,486.642" id="gaf1af025-5df3-45aa-beaf-49cf6fa965d4-light-L_Q1_DROP2_0" class="edge-thickness-normal edge-pattern-solid edge-thickness-normal edge-pattern-solid flowchart-link" style=";" data-edge="true" data-et="edge" data-id="L_Q1_DROP2_0" data-points="W3sieCI6Mjc3Ljg0NDI5ODEwNjA1NTEsInkiOjI1OS40OTc4OTU0OTc0NjA1NX0seyJ4IjozNDIuODIwMzEyNSwieSI6MzYyLjU0Njg4MjYyOTM5NDUzfSx7IngiOjM0Mi44MjAzMTI1LCJ5Ijo0OTAuNjQyMjAwNDY5OTcwN31d" data-look="classic" marker-end="url(#gaf1af025-5df3-45aa-beaf-49cf6fa965d4-light_flowchart-v2-pointEnd)"></path><path d="M308.345,228.997L355.749,251.255C403.153,273.514,497.961,318.03,545.365,350.105C592.769,382.18,592.769,401.814,592.769,411.63L592.769,421.447" id="gaf1af025-5df3-45aa-beaf-49cf6fa965d4-light-L_Q1_Q2_0" class="edge-thickness-normal edge-pattern-solid edge-thickness-normal edge-pattern-solid flowchart-link" style=";" data-edge="true" data-et="edge" data-id="L_Q1_Q2_0" data-points="W3sieCI6MzA4LjM0NTMwNTc3MTA3MjksInkiOjIyOC45OTY4ODc4MzI0NDI3Mn0seyJ4Ijo1OTIuNzY4NzUzMDUxNzU3OCwieSI6MzYyLjU0Njg4MjYyOTM5NDUzfSx7IngiOjU5Mi43Njg3NTMwNTE3NTc4LCJ5Ijo0MjUuNDQ2ODg0MTU1MjczNX1d" data-look="classic" marker-end="url(#gaf1af025-5df3-45aa-beaf-49cf6fa965d4-light_flowchart-v2-pointEnd)"></path><path d="M544.703,574.372L529.872,589.933C515.04,605.494,485.378,636.616,470.546,672.394C455.715,708.172,455.715,748.606,455.715,768.823L455.715,789.041" id="gaf1af025-5df3-45aa-beaf-49cf6fa965d4-light-L_Q2_DROP3_0" class="edge-thickness-normal edge-pattern-solid edge-thickness-normal edge-pattern-solid flowchart-link" style=";" data-edge="true" data-et="edge" data-id="L_Q2_DROP3_0" data-points="W3sieCI6NTQ0LjcwMzIxOTMyNzY4ODUsInkiOjU3NC4zNzE5ODE1MzQ3MTk4fSx7IngiOjQ1NS43MTQ4NDc1NjQ2OTcyNywieSI6NjY3LjczNzUxNDQ5NTg0OTZ9LHsieCI6NDU1LjcxNDg0NzU2NDY5NzI3LCJ5Ijo3OTMuMDQwNjM3OTY5OTcwN31d" data-look="classic" marker-end="url(#gaf1af025-5df3-45aa-beaf-49cf6fa965d4-light_flowchart-v2-pointEnd)"></path><path d="M640.834,574.372L655.666,589.933C670.497,605.494,700.16,636.616,714.991,659.06C729.823,681.504,729.823,695.271,729.823,702.154L729.823,709.038" id="gaf1af025-5df3-45aa-beaf-49cf6fa965d4-light-L_Q2_Q3_0" class="edge-thickness-normal edge-pattern-solid edge-thickness-normal edge-pattern-solid flowchart-link" style=";" data-edge="true" data-et="edge" data-id="L_Q2_Q3_0" data-points="W3sieCI6NjQwLjgzNDI4Njc3NTgyNzIsInkiOjU3NC4zNzE5ODE1MzQ3MTk3fSx7IngiOjcyOS44MjI2NTg1Mzg4MTg0LCJ5Ijo2NjcuNzM3NTE0NDk1ODQ5Nn0seyJ4Ijo3MjkuODIyNjU4NTM4ODE4NSwieSI6NzEzLjAzNzUxMzczMjkxfV0=" data-look="classic" marker-end="url(#gaf1af025-5df3-45aa-beaf-49cf6fa965d4-light_flowchart-v2-pointEnd)"></path><path d="M676.088,885.909L662.522,900.949C648.956,915.988,621.824,946.066,608.258,976.822C594.692,1007.579,594.692,1039.014,594.692,1054.731L594.692,1070.448" id="gaf1af025-5df3-45aa-beaf-49cf6fa965d4-light-L_Q3_DROP4_0" class="edge-thickness-normal edge-pattern-solid edge-thickness-normal edge-pattern-solid flowchart-link" style=";" data-edge="true" data-et="edge" data-id="L_Q3_DROP4_0" data-points="W3sieCI6Njc2LjA4ODM2ODUzMzYyNjYsInkiOjg4NS45MDk0NzA2NzU5NjA0fSx7IngiOjU5NC42OTIxODgyNjI5Mzk1LCJ5Ijo5NzYuMTQzNzYwNjgxMTUyM30seyJ4Ijo1OTQuNjkyMTg4MjYyOTM5NSwieSI6MTA3NC40NDg0NTE5OTU4NDk2fV0=" data-look="classic" marker-end="url(#gaf1af025-5df3-45aa-beaf-49cf6fa965d4-light_flowchart-v2-pointEnd)"></path><path d="M783.557,885.909L797.123,900.949C810.689,915.988,837.821,946.066,851.387,966.521C864.953,986.977,864.953,997.81,864.953,1003.227L864.953,1008.644" id="gaf1af025-5df3-45aa-beaf-49cf6fa965d4-light-L_Q3_Q4_0" class="edge-thickness-normal edge-pattern-solid edge-thickness-normal edge-pattern-solid flowchart-link" style=";" data-edge="true" data-et="edge" data-id="L_Q3_Q4_0" data-points="W3sieCI6NzgzLjU1Njk0ODU0NDAxMDEsInkiOjg4NS45MDk0NzA2NzU5NjA4fSx7IngiOjg2NC45NTMxMjg4MTQ2OTczLCJ5Ijo5NzYuMTQzNzYwNjgxMTUyM30seyJ4Ijo4NjQuOTUzMTI4ODE0Njk2OCwieSI6MTAxMi42NDM3NjA2ODExNTIzfV0=" data-look="classic" marker-end="url(#gaf1af025-5df3-45aa-beaf-49cf6fa965d4-light_flowchart-v2-pointEnd)"></path><path d="M798.312,1136.212L754.633,1154.869C710.953,1173.526,623.594,1210.84,579.914,1236.38C536.234,1261.92,536.234,1275.686,536.234,1282.57L536.234,1289.453" id="gaf1af025-5df3-45aa-beaf-49cf6fa965d4-light-L_Q4_ALERT1_0" class="edge-thickness-normal edge-pattern-solid edge-thickness-normal edge-pattern-solid flowchart-link" style=";" data-edge="true" data-et="edge" data-id="L_Q4_ALERT1_0" data-points="W3sieCI6Nzk4LjMxMjQ3MDIwMzg1NTYsInkiOjExMzYuMjEyNDgzMTczODI1Nn0seyJ4Ijo1MzYuMjM0Mzc4ODE0Njk3MywieSI6MTI0OC4xNTMxNDEwMjE3Mjg1fSx7IngiOjUzNi4yMzQzNzg4MTQ2OTczLCJ5IjoxMjkzLjQ1MzE0MDI1ODc4OX1d" data-look="classic" marker-end="url(#gaf1af025-5df3-45aa-beaf-49cf6fa965d4-light_flowchart-v2-pointEnd)"></path><path d="M824.233,1162.134L813.499,1176.47C802.765,1190.807,781.297,1219.48,770.562,1240.7C759.828,1261.92,759.828,1275.686,759.828,1282.57L759.828,1289.453" id="gaf1af025-5df3-45aa-beaf-49cf6fa965d4-light-L_Q4_ALERT2_0" class="edge-thickness-normal edge-pattern-solid edge-thickness-normal edge-pattern-solid flowchart-link" style=";" data-edge="true" data-et="edge" data-id="L_Q4_ALERT2_0" data-points="W3sieCI6ODI0LjIzMzQ4ODc0NjUxMzcsInkiOjExNjIuMTMzNTAxNzE2NDgzOH0seyJ4Ijo3NTkuODI4MTI4ODE0Njk3MywieSI6MTI0OC4xNTMxNDEwMjE3Mjg1fSx7IngiOjc1OS44MjgxMjg4MTQ2OTczLCJ5IjoxMjkzLjQ1MzE0MDI1ODc4OX1d" data-look="classic" marker-end="url(#gaf1af025-5df3-45aa-beaf-49cf6fa965d4-light_flowchart-v2-pointEnd)"></path><path d="M905.673,1162.134L916.407,1176.47C927.141,1190.807,948.61,1219.48,959.344,1240.7C970.078,1261.92,970.078,1275.686,970.078,1282.57L970.078,1289.453" id="gaf1af025-5df3-45aa-beaf-49cf6fa965d4-light-L_Q4_QUAR_0" class="edge-thickness-normal edge-pattern-solid edge-thickness-normal edge-pattern-solid flowchart-link" style=";" data-edge="true" data-et="edge" data-id="L_Q4_QUAR_0" data-points="W3sieCI6OTA1LjY3Mjc2ODg4Mjg4MDYsInkiOjExNjIuMTMzNTAxNzE2NDg0fSx7IngiOjk3MC4wNzgxMjg4MTQ2OTczLCJ5IjoxMjQ4LjE1MzE0MTAyMTcyODV9LHsieCI6OTcwLjA3ODEyODgxNDY5NzMsInkiOjEyOTMuNDUzMTQwMjU4Nzg5fV0=" data-look="classic" marker-end="url(#gaf1af025-5df3-45aa-beaf-49cf6fa965d4-light_flowchart-v2-pointEnd)"></path></g><g class="edgeLabels"><g class="edgeLabel"><g class="label" data-id="L_Start_Q1_0" transform="translate(0, 0)"><text y="-10.1" text-anchor="middle"><tspan class="text-outer-tspan row" x="0" y="-0.1em" dy="1.1em" text-anchor="middle"></tspan></text></g></g><g><rect class="background" style="stroke: none"></rect></g><g class="edgeLabel" transform="translate(100.0703125, 362.54688262939453)"><g class="label" data-id="L_Q1_DROP1_0" transform="translate(0, -36.900001525878906)"><g><rect class="background" style="" x="-92.0703125" y="-1" width="184.140625" height="75.80000305175781"></rect><text y="-10.1" text-anchor="middle" style=""><tspan class="text-outer-tspan row" x="0" y="-0.1em" dy="1.1em" text-anchor="middle"><tspan font-style="normal" class="text-inner-tspan" font-weight="normal">chrome-extension://</tspan></tspan><tspan class="text-outer-tspan row" x="0" y="1em" dy="1.1em" text-anchor="middle"><tspan font-style="normal" class="text-inner-tspan" font-weight="normal">moz-extension://</tspan></tspan><tspan class="text-outer-tspan row" x="0" y="2.1em" dy="1.1em" text-anchor="middle"><tspan font-style="normal" class="text-inner-tspan" font-weight="normal">safari-web-extension://</tspan></tspan><tspan class="text-outer-tspan row" x="0" y="3.2em" dy="1.1em" text-anchor="middle"><tspan font-style="normal" class="text-inner-tspan" font-weight="normal">ms-browser-extension://</tspan></tspan></text></g></g></g><g class="edgeLabel" transform="translate(342.8203125, 362.54688262939453)"><g class="label" data-id="L_Q1_DROP2_0" transform="translate(0, -19.299999237060547)"><g><rect class="background" style="" x="-82.6953125" y="-1" width="165.390625" height="40.599998474121094"></rect><text y="-10.1" text-anchor="middle" style=""><tspan class="text-outer-tspan row" x="0" y="-0.1em" dy="1.1em" text-anchor="middle"><tspan font-style="normal" class="text-inner-tspan" font-weight="normal">about:</tspan><tspan font-style="normal" class="text-inner-tspan" font-weight="normal"> /</tspan><tspan font-style="normal" class="text-inner-tspan" font-weight="normal"> data:</tspan><tspan font-style="normal" class="text-inner-tspan" font-weight="normal"> with</tspan><tspan font-style="normal" class="text-inner-tspan" font-weight="normal"> no</tspan></tspan><tspan class="text-outer-tspan row" x="0" y="1em" dy="1.1em" text-anchor="middle"><tspan font-style="normal" class="text-inner-tspan" font-weight="normal">source</tspan></tspan></text></g></g></g><g class="edgeLabel" transform="translate(592.7687530517578, 362.54688262939453)"><g class="label" data-id="L_Q1_Q2_0" transform="translate(0, -10.5)"><g><rect class="background" style="" x="-42.59375" y="-1" width="85.1875" height="23"></rect><text y="-10.1" text-anchor="middle" style=""><tspan class="text-outer-tspan row" x="0" y="-0.1em" dy="1.1em" text-anchor="middle"><tspan font-style="normal" class="text-inner-tspan" font-weight="normal">http(s)</tspan><tspan font-style="normal" class="text-inner-tspan" font-weight="normal"> URL</tspan></tspan></text></g></g></g><g class="edgeLabel" transform="translate(455.71484756469727, 667.7375144958496)"><g class="label" data-id="L_Q2_DROP3_0" transform="translate(0, -19.299999237060547)"><g><rect class="background" style="" x="-86.796875" y="-1" width="173.59375" height="40.599998474121094"></rect><text y="-10.1" text-anchor="middle" style=""><tspan class="text-outer-tspan row" x="0" y="-0.1em" dy="1.1em" text-anchor="middle"><tspan font-style="normal" class="text-inner-tspan" font-weight="normal">yes</tspan><tspan font-style="normal" class="text-inner-tspan" font-weight="normal"> —</tspan><tspan font-style="normal" class="text-inner-tspan" font-weight="normal"> known</tspan><tspan font-style="normal" class="text-inner-tspan" font-weight="normal"> AV</tspan><tspan font-style="normal" class="text-inner-tspan" font-weight="normal"> /</tspan><tspan font-style="normal" class="text-inner-tspan" font-weight="normal"> proxy</tspan></tspan><tspan class="text-outer-tspan row" x="0" y="1em" dy="1.1em" text-anchor="middle"><tspan font-style="normal" class="text-inner-tspan" font-weight="normal">injection</tspan><tspan font-style="normal" class="text-inner-tspan" font-weight="normal"> host</tspan></tspan></text></g></g></g><g class="edgeLabel" transform="translate(729.8226585388184, 667.7375144958496)"><g class="label" data-id="L_Q2_Q3_0" transform="translate(0, -10.5)"><g><rect class="background" style="" x="-10.6640625" y="-1" width="21.328125" height="23"></rect><text y="-10.1" text-anchor="middle" style=""><tspan class="text-outer-tspan row" x="0" y="-0.1em" dy="1.1em" text-anchor="middle"><tspan font-style="normal" class="text-inner-tspan" font-weight="normal">no</tspan></tspan></text></g></g></g><g class="edgeLabel" transform="translate(594.6921882629395, 976.1437606811523)"><g class="label" data-id="L_Q3_DROP4_0" transform="translate(0, -10.5)"><g><rect class="background" style="" x="-13.546875" y="-1" width="27.09375" height="23"></rect><text y="-10.1" text-anchor="middle" style=""><tspan class="text-outer-tspan row" x="0" y="-0.1em" dy="1.1em" text-anchor="middle"><tspan font-style="normal" class="text-inner-tspan" font-weight="normal">yes</tspan></tspan></text></g></g></g><g class="edgeLabel" transform="translate(864.9531288146973, 976.1437606811523)"><g class="label" data-id="L_Q3_Q4_0" transform="translate(0, -10.5)"><g><rect class="background" style="" x="-10.6640625" y="-1" width="21.328125" height="23"></rect><text y="-10.1" text-anchor="middle" style=""><tspan class="text-outer-tspan row" x="0" y="-0.1em" dy="1.1em" text-anchor="middle"><tspan font-style="normal" class="text-inner-tspan" font-weight="normal">no</tspan></tspan></text></g></g></g><g class="edgeLabel" transform="translate(536.2343788146973, 1248.1531410217285)"><g class="label" data-id="L_Q4_ALERT1_0" transform="translate(0, -10.5)"><g><rect class="background" style="" x="-13.546875" y="-1" width="27.09375" height="23"></rect><text y="-10.1" text-anchor="middle" style=""><tspan class="text-outer-tspan row" x="0" y="-0.1em" dy="1.1em" text-anchor="middle"><tspan font-style="normal" class="text-inner-tspan" font-weight="normal">yes</tspan></tspan></text></g></g></g><g class="edgeLabel" transform="translate(759.8281288146973, 1248.1531410217285)"><g class="label" data-id="L_Q4_ALERT2_0" transform="translate(0, -19.299999237060547)"><g><rect class="background" style="" x="-72.953125" y="-1" width="145.90625" height="40.599998474121094"></rect><text y="-10.1" text-anchor="middle" style=""><tspan class="text-outer-tspan row" x="0" y="-0.1em" dy="1.1em" text-anchor="middle"><tspan font-style="normal" class="text-inner-tspan" font-weight="normal">no,</tspan><tspan font-style="normal" class="text-inner-tspan" font-weight="normal"> repeated</tspan><tspan font-style="normal" class="text-inner-tspan" font-weight="normal"> across</tspan></tspan><tspan class="text-outer-tspan row" x="0" y="1em" dy="1.1em" text-anchor="middle"><tspan font-style="normal" class="text-inner-tspan" font-weight="normal">distinct</tspan><tspan font-style="normal" class="text-inner-tspan" font-weight="normal"> UAs</tspan><tspan font-style="normal" class="text-inner-tspan" font-weight="normal"> +</tspan><tspan font-style="normal" class="text-inner-tspan" font-weight="normal"> IPs</tspan></tspan></text></g></g></g><g class="edgeLabel" transform="translate(970.0781288146973, 1248.1531410217285)"><g class="label" data-id="L_Q4_QUAR_0" transform="translate(0, -10.5)"><g><rect class="background" style="" x="-48.9609375" y="-1" width="97.921875" height="23"></rect><text y="-10.1" text-anchor="middle" style=""><tspan class="text-outer-tspan row" x="0" y="-0.1em" dy="1.1em" text-anchor="middle"><tspan font-style="normal" class="text-inner-tspan" font-weight="normal">no,</tspan><tspan font-style="normal" class="text-inner-tspan" font-weight="normal"> single</tspan><tspan font-style="normal" class="text-inner-tspan" font-weight="normal"> UA</tspan></tspan></text></g></g></g></g><g class="nodes"><g class="node default" id="gaf1af025-5df3-45aa-beaf-49cf6fa965d4-light-flowchart-Start-0" data-look="classic" transform="translate(237.6953125, 25)"><g class="basic label-container outer-path"><path d="M-67.1953125 -17 C-25.243480489027725 -17, 16.70835152194455 -17, 67.1953125 -17 C67.1953125 -17, 67.1953125 -17, 67.1953125 -17 C67.55757112736201 -16.988383070914143, 67.91982975472402 -16.976766141828286, 68.28450623967211 -16.965071676755716 C68.6570198812846 -16.92913573376256, 69.02953352289708 -16.89319979076941, 69.3692242486366 -16.860430234995185 C69.76978467791024 -16.795670731182746, 70.17034510718388 -16.73091122737031, 70.44500918792333 -16.686505668848113 C70.68038923465363 -16.63278170918027, 70.91576928138393 -16.579057749512433, 71.50744042646163 -16.4440126716635 C71.73583004059775 -16.37622783302945, 71.96421965473387 -16.308442994395396, 72.55215220640156 -16.133947699181366 C72.84639364168405 -16.0256641310594, 73.14063507696653 -15.917380562937433, 73.57485158294936 -15.757584874882369 C73.8082443016091 -15.65426884168072, 74.04163702026882 -15.550952808479071, 74.57133606499849 -15.316470754341125 C74.87780486588251 -15.15658617722257, 75.18427366676652 -14.996701600104014, 75.53751088406693 -14.812417970097622 C75.86204028294043 -14.61568634135407, 76.18656968181392 -14.418954712610521, 76.46940582057933 -14.247497783161291 C76.76856438464814 -14.038817719232402, 77.06772294871696 -13.830137655303512, 77.36319151835067 -13.624031571755262 C77.54464151175493 -13.479330030602474, 77.7260915051592 -13.334628489449688, 78.2151952202324 -12.944581292275288 C78.43890719891661 -12.741411992328883, 78.66261917760083 -12.53824269238248, 79.02191586025927 -12.21193895166137 C79.30832142807634 -11.916201688555818, 79.59472699589341 -11.620464425450267, 79.78003845028036 -11.42911513444239 C80.04723289591638 -11.11525333480366, 80.3144273415524 -10.801391535164928, 80.48644770195651 -10.59932663159847 C80.63042589240106 -10.406408973085739, 80.77440408284563 -10.213491314573009, 81.13824082814824 -9.725983222076888 C81.30717626052049 -9.466453032437746, 81.47611169289274 -9.206922842798605, 81.73273947109088 -8.812673661278927 C81.94110713247774 -8.442695778972885, 82.14947479386461 -8.072717896666843, 82.267500708341 -7.863150934094199 C82.42101354117881 -7.544378252058061, 82.57452637401661 -7.225605570021922, 82.74032709126881 -6.881316833080699 C82.83419016090268 -6.64947323636603, 82.92805323053656 -6.417629639651362, 83.14927567484592 -5.871205925162238 C83.23619065269489 -5.609431859902292, 83.32310563054385 -5.3476577946423465, 83.49266600162323 -4.836968972727556 C83.5480995295297 -4.625576905777268, 83.60353305743615 -4.414184838826981, 83.769087007091 -3.7828558772573464 C83.83197057153595 -3.4599620642786153, 83.89485413598088 -3.1370682512998838, 83.97740281804565 -2.713198215567453 C84.00864337785023 -2.470902602869375, 84.03988393765482 -2.228606990171297, 84.11675742013637 -1.632391440430593 C84.13741155295067 -1.3106866501319585, 84.15806568576497 -0.9889818598333239, 84.1865781754117 -0.5448768187181379 C84.1865781754117 -0.22557793651411928, 84.1865781754117 0.0937209456898993, 84.1865781754117 0.5448768187181336 C84.16857388420758 0.8253081870246317, 84.15056959300345 1.1057395553311298, 84.11675742013637 1.6323914404305815 C84.0804901976026 1.9136728566292889, 84.04422297506885 2.1949542728279963, 83.97740281804565 2.7131982155674415 C83.90920580646615 3.063375456584699, 83.84100879488665 3.413552697601957, 83.769087007091 3.782855877257343 C83.66432554198461 4.182356747614208, 83.55956407687822 4.581857617971073, 83.49266600162323 4.836968972727545 C83.38078146212261 5.173947379322913, 83.26889692262199 5.51092578591828, 83.14927567484592 5.871205925162227 C83.05883637193713 6.094592751871914, 82.96839706902834 6.3179795785816, 82.74032709126881 6.881316833080694 C82.55368279634365 7.268887705040935, 82.3670385014185 7.6564585770011755, 82.267500708341 7.863150934094196 C82.06813236073235 8.217149623507686, 81.8687640131237 8.571148312921176, 81.73273947109088 8.812673661278923 C81.49572406946497 9.17679296572316, 81.25870866783906 9.5409122701674, 81.13824082814826 9.725983222076879 C80.92473205935482 10.012065521211088, 80.71122329056139 10.298147820345298, 80.48644770195651 10.599326631598467 C80.34290248146918 10.767943015537321, 80.19935726098184 10.936559399476177, 79.78003845028037 11.42911513444238 C79.52563732969135 11.691805178170991, 79.27123620910231 11.9544952218996, 79.02191586025927 12.211938951661365 C78.83316261566671 12.38335965426315, 78.64440937107415 12.554780356864935, 78.21519522023242 12.944581292275275 C77.91834721754539 13.181309674961076, 77.62149921485835 13.418038057646877, 77.36319151835067 13.62403157175526 C77.10644366085582 13.803127762708053, 76.84969580336097 13.982223953660846, 76.46940582057934 14.247497783161286 C76.14434014589312 14.444554505454011, 75.81927447120692 14.641611227746736, 75.53751088406695 14.81241797009762 C75.31085701280412 14.930663149556704, 75.0842031415413 15.048908329015786, 74.57133606499849 15.316470754341124 C74.31348135294604 15.430615386378479, 74.05562664089359 15.544760018415834, 73.57485158294936 15.757584874882367 C73.20412331042984 15.894016306144138, 72.83339503791031 16.03044773740591, 72.55215220640156 16.133947699181363 C72.20725186644277 16.236312309662303, 71.86235152648399 16.338676920143243, 71.50744042646164 16.444012671663497 C71.29403128400106 16.492721915805323, 71.08062214154047 16.541431159947148, 70.44500918792333 16.68650566884811 C70.14650899925975 16.7347648644477, 69.84800881059617 16.783024060047293, 69.36922424863661 16.86043023499518 C69.14919470186841 16.881656220747665, 68.92916515510022 16.902882206500145, 68.28450623967211 16.965071676755716 C67.99812279717959 16.974255436344897, 67.71173935468707 16.98343919593408, 67.1953125 17 C67.1953125 17, 67.1953125 17, 67.1953125 17 C23.448369362292375 17, -20.29857377541525 17, -67.1953125 17 C-67.565652406808 16.988123920011567, -67.93599231361601 16.97624784002313, -68.28450623967211 16.965071676755716 C-68.70141993377625 16.924852514097566, -69.11833362788038 16.884633351439415, -69.3692242486366 16.86043023499518 C-69.72216629823174 16.803369301523112, -70.07510834782688 16.746308368051043, -70.44500918792333 16.68650566884811 C-70.72749533985625 16.622030048063838, -71.00998149178916 16.557554427279566, -71.50744042646161 16.4440126716635 C-71.8499488039657 16.34235798308345, -72.19245718146979 16.240703294503398, -72.55215220640154 16.13394769918137 C-72.79060150976653 16.046196151341857, -73.02905081313152 15.958444603502345, -73.57485158294936 15.757584874882369 C-73.82805402027431 15.645499666862058, -74.08125645759924 15.533414458841746, -74.57133606499849 15.316470754341127 C-74.90507752377826 15.142358049067328, -75.23881898255803 14.968245343793528, -75.53751088406693 14.812417970097624 C-75.76144030684718 14.676670638052883, -75.98536972962742 14.540923306008143, -76.46940582057931 14.247497783161299 C-76.82490100931685 13.99951972863669, -77.18039619805437 13.751541674112083, -77.36319151835067 13.624031571755264 C-77.61382835285573 13.424155365963761, -77.86446518736078 13.22427916017226, -78.2151952202324 12.94458129227529 C-78.46491287741854 12.717794323185984, -78.71463053460468 12.49100735409668, -79.02191586025926 12.211938951661377 C-79.20031467118122 12.027727532569681, -79.37871348210318 11.843516113477987, -79.78003845028036 11.429115134442386 C-79.94674746322161 11.233289241830022, -80.11345647616288 11.037463349217656, -80.48644770195651 10.599326631598473 C-80.64882640621197 10.381753960900442, -80.81120511046741 10.16418129020241, -81.13824082814824 9.72598322207689 C-81.35772921902516 9.388790112804502, -81.57721760990206 9.051597003532116, -81.73273947109088 8.812673661278936 C-81.85955135137762 8.587506326734525, -81.98636323166434 8.362338992190114, -82.267500708341 7.863150934094201 C-82.36674113977372 7.6570760548190915, -82.46598157120644 7.451001175543982, -82.74032709126881 6.881316833080701 C-82.84939741140325 6.611911033617466, -82.95846773153768 6.342505234154231, -83.14927567484592 5.87120592516224 C-83.23490284328474 5.613310536661091, -83.32053001172355 5.355415148159942, -83.49266600162323 4.8369689727275516 C-83.57084781086677 4.538827849871495, -83.6490296201103 4.24068672701544, -83.769087007091 3.782855877257349 C-83.82897255625252 3.4753562391282067, -83.88885810541406 3.1678566009990643, -83.97740281804565 2.713198215567455 C-84.01772140359118 2.4004952278815828, -84.0580399891367 2.0877922401957103, -84.11675742013637 1.6323914404306026 C-84.13418316559275 1.3609713891388968, -84.15160891104914 1.0895513378471908, -84.1865781754117 0.54487681871814 C-84.1865781754117 0.26810349090379465, -84.1865781754117 -0.008669836910550677, -84.1865781754117 -0.5448768187181317 C-84.17246156482284 -0.76475442336259, -84.15834495423398 -0.9846320280070484, -84.11675742013637 -1.6323914404305793 C-84.07482277718796 -1.9576282502065228, -84.03288813423956 -2.2828650599824662, -83.97740281804565 -2.713198215567447 C-83.89668887884744 -3.127647234453155, -83.81597493964924 -3.542096253338864, -83.769087007091 -3.782855877257341 C-83.67831199745675 -4.12902033113079, -83.5875369878225 -4.475184785004239, -83.49266600162323 -4.836968972727544 C-83.35571360447308 -5.249447772542583, -83.21876120732294 -5.661926572357621, -83.14927567484594 -5.871205925162218 C-83.04490142456704 -6.129012341289935, -82.94052717428815 -6.386818757417652, -82.74032709126881 -6.881316833080692 C-82.56038915925251 -7.25496179896753, -82.38045122723621 -7.628606764854369, -82.267500708341 -7.863150934094194 C-82.14015452611619 -8.0892669758336, -82.01280834389138 -8.315383017573007, -81.73273947109088 -8.812673661278929 C-81.56040894431227 -9.07741962763673, -81.38807841753368 -9.34216559399453, -81.13824082814826 -9.725983222076884 C-80.89101893025578 -10.057238042874559, -80.64379703236332 -10.388492863672234, -80.48644770195651 -10.599326631598467 C-80.24894025394363 -10.87831639459103, -80.01143280593077 -11.157306157583593, -79.78003845028037 -11.42911513444238 C-79.5450410251172 -11.671769269570772, -79.31004359995403 -11.914423404699162, -79.02191586025927 -12.21193895166136 C-78.723003381473 -12.48340335610425, -78.42409090268674 -12.754867760547139, -78.21519522023242 -12.944581292275274 C-77.94604033309682 -13.15922515225356, -77.67688544596122 -13.373869012231847, -77.36319151835067 -13.624031571755259 C-77.00975010714191 -13.870576999982399, -76.65630869593315 -14.117122428209539, -76.46940582057934 -14.247497783161284 C-76.21900737195256 -14.399290794223457, -75.96860892332579 -14.551083805285629, -75.53751088406695 -14.812417970097618 C-75.2308637194321 -14.972395599470735, -74.92421655479725 -15.132373228843852, -74.57133606499849 -15.316470754341124 C-74.22717860615451 -15.468819052303063, -73.88302114731053 -15.621167350265003, -73.57485158294936 -15.757584874882365 C-73.1939265922842 -15.897768792679159, -72.81300160161905 -16.037952710475953, -72.55215220640156 -16.133947699181363 C-72.34093394141051 -16.196636171523405, -72.12971567641948 -16.25932464386545, -71.50744042646164 -16.444012671663494 C-71.15843626669125 -16.523670593666104, -70.80943210692087 -16.60332851566871, -70.44500918792333 -16.68650566884811 C-70.03563026604793 -16.75269087815597, -69.62625134417252 -16.81887608746383, -69.36922424863661 -16.86043023499518 C-69.12751699263428 -16.88374744328622, -68.88580973663197 -16.907064651577258, -68.28450623967213 -16.965071676755716 C-68.0295892781027 -16.973246367547482, -67.77467231653327 -16.98142105833925, -67.1953125 -17 C-67.1953125 -17, -67.1953125 -17, -67.1953125 -17" stroke="none" stroke-width="0" fill="#ECECFF" style=""></path><path d="M-67.1953125 -17 C-34.87871461918016 -17, -2.5621167383603165 -17, 67.1953125 -17 M-67.1953125 -17 C-18.049596768422617 -17, 31.096118963154765 -17, 67.1953125 -17 M67.1953125 -17 C67.1953125 -17, 67.1953125 -17, 67.1953125 -17 M67.1953125 -17 C67.1953125 -17, 67.1953125 -17, 67.1953125 -17 M67.1953125 -17 C67.42435311761406 -16.992655113193635, 67.65339373522812 -16.985310226387266, 68.28450623967211 -16.965071676755716 M67.1953125 -17 C67.42480676934204 -16.992640565465695, 67.65430103868408 -16.985281130931394, 68.28450623967211 -16.965071676755716 M68.28450623967211 -16.965071676755716 C68.60132703396128 -16.93450835576339, 68.91814782825045 -16.90394503477107, 69.3692242486366 -16.860430234995185 M68.28450623967211 -16.965071676755716 C68.68743984514387 -16.926201156434416, 69.09037345061562 -16.887330636113116, 69.3692242486366 -16.860430234995185 M69.3692242486366 -16.860430234995185 C69.77029576883903 -16.79558810196495, 70.17136728904147 -16.730745968934713, 70.44500918792333 -16.686505668848113 M69.3692242486366 -16.860430234995185 C69.67057904737663 -16.811709528176266, 69.97193384611666 -16.762988821357347, 70.44500918792333 -16.686505668848113 M70.44500918792333 -16.686505668848113 C70.6873162032978 -16.631200673789937, 70.92962321867225 -16.575895678731765, 71.50744042646163 -16.4440126716635 M70.44500918792333 -16.686505668848113 C70.85608018286594 -16.592681396741394, 71.26715117780856 -16.498857124634675, 71.50744042646163 -16.4440126716635 M71.50744042646163 -16.4440126716635 C71.77274623681441 -16.365271299769407, 72.03805204716721 -16.286529927875318, 72.55215220640156 -16.133947699181366 M71.50744042646163 -16.4440126716635 C71.78648960071072 -16.361192341505372, 72.06553877495983 -16.278372011347248, 72.55215220640156 -16.133947699181366 M72.55215220640156 -16.133947699181366 C72.92279320810282 -15.99754838438744, 73.29343420980409 -15.861149069593512, 73.57485158294936 -15.757584874882369 M72.55215220640156 -16.133947699181366 C72.88318030172242 -16.01212630011312, 73.21420839704327 -15.890304901044878, 73.57485158294936 -15.757584874882369 M73.57485158294936 -15.757584874882369 C73.93048726077502 -15.600155509866504, 74.2861229386007 -15.442726144850639, 74.57133606499849 -15.316470754341125 M73.57485158294936 -15.757584874882369 C73.96834266141929 -15.583398046941854, 74.3618337398892 -15.409211219001339, 74.57133606499849 -15.316470754341125 M74.57133606499849 -15.316470754341125 C74.94610121585924 -15.120956015185605, 75.32086636672 -14.925441276030083, 75.53751088406693 -14.812417970097622 M74.57133606499849 -15.316470754341125 C74.87931976247587 -15.155795856640145, 75.18730345995326 -14.995120958939165, 75.53751088406693 -14.812417970097622 M75.53751088406693 -14.812417970097622 C75.84006410550226 -14.629008429263441, 76.1426173269376 -14.445598888429263, 76.46940582057933 -14.247497783161291 M75.53751088406693 -14.812417970097622 C75.80012247842531 -14.653221278320544, 76.06273407278368 -14.494024586543468, 76.46940582057933 -14.247497783161291 M76.46940582057933 -14.247497783161291 C76.78180513211561 -14.029581546981817, 77.09420444365189 -13.81166531080234, 77.36319151835067 -13.624031571755262 M76.46940582057933 -14.247497783161291 C76.66974753291304 -14.107748077290246, 76.87008924524673 -13.967998371419203, 77.36319151835067 -13.624031571755262 M77.36319151835067 -13.624031571755262 C77.69445572931039 -13.359857178825765, 78.02571994027011 -13.095682785896267, 78.2151952202324 -12.944581292275288 M77.36319151835067 -13.624031571755262 C77.5542429781487 -13.471673116659211, 77.7452944379467 -13.31931466156316, 78.2151952202324 -12.944581292275288 M78.2151952202324 -12.944581292275288 C78.39248755590205 -12.783569083918263, 78.5697798915717 -12.622556875561235, 79.02191586025927 -12.21193895166137 M78.2151952202324 -12.944581292275288 C78.40361207627721 -12.773466088852226, 78.59202893232201 -12.602350885429164, 79.02191586025927 -12.21193895166137 M79.02191586025927 -12.21193895166137 C79.21338361425396 -12.01423277586691, 79.40485136824863 -11.816526600072448, 79.78003845028036 -11.42911513444239 M79.02191586025927 -12.21193895166137 C79.20799313428148 -12.019798889005122, 79.39407040830369 -11.827658826348875, 79.78003845028036 -11.42911513444239 M79.78003845028036 -11.42911513444239 C79.94320306646158 -11.23745269194626, 80.10636768264278 -11.04579024945013, 80.48644770195651 -10.59932663159847 M79.78003845028036 -11.42911513444239 C80.01168565373389 -11.157009148166598, 80.24333285718741 -10.884903161890804, 80.48644770195651 -10.59932663159847 M80.48644770195651 -10.59932663159847 C80.71515013731474 -10.29288620343892, 80.94385257267297 -9.98644577527937, 81.13824082814824 -9.725983222076888 M80.48644770195651 -10.59932663159847 C80.73816756543562 -10.262044946687782, 80.98988742891473 -9.924763261777093, 81.13824082814824 -9.725983222076888 M81.13824082814824 -9.725983222076888 C81.36505748291795 -9.377531931550788, 81.59187413768764 -9.02908064102469, 81.73273947109088 -8.812673661278927 M81.13824082814824 -9.725983222076888 C81.32128275192345 -9.44478167351949, 81.50432467569864 -9.163580124962092, 81.73273947109088 -8.812673661278927 M81.73273947109088 -8.812673661278927 C81.90258097650003 -8.511102870107639, 82.07242248190919 -8.20953207893635, 82.267500708341 -7.863150934094199 M81.73273947109088 -8.812673661278927 C81.84782080672088 -8.608335096618998, 81.96290214235088 -8.403996531959066, 82.267500708341 -7.863150934094199 M82.267500708341 -7.863150934094199 C82.39049070137528 -7.607759581994229, 82.51348069440957 -7.35236822989426, 82.74032709126881 -6.881316833080699 M82.267500708341 -7.863150934094199 C82.41133699171966 -7.564471814054962, 82.55517327509833 -7.265792694015725, 82.74032709126881 -6.881316833080699 M82.74032709126881 -6.881316833080699 C82.86231456820113 -6.580005406590455, 82.98430204513345 -6.278693980100212, 83.14927567484592 -5.871205925162238 M82.74032709126881 -6.881316833080699 C82.83274108941661 -6.653052470952521, 82.92515508756442 -6.424788108824343, 83.14927567484592 -5.871205925162238 M83.14927567484592 -5.871205925162238 C83.27269681978723 -5.499481101087974, 83.39611796472855 -5.127756277013709, 83.49266600162323 -4.836968972727556 M83.14927567484592 -5.871205925162238 C83.2669295561933 -5.516851180144214, 83.3845834375407 -5.16249643512619, 83.49266600162323 -4.836968972727556 M83.49266600162323 -4.836968972727556 C83.5833186982824 -4.491270951238917, 83.67397139494155 -4.145572929750278, 83.769087007091 -3.7828558772573464 M83.49266600162323 -4.836968972727556 C83.58096826885013 -4.500234157346709, 83.66927053607702 -4.163499341965862, 83.769087007091 -3.7828558772573464 M83.769087007091 -3.7828558772573464 C83.83506937526867 -3.4440503620434444, 83.90105174344635 -3.1052448468295424, 83.97740281804565 -2.713198215567453 M83.769087007091 -3.7828558772573464 C83.82463509746738 -3.497628173267715, 83.88018318784376 -3.2124004692780836, 83.97740281804565 -2.713198215567453 M83.97740281804565 -2.713198215567453 C84.0145871893789 -2.424803574391341, 84.05177156071217 -2.1364089332152285, 84.11675742013637 -1.632391440430593 M83.97740281804565 -2.713198215567453 C84.01892297538157 -2.3911760743525172, 84.06044313271748 -2.0691539331375814, 84.11675742013637 -1.632391440430593 M84.11675742013637 -1.632391440430593 C84.13227322288431 -1.390720288500837, 84.14778902563225 -1.1490491365710807, 84.1865781754117 -0.5448768187181379 M84.11675742013637 -1.632391440430593 C84.14303868847756 -1.223039472158634, 84.16931995681874 -0.8136875038866749, 84.1865781754117 -0.5448768187181379 M84.1865781754117 -0.5448768187181379 C84.1865781754117 -0.19043630307797638, 84.1865781754117 0.16400421256218511, 84.1865781754117 0.5448768187181336 M84.1865781754117 -0.5448768187181379 C84.1865781754117 -0.13226959082991535, 84.1865781754117 0.28033763705830717, 84.1865781754117 0.5448768187181336 M84.1865781754117 0.5448768187181336 C84.16228826476467 0.9232117835084732, 84.13799835411766 1.3015467482988128, 84.11675742013637 1.6323914404305815 M84.1865781754117 0.5448768187181336 C84.17110855440367 0.7858286527713679, 84.15563893339565 1.0267804868246022, 84.11675742013637 1.6323914404305815 M84.11675742013637 1.6323914404305815 C84.08109546420307 1.9089785283994851, 84.04543350826978 2.1855656163683888, 83.97740281804565 2.7131982155674415 M84.11675742013637 1.6323914404305815 C84.0854815095891 1.874961226508046, 84.05420559904184 2.1175310125855105, 83.97740281804565 2.7131982155674415 M83.97740281804565 2.7131982155674415 C83.91925992230225 3.011749696704443, 83.86111702655884 3.3103011778414446, 83.769087007091 3.782855877257343 M83.97740281804565 2.7131982155674415 C83.9072428537444 3.0734548039406024, 83.83708288944317 3.4337113923137634, 83.769087007091 3.782855877257343 M83.769087007091 3.782855877257343 C83.69236815665096 4.075418104145368, 83.6156493062109 4.367980331033392, 83.49266600162323 4.836968972727545 M83.769087007091 3.782855877257343 C83.68136159588934 4.117390890603007, 83.59363618468768 4.451925903948671, 83.49266600162323 4.836968972727545 M83.49266600162323 4.836968972727545 C83.36576660667819 5.219169731629176, 83.23886721173315 5.601370490530806, 83.14927567484592 5.871205925162227 M83.49266600162323 4.836968972727545 C83.36559613437171 5.219683167055224, 83.23852626712018 5.602397361382902, 83.14927567484592 5.871205925162227 M83.14927567484592 5.871205925162227 C83.05156288883265 6.112558395763213, 82.95385010281937 6.353910866364199, 82.74032709126881 6.881316833080694 M83.14927567484592 5.871205925162227 C83.00270207761753 6.233245544124104, 82.85612848038912 6.595285163085981, 82.74032709126881 6.881316833080694 M82.74032709126881 6.881316833080694 C82.62955270677526 7.111342212673702, 82.51877832228169 7.341367592266711, 82.267500708341 7.863150934094196 M82.74032709126881 6.881316833080694 C82.58063568338734 7.212919458395332, 82.42094427550586 7.54452208370997, 82.267500708341 7.863150934094196 M82.267500708341 7.863150934094196 C82.11978811334313 8.125429604035089, 81.97207551834526 8.387708273975981, 81.73273947109088 8.812673661278923 M82.267500708341 7.863150934094196 C82.09736453708017 8.165244934323315, 81.92722836581932 8.467338934552435, 81.73273947109088 8.812673661278923 M81.73273947109088 8.812673661278923 C81.5715328755479 9.060330282065014, 81.41032628000494 9.307986902851106, 81.13824082814826 9.725983222076879 M81.73273947109088 8.812673661278923 C81.56840341744686 9.065137970085395, 81.40406736380282 9.317602278891867, 81.13824082814826 9.725983222076879 M81.13824082814826 9.725983222076879 C80.95616889523504 9.969943025086264, 80.77409696232183 10.213902828095648, 80.48644770195651 10.599326631598467 M81.13824082814826 9.725983222076879 C80.9191859692444 10.019496776699857, 80.70013111034055 10.313010331322834, 80.48644770195651 10.599326631598467 M80.48644770195651 10.599326631598467 C80.22040732147408 10.911832800639615, 79.95436694099166 11.224338969680764, 79.78003845028037 11.42911513444238 M80.48644770195651 10.599326631598467 C80.23362554514078 10.896305922982474, 79.98080338832507 11.193285214366481, 79.78003845028037 11.42911513444238 M79.78003845028037 11.42911513444238 C79.5969022246399 11.61821832317992, 79.41376599899942 11.80732151191746, 79.02191586025927 12.211938951661365 M79.78003845028037 11.42911513444238 C79.55320876437324 11.663335408205045, 79.32637907846612 11.89755568196771, 79.02191586025927 12.211938951661365 M79.02191586025927 12.211938951661365 C78.7955458280162 12.417522225521683, 78.56917579577312 12.623105499382, 78.21519522023242 12.944581292275275 M79.02191586025927 12.211938951661365 C78.79283176346281 12.419987067138857, 78.56374766666634 12.62803518261635, 78.21519522023242 12.944581292275275 M78.21519522023242 12.944581292275275 C77.89692542157758 13.198392987187466, 77.57865562292275 13.452204682099657, 77.36319151835067 13.62403157175526 M78.21519522023242 12.944581292275275 C77.91986028095329 13.18010304715758, 77.62452534167416 13.415624802039883, 77.36319151835067 13.62403157175526 M77.36319151835067 13.62403157175526 C77.05382845162575 13.83982985499126, 76.7444653849008 14.05562813822726, 76.46940582057934 14.247497783161286 M77.36319151835067 13.62403157175526 C77.1820361885642 13.750397687726478, 77.0008808587777 13.876763803697695, 76.46940582057934 14.247497783161286 M76.46940582057934 14.247497783161286 C76.25652386944506 14.376548072972096, 76.04364191831077 14.505598362782905, 75.53751088406695 14.81241797009762 M76.46940582057934 14.247497783161286 C76.198614452961 14.411653101558244, 75.92782308534264 14.5758084199552, 75.53751088406695 14.81241797009762 M75.53751088406695 14.81241797009762 C75.15290460999931 15.013066816926631, 74.76829833593166 15.213715663755641, 74.57133606499849 15.316470754341124 M75.53751088406695 14.81241797009762 C75.31669113378398 14.927619492378442, 75.09587138350102 15.042821014659264, 74.57133606499849 15.316470754341124 M74.57133606499849 15.316470754341124 C74.35384167243916 15.412749070185216, 74.13634727987981 15.50902738602931, 73.57485158294936 15.757584874882367 M74.57133606499849 15.316470754341124 C74.31313693068851 15.430767851894963, 74.05493779637854 15.5450649494488, 73.57485158294936 15.757584874882367 M73.57485158294936 15.757584874882367 C73.3520604669736 15.83957406501995, 73.12926935099783 15.921563255157533, 72.55215220640156 16.133947699181363 M73.57485158294936 15.757584874882367 C73.31316741229398 15.853887068665507, 73.05148324163858 15.950189262448648, 72.55215220640156 16.133947699181363 M72.55215220640156 16.133947699181363 C72.30023454372773 16.20871553912016, 72.04831688105389 16.28348337905896, 71.50744042646164 16.444012671663497 M72.55215220640156 16.133947699181363 C72.1391603432064 16.25652151633916, 71.72616848001124 16.37909533349696, 71.50744042646164 16.444012671663497 M71.50744042646164 16.444012671663497 C71.15795169798896 16.523781193310295, 70.80846296951628 16.603549714957097, 70.44500918792333 16.68650566884811 M71.50744042646164 16.444012671663497 C71.08978730407111 16.539339271407805, 70.67213418168058 16.634665871152116, 70.44500918792333 16.68650566884811 M70.44500918792333 16.68650566884811 C70.18203473163734 16.72902133954306, 69.91906027535136 16.771537010238013, 69.36922424863661 16.86043023499518 M70.44500918792333 16.68650566884811 C70.07261475503914 16.746711512794867, 69.70022032215495 16.80691735674162, 69.36922424863661 16.86043023499518 M69.36922424863661 16.86043023499518 C69.11521100830313 16.884934586794536, 68.86119776796966 16.90943893859389, 68.28450623967211 16.965071676755716 M69.36922424863661 16.86043023499518 C68.9623723988471 16.899678743633437, 68.55552054905756 16.938927252271696, 68.28450623967211 16.965071676755716 M68.28450623967211 16.965071676755716 C67.90390639965605 16.977276772832383, 67.52330655963999 16.989481868909053, 67.1953125 17 M68.28450623967211 16.965071676755716 C67.85845614718777 16.978734273965493, 67.43240605470343 16.99239687117527, 67.1953125 17 M67.1953125 17 C67.1953125 17, 67.1953125 17, 67.1953125 17 M67.1953125 17 C67.1953125 17, 67.1953125 17, 67.1953125 17 M67.1953125 17 C18.8078327662866 17, -29.579646967426797 17, -67.1953125 17 M67.1953125 17 C26.702725644843547 17, -13.789861210312907 17, -67.1953125 17 M-67.1953125 17 C-67.62104500972532 16.986347587051167, -68.04677751945064 16.972695174102338, -68.28450623967211 16.965071676755716 M-67.1953125 17 C-67.42670092439542 16.992579823599883, -67.65808934879084 16.98515964719977, -68.28450623967211 16.965071676755716 M-68.28450623967211 16.965071676755716 C-68.59538219525783 16.9350818472034, -68.90625815084354 16.905092017651082, -69.3692242486366 16.86043023499518 M-68.28450623967211 16.965071676755716 C-68.58793912033275 16.935799871689817, -68.89137200099337 16.906528066623913, -69.3692242486366 16.86043023499518 M-69.3692242486366 16.86043023499518 C-69.60225585940987 16.822755491352492, -69.83528747018313 16.785080747709802, -70.44500918792333 16.68650566884811 M-69.3692242486366 16.86043023499518 C-69.67478452723323 16.81102961880703, -69.98034480582986 16.76162900261888, -70.44500918792333 16.68650566884811 M-70.44500918792333 16.68650566884811 C-70.80496947592432 16.604347082072284, -71.16492976392531 16.522188495296458, -71.50744042646161 16.4440126716635 M-70.44500918792333 16.68650566884811 C-70.74024974718463 16.619118937821415, -71.03549030644595 16.551732206794725, -71.50744042646161 16.4440126716635 M-71.50744042646161 16.4440126716635 C-71.76956483882103 16.366215521994345, -72.03168925118044 16.288418372325193, -72.55215220640154 16.13394769918137 M-71.50744042646161 16.4440126716635 C-71.79274175557872 16.35933673475878, -72.07804308469582 16.27466079785406, -72.55215220640154 16.13394769918137 M-72.55215220640154 16.13394769918137 C-72.85414280745294 16.022812366423942, -73.15613340850433 15.911677033666514, -73.57485158294936 15.757584874882369 M-72.55215220640154 16.13394769918137 C-72.80077184415069 16.042453374274945, -73.04939148189985 15.95095904936852, -73.57485158294936 15.757584874882369 M-73.57485158294936 15.757584874882369 C-73.81334696153783 15.652010045495297, -74.0518423401263 15.546435216108225, -74.57133606499849 15.316470754341127 M-73.57485158294936 15.757584874882369 C-73.89115912220312 15.617564910184505, -74.20746666145689 15.477544945486642, -74.57133606499849 15.316470754341127 M-74.57133606499849 15.316470754341127 C-74.85276425219296 15.169649849345129, -75.13419243938743 15.02282894434913, -75.53751088406693 14.812417970097624 M-74.57133606499849 15.316470754341127 C-74.8893294876292 15.150573789439191, -75.20732291025992 14.984676824537255, -75.53751088406693 14.812417970097624 M-75.53751088406693 14.812417970097624 C-75.90667834135631 14.588626488020017, -76.27584579864569 14.364835005942412, -76.46940582057931 14.247497783161299 M-75.53751088406693 14.812417970097624 C-75.81604910332469 14.643566464711308, -76.09458732258244 14.474714959324992, -76.46940582057931 14.247497783161299 M-76.46940582057931 14.247497783161299 C-76.79545548325676 14.020059652939928, -77.12150514593421 13.792621522718557, -77.36319151835067 13.624031571755264 M-76.46940582057931 14.247497783161299 C-76.72560824896281 14.068782059945336, -76.98181067734633 13.890066336729376, -77.36319151835067 13.624031571755264 M-77.36319151835067 13.624031571755264 C-77.66795619593653 13.38098985150922, -77.97272087352238 13.137948131263178, -78.2151952202324 12.94458129227529 M-77.36319151835067 13.624031571755264 C-77.62908314960103 13.411990071506578, -77.89497478085137 13.199948571257892, -78.2151952202324 12.94458129227529 M-78.2151952202324 12.94458129227529 C-78.42767051386426 12.75161685238704, -78.64014580749613 12.558652412498787, -79.02191586025926 12.211938951661377 M-78.2151952202324 12.94458129227529 C-78.45664626464114 12.72530184218783, -78.69809730904987 12.506022392100371, -79.02191586025926 12.211938951661377 M-79.02191586025926 12.211938951661377 C-79.30389957307337 11.920767616887428, -79.58588328588748 11.629596282113479, -79.78003845028036 11.429115134442386 M-79.02191586025926 12.211938951661377 C-79.2317797349309 11.995237270918365, -79.44164360960254 11.778535590175352, -79.78003845028036 11.429115134442386 M-79.78003845028036 11.429115134442386 C-79.93261231769802 11.249893188074607, -80.08518618511567 11.070671241706826, -80.48644770195651 10.599326631598473 M-79.78003845028036 11.429115134442386 C-79.98772042430295 11.185160070316353, -80.19540239832554 10.941205006190321, -80.48644770195651 10.599326631598473 M-80.48644770195651 10.599326631598473 C-80.64609089960366 10.385419290545778, -80.80573409725082 10.171511949493084, -81.13824082814824 9.72598322207689 M-80.48644770195651 10.599326631598473 C-80.66403939324442 10.361369944208564, -80.84163108453235 10.123413256818655, -81.13824082814824 9.72598322207689 M-81.13824082814824 9.72598322207689 C-81.3103399797827 9.461592710073432, -81.48243913141715 9.197202198069975, -81.73273947109088 8.812673661278936 M-81.13824082814824 9.72598322207689 C-81.31223493535448 9.458681549448354, -81.48622904256072 9.191379876819818, -81.73273947109088 8.812673661278936 M-81.73273947109088 8.812673661278936 C-81.90272203083093 8.510852413859832, -82.07270459057098 8.209031166440727, -82.267500708341 7.863150934094201 M-81.73273947109088 8.812673661278936 C-81.84178813936703 8.619046708379576, -81.95083680764319 8.425419755480219, -82.267500708341 7.863150934094201 M-82.267500708341 7.863150934094201 C-82.36909782126654 7.6521823552743555, -82.47069493419207 7.44121377645451, -82.74032709126881 6.881316833080701 M-82.267500708341 7.863150934094201 C-82.4214030956586 7.5435693338456336, -82.5753054829762 7.223987733597065, -82.74032709126881 6.881316833080701 M-82.74032709126881 6.881316833080701 C-82.89488808849791 6.499548181691222, -83.04944908572702 6.117779530301743, -83.14927567484592 5.87120592516224 M-82.74032709126881 6.881316833080701 C-82.85307772992077 6.6028205757250635, -82.96582836857273 6.324324318369426, -83.14927567484592 5.87120592516224 M-83.14927567484592 5.87120592516224 C-83.27281624557892 5.499121409631327, -83.39635681631192 5.127036894100414, -83.49266600162323 4.8369689727275516 M-83.14927567484592 5.87120592516224 C-83.24398348985143 5.585961076006757, -83.33869130485694 5.300716226851273, -83.49266600162323 4.8369689727275516 M-83.49266600162323 4.8369689727275516 C-83.55048627970784 4.6164751929238985, -83.60830655779245 4.395981413120246, -83.769087007091 3.782855877257349 M-83.49266600162323 4.8369689727275516 C-83.5753044185676 4.52183287320221, -83.65794283551197 4.206696773676869, -83.769087007091 3.782855877257349 M-83.769087007091 3.782855877257349 C-83.82913482447879 3.474523026081794, -83.88918264186655 3.1661901749062387, -83.97740281804565 2.713198215567455 M-83.769087007091 3.782855877257349 C-83.85190771549318 3.3575890437750244, -83.93472842389538 2.9323222102927, -83.97740281804565 2.713198215567455 M-83.97740281804565 2.713198215567455 C-84.01732526520546 2.4035675989748375, -84.05724771236527 2.0939369823822194, -84.11675742013637 1.6323914404306026 M-83.97740281804565 2.713198215567455 C-84.01281785785355 2.438526160308023, -84.04823289766145 2.16385410504859, -84.11675742013637 1.6323914404306026 M-84.11675742013637 1.6323914404306026 C-84.1379458984636 1.3023637874522127, -84.15913437679082 0.9723361344738227, -84.1865781754117 0.54487681871814 M-84.11675742013637 1.6323914404306026 C-84.13409213072825 1.3623893306355113, -84.15142684132013 1.0923872208404197, -84.1865781754117 0.54487681871814 M-84.1865781754117 0.54487681871814 C-84.1865781754117 0.27229650137904826, -84.1865781754117 -0.0002838159600434542, -84.1865781754117 -0.5448768187181317 M-84.1865781754117 0.54487681871814 C-84.1865781754117 0.2333056171004264, -84.1865781754117 -0.07826558451728716, -84.1865781754117 -0.5448768187181317 M-84.1865781754117 -0.5448768187181317 C-84.16183482757623 -0.9302744337263218, -84.13709147974077 -1.315672048734512, -84.11675742013637 -1.6323914404305793 M-84.1865781754117 -0.5448768187181317 C-84.1597463967017 -0.9628034303481066, -84.13291461799172 -1.3807300419780812, -84.11675742013637 -1.6323914404305793 M-84.11675742013637 -1.6323914404305793 C-84.07795527408295 -1.933333222870465, -84.03915312802954 -2.2342750053103506, -83.97740281804565 -2.713198215567447 M-84.11675742013637 -1.6323914404305793 C-84.08752878133102 -1.8590829911572966, -84.05830014252567 -2.085774541884014, -83.97740281804565 -2.713198215567447 M-83.97740281804565 -2.713198215567447 C-83.90065207146903 -3.1072970779623823, -83.8239013248924 -3.501395940357318, -83.769087007091 -3.782855877257341 M-83.97740281804565 -2.713198215567447 C-83.89812587852145 -3.1202685448370646, -83.81884893899726 -3.527338874106683, -83.769087007091 -3.782855877257341 M-83.769087007091 -3.782855877257341 C-83.6753166881663 -4.140442743630491, -83.58154636924162 -4.498029610003641, -83.49266600162323 -4.836968972727544 M-83.769087007091 -3.782855877257341 C-83.67929858753139 -4.125258035585313, -83.5895101679718 -4.467660193913284, -83.49266600162323 -4.836968972727544 M-83.49266600162323 -4.836968972727544 C-83.35591141161234 -5.24885200895545, -83.21915682160143 -5.6607350451833565, -83.14927567484594 -5.871205925162218 M-83.49266600162323 -4.836968972727544 C-83.35984556767352 -5.237002957721823, -83.2270251337238 -5.637036942716103, -83.14927567484594 -5.871205925162218 M-83.14927567484594 -5.871205925162218 C-83.05079297055123 -6.114460108803697, -82.95231026625652 -6.357714292445176, -82.74032709126881 -6.881316833080692 M-83.14927567484594 -5.871205925162218 C-83.02301744370324 -6.183066197121533, -82.89675921256053 -6.494926469080847, -82.74032709126881 -6.881316833080692 M-82.74032709126881 -6.881316833080692 C-82.56415398888153 -7.247144049688407, -82.38798088649425 -7.612971266296122, -82.267500708341 -7.863150934094194 M-82.74032709126881 -6.881316833080692 C-82.56857621335408 -7.237961205950731, -82.39682533543933 -7.594605578820769, -82.267500708341 -7.863150934094194 M-82.267500708341 -7.863150934094194 C-82.12793136591509 -8.110970434499851, -81.98836202348917 -8.35878993490551, -81.73273947109088 -8.812673661278929 M-82.267500708341 -7.863150934094194 C-82.13822045323215 -8.092701118085326, -82.00894019812331 -8.322251302076458, -81.73273947109088 -8.812673661278929 M-81.73273947109088 -8.812673661278929 C-81.49754807158074 -9.173990808660196, -81.2623566720706 -9.535307956041464, -81.13824082814826 -9.725983222076884 M-81.73273947109088 -8.812673661278929 C-81.57186159469401 -9.05982528118315, -81.41098371829715 -9.30697690108737, -81.13824082814826 -9.725983222076884 M-81.13824082814826 -9.725983222076884 C-80.91286350880456 -10.027968297701241, -80.68748618946088 -10.329953373325598, -80.48644770195651 -10.599326631598467 M-81.13824082814826 -9.725983222076884 C-80.99335365505337 -9.92011883453102, -80.84846648195848 -10.114254446985157, -80.48644770195651 -10.599326631598467 M-80.48644770195651 -10.599326631598467 C-80.23032390448527 -10.90018421796512, -79.97420010701403 -11.201041804331773, -79.78003845028037 -11.42911513444238 M-80.48644770195651 -10.599326631598467 C-80.24896043426885 -10.87829268963274, -80.0114731665812 -11.157258747667015, -79.78003845028037 -11.42911513444238 M-79.78003845028037 -11.42911513444238 C-79.5042469380443 -11.713892513730366, -79.22845542580825 -11.998669893018354, -79.02191586025927 -12.21193895166136 M-79.78003845028037 -11.42911513444238 C-79.5645226825926 -11.651652858753593, -79.34900691490483 -11.874190583064806, -79.02191586025927 -12.21193895166136 M-79.02191586025927 -12.21193895166136 C-78.77591348530204 -12.435351799731347, -78.52991111034483 -12.658764647801334, -78.21519522023242 -12.944581292275274 M-79.02191586025927 -12.21193895166136 C-78.70739849825985 -12.497575298155848, -78.39288113626044 -12.783211644650336, -78.21519522023242 -12.944581292275274 M-78.21519522023242 -12.944581292275274 C-77.90270464414937 -13.193784210978038, -77.59021406806632 -13.442987129680802, -77.36319151835067 -13.624031571755259 M-78.21519522023242 -12.944581292275274 C-77.91823521351697 -13.181398995193186, -77.62127520680151 -13.418216698111099, -77.36319151835067 -13.624031571755259 M-77.36319151835067 -13.624031571755259 C-77.17148422997968 -13.757758277248106, -76.97977694160869 -13.891484982740954, -76.46940582057934 -14.247497783161284 M-77.36319151835067 -13.624031571755259 C-77.06795306443748 -13.829977136538428, -76.77271461052428 -14.035922701321597, -76.46940582057934 -14.247497783161284 M-76.46940582057934 -14.247497783161284 C-76.26291780972272 -14.372672028800812, -76.0564297988661 -14.497846274440338, -75.53751088406695 -14.812417970097618 M-76.46940582057934 -14.247497783161284 C-76.13366465255028 -14.451026052254607, -75.79792348452122 -14.65455432134793, -75.53751088406695 -14.812417970097618 M-75.53751088406695 -14.812417970097618 C-75.33466831628773 -14.918240807781167, -75.13182574850852 -15.024063645464716, -74.57133606499849 -15.316470754341124 M-75.53751088406695 -14.812417970097618 C-75.29876659330058 -14.93697071366741, -75.06002230253424 -15.061523457237202, -74.57133606499849 -15.316470754341124 M-74.57133606499849 -15.316470754341124 C-74.3244208352904 -15.425772802052844, -74.0775056055823 -15.535074849764566, -73.57485158294936 -15.757584874882365 M-74.57133606499849 -15.316470754341124 C-74.33995720656202 -15.41889531136098, -74.10857834812553 -15.521319868380836, -73.57485158294936 -15.757584874882365 M-73.57485158294936 -15.757584874882365 C-73.18618997826285 -15.900615938155493, -72.79752837357633 -16.04364700142862, -72.55215220640156 -16.133947699181363 M-73.57485158294936 -15.757584874882365 C-73.30795194364103 -15.855806409341055, -73.04105230433268 -15.954027943799744, -72.55215220640156 -16.133947699181363 M-72.55215220640156 -16.133947699181363 C-72.25890259973231 -16.220982643142197, -71.96565299306306 -16.308017587103034, -71.50744042646164 -16.444012671663494 M-72.55215220640156 -16.133947699181363 C-72.28938347039336 -16.21193608072735, -72.02661473438516 -16.289924462273344, -71.50744042646164 -16.444012671663494 M-71.50744042646164 -16.444012671663494 C-71.16501378640858 -16.52216931771295, -70.82258714635552 -16.60032596376241, -70.44500918792333 -16.68650566884811 M-71.50744042646164 -16.444012671663494 C-71.25642937427716 -16.501304306324407, -71.00541832209267 -16.558595940985324, -70.44500918792333 -16.68650566884811 M-70.44500918792333 -16.68650566884811 C-70.11494549151602 -16.739867807601048, -69.78488179510873 -16.793229946353986, -69.36922424863661 -16.86043023499518 M-70.44500918792333 -16.68650566884811 C-70.22549964559599 -16.72199426932967, -70.00599010326864 -16.75748286981123, -69.36922424863661 -16.86043023499518 M-69.36922424863661 -16.86043023499518 C-69.00223828441162 -16.89583292959877, -68.63525232018664 -16.93123562420236, -68.28450623967213 -16.965071676755716 M-69.36922424863661 -16.86043023499518 C-69.01860388528313 -16.89425415976521, -68.66798352192964 -16.92807808453524, -68.28450623967213 -16.965071676755716 M-68.28450623967213 -16.965071676755716 C-67.8814766422767 -16.977996051494667, -67.47844704488126 -16.990920426233618, -67.1953125 -17 M-68.28450623967213 -16.965071676755716 C-68.02769531602551 -16.973307103224926, -67.77088439237889 -16.981542529694135, -67.1953125 -17 M-67.1953125 -17 C-67.1953125 -17, -67.1953125 -17, -67.1953125 -17 M-67.1953125 -17 C-67.1953125 -17, -67.1953125 -17, -67.1953125 -17" stroke="#9370DB" stroke-width="1.3" fill="none" stroke-dasharray="0 0" style=""></path></g><g class="label" style="" transform="translate(0, -9.5)"><rect></rect><g><rect class="background" style="stroke: none"></rect><text y="-10.1" style=""><tspan class="text-outer-tspan row" x="0" y="-0.1em" dy="1.1em"><tspan font-style="normal" class="text-inner-tspan" font-weight="normal">Incoming</tspan><tspan font-style="normal" class="text-inner-tspan" font-weight="normal"> CSP</tspan><tspan font-style="normal" class="text-inner-tspan" font-weight="normal"> report</tspan></tspan></text></g></g></g><g class="node default" id="gaf1af025-5df3-45aa-beaf-49cf6fa965d4-light-flowchart-Q1-1" data-look="classic" transform="translate(237.6953125, 195.8234405517578)"><polygon points="103.82343673706055,0 207.6468734741211,-103.82343673706055 103.82343673706055,-207.6468734741211 0,-103.82343673706055" class="label-container" transform="translate(-103.32343673706055, 103.82343673706055)"></polygon><g class="label" style="" transform="translate(0, -18.299999237060547)"><rect></rect><g><rect class="background" style="stroke: none"></rect><text y="-10.1" style=""><tspan class="text-outer-tspan row" x="0" y="-0.1em" dy="1.1em"><tspan font-style="normal" class="text-inner-tspan" font-weight="normal">blocked-uri</tspan><tspan font-style="normal" class="text-inner-tspan" font-weight="normal"> or</tspan></tspan><tspan class="text-outer-tspan row" x="0" y="1em" dy="1.1em"><tspan font-style="normal" class="text-inner-tspan" font-weight="normal">source-file</tspan><tspan font-style="normal" class="text-inner-tspan" font-weight="normal"> scheme?</tspan></tspan></text></g></g></g><g class="node default" id="gaf1af025-5df3-45aa-beaf-49cf6fa965d4-light-flowchart-DROP1-3" data-look="classic" transform="translate(100.0703125, 523.9421997070312)"><rect class="basic label-container" style="" x="-91.296875" y="-33.29999923706055" width="182.59375" height="66.5999984741211"></rect><g class="label" style="" transform="translate(0, -18.299999237060547)"><rect></rect><g><rect class="background" style="stroke: none"></rect><text y="-10.1" style=""><tspan class="text-outer-tspan row" x="0" y="-0.1em" dy="1.1em"><tspan font-style="normal" class="text-inner-tspan" font-weight="normal">Drop</tspan></tspan><tspan class="text-outer-tspan row" x="0" y="1em" dy="1.1em"><tspan font-style="normal" class="text-inner-tspan" font-weight="normal">(extension</tspan><tspan font-style="normal" class="text-inner-tspan" font-weight="normal"> noise)</tspan></tspan></text></g></g></g><g class="node default" id="gaf1af025-5df3-45aa-beaf-49cf6fa965d4-light-flowchart-DROP2-5" data-look="classic" transform="translate(342.8203125, 523.9421997070312)"><rect class="basic label-container" style="" x="-101.453125" y="-33.29999923706055" width="202.90625" height="66.5999984741211"></rect><g class="label" style="" transform="translate(0, -18.299999237060547)"><rect></rect><g><rect class="background" style="stroke: none"></rect><text y="-10.1" style=""><tspan class="text-outer-tspan row" x="0" y="-0.1em" dy="1.1em"><tspan font-style="normal" class="text-inner-tspan" font-weight="normal">Drop</tspan></tspan><tspan class="text-outer-tspan row" x="0" y="1em" dy="1.1em"><tspan font-style="normal" class="text-inner-tspan" font-weight="normal">(speculative</tspan><tspan font-style="normal" class="text-inner-tspan" font-weight="normal"> parser)</tspan></tspan></text></g></g></g><g class="node default" id="gaf1af025-5df3-45aa-beaf-49cf6fa965d4-light-flowchart-Q2-7" data-look="classic" transform="translate(592.7687530517578, 523.9421997070312)"><polygon points="98.49531173706055,0 196.9906234741211,-98.49531173706055 98.49531173706055,-196.9906234741211 0,-98.49531173706055" class="label-container" transform="translate(-97.99531173706055, 98.49531173706055)"></polygon><g class="label" style="" transform="translate(0, -18.299999237060547)"><rect></rect><g><rect class="background" style="stroke: none"></rect><text y="-10.1" style=""><tspan class="text-outer-tspan row" x="0" y="-0.1em" dy="1.1em"><tspan font-style="normal" class="text-inner-tspan" font-weight="normal">blocked-host</tspan></tspan><tspan class="text-outer-tspan row" x="0" y="1em" dy="1.1em"><tspan font-style="normal" class="text-inner-tspan" font-weight="normal">on</tspan><tspan font-style="normal" class="text-inner-tspan" font-weight="normal"> noise</tspan><tspan font-style="normal" class="text-inner-tspan" font-weight="normal"> allowlist?</tspan></tspan></text></g></g></g><g class="node default" id="gaf1af025-5df3-45aa-beaf-49cf6fa965d4-light-flowchart-DROP3-9" data-look="classic" transform="translate(455.71484756469727, 826.3406372070312)"><rect class="basic label-container" style="" x="-110.8046875" y="-33.29999923706055" width="221.609375" height="66.5999984741211"></rect><g class="label" style="" transform="translate(0, -18.299999237060547)"><rect></rect><g><rect class="background" style="stroke: none"></rect><text y="-10.1" style=""><tspan class="text-outer-tspan row" x="0" y="-0.1em" dy="1.1em"><tspan font-style="normal" class="text-inner-tspan" font-weight="normal">Drop</tspan></tspan><tspan class="text-outer-tspan row" x="0" y="1em" dy="1.1em"><tspan font-style="normal" class="text-inner-tspan" font-weight="normal">(AV</tspan><tspan font-style="normal" class="text-inner-tspan" font-weight="normal"> /</tspan><tspan font-style="normal" class="text-inner-tspan" font-weight="normal"> corporate</tspan><tspan font-style="normal" class="text-inner-tspan" font-weight="normal"> proxy)</tspan></tspan></text></g></g></g><g class="node default" id="gaf1af025-5df3-45aa-beaf-49cf6fa965d4-light-flowchart-Q3-11" data-look="classic" transform="translate(729.8226585388184, 826.3406372070312)"><polygon points="113.3031234741211,0 226.6062469482422,-113.3031234741211 113.3031234741211,-226.6062469482422 0,-113.3031234741211" class="label-container" transform="translate(-112.8031234741211, 113.3031234741211)"></polygon><g class="label" style="" transform="translate(0, -27.099998474121094)"><rect></rect><g><rect class="background" style="stroke: none"></rect><text y="-10.1" style=""><tspan class="text-outer-tspan row" x="0" y="-0.1em" dy="1.1em"><tspan font-style="normal" class="text-inner-tspan" font-weight="normal">blocked-uri</tspan><tspan font-style="normal" class="text-inner-tspan" font-weight="normal"> 'inline'</tspan></tspan><tspan class="text-outer-tspan row" x="0" y="1em" dy="1.1em"><tspan font-style="normal" class="text-inner-tspan" font-weight="normal">or</tspan><tspan font-style="normal" class="text-inner-tspan" font-weight="normal"> 'eval'</tspan></tspan><tspan class="text-outer-tspan row" x="0" y="2.1em" dy="1.1em"><tspan font-style="normal" class="text-inner-tspan" font-weight="normal">without</tspan><tspan font-style="normal" class="text-inner-tspan" font-weight="normal"> source-file?</tspan></tspan></text></g></g></g><g class="node default" id="gaf1af025-5df3-45aa-beaf-49cf6fa965d4-light-flowchart-DROP4-13" data-look="classic" transform="translate(594.6921882629395, 1107.7484512329102)"><rect class="basic label-container" style="" x="-125.15625" y="-33.29999923706055" width="250.3125" height="66.5999984741211"></rect><g class="label" style="" transform="translate(0, -18.299999237060547)"><rect></rect><g><rect class="background" style="stroke: none"></rect><text y="-10.1" style=""><tspan class="text-outer-tspan row" x="0" y="-0.1em" dy="1.1em"><tspan font-style="normal" class="text-inner-tspan" font-weight="normal">Drop</tspan><tspan font-style="normal" class="text-inner-tspan" font-weight="normal"> or</tspan><tspan font-style="normal" class="text-inner-tspan" font-weight="normal"> quarantine</tspan></tspan><tspan class="text-outer-tspan row" x="0" y="1em" dy="1.1em"><tspan font-style="normal" class="text-inner-tspan" font-weight="normal">(bookmarklet</tspan><tspan font-style="normal" class="text-inner-tspan" font-weight="normal"> /</tspan><tspan font-style="normal" class="text-inner-tspan" font-weight="normal"> userscript)</tspan></tspan></text></g></g></g><g class="node default" id="gaf1af025-5df3-45aa-beaf-49cf6fa965d4-light-flowchart-Q4-15" data-look="classic" transform="translate(864.9531288146973, 1107.7484512329102)"><polygon points="95.10468673706055,0 190.2093734741211,-95.10468673706055 95.10468673706055,-190.2093734741211 0,-95.10468673706055" class="label-container" transform="translate(-94.60468673706055, 95.10468673706055)"></polygon><g class="label" style="" transform="translate(0, -18.299999237060547)"><rect></rect><g><rect class="background" style="stroke: none"></rect><text y="-10.1" style=""><tspan class="text-outer-tspan row" x="0" y="-0.1em" dy="1.1em"><tspan font-style="normal" class="text-inner-tspan" font-weight="normal">Correlates</tspan><tspan font-style="normal" class="text-inner-tspan" font-weight="normal"> with</tspan><tspan font-style="normal" class="text-inner-tspan" font-weight="normal"> a</tspan></tspan><tspan class="text-outer-tspan row" x="0" y="1em" dy="1.1em"><tspan font-style="normal" class="text-inner-tspan" font-weight="normal">recent</tspan><tspan font-style="normal" class="text-inner-tspan" font-weight="normal"> deploy?</tspan></tspan></text></g></g></g><g class="node default" id="gaf1af025-5df3-45aa-beaf-49cf6fa965d4-light-flowchart-ALERT1-17" data-look="classic" transform="translate(536.2343788146973, 1326.7531394958496)"><rect class="basic label-container" style="" x="-95.96875" y="-33.29999923706055" width="191.9375" height="66.5999984741211"></rect><g class="label" style="" transform="translate(0, -18.299999237060547)"><rect></rect><g><rect class="background" style="stroke: none"></rect><text y="-10.1" style=""><tspan class="text-outer-tspan row" x="0" y="-0.1em" dy="1.1em"><tspan font-style="normal" class="text-inner-tspan" font-weight="normal">Page</tspan><tspan font-style="normal" class="text-inner-tspan" font-weight="normal"> on-call</tspan></tspan><tspan class="text-outer-tspan row" x="0" y="1em" dy="1.1em"><tspan font-style="normal" class="text-inner-tspan" font-weight="normal">(policy</tspan><tspan font-style="normal" class="text-inner-tspan" font-weight="normal"> regression)</tspan></tspan></text></g></g></g><g class="node default" id="gaf1af025-5df3-45aa-beaf-49cf6fa965d4-light-flowchart-ALERT2-19" data-look="classic" transform="translate(759.8281288146973, 1326.7531394958496)"><rect class="basic label-container" style="" x="-77.625" y="-33.29999923706055" width="155.25" height="66.5999984741211"></rect><g class="label" style="" transform="translate(0, -18.299999237060547)"><rect></rect><g><rect class="background" style="stroke: none"></rect><text y="-10.1" style=""><tspan class="text-outer-tspan row" x="0" y="-0.1em" dy="1.1em"><tspan font-style="normal" class="text-inner-tspan" font-weight="normal">Surface</tspan><tspan font-style="normal" class="text-inner-tspan" font-weight="normal"> as</tspan></tspan><tspan class="text-outer-tspan row" x="0" y="1em" dy="1.1em"><tspan font-style="normal" class="text-inner-tspan" font-weight="normal">real</tspan><tspan font-style="normal" class="text-inner-tspan" font-weight="normal"> violation</tspan></tspan></text></g></g></g><g class="node default" id="gaf1af025-5df3-45aa-beaf-49cf6fa965d4-light-flowchart-QUAR-21" data-look="classic" transform="translate(970.0781288146973, 1326.7531394958496)"><rect class="basic label-container" style="" x="-82.625" y="-33.29999923706055" width="165.25" height="66.5999984741211"></rect><g class="label" style="" transform="translate(0, -18.299999237060547)"><rect></rect><g><rect class="background" style="stroke: none"></rect><text y="-10.1" style=""><tspan class="text-outer-tspan row" x="0" y="-0.1em" dy="1.1em"><tspan font-style="normal" class="text-inner-tspan" font-weight="normal">Quarantine</tspan><tspan font-style="normal" class="text-inner-tspan" font-weight="normal"> for</tspan></tspan><tspan class="text-outer-tspan row" x="0" y="1em" dy="1.1em"><tspan font-style="normal" class="text-inner-tspan" font-weight="normal">manual</tspan><tspan font-style="normal" class="text-inner-tspan" font-weight="normal"> review</tspan></tspan></text></g></g></g></g></g></g><defs><filter id="gaf1af025-5df3-45aa-beaf-49cf6fa965d4-light-drop-shadow" height="130%" width="130%"><feDropShadow dx="4" dy="4" stdDeviation="0" flood-opacity="0.06" flood-color="#000000"></feDropShadow></filter></defs><defs><filter id="gaf1af025-5df3-45aa-beaf-49cf6fa965d4-light-drop-shadow-small" height="150%" width="150%"><feDropShadow dx="2" dy="2" stdDeviation="0" flood-opacity="0.06" flood-color="#000000"></feDropShadow></filter></defs></svg>