<svg id="g84823876-7367-4333-a172-fce802039941-dark" width="100%" xmlns="http://www.w3.org/2000/svg" xmlns:xlink="http://www.w3.org/1999/xlink" class="flowchart" style="max-width: 808.8125px;" viewBox="0 0 808.8125 1216.7750244140625" role="graphics-document document" aria-roledescription="flowchart-v2"><style>#g84823876-7367-4333-a172-fce802039941-dark{font-family:"trebuchet ms",verdana,arial,sans-serif;font-size:16px;fill:#e5e5e5;}@keyframes edge-animation-frame{from{stroke-dashoffset:0;}}@keyframes dash{to{stroke-dashoffset:0;}}#g84823876-7367-4333-a172-fce802039941-dark .edge-animation-slow{stroke-dasharray:9,5!important;stroke-dashoffset:900;animation:dash 50s linear infinite;stroke-linecap:round;}#g84823876-7367-4333-a172-fce802039941-dark .edge-animation-fast{stroke-dasharray:9,5!important;stroke-dashoffset:900;animation:dash 20s linear infinite;stroke-linecap:round;}#g84823876-7367-4333-a172-fce802039941-dark .error-icon{fill:#252525;}#g84823876-7367-4333-a172-fce802039941-dark .error-text{fill:#cccccc;stroke:#cccccc;}#g84823876-7367-4333-a172-fce802039941-dark .edge-thickness-normal{stroke-width:1px;}#g84823876-7367-4333-a172-fce802039941-dark .edge-thickness-thick{stroke-width:3.5px;}#g84823876-7367-4333-a172-fce802039941-dark .edge-pattern-solid{stroke-dasharray:0;}#g84823876-7367-4333-a172-fce802039941-dark .edge-thickness-invisible{stroke-width:0;fill:none;}#g84823876-7367-4333-a172-fce802039941-dark .edge-pattern-dashed{stroke-dasharray:3;}#g84823876-7367-4333-a172-fce802039941-dark .edge-pattern-dotted{stroke-dasharray:2;}#g84823876-7367-4333-a172-fce802039941-dark .marker{fill:#cccccc;stroke:#cccccc;}#g84823876-7367-4333-a172-fce802039941-dark .marker.cross{stroke:#cccccc;}#g84823876-7367-4333-a172-fce802039941-dark svg{font-family:"trebuchet ms",verdana,arial,sans-serif;font-size:16px;}#g84823876-7367-4333-a172-fce802039941-dark p{margin:0;}#g84823876-7367-4333-a172-fce802039941-dark .label{font-family:"trebuchet ms",verdana,arial,sans-serif;color:#e5e5e5;}#g84823876-7367-4333-a172-fce802039941-dark .cluster-label text{fill:#e5e5e5;}#g84823876-7367-4333-a172-fce802039941-dark .cluster-label span{color:#e5e5e5;}#g84823876-7367-4333-a172-fce802039941-dark .cluster-label span p{background-color:transparent;}#g84823876-7367-4333-a172-fce802039941-dark .label text,#g84823876-7367-4333-a172-fce802039941-dark span{fill:#e5e5e5;color:#e5e5e5;}#g84823876-7367-4333-a172-fce802039941-dark .node rect,#g84823876-7367-4333-a172-fce802039941-dark .node circle,#g84823876-7367-4333-a172-fce802039941-dark .node ellipse,#g84823876-7367-4333-a172-fce802039941-dark .node polygon,#g84823876-7367-4333-a172-fce802039941-dark .node path{fill:#2d2d2d;stroke:#555555;stroke-width:1px;}#g84823876-7367-4333-a172-fce802039941-dark .rough-node .label text,#g84823876-7367-4333-a172-fce802039941-dark .node .label text,#g84823876-7367-4333-a172-fce802039941-dark .image-shape .label,#g84823876-7367-4333-a172-fce802039941-dark .icon-shape .label{text-anchor:middle;}#g84823876-7367-4333-a172-fce802039941-dark .node .katex path{fill:#000;stroke:#000;stroke-width:1px;}#g84823876-7367-4333-a172-fce802039941-dark .rough-node .label,#g84823876-7367-4333-a172-fce802039941-dark .node .label,#g84823876-7367-4333-a172-fce802039941-dark .image-shape .label,#g84823876-7367-4333-a172-fce802039941-dark .icon-shape .label{text-align:center;}#g84823876-7367-4333-a172-fce802039941-dark .node.clickable{cursor:pointer;}#g84823876-7367-4333-a172-fce802039941-dark .root .anchor path{fill:#cccccc!important;stroke-width:0;stroke:#cccccc;}#g84823876-7367-4333-a172-fce802039941-dark .arrowheadPath{fill:#cccccc;}#g84823876-7367-4333-a172-fce802039941-dark .edgePath .path{stroke:#cccccc;stroke-width:1px;}#g84823876-7367-4333-a172-fce802039941-dark .flowchart-link{stroke:#cccccc;fill:none;}#g84823876-7367-4333-a172-fce802039941-dark .edgeLabel{background-color:#1e1e1e;text-align:center;}#g84823876-7367-4333-a172-fce802039941-dark .edgeLabel p{background-color:#1e1e1e;}#g84823876-7367-4333-a172-fce802039941-dark .edgeLabel rect{opacity:0.5;background-color:#1e1e1e;fill:#1e1e1e;}#g84823876-7367-4333-a172-fce802039941-dark .labelBkg{background-color:rgba(30, 30, 30, 0.5);}#g84823876-7367-4333-a172-fce802039941-dark .cluster rect{fill:#1e1e1e;stroke:#555555;stroke-width:1px;}#g84823876-7367-4333-a172-fce802039941-dark .cluster text{fill:#e5e5e5;}#g84823876-7367-4333-a172-fce802039941-dark .cluster span{color:#e5e5e5;}#g84823876-7367-4333-a172-fce802039941-dark div.mermaidTooltip{position:absolute;text-align:center;max-width:200px;padding:2px;font-family:"trebuchet ms",verdana,arial,sans-serif;font-size:12px;background:#252525;border:1px solid #555555;border-radius:2px;pointer-events:none;z-index:100;}#g84823876-7367-4333-a172-fce802039941-dark .flowchartTitleText{text-anchor:middle;font-size:18px;fill:#e5e5e5;}#g84823876-7367-4333-a172-fce802039941-dark rect.text{fill:none;stroke-width:0;}#g84823876-7367-4333-a172-fce802039941-dark .icon-shape,#g84823876-7367-4333-a172-fce802039941-dark .image-shape{background-color:#1e1e1e;text-align:center;}#g84823876-7367-4333-a172-fce802039941-dark .icon-shape p,#g84823876-7367-4333-a172-fce802039941-dark .image-shape p{background-color:#1e1e1e;padding:2px;}#g84823876-7367-4333-a172-fce802039941-dark .icon-shape .label rect,#g84823876-7367-4333-a172-fce802039941-dark .image-shape .label rect{opacity:0.5;background-color:#1e1e1e;fill:#1e1e1e;}#g84823876-7367-4333-a172-fce802039941-dark .label-icon{display:inline-block;height:1em;overflow:visible;vertical-align:-0.125em;}#g84823876-7367-4333-a172-fce802039941-dark .node .label-icon path{fill:currentColor;stroke:revert;stroke-width:revert;}#g84823876-7367-4333-a172-fce802039941-dark .node .neo-node{stroke:#555555;}#g84823876-7367-4333-a172-fce802039941-dark [data-look="neo"].node rect,#g84823876-7367-4333-a172-fce802039941-dark [data-look="neo"].cluster rect,#g84823876-7367-4333-a172-fce802039941-dark [data-look="neo"].node polygon{stroke:url(#g84823876-7367-4333-a172-fce802039941-dark-gradient);filter:drop-shadow( 1px 2px 2px rgba(185,185,185,1));}#g84823876-7367-4333-a172-fce802039941-dark [data-look="neo"].node path{stroke:url(#g84823876-7367-4333-a172-fce802039941-dark-gradient);stroke-width:1px;}#g84823876-7367-4333-a172-fce802039941-dark [data-look="neo"].node .outer-path{filter:drop-shadow( 1px 2px 2px rgba(185,185,185,1));}#g84823876-7367-4333-a172-fce802039941-dark [data-look="neo"].node .neo-line path{stroke:#555555;filter:none;}#g84823876-7367-4333-a172-fce802039941-dark [data-look="neo"].node circle{stroke:url(#g84823876-7367-4333-a172-fce802039941-dark-gradient);filter:drop-shadow( 1px 2px 2px rgba(185,185,185,1));}#g84823876-7367-4333-a172-fce802039941-dark [data-look="neo"].node circle .state-start{fill:#000000;}#g84823876-7367-4333-a172-fce802039941-dark [data-look="neo"].icon-shape .icon{fill:url(#g84823876-7367-4333-a172-fce802039941-dark-gradient);filter:drop-shadow( 1px 2px 2px rgba(185,185,185,1));}#g84823876-7367-4333-a172-fce802039941-dark [data-look="neo"].icon-shape .icon-neo path{stroke:url(#g84823876-7367-4333-a172-fce802039941-dark-gradient);filter:drop-shadow( 1px 2px 2px rgba(185,185,185,1));}#g84823876-7367-4333-a172-fce802039941-dark :root{--mermaid-font-family:"trebuchet ms",verdana,arial,sans-serif;}#g84823876-7367-4333-a172-fce802039941-dark .start rect{fill:#5A5A5A!important;stroke:#3D3D3D!important;color:#ffffff!important;}#g84823876-7367-4333-a172-fce802039941-dark .start polygon{fill:#5A5A5A!important;stroke:#3D3D3D!important;color:#ffffff!important;}#g84823876-7367-4333-a172-fce802039941-dark .start ellipse{fill:#5A5A5A!important;stroke:#3D3D3D!important;color:#ffffff!important;}#g84823876-7367-4333-a172-fce802039941-dark .start circle{fill:#5A5A5A!important;stroke:#3D3D3D!important;color:#ffffff!important;}#g84823876-7367-4333-a172-fce802039941-dark .start path{fill:#5A5A5A!important;stroke:#3D3D3D!important;color:#ffffff!important;}#g84823876-7367-4333-a172-fce802039941-dark .start tspan{fill:#ffffff!important;}#g84823876-7367-4333-a172-fce802039941-dark .decision rect{fill:#8B5E15!important;stroke:#6E4810!important;color:#ffffff!important;}#g84823876-7367-4333-a172-fce802039941-dark .decision polygon{fill:#8B5E15!important;stroke:#6E4810!important;color:#ffffff!important;}#g84823876-7367-4333-a172-fce802039941-dark .decision ellipse{fill:#8B5E15!important;stroke:#6E4810!important;color:#ffffff!important;}#g84823876-7367-4333-a172-fce802039941-dark .decision circle{fill:#8B5E15!important;stroke:#6E4810!important;color:#ffffff!important;}#g84823876-7367-4333-a172-fce802039941-dark .decision path{fill:#8B5E15!important;stroke:#6E4810!important;color:#ffffff!important;}#g84823876-7367-4333-a172-fce802039941-dark .decision tspan{fill:#ffffff!important;}#g84823876-7367-4333-a172-fce802039941-dark .result rect{fill:#1F6E68!important;stroke:#155752!important;color:#ffffff!important;}#g84823876-7367-4333-a172-fce802039941-dark .result polygon{fill:#1F6E68!important;stroke:#155752!important;color:#ffffff!important;}#g84823876-7367-4333-a172-fce802039941-dark .result ellipse{fill:#1F6E68!important;stroke:#155752!important;color:#ffffff!important;}#g84823876-7367-4333-a172-fce802039941-dark .result circle{fill:#1F6E68!important;stroke:#155752!important;color:#ffffff!important;}#g84823876-7367-4333-a172-fce802039941-dark .result path{fill:#1F6E68!important;stroke:#155752!important;color:#ffffff!important;}#g84823876-7367-4333-a172-fce802039941-dark .result tspan{fill:#ffffff!important;}#g84823876-7367-4333-a172-fce802039941-dark .warn rect{fill:#B43A3A!important;stroke:#8E2828!important;color:#ffffff!important;}#g84823876-7367-4333-a172-fce802039941-dark .warn polygon{fill:#B43A3A!important;stroke:#8E2828!important;color:#ffffff!important;}#g84823876-7367-4333-a172-fce802039941-dark .warn ellipse{fill:#B43A3A!important;stroke:#8E2828!important;color:#ffffff!important;}#g84823876-7367-4333-a172-fce802039941-dark .warn circle{fill:#B43A3A!important;stroke:#8E2828!important;color:#ffffff!important;}#g84823876-7367-4333-a172-fce802039941-dark .warn path{fill:#B43A3A!important;stroke:#8E2828!important;color:#ffffff!important;}#g84823876-7367-4333-a172-fce802039941-dark .warn tspan{fill:#ffffff!important;}</style><g><marker id="g84823876-7367-4333-a172-fce802039941-dark_flowchart-v2-pointEnd" class="marker flowchart-v2" viewBox="0 0 10 10" refX="5" refY="5" markerUnits="userSpaceOnUse" markerWidth="8" markerHeight="8" orient="auto"><path d="M 0 0 L 10 5 L 0 10 z" class="arrowMarkerPath" style="stroke-width: 1; stroke-dasharray: 1, 0;"></path></marker><marker id="g84823876-7367-4333-a172-fce802039941-dark_flowchart-v2-pointStart" class="marker flowchart-v2" viewBox="0 0 10 10" refX="4.5" refY="5" markerUnits="userSpaceOnUse" markerWidth="8" markerHeight="8" orient="auto"><path d="M 0 5 L 10 10 L 10 0 z" class="arrowMarkerPath" style="stroke-width: 1; stroke-dasharray: 1, 0;"></path></marker><marker id="g84823876-7367-4333-a172-fce802039941-dark_flowchart-v2-pointEnd-margin" class="marker flowchart-v2" viewBox="0 0 11.5 14" refX="11.5" refY="7" markerUnits="userSpaceOnUse" markerWidth="10.5" markerHeight="14" orient="auto"><path d="M 0 0 L 11.5 7 L 0 14 z" class="arrowMarkerPath" style="stroke-width: 0; stroke-dasharray: 1, 0;"></path></marker><marker id="g84823876-7367-4333-a172-fce802039941-dark_flowchart-v2-pointStart-margin" class="marker flowchart-v2" viewBox="0 0 11.5 14" refX="1" refY="7" markerUnits="userSpaceOnUse" markerWidth="11.5" markerHeight="14" orient="auto"><polygon points="0,7 11.5,14 11.5,0" class="arrowMarkerPath" style="stroke-width: 0; stroke-dasharray: 1, 0;"></polygon></marker><marker id="g84823876-7367-4333-a172-fce802039941-dark_flowchart-v2-circleEnd" class="marker flowchart-v2" viewBox="0 0 10 10" refX="11" refY="5" markerUnits="userSpaceOnUse" markerWidth="11" markerHeight="11" orient="auto"><circle cx="5" cy="5" r="5" class="arrowMarkerPath" style="stroke-width: 1; stroke-dasharray: 1, 0;"></circle></marker><marker id="g84823876-7367-4333-a172-fce802039941-dark_flowchart-v2-circleStart" class="marker flowchart-v2" viewBox="0 0 10 10" refX="-1" refY="5" markerUnits="userSpaceOnUse" markerWidth="11" markerHeight="11" orient="auto"><circle cx="5" cy="5" r="5" class="arrowMarkerPath" style="stroke-width: 1; stroke-dasharray: 1, 0;"></circle></marker><marker id="g84823876-7367-4333-a172-fce802039941-dark_flowchart-v2-circleEnd-margin" class="marker flowchart-v2" viewBox="0 0 10 10" refY="5" refX="12.25" markerUnits="userSpaceOnUse" markerWidth="14" markerHeight="14" orient="auto"><circle cx="5" cy="5" r="5" class="arrowMarkerPath" style="stroke-width: 0; stroke-dasharray: 1, 0;"></circle></marker><marker id="g84823876-7367-4333-a172-fce802039941-dark_flowchart-v2-circleStart-margin" class="marker flowchart-v2" viewBox="0 0 10 10" refX="-2" refY="5" markerUnits="userSpaceOnUse" markerWidth="14" markerHeight="14" orient="auto"><circle cx="5" cy="5" r="5" class="arrowMarkerPath" style="stroke-width: 0; stroke-dasharray: 1, 0;"></circle></marker><marker id="g84823876-7367-4333-a172-fce802039941-dark_flowchart-v2-crossEnd" class="marker cross flowchart-v2" viewBox="0 0 11 11" refX="12" refY="5.2" markerUnits="userSpaceOnUse" markerWidth="11" markerHeight="11" orient="auto"><path d="M 1,1 l 9,9 M 10,1 l -9,9" class="arrowMarkerPath" style="stroke-width: 2; stroke-dasharray: 1, 0;"></path></marker><marker id="g84823876-7367-4333-a172-fce802039941-dark_flowchart-v2-crossStart" class="marker cross flowchart-v2" viewBox="0 0 11 11" refX="-1" refY="5.2" markerUnits="userSpaceOnUse" markerWidth="11" markerHeight="11" orient="auto"><path d="M 1,1 l 9,9 M 10,1 l -9,9" class="arrowMarkerPath" style="stroke-width: 2; stroke-dasharray: 1, 0;"></path></marker><marker id="g84823876-7367-4333-a172-fce802039941-dark_flowchart-v2-crossEnd-margin" class="marker cross flowchart-v2" viewBox="0 0 15 15" refX="17.7" refY="7.5" markerUnits="userSpaceOnUse" markerWidth="12" markerHeight="12" orient="auto"><path d="M 1,1 L 14,14 M 1,14 L 14,1" class="arrowMarkerPath" style="stroke-width: 2.5;"></path></marker><marker id="g84823876-7367-4333-a172-fce802039941-dark_flowchart-v2-crossStart-margin" class="marker cross flowchart-v2" viewBox="0 0 15 15" refX="-3.5" refY="7.5" markerUnits="userSpaceOnUse" markerWidth="12" markerHeight="12" orient="auto"><path d="M 1,1 L 14,14 M 1,14 L 14,1" class="arrowMarkerPath" style="stroke-width: 2.5; stroke-dasharray: 1, 0;"></path></marker><g class="root"><g class="clusters"></g><g class="edgePaths"><path d="M594.044,42.5L593.96,46.583C593.877,50.667,593.71,58.833,593.627,66.417C593.544,74,593.544,81,593.544,84.5L593.544,88" id="g84823876-7367-4333-a172-fce802039941-dark-L_start_q1_0" class="edge-thickness-normal edge-pattern-solid edge-thickness-normal edge-pattern-solid flowchart-link" style=";" data-edge="true" data-et="edge" data-id="L_start_q1_0" data-points="W3sieCI6NTk0LjA0Mzc0Njk0ODI0MjIsInkiOjQyLjV9LHsieCI6NTkzLjU0Mzc0Njk0ODI0MjIsInkiOjY3fSx7IngiOjU5My41NDM3NDY5NDgyNDIzLCJ5Ijo5Mi4wMDAwMDAwMDAwMDAwM31d" data-look="classic" marker-end="url(#g84823876-7367-4333-a172-fce802039941-dark_flowchart-v2-pointEnd)"></path><path d="M634.384,218.479L646.678,231.369C658.972,244.259,683.56,270.039,695.854,297.22C708.148,324.401,708.148,352.982,708.148,367.273L708.148,381.564" id="g84823876-7367-4333-a172-fce802039941-dark-L_q1_mod_0" class="edge-thickness-normal edge-pattern-solid edge-thickness-normal edge-pattern-solid flowchart-link" style=";" data-edge="true" data-et="edge" data-id="L_q1_mod_0" data-points="W3sieCI6NjM0LjM4MzcxMjIxMzI5OSwieSI6MjE4LjQ3ODc3NTU3OTY2OTg3fSx7IngiOjcwOC4xNDg0MzM2ODUzMDI3LCJ5IjoyOTUuODE4NzQwODQ0NzI2NTZ9LHsieCI6NzA4LjE0ODQzMzY4NTMwMjcsInkiOjM4NS41NjQwNTI1ODE3ODcxfV0=" data-look="classic" marker-end="url(#g84823876-7367-4333-a172-fce802039941-dark_flowchart-v2-pointEnd)"></path><path d="M552.704,218.479L540.41,231.369C528.116,244.259,503.527,270.039,491.233,288.345C478.939,306.652,478.939,317.485,478.939,322.902L478.939,328.319" id="g84823876-7367-4333-a172-fce802039941-dark-L_q1_q3_0" class="edge-thickness-normal edge-pattern-solid edge-thickness-normal edge-pattern-solid flowchart-link" style=";" data-edge="true" data-et="edge" data-id="L_q1_q3_0" data-points="W3sieCI6NTUyLjcwMzc4MTY4MzE4NTUsInkiOjIxOC40Nzg3NzU1Nzk2Njk4NH0seyJ4Ijo0NzguOTM5MDYwMjExMTgxNjQsInkiOjI5NS44MTg3NDA4NDQ3MjY1Nn0seyJ4Ijo0NzguOTM5MDYwMjExMTgxNjQsInkiOjMzMi4zMTg3NDA4NDQ3MjY1Nn1d" data-look="classic" marker-end="url(#g84823876-7367-4333-a172-fce802039941-dark_flowchart-v2-pointEnd)"></path><path d="M521.028,463.32L533.429,476.418C545.83,489.517,570.631,515.713,583.032,542.43C595.433,569.148,595.433,596.386,595.433,610.006L595.433,623.625" id="g84823876-7367-4333-a172-fce802039941-dark-L_q3_iframe_0" class="edge-thickness-normal edge-pattern-solid edge-thickness-normal edge-pattern-solid flowchart-link" style=";" data-edge="true" data-et="edge" data-id="L_q3_iframe_0" data-points="W3sieCI6NTIxLjAyODE3Nzg1ODc5ODEsInkiOjQ2My4zMjAyNDUxNDUzNTIzfSx7IngiOjU5NS40MzI4MDc5MjIzNjMzLCJ5Ijo1NDEuOTA5MzYyNzkyOTY4OH0seyJ4Ijo1OTUuNDMyODA3OTIyMzYzMywieSI6NjI3LjYyNDk4NDc0MTIxMDl9XQ==" data-look="classic" marker-end="url(#g84823876-7367-4333-a172-fce802039941-dark_flowchart-v2-pointEnd)"></path><path d="M436.85,463.32L424.449,476.418C412.048,489.517,387.247,515.713,374.846,534.228C362.445,552.743,362.445,563.576,362.445,568.993L362.445,574.409" id="g84823876-7367-4333-a172-fce802039941-dark-L_q3_q2_0" class="edge-thickness-normal edge-pattern-solid edge-thickness-normal edge-pattern-solid flowchart-link" style=";" data-edge="true" data-et="edge" data-id="L_q3_q2_0" data-points="W3sieCI6NDM2Ljg0OTk0MjU2MzU2NTE1LCJ5Ijo0NjMuMzIwMjQ1MTQ1MzUyM30seyJ4IjozNjIuNDQ1MzEyNSwieSI6NTQxLjkwOTM2Mjc5Mjk2ODh9LHsieCI6MzYyLjQ0NTMxMjUsInkiOjU3OC40MDkzNjI3OTI5Njg4fV0=" data-look="classic" marker-end="url(#g84823876-7367-4333-a172-fce802039941-dark_flowchart-v2-pointEnd)"></path><path d="M303.515,702.11L274.573,718.015C245.631,733.92,187.747,765.73,158.805,787.052C129.863,808.374,129.863,819.207,129.863,824.624L129.863,830.041" id="g84823876-7367-4333-a172-fce802039941-dark-L_q2_q4_0" class="edge-thickness-normal edge-pattern-solid edge-thickness-normal edge-pattern-solid flowchart-link" style=";" data-edge="true" data-et="edge" data-id="L_q2_q4_0" data-points="W3sieCI6MzAzLjUxNDkyNzE3NjYzNzg1LCJ5Ijo3MDIuMTEwMjE4MzE0MzMzMX0seyJ4IjoxMjkuODYzMjgxMjUsInkiOjc5Ny41NDA2MDM2Mzc2OTUzfSx7IngiOjEyOS44NjMyODEyNSwieSI6ODM0LjA0MDYwMzYzNzY5NTN9XQ==" data-look="classic" marker-end="url(#g84823876-7367-4333-a172-fce802039941-dark_flowchart-v2-pointEnd)"></path><path d="M115.928,1020.039L114.566,1028.445C113.204,1036.851,110.481,1053.663,109.119,1068.952C107.758,1084.242,107.758,1098.008,107.758,1104.892L107.758,1111.775" id="g84823876-7367-4333-a172-fce802039941-dark-L_q4_edge_0" class="edge-thickness-normal edge-pattern-solid edge-thickness-normal edge-pattern-solid flowchart-link" style=";" data-edge="true" data-et="edge" data-id="L_q4_edge_0" data-points="W3sieCI6MTE1LjkyNzU3NzcxMTMyMjgsInkiOjEwMjAuMDM5MjcyMDQ3MjYwM30seyJ4IjoxMDcuNzU3ODEyNSwieSI6MTA3MC40NzQ5NzU1ODU5Mzc1fSx7IngiOjEwNy43NTc4MTI1LCJ5IjoxMTE1Ljc3NDk3ODYzNzY5NTN9XQ==" data-look="classic" marker-end="url(#g84823876-7367-4333-a172-fce802039941-dark_flowchart-v2-pointEnd)"></path><path d="M178.003,985.835L191.106,999.942C204.209,1014.048,230.415,1042.262,253.803,1064.958C277.191,1087.654,297.76,1104.832,308.045,1113.422L318.33,1122.011" id="g84823876-7367-4333-a172-fce802039941-dark-L_q4_server_0" class="edge-thickness-normal edge-pattern-solid edge-thickness-normal edge-pattern-solid flowchart-link" style=";" data-edge="true" data-et="edge" data-id="L_q4_server_0" data-points="W3sieCI6MTc4LjAwMzE2ODc1ODA4NTg1LCJ5Ijo5ODUuODM1MDg4MDc3ODUxN30seyJ4IjoyNTYuNjIxMDkzNzUsInkiOjEwNzAuNDc0OTc1NTg1OTM3NX0seyJ4IjozMjEuNDAwMTc3NzAzNzc3NywieSI6MTEyNC41NzQ5Nzc4NzQ3NTU5fV0=" data-look="classic" marker-end="url(#g84823876-7367-4333-a172-fce802039941-dark_flowchart-v2-pointEnd)"></path><path d="M421.376,702.11L450.318,718.015C479.26,733.92,537.143,765.73,566.085,787.618C595.027,809.505,595.027,821.47,595.027,827.452L595.027,833.434" id="g84823876-7367-4333-a172-fce802039941-dark-L_q2_q5_0" class="edge-thickness-normal edge-pattern-solid edge-thickness-normal edge-pattern-solid flowchart-link" style=";" data-edge="true" data-et="edge" data-id="L_q2_q5_0" data-points="W3sieCI6NDIxLjM3NTY5NzgyMzM2MjIsInkiOjcwMi4xMTAyMTgzMTQzMzMxfSx7IngiOjU5NS4wMjczNDM3NSwieSI6Nzk3LjU0MDYwMzYzNzY5NTN9LHsieCI6NTk1LjAyNzM0Mzc1LCJ5Ijo4MzcuNDM0MzQ5MDYwMDU4Nn1d" data-look="classic" marker-end="url(#g84823876-7367-4333-a172-fce802039941-dark_flowchart-v2-pointEnd)"></path><path d="M608.49,1017.119L609.93,1026.011C611.371,1034.904,614.252,1052.69,615.692,1066.999C617.133,1081.308,617.133,1092.142,617.133,1097.558L617.133,1102.975" id="g84823876-7367-4333-a172-fce802039941-dark-L_q5_client_0" class="edge-thickness-normal edge-pattern-solid edge-thickness-normal edge-pattern-solid flowchart-link" style=";" data-edge="true" data-et="edge" data-id="L_q5_client_0" data-points="W3sieCI6NjA4LjQ4OTk0OTc0NTQwODksInkiOjEwMTcuMTE4NjI0MTY4MTY1M30seyJ4Ijo2MTcuMTMyODEyNSwieSI6MTA3MC40NzQ5NzU1ODU5Mzc1fSx7IngiOjYxNy4xMzI4MTI1LCJ5IjoxMTA2Ljk3NDk3NTU4NTkzNzV9XQ==" data-look="classic" marker-end="url(#g84823876-7367-4333-a172-fce802039941-dark_flowchart-v2-pointEnd)"></path><path d="M548.3,983.854L534.766,998.291C521.232,1012.727,494.165,1041.601,470.228,1064.63C446.291,1087.659,425.484,1104.844,415.081,1113.436L404.677,1122.028" id="g84823876-7367-4333-a172-fce802039941-dark-L_q5_server_0" class="edge-thickness-normal edge-pattern-solid edge-thickness-normal edge-pattern-solid flowchart-link" style=";" data-edge="true" data-et="edge" data-id="L_q5_server_0" data-points="W3sieCI6NTQ4LjI5OTgyNDIxMzc0NywieSI6OTgzLjg1MzcxMDYyNzMyMTJ9LHsieCI6NDY3LjA5NzY1NjI1LCJ5IjoxMDcwLjQ3NDk3NTU4NTkzNzV9LHsieCI6NDAxLjU5MzE4OTY5ODEwNjEsInkiOjExMjQuNTc0OTc3ODc0NzU1OX1d" data-look="classic" marker-end="url(#g84823876-7367-4333-a172-fce802039941-dark_flowchart-v2-pointEnd)"></path></g><g class="edgeLabels"><g class="edgeLabel"><g class="label" data-id="L_start_q1_0" transform="translate(0, 0)"><text y="-10.1" text-anchor="middle"><tspan class="text-outer-tspan row" x="0" y="-0.1em" dy="1.1em" text-anchor="middle"></tspan></text></g></g><g><rect class="background" style="stroke: none"></rect></g><g class="edgeLabel" transform="translate(708.1484336853027, 295.81874084472656)"><g class="label" data-id="L_q1_mod_0" transform="translate(0, -10.5)"><g><rect class="background" style="" x="-13.546875" y="-1" width="27.09375" height="23"></rect><text y="-10.1" text-anchor="middle" style=""><tspan class="text-outer-tspan row" x="0" y="-0.1em" dy="1.1em" text-anchor="middle"><tspan font-style="normal" class="text-inner-tspan" font-weight="normal">yes</tspan></tspan></text></g></g></g><g class="edgeLabel" transform="translate(478.93906021118164, 295.81874084472656)"><g class="label" data-id="L_q1_q3_0" transform="translate(0, -10.5)"><g><rect class="background" style="" x="-10.6640625" y="-1" width="21.328125" height="23"></rect><text y="-10.1" text-anchor="middle" style=""><tspan class="text-outer-tspan row" x="0" y="-0.1em" dy="1.1em" text-anchor="middle"><tspan font-style="normal" class="text-inner-tspan" font-weight="normal">no</tspan></tspan></text></g></g></g><g class="edgeLabel" transform="translate(595.4328079223633, 541.9093627929688)"><g class="label" data-id="L_q3_iframe_0" transform="translate(0, -10.5)"><g><rect class="background" style="" x="-13.546875" y="-1" width="27.09375" height="23"></rect><text y="-10.1" text-anchor="middle" style=""><tspan class="text-outer-tspan row" x="0" y="-0.1em" dy="1.1em" text-anchor="middle"><tspan font-style="normal" class="text-inner-tspan" font-weight="normal">yes</tspan></tspan></text></g></g></g><g class="edgeLabel" transform="translate(362.4453125, 541.9093627929688)"><g class="label" data-id="L_q3_q2_0" transform="translate(0, -10.5)"><g><rect class="background" style="" x="-10.6640625" y="-1" width="21.328125" height="23"></rect><text y="-10.1" text-anchor="middle" style=""><tspan class="text-outer-tspan row" x="0" y="-0.1em" dy="1.1em" text-anchor="middle"><tspan font-style="normal" class="text-inner-tspan" font-weight="normal">no</tspan></tspan></text></g></g></g><g class="edgeLabel" transform="translate(129.86328125, 797.5406036376953)"><g class="label" data-id="L_q2_q4_0" transform="translate(0, -10.5)"><g><rect class="background" style="" x="-13.546875" y="-1" width="27.09375" height="23"></rect><text y="-10.1" text-anchor="middle" style=""><tspan class="text-outer-tspan row" x="0" y="-0.1em" dy="1.1em" text-anchor="middle"><tspan font-style="normal" class="text-inner-tspan" font-weight="normal">yes</tspan></tspan></text></g></g></g><g class="edgeLabel" transform="translate(107.7578125, 1070.4749755859375)"><g class="label" data-id="L_q4_edge_0" transform="translate(0, -10.5)"><g><rect class="background" style="" x="-13.546875" y="-1" width="27.09375" height="23"></rect><text y="-10.1" text-anchor="middle" style=""><tspan class="text-outer-tspan row" x="0" y="-0.1em" dy="1.1em" text-anchor="middle"><tspan font-style="normal" class="text-inner-tspan" font-weight="normal">yes</tspan></tspan></text></g></g></g><g class="edgeLabel" transform="translate(246.03138, 1059.07411)"><g class="label" data-id="L_q4_server_0" transform="translate(0, -10.5)"><g><rect class="background" style="" x="-10.6640625" y="-1" width="21.328125" height="23"></rect><text y="-10.1" text-anchor="middle" style=""><tspan class="text-outer-tspan row" x="0" y="-0.1em" dy="1.1em" text-anchor="middle"><tspan font-style="normal" class="text-inner-tspan" font-weight="normal">no</tspan></tspan></text></g></g></g><g class="edgeLabel" transform="translate(595.02734375, 797.5406036376953)"><g class="label" data-id="L_q2_q5_0" transform="translate(0, -10.5)"><g><rect class="background" style="" x="-10.6640625" y="-1" width="21.328125" height="23"></rect><text y="-10.1" text-anchor="middle" style=""><tspan class="text-outer-tspan row" x="0" y="-0.1em" dy="1.1em" text-anchor="middle"><tspan font-style="normal" class="text-inner-tspan" font-weight="normal">no</tspan></tspan></text></g></g></g><g class="edgeLabel" transform="translate(617.1328125, 1070.4749755859375)"><g class="label" data-id="L_q5_client_0" transform="translate(0, -10.5)"><g><rect class="background" style="" x="-13.546875" y="-1" width="27.09375" height="23"></rect><text y="-10.1" text-anchor="middle" style=""><tspan class="text-outer-tspan row" x="0" y="-0.1em" dy="1.1em" text-anchor="middle"><tspan font-style="normal" class="text-inner-tspan" font-weight="normal">yes</tspan></tspan></text></g></g></g><g class="edgeLabel" transform="translate(478.64704, 1058.15483)"><g class="label" data-id="L_q5_server_0" transform="translate(0, -10.5)"><g><rect class="background" style="" x="-10.6640625" y="-1" width="21.328125" height="23"></rect><text y="-10.1" text-anchor="middle" style=""><tspan class="text-outer-tspan row" x="0" y="-0.1em" dy="1.1em" text-anchor="middle"><tspan font-style="normal" class="text-inner-tspan" font-weight="normal">no</tspan></tspan></text></g></g></g></g><g class="nodes"><g class="node default start" id="g84823876-7367-4333-a172-fce802039941-dark-flowchart-start-0" data-look="classic" transform="translate(593.5437469482422, 25)"><g class="basic label-container outer-path"><path d="M-80.9609375 -17 C-44.130907203096776 -17, -7.300876906193551 -17, 80.9609375 -17 C80.9609375 -17, 80.9609375 -17, 80.9609375 -17 C81.39462680899861 -16.986092427985444, 81.82831611799722 -16.972184855970887, 82.05013123967211 -16.965071676755716 C82.47119304814053 -16.92445235049368, 82.89225485660897 -16.88383302423165, 83.1348492486366 -16.860430234995185 C83.38869177188987 -16.819390944413765, 83.64253429514314 -16.778351653832345, 84.21063418792333 -16.686505668848113 C84.43703226152998 -16.634831785932896, 84.66343033513662 -16.58315790301768, 85.27306542646163 -16.4440126716635 C85.48257425534409 -16.38183155098547, 85.69208308422655 -16.31965043030744, 86.31777720640156 -16.133947699181366 C86.68608564866739 -15.998406787821624, 87.05439409093322 -15.86286587646188, 87.34047658294936 -15.757584874882369 C87.62100540920113 -15.633403085092676, 87.9015342354529 -15.50922129530298, 88.33696106499849 -15.316470754341125 C88.64146890684626 -15.157609208295725, 88.94597674869404 -14.998747662250322, 89.30313588406693 -14.812417970097622 C89.50197736668531 -14.691879094812107, 89.70081884930369 -14.571340219526592, 90.23503082057933 -14.247497783161291 C90.46478010317642 -14.087234629307705, 90.69452938577352 -13.92697147545412, 91.12881651835067 -13.624031571755262 C91.45524885216814 -13.363710472265062, 91.78168118598559 -13.103389372774862, 91.9808202202324 -12.944581292275288 C92.23283146666286 -12.715711346119338, 92.48484271309331 -12.486841399963389, 92.78754086025927 -12.21193895166137 C93.02554385005611 -11.966181324287273, 93.26354683985294 -11.720423696913176, 93.54566345028036 -11.42911513444239 C93.75883474568822 -11.178712001065986, 93.97200604109608 -10.928308867689582, 94.25207270195651 -10.59932663159847 C94.39604130864058 -10.406421814451697, 94.54000991532466 -10.213516997304923, 94.90386582814824 -9.725983222076888 C95.03715625196949 -9.521213337597095, 95.17044667579074 -9.316443453117301, 95.49836447109088 -8.812673661278927 C95.68383119321996 -8.483358715596637, 95.86929791534905 -8.154043769914349, 96.033125708341 -7.863150934094199 C96.16168667580688 -7.596191334387264, 96.29024764327276 -7.329231734680328, 96.50595209126881 -6.881316833080699 C96.61061383950283 -6.622800291445423, 96.71527558773685 -6.364283749810148, 96.91490067484592 -5.871205925162238 C97.04271643046197 -5.486245233921819, 97.170532186078 -5.1012845426814, 97.25829100162323 -4.836968972727556 C97.3422608526962 -4.5167555378226485, 97.42623070376918 -4.196542102917742, 97.534712007091 -3.7828558772573464 C97.5776280871862 -3.562490876285224, 97.62054416728141 -3.3421258753131013, 97.74302781804565 -2.713198215567453 C97.77761398320472 -2.4449547484044714, 97.8122001483638 -2.1767112812414897, 97.88238242013637 -1.632391440430593 C97.9036364731524 -1.3013424087429717, 97.92489052616845 -0.9702933770553502, 97.9522031754117 -0.5448768187181379 C97.9522031754117 -0.1712547888971046, 97.9522031754117 0.20236724092392866, 97.9522031754117 0.5448768187181336 C97.93046460557376 0.8834725910016542, 97.90872603573582 1.2220683632851748, 97.88238242013637 1.6323914404305815 C97.84916136915109 1.890047351633831, 97.81594031816581 2.1477032628370805, 97.74302781804565 2.7131982155674415 C97.66017182892118 3.1386462081021094, 97.57731583979671 3.564094200636777, 97.534712007091 3.782855877257343 C97.4483720578614 4.112107523640504, 97.36203210863181 4.441359170023665, 97.25829100162323 4.836968972727545 C97.13114450449072 5.219913964047453, 97.0039980073582 5.602858955367359, 96.91490067484592 5.871205925162227 C96.82175634845282 6.101274212176215, 96.72861202205974 6.331342499190205, 96.50595209126881 6.881316833080694 C96.3497072204224 7.205762650497951, 96.19346234957598 7.530208467915208, 96.033125708341 7.863150934094196 C95.90355737586287 8.093212628625489, 95.77398904338473 8.323274323156783, 95.49836447109088 8.812673661278923 C95.26571442975323 9.17008660005702, 95.03306438841558 9.52749953883512, 94.90386582814826 9.725983222076879 C94.64499617306646 10.072844976375748, 94.38612651798466 10.419706730674617, 94.25207270195651 10.599326631598467 C94.04553510866101 10.84193744100535, 93.8389975153655 11.084548250412233, 93.54566345028037 11.42911513444238 C93.26126650145518 11.722778333528122, 92.97686955262999 12.016441532613864, 92.78754086025927 12.211938951661365 C92.49779800079473 12.475075750451094, 92.20805514133019 12.738212549240824, 91.98082022023242 12.944581292275275 C91.73357119126868 13.14175581330087, 91.48632216230494 13.338930334326463, 91.12881651835067 13.62403157175526 C90.77235186346883 13.872685883894631, 90.415887208587 14.121340196034001, 90.23503082057934 14.247497783161286 C89.88652375274218 14.45876481573903, 89.53801668490503 14.670031848316777, 89.30313588406695 14.81241797009762 C89.1056620694046 14.91543993271895, 88.90818825474226 15.01846189534028, 88.33696106499849 15.316470754341124 C88.08788839903148 15.426727835086593, 87.83881573306448 15.536984915832065, 87.34047658294936 15.757584874882367 C87.10885200420972 15.84282486097269, 86.87722742547008 15.928064847063014, 86.31777720640156 16.133947699181363 C86.06724253581767 16.20830507432734, 85.8167078652338 16.282662449473314, 85.27306542646164 16.444012671663497 C84.93074378371054 16.522145352763953, 84.58842214095944 16.60027803386441, 84.21063418792333 16.68650566884811 C83.80210993633928 16.752552701691332, 83.39358568475522 16.818599734534555, 83.13484924863661 16.86043023499518 C82.91154495084693 16.881972132040243, 82.68824065305726 16.9035140290853, 82.05013123967211 16.965071676755716 C81.65155737681555 16.977853164760567, 81.25298351395898 16.990634652765415, 80.9609375 17 C80.9609375 17, 80.9609375 17, 80.9609375 17 C34.72489188455004 17, -11.51115373089992 17, -80.9609375 17 C-81.2496613518581 16.990741188037795, -81.53838520371619 16.98148237607559, -82.05013123967211 16.965071676755716 C-82.29816342726298 16.941144309921174, -82.54619561485384 16.917216943086633, -83.1348492486366 16.86043023499518 C-83.45810237305885 16.808169176704013, -83.78135549748109 16.755908118412847, -84.21063418792333 16.68650566884811 C-84.47523925027772 16.626111290075123, -84.73984431263212 16.565716911302133, -85.27306542646161 16.4440126716635 C-85.58568973353816 16.351227418321656, -85.89831404061472 16.25844216497981, -86.31777720640154 16.13394769918137 C-86.57541629401979 16.039134133348238, -86.83305538163803 15.944320567515105, -87.34047658294936 15.757584874882369 C-87.68415641911766 15.605448006310782, -88.02783625528595 15.453311137739197, -88.33696106499849 15.316470754341127 C-88.61774136720156 15.169987850530154, -88.89852166940462 15.023504946719182, -89.30313588406693 14.812417970097624 C-89.66197048008415 14.594890329245837, -90.02080507610135 14.377362688394049, -90.23503082057931 14.247497783161299 C-90.49574534280154 14.065634618608843, -90.75645986502376 13.88377145405639, -91.12881651835067 13.624031571755264 C-91.36515049493855 13.435561514537676, -91.60148447152642 13.247091457320089, -91.9808202202324 12.94458129227529 C-92.26544917484073 12.686088806569463, -92.55007812944906 12.427596320863639, -92.78754086025926 12.211938951661377 C-93.00175879307344 11.990741348411362, -93.21597672588763 11.769543745161346, -93.54566345028036 11.429115134442386 C-93.72410691060206 11.219505292227984, -93.90255037092376 11.009895450013582, -94.25207270195651 10.599326631598473 C-94.459674527946 10.32115909768797, -94.66727635393549 10.042991563777468, -94.90386582814824 9.72598322207689 C-95.03434690939714 9.525529242202325, -95.16482799064605 9.325075262327761, -95.49836447109088 8.812673661278936 C-95.70305053373917 8.449232830335518, -95.90773659638747 8.0857919993921, -96.033125708341 7.863150934094201 C-96.17236508179062 7.574017395880744, -96.31160445524024 7.284883857667287, -96.50595209126881 6.881316833080701 C-96.61403383725558 6.614352830874994, -96.72211558324234 6.3473888286692866, -96.91490067484592 5.87120592516224 C-96.99274975515617 5.636736898834288, -97.07059883546641 5.402267872506336, -97.25829100162323 4.8369689727275516 C-97.35023275566732 4.486355216749207, -97.44217450971139 4.135741460770861, -97.534712007091 3.782855877257349 C-97.58733357592044 3.5126552428907085, -97.63995514474988 3.2424546085240684, -97.74302781804565 2.713198215567455 C-97.78928481208342 2.3544381042871114, -97.8355418061212 1.9956779930067672, -97.88238242013637 1.6323914404306026 C-97.90791226981341 1.234743424387053, -97.93344211949044 0.8370954083435032, -97.9522031754117 0.54487681871814 C-97.9522031754117 0.29324010679962653, -97.9522031754117 0.04160339488111309, -97.9522031754117 -0.5448768187181317 C-97.93596119842705 -0.797858720541821, -97.9197192214424 -1.0508406223655105, -97.88238242013637 -1.6323914404305793 C-97.84882975073927 -1.8926193185504547, -97.81527708134217 -2.15284719667033, -97.74302781804565 -2.713198215567447 C-97.67213890611748 -3.0771977959417756, -97.6012499941893 -3.441197376316104, -97.534712007091 -3.782855877257341 C-97.46839245753074 -4.035761062805206, -97.40207290797049 -4.288666248353072, -97.25829100162323 -4.836968972727544 C-97.15048196740962 -5.16167260674204, -97.042672933196 -5.486376240756536, -96.91490067484594 -5.871205925162218 C-96.77887562440404 -6.207190429619155, -96.64285057396214 -6.543174934076092, -96.50595209126881 -6.881316833080692 C-96.3653537726264 -7.1732722500637305, -96.22475545398402 -7.4652276670467685, -96.033125708341 -7.863150934094194 C-95.89660579875455 -8.105555857704815, -95.76008588916811 -8.347960781315436, -95.49836447109088 -8.812673661278929 C-95.26335095621744 -9.173717530089517, -95.028337441344 -9.534761398900107, -94.90386582814826 -9.725983222076884 C-94.68451610145699 -10.019891872671987, -94.46516637476572 -10.31380052326709, -94.25207270195651 -10.599326631598467 C-93.97744219150093 -10.921923256098326, -93.70281168104536 -11.244519880598183, -93.54566345028037 -11.42911513444238 C-93.39090785073428 -11.588912996644728, -93.2361522511882 -11.748710858847076, -92.78754086025927 -12.21193895166136 C-92.52915105909439 -12.44660173245981, -92.2707612579295 -12.68126451325826, -91.98082022023242 -12.944581292275274 C-91.67779242622761 -13.18623789408585, -91.37476463222279 -13.427894495896425, -91.12881651835067 -13.624031571755259 C-90.79357490654603 -13.857881607774704, -90.45833329474138 -14.091731643794152, -90.23503082057934 -14.247497783161284 C-89.92515734581148 -14.435344904584229, -89.61528387104362 -14.623192026007175, -89.30313588406695 -14.812417970097618 C-88.95525437687164 -14.993907529572672, -88.60737286967633 -15.175397089047724, -88.33696106499849 -15.316470754341124 C-88.11412271253215 -15.415114682713106, -87.89128436006582 -15.51375861108509, -87.34047658294936 -15.757584874882365 C-87.0071276759861 -15.880260354088367, -86.67377876902282 -16.00293583329437, -86.31777720640156 -16.133947699181363 C-86.0048362268917 -16.226826939239167, -85.69189524738185 -16.319706179296972, -85.27306542646164 -16.444012671663494 C-84.88577397230029 -16.532409418762896, -84.49848251813893 -16.620806165862298, -84.21063418792333 -16.68650566884811 C-83.85417405708847 -16.74413537841189, -83.49771392625361 -16.80176508797567, -83.13484924863661 -16.86043023499518 C-82.71183846608061 -16.901237576443464, -82.28882768352459 -16.942044917891742, -82.05013123967213 -16.965071676755716 C-81.72515403724641 -16.97549306310776, -81.40017683482068 -16.9859144494598, -80.9609375 -17 C-80.9609375 -17, -80.9609375 -17, -80.9609375 -17" stroke="none" stroke-width="0" fill="#5A5A5A" style="fill:#5A5A5A !important;stroke:#3D3D3D !important"></path><path d="M-80.9609375 -17 C-26.769985735366575 -17, 27.42096602926685 -17, 80.9609375 -17 M-80.9609375 -17 C-30.127383660644348 -17, 20.706170178711304 -17, 80.9609375 -17 M80.9609375 -17 C80.9609375 -17, 80.9609375 -17, 80.9609375 -17 M80.9609375 -17 C80.9609375 -17, 80.9609375 -17, 80.9609375 -17 M80.9609375 -17 C81.19485492586 -16.99249872344532, 81.42877235172001 -16.984997446890635, 82.05013123967211 -16.965071676755716 M80.9609375 -17 C81.19393167103269 -16.992528330430623, 81.42692584206539 -16.985056660861247, 82.05013123967211 -16.965071676755716 M82.05013123967211 -16.965071676755716 C82.42686057852401 -16.928729050519994, 82.8035899173759 -16.89238642428427, 83.1348492486366 -16.860430234995185 M82.05013123967211 -16.965071676755716 C82.47070783650362 -16.924499158276742, 82.89128443333513 -16.883926639797767, 83.1348492486366 -16.860430234995185 M83.1348492486366 -16.860430234995185 C83.46330757620835 -16.807327639825758, 83.79176590378012 -16.75422504465633, 84.21063418792333 -16.686505668848113 M83.1348492486366 -16.860430234995185 C83.51988954294349 -16.79817990624373, 83.90492983725038 -16.73592957749227, 84.21063418792333 -16.686505668848113 M84.21063418792333 -16.686505668848113 C84.59404720329475 -16.598994150093336, 84.97746021866618 -16.511482631338556, 85.27306542646163 -16.4440126716635 M84.21063418792333 -16.686505668848113 C84.54433541412284 -16.610340541572082, 84.87803664032236 -16.53417541429605, 85.27306542646163 -16.4440126716635 M85.27306542646163 -16.4440126716635 C85.51356704984534 -16.372633052262, 85.75406867322904 -16.301253432860495, 86.31777720640156 -16.133947699181366 M85.27306542646163 -16.4440126716635 C85.63721351222058 -16.335935431262552, 86.00136159797952 -16.227858190861603, 86.31777720640156 -16.133947699181366 M86.31777720640156 -16.133947699181366 C86.64726427090446 -16.012693413699264, 86.97675133540736 -15.891439128217161, 87.34047658294936 -15.757584874882369 M86.31777720640156 -16.133947699181366 C86.61899926518075 -16.023095197084437, 86.92022132395994 -15.912242694987505, 87.34047658294936 -15.757584874882369 M87.34047658294936 -15.757584874882369 C87.71968917532774 -15.589718709178337, 88.09890176770612 -15.421852543474307, 88.33696106499849 -15.316470754341125 M87.34047658294936 -15.757584874882369 C87.70635768169134 -15.595620165946462, 88.07223878043334 -15.433655457010556, 88.33696106499849 -15.316470754341125 M88.33696106499849 -15.316470754341125 C88.56605855784173 -15.196950739068752, 88.79515605068498 -15.07743072379638, 89.30313588406693 -14.812417970097622 M88.33696106499849 -15.316470754341125 C88.64901823913507 -15.153670726476227, 88.96107541327166 -14.99087069861133, 89.30313588406693 -14.812417970097622 M89.30313588406693 -14.812417970097622 C89.5531481190569 -14.660859084011728, 89.80316035404687 -14.509300197925835, 90.23503082057933 -14.247497783161291 M89.30313588406693 -14.812417970097622 C89.63308094981822 -14.612403332266766, 89.9630260155695 -14.412388694435908, 90.23503082057933 -14.247497783161291 M90.23503082057933 -14.247497783161291 C90.54012577874336 -14.034676747693936, 90.8452207369074 -13.821855712226583, 91.12881651835067 -13.624031571755262 M90.23503082057933 -14.247497783161291 C90.48458940911455 -14.073416515016298, 90.73414799764979 -13.899335246871305, 91.12881651835067 -13.624031571755262 M91.12881651835067 -13.624031571755262 C91.46313912339868 -13.357418190927644, 91.79746172844666 -13.090804810100025, 91.9808202202324 -12.944581292275288 M91.12881651835067 -13.624031571755262 C91.41527448538437 -13.39558896601253, 91.70173245241809 -13.167146360269799, 91.9808202202324 -12.944581292275288 M91.9808202202324 -12.944581292275288 C92.24215059933069 -12.707247956401163, 92.50348097842895 -12.46991462052704, 92.78754086025927 -12.21193895166137 M91.9808202202324 -12.944581292275288 C92.17028554090426 -12.77251390101879, 92.35975086157612 -12.600446509762293, 92.78754086025927 -12.21193895166137 M92.78754086025927 -12.21193895166137 C93.01076686993764 -11.981439769472214, 93.23399287961601 -11.750940587283058, 93.54566345028036 -11.42911513444239 M92.78754086025927 -12.21193895166137 C93.02130845552736 -11.970554716870557, 93.25507605079545 -11.729170482079745, 93.54566345028036 -11.42911513444239 M93.54566345028036 -11.42911513444239 C93.79075400355386 -11.141217824519778, 94.03584455682737 -10.853320514597165, 94.25207270195651 -10.59932663159847 M93.54566345028036 -11.42911513444239 C93.7808502379576 -11.152851351129385, 94.01603702563483 -10.87658756781638, 94.25207270195651 -10.59932663159847 M94.25207270195651 -10.59932663159847 C94.43400016025056 -10.355560411416842, 94.61592761854462 -10.111794191235214, 94.90386582814824 -9.725983222076888 M94.25207270195651 -10.59932663159847 C94.42518543921966 -10.367371334560639, 94.59829817648283 -10.135416037522807, 94.90386582814824 -9.725983222076888 M94.90386582814824 -9.725983222076888 C95.02633236132841 -9.537841740243383, 95.14879889450859 -9.34970025840988, 95.49836447109088 -8.812673661278927 M94.90386582814824 -9.725983222076888 C95.12562813756662 -9.385296763292182, 95.347390446985 -9.044610304507476, 95.49836447109088 -8.812673661278927 M95.49836447109088 -8.812673661278927 C95.66919953781996 -8.509338701375102, 95.84003460454905 -8.206003741471278, 96.033125708341 -7.863150934094199 M95.49836447109088 -8.812673661278927 C95.69344505334969 -8.466288333427412, 95.88852563560849 -8.1199030055759, 96.033125708341 -7.863150934094199 M96.033125708341 -7.863150934094199 C96.12780510918762 -7.666547132421558, 96.22248451003423 -7.469943330748915, 96.50595209126881 -6.881316833080699 M96.033125708341 -7.863150934094199 C96.18699103040791 -7.543646300631769, 96.34085635247482 -7.224141667169338, 96.50595209126881 -6.881316833080699 M96.50595209126881 -6.881316833080699 C96.61892759199714 -6.602265162049006, 96.73190309272547 -6.323213491017314, 96.91490067484592 -5.871205925162238 M96.50595209126881 -6.881316833080699 C96.65798107843322 -6.505802295504096, 96.81001006559764 -6.130287757927494, 96.91490067484592 -5.871205925162238 M96.91490067484592 -5.871205925162238 C97.04897128276738 -5.467406615353284, 97.18304189068883 -5.0636073055443305, 97.25829100162323 -4.836968972727556 M96.91490067484592 -5.871205925162238 C97.01462362573838 -5.570856285768652, 97.11434657663084 -5.2705066463750665, 97.25829100162323 -4.836968972727556 M97.25829100162323 -4.836968972727556 C97.32087446584472 -4.598311099806061, 97.3834579300662 -4.359653226884565, 97.534712007091 -3.7828558772573464 M97.25829100162323 -4.836968972727556 C97.35368823653235 -4.473177970595933, 97.44908547144148 -4.109386968464309, 97.534712007091 -3.7828558772573464 M97.534712007091 -3.7828558772573464 C97.59311687480985 -3.4829592253942057, 97.6515217425287 -3.183062573531065, 97.74302781804565 -2.713198215567453 M97.534712007091 -3.7828558772573464 C97.60475444459108 -3.4232027641688307, 97.67479688209116 -3.0635496510803146, 97.74302781804565 -2.713198215567453 M97.74302781804565 -2.713198215567453 C97.77886466991882 -2.4352546692259587, 97.81470152179199 -2.157311122884465, 97.88238242013637 -1.632391440430593 M97.74302781804565 -2.713198215567453 C97.78269417146824 -2.405553811429275, 97.82236052489084 -2.097909407291097, 97.88238242013637 -1.632391440430593 M97.88238242013637 -1.632391440430593 C97.90328656290072 -1.306792543355515, 97.92419070566507 -0.9811936462804371, 97.9522031754117 -0.5448768187181379 M97.88238242013637 -1.632391440430593 C97.90295441085098 -1.3119660796384438, 97.9235264015656 -0.9915407188462945, 97.9522031754117 -0.5448768187181379 M97.9522031754117 -0.5448768187181379 C97.9522031754117 -0.18217936090931192, 97.9522031754117 0.18051809689951404, 97.9522031754117 0.5448768187181336 M97.9522031754117 -0.5448768187181379 C97.9522031754117 -0.21379224966613436, 97.9522031754117 0.11729231938586915, 97.9522031754117 0.5448768187181336 M97.9522031754117 0.5448768187181336 C97.9312009425559 0.8720035481443775, 97.9101987097001 1.1991302775706214, 97.88238242013637 1.6323914404305815 M97.9522031754117 0.5448768187181336 C97.93383728511263 0.8309403848058909, 97.91547139481357 1.1170039508936482, 97.88238242013637 1.6323914404305815 M97.88238242013637 1.6323914404305815 C97.84649129841515 1.910755892996765, 97.81060017669391 2.189120345562948, 97.74302781804565 2.7131982155674415 M97.88238242013637 1.6323914404305815 C97.85201661710991 1.8679026122977282, 97.82165081408345 2.103413784164875, 97.74302781804565 2.7131982155674415 M97.74302781804565 2.7131982155674415 C97.68198770445912 3.026626298001694, 97.62094759087259 3.340054380435946, 97.534712007091 3.782855877257343 M97.74302781804565 2.7131982155674415 C97.67418754140876 3.0666784867002694, 97.60534726477186 3.4201587578330974, 97.534712007091 3.782855877257343 M97.534712007091 3.782855877257343 C97.46742865760798 4.0394364496242465, 97.40014530812495 4.29601702199115, 97.25829100162323 4.836968972727545 M97.534712007091 3.782855877257343 C97.4365965908326 4.157012482941044, 97.33848117457418 4.531169088624745, 97.25829100162323 4.836968972727545 M97.25829100162323 4.836968972727545 C97.18830958482786 5.047741850090633, 97.11832816803249 5.258514727453721, 96.91490067484592 5.871205925162227 M97.25829100162323 4.836968972727545 C97.18562212627128 5.055836047074696, 97.11295325091932 5.274703121421847, 96.91490067484592 5.871205925162227 M96.91490067484592 5.871205925162227 C96.75304857750305 6.2709837347965465, 96.59119648016018 6.670761544430866, 96.50595209126881 6.881316833080694 M96.91490067484592 5.871205925162227 C96.76858209989827 6.232615634160143, 96.62226352495061 6.594025343158059, 96.50595209126881 6.881316833080694 M96.50595209126881 6.881316833080694 C96.40747113584912 7.085814644164559, 96.30899018042943 7.290312455248424, 96.033125708341 7.863150934094196 M96.50595209126881 6.881316833080694 C96.35318190756482 7.198547388300311, 96.20041172386084 7.515777943519926, 96.033125708341 7.863150934094196 M96.033125708341 7.863150934094196 C95.8677956190063 8.156711249194888, 95.7024655296716 8.450271564295582, 95.49836447109088 8.812673661278923 M96.033125708341 7.863150934094196 C95.89406634419899 8.110064916415883, 95.75500698005698 8.356978898737571, 95.49836447109088 8.812673661278923 M95.49836447109088 8.812673661278923 C95.34060184412891 9.05503942148954, 95.18283921716694 9.297405181700158, 94.90386582814826 9.725983222076879 M95.49836447109088 8.812673661278923 C95.34214695428173 9.052665717374646, 95.18592943747257 9.29265777347037, 94.90386582814826 9.725983222076879 M94.90386582814826 9.725983222076879 C94.68811992088014 10.015063082959669, 94.47237401361201 10.304142943842457, 94.25207270195651 10.599326631598467 M94.90386582814826 9.725983222076879 C94.64941072391133 10.066929880417469, 94.39495561967442 10.407876538758059, 94.25207270195651 10.599326631598467 M94.25207270195651 10.599326631598467 C93.9943601993721 10.90205040139094, 93.73664769678768 11.204774171183411, 93.54566345028037 11.42911513444238 M94.25207270195651 10.599326631598467 C94.09246303271865 10.786813231132713, 93.9328533634808 10.97429983066696, 93.54566345028037 11.42911513444238 M93.54566345028037 11.42911513444238 C93.28025755348457 11.703168513113402, 93.01485165668879 11.977221891784424, 92.78754086025927 12.211938951661365 M93.54566345028037 11.42911513444238 C93.32435051680955 11.657638908380767, 93.10303758333872 11.886162682319151, 92.78754086025927 12.211938951661365 M92.78754086025927 12.211938951661365 C92.5382825842452 12.438308722924766, 92.2890243082311 12.66467849418817, 91.98082022023242 12.944581292275275 M92.78754086025927 12.211938951661365 C92.55289358344973 12.425039400033057, 92.31824630664019 12.638139848404752, 91.98082022023242 12.944581292275275 M91.98082022023242 12.944581292275275 C91.6610872739558 13.199559808479838, 91.3413543276792 13.454538324684401, 91.12881651835067 13.62403157175526 M91.98082022023242 12.944581292275275 C91.70900234861148 13.161348811515632, 91.43718447699052 13.378116330755988, 91.12881651835067 13.62403157175526 M91.12881651835067 13.62403157175526 C90.94934851992555 13.749220678412192, 90.76988052150043 13.874409785069123, 90.23503082057934 14.247497783161286 M91.12881651835067 13.62403157175526 C90.83625158054049 13.828112207439615, 90.5436866427303 14.032192843123967, 90.23503082057934 14.247497783161286 M90.23503082057934 14.247497783161286 C89.8693351715133 14.469184634691295, 89.50363952244727 14.690871486221303, 89.30313588406695 14.81241797009762 M90.23503082057934 14.247497783161286 C89.95538034952968 14.417023542120175, 89.67572987848001 14.586549301079065, 89.30313588406695 14.81241797009762 M89.30313588406695 14.81241797009762 C88.93272774215508 15.005659660475303, 88.56231960024321 15.198901350852983, 88.33696106499849 15.316470754341124 M89.30313588406695 14.81241797009762 C88.9476361224553 14.997881968021954, 88.59213636084364 15.183345965946287, 88.33696106499849 15.316470754341124 M88.33696106499849 15.316470754341124 C88.04222706025175 15.446940755268896, 87.747493055505 15.577410756196667, 87.34047658294936 15.757584874882367 M88.33696106499849 15.316470754341124 C88.02334009433218 15.455301454819546, 87.70971912366588 15.594132155297967, 87.34047658294936 15.757584874882367 M87.34047658294936 15.757584874882367 C87.11151620585476 15.841844410139707, 86.88255582876015 15.926103945397047, 86.31777720640156 16.133947699181363 M87.34047658294936 15.757584874882367 C87.04633267893118 15.865832550597503, 86.75218877491298 15.97408022631264, 86.31777720640156 16.133947699181363 M86.31777720640156 16.133947699181363 C86.10776298308348 16.19627881827502, 85.89774875976539 16.25860993736867, 85.27306542646164 16.444012671663497 M86.31777720640156 16.133947699181363 C86.01303399804911 16.22439388379063, 85.70829078969665 16.314840068399896, 85.27306542646164 16.444012671663497 M85.27306542646164 16.444012671663497 C85.00814105413963 16.504479930852902, 84.74321668181761 16.564947190042307, 84.21063418792333 16.68650566884811 M85.27306542646164 16.444012671663497 C85.03745461707216 16.497789301402427, 84.80184380768269 16.551565931141358, 84.21063418792333 16.68650566884811 M84.21063418792333 16.68650566884811 C83.94115882986608 16.730072354926193, 83.67168347180885 16.773639041004273, 83.13484924863661 16.86043023499518 M84.21063418792333 16.68650566884811 C83.97791411896651 16.724130044825962, 83.74519405000967 16.76175442080381, 83.13484924863661 16.86043023499518 M83.13484924863661 16.86043023499518 C82.85019995296815 16.887890010207453, 82.5655506572997 16.915349785419725, 82.05013123967211 16.965071676755716 M83.13484924863661 16.86043023499518 C82.90388527382837 16.882711051870114, 82.67292129902013 16.904991868745043, 82.05013123967211 16.965071676755716 M82.05013123967211 16.965071676755716 C81.8097220955413 16.97278113007998, 81.56931295141051 16.980490583404244, 80.9609375 17 M82.05013123967211 16.965071676755716 C81.65835043321219 16.977635324663808, 81.26656962675227 16.9901989725719, 80.9609375 17 M80.9609375 17 C80.9609375 17, 80.9609375 17, 80.9609375 17 M80.9609375 17 C80.9609375 17, 80.9609375 17, 80.9609375 17 M80.9609375 17 C30.93130214337183 17, -19.09833321325634 17, -80.9609375 17 M80.9609375 17 C23.85085973963971 17, -33.25921802072058 17, -80.9609375 17 M-80.9609375 17 C-81.27263794935283 16.990004373277372, -81.58433839870567 16.98000874655475, -82.05013123967211 16.965071676755716 M-80.9609375 17 C-81.20497007564451 16.992174350279672, -81.44900265128902 16.984348700559348, -82.05013123967211 16.965071676755716 M-82.05013123967211 16.965071676755716 C-82.36722559086404 16.934481966057984, -82.68431994205598 16.90389225536025, -83.1348492486366 16.86043023499518 M-82.05013123967211 16.965071676755716 C-82.31998201829458 16.93903949668505, -82.58983279691705 16.913007316614383, -83.1348492486366 16.86043023499518 M-83.1348492486366 16.86043023499518 C-83.49007428653478 16.803000205679115, -83.84529932443296 16.745570176363053, -84.21063418792333 16.68650566884811 M-83.1348492486366 16.86043023499518 C-83.5120170634061 16.799452667683337, -83.8891848781756 16.738475100371495, -84.21063418792333 16.68650566884811 M-84.21063418792333 16.68650566884811 C-84.53192491389997 16.613173157261865, -84.85321563987662 16.539840645675625, -85.27306542646161 16.4440126716635 M-84.21063418792333 16.68650566884811 C-84.62418392038416 16.592115641078134, -85.03773365284496 16.49772561330816, -85.27306542646161 16.4440126716635 M-85.27306542646161 16.4440126716635 C-85.64402996336526 16.33391234434309, -86.0149945002689 16.22381201702268, -86.31777720640154 16.13394769918137 M-85.27306542646161 16.4440126716635 C-85.63906705282719 16.33538531013994, -86.00506867919276 16.22675794861638, -86.31777720640154 16.13394769918137 M-86.31777720640154 16.13394769918137 C-86.53119157052737 16.055409240402312, -86.74460593465318 15.976870781623255, -87.34047658294936 15.757584874882369 M-86.31777720640154 16.13394769918137 C-86.68587017328748 15.99848608475326, -87.05396314017341 15.86302447032515, -87.34047658294936 15.757584874882369 M-87.34047658294936 15.757584874882369 C-87.59828942798494 15.643458776131446, -87.8561022730205 15.529332677380525, -88.33696106499849 15.316470754341127 M-87.34047658294936 15.757584874882369 C-87.59683237796182 15.644103768954825, -87.85318817297427 15.530622663027282, -88.33696106499849 15.316470754341127 M-88.33696106499849 15.316470754341127 C-88.59248832413576 15.183162346922234, -88.84801558327302 15.049853939503341, -89.30313588406693 14.812417970097624 M-88.33696106499849 15.316470754341127 C-88.67729624868447 15.13891810700724, -89.01763143237045 14.961365459673354, -89.30313588406693 14.812417970097624 M-89.30313588406693 14.812417970097624 C-89.65456399102622 14.599380186438111, -90.00599209798551 14.386342402778599, -90.23503082057931 14.247497783161299 M-89.30313588406693 14.812417970097624 C-89.61389929635672 14.624031363319029, -89.92466270864652 14.435644756540434, -90.23503082057931 14.247497783161299 M-90.23503082057931 14.247497783161299 C-90.5532709763157 14.025507226913906, -90.87151113205208 13.803516670666511, -91.12881651835067 13.624031571755264 M-90.23503082057931 14.247497783161299 C-90.42075843161308 14.117942241722838, -90.60648604264686 13.988386700284378, -91.12881651835067 13.624031571755264 M-91.12881651835067 13.624031571755264 C-91.34922903475223 13.448258455348425, -91.56964155115377 13.272485338941584, -91.9808202202324 12.94458129227529 M-91.12881651835067 13.624031571755264 C-91.46765393640912 13.353817747696025, -91.80649135446758 13.083603923636788, -91.9808202202324 12.94458129227529 M-91.9808202202324 12.94458129227529 C-92.27678416799974 12.675794665689939, -92.57274811576707 12.40700803910459, -92.78754086025926 12.211938951661377 M-91.9808202202324 12.94458129227529 C-92.2821188010113 12.670949893135502, -92.58341738179017 12.397318493995712, -92.78754086025926 12.211938951661377 M-92.78754086025926 12.211938951661377 C-92.98422034456237 12.008851236432443, -93.18089982886549 11.805763521203508, -93.54566345028036 11.429115134442386 M-92.78754086025926 12.211938951661377 C-92.96350499988266 12.030241530575681, -93.13946913950605 11.848544109489985, -93.54566345028036 11.429115134442386 M-93.54566345028036 11.429115134442386 C-93.74974566875647 11.189388548013138, -93.95382788723259 10.94966196158389, -94.25207270195651 10.599326631598473 M-93.54566345028036 11.429115134442386 C-93.73138992516384 11.210950248908453, -93.9171164000473 10.992785363374521, -94.25207270195651 10.599326631598473 M-94.25207270195651 10.599326631598473 C-94.46449016700045 10.314706580068746, -94.6769076320444 10.03008652853902, -94.90386582814824 9.72598322207689 M-94.25207270195651 10.599326631598473 C-94.45204651761759 10.331379936602, -94.65202033327868 10.063433241605527, -94.90386582814824 9.72598322207689 M-94.90386582814824 9.72598322207689 C-95.0653412665802 9.477913586418902, -95.22681670501215 9.229843950760916, -95.49836447109088 8.812673661278936 M-94.90386582814824 9.72598322207689 C-95.05997462146816 9.486158194456994, -95.21608341478807 9.246333166837097, -95.49836447109088 8.812673661278936 M-95.49836447109088 8.812673661278936 C-95.70651438534344 8.443082411059137, -95.914664299596 8.073491160839339, -96.033125708341 7.863150934094201 M-95.49836447109088 8.812673661278936 C-95.64838911526437 8.546289713906363, -95.79841375943785 8.27990576653379, -96.033125708341 7.863150934094201 M-96.033125708341 7.863150934094201 C-96.21266610687198 7.490331454995521, -96.39220650540294 7.117511975896839, -96.50595209126881 6.881316833080701 M-96.033125708341 7.863150934094201 C-96.13993526895415 7.641358596122517, -96.24674482956729 7.419566258150834, -96.50595209126881 6.881316833080701 M-96.50595209126881 6.881316833080701 C-96.59170271659848 6.669511130640861, -96.67745334192814 6.45770542820102, -96.91490067484592 5.87120592516224 M-96.50595209126881 6.881316833080701 C-96.6330100632887 6.5674811856928095, -96.76006803530858 6.2536455383049185, -96.91490067484592 5.87120592516224 M-96.91490067484592 5.87120592516224 C-96.99088530075352 5.642352338434601, -97.06686992666111 5.413498751706962, -97.25829100162323 4.8369689727275516 M-96.91490067484592 5.87120592516224 C-97.02652821847536 5.535001549184122, -97.13815576210482 5.198797173206002, -97.25829100162323 4.8369689727275516 M-97.25829100162323 4.8369689727275516 C-97.35044039642469 4.485563392549262, -97.44258979122614 4.134157812370973, -97.534712007091 3.782855877257349 M-97.25829100162323 4.8369689727275516 C-97.31371825611134 4.625600829040351, -97.36914551059945 4.414232685353152, -97.534712007091 3.782855877257349 M-97.534712007091 3.782855877257349 C-97.5890065270869 3.504064992229335, -97.64330104708277 3.225274107201322, -97.74302781804565 2.713198215567455 M-97.534712007091 3.782855877257349 C-97.58582689540773 3.520391728886362, -97.63694178372448 3.257927580515375, -97.74302781804565 2.713198215567455 M-97.74302781804565 2.713198215567455 C-97.79356521593016 2.3212401373131315, -97.84410261381468 1.9292820590588082, -97.88238242013637 1.6323914404306026 M-97.74302781804565 2.713198215567455 C-97.77469842165988 2.4675672680035787, -97.80636902527411 2.2219363204397022, -97.88238242013637 1.6323914404306026 M-97.88238242013637 1.6323914404306026 C-97.89911037835984 1.3718399885351635, -97.91583833658332 1.1112885366397243, -97.9522031754117 0.54487681871814 M-97.88238242013637 1.6323914404306026 C-97.90879263767124 1.221030984381086, -97.93520285520611 0.8096705283315694, -97.9522031754117 0.54487681871814 M-97.9522031754117 0.54487681871814 C-97.9522031754117 0.22902811483942254, -97.9522031754117 -0.0868205890392949, -97.9522031754117 -0.5448768187181317 M-97.9522031754117 0.54487681871814 C-97.9522031754117 0.14258226879198066, -97.9522031754117 -0.25971228113417866, -97.9522031754117 -0.5448768187181317 M-97.9522031754117 -0.5448768187181317 C-97.93620661932555 -0.794036091947576, -97.9202100632394 -1.04319536517702, -97.88238242013637 -1.6323914404305793 M-97.9522031754117 -0.5448768187181317 C-97.93708531421868 -0.7803497097172607, -97.92196745302566 -1.0158226007163897, -97.88238242013637 -1.6323914404305793 M-97.88238242013637 -1.6323914404305793 C-97.85410992857788 -1.8516673019232497, -97.8258374370194 -2.07094316341592, -97.74302781804565 -2.713198215567447 M-97.88238242013637 -1.6323914404305793 C-97.85153566018094 -1.8716328192631142, -97.82068890022552 -2.110874198095649, -97.74302781804565 -2.713198215567447 M-97.74302781804565 -2.713198215567447 C-97.67792885745001 -3.047467619555809, -97.6128298968544 -3.3817370235441713, -97.534712007091 -3.782855877257341 M-97.74302781804565 -2.713198215567447 C-97.6861336831812 -3.0053375735167167, -97.62923954831676 -3.2974769314659866, -97.534712007091 -3.782855877257341 M-97.534712007091 -3.782855877257341 C-97.44860248337972 -4.111228811272115, -97.36249295966844 -4.43960174528689, -97.25829100162323 -4.836968972727544 M-97.534712007091 -3.782855877257341 C-97.45468280458286 -4.088041911296651, -97.37465360207473 -4.39322794533596, -97.25829100162323 -4.836968972727544 M-97.25829100162323 -4.836968972727544 C-97.15104983813744 -5.1599622705877675, -97.04380867465164 -5.4829555684479905, -96.91490067484594 -5.871205925162218 M-97.25829100162323 -4.836968972727544 C-97.16425426174027 -5.1201926505352455, -97.0702175218573 -5.4034163283429475, -96.91490067484594 -5.871205925162218 M-96.91490067484594 -5.871205925162218 C-96.80621360000781 -6.1396651013340175, -96.69752652516969 -6.4081242775058165, -96.50595209126881 -6.881316833080692 M-96.91490067484594 -5.871205925162218 C-96.75589630623156 -6.263949789780059, -96.59689193761719 -6.656693654397902, -96.50595209126881 -6.881316833080692 M-96.50595209126881 -6.881316833080692 C-96.35445744287684 -7.195898711932817, -96.20296279448488 -7.510480590784943, -96.033125708341 -7.863150934094194 M-96.50595209126881 -6.881316833080692 C-96.40447116033454 -7.092044157509789, -96.30299022940027 -7.302771481938884, -96.033125708341 -7.863150934094194 M-96.033125708341 -7.863150934094194 C-95.84060110551566 -8.20499786164061, -95.64807650269033 -8.546844789187027, -95.49836447109088 -8.812673661278929 M-96.033125708341 -7.863150934094194 C-95.86069121854993 -8.169325831603736, -95.68825672875884 -8.475500729113278, -95.49836447109088 -8.812673661278929 M-95.49836447109088 -8.812673661278929 C-95.3270961303967 -9.07578782457416, -95.15582778970251 -9.338901987869392, -94.90386582814826 -9.725983222076884 M-95.49836447109088 -8.812673661278929 C-95.35191752108044 -9.037655503007278, -95.20547057107 -9.262637344735625, -94.90386582814826 -9.725983222076884 M-94.90386582814826 -9.725983222076884 C-94.74021121750573 -9.94526549109612, -94.5765566068632 -10.164547760115353, -94.25207270195651 -10.599326631598467 M-94.90386582814826 -9.725983222076884 C-94.71880868717551 -9.97394293192799, -94.53375154620277 -10.221902641779096, -94.25207270195651 -10.599326631598467 M-94.25207270195651 -10.599326631598467 C-94.09874911214496 -10.779429244550526, -93.94542552233341 -10.959531857502583, -93.54566345028037 -11.42911513444238 M-94.25207270195651 -10.599326631598467 C-94.0548276850456 -10.831021852021433, -93.8575826681347 -11.062717072444396, -93.54566345028037 -11.42911513444238 M-93.54566345028037 -11.42911513444238 C-93.27900474226976 -11.704462143550414, -93.01234603425915 -11.979809152658445, -92.78754086025927 -12.21193895166136 M-93.54566345028037 -11.42911513444238 C-93.25694118275547 -11.727244580200846, -92.96821891523057 -12.025374025959312, -92.78754086025927 -12.21193895166136 M-92.78754086025927 -12.21193895166136 C-92.62055705733752 -12.363589223325572, -92.45357325441577 -12.515239494989787, -91.98082022023242 -12.944581292275274 M-92.78754086025927 -12.21193895166136 C-92.54059257981855 -12.436210846064167, -92.29364429937783 -12.660482740466973, -91.98082022023242 -12.944581292275274 M-91.98082022023242 -12.944581292275274 C-91.64619069308685 -13.211439435308165, -91.31156116594128 -13.478297578341056, -91.12881651835067 -13.624031571755259 M-91.98082022023242 -12.944581292275274 C-91.72385995620746 -13.149500264835366, -91.46689969218252 -13.354419237395458, -91.12881651835067 -13.624031571755259 M-91.12881651835067 -13.624031571755259 C-90.92365500380642 -13.767143363002516, -90.71849348926214 -13.910255154249771, -90.23503082057934 -14.247497783161284 M-91.12881651835067 -13.624031571755259 C-90.90709940625067 -13.778691831177133, -90.68538229415067 -13.933352090599007, -90.23503082057934 -14.247497783161284 M-90.23503082057934 -14.247497783161284 C-89.89883740433012 -14.451300207783374, -89.56264398808091 -14.655102632405463, -89.30313588406695 -14.812417970097618 M-90.23503082057934 -14.247497783161284 C-89.95860504860879 -14.415068710587981, -89.68217927663824 -14.582639638014678, -89.30313588406695 -14.812417970097618 M-89.30313588406695 -14.812417970097618 C-89.03817388797019 -14.95064847374504, -88.77321189187342 -15.088878977392463, -88.33696106499849 -15.316470754341124 M-89.30313588406695 -14.812417970097618 C-89.09299867491772 -14.922046417511462, -88.8828614657685 -15.031674864925304, -88.33696106499849 -15.316470754341124 M-88.33696106499849 -15.316470754341124 C-88.11064015079734 -15.416656309486589, -87.88431923659618 -15.516841864632054, -87.34047658294936 -15.757584874882365 M-88.33696106499849 -15.316470754341124 C-88.10845805810256 -15.41762225719309, -87.87995505120661 -15.518773760045056, -87.34047658294936 -15.757584874882365 M-87.34047658294936 -15.757584874882365 C-87.04563639227399 -15.866088790523749, -86.75079620159862 -15.974592706165135, -86.31777720640156 -16.133947699181363 M-87.34047658294936 -15.757584874882365 C-86.96041119191904 -15.89745245206749, -86.5803458008887 -16.037320029252616, -86.31777720640156 -16.133947699181363 M-86.31777720640156 -16.133947699181363 C-86.01335124593527 -16.22429972628328, -85.708925285469 -16.3146517533852, -85.27306542646164 -16.444012671663494 M-86.31777720640156 -16.133947699181363 C-86.03471612400818 -16.217958742617775, -85.7516550416148 -16.30196978605419, -85.27306542646164 -16.444012671663494 M-85.27306542646164 -16.444012671663494 C-85.0382405913795 -16.497609907895733, -84.80341575629737 -16.551207144127975, -84.21063418792333 -16.68650566884811 M-85.27306542646164 -16.444012671663494 C-84.93228609399685 -16.521793330505613, -84.59150676153206 -16.599573989347736, -84.21063418792333 -16.68650566884811 M-84.21063418792333 -16.68650566884811 C-83.81975722990083 -16.749699624125107, -83.42888027187834 -16.8128935794021, -83.13484924863661 -16.86043023499518 M-84.21063418792333 -16.68650566884811 C-83.84329356499047 -16.74589445199482, -83.47595294205762 -16.805283235141523, -83.13484924863661 -16.86043023499518 M-83.13484924863661 -16.86043023499518 C-82.71259004594539 -16.901165072437813, -82.29033084325415 -16.941899909880448, -82.05013123967213 -16.965071676755716 M-83.13484924863661 -16.86043023499518 C-82.91780393961794 -16.88136833492104, -82.70075863059928 -16.902306434846892, -82.05013123967213 -16.965071676755716 M-82.05013123967213 -16.965071676755716 C-81.74917541700039 -16.974722744213828, -81.44821959432865 -16.984373811671936, -80.9609375 -17 M-82.05013123967213 -16.965071676755716 C-81.7990034367834 -16.973124856603743, -81.54787563389468 -16.98117803645177, -80.9609375 -17 M-80.9609375 -17 C-80.9609375 -17, -80.9609375 -17, -80.9609375 -17 M-80.9609375 -17 C-80.9609375 -17, -80.9609375 -17, -80.9609375 -17" stroke="#3D3D3D" stroke-width="1.3" fill="none" stroke-dasharray="0 0" style="fill:#5A5A5A !important;stroke:#3D3D3D !important"></path></g><g class="label" style="color:#ffffff !important" transform="translate(0, -9.5)"><rect></rect><g><rect class="background" style="stroke: none"></rect><text y="-10.1" style="fill:#404040 !important"><tspan class="text-outer-tspan row" x="0" y="-0.1em" dy="1.1em"><tspan font-style="normal" class="text-inner-tspan" font-weight="normal">Need</tspan><tspan font-style="normal" class="text-inner-tspan" font-weight="normal"> to</tspan><tspan font-style="normal" class="text-inner-tspan" font-weight="normal"> split</tspan><tspan font-style="normal" class="text-inner-tspan" font-weight="normal"> a</tspan><tspan font-style="normal" class="text-inner-tspan" font-weight="normal"> frontend</tspan></tspan></text></g></g></g><g class="node default decision" id="g84823876-7367-4333-a172-fce802039941-dark-flowchart-q1-1" data-look="classic" transform="translate(593.5437469482422, 175.65937042236328)"><polygon points="83.65937423706055,0 167.3187484741211,-83.65937423706055 83.65937423706055,-167.3187484741211 0,-83.65937423706055" class="label-container" transform="translate(-83.15937423706055, 83.65937423706055)" style="fill:#8B5E15 !important;stroke:#6E4810 !important"></polygon><g class="label" style="color:#ffffff !important" transform="translate(0, -18.299999237060547)"><rect></rect><g><rect class="background" style="stroke: none"></rect><text y="-10.1" style="fill:#404040 !important"><tspan class="text-outer-tspan row" x="0" y="-0.1em" dy="1.1em"><tspan font-style="normal" class="text-inner-tspan" font-weight="normal">One</tspan><tspan font-style="normal" class="text-inner-tspan" font-weight="normal"> team</tspan><tspan font-style="normal" class="text-inner-tspan" font-weight="normal"> and</tspan></tspan><tspan class="text-outer-tspan row" x="0" y="1em" dy="1.1em"><tspan font-style="normal" class="text-inner-tspan" font-weight="normal">one</tspan><tspan font-style="normal" class="text-inner-tspan" font-weight="normal"> product?</tspan></tspan></text></g></g></g><g class="node default decision" id="g84823876-7367-4333-a172-fce802039941-dark-flowchart-q2-2" data-look="classic" transform="translate(362.4453125, 669.724983215332)"><polygon points="91.31562423706055,0 182.6312484741211,-91.31562423706055 91.31562423706055,-182.6312484741211 0,-91.31562423706055" class="label-container" transform="translate(-90.81562423706055, 91.31562423706055)" style="fill:#8B5E15 !important;stroke:#6E4810 !important"></polygon><g class="label" style="color:#ffffff !important" transform="translate(0, -18.299999237060547)"><rect></rect><g><rect class="background" style="stroke: none"></rect><text y="-10.1" style="fill:#404040 !important"><tspan class="text-outer-tspan row" x="0" y="-0.1em" dy="1.1em"><tspan font-style="normal" class="text-inner-tspan" font-weight="normal">SEO</tspan><tspan font-style="normal" class="text-inner-tspan" font-weight="normal"> and</tspan><tspan font-style="normal" class="text-inner-tspan" font-weight="normal"> TTFB</tspan></tspan><tspan class="text-outer-tspan row" x="0" y="1em" dy="1.1em"><tspan font-style="normal" class="text-inner-tspan" font-weight="normal">are</tspan><tspan font-style="normal" class="text-inner-tspan" font-weight="normal"> top</tspan><tspan font-style="normal" class="text-inner-tspan" font-weight="normal"> priority?</tspan></tspan></text></g></g></g><g class="node default decision" id="g84823876-7367-4333-a172-fce802039941-dark-flowchart-q3-3" data-look="classic" transform="translate(478.93906021118164, 418.86405181884766)"><polygon points="86.5453109741211,0 173.0906219482422,-86.5453109741211 86.5453109741211,-173.0906219482422 0,-86.5453109741211" class="label-container" transform="translate(-86.0453109741211, 86.5453109741211)" style="fill:#8B5E15 !important;stroke:#6E4810 !important"></polygon><g class="label" style="color:#ffffff !important" transform="translate(0, -27.099998474121094)"><rect></rect><g><rect class="background" style="stroke: none"></rect><text y="-10.1" style="fill:#404040 !important"><tspan class="text-outer-tspan row" x="0" y="-0.1em" dy="1.1em"><tspan font-style="normal" class="text-inner-tspan" font-weight="normal">Need</tspan><tspan font-style="normal" class="text-inner-tspan" font-weight="normal"> legacy</tspan></tspan><tspan class="text-outer-tspan row" x="0" y="1em" dy="1.1em"><tspan font-style="normal" class="text-inner-tspan" font-weight="normal">or</tspan><tspan font-style="normal" class="text-inner-tspan" font-weight="normal"> untrusted</tspan></tspan><tspan class="text-outer-tspan row" x="0" y="2.1em" dy="1.1em"><tspan font-style="normal" class="text-inner-tspan" font-weight="normal">isolation?</tspan></tspan></text></g></g></g><g class="node default decision" id="g84823876-7367-4333-a172-fce802039941-dark-flowchart-q4-4" data-look="classic" transform="translate(129.86328125, 934.0077896118164)"><polygon points="99.9671859741211,0 199.9343719482422,-99.9671859741211 99.9671859741211,-199.9343719482422 0,-99.9671859741211" class="label-container" transform="translate(-99.4671859741211, 99.9671859741211)" style="fill:#8B5E15 !important;stroke:#6E4810 !important"></polygon><g class="label" style="color:#ffffff !important" transform="translate(0, -27.099998474121094)"><rect></rect><g><rect class="background" style="stroke: none"></rect><text y="-10.1" style="fill:#404040 !important"><tspan class="text-outer-tspan row" x="0" y="-0.1em" dy="1.1em"><tspan font-style="normal" class="text-inner-tspan" font-weight="normal">Global</tspan><tspan font-style="normal" class="text-inner-tspan" font-weight="normal"> audience</tspan></tspan><tspan class="text-outer-tspan row" x="0" y="1em" dy="1.1em"><tspan font-style="normal" class="text-inner-tspan" font-weight="normal">and</tspan><tspan font-style="normal" class="text-inner-tspan" font-weight="normal"> cacheable</tspan></tspan><tspan class="text-outer-tspan row" x="0" y="2.1em" dy="1.1em"><tspan font-style="normal" class="text-inner-tspan" font-weight="normal">fragments?</tspan></tspan></text></g></g></g><g class="node default decision" id="g84823876-7367-4333-a172-fce802039941-dark-flowchart-q5-5" data-look="classic" transform="translate(595.02734375, 934.0077896118164)"><polygon points="96.57343673706055,0 193.1468734741211,-96.57343673706055 96.57343673706055,-193.1468734741211 0,-96.57343673706055" class="label-container" transform="translate(-96.07343673706055, 96.57343673706055)" style="fill:#8B5E15 !important;stroke:#6E4810 !important"></polygon><g class="label" style="color:#ffffff !important" transform="translate(0, -18.299999237060547)"><rect></rect><g><rect class="background" style="stroke: none"></rect><text y="-10.1" style="fill:#404040 !important"><tspan class="text-outer-tspan row" x="0" y="-0.1em" dy="1.1em"><tspan font-style="normal" class="text-inner-tspan" font-weight="normal">Heavy</tspan><tspan font-style="normal" class="text-inner-tspan" font-weight="normal"> interactive</tspan></tspan><tspan class="text-outer-tspan row" x="0" y="1em" dy="1.1em"><tspan font-style="normal" class="text-inner-tspan" font-weight="normal">shared</tspan><tspan font-style="normal" class="text-inner-tspan" font-weight="normal"> state?</tspan></tspan></text></g></g></g><g class="node default warn" id="g84823876-7367-4333-a172-fce802039941-dark-flowchart-mod-6" data-look="classic" transform="translate(708.1484336853027, 418.86405181884766)"><rect class="basic label-container" style="fill:#B43A3A !important;stroke:#8E2828 !important" x="-92.6640625" y="-33.29999923706055" width="185.328125" height="66.5999984741211"></rect><g class="label" style="color:#ffffff !important" transform="translate(0, -18.299999237060547)"><rect></rect><g><rect class="background" style="stroke: none"></rect><text y="-10.1" style="fill:#404040 !important"><tspan class="text-outer-tspan row" x="0" y="-0.1em" dy="1.1em"><tspan font-style="normal" class="text-inner-tspan" font-weight="normal">Modular</tspan><tspan font-style="normal" class="text-inner-tspan" font-weight="normal"> monolith</tspan></tspan><tspan class="text-outer-tspan row" x="0" y="1em" dy="1.1em"><tspan font-style="normal" class="text-inner-tspan" font-weight="normal">No</tspan><tspan font-style="normal" class="text-inner-tspan" font-weight="normal"> MFE</tspan></tspan></text></g></g></g><g class="node default result" id="g84823876-7367-4333-a172-fce802039941-dark-flowchart-iframe-7" data-look="classic" transform="translate(595.4328079223633, 669.724983215332)"><rect class="basic label-container" style="fill:#1F6E68 !important;stroke:#155752 !important" x="-91.671875" y="-42.099998474121094" width="183.34375" height="84.19999694824219"></rect><g class="label" style="color:#ffffff !important" transform="translate(0, -27.099998474121094)"><rect></rect><g><rect class="background" style="stroke: none"></rect><text y="-10.1" style="fill:#404040 !important"><tspan class="text-outer-tspan row" x="0" y="-0.1em" dy="1.1em"><tspan font-style="normal" class="text-inner-tspan" font-weight="normal">Iframes</tspan></tspan><tspan class="text-outer-tspan row" x="0" y="1em" dy="1.1em"><tspan font-style="normal" class="text-inner-tspan" font-weight="normal">or</tspan><tspan font-style="normal" class="text-inner-tspan" font-weight="normal"> sandboxed</tspan></tspan><tspan class="text-outer-tspan row" x="0" y="2.1em" dy="1.1em"><tspan font-style="normal" class="text-inner-tspan" font-weight="normal">Web</tspan><tspan font-style="normal" class="text-inner-tspan" font-weight="normal"> Components</tspan></tspan></text></g></g></g><g class="node default result" id="g84823876-7367-4333-a172-fce802039941-dark-flowchart-edge-8" data-look="classic" transform="translate(107.7578125, 1157.8749771118164)"><rect class="basic label-container" style="fill:#1F6E68 !important;stroke:#155752 !important" x="-99.7578125" y="-42.099998474121094" width="199.515625" height="84.19999694824219"></rect><g class="label" style="color:#ffffff !important" transform="translate(0, -27.099998474121094)"><rect></rect><g><rect class="background" style="stroke: none"></rect><text y="-10.1" style="fill:#404040 !important"><tspan class="text-outer-tspan row" x="0" y="-0.1em" dy="1.1em"><tspan font-style="normal" class="text-inner-tspan" font-weight="normal">Edge</tspan><tspan font-style="normal" class="text-inner-tspan" font-weight="normal"> composition</tspan></tspan><tspan class="text-outer-tspan row" x="0" y="1em" dy="1.1em"><tspan font-style="normal" class="text-inner-tspan" font-weight="normal">Workers</tspan><tspan font-style="normal" class="text-inner-tspan" font-weight="normal"> ·</tspan><tspan font-style="normal" class="text-inner-tspan" font-weight="normal"> ESI</tspan><tspan font-style="normal" class="text-inner-tspan" font-weight="normal"> ·</tspan><tspan font-style="normal" class="text-inner-tspan" font-weight="normal"> Web</tspan></tspan><tspan class="text-outer-tspan row" x="0" y="2.1em" dy="1.1em"><tspan font-style="normal" class="text-inner-tspan" font-weight="normal">Fragments</tspan></tspan></text></g></g></g><g class="node default result" id="g84823876-7367-4333-a172-fce802039941-dark-flowchart-server-9" data-look="classic" transform="translate(361.2734375, 1157.8749771118164)"><rect class="basic label-container" style="fill:#1F6E68 !important;stroke:#155752 !important" x="-103.7578125" y="-33.29999923706055" width="207.515625" height="66.5999984741211"></rect><g class="label" style="color:#ffffff !important" transform="translate(0, -18.299999237060547)"><rect></rect><g><rect class="background" style="stroke: none"></rect><text y="-10.1" style="fill:#404040 !important"><tspan class="text-outer-tspan row" x="0" y="-0.1em" dy="1.1em"><tspan font-style="normal" class="text-inner-tspan" font-weight="normal">Server</tspan><tspan font-style="normal" class="text-inner-tspan" font-weight="normal"> composition</tspan></tspan><tspan class="text-outer-tspan row" x="0" y="1em" dy="1.1em"><tspan font-style="normal" class="text-inner-tspan" font-weight="normal">SSR</tspan><tspan font-style="normal" class="text-inner-tspan" font-weight="normal"> ·</tspan><tspan font-style="normal" class="text-inner-tspan" font-weight="normal"> Tailor</tspan><tspan font-style="normal" class="text-inner-tspan" font-weight="normal"> ·</tspan><tspan font-style="normal" class="text-inner-tspan" font-weight="normal"> Podium</tspan></tspan></text></g></g></g><g class="node default result" id="g84823876-7367-4333-a172-fce802039941-dark-flowchart-client-10" data-look="classic" transform="translate(617.1328125, 1157.8749771118164)"><rect class="basic label-container" style="fill:#1F6E68 !important;stroke:#155752 !important" x="-102.1015625" y="-50.900001525878906" width="204.203125" height="101.80000305175781"></rect><g class="label" style="color:#ffffff !important" transform="translate(0, -35.900001525878906)"><rect></rect><g><rect class="background" style="stroke: none"></rect><text y="-10.1" style="fill:#404040 !important"><tspan class="text-outer-tspan row" x="0" y="-0.1em" dy="1.1em"><tspan font-style="normal" class="text-inner-tspan" font-weight="normal">Client</tspan><tspan font-style="normal" class="text-inner-tspan" font-weight="normal"> composition</tspan></tspan><tspan class="text-outer-tspan row" x="0" y="1em" dy="1.1em"><tspan font-style="normal" class="text-inner-tspan" font-weight="normal">Module</tspan><tspan font-style="normal" class="text-inner-tspan" font-weight="normal"> Federation</tspan><tspan font-style="normal" class="text-inner-tspan" font-weight="normal"> ·</tspan></tspan><tspan class="text-outer-tspan row" x="0" y="2.1em" dy="1.1em"><tspan font-style="normal" class="text-inner-tspan" font-weight="normal">Native</tspan><tspan font-style="normal" class="text-inner-tspan" font-weight="normal"> Federation</tspan><tspan font-style="normal" class="text-inner-tspan" font-weight="normal"> ·</tspan></tspan><tspan class="text-outer-tspan row" x="0" y="3.2em" dy="1.1em"><tspan font-style="normal" class="text-inner-tspan" font-weight="normal">single-spa</tspan></tspan></text></g></g></g></g></g></g><defs><filter id="g84823876-7367-4333-a172-fce802039941-dark-drop-shadow" height="130%" width="130%"><feDropShadow dx="4" dy="4" stdDeviation="0" flood-opacity="0.06" flood-color="#000000"></feDropShadow></filter></defs><defs><filter id="g84823876-7367-4333-a172-fce802039941-dark-drop-shadow-small" height="150%" width="150%"><feDropShadow dx="2" dy="2" stdDeviation="0" flood-opacity="0.06" flood-color="#000000"></feDropShadow></filter></defs><linearGradient id="g84823876-7367-4333-a172-fce802039941-dark-gradient" gradientUnits="objectBoundingBox" x1="0%" y1="0%" x2="100%" y2="0%"><stop offset="0%" stop-color="#555555" stop-opacity="1"></stop><stop offset="100%" stop-color="#555555" stop-opacity="1"></stop></linearGradient></svg>