<svg id="g04e62b38-728c-45c6-821f-8362775da5a8-dark" width="100%" xmlns="http://www.w3.org/2000/svg" xmlns:xlink="http://www.w3.org/1999/xlink" class="flowchart" style="max-width: 760.5546875px;" viewBox="0 0 760.5546875 748.765625" role="graphics-document document" aria-roledescription="flowchart-v2"><style>#g04e62b38-728c-45c6-821f-8362775da5a8-dark{font-family:"trebuchet ms",verdana,arial,sans-serif;font-size:16px;fill:#e5e5e5;}@keyframes edge-animation-frame{from{stroke-dashoffset:0;}}@keyframes dash{to{stroke-dashoffset:0;}}#g04e62b38-728c-45c6-821f-8362775da5a8-dark .edge-animation-slow{stroke-dasharray:9,5!important;stroke-dashoffset:900;animation:dash 50s linear infinite;stroke-linecap:round;}#g04e62b38-728c-45c6-821f-8362775da5a8-dark .edge-animation-fast{stroke-dasharray:9,5!important;stroke-dashoffset:900;animation:dash 20s linear infinite;stroke-linecap:round;}#g04e62b38-728c-45c6-821f-8362775da5a8-dark .error-icon{fill:#252525;}#g04e62b38-728c-45c6-821f-8362775da5a8-dark .error-text{fill:#cccccc;stroke:#cccccc;}#g04e62b38-728c-45c6-821f-8362775da5a8-dark .edge-thickness-normal{stroke-width:1px;}#g04e62b38-728c-45c6-821f-8362775da5a8-dark .edge-thickness-thick{stroke-width:3.5px;}#g04e62b38-728c-45c6-821f-8362775da5a8-dark .edge-pattern-solid{stroke-dasharray:0;}#g04e62b38-728c-45c6-821f-8362775da5a8-dark .edge-thickness-invisible{stroke-width:0;fill:none;}#g04e62b38-728c-45c6-821f-8362775da5a8-dark .edge-pattern-dashed{stroke-dasharray:3;}#g04e62b38-728c-45c6-821f-8362775da5a8-dark .edge-pattern-dotted{stroke-dasharray:2;}#g04e62b38-728c-45c6-821f-8362775da5a8-dark .marker{fill:#cccccc;stroke:#cccccc;}#g04e62b38-728c-45c6-821f-8362775da5a8-dark .marker.cross{stroke:#cccccc;}#g04e62b38-728c-45c6-821f-8362775da5a8-dark svg{font-family:"trebuchet ms",verdana,arial,sans-serif;font-size:16px;}#g04e62b38-728c-45c6-821f-8362775da5a8-dark p{margin:0;}#g04e62b38-728c-45c6-821f-8362775da5a8-dark .label{font-family:"trebuchet ms",verdana,arial,sans-serif;color:#e5e5e5;}#g04e62b38-728c-45c6-821f-8362775da5a8-dark .cluster-label text{fill:#e5e5e5;}#g04e62b38-728c-45c6-821f-8362775da5a8-dark .cluster-label span{color:#e5e5e5;}#g04e62b38-728c-45c6-821f-8362775da5a8-dark .cluster-label span p{background-color:transparent;}#g04e62b38-728c-45c6-821f-8362775da5a8-dark .label text,#g04e62b38-728c-45c6-821f-8362775da5a8-dark span{fill:#e5e5e5;color:#e5e5e5;}#g04e62b38-728c-45c6-821f-8362775da5a8-dark .node rect,#g04e62b38-728c-45c6-821f-8362775da5a8-dark .node circle,#g04e62b38-728c-45c6-821f-8362775da5a8-dark .node ellipse,#g04e62b38-728c-45c6-821f-8362775da5a8-dark .node polygon,#g04e62b38-728c-45c6-821f-8362775da5a8-dark .node path{fill:#2d2d2d;stroke:#555555;stroke-width:1px;}#g04e62b38-728c-45c6-821f-8362775da5a8-dark .rough-node .label text,#g04e62b38-728c-45c6-821f-8362775da5a8-dark .node .label text,#g04e62b38-728c-45c6-821f-8362775da5a8-dark .image-shape .label,#g04e62b38-728c-45c6-821f-8362775da5a8-dark .icon-shape .label{text-anchor:middle;}#g04e62b38-728c-45c6-821f-8362775da5a8-dark .node .katex path{fill:#000;stroke:#000;stroke-width:1px;}#g04e62b38-728c-45c6-821f-8362775da5a8-dark .rough-node .label,#g04e62b38-728c-45c6-821f-8362775da5a8-dark .node .label,#g04e62b38-728c-45c6-821f-8362775da5a8-dark .image-shape .label,#g04e62b38-728c-45c6-821f-8362775da5a8-dark .icon-shape .label{text-align:center;}#g04e62b38-728c-45c6-821f-8362775da5a8-dark .node.clickable{cursor:pointer;}#g04e62b38-728c-45c6-821f-8362775da5a8-dark .root .anchor path{fill:#cccccc!important;stroke-width:0;stroke:#cccccc;}#g04e62b38-728c-45c6-821f-8362775da5a8-dark .arrowheadPath{fill:#cccccc;}#g04e62b38-728c-45c6-821f-8362775da5a8-dark .edgePath .path{stroke:#cccccc;stroke-width:1px;}#g04e62b38-728c-45c6-821f-8362775da5a8-dark .flowchart-link{stroke:#cccccc;fill:none;}#g04e62b38-728c-45c6-821f-8362775da5a8-dark .edgeLabel{background-color:#1e1e1e;text-align:center;}#g04e62b38-728c-45c6-821f-8362775da5a8-dark .edgeLabel p{background-color:#1e1e1e;}#g04e62b38-728c-45c6-821f-8362775da5a8-dark .edgeLabel rect{opacity:0.5;background-color:#1e1e1e;fill:#1e1e1e;}#g04e62b38-728c-45c6-821f-8362775da5a8-dark .labelBkg{background-color:rgba(30, 30, 30, 0.5);}#g04e62b38-728c-45c6-821f-8362775da5a8-dark .cluster rect{fill:#1e1e1e;stroke:#555555;stroke-width:1px;}#g04e62b38-728c-45c6-821f-8362775da5a8-dark .cluster text{fill:#e5e5e5;}#g04e62b38-728c-45c6-821f-8362775da5a8-dark .cluster span{color:#e5e5e5;}#g04e62b38-728c-45c6-821f-8362775da5a8-dark div.mermaidTooltip{position:absolute;text-align:center;max-width:200px;padding:2px;font-family:"trebuchet ms",verdana,arial,sans-serif;font-size:12px;background:#252525;border:1px solid #555555;border-radius:2px;pointer-events:none;z-index:100;}#g04e62b38-728c-45c6-821f-8362775da5a8-dark .flowchartTitleText{text-anchor:middle;font-size:18px;fill:#e5e5e5;}#g04e62b38-728c-45c6-821f-8362775da5a8-dark rect.text{fill:none;stroke-width:0;}#g04e62b38-728c-45c6-821f-8362775da5a8-dark .icon-shape,#g04e62b38-728c-45c6-821f-8362775da5a8-dark .image-shape{background-color:#1e1e1e;text-align:center;}#g04e62b38-728c-45c6-821f-8362775da5a8-dark .icon-shape p,#g04e62b38-728c-45c6-821f-8362775da5a8-dark .image-shape p{background-color:#1e1e1e;padding:2px;}#g04e62b38-728c-45c6-821f-8362775da5a8-dark .icon-shape .label rect,#g04e62b38-728c-45c6-821f-8362775da5a8-dark .image-shape .label rect{opacity:0.5;background-color:#1e1e1e;fill:#1e1e1e;}#g04e62b38-728c-45c6-821f-8362775da5a8-dark .label-icon{display:inline-block;height:1em;overflow:visible;vertical-align:-0.125em;}#g04e62b38-728c-45c6-821f-8362775da5a8-dark .node .label-icon path{fill:currentColor;stroke:revert;stroke-width:revert;}#g04e62b38-728c-45c6-821f-8362775da5a8-dark .node .neo-node{stroke:#555555;}#g04e62b38-728c-45c6-821f-8362775da5a8-dark [data-look="neo"].node rect,#g04e62b38-728c-45c6-821f-8362775da5a8-dark [data-look="neo"].cluster rect,#g04e62b38-728c-45c6-821f-8362775da5a8-dark [data-look="neo"].node polygon{stroke:url(#g04e62b38-728c-45c6-821f-8362775da5a8-dark-gradient);filter:drop-shadow( 1px 2px 2px rgba(185,185,185,1));}#g04e62b38-728c-45c6-821f-8362775da5a8-dark [data-look="neo"].node path{stroke:url(#g04e62b38-728c-45c6-821f-8362775da5a8-dark-gradient);stroke-width:1px;}#g04e62b38-728c-45c6-821f-8362775da5a8-dark [data-look="neo"].node .outer-path{filter:drop-shadow( 1px 2px 2px rgba(185,185,185,1));}#g04e62b38-728c-45c6-821f-8362775da5a8-dark [data-look="neo"].node .neo-line path{stroke:#555555;filter:none;}#g04e62b38-728c-45c6-821f-8362775da5a8-dark [data-look="neo"].node circle{stroke:url(#g04e62b38-728c-45c6-821f-8362775da5a8-dark-gradient);filter:drop-shadow( 1px 2px 2px rgba(185,185,185,1));}#g04e62b38-728c-45c6-821f-8362775da5a8-dark [data-look="neo"].node circle .state-start{fill:#000000;}#g04e62b38-728c-45c6-821f-8362775da5a8-dark [data-look="neo"].icon-shape .icon{fill:url(#g04e62b38-728c-45c6-821f-8362775da5a8-dark-gradient);filter:drop-shadow( 1px 2px 2px rgba(185,185,185,1));}#g04e62b38-728c-45c6-821f-8362775da5a8-dark [data-look="neo"].icon-shape .icon-neo path{stroke:url(#g04e62b38-728c-45c6-821f-8362775da5a8-dark-gradient);filter:drop-shadow( 1px 2px 2px rgba(185,185,185,1));}#g04e62b38-728c-45c6-821f-8362775da5a8-dark :root{--mermaid-font-family:"trebuchet ms",verdana,arial,sans-serif;}#g04e62b38-728c-45c6-821f-8362775da5a8-dark .primaryC rect{fill:#2E5A88!important;stroke:#1F4870!important;color:#ffffff!important;}#g04e62b38-728c-45c6-821f-8362775da5a8-dark .primaryC polygon{fill:#2E5A88!important;stroke:#1F4870!important;color:#ffffff!important;}#g04e62b38-728c-45c6-821f-8362775da5a8-dark .primaryC ellipse{fill:#2E5A88!important;stroke:#1F4870!important;color:#ffffff!important;}#g04e62b38-728c-45c6-821f-8362775da5a8-dark .primaryC circle{fill:#2E5A88!important;stroke:#1F4870!important;color:#ffffff!important;}#g04e62b38-728c-45c6-821f-8362775da5a8-dark .primaryC path{fill:#2E5A88!important;stroke:#1F4870!important;color:#ffffff!important;}#g04e62b38-728c-45c6-821f-8362775da5a8-dark .primaryC tspan{fill:#ffffff!important;}#g04e62b38-728c-45c6-821f-8362775da5a8-dark .storageC rect{fill:#8B5E15!important;stroke:#6E4810!important;color:#ffffff!important;}#g04e62b38-728c-45c6-821f-8362775da5a8-dark .storageC polygon{fill:#8B5E15!important;stroke:#6E4810!important;color:#ffffff!important;}#g04e62b38-728c-45c6-821f-8362775da5a8-dark .storageC ellipse{fill:#8B5E15!important;stroke:#6E4810!important;color:#ffffff!important;}#g04e62b38-728c-45c6-821f-8362775da5a8-dark .storageC circle{fill:#8B5E15!important;stroke:#6E4810!important;color:#ffffff!important;}#g04e62b38-728c-45c6-821f-8362775da5a8-dark .storageC path{fill:#8B5E15!important;stroke:#6E4810!important;color:#ffffff!important;}#g04e62b38-728c-45c6-821f-8362775da5a8-dark .storageC tspan{fill:#ffffff!important;}#g04e62b38-728c-45c6-821f-8362775da5a8-dark .neutralC rect{fill:#5A5A5A!important;stroke:#3D3D3D!important;color:#ffffff!important;}#g04e62b38-728c-45c6-821f-8362775da5a8-dark .neutralC polygon{fill:#5A5A5A!important;stroke:#3D3D3D!important;color:#ffffff!important;}#g04e62b38-728c-45c6-821f-8362775da5a8-dark .neutralC ellipse{fill:#5A5A5A!important;stroke:#3D3D3D!important;color:#ffffff!important;}#g04e62b38-728c-45c6-821f-8362775da5a8-dark .neutralC circle{fill:#5A5A5A!important;stroke:#3D3D3D!important;color:#ffffff!important;}#g04e62b38-728c-45c6-821f-8362775da5a8-dark .neutralC path{fill:#5A5A5A!important;stroke:#3D3D3D!important;color:#ffffff!important;}#g04e62b38-728c-45c6-821f-8362775da5a8-dark .neutralC tspan{fill:#ffffff!important;}#g04e62b38-728c-45c6-821f-8362775da5a8-dark .alertC rect{fill:#B43A3A!important;stroke:#8E2828!important;color:#ffffff!important;}#g04e62b38-728c-45c6-821f-8362775da5a8-dark .alertC polygon{fill:#B43A3A!important;stroke:#8E2828!important;color:#ffffff!important;}#g04e62b38-728c-45c6-821f-8362775da5a8-dark .alertC ellipse{fill:#B43A3A!important;stroke:#8E2828!important;color:#ffffff!important;}#g04e62b38-728c-45c6-821f-8362775da5a8-dark .alertC circle{fill:#B43A3A!important;stroke:#8E2828!important;color:#ffffff!important;}#g04e62b38-728c-45c6-821f-8362775da5a8-dark .alertC path{fill:#B43A3A!important;stroke:#8E2828!important;color:#ffffff!important;}#g04e62b38-728c-45c6-821f-8362775da5a8-dark .alertC tspan{fill:#ffffff!important;}#g04e62b38-728c-45c6-821f-8362775da5a8-dark .successC rect{fill:#2D7A2D!important;stroke:#1E5A1E!important;color:#ffffff!important;}#g04e62b38-728c-45c6-821f-8362775da5a8-dark .successC polygon{fill:#2D7A2D!important;stroke:#1E5A1E!important;color:#ffffff!important;}#g04e62b38-728c-45c6-821f-8362775da5a8-dark .successC ellipse{fill:#2D7A2D!important;stroke:#1E5A1E!important;color:#ffffff!important;}#g04e62b38-728c-45c6-821f-8362775da5a8-dark .successC circle{fill:#2D7A2D!important;stroke:#1E5A1E!important;color:#ffffff!important;}#g04e62b38-728c-45c6-821f-8362775da5a8-dark .successC path{fill:#2D7A2D!important;stroke:#1E5A1E!important;color:#ffffff!important;}#g04e62b38-728c-45c6-821f-8362775da5a8-dark .successC tspan{fill:#ffffff!important;}</style><g><marker id="g04e62b38-728c-45c6-821f-8362775da5a8-dark_flowchart-v2-pointEnd" class="marker flowchart-v2" viewBox="0 0 10 10" refX="5" refY="5" markerUnits="userSpaceOnUse" markerWidth="8" markerHeight="8" orient="auto"><path d="M 0 0 L 10 5 L 0 10 z" class="arrowMarkerPath" style="stroke-width: 1; stroke-dasharray: 1, 0;"></path></marker><marker id="g04e62b38-728c-45c6-821f-8362775da5a8-dark_flowchart-v2-pointStart" class="marker flowchart-v2" viewBox="0 0 10 10" refX="4.5" refY="5" markerUnits="userSpaceOnUse" markerWidth="8" markerHeight="8" orient="auto"><path d="M 0 5 L 10 10 L 10 0 z" class="arrowMarkerPath" style="stroke-width: 1; stroke-dasharray: 1, 0;"></path></marker><marker id="g04e62b38-728c-45c6-821f-8362775da5a8-dark_flowchart-v2-pointEnd-margin" class="marker flowchart-v2" viewBox="0 0 11.5 14" refX="11.5" refY="7" markerUnits="userSpaceOnUse" markerWidth="10.5" markerHeight="14" orient="auto"><path d="M 0 0 L 11.5 7 L 0 14 z" class="arrowMarkerPath" style="stroke-width: 0; stroke-dasharray: 1, 0;"></path></marker><marker id="g04e62b38-728c-45c6-821f-8362775da5a8-dark_flowchart-v2-pointStart-margin" class="marker flowchart-v2" viewBox="0 0 11.5 14" refX="1" refY="7" markerUnits="userSpaceOnUse" markerWidth="11.5" markerHeight="14" orient="auto"><polygon points="0,7 11.5,14 11.5,0" class="arrowMarkerPath" style="stroke-width: 0; stroke-dasharray: 1, 0;"></polygon></marker><marker id="g04e62b38-728c-45c6-821f-8362775da5a8-dark_flowchart-v2-circleEnd" class="marker flowchart-v2" viewBox="0 0 10 10" refX="11" refY="5" markerUnits="userSpaceOnUse" markerWidth="11" markerHeight="11" orient="auto"><circle cx="5" cy="5" r="5" class="arrowMarkerPath" style="stroke-width: 1; stroke-dasharray: 1, 0;"></circle></marker><marker id="g04e62b38-728c-45c6-821f-8362775da5a8-dark_flowchart-v2-circleStart" class="marker flowchart-v2" viewBox="0 0 10 10" refX="-1" refY="5" markerUnits="userSpaceOnUse" markerWidth="11" markerHeight="11" orient="auto"><circle cx="5" cy="5" r="5" class="arrowMarkerPath" style="stroke-width: 1; stroke-dasharray: 1, 0;"></circle></marker><marker id="g04e62b38-728c-45c6-821f-8362775da5a8-dark_flowchart-v2-circleEnd-margin" class="marker flowchart-v2" viewBox="0 0 10 10" refY="5" refX="12.25" markerUnits="userSpaceOnUse" markerWidth="14" markerHeight="14" orient="auto"><circle cx="5" cy="5" r="5" class="arrowMarkerPath" style="stroke-width: 0; stroke-dasharray: 1, 0;"></circle></marker><marker id="g04e62b38-728c-45c6-821f-8362775da5a8-dark_flowchart-v2-circleStart-margin" class="marker flowchart-v2" viewBox="0 0 10 10" refX="-2" refY="5" markerUnits="userSpaceOnUse" markerWidth="14" markerHeight="14" orient="auto"><circle cx="5" cy="5" r="5" class="arrowMarkerPath" style="stroke-width: 0; stroke-dasharray: 1, 0;"></circle></marker><marker id="g04e62b38-728c-45c6-821f-8362775da5a8-dark_flowchart-v2-crossEnd" class="marker cross flowchart-v2" viewBox="0 0 11 11" refX="12" refY="5.2" markerUnits="userSpaceOnUse" markerWidth="11" markerHeight="11" orient="auto"><path d="M 1,1 l 9,9 M 10,1 l -9,9" class="arrowMarkerPath" style="stroke-width: 2; stroke-dasharray: 1, 0;"></path></marker><marker id="g04e62b38-728c-45c6-821f-8362775da5a8-dark_flowchart-v2-crossStart" class="marker cross flowchart-v2" viewBox="0 0 11 11" refX="-1" refY="5.2" markerUnits="userSpaceOnUse" markerWidth="11" markerHeight="11" orient="auto"><path d="M 1,1 l 9,9 M 10,1 l -9,9" class="arrowMarkerPath" style="stroke-width: 2; stroke-dasharray: 1, 0;"></path></marker><marker id="g04e62b38-728c-45c6-821f-8362775da5a8-dark_flowchart-v2-crossEnd-margin" class="marker cross flowchart-v2" viewBox="0 0 15 15" refX="17.7" refY="7.5" markerUnits="userSpaceOnUse" markerWidth="12" markerHeight="12" orient="auto"><path d="M 1,1 L 14,14 M 1,14 L 14,1" class="arrowMarkerPath" style="stroke-width: 2.5;"></path></marker><marker id="g04e62b38-728c-45c6-821f-8362775da5a8-dark_flowchart-v2-crossStart-margin" class="marker cross flowchart-v2" viewBox="0 0 15 15" refX="-3.5" refY="7.5" markerUnits="userSpaceOnUse" markerWidth="12" markerHeight="12" orient="auto"><path d="M 1,1 L 14,14 M 1,14 L 14,1" class="arrowMarkerPath" style="stroke-width: 2.5; stroke-dasharray: 1, 0;"></path></marker><g class="root"><g class="clusters"></g><g class="edgePaths"><path d="M315.242,42.5L315.159,46.583C315.076,50.667,314.909,58.833,314.826,66.417C314.742,74,314.742,81,314.742,84.5L314.742,88" id="g04e62b38-728c-45c6-821f-8362775da5a8-dark-L_viewer_policy_0" class="edge-thickness-normal edge-pattern-solid edge-thickness-normal edge-pattern-solid flowchart-link" style=";" data-edge="true" data-et="edge" data-id="L_viewer_policy_0" data-points="W3sieCI6MzE1LjI0MjE4NzUsInkiOjQyLjV9LHsieCI6MzE0Ljc0MjE4NzUsInkiOjY3fSx7IngiOjMxNC43NDIxODc1LCJ5Ijo5Mn1d" data-look="classic" marker-end="url(#g04e62b38-728c-45c6-821f-8362775da5a8-dark_flowchart-v2-pointEnd)"></path><path d="M263.537,276.161L251.148,292.245C238.759,308.329,213.981,340.497,201.592,363.465C189.203,386.432,189.203,400.199,189.203,407.082L189.203,413.966" id="g04e62b38-728c-45c6-821f-8362775da5a8-dark-L_policy_prim_0" class="edge-thickness-normal edge-pattern-solid edge-thickness-normal edge-pattern-solid flowchart-link" style=";" data-edge="true" data-et="edge" data-id="L_policy_prim_0" data-points="W3sieCI6MjYzLjUzNzA5MTgwNDgxNiwieSI6Mjc2LjE2MDUzNTQwODMzMTZ9LHsieCI6MTg5LjIwMzEyNSwieSI6MzcyLjY2NTYzMDM0MDU3NjJ9LHsieCI6MTg5LjIwMzEyNSwieSI6NDE3Ljk2NTYyOTU3NzYzNjd9XQ==" data-look="classic" marker-end="url(#g04e62b38-728c-45c6-821f-8362775da5a8-dark_flowchart-v2-pointEnd)"></path><path d="M365.947,276.161L378.336,292.245C390.725,308.329,415.503,340.497,427.892,363.465C440.281,386.432,440.281,400.199,440.281,407.082L440.281,413.966" id="g04e62b38-728c-45c6-821f-8362775da5a8-dark-L_policy_stg_0" class="edge-thickness-normal edge-pattern-solid edge-thickness-normal edge-pattern-solid flowchart-link" style=";" data-edge="true" data-et="edge" data-id="L_policy_stg_0" data-points="W3sieCI6MzY1Ljk0NzI4MzE5NTE4NDA3LCJ5IjoyNzYuMTYwNTM1NDA4MzMxNTV9LHsieCI6NDQwLjI4MTI1LCJ5IjozNzIuNjY1NjMwMzQwNTc2Mn0seyJ4Ijo0NDAuMjgxMjUsInkiOjQxNy45NjU2Mjk1Nzc2MzY3fV0=" data-look="classic" marker-end="url(#g04e62b38-728c-45c6-821f-8362775da5a8-dark_flowchart-v2-pointEnd)"></path><path d="M127.457,484.566L119.731,488.732C112.005,492.899,96.553,501.232,88.828,508.899C81.102,516.566,81.102,523.566,81.102,527.066L81.102,530.566" id="g04e62b38-728c-45c6-821f-8362775da5a8-dark-L_prim_s3prod_0" class="edge-thickness-normal edge-pattern-solid edge-thickness-normal edge-pattern-solid flowchart-link" style=";" data-edge="true" data-et="edge" data-id="L_prim_s3prod_0" data-points="W3sieCI6MTI3LjQ1NzI5MzE2NjY2NTc5LCJ5Ijo0ODQuNTY1NjI4MDUxNzU3OH0seyJ4Ijo4MS4xMDE1NjI1LCJ5Ijo1MDkuNTY1NjI4MDUxNzU3OH0seyJ4Ijo4MS4xMDE1NjI1LCJ5Ijo1MzQuNTY1NjI4MDUxNzU3OH1d" data-look="classic" marker-end="url(#g04e62b38-728c-45c6-821f-8362775da5a8-dark_flowchart-v2-pointEnd)"></path><path d="M362.864,484.566L353.177,488.732C343.49,492.899,324.116,501.232,314.429,508.899C304.742,516.566,304.742,523.566,304.742,527.066L304.742,530.566" id="g04e62b38-728c-45c6-821f-8362775da5a8-dark-L_stg_s3new_0" class="edge-thickness-normal edge-pattern-solid edge-thickness-normal edge-pattern-solid flowchart-link" style=";" data-edge="true" data-et="edge" data-id="L_stg_s3new_0" data-points="W3sieCI6MzYyLjg2MzU3MDEyMTY2NTUsInkiOjQ4NC41NjU2MjgwNTE3NTc4fSx7IngiOjMwNC43NDIxODc1LCJ5Ijo1MDkuNTY1NjI4MDUxNzU3OH0seyJ4IjozMDQuNzQyMTg3NSwieSI6NTM0LjU2NTYyODA1MTc1Nzh9XQ==" data-look="classic" marker-end="url(#g04e62b38-728c-45c6-821f-8362775da5a8-dark_flowchart-v2-pointEnd)"></path><path d="M290.477,475.545L314.127,481.215C337.777,486.885,385.078,498.226,417.096,507.781C449.114,517.337,465.849,525.109,474.217,528.995L482.584,532.881" id="g04e62b38-728c-45c6-821f-8362775da5a8-dark-L_prim_metrics_0" class="edge-thickness-normal edge-pattern-solid edge-thickness-normal edge-pattern-solid flowchart-link" style=";" data-edge="true" data-et="edge" data-id="L_prim_metrics_0" data-points="W3sieCI6MjkwLjQ3NjU2MjUsInkiOjQ3NS41NDUzNTQ3NzUyMTM3NX0seyJ4Ijo0MzIuMzc4OTA2MjUsInkiOjUwOS41NjU2MjgwNTE3NTc4fSx7IngiOjQ4Ni4yMTIxMjQxNTAwMjU1LCJ5Ijo1MzQuNTY1NjI4MDUxNzU3OH1d" data-look="classic" marker-end="url(#g04e62b38-728c-45c6-821f-8362775da5a8-dark_flowchart-v2-pointEnd)"></path><path d="M513.185,484.566L522.307,488.732C531.429,492.899,549.674,501.232,558.194,508.909C566.714,516.585,565.51,523.604,564.908,527.114L564.306,530.623" id="g04e62b38-728c-45c6-821f-8362775da5a8-dark-L_stg_metrics_0" class="edge-thickness-normal edge-pattern-solid edge-thickness-normal edge-pattern-solid flowchart-link" style=";" data-edge="true" data-et="edge" data-id="L_stg_metrics_0" data-points="W3sieCI6NTEzLjE4NTI0MTI5NzAzNjgsInkiOjQ4NC41NjU2MjgwNTE3NTc4fSx7IngiOjU2Ny45MTc5Njg3NSwieSI6NTA5LjU2NTYyODA1MTc1Nzh9LHsieCI6NTYzLjYyOTgwNDAyODM2LCJ5Ijo1MzQuNTY1NjI4MDUxNzU3OH1d" data-look="classic" marker-end="url(#g04e62b38-728c-45c6-821f-8362775da5a8-dark_flowchart-v2-pointEnd)"></path><path d="M505.072,601.166L495.418,607.249C485.764,613.332,466.456,625.499,456.802,636.999C447.148,648.499,447.148,659.332,447.148,664.749L447.148,670.166" id="g04e62b38-728c-45c6-821f-8362775da5a8-dark-L_metrics_promote_0" class="edge-thickness-normal edge-pattern-solid edge-thickness-normal edge-pattern-solid flowchart-link" style=";" data-edge="true" data-et="edge" data-id="L_metrics_promote_0" data-points="W3sieCI6NTA1LjA3MjMzMzQxNDI4OTc0LCJ5Ijo2MDEuMTY1NjI2NTI1ODc4OX0seyJ4Ijo0NDcuMTQ4NDM3NSwieSI6NjM3LjY2NTYyNjUyNTg3ODl9LHsieCI6NDQ3LjE0ODQzNzUsInkiOjY3NC4xNjU2MjY1MjU4Nzg5fV0=" data-look="classic" marker-end="url(#g04e62b38-728c-45c6-821f-8362775da5a8-dark_flowchart-v2-pointEnd)"></path><path d="M610.764,601.166L620.418,607.249C630.072,613.332,649.38,625.499,659.034,636.999C668.688,648.499,668.688,659.332,668.688,664.749L668.688,670.166" id="g04e62b38-728c-45c6-821f-8362775da5a8-dark-L_metrics_rollback_0" class="edge-thickness-normal edge-pattern-solid edge-thickness-normal edge-pattern-solid flowchart-link" style=";" data-edge="true" data-et="edge" data-id="L_metrics_rollback_0" data-points="W3sieCI6NjEwLjc2MzYwNDA4NTcxMDIsInkiOjYwMS4xNjU2MjY1MjU4Nzg5fSx7IngiOjY2OC42ODc1LCJ5Ijo2MzcuNjY1NjI2NTI1ODc4OX0seyJ4Ijo2NjguNjg3NSwieSI6Njc0LjE2NTYyNjUyNTg3ODl9XQ==" data-look="classic" marker-end="url(#g04e62b38-728c-45c6-821f-8362775da5a8-dark_flowchart-v2-pointEnd)"></path></g><g class="edgeLabels"><g class="edgeLabel"><g class="label" data-id="L_viewer_policy_0" transform="translate(0, 0)"><text y="-10.1" text-anchor="middle"><tspan class="text-outer-tspan row" x="0" y="-0.1em" dy="1.1em" text-anchor="middle"></tspan></text></g></g><g><rect class="background" style="stroke: none"></rect></g><g class="edgeLabel" transform="translate(189.203125, 372.6656303405762)"><g class="label" data-id="L_policy_prim_0" transform="translate(0, -10.5)"><g><rect class="background" style="" x="-95.0234375" y="-1" width="190.046875" height="23"></rect><text y="-10.1" text-anchor="middle" style=""><tspan class="text-outer-tspan row" x="0" y="-0.1em" dy="1.1em" text-anchor="middle"><tspan font-style="normal" class="text-inner-tspan" font-weight="normal">weight</tspan><tspan font-style="normal" class="text-inner-tspan" font-weight="normal"> 95%</tspan><tspan font-style="normal" class="text-inner-tspan" font-weight="normal"> or</tspan><tspan font-style="normal" class="text-inner-tspan" font-weight="normal"> cookie</tspan><tspan font-style="normal" class="text-inner-tspan" font-weight="normal"> miss</tspan></tspan></text></g></g></g><g class="edgeLabel" transform="translate(440.28125, 372.6656303405762)"><g class="label" data-id="L_policy_stg_0" transform="translate(0, -19.299999237060547)"><g><rect class="background" style="" x="-98.3828125" y="-1" width="196.765625" height="40.599998474121094"></rect><text y="-10.1" text-anchor="middle" style=""><tspan class="text-outer-tspan row" x="0" y="-0.1em" dy="1.1em" text-anchor="middle"><tspan font-style="normal" class="text-inner-tspan" font-weight="normal">weight</tspan><tspan font-style="normal" class="text-inner-tspan" font-weight="normal"> 5%</tspan><tspan font-style="normal" class="text-inner-tspan" font-weight="normal"> or</tspan><tspan font-style="normal" class="text-inner-tspan" font-weight="normal"> session-sticky</tspan></tspan><tspan class="text-outer-tspan row" x="0" y="1em" dy="1.1em" text-anchor="middle"><tspan font-style="normal" class="text-inner-tspan" font-weight="normal">header</tspan></tspan></text></g></g></g><g class="edgeLabel"><g class="label" data-id="L_prim_s3prod_0" transform="translate(0, 0)"><text y="-10.1" text-anchor="middle"><tspan class="text-outer-tspan row" x="0" y="-0.1em" dy="1.1em" text-anchor="middle"></tspan></text></g></g><g><rect class="background" style="stroke: none"></rect></g><g class="edgeLabel"><g class="label" data-id="L_stg_s3new_0" transform="translate(0, 0)"><text y="-10.1" text-anchor="middle"><tspan class="text-outer-tspan row" x="0" y="-0.1em" dy="1.1em" text-anchor="middle"></tspan></text></g></g><g><rect class="background" style="stroke: none"></rect></g><g class="edgeLabel"><g class="label" data-id="L_prim_metrics_0" transform="translate(0, 0)"><text y="-10.1" text-anchor="middle"><tspan class="text-outer-tspan row" x="0" y="-0.1em" dy="1.1em" text-anchor="middle"></tspan></text></g></g><g><rect class="background" style="stroke: none"></rect></g><g class="edgeLabel"><g class="label" data-id="L_stg_metrics_0" transform="translate(0, 0)"><text y="-10.1" text-anchor="middle"><tspan class="text-outer-tspan row" x="0" y="-0.1em" dy="1.1em" text-anchor="middle"></tspan></text></g></g><g><rect class="background" style="stroke: none"></rect></g><g class="edgeLabel" transform="translate(447.1484375, 637.6656265258789)"><g class="label" data-id="L_metrics_promote_0" transform="translate(0, -10.5)"><g><rect class="background" style="" x="-28.7890625" y="-1" width="57.578125" height="23"></rect><text y="-10.1" text-anchor="middle" style=""><tspan class="text-outer-tspan row" x="0" y="-0.1em" dy="1.1em" text-anchor="middle"><tspan font-style="normal" class="text-inner-tspan" font-weight="normal">healthy</tspan></tspan></text></g></g></g><g class="edgeLabel" transform="translate(668.6875, 637.6656265258789)"><g class="label" data-id="L_metrics_rollback_0" transform="translate(0, -10.5)"><g><rect class="background" style="" x="-38.3828125" y="-1" width="76.765625" height="23"></rect><text y="-10.1" text-anchor="middle" style=""><tspan class="text-outer-tspan row" x="0" y="-0.1em" dy="1.1em" text-anchor="middle"><tspan font-style="normal" class="text-inner-tspan" font-weight="normal">regression</tspan></tspan></text></g></g></g></g><g class="nodes"><g class="node default neutralC" id="g04e62b38-728c-45c6-821f-8362775da5a8-dark-flowchart-viewer-0" data-look="classic" transform="translate(314.7421875, 25)"><g class="basic label-container outer-path"><path d="M-48.859375 -17 C-20.14050811100877 -17, 8.578358777982459 -17, 48.859375 -17 C48.859375 -17, 48.859375 -17, 48.859375 -17 C49.19672197324136 -16.9891819391742, 49.53406894648271 -16.978363878348397, 49.94856873967212 -16.965071676755716 C50.29445381739953 -16.93170455929502, 50.64033889512694 -16.898337441834325, 51.0332867486366 -16.860430234995185 C51.33646452721116 -16.81141480293404, 51.639642305785735 -16.76239937087289, 52.109071687923326 -16.686505668848113 C52.53105065530318 -16.590191723213767, 52.95302962268304 -16.49387777757942, 53.17150292646162 -16.4440126716635 C53.40028186411531 -16.376112283853036, 53.62906080176899 -16.30821189604257, 54.21621470640155 -16.133947699181366 C54.42638067936212 -16.05660467837892, 54.636546652322686 -15.979261657576473, 55.23891408294936 -15.757584874882369 C55.601811364257586 -15.596941013412588, 55.964708645565814 -15.436297151942806, 56.23539856499849 -15.316470754341125 C56.58197230736691 -15.135663454938594, 56.92854604973534 -14.954856155536065, 57.20157338406694 -14.812417970097622 C57.50188549636946 -14.630367002789969, 57.80219760867198 -14.448316035482316, 58.133468320579325 -14.247497783161291 C58.46781625750779 -14.014271136048906, 58.802164194436266 -13.781044488936523, 59.027254018350675 -13.624031571755262 C59.28706094326583 -13.416842462888058, 59.54686786818098 -13.209653354020853, 59.8792577202324 -12.944581292275288 C60.1206402005976 -12.72536411023807, 60.362022680962795 -12.506146928200852, 60.68597836025927 -12.21193895166137 C60.931295680034104 -11.958628678067331, 61.17661299980893 -11.705318404473292, 61.44410095028036 -11.42911513444239 C61.634307320790946 -11.20568790859157, 61.82451369130153 -10.98226068274075, 62.15051020195651 -10.59932663159847 C62.35676107160581 -10.322969256109173, 62.56301194125511 -10.046611880619876, 62.80230332814825 -9.725983222076888 C62.94561831795012 -9.505812912277973, 63.088933307751994 -9.285642602479056, 63.39680197109088 -8.812673661278927 C63.5876019721373 -8.473888938825851, 63.77840197318372 -8.135104216372778, 63.931563208341004 -7.863150934094199 C64.04879120579093 -7.619724489112098, 64.16601920324085 -7.376298044129997, 64.40438959126881 -6.881316833080699 C64.56130184757795 -6.493740526305039, 64.71821410388708 -6.106164219529381, 64.81333817484592 -5.871205925162238 C64.90387315954585 -5.598528976036953, 64.99440814424578 -5.32585202691167, 65.15672850162323 -4.836968972727556 C65.25897419180211 -4.447061842513058, 65.36121988198099 -4.057154712298561, 65.433149507091 -3.7828558772573464 C65.50805229786414 -3.398245877347737, 65.58295508863726 -3.0136358774381273, 65.64146531804565 -2.713198215567453 C65.69671979814385 -2.284655379157053, 65.75197427824205 -1.8561125427466538, 65.78081992013637 -1.632391440430593 C65.79783004589082 -1.3674450014786617, 65.81484017164527 -1.1024985625267303, 65.8506406754117 -0.5448768187181379 C65.8506406754117 -0.20844554940995236, 65.8506406754117 0.12798571989823315, 65.8506406754117 0.5448768187181336 C65.8330554327432 0.8187811678324237, 65.81547019007469 1.0926855169467138, 65.78081992013637 1.6323914404305815 C65.72600192927604 2.0575489525065467, 65.67118393841572 2.482706464582512, 65.64146531804565 2.7131982155674415 C65.59304378140324 2.961832572330856, 65.54462224476082 3.2104669290942702, 65.433149507091 3.782855877257343 C65.33506306304879 4.156901999324054, 65.23697661900658 4.530948121390765, 65.15672850162323 4.836968972727545 C65.04332789124865 5.178513543242196, 64.92992728087407 5.520058113756846, 64.81333817484592 5.871205925162227 C64.6734213173992 6.216803268164047, 64.53350445995248 6.562400611165868, 64.40438959126881 6.881316833080694 C64.25137010123754 7.199065078223213, 64.09835061120627 7.5168133233657315, 63.931563208341004 7.863150934094196 C63.74408799792236 8.196032154116107, 63.55661278750371 8.528913374138018, 63.39680197109089 8.812673661278923 C63.234612902482 9.061839624525216, 63.07242383387311 9.31100558777151, 62.802303328148255 9.725983222076879 C62.54346459148303 10.072803548514273, 62.2846258548178 10.419623874951666, 62.15051020195651 10.599326631598467 C61.96311785085369 10.819448350130683, 61.77572549975088 11.039570068662897, 61.44410095028037 11.42911513444238 C61.14431418603236 11.73866958147953, 60.844527421784356 12.048224028516678, 60.68597836025927 12.211938951661365 C60.50613939721912 12.375263939616213, 60.326300434178975 12.538588927571059, 59.87925772023242 12.944581292275275 C59.61644895674738 13.154164287519686, 59.35364019326233 13.363747282764097, 59.027254018350675 13.62403157175526 C58.79718899852406 13.784514970232118, 58.56712397869744 13.944998368708974, 58.13346832057934 14.247497783161286 C57.843776827918646 14.423110468428375, 57.55408533525795 14.598723153695463, 57.20157338406695 14.81241797009762 C56.82151540505848 15.010693974307584, 56.44145742605001 15.208969978517548, 56.23539856499849 15.316470754341124 C56.00704190234492 15.417557474938139, 55.778685239691356 15.518644195535153, 55.238914082949364 15.757584874882367 C54.83068184675737 15.907818111458445, 54.42244961056538 16.05805134803452, 54.21621470640156 16.133947699181363 C53.997558093158254 16.19884383423999, 53.77890147991495 16.26373996929862, 53.17150292646164 16.444012671663497 C52.91467356864017 16.50263229661806, 52.657844210818695 16.561251921572627, 52.10907168792333 16.68650566884811 C51.81788996551375 16.73358167157931, 51.52670824310417 16.780657674310508, 51.03328674863661 16.86043023499518 C50.79610316021855 16.883311050514873, 50.55891957180049 16.906191866034565, 49.94856873967212 16.965071676755716 C49.54722653783756 16.977941940003344, 49.145884336003 16.990812203250975, 48.859375 17 C48.859375 17, 48.859375 17, 48.859375 17 C24.274856078835015 17, -0.30966284232997054 17, -48.859375 17 C-49.150961375839884 16.990649392465265, -49.44254775167977 16.98129878493053, -49.94856873967211 16.965071676755716 C-50.36381400508277 16.925013465407048, -50.77905927049343 16.88495525405838, -51.033286748636606 16.86043023499518 C-51.30190009437263 16.81700291238419, -51.570513440108655 16.7735755897732, -52.109071687923326 16.68650566884811 C-52.467538286296175 16.604688006982673, -52.82600488466903 16.522870345117234, -53.17150292646162 16.4440126716635 C-53.41874728816699 16.370631842921487, -53.66599164987235 16.297251014179473, -54.216214706401544 16.13394769918137 C-54.490264486195215 16.033094846928904, -54.764314265988894 15.932241994676437, -55.238914082949364 15.757584874882369 C-55.60883953224518 15.593829851927678, -55.97876498154099 15.430074828972987, -56.23539856499848 15.316470754341127 C-56.58512298850902 15.134019746604862, -56.934847412019565 14.951568738868598, -57.20157338406693 14.812417970097624 C-57.450154540240156 14.661726612400395, -57.69873569641338 14.511035254703167, -58.13346832057932 14.247497783161299 C-58.31419591688094 14.121430035552839, -58.494923513182556 13.995362287944378, -59.02725401835067 13.624031571755264 C-59.33412689588972 13.379308618148107, -59.64099977342876 13.134585664540952, -59.8792577202324 12.94458129227529 C-60.067905949039556 12.773255962231246, -60.256554177846716 12.601930632187203, -60.68597836025926 12.211938951661377 C-60.93324230209455 11.956618630969281, -61.18050624392983 11.701298310277185, -61.444100950280365 11.429115134442386 C-61.618003875260484 11.224838863403983, -61.791906800240604 11.020562592365582, -62.15051020195651 10.599326631598473 C-62.31649750594396 10.376918766009773, -62.4824848099314 10.154510900421071, -62.80230332814825 9.72598322207689 C-62.92568650909401 9.536433523121056, -63.04906969003977 9.346883824165223, -63.39680197109088 8.812673661278936 C-63.52080331664141 8.592496715756154, -63.64480466219194 8.372319770233373, -63.931563208341004 7.863150934094201 C-64.02660063464153 7.665803684905986, -64.12163806094206 7.468456435717771, -64.40438959126881 6.881316833080701 C-64.51851898641415 6.599415020529961, -64.63264838155949 6.317513207979221, -64.81333817484592 5.87120592516224 C-64.89558512341013 5.62349122035853, -64.97783207197432 5.37577651555482, -65.15672850162323 4.8369689727275516 C-65.26521930652173 4.4232465134373244, -65.37371011142022 4.009524054147098, -65.433149507091 3.782855877257349 C-65.49543100210795 3.46305356354398, -65.55771249712488 3.1432512498306107, -65.64146531804565 2.713198215567455 C-65.67377762205328 2.462590366470416, -65.70608992606091 2.2119825173733765, -65.78081992013637 1.6323914404306026 C-65.79509618951998 1.4100270211836379, -65.8093724589036 1.1876626019366734, -65.8506406754117 0.54487681871814 C-65.8506406754117 0.13081797777641235, -65.8506406754117 -0.28324086316531527, -65.8506406754117 -0.5448768187181317 C-65.83055133301855 -0.8577845423167508, -65.8104619906254 -1.17069226591537, -65.78081992013637 -1.6323914404305793 C-65.73848917305216 -1.960700355664188, -65.69615842596795 -2.2890092708977967, -65.64146531804565 -2.713198215567447 C-65.58317776875163 -3.0124924621143725, -65.52489021945759 -3.311786708661298, -65.433149507091 -3.782855877257341 C-65.3285842239439 -4.181608620777634, -65.2240189407968 -4.580361364297928, -65.15672850162323 -4.836968972727544 C-65.02497515186825 -5.2337890701440575, -64.89322180211326 -5.630609167560572, -64.81333817484594 -5.871205925162218 C-64.6700331992475 -6.225171985503592, -64.52672822364904 -6.5791380458449655, -64.40438959126881 -6.881316833080692 C-64.23849223138119 -7.225806250522194, -64.07259487149358 -7.570295667963696, -63.931563208341004 -7.863150934094194 C-63.78967964804811 -8.115079562662647, -63.64779608775521 -8.367008191231099, -63.39680197109088 -8.812673661278929 C-63.2550266169615 -9.03047867723482, -63.11325126283213 -9.24828369319071, -62.80230332814825 -9.725983222076884 C-62.559182470014655 -10.051743023210078, -62.31606161188107 -10.37750282434327, -62.15051020195651 -10.599326631598467 C-61.935255444357324 -10.85217711821716, -61.720000686758134 -11.105027604835852, -61.44410095028037 -11.42911513444238 C-61.18411160057866 -11.697575483531981, -60.92412225087694 -11.966035832621582, -60.68597836025928 -12.21193895166136 C-60.3722334793574 -12.496873751261793, -60.05848859845552 -12.781808550862227, -59.87925772023242 -12.944581292275274 C-59.57158696949295 -13.189940528527472, -59.26391621875347 -13.435299764779671, -59.027254018350675 -13.624031571755259 C-58.82704106058781 -13.763691464011378, -58.62682810282495 -13.9033513562675, -58.13346832057934 -14.247497783161284 C-57.81695783596678 -14.439368298955484, -57.50044735135422 -14.631238814749686, -57.20157338406695 -14.812417970097618 C-56.99403224515948 -14.9206920493292, -56.786491106252015 -15.028966128560779, -56.23539856499849 -15.316470754341124 C-56.01060767258934 -15.415979014225753, -55.78581678018019 -15.51548727411038, -55.23891408294937 -15.757584874882365 C-54.90669299250788 -15.87984530718293, -54.57447190206639 -16.002105739483493, -54.216214706401566 -16.133947699181363 C-53.80356816841732 -16.256419025629206, -53.39092163043307 -16.378890352077054, -53.17150292646164 -16.444012671663494 C-52.80941452946604 -16.52665698543013, -52.44732613247044 -16.609301299196765, -52.10907168792333 -16.68650566884811 C-51.891394971666124 -16.721697952224428, -51.67371825540891 -16.75689023560075, -51.03328674863661 -16.86043023499518 C-50.638496410871596 -16.898515184074526, -50.24370607310658 -16.93660013315387, -49.94856873967212 -16.965071676755716 C-49.52807102667655 -16.97855621996234, -49.10757331368097 -16.992040763168962, -48.85937500000001 -17 C-48.85937500000001 -17, -48.859375 -17, -48.859375 -17" stroke="none" stroke-width="0" fill="#5A5A5A" style="fill:#5A5A5A !important;stroke:#3D3D3D !important"></path><path d="M-48.859375 -17 C-20.594194782627618 -17, 7.670985434744765 -17, 48.859375 -17 M-48.859375 -17 C-15.39653371497539 -17, 18.06630757004922 -17, 48.859375 -17 M48.859375 -17 C48.859375 -17, 48.859375 -17, 48.859375 -17 M48.859375 -17 C48.859375 -17, 48.859375 -17, 48.859375 -17 M48.859375 -17 C49.188873750304104 -16.989433616408157, 49.518372500608216 -16.978867232816313, 49.94856873967212 -16.965071676755716 M48.859375 -17 C49.08596474659324 -16.992733707856942, 49.31255449318648 -16.98546741571388, 49.94856873967212 -16.965071676755716 M49.94856873967212 -16.965071676755716 C50.36480955470435 -16.924917425932378, 50.781050369736576 -16.88476317510904, 51.0332867486366 -16.860430234995185 M49.94856873967212 -16.965071676755716 C50.34891434194079 -16.92645081799089, 50.74925994420946 -16.88782995922606, 51.0332867486366 -16.860430234995185 M51.0332867486366 -16.860430234995185 C51.32070169760531 -16.81396321498214, 51.60811664657402 -16.7674961949691, 52.109071687923326 -16.686505668848113 M51.0332867486366 -16.860430234995185 C51.24963177800874 -16.82545324842706, 51.46597680738088 -16.79047626185893, 52.109071687923326 -16.686505668848113 M52.109071687923326 -16.686505668848113 C52.524978311429855 -16.591577696077106, 52.940884934936385 -16.4966497233061, 53.17150292646162 -16.4440126716635 M52.109071687923326 -16.686505668848113 C52.526528902458494 -16.59122378379337, 52.94398611699367 -16.49594189873863, 53.17150292646162 -16.4440126716635 M53.17150292646162 -16.4440126716635 C53.457532309151034 -16.35912065228015, 53.74356169184045 -16.2742286328968, 54.21621470640155 -16.133947699181366 M53.17150292646162 -16.4440126716635 C53.49687279110125 -16.34744460373973, 53.822242655740865 -16.250876535815962, 54.21621470640155 -16.133947699181366 M54.21621470640155 -16.133947699181366 C54.601826753708465 -15.992038901213732, 54.98743880101538 -15.850130103246096, 55.23891408294936 -15.757584874882369 M54.21621470640155 -16.133947699181366 C54.59742813714922 -15.993657632767897, 54.9786415678969 -15.853367566354429, 55.23891408294936 -15.757584874882369 M55.23891408294936 -15.757584874882369 C55.630514607929314 -15.584234938890583, 56.02211513290928 -15.4108850028988, 56.23539856499849 -15.316470754341125 M55.23891408294936 -15.757584874882369 C55.531466223738065 -15.628080720406127, 55.82401836452678 -15.498576565929882, 56.23539856499849 -15.316470754341125 M56.23539856499849 -15.316470754341125 C56.59331467929198 -15.129746146770426, 56.95123079358546 -14.943021539199727, 57.20157338406694 -14.812417970097622 M56.23539856499849 -15.316470754341125 C56.56169298078603 -15.146243166626316, 56.88798739657356 -14.976015578911507, 57.20157338406694 -14.812417970097622 M57.20157338406694 -14.812417970097622 C57.46629554760031 -14.65194183888358, 57.73101771113369 -14.491465707669537, 58.133468320579325 -14.247497783161291 M57.20157338406694 -14.812417970097622 C57.4880890616945 -14.638730482566777, 57.77460473932207 -14.46504299503593, 58.133468320579325 -14.247497783161291 M58.133468320579325 -14.247497783161291 C58.434030516266745 -14.037838606577496, 58.734592711954164 -13.828179429993702, 59.027254018350675 -13.624031571755262 M58.133468320579325 -14.247497783161291 C58.4682051025288 -14.013999894595086, 58.802941884478265 -13.78050200602888, 59.027254018350675 -13.624031571755262 M59.027254018350675 -13.624031571755262 C59.30812251923169 -13.400046416527358, 59.58899102011271 -13.176061261299454, 59.8792577202324 -12.944581292275288 M59.027254018350675 -13.624031571755262 C59.35986466399733 -13.358783432993059, 59.69247530964399 -13.093535294230856, 59.8792577202324 -12.944581292275288 M59.8792577202324 -12.944581292275288 C60.05513927705042 -12.784850315944151, 60.231020833868435 -12.625119339613013, 60.68597836025927 -12.21193895166137 M59.8792577202324 -12.944581292275288 C60.04248262117937 -12.796344755929475, 60.20570752212633 -12.648108219583664, 60.68597836025927 -12.21193895166137 M60.68597836025927 -12.21193895166137 C60.9856806860363 -11.902471694278029, 61.28538301181333 -11.593004436894688, 61.44410095028036 -11.42911513444239 M60.68597836025927 -12.21193895166137 C60.87816206190948 -12.013493501132185, 61.07034576355968 -11.815048050603, 61.44410095028036 -11.42911513444239 M61.44410095028036 -11.42911513444239 C61.64991141406551 -11.18735845273321, 61.855721877850655 -10.945601771024032, 62.15051020195651 -10.59932663159847 M61.44410095028036 -11.42911513444239 C61.63158762287152 -11.208882620522918, 61.81907429546269 -10.988650106603444, 62.15051020195651 -10.59932663159847 M62.15051020195651 -10.59932663159847 C62.38983927203349 -10.278647481022132, 62.629168342110475 -9.957968330445793, 62.80230332814825 -9.725983222076888 M62.15051020195651 -10.59932663159847 C62.36005164468988 -10.318560187953887, 62.569593087423264 -10.037793744309305, 62.80230332814825 -9.725983222076888 M62.80230332814825 -9.725983222076888 C63.01373649940489 -9.401165093270556, 63.22516967066154 -9.076346964464227, 63.39680197109088 -8.812673661278927 M62.80230332814825 -9.725983222076888 C63.02659327978749 -9.381413626073963, 63.25088323142673 -9.036844030071038, 63.39680197109088 -8.812673661278927 M63.39680197109088 -8.812673661278927 C63.59297210485007 -8.464353724409424, 63.789142238609266 -8.116033787539923, 63.931563208341004 -7.863150934094199 M63.39680197109088 -8.812673661278927 C63.60889487260126 -8.436081237912113, 63.82098777411164 -8.059488814545299, 63.931563208341004 -7.863150934094199 M63.931563208341004 -7.863150934094199 C64.04714909972044 -7.623134357502918, 64.16273499109987 -7.383117780911637, 64.40438959126881 -6.881316833080699 M63.931563208341004 -7.863150934094199 C64.0411435163205 -7.635605079931786, 64.1507238243 -7.408059225769371, 64.40438959126881 -6.881316833080699 M64.40438959126881 -6.881316833080699 C64.49041979780948 -6.668820559644356, 64.57645000435015 -6.456324286208013, 64.81333817484592 -5.871205925162238 M64.40438959126881 -6.881316833080699 C64.53414155674648 -6.56082696976726, 64.66389352222414 -6.24033710645382, 64.81333817484592 -5.871205925162238 M64.81333817484592 -5.871205925162238 C64.91009602200573 -5.579786705786264, 65.00685386916555 -5.288367486410289, 65.15672850162323 -4.836968972727556 M64.81333817484592 -5.871205925162238 C64.89268872534565 -5.632214709850344, 64.97203927584539 -5.393223494538451, 65.15672850162323 -4.836968972727556 M65.15672850162323 -4.836968972727556 C65.252554069197 -4.471544552505046, 65.34837963677079 -4.106120132282537, 65.433149507091 -3.7828558772573464 M65.15672850162323 -4.836968972727556 C65.25638197641857 -4.4569470832437785, 65.3560354512139 -4.07692519376, 65.433149507091 -3.7828558772573464 M65.433149507091 -3.7828558772573464 C65.51511347916647 -3.3619882037414413, 65.59707745124194 -2.941120530225536, 65.64146531804565 -2.713198215567453 M65.433149507091 -3.7828558772573464 C65.48355481066157 -3.52403529658712, 65.53396011423216 -3.265214715916893, 65.64146531804565 -2.713198215567453 M65.64146531804565 -2.713198215567453 C65.68754419624317 -2.355819535571202, 65.73362307444069 -1.9984408555749513, 65.78081992013637 -1.632391440430593 M65.64146531804565 -2.713198215567453 C65.6968112639077 -2.283945988754554, 65.75215720976976 -1.8546937619416544, 65.78081992013637 -1.632391440430593 M65.78081992013637 -1.632391440430593 C65.80676620943976 -1.2282570410625542, 65.83271249874315 -0.8241226416945152, 65.8506406754117 -0.5448768187181379 M65.78081992013637 -1.632391440430593 C65.80113814072067 -1.3159187542577464, 65.82145636130495 -0.9994460680848996, 65.8506406754117 -0.5448768187181379 M65.8506406754117 -0.5448768187181379 C65.8506406754117 -0.226760248289887, 65.8506406754117 0.09135632213836387, 65.8506406754117 0.5448768187181336 M65.8506406754117 -0.5448768187181379 C65.8506406754117 -0.21603593150559236, 65.8506406754117 0.11280495570695315, 65.8506406754117 0.5448768187181336 M65.8506406754117 0.5448768187181336 C65.83631104756628 0.7680723390777795, 65.82198141972087 0.9912678594374253, 65.78081992013637 1.6323914404305815 M65.8506406754117 0.5448768187181336 C65.83225236986793 0.8312895203353805, 65.81386406432416 1.1177022219526274, 65.78081992013637 1.6323914404305815 M65.78081992013637 1.6323914404305815 C65.73687937056718 1.9731856658462223, 65.692938820998 2.313979891261863, 65.64146531804565 2.7131982155674415 M65.78081992013637 1.6323914404305815 C65.73317751260073 2.0018965452194384, 65.6855351050651 2.3714016500082953, 65.64146531804565 2.7131982155674415 M65.64146531804565 2.7131982155674415 C65.57060115885473 3.0770706958675054, 65.4997369996638 3.4409431761675693, 65.433149507091 3.782855877257343 M65.64146531804565 2.7131982155674415 C65.5632768786072 3.1146793269513653, 65.48508843916875 3.5161604383352887, 65.433149507091 3.782855877257343 M65.433149507091 3.782855877257343 C65.35082657484166 4.096788896908586, 65.26850364259234 4.4107219165598295, 65.15672850162323 4.836968972727545 M65.433149507091 3.782855877257343 C65.3754609833632 4.002847220595782, 65.3177724596354 4.22283856393422, 65.15672850162323 4.836968972727545 M65.15672850162323 4.836968972727545 C65.05283304490163 5.149885534879996, 64.94893758818003 5.462802097032446, 64.81333817484592 5.871205925162227 M65.15672850162323 4.836968972727545 C65.03714678582469 5.197130047953754, 64.91756507002614 5.557291123179963, 64.81333817484592 5.871205925162227 M64.81333817484592 5.871205925162227 C64.68393403988382 6.1908366403773645, 64.55452990492172 6.510467355592502, 64.40438959126881 6.881316833080694 M64.81333817484592 5.871205925162227 C64.72909701364843 6.079283222012081, 64.64485585245095 6.287360518861935, 64.40438959126881 6.881316833080694 M64.40438959126881 6.881316833080694 C64.24658447468846 7.209002534148383, 64.08877935810811 7.536688235216072, 63.931563208341004 7.863150934094196 M64.40438959126881 6.881316833080694 C64.2454166002946 7.2114276503157315, 64.0864436093204 7.541538467550769, 63.931563208341004 7.863150934094196 M63.931563208341004 7.863150934094196 C63.76613842228411 8.156879392814231, 63.600713636227205 8.450607851534267, 63.39680197109089 8.812673661278923 M63.931563208341004 7.863150934094196 C63.776088899973026 8.139211312082429, 63.62061459160505 8.41527169007066, 63.39680197109089 8.812673661278923 M63.39680197109089 8.812673661278923 C63.21738941936519 9.088299519745433, 63.03797686763949 9.363925378211944, 62.802303328148255 9.725983222076879 M63.39680197109089 8.812673661278923 C63.19163863607387 9.127859637934415, 62.98647530105685 9.443045614589906, 62.802303328148255 9.725983222076879 M62.802303328148255 9.725983222076879 C62.64240163082658 9.940236929143616, 62.482499933504904 10.154490636210355, 62.15051020195651 10.599326631598467 M62.802303328148255 9.725983222076879 C62.64565944155371 9.935871759561927, 62.48901555495917 10.145760297046975, 62.15051020195651 10.599326631598467 M62.15051020195651 10.599326631598467 C61.91576118066287 10.87507618960769, 61.68101215936924 11.150825747616912, 61.44410095028037 11.42911513444238 M62.15051020195651 10.599326631598467 C61.97070315828065 10.81053821641076, 61.790896114604784 11.021749801223054, 61.44410095028037 11.42911513444238 M61.44410095028037 11.42911513444238 C61.22108763804794 11.659394689055814, 60.99807432581551 11.88967424366925, 60.68597836025927 12.211938951661365 M61.44410095028037 11.42911513444238 C61.276849706882224 11.601815774833424, 61.109598463484076 11.774516415224467, 60.68597836025927 12.211938951661365 M60.68597836025927 12.211938951661365 C60.3870027050908 12.483460731223017, 60.088027049922324 12.75498251078467, 59.87925772023242 12.944581292275275 M60.68597836025927 12.211938951661365 C60.39566413832999 12.475594646724147, 60.10534991640071 12.739250341786931, 59.87925772023242 12.944581292275275 M59.87925772023242 12.944581292275275 C59.64593324449108 13.130651352653928, 59.41260876874975 13.31672141303258, 59.027254018350675 13.62403157175526 M59.87925772023242 12.944581292275275 C59.639929326991805 13.135439317088649, 59.40060093375119 13.32629734190202, 59.027254018350675 13.62403157175526 M59.027254018350675 13.62403157175526 C58.795258398305386 13.785861673370325, 58.5632627782601 13.94769177498539, 58.13346832057934 14.247497783161286 M59.027254018350675 13.62403157175526 C58.69179211889472 13.858035270904164, 58.35633021943876 14.092038970053066, 58.13346832057934 14.247497783161286 M58.13346832057934 14.247497783161286 C57.94310118343437 14.362899460420039, 57.752734046289405 14.478301137678793, 57.20157338406695 14.81241797009762 M58.13346832057934 14.247497783161286 C57.90113997727226 14.38833659018693, 57.668811633965184 14.529175397212573, 57.20157338406695 14.81241797009762 M57.20157338406695 14.81241797009762 C56.92265737391582 14.957928273939231, 56.6437413637647 15.103438577780842, 56.23539856499849 15.316470754341124 M57.20157338406695 14.81241797009762 C56.84687758960209 14.997462538876436, 56.49218179513723 15.182507107655253, 56.23539856499849 15.316470754341124 M56.23539856499849 15.316470754341124 C55.962865705986424 15.437112966625742, 55.69033284697435 15.557755178910362, 55.238914082949364 15.757584874882367 M56.23539856499849 15.316470754341124 C55.85790948916017 15.48357397039917, 55.48042041332186 15.650677186457216, 55.238914082949364 15.757584874882367 M55.238914082949364 15.757584874882367 C54.91137868472713 15.87812092913218, 54.583843286504894 15.998656983381993, 54.21621470640156 16.133947699181363 M55.238914082949364 15.757584874882367 C54.90967051711454 15.87874955060374, 54.580426951279726 15.999914226325114, 54.21621470640156 16.133947699181363 M54.21621470640156 16.133947699181363 C53.814750083913424 16.253100291805037, 53.413285461425296 16.372252884428708, 53.17150292646164 16.444012671663497 M54.21621470640156 16.133947699181363 C53.93447106418807 16.217567733287773, 53.652727421974575 16.30118776739418, 53.17150292646164 16.444012671663497 M53.17150292646164 16.444012671663497 C52.85381574508711 16.516522697709632, 52.53612856371257 16.58903272375577, 52.10907168792333 16.68650566884811 M53.17150292646164 16.444012671663497 C52.80677590506215 16.527259234231686, 52.442048883662665 16.610505796799877, 52.10907168792333 16.68650566884811 M52.10907168792333 16.68650566884811 C51.88374935477446 16.72293403627083, 51.65842702162559 16.759362403693547, 51.03328674863661 16.86043023499518 M52.10907168792333 16.68650566884811 C51.86037191163541 16.72671351998277, 51.61167213534749 16.76692137111743, 51.03328674863661 16.86043023499518 M51.03328674863661 16.86043023499518 C50.67011727911832 16.89546475694442, 50.30694780960004 16.93049927889366, 49.94856873967212 16.965071676755716 M51.03328674863661 16.86043023499518 C50.76314066869829 16.886490902428637, 50.49299458875997 16.912551569862092, 49.94856873967212 16.965071676755716 M49.94856873967212 16.965071676755716 C49.71108142030601 16.97268743284676, 49.4735941009399 16.98030318893781, 48.859375 17 M49.94856873967212 16.965071676755716 C49.60372113754827 16.97613026815069, 49.25887353542442 16.987188859545665, 48.859375 17 M48.859375 17 C48.859375 17, 48.859375 17, 48.859375 17 M48.859375 17 C48.859375 17, 48.859375 17, 48.859375 17 M48.859375 17 C29.119822751601667 17, 9.380270503203334 17, -48.859375 17 M48.859375 17 C27.91712644343865 17, 6.974877886877302 17, -48.859375 17 M-48.859375 17 C-49.17669391071398 16.989824200157194, -49.49401282142796 16.979648400314385, -49.94856873967211 16.965071676755716 M-48.859375 17 C-49.18074865926559 16.98969417226323, -49.50212231853117 16.979388344526466, -49.94856873967211 16.965071676755716 M-49.94856873967211 16.965071676755716 C-50.3658288020634 16.924819100365475, -50.78308886445468 16.88456652397523, -51.033286748636606 16.86043023499518 M-49.94856873967211 16.965071676755716 C-50.19376151399503 16.94141822470424, -50.438954288317944 16.917764772652763, -51.033286748636606 16.86043023499518 M-51.033286748636606 16.86043023499518 C-51.32191060010032 16.813767769001927, -51.610534451564035 16.76710530300867, -52.109071687923326 16.68650566884811 M-51.033286748636606 16.86043023499518 C-51.453061197675765 16.792564357474003, -51.87283564671493 16.72469847995282, -52.109071687923326 16.68650566884811 M-52.109071687923326 16.68650566884811 C-52.4847339093556 16.600763218231286, -52.860396130787876 16.515020767614462, -53.17150292646162 16.4440126716635 M-52.109071687923326 16.68650566884811 C-52.329244675694575 16.63625262115234, -52.549417663465825 16.58599957345657, -53.17150292646162 16.4440126716635 M-53.17150292646162 16.4440126716635 C-53.401899041264116 16.375632314164005, -53.63229515606662 16.30725195666451, -54.216214706401544 16.13394769918137 M-53.17150292646162 16.4440126716635 C-53.47537909359442 16.353823820337038, -53.77925526072722 16.263634969010575, -54.216214706401544 16.13394769918137 M-54.216214706401544 16.13394769918137 C-54.54354328680985 16.013487755798884, -54.870871867218156 15.8930278124164, -55.238914082949364 15.757584874882369 M-54.216214706401544 16.13394769918137 C-54.617682185323524 15.986203955813389, -55.0191496642455 15.838460212445408, -55.238914082949364 15.757584874882369 M-55.238914082949364 15.757584874882369 C-55.49930628602312 15.642316970841877, -55.759698489096884 15.527049066801384, -56.23539856499848 15.316470754341127 M-55.238914082949364 15.757584874882369 C-55.530895459138 15.628333380963447, -55.82287683532664 15.499081887044525, -56.23539856499848 15.316470754341127 M-56.23539856499848 15.316470754341127 C-56.56898031439837 15.142441369348516, -56.90256206379825 14.968411984355903, -57.20157338406693 14.812417970097624 M-56.23539856499848 15.316470754341127 C-56.53455910820167 15.160398890573497, -56.833719651404856 15.004327026805868, -57.20157338406693 14.812417970097624 M-57.20157338406693 14.812417970097624 C-57.52299348617244 14.617571215327084, -57.84441358827795 14.422724460556543, -58.13346832057932 14.247497783161299 M-57.20157338406693 14.812417970097624 C-57.551728636907484 14.600151798085012, -57.901883889748035 14.387885626072398, -58.13346832057932 14.247497783161299 M-58.13346832057932 14.247497783161299 C-58.484042079536735 14.002952705006035, -58.834615838494145 13.75840762685077, -59.02725401835067 13.624031571755264 M-58.13346832057932 14.247497783161299 C-58.44233605665442 14.032045021144105, -58.75120379272952 13.81659225912691, -59.02725401835067 13.624031571755264 M-59.02725401835067 13.624031571755264 C-59.28477022162204 13.418669252440315, -59.54228642489341 13.213306933125365, -59.8792577202324 12.94458129227529 M-59.02725401835067 13.624031571755264 C-59.292732119696396 13.412319850601019, -59.55821022104213 13.200608129446774, -59.8792577202324 12.94458129227529 M-59.8792577202324 12.94458129227529 C-60.1567431023602 12.692576410087712, -60.434228484488 12.440571527900133, -60.68597836025926 12.211938951661377 M-59.8792577202324 12.94458129227529 C-60.201797954784446 12.651658785202084, -60.52433818933649 12.35873627812888, -60.68597836025926 12.211938951661377 M-60.68597836025926 12.211938951661377 C-60.841023258307764 12.051842365003434, -60.996068156356266 11.891745778345491, -61.444100950280365 11.429115134442386 M-60.68597836025926 12.211938951661377 C-60.85129003048839 12.041241079809266, -61.016601700717516 11.870543207957155, -61.444100950280365 11.429115134442386 M-61.444100950280365 11.429115134442386 C-61.619547172122815 11.22302601909341, -61.794993393965264 11.016936903744433, -62.15051020195651 10.599326631598473 M-61.444100950280365 11.429115134442386 C-61.65550153266598 11.180791981338338, -61.866902115051595 10.93246882823429, -62.15051020195651 10.599326631598473 M-62.15051020195651 10.599326631598473 C-62.35589392930662 10.324131147791807, -62.56127765665673 10.048935663985139, -62.80230332814825 9.72598322207689 M-62.15051020195651 10.599326631598473 C-62.36443508199243 10.312686781307832, -62.57835996202836 10.02604693101719, -62.80230332814825 9.72598322207689 M-62.80230332814825 9.72598322207689 C-62.98524958734239 9.444928640005534, -63.16819584653653 9.16387405793418, -63.39680197109088 8.812673661278936 M-62.80230332814825 9.72598322207689 C-62.94411977552391 9.508115075859621, -63.085936222899576 9.290246929642352, -63.39680197109088 8.812673661278936 M-63.39680197109088 8.812673661278936 C-63.59009370956798 8.469464606701907, -63.78338544804509 8.126255552124876, -63.931563208341004 7.863150934094201 M-63.39680197109088 8.812673661278936 C-63.57126556125274 8.502895890592388, -63.74572915141459 8.19311811990584, -63.931563208341004 7.863150934094201 M-63.931563208341004 7.863150934094201 C-64.08282502006854 7.549052545557687, -64.23408683179606 7.234954157021171, -64.40438959126881 6.881316833080701 M-63.931563208341004 7.863150934094201 C-64.05689237025689 7.602902247761383, -64.18222153217278 7.342653561428566, -64.40438959126881 6.881316833080701 M-64.40438959126881 6.881316833080701 C-64.54471281173329 6.534715765568531, -64.68503603219777 6.18811469805636, -64.81333817484592 5.87120592516224 M-64.40438959126881 6.881316833080701 C-64.48676375860032 6.677851047175693, -64.56913792593183 6.474385261270685, -64.81333817484592 5.87120592516224 M-64.81333817484592 5.87120592516224 C-64.94731636045684 5.467684976627123, -65.08129454606775 5.064164028092007, -65.15672850162323 4.8369689727275516 M-64.81333817484592 5.87120592516224 C-64.91476634246746 5.5657204446700606, -65.016194510089 5.26023496417788, -65.15672850162323 4.8369689727275516 M-65.15672850162323 4.8369689727275516 C-65.22113929592363 4.5913426982452705, -65.28555009022405 4.3457164237629895, -65.433149507091 3.782855877257349 M-65.15672850162323 4.8369689727275516 C-65.21640530604789 4.6093954533657175, -65.27608211047253 4.381821934003883, -65.433149507091 3.782855877257349 M-65.433149507091 3.782855877257349 C-65.50894024779032 3.3936864421450355, -65.58473098848965 3.004517007032722, -65.64146531804565 2.713198215567455 M-65.433149507091 3.782855877257349 C-65.5148880468001 3.3631457512976297, -65.59662658650919 2.943435625337911, -65.64146531804565 2.713198215567455 M-65.64146531804565 2.713198215567455 C-65.6896035230964 2.339847803157637, -65.73774172814714 1.9664973907478194, -65.78081992013637 1.6323914404306026 M-65.64146531804565 2.713198215567455 C-65.67004037268784 2.491575734545367, -65.69861542733004 2.269953253523279, -65.78081992013637 1.6323914404306026 M-65.78081992013637 1.6323914404306026 C-65.80431841713445 1.266383382040096, -65.82781691413254 0.9003753236495896, -65.8506406754117 0.54487681871814 M-65.78081992013637 1.6323914404306026 C-65.79805187723132 1.3639897992912866, -65.81528383432628 1.0955881581519709, -65.8506406754117 0.54487681871814 M-65.8506406754117 0.54487681871814 C-65.8506406754117 0.3150634816201907, -65.8506406754117 0.0852501445222415, -65.8506406754117 -0.5448768187181317 M-65.8506406754117 0.54487681871814 C-65.8506406754117 0.124732323916671, -65.8506406754117 -0.295412170884798, -65.8506406754117 -0.5448768187181317 M-65.8506406754117 -0.5448768187181317 C-65.82576293494256 -0.9323677074755918, -65.80088519447342 -1.3198585962330518, -65.78081992013637 -1.6323914404305793 M-65.8506406754117 -0.5448768187181317 C-65.82729421456725 -0.9085167912945068, -65.80394775372278 -1.272156763870882, -65.78081992013637 -1.6323914404305793 M-65.78081992013637 -1.6323914404305793 C-65.75238488067302 -1.8529279913746082, -65.72394984120969 -2.073464542318637, -65.64146531804565 -2.713198215567447 M-65.78081992013637 -1.6323914404305793 C-65.74274938507797 -1.9276589924660377, -65.70467885001958 -2.222926544501496, -65.64146531804565 -2.713198215567447 M-65.64146531804565 -2.713198215567447 C-65.59113644684894 -2.9716263321518466, -65.54080757565224 -3.2300544487362464, -65.433149507091 -3.782855877257341 M-65.64146531804565 -2.713198215567447 C-65.57443919108697 -3.057363211523329, -65.50741306412829 -3.4015282074792115, -65.433149507091 -3.782855877257341 M-65.433149507091 -3.782855877257341 C-65.37440705019874 -4.0068663245293745, -65.3156645933065 -4.230876771801408, -65.15672850162323 -4.836968972727544 M-65.433149507091 -3.782855877257341 C-65.32406358900052 -4.198847761072325, -65.21497767091003 -4.614839644887308, -65.15672850162323 -4.836968972727544 M-65.15672850162323 -4.836968972727544 C-65.07509670175371 -5.082830947673541, -64.99346490188418 -5.328692922619539, -64.81333817484594 -5.871205925162218 M-65.15672850162323 -4.836968972727544 C-65.0317304139127 -5.213443297171006, -64.90673232620217 -5.589917621614467, -64.81333817484594 -5.871205925162218 M-64.81333817484594 -5.871205925162218 C-64.65688193798205 -6.257655855091568, -64.50042570111816 -6.644105785020917, -64.40438959126881 -6.881316833080692 M-64.81333817484594 -5.871205925162218 C-64.67086780814405 -6.223110485393029, -64.52839744144217 -6.575015045623841, -64.40438959126881 -6.881316833080692 M-64.40438959126881 -6.881316833080692 C-64.22614023193587 -7.251455441660858, -64.04789087260293 -7.621594050241024, -63.931563208341004 -7.863150934094194 M-64.40438959126881 -6.881316833080692 C-64.25313692737365 -7.195396225947574, -64.10188426347848 -7.509475618814456, -63.931563208341004 -7.863150934094194 M-63.931563208341004 -7.863150934094194 C-63.789885870631906 -8.114713393582809, -63.64820853292281 -8.366275853071425, -63.39680197109088 -8.812673661278929 M-63.931563208341004 -7.863150934094194 C-63.74329246182284 -8.197444709017557, -63.555021715304676 -8.53173848394092, -63.39680197109088 -8.812673661278929 M-63.39680197109088 -8.812673661278929 C-63.238183229927856 -9.05635464280121, -63.07956448876483 -9.300035624323492, -62.80230332814825 -9.725983222076884 M-63.39680197109088 -8.812673661278929 C-63.253142765847294 -9.033372778431106, -63.1094835606037 -9.254071895583284, -62.80230332814825 -9.725983222076884 M-62.80230332814825 -9.725983222076884 C-62.67096630468508 -9.901962868468544, -62.53962928122192 -10.077942514860204, -62.15051020195651 -10.599326631598467 M-62.80230332814825 -9.725983222076884 C-62.54611550497402 -10.069251565939533, -62.28992768179978 -10.412519909802182, -62.15051020195651 -10.599326631598467 M-62.15051020195651 -10.599326631598467 C-61.885158414518955 -10.911023940067059, -61.6198066270814 -11.222721248535649, -61.44410095028037 -11.42911513444238 M-62.15051020195651 -10.599326631598467 C-61.993491980693754 -10.783769168883591, -61.83647375943101 -10.968211706168717, -61.44410095028037 -11.42911513444238 M-61.44410095028037 -11.42911513444238 C-61.19374151873475 -11.687631802404836, -60.94338208718912 -11.946148470367293, -60.68597836025928 -12.21193895166136 M-61.44410095028037 -11.42911513444238 C-61.24291941250487 -11.636851589507017, -61.04173787472937 -11.844588044571653, -60.68597836025928 -12.21193895166136 M-60.68597836025928 -12.21193895166136 C-60.406485723061785 -12.465766769794172, -60.1269930858643 -12.719594587926986, -59.87925772023242 -12.944581292275274 M-60.68597836025928 -12.21193895166136 C-60.38100618439914 -12.48890661265594, -60.076034008539 -12.765874273650521, -59.87925772023242 -12.944581292275274 M-59.87925772023242 -12.944581292275274 C-59.630320166891046 -13.14310236655851, -59.381382613549675 -13.341623440841747, -59.027254018350675 -13.624031571755259 M-59.87925772023242 -12.944581292275274 C-59.66638328701093 -13.11434298794283, -59.45350885378945 -13.284104683610387, -59.027254018350675 -13.624031571755259 M-59.027254018350675 -13.624031571755259 C-58.679847478325925 -13.866367335089791, -58.33244093830118 -14.108703098424325, -58.13346832057934 -14.247497783161284 M-59.027254018350675 -13.624031571755259 C-58.74424870562194 -13.821443826812288, -58.46124339289321 -14.01885608186932, -58.13346832057934 -14.247497783161284 M-58.13346832057934 -14.247497783161284 C-57.83914786879401 -14.425916570652513, -57.544827417008676 -14.604335358143741, -57.20157338406695 -14.812417970097618 M-58.13346832057934 -14.247497783161284 C-57.806356194764604 -14.445795076154402, -57.479244068949875 -14.64409236914752, -57.20157338406695 -14.812417970097618 M-57.20157338406695 -14.812417970097618 C-56.81715140410675 -15.012970670808821, -56.432729424146565 -15.213523371520022, -56.23539856499849 -15.316470754341124 M-57.20157338406695 -14.812417970097618 C-56.951858508223125 -14.942694060875326, -56.70214363237931 -15.072970151653035, -56.23539856499849 -15.316470754341124 M-56.23539856499849 -15.316470754341124 C-55.83756658614245 -15.492579170114338, -55.43973460728642 -15.668687585887554, -55.23891408294937 -15.757584874882365 M-56.23539856499849 -15.316470754341124 C-55.85545921110686 -15.484658635808456, -55.47551985721523 -15.652846517275787, -55.23891408294937 -15.757584874882365 M-55.23891408294937 -15.757584874882365 C-54.844374977528176 -15.902778912756878, -54.44983587210697 -16.04797295063139, -54.216214706401566 -16.133947699181363 M-55.23891408294937 -15.757584874882365 C-54.97572821542949 -15.85443970699317, -54.71254234790962 -15.951294539103976, -54.216214706401566 -16.133947699181363 M-54.216214706401566 -16.133947699181363 C-53.89200018150147 -16.23017286833494, -53.56778565660138 -16.326398037488516, -53.17150292646164 -16.444012671663494 M-54.216214706401566 -16.133947699181363 C-53.85932340613704 -16.23987116373921, -53.50243210587251 -16.345794628297057, -53.17150292646164 -16.444012671663494 M-53.17150292646164 -16.444012671663494 C-52.83173748130319 -16.521561917344176, -52.491972036144745 -16.599111163024855, -52.10907168792333 -16.68650566884811 M-53.17150292646164 -16.444012671663494 C-52.903472568733 -16.505188851753513, -52.63544221100436 -16.566365031843535, -52.10907168792333 -16.68650566884811 M-52.10907168792333 -16.68650566884811 C-51.70918800556579 -16.751155761467405, -51.309304323208245 -16.8158058540867, -51.03328674863661 -16.86043023499518 M-52.10907168792333 -16.68650566884811 C-51.797229714497995 -16.736921860740896, -51.485387741072664 -16.787338052633682, -51.03328674863661 -16.86043023499518 M-51.03328674863661 -16.86043023499518 C-50.69869394135352 -16.892708000707056, -50.364101134070424 -16.92498576641893, -49.94856873967212 -16.965071676755716 M-51.03328674863661 -16.86043023499518 C-50.62065564593681 -16.900236261211127, -50.208024543236995 -16.94004228742707, -49.94856873967212 -16.965071676755716 M-49.94856873967212 -16.965071676755716 C-49.54833272171949 -16.977906466839308, -49.14809670376686 -16.990741256922902, -48.85937500000001 -17 M-49.94856873967212 -16.965071676755716 C-49.670801486361675 -16.97397913192822, -49.39303423305124 -16.98288658710073, -48.85937500000001 -17 M-48.85937500000001 -17 C-48.85937500000001 -17, -48.85937500000001 -17, -48.859375 -17 M-48.85937500000001 -17 C-48.85937500000001 -17, -48.859375 -17, -48.859375 -17" stroke="#3D3D3D" stroke-width="1.3" fill="none" stroke-dasharray="0 0" style="fill:#5A5A5A !important;stroke:#3D3D3D !important"></path></g><g class="label" style="color:#ffffff !important" transform="translate(0, -9.5)"><rect></rect><g><rect class="background" style="stroke: none"></rect><text y="-10.1" style="fill:#404040 !important"><tspan class="text-outer-tspan row" x="0" y="-0.1em" dy="1.1em"><tspan font-style="normal" class="text-inner-tspan" font-weight="normal">Viewer</tspan><tspan font-style="normal" class="text-inner-tspan" font-weight="normal"> request</tspan></tspan></text></g></g></g><g class="node default primaryC" id="g04e62b38-728c-45c6-821f-8362775da5a8-dark-flowchart-prim-1" data-look="classic" transform="translate(189.203125, 451.26562881469727)"><rect class="basic label-container" style="fill:#2E5A88 !important;stroke:#1F4870 !important" x="-101.2734375" y="-33.29999923706055" width="202.546875" height="66.5999984741211"></rect><g class="label" style="color:#ffffff !important" transform="translate(0, -18.299999237060547)"><rect></rect><g><rect class="background" style="stroke: none"></rect><text y="-10.1" style="fill:#404040 !important"><tspan class="text-outer-tspan row" x="0" y="-0.1em" dy="1.1em"><tspan font-style="normal" class="text-inner-tspan" font-weight="normal">Primary</tspan><tspan font-style="normal" class="text-inner-tspan" font-weight="normal"> distribution</tspan></tspan><tspan class="text-outer-tspan row" x="0" y="1em" dy="1.1em"><tspan font-style="normal" class="text-inner-tspan" font-weight="normal">production</tspan><tspan font-style="normal" class="text-inner-tspan" font-weight="normal"> config</tspan></tspan></text></g></g></g><g class="node default" id="g04e62b38-728c-45c6-821f-8362775da5a8-dark-flowchart-policy-2" data-look="classic" transform="translate(314.7421875, 209.6828155517578)"><polygon points="117.68281173706055,0 235.3656234741211,-117.68281173706055 117.68281173706055,-235.3656234741211 0,-117.68281173706055" class="label-container" transform="translate(-117.18281173706055, 117.68281173706055)"></polygon><g class="label" style="" transform="translate(0, -18.299999237060547)"><rect></rect><g><rect class="background" style="stroke: none"></rect><text y="-10.1" style=""><tspan class="text-outer-tspan row" x="0" y="-0.1em" dy="1.1em"><tspan font-style="normal" class="text-inner-tspan" font-weight="normal">Continuous</tspan><tspan font-style="normal" class="text-inner-tspan" font-weight="normal"> deployment</tspan></tspan><tspan class="text-outer-tspan row" x="0" y="1em" dy="1.1em"><tspan font-style="normal" class="text-inner-tspan" font-weight="normal">policy</tspan></tspan></text></g></g></g><g class="node default primaryC" id="g04e62b38-728c-45c6-821f-8362775da5a8-dark-flowchart-stg-3" data-look="classic" transform="translate(440.28125, 451.26562881469727)"><rect class="basic label-container" style="fill:#2E5A88 !important;stroke:#1F4870 !important" x="-99.8046875" y="-33.29999923706055" width="199.609375" height="66.5999984741211"></rect><g class="label" style="color:#ffffff !important" transform="translate(0, -18.299999237060547)"><rect></rect><g><rect class="background" style="stroke: none"></rect><text y="-10.1" style="fill:#404040 !important"><tspan class="text-outer-tspan row" x="0" y="-0.1em" dy="1.1em"><tspan font-style="normal" class="text-inner-tspan" font-weight="normal">Staging</tspan><tspan font-style="normal" class="text-inner-tspan" font-weight="normal"> distribution</tspan></tspan><tspan class="text-outer-tspan row" x="0" y="1em" dy="1.1em"><tspan font-style="normal" class="text-inner-tspan" font-weight="normal">candidate</tspan><tspan font-style="normal" class="text-inner-tspan" font-weight="normal"> config</tspan></tspan></text></g></g></g><g class="node default storageC" id="g04e62b38-728c-45c6-821f-8362775da5a8-dark-flowchart-s3prod-4" data-look="classic" transform="translate(81.1015625, 567.8656272888184)"><rect class="basic label-container" style="fill:#8B5E15 !important;stroke:#6E4810 !important" x="-73.1015625" y="-33.29999923706055" width="146.203125" height="66.5999984741211"></rect><g class="label" style="color:#ffffff !important" transform="translate(0, -18.299999237060547)"><rect></rect><g><rect class="background" style="stroke: none"></rect><text y="-10.1" style="fill:#404040 !important"><tspan class="text-outer-tspan row" x="0" y="-0.1em" dy="1.1em"><tspan font-style="normal" class="text-inner-tspan" font-weight="normal">S3</tspan><tspan font-style="normal" class="text-inner-tspan" font-weight="normal"> origin</tspan></tspan><tspan class="text-outer-tspan row" x="0" y="1em" dy="1.1em"><tspan font-style="normal" class="text-inner-tspan" font-weight="normal">/build_001/</tspan></tspan></text></g></g></g><g class="node default storageC" id="g04e62b38-728c-45c6-821f-8362775da5a8-dark-flowchart-s3new-5" data-look="classic" transform="translate(304.7421875, 567.8656272888184)"><rect class="basic label-container" style="fill:#8B5E15 !important;stroke:#6E4810 !important" x="-73.1015625" y="-33.29999923706055" width="146.203125" height="66.5999984741211"></rect><g class="label" style="color:#ffffff !important" transform="translate(0, -18.299999237060547)"><rect></rect><g><rect class="background" style="stroke: none"></rect><text y="-10.1" style="fill:#404040 !important"><tspan class="text-outer-tspan row" x="0" y="-0.1em" dy="1.1em"><tspan font-style="normal" class="text-inner-tspan" font-weight="normal">S3</tspan><tspan font-style="normal" class="text-inner-tspan" font-weight="normal"> origin</tspan></tspan><tspan class="text-outer-tspan row" x="0" y="1em" dy="1.1em"><tspan font-style="normal" class="text-inner-tspan" font-weight="normal">/build_002/</tspan></tspan></text></g></g></g><g class="node default neutralC" id="g04e62b38-728c-45c6-821f-8362775da5a8-dark-flowchart-metrics-6" data-look="classic" transform="translate(557.91796875, 567.8656272888184)"><rect class="basic label-container" style="fill:#5A5A5A !important;stroke:#3D3D3D !important" x="-112.171875" y="-33.29999923706055" width="224.34375" height="66.5999984741211"></rect><g class="label" style="color:#ffffff !important" transform="translate(0, -18.299999237060547)"><rect></rect><g><rect class="background" style="stroke: none"></rect><text y="-10.1" style="fill:#404040 !important"><tspan class="text-outer-tspan row" x="0" y="-0.1em" dy="1.1em"><tspan font-style="normal" class="text-inner-tspan" font-weight="normal">Monitor</tspan></tspan><tspan class="text-outer-tspan row" x="0" y="1em" dy="1.1em"><tspan font-style="normal" class="text-inner-tspan" font-weight="normal">4xx,</tspan><tspan font-style="normal" class="text-inner-tspan" font-weight="normal"> 5xx,</tspan><tspan font-style="normal" class="text-inner-tspan" font-weight="normal"> latency,</tspan><tspan font-style="normal" class="text-inner-tspan" font-weight="normal"> CWV</tspan></tspan></text></g></g></g><g class="node default successC" id="g04e62b38-728c-45c6-821f-8362775da5a8-dark-flowchart-promote-7" data-look="classic" transform="translate(447.1484375, 707.4656257629395)"><rect class="basic label-container" style="fill:#2D7A2D !important;stroke:#1E5A1E !important" x="-87.671875" y="-33.29999923706055" width="175.34375" height="66.5999984741211"></rect><g class="label" style="color:#ffffff !important" transform="translate(0, -18.299999237060547)"><rect></rect><g><rect class="background" style="stroke: none"></rect><text y="-10.1" style="fill:#404040 !important"><tspan class="text-outer-tspan row" x="0" y="-0.1em" dy="1.1em"><tspan font-style="normal" class="text-inner-tspan" font-weight="normal">Promote</tspan><tspan font-style="normal" class="text-inner-tspan" font-weight="normal"> staging</tspan></tspan><tspan class="text-outer-tspan row" x="0" y="1em" dy="1.1em"><tspan font-style="normal" class="text-inner-tspan" font-weight="normal">to</tspan><tspan font-style="normal" class="text-inner-tspan" font-weight="normal"> primary</tspan></tspan></text></g></g></g><g class="node default alertC" id="g04e62b38-728c-45c6-821f-8362775da5a8-dark-flowchart-rollback-8" data-look="classic" transform="translate(668.6875, 707.4656257629395)"><rect class="basic label-container" style="fill:#B43A3A !important;stroke:#8E2828 !important" x="-83.8671875" y="-33.29999923706055" width="167.734375" height="66.5999984741211"></rect><g class="label" style="color:#ffffff !important" transform="translate(0, -18.299999237060547)"><rect></rect><g><rect class="background" style="stroke: none"></rect><text y="-10.1" style="fill:#404040 !important"><tspan class="text-outer-tspan row" x="0" y="-0.1em" dy="1.1em"><tspan font-style="normal" class="text-inner-tspan" font-weight="normal">Discard</tspan><tspan font-style="normal" class="text-inner-tspan" font-weight="normal"> staging</tspan></tspan><tspan class="text-outer-tspan row" x="0" y="1em" dy="1.1em"><tspan font-style="normal" class="text-inner-tspan" font-weight="normal">keep</tspan><tspan font-style="normal" class="text-inner-tspan" font-weight="normal"> primary</tspan></tspan></text></g></g></g></g></g></g><defs><filter id="g04e62b38-728c-45c6-821f-8362775da5a8-dark-drop-shadow" height="130%" width="130%"><feDropShadow dx="4" dy="4" stdDeviation="0" flood-opacity="0.06" flood-color="#000000"></feDropShadow></filter></defs><defs><filter id="g04e62b38-728c-45c6-821f-8362775da5a8-dark-drop-shadow-small" height="150%" width="150%"><feDropShadow dx="2" dy="2" stdDeviation="0" flood-opacity="0.06" flood-color="#000000"></feDropShadow></filter></defs><linearGradient id="g04e62b38-728c-45c6-821f-8362775da5a8-dark-gradient" gradientUnits="objectBoundingBox" x1="0%" y1="0%" x2="100%" y2="0%"><stop offset="0%" stop-color="#555555" stop-opacity="1"></stop><stop offset="100%" stop-color="#555555" stop-opacity="1"></stop></linearGradient></svg>