<?xml version="1.0" encoding="UTF-8" standalone="no"?>
<!DOCTYPE svg PUBLIC "-//W3C//DTD SVG 1.1//EN"
 "http://www.w3.org/Graphics/SVG/1.1/DTD/svg11.dtd">
<!-- Generated by graphviz version 14.1.5 (20260411.2331)
 -->
<!-- Title: k2_search_trace Pages: 1 -->
<svg width="793pt" height="440pt"
 viewBox="0.00 0.00 793.00 440.00" xmlns="http://www.w3.org/2000/svg" xmlns:xlink="http://www.w3.org/1999/xlink">
<g id="graph0" class="graph" transform="scale(1 1) rotate(0) translate(4 435.55)">
<title>k2_search_trace</title>
<!-- Start -->
<g id="node1" class="node">
<title>Start</title>
<path fill="#f5f5f5" stroke="#666666" d="M81.17,-234.18C81.17,-234.18 12.12,-234.18 12.12,-234.18 6.12,-234.18 0.12,-228.18 0.12,-222.18 0.12,-222.18 0.12,-209.38 0.12,-209.38 0.12,-203.38 6.12,-197.38 12.12,-197.38 12.12,-197.38 81.17,-197.38 81.17,-197.38 87.17,-197.38 93.17,-203.38 93.17,-209.38 93.17,-209.38 93.17,-222.18 93.17,-222.18 93.17,-228.18 87.17,-234.18 81.17,-234.18"/>
<text xml:space="preserve" text-anchor="middle" x="46.64" y="-219.38" font-family="Helvetica,sans-Serif" font-size="12.00" fill="#1a1a1a">Start</text>
<text xml:space="preserve" text-anchor="middle" x="46.64" y="-204.98" font-family="Helvetica,sans-Serif" font-size="12.00" fill="#1a1a1a">2 eggs, T = 14</text>
</g>
<!-- P14 -->
<g id="node2" class="node">
<title>P14</title>
<path fill="#dae8fc" stroke="#6c8ebf" d="M202.33,-234.18C202.33,-234.18 136.96,-234.18 136.96,-234.18 130.96,-234.18 124.96,-228.18 124.96,-222.18 124.96,-222.18 124.96,-209.38 124.96,-209.38 124.96,-203.38 130.96,-197.38 136.96,-197.38 136.96,-197.38 202.33,-197.38 202.33,-197.38 208.33,-197.38 214.33,-203.38 214.33,-209.38 214.33,-209.38 214.33,-222.18 214.33,-222.18 214.33,-228.18 208.33,-234.18 202.33,-234.18"/>
<text xml:space="preserve" text-anchor="middle" x="169.64" y="-219.38" font-family="Helvetica,sans-Serif" font-size="12.00" fill="#1a1a1a">Egg #1 @ 14</text>
<text xml:space="preserve" text-anchor="middle" x="169.64" y="-204.98" font-family="Helvetica,sans-Serif" font-size="12.00" fill="#1a1a1a">safe (step 14)</text>
</g>
<!-- Start&#45;&gt;P14 -->
<g id="edge1" class="edge">
<title>Start&#45;&gt;P14</title>
<path fill="none" stroke="#888888" d="M93.39,-215.78C99.99,-215.78 106.84,-215.78 113.6,-215.78"/>
<polygon fill="#888888" stroke="#888888" points="113.32,-219.28 123.32,-215.78 113.32,-212.28 113.32,-219.28"/>
</g>
<!-- P27 -->
<g id="node3" class="node">
<title>P27</title>
<path fill="#dae8fc" stroke="#6c8ebf" d="M323.33,-234.18C323.33,-234.18 257.96,-234.18 257.96,-234.18 251.96,-234.18 245.96,-228.18 245.96,-222.18 245.96,-222.18 245.96,-209.38 245.96,-209.38 245.96,-203.38 251.96,-197.38 257.96,-197.38 257.96,-197.38 323.33,-197.38 323.33,-197.38 329.33,-197.38 335.33,-203.38 335.33,-209.38 335.33,-209.38 335.33,-222.18 335.33,-222.18 335.33,-228.18 329.33,-234.18 323.33,-234.18"/>
<text xml:space="preserve" text-anchor="middle" x="290.64" y="-219.38" font-family="Helvetica,sans-Serif" font-size="12.00" fill="#1a1a1a">Egg #1 @ 27</text>
<text xml:space="preserve" text-anchor="middle" x="290.64" y="-204.98" font-family="Helvetica,sans-Serif" font-size="12.00" fill="#1a1a1a">safe (step 13)</text>
</g>
<!-- P14&#45;&gt;P27 -->
<g id="edge2" class="edge">
<title>P14&#45;&gt;P27</title>
<path fill="none" stroke="#888888" d="M214.62,-215.78C221.15,-215.78 227.95,-215.78 234.67,-215.78"/>
<polygon fill="#888888" stroke="#888888" points="234.34,-219.28 244.34,-215.78 234.34,-212.28 234.34,-219.28"/>
</g>
<!-- P39 -->
<g id="node4" class="node">
<title>P39</title>
<path fill="#f8cecc" stroke="#b85450" d="M463.33,-234.18C463.33,-234.18 379.96,-234.18 379.96,-234.18 373.96,-234.18 367.96,-228.18 367.96,-222.18 367.96,-222.18 367.96,-209.38 367.96,-209.38 367.96,-203.38 373.96,-197.38 379.96,-197.38 379.96,-197.38 463.33,-197.38 463.33,-197.38 469.33,-197.38 475.33,-203.38 475.33,-209.38 475.33,-209.38 475.33,-222.18 475.33,-222.18 475.33,-228.18 469.33,-234.18 463.33,-234.18"/>
<text xml:space="preserve" text-anchor="middle" x="421.64" y="-219.38" font-family="Helvetica,sans-Serif" font-size="12.00" fill="#1a1a1a">Egg #1 @ 39</text>
<text xml:space="preserve" text-anchor="middle" x="421.64" y="-204.98" font-family="Helvetica,sans-Serif" font-size="12.00" fill="#1a1a1a">BREAK (step 12)</text>
</g>
<!-- P27&#45;&gt;P39 -->
<g id="edge3" class="edge">
<title>P27&#45;&gt;P39</title>
<path fill="none" stroke="#888888" d="M335.68,-215.78C342.4,-215.78 349.45,-215.78 356.5,-215.78"/>
<polygon fill="#888888" stroke="#888888" points="356.38,-219.28 366.38,-215.78 356.38,-212.28 356.38,-219.28"/>
</g>
<!-- Scan -->
<g id="node5" class="node">
<title>Scan</title>
<path fill="#fff2cc" stroke="#d6b656" d="M630.35,-234.18C630.35,-234.18 518.94,-234.18 518.94,-234.18 512.94,-234.18 506.94,-228.18 506.94,-222.18 506.94,-222.18 506.94,-209.38 506.94,-209.38 506.94,-203.38 512.94,-197.38 518.94,-197.38 518.94,-197.38 630.35,-197.38 630.35,-197.38 636.35,-197.38 642.35,-203.38 642.35,-209.38 642.35,-209.38 642.35,-222.18 642.35,-222.18 642.35,-228.18 636.35,-234.18 630.35,-234.18"/>
<text xml:space="preserve" text-anchor="middle" x="574.64" y="-219.38" font-family="Helvetica,sans-Serif" font-size="12.00" fill="#1a1a1a">Egg #2 walks 28..38</text>
<text xml:space="preserve" text-anchor="middle" x="574.64" y="-204.98" font-family="Helvetica,sans-Serif" font-size="12.00" fill="#1a1a1a">10 drops, breaks at 37</text>
</g>
<!-- P39&#45;&gt;Scan -->
<g id="edge4" class="edge">
<title>P39&#45;&gt;Scan</title>
<path fill="none" stroke="#888888" d="M475.46,-215.78C481.89,-215.78 488.56,-215.78 495.26,-215.78"/>
<polygon fill="#888888" stroke="#888888" points="495.01,-219.28 505.01,-215.78 495.01,-212.28 495.01,-219.28"/>
</g>
<!-- Result -->
<g id="node6" class="node">
<title>Result</title>
<path fill="#d5e8d4" stroke="#82b366" d="M772.68,-241.38C772.68,-241.38 686.61,-241.38 686.61,-241.38 680.61,-241.38 674.61,-235.38 674.61,-229.38 674.61,-229.38 674.61,-202.18 674.61,-202.18 674.61,-196.18 680.61,-190.18 686.61,-190.18 686.61,-190.18 772.68,-190.18 772.68,-190.18 778.68,-190.18 784.68,-196.18 784.68,-202.18 784.68,-202.18 784.68,-229.38 784.68,-229.38 784.68,-235.38 778.68,-241.38 772.68,-241.38"/>
<text xml:space="preserve" text-anchor="middle" x="729.64" y="-226.58" font-family="Helvetica,sans-Serif" font-size="12.00" fill="#1a1a1a">Threshold = 37</text>
<text xml:space="preserve" text-anchor="middle" x="729.64" y="-212.18" font-family="Helvetica,sans-Serif" font-size="12.00" fill="#1a1a1a">3 + 10 = 13 drops</text>
<text xml:space="preserve" text-anchor="middle" x="729.64" y="-197.78" font-family="Helvetica,sans-Serif" font-size="12.00" fill="#1a1a1a">bound = 14</text>
</g>
<!-- Scan&#45;&gt;Result -->
<g id="edge5" class="edge">
<title>Scan&#45;&gt;Result</title>
<path fill="none" stroke="#888888" d="M642.75,-215.78C649.54,-215.78 656.43,-215.78 663.2,-215.78"/>
<polygon fill="#888888" stroke="#888888" points="662.94,-219.28 672.94,-215.78 662.94,-212.28 662.94,-219.28"/>
</g>
</g>
</svg>
