<svg id="gc33570dc-dbdc-4713-95c9-bcc91c2a9b6b-light" width="100%" xmlns="http://www.w3.org/2000/svg" xmlns:xlink="http://www.w3.org/1999/xlink" class="flowchart" style="max-width: 1034.7281494140625px;" viewBox="0 0 1034.7281494140625 1295.69384765625" role="graphics-document document" aria-roledescription="flowchart-v2"><style>#gc33570dc-dbdc-4713-95c9-bcc91c2a9b6b-light{font-family:"trebuchet ms",verdana,arial,sans-serif;font-size:16px;fill:#333;}@keyframes edge-animation-frame{from{stroke-dashoffset:0;}}@keyframes dash{to{stroke-dashoffset:0;}}#gc33570dc-dbdc-4713-95c9-bcc91c2a9b6b-light .edge-animation-slow{stroke-dasharray:9,5!important;stroke-dashoffset:900;animation:dash 50s linear infinite;stroke-linecap:round;}#gc33570dc-dbdc-4713-95c9-bcc91c2a9b6b-light .edge-animation-fast{stroke-dasharray:9,5!important;stroke-dashoffset:900;animation:dash 20s linear infinite;stroke-linecap:round;}#gc33570dc-dbdc-4713-95c9-bcc91c2a9b6b-light .error-icon{fill:#552222;}#gc33570dc-dbdc-4713-95c9-bcc91c2a9b6b-light .error-text{fill:#552222;stroke:#552222;}#gc33570dc-dbdc-4713-95c9-bcc91c2a9b6b-light .edge-thickness-normal{stroke-width:1px;}#gc33570dc-dbdc-4713-95c9-bcc91c2a9b6b-light .edge-thickness-thick{stroke-width:3.5px;}#gc33570dc-dbdc-4713-95c9-bcc91c2a9b6b-light .edge-pattern-solid{stroke-dasharray:0;}#gc33570dc-dbdc-4713-95c9-bcc91c2a9b6b-light .edge-thickness-invisible{stroke-width:0;fill:none;}#gc33570dc-dbdc-4713-95c9-bcc91c2a9b6b-light .edge-pattern-dashed{stroke-dasharray:3;}#gc33570dc-dbdc-4713-95c9-bcc91c2a9b6b-light .edge-pattern-dotted{stroke-dasharray:2;}#gc33570dc-dbdc-4713-95c9-bcc91c2a9b6b-light .marker{fill:#333333;stroke:#333333;}#gc33570dc-dbdc-4713-95c9-bcc91c2a9b6b-light .marker.cross{stroke:#333333;}#gc33570dc-dbdc-4713-95c9-bcc91c2a9b6b-light svg{font-family:"trebuchet ms",verdana,arial,sans-serif;font-size:16px;}#gc33570dc-dbdc-4713-95c9-bcc91c2a9b6b-light p{margin:0;}#gc33570dc-dbdc-4713-95c9-bcc91c2a9b6b-light .label{font-family:"trebuchet ms",verdana,arial,sans-serif;color:#333;}#gc33570dc-dbdc-4713-95c9-bcc91c2a9b6b-light .cluster-label text{fill:#333;}#gc33570dc-dbdc-4713-95c9-bcc91c2a9b6b-light .cluster-label span{color:#333;}#gc33570dc-dbdc-4713-95c9-bcc91c2a9b6b-light .cluster-label span p{background-color:transparent;}#gc33570dc-dbdc-4713-95c9-bcc91c2a9b6b-light .label text,#gc33570dc-dbdc-4713-95c9-bcc91c2a9b6b-light span{fill:#333;color:#333;}#gc33570dc-dbdc-4713-95c9-bcc91c2a9b6b-light .node rect,#gc33570dc-dbdc-4713-95c9-bcc91c2a9b6b-light .node circle,#gc33570dc-dbdc-4713-95c9-bcc91c2a9b6b-light .node ellipse,#gc33570dc-dbdc-4713-95c9-bcc91c2a9b6b-light .node polygon,#gc33570dc-dbdc-4713-95c9-bcc91c2a9b6b-light .node path{fill:#ECECFF;stroke:#9370DB;stroke-width:1px;}#gc33570dc-dbdc-4713-95c9-bcc91c2a9b6b-light .rough-node .label text,#gc33570dc-dbdc-4713-95c9-bcc91c2a9b6b-light .node .label text,#gc33570dc-dbdc-4713-95c9-bcc91c2a9b6b-light .image-shape .label,#gc33570dc-dbdc-4713-95c9-bcc91c2a9b6b-light .icon-shape .label{text-anchor:middle;}#gc33570dc-dbdc-4713-95c9-bcc91c2a9b6b-light .node .katex path{fill:#000;stroke:#000;stroke-width:1px;}#gc33570dc-dbdc-4713-95c9-bcc91c2a9b6b-light .rough-node .label,#gc33570dc-dbdc-4713-95c9-bcc91c2a9b6b-light .node .label,#gc33570dc-dbdc-4713-95c9-bcc91c2a9b6b-light .image-shape .label,#gc33570dc-dbdc-4713-95c9-bcc91c2a9b6b-light .icon-shape .label{text-align:center;}#gc33570dc-dbdc-4713-95c9-bcc91c2a9b6b-light .node.clickable{cursor:pointer;}#gc33570dc-dbdc-4713-95c9-bcc91c2a9b6b-light .root .anchor path{fill:#333333!important;stroke-width:0;stroke:#333333;}#gc33570dc-dbdc-4713-95c9-bcc91c2a9b6b-light .arrowheadPath{fill:#333333;}#gc33570dc-dbdc-4713-95c9-bcc91c2a9b6b-light .edgePath .path{stroke:#333333;stroke-width:1px;}#gc33570dc-dbdc-4713-95c9-bcc91c2a9b6b-light .flowchart-link{stroke:#333333;fill:none;}#gc33570dc-dbdc-4713-95c9-bcc91c2a9b6b-light .edgeLabel{background-color:rgba(232,232,232, 0.8);text-align:center;}#gc33570dc-dbdc-4713-95c9-bcc91c2a9b6b-light .edgeLabel p{background-color:rgba(232,232,232, 0.8);}#gc33570dc-dbdc-4713-95c9-bcc91c2a9b6b-light .edgeLabel rect{opacity:0.5;background-color:rgba(232,232,232, 0.8);fill:rgba(232,232,232, 0.8);}#gc33570dc-dbdc-4713-95c9-bcc91c2a9b6b-light .labelBkg{background-color:rgba(232, 232, 232, 0.5);}#gc33570dc-dbdc-4713-95c9-bcc91c2a9b6b-light .cluster rect{fill:#ffffde;stroke:#aaaa33;stroke-width:1px;}#gc33570dc-dbdc-4713-95c9-bcc91c2a9b6b-light .cluster text{fill:#333;}#gc33570dc-dbdc-4713-95c9-bcc91c2a9b6b-light .cluster span{color:#333;}#gc33570dc-dbdc-4713-95c9-bcc91c2a9b6b-light div.mermaidTooltip{position:absolute;text-align:center;max-width:200px;padding:2px;font-family:"trebuchet ms",verdana,arial,sans-serif;font-size:12px;background:hsl(80, 100%, 96.2745098039%);border:1px solid #aaaa33;border-radius:2px;pointer-events:none;z-index:100;}#gc33570dc-dbdc-4713-95c9-bcc91c2a9b6b-light .flowchartTitleText{text-anchor:middle;font-size:18px;fill:#333;}#gc33570dc-dbdc-4713-95c9-bcc91c2a9b6b-light rect.text{fill:none;stroke-width:0;}#gc33570dc-dbdc-4713-95c9-bcc91c2a9b6b-light .icon-shape,#gc33570dc-dbdc-4713-95c9-bcc91c2a9b6b-light .image-shape{background-color:rgba(232,232,232, 0.8);text-align:center;}#gc33570dc-dbdc-4713-95c9-bcc91c2a9b6b-light .icon-shape p,#gc33570dc-dbdc-4713-95c9-bcc91c2a9b6b-light .image-shape p{background-color:rgba(232,232,232, 0.8);padding:2px;}#gc33570dc-dbdc-4713-95c9-bcc91c2a9b6b-light .icon-shape .label rect,#gc33570dc-dbdc-4713-95c9-bcc91c2a9b6b-light .image-shape .label rect{opacity:0.5;background-color:rgba(232,232,232, 0.8);fill:rgba(232,232,232, 0.8);}#gc33570dc-dbdc-4713-95c9-bcc91c2a9b6b-light .label-icon{display:inline-block;height:1em;overflow:visible;vertical-align:-0.125em;}#gc33570dc-dbdc-4713-95c9-bcc91c2a9b6b-light .node .label-icon path{fill:currentColor;stroke:revert;stroke-width:revert;}#gc33570dc-dbdc-4713-95c9-bcc91c2a9b6b-light .node .neo-node{stroke:#9370DB;}#gc33570dc-dbdc-4713-95c9-bcc91c2a9b6b-light [data-look="neo"].node rect,#gc33570dc-dbdc-4713-95c9-bcc91c2a9b6b-light [data-look="neo"].cluster rect,#gc33570dc-dbdc-4713-95c9-bcc91c2a9b6b-light [data-look="neo"].node polygon{stroke:#9370DB;filter:drop-shadow(1px 2px 2px rgba(185, 185, 185, 1));}#gc33570dc-dbdc-4713-95c9-bcc91c2a9b6b-light [data-look="neo"].node path{stroke:#9370DB;stroke-width:1px;}#gc33570dc-dbdc-4713-95c9-bcc91c2a9b6b-light [data-look="neo"].node .outer-path{filter:drop-shadow(1px 2px 2px rgba(185, 185, 185, 1));}#gc33570dc-dbdc-4713-95c9-bcc91c2a9b6b-light [data-look="neo"].node .neo-line path{stroke:#9370DB;filter:none;}#gc33570dc-dbdc-4713-95c9-bcc91c2a9b6b-light [data-look="neo"].node circle{stroke:#9370DB;filter:drop-shadow(1px 2px 2px rgba(185, 185, 185, 1));}#gc33570dc-dbdc-4713-95c9-bcc91c2a9b6b-light [data-look="neo"].node circle .state-start{fill:#000000;}#gc33570dc-dbdc-4713-95c9-bcc91c2a9b6b-light [data-look="neo"].icon-shape .icon{fill:#9370DB;filter:drop-shadow(1px 2px 2px rgba(185, 185, 185, 1));}#gc33570dc-dbdc-4713-95c9-bcc91c2a9b6b-light [data-look="neo"].icon-shape .icon-neo path{stroke:#9370DB;filter:drop-shadow(1px 2px 2px rgba(185, 185, 185, 1));}#gc33570dc-dbdc-4713-95c9-bcc91c2a9b6b-light :root{--mermaid-font-family:"trebuchet ms",verdana,arial,sans-serif;}#gc33570dc-dbdc-4713-95c9-bcc91c2a9b6b-light .ok rect{fill:#e5f5e5!important;stroke:#44aa44!important;}#gc33570dc-dbdc-4713-95c9-bcc91c2a9b6b-light .ok polygon{fill:#e5f5e5!important;stroke:#44aa44!important;}#gc33570dc-dbdc-4713-95c9-bcc91c2a9b6b-light .ok ellipse{fill:#e5f5e5!important;stroke:#44aa44!important;}#gc33570dc-dbdc-4713-95c9-bcc91c2a9b6b-light .ok circle{fill:#e5f5e5!important;stroke:#44aa44!important;}#gc33570dc-dbdc-4713-95c9-bcc91c2a9b6b-light .ok path{fill:#e5f5e5!important;stroke:#44aa44!important;}#gc33570dc-dbdc-4713-95c9-bcc91c2a9b6b-light .warn rect{fill:#fff5e5!important;stroke:#cc8844!important;}#gc33570dc-dbdc-4713-95c9-bcc91c2a9b6b-light .warn polygon{fill:#fff5e5!important;stroke:#cc8844!important;}#gc33570dc-dbdc-4713-95c9-bcc91c2a9b6b-light .warn ellipse{fill:#fff5e5!important;stroke:#cc8844!important;}#gc33570dc-dbdc-4713-95c9-bcc91c2a9b6b-light .warn circle{fill:#fff5e5!important;stroke:#cc8844!important;}#gc33570dc-dbdc-4713-95c9-bcc91c2a9b6b-light .warn path{fill:#fff5e5!important;stroke:#cc8844!important;}#gc33570dc-dbdc-4713-95c9-bcc91c2a9b6b-light .bad rect{fill:#ffe5e5!important;stroke:#cc4444!important;}#gc33570dc-dbdc-4713-95c9-bcc91c2a9b6b-light .bad polygon{fill:#ffe5e5!important;stroke:#cc4444!important;}#gc33570dc-dbdc-4713-95c9-bcc91c2a9b6b-light .bad ellipse{fill:#ffe5e5!important;stroke:#cc4444!important;}#gc33570dc-dbdc-4713-95c9-bcc91c2a9b6b-light .bad circle{fill:#ffe5e5!important;stroke:#cc4444!important;}#gc33570dc-dbdc-4713-95c9-bcc91c2a9b6b-light .bad path{fill:#ffe5e5!important;stroke:#cc4444!important;}</style><g><marker id="gc33570dc-dbdc-4713-95c9-bcc91c2a9b6b-light_flowchart-v2-pointEnd" class="marker flowchart-v2" viewBox="0 0 10 10" refX="5" refY="5" markerUnits="userSpaceOnUse" markerWidth="8" markerHeight="8" orient="auto"><path d="M 0 0 L 10 5 L 0 10 z" class="arrowMarkerPath" style="stroke-width: 1; stroke-dasharray: 1, 0;"></path></marker><marker id="gc33570dc-dbdc-4713-95c9-bcc91c2a9b6b-light_flowchart-v2-pointStart" class="marker flowchart-v2" viewBox="0 0 10 10" refX="4.5" refY="5" markerUnits="userSpaceOnUse" markerWidth="8" markerHeight="8" orient="auto"><path d="M 0 5 L 10 10 L 10 0 z" class="arrowMarkerPath" style="stroke-width: 1; stroke-dasharray: 1, 0;"></path></marker><marker id="gc33570dc-dbdc-4713-95c9-bcc91c2a9b6b-light_flowchart-v2-pointEnd-margin" class="marker flowchart-v2" viewBox="0 0 11.5 14" refX="11.5" refY="7" markerUnits="userSpaceOnUse" markerWidth="10.5" markerHeight="14" orient="auto"><path d="M 0 0 L 11.5 7 L 0 14 z" class="arrowMarkerPath" style="stroke-width: 0; stroke-dasharray: 1, 0;"></path></marker><marker id="gc33570dc-dbdc-4713-95c9-bcc91c2a9b6b-light_flowchart-v2-pointStart-margin" class="marker flowchart-v2" viewBox="0 0 11.5 14" refX="1" refY="7" markerUnits="userSpaceOnUse" markerWidth="11.5" markerHeight="14" orient="auto"><polygon points="0,7 11.5,14 11.5,0" class="arrowMarkerPath" style="stroke-width: 0; stroke-dasharray: 1, 0;"></polygon></marker><marker id="gc33570dc-dbdc-4713-95c9-bcc91c2a9b6b-light_flowchart-v2-circleEnd" class="marker flowchart-v2" viewBox="0 0 10 10" refX="11" refY="5" markerUnits="userSpaceOnUse" markerWidth="11" markerHeight="11" orient="auto"><circle cx="5" cy="5" r="5" class="arrowMarkerPath" style="stroke-width: 1; stroke-dasharray: 1, 0;"></circle></marker><marker id="gc33570dc-dbdc-4713-95c9-bcc91c2a9b6b-light_flowchart-v2-circleStart" class="marker flowchart-v2" viewBox="0 0 10 10" refX="-1" refY="5" markerUnits="userSpaceOnUse" markerWidth="11" markerHeight="11" orient="auto"><circle cx="5" cy="5" r="5" class="arrowMarkerPath" style="stroke-width: 1; stroke-dasharray: 1, 0;"></circle></marker><marker id="gc33570dc-dbdc-4713-95c9-bcc91c2a9b6b-light_flowchart-v2-circleEnd-margin" class="marker flowchart-v2" viewBox="0 0 10 10" refY="5" refX="12.25" markerUnits="userSpaceOnUse" markerWidth="14" markerHeight="14" orient="auto"><circle cx="5" cy="5" r="5" class="arrowMarkerPath" style="stroke-width: 0; stroke-dasharray: 1, 0;"></circle></marker><marker id="gc33570dc-dbdc-4713-95c9-bcc91c2a9b6b-light_flowchart-v2-circleStart-margin" class="marker flowchart-v2" viewBox="0 0 10 10" refX="-2" refY="5" markerUnits="userSpaceOnUse" markerWidth="14" markerHeight="14" orient="auto"><circle cx="5" cy="5" r="5" class="arrowMarkerPath" style="stroke-width: 0; stroke-dasharray: 1, 0;"></circle></marker><marker id="gc33570dc-dbdc-4713-95c9-bcc91c2a9b6b-light_flowchart-v2-crossEnd" class="marker cross flowchart-v2" viewBox="0 0 11 11" refX="12" refY="5.2" markerUnits="userSpaceOnUse" markerWidth="11" markerHeight="11" orient="auto"><path d="M 1,1 l 9,9 M 10,1 l -9,9" class="arrowMarkerPath" style="stroke-width: 2; stroke-dasharray: 1, 0;"></path></marker><marker id="gc33570dc-dbdc-4713-95c9-bcc91c2a9b6b-light_flowchart-v2-crossStart" class="marker cross flowchart-v2" viewBox="0 0 11 11" refX="-1" refY="5.2" markerUnits="userSpaceOnUse" markerWidth="11" markerHeight="11" orient="auto"><path d="M 1,1 l 9,9 M 10,1 l -9,9" class="arrowMarkerPath" style="stroke-width: 2; stroke-dasharray: 1, 0;"></path></marker><marker id="gc33570dc-dbdc-4713-95c9-bcc91c2a9b6b-light_flowchart-v2-crossEnd-margin" class="marker cross flowchart-v2" viewBox="0 0 15 15" refX="17.7" refY="7.5" markerUnits="userSpaceOnUse" markerWidth="12" markerHeight="12" orient="auto"><path d="M 1,1 L 14,14 M 1,14 L 14,1" class="arrowMarkerPath" style="stroke-width: 2.5;"></path></marker><marker id="gc33570dc-dbdc-4713-95c9-bcc91c2a9b6b-light_flowchart-v2-crossStart-margin" class="marker cross flowchart-v2" viewBox="0 0 15 15" refX="-3.5" refY="7.5" markerUnits="userSpaceOnUse" markerWidth="12" markerHeight="12" orient="auto"><path d="M 1,1 L 14,14 M 1,14 L 14,1" class="arrowMarkerPath" style="stroke-width: 2.5; stroke-dasharray: 1, 0;"></path></marker><g class="root"><g class="clusters"></g><g class="edgePaths"><path d="M235.855,60.1L235.772,64.183C235.689,68.267,235.522,76.433,235.439,84.017C235.355,91.6,235.355,98.6,235.355,102.1L235.355,105.6" id="gc33570dc-dbdc-4713-95c9-bcc91c2a9b6b-light-L_Start_Q1_0" class="edge-thickness-normal edge-pattern-solid edge-thickness-normal edge-pattern-solid flowchart-link" style=";" data-edge="true" data-et="edge" data-id="L_Start_Q1_0" data-points="W3sieCI6MjM1Ljg1NTQ2ODc0OTk5OTk3LCJ5Ijo2MC4wOTk5OTg0NzQxMjEwOH0seyJ4IjoyMzUuMzU1NDY4NzUsInkiOjg0LjU5OTk5ODQ3NDEyMTF9LHsieCI6MjM1LjM1NTQ2ODc1LCJ5IjoxMDkuNTk5OTk4NDc0MTIxMX1d" data-look="classic" marker-end="url(#gc33570dc-dbdc-4713-95c9-bcc91c2a9b6b-light_flowchart-v2-pointEnd)"></path><path d="M195.061,226.227L181.548,239.026C168.035,251.826,141.01,277.424,127.497,304.549C113.984,331.674,113.984,360.327,113.984,374.653L113.984,388.98" id="gc33570dc-dbdc-4713-95c9-bcc91c2a9b6b-light-L_Q1_ApplyR_0" class="edge-thickness-normal edge-pattern-solid edge-thickness-normal edge-pattern-solid flowchart-link" style=";" data-edge="true" data-et="edge" data-id="L_Q1_ApplyR_0" data-points="W3sieCI6MTk1LjA2MDkzMTY1MDQwNjYyLCJ5IjoyMjYuMjI3MzM2Mzc0NTI3NzR9LHsieCI6MTEzLjk4NDM3NSwieSI6MzAzLjAyMTg3MzQ3NDEyMTF9LHsieCI6MTEzLjk4NDM3NSwieSI6MzkyLjk3OTY4NjczNzA2MDU1fV0=" data-look="classic" marker-end="url(#gc33570dc-dbdc-4713-95c9-bcc91c2a9b6b-light_flowchart-v2-pointEnd)"></path><path d="M275.65,226.227L289.163,239.026C302.676,251.826,329.701,277.424,343.214,295.639C356.727,313.855,356.727,324.689,356.727,330.105L356.727,335.522" id="gc33570dc-dbdc-4713-95c9-bcc91c2a9b6b-light-L_Q1_Q2_0" class="edge-thickness-normal edge-pattern-solid edge-thickness-normal edge-pattern-solid flowchart-link" style=";" data-edge="true" data-et="edge" data-id="L_Q1_Q2_0" data-points="W3sieCI6Mjc1LjY1MDAwNTg0OTU5MzQsInkiOjIyNi4yMjczMzYzNzQ1Mjc3NH0seyJ4IjozNTYuNzI2NTYyNSwieSI6MzAzLjAyMTg3MzQ3NDEyMTF9LHsieCI6MzU2LjcyNjU2MjUsInkiOjMzOS41MjE4NzM0NzQxMjExfV0=" data-look="classic" marker-end="url(#gc33570dc-dbdc-4713-95c9-bcc91c2a9b6b-light_flowchart-v2-pointEnd)"></path><path d="M346.698,503.009L345.685,510.764C344.671,518.519,342.644,534.028,341.631,563.157C340.617,592.286,340.617,635.034,340.617,656.409L340.617,677.783" id="gc33570dc-dbdc-4713-95c9-bcc91c2a9b6b-light-L_Q2_ApplyL_0" class="edge-thickness-normal edge-pattern-solid edge-thickness-normal edge-pattern-solid flowchart-link" style=";" data-edge="true" data-et="edge" data-id="L_Q2_ApplyL_0" data-points="W3sieCI6MzQ2LjY5ODI3NTYzNTU0NTcsInkiOjUwMy4wMDkyMTE2MDk2NjY3NX0seyJ4IjozNDAuNjE3MTg3NSwieSI6NTQ5LjUzNzQ5ODQ3NDEyMTF9LHsieCI6MzQwLjYxNzE4NzUsInkiOjY4MS43ODI4MTQwMjU4Nzg5fV0=" data-look="classic" marker-end="url(#gc33570dc-dbdc-4713-95c9-bcc91c2a9b6b-light_flowchart-v2-pointEnd)"></path><path d="M417.114,452.65L454.091,468.798C491.069,484.946,565.024,517.242,602.002,538.806C638.98,560.371,638.98,571.204,638.98,576.621L638.98,582.037" id="gc33570dc-dbdc-4713-95c9-bcc91c2a9b6b-light-L_Q2_Q3_0" class="edge-thickness-normal edge-pattern-solid edge-thickness-normal edge-pattern-solid flowchart-link" style=";" data-edge="true" data-et="edge" data-id="L_Q2_Q3_0" data-points="W3sieCI6NDE3LjExMzc0Njk0MzczODUzLCJ5Ijo0NTIuNjUwMzE0MDMwMzgyNTZ9LHsieCI6NjM4Ljk3OTY5MDU1MTc1NzgsInkiOjU0OS41Mzc0OTg0NzQxMjExfSx7IngiOjYzOC45Nzk2OTA1NTE3NTc4LCJ5Ijo1ODYuMDM3NDk4NDc0MTIxMX1d" data-look="classic" marker-end="url(#gc33570dc-dbdc-4713-95c9-bcc91c2a9b6b-light_flowchart-v2-pointEnd)"></path><path d="M587.64,775.188L576.732,789.828C565.824,804.468,544.009,833.748,533.101,866.035C522.193,898.322,522.193,933.617,522.193,951.264L522.193,968.911" id="gc33570dc-dbdc-4713-95c9-bcc91c2a9b6b-light-L_Q3_Skip_0" class="edge-thickness-normal edge-pattern-solid edge-thickness-normal edge-pattern-solid flowchart-link" style=";" data-edge="true" data-et="edge" data-id="L_Q3_Skip_0" data-points="W3sieCI6NTg3LjYzOTk3ODIyMzk1OTQsInkiOjc3NS4xODg0MTcyNDk4MzgzfSx7IngiOjUyMi4xOTI5NzAyNzU4Nzg5LCJ5Ijo4NjMuMDI4MTI5NTc3NjM2N30seyJ4Ijo1MjIuMTkyOTcwMjc1ODc4OSwieSI6OTcyLjkxMDk0MjA3NzYzNjd9XQ==" data-look="classic" marker-end="url(#gc33570dc-dbdc-4713-95c9-bcc91c2a9b6b-light_flowchart-v2-pointEnd)"></path><path d="M693.959,771.549L706.803,786.795C719.647,802.042,745.334,832.535,758.177,853.198C771.021,873.861,771.021,884.695,771.021,890.111L771.021,895.528" id="gc33570dc-dbdc-4713-95c9-bcc91c2a9b6b-light-L_Q3_Q4_0" class="edge-thickness-normal edge-pattern-solid edge-thickness-normal edge-pattern-solid flowchart-link" style=";" data-edge="true" data-et="edge" data-id="L_Q3_Q4_0" data-points="W3sieCI6NjkzLjk1OTIyODI1OTY2MSwieSI6NzcxLjU0ODU5MTg2OTczMzZ9LHsieCI6NzcxLjAyMTA5NTI3NTg3ODksInkiOjg2My4wMjgxMjk1Nzc2MzY3fSx7IngiOjc3MS4wMjEwOTUyNzU4Nzg5LCJ5Ijo4OTkuNTI4MTI5NTc3NjM2Nn1d" data-look="classic" marker-end="url(#gc33570dc-dbdc-4713-95c9-bcc91c2a9b6b-light_flowchart-v2-pointEnd)"></path><path d="M697.052,1021.325L640.104,1039.736C583.155,1058.148,469.258,1094.971,412.31,1123.199C355.361,1151.427,355.361,1171.06,355.361,1180.877L355.361,1190.694" id="gc33570dc-dbdc-4713-95c9-bcc91c2a9b6b-light-L_Q4_SkipD_0" class="edge-thickness-normal edge-pattern-solid edge-thickness-normal edge-pattern-solid flowchart-link" style=";" data-edge="true" data-et="edge" data-id="L_Q4_SkipD_0" data-points="W3sieCI6Njk3LjA1MjM1NTY1MTA0NTEsInkiOjEwMjEuMzI1MDE0OTUyODAyOX0seyJ4IjozNTUuMzYwOTM5MDI1ODc4OSwieSI6MTEzMS43OTM3NTQ1Nzc2MzY3fSx7IngiOjM1NS4zNjA5MzkwMjU4Nzg5LCJ5IjoxMTk0LjY5Mzc1NjEwMzUxNTZ9XQ==" data-look="classic" marker-end="url(#gc33570dc-dbdc-4713-95c9-bcc91c2a9b6b-light_flowchart-v2-pointEnd)"></path><path d="M720.956,1045.229L705.85,1059.656C690.745,1074.084,660.533,1102.939,645.428,1127.183C630.322,1151.427,630.322,1171.06,630.322,1180.877L630.322,1190.694" id="gc33570dc-dbdc-4713-95c9-bcc91c2a9b6b-light-L_Q4_Restore_0" class="edge-thickness-normal edge-pattern-solid edge-thickness-normal edge-pattern-solid flowchart-link" style=";" data-edge="true" data-et="edge" data-id="L_Q4_Restore_0" data-points="W3sieCI6NzIwLjk1NTkwMTMyMTgzODIsInkiOjEwNDUuMjI4NTYwNjIzNTk2fSx7IngiOjYzMC4zMjE4NzY1MjU4Nzg5LCJ5IjoxMTMxLjc5Mzc1NDU3NzYzNjd9LHsieCI6NjMwLjMyMTg3NjUyNTg3ODksInkiOjExOTQuNjkzNzU2MTAzNTE1Nn1d" data-look="classic" marker-end="url(#gc33570dc-dbdc-4713-95c9-bcc91c2a9b6b-light_flowchart-v2-pointEnd)"></path><path d="M821.086,1045.229L836.192,1059.656C851.298,1074.084,881.509,1102.939,896.615,1122.783C911.72,1142.627,911.72,1153.46,911.72,1158.877L911.72,1164.294" id="gc33570dc-dbdc-4713-95c9-bcc91c2a9b6b-light-L_Q4_Conflict_0" class="edge-thickness-normal edge-pattern-solid edge-thickness-normal edge-pattern-solid flowchart-link" style=";" data-edge="true" data-et="edge" data-id="L_Q4_Conflict_0" data-points="W3sieCI6ODIxLjA4NjI4OTIyOTkxOTUsInkiOjEwNDUuMjI4NTYwNjIzNTk2fSx7IngiOjkxMS43MjAzMTQwMjU4Nzg5LCJ5IjoxMTMxLjc5Mzc1NDU3NzYzNjd9LHsieCI6OTExLjcyMDMxNDAyNTg3ODksInkiOjExNjguMjkzNzU0NTc3NjM2N31d" data-look="classic" marker-end="url(#gc33570dc-dbdc-4713-95c9-bcc91c2a9b6b-light_flowchart-v2-pointEnd)"></path></g><g class="edgeLabels"><g class="edgeLabel"><g class="label" data-id="L_Start_Q1_0" transform="translate(0, 0)"><text y="-10.1" text-anchor="middle"><tspan class="text-outer-tspan row" x="0" y="-0.1em" dy="1.1em" text-anchor="middle"></tspan></text></g></g><g><rect class="background" style="stroke: none"></rect></g><g class="edgeLabel" transform="translate(113.984375, 303.0218734741211)"><g class="label" data-id="L_Q1_ApplyR_0" transform="translate(0, -10.5)"><g><rect class="background" style="" x="-10.6640625" y="-1" width="21.328125" height="23"></rect><text y="-10.1" text-anchor="middle" style=""><tspan class="text-outer-tspan row" x="0" y="-0.1em" dy="1.1em" text-anchor="middle"><tspan font-style="normal" class="text-inner-tspan" font-weight="normal">no</tspan></tspan></text></g></g></g><g class="edgeLabel" transform="translate(356.7265625, 303.0218734741211)"><g class="label" data-id="L_Q1_Q2_0" transform="translate(0, -10.5)"><g><rect class="background" style="" x="-13.546875" y="-1" width="27.09375" height="23"></rect><text y="-10.1" text-anchor="middle" style=""><tspan class="text-outer-tspan row" x="0" y="-0.1em" dy="1.1em" text-anchor="middle"><tspan font-style="normal" class="text-inner-tspan" font-weight="normal">yes</tspan></tspan></text></g></g></g><g class="edgeLabel" transform="translate(340.6171875, 549.5374984741211)"><g class="label" data-id="L_Q2_ApplyL_0" transform="translate(0, -10.5)"><g><rect class="background" style="" x="-10.6640625" y="-1" width="21.328125" height="23"></rect><text y="-10.1" text-anchor="middle" style=""><tspan class="text-outer-tspan row" x="0" y="-0.1em" dy="1.1em" text-anchor="middle"><tspan font-style="normal" class="text-inner-tspan" font-weight="normal">no</tspan></tspan></text></g></g></g><g class="edgeLabel" transform="translate(638.9796905517578, 549.5374984741211)"><g class="label" data-id="L_Q2_Q3_0" transform="translate(0, -10.5)"><g><rect class="background" style="" x="-13.546875" y="-1" width="27.09375" height="23"></rect><text y="-10.1" text-anchor="middle" style=""><tspan class="text-outer-tspan row" x="0" y="-0.1em" dy="1.1em" text-anchor="middle"><tspan font-style="normal" class="text-inner-tspan" font-weight="normal">yes</tspan></tspan></text></g></g></g><g class="edgeLabel" transform="translate(522.1929702758789, 863.0281295776367)"><g class="label" data-id="L_Q3_Skip_0" transform="translate(0, -10.5)"><g><rect class="background" style="" x="-13.546875" y="-1" width="27.09375" height="23"></rect><text y="-10.1" text-anchor="middle" style=""><tspan class="text-outer-tspan row" x="0" y="-0.1em" dy="1.1em" text-anchor="middle"><tspan font-style="normal" class="text-inner-tspan" font-weight="normal">yes</tspan></tspan></text></g></g></g><g class="edgeLabel" transform="translate(771.0210952758789, 863.0281295776367)"><g class="label" data-id="L_Q3_Q4_0" transform="translate(0, -10.5)"><g><rect class="background" style="" x="-10.6640625" y="-1" width="21.328125" height="23"></rect><text y="-10.1" text-anchor="middle" style=""><tspan class="text-outer-tspan row" x="0" y="-0.1em" dy="1.1em" text-anchor="middle"><tspan font-style="normal" class="text-inner-tspan" font-weight="normal">no</tspan></tspan></text></g></g></g><g class="edgeLabel" transform="translate(355.3609390258789, 1131.7937545776367)"><g class="label" data-id="L_Q4_SkipD_0" transform="translate(0, -10.5)"><g><rect class="background" style="" x="-43.7890625" y="-1" width="87.578125" height="23"></rect><text y="-10.1" text-anchor="middle" style=""><tspan class="text-outer-tspan row" x="0" y="-0.1em" dy="1.1em" text-anchor="middle"><tspan font-style="normal" class="text-inner-tspan" font-weight="normal">both</tspan><tspan font-style="normal" class="text-inner-tspan" font-weight="normal"> delete</tspan></tspan></text></g></g></g><g class="edgeLabel" transform="translate(630.3218765258789, 1131.7937545776367)"><g class="label" data-id="L_Q4_Restore_0" transform="translate(0, -10.5)"><g><rect class="background" style="" x="-48.375" y="-1" width="96.75" height="23"></rect><text y="-10.1" text-anchor="middle" style=""><tspan class="text-outer-tspan row" x="0" y="-0.1em" dy="1.1em" text-anchor="middle"><tspan font-style="normal" class="text-inner-tspan" font-weight="normal">edit</tspan><tspan font-style="normal" class="text-inner-tspan" font-weight="normal"> +</tspan><tspan font-style="normal" class="text-inner-tspan" font-weight="normal"> delete</tspan></tspan></text></g></g></g><g class="edgeLabel" transform="translate(911.7203140258789, 1131.7937545776367)"><g class="label" data-id="L_Q4_Conflict_0" transform="translate(0, -10.5)"><g><rect class="background" style="" x="-39.5703125" y="-1" width="79.140625" height="23"></rect><text y="-10.1" text-anchor="middle" style=""><tspan class="text-outer-tspan row" x="0" y="-0.1em" dy="1.1em" text-anchor="middle"><tspan font-style="normal" class="text-inner-tspan" font-weight="normal">edit</tspan><tspan font-style="normal" class="text-inner-tspan" font-weight="normal"> +</tspan><tspan font-style="normal" class="text-inner-tspan" font-weight="normal"> edit</tspan></tspan></text></g></g></g></g><g class="nodes"><g class="node default" id="gc33570dc-dbdc-4713-95c9-bcc91c2a9b6b-light-flowchart-Start-0" data-look="classic" transform="translate(235.35546875, 33.79999923706055)"><g class="basic label-container outer-path"><path d="M-73.79843807220459 -25.799999237060547 C-18.56886581710139 -25.799999237060547, 36.66070643800181 -25.799999237060547, 73.79843807220459 -25.799999237060547 C73.79843807220459 -25.799999237060547, 73.79843807220459 -25.799999237060547, 73.79843807220459 -25.799999237060547 C74.14385442811914 -25.788922406838516, 74.48927078403369 -25.77784557661649, 75.45144969882529 -25.746990371586765 C76.00021552932097 -25.69405159190632, 76.54898135981665 -25.64111281222587, 77.09766874610231 -25.58818159996402 C77.58635605613166 -25.509174425505165, 78.075043366161 -25.430167251046313, 78.73033054685753 -25.32422550149928 C79.27171563951764 -25.200657886967505, 79.81310073217773 -25.07709027243573, 80.34272614354678 -24.956206728419545 C80.70083110877259 -24.849923054471848, 81.0589360739984 -24.74363938052415, 81.92822985680552 -24.48563754880318 C82.50647161940792 -24.272839234957235, 83.08471338201032 -24.06004092111129, 83.48032651178644 -23.914451632345997 C84.00841669657552 -23.680681772778616, 84.5365068813646 -23.44691191321123, 84.99263821041056 -23.24499610449772 C85.49721437628308 -22.981759041958483, 86.00179054215562 -22.718521979419247, 86.4589505395184 -22.480021901620034 C86.95747503703382 -22.17781342157105, 87.45599953454925 -21.875604941522063, 87.87323810722664 -21.62267246679901 C88.19453124851856 -21.398552279989687, 88.51582438981048 -21.174432093180368, 89.22968930255584 -20.67647083276321 C89.68735788931377 -20.311492313896345, 90.14502647607169 -19.946513795029478, 90.5227301765865 -19.64530514498651 C90.77624636580101 -19.415068449612694, 91.02976255501551 -19.184831754238882, 91.74704734701088 -18.533412684464313 C92.00879980318571 -18.263131783187475, 92.27055225936056 -17.992850881910638, 92.89760983196044 -17.345362455817106 C93.11474013267829 -17.090308849529798, 93.33187043339615 -16.835255243242493, 93.96968972338968 -16.086036412270357 C94.21392981765148 -15.75877693668988, 94.45816991191326 -15.431517461109406, 94.95888161506427 -14.76060939466161 C95.28695871502222 -14.25659486808954, 95.61503581498019 -13.752580341517469, 95.86112070532036 -13.374527866909407 C96.1438329501993 -12.872543648407776, 96.42654519507825 -12.370559429906146, 96.6726995002064 -11.93348753532484 C96.9401028399472 -11.378218778838171, 97.207506179688 -10.822950022351502, 97.39028304837109 -10.443409943732584 C97.527501097985 -10.104478708255712, 97.6647191475989 -9.76554747277884, 98.01092264509381 -8.910418140577123 C98.15766766289116 -8.468445527614962, 98.3044126806885 -8.026472914652802, 98.5320679491449 -7.340811518003323 C98.65111800846805 -6.886822045182102, 98.77016806779118 -6.432832572360882, 98.95157746268467 -5.741039926302914 C99.03577926816564 -5.30868145121602, 99.11998107364661 -4.876322976129126, 99.26772733113748 -4.117677170096137 C99.34311865159435 -3.5329569763327364, 99.41850997205123 -2.948236782569336, 99.47921842687991 -2.4773939951584394 C99.50261968684823 -2.1129004819947053, 99.52602094681656 -1.7484069688309707, 99.58518168763487 -0.8269306768952902 C99.58518168763487 -0.32723758795622737, 99.58518168763487 0.17245550098283546, 99.58518168763487 0.826930676895284 C99.54512638875019 1.4508242890794976, 99.50507108986551 2.0747179012637114, 99.47921842687991 2.4773939951584216 C99.39802181103354 3.107138913577458, 99.31682519518718 3.7368838319964945, 99.26772733113748 4.117677170096119 C99.20301247977488 4.449974254354378, 99.13829762841227 4.782271338612637, 98.95157746268467 5.741039926302909 C98.82530037049185 6.2225892076720895, 98.69902327829902 6.70413848904127, 98.5320679491449 7.340811518003306 C98.36362952045933 7.848121228185207, 98.19519109177375 8.355430938367109, 98.01092264509383 8.910418140577105 C97.78557097329907 9.467041126788324, 97.56021930150432 10.02366411299954, 97.39028304837109 10.443409943732577 C97.12343672914815 10.997522035195576, 96.85659040992522 11.551634126658575, 96.6726995002064 11.933487535324835 C96.45457419298752 12.320791105874404, 96.23644888576865 12.708094676423972, 95.86112070532037 13.374527866909402 C95.63190111203441 13.726670716275827, 95.40268151874844 14.078813565642253, 94.95888161506429 14.760609394661596 C94.69500750362697 15.11417666456152, 94.43113339218964 15.46774393446144, 93.96968972338968 16.086036412270353 C93.65297844913908 16.458063496387133, 93.33626717488849 16.830090580503914, 92.89760983196045 17.345362455817092 C92.61515638814932 17.637018826411097, 92.33270294433818 17.928675197005102, 91.74704734701088 18.533412684464306 C91.46313809644928 18.791251553997217, 91.17922884588768 19.04909042353013, 90.52273017658653 19.64530514498649 C90.02298148026826 20.043841431428984, 89.52323278395 20.44237771787148, 89.22968930255584 20.676470832763208 C88.84621869833087 20.943963326095638, 88.4627480941059 21.211455819428064, 87.87323810722665 21.622672466799003 C87.39869980401875 21.91034037490025, 86.92416150081083 22.198008283001503, 86.45895053951841 22.48002190162003 C85.87305159591665 22.785685005210887, 85.28715265231489 23.091348108801743, 84.99263821041058 23.244996104497716 C84.40636790396687 23.50452057806961, 83.82009759752316 23.764045051641506, 83.48032651178644 23.914451632345994 C82.99755867618151 24.09211465850556, 82.51479084057658 24.26977768466513, 81.92822985680553 24.485637548803172 C81.59123232187056 24.585656648235712, 81.2542347869356 24.685675747668256, 80.34272614354681 24.95620672841954 C79.75910515120003 25.089414411439797, 79.17548415885325 25.222622094460053, 78.73033054685754 25.324225501499278 C78.26562783881593 25.399355031512123, 77.80092513077432 25.474484561524967, 77.09766874610233 25.588181599964017 C76.4686607145263 25.64886124827732, 75.83965268295026 25.709540896590624, 75.45144969882529 25.746990371586765 C74.93215878718341 25.763643020384677, 74.41286787554154 25.780295669182593, 73.79843807220459 25.799999237060547 C73.79843807220459 25.799999237060547, 73.79843807220459 25.799999237060547, 73.79843807220459 25.799999237060547 C39.29263839448797 25.799999237060547, 4.786838716771356 25.799999237060547, -73.79843807220459 25.799999237060547 C-74.39887418074893 25.780744419737516, -74.99931028929329 25.761489602414485, -75.45144969882527 25.746990371586765 C-76.0249437261089 25.691666092502192, -76.59843775339252 25.63634181341762, -77.09766874610231 25.588181599964017 C-77.47938187121865 25.526469182124703, -77.86109499633497 25.464756764285394, -78.73033054685753 25.324225501499278 C-79.32736987655409 25.18795517054177, -79.92440920625064 25.05168483958426, -80.34272614354678 24.956206728419545 C-80.96293668944277 24.772131493949207, -81.58314723533876 24.58805625947887, -81.9282298568055 24.485637548803183 C-82.45782333130919 24.290742254677415, -82.98741680581287 24.095846960551647, -83.48032651178644 23.914451632345997 C-83.87187001200664 23.74112693952378, -84.26341351222683 23.567802246701564, -84.99263821041056 23.244996104497723 C-85.52116645388655 22.969263258414795, -86.04969469736255 22.693530412331867, -86.4589505395184 22.480021901620038 C-86.83279460572946 22.2533954317313, -87.20663867194052 22.026768961842556, -87.87323810722663 21.622672466799017 C-88.30907882579874 21.318648848763736, -88.74491954437084 21.01462523072846, -89.22968930255584 20.67647083276321 C-89.62671387002844 20.359854305471263, -90.02373843750105 20.043237778179314, -90.5227301765865 19.645305144986512 C-90.82658511014507 19.369352133889603, -91.13044004370366 19.09339912279269, -91.74704734701086 18.533412684464324 C-92.10703787890442 18.1616929045119, -92.46702841079797 17.789973124559474, -92.89760983196044 17.3453624558171 C-93.13478712010641 17.066760517390836, -93.37196440825237 16.788158578964573, -93.96968972338968 16.08603641227036 C-94.19630185102939 15.782396806022673, -94.4229139786691 15.478757199774986, -94.95888161506427 14.760609394661614 C-95.17389406791433 14.430292528156116, -95.3889065207644 14.099975661650618, -95.86112070532036 13.374527866909418 C-96.15367736870877 12.85506388648874, -96.44623403209718 12.335599906068062, -96.67269950020639 11.933487535324842 C-96.90562641172198 11.449809819725216, -97.13855332323757 10.966132104125588, -97.39028304837109 10.443409943732586 C-97.54310005173025 10.0659489909197, -97.6959170550894 9.688488038106813, -98.01092264509381 8.910418140577127 C-98.1976340833246 8.348073037053751, -98.38434552155539 7.785727933530376, -98.5320679491449 7.340811518003316 C-98.64168092399898 6.922809738320929, -98.75129389885305 6.504807958638542, -98.95157746268467 5.741039926302918 C-99.01549655405104 5.412828901441336, -99.07941564541741 5.084617876579753, -99.26772733113748 4.117677170096139 C-99.31557848826357 3.746553044705915, -99.36342964538967 3.3754289193156906, -99.47921842687991 2.477393995158454 C-99.52152667950044 1.8184088099867517, -99.56383493212098 1.1594236248150493, -99.58518168763487 0.8269306768952934 C-99.58518168763487 0.260467295945195, -99.58518168763487 -0.3059960850049034, -99.58518168763487 -0.8269306768952809 C-99.55932435087058 -1.2296795686655633, -99.53346701410631 -1.6324284604358457, -99.47921842687991 -2.4773939951584185 C-99.4029829292372 -3.0686614604735016, -99.3267474315945 -3.6599289257885843, -99.26772733113748 -4.117677170096128 C-99.15894460985517 -4.676253452644459, -99.05016188857287 -5.23482973519279, -98.95157746268467 -5.741039926302906 C-98.81485320379328 -6.262428782124442, -98.67812894490187 -6.783817637945979, -98.5320679491449 -7.340811518003303 C-98.36479087707181 -7.844623407105421, -98.19751380499874 -8.348435296207539, -98.01092264509383 -8.910418140577093 C-97.7804584501029 -9.479669157926782, -97.54999425511197 -10.048920175276471, -97.39028304837109 -10.443409943732574 C-97.11709257257762 -11.010695812057483, -96.84390209678416 -11.57798168038239, -96.6726995002064 -11.933487535324831 C-96.49092294821082 -12.256250210264849, -96.30914639621524 -12.579012885204868, -95.86112070532036 -13.374527866909409 C-95.64237256269423 -13.710583756084118, -95.4236244200681 -14.046639645258825, -94.95888161506429 -14.760609394661605 C-94.72865624912282 -15.069090411060843, -94.49843088318137 -15.377571427460083, -93.96968972338968 -16.086036412270353 C-93.75104443576416 -16.342869608384607, -93.53239914813862 -16.59970280449886, -92.89760983196045 -17.345362455817092 C-92.544028418315 -17.710464294979968, -92.19044700466952 -18.075566134142846, -91.74704734701089 -18.5334126844643 C-91.31673795044274 -18.92420829306476, -90.8864285538746 -19.31500390166522, -90.52273017658653 -19.645305144986487 C-90.17954715644916 -19.91898447106234, -89.83636413631179 -20.192663797138195, -89.22968930255585 -20.676470832763204 C-88.78959941710768 -20.983458485667757, -88.34950953165952 -21.290446138572307, -87.87323810722665 -21.622672466799 C-87.45152072584116 -21.878320021681304, -87.02980334445567 -22.133967576563613, -86.45895053951841 -22.480021901620027 C-86.05443221022833 -22.69105885490431, -85.64991388093824 -22.90209580818859, -84.99263821041058 -23.244996104497716 C-84.42114988758651 -23.497977032413157, -83.84966156476246 -23.750957960328602, -83.48032651178646 -23.91445163234599 C-82.97014735713391 -24.102202277302535, -82.45996820248136 -24.28995292225908, -81.92822985680553 -24.485637548803172 C-81.49267009870479 -24.614909398707645, -81.05711034060405 -24.74418124861212, -80.34272614354681 -24.956206728419538 C-79.75217140610475 -25.090996993510878, -79.16161666866267 -25.22578725860222, -78.73033054685754 -25.324225501499278 C-78.13232123105232 -25.42090701004716, -77.53431191524707 -25.517588518595044, -77.09766874610233 -25.588181599964017 C-76.74446653442551 -25.62225459253667, -76.3912643227487 -25.656327585109327, -75.45144969882529 -25.746990371586765 C-74.88730954284135 -25.76508124835697, -74.32316938685742 -25.783172125127173, -73.7984380722046 -25.799999237060547 C-73.7984380722046 -25.799999237060547, -73.79843807220459 -25.799999237060547, -73.79843807220459 -25.799999237060547" stroke="none" stroke-width="0" fill="#ECECFF" style=""></path><path d="M-73.79843807220459 -25.799999237060547 C-31.61449333867897 -25.799999237060547, 10.569451394846652 -25.799999237060547, 73.79843807220459 -25.799999237060547 M-73.79843807220459 -25.799999237060547 C-36.84273090741015 -25.799999237060547, 0.11297625738428962 -25.799999237060547, 73.79843807220459 -25.799999237060547 M73.79843807220459 -25.799999237060547 C73.79843807220459 -25.799999237060547, 73.79843807220459 -25.799999237060547, 73.79843807220459 -25.799999237060547 M73.79843807220459 -25.799999237060547 C73.79843807220459 -25.799999237060547, 73.79843807220459 -25.799999237060547, 73.79843807220459 -25.799999237060547 M73.79843807220459 -25.799999237060547 C74.2446617984167 -25.785689710682718, 74.69088552462881 -25.77138018430489, 75.45144969882529 -25.746990371586765 M73.79843807220459 -25.799999237060547 C74.30089578076358 -25.78388639632166, 74.80335348932259 -25.76777355558277, 75.45144969882529 -25.746990371586765 M75.45144969882529 -25.746990371586765 C75.84392534685365 -25.709128717842496, 76.23640099488202 -25.671267064098224, 77.09766874610231 -25.58818159996402 M75.45144969882529 -25.746990371586765 C75.83177553669813 -25.710300795415915, 76.21210137457098 -25.67361121924506, 77.09766874610231 -25.58818159996402 M77.09766874610231 -25.58818159996402 C77.52727521705405 -25.518726157388482, 77.95688168800581 -25.449270714812943, 78.73033054685753 -25.32422550149928 M77.09766874610231 -25.58818159996402 C77.54290439849895 -25.516199352538585, 77.98814005089558 -25.44421710511315, 78.73033054685753 -25.32422550149928 M78.73033054685753 -25.32422550149928 C79.29069348356778 -25.196326317905065, 79.85105642027803 -25.068427134310852, 80.34272614354678 -24.956206728419545 M78.73033054685753 -25.32422550149928 C79.21095600424204 -25.214525877225487, 79.69158146162653 -25.104826252951693, 80.34272614354678 -24.956206728419545 M80.34272614354678 -24.956206728419545 C80.8892203349623 -24.79401012101397, 81.43571452637782 -24.631813513608392, 81.92822985680552 -24.48563754880318 M80.34272614354678 -24.956206728419545 C80.96905712371267 -24.770314981184715, 81.59538810387856 -24.584423233949884, 81.92822985680552 -24.48563754880318 M81.92822985680552 -24.48563754880318 C82.3428459034851 -24.33305501095637, 82.7574619501647 -24.18047247310956, 83.48032651178644 -23.914451632345997 M81.92822985680552 -24.48563754880318 C82.43790635191719 -24.29807188720421, 82.94758284702887 -24.11050622560524, 83.48032651178644 -23.914451632345997 M83.48032651178644 -23.914451632345997 C83.99716611753426 -23.68566207038361, 84.5140057232821 -23.456872508421224, 84.99263821041056 -23.24499610449772 M83.48032651178644 -23.914451632345997 C83.97295715869733 -23.696378658327475, 84.46558780560822 -23.47830568430895, 84.99263821041056 -23.24499610449772 M84.99263821041056 -23.24499610449772 C85.46472253016711 -22.998710017265164, 85.93680684992366 -22.752423930032613, 86.4589505395184 -22.480021901620034 M84.99263821041056 -23.24499610449772 C85.42943577427637 -23.01711909521112, 85.86623333814217 -22.789242085924524, 86.4589505395184 -22.480021901620034 M86.4589505395184 -22.480021901620034 C86.9714910378552 -22.169316839505967, 87.48403153619199 -21.858611777391904, 87.87323810722664 -21.62267246679901 M86.4589505395184 -22.480021901620034 C86.87153472260533 -22.229910945218943, 87.28411890569228 -21.979799988817852, 87.87323810722664 -21.62267246679901 M87.87323810722664 -21.62267246679901 C88.32682068757785 -21.306272894019447, 88.78040326792906 -20.98987332123988, 89.22968930255584 -20.67647083276321 M87.87323810722664 -21.62267246679901 C88.33462092099545 -21.300831788853994, 88.79600373476426 -20.97899111090898, 89.22968930255584 -20.67647083276321 M89.22968930255584 -20.67647083276321 C89.58134876240555 -20.39603177158431, 89.93300822225525 -20.115592710405405, 90.5227301765865 -19.64530514498651 M89.22968930255584 -20.67647083276321 C89.51048436769359 -20.452544240586356, 89.79127943283133 -20.2286176484095, 90.5227301765865 -19.64530514498651 M90.5227301765865 -19.64530514498651 C90.79844280383914 -19.394910231872032, 91.07415543109178 -19.144515318757552, 91.74704734701088 -18.533412684464313 M90.5227301765865 -19.64530514498651 C90.96386654239508 -19.24467676938781, 91.40500290820366 -18.844048393789105, 91.74704734701088 -18.533412684464313 M91.74704734701088 -18.533412684464313 C92.1672762806898 -18.099491809003723, 92.58750521436875 -17.66557093354313, 92.89760983196044 -17.345362455817106 M91.74704734701088 -18.533412684464313 C92.07675446647131 -18.19296301416348, 92.40646158593175 -17.85251334386265, 92.89760983196044 -17.345362455817106 M92.89760983196044 -17.345362455817106 C93.1417470184432 -17.05858502477501, 93.38588420492596 -16.771807593732913, 93.96968972338968 -16.086036412270357 M92.89760983196044 -17.345362455817106 C93.25639591226636 -16.92391191038346, 93.61518199257227 -16.502461364949813, 93.96968972338968 -16.086036412270357 M93.96968972338968 -16.086036412270357 C94.22419189522567 -15.745026687634954, 94.47869406706165 -15.404016962999554, 94.95888161506427 -14.76060939466161 M93.96968972338968 -16.086036412270357 C94.28807135969785 -15.659434024781168, 94.60645299600601 -15.232831637291982, 94.95888161506427 -14.76060939466161 M94.95888161506427 -14.76060939466161 C95.16271028031971 -14.447473829168912, 95.36653894557516 -14.134338263676213, 95.86112070532036 -13.374527866909407 M94.95888161506427 -14.76060939466161 C95.20000367821453 -14.390181155322956, 95.44112574136479 -14.0197529159843, 95.86112070532036 -13.374527866909407 M95.86112070532036 -13.374527866909407 C96.10981898485815 -12.932938888158468, 96.35851726439594 -12.49134990940753, 96.6726995002064 -11.93348753532484 M95.86112070532036 -13.374527866909407 C96.13495013647697 -12.888315983654188, 96.4087795676336 -12.402104100398969, 96.6726995002064 -11.93348753532484 M96.6726995002064 -11.93348753532484 C96.83581151222671 -11.594781952326711, 96.99892352424702 -11.256076369328582, 97.39028304837109 -10.443409943732584 M96.6726995002064 -11.93348753532484 C96.90730142128841 -11.4463316265211, 97.1419033423704 -10.95917571771736, 97.39028304837109 -10.443409943732584 M97.39028304837109 -10.443409943732584 C97.62029974186787 -9.875264263725281, 97.85031643536466 -9.30711858371798, 98.01092264509381 -8.910418140577123 M97.39028304837109 -10.443409943732584 C97.59069039951183 -9.948399911802385, 97.79109775065258 -9.453389879872187, 98.01092264509381 -8.910418140577123 M98.01092264509381 -8.910418140577123 C98.13975548854887 -8.522394142816522, 98.26858833200393 -8.134370145055922, 98.5320679491449 -7.340811518003323 M98.01092264509381 -8.910418140577123 C98.20795751446897 -8.316980507262288, 98.40499238384415 -7.723542873947452, 98.5320679491449 -7.340811518003323 M98.5320679491449 -7.340811518003323 C98.671136879969 -6.810481411915169, 98.8102058107931 -6.280151305827015, 98.95157746268467 -5.741039926302914 M98.5320679491449 -7.340811518003323 C98.62938343574463 -6.9697053907999, 98.72669892234434 -6.598599263596476, 98.95157746268467 -5.741039926302914 M98.95157746268467 -5.741039926302914 C99.03550431024 -5.310093302051824, 99.11943115779533 -4.879146677800734, 99.26772733113748 -4.117677170096137 M98.95157746268467 -5.741039926302914 C99.04230595696815 -5.2751682836313085, 99.13303445125163 -4.809296640959703, 99.26772733113748 -4.117677170096137 M99.26772733113748 -4.117677170096137 C99.32451870461935 -3.6772144920958816, 99.38131007810122 -3.2367518140956264, 99.47921842687991 -2.4773939951584394 M99.26772733113748 -4.117677170096137 C99.33635075370384 -3.58544745589893, 99.40497417627022 -3.053217741701723, 99.47921842687991 -2.4773939951584394 M99.47921842687991 -2.4773939951584394 C99.50507832214598 -2.0746052526576975, 99.53093821741204 -1.671816510156955, 99.58518168763487 -0.8269306768952902 M99.47921842687991 -2.4773939951584394 C99.50112971245007 -2.1361080359317905, 99.52304099802024 -1.7948220767051417, 99.58518168763487 -0.8269306768952902 M99.58518168763487 -0.8269306768952902 C99.58518168763487 -0.4184224783028919, 99.58518168763487 -0.009914279710493634, 99.58518168763487 0.826930676895284 M99.58518168763487 -0.8269306768952902 C99.58518168763487 -0.3321673169788095, 99.58518168763487 0.16259604293767116, 99.58518168763487 0.826930676895284 M99.58518168763487 0.826930676895284 C99.54960592462915 1.3810519019485055, 99.51403016162342 1.9351731270017267, 99.47921842687991 2.4773939951584216 M99.58518168763487 0.826930676895284 C99.55121367879782 1.3560098330156607, 99.51724566996076 1.8850889891360376, 99.47921842687991 2.4773939951584216 M99.47921842687991 2.4773939951584216 C99.42688062582442 2.8833156448769506, 99.37454282476894 3.28923729459548, 99.26772733113748 4.117677170096119 M99.47921842687991 2.4773939951584216 C99.42380074670328 2.9072025791496343, 99.36838306652665 3.337011163140847, 99.26772733113748 4.117677170096119 M99.26772733113748 4.117677170096119 C99.14737986515692 4.735635972460353, 99.02703239917635 5.353594774824588, 98.95157746268467 5.741039926302909 M99.26772733113748 4.117677170096119 C99.17552573715069 4.591112868404431, 99.08332414316392 5.064548566712742, 98.95157746268467 5.741039926302909 M98.95157746268467 5.741039926302909 C98.83241796586775 6.195446731718448, 98.71325846905081 6.649853537133987, 98.5320679491449 7.340811518003306 M98.95157746268467 5.741039926302909 C98.78695333804029 6.368823062118847, 98.62232921339593 6.996606197934785, 98.5320679491449 7.340811518003306 M98.5320679491449 7.340811518003306 C98.38922334152207 7.77103671696581, 98.24637873389925 8.201261915928313, 98.01092264509383 8.910418140577105 M98.5320679491449 7.340811518003306 C98.3828445701208 7.790248560107265, 98.23362119109669 8.239685602211225, 98.01092264509383 8.910418140577105 M98.01092264509383 8.910418140577105 C97.87451927701947 9.247337096900493, 97.7381159089451 9.584256053223882, 97.39028304837109 10.443409943732577 M98.01092264509383 8.910418140577105 C97.83812558467959 9.337230220604157, 97.66532852426536 9.764042300631209, 97.39028304837109 10.443409943732577 M97.39028304837109 10.443409943732577 C97.17780663455248 10.884621763293882, 96.96533022073386 11.32583358285519, 96.6726995002064 11.933487535324835 M97.39028304837109 10.443409943732577 C97.19797562910662 10.842740414554857, 97.00566820984214 11.242070885377139, 96.6726995002064 11.933487535324835 M96.6726995002064 11.933487535324835 C96.41522124929362 12.390666242320583, 96.15774299838085 12.84784494931633, 95.86112070532037 13.374527866909402 M96.6726995002064 11.933487535324835 C96.41393131579721 12.392956649863406, 96.15516313138801 12.852425764401978, 95.86112070532037 13.374527866909402 M95.86112070532037 13.374527866909402 C95.65676446972265 13.68847392212032, 95.45240823412492 14.002419977331236, 94.95888161506429 14.760609394661596 M95.86112070532037 13.374527866909402 C95.63807692635952 13.7171830070341, 95.41503314739867 14.059838147158798, 94.95888161506429 14.760609394661596 M94.95888161506429 14.760609394661596 C94.65851514067043 15.163073106400619, 94.35814866627658 15.565536818139641, 93.96968972338968 16.086036412270353 M94.95888161506429 14.760609394661596 C94.74145912958343 15.05193571761004, 94.52403664410257 15.343262040558482, 93.96968972338968 16.086036412270353 M93.96968972338968 16.086036412270353 C93.63473924898935 16.479488298722902, 93.29978877458902 16.87294018517545, 92.89760983196045 17.345362455817092 M93.96968972338968 16.086036412270353 C93.60414790443379 16.51542263273468, 93.2386060854779 16.944808853199007, 92.89760983196045 17.345362455817092 M92.89760983196045 17.345362455817092 C92.45399748959095 17.803428620564254, 92.01038514722144 18.261494785311417, 91.74704734701088 18.533412684464306 M92.89760983196045 17.345362455817092 C92.55075795081477 17.70351550016905, 92.20390606966909 18.061668544521012, 91.74704734701088 18.533412684464306 M91.74704734701088 18.533412684464306 C91.36812794290105 18.877537261618812, 90.98920853879122 19.221661838773315, 90.52273017658653 19.64530514498649 M91.74704734701088 18.533412684464306 C91.45080889460151 18.80244860890256, 91.15457044219214 19.07148453334081, 90.52273017658653 19.64530514498649 M90.52273017658653 19.64530514498649 C90.0475296151016 20.0242649471527, 89.57232905361666 20.403224749318916, 89.22968930255584 20.676470832763208 M90.52273017658653 19.64530514498649 C90.20600888133465 19.897881949642233, 89.88928758608277 20.150458754297972, 89.22968930255584 20.676470832763208 M89.22968930255584 20.676470832763208 C88.77392198358842 20.994394384625632, 88.31815466462099 21.312317936488057, 87.87323810722665 21.622672466799003 M89.22968930255584 20.676470832763208 C88.89922314730738 20.906989717015236, 88.56875699205894 21.137508601267264, 87.87323810722665 21.622672466799003 M87.87323810722665 21.622672466799003 C87.56160526625392 21.811586126354523, 87.2499724252812 22.000499785910048, 86.45895053951841 22.48002190162003 M87.87323810722665 21.622672466799003 C87.31243053795704 21.962637310961338, 86.75162296868741 22.302602155123672, 86.45895053951841 22.48002190162003 M86.45895053951841 22.48002190162003 C86.11434081948283 22.659804571829536, 85.76973109944724 22.839587242039038, 84.99263821041058 23.244996104497716 M86.45895053951841 22.48002190162003 C85.90539586437959 22.768811021071265, 85.35184118924076 23.057600140522496, 84.99263821041058 23.244996104497716 M84.99263821041058 23.244996104497716 C84.4934128022541 23.46598838369302, 83.99418739409761 23.686980662888327, 83.48032651178644 23.914451632345994 M84.99263821041058 23.244996104497716 C84.60440215763079 23.416856688450007, 84.216166104851 23.5887172724023, 83.48032651178644 23.914451632345994 M83.48032651178644 23.914451632345994 C83.0772015006255 24.062805362899976, 82.67407648946455 24.211159093453954, 81.92822985680553 24.485637548803172 M83.48032651178644 23.914451632345994 C83.14840165833803 24.036603046694722, 82.8164768048896 24.15875446104345, 81.92822985680553 24.485637548803172 M81.92822985680553 24.485637548803172 C81.48108913919307 24.618346566701028, 81.03394842158062 24.751055584598888, 80.34272614354681 24.95620672841954 M81.92822985680553 24.485637548803172 C81.37599345960736 24.649538412743592, 80.82375706240917 24.81343927668401, 80.34272614354681 24.95620672841954 M80.34272614354681 24.95620672841954 C79.94600320294745 25.046756150752216, 79.54928026234809 25.13730557308489, 78.73033054685754 25.324225501499278 M80.34272614354681 24.95620672841954 C79.85249974901343 25.068097703945593, 79.36227335448007 25.17998867947165, 78.73033054685754 25.324225501499278 M78.73033054685754 25.324225501499278 C78.1590337733174 25.4165883333726, 77.58773699977725 25.508951165245925, 77.09766874610233 25.588181599964017 M78.73033054685754 25.324225501499278 C78.16023311077915 25.41639443379279, 77.59013567470073 25.508563366086296, 77.09766874610233 25.588181599964017 M77.09766874610233 25.588181599964017 C76.59461338205075 25.63671074592148, 76.09155801799918 25.685239891878947, 75.45144969882529 25.746990371586765 M77.09766874610233 25.588181599964017 C76.46468546248505 25.649244736060798, 75.83170217886779 25.710307872157582, 75.45144969882529 25.746990371586765 M75.45144969882529 25.746990371586765 C74.87101788722282 25.765603690042873, 74.29058607562035 25.784217008498977, 73.79843807220459 25.799999237060547 M75.45144969882529 25.746990371586765 C75.00825574512115 25.761202739057357, 74.56506179141702 25.77541510652795, 73.79843807220459 25.799999237060547 M73.79843807220459 25.799999237060547 C73.79843807220459 25.799999237060547, 73.79843807220459 25.799999237060547, 73.79843807220459 25.799999237060547 M73.79843807220459 25.799999237060547 C73.79843807220459 25.799999237060547, 73.79843807220459 25.799999237060547, 73.79843807220459 25.799999237060547 M73.79843807220459 25.799999237060547 C41.121797673209585 25.799999237060547, 8.44515727421458 25.799999237060547, -73.79843807220459 25.799999237060547 M73.79843807220459 25.799999237060547 C38.368519037759015 25.799999237060547, 2.9386000033134394 25.799999237060547, -73.79843807220459 25.799999237060547 M-73.79843807220459 25.799999237060547 C-74.3011290152442 25.78387891694583, -74.8038199582838 25.76775859683111, -75.45144969882527 25.746990371586765 M-73.79843807220459 25.799999237060547 C-74.32809352038367 25.783014217749233, -74.85774896856276 25.766029198437916, -75.45144969882527 25.746990371586765 M-75.45144969882527 25.746990371586765 C-75.85698586665016 25.707868785205296, -76.26252203447507 25.668747198823826, -77.09766874610231 25.588181599964017 M-75.45144969882527 25.746990371586765 C-75.79327680956565 25.71401472132089, -76.13510392030602 25.68103907105501, -77.09766874610231 25.588181599964017 M-77.09766874610231 25.588181599964017 C-77.42970908372831 25.53449989318792, -77.76174942135431 25.480818186411827, -78.73033054685753 25.324225501499278 M-77.09766874610231 25.588181599964017 C-77.48149488621996 25.526127566245968, -77.86532102633763 25.464073532527916, -78.73033054685753 25.324225501499278 M-78.73033054685753 25.324225501499278 C-79.11835608947129 25.235661203500992, -79.50638163208504 25.147096905502707, -80.34272614354678 24.956206728419545 M-78.73033054685753 25.324225501499278 C-79.22715049046664 25.210829591423618, -79.72397043407574 25.097433681347958, -80.34272614354678 24.956206728419545 M-80.34272614354678 24.956206728419545 C-80.72219905777331 24.843581159371087, -81.10167197199985 24.730955590322626, -81.9282298568055 24.485637548803183 M-80.34272614354678 24.956206728419545 C-80.71073822088479 24.84698267560044, -81.0787502982228 24.73775862278133, -81.9282298568055 24.485637548803183 M-81.9282298568055 24.485637548803183 C-82.50473079274927 24.27347987525964, -83.08123172869306 24.0613222017161, -83.48032651178644 23.914451632345997 M-81.9282298568055 24.485637548803183 C-82.40891020232628 24.308742738291134, -82.88959054784705 24.13184792777908, -83.48032651178644 23.914451632345997 M-83.48032651178644 23.914451632345997 C-83.99922687527778 23.684749834060764, -84.51812723876913 23.455048035775526, -84.99263821041056 23.244996104497723 M-83.48032651178644 23.914451632345997 C-83.92447871830339 23.717838625828033, -84.36863092482034 23.52122561931007, -84.99263821041056 23.244996104497723 M-84.99263821041056 23.244996104497723 C-85.42929823092304 23.017190851490458, -85.8659582514355 22.789385598483193, -86.4589505395184 22.480021901620038 M-84.99263821041056 23.244996104497723 C-85.44748546674872 23.007702582209685, -85.90233272308686 22.770409059921644, -86.4589505395184 22.480021901620038 M-86.4589505395184 22.480021901620038 C-86.80910065853769 22.267758841760042, -87.15925077755698 22.055495781900042, -87.87323810722663 21.622672466799017 M-86.4589505395184 22.480021901620038 C-87.01661550913376 22.141962119836073, -87.57428047874913 21.80390233805211, -87.87323810722663 21.622672466799017 M-87.87323810722663 21.622672466799017 C-88.38928622248469 21.26269964095786, -88.90533433774274 20.902726815116704, -89.22968930255584 20.67647083276321 M-87.87323810722663 21.622672466799017 C-88.33967831101458 21.297303972507525, -88.80611851480255 20.971935478216032, -89.22968930255584 20.67647083276321 M-89.22968930255584 20.67647083276321 C-89.67970706354058 20.317593643853446, -90.12972482452531 19.958716454943676, -90.5227301765865 19.645305144986512 M-89.22968930255584 20.67647083276321 C-89.69945827299618 20.301842579914357, -90.16922724343651 19.927214327065503, -90.5227301765865 19.645305144986512 M-90.5227301765865 19.645305144986512 C-90.90460886275135 19.298493026167957, -91.2864875489162 18.951680907349402, -91.74704734701086 18.533412684464324 M-90.5227301765865 19.645305144986512 C-90.93399000208088 19.271809852811224, -91.34524982757526 18.898314560635935, -91.74704734701086 18.533412684464324 M-91.74704734701086 18.533412684464324 C-92.04394793374742 18.226838452667327, -92.34084852048397 17.92026422087033, -92.89760983196044 17.3453624558171 M-91.74704734701086 18.533412684464324 C-92.07742377720429 18.192271895880246, -92.40780020739771 17.85113110729617, -92.89760983196044 17.3453624558171 M-92.89760983196044 17.3453624558171 C-93.20990273500992 16.9785254419256, -93.52219563805939 16.611688428034103, -93.96968972338968 16.08603641227036 M-92.89760983196044 17.3453624558171 C-93.19303894217092 16.99833461257128, -93.4884680523814 16.651306769325462, -93.96968972338968 16.08603641227036 M-93.96968972338968 16.08603641227036 C-94.30709600583354 15.633942732140264, -94.6445022882774 15.181849052010167, -94.95888161506427 14.760609394661614 M-93.96968972338968 16.08603641227036 C-94.29232003996141 15.65374118029073, -94.61495035653314 15.221445948311102, -94.95888161506427 14.760609394661614 M-94.95888161506427 14.760609394661614 C-95.17165887175621 14.433726389689213, -95.38443612844814 14.106843384716809, -95.86112070532036 13.374527866909418 M-94.95888161506427 14.760609394661614 C-95.29987365109442 14.236754058136741, -95.64086568712457 13.712898721611866, -95.86112070532036 13.374527866909418 M-95.86112070532036 13.374527866909418 C-96.03550936818692 13.064883137222878, -96.20989803105347 12.755238407536341, -96.67269950020639 11.933487535324842 M-95.86112070532036 13.374527866909418 C-96.04445506847203 13.048999140516267, -96.2277894316237 12.723470414123117, -96.67269950020639 11.933487535324842 M-96.67269950020639 11.933487535324842 C-96.84922263836552 11.566933461947325, -97.02574577652464 11.200379388569807, -97.39028304837109 10.443409943732586 M-96.67269950020639 11.933487535324842 C-96.91664833017539 11.426922570225429, -97.1605971601444 10.920357605126016, -97.39028304837109 10.443409943732586 M-97.39028304837109 10.443409943732586 C-97.55812641400355 10.028833585589659, -97.72596977963603 9.614257227446732, -98.01092264509381 8.910418140577127 M-97.39028304837109 10.443409943732586 C-97.52337291894128 10.114675390306612, -97.65646278951147 9.785940836880638, -98.01092264509381 8.910418140577127 M-98.01092264509381 8.910418140577127 C-98.15634311961392 8.472434840928678, -98.30176359413403 8.034451541280228, -98.5320679491449 7.340811518003316 M-98.01092264509381 8.910418140577127 C-98.21788993399798 8.287065642157074, -98.42485722290215 7.663713143737021, -98.5320679491449 7.340811518003316 M-98.5320679491449 7.340811518003316 C-98.64407942312316 6.913663221644322, -98.75609089710142 6.486514925285328, -98.95157746268467 5.741039926302918 M-98.5320679491449 7.340811518003316 C-98.66359869805858 6.839227766608292, -98.79512944697225 6.337644015213267, -98.95157746268467 5.741039926302918 M-98.95157746268467 5.741039926302918 C-99.06070692358622 5.1806832090931945, -99.16983638448777 4.620326491883471, -99.26772733113748 4.117677170096139 M-98.95157746268467 5.741039926302918 C-99.03009083614117 5.337890347411135, -99.10860420959767 4.934740768519353, -99.26772733113748 4.117677170096139 M-99.26772733113748 4.117677170096139 C-99.31485016519257 3.7522017746210206, -99.36197299924764 3.3867263791459017, -99.47921842687991 2.477393995158454 M-99.26772733113748 4.117677170096139 C-99.3378902148919 3.573507698925349, -99.40805309864632 3.0293382277545584, -99.47921842687991 2.477393995158454 M-99.47921842687991 2.477393995158454 C-99.52057068021878 1.8332992704673579, -99.56192293355765 1.1892045457762617, -99.58518168763487 0.8269306768952934 M-99.47921842687991 2.477393995158454 C-99.52027703567377 1.8378730212816403, -99.56133564446762 1.1983520474048266, -99.58518168763487 0.8269306768952934 M-99.58518168763487 0.8269306768952934 C-99.58518168763487 0.25446079403950905, -99.58518168763487 -0.3180090888162753, -99.58518168763487 -0.8269306768952809 M-99.58518168763487 0.8269306768952934 C-99.58518168763487 0.17876339116628237, -99.58518168763487 -0.4694038945627287, -99.58518168763487 -0.8269306768952809 M-99.58518168763487 -0.8269306768952809 C-99.54392582961539 -1.4695239666779654, -99.5026699715959 -2.11211725646065, -99.47921842687991 -2.4773939951584185 M-99.58518168763487 -0.8269306768952809 C-99.54784268934208 -1.4085157148026246, -99.51050369104927 -1.9901007527099686, -99.47921842687991 -2.4773939951584185 M-99.47921842687991 -2.4773939951584185 C-99.41947256550476 -2.9407710978292956, -99.35972670412961 -3.404148200500172, -99.26772733113748 -4.117677170096128 M-99.47921842687991 -2.4773939951584185 C-99.43475676568225 -2.822229859459439, -99.39029510448458 -3.1670657237604587, -99.26772733113748 -4.117677170096128 M-99.26772733113748 -4.117677170096128 C-99.2036216817517 -4.446846130958273, -99.13951603236593 -4.776015091820418, -98.95157746268467 -5.741039926302906 M-99.26772733113748 -4.117677170096128 C-99.1904679966679 -4.514387523831222, -99.11320866219835 -4.911097877566315, -98.95157746268467 -5.741039926302906 M-98.95157746268467 -5.741039926302906 C-98.85261997803448 -6.118407703719232, -98.75366249338428 -6.495775481135558, -98.5320679491449 -7.340811518003303 M-98.95157746268467 -5.741039926302906 C-98.80077736657508 -6.316106049943859, -98.64997727046548 -6.8911721735848115, -98.5320679491449 -7.340811518003303 M-98.5320679491449 -7.340811518003303 C-98.36578300056449 -7.8416352892188845, -98.1994980519841 -8.342459060434466, -98.01092264509383 -8.910418140577093 M-98.5320679491449 -7.340811518003303 C-98.34754249985389 -7.896572771130138, -98.16301705056286 -8.452334024256974, -98.01092264509383 -8.910418140577093 M-98.01092264509383 -8.910418140577093 C-97.85879785502448 -9.28616931318114, -97.70667306495511 -9.661920485785188, -97.39028304837109 -10.443409943732574 M-98.01092264509383 -8.910418140577093 C-97.84457359540929 -9.321303509438014, -97.67822454572473 -9.732188878298935, -97.39028304837109 -10.443409943732574 M-97.39028304837109 -10.443409943732574 C-97.10623623223853 -11.033239235060083, -96.82218941610597 -11.623068526387593, -96.6726995002064 -11.933487535324831 M-97.39028304837109 -10.443409943732574 C-97.2365332012299 -10.762674791040961, -97.08278335408873 -11.081939638349349, -96.6726995002064 -11.933487535324831 M-96.6726995002064 -11.933487535324831 C-96.4451642412343 -12.3374994280732, -96.21762898226218 -12.741511320821568, -95.86112070532036 -13.374527866909409 M-96.6726995002064 -11.933487535324831 C-96.41737107921057 -12.38684900160916, -96.16204265821473 -12.840210467893488, -95.86112070532036 -13.374527866909409 M-95.86112070532036 -13.374527866909409 C-95.63495640381491 -13.721976967640245, -95.40879210230946 -14.06942606837108, -94.95888161506429 -14.760609394661605 M-95.86112070532036 -13.374527866909409 C-95.59109897904949 -13.789353749447477, -95.32107725277861 -14.204179631985545, -94.95888161506429 -14.760609394661605 M-94.95888161506429 -14.760609394661605 C-94.75452470961332 -15.034429030668813, -94.55016780416236 -15.308248666676018, -93.96968972338968 -16.086036412270353 M-94.95888161506429 -14.760609394661605 C-94.76045085455324 -15.026488536332238, -94.56202009404218 -15.292367678002872, -93.96968972338968 -16.086036412270353 M-93.96968972338968 -16.086036412270353 C-93.68650353023315 -16.41868302850288, -93.40331733707663 -16.751329644735407, -92.89760983196045 -17.345362455817092 M-93.96968972338968 -16.086036412270353 C-93.65899165873111 -16.451000038239016, -93.34829359407254 -16.81596366420768, -92.89760983196045 -17.345362455817092 M-92.89760983196045 -17.345362455817092 C-92.55875015001443 -17.695262898323637, -92.21989046806843 -18.045163340830182, -91.74704734701089 -18.5334126844643 M-92.89760983196045 -17.345362455817092 C-92.61110405624254 -17.64120319180748, -92.32459828052464 -17.937043927797866, -91.74704734701089 -18.5334126844643 M-91.74704734701089 -18.5334126844643 C-91.28968910621253 -18.94877333772143, -90.83233086541418 -19.364133990978562, -90.52273017658653 -19.645305144986487 M-91.74704734701089 -18.5334126844643 C-91.47153463512714 -18.783626039730223, -91.19602192324339 -19.033839394996146, -90.52273017658653 -19.645305144986487 M-90.52273017658653 -19.645305144986487 C-90.11318818649283 -19.971903983716157, -89.70364619639913 -20.298502822445826, -89.22968930255585 -20.676470832763204 M-90.52273017658653 -19.645305144986487 C-90.14230168845374 -19.94868674064515, -89.76187320032096 -20.252068336303818, -89.22968930255585 -20.676470832763204 M-89.22968930255585 -20.676470832763204 C-88.7998081277761 -20.97633733103343, -88.36992695299634 -21.27620382930366, -87.87323810722665 -21.622672466799 M-89.22968930255585 -20.676470832763204 C-88.91081126881306 -20.898906345094574, -88.59193323507027 -21.121341857425946, -87.87323810722665 -21.622672466799 M-87.87323810722665 -21.622672466799 C-87.45674106668874 -21.875155420381382, -87.0402440261508 -22.127638373963766, -86.45895053951841 -22.480021901620027 M-87.87323810722665 -21.622672466799 C-87.47810097319106 -21.862206919534923, -87.08296383915547 -22.10174137227085, -86.45895053951841 -22.480021901620027 M-86.45895053951841 -22.480021901620027 C-86.07908756007777 -22.678196174680366, -85.69922458063711 -22.8763704477407, -84.99263821041058 -23.244996104497716 M-86.45895053951841 -22.480021901620027 C-85.87716475894995 -22.783539170691018, -85.29537897838148 -23.08705643976201, -84.99263821041058 -23.244996104497716 M-84.99263821041058 -23.244996104497716 C-84.65535830741277 -23.394299912502003, -84.31807840441496 -23.54360372050629, -83.48032651178646 -23.91445163234599 M-84.99263821041058 -23.244996104497716 C-84.45839968523671 -23.481487651969402, -83.92416116006284 -23.717979199441093, -83.48032651178646 -23.91445163234599 M-83.48032651178646 -23.91445163234599 C-82.93563888507917 -24.114901714011495, -82.3909512583719 -24.315351795677003, -81.92822985680553 -24.485637548803172 M-83.48032651178646 -23.91445163234599 C-83.09402650883011 -24.056613604352005, -82.70772650587378 -24.198775576358024, -81.92822985680553 -24.485637548803172 M-81.92822985680553 -24.485637548803172 C-81.49487463517528 -24.614255103855054, -81.06151941354503 -24.742872658906936, -80.34272614354681 -24.956206728419538 M-81.92822985680553 -24.485637548803172 C-81.470674616002 -24.62143754251719, -81.01311937519847 -24.757237536231205, -80.34272614354681 -24.956206728419538 M-80.34272614354681 -24.956206728419538 C-79.86261692438254 -25.065788524688333, -79.38250770521827 -25.17537032095713, -78.73033054685754 -25.324225501499278 M-80.34272614354681 -24.956206728419538 C-79.83547657122318 -25.0719831331896, -79.32822699889954 -25.187759537959668, -78.73033054685754 -25.324225501499278 M-78.73033054685754 -25.324225501499278 C-78.13849899798727 -25.419908236598413, -77.546667449117 -25.515590971697552, -77.09766874610233 -25.588181599964017 M-78.73033054685754 -25.324225501499278 C-78.21169089171144 -25.408075138832704, -77.69305123656532 -25.491924776166133, -77.09766874610233 -25.588181599964017 M-77.09766874610233 -25.588181599964017 C-76.65588129840187 -25.630800303716537, -76.21409385070142 -25.67341900746906, -75.45144969882529 -25.746990371586765 M-77.09766874610233 -25.588181599964017 C-76.51975347208143 -25.643932391404007, -75.94183819806055 -25.699683182843998, -75.45144969882529 -25.746990371586765 M-75.45144969882529 -25.746990371586765 C-75.04845815802817 -25.75991352592468, -74.64546661723105 -25.772836680262593, -73.7984380722046 -25.799999237060547 M-75.45144969882529 -25.746990371586765 C-75.05453250251941 -25.75971873351984, -74.65761530621353 -25.772447095452915, -73.7984380722046 -25.799999237060547 M-73.7984380722046 -25.799999237060547 C-73.7984380722046 -25.799999237060547, -73.7984380722046 -25.799999237060547, -73.79843807220459 -25.799999237060547 M-73.7984380722046 -25.799999237060547 C-73.7984380722046 -25.799999237060547, -73.7984380722046 -25.799999237060547, -73.79843807220459 -25.799999237060547" stroke="#9370DB" stroke-width="1.3" fill="none" stroke-dasharray="0 0" style=""></path></g><g class="label" style="" transform="translate(0, -18.299999237060547)"><rect></rect><g><rect class="background" style="stroke: none"></rect><text y="-10.1" style=""><tspan class="text-outer-tspan row" x="0" y="-0.1em" dy="1.1em"><tspan font-style="normal" class="text-inner-tspan" font-weight="normal">Compare</tspan><tspan font-style="normal" class="text-inner-tspan" font-weight="normal"> Local,</tspan><tspan font-style="normal" class="text-inner-tspan" font-weight="normal"> Remote</tspan></tspan><tspan class="text-outer-tspan row" x="0" y="1em" dy="1.1em"><tspan font-style="normal" class="text-inner-tspan" font-weight="normal">against</tspan><tspan font-style="normal" class="text-inner-tspan" font-weight="normal"> Synced</tspan></tspan></text></g></g></g><g class="node default" id="gc33570dc-dbdc-4713-95c9-bcc91c2a9b6b-light-flowchart-Q1-1" data-look="classic" transform="translate(235.35546875, 188.0609359741211)"><polygon points="78.4609375,0 156.921875,-78.4609375 78.4609375,-156.921875 0,-78.4609375" class="label-container" transform="translate(-77.9609375, 78.4609375)"></polygon><g class="label" style="" transform="translate(0, -9.5)"><rect></rect><g><rect class="background" style="stroke: none"></rect><text y="-10.1" style=""><tspan class="text-outer-tspan row" x="0" y="-0.1em" dy="1.1em"><tspan font-style="normal" class="text-inner-tspan" font-weight="normal">Local</tspan><tspan font-style="normal" class="text-inner-tspan" font-weight="normal"> changed?</tspan></tspan></text></g></g></g><g class="node default ok" id="gc33570dc-dbdc-4713-95c9-bcc91c2a9b6b-light-flowchart-ApplyR-3" data-look="classic" transform="translate(113.984375, 426.2796859741211)"><rect class="basic label-container" style="fill:#e5f5e5 !important;stroke:#44aa44 !important" x="-105.984375" y="-33.29999923706055" width="211.96875" height="66.5999984741211"></rect><g class="label" style="" transform="translate(0, -18.299999237060547)"><rect></rect><g><rect class="background" style="stroke: none"></rect><text y="-10.1" style=""><tspan class="text-outer-tspan row" x="0" y="-0.1em" dy="1.1em"><tspan font-style="normal" class="text-inner-tspan" font-weight="normal">Apply</tspan><tspan font-style="normal" class="text-inner-tspan" font-weight="normal"> remote</tspan><tspan font-style="normal" class="text-inner-tspan" font-weight="normal"> change</tspan></tspan><tspan class="text-outer-tspan row" x="0" y="1em" dy="1.1em"><tspan font-style="normal" class="text-inner-tspan" font-weight="normal">locally</tspan></tspan></text></g></g></g><g class="node default" id="gc33570dc-dbdc-4713-95c9-bcc91c2a9b6b-light-flowchart-Q2-5" data-look="classic" transform="translate(356.7265625, 426.2796859741211)"><polygon points="86.7578125,0 173.515625,-86.7578125 86.7578125,-173.515625 0,-86.7578125" class="label-container" transform="translate(-86.2578125, 86.7578125)"></polygon><g class="label" style="" transform="translate(0, -9.5)"><rect></rect><g><rect class="background" style="stroke: none"></rect><text y="-10.1" style=""><tspan class="text-outer-tspan row" x="0" y="-0.1em" dy="1.1em"><tspan font-style="normal" class="text-inner-tspan" font-weight="normal">Remote</tspan><tspan font-style="normal" class="text-inner-tspan" font-weight="normal"> changed?</tspan></tspan></text></g></g></g><g class="node default ok" id="gc33570dc-dbdc-4713-95c9-bcc91c2a9b6b-light-flowchart-ApplyL-7" data-look="classic" transform="translate(340.6171875, 706.2828140258789)"><rect class="basic label-container" style="fill:#e5f5e5 !important;stroke:#44aa44 !important" x="-128.1171875" y="-24.5" width="256.234375" height="49"></rect><g class="label" style="" transform="translate(0, -9.5)"><rect></rect><g><rect class="background" style="stroke: none"></rect><text y="-10.1" style=""><tspan class="text-outer-tspan row" x="0" y="-0.1em" dy="1.1em"><tspan font-style="normal" class="text-inner-tspan" font-weight="normal">Push</tspan><tspan font-style="normal" class="text-inner-tspan" font-weight="normal"> local</tspan><tspan font-style="normal" class="text-inner-tspan" font-weight="normal"> change</tspan><tspan font-style="normal" class="text-inner-tspan" font-weight="normal"> to</tspan><tspan font-style="normal" class="text-inner-tspan" font-weight="normal"> server</tspan></tspan></text></g></g></g><g class="node default" id="gc33570dc-dbdc-4713-95c9-bcc91c2a9b6b-light-flowchart-Q3-9" data-look="classic" transform="translate(638.9796905517578, 706.2828140258789)"><polygon points="120.24531173706055,0 240.4906234741211,-120.24531173706055 120.24531173706055,-240.4906234741211 0,-120.24531173706055" class="label-container" transform="translate(-119.74531173706055, 120.24531173706055)"></polygon><g class="label" style="" transform="translate(0, -18.299999237060547)"><rect></rect><g><rect class="background" style="stroke: none"></rect><text y="-10.1" style=""><tspan class="text-outer-tspan row" x="0" y="-0.1em" dy="1.1em"><tspan font-style="normal" class="text-inner-tspan" font-weight="normal">Local</tspan><tspan font-style="normal" class="text-inner-tspan" font-weight="normal"> change</tspan><tspan font-style="normal" class="text-inner-tspan" font-weight="normal"> ==</tspan><tspan font-style="normal" class="text-inner-tspan" font-weight="normal"> Remote</tspan></tspan><tspan class="text-outer-tspan row" x="0" y="1em" dy="1.1em"><tspan font-style="normal" class="text-inner-tspan" font-weight="normal">change?</tspan></tspan></text></g></g></g><g class="node default ok" id="gc33570dc-dbdc-4713-95c9-bcc91c2a9b6b-light-flowchart-Skip-11" data-look="classic" transform="translate(522.1929702758789, 997.4109420776367)"><rect class="basic label-container" style="fill:#e5f5e5 !important;stroke:#44aa44 !important" x="-100.9453125" y="-24.5" width="201.890625" height="49"></rect><g class="label" style="" transform="translate(0, -9.5)"><rect></rect><g><rect class="background" style="stroke: none"></rect><text y="-10.1" style=""><tspan class="text-outer-tspan row" x="0" y="-0.1em" dy="1.1em"><tspan font-style="normal" class="text-inner-tspan" font-weight="normal">No-op</tspan><tspan font-style="normal" class="text-inner-tspan" font-weight="normal"> (idempotent)</tspan></tspan></text></g></g></g><g class="node default" id="gc33570dc-dbdc-4713-95c9-bcc91c2a9b6b-light-flowchart-Q4-13" data-look="classic" transform="translate(771.0210952758789, 997.4109420776367)"><polygon points="97.8828125,0 195.765625,-97.8828125 97.8828125,-195.765625 0,-97.8828125" class="label-container" transform="translate(-97.3828125, 97.8828125)"></polygon><g class="label" style="" transform="translate(0, -9.5)"><rect></rect><g><rect class="background" style="stroke: none"></rect><text y="-10.1" style=""><tspan class="text-outer-tspan row" x="0" y="-0.1em" dy="1.1em"><tspan font-style="normal" class="text-inner-tspan" font-weight="normal">Either</tspan><tspan font-style="normal" class="text-inner-tspan" font-weight="normal"> side</tspan><tspan font-style="normal" class="text-inner-tspan" font-weight="normal"> a</tspan><tspan font-style="normal" class="text-inner-tspan" font-weight="normal"> delete?</tspan></tspan></text></g></g></g><g class="node default ok" id="gc33570dc-dbdc-4713-95c9-bcc91c2a9b6b-light-flowchart-SkipD-15" data-look="classic" transform="translate(355.3609390258789, 1227.9937553405762)"><rect class="basic label-container" style="fill:#e5f5e5 !important;stroke:#44aa44 !important" x="-108.5703125" y="-33.29999923706055" width="217.140625" height="66.5999984741211"></rect><g class="label" style="" transform="translate(0, -18.299999237060547)"><rect></rect><g><rect class="background" style="stroke: none"></rect><text y="-10.1" style=""><tspan class="text-outer-tspan row" x="0" y="-0.1em" dy="1.1em"><tspan font-style="normal" class="text-inner-tspan" font-weight="normal">No-op</tspan><tspan font-style="normal" class="text-inner-tspan" font-weight="normal"> (delete</tspan><tspan font-style="normal" class="text-inner-tspan" font-weight="normal"> already</tspan></tspan><tspan class="text-outer-tspan row" x="0" y="1em" dy="1.1em"><tspan font-style="normal" class="text-inner-tspan" font-weight="normal">applied)</tspan></tspan></text></g></g></g><g class="node default warn" id="gc33570dc-dbdc-4713-95c9-bcc91c2a9b6b-light-flowchart-Restore-17" data-look="classic" transform="translate(630.3218765258789, 1227.9937553405762)"><rect class="basic label-container" style="fill:#fff5e5 !important;stroke:#cc8844 !important" x="-116.390625" y="-33.29999923706055" width="232.78125" height="66.5999984741211"></rect><g class="label" style="" transform="translate(0, -18.299999237060547)"><rect></rect><g><rect class="background" style="stroke: none"></rect><text y="-10.1" style=""><tspan class="text-outer-tspan row" x="0" y="-0.1em" dy="1.1em"><tspan font-style="normal" class="text-inner-tspan" font-weight="normal">Restore</tspan><tspan font-style="normal" class="text-inner-tspan" font-weight="normal"> the</tspan><tspan font-style="normal" class="text-inner-tspan" font-weight="normal"> edited</tspan><tspan font-style="normal" class="text-inner-tspan" font-weight="normal"> side,</tspan></tspan><tspan class="text-outer-tspan row" x="0" y="1em" dy="1.1em"><tspan font-style="normal" class="text-inner-tspan" font-weight="normal">drop</tspan><tspan font-style="normal" class="text-inner-tspan" font-weight="normal"> delete</tspan></tspan></text></g></g></g><g class="node default bad" id="gc33570dc-dbdc-4713-95c9-bcc91c2a9b6b-light-flowchart-Conflict-19" data-look="classic" transform="translate(911.7203140258789, 1227.9937553405762)"><rect class="basic label-container" style="fill:#ffe5e5 !important;stroke:#cc4444 !important" x="-115.0078125" y="-59.70000076293945" width="230.015625" height="119.4000015258789"></rect><g class="label" style="" transform="translate(0, -44.70000076293945)"><rect></rect><g><rect class="background" style="stroke: none"></rect><text y="-10.1" style=""><tspan class="text-outer-tspan row" x="0" y="-0.1em" dy="1.1em"><tspan font-style="normal" class="text-inner-tspan" font-weight="normal">Keep</tspan><tspan font-style="normal" class="text-inner-tspan" font-weight="normal"> remote</tspan><tspan font-style="normal" class="text-inner-tspan" font-weight="normal"> at</tspan><tspan font-style="normal" class="text-inner-tspan" font-weight="normal"> original</tspan></tspan><tspan class="text-outer-tspan row" x="0" y="1em" dy="1.1em"><tspan font-style="normal" class="text-inner-tspan" font-weight="normal">path</tspan></tspan><tspan class="text-outer-tspan row" x="0" y="2.1em" dy="1.1em"><tspan font-style="normal" class="text-inner-tspan" font-weight="normal">Move</tspan><tspan font-style="normal" class="text-inner-tspan" font-weight="normal"> local</tspan><tspan font-style="normal" class="text-inner-tspan" font-weight="normal"> to</tspan><tspan font-style="normal" class="text-inner-tspan" font-weight="normal"> '...</tspan></tspan><tspan class="text-outer-tspan row" x="0" y="3.2em" dy="1.1em"><tspan font-style="normal" class="text-inner-tspan" font-weight="normal">(Computer's</tspan><tspan font-style="normal" class="text-inner-tspan" font-weight="normal"> conflicted</tspan></tspan><tspan class="text-outer-tspan row" x="0" y="4.300000000000001em" dy="1.1em"><tspan font-style="normal" class="text-inner-tspan" font-weight="normal">copy</tspan><tspan font-style="normal" class="text-inner-tspan" font-weight="normal"> YYYY-MM-DD).ext'</tspan></tspan></text></g></g></g></g></g></g><defs><filter id="gc33570dc-dbdc-4713-95c9-bcc91c2a9b6b-light-drop-shadow" height="130%" width="130%"><feDropShadow dx="4" dy="4" stdDeviation="0" flood-opacity="0.06" flood-color="#000000"></feDropShadow></filter></defs><defs><filter id="gc33570dc-dbdc-4713-95c9-bcc91c2a9b6b-light-drop-shadow-small" height="150%" width="150%"><feDropShadow dx="2" dy="2" stdDeviation="0" flood-opacity="0.06" flood-color="#000000"></feDropShadow></filter></defs></svg>