<svg id="g8ec05ef6-e769-45a7-8947-8d66342731a2-dark" width="100%" xmlns="http://www.w3.org/2000/svg" xmlns:xlink="http://www.w3.org/1999/xlink" class="flowchart" style="max-width: 462.8984375px;" viewBox="0 0 462.8984375 1542.2874755859375" role="graphics-document document" aria-roledescription="flowchart-v2"><style>#g8ec05ef6-e769-45a7-8947-8d66342731a2-dark{font-family:"trebuchet ms",verdana,arial,sans-serif;font-size:16px;fill:#e5e5e5;}@keyframes edge-animation-frame{from{stroke-dashoffset:0;}}@keyframes dash{to{stroke-dashoffset:0;}}#g8ec05ef6-e769-45a7-8947-8d66342731a2-dark .edge-animation-slow{stroke-dasharray:9,5!important;stroke-dashoffset:900;animation:dash 50s linear infinite;stroke-linecap:round;}#g8ec05ef6-e769-45a7-8947-8d66342731a2-dark .edge-animation-fast{stroke-dasharray:9,5!important;stroke-dashoffset:900;animation:dash 20s linear infinite;stroke-linecap:round;}#g8ec05ef6-e769-45a7-8947-8d66342731a2-dark .error-icon{fill:#252525;}#g8ec05ef6-e769-45a7-8947-8d66342731a2-dark .error-text{fill:#cccccc;stroke:#cccccc;}#g8ec05ef6-e769-45a7-8947-8d66342731a2-dark .edge-thickness-normal{stroke-width:1px;}#g8ec05ef6-e769-45a7-8947-8d66342731a2-dark .edge-thickness-thick{stroke-width:3.5px;}#g8ec05ef6-e769-45a7-8947-8d66342731a2-dark .edge-pattern-solid{stroke-dasharray:0;}#g8ec05ef6-e769-45a7-8947-8d66342731a2-dark .edge-thickness-invisible{stroke-width:0;fill:none;}#g8ec05ef6-e769-45a7-8947-8d66342731a2-dark .edge-pattern-dashed{stroke-dasharray:3;}#g8ec05ef6-e769-45a7-8947-8d66342731a2-dark .edge-pattern-dotted{stroke-dasharray:2;}#g8ec05ef6-e769-45a7-8947-8d66342731a2-dark .marker{fill:#cccccc;stroke:#cccccc;}#g8ec05ef6-e769-45a7-8947-8d66342731a2-dark .marker.cross{stroke:#cccccc;}#g8ec05ef6-e769-45a7-8947-8d66342731a2-dark svg{font-family:"trebuchet ms",verdana,arial,sans-serif;font-size:16px;}#g8ec05ef6-e769-45a7-8947-8d66342731a2-dark p{margin:0;}#g8ec05ef6-e769-45a7-8947-8d66342731a2-dark .label{font-family:"trebuchet ms",verdana,arial,sans-serif;color:#e5e5e5;}#g8ec05ef6-e769-45a7-8947-8d66342731a2-dark .cluster-label text{fill:#e5e5e5;}#g8ec05ef6-e769-45a7-8947-8d66342731a2-dark .cluster-label span{color:#e5e5e5;}#g8ec05ef6-e769-45a7-8947-8d66342731a2-dark .cluster-label span p{background-color:transparent;}#g8ec05ef6-e769-45a7-8947-8d66342731a2-dark .label text,#g8ec05ef6-e769-45a7-8947-8d66342731a2-dark span{fill:#e5e5e5;color:#e5e5e5;}#g8ec05ef6-e769-45a7-8947-8d66342731a2-dark .node rect,#g8ec05ef6-e769-45a7-8947-8d66342731a2-dark .node circle,#g8ec05ef6-e769-45a7-8947-8d66342731a2-dark .node ellipse,#g8ec05ef6-e769-45a7-8947-8d66342731a2-dark .node polygon,#g8ec05ef6-e769-45a7-8947-8d66342731a2-dark .node path{fill:#2d2d2d;stroke:#555555;stroke-width:1px;}#g8ec05ef6-e769-45a7-8947-8d66342731a2-dark .rough-node .label text,#g8ec05ef6-e769-45a7-8947-8d66342731a2-dark .node .label text,#g8ec05ef6-e769-45a7-8947-8d66342731a2-dark .image-shape .label,#g8ec05ef6-e769-45a7-8947-8d66342731a2-dark .icon-shape .label{text-anchor:middle;}#g8ec05ef6-e769-45a7-8947-8d66342731a2-dark .node .katex path{fill:#000;stroke:#000;stroke-width:1px;}#g8ec05ef6-e769-45a7-8947-8d66342731a2-dark .rough-node .label,#g8ec05ef6-e769-45a7-8947-8d66342731a2-dark .node .label,#g8ec05ef6-e769-45a7-8947-8d66342731a2-dark .image-shape .label,#g8ec05ef6-e769-45a7-8947-8d66342731a2-dark .icon-shape .label{text-align:center;}#g8ec05ef6-e769-45a7-8947-8d66342731a2-dark .node.clickable{cursor:pointer;}#g8ec05ef6-e769-45a7-8947-8d66342731a2-dark .root .anchor path{fill:#cccccc!important;stroke-width:0;stroke:#cccccc;}#g8ec05ef6-e769-45a7-8947-8d66342731a2-dark .arrowheadPath{fill:#cccccc;}#g8ec05ef6-e769-45a7-8947-8d66342731a2-dark .edgePath .path{stroke:#cccccc;stroke-width:1px;}#g8ec05ef6-e769-45a7-8947-8d66342731a2-dark .flowchart-link{stroke:#cccccc;fill:none;}#g8ec05ef6-e769-45a7-8947-8d66342731a2-dark .edgeLabel{background-color:#1e1e1e;text-align:center;}#g8ec05ef6-e769-45a7-8947-8d66342731a2-dark .edgeLabel p{background-color:#1e1e1e;}#g8ec05ef6-e769-45a7-8947-8d66342731a2-dark .edgeLabel rect{opacity:0.5;background-color:#1e1e1e;fill:#1e1e1e;}#g8ec05ef6-e769-45a7-8947-8d66342731a2-dark .labelBkg{background-color:rgba(30, 30, 30, 0.5);}#g8ec05ef6-e769-45a7-8947-8d66342731a2-dark .cluster rect{fill:#1e1e1e;stroke:#555555;stroke-width:1px;}#g8ec05ef6-e769-45a7-8947-8d66342731a2-dark .cluster text{fill:#e5e5e5;}#g8ec05ef6-e769-45a7-8947-8d66342731a2-dark .cluster span{color:#e5e5e5;}#g8ec05ef6-e769-45a7-8947-8d66342731a2-dark div.mermaidTooltip{position:absolute;text-align:center;max-width:200px;padding:2px;font-family:"trebuchet ms",verdana,arial,sans-serif;font-size:12px;background:#252525;border:1px solid #555555;border-radius:2px;pointer-events:none;z-index:100;}#g8ec05ef6-e769-45a7-8947-8d66342731a2-dark .flowchartTitleText{text-anchor:middle;font-size:18px;fill:#e5e5e5;}#g8ec05ef6-e769-45a7-8947-8d66342731a2-dark rect.text{fill:none;stroke-width:0;}#g8ec05ef6-e769-45a7-8947-8d66342731a2-dark .icon-shape,#g8ec05ef6-e769-45a7-8947-8d66342731a2-dark .image-shape{background-color:#1e1e1e;text-align:center;}#g8ec05ef6-e769-45a7-8947-8d66342731a2-dark .icon-shape p,#g8ec05ef6-e769-45a7-8947-8d66342731a2-dark .image-shape p{background-color:#1e1e1e;padding:2px;}#g8ec05ef6-e769-45a7-8947-8d66342731a2-dark .icon-shape .label rect,#g8ec05ef6-e769-45a7-8947-8d66342731a2-dark .image-shape .label rect{opacity:0.5;background-color:#1e1e1e;fill:#1e1e1e;}#g8ec05ef6-e769-45a7-8947-8d66342731a2-dark .label-icon{display:inline-block;height:1em;overflow:visible;vertical-align:-0.125em;}#g8ec05ef6-e769-45a7-8947-8d66342731a2-dark .node .label-icon path{fill:currentColor;stroke:revert;stroke-width:revert;}#g8ec05ef6-e769-45a7-8947-8d66342731a2-dark .node .neo-node{stroke:#555555;}#g8ec05ef6-e769-45a7-8947-8d66342731a2-dark [data-look="neo"].node rect,#g8ec05ef6-e769-45a7-8947-8d66342731a2-dark [data-look="neo"].cluster rect,#g8ec05ef6-e769-45a7-8947-8d66342731a2-dark [data-look="neo"].node polygon{stroke:url(#g8ec05ef6-e769-45a7-8947-8d66342731a2-dark-gradient);filter:drop-shadow( 1px 2px 2px rgba(185,185,185,1));}#g8ec05ef6-e769-45a7-8947-8d66342731a2-dark [data-look="neo"].node path{stroke:url(#g8ec05ef6-e769-45a7-8947-8d66342731a2-dark-gradient);stroke-width:1px;}#g8ec05ef6-e769-45a7-8947-8d66342731a2-dark [data-look="neo"].node .outer-path{filter:drop-shadow( 1px 2px 2px rgba(185,185,185,1));}#g8ec05ef6-e769-45a7-8947-8d66342731a2-dark [data-look="neo"].node .neo-line path{stroke:#555555;filter:none;}#g8ec05ef6-e769-45a7-8947-8d66342731a2-dark [data-look="neo"].node circle{stroke:url(#g8ec05ef6-e769-45a7-8947-8d66342731a2-dark-gradient);filter:drop-shadow( 1px 2px 2px rgba(185,185,185,1));}#g8ec05ef6-e769-45a7-8947-8d66342731a2-dark [data-look="neo"].node circle .state-start{fill:#000000;}#g8ec05ef6-e769-45a7-8947-8d66342731a2-dark [data-look="neo"].icon-shape .icon{fill:url(#g8ec05ef6-e769-45a7-8947-8d66342731a2-dark-gradient);filter:drop-shadow( 1px 2px 2px rgba(185,185,185,1));}#g8ec05ef6-e769-45a7-8947-8d66342731a2-dark [data-look="neo"].icon-shape .icon-neo path{stroke:url(#g8ec05ef6-e769-45a7-8947-8d66342731a2-dark-gradient);filter:drop-shadow( 1px 2px 2px rgba(185,185,185,1));}#g8ec05ef6-e769-45a7-8947-8d66342731a2-dark :root{--mermaid-font-family:"trebuchet ms",verdana,arial,sans-serif;}#g8ec05ef6-e769-45a7-8947-8d66342731a2-dark .cb rect{fill:#2E5A88!important;stroke:#1F4870!important;color:#ffffff!important;}#g8ec05ef6-e769-45a7-8947-8d66342731a2-dark .cb polygon{fill:#2E5A88!important;stroke:#1F4870!important;color:#ffffff!important;}#g8ec05ef6-e769-45a7-8947-8d66342731a2-dark .cb ellipse{fill:#2E5A88!important;stroke:#1F4870!important;color:#ffffff!important;}#g8ec05ef6-e769-45a7-8947-8d66342731a2-dark .cb circle{fill:#2E5A88!important;stroke:#1F4870!important;color:#ffffff!important;}#g8ec05ef6-e769-45a7-8947-8d66342731a2-dark .cb path{fill:#2E5A88!important;stroke:#1F4870!important;color:#ffffff!important;}#g8ec05ef6-e769-45a7-8947-8d66342731a2-dark .cb tspan{fill:#ffffff!important;}#g8ec05ef6-e769-45a7-8947-8d66342731a2-dark .warn rect{fill:#B43A3A!important;stroke:#8E2828!important;color:#ffffff!important;}#g8ec05ef6-e769-45a7-8947-8d66342731a2-dark .warn polygon{fill:#B43A3A!important;stroke:#8E2828!important;color:#ffffff!important;}#g8ec05ef6-e769-45a7-8947-8d66342731a2-dark .warn ellipse{fill:#B43A3A!important;stroke:#8E2828!important;color:#ffffff!important;}#g8ec05ef6-e769-45a7-8947-8d66342731a2-dark .warn circle{fill:#B43A3A!important;stroke:#8E2828!important;color:#ffffff!important;}#g8ec05ef6-e769-45a7-8947-8d66342731a2-dark .warn path{fill:#B43A3A!important;stroke:#8E2828!important;color:#ffffff!important;}#g8ec05ef6-e769-45a7-8947-8d66342731a2-dark .warn tspan{fill:#ffffff!important;}</style><g><marker id="g8ec05ef6-e769-45a7-8947-8d66342731a2-dark_flowchart-v2-pointEnd" class="marker flowchart-v2" viewBox="0 0 10 10" refX="5" refY="5" markerUnits="userSpaceOnUse" markerWidth="8" markerHeight="8" orient="auto"><path d="M 0 0 L 10 5 L 0 10 z" class="arrowMarkerPath" style="stroke-width: 1; stroke-dasharray: 1, 0;"></path></marker><marker id="g8ec05ef6-e769-45a7-8947-8d66342731a2-dark_flowchart-v2-pointStart" class="marker flowchart-v2" viewBox="0 0 10 10" refX="4.5" refY="5" markerUnits="userSpaceOnUse" markerWidth="8" markerHeight="8" orient="auto"><path d="M 0 5 L 10 10 L 10 0 z" class="arrowMarkerPath" style="stroke-width: 1; stroke-dasharray: 1, 0;"></path></marker><marker id="g8ec05ef6-e769-45a7-8947-8d66342731a2-dark_flowchart-v2-pointEnd-margin" class="marker flowchart-v2" viewBox="0 0 11.5 14" refX="11.5" refY="7" markerUnits="userSpaceOnUse" markerWidth="10.5" markerHeight="14" orient="auto"><path d="M 0 0 L 11.5 7 L 0 14 z" class="arrowMarkerPath" style="stroke-width: 0; stroke-dasharray: 1, 0;"></path></marker><marker id="g8ec05ef6-e769-45a7-8947-8d66342731a2-dark_flowchart-v2-pointStart-margin" class="marker flowchart-v2" viewBox="0 0 11.5 14" refX="1" refY="7" markerUnits="userSpaceOnUse" markerWidth="11.5" markerHeight="14" orient="auto"><polygon points="0,7 11.5,14 11.5,0" class="arrowMarkerPath" style="stroke-width: 0; stroke-dasharray: 1, 0;"></polygon></marker><marker id="g8ec05ef6-e769-45a7-8947-8d66342731a2-dark_flowchart-v2-circleEnd" class="marker flowchart-v2" viewBox="0 0 10 10" refX="11" refY="5" markerUnits="userSpaceOnUse" markerWidth="11" markerHeight="11" orient="auto"><circle cx="5" cy="5" r="5" class="arrowMarkerPath" style="stroke-width: 1; stroke-dasharray: 1, 0;"></circle></marker><marker id="g8ec05ef6-e769-45a7-8947-8d66342731a2-dark_flowchart-v2-circleStart" class="marker flowchart-v2" viewBox="0 0 10 10" refX="-1" refY="5" markerUnits="userSpaceOnUse" markerWidth="11" markerHeight="11" orient="auto"><circle cx="5" cy="5" r="5" class="arrowMarkerPath" style="stroke-width: 1; stroke-dasharray: 1, 0;"></circle></marker><marker id="g8ec05ef6-e769-45a7-8947-8d66342731a2-dark_flowchart-v2-circleEnd-margin" class="marker flowchart-v2" viewBox="0 0 10 10" refY="5" refX="12.25" markerUnits="userSpaceOnUse" markerWidth="14" markerHeight="14" orient="auto"><circle cx="5" cy="5" r="5" class="arrowMarkerPath" style="stroke-width: 0; stroke-dasharray: 1, 0;"></circle></marker><marker id="g8ec05ef6-e769-45a7-8947-8d66342731a2-dark_flowchart-v2-circleStart-margin" class="marker flowchart-v2" viewBox="0 0 10 10" refX="-2" refY="5" markerUnits="userSpaceOnUse" markerWidth="14" markerHeight="14" orient="auto"><circle cx="5" cy="5" r="5" class="arrowMarkerPath" style="stroke-width: 0; stroke-dasharray: 1, 0;"></circle></marker><marker id="g8ec05ef6-e769-45a7-8947-8d66342731a2-dark_flowchart-v2-crossEnd" class="marker cross flowchart-v2" viewBox="0 0 11 11" refX="12" refY="5.2" markerUnits="userSpaceOnUse" markerWidth="11" markerHeight="11" orient="auto"><path d="M 1,1 l 9,9 M 10,1 l -9,9" class="arrowMarkerPath" style="stroke-width: 2; stroke-dasharray: 1, 0;"></path></marker><marker id="g8ec05ef6-e769-45a7-8947-8d66342731a2-dark_flowchart-v2-crossStart" class="marker cross flowchart-v2" viewBox="0 0 11 11" refX="-1" refY="5.2" markerUnits="userSpaceOnUse" markerWidth="11" markerHeight="11" orient="auto"><path d="M 1,1 l 9,9 M 10,1 l -9,9" class="arrowMarkerPath" style="stroke-width: 2; stroke-dasharray: 1, 0;"></path></marker><marker id="g8ec05ef6-e769-45a7-8947-8d66342731a2-dark_flowchart-v2-crossEnd-margin" class="marker cross flowchart-v2" viewBox="0 0 15 15" refX="17.7" refY="7.5" markerUnits="userSpaceOnUse" markerWidth="12" markerHeight="12" orient="auto"><path d="M 1,1 L 14,14 M 1,14 L 14,1" class="arrowMarkerPath" style="stroke-width: 2.5;"></path></marker><marker id="g8ec05ef6-e769-45a7-8947-8d66342731a2-dark_flowchart-v2-crossStart-margin" class="marker cross flowchart-v2" viewBox="0 0 15 15" refX="-3.5" refY="7.5" markerUnits="userSpaceOnUse" markerWidth="12" markerHeight="12" orient="auto"><path d="M 1,1 L 14,14 M 1,14 L 14,1" class="arrowMarkerPath" style="stroke-width: 2.5; stroke-dasharray: 1, 0;"></path></marker><g class="root"><g class="clusters"></g><g class="edgePaths"><path d="M167.945,42.5L167.862,46.583C167.779,50.667,167.612,58.833,167.529,66.417C167.445,74,167.445,81,167.445,84.5L167.445,88" id="g8ec05ef6-e769-45a7-8947-8d66342731a2-dark-L_start_rs_0" class="edge-thickness-normal edge-pattern-solid edge-thickness-normal edge-pattern-solid flowchart-link" style=";" data-edge="true" data-et="edge" data-id="L_start_rs_0" data-points="W3sieCI6MTY3Ljk0NTMxMjUsInkiOjQyLjV9LHsieCI6MTY3LjQ0NTMxMjUsInkiOjY3fSx7IngiOjE2Ny40NDUzMTI1LCJ5Ijo5Mn1d" data-look="classic" marker-end="url(#g8ec05ef6-e769-45a7-8947-8d66342731a2-dark_flowchart-v2-pointEnd)"></path><path d="M167.445,141L167.445,145.167C167.445,149.333,167.445,157.667,167.445,165.333C167.445,173,167.445,180,167.445,183.5L167.445,187" id="g8ec05ef6-e769-45a7-8947-8d66342731a2-dark-L_rs_ul_0" class="edge-thickness-normal edge-pattern-solid edge-thickness-normal edge-pattern-solid flowchart-link" style=";" data-edge="true" data-et="edge" data-id="L_rs_ul_0" data-points="W3sieCI6MTY3LjQ0NTMxMjUsInkiOjE0MX0seyJ4IjoxNjcuNDQ1MzEyNSwieSI6MTY2fSx7IngiOjE2Ny40NDUzMTI1LCJ5IjoxOTF9XQ==" data-look="classic" marker-end="url(#g8ec05ef6-e769-45a7-8947-8d66342731a2-dark_flowchart-v2-pointEnd)"></path><path d="M167.445,240L167.445,244.167C167.445,248.333,167.445,256.667,167.445,264.333C167.445,272,167.445,279,167.445,282.5L167.445,286" id="g8ec05ef6-e769-45a7-8947-8d66342731a2-dark-L_ul_gather_0" class="edge-thickness-normal edge-pattern-solid edge-thickness-normal edge-pattern-solid flowchart-link" style=";" data-edge="true" data-et="edge" data-id="L_ul_gather_0" data-points="W3sieCI6MTY3LjQ0NTMxMjUsInkiOjI0MH0seyJ4IjoxNjcuNDQ1MzEyNSwieSI6MjY1fSx7IngiOjE2Ny40NDUzMTI1LCJ5IjoyOTB9XQ==" data-look="classic" marker-end="url(#g8ec05ef6-e769-45a7-8947-8d66342731a2-dark_flowchart-v2-pointEnd)"></path><path d="M167.445,339L167.445,343.167C167.445,347.333,167.445,355.667,167.445,363.333C167.445,371,167.445,378,167.445,381.5L167.445,385" id="g8ec05ef6-e769-45a7-8947-8d66342731a2-dark-L_gather_any_0" class="edge-thickness-normal edge-pattern-solid edge-thickness-normal edge-pattern-solid flowchart-link" style=";" data-edge="true" data-et="edge" data-id="L_gather_any_0" data-points="W3sieCI6MTY3LjQ0NTMxMjUsInkiOjMzOX0seyJ4IjoxNjcuNDQ1MzEyNSwieSI6MzY0fSx7IngiOjE2Ny40NDUzMTI1LCJ5IjozODl9XQ==" data-look="classic" marker-end="url(#g8ec05ef6-e769-45a7-8947-8d66342731a2-dark_flowchart-v2-pointEnd)"></path><path d="M136.159,456.386L116.577,467.683C96.994,478.981,57.829,501.577,38.247,525.974C18.664,550.372,18.664,576.572,18.664,600.855C18.664,625.139,18.664,647.505,18.664,666.939C18.664,686.372,18.664,702.872,18.664,721.289C18.664,739.705,18.664,760.039,18.664,780.372C18.664,800.705,18.664,821.039,18.664,841.372C18.664,861.705,18.664,882.039,18.664,905.929C18.664,929.82,18.664,957.268,18.664,984.716C18.664,1012.164,18.664,1039.611,18.664,1071.029C18.664,1102.447,18.664,1137.835,18.664,1173.223C18.664,1208.611,18.664,1243.999,18.664,1277.727C18.664,1311.454,18.664,1343.521,18.664,1373.671C18.664,1403.821,18.664,1432.054,25.633,1450.015C32.601,1467.977,46.539,1475.666,53.508,1479.511L60.476,1483.355" id="g8ec05ef6-e769-45a7-8947-8d66342731a2-dark-L_any_paint_0" class="edge-thickness-normal edge-pattern-solid edge-thickness-normal edge-pattern-solid flowchart-link" style=";" data-edge="true" data-et="edge" data-id="L_any_paint_0" data-points="W3sieCI6MTM2LjE1OTE4ODM2OTkzNDQsInkiOjQ1Ni4zODU3NTA4Njk5MzQ0fSx7IngiOjE4LjY2NDA2MjUsInkiOjUyNC4xNzE4NzV9LHsieCI6MTguNjY0MDYyNSwieSI6NjAyLjc3MTg3MzQ3NDEyMTF9LHsieCI6MTguNjY0MDYyNSwieSI6NjY5Ljg3MTg3MTk0ODI0MjJ9LHsieCI6MTguNjY0MDYyNSwieSI6NzE5LjM3MTg3MTk0ODI0MjJ9LHsieCI6MTguNjY0MDYyNSwieSI6NzgwLjM3MTg3MTk0ODI0MjJ9LHsieCI6MTguNjY0MDYyNSwieSI6ODQxLjM3MTg3MTk0ODI0MjJ9LHsieCI6MTguNjY0MDYyNSwieSI6OTAyLjM3MTg3MTk0ODI0MjJ9LHsieCI6MTguNjY0MDYyNSwieSI6OTg0LjcxNTYyMTk0ODI0MjJ9LHsieCI6MTguNjY0MDYyNSwieSI6MTA2Ny4wNTkzNzE5NDgyNDIyfSx7IngiOjE4LjY2NDA2MjUsInkiOjExNzMuMjIzNDM0NDQ4MjQyMn0seyJ4IjoxOC42NjQwNjI1LCJ5IjoxMjc5LjM4NzQ5Njk0ODI0MjJ9LHsieCI6MTguNjY0MDYyNSwieSI6MTM3NS41ODc0OTc3MTExODE2fSx7IngiOjE4LjY2NDA2MjUsInkiOjE0NjAuMjg3NDk4NDc0MTIxfSx7IngiOjYzLjk3ODUzNTM1MzUzNTM2LCJ5IjoxNDg1LjI4NzQ5ODQ3NDEyMX1d" data-look="classic" marker-end="url(#g8ec05ef6-e769-45a7-8947-8d66342731a2-dark_flowchart-v2-pointEnd)"></path><path d="M190.351,464.766L198.932,474.667C207.513,484.568,224.674,504.37,233.255,519.688C241.836,535.005,241.836,545.839,241.836,551.255L241.836,556.672" id="g8ec05ef6-e769-45a7-8947-8d66342731a2-dark-L_any_bcast_0" class="edge-thickness-normal edge-pattern-solid edge-thickness-normal edge-pattern-solid flowchart-link" style=";" data-edge="true" data-et="edge" data-id="L_any_bcast_0" data-points="W3sieCI6MTkwLjM1MTE5NzU2ODc1MDMsInkiOjQ2NC43NjU5ODk5MzEyNDk3fSx7IngiOjI0MS44MzU5Mzc1LCJ5Ijo1MjQuMTcxODc1fSx7IngiOjI0MS44MzU5Mzc1LCJ5Ijo1NjAuNjcxODc1fV0=" data-look="classic" marker-end="url(#g8ec05ef6-e769-45a7-8947-8d66342731a2-dark_flowchart-v2-pointEnd)"></path><path d="M195.162,644.872L190.542,649.039C185.923,653.205,176.684,661.539,172.065,669.205C167.445,676.872,167.445,683.872,167.445,687.372L167.445,690.872" id="g8ec05ef6-e769-45a7-8947-8d66342731a2-dark-L_bcast_rs2_0" class="edge-thickness-normal edge-pattern-solid edge-thickness-normal edge-pattern-solid flowchart-link" style=";" data-edge="true" data-et="edge" data-id="L_bcast_rs2_0" data-points="W3sieCI6MTk1LjE2MTY0MTM3MTcxMDMyLCJ5Ijo2NDQuODcxODcxOTQ4MjQyMn0seyJ4IjoxNjcuNDQ1MzEyNSwieSI6NjY5Ljg3MTg3MTk0ODI0MjJ9LHsieCI6MTY3LjQ0NTMxMjUsInkiOjY5NC44NzE4NzE5NDgyNDIyfV0=" data-look="classic" marker-end="url(#g8ec05ef6-e769-45a7-8947-8d66342731a2-dark_flowchart-v2-pointEnd)"></path><path d="M167.445,743.872L167.445,749.955C167.445,756.039,167.445,768.205,167.445,779.705C167.445,791.205,167.445,802.039,167.445,807.455L167.445,812.872" id="g8ec05ef6-e769-45a7-8947-8d66342731a2-dark-L_rs2_gather2_0" class="edge-thickness-normal edge-pattern-solid edge-thickness-normal edge-pattern-solid flowchart-link" style=";" data-edge="true" data-et="edge" data-id="L_rs2_gather2_0" data-points="W3sieCI6MTY3LjQ0NTMxMjUsInkiOjc0My44NzE4NzE5NDgyNDIyfSx7IngiOjE2Ny40NDUzMTI1LCJ5Ijo3ODAuMzcxODcxOTQ4MjQyMn0seyJ4IjoxNjcuNDQ1MzEyNSwieSI6ODE2Ljg3MTg3MTk0ODI0MjJ9XQ==" data-look="classic" marker-end="url(#g8ec05ef6-e769-45a7-8947-8d66342731a2-dark_flowchart-v2-pointEnd)"></path><path d="M167.445,865.872L167.445,871.955C167.445,878.039,167.445,890.205,175.77,905.504C184.095,920.802,200.746,939.232,209.071,948.447L217.396,957.662" id="g8ec05ef6-e769-45a7-8947-8d66342731a2-dark-L_gather2_any2_0" class="edge-thickness-normal edge-pattern-solid edge-thickness-normal edge-pattern-solid flowchart-link" style=";" data-edge="true" data-et="edge" data-id="L_gather2_any2_0" data-points="W3sieCI6MTY3LjQ0NTMxMjUsInkiOjg2NS44NzE4NzE5NDgyNDIyfSx7IngiOjE2Ny40NDUzMTI1LCJ5Ijo5MDIuMzcxODcxOTQ4MjQyMn0seyJ4IjoyMjAuMDc3MTgwMjcyNDA1NTQsInkiOjk2MC42MzA2MjkxNzU4MzY2fV0=" data-look="classic" marker-end="url(#g8ec05ef6-e769-45a7-8947-8d66342731a2-dark_flowchart-v2-pointEnd)"></path><path d="M263.595,960.631L272.367,950.921C281.139,941.211,298.683,921.791,307.455,901.915C316.227,882.039,316.227,861.705,316.227,841.372C316.227,821.039,316.227,800.705,316.227,780.372C316.227,760.039,316.227,739.705,316.227,721.289C316.227,702.872,316.227,686.372,312.102,674.402C307.978,662.432,299.729,654.991,295.605,651.271L291.48,647.551" id="g8ec05ef6-e769-45a7-8947-8d66342731a2-dark-L_any2_bcast_0" class="edge-thickness-normal edge-pattern-solid edge-thickness-normal edge-pattern-solid flowchart-link" style=";" data-edge="true" data-et="edge" data-id="L_any2_bcast_0" data-points="W3sieCI6MjYzLjU5NDY5NDcyNzU5NDQ2LCJ5Ijo5NjAuNjMwNjI5MTc1ODM2Nn0seyJ4IjozMTYuMjI2NTYyNSwieSI6OTAyLjM3MTg3MTk0ODI0MjJ9LHsieCI6MzE2LjIyNjU2MjUsInkiOjg0MS4zNzE4NzE5NDgyNDIyfSx7IngiOjMxNi4yMjY1NjI1LCJ5Ijo3ODAuMzcxODcxOTQ4MjQyMn0seyJ4IjozMTYuMjI2NTYyNSwieSI6NzE5LjM3MTg3MTk0ODI0MjJ9LHsieCI6MzE2LjIyNjU2MjUsInkiOjY2OS44NzE4NzE5NDgyNDIyfSx7IngiOjI4OC41MTAyMzM2MjgyODk3LCJ5Ijo2NDQuODcxODcxOTQ4MjQyMn1d" data-look="classic" marker-end="url(#g8ec05ef6-e769-45a7-8947-8d66342731a2-dark_flowchart-v2-pointEnd)"></path><path d="M241.836,1030.559L241.836,1036.643C241.836,1042.726,241.836,1054.893,241.836,1066.393C241.836,1077.893,241.836,1088.726,241.836,1094.143L241.836,1099.559" id="g8ec05ef6-e769-45a7-8947-8d66342731a2-dark-L_any2_err_0" class="edge-thickness-normal edge-pattern-solid edge-thickness-normal edge-pattern-solid flowchart-link" style=";" data-edge="true" data-et="edge" data-id="L_any2_err_0" data-points="W3sieCI6MjQxLjgzNTkzNzUsInkiOjEwMzAuNTU5MzcxOTQ4MjQyMn0seyJ4IjoyNDEuODM1OTM3NSwieSI6MTA2Ny4wNTkzNzE5NDgyNDIyfSx7IngiOjI0MS44MzU5Mzc1LCJ5IjoxMTAzLjU1OTM3MTk0ODI0MjJ9XQ==" data-look="classic" marker-end="url(#g8ec05ef6-e769-45a7-8947-8d66342731a2-dark_flowchart-v2-pointEnd)"></path><path d="M273.061,1211.662L282.231,1222.95C291.4,1234.237,309.739,1256.812,318.909,1273.517C328.078,1290.221,328.078,1301.054,328.078,1306.471L328.078,1311.887" id="g8ec05ef6-e769-45a7-8947-8d66342731a2-dark-L_err_loop_0" class="edge-thickness-normal edge-pattern-solid edge-thickness-normal edge-pattern-solid flowchart-link" style=";" data-edge="true" data-et="edge" data-id="L_err_loop_0" data-points="W3sieCI6MjczLjA2MTQzNjM2MDU0NDg2LCJ5IjoxMjExLjY2MTk5ODA4NzY5NzR9LHsieCI6MzI4LjA3ODEyNSwieSI6MTI3OS4zODc0OTY5NDgyNDIyfSx7IngiOjMyOC4wNzgxMjUsInkiOjEzMTUuODg3NDk2OTQ4MjQyMn1d" data-look="classic" marker-end="url(#g8ec05ef6-e769-45a7-8947-8d66342731a2-dark_flowchart-v2-pointEnd)"></path><path d="M203.038,1204.089L187.262,1216.639C171.487,1229.189,139.937,1254.288,124.162,1282.871C108.387,1311.454,108.387,1343.521,108.387,1373.671C108.387,1403.821,108.387,1432.054,108.387,1449.671C108.387,1467.287,108.387,1474.287,108.387,1477.787L108.387,1481.287" id="g8ec05ef6-e769-45a7-8947-8d66342731a2-dark-L_err_paint_0" class="edge-thickness-normal edge-pattern-solid edge-thickness-normal edge-pattern-solid flowchart-link" style=";" data-edge="true" data-et="edge" data-id="L_err_paint_0" data-points="W3sieCI6MjAzLjAzNzUyNTg3OTkxNzE4LCJ5IjoxMjA0LjA4OTA4NTMyODE1OTR9LHsieCI6MTA4LjM4NjcxODc1LCJ5IjoxMjc5LjM4NzQ5Njk0ODI0MjJ9LHsieCI6MTA4LjM4NjcxODc1LCJ5IjoxMzc1LjU4NzQ5NzcxMTE4MTZ9LHsieCI6MTA4LjM4NjcxODc1LCJ5IjoxNDYwLjI4NzQ5ODQ3NDEyMX0seyJ4IjoxMDguMzg2NzE4NzUsInkiOjE0ODUuMjg3NDk4NDc0MTIxfV0=" data-look="classic" marker-end="url(#g8ec05ef6-e769-45a7-8947-8d66342731a2-dark_flowchart-v2-pointEnd)"></path><path d="M328.078,1435.287L328.078,1439.454C328.078,1443.621,328.078,1451.954,300.194,1462.404C272.31,1472.853,216.542,1485.418,188.657,1491.701L160.773,1497.984" id="g8ec05ef6-e769-45a7-8947-8d66342731a2-dark-L_loop_paint_0" class="edge-thickness-normal edge-pattern-solid edge-thickness-normal edge-pattern-solid flowchart-link" style=";" data-edge="true" data-et="edge" data-id="L_loop_paint_0" data-points="W3sieCI6MzI4LjA3ODEyNSwieSI6MTQzNS4yODc0OTg0NzQxMjF9LHsieCI6MzI4LjA3ODEyNSwieSI6MTQ2MC4yODc0OTg0NzQxMjF9LHsieCI6MTU2Ljg3MTA5Mzc1LCJ5IjoxNDk4Ljg2MzE5MDU4NDg1ODh9XQ==" data-look="classic" marker-end="url(#g8ec05ef6-e769-45a7-8947-8d66342731a2-dark_flowchart-v2-pointEnd)"></path></g><g class="edgeLabels"><g class="edgeLabel"><g class="label" data-id="L_start_rs_0" transform="translate(0, 0)"><text y="-10.1" text-anchor="middle"><tspan class="text-outer-tspan row" x="0" y="-0.1em" dy="1.1em" text-anchor="middle"></tspan></text></g></g><g><rect class="background" style="stroke: none"></rect></g><g class="edgeLabel"><g class="label" data-id="L_rs_ul_0" transform="translate(0, 0)"><text y="-10.1" text-anchor="middle"><tspan class="text-outer-tspan row" x="0" y="-0.1em" dy="1.1em" text-anchor="middle"></tspan></text></g></g><g><rect class="background" style="stroke: none"></rect></g><g class="edgeLabel"><g class="label" data-id="L_ul_gather_0" transform="translate(0, 0)"><text y="-10.1" text-anchor="middle"><tspan class="text-outer-tspan row" x="0" y="-0.1em" dy="1.1em" text-anchor="middle"></tspan></text></g></g><g><rect class="background" style="stroke: none"></rect></g><g class="edgeLabel"><g class="label" data-id="L_gather_any_0" transform="translate(0, 0)"><text y="-10.1" text-anchor="middle"><tspan class="text-outer-tspan row" x="0" y="-0.1em" dy="1.1em" text-anchor="middle"></tspan></text></g></g><g><rect class="background" style="stroke: none"></rect></g><g class="edgeLabel" transform="translate(18.6640625, 902.3718719482422)"><g class="label" data-id="L_any_paint_0" transform="translate(0, -10.5)"><g><rect class="background" style="" x="-10.6640625" y="-1" width="21.328125" height="23"></rect><text y="-10.1" text-anchor="middle" style=""><tspan class="text-outer-tspan row" x="0" y="-0.1em" dy="1.1em" text-anchor="middle"><tspan font-style="normal" class="text-inner-tspan" font-weight="normal">no</tspan></tspan></text></g></g></g><g class="edgeLabel" transform="translate(241.8359375, 524.171875)"><g class="label" data-id="L_any_bcast_0" transform="translate(0, -10.5)"><g><rect class="background" style="" x="-13.546875" y="-1" width="27.09375" height="23"></rect><text y="-10.1" text-anchor="middle" style=""><tspan class="text-outer-tspan row" x="0" y="-0.1em" dy="1.1em" text-anchor="middle"><tspan font-style="normal" class="text-inner-tspan" font-weight="normal">yes</tspan></tspan></text></g></g></g><g class="edgeLabel"><g class="label" data-id="L_bcast_rs2_0" transform="translate(0, 0)"><text y="-10.1" text-anchor="middle"><tspan class="text-outer-tspan row" x="0" y="-0.1em" dy="1.1em" text-anchor="middle"></tspan></text></g></g><g><rect class="background" style="stroke: none"></rect></g><g class="edgeLabel"><g class="label" data-id="L_rs2_gather2_0" transform="translate(0, 0)"><text y="-10.1" text-anchor="middle"><tspan class="text-outer-tspan row" x="0" y="-0.1em" dy="1.1em" text-anchor="middle"></tspan></text></g></g><g><rect class="background" style="stroke: none"></rect></g><g class="edgeLabel"><g class="label" data-id="L_gather2_any2_0" transform="translate(0, 0)"><text y="-10.1" text-anchor="middle"><tspan class="text-outer-tspan row" x="0" y="-0.1em" dy="1.1em" text-anchor="middle"></tspan></text></g></g><g><rect class="background" style="stroke: none"></rect></g><g class="edgeLabel" transform="translate(316.2265625, 780.3718719482422)"><g class="label" data-id="L_any2_bcast_0" transform="translate(0, -10.5)"><g><rect class="background" style="" x="-13.546875" y="-1" width="27.09375" height="23"></rect><text y="-10.1" text-anchor="middle" style=""><tspan class="text-outer-tspan row" x="0" y="-0.1em" dy="1.1em" text-anchor="middle"><tspan font-style="normal" class="text-inner-tspan" font-weight="normal">yes</tspan></tspan></text></g></g></g><g class="edgeLabel" transform="translate(241.8359375, 1067.0593719482422)"><g class="label" data-id="L_any2_err_0" transform="translate(0, -10.5)"><g><rect class="background" style="" x="-10.6640625" y="-1" width="21.328125" height="23"></rect><text y="-10.1" text-anchor="middle" style=""><tspan class="text-outer-tspan row" x="0" y="-0.1em" dy="1.1em" text-anchor="middle"><tspan font-style="normal" class="text-inner-tspan" font-weight="normal">no</tspan></tspan></text></g></g></g><g class="edgeLabel" transform="translate(328.078125, 1279.3874969482422)"><g class="label" data-id="L_err_loop_0" transform="translate(0, -10.5)"><g><rect class="background" style="" x="-13.546875" y="-1" width="27.09375" height="23"></rect><text y="-10.1" text-anchor="middle" style=""><tspan class="text-outer-tspan row" x="0" y="-0.1em" dy="1.1em" text-anchor="middle"><tspan font-style="normal" class="text-inner-tspan" font-weight="normal">yes</tspan></tspan></text></g></g></g><g class="edgeLabel" transform="translate(108.38671875, 1375.5874977111816)"><g class="label" data-id="L_err_paint_0" transform="translate(0, -10.5)"><g><rect class="background" style="" x="-10.6640625" y="-1" width="21.328125" height="23"></rect><text y="-10.1" text-anchor="middle" style=""><tspan class="text-outer-tspan row" x="0" y="-0.1em" dy="1.1em" text-anchor="middle"><tspan font-style="normal" class="text-inner-tspan" font-weight="normal">no</tspan></tspan></text></g></g></g><g class="edgeLabel"><g class="label" data-id="L_loop_paint_0" transform="translate(0, 0)"><text y="-10.1" text-anchor="middle"><tspan class="text-outer-tspan row" x="0" y="-0.1em" dy="1.1em" text-anchor="middle"></tspan></text></g></g><g><rect class="background" style="stroke: none"></rect></g></g><g class="nodes"><g class="node default" id="g8ec05ef6-e769-45a7-8947-8d66342731a2-dark-flowchart-start-0" data-look="classic" transform="translate(167.4453125, 25)"><g class="basic label-container outer-path"><path d="M-73.53125 -17 C-34.997894619895604 -17, 3.5354607602087924 -17, 73.53125 -17 C73.53125 -17, 73.53125 -17, 73.53125 -17 C73.91944723379642 -16.987551270292226, 74.30764446759285 -16.97510254058445, 74.62044373967211 -16.965071676755716 C74.85323513085208 -16.942614571221192, 75.08602652203207 -16.92015746568667, 75.7051617486366 -16.860430234995185 C76.0713015350054 -16.801235593791528, 76.43744132137421 -16.74204095258787, 76.78094668792333 -16.686505668848113 C77.04574946293246 -16.626066163451874, 77.3105522379416 -16.56562665805564, 77.84337792646163 -16.4440126716635 C78.14202296195985 -16.355376392747406, 78.44066799745809 -16.266740113831315, 78.88808970640156 -16.133947699181366 C79.16001299966929 -16.03387741362747, 79.43193629293704 -15.933807128073575, 79.91078908294936 -15.757584874882369 C80.27771611181214 -15.5951571637084, 80.64464314067493 -15.432729452534431, 80.90727356499849 -15.316470754341125 C81.25707288265367 -15.133980674377568, 81.60687220030887 -14.95149059441401, 81.87344838406693 -14.812417970097622 C82.07340062527794 -14.691205746425712, 82.27335286648895 -14.569993522753805, 82.80534332057933 -14.247497783161291 C83.135992920938 -14.016850935541587, 83.46664252129668 -13.786204087921883, 83.69912901835067 -13.624031571755262 C83.87639423811028 -13.482667276222587, 84.05365945786988 -13.341302980689912, 84.5511327202324 -12.944581292275288 C84.83945292266463 -12.682736512960854, 85.12777312509688 -12.420891733646421, 85.35785336025927 -12.21193895166137 C85.65486091940602 -11.905254262068253, 85.95186847855275 -11.598569572475135, 86.11597595028036 -11.42911513444239 C86.36375821592789 -11.138055986002474, 86.61154048157542 -10.846996837562557, 86.82238520195651 -10.59932663159847 C86.96158144306928 -10.412816349545787, 87.10077768418206 -10.226306067493105, 87.47417832814824 -9.725983222076888 C87.67567381627642 -9.416432043197453, 87.8771693044046 -9.106880864318018, 88.06867697109088 -8.812673661278927 C88.17953416545029 -8.61583548718561, 88.2903913598097 -8.418997313092293, 88.603438208341 -7.863150934094199 C88.77937809062705 -7.497808004016822, 88.95531797291308 -7.132465073939444, 89.07626459126881 -6.881316833080699 C89.16525857248484 -6.661499978895507, 89.2542525537009 -6.441683124710314, 89.48521317484592 -5.871205925162238 C89.5631156602138 -5.636576051309643, 89.64101814558168 -5.401946177457047, 89.82860350162323 -4.836968972727556 C89.91818935508118 -4.495339286737883, 90.00777520853914 -4.1537096007482095, 90.105024507091 -3.7828558772573464 C90.15401329397945 -3.531308810368934, 90.2030020808679 -3.2797617434805213, 90.31334031804565 -2.713198215567453 C90.34696499279826 -2.452411878129181, 90.3805896675509 -2.191625540690909, 90.45269492013637 -1.632391440430593 C90.47054744625964 -1.3543239357608976, 90.48839997238292 -1.076256431091202, 90.5225156754117 -0.5448768187181379 C90.5225156754117 -0.16762440037883725, 90.5225156754117 0.20962801796046338, 90.5225156754117 0.5448768187181336 C90.4999700135551 0.8960437006654015, 90.47742435169849 1.2472105826126694, 90.45269492013637 1.6323914404305815 C90.40651516909078 1.9905524703168334, 90.3603354180452 2.3487135002030852, 90.31334031804565 2.7131982155674415 C90.26640142223893 2.9542195249958354, 90.2194625264322 3.19524083442423, 90.105024507091 3.782855877257343 C90.01476126113405 4.127068754429423, 89.92449801517712 4.471281631601504, 89.82860350162323 4.836968972727545 C89.72159600357023 5.159258507533731, 89.61458850551722 5.481548042339916, 89.48521317484592 5.871205925162227 C89.3884189197477 6.110289606644448, 89.29162466464948 6.349373288126671, 89.07626459126881 6.881316833080694 C88.9259384748505 7.193472230286942, 88.77561235843218 7.50562762749319, 88.603438208341 7.863150934094196 C88.40032033069483 8.22380729377041, 88.19720245304863 8.584463653446624, 88.06867697109088 8.812673661278923 C87.91090563272022 9.055052804552632, 87.75313429434955 9.29743194782634, 87.47417832814826 9.725983222076879 C87.32906090461223 9.920427349145884, 87.18394348107623 10.114871476214889, 86.82238520195651 10.599326631598467 C86.56922530088727 10.896702656600858, 86.31606539981802 11.194078681603248, 86.11597595028037 11.42911513444238 C85.93221426736903 11.61886415916309, 85.74845258445768 11.808613183883798, 85.35785336025927 12.211938951661365 C85.09782257921121 12.448092026971768, 84.83779179816314 12.68424510228217, 84.55113272023242 12.944581292275275 C84.34842729694539 13.106233473128823, 84.14572187365836 13.26788565398237, 83.69912901835067 13.62403157175526 C83.36844482564426 13.854702549499272, 83.03776063293785 14.085373527243284, 82.80534332057934 14.247497783161286 C82.5551031374885 14.399194852725502, 82.30486295439765 14.550891922289718, 81.87344838406695 14.81241797009762 C81.56451105236272 14.973590378163912, 81.25557372065848 15.134762786230207, 80.90727356499849 15.316470754341124 C80.57184404273269 15.464955453684942, 80.2364145204669 15.613440153028762, 79.91078908294936 15.757584874882367 C79.57683758868806 15.880482111784298, 79.24288609442677 16.00337934868623, 78.88808970640156 16.133947699181363 C78.64696908317819 16.20551103448608, 78.40584845995483 16.2770743697908, 77.84337792646164 16.444012671663497 C77.56938266564592 16.506550301958516, 77.29538740483018 16.56908793225353, 76.78094668792333 16.68650566884811 C76.52839898003322 16.72733562372306, 76.27585127214309 16.76816557859801, 75.70516174863661 16.86043023499518 C75.43880571863066 16.886125280869862, 75.1724496886247 16.911820326744543, 74.62044373967211 16.965071676755716 C74.35823771119632 16.97348011373586, 74.09603168272055 16.981888550716008, 73.53125 17 C73.53125 17, 73.53125 17, 73.53125 17 C17.41680159898703 17, -38.69764680202594 17, -73.53125 17 C-73.93619542238913 16.98701418848243, -74.34114084477825 16.974028376964856, -74.62044373967211 16.965071676755716 C-74.95225949566196 16.933061809842208, -75.28407525165181 16.901051942928696, -75.7051617486366 16.86043023499518 C-76.09165009523245 16.79794579637946, -76.47813844182829 16.735461357763732, -76.78094668792333 16.68650566884811 C-77.13175473253459 16.606436021902024, -77.48256277714584 16.526366374955934, -77.84337792646161 16.4440126716635 C-78.1274114278453 16.359713019375096, -78.41144492922899 16.27541336708669, -78.88808970640154 16.13394769918137 C-79.18191118403418 16.025818679356593, -79.47573266166683 15.917689659531817, -79.91078908294936 15.757584874882369 C-80.26408758250446 15.601190109356953, -80.61738608205957 15.444795343831537, -80.90727356499849 15.316470754341127 C-81.26550572488668 15.129581265986104, -81.62373788477488 14.94269177763108, -81.87344838406693 14.812417970097624 C-82.1165111040484 14.665071920849762, -82.35957382402988 14.5177258716019, -82.80534332057931 14.247497783161299 C-83.1208991365318 14.02737970614395, -83.4364549524843 13.8072616291266, -83.69912901835067 13.624031571755264 C-83.98840393497483 13.393342523676326, -84.27767885159898 13.16265347559739, -84.5511327202324 12.94458129227529 C-84.73717615080065 12.775621571072634, -84.9232195813689 12.606661849869978, -85.35785336025926 12.211938951661377 C-85.52802545417933 12.036222293300165, -85.69819754809939 11.860505634938953, -86.11597595028036 11.429115134442386 C-86.29116178248539 11.223331887578123, -86.4663476146904 11.01754864071386, -86.82238520195651 10.599326631598473 C-86.99520383379829 10.367765409031735, -87.16802246564006 10.136204186464996, -87.47417832814824 9.72598322207689 C-87.62000405517458 9.501955745673863, -87.76582978220091 9.277928269270834, -88.06867697109088 8.812673661278936 C-88.26405994290444 8.465751410152683, -88.45944291471801 8.11882915902643, -88.603438208341 7.863150934094201 C-88.77336261332526 7.5102992713445795, -88.9432870183095 7.157447608594959, -89.07626459126881 6.881316833080701 C-89.22899000309117 6.504082113134516, -89.38171541491353 6.1268473931883305, -89.48521317484592 5.87120592516224 C-89.55579681696436 5.6586192410776395, -89.62638045908281 5.446032556993038, -89.82860350162323 4.8369689727275516 C-89.93075347245761 4.447426861858686, -90.03290344329197 4.057884750989819, -90.105024507091 3.782855877257349 C-90.18352214041916 3.3797871205979577, -90.26201977374731 2.9767183639385664, -90.31334031804565 2.713198215567455 C-90.36620811581794 2.3031660159730385, -90.41907591359023 1.8931338163786218, -90.45269492013637 1.6323914404306026 C-90.47669974702575 1.2584968852810965, -90.50070457391512 0.8846023301315906, -90.5225156754117 0.54487681871814 C-90.5225156754117 0.24186152693435836, -90.5225156754117 -0.06115376484942325, -90.5225156754117 -0.5448768187181317 C-90.50011675159956 -0.8937581371779274, -90.47771782778743 -1.2426394556377232, -90.45269492013637 -1.6323914404305793 C-90.42318329210859 -1.8612777996839265, -90.39367166408081 -2.0901641589372737, -90.31334031804565 -2.713198215567447 C-90.26294440697528 -2.9719705677342043, -90.21254849590491 -3.230742919900962, -90.105024507091 -3.782855877257341 C-90.03770920462725 -4.039558300188264, -89.9703939021635 -4.296260723119188, -89.82860350162323 -4.836968972727544 C-89.74277649552761 -5.095466240411226, -89.65694948943197 -5.353963508094909, -89.48521317484594 -5.871205925162218 C-89.39719837307447 -6.088604187188161, -89.30918357130301 -6.3060024492141045, -89.07626459126881 -6.881316833080692 C-88.91475895303952 -7.2166867465308755, -88.75325331481024 -7.552056659981059, -88.603438208341 -7.863150934094194 C-88.41178038040843 -8.203458815048037, -88.22012255247584 -8.543766696001882, -88.06867697109088 -8.812673661278929 C-87.87868341287715 -9.104554787109125, -87.68868985466344 -9.396435912939321, -87.47417832814826 -9.725983222076884 C-87.307623709549 -9.94915123756197, -87.14106909094977 -10.172319253047055, -86.82238520195651 -10.599326631598467 C-86.67763887986284 -10.769353897828742, -86.53289255776917 -10.939381164059016, -86.11597595028037 -11.42911513444238 C-85.85321670282637 -11.700435630374052, -85.59045745537237 -11.971756126305724, -85.35785336025927 -12.21193895166136 C-85.13391231095503 -12.415316287483998, -84.90997126165078 -12.618693623306637, -84.55113272023242 -12.944581292275274 C-84.3694289140908 -13.08948524233185, -84.1877251079492 -13.234389192388429, -83.69912901835067 -13.624031571755259 C-83.48749726501313 -13.771656721492581, -83.27586551167559 -13.919281871229902, -82.80534332057934 -14.247497783161284 C-82.59580274578354 -14.374522510999595, -82.38626217098775 -14.501547238837908, -81.87344838406695 -14.812417970097618 C-81.49891704156151 -15.007810731583932, -81.12438569905606 -15.203203493070246, -80.90727356499849 -15.316470754341124 C-80.62262424760955 -15.442476563327213, -80.33797493022062 -15.568482372313303, -79.91078908294936 -15.757584874882365 C-79.57890974810012 -15.879719537965828, -79.24703041325087 -16.00185420104929, -78.88808970640156 -16.133947699181363 C-78.60372836178038 -16.21834465362177, -78.31936701715921 -16.302741608062178, -77.84337792646164 -16.444012671663494 C-77.60494900293844 -16.498432517563533, -77.36652007941524 -16.552852363463572, -76.78094668792333 -16.68650566884811 C-76.48547064240658 -16.734275944436302, -76.18999459688982 -16.782046220024498, -75.70516174863661 -16.86043023499518 C-75.28692036825421 -16.90077747795182, -74.86867898787182 -16.941124720908455, -74.62044373967213 -16.965071676755716 C-74.24932427854489 -16.976972755533858, -73.87820481741767 -16.988873834312, -73.53125 -17 C-73.53125 -17, -73.53125 -17, -73.53125 -17" stroke="none" stroke-width="0" fill="#2d2d2d" style=""></path><path d="M-73.53125 -17 C-27.77775755041614 -17, 17.97573489916772 -17, 73.53125 -17 M-73.53125 -17 C-26.070124663111983 -17, 21.391000673776034 -17, 73.53125 -17 M73.53125 -17 C73.53125 -17, 73.53125 -17, 73.53125 -17 M73.53125 -17 C73.53125 -17, 73.53125 -17, 73.53125 -17 M73.53125 -17 C73.75282977722448 -16.992894367823283, 73.97440955444895 -16.985788735646565, 74.62044373967211 -16.965071676755716 M73.53125 -17 C73.78035657157452 -16.99201163710613, 74.02946314314904 -16.984023274212262, 74.62044373967211 -16.965071676755716 M74.62044373967211 -16.965071676755716 C75.00774603896025 -16.927709089742553, 75.39504833824837 -16.890346502729393, 75.7051617486366 -16.860430234995185 M74.62044373967211 -16.965071676755716 C74.86918912019487 -16.941075509056773, 75.11793450071764 -16.917079341357834, 75.7051617486366 -16.860430234995185 M75.7051617486366 -16.860430234995185 C76.07657969641069 -16.800382261588275, 76.44799764418478 -16.740334288181366, 76.78094668792333 -16.686505668848113 M75.7051617486366 -16.860430234995185 C75.97700307567193 -16.81648103740109, 76.24884440270726 -16.772531839806994, 76.78094668792333 -16.686505668848113 M76.78094668792333 -16.686505668848113 C77.16955166828835 -16.597809117964285, 77.55815664865337 -16.509112567080457, 77.84337792646163 -16.4440126716635 M76.78094668792333 -16.686505668848113 C77.01949831312758 -16.63205781709008, 77.25804993833184 -16.57760996533204, 77.84337792646163 -16.4440126716635 M77.84337792646163 -16.4440126716635 C78.1034100199445 -16.366836511254096, 78.36344211342738 -16.289660350844688, 78.88808970640156 -16.133947699181366 M77.84337792646163 -16.4440126716635 C78.174346854617 -16.345782831078342, 78.50531578277237 -16.247552990493183, 78.88808970640156 -16.133947699181366 M78.88808970640156 -16.133947699181366 C79.23101235857155 -16.00774899324056, 79.57393501074154 -15.88155028729976, 79.91078908294936 -15.757584874882369 M78.88808970640156 -16.133947699181366 C79.14260209003994 -16.040284789315756, 79.39711447367833 -15.946621879450147, 79.91078908294936 -15.757584874882369 M79.91078908294936 -15.757584874882369 C80.12586321471407 -15.662377936697574, 80.34093734647877 -15.567170998512779, 80.90727356499849 -15.316470754341125 M79.91078908294936 -15.757584874882369 C80.1221696498138 -15.664012968313214, 80.33355021667823 -15.57044106174406, 80.90727356499849 -15.316470754341125 M80.90727356499849 -15.316470754341125 C81.11006813883768 -15.210672955065345, 81.31286271267686 -15.104875155789564, 81.87344838406693 -14.812417970097622 M80.90727356499849 -15.316470754341125 C81.26417594789825 -15.130275009789203, 81.62107833079801 -14.944079265237283, 81.87344838406693 -14.812417970097622 M81.87344838406693 -14.812417970097622 C82.07365726791615 -14.691050168150232, 82.27386615176536 -14.569682366202843, 82.80534332057933 -14.247497783161291 M81.87344838406693 -14.812417970097622 C82.15135511429503 -14.643949277072123, 82.42926184452314 -14.475480584046624, 82.80534332057933 -14.247497783161291 M82.80534332057933 -14.247497783161291 C83.06006081818705 -14.069817883372899, 83.31477831579477 -13.892137983584506, 83.69912901835067 -13.624031571755262 M82.80534332057933 -14.247497783161291 C83.1355622142319 -14.01715137789477, 83.46578110788447 -13.786804972628248, 83.69912901835067 -13.624031571755262 M83.69912901835067 -13.624031571755262 C84.03097248667905 -13.359395236488941, 84.36281595500743 -13.094758901222619, 84.5511327202324 -12.944581292275288 M83.69912901835067 -13.624031571755262 C84.00260817810617 -13.382015017769863, 84.30608733786167 -13.139998463784462, 84.5511327202324 -12.944581292275288 M84.5511327202324 -12.944581292275288 C84.79423615631121 -12.723801183792954, 85.03733959239004 -12.50302107531062, 85.35785336025927 -12.21193895166137 M84.5511327202324 -12.944581292275288 C84.7187666268609 -12.792340613625402, 84.88640053348941 -12.640099934975517, 85.35785336025927 -12.21193895166137 M85.35785336025927 -12.21193895166137 C85.52169045237679 -12.042763702774613, 85.6855275444943 -11.873588453887855, 86.11597595028036 -11.42911513444239 M85.35785336025927 -12.21193895166137 C85.55328344109692 -12.01014134808846, 85.74871352193458 -11.808343744515549, 86.11597595028036 -11.42911513444239 M86.11597595028036 -11.42911513444239 C86.37873822836602 -11.120459611005789, 86.64150050645168 -10.81180408756919, 86.82238520195651 -10.59932663159847 M86.11597595028036 -11.42911513444239 C86.31294058847918 -11.197749262808648, 86.509905226678 -10.966383391174906, 86.82238520195651 -10.59932663159847 M86.82238520195651 -10.59932663159847 C86.96622830632472 -10.40658997612145, 87.11007141069294 -10.213853320644429, 87.47417832814824 -9.725983222076888 M86.82238520195651 -10.59932663159847 C86.95691880354907 -10.419063861727667, 87.09145240514164 -10.238801091856864, 87.47417832814824 -9.725983222076888 M87.47417832814824 -9.725983222076888 C87.6268622777642 -9.491419674085563, 87.77954622738017 -9.256856126094238, 88.06867697109088 -8.812673661278927 M87.47417832814824 -9.725983222076888 C87.66998643720426 -9.425169384727422, 87.86579454626026 -9.124355547377956, 88.06867697109088 -8.812673661278927 M88.06867697109088 -8.812673661278927 C88.220099625078 -8.543807405918407, 88.37152227906512 -8.274941150557886, 88.603438208341 -7.863150934094199 M88.06867697109088 -8.812673661278927 C88.19936827693189 -8.58061801382847, 88.33005958277289 -8.348562366378015, 88.603438208341 -7.863150934094199 M88.603438208341 -7.863150934094199 C88.77339876012627 -7.510224211738845, 88.94335931191154 -7.15729748938349, 89.07626459126881 -6.881316833080699 M88.603438208341 -7.863150934094199 C88.75404254444169 -7.5504178077645605, 88.90464688054237 -7.237684681434921, 89.07626459126881 -6.881316833080699 M89.07626459126881 -6.881316833080699 C89.17526361363146 -6.63678733382907, 89.2742626359941 -6.392257834577442, 89.48521317484592 -5.871205925162238 M89.07626459126881 -6.881316833080699 C89.17730471536713 -6.631745773079956, 89.27834483946543 -6.382174713079214, 89.48521317484592 -5.871205925162238 M89.48521317484592 -5.871205925162238 C89.60815607810368 -5.500921488841385, 89.73109898136143 -5.130637052520533, 89.82860350162323 -4.836968972727556 M89.48521317484592 -5.871205925162238 C89.6110934513135 -5.492074588740282, 89.73697372778106 -5.112943252318326, 89.82860350162323 -4.836968972727556 M89.82860350162323 -4.836968972727556 C89.92933379952312 -4.452840690048035, 90.030064097423 -4.068712407368514, 90.105024507091 -3.7828558772573464 M89.82860350162323 -4.836968972727556 C89.88494734709509 -4.622105470366257, 89.94129119256695 -4.40724196800496, 90.105024507091 -3.7828558772573464 M90.105024507091 -3.7828558772573464 C90.17594037519028 -3.418717882641589, 90.24685624328956 -3.0545798880258324, 90.31334031804565 -2.713198215567453 M90.105024507091 -3.7828558772573464 C90.16885661307327 -3.4550915039587466, 90.23268871905555 -3.127327130660147, 90.31334031804565 -2.713198215567453 M90.31334031804565 -2.713198215567453 C90.3661899341326 -2.3033070295341687, 90.41903955021955 -1.8934158435008848, 90.45269492013637 -1.632391440430593 M90.31334031804565 -2.713198215567453 C90.35094385023059 -2.421552645598381, 90.38854738241552 -2.129907075629309, 90.45269492013637 -1.632391440430593 M90.45269492013637 -1.632391440430593 C90.47364513386678 -1.3060749508712712, 90.4945953475972 -0.9797584613119492, 90.5225156754117 -0.5448768187181379 M90.45269492013637 -1.632391440430593 C90.4800073526854 -1.20697825728057, 90.50731978523444 -0.7815650741305469, 90.5225156754117 -0.5448768187181379 M90.5225156754117 -0.5448768187181379 C90.5225156754117 -0.32535673904332263, 90.5225156754117 -0.10583665936850739, 90.5225156754117 0.5448768187181336 M90.5225156754117 -0.5448768187181379 C90.5225156754117 -0.14243726039243515, 90.5225156754117 0.26000229793326757, 90.5225156754117 0.5448768187181336 M90.5225156754117 0.5448768187181336 C90.50146825938467 0.8727073125074845, 90.48042084335765 1.2005378062968353, 90.45269492013637 1.6323914404305815 M90.5225156754117 0.5448768187181336 C90.49762874978144 0.9325107737742215, 90.47274182415117 1.3201447288303094, 90.45269492013637 1.6323914404305815 M90.45269492013637 1.6323914404305815 C90.41263387742666 1.9430969767394606, 90.37257283471693 2.2538025130483392, 90.31334031804565 2.7131982155674415 M90.45269492013637 1.6323914404305815 C90.40164037948233 2.028360375883928, 90.35058583882828 2.4243293113372753, 90.31334031804565 2.7131982155674415 M90.31334031804565 2.7131982155674415 C90.23522908722684 3.114282877007512, 90.15711785640805 3.515367538447583, 90.105024507091 3.782855877257343 M90.31334031804565 2.7131982155674415 C90.24150614409672 3.082051516637178, 90.16967197014779 3.450904817706914, 90.105024507091 3.782855877257343 M90.105024507091 3.782855877257343 C89.99532223903987 4.201198170600045, 89.88561997098874 4.619540463942746, 89.82860350162323 4.836968972727545 M90.105024507091 3.782855877257343 C90.02539999106236 4.08649866635813, 89.9457754750337 4.390141455458917, 89.82860350162323 4.836968972727545 M89.82860350162323 4.836968972727545 C89.71505845244721 5.178948569898945, 89.60151340327118 5.520928167070345, 89.48521317484592 5.871205925162227 M89.82860350162323 4.836968972727545 C89.72677041806625 5.143673995502708, 89.62493733450926 5.4503790182778715, 89.48521317484592 5.871205925162227 M89.48521317484592 5.871205925162227 C89.34582540102093 6.2154964213892345, 89.20643762719594 6.5597869176162416, 89.07626459126881 6.881316833080694 M89.48521317484592 5.871205925162227 C89.32584812227677 6.26484068612172, 89.16648306970762 6.658475447081213, 89.07626459126881 6.881316833080694 M89.07626459126881 6.881316833080694 C88.91241148805635 7.221561307796135, 88.7485583848439 7.561805782511575, 88.603438208341 7.863150934094196 M89.07626459126881 6.881316833080694 C88.91924544480634 7.2073704503815375, 88.76222629834388 7.533424067682381, 88.603438208341 7.863150934094196 M88.603438208341 7.863150934094196 C88.41537630356531 8.197073889356293, 88.2273143987896 8.530996844618391, 88.06867697109088 8.812673661278923 M88.603438208341 7.863150934094196 C88.47294048186421 8.094862861781442, 88.34244275538744 8.326574789468687, 88.06867697109088 8.812673661278923 M88.06867697109088 8.812673661278923 C87.84847654493582 9.150960647946807, 87.62827611878075 9.48924763461469, 87.47417832814826 9.725983222076879 M88.06867697109088 8.812673661278923 C87.91950042162536 9.041848900770358, 87.77032387215984 9.271024140261794, 87.47417832814826 9.725983222076879 M87.47417832814826 9.725983222076879 C87.2365628337378 10.044366337370002, 86.99894733932737 10.362749452663127, 86.82238520195651 10.599326631598467 M87.47417832814826 9.725983222076879 C87.22716609380925 10.056957112813663, 86.98015385947024 10.387931003550447, 86.82238520195651 10.599326631598467 M86.82238520195651 10.599326631598467 C86.59042464369769 10.871800702258955, 86.35846408543887 11.144274772919442, 86.11597595028037 11.42911513444238 M86.82238520195651 10.599326631598467 C86.6741640141872 10.773435672776808, 86.52594282641789 10.947544713955146, 86.11597595028037 11.42911513444238 M86.11597595028037 11.42911513444238 C85.83702349987432 11.717156441908731, 85.55807104946827 12.005197749375084, 85.35785336025927 12.211938951661365 M86.11597595028037 11.42911513444238 C85.90990784771485 11.641897368847143, 85.70383974514932 11.854679603251908, 85.35785336025927 12.211938951661365 M85.35785336025927 12.211938951661365 C85.04199397647304 12.498794086834693, 84.72613459268679 12.78564922200802, 84.55113272023242 12.944581292275275 M85.35785336025927 12.211938951661365 C85.10308243652922 12.443315163723742, 84.84831151279917 12.67469137578612, 84.55113272023242 12.944581292275275 M84.55113272023242 12.944581292275275 C84.2466693296314 13.187382744168497, 83.94220593903037 13.430184196061719, 83.69912901835067 13.62403157175526 M84.55113272023242 12.944581292275275 C84.25537620622246 13.180439241786836, 83.95961969221251 13.416297191298398, 83.69912901835067 13.62403157175526 M83.69912901835067 13.62403157175526 C83.37923263458715 13.847177440977429, 83.05933625082365 14.070323310199598, 82.80534332057934 14.247497783161286 M83.69912901835067 13.62403157175526 C83.36240033646044 13.858918923492187, 83.0256716545702 14.093806275229113, 82.80534332057934 14.247497783161286 M82.80534332057934 14.247497783161286 C82.52980550715813 14.41453042489715, 82.25426769373692 14.581563066633011, 81.87344838406695 14.81241797009762 M82.80534332057934 14.247497783161286 C82.48555193971356 14.44135719754488, 82.16576055884777 14.635216611928472, 81.87344838406695 14.81241797009762 M81.87344838406695 14.81241797009762 C81.53285380437632 14.990105944160979, 81.1922592246857 15.167793918224337, 80.90727356499849 15.316470754341124 M81.87344838406695 14.81241797009762 C81.63436779782968 14.937146158799173, 81.39528721159243 15.061874347500726, 80.90727356499849 15.316470754341124 M80.90727356499849 15.316470754341124 C80.68385395936234 15.415371986249124, 80.46043435372619 15.514273218157124, 79.91078908294936 15.757584874882367 M80.90727356499849 15.316470754341124 C80.65395316218856 15.42860818218232, 80.40063275937862 15.540745610023517, 79.91078908294936 15.757584874882367 M79.91078908294936 15.757584874882367 C79.62340894151042 15.863343423444807, 79.33602880007146 15.969101972007248, 78.88808970640156 16.133947699181363 M79.91078908294936 15.757584874882367 C79.6535663135764 15.85224523175283, 79.39634354420345 15.946905588623295, 78.88808970640156 16.133947699181363 M78.88808970640156 16.133947699181363 C78.50631692597821 16.247255856444795, 78.12454414555486 16.360564013708228, 77.84337792646164 16.444012671663497 M78.88808970640156 16.133947699181363 C78.50279843682301 16.248300125557133, 78.11750716724447 16.3626525519329, 77.84337792646164 16.444012671663497 M77.84337792646164 16.444012671663497 C77.54556561197464 16.51198638903818, 77.24775329748763 16.57996010641287, 76.78094668792333 16.68650566884811 M77.84337792646164 16.444012671663497 C77.43531259176449 16.537150921432954, 77.02724725706734 16.63028917120241, 76.78094668792333 16.68650566884811 M76.78094668792333 16.68650566884811 C76.41555086484045 16.74558003183722, 76.05015504175758 16.804654394826333, 75.70516174863661 16.86043023499518 M76.78094668792333 16.68650566884811 C76.5327150094169 16.726637841563612, 76.28448333091049 16.76677001427911, 75.70516174863661 16.86043023499518 M75.70516174863661 16.86043023499518 C75.44763311094644 16.88527371294965, 75.19010447325627 16.91011719090412, 74.62044373967211 16.965071676755716 M75.70516174863661 16.86043023499518 C75.28057894082932 16.901389227828815, 74.855996133022 16.942348220662453, 74.62044373967211 16.965071676755716 M74.62044373967211 16.965071676755716 C74.21254756566044 16.978152113134534, 73.80465139164878 16.99123254951335, 73.53125 17 M74.62044373967211 16.965071676755716 C74.34388775005752 16.97394028905908, 74.06733176044293 16.982808901362443, 73.53125 17 M73.53125 17 C73.53125 17, 73.53125 17, 73.53125 17 M73.53125 17 C73.53125 17, 73.53125 17, 73.53125 17 M73.53125 17 C20.3263434055278 17, -32.8785631889444 17, -73.53125 17 M73.53125 17 C42.105852173571435 17, 10.68045434714287 17, -73.53125 17 M-73.53125 17 C-73.96453720256706 16.98610532275605, -74.39782440513412 16.972210645512103, -74.62044373967211 16.965071676755716 M-73.53125 17 C-73.93235311806663 16.98713740370346, -74.33345623613326 16.974274807406918, -74.62044373967211 16.965071676755716 M-74.62044373967211 16.965071676755716 C-75.02550530429359 16.925995874774486, -75.43056686891507 16.88692007279326, -75.7051617486366 16.86043023499518 M-74.62044373967211 16.965071676755716 C-75.03900728891534 16.92469335455654, -75.45757083815859 16.88431503235736, -75.7051617486366 16.86043023499518 M-75.7051617486366 16.86043023499518 C-76.02755706240961 16.80830786087736, -76.34995237618263 16.75618548675954, -76.78094668792333 16.68650566884811 M-75.7051617486366 16.86043023499518 C-75.99154310909533 16.814130317556835, -76.27792446955405 16.767830400118488, -76.78094668792333 16.68650566884811 M-76.78094668792333 16.68650566884811 C-77.04927083789993 16.625262432594667, -77.31759498787652 16.564019196341228, -77.84337792646161 16.4440126716635 M-76.78094668792333 16.68650566884811 C-77.03737426347513 16.627977748074724, -77.29380183902693 16.569449827301337, -77.84337792646161 16.4440126716635 M-77.84337792646161 16.4440126716635 C-78.24855217323943 16.323759082022868, -78.65372642001725 16.203505492382234, -78.88808970640154 16.13394769918137 M-77.84337792646161 16.4440126716635 C-78.07614965145896 16.374927245528006, -78.30892137645631 16.305841819392512, -78.88808970640154 16.13394769918137 M-78.88808970640154 16.13394769918137 C-79.11724729178866 16.049615589449413, -79.34640487717579 15.965283479717455, -79.91078908294936 15.757584874882369 M-78.88808970640154 16.13394769918137 C-79.267860067123 15.994188695877147, -79.64763042784443 15.854429692572923, -79.91078908294936 15.757584874882369 M-79.91078908294936 15.757584874882369 C-80.30432466698515 15.583378345648054, -80.69786025102096 15.409171816413737, -80.90727356499849 15.316470754341127 M-79.91078908294936 15.757584874882369 C-80.23458146744576 15.614251591225631, -80.55837385194218 15.470918307568894, -80.90727356499849 15.316470754341127 M-80.90727356499849 15.316470754341127 C-81.28749596033659 15.11810897423731, -81.66771835567467 14.919747194133496, -81.87344838406693 14.812417970097624 M-80.90727356499849 15.316470754341127 C-81.10984379955158 15.210789992727205, -81.31241403410468 15.105109231113286, -81.87344838406693 14.812417970097624 M-81.87344838406693 14.812417970097624 C-82.12745732668168 14.658436256362329, -82.38146626929642 14.504454542627034, -82.80534332057931 14.247497783161299 M-81.87344838406693 14.812417970097624 C-82.08401305009261 14.684772432137526, -82.2945777161183 14.55712689417743, -82.80534332057931 14.247497783161299 M-82.80534332057931 14.247497783161299 C-83.07714956752626 14.057897511593902, -83.3489558144732 13.868297240026505, -83.69912901835067 13.624031571755264 M-82.80534332057931 14.247497783161299 C-83.02509346402302 14.094209595925358, -83.24484360746673 13.940921408689418, -83.69912901835067 13.624031571755264 M-83.69912901835067 13.624031571755264 C-83.89027271174136 13.471599562823501, -84.08141640513203 13.319167553891736, -84.5511327202324 12.94458129227529 M-83.69912901835067 13.624031571755264 C-84.00820812485782 13.37754920925627, -84.31728723136496 13.131066846757275, -84.5511327202324 12.94458129227529 M-84.5511327202324 12.94458129227529 C-84.85287500385567 12.670546933951972, -85.15461728747893 12.396512575628655, -85.35785336025926 12.211938951661377 M-84.5511327202324 12.94458129227529 C-84.86282240769485 12.661512964979106, -85.1745120951573 12.378444637682925, -85.35785336025926 12.211938951661377 M-85.35785336025926 12.211938951661377 C-85.52196621981237 12.042478950256433, -85.6860790793655 11.873018948851488, -86.11597595028036 11.429115134442386 M-85.35785336025926 12.211938951661377 C-85.5312707272805 12.032871282381324, -85.70468809430174 11.853803613101272, -86.11597595028036 11.429115134442386 M-86.11597595028036 11.429115134442386 C-86.39304622036155 11.103652629460019, -86.67011649044277 10.778190124477653, -86.82238520195651 10.599326631598473 M-86.11597595028036 11.429115134442386 C-86.29759825966576 11.215771235236131, -86.47922056905115 11.002427336029875, -86.82238520195651 10.599326631598473 M-86.82238520195651 10.599326631598473 C-87.06113743242648 10.279420393544367, -87.29988966289643 9.959514155490261, -87.47417832814824 9.72598322207689 M-86.82238520195651 10.599326631598473 C-87.0594161005376 10.281726821458898, -87.29644699911869 9.964127011319322, -87.47417832814824 9.72598322207689 M-87.47417832814824 9.72598322207689 C-87.62943555218915 9.487466433547919, -87.78469277623006 9.248949645018948, -88.06867697109088 8.812673661278936 M-87.47417832814824 9.72598322207689 C-87.63025905388395 9.486201313803543, -87.78633977961965 9.246419405530197, -88.06867697109088 8.812673661278936 M-88.06867697109088 8.812673661278936 C-88.25297513182595 8.485433614681396, -88.437273292561 8.158193568083856, -88.603438208341 7.863150934094201 M-88.06867697109088 8.812673661278936 C-88.2053519980912 8.569993310992645, -88.34202702509153 8.327312960706355, -88.603438208341 7.863150934094201 M-88.603438208341 7.863150934094201 C-88.75979400905088 7.538474768441959, -88.91614980976074 7.2137986027897165, -89.07626459126881 6.881316833080701 M-88.603438208341 7.863150934094201 C-88.77101191888553 7.515180538645462, -88.93858562943007 7.167210143196724, -89.07626459126881 6.881316833080701 M-89.07626459126881 6.881316833080701 C-89.18767349547124 6.606134685756067, -89.29908239967367 6.330952538431434, -89.48521317484592 5.87120592516224 M-89.07626459126881 6.881316833080701 C-89.21940809295913 6.527749616414276, -89.36255159464945 6.174182399747852, -89.48521317484592 5.87120592516224 M-89.48521317484592 5.87120592516224 C-89.60672713026374 5.50522525206337, -89.72824108568155 5.139244578964502, -89.82860350162323 4.8369689727275516 M-89.48521317484592 5.87120592516224 C-89.56521324699682 5.630258454124283, -89.6452133191477 5.389310983086325, -89.82860350162323 4.8369689727275516 M-89.82860350162323 4.8369689727275516 C-89.90725207409064 4.5370478794024445, -89.98590064655802 4.237126786077338, -90.105024507091 3.782855877257349 M-89.82860350162323 4.8369689727275516 C-89.93380777832616 4.435779469837346, -90.03901205502909 4.0345899669471414, -90.105024507091 3.782855877257349 M-90.105024507091 3.782855877257349 C-90.14814498451838 3.561441339183915, -90.19126546194575 3.3400268011104806, -90.31334031804565 2.713198215567455 M-90.105024507091 3.782855877257349 C-90.1475776565798 3.564354448243724, -90.19013080606858 3.3458530192300993, -90.31334031804565 2.713198215567455 M-90.31334031804565 2.713198215567455 C-90.34263594206601 2.485987140740845, -90.37193156608636 2.258776065914235, -90.45269492013637 1.6323914404306026 M-90.31334031804565 2.713198215567455 C-90.3609482084893 2.3439608185278242, -90.40855609893295 1.9747234214881932, -90.45269492013637 1.6323914404306026 M-90.45269492013637 1.6323914404306026 C-90.47891657657911 1.2239679755947592, -90.50513823302185 0.8155445107589157, -90.5225156754117 0.54487681871814 M-90.45269492013637 1.6323914404306026 C-90.46934282434025 1.3730868945088854, -90.48599072854411 1.1137823485871685, -90.5225156754117 0.54487681871814 M-90.5225156754117 0.54487681871814 C-90.5225156754117 0.14003742856480528, -90.5225156754117 -0.2648019615885294, -90.5225156754117 -0.5448768187181317 M-90.5225156754117 0.54487681871814 C-90.5225156754117 0.2961041622750867, -90.5225156754117 0.04733150583203338, -90.5225156754117 -0.5448768187181317 M-90.5225156754117 -0.5448768187181317 C-90.49949772306765 -0.9034000062333569, -90.4764797707236 -1.2619231937485824, -90.45269492013637 -1.6323914404305793 M-90.5225156754117 -0.5448768187181317 C-90.49653098246849 -0.9496093857752914, -90.47054628952527 -1.3543419528324512, -90.45269492013637 -1.6323914404305793 M-90.45269492013637 -1.6323914404305793 C-90.39740076462958 -2.0612419914752227, -90.34210660912278 -2.490092542519866, -90.31334031804565 -2.713198215567447 M-90.45269492013637 -1.6323914404305793 C-90.41220850210706 -1.9463961037182849, -90.37172208407777 -2.2604007670059905, -90.31334031804565 -2.713198215567447 M-90.31334031804565 -2.713198215567447 C-90.25516365953683 -3.0119230613690746, -90.19698700102802 -3.310647907170702, -90.105024507091 -3.782855877257341 M-90.31334031804565 -2.713198215567447 C-90.23776402750076 -3.101266494460793, -90.16218773695587 -3.4893347733541393, -90.105024507091 -3.782855877257341 M-90.105024507091 -3.782855877257341 C-90.00172840850323 -4.176768669984854, -89.89843230991545 -4.570681462712368, -89.82860350162323 -4.836968972727544 M-90.105024507091 -3.782855877257341 C-90.03798285482664 -4.038514753377253, -89.97094120256227 -4.294173629497166, -89.82860350162323 -4.836968972727544 M-89.82860350162323 -4.836968972727544 C-89.70816335276628 -5.1997155115529825, -89.58772320390932 -5.5624620503784215, -89.48521317484594 -5.871205925162218 M-89.82860350162323 -4.836968972727544 C-89.6924119543362 -5.247156213979852, -89.55622040704917 -5.65734345523216, -89.48521317484594 -5.871205925162218 M-89.48521317484594 -5.871205925162218 C-89.39693080750813 -6.089265079310067, -89.30864844017032 -6.307324233457916, -89.07626459126881 -6.881316833080692 M-89.48521317484594 -5.871205925162218 C-89.35352966255132 -6.196466746457423, -89.22184615025671 -6.521727567752629, -89.07626459126881 -6.881316833080692 M-89.07626459126881 -6.881316833080692 C-88.8913881171839 -7.265216787240868, -88.70651164309898 -7.649116741401044, -88.603438208341 -7.863150934094194 M-89.07626459126881 -6.881316833080692 C-88.94563761693686 -7.152566540250477, -88.81501064260493 -7.423816247420261, -88.603438208341 -7.863150934094194 M-88.603438208341 -7.863150934094194 C-88.41571743848858 -8.196468169756344, -88.22799666863618 -8.529785405418492, -88.06867697109088 -8.812673661278929 M-88.603438208341 -7.863150934094194 C-88.3895773596864 -8.24288252663963, -88.17571651103181 -8.622614119185064, -88.06867697109088 -8.812673661278929 M-88.06867697109088 -8.812673661278929 C-87.9387180801731 -9.012325416577138, -87.80875918925534 -9.211977171875347, -87.47417832814826 -9.725983222076884 M-88.06867697109088 -8.812673661278929 C-87.83717856482876 -9.168317379323696, -87.60568015856664 -9.523961097368462, -87.47417832814826 -9.725983222076884 M-87.47417832814826 -9.725983222076884 C-87.31810866036714 -9.935102358664338, -87.16203899258603 -10.144221495251792, -86.82238520195651 -10.599326631598467 M-87.47417832814826 -9.725983222076884 C-87.30281948119462 -9.955588465882645, -87.13146063424098 -10.185193709688406, -86.82238520195651 -10.599326631598467 M-86.82238520195651 -10.599326631598467 C-86.60981235029158 -10.849026798902008, -86.39723949862666 -11.098726966205549, -86.11597595028037 -11.42911513444238 M-86.82238520195651 -10.599326631598467 C-86.65893763352044 -10.791321445913585, -86.49549006508438 -10.983316260228701, -86.11597595028037 -11.42911513444238 M-86.11597595028037 -11.42911513444238 C-85.83734648770519 -11.716822930455564, -85.55871702513001 -12.004530726468747, -85.35785336025927 -12.21193895166136 M-86.11597595028037 -11.42911513444238 C-85.85659105186714 -11.696951337950246, -85.59720615345391 -11.964787541458112, -85.35785336025927 -12.21193895166136 M-85.35785336025927 -12.21193895166136 C-85.19167853903988 -12.362854527547968, -85.02550371782051 -12.513770103434577, -84.55113272023242 -12.944581292275274 M-85.35785336025927 -12.21193895166136 C-85.19057126409571 -12.36386012535538, -85.02328916793215 -12.5157812990494, -84.55113272023242 -12.944581292275274 M-84.55113272023242 -12.944581292275274 C-84.36745669803557 -13.091058032153029, -84.18378067583873 -13.237534772030784, -83.69912901835067 -13.624031571755259 M-84.55113272023242 -12.944581292275274 C-84.23177568812538 -13.199260026933095, -83.91241865601836 -13.453938761590914, -83.69912901835067 -13.624031571755259 M-83.69912901835067 -13.624031571755259 C-83.39223353829149 -13.838108573353335, -83.08533805823231 -14.05218557495141, -82.80534332057934 -14.247497783161284 M-83.69912901835067 -13.624031571755259 C-83.44480202809801 -13.801439070517551, -83.19047503784536 -13.978846569279844, -82.80534332057934 -14.247497783161284 M-82.80534332057934 -14.247497783161284 C-82.5694491684212 -14.390498204467457, -82.33355501626306 -14.53349862577363, -81.87344838406695 -14.812417970097618 M-82.80534332057934 -14.247497783161284 C-82.47860758344174 -14.445566907126416, -82.15187184630415 -14.643636031091548, -81.87344838406695 -14.812417970097618 M-81.87344838406695 -14.812417970097618 C-81.55481670898027 -14.978647910897012, -81.23618503389358 -15.144877851696405, -80.90727356499849 -15.316470754341124 M-81.87344838406695 -14.812417970097618 C-81.5766828911986 -14.967240337639666, -81.27991739833024 -15.122062705181714, -80.90727356499849 -15.316470754341124 M-80.90727356499849 -15.316470754341124 C-80.56458413560803 -15.468169199211538, -80.22189470621757 -15.61986764408195, -79.91078908294936 -15.757584874882365 M-80.90727356499849 -15.316470754341124 C-80.6805661333907 -15.416827409276877, -80.4538587017829 -15.517184064212628, -79.91078908294936 -15.757584874882365 M-79.91078908294936 -15.757584874882365 C-79.58736866596514 -15.876606577998121, -79.26394824898091 -15.995628281113879, -78.88808970640156 -16.133947699181363 M-79.91078908294936 -15.757584874882365 C-79.59728595468485 -15.872956924074856, -79.28378282642034 -15.988328973267349, -78.88808970640156 -16.133947699181363 M-78.88808970640156 -16.133947699181363 C-78.67595927649583 -16.196906897282034, -78.4638288465901 -16.259866095382705, -77.84337792646164 -16.444012671663494 M-78.88808970640156 -16.133947699181363 C-78.58307828873892 -16.22447348690603, -78.27806687107629 -16.314999274630697, -77.84337792646164 -16.444012671663494 M-77.84337792646164 -16.444012671663494 C-77.51502267412118 -16.518957615291935, -77.18666742178073 -16.593902558920377, -76.78094668792333 -16.68650566884811 M-77.84337792646164 -16.444012671663494 C-77.56746702400805 -16.506987534661622, -77.29155612155448 -16.56996239765975, -76.78094668792333 -16.68650566884811 M-76.78094668792333 -16.68650566884811 C-76.46150655063465 -16.73815027294968, -76.14206641334597 -16.78979487705125, -75.70516174863661 -16.86043023499518 M-76.78094668792333 -16.68650566884811 C-76.41513672402016 -16.745646986913336, -76.04932676011698 -16.804788304978562, -75.70516174863661 -16.86043023499518 M-75.70516174863661 -16.86043023499518 C-75.35259452409493 -16.894441971122593, -75.00002729955325 -16.928453707250004, -74.62044373967213 -16.965071676755716 M-75.70516174863661 -16.86043023499518 C-75.39754678606974 -16.890105480472887, -75.08993182350287 -16.919780725950595, -74.62044373967213 -16.965071676755716 M-74.62044373967213 -16.965071676755716 C-74.21946804604232 -16.977930186798584, -73.8184923524125 -16.990788696841452, -73.53125 -17 M-74.62044373967213 -16.965071676755716 C-74.2571154152051 -16.976722908945693, -73.89378709073809 -16.98837414113567, -73.53125 -17 M-73.53125 -17 C-73.53125 -17, -73.53125 -17, -73.53125 -17 M-73.53125 -17 C-73.53125 -17, -73.53125 -17, -73.53125 -17" stroke="#555555" stroke-width="1.3" fill="none" stroke-dasharray="0 0" style=""></path></g><g class="label" style="" transform="translate(0, -9.5)"><rect></rect><g><rect class="background" style="stroke: none"></rect><text y="-10.1" style=""><tspan class="text-outer-tspan row" x="0" y="-0.1em" dy="1.1em"><tspan font-style="normal" class="text-inner-tspan" font-weight="normal">rendering</tspan><tspan font-style="normal" class="text-inner-tspan" font-weight="normal"> opportunity</tspan></tspan></text></g></g></g><g class="node default" id="g8ec05ef6-e769-45a7-8947-8d66342731a2-dark-flowchart-rs-1" data-look="classic" transform="translate(167.4453125, 116.5)"><rect class="basic label-container" style="" x="-74.6875" y="-24.5" width="149.375" height="49"></rect><g class="label" style="" transform="translate(0, -9.5)"><rect></rect><g><rect class="background" style="stroke: none"></rect><text y="-10.1" style=""><tspan class="text-outer-tspan row" x="0" y="-0.1em" dy="1.1em"><tspan font-style="normal" class="text-inner-tspan" font-weight="normal">recalc</tspan><tspan font-style="normal" class="text-inner-tspan" font-weight="normal"> styles</tspan></tspan></text></g></g></g><g class="node default" id="g8ec05ef6-e769-45a7-8947-8d66342731a2-dark-flowchart-ul-2" data-look="classic" transform="translate(167.4453125, 215.5)"><rect class="basic label-container" style="" x="-79.78125" y="-24.5" width="159.5625" height="49"></rect><g class="label" style="" transform="translate(0, -9.5)"><rect></rect><g><rect class="background" style="stroke: none"></rect><text y="-10.1" style=""><tspan class="text-outer-tspan row" x="0" y="-0.1em" dy="1.1em"><tspan font-style="normal" class="text-inner-tspan" font-weight="normal">update</tspan><tspan font-style="normal" class="text-inner-tspan" font-weight="normal"> layout</tspan></tspan></text></g></g></g><g class="node default" id="g8ec05ef6-e769-45a7-8947-8d66342731a2-dark-flowchart-gather-3" data-look="classic" transform="translate(167.4453125, 314.5)"><rect class="basic label-container" style="" x="-124.8984375" y="-24.5" width="249.796875" height="49"></rect><g class="label" style="" transform="translate(0, -9.5)"><rect></rect><g><rect class="background" style="stroke: none"></rect><text y="-10.1" style=""><tspan class="text-outer-tspan row" x="0" y="-0.1em" dy="1.1em"><tspan font-style="normal" class="text-inner-tspan" font-weight="normal">gather</tspan><tspan font-style="normal" class="text-inner-tspan" font-weight="normal"> active</tspan><tspan font-style="normal" class="text-inner-tspan" font-weight="normal"> observations</tspan></tspan></text></g></g></g><g class="node default" id="g8ec05ef6-e769-45a7-8947-8d66342731a2-dark-flowchart-any-5" data-look="classic" transform="translate(167.4453125, 438.3359375)"><polygon points="49.3359375,0 98.671875,-49.3359375 49.3359375,-98.671875 0,-49.3359375" class="label-container" transform="translate(-48.8359375, 49.3359375)"></polygon><g class="label" style="" transform="translate(0, -9.5)"><rect></rect><g><rect class="background" style="stroke: none"></rect><text y="-10.1" style=""><tspan class="text-outer-tspan row" x="0" y="-0.1em" dy="1.1em"><tspan font-style="normal" class="text-inner-tspan" font-weight="normal">active?</tspan></tspan></text></g></g></g><g class="node default" id="g8ec05ef6-e769-45a7-8947-8d66342731a2-dark-flowchart-paint-7" data-look="classic" transform="translate(108.38671875, 1509.787498474121)"><rect class="basic label-container" style="" x="-48.484375" y="-24.5" width="96.96875" height="49"></rect><g class="label" style="" transform="translate(0, -9.5)"><rect></rect><g><rect class="background" style="stroke: none"></rect><text y="-10.1" style=""><tspan class="text-outer-tspan row" x="0" y="-0.1em" dy="1.1em"><tspan font-style="normal" class="text-inner-tspan" font-weight="normal">paint</tspan></tspan></text></g></g></g><g class="node default cb" id="g8ec05ef6-e769-45a7-8947-8d66342731a2-dark-flowchart-bcast-9" data-look="classic" transform="translate(241.8359375, 602.7718734741211)"><rect class="basic label-container" style="fill:#2E5A88 !important;stroke:#1F4870 !important" x="-111.859375" y="-42.099998474121094" width="223.71875" height="84.19999694824219"></rect><g class="label" style="color:#ffffff !important" transform="translate(0, -27.099998474121094)"><rect></rect><g><rect class="background" style="stroke: none"></rect><text y="-10.1" style="fill:#404040 !important"><tspan class="text-outer-tspan row" x="0" y="-0.1em" dy="1.1em"><tspan font-style="normal" class="text-inner-tspan" font-weight="normal">broadcast:</tspan><tspan font-style="normal" class="text-inner-tspan" font-weight="normal"> callbacks</tspan></tspan><tspan class="text-outer-tspan row" x="0" y="1em" dy="1.1em"><tspan font-style="normal" class="text-inner-tspan" font-weight="normal">run&amp;&amp;#10;(layout-only</tspan></tspan><tspan class="text-outer-tspan row" x="0" y="2.1em" dy="1.1em"><tspan font-style="normal" class="text-inner-tspan" font-weight="normal">edits</tspan><tspan font-style="normal" class="text-inner-tspan" font-weight="normal"> ideal</tspan><tspan font-style="normal" class="text-inner-tspan" font-weight="normal"> here)</tspan></tspan></text></g></g></g><g class="node default" id="g8ec05ef6-e769-45a7-8947-8d66342731a2-dark-flowchart-rs2-11" data-look="classic" transform="translate(167.4453125, 719.3718719482422)"><rect class="basic label-container" style="" x="-83.328125" y="-24.5" width="166.65625" height="49"></rect><g class="label" style="" transform="translate(0, -9.5)"><rect></rect><g><rect class="background" style="stroke: none"></rect><text y="-10.1" style=""><tspan class="text-outer-tspan row" x="0" y="-0.1em" dy="1.1em"><tspan font-style="normal" class="text-inner-tspan" font-weight="normal">recalc</tspan><tspan font-style="normal" class="text-inner-tspan" font-weight="normal"> +</tspan><tspan font-style="normal" class="text-inner-tspan" font-weight="normal"> layout</tspan></tspan></text></g></g></g><g class="node default" id="g8ec05ef6-e769-45a7-8947-8d66342731a2-dark-flowchart-gather2-12" data-look="classic" transform="translate(167.4453125, 841.3718719482422)"><rect class="basic label-container" style="" x="-113.78125" y="-24.5" width="227.5625" height="49"></rect><g class="label" style="" transform="translate(0, -9.5)"><rect></rect><g><rect class="background" style="stroke: none"></rect><text y="-10.1" style=""><tspan class="text-outer-tspan row" x="0" y="-0.1em" dy="1.1em"><tspan font-style="normal" class="text-inner-tspan" font-weight="normal">gather</tspan><tspan font-style="normal" class="text-inner-tspan" font-weight="normal"> at</tspan><tspan font-style="normal" class="text-inner-tspan" font-weight="normal"> deeper</tspan><tspan font-style="normal" class="text-inner-tspan" font-weight="normal"> depth</tspan></tspan></text></g></g></g><g class="node default" id="g8ec05ef6-e769-45a7-8947-8d66342731a2-dark-flowchart-any2-14" data-look="classic" transform="translate(241.8359375, 984.7156219482422)"><polygon points="45.84375,0 91.6875,-45.84375 45.84375,-91.6875 0,-45.84375" class="label-container" transform="translate(-45.34375, 45.84375)"></polygon><g class="label" style="" transform="translate(0, -9.5)"><rect></rect><g><rect class="background" style="stroke: none"></rect><text y="-10.1" style=""><tspan class="text-outer-tspan row" x="0" y="-0.1em" dy="1.1em"><tspan font-style="normal" class="text-inner-tspan" font-weight="normal">more?</tspan></tspan></text></g></g></g><g class="node default" id="g8ec05ef6-e769-45a7-8947-8d66342731a2-dark-flowchart-err-18" data-look="classic" transform="translate(241.8359375, 1173.2234344482422)"><polygon points="69.6640625,0 139.328125,-69.6640625 69.6640625,-139.328125 0,-69.6640625" class="label-container" transform="translate(-69.1640625, 69.6640625)"></polygon><g class="label" style="" transform="translate(0, -9.5)"><rect></rect><g><rect class="background" style="stroke: none"></rect><text y="-10.1" style=""><tspan class="text-outer-tspan row" x="0" y="-0.1em" dy="1.1em"><tspan font-style="normal" class="text-inner-tspan" font-weight="normal">any</tspan><tspan font-style="normal" class="text-inner-tspan" font-weight="normal"> skipped?</tspan></tspan></text></g></g></g><g class="node default warn" id="g8ec05ef6-e769-45a7-8947-8d66342731a2-dark-flowchart-loop-20" data-look="classic" transform="translate(328.078125, 1375.5874977111816)"><rect class="basic label-container" style="fill:#B43A3A !important;stroke:#8E2828 !important" x="-126.8203125" y="-59.70000076293945" width="253.640625" height="119.4000015258789"></rect><g class="label" style="color:#ffffff !important" transform="translate(0, -44.70000076293945)"><rect></rect><g><rect class="background" style="stroke: none"></rect><text y="-10.1" style="fill:#404040 !important"><tspan class="text-outer-tspan row" x="0" y="-0.1em" dy="1.1em"><tspan font-style="normal" class="text-inner-tspan" font-weight="normal">fire</tspan></tspan><tspan class="text-outer-tspan row" x="0" y="1em" dy="1.1em"><tspan font-style="normal" class="text-inner-tspan" font-weight="normal">ErrorEvent:&amp;&amp;#10;'ResizeO</tspan></tspan><tspan class="text-outer-tspan row" x="0" y="2.1em" dy="1.1em"><tspan font-style="normal" class="text-inner-tspan" font-weight="normal">bserver</tspan><tspan font-style="normal" class="text-inner-tspan" font-weight="normal"> loop</tspan></tspan><tspan class="text-outer-tspan row" x="0" y="3.2em" dy="1.1em"><tspan font-style="normal" class="text-inner-tspan" font-weight="normal">completed&amp;&amp;#10;with</tspan></tspan><tspan class="text-outer-tspan row" x="0" y="4.300000000000001em" dy="1.1em"><tspan font-style="normal" class="text-inner-tspan" font-weight="normal">undelivered</tspan><tspan font-style="normal" class="text-inner-tspan" font-weight="normal"> notifications'</tspan></tspan></text></g></g></g></g></g></g><defs><filter id="g8ec05ef6-e769-45a7-8947-8d66342731a2-dark-drop-shadow" height="130%" width="130%"><feDropShadow dx="4" dy="4" stdDeviation="0" flood-opacity="0.06" flood-color="#000000"></feDropShadow></filter></defs><defs><filter id="g8ec05ef6-e769-45a7-8947-8d66342731a2-dark-drop-shadow-small" height="150%" width="150%"><feDropShadow dx="2" dy="2" stdDeviation="0" flood-opacity="0.06" flood-color="#000000"></feDropShadow></filter></defs><linearGradient id="g8ec05ef6-e769-45a7-8947-8d66342731a2-dark-gradient" gradientUnits="objectBoundingBox" x1="0%" y1="0%" x2="100%" y2="0%"><stop offset="0%" stop-color="#555555" stop-opacity="1"></stop><stop offset="100%" stop-color="#555555" stop-opacity="1"></stop></linearGradient></svg>