<svg id="g0dd78c12-a0c7-4991-baea-c17349821a9c-dark" width="100%" xmlns="http://www.w3.org/2000/svg" xmlns:xlink="http://www.w3.org/1999/xlink" class="flowchart" style="max-width: 778.83984375px;" viewBox="0 0 778.83984375 1145.059326171875" role="graphics-document document" aria-roledescription="flowchart-v2"><style>#g0dd78c12-a0c7-4991-baea-c17349821a9c-dark{font-family:"trebuchet ms",verdana,arial,sans-serif;font-size:16px;fill:#e5e5e5;}@keyframes edge-animation-frame{from{stroke-dashoffset:0;}}@keyframes dash{to{stroke-dashoffset:0;}}#g0dd78c12-a0c7-4991-baea-c17349821a9c-dark .edge-animation-slow{stroke-dasharray:9,5!important;stroke-dashoffset:900;animation:dash 50s linear infinite;stroke-linecap:round;}#g0dd78c12-a0c7-4991-baea-c17349821a9c-dark .edge-animation-fast{stroke-dasharray:9,5!important;stroke-dashoffset:900;animation:dash 20s linear infinite;stroke-linecap:round;}#g0dd78c12-a0c7-4991-baea-c17349821a9c-dark .error-icon{fill:#252525;}#g0dd78c12-a0c7-4991-baea-c17349821a9c-dark .error-text{fill:#cccccc;stroke:#cccccc;}#g0dd78c12-a0c7-4991-baea-c17349821a9c-dark .edge-thickness-normal{stroke-width:1px;}#g0dd78c12-a0c7-4991-baea-c17349821a9c-dark .edge-thickness-thick{stroke-width:3.5px;}#g0dd78c12-a0c7-4991-baea-c17349821a9c-dark .edge-pattern-solid{stroke-dasharray:0;}#g0dd78c12-a0c7-4991-baea-c17349821a9c-dark .edge-thickness-invisible{stroke-width:0;fill:none;}#g0dd78c12-a0c7-4991-baea-c17349821a9c-dark .edge-pattern-dashed{stroke-dasharray:3;}#g0dd78c12-a0c7-4991-baea-c17349821a9c-dark .edge-pattern-dotted{stroke-dasharray:2;}#g0dd78c12-a0c7-4991-baea-c17349821a9c-dark .marker{fill:#cccccc;stroke:#cccccc;}#g0dd78c12-a0c7-4991-baea-c17349821a9c-dark .marker.cross{stroke:#cccccc;}#g0dd78c12-a0c7-4991-baea-c17349821a9c-dark svg{font-family:"trebuchet ms",verdana,arial,sans-serif;font-size:16px;}#g0dd78c12-a0c7-4991-baea-c17349821a9c-dark p{margin:0;}#g0dd78c12-a0c7-4991-baea-c17349821a9c-dark .label{font-family:"trebuchet ms",verdana,arial,sans-serif;color:#e5e5e5;}#g0dd78c12-a0c7-4991-baea-c17349821a9c-dark .cluster-label text{fill:#e5e5e5;}#g0dd78c12-a0c7-4991-baea-c17349821a9c-dark .cluster-label span{color:#e5e5e5;}#g0dd78c12-a0c7-4991-baea-c17349821a9c-dark .cluster-label span p{background-color:transparent;}#g0dd78c12-a0c7-4991-baea-c17349821a9c-dark .label text,#g0dd78c12-a0c7-4991-baea-c17349821a9c-dark span{fill:#e5e5e5;color:#e5e5e5;}#g0dd78c12-a0c7-4991-baea-c17349821a9c-dark .node rect,#g0dd78c12-a0c7-4991-baea-c17349821a9c-dark .node circle,#g0dd78c12-a0c7-4991-baea-c17349821a9c-dark .node ellipse,#g0dd78c12-a0c7-4991-baea-c17349821a9c-dark .node polygon,#g0dd78c12-a0c7-4991-baea-c17349821a9c-dark .node path{fill:#2d2d2d;stroke:#555555;stroke-width:1px;}#g0dd78c12-a0c7-4991-baea-c17349821a9c-dark .rough-node .label text,#g0dd78c12-a0c7-4991-baea-c17349821a9c-dark .node .label text,#g0dd78c12-a0c7-4991-baea-c17349821a9c-dark .image-shape .label,#g0dd78c12-a0c7-4991-baea-c17349821a9c-dark .icon-shape .label{text-anchor:middle;}#g0dd78c12-a0c7-4991-baea-c17349821a9c-dark .node .katex path{fill:#000;stroke:#000;stroke-width:1px;}#g0dd78c12-a0c7-4991-baea-c17349821a9c-dark .rough-node .label,#g0dd78c12-a0c7-4991-baea-c17349821a9c-dark .node .label,#g0dd78c12-a0c7-4991-baea-c17349821a9c-dark .image-shape .label,#g0dd78c12-a0c7-4991-baea-c17349821a9c-dark .icon-shape .label{text-align:center;}#g0dd78c12-a0c7-4991-baea-c17349821a9c-dark .node.clickable{cursor:pointer;}#g0dd78c12-a0c7-4991-baea-c17349821a9c-dark .root .anchor path{fill:#cccccc!important;stroke-width:0;stroke:#cccccc;}#g0dd78c12-a0c7-4991-baea-c17349821a9c-dark .arrowheadPath{fill:#cccccc;}#g0dd78c12-a0c7-4991-baea-c17349821a9c-dark .edgePath .path{stroke:#cccccc;stroke-width:1px;}#g0dd78c12-a0c7-4991-baea-c17349821a9c-dark .flowchart-link{stroke:#cccccc;fill:none;}#g0dd78c12-a0c7-4991-baea-c17349821a9c-dark .edgeLabel{background-color:#1e1e1e;text-align:center;}#g0dd78c12-a0c7-4991-baea-c17349821a9c-dark .edgeLabel p{background-color:#1e1e1e;}#g0dd78c12-a0c7-4991-baea-c17349821a9c-dark .edgeLabel rect{opacity:0.5;background-color:#1e1e1e;fill:#1e1e1e;}#g0dd78c12-a0c7-4991-baea-c17349821a9c-dark .labelBkg{background-color:rgba(30, 30, 30, 0.5);}#g0dd78c12-a0c7-4991-baea-c17349821a9c-dark .cluster rect{fill:#1e1e1e;stroke:#555555;stroke-width:1px;}#g0dd78c12-a0c7-4991-baea-c17349821a9c-dark .cluster text{fill:#e5e5e5;}#g0dd78c12-a0c7-4991-baea-c17349821a9c-dark .cluster span{color:#e5e5e5;}#g0dd78c12-a0c7-4991-baea-c17349821a9c-dark div.mermaidTooltip{position:absolute;text-align:center;max-width:200px;padding:2px;font-family:"trebuchet ms",verdana,arial,sans-serif;font-size:12px;background:#252525;border:1px solid #555555;border-radius:2px;pointer-events:none;z-index:100;}#g0dd78c12-a0c7-4991-baea-c17349821a9c-dark .flowchartTitleText{text-anchor:middle;font-size:18px;fill:#e5e5e5;}#g0dd78c12-a0c7-4991-baea-c17349821a9c-dark rect.text{fill:none;stroke-width:0;}#g0dd78c12-a0c7-4991-baea-c17349821a9c-dark .icon-shape,#g0dd78c12-a0c7-4991-baea-c17349821a9c-dark .image-shape{background-color:#1e1e1e;text-align:center;}#g0dd78c12-a0c7-4991-baea-c17349821a9c-dark .icon-shape p,#g0dd78c12-a0c7-4991-baea-c17349821a9c-dark .image-shape p{background-color:#1e1e1e;padding:2px;}#g0dd78c12-a0c7-4991-baea-c17349821a9c-dark .icon-shape .label rect,#g0dd78c12-a0c7-4991-baea-c17349821a9c-dark .image-shape .label rect{opacity:0.5;background-color:#1e1e1e;fill:#1e1e1e;}#g0dd78c12-a0c7-4991-baea-c17349821a9c-dark .label-icon{display:inline-block;height:1em;overflow:visible;vertical-align:-0.125em;}#g0dd78c12-a0c7-4991-baea-c17349821a9c-dark .node .label-icon path{fill:currentColor;stroke:revert;stroke-width:revert;}#g0dd78c12-a0c7-4991-baea-c17349821a9c-dark .node .neo-node{stroke:#555555;}#g0dd78c12-a0c7-4991-baea-c17349821a9c-dark [data-look="neo"].node rect,#g0dd78c12-a0c7-4991-baea-c17349821a9c-dark [data-look="neo"].cluster rect,#g0dd78c12-a0c7-4991-baea-c17349821a9c-dark [data-look="neo"].node polygon{stroke:url(#g0dd78c12-a0c7-4991-baea-c17349821a9c-dark-gradient);filter:drop-shadow( 1px 2px 2px rgba(185,185,185,1));}#g0dd78c12-a0c7-4991-baea-c17349821a9c-dark [data-look="neo"].node path{stroke:url(#g0dd78c12-a0c7-4991-baea-c17349821a9c-dark-gradient);stroke-width:1px;}#g0dd78c12-a0c7-4991-baea-c17349821a9c-dark [data-look="neo"].node .outer-path{filter:drop-shadow( 1px 2px 2px rgba(185,185,185,1));}#g0dd78c12-a0c7-4991-baea-c17349821a9c-dark [data-look="neo"].node .neo-line path{stroke:#555555;filter:none;}#g0dd78c12-a0c7-4991-baea-c17349821a9c-dark [data-look="neo"].node circle{stroke:url(#g0dd78c12-a0c7-4991-baea-c17349821a9c-dark-gradient);filter:drop-shadow( 1px 2px 2px rgba(185,185,185,1));}#g0dd78c12-a0c7-4991-baea-c17349821a9c-dark [data-look="neo"].node circle .state-start{fill:#000000;}#g0dd78c12-a0c7-4991-baea-c17349821a9c-dark [data-look="neo"].icon-shape .icon{fill:url(#g0dd78c12-a0c7-4991-baea-c17349821a9c-dark-gradient);filter:drop-shadow( 1px 2px 2px rgba(185,185,185,1));}#g0dd78c12-a0c7-4991-baea-c17349821a9c-dark [data-look="neo"].icon-shape .icon-neo path{stroke:url(#g0dd78c12-a0c7-4991-baea-c17349821a9c-dark-gradient);filter:drop-shadow( 1px 2px 2px rgba(185,185,185,1));}#g0dd78c12-a0c7-4991-baea-c17349821a9c-dark :root{--mermaid-font-family:"trebuchet ms",verdana,arial,sans-serif;}</style><g><marker id="g0dd78c12-a0c7-4991-baea-c17349821a9c-dark_flowchart-v2-pointEnd" class="marker flowchart-v2" viewBox="0 0 10 10" refX="5" refY="5" markerUnits="userSpaceOnUse" markerWidth="8" markerHeight="8" orient="auto"><path d="M 0 0 L 10 5 L 0 10 z" class="arrowMarkerPath" style="stroke-width: 1; stroke-dasharray: 1, 0;"></path></marker><marker id="g0dd78c12-a0c7-4991-baea-c17349821a9c-dark_flowchart-v2-pointStart" class="marker flowchart-v2" viewBox="0 0 10 10" refX="4.5" refY="5" markerUnits="userSpaceOnUse" markerWidth="8" markerHeight="8" orient="auto"><path d="M 0 5 L 10 10 L 10 0 z" class="arrowMarkerPath" style="stroke-width: 1; stroke-dasharray: 1, 0;"></path></marker><marker id="g0dd78c12-a0c7-4991-baea-c17349821a9c-dark_flowchart-v2-pointEnd-margin" class="marker flowchart-v2" viewBox="0 0 11.5 14" refX="11.5" refY="7" markerUnits="userSpaceOnUse" markerWidth="10.5" markerHeight="14" orient="auto"><path d="M 0 0 L 11.5 7 L 0 14 z" class="arrowMarkerPath" style="stroke-width: 0; stroke-dasharray: 1, 0;"></path></marker><marker id="g0dd78c12-a0c7-4991-baea-c17349821a9c-dark_flowchart-v2-pointStart-margin" class="marker flowchart-v2" viewBox="0 0 11.5 14" refX="1" refY="7" markerUnits="userSpaceOnUse" markerWidth="11.5" markerHeight="14" orient="auto"><polygon points="0,7 11.5,14 11.5,0" class="arrowMarkerPath" style="stroke-width: 0; stroke-dasharray: 1, 0;"></polygon></marker><marker id="g0dd78c12-a0c7-4991-baea-c17349821a9c-dark_flowchart-v2-circleEnd" class="marker flowchart-v2" viewBox="0 0 10 10" refX="11" refY="5" markerUnits="userSpaceOnUse" markerWidth="11" markerHeight="11" orient="auto"><circle cx="5" cy="5" r="5" class="arrowMarkerPath" style="stroke-width: 1; stroke-dasharray: 1, 0;"></circle></marker><marker id="g0dd78c12-a0c7-4991-baea-c17349821a9c-dark_flowchart-v2-circleStart" class="marker flowchart-v2" viewBox="0 0 10 10" refX="-1" refY="5" markerUnits="userSpaceOnUse" markerWidth="11" markerHeight="11" orient="auto"><circle cx="5" cy="5" r="5" class="arrowMarkerPath" style="stroke-width: 1; stroke-dasharray: 1, 0;"></circle></marker><marker id="g0dd78c12-a0c7-4991-baea-c17349821a9c-dark_flowchart-v2-circleEnd-margin" class="marker flowchart-v2" viewBox="0 0 10 10" refY="5" refX="12.25" markerUnits="userSpaceOnUse" markerWidth="14" markerHeight="14" orient="auto"><circle cx="5" cy="5" r="5" class="arrowMarkerPath" style="stroke-width: 0; stroke-dasharray: 1, 0;"></circle></marker><marker id="g0dd78c12-a0c7-4991-baea-c17349821a9c-dark_flowchart-v2-circleStart-margin" class="marker flowchart-v2" viewBox="0 0 10 10" refX="-2" refY="5" markerUnits="userSpaceOnUse" markerWidth="14" markerHeight="14" orient="auto"><circle cx="5" cy="5" r="5" class="arrowMarkerPath" style="stroke-width: 0; stroke-dasharray: 1, 0;"></circle></marker><marker id="g0dd78c12-a0c7-4991-baea-c17349821a9c-dark_flowchart-v2-crossEnd" class="marker cross flowchart-v2" viewBox="0 0 11 11" refX="12" refY="5.2" markerUnits="userSpaceOnUse" markerWidth="11" markerHeight="11" orient="auto"><path d="M 1,1 l 9,9 M 10,1 l -9,9" class="arrowMarkerPath" style="stroke-width: 2; stroke-dasharray: 1, 0;"></path></marker><marker id="g0dd78c12-a0c7-4991-baea-c17349821a9c-dark_flowchart-v2-crossStart" class="marker cross flowchart-v2" viewBox="0 0 11 11" refX="-1" refY="5.2" markerUnits="userSpaceOnUse" markerWidth="11" markerHeight="11" orient="auto"><path d="M 1,1 l 9,9 M 10,1 l -9,9" class="arrowMarkerPath" style="stroke-width: 2; stroke-dasharray: 1, 0;"></path></marker><marker id="g0dd78c12-a0c7-4991-baea-c17349821a9c-dark_flowchart-v2-crossEnd-margin" class="marker cross flowchart-v2" viewBox="0 0 15 15" refX="17.7" refY="7.5" markerUnits="userSpaceOnUse" markerWidth="12" markerHeight="12" orient="auto"><path d="M 1,1 L 14,14 M 1,14 L 14,1" class="arrowMarkerPath" style="stroke-width: 2.5;"></path></marker><marker id="g0dd78c12-a0c7-4991-baea-c17349821a9c-dark_flowchart-v2-crossStart-margin" class="marker cross flowchart-v2" viewBox="0 0 15 15" refX="-3.5" refY="7.5" markerUnits="userSpaceOnUse" markerWidth="12" markerHeight="12" orient="auto"><path d="M 1,1 L 14,14 M 1,14 L 14,1" class="arrowMarkerPath" style="stroke-width: 2.5; stroke-dasharray: 1, 0;"></path></marker><g class="root"><g class="clusters"></g><g class="edgePaths"><path d="M372.531,60.1L372.448,64.183C372.365,68.267,372.198,76.433,372.115,84.017C372.031,91.6,372.031,98.6,372.031,102.1L372.031,105.6" id="g0dd78c12-a0c7-4991-baea-c17349821a9c-dark-L_Start_Cmp_0" class="edge-thickness-normal edge-pattern-solid edge-thickness-normal edge-pattern-solid flowchart-link" style=";" data-edge="true" data-et="edge" data-id="L_Start_Cmp_0" data-points="W3sieCI6MzcyLjUzMTI1MDAwMDAwMDA2LCJ5Ijo2MC4wOTk5OTg0NzQxMjEwOTR9LHsieCI6MzcyLjAzMTI1LCJ5Ijo4NC41OTk5OTg0NzQxMjExfSx7IngiOjM3Mi4wMzEyNSwieSI6MTA5LjU5OTk5ODQ3NDEyMTF9XQ==" data-look="classic" marker-end="url(#g0dd78c12-a0c7-4991-baea-c17349821a9c-dark_flowchart-v2-pointEnd)"></path><path d="M372.031,246.6L372.031,250.767C372.031,254.933,372.031,263.267,372.031,270.933C372.031,278.6,372.031,285.6,372.031,289.1L372.031,292.6" id="g0dd78c12-a0c7-4991-baea-c17349821a9c-dark-L_Cmp_Q1_0" class="edge-thickness-normal edge-pattern-solid edge-thickness-normal edge-pattern-solid flowchart-link" style=";" data-edge="true" data-et="edge" data-id="L_Cmp_Q1_0" data-points="W3sieCI6MzcyLjAzMTI1LCJ5IjoyNDYuNTk5OTk4NDc0MTIxMX0seyJ4IjozNzIuMDMxMjUsInkiOjI3MS41OTk5OTg0NzQxMjExfSx7IngiOjM3Mi4wMzEyNSwieSI6Mjk2LjU5OTk5ODQ3NDEyMTF9XQ==" data-look="classic" marker-end="url(#g0dd78c12-a0c7-4991-baea-c17349821a9c-dark_flowchart-v2-pointEnd)"></path><path d="M290.932,476.21L258.661,495.81C226.39,515.41,161.847,554.61,129.576,599.705C97.305,644.801,97.305,695.793,97.305,746.784C97.305,797.776,97.305,848.768,97.305,879.68C97.305,910.593,97.305,921.426,97.305,926.843L97.305,932.259" id="g0dd78c12-a0c7-4991-baea-c17349821a9c-dark-L_Q1_Chunk_0" class="edge-thickness-normal edge-pattern-solid edge-thickness-normal edge-pattern-solid flowchart-link" style=";" data-edge="true" data-et="edge" data-id="L_Q1_Chunk_0" data-points="W3sieCI6MjkwLjkzMjAyODA3MDc2MTc2LCJ5Ijo0NzYuMjEwMTU3NjQ4Mzk4NH0seyJ4Ijo5Ny4zMDQ2ODc1LCJ5Ijo1OTMuODA5Mzc5NTc3NjM2N30seyJ4Ijo5Ny4zMDQ2ODc1LCJ5Ijo3NDYuNzg0Mzc4MDUxNzU3OH0seyJ4Ijo5Ny4zMDQ2ODc1LCJ5Ijo4OTkuNzU5Mzc2NTI1ODc4OX0seyJ4Ijo5Ny4zMDQ2ODc1LCJ5Ijo5MzYuMjU5Mzc2NTI1ODc4OX1d" data-look="classic" marker-end="url(#g0dd78c12-a0c7-4991-baea-c17349821a9c-dark_flowchart-v2-pointEnd)"></path><path d="M428.091,501.249L439.732,516.676C451.372,532.103,474.653,562.956,486.293,583.799C497.934,604.643,497.934,615.476,497.934,620.893L497.934,626.309" id="g0dd78c12-a0c7-4991-baea-c17349821a9c-dark-L_Q1_Q2_0" class="edge-thickness-normal edge-pattern-solid edge-thickness-normal edge-pattern-solid flowchart-link" style=";" data-edge="true" data-et="edge" data-id="L_Q1_Q2_0" data-points="W3sieCI6NDI4LjA5MTI1NTg2MjU5NDQ0LCJ5Ijo1MDEuMjQ5MzczNzE1MDQyM30seyJ4Ijo0OTcuOTMzNTkzNzUsInkiOjU5My44MDkzNzk1Nzc2MzY3fSx7IngiOjQ5Ny45MzM1OTM3NSwieSI6NjMwLjMwOTM3OTU3NzYzNjd9XQ==" data-look="classic" marker-end="url(#g0dd78c12-a0c7-4991-baea-c17349821a9c-dark_flowchart-v2-pointEnd)"></path><path d="M440.497,805.823L425.266,821.479C410.034,837.135,379.572,868.447,364.341,889.52C349.109,910.593,349.109,921.426,349.109,926.843L349.109,932.259" id="g0dd78c12-a0c7-4991-baea-c17349821a9c-dark-L_Q2_Item_0" class="edge-thickness-normal edge-pattern-solid edge-thickness-normal edge-pattern-solid flowchart-link" style=";" data-edge="true" data-et="edge" data-id="L_Q2_Item_0" data-points="W3sieCI6NDQwLjQ5NzA2MDkwNzg4Mjc3LCJ5Ijo4MDUuODIyODQzNjgzNzYxNn0seyJ4IjozNDkuMTA5Mzc1LCJ5Ijo4OTkuNzU5Mzc2NTI1ODc4OX0seyJ4IjozNDkuMTA5Mzc1LCJ5Ijo5MzYuMjU5Mzc2NTI1ODc4OX1d" data-look="classic" marker-end="url(#g0dd78c12-a0c7-4991-baea-c17349821a9c-dark_flowchart-v2-pointEnd)"></path><path d="M554.545,806.648L569.22,822.167C583.896,837.685,613.247,868.722,627.922,889.657C642.598,910.593,642.598,921.426,642.598,926.843L642.598,932.259" id="g0dd78c12-a0c7-4991-baea-c17349821a9c-dark-L_Q2_Reuse_0" class="edge-thickness-normal edge-pattern-solid edge-thickness-normal edge-pattern-solid flowchart-link" style=";" data-edge="true" data-et="edge" data-id="L_Q2_Reuse_0" data-points="W3sieCI6NTU0LjU0NDkzNTAyOTYwNywieSI6ODA2LjY0ODAzNTI0NjI3MjV9LHsieCI6NjQyLjU5NzY1NjI1LCJ5Ijo4OTkuNzU5Mzc2NTI1ODc4OX0seyJ4Ijo2NDIuNTk3NjU2MjUsInkiOjkzNi4yNTkzNzY1MjU4Nzg5fV0=" data-look="classic" marker-end="url(#g0dd78c12-a0c7-4991-baea-c17349821a9c-dark_flowchart-v2-pointEnd)"></path><path d="M97.305,1002.859L97.305,1007.026C97.305,1011.193,97.305,1019.526,107.286,1029.012C117.268,1038.499,137.232,1049.139,147.213,1054.458L157.195,1059.778" id="g0dd78c12-a0c7-4991-baea-c17349821a9c-dark-L_Chunk_Paint_0" class="edge-thickness-normal edge-pattern-solid edge-thickness-normal edge-pattern-solid flowchart-link" style=";" data-edge="true" data-et="edge" data-id="L_Chunk_Paint_0" data-points="W3sieCI6OTcuMzA0Njg3NSwieSI6MTAwMi44NTkzNzV9LHsieCI6OTcuMzA0Njg3NSwieSI6MTAyNy44NTkzNzV9LHsieCI6MTYwLjcyNDk0NDEyMzkzMDk1LCJ5IjoxMDYxLjY1OTM3NDIzNzA2MDV9XQ==" data-look="classic" marker-end="url(#g0dd78c12-a0c7-4991-baea-c17349821a9c-dark_flowchart-v2-pointEnd)"></path><path d="M349.109,1002.859L349.109,1007.026C349.109,1011.193,349.109,1019.526,339.128,1029.012C329.146,1038.499,309.183,1049.139,299.201,1054.458L289.219,1059.778" id="g0dd78c12-a0c7-4991-baea-c17349821a9c-dark-L_Item_Paint_0" class="edge-thickness-normal edge-pattern-solid edge-thickness-normal edge-pattern-solid flowchart-link" style=";" data-edge="true" data-et="edge" data-id="L_Item_Paint_0" data-points="W3sieCI6MzQ5LjEwOTM3NSwieSI6MTAwMi44NTkzNzV9LHsieCI6MzQ5LjEwOTM3NSwieSI6MTAyNy44NTkzNzV9LHsieCI6Mjg1LjY4OTExODM3NjA2OTEsInkiOjEwNjEuNjU5Mzc0MjM3MDYwNX1d" data-look="classic" marker-end="url(#g0dd78c12-a0c7-4991-baea-c17349821a9c-dark_flowchart-v2-pointEnd)"></path><path d="M642.598,1002.859L642.598,1007.026C642.598,1011.193,642.598,1019.526,642.598,1027.193C642.598,1034.859,642.598,1041.859,642.598,1045.359L642.598,1048.859" id="g0dd78c12-a0c7-4991-baea-c17349821a9c-dark-L_Reuse_Skip_0" class="edge-thickness-normal edge-pattern-solid edge-thickness-normal edge-pattern-solid flowchart-link" style=";" data-edge="true" data-et="edge" data-id="L_Reuse_Skip_0" data-points="W3sieCI6NjQyLjU5NzY1NjI1LCJ5IjoxMDAyLjg1OTM3NX0seyJ4Ijo2NDIuNTk3NjU2MjUsInkiOjEwMjcuODU5Mzc1fSx7IngiOjY0Mi41OTc2NTYyNSwieSI6MTA1Mi44NTkzNzV9XQ==" data-look="classic" marker-end="url(#g0dd78c12-a0c7-4991-baea-c17349821a9c-dark_flowchart-v2-pointEnd)"></path></g><g class="edgeLabels"><g class="edgeLabel"><g class="label" data-id="L_Start_Cmp_0" transform="translate(0, 0)"><text y="-10.1" text-anchor="middle"><tspan class="text-outer-tspan row" x="0" y="-0.1em" dy="1.1em" text-anchor="middle"></tspan></text></g></g><g><rect class="background" style="stroke: none"></rect></g><g class="edgeLabel"><g class="label" data-id="L_Cmp_Q1_0" transform="translate(0, 0)"><text y="-10.1" text-anchor="middle"><tspan class="text-outer-tspan row" x="0" y="-0.1em" dy="1.1em" text-anchor="middle"></tspan></text></g></g><g><rect class="background" style="stroke: none"></rect></g><g class="edgeLabel" transform="translate(97.3046875, 746.7843780517578)"><g class="label" data-id="L_Q1_Chunk_0" transform="translate(0, -10.5)"><g><rect class="background" style="" x="-13.546875" y="-1" width="27.09375" height="23"></rect><text y="-10.1" text-anchor="middle" style=""><tspan class="text-outer-tspan row" x="0" y="-0.1em" dy="1.1em" text-anchor="middle"><tspan font-style="normal" class="text-inner-tspan" font-weight="normal">yes</tspan></tspan></text></g></g></g><g class="edgeLabel" transform="translate(497.93359375, 593.8093795776367)"><g class="label" data-id="L_Q1_Q2_0" transform="translate(0, -10.5)"><g><rect class="background" style="" x="-10.6640625" y="-1" width="21.328125" height="23"></rect><text y="-10.1" text-anchor="middle" style=""><tspan class="text-outer-tspan row" x="0" y="-0.1em" dy="1.1em" text-anchor="middle"><tspan font-style="normal" class="text-inner-tspan" font-weight="normal">no</tspan></tspan></text></g></g></g><g class="edgeLabel" transform="translate(349.109375, 899.7593765258789)"><g class="label" data-id="L_Q2_Item_0" transform="translate(0, -10.5)"><g><rect class="background" style="" x="-13.546875" y="-1" width="27.09375" height="23"></rect><text y="-10.1" text-anchor="middle" style=""><tspan class="text-outer-tspan row" x="0" y="-0.1em" dy="1.1em" text-anchor="middle"><tspan font-style="normal" class="text-inner-tspan" font-weight="normal">yes</tspan></tspan></text></g></g></g><g class="edgeLabel" transform="translate(642.59765625, 899.7593765258789)"><g class="label" data-id="L_Q2_Reuse_0" transform="translate(0, -10.5)"><g><rect class="background" style="" x="-10.6640625" y="-1" width="21.328125" height="23"></rect><text y="-10.1" text-anchor="middle" style=""><tspan class="text-outer-tspan row" x="0" y="-0.1em" dy="1.1em" text-anchor="middle"><tspan font-style="normal" class="text-inner-tspan" font-weight="normal">no</tspan></tspan></text></g></g></g><g class="edgeLabel"><g class="label" data-id="L_Chunk_Paint_0" transform="translate(0, 0)"><text y="-10.1" text-anchor="middle"><tspan class="text-outer-tspan row" x="0" y="-0.1em" dy="1.1em" text-anchor="middle"></tspan></text></g></g><g><rect class="background" style="stroke: none"></rect></g><g class="edgeLabel"><g class="label" data-id="L_Item_Paint_0" transform="translate(0, 0)"><text y="-10.1" text-anchor="middle"><tspan class="text-outer-tspan row" x="0" y="-0.1em" dy="1.1em" text-anchor="middle"></tspan></text></g></g><g><rect class="background" style="stroke: none"></rect></g><g class="edgeLabel"><g class="label" data-id="L_Reuse_Skip_0" transform="translate(0, 0)"><text y="-10.1" text-anchor="middle"><tspan class="text-outer-tspan row" x="0" y="-0.1em" dy="1.1em" text-anchor="middle"></tspan></text></g></g><g><rect class="background" style="stroke: none"></rect></g></g><g class="nodes"><g class="node default" id="g0dd78c12-a0c7-4991-baea-c17349821a9c-dark-flowchart-Start-0" data-look="classic" transform="translate(372.03125, 33.79999923706055)"><g class="basic label-container outer-path"><path d="M-65.40000057220459 -25.799999237060547 C-13.586125223070894 -25.799999237060547, 38.2277501260628 -25.799999237060547, 65.40000057220459 -25.799999237060547 C65.40000057220459 -25.799999237060547, 65.40000057220459 -25.799999237060547, 65.40000057220459 -25.799999237060547 C65.93257242604656 -25.782920694296063, 66.46514427988855 -25.765842151531576, 67.05301219882529 -25.746990371586765 C67.46494568576175 -25.707251643524504, 67.87687917269821 -25.667512915462247, 68.69923124610231 -25.58818159996402 C69.27835371979535 -25.49455356957919, 69.85747619348837 -25.40092553919436, 70.33189304685753 -25.32422550149928 C70.94521780879148 -25.184238126905964, 71.55854257072545 -25.044250752312646, 71.94428864354678 -24.956206728419545 C72.51784065875287 -24.785979500942343, 73.09139267395898 -24.615752273465137, 73.52979235680552 -24.48563754880318 C73.96747722343233 -24.324565471969958, 74.40516209005912 -24.16349339513674, 75.08188901178644 -23.914451632345997 C75.55641816510736 -23.704391652578025, 76.03094731842828 -23.494331672810052, 76.59420071041056 -23.24499610449772 C76.97297430554778 -23.047390162530697, 77.35174790068501 -22.849784220563674, 78.0605130395184 -22.480021901620034 C78.48347098086738 -22.22362231199752, 78.90642892221636 -21.96722272237501, 79.47480060722664 -21.62267246679901 C79.91010597619591 -21.31902228547176, 80.34541134516518 -21.01537210414451, 80.83125180255584 -20.67647083276321 C81.2598738868764 -20.334656126630247, 81.68849597119699 -19.99284142049728, 82.1242926765865 -19.64530514498651 C82.3882111374737 -19.40562138170858, 82.6521295983609 -19.16593761843065, 83.34860984701088 -18.533412684464313 C83.5875377063239 -18.286700053381548, 83.82646556563694 -18.039987422298783, 84.49917233196044 -17.345362455817106 C84.77256572302198 -17.02421902215156, 85.04595911408354 -16.703075588486016, 85.57125222338968 -16.086036412270357 C85.96404902364111 -15.559724484458098, 86.35684582389254 -15.03341255664584, 86.56044411506427 -14.76060939466161 C86.81322689229887 -14.372267167149246, 87.06600966953347 -13.983924939636882, 87.46268320532036 -13.374527866909407 C87.63338913091138 -13.071422210173164, 87.80409505650242 -12.768316553436923, 88.2742620002064 -11.93348753532484 C88.48876843108665 -11.488060341899645, 88.7032748619669 -11.042633148474453, 88.99184554837109 -10.443409943732584 C89.21317194020047 -9.896729476859308, 89.43449833202986 -9.350049009986034, 89.61248514509381 -8.910418140577123 C89.79367412817786 -8.36470579207204, 89.97486311126188 -7.818993443566958, 90.1336304491449 -7.340811518003323 C90.28063650612015 -6.780213709928615, 90.42764256309538 -6.219615901853908, 90.55313996268467 -5.741039926302914 C90.64675478787133 -5.260347584469703, 90.74036961305801 -4.779655242636493, 90.86928983113748 -4.117677170096137 C90.92658826169887 -3.6732818575169395, 90.98388669226024 -3.228886544937742, 91.08078092687991 -2.4773939951584394 C91.10956981406514 -2.0289838392770645, 91.13835870125037 -1.58057368339569, 91.18674418763487 -0.8269306768952902 C91.18674418763487 -0.367557265715238, 91.18674418763487 0.0918161454648142, 91.18674418763487 0.826930676895284 C91.14519808959018 1.4740446893480845, 91.10365199154549 2.121158701800885, 91.08078092687991 2.4773939951584216 C91.01984495009114 2.9500013979625064, 90.95890897330236 3.422608800766591, 90.86928983113748 4.117677170096119 C90.78376141371673 4.556847517114204, 90.69823299629599 4.99601786413229, 90.55313996268467 5.741039926302909 C90.41522945805072 6.266952451262979, 90.27731895341675 6.792864976223049, 90.1336304491449 7.340811518003306 C89.9712434236188 7.829895366029035, 89.80885639809269 8.318979214054764, 89.61248514509383 8.910418140577105 C89.38705032431896 9.467246506376794, 89.16161550354408 10.024074872176483, 88.99184554837109 10.443409943732577 C88.80886860709907 10.823365477363293, 88.62589166582704 11.203321010994008, 88.2742620002064 11.933487535324835 C88.00472748488663 12.412073360604367, 87.73519296956685 12.890659185883898, 87.46268320532037 13.374527866909402 C87.1317677288369 13.882902902035479, 86.80085225235342 14.391277937161556, 86.56044411506429 14.760609394661596 C86.29080311560391 15.1219037691381, 86.02116211614354 15.483198143614603, 85.57125222338968 16.086036412270353 C85.15773822760009 16.571773481337736, 84.74422423181049 17.05751055040512, 84.49917233196045 17.345362455817092 C84.08857812311105 17.76933468686557, 83.67798391426166 18.193306917914047, 83.34860984701088 18.533412684464306 C83.02226826768961 18.82978747227885, 82.69592668836835 19.126162260093395, 82.12429267658653 19.64530514498649 C81.67517417136 20.003465201359298, 81.22605566613345 20.361625257732104, 80.83125180255584 20.676470832763208 C80.52920374721091 20.887166480722254, 80.22715569186599 21.0978621286813, 79.47480060722665 21.622672466799003 C79.08854793482064 21.856821106684183, 78.70229526241464 22.09096974656936, 78.06051303951841 22.48002190162003 C77.68359060509042 22.67666209423077, 77.30666817066243 22.87330228684151, 76.59420071041058 23.244996104497716 C76.04072398736542 23.490003831486156, 75.48724726432027 23.735011558474596, 75.08188901178644 23.914451632345994 C74.48668966922155 24.133490492372285, 73.89149032665665 24.352529352398577, 73.52979235680553 24.485637548803172 C72.90102835121074 24.67225140521409, 72.27226434561595 24.85886526162501, 71.94428864354681 24.95620672841954 C71.54969667236486 25.046269770888568, 71.15510470118289 25.136332813357598, 70.33189304685754 25.324225501499278 C69.68503347046524 25.428804741339448, 69.03817389407294 25.53338398117962, 68.69923124610233 25.588181599964017 C68.31196719856342 25.625540496876937, 67.9247031510245 25.662899393789857, 67.05301219882529 25.746990371586765 C66.57965174751108 25.76217011992019, 66.10629129619686 25.77734986825361, 65.40000057220459 25.799999237060547 C65.40000057220459 25.799999237060547, 65.40000057220459 25.799999237060547, 65.40000057220459 25.799999237060547 C29.260703466564316 25.799999237060547, -6.878593639075959 25.799999237060547, -65.40000057220459 25.799999237060547 C-65.95152280112775 25.782312992651875, -66.50304503005091 25.764626748243206, -67.05301219882527 25.746990371586765 C-67.58694285720935 25.69548272311802, -68.12087351559342 25.643975074649273, -68.69923124610231 25.588181599964017 C-69.13273252727075 25.51809647467735, -69.56623380843916 25.448011349390683, -70.33189304685753 25.324225501499278 C-70.71575801601028 25.236610827243187, -71.09962298516304 25.148996152987095, -71.94428864354678 24.956206728419545 C-72.37290302206958 24.828996230716765, -72.80151740059237 24.701785733013985, -73.5297923568055 24.485637548803183 C-73.95683258042159 24.328482798995907, -74.38387280403768 24.171328049188634, -75.08188901178644 23.914451632345997 C-75.67897848959814 23.65013783254881, -76.27606796740983 23.385824032751625, -76.59420071041056 23.244996104497723 C-77.04722777827358 23.00865217337127, -77.5002548461366 22.77230824224482, -78.0605130395184 22.480021901620038 C-78.52569286249629 22.19802715923076, -78.99087268547417 21.91603241684149, -79.47480060722663 21.622672466799017 C-79.80042152449792 21.395533410812888, -80.1260424417692 21.168394354826763, -80.83125180255584 20.67647083276321 C-81.2070466060316 20.37678447731101, -81.58284140950734 20.077098121858803, -82.1242926765865 19.645305144986512 C-82.49019219637027 19.313004882289672, -82.85609171615405 18.98070461959283, -83.34860984701086 18.533412684464324 C-83.6799345644532 18.191292711439907, -84.01125928189555 17.849172738415486, -84.49917233196044 17.3453624558171 C-84.83779120854145 16.94760145542513, -85.17641008512247 16.54984045503316, -85.57125222338968 16.08603641227036 C-85.92965211679707 15.605813206006431, -86.28805201020447 15.125589999742504, -86.56044411506427 14.760609394661614 C-86.74223965794621 14.48132262185639, -86.92403520082816 14.202035849051168, -87.46268320532036 13.374527866909418 C-87.77680317377843 12.816776054816144, -88.0909231422365 12.25902424272287, -88.27426200020639 11.933487535324842 C-88.53390208118238 11.394339351770444, -88.79354216215836 10.855191168216047, -88.99184554837109 10.443409943732586 C-89.13784079995338 10.082798849698154, -89.28383605153567 9.722187755663722, -89.61248514509381 8.910418140577127 C-89.79906783773578 8.348460798254493, -89.98565053037773 7.786503455931857, -90.1336304491449 7.340811518003316 C-90.26628493341059 6.834942476681114, -90.39893941767626 6.329073435358913, -90.55313996268467 5.741039926302918 C-90.66384272316276 5.172604648284656, -90.77454548364085 4.604169370266394, -90.86928983113748 4.117677170096139 C-90.94179070371027 3.5553747193382557, -91.01429157628304 2.993072268580372, -91.08078092687991 2.477393995158454 C-91.1066540423821 2.0743993368089266, -91.13252715788428 1.6714046784593992, -91.18674418763487 0.8269306768952934 C-91.18674418763487 0.2042993154922801, -91.18674418763487 -0.41833204591073325, -91.18674418763487 -0.8269306768952809 C-91.14767738084481 -1.4354277268093816, -91.10861057405475 -2.0439247767234825, -91.08078092687991 -2.4773939951584185 C-90.99747639858296 -3.1234874662898293, -90.91417187028601 -3.76958093742124, -90.86928983113748 -4.117677170096128 C-90.75673808991931 -4.695606573432476, -90.64418634870114 -5.273535976768825, -90.55313996268467 -5.741039926302906 C-90.4347997281556 -6.192322529544354, -90.31645949362651 -6.643605132785801, -90.1336304491449 -7.340811518003303 C-89.99369845433516 -7.762264391234611, -89.85376645952542 -8.183717264465919, -89.61248514509383 -8.910418140577093 C-89.443058704464 -9.328904724570195, -89.27363226383414 -9.747391308563296, -88.99184554837109 -10.443409943732574 C-88.83092809107936 -10.777558486880856, -88.67001063378764 -11.111707030029141, -88.2742620002064 -11.933487535324831 C-88.08444762943788 -12.270522171413639, -87.89463325866933 -12.607556807502444, -87.46268320532036 -13.374527866909409 C-87.1961549378052 -13.783986858673655, -86.92962667029006 -14.193445850437904, -86.56044411506429 -14.760609394661605 C-86.27009719467395 -15.149647816836053, -85.97975027428362 -15.538686239010499, -85.57125222338968 -16.086036412270353 C-85.2838654668874 -16.423617249227615, -84.99647871038515 -16.761198086184876, -84.49917233196045 -17.345362455817092 C-84.10359893022107 -17.753824470293285, -83.70802552848168 -18.162286484769474, -83.34860984701089 -18.5334126844643 C-82.96066067133943 -18.885737861236418, -82.57271149566796 -19.238063038008534, -82.12429267658653 -19.645305144986487 C-81.76881794612382 -19.928786782950652, -81.4133432156611 -20.212268420914814, -80.83125180255585 -20.676470832763204 C-80.36761574437834 -20.99988327646636, -79.90397968620083 -21.32329572016951, -79.47480060722665 -21.622672466799 C-79.16693652177086 -21.809301484612487, -78.85907243631507 -21.995930502425974, -78.06051303951841 -22.480021901620027 C-77.56101411460584 -22.740610170802587, -77.06151518969327 -23.001198439985146, -76.59420071041058 -23.244996104497716 C-76.13731099163022 -23.44724762984982, -75.68042127284984 -23.649499155201926, -75.08188901178646 -23.91445163234599 C-74.7175164953643 -24.048544086611965, -74.35314397894214 -24.18263654087794, -73.52979235680553 -24.485637548803172 C-72.93550945919988 -24.662017593357945, -72.34122656159423 -24.838397637912717, -71.94428864354681 -24.956206728419538 C-71.37474121066064 -25.086202213331468, -70.80519377777448 -25.2161976982434, -70.33189304685754 -25.324225501499278 C-69.8002999824664 -25.410169345584254, -69.26870691807525 -25.49611318966923, -68.69923124610233 -25.588181599964017 C-68.08899835330418 -25.647050033219827, -67.47876546050604 -25.705918466475634, -67.05301219882529 -25.746990371586765 C-66.59758403393285 -25.76159506639772, -66.14215586904042 -25.776199761208673, -65.4000005722046 -25.799999237060547 C-65.4000005722046 -25.799999237060547, -65.40000057220459 -25.799999237060547, -65.40000057220459 -25.799999237060547" stroke="none" stroke-width="0" fill="#2d2d2d" style=""></path><path d="M-65.40000057220459 -25.799999237060547 C-25.417941311200934 -25.799999237060547, 14.564117949802721 -25.799999237060547, 65.40000057220459 -25.799999237060547 M-65.40000057220459 -25.799999237060547 C-30.268968326902012 -25.799999237060547, 4.862063918400565 -25.799999237060547, 65.40000057220459 -25.799999237060547 M65.40000057220459 -25.799999237060547 C65.40000057220459 -25.799999237060547, 65.40000057220459 -25.799999237060547, 65.40000057220459 -25.799999237060547 M65.40000057220459 -25.799999237060547 C65.40000057220459 -25.799999237060547, 65.40000057220459 -25.799999237060547, 65.40000057220459 -25.799999237060547 M65.40000057220459 -25.799999237060547 C65.80509820905816 -25.78700854432137, 66.21019584591173 -25.77401785158219, 67.05301219882529 -25.746990371586765 M65.40000057220459 -25.799999237060547 C66.05440508977844 -25.779013757903076, 66.7088096073523 -25.758028278745602, 67.05301219882529 -25.746990371586765 M67.05301219882529 -25.746990371586765 C67.41392029463702 -25.712174001639298, 67.77482839044875 -25.67735763169183, 68.69923124610231 -25.58818159996402 M67.05301219882529 -25.746990371586765 C67.62723231087044 -25.691596047978493, 68.20145242291561 -25.63620172437022, 68.69923124610231 -25.58818159996402 M68.69923124610231 -25.58818159996402 C69.33649658577313 -25.485153481912562, 69.97376192544397 -25.3821253638611, 70.33189304685753 -25.32422550149928 M68.69923124610231 -25.58818159996402 C69.16354231420739 -25.513115387258903, 69.62785338231247 -25.438049174553786, 70.33189304685753 -25.32422550149928 M70.33189304685753 -25.32422550149928 C70.65468962370372 -25.25054928927866, 70.9774862005499 -25.17687307705804, 71.94428864354678 -24.956206728419545 M70.33189304685753 -25.32422550149928 C70.74525190309795 -25.22987903998103, 71.15861075933839 -25.135532578462772, 71.94428864354678 -24.956206728419545 M71.94428864354678 -24.956206728419545 C72.27463631398346 -24.858161273864244, 72.60498398442016 -24.760115819308943, 73.52979235680552 -24.48563754880318 M71.94428864354678 -24.956206728419545 C72.27990780757032 -24.856596722238297, 72.61552697159388 -24.756986716057053, 73.52979235680552 -24.48563754880318 M73.52979235680552 -24.48563754880318 C74.13624267973344 -24.26245822400037, 74.74269300266138 -24.039278899197555, 75.08188901178644 -23.914451632345997 M73.52979235680552 -24.48563754880318 C74.12834281681789 -24.265365446578826, 74.72689327683027 -24.045093344354473, 75.08188901178644 -23.914451632345997 M75.08188901178644 -23.914451632345997 C75.54050636983274 -23.711435332339466, 75.99912372787902 -23.50841903233293, 76.59420071041056 -23.24499610449772 M75.08188901178644 -23.914451632345997 C75.44297378610614 -23.75461011395393, 75.80405856042582 -23.594768595561867, 76.59420071041056 -23.24499610449772 M76.59420071041056 -23.24499610449772 C76.94621778616673 -23.06134902155343, 77.29823486192288 -22.87770193860914, 78.0605130395184 -22.480021901620034 M76.59420071041056 -23.24499610449772 C76.95492224868136 -23.056807909035022, 77.31564378695214 -22.868619713572322, 78.0605130395184 -22.480021901620034 M78.0605130395184 -22.480021901620034 C78.44790076209966 -22.245185187648325, 78.83528848468092 -22.01034847367661, 79.47480060722664 -21.62267246679901 M78.0605130395184 -22.480021901620034 C78.38987138953529 -22.28036293431529, 78.71922973955219 -22.08070396701054, 79.47480060722664 -21.62267246679901 M79.47480060722664 -21.62267246679901 C79.77441090231888 -21.413677294863305, 80.0740211974111 -21.204682122927604, 80.83125180255584 -20.67647083276321 M79.47480060722664 -21.62267246679901 C79.7508069315385 -21.430142403080264, 80.02681325585037 -21.23761233936152, 80.83125180255584 -20.67647083276321 M80.83125180255584 -20.67647083276321 C81.23102728045997 -20.35766052760692, 81.6308027583641 -20.03885022245063, 82.1242926765865 -19.64530514498651 M80.83125180255584 -20.67647083276321 C81.29190926589683 -20.309108764358697, 81.75256672923783 -19.941746695954183, 82.1242926765865 -19.64530514498651 M82.1242926765865 -19.64530514498651 C82.43481951532883 -19.363292886130658, 82.74534635407116 -19.081280627274808, 83.34860984701088 -18.533412684464313 M82.1242926765865 -19.64530514498651 C82.38326963068799 -19.410109127426264, 82.64224658478948 -19.174913109866015, 83.34860984701088 -18.533412684464313 M83.34860984701088 -18.533412684464313 C83.61829408657205 -18.25494156562956, 83.88797832613322 -17.976470446794806, 84.49917233196044 -17.345362455817106 M83.34860984701088 -18.533412684464313 C83.61045615344626 -18.263034875088216, 83.87230245988164 -17.992657065712116, 84.49917233196044 -17.345362455817106 M84.49917233196044 -17.345362455817106 C84.85476822710316 -16.92765928340282, 85.21036412224589 -16.509956110988536, 85.57125222338968 -16.086036412270357 M84.49917233196044 -17.345362455817106 C84.8937864047245 -16.881826311771604, 85.28840047748855 -16.418290167726106, 85.57125222338968 -16.086036412270357 M85.57125222338968 -16.086036412270357 C85.77705717799012 -15.810276522322832, 85.98286213259057 -15.534516632375308, 86.56044411506427 -14.76060939466161 M85.57125222338968 -16.086036412270357 C85.88178329160436 -15.669953070824961, 86.19231435981906 -15.253869729379566, 86.56044411506427 -14.76060939466161 M86.56044411506427 -14.76060939466161 C86.83563023067722 -14.337849623261404, 87.11081634629018 -13.915089851861197, 87.46268320532036 -13.374527866909407 M86.56044411506427 -14.76060939466161 C86.91392244924684 -14.217571751134091, 87.26740078342941 -13.67453410760657, 87.46268320532036 -13.374527866909407 M87.46268320532036 -13.374527866909407 C87.76065108152692 -12.845455730185412, 88.05861895773347 -12.316383593461417, 88.2742620002064 -11.93348753532484 M87.46268320532036 -13.374527866909407 C87.71346395979 -12.929241243043505, 87.96424471425965 -12.4839546191776, 88.2742620002064 -11.93348753532484 M88.2742620002064 -11.93348753532484 C88.43851314940945 -11.592416509593122, 88.6027642986125 -11.251345483861403, 88.99184554837109 -10.443409943732584 M88.2742620002064 -11.93348753532484 C88.54300873863961 -11.375429182709246, 88.81175547707284 -10.81737083009365, 88.99184554837109 -10.443409943732584 M88.99184554837109 -10.443409943732584 C89.19660885482118 -9.937640617971631, 89.40137216127127 -9.431871292210678, 89.61248514509381 -8.910418140577123 M88.99184554837109 -10.443409943732584 C89.18688913123285 -9.961648523152878, 89.38193271409462 -9.479887102573173, 89.61248514509381 -8.910418140577123 M89.61248514509381 -8.910418140577123 C89.79515793581363 -8.360236799885682, 89.97783072653347 -7.81005545919424, 90.1336304491449 -7.340811518003323 M89.61248514509381 -8.910418140577123 C89.73999338933551 -8.526383624600932, 89.8675016335772 -8.14234910862474, 90.1336304491449 -7.340811518003323 M90.1336304491449 -7.340811518003323 C90.25103301660002 -6.893104645702386, 90.36843558405512 -6.445397773401448, 90.55313996268467 -5.741039926302914 M90.1336304491449 -7.340811518003323 C90.2197278736828 -7.012484723380487, 90.3058252982207 -6.684157928757649, 90.55313996268467 -5.741039926302914 M90.55313996268467 -5.741039926302914 C90.65786436037672 -5.203302277663511, 90.76258875806879 -4.665564629024107, 90.86928983113748 -4.117677170096137 M90.55313996268467 -5.741039926302914 C90.6591478791489 -5.196711680040179, 90.76515579561313 -4.652383433777445, 90.86928983113748 -4.117677170096137 M90.86928983113748 -4.117677170096137 C90.91184956753555 -3.7875922589631497, 90.95440930393364 -3.457507347830162, 91.08078092687991 -2.4773939951584394 M90.86928983113748 -4.117677170096137 C90.9346669724286 -3.6106249724189245, 91.00004411371974 -3.103572774741713, 91.08078092687991 -2.4773939951584394 M91.08078092687991 -2.4773939951584394 C91.11111215397275 -2.0049606502615913, 91.1414433810656 -1.5325273053647428, 91.18674418763487 -0.8269306768952902 M91.08078092687991 -2.4773939951584394 C91.11851118139909 -1.8897148257089091, 91.15624143591828 -1.302035656259379, 91.18674418763487 -0.8269306768952902 M91.18674418763487 -0.8269306768952902 C91.18674418763487 -0.21493951523986343, 91.18674418763487 0.39705164641556334, 91.18674418763487 0.826930676895284 M91.18674418763487 -0.8269306768952902 C91.18674418763487 -0.3623930248764606, 91.18674418763487 0.10214462714236905, 91.18674418763487 0.826930676895284 M91.18674418763487 0.826930676895284 C91.16058489953188 1.2343827044966627, 91.1344256114289 1.6418347320980415, 91.08078092687991 2.4773939951584216 M91.18674418763487 0.826930676895284 C91.16217039855358 1.209687277441937, 91.13759660947228 1.5924438779885899, 91.08078092687991 2.4773939951584216 M91.08078092687991 2.4773939951584216 C91.02621218737598 2.900618362934481, 90.97164344787205 3.32384273071054, 90.86928983113748 4.117677170096119 M91.08078092687991 2.4773939951584216 C91.02819735987327 2.8852217570620953, 90.97561379286664 3.2930495189657685, 90.86928983113748 4.117677170096119 M90.86928983113748 4.117677170096119 C90.74456184952886 4.758128994388115, 90.61983386792024 5.398580818680112, 90.55313996268467 5.741039926302909 M90.86928983113748 4.117677170096119 C90.77793204465857 4.586780095190309, 90.68657425817966 5.055883020284499, 90.55313996268467 5.741039926302909 M90.55313996268467 5.741039926302909 C90.43563151720107 6.189150557414303, 90.31812307171747 6.637261188525698, 90.1336304491449 7.340811518003306 M90.55313996268467 5.741039926302909 C90.41625627664922 6.263036746920856, 90.27937259061378 6.785033567538804, 90.1336304491449 7.340811518003306 M90.1336304491449 7.340811518003306 C89.99316701275396 7.763865008603492, 89.85270357636301 8.18691849920368, 89.61248514509383 8.910418140577105 M90.1336304491449 7.340811518003306 C89.949324760885 7.895910885918563, 89.76501907262511 8.451010253833822, 89.61248514509383 8.910418140577105 M89.61248514509383 8.910418140577105 C89.45458992943769 9.300422375944107, 89.29669471378153 9.690426611311109, 88.99184554837109 10.443409943732577 M89.61248514509383 8.910418140577105 C89.42885849328225 9.363979520731514, 89.24523184147066 9.81754090088592, 88.99184554837109 10.443409943732577 M88.99184554837109 10.443409943732577 C88.80907299210772 10.822941067519698, 88.62630043584434 11.202472191306821, 88.2742620002064 11.933487535324835 M88.99184554837109 10.443409943732577 C88.74235943233143 10.961473201836668, 88.49287331629176 11.479536459940759, 88.2742620002064 11.933487535324835 M88.2742620002064 11.933487535324835 C88.00401260903016 12.41334269507656, 87.7337632178539 12.893197854828285, 87.46268320532037 13.374527866909402 M88.2742620002064 11.933487535324835 C88.06111077309004 12.311959122972176, 87.84795954597367 12.690430710619516, 87.46268320532037 13.374527866909402 M87.46268320532037 13.374527866909402 C87.20816047048044 13.765543136547592, 86.95363773564051 14.156558406185782, 86.56044411506429 14.760609394661596 M87.46268320532037 13.374527866909402 C87.2437716628184 13.710834782172402, 87.02486012031643 14.047141697435402, 86.56044411506429 14.760609394661596 M86.56044411506429 14.760609394661596 C86.34796453691936 15.04531267208801, 86.13548495877444 15.33001594951442, 85.57125222338968 16.086036412270353 M86.56044411506429 14.760609394661596 C86.21829092591517 15.219063497324644, 85.87613773676604 15.67751759998769, 85.57125222338968 16.086036412270353 M85.57125222338968 16.086036412270353 C85.34436049515358 16.352556346761542, 85.1174687669175 16.61907628125273, 84.49917233196045 17.345362455817092 M85.57125222338968 16.086036412270353 C85.15755290110941 16.571991176379054, 84.74385357882915 17.057945940487755, 84.49917233196045 17.345362455817092 M84.49917233196045 17.345362455817092 C84.1598228029973 17.695768705586016, 83.82047327403416 18.04617495535494, 83.34860984701088 18.533412684464306 M84.49917233196045 17.345362455817092 C84.04415032046658 17.815210040686416, 83.58912830897272 18.28505762555574, 83.34860984701088 18.533412684464306 M83.34860984701088 18.533412684464306 C82.91772988012193 18.924726469933653, 82.48684991323299 19.316040255403, 82.12429267658653 19.64530514498649 M83.34860984701088 18.533412684464306 C82.98658766572552 18.862191650925645, 82.62456548444015 19.190970617386984, 82.12429267658653 19.64530514498649 M82.12429267658653 19.64530514498649 C81.85181255949554 19.86260078736612, 81.57933244240455 20.07989642974575, 80.83125180255584 20.676470832763208 M82.12429267658653 19.64530514498649 C81.63182301298008 20.038036596544504, 81.13935334937364 20.430768048102514, 80.83125180255584 20.676470832763208 M80.83125180255584 20.676470832763208 C80.3455861620391 21.015250159460965, 79.85992052152234 21.354029486158723, 79.47480060722665 21.622672466799003 M80.83125180255584 20.676470832763208 C80.39517910057916 20.980656272379125, 79.95910639860246 21.284841711995046, 79.47480060722665 21.622672466799003 M79.47480060722665 21.622672466799003 C79.10404756359901 21.84742514063281, 78.73329451997135 22.07217781446662, 78.06051303951841 22.48002190162003 M79.47480060722665 21.622672466799003 C79.07926212194346 21.86245022101983, 78.68372363666025 22.10222797524066, 78.06051303951841 22.48002190162003 M78.06051303951841 22.48002190162003 C77.655977075253 22.691068055059638, 77.25144111098761 22.902114208499246, 76.59420071041058 23.244996104497716 M78.06051303951841 22.48002190162003 C77.53212932869053 22.75567934511302, 77.00374561786263 23.03133678860601, 76.59420071041058 23.244996104497716 M76.59420071041058 23.244996104497716 C76.00973986677629 23.503719582559686, 75.42527902314201 23.762443060621656, 75.08188901178644 23.914451632345994 M76.59420071041058 23.244996104497716 C76.01442628976008 23.50164504212256, 75.43465186910957 23.758293979747407, 75.08188901178644 23.914451632345994 M75.08188901178644 23.914451632345994 C74.52327269566027 24.120027600473048, 73.9646563795341 24.325603568600098, 73.52979235680553 24.485637548803172 M75.08188901178644 23.914451632345994 C74.62192623972257 24.083722184314755, 74.16196346765871 24.252992736283513, 73.52979235680553 24.485637548803172 M73.52979235680553 24.485637548803172 C73.12130679205525 24.606873920236573, 72.71282122730496 24.728110291669974, 71.94428864354681 24.95620672841954 M73.52979235680553 24.485637548803172 C73.13015014909446 24.604249258287062, 72.7305079413834 24.722860967770956, 71.94428864354681 24.95620672841954 M71.94428864354681 24.95620672841954 C71.41742781411233 25.076459274649743, 70.89056698467785 25.196711820879948, 70.33189304685754 25.324225501499278 M71.94428864354681 24.95620672841954 C71.35011825279065 25.091822242785483, 70.75594786203449 25.22743775715142, 70.33189304685754 25.324225501499278 M70.33189304685754 25.324225501499278 C69.99786197371112 25.37822905495593, 69.6638309005647 25.432232608412583, 68.69923124610233 25.588181599964017 M70.33189304685754 25.324225501499278 C69.94736393245923 25.38639318664738, 69.56283481806089 25.448560871795483, 68.69923124610233 25.588181599964017 M68.69923124610233 25.588181599964017 C68.36628259256614 25.62030075614131, 68.03333393902994 25.652419912318607, 67.05301219882529 25.746990371586765 M68.69923124610233 25.588181599964017 C68.14493499026239 25.641653893126115, 67.59063873442244 25.695126186288217, 67.05301219882529 25.746990371586765 M67.05301219882529 25.746990371586765 C66.68529132455346 25.7587824642994, 66.31757045028165 25.770574557012036, 65.40000057220459 25.799999237060547 M67.05301219882529 25.746990371586765 C66.59268872004073 25.76175204958609, 66.13236524125618 25.776513727585414, 65.40000057220459 25.799999237060547 M65.40000057220459 25.799999237060547 C65.40000057220459 25.799999237060547, 65.40000057220459 25.799999237060547, 65.40000057220459 25.799999237060547 M65.40000057220459 25.799999237060547 C65.40000057220459 25.799999237060547, 65.40000057220459 25.799999237060547, 65.40000057220459 25.799999237060547 M65.40000057220459 25.799999237060547 C21.206575581757058 25.799999237060547, -22.986849408690475 25.799999237060547, -65.40000057220459 25.799999237060547 M65.40000057220459 25.799999237060547 C25.011525806034008 25.799999237060547, -15.376948960136573 25.799999237060547, -65.40000057220459 25.799999237060547 M-65.40000057220459 25.799999237060547 C-65.88914623304893 25.78431328778154, -66.37829189389328 25.768627338502533, -67.05301219882527 25.746990371586765 M-65.40000057220459 25.799999237060547 C-65.86666149866875 25.785034329449232, -66.33332242513289 25.770069421837917, -67.05301219882527 25.746990371586765 M-67.05301219882527 25.746990371586765 C-67.49884278102789 25.7039816315114, -67.94467336323052 25.660972891436035, -68.69923124610231 25.588181599964017 M-67.05301219882527 25.746990371586765 C-67.54935738421823 25.699108548494326, -68.04570256961118 25.65122672540189, -68.69923124610231 25.588181599964017 M-68.69923124610231 25.588181599964017 C-69.34279222852317 25.48413565121617, -69.98635321094403 25.380089702468325, -70.33189304685753 25.324225501499278 M-68.69923124610231 25.588181599964017 C-69.05679157399342 25.530374019072337, -69.41435190188453 25.47256643818066, -70.33189304685753 25.324225501499278 M-70.33189304685753 25.324225501499278 C-70.96615253249908 25.179459912831543, -71.60041201814062 25.03469432416381, -71.94428864354678 24.956206728419545 M-70.33189304685753 25.324225501499278 C-70.67939795744026 25.24490977334024, -71.02690286802297 25.1655940451812, -71.94428864354678 24.956206728419545 M-71.94428864354678 24.956206728419545 C-72.5120564781628 24.787696215379693, -73.07982431277881 24.61918570233984, -73.5297923568055 24.485637548803183 M-71.94428864354678 24.956206728419545 C-72.29766408883027 24.85132675116497, -72.65103953411378 24.746446773910392, -73.5297923568055 24.485637548803183 M-73.5297923568055 24.485637548803183 C-74.11349995024271 24.270827758684444, -74.69720754367994 24.0560179685657, -75.08188901178644 23.914451632345997 M-73.5297923568055 24.485637548803183 C-73.86881937132972 24.3608724735269, -74.20784638585395 24.23610739825062, -75.08188901178644 23.914451632345997 M-75.08188901178644 23.914451632345997 C-75.59705197663095 23.68640426957573, -76.11221494147544 23.458356906805456, -76.59420071041056 23.244996104497723 M-75.08188901178644 23.914451632345997 C-75.51693350256696 23.721870341413766, -75.95197799334746 23.529289050481538, -76.59420071041056 23.244996104497723 M-76.59420071041056 23.244996104497723 C-76.98299742561778 23.042161107210298, -77.371794140825 22.839326109922872, -78.0605130395184 22.480021901620038 M-76.59420071041056 23.244996104497723 C-77.14988561421393 22.95509564611667, -77.70557051801731 22.66519518773562, -78.0605130395184 22.480021901620038 M-78.0605130395184 22.480021901620038 C-78.53266533414892 22.19380040594015, -79.00481762877943 21.90757891026026, -79.47480060722663 21.622672466799017 M-78.0605130395184 22.480021901620038 C-78.48269912955817 22.224090212797073, -78.90488521959793 21.968158523974104, -79.47480060722663 21.622672466799017 M-79.47480060722663 21.622672466799017 C-80.00640253891592 21.25184997192929, -80.53800447060522 20.88102747705956, -80.83125180255584 20.67647083276321 M-79.47480060722663 21.622672466799017 C-80.00606822925246 21.252083171878482, -80.53733585127831 20.88149387695795, -80.83125180255584 20.67647083276321 M-80.83125180255584 20.67647083276321 C-81.18212183393995 20.396661319778058, -81.53299186532404 20.11685180679291, -82.1242926765865 19.645305144986512 M-80.83125180255584 20.67647083276321 C-81.18088403538415 20.39764843118709, -81.53051626821248 20.11882602961097, -82.1242926765865 19.645305144986512 M-82.1242926765865 19.645305144986512 C-82.60817708867687 19.205854124806006, -83.09206150076724 18.766403104625503, -83.34860984701086 18.533412684464324 M-82.1242926765865 19.645305144986512 C-82.49681618457785 19.306989151460673, -82.86933969256921 18.96867315793483, -83.34860984701086 18.533412684464324 M-83.34860984701086 18.533412684464324 C-83.74830403003827 18.12069562498581, -84.14799821306568 17.7079785655073, -84.49917233196044 17.3453624558171 M-83.34860984701086 18.533412684464324 C-83.59456684821401 18.279441887276725, -83.84052384941717 18.025471090089123, -84.49917233196044 17.3453624558171 M-84.49917233196044 17.3453624558171 C-84.75663650265648 17.0429303907912, -85.01410067335252 16.7404983257653, -85.57125222338968 16.08603641227036 M-84.49917233196044 17.3453624558171 C-84.81786883561489 16.971003408279802, -85.13656533926934 16.596644360742502, -85.57125222338968 16.08603641227036 M-85.57125222338968 16.08603641227036 C-85.81661296414306 15.757275372484147, -86.06197370489645 15.428514332697935, -86.56044411506427 14.760609394661614 M-85.57125222338968 16.08603641227036 C-85.91587624759038 15.624271615735902, -86.26050027179107 15.162506819201443, -86.56044411506427 14.760609394661614 M-86.56044411506427 14.760609394661614 C-86.7582239079633 14.45676652145803, -86.95600370086233 14.152923648254449, -87.46268320532036 13.374527866909418 M-86.56044411506427 14.760609394661614 C-86.82845578527225 14.348871498011789, -87.09646745548022 13.937133601361964, -87.46268320532036 13.374527866909418 M-87.46268320532036 13.374527866909418 C-87.63417585418705 13.070025303332871, -87.80566850305372 12.765522739756323, -88.27426200020639 11.933487535324842 M-87.46268320532036 13.374527866909418 C-87.7047761489029 12.944667331009827, -87.94686909248541 12.514806795110236, -88.27426200020639 11.933487535324842 M-88.27426200020639 11.933487535324842 C-88.53906049361807 11.383627797975382, -88.80385898702976 10.833768060625923, -88.99184554837109 10.443409943732586 M-88.27426200020639 11.933487535324842 C-88.43673492176983 11.59610903733477, -88.59920784333325 11.258730539344699, -88.99184554837109 10.443409943732586 M-88.99184554837109 10.443409943732586 C-89.17728265475591 9.98537670577952, -89.36271976114072 9.527343467826455, -89.61248514509381 8.910418140577127 M-88.99184554837109 10.443409943732586 C-89.2188085292027 9.882806993047769, -89.44577151003432 9.322204042362952, -89.61248514509381 8.910418140577127 M-89.61248514509381 8.910418140577127 C-89.79239986465298 8.368543670782634, -89.97231458421214 7.826669200988139, -90.1336304491449 7.340811518003316 M-89.61248514509381 8.910418140577127 C-89.76298928381178 8.457123654336636, -89.91349342252974 8.003829168096143, -90.1336304491449 7.340811518003316 M-90.1336304491449 7.340811518003316 C-90.22689463209635 6.985154767456869, -90.32015881504779 6.629498016910423, -90.55313996268467 5.741039926302918 M-90.1336304491449 7.340811518003316 C-90.30083500316339 6.703188086618754, -90.46803955718185 6.065564655234191, -90.55313996268467 5.741039926302918 M-90.55313996268467 5.741039926302918 C-90.67531543367048 5.113694704585756, -90.79749090465629 4.486349482868594, -90.86928983113748 4.117677170096139 M-90.55313996268467 5.741039926302918 C-90.65463474311642 5.219885679715351, -90.75612952354817 4.698731433127785, -90.86928983113748 4.117677170096139 M-90.86928983113748 4.117677170096139 C-90.93597539613481 3.6004770965311605, -91.00266096113212 3.0832770229661817, -91.08078092687991 2.477393995158454 M-90.86928983113748 4.117677170096139 C-90.92541865242353 3.6823531160909204, -90.9815474737096 3.2470290620857014, -91.08078092687991 2.477393995158454 M-91.08078092687991 2.477393995158454 C-91.11518042111632 1.9415941056544224, -91.14957991535273 1.4057942161503907, -91.18674418763487 0.8269306768952934 M-91.08078092687991 2.477393995158454 C-91.11265163902752 1.980981927883693, -91.14452235117511 1.4845698606089321, -91.18674418763487 0.8269306768952934 M-91.18674418763487 0.8269306768952934 C-91.18674418763487 0.47493007632241263, -91.18674418763487 0.12292947574953184, -91.18674418763487 -0.8269306768952809 M-91.18674418763487 0.8269306768952934 C-91.18674418763487 0.4359563836455988, -91.18674418763487 0.04498209039590417, -91.18674418763487 -0.8269306768952809 M-91.18674418763487 -0.8269306768952809 C-91.16524153443572 -1.1618518571012713, -91.14373888123657 -1.4967730373072619, -91.08078092687991 -2.4773939951584185 M-91.18674418763487 -0.8269306768952809 C-91.15350841412608 -1.3446046767283286, -91.12027264061727 -1.8622786765613764, -91.08078092687991 -2.4773939951584185 M-91.08078092687991 -2.4773939951584185 C-91.0129731672694 -3.0032975885409363, -90.94516540765888 -3.529201181923454, -90.86928983113748 -4.117677170096128 M-91.08078092687991 -2.4773939951584185 C-91.02949497706216 -2.8751576943886765, -90.97820902724439 -3.2729213936189345, -90.86928983113748 -4.117677170096128 M-90.86928983113748 -4.117677170096128 C-90.74663715576905 -4.747472735460899, -90.62398448040061 -5.37726830082567, -90.55313996268467 -5.741039926302906 M-90.86928983113748 -4.117677170096128 C-90.75658469046417 -4.696394247213633, -90.64387954979087 -5.275111324331138, -90.55313996268467 -5.741039926302906 M-90.55313996268467 -5.741039926302906 C-90.42655959545762 -6.2237457268178265, -90.29997922823057 -6.706451527332747, -90.1336304491449 -7.340811518003303 M-90.55313996268467 -5.741039926302906 C-90.42452120879464 -6.231518978606117, -90.29590245490462 -6.721998030909328, -90.1336304491449 -7.340811518003303 M-90.1336304491449 -7.340811518003303 C-89.96189743892919 -7.858043982833717, -89.79016442871345 -8.375276447664131, -89.61248514509383 -8.910418140577093 M-90.1336304491449 -7.340811518003303 C-89.95016296491595 -7.893386348927019, -89.766695480687 -8.445961179850736, -89.61248514509383 -8.910418140577093 M-89.61248514509383 -8.910418140577093 C-89.43856922330333 -9.339993829835223, -89.26465330151284 -9.769569519093352, -88.99184554837109 -10.443409943732574 M-89.61248514509383 -8.910418140577093 C-89.42921518293126 -9.363098490402297, -89.2459452207687 -9.815778840227502, -88.99184554837109 -10.443409943732574 M-88.99184554837109 -10.443409943732574 C-88.76450414502547 -10.915489232106529, -88.53716274167985 -11.387568520480482, -88.2742620002064 -11.933487535324831 M-88.99184554837109 -10.443409943732574 C-88.84055329304803 -10.757571549046599, -88.68926103772496 -11.071733154360624, -88.2742620002064 -11.933487535324831 M-88.2742620002064 -11.933487535324831 C-87.95435000687868 -12.50152367408027, -87.63443801355096 -13.06955981283571, -87.46268320532036 -13.374527866909409 M-88.2742620002064 -11.933487535324831 C-88.00112428785093 -12.418471201804515, -87.72798657549544 -12.903454868284198, -87.46268320532036 -13.374527866909409 M-87.46268320532036 -13.374527866909409 C-87.2721682807987 -13.667209951395048, -87.08165335627704 -13.959892035880687, -86.56044411506429 -14.760609394661605 M-87.46268320532036 -13.374527866909409 C-87.26659968745957 -13.675764806140636, -87.07051616959879 -13.977001745371862, -86.56044411506429 -14.760609394661605 M-86.56044411506429 -14.760609394661605 C-86.33917877986697 -15.057084786139292, -86.11791344466965 -15.353560177616977, -85.57125222338968 -16.086036412270353 M-86.56044411506429 -14.760609394661605 C-86.20653650015707 -15.234813356990285, -85.85262888524984 -15.709017319318965, -85.57125222338968 -16.086036412270353 M-85.57125222338968 -16.086036412270353 C-85.15262678636618 -16.577777671060318, -84.7340013493427 -17.06951892985028, -84.49917233196045 -17.345362455817092 M-85.57125222338968 -16.086036412270353 C-85.34229940859142 -16.35497741631662, -85.11334659379315 -16.623918420362884, -84.49917233196045 -17.345362455817092 M-84.49917233196045 -17.345362455817092 C-84.06948219156202 -17.789052803995087, -83.63979205116358 -18.232743152173086, -83.34860984701089 -18.5334126844643 M-84.49917233196045 -17.345362455817092 C-84.07016956508244 -17.78834303440084, -83.64116679820442 -18.231323612984585, -83.34860984701089 -18.5334126844643 M-83.34860984701089 -18.5334126844643 C-82.96603098155734 -18.88086068758713, -82.58345211610379 -19.228308690709966, -82.12429267658653 -19.645305144986487 M-83.34860984701089 -18.5334126844643 C-83.0401347739158 -18.813561584046077, -82.73165970082071 -19.093710483627856, -82.12429267658653 -19.645305144986487 M-82.12429267658653 -19.645305144986487 C-81.83512875433114 -19.875905678010028, -81.54596483207574 -20.10650621103357, -80.83125180255585 -20.676470832763204 M-82.12429267658653 -19.645305144986487 C-81.79427150844232 -19.908488244349382, -81.46425034029811 -20.171671343712276, -80.83125180255585 -20.676470832763204 M-80.83125180255585 -20.676470832763204 C-80.37069169005098 -20.99773762992067, -79.9101315775461 -21.319004427078138, -79.47480060722665 -21.622672466799 M-80.83125180255585 -20.676470832763204 C-80.31621710902681 -21.03573673947652, -79.80118241549776 -21.395002646189834, -79.47480060722665 -21.622672466799 M-79.47480060722665 -21.622672466799 C-78.9225492672361 -21.957450474490376, -78.37029792724556 -22.292228482181756, -78.06051303951841 -22.480021901620027 M-79.47480060722665 -21.622672466799 C-79.17225293580334 -21.806078643183277, -78.86970526438004 -21.989484819567554, -78.06051303951841 -22.480021901620027 M-78.06051303951841 -22.480021901620027 C-77.5356238482066 -22.753856256519825, -77.0107346568948 -23.027690611419622, -76.59420071041058 -23.244996104497716 M-78.06051303951841 -22.480021901620027 C-77.74168221365389 -22.646355739252662, -77.42285138778935 -22.812689576885298, -76.59420071041058 -23.244996104497716 M-76.59420071041058 -23.244996104497716 C-76.02651781058985 -23.49629248453344, -75.45883491076914 -23.747588864569163, -75.08188901178646 -23.91445163234599 M-76.59420071041058 -23.244996104497716 C-76.19708186299405 -23.42078883813695, -75.79996301557753 -23.596581571776184, -75.08188901178646 -23.91445163234599 M-75.08188901178646 -23.91445163234599 C-74.52598288315946 -24.119030226420648, -73.97007675453247 -24.323608820495302, -73.52979235680553 -24.485637548803172 M-75.08188901178646 -23.91445163234599 C-74.49469414400988 -24.130544771657622, -73.90749927623332 -24.346637910969257, -73.52979235680553 -24.485637548803172 M-73.52979235680553 -24.485637548803172 C-73.02035409741634 -24.63683615009389, -72.51091583802716 -24.788034751384608, -71.94428864354681 -24.956206728419538 M-73.52979235680553 -24.485637548803172 C-73.19041921022564 -24.586361717302086, -72.85104606364574 -24.687085885801, -71.94428864354681 -24.956206728419538 M-71.94428864354681 -24.956206728419538 C-71.58123560469153 -25.03907121539577, -71.21818256583626 -25.121935702372003, -70.33189304685754 -25.324225501499278 M-71.94428864354681 -24.956206728419538 C-71.44518321951196 -25.070124284488223, -70.94607779547711 -25.184041840556905, -70.33189304685754 -25.324225501499278 M-70.33189304685754 -25.324225501499278 C-69.85049615030384 -25.40205401844539, -69.36909925375015 -25.479882535391503, -68.69923124610233 -25.588181599964017 M-70.33189304685754 -25.324225501499278 C-69.70306550300567 -25.425889462158814, -69.0742379591538 -25.527553422818347, -68.69923124610233 -25.588181599964017 M-68.69923124610233 -25.588181599964017 C-68.22528414643332 -25.633902706664305, -67.75133704676432 -25.679623813364593, -67.05301219882529 -25.746990371586765 M-68.69923124610233 -25.588181599964017 C-68.26528855299402 -25.63004352967573, -67.83134585988572 -25.671905459387446, -67.05301219882529 -25.746990371586765 M-67.05301219882529 -25.746990371586765 C-66.64333664657019 -25.7601278691625, -66.2336610943151 -25.77326536673823, -65.4000005722046 -25.799999237060547 M-67.05301219882529 -25.746990371586765 C-66.5994455542917 -25.76153537106304, -66.14587890975812 -25.776080370539315, -65.4000005722046 -25.799999237060547 M-65.4000005722046 -25.799999237060547 C-65.4000005722046 -25.799999237060547, -65.4000005722046 -25.799999237060547, -65.40000057220459 -25.799999237060547 M-65.4000005722046 -25.799999237060547 C-65.4000005722046 -25.799999237060547, -65.40000057220459 -25.799999237060547, -65.40000057220459 -25.799999237060547" stroke="#555555" stroke-width="1.3" fill="none" stroke-dasharray="0 0" style=""></path></g><g class="label" style="" transform="translate(0, -18.299999237060547)"><rect></rect><g><rect class="background" style="stroke: none"></rect><text y="-10.1" style=""><tspan class="text-outer-tspan row" x="0" y="-0.1em" dy="1.1em"><tspan font-style="normal" class="text-inner-tspan" font-weight="normal">PaintInvalidator</tspan><tspan font-style="normal" class="text-inner-tspan" font-weight="normal"> visits</tspan></tspan><tspan class="text-outer-tspan row" x="0" y="1em" dy="1.1em"><tspan font-style="normal" class="text-inner-tspan" font-weight="normal">LayoutObject</tspan></tspan></text></g></g></g><g class="node default" id="g0dd78c12-a0c7-4991-baea-c17349821a9c-dark-flowchart-Cmp-2" data-look="classic" transform="translate(372.03125, 178.0999984741211)"><rect class="basic label-container" style="" x="-109.046875" y="-68.5" width="218.09375" height="137"></rect><g class="label" style="" transform="translate(0, -53.5)"><rect></rect><g><rect class="background" style="stroke: none"></rect><text y="-10.1" style=""><tspan class="text-outer-tspan row" x="0" y="-0.1em" dy="1.1em"><tspan font-style="normal" class="text-inner-tspan" font-weight="normal">Compare</tspan><tspan font-style="normal" class="text-inner-tspan" font-weight="normal"> current</tspan><tspan font-style="normal" class="text-inner-tspan" font-weight="normal"> vs</tspan></tspan><tspan class="text-outer-tspan row" x="0" y="1em" dy="1.1em"><tspan font-style="normal" class="text-inner-tspan" font-weight="normal">cached:</tspan></tspan><tspan class="text-outer-tspan row" x="0" y="2.1em" dy="1.1em"><tspan font-style="normal" class="text-inner-tspan" font-weight="normal">computed</tspan><tspan font-style="normal" class="text-inner-tspan" font-weight="normal"> style,</tspan><tspan font-style="normal" class="text-inner-tspan" font-weight="normal"> paint</tspan></tspan><tspan class="text-outer-tspan row" x="0" y="3.2em" dy="1.1em"><tspan font-style="normal" class="text-inner-tspan" font-weight="normal">offset,</tspan></tspan><tspan class="text-outer-tspan row" x="0" y="4.300000000000001em" dy="1.1em"><tspan font-style="normal" class="text-inner-tspan" font-weight="normal">visual</tspan><tspan font-style="normal" class="text-inner-tspan" font-weight="normal"> rect,</tspan></tspan><tspan class="text-outer-tspan row" x="0" y="5.4em" dy="1.1em"><tspan font-style="normal" class="text-inner-tspan" font-weight="normal">PropertyTreeState</tspan></tspan></text></g></g></g><g class="node default" id="g0dd78c12-a0c7-4991-baea-c17349821a9c-dark-flowchart-Q1-4" data-look="classic" transform="translate(372.03125, 426.9546890258789)"><polygon points="130.35468673706055,0 260.7093734741211,-130.35468673706055 130.35468673706055,-260.7093734741211 0,-130.35468673706055" class="label-container" transform="translate(-129.85468673706055, 130.35468673706055)"></polygon><g class="label" style="" transform="translate(0, -18.299999237060547)"><rect></rect><g><rect class="background" style="stroke: none"></rect><text y="-10.1" style=""><tspan class="text-outer-tspan row" x="0" y="-0.1em" dy="1.1em"><tspan font-style="normal" class="text-inner-tspan" font-weight="normal">PropertyTreeState</tspan><tspan font-style="normal" class="text-inner-tspan" font-weight="normal"> changed</tspan></tspan><tspan class="text-outer-tspan row" x="0" y="1em" dy="1.1em"><tspan font-style="normal" class="text-inner-tspan" font-weight="normal">OR</tspan><tspan font-style="normal" class="text-inner-tspan" font-weight="normal"> chunk</tspan><tspan font-style="normal" class="text-inner-tspan" font-weight="normal"> order</tspan><tspan font-style="normal" class="text-inner-tspan" font-weight="normal"> changed?</tspan></tspan></text></g></g></g><g class="node default" id="g0dd78c12-a0c7-4991-baea-c17349821a9c-dark-flowchart-Chunk-6" data-look="classic" transform="translate(97.3046875, 969.5593757629395)"><rect class="basic label-container" style="fill:#661925 !important;stroke:#c62828 !important" x="-89.3046875" y="-33.29999923706055" width="178.609375" height="66.5999984741211"></rect><g class="label" style="" transform="translate(0, -18.299999237060547)"><rect></rect><g><rect class="background" style="stroke: none"></rect><text y="-10.1" style=""><tspan class="text-outer-tspan row" x="0" y="-0.1em" dy="1.1em"><tspan font-style="normal" class="text-inner-tspan" font-weight="normal">Invalidate</tspan><tspan font-style="normal" class="text-inner-tspan" font-weight="normal"> whole</tspan></tspan><tspan class="text-outer-tspan row" x="0" y="1em" dy="1.1em"><tspan font-style="normal" class="text-inner-tspan" font-weight="normal">PaintChunk</tspan></tspan></text></g></g></g><g class="node default" id="g0dd78c12-a0c7-4991-baea-c17349821a9c-dark-flowchart-Q2-8" data-look="classic" transform="translate(497.93359375, 746.7843780517578)"><polygon points="116.4749984741211,0 232.9499969482422,-116.4749984741211 116.4749984741211,-232.9499969482422 0,-116.4749984741211" class="label-container" transform="translate(-115.9749984741211, 116.4749984741211)"></polygon><g class="label" style="" transform="translate(0, -27.099998474121094)"><rect></rect><g><rect class="background" style="stroke: none"></rect><text y="-10.1" style=""><tspan class="text-outer-tspan row" x="0" y="-0.1em" dy="1.1em"><tspan font-style="normal" class="text-inner-tspan" font-weight="normal">Display</tspan><tspan font-style="normal" class="text-inner-tspan" font-weight="normal"> item</tspan><tspan font-style="normal" class="text-inner-tspan" font-weight="normal"> content</tspan></tspan><tspan class="text-outer-tspan row" x="0" y="1em" dy="1.1em"><tspan font-style="normal" class="text-inner-tspan" font-weight="normal">(geometry</tspan><tspan font-style="normal" class="text-inner-tspan" font-weight="normal"> /</tspan><tspan font-style="normal" class="text-inner-tspan" font-weight="normal"> style)</tspan></tspan><tspan class="text-outer-tspan row" x="0" y="2.1em" dy="1.1em"><tspan font-style="normal" class="text-inner-tspan" font-weight="normal">changed?</tspan></tspan></text></g></g></g><g class="node default" id="g0dd78c12-a0c7-4991-baea-c17349821a9c-dark-flowchart-Item-10" data-look="classic" transform="translate(349.109375, 969.5593757629395)"><rect class="basic label-container" style="fill:#665e19 !important;stroke:#f9a825 !important" x="-112.5" y="-33.29999923706055" width="225" height="66.5999984741211"></rect><g class="label" style="" transform="translate(0, -18.299999237060547)"><rect></rect><g><rect class="background" style="stroke: none"></rect><text y="-10.1" style=""><tspan class="text-outer-tspan row" x="0" y="-0.1em" dy="1.1em"><tspan font-style="normal" class="text-inner-tspan" font-weight="normal">Mark</tspan><tspan font-style="normal" class="text-inner-tspan" font-weight="normal"> single</tspan></tspan><tspan class="text-outer-tspan row" x="0" y="1em" dy="1.1em"><tspan font-style="normal" class="text-inner-tspan" font-weight="normal">DisplayItemClient</tspan><tspan font-style="normal" class="text-inner-tspan" font-weight="normal"> dirty</tspan></tspan></text></g></g></g><g class="node default" id="g0dd78c12-a0c7-4991-baea-c17349821a9c-dark-flowchart-Reuse-12" data-look="classic" transform="translate(642.59765625, 969.5593757629395)"><rect class="basic label-container" style="fill:#27592a !important;stroke:#2e7d32 !important" x="-126.828125" y="-33.29999923706055" width="253.65625" height="66.5999984741211"></rect><g class="label" style="" transform="translate(0, -18.299999237060547)"><rect></rect><g><rect class="background" style="stroke: none"></rect><text y="-10.1" style=""><tspan class="text-outer-tspan row" x="0" y="-0.1em" dy="1.1em"><tspan font-style="normal" class="text-inner-tspan" font-weight="normal">Reuse</tspan><tspan font-style="normal" class="text-inner-tspan" font-weight="normal"> from</tspan><tspan font-style="normal" class="text-inner-tspan" font-weight="normal"> PaintController</tspan></tspan><tspan class="text-outer-tspan row" x="0" y="1em" dy="1.1em"><tspan font-style="normal" class="text-inner-tspan" font-weight="normal">cache</tspan></tspan></text></g></g></g><g class="node default" id="g0dd78c12-a0c7-4991-baea-c17349821a9c-dark-flowchart-Paint-14" data-look="classic" transform="translate(223.20703125, 1094.959373474121)"><rect class="basic label-container" style="" x="-119.40625" y="-33.29999923706055" width="238.8125" height="66.5999984741211"></rect><g class="label" style="" transform="translate(0, -18.299999237060547)"><rect></rect><g><rect class="background" style="stroke: none"></rect><text y="-10.1" style=""><tspan class="text-outer-tspan row" x="0" y="-0.1em" dy="1.1em"><tspan font-style="normal" class="text-inner-tspan" font-weight="normal">Paint</tspan><tspan font-style="normal" class="text-inner-tspan" font-weight="normal"> stage</tspan><tspan font-style="normal" class="text-inner-tspan" font-weight="normal"> re-records</tspan></tspan><tspan class="text-outer-tspan row" x="0" y="1em" dy="1.1em"><tspan font-style="normal" class="text-inner-tspan" font-weight="normal">the</tspan><tspan font-style="normal" class="text-inner-tspan" font-weight="normal"> chunk's</tspan><tspan font-style="normal" class="text-inner-tspan" font-weight="normal"> display</tspan><tspan font-style="normal" class="text-inner-tspan" font-weight="normal"> items</tspan></tspan></text></g></g></g><g class="node default" id="g0dd78c12-a0c7-4991-baea-c17349821a9c-dark-flowchart-Skip-18" data-look="classic" transform="translate(642.59765625, 1094.959373474121)"><rect class="basic label-container" style="" x="-128.2421875" y="-42.099998474121094" width="256.484375" height="84.19999694824219"></rect><g class="label" style="" transform="translate(0, -27.099998474121094)"><rect></rect><g><rect class="background" style="stroke: none"></rect><text y="-10.1" style=""><tspan class="text-outer-tspan row" x="0" y="-0.1em" dy="1.1em"><tspan font-style="normal" class="text-inner-tspan" font-weight="normal">Paint</tspan><tspan font-style="normal" class="text-inner-tspan" font-weight="normal"> stage</tspan><tspan font-style="normal" class="text-inner-tspan" font-weight="normal"> skips</tspan><tspan font-style="normal" class="text-inner-tspan" font-weight="normal"> re-record;</tspan></tspan><tspan class="text-outer-tspan row" x="0" y="1em" dy="1.1em"><tspan font-style="normal" class="text-inner-tspan" font-weight="normal">cached</tspan><tspan font-style="normal" class="text-inner-tspan" font-weight="normal"> display</tspan><tspan font-style="normal" class="text-inner-tspan" font-weight="normal"> items</tspan></tspan><tspan class="text-outer-tspan row" x="0" y="2.1em" dy="1.1em"><tspan font-style="normal" class="text-inner-tspan" font-weight="normal">reused</tspan></tspan></text></g></g></g></g></g></g><defs><filter id="g0dd78c12-a0c7-4991-baea-c17349821a9c-dark-drop-shadow" height="130%" width="130%"><feDropShadow dx="4" dy="4" stdDeviation="0" flood-opacity="0.06" flood-color="#000000"></feDropShadow></filter></defs><defs><filter id="g0dd78c12-a0c7-4991-baea-c17349821a9c-dark-drop-shadow-small" height="150%" width="150%"><feDropShadow dx="2" dy="2" stdDeviation="0" flood-opacity="0.06" flood-color="#000000"></feDropShadow></filter></defs><linearGradient id="g0dd78c12-a0c7-4991-baea-c17349821a9c-dark-gradient" gradientUnits="objectBoundingBox" x1="0%" y1="0%" x2="100%" y2="0%"><stop offset="0%" stop-color="#555555" stop-opacity="1"></stop><stop offset="100%" stop-color="#555555" stop-opacity="1"></stop></linearGradient></svg>