<svg id="gabc1d408-ab5f-45e3-9670-762089166bd5-light" width="100%" xmlns="http://www.w3.org/2000/svg" xmlns:xlink="http://www.w3.org/1999/xlink" class="flowchart" style="max-width: 1192.05078125px;" viewBox="0 0 1192.05078125 1006.1531372070312" role="graphics-document document" aria-roledescription="flowchart-v2"><style>#gabc1d408-ab5f-45e3-9670-762089166bd5-light{font-family:"trebuchet ms",verdana,arial,sans-serif;font-size:16px;fill:#333;}@keyframes edge-animation-frame{from{stroke-dashoffset:0;}}@keyframes dash{to{stroke-dashoffset:0;}}#gabc1d408-ab5f-45e3-9670-762089166bd5-light .edge-animation-slow{stroke-dasharray:9,5!important;stroke-dashoffset:900;animation:dash 50s linear infinite;stroke-linecap:round;}#gabc1d408-ab5f-45e3-9670-762089166bd5-light .edge-animation-fast{stroke-dasharray:9,5!important;stroke-dashoffset:900;animation:dash 20s linear infinite;stroke-linecap:round;}#gabc1d408-ab5f-45e3-9670-762089166bd5-light .error-icon{fill:#552222;}#gabc1d408-ab5f-45e3-9670-762089166bd5-light .error-text{fill:#552222;stroke:#552222;}#gabc1d408-ab5f-45e3-9670-762089166bd5-light .edge-thickness-normal{stroke-width:1px;}#gabc1d408-ab5f-45e3-9670-762089166bd5-light .edge-thickness-thick{stroke-width:3.5px;}#gabc1d408-ab5f-45e3-9670-762089166bd5-light .edge-pattern-solid{stroke-dasharray:0;}#gabc1d408-ab5f-45e3-9670-762089166bd5-light .edge-thickness-invisible{stroke-width:0;fill:none;}#gabc1d408-ab5f-45e3-9670-762089166bd5-light .edge-pattern-dashed{stroke-dasharray:3;}#gabc1d408-ab5f-45e3-9670-762089166bd5-light .edge-pattern-dotted{stroke-dasharray:2;}#gabc1d408-ab5f-45e3-9670-762089166bd5-light .marker{fill:#333333;stroke:#333333;}#gabc1d408-ab5f-45e3-9670-762089166bd5-light .marker.cross{stroke:#333333;}#gabc1d408-ab5f-45e3-9670-762089166bd5-light svg{font-family:"trebuchet ms",verdana,arial,sans-serif;font-size:16px;}#gabc1d408-ab5f-45e3-9670-762089166bd5-light p{margin:0;}#gabc1d408-ab5f-45e3-9670-762089166bd5-light .label{font-family:"trebuchet ms",verdana,arial,sans-serif;color:#333;}#gabc1d408-ab5f-45e3-9670-762089166bd5-light .cluster-label text{fill:#333;}#gabc1d408-ab5f-45e3-9670-762089166bd5-light .cluster-label span{color:#333;}#gabc1d408-ab5f-45e3-9670-762089166bd5-light .cluster-label span p{background-color:transparent;}#gabc1d408-ab5f-45e3-9670-762089166bd5-light .label text,#gabc1d408-ab5f-45e3-9670-762089166bd5-light span{fill:#333;color:#333;}#gabc1d408-ab5f-45e3-9670-762089166bd5-light .node rect,#gabc1d408-ab5f-45e3-9670-762089166bd5-light .node circle,#gabc1d408-ab5f-45e3-9670-762089166bd5-light .node ellipse,#gabc1d408-ab5f-45e3-9670-762089166bd5-light .node polygon,#gabc1d408-ab5f-45e3-9670-762089166bd5-light .node path{fill:#ECECFF;stroke:#9370DB;stroke-width:1px;}#gabc1d408-ab5f-45e3-9670-762089166bd5-light .rough-node .label text,#gabc1d408-ab5f-45e3-9670-762089166bd5-light .node .label text,#gabc1d408-ab5f-45e3-9670-762089166bd5-light .image-shape .label,#gabc1d408-ab5f-45e3-9670-762089166bd5-light .icon-shape .label{text-anchor:middle;}#gabc1d408-ab5f-45e3-9670-762089166bd5-light .node .katex path{fill:#000;stroke:#000;stroke-width:1px;}#gabc1d408-ab5f-45e3-9670-762089166bd5-light .rough-node .label,#gabc1d408-ab5f-45e3-9670-762089166bd5-light .node .label,#gabc1d408-ab5f-45e3-9670-762089166bd5-light .image-shape .label,#gabc1d408-ab5f-45e3-9670-762089166bd5-light .icon-shape .label{text-align:center;}#gabc1d408-ab5f-45e3-9670-762089166bd5-light .node.clickable{cursor:pointer;}#gabc1d408-ab5f-45e3-9670-762089166bd5-light .root .anchor path{fill:#333333!important;stroke-width:0;stroke:#333333;}#gabc1d408-ab5f-45e3-9670-762089166bd5-light .arrowheadPath{fill:#333333;}#gabc1d408-ab5f-45e3-9670-762089166bd5-light .edgePath .path{stroke:#333333;stroke-width:1px;}#gabc1d408-ab5f-45e3-9670-762089166bd5-light .flowchart-link{stroke:#333333;fill:none;}#gabc1d408-ab5f-45e3-9670-762089166bd5-light .edgeLabel{background-color:rgba(232,232,232, 0.8);text-align:center;}#gabc1d408-ab5f-45e3-9670-762089166bd5-light .edgeLabel p{background-color:rgba(232,232,232, 0.8);}#gabc1d408-ab5f-45e3-9670-762089166bd5-light .edgeLabel rect{opacity:0.5;background-color:rgba(232,232,232, 0.8);fill:rgba(232,232,232, 0.8);}#gabc1d408-ab5f-45e3-9670-762089166bd5-light .labelBkg{background-color:rgba(232, 232, 232, 0.5);}#gabc1d408-ab5f-45e3-9670-762089166bd5-light .cluster rect{fill:#ffffde;stroke:#aaaa33;stroke-width:1px;}#gabc1d408-ab5f-45e3-9670-762089166bd5-light .cluster text{fill:#333;}#gabc1d408-ab5f-45e3-9670-762089166bd5-light .cluster span{color:#333;}#gabc1d408-ab5f-45e3-9670-762089166bd5-light div.mermaidTooltip{position:absolute;text-align:center;max-width:200px;padding:2px;font-family:"trebuchet ms",verdana,arial,sans-serif;font-size:12px;background:hsl(80, 100%, 96.2745098039%);border:1px solid #aaaa33;border-radius:2px;pointer-events:none;z-index:100;}#gabc1d408-ab5f-45e3-9670-762089166bd5-light .flowchartTitleText{text-anchor:middle;font-size:18px;fill:#333;}#gabc1d408-ab5f-45e3-9670-762089166bd5-light rect.text{fill:none;stroke-width:0;}#gabc1d408-ab5f-45e3-9670-762089166bd5-light .icon-shape,#gabc1d408-ab5f-45e3-9670-762089166bd5-light .image-shape{background-color:rgba(232,232,232, 0.8);text-align:center;}#gabc1d408-ab5f-45e3-9670-762089166bd5-light .icon-shape p,#gabc1d408-ab5f-45e3-9670-762089166bd5-light .image-shape p{background-color:rgba(232,232,232, 0.8);padding:2px;}#gabc1d408-ab5f-45e3-9670-762089166bd5-light .icon-shape .label rect,#gabc1d408-ab5f-45e3-9670-762089166bd5-light .image-shape .label rect{opacity:0.5;background-color:rgba(232,232,232, 0.8);fill:rgba(232,232,232, 0.8);}#gabc1d408-ab5f-45e3-9670-762089166bd5-light .label-icon{display:inline-block;height:1em;overflow:visible;vertical-align:-0.125em;}#gabc1d408-ab5f-45e3-9670-762089166bd5-light .node .label-icon path{fill:currentColor;stroke:revert;stroke-width:revert;}#gabc1d408-ab5f-45e3-9670-762089166bd5-light .node .neo-node{stroke:#9370DB;}#gabc1d408-ab5f-45e3-9670-762089166bd5-light [data-look="neo"].node rect,#gabc1d408-ab5f-45e3-9670-762089166bd5-light [data-look="neo"].cluster rect,#gabc1d408-ab5f-45e3-9670-762089166bd5-light [data-look="neo"].node polygon{stroke:#9370DB;filter:drop-shadow(1px 2px 2px rgba(185, 185, 185, 1));}#gabc1d408-ab5f-45e3-9670-762089166bd5-light [data-look="neo"].node path{stroke:#9370DB;stroke-width:1px;}#gabc1d408-ab5f-45e3-9670-762089166bd5-light [data-look="neo"].node .outer-path{filter:drop-shadow(1px 2px 2px rgba(185, 185, 185, 1));}#gabc1d408-ab5f-45e3-9670-762089166bd5-light [data-look="neo"].node .neo-line path{stroke:#9370DB;filter:none;}#gabc1d408-ab5f-45e3-9670-762089166bd5-light [data-look="neo"].node circle{stroke:#9370DB;filter:drop-shadow(1px 2px 2px rgba(185, 185, 185, 1));}#gabc1d408-ab5f-45e3-9670-762089166bd5-light [data-look="neo"].node circle .state-start{fill:#000000;}#gabc1d408-ab5f-45e3-9670-762089166bd5-light [data-look="neo"].icon-shape .icon{fill:#9370DB;filter:drop-shadow(1px 2px 2px rgba(185, 185, 185, 1));}#gabc1d408-ab5f-45e3-9670-762089166bd5-light [data-look="neo"].icon-shape .icon-neo path{stroke:#9370DB;filter:drop-shadow(1px 2px 2px rgba(185, 185, 185, 1));}#gabc1d408-ab5f-45e3-9670-762089166bd5-light :root{--mermaid-font-family:"trebuchet ms",verdana,arial,sans-serif;}</style><g><marker id="gabc1d408-ab5f-45e3-9670-762089166bd5-light_flowchart-v2-pointEnd" class="marker flowchart-v2" viewBox="0 0 10 10" refX="5" refY="5" markerUnits="userSpaceOnUse" markerWidth="8" markerHeight="8" orient="auto"><path d="M 0 0 L 10 5 L 0 10 z" class="arrowMarkerPath" style="stroke-width: 1; stroke-dasharray: 1, 0;"></path></marker><marker id="gabc1d408-ab5f-45e3-9670-762089166bd5-light_flowchart-v2-pointStart" class="marker flowchart-v2" viewBox="0 0 10 10" refX="4.5" refY="5" markerUnits="userSpaceOnUse" markerWidth="8" markerHeight="8" orient="auto"><path d="M 0 5 L 10 10 L 10 0 z" class="arrowMarkerPath" style="stroke-width: 1; stroke-dasharray: 1, 0;"></path></marker><marker id="gabc1d408-ab5f-45e3-9670-762089166bd5-light_flowchart-v2-pointEnd-margin" class="marker flowchart-v2" viewBox="0 0 11.5 14" refX="11.5" refY="7" markerUnits="userSpaceOnUse" markerWidth="10.5" markerHeight="14" orient="auto"><path d="M 0 0 L 11.5 7 L 0 14 z" class="arrowMarkerPath" style="stroke-width: 0; stroke-dasharray: 1, 0;"></path></marker><marker id="gabc1d408-ab5f-45e3-9670-762089166bd5-light_flowchart-v2-pointStart-margin" class="marker flowchart-v2" viewBox="0 0 11.5 14" refX="1" refY="7" markerUnits="userSpaceOnUse" markerWidth="11.5" markerHeight="14" orient="auto"><polygon points="0,7 11.5,14 11.5,0" class="arrowMarkerPath" style="stroke-width: 0; stroke-dasharray: 1, 0;"></polygon></marker><marker id="gabc1d408-ab5f-45e3-9670-762089166bd5-light_flowchart-v2-circleEnd" class="marker flowchart-v2" viewBox="0 0 10 10" refX="11" refY="5" markerUnits="userSpaceOnUse" markerWidth="11" markerHeight="11" orient="auto"><circle cx="5" cy="5" r="5" class="arrowMarkerPath" style="stroke-width: 1; stroke-dasharray: 1, 0;"></circle></marker><marker id="gabc1d408-ab5f-45e3-9670-762089166bd5-light_flowchart-v2-circleStart" class="marker flowchart-v2" viewBox="0 0 10 10" refX="-1" refY="5" markerUnits="userSpaceOnUse" markerWidth="11" markerHeight="11" orient="auto"><circle cx="5" cy="5" r="5" class="arrowMarkerPath" style="stroke-width: 1; stroke-dasharray: 1, 0;"></circle></marker><marker id="gabc1d408-ab5f-45e3-9670-762089166bd5-light_flowchart-v2-circleEnd-margin" class="marker flowchart-v2" viewBox="0 0 10 10" refY="5" refX="12.25" markerUnits="userSpaceOnUse" markerWidth="14" markerHeight="14" orient="auto"><circle cx="5" cy="5" r="5" class="arrowMarkerPath" style="stroke-width: 0; stroke-dasharray: 1, 0;"></circle></marker><marker id="gabc1d408-ab5f-45e3-9670-762089166bd5-light_flowchart-v2-circleStart-margin" class="marker flowchart-v2" viewBox="0 0 10 10" refX="-2" refY="5" markerUnits="userSpaceOnUse" markerWidth="14" markerHeight="14" orient="auto"><circle cx="5" cy="5" r="5" class="arrowMarkerPath" style="stroke-width: 0; stroke-dasharray: 1, 0;"></circle></marker><marker id="gabc1d408-ab5f-45e3-9670-762089166bd5-light_flowchart-v2-crossEnd" class="marker cross flowchart-v2" viewBox="0 0 11 11" refX="12" refY="5.2" markerUnits="userSpaceOnUse" markerWidth="11" markerHeight="11" orient="auto"><path d="M 1,1 l 9,9 M 10,1 l -9,9" class="arrowMarkerPath" style="stroke-width: 2; stroke-dasharray: 1, 0;"></path></marker><marker id="gabc1d408-ab5f-45e3-9670-762089166bd5-light_flowchart-v2-crossStart" class="marker cross flowchart-v2" viewBox="0 0 11 11" refX="-1" refY="5.2" markerUnits="userSpaceOnUse" markerWidth="11" markerHeight="11" orient="auto"><path d="M 1,1 l 9,9 M 10,1 l -9,9" class="arrowMarkerPath" style="stroke-width: 2; stroke-dasharray: 1, 0;"></path></marker><marker id="gabc1d408-ab5f-45e3-9670-762089166bd5-light_flowchart-v2-crossEnd-margin" class="marker cross flowchart-v2" viewBox="0 0 15 15" refX="17.7" refY="7.5" markerUnits="userSpaceOnUse" markerWidth="12" markerHeight="12" orient="auto"><path d="M 1,1 L 14,14 M 1,14 L 14,1" class="arrowMarkerPath" style="stroke-width: 2.5;"></path></marker><marker id="gabc1d408-ab5f-45e3-9670-762089166bd5-light_flowchart-v2-crossStart-margin" class="marker cross flowchart-v2" viewBox="0 0 15 15" refX="-3.5" refY="7.5" markerUnits="userSpaceOnUse" markerWidth="12" markerHeight="12" orient="auto"><path d="M 1,1 L 14,14 M 1,14 L 14,1" class="arrowMarkerPath" style="stroke-width: 2.5; stroke-dasharray: 1, 0;"></path></marker><g class="root"><g class="clusters"></g><g class="edgePaths"><path d="M514.117,42.5L514.034,46.583C513.951,50.667,513.784,58.833,513.701,66.417C513.617,74,513.617,81,513.617,84.5L513.617,88" id="gabc1d408-ab5f-45e3-9670-762089166bd5-light-L_Start_Q1_0" class="edge-thickness-normal edge-pattern-solid edge-thickness-normal edge-pattern-solid flowchart-link" style=";" data-edge="true" data-et="edge" data-id="L_Start_Q1_0" data-points="W3sieCI6NTE0LjExNzE4NzUsInkiOjQyLjV9LHsieCI6NTEzLjYxNzE4NzUsInkiOjY3fSx7IngiOjUxMy42MTcxODc1MDAwMDAxLCJ5Ijo5Mi4wMDAwMDAwMDAwMDAwMX1d" data-look="classic" marker-end="url(#gabc1d408-ab5f-45e3-9670-762089166bd5-light_flowchart-v2-pointEnd)"></path><path d="M440.964,252.156L410.755,270.349C380.545,288.541,320.126,324.925,289.917,350.585C259.707,376.245,259.707,391.181,259.707,398.649L259.707,406.117" id="gabc1d408-ab5f-45e3-9670-762089166bd5-light-L_Q1_Hash_0" class="edge-thickness-normal edge-pattern-solid edge-thickness-normal edge-pattern-solid flowchart-link" style=";" data-edge="true" data-et="edge" data-id="L_Q1_Hash_0" data-points="W3sieCI6NDQwLjk2NDE1NDg3NjI4MzIsInkiOjI1Mi4xNTYzMzkzMjQ1MjU0fSx7IngiOjI1OS43MDcwMzEyNSwieSI6MzYxLjMwOTM3MTk0ODI0MjJ9LHsieCI6MjU5LjcwNzAzMTI1LCJ5Ijo0MTAuMTE3MTg3NX1d" data-look="classic" marker-end="url(#gabc1d408-ab5f-45e3-9670-762089166bd5-light_flowchart-v2-pointEnd)"></path><path d="M214.271,557.884L199.02,575.058C183.769,592.232,153.267,626.58,138.017,653.381C122.766,680.182,122.766,699.436,122.766,709.064L122.766,718.691" id="gabc1d408-ab5f-45e3-9670-762089166bd5-light-L_Hash_Ring_0" class="edge-thickness-normal edge-pattern-solid edge-thickness-normal edge-pattern-solid flowchart-link" style=";" data-edge="true" data-et="edge" data-id="L_Hash_Ring_0" data-points="W3sieCI6MjE0LjI3MDkzOTE1Mzk4Mjk3LCJ5Ijo1NTcuODg0MjIwNDAzOTgyOX0seyJ4IjoxMjIuNzY1NjI1LCJ5Ijo2NjAuOTI4MTI3Mjg4ODE4NH0seyJ4IjoxMjIuNzY1NjI1LCJ5Ijo3MjIuNjkwNjI4MDUxNzU3OH1d" data-look="classic" marker-end="url(#gabc1d408-ab5f-45e3-9670-762089166bd5-light_flowchart-v2-pointEnd)"></path><path d="M305.143,557.884L320.394,575.058C335.645,592.232,366.147,626.58,381.398,653.381C396.648,680.182,396.648,699.436,396.648,709.064L396.648,718.691" id="gabc1d408-ab5f-45e3-9670-762089166bd5-light-L_Hash_Maglev_0" class="edge-thickness-normal edge-pattern-solid edge-thickness-normal edge-pattern-solid flowchart-link" style=";" data-edge="true" data-et="edge" data-id="L_Hash_Maglev_0" data-points="W3sieCI6MzA1LjE0MzEyMzM0NjAxNzAzLCJ5Ijo1NTcuODg0MjIwNDAzOTgyOX0seyJ4IjozOTYuNjQ4NDM3NSwieSI6NjYwLjkyODEyNzI4ODgxODR9LHsieCI6Mzk2LjY0ODQzNzUsInkiOjcyMi42OTA2MjgwNTE3NTc4fV0=" data-look="classic" marker-end="url(#gabc1d408-ab5f-45e3-9670-762089166bd5-light_flowchart-v2-pointEnd)"></path><path d="M588.575,249.851L622.171,268.428C655.768,287.004,722.96,324.157,756.556,348.15C790.152,372.143,790.152,382.976,790.152,388.393L790.152,393.809" id="gabc1d408-ab5f-45e3-9670-762089166bd5-light-L_Q1_Q2_0" class="edge-thickness-normal edge-pattern-solid edge-thickness-normal edge-pattern-solid flowchart-link" style=";" data-edge="true" data-et="edge" data-id="L_Q1_Q2_0" data-points="W3sieCI6NTg4LjU3NTI3MjEwMDA5MTksInkiOjI0OS44NTEyODczNDgxNTAzOH0seyJ4Ijo3OTAuMTUyMzQzNzUsInkiOjM2MS4zMDkzNzE5NDgyNDIyfSx7IngiOjc5MC4xNTIzNDM3NSwieSI6Mzk3LjgwOTM3MTk0ODI0MjJ9XQ==" data-look="classic" marker-end="url(#gabc1d408-ab5f-45e3-9670-762089166bd5-light_flowchart-v2-pointEnd)"></path><path d="M743.788,569.263L732.462,584.541C721.137,599.818,698.486,630.373,687.161,655.278C675.836,680.182,675.836,699.436,675.836,709.064L675.836,718.691" id="gabc1d408-ab5f-45e3-9670-762089166bd5-light-L_Q2_RR_0" class="edge-thickness-normal edge-pattern-solid edge-thickness-normal edge-pattern-solid flowchart-link" style=";" data-edge="true" data-et="edge" data-id="L_Q2_RR_0" data-points="W3sieCI6NzQzLjc4NzYwMTYzMjA0MzMsInkiOjU2OS4yNjMzODU5MzM4MDExfSx7IngiOjY3NS44MzU5Mzc1LCJ5Ijo2NjAuOTI4MTI3Mjg4ODE4NH0seyJ4Ijo2NzUuODM1OTM3NSwieSI6NzIyLjY5MDYyODA1MTc1Nzh9XQ==" data-look="classic" marker-end="url(#gabc1d408-ab5f-45e3-9670-762089166bd5-light_flowchart-v2-pointEnd)"></path><path d="M836.517,569.263L847.842,584.541C859.168,599.818,881.818,630.373,893.143,652.534C904.469,674.695,904.469,688.461,904.469,695.345L904.469,702.228" id="gabc1d408-ab5f-45e3-9670-762089166bd5-light-L_Q2_Q3_0" class="edge-thickness-normal edge-pattern-solid edge-thickness-normal edge-pattern-solid flowchart-link" style=";" data-edge="true" data-et="edge" data-id="L_Q2_Q3_0" data-points="W3sieCI6ODM2LjUxNzA4NTg2Nzk1NjcsInkiOjU2OS4yNjMzODU5MzM4MDF9LHsieCI6OTA0LjQ2ODc1LCJ5Ijo2NjAuOTI4MTI3Mjg4ODE4NH0seyJ4Ijo5MDQuNDY4NzUsInkiOjcwNi4yMjgxMjY1MjU4Nzg4fV0=" data-look="classic" marker-end="url(#gabc1d408-ab5f-45e3-9670-762089166bd5-light_flowchart-v2-pointEnd)"></path><path d="M869.864,788.748L850.628,802.066C831.392,815.383,792.921,842.018,773.685,862.219C754.449,882.42,754.449,896.186,754.449,903.07L754.449,909.953" id="gabc1d408-ab5f-45e3-9670-762089166bd5-light-L_Q3_LC_0" class="edge-thickness-normal edge-pattern-solid edge-thickness-normal edge-pattern-solid flowchart-link" style=";" data-edge="true" data-et="edge" data-id="L_Q3_LC_0" data-points="W3sieCI6ODY5Ljg2NDAyMTI1MjY2MiwieSI6Nzg4Ljc0ODM5Nzc3ODU0MDh9LHsieCI6NzU0LjQ0OTIxODc1LCJ5Ijo4NjguNjUzMTI1NzYyOTM5NX0seyJ4Ijo3NTQuNDQ5MjE4NzUsInkiOjkxMy45NTMxMjV9XQ==" data-look="classic" marker-end="url(#gabc1d408-ab5f-45e3-9670-762089166bd5-light_flowchart-v2-pointEnd)"></path><path d="M939.073,788.748L958.309,802.066C977.545,815.383,1016.017,842.018,1035.252,862.219C1054.488,882.42,1054.488,896.186,1054.488,903.07L1054.488,909.953" id="gabc1d408-ab5f-45e3-9670-762089166bd5-light-L_Q3_P2C_0" class="edge-thickness-normal edge-pattern-solid edge-thickness-normal edge-pattern-solid flowchart-link" style=";" data-edge="true" data-et="edge" data-id="L_Q3_P2C_0" data-points="W3sieCI6OTM5LjA3MzQ3ODc0NzMzOCwieSI6Nzg4Ljc0ODM5Nzc3ODU0MDh9LHsieCI6MTA1NC40ODgyODEyNSwieSI6ODY4LjY1MzEyNTc2MjkzOTV9LHsieCI6MTA1NC40ODgyODEyNSwieSI6OTEzLjk1MzEyNX1d" data-look="classic" marker-end="url(#gabc1d408-ab5f-45e3-9670-762089166bd5-light_flowchart-v2-pointEnd)"></path></g><g class="edgeLabels"><g class="edgeLabel"><g class="label" data-id="L_Start_Q1_0" transform="translate(0, 0)"><text y="-10.1" text-anchor="middle"><tspan class="text-outer-tspan row" x="0" y="-0.1em" dy="1.1em" text-anchor="middle"></tspan></text></g></g><g><rect class="background" style="stroke: none"></rect></g><g class="edgeLabel" transform="translate(259.70703125, 361.3093719482422)"><g class="label" data-id="L_Q1_Hash_0" transform="translate(0, -10.5)"><g><rect class="background" style="" x="-13.328125" y="-1" width="26.65625" height="23"></rect><text y="-10.1" text-anchor="middle" style=""><tspan class="text-outer-tspan row" x="0" y="-0.1em" dy="1.1em" text-anchor="middle"><tspan font-style="normal" class="text-inner-tspan" font-weight="normal">Yes</tspan></tspan></text></g></g></g><g class="edgeLabel" transform="translate(122.765625, 660.9281272888184)"><g class="label" data-id="L_Hash_Ring_0" transform="translate(0, -10.5)"><g><rect class="background" style="" x="-52.2265625" y="-1" width="104.453125" height="23"></rect><text y="-10.1" text-anchor="middle" style=""><tspan class="text-outer-tspan row" x="0" y="-0.1em" dy="1.1em" text-anchor="middle"><tspan font-style="normal" class="text-inner-tspan" font-weight="normal">Small</tspan><tspan font-style="normal" class="text-inner-tspan" font-weight="normal"> /</tspan><tspan font-style="normal" class="text-inner-tspan" font-weight="normal"> stable</tspan></tspan></text></g></g></g><g class="edgeLabel" transform="translate(396.6484375, 660.9281272888184)"><g class="label" data-id="L_Hash_Maglev_0" transform="translate(0, -19.299999237060547)"><g><rect class="background" style="" x="-74.7890625" y="-1" width="149.578125" height="40.599998474121094"></rect><text y="-10.1" text-anchor="middle" style=""><tspan class="text-outer-tspan row" x="0" y="-0.1em" dy="1.1em" text-anchor="middle"><tspan font-style="normal" class="text-inner-tspan" font-weight="normal">Large</tspan><tspan font-style="normal" class="text-inner-tspan" font-weight="normal"> /</tspan><tspan font-style="normal" class="text-inner-tspan" font-weight="normal"> churny</tspan></tspan><tspan class="text-outer-tspan row" x="0" y="1em" dy="1.1em" text-anchor="middle"><tspan font-style="normal" class="text-inner-tspan" font-weight="normal">connection-oriented</tspan></tspan></text></g></g></g><g class="edgeLabel" transform="translate(790.15234375, 361.3093719482422)"><g class="label" data-id="L_Q1_Q2_0" transform="translate(0, -10.5)"><g><rect class="background" style="" x="-11.3984375" y="-1" width="22.796875" height="23"></rect><text y="-10.1" text-anchor="middle" style=""><tspan class="text-outer-tspan row" x="0" y="-0.1em" dy="1.1em" text-anchor="middle"><tspan font-style="normal" class="text-inner-tspan" font-weight="normal">No</tspan></tspan></text></g></g></g><g class="edgeLabel" transform="translate(675.8359375, 660.9281272888184)"><g class="label" data-id="L_Q2_RR_0" transform="translate(0, -10.5)"><g><rect class="background" style="" x="-65.359375" y="-1" width="130.71875" height="23"></rect><text y="-10.1" text-anchor="middle" style=""><tspan class="text-outer-tspan row" x="0" y="-0.1em" dy="1.1em" text-anchor="middle"><tspan font-style="normal" class="text-inner-tspan" font-weight="normal">No,</tspan><tspan font-style="normal" class="text-inner-tspan" font-weight="normal"> homogeneous</tspan></tspan></text></g></g></g><g class="edgeLabel" transform="translate(904.46875, 660.9281272888184)"><g class="label" data-id="L_Q2_Q3_0" transform="translate(0, -10.5)"><g><rect class="background" style="" x="-13.328125" y="-1" width="26.65625" height="23"></rect><text y="-10.1" text-anchor="middle" style=""><tspan class="text-outer-tspan row" x="0" y="-0.1em" dy="1.1em" text-anchor="middle"><tspan font-style="normal" class="text-inner-tspan" font-weight="normal">Yes</tspan></tspan></text></g></g></g><g class="edgeLabel" transform="translate(754.44921875, 868.6531257629395)"><g class="label" data-id="L_Q3_LC_0" transform="translate(0, -10.5)"><g><rect class="background" style="" x="-62.7890625" y="-1" width="125.578125" height="23"></rect><text y="-10.1" text-anchor="middle" style=""><tspan class="text-outer-tspan row" x="0" y="-0.1em" dy="1.1em" text-anchor="middle"><tspan font-style="normal" class="text-inner-tspan" font-weight="normal">Tens</tspan><tspan font-style="normal" class="text-inner-tspan" font-weight="normal"> of</tspan><tspan font-style="normal" class="text-inner-tspan" font-weight="normal"> backends</tspan></tspan></text></g></g></g><g class="edgeLabel" transform="translate(1054.48828125, 868.6531257629395)"><g class="label" data-id="L_Q3_P2C_0" transform="translate(0, -19.299999237060547)"><g><rect class="background" style="" x="-50.15625" y="-1" width="100.3125" height="40.599998474121094"></rect><text y="-10.1" text-anchor="middle" style=""><tspan class="text-outer-tspan row" x="0" y="-0.1em" dy="1.1em" text-anchor="middle"><tspan font-style="normal" class="text-inner-tspan" font-weight="normal">Hundreds+</tspan><tspan font-style="normal" class="text-inner-tspan" font-weight="normal"> or</tspan></tspan><tspan class="text-outer-tspan row" x="0" y="1em" dy="1.1em" text-anchor="middle"><tspan font-style="normal" class="text-inner-tspan" font-weight="normal">multi-LB</tspan><tspan font-style="normal" class="text-inner-tspan" font-weight="normal"> pool</tspan></tspan></text></g></g></g></g><g class="nodes"><g class="node default" id="gabc1d408-ab5f-45e3-9670-762089166bd5-light-flowchart-Start-0" data-look="classic" transform="translate(513.6171875, 25)"><g class="basic label-container outer-path"><path d="M-56.9609375 -17 C-15.422683635688244 -17, 26.11557022862351 -17, 56.9609375 -17 C56.9609375 -17, 56.9609375 -17, 56.9609375 -17 C57.247131447848425 -16.990822317135226, 57.53332539569685 -16.981644634270452, 58.05013123967212 -16.965071676755716 C58.42653371996421 -16.928760582172153, 58.80293620025631 -16.89244948758859, 59.1348492486366 -16.860430234995185 C59.366494408763366 -16.822979641940936, 59.59813956889014 -16.785529048886687, 60.210634187923326 -16.686505668848113 C60.48401048925068 -16.62410931201723, 60.75738679057803 -16.561712955186344, 61.27306542646162 -16.4440126716635 C61.64577121570913 -16.333395549787447, 62.01847700495665 -16.222778427911397, 62.31777720640155 -16.133947699181366 C62.69680667412285 -15.994461351349937, 63.07583614184414 -15.85497500351851, 63.34047658294936 -15.757584874882369 C63.73472102538948 -15.583064555059991, 64.12896546782962 -15.408544235237615, 64.33696106499849 -15.316470754341125 C64.56517847406015 -15.197409878213888, 64.79339588312179 -15.078349002086648, 65.30313588406693 -14.812417970097622 C65.66646770814812 -14.592164083164807, 66.02979953222932 -14.371910196231992, 66.23503082057933 -14.247497783161291 C66.54174000071973 -14.03355073632177, 66.84844918086011 -13.819603689482248, 67.12881651835067 -13.624031571755262 C67.45603496853848 -13.363083565379148, 67.78325341872628 -13.102135559003033, 67.9808202202324 -12.944581292275288 C68.27171447067212 -12.680398830666034, 68.56260872111186 -12.41621636905678, 68.78754086025927 -12.21193895166137 C69.06799716264345 -11.922344793559054, 69.34845346502763 -11.632750635456736, 69.54566345028036 -11.42911513444239 C69.72938085798751 -11.213310213532939, 69.91309826569464 -10.997505292623488, 70.25207270195651 -10.59932663159847 C70.41374491489093 -10.382700594907938, 70.57541712782535 -10.166074558217403, 70.90386582814824 -9.725983222076888 C71.07873392827523 -9.457338861622127, 71.25360202840221 -9.188694501167364, 71.49836447109088 -8.812673661278927 C71.69673281983142 -8.460450571116636, 71.89510116857195 -8.108227480954346, 72.033125708341 -7.863150934094199 C72.19607739372348 -7.524778272789943, 72.35902907910598 -7.186405611485688, 72.50595209126881 -6.881316833080699 C72.58880223404029 -6.676675378636599, 72.67165237681178 -6.472033924192499, 72.91490067484592 -5.871205925162238 C72.99966914077324 -5.615896811810063, 73.08443760670055 -5.360587698457888, 73.25829100162323 -4.836968972727556 C73.34889223714472 -4.491467194860259, 73.43949347266621 -4.145965416992961, 73.534712007091 -3.7828558772573464 C73.60514755537126 -3.4211842233966263, 73.67558310365152 -3.0595125695359062, 73.74302781804565 -2.713198215567453 C73.79861123888656 -2.2821041797132096, 73.85419465972748 -1.8510101438589661, 73.88238242013637 -1.632391440430593 C73.89646289784127 -1.413076634619686, 73.91054337554617 -1.193761828808779, 73.9522031754117 -0.5448768187181379 C73.9522031754117 -0.26921399446360156, 73.9522031754117 0.006448829790934751, 73.9522031754117 0.5448768187181336 C73.92828886039145 0.9173615784460476, 73.90437454537121 1.2898463381739615, 73.88238242013637 1.6323914404305815 C73.84211034689987 1.9447336878324517, 73.80183827366338 2.257075935234322, 73.74302781804565 2.7131982155674415 C73.66128351931653 3.132937912877864, 73.57953922058739 3.5526776101882866, 73.534712007091 3.782855877257343 C73.4290546586907 4.185773138892141, 73.3233973102904 4.588690400526938, 73.25829100162323 4.836968972727545 C73.12688103440328 5.232754856659094, 72.99547106718333 5.628540740590642, 72.91490067484592 5.871205925162227 C72.83261966825035 6.074441602248366, 72.75033866165475 6.2776772793345055, 72.50595209126881 6.881316833080694 C72.34516796163672 7.215188518490988, 72.18438383200463 7.549060203901283, 72.033125708341 7.863150934094196 C71.83797000843026 8.209669640943206, 71.64281430851952 8.556188347792215, 71.49836447109088 8.812673661278923 C71.35201224660887 9.03750997915824, 71.20566002212685 9.262346297037558, 70.90386582814826 9.725983222076879 C70.70784123447298 9.98863831939389, 70.51181664079769 10.2512934167109, 70.25207270195651 10.599326631598467 C70.02989025495744 10.860314776382964, 69.80770780795837 11.121302921167459, 69.54566345028037 11.42911513444238 C69.2796000824384 11.703847405947961, 69.01353671459643 11.97857967745354, 68.78754086025927 12.211938951661365 C68.53709130408552 12.439390612046235, 68.28664174791177 12.666842272431104, 67.98082022023242 12.944581292275275 C67.68190537742892 13.182957924953035, 67.38299053462542 13.421334557630793, 67.12881651835067 13.62403157175526 C66.90676136639931 13.77892763314393, 66.68470621444796 13.9338236945326, 66.23503082057934 14.247497783161286 C66.01073871335 14.383464976650442, 65.78644660612065 14.519432170139597, 65.30313588406695 14.81241797009762 C65.01548953162732 14.962482887919087, 64.7278431791877 15.112547805740553, 64.33696106499849 15.316470754341124 C64.08690408428436 15.427163562026491, 63.836847103570214 15.537856369711857, 63.340476582949364 15.757584874882367 C62.990100699807456 15.886526438717748, 62.63972481666555 16.01546800255313, 62.31777720640156 16.133947699181363 C62.007207600035706 16.22612312813762, 61.69663799366985 16.318298557093872, 61.27306542646164 16.444012671663497 C61.03606846152283 16.49810568236105, 60.79907149658403 16.552198693058607, 60.21063418792333 16.68650566884811 C59.912825109320714 16.734653131132685, 59.615016030718095 16.782800593417257, 59.13484924863661 16.86043023499518 C58.74254180862392 16.89827566191448, 58.350234368611225 16.93612108883378, 58.05013123967212 16.965071676755716 C57.8172374653582 16.972540126797732, 57.584343691044275 16.980008576839747, 56.9609375 17 C56.9609375 17, 56.9609375 17, 56.9609375 17 C33.85356544406763 17, 10.746193388135246 17, -56.9609375 17 C-57.19389730862348 16.992529432366204, -57.42685711724695 16.98505886473241, -58.05013123967211 16.965071676755716 C-58.297427691665774 16.941215285449385, -58.54472414365944 16.917358894143053, -59.134849248636606 16.86043023499518 C-59.52833199928819 16.796814995374138, -59.92181474993978 16.733199755753095, -60.210634187923326 16.68650566884811 C-60.5445125204438 16.61030011821005, -60.87839085296427 16.534094567571984, -61.27306542646162 16.4440126716635 C-61.5778330887241 16.353559229262103, -61.88260075098657 16.263105786860706, -62.317777206401544 16.13394769918137 C-62.681229147873246 16.000194025006866, -63.04468108934495 15.866440350832363, -63.340476582949364 15.757584874882369 C-63.59500022748404 15.644914807622524, -63.84952387201873 15.532244740362678, -64.33696106499849 15.316470754341127 C-64.55569290038623 15.20235849592377, -64.77442473577398 15.08824623750641, -65.30313588406693 14.812417970097624 C-65.55807374508997 14.657873140564293, -65.81301160611301 14.503328311030963, -66.23503082057931 14.247497783161299 C-66.58752931808418 14.001610090715921, -66.94002781558906 13.755722398270544, -67.12881651835067 13.624031571755264 C-67.4446512124887 13.372161807894376, -67.76048590662673 13.120292044033487, -67.9808202202324 12.94458129227529 C-68.15173900318469 12.789357375861211, -68.32265778613696 12.634133459447133, -68.78754086025926 12.211938951661377 C-69.05573388293831 11.935007636688594, -69.32392690561736 11.658076321715813, -69.54566345028036 11.429115134442386 C-69.81244622638444 11.115736905260531, -70.07922900248852 10.80235867607868, -70.25207270195651 10.599326631598473 C-70.46877437621993 10.308966130014136, -70.68547605048336 10.018605628429798, -70.90386582814824 9.72598322207689 C-71.12903696427738 9.38005989006632, -71.35420810040652 9.034136558055753, -71.49836447109088 8.812673661278936 C-71.6641462002194 8.518311413990814, -71.82992792934795 8.22394916670269, -72.033125708341 7.863150934094201 C-72.14623471446771 7.628277662727074, -72.2593437205944 7.3934043913599465, -72.50595209126881 6.881316833080701 C-72.66934799908647 6.477725781726122, -72.83274390690413 6.074134730371542, -72.91490067484592 5.87120592516224 C-73.00552072963137 5.598272758493456, -73.0961407844168 5.325339591824672, -73.25829100162323 4.8369689727275516 C-73.33647806151666 4.5388078268678, -73.41466512141008 4.240646681008049, -73.534712007091 3.782855877257349 C-73.59091540662935 3.4942632992206244, -73.6471188061677 3.2056707211838997, -73.74302781804565 2.713198215567455 C-73.79675262625966 2.296519212222959, -73.85047743447366 1.8798402088784636, -73.88238242013637 1.6323914404306026 C-73.90891621687584 1.2191061385180846, -73.93545001361531 0.8058208366055667, -73.9522031754117 0.54487681871814 C-73.9522031754117 0.23858232879514307, -73.9522031754117 -0.06771216112785383, -73.9522031754117 -0.5448768187181317 C-73.93023548553417 -0.887041320560782, -73.90826779565663 -1.2292058224034323, -73.88238242013637 -1.6323914404305793 C-73.838166844167 -1.9753187162959183, -73.79395126819763 -2.3182459921612573, -73.74302781804565 -2.713198215567447 C-73.68833079542173 -2.9940558665214128, -73.63363377279782 -3.2749135174753783, -73.534712007091 -3.782855877257341 C-73.46472915395151 -4.049730827038668, -73.394746300812 -4.316605776819996, -73.25829100162323 -4.836968972727544 C-73.12817816558832 -5.22884810419956, -72.99806532955341 -5.620727235671577, -72.91490067484594 -5.871205925162218 C-72.8219940992713 -6.100686963058034, -72.72908752369665 -6.33016800095385, -72.50595209126881 -6.881316833080692 C-72.38308929657376 -7.136444055107649, -72.2602265018787 -7.391571277134607, -72.033125708341 -7.863150934094194 C-71.88305903122833 -8.129609515206585, -71.73299235411567 -8.396068096318977, -71.49836447109088 -8.812673661278929 C-71.37474036417183 -9.002593487227427, -71.25111625725278 -9.192513313175928, -70.90386582814826 -9.725983222076884 C-70.73670956006929 -9.949957393053397, -70.56955329199033 -10.173931564029909, -70.25207270195651 -10.599326631598467 C-70.09583281799453 -10.782854889601452, -69.93959293403256 -10.966383147604436, -69.54566345028037 -11.42911513444238 C-69.37613136262422 -11.604170933790607, -69.20659927496807 -11.779226733138835, -68.78754086025927 -12.21193895166136 C-68.50162112180828 -12.471603693100825, -68.21570138335728 -12.73126843454029, -67.98082022023242 -12.944581292275274 C-67.64398619279325 -13.213197465628095, -67.30715216535408 -13.481813638980919, -67.12881651835067 -13.624031571755259 C-66.90049828263074 -13.78329648925636, -66.67218004691081 -13.94256140675746, -66.23503082057934 -14.247497783161284 C-66.0324325167781 -14.370314065525386, -65.82983421297685 -14.493130347889489, -65.30313588406695 -14.812417970097618 C-65.05161281638131 -14.943637393401, -64.80008974869567 -15.074856816704383, -64.33696106499849 -15.316470754341124 C-64.06808388083458 -15.435494707812207, -63.79920669667066 -15.554518661283293, -63.34047658294937 -15.757584874882365 C-63.04490891963066 -15.866356507181182, -62.749341256311936 -15.975128139479999, -62.317777206401566 -16.133947699181363 C-62.09279157976158 -16.200722252194456, -61.8678059531216 -16.26749680520755, -61.27306542646164 -16.444012671663494 C-60.90710542390287 -16.527540654135336, -60.54114542134409 -16.611068636607182, -60.21063418792333 -16.68650566884811 C-59.99269401133731 -16.721740546447226, -59.7747538347513 -16.756975424046338, -59.13484924863661 -16.86043023499518 C-58.73587653422258 -16.89891865291981, -58.33690381980854 -16.937407070844444, -58.05013123967212 -16.965071676755716 C-57.6886311746184 -16.9766642802248, -57.32713110956469 -16.988256883693882, -56.96093750000001 -17 C-56.96093750000001 -17, -56.9609375 -17, -56.9609375 -17" stroke="none" stroke-width="0" fill="#ECECFF" style=""></path><path d="M-56.9609375 -17 C-21.56181849280376 -17, 13.837300514392481 -17, 56.9609375 -17 M-56.9609375 -17 C-17.41944791762974 -17, 22.12204166474052 -17, 56.9609375 -17 M56.9609375 -17 C56.9609375 -17, 56.9609375 -17, 56.9609375 -17 M56.9609375 -17 C56.9609375 -17, 56.9609375 -17, 56.9609375 -17 M56.9609375 -17 C57.24078036061703 -16.991025984141096, 57.52062322123406 -16.982051968282192, 58.05013123967212 -16.965071676755716 M56.9609375 -17 C57.21898703184591 -16.991724853776645, 57.47703656369183 -16.983449707553287, 58.05013123967212 -16.965071676755716 M58.05013123967212 -16.965071676755716 C58.27606391228869 -16.94327622355219, 58.501996584905264 -16.921480770348662, 59.1348492486366 -16.860430234995185 M58.05013123967212 -16.965071676755716 C58.318208081519735 -16.93921062623225, 58.58628492336735 -16.913349575708782, 59.1348492486366 -16.860430234995185 M59.1348492486366 -16.860430234995185 C59.5065414672716 -16.800337919602484, 59.87823368590661 -16.740245604209782, 60.210634187923326 -16.686505668848113 M59.1348492486366 -16.860430234995185 C59.39218250708871 -16.81882658941787, 59.649515765540826 -16.77722294384056, 60.210634187923326 -16.686505668848113 M60.210634187923326 -16.686505668848113 C60.46924256514951 -16.62747999432361, 60.72785094237569 -16.56845431979911, 61.27306542646162 -16.4440126716635 M60.210634187923326 -16.686505668848113 C60.54542304526411 -16.610092296861545, 60.880211902604884 -16.533678924874977, 61.27306542646162 -16.4440126716635 M61.27306542646162 -16.4440126716635 C61.513896611889145 -16.3725352399773, 61.75472779731667 -16.301057808291098, 62.31777720640155 -16.133947699181366 M61.27306542646162 -16.4440126716635 C61.59326867810964 -16.348978027355535, 61.913471929757655 -16.25394338304757, 62.31777720640155 -16.133947699181366 M62.31777720640155 -16.133947699181366 C62.69120270130424 -15.99652366514974, 63.06462819620694 -15.859099631118115, 63.34047658294936 -15.757584874882369 M62.31777720640155 -16.133947699181366 C62.55144806160782 -16.04795466443575, 62.78511891681409 -15.961961629690137, 63.34047658294936 -15.757584874882369 M63.34047658294936 -15.757584874882369 C63.72197351416676 -15.588707500136806, 64.10347044538418 -15.419830125391243, 64.33696106499849 -15.316470754341125 M63.34047658294936 -15.757584874882369 C63.667500128883006 -15.612821251906364, 63.994523674816655 -15.468057628930358, 64.33696106499849 -15.316470754341125 M64.33696106499849 -15.316470754341125 C64.7019935675608 -15.126033531568844, 65.0670260701231 -14.935596308796562, 65.30313588406693 -14.812417970097622 M64.33696106499849 -15.316470754341125 C64.57279110615703 -15.193438372925067, 64.80862114731556 -15.07040599150901, 65.30313588406693 -14.812417970097622 M65.30313588406693 -14.812417970097622 C65.60210489728001 -14.631181197350916, 65.9010739104931 -14.44994442460421, 66.23503082057933 -14.247497783161291 M65.30313588406693 -14.812417970097622 C65.60286906122182 -14.630717956678659, 65.90260223837673 -14.449017943259697, 66.23503082057933 -14.247497783161291 M66.23503082057933 -14.247497783161291 C66.43209488037145 -14.110034425815963, 66.62915894016358 -13.972571068470632, 67.12881651835067 -13.624031571755262 M66.23503082057933 -14.247497783161291 C66.42338681066948 -14.11610879827379, 66.61174280075964 -13.984719813386292, 67.12881651835067 -13.624031571755262 M67.12881651835067 -13.624031571755262 C67.34062416244045 -13.455120612031795, 67.55243180653022 -13.286209652308328, 67.9808202202324 -12.944581292275288 M67.12881651835067 -13.624031571755262 C67.35460332093642 -13.443972605132284, 67.58039012352216 -13.263913638509306, 67.9808202202324 -12.944581292275288 M67.9808202202324 -12.944581292275288 C68.21587919498982 -12.731106950720266, 68.45093816974723 -12.517632609165242, 68.78754086025927 -12.21193895166137 M67.9808202202324 -12.944581292275288 C68.16903657097409 -12.773648182463445, 68.35725292171576 -12.602715072651604, 68.78754086025927 -12.21193895166137 M68.78754086025927 -12.21193895166137 C69.07070993245384 -11.919543636007283, 69.3538790046484 -11.627148320353196, 69.54566345028036 -11.42911513444239 M68.78754086025927 -12.21193895166137 C69.03793348062099 -11.953388013521435, 69.28832610098273 -11.6948370753815, 69.54566345028036 -11.42911513444239 M69.54566345028036 -11.42911513444239 C69.70159270652108 -11.245951757436, 69.85752196276181 -11.062788380429613, 70.25207270195651 -10.59932663159847 M69.54566345028036 -11.42911513444239 C69.78319178743354 -11.150100833877001, 70.02072012458672 -10.871086533311615, 70.25207270195651 -10.59932663159847 M70.25207270195651 -10.59932663159847 C70.45251127098302 -10.330757209432228, 70.65294984000954 -10.062187787265986, 70.90386582814824 -9.725983222076888 M70.25207270195651 -10.59932663159847 C70.40468158599698 -10.394844629939586, 70.55729047003744 -10.190362628280702, 70.90386582814824 -9.725983222076888 M70.90386582814824 -9.725983222076888 C71.04471617275428 -9.509599269148694, 71.1855665173603 -9.293215316220499, 71.49836447109088 -8.812673661278927 M70.90386582814824 -9.725983222076888 C71.07945397997118 -9.456232668856183, 71.25504213179413 -9.18648211563548, 71.49836447109088 -8.812673661278927 M71.49836447109088 -8.812673661278927 C71.62171671320537 -8.59364926463567, 71.74506895531988 -8.374624867992416, 72.033125708341 -7.863150934094199 M71.49836447109088 -8.812673661278927 C71.70055790499596 -8.453658745075124, 71.90275133890104 -8.09464382887132, 72.033125708341 -7.863150934094199 M72.033125708341 -7.863150934094199 C72.1914074858211 -7.534475436469265, 72.3496892633012 -7.205799938844329, 72.50595209126881 -6.881316833080699 M72.033125708341 -7.863150934094199 C72.16896549616065 -7.581076708180838, 72.30480528398031 -7.2990024822674755, 72.50595209126881 -6.881316833080699 M72.50595209126881 -6.881316833080699 C72.66668622372852 -6.484300418322178, 72.82742035618823 -6.087284003563656, 72.91490067484592 -5.871205925162238 M72.50595209126881 -6.881316833080699 C72.6047112516807 -6.637379797484859, 72.70347041209259 -6.39344276188902, 72.91490067484592 -5.871205925162238 M72.91490067484592 -5.871205925162238 C72.99372797712199 -5.633790650131738, 73.07255527939806 -5.396375375101238, 73.25829100162323 -4.836968972727556 M72.91490067484592 -5.871205925162238 C73.02246682321686 -5.547233824607296, 73.1300329715878 -5.223261724052354, 73.25829100162323 -4.836968972727556 M73.25829100162323 -4.836968972727556 C73.31531123602494 -4.61952610622795, 73.37233147042664 -4.402083239728344, 73.534712007091 -3.7828558772573464 M73.25829100162323 -4.836968972727556 C73.3679627911334 -4.4187429072710716, 73.47763458064355 -4.000516841814587, 73.534712007091 -3.7828558772573464 M73.534712007091 -3.7828558772573464 C73.58253678394024 -3.5372857559066473, 73.63036156078948 -3.291715634555948, 73.74302781804565 -2.713198215567453 M73.534712007091 -3.7828558772573464 C73.58938784990889 -3.502106980130958, 73.64406369272677 -3.22135808300457, 73.74302781804565 -2.713198215567453 M73.74302781804565 -2.713198215567453 C73.77480707010437 -2.4667246121230626, 73.80658632216311 -2.220251008678672, 73.88238242013637 -1.632391440430593 M73.74302781804565 -2.713198215567453 C73.78633264180007 -2.3773345540328323, 73.8296374655545 -2.0414708924982112, 73.88238242013637 -1.632391440430593 M73.88238242013637 -1.632391440430593 C73.90986679210988 -1.2043001619573506, 73.9373511640834 -0.7762088834841083, 73.9522031754117 -0.5448768187181379 M73.88238242013637 -1.632391440430593 C73.8969095972986 -1.4061189300023353, 73.91143677446085 -1.1798464195740777, 73.9522031754117 -0.5448768187181379 M73.9522031754117 -0.5448768187181379 C73.9522031754117 -0.2872326493585246, 73.9522031754117 -0.029588479998911343, 73.9522031754117 0.5448768187181336 M73.9522031754117 -0.5448768187181379 C73.9522031754117 -0.3227396342718522, 73.9522031754117 -0.10060244982556654, 73.9522031754117 0.5448768187181336 M73.9522031754117 0.5448768187181336 C73.92924943300707 0.9023998845975627, 73.90629569060245 1.2599229504769918, 73.88238242013637 1.6323914404305815 M73.9522031754117 0.5448768187181336 C73.93688958930275 0.7833982832691997, 73.9215760031938 1.0219197478202657, 73.88238242013637 1.6323914404305815 M73.88238242013637 1.6323914404305815 C73.84482721800111 1.9236621720780853, 73.80727201586588 2.214932903725589, 73.74302781804565 2.7131982155674415 M73.88238242013637 1.6323914404305815 C73.83257275618749 2.018705357987407, 73.78276309223861 2.4050192755442326, 73.74302781804565 2.7131982155674415 M73.74302781804565 2.7131982155674415 C73.68553827455415 3.0083948709769603, 73.62804873106266 3.3035915263864792, 73.534712007091 3.782855877257343 M73.74302781804565 2.7131982155674415 C73.67912580295959 3.0413215573387027, 73.61522378787353 3.369444899109964, 73.534712007091 3.782855877257343 M73.534712007091 3.782855877257343 C73.44434904689966 4.127449008021605, 73.35398608670832 4.472042138785867, 73.25829100162323 4.836968972727545 M73.534712007091 3.782855877257343 C73.4509428053253 4.102304149391674, 73.36717360355959 4.421752421526005, 73.25829100162323 4.836968972727545 M73.25829100162323 4.836968972727545 C73.16010607956596 5.132686314321163, 73.06192115750869 5.428403655914781, 72.91490067484592 5.871205925162227 M73.25829100162323 4.836968972727545 C73.16187606379088 5.127355403844404, 73.06546112595852 5.417741834961263, 72.91490067484592 5.871205925162227 M72.91490067484592 5.871205925162227 C72.82924140030842 6.082785989379284, 72.74358212577091 6.294366053596341, 72.50595209126881 6.881316833080694 M72.91490067484592 5.871205925162227 C72.82128616835462 6.102435566109095, 72.72767166186333 6.333665207055964, 72.50595209126881 6.881316833080694 M72.50595209126881 6.881316833080694 C72.3910237377057 7.1199680183273255, 72.2760953841426 7.358619203573958, 72.033125708341 7.863150934094196 M72.50595209126881 6.881316833080694 C72.35252460994275 7.1999122808764815, 72.19909712861667 7.518507728672269, 72.033125708341 7.863150934094196 M72.033125708341 7.863150934094196 C71.9196927216139 8.064562688363598, 71.80625973488681 8.265974442632999, 71.49836447109088 8.812673661278923 M72.033125708341 7.863150934094196 C71.82950736027516 8.224695929678639, 71.62588901220931 8.586240925263082, 71.49836447109088 8.812673661278923 M71.49836447109088 8.812673661278923 C71.31676714452406 9.091655920595592, 71.13516981795723 9.370638179912259, 70.90386582814826 9.725983222076879 M71.49836447109088 8.812673661278923 C71.3682763348042 9.012523972171023, 71.23818819851752 9.212374283063122, 70.90386582814826 9.725983222076879 M70.90386582814826 9.725983222076879 C70.68803100018643 10.015182228588387, 70.47219617222461 10.304381235099893, 70.25207270195651 10.599326631598467 M70.90386582814826 9.725983222076879 C70.74327161301494 9.94116483992155, 70.58267739788162 10.15634645776622, 70.25207270195651 10.599326631598467 M70.25207270195651 10.599326631598467 C70.0342372143471 10.855208590534868, 69.81640172673768 11.11109054947127, 69.54566345028037 11.42911513444238 M70.25207270195651 10.599326631598467 C70.02460449439111 10.866523731512459, 69.79713628682572 11.13372083142645, 69.54566345028037 11.42911513444238 M69.54566345028037 11.42911513444238 C69.26802927162454 11.715795218094502, 68.99039509296871 12.002475301746626, 68.78754086025927 12.211938951661365 M69.54566345028037 11.42911513444238 C69.36713317358196 11.6134623027418, 69.18860289688355 11.79780947104122, 68.78754086025927 12.211938951661365 M68.78754086025927 12.211938951661365 C68.49773692935223 12.475131213919315, 68.20793299844519 12.738323476177266, 67.98082022023242 12.944581292275275 M68.78754086025927 12.211938951661365 C68.48749383160614 12.484433724274787, 68.18744680295303 12.75692849688821, 67.98082022023242 12.944581292275275 M67.98082022023242 12.944581292275275 C67.64162764995262 13.215078340780032, 67.30243507967283 13.48557538928479, 67.12881651835067 13.62403157175526 M67.98082022023242 12.944581292275275 C67.6765256575678 13.187248108381926, 67.37223109490316 13.429914924488576, 67.12881651835067 13.62403157175526 M67.12881651835067 13.62403157175526 C66.93010636160041 13.762643175080205, 66.73139620485013 13.90125477840515, 66.23503082057934 14.247497783161286 M67.12881651835067 13.62403157175526 C66.78926487553494 13.860888098829811, 66.44971323271919 14.097744625904362, 66.23503082057934 14.247497783161286 M66.23503082057934 14.247497783161286 C65.96624523804672 14.41043718285197, 65.69745965551411 14.573376582542654, 65.30313588406695 14.81241797009762 M66.23503082057934 14.247497783161286 C66.00353604569975 14.387831276107597, 65.77204127082015 14.528164769053907, 65.30313588406695 14.81241797009762 M65.30313588406695 14.81241797009762 C64.93880997626802 15.00248656283444, 64.57448406846909 15.192555155571258, 64.33696106499849 15.316470754341124 M65.30313588406695 14.81241797009762 C65.06320011712351 14.937592306025815, 64.82326435018008 15.06276664195401, 64.33696106499849 15.316470754341124 M64.33696106499849 15.316470754341124 C64.04620592368094 15.445179430457582, 63.75545078236338 15.573888106574039, 63.340476582949364 15.757584874882367 M64.33696106499849 15.316470754341124 C63.95243483053863 15.486689111771033, 63.567908596078766 15.656907469200945, 63.340476582949364 15.757584874882367 M63.340476582949364 15.757584874882367 C62.98027350704496 15.89014293649592, 62.62007043114056 16.022700998109475, 62.31777720640156 16.133947699181363 M63.340476582949364 15.757584874882367 C62.99397599789389 15.885100293199077, 62.647475412838425 16.012615711515785, 62.31777720640156 16.133947699181363 M62.31777720640156 16.133947699181363 C61.92322629832444 16.251048337658673, 61.52867539024732 16.368148976135988, 61.27306542646164 16.444012671663497 M62.31777720640156 16.133947699181363 C62.05927032167864 16.210671185636798, 61.80076343695572 16.287394672092233, 61.27306542646164 16.444012671663497 M61.27306542646164 16.444012671663497 C61.032013893074975 16.499031111150742, 60.79096235968831 16.554049550637988, 60.21063418792333 16.68650566884811 M61.27306542646164 16.444012671663497 C60.85675432507887 16.53903296387029, 60.44044322369609 16.634053256077085, 60.21063418792333 16.68650566884811 M60.21063418792333 16.68650566884811 C59.971765199653866 16.725124154414846, 59.7328962113844 16.763742639981583, 59.13484924863661 16.86043023499518 M60.21063418792333 16.68650566884811 C59.85756727356032 16.743586789487505, 59.504500359197316 16.800667910126904, 59.13484924863661 16.86043023499518 M59.13484924863661 16.86043023499518 C58.890054057849284 16.884045332641143, 58.64525886706196 16.90766043028711, 58.05013123967212 16.965071676755716 M59.13484924863661 16.86043023499518 C58.89659428884481 16.883414404422783, 58.65833932905301 16.90639857385039, 58.05013123967212 16.965071676755716 M58.05013123967212 16.965071676755716 C57.64454538579221 16.978078025664672, 57.23895953191231 16.991084374573628, 56.9609375 17 M58.05013123967212 16.965071676755716 C57.69173048058063 16.97656489151502, 57.33332972148914 16.98805810627433, 56.9609375 17 M56.9609375 17 C56.9609375 17, 56.9609375 17, 56.9609375 17 M56.9609375 17 C56.9609375 17, 56.9609375 17, 56.9609375 17 M56.9609375 17 C16.664794365982203 17, -23.631348768035593 17, -56.9609375 17 M56.9609375 17 C21.18918406834866 17, -14.582569363302682 17, -56.9609375 17 M-56.9609375 17 C-57.194480362979164 16.992510734947864, -57.42802322595832 16.985021469895727, -58.05013123967211 16.965071676755716 M-56.9609375 17 C-57.281458958398986 16.989721500686315, -57.60198041679797 16.97944300137263, -58.05013123967211 16.965071676755716 M-58.05013123967211 16.965071676755716 C-58.32728980478966 16.93833452331077, -58.60444836990721 16.911597369865824, -59.134849248636606 16.86043023499518 M-58.05013123967211 16.965071676755716 C-58.38314701506375 16.93294604541375, -58.716162790455385 16.900820414071788, -59.134849248636606 16.86043023499518 M-59.134849248636606 16.86043023499518 C-59.402412714060205 16.81717264889116, -59.6699761794838 16.773915062787136, -60.210634187923326 16.68650566884811 M-59.134849248636606 16.86043023499518 C-59.40078899432203 16.817435159306292, -59.66672874000744 16.774440083617403, -60.210634187923326 16.68650566884811 M-60.210634187923326 16.68650566884811 C-60.576503160262334 16.602998463429902, -60.942372132601335 16.519491258011694, -61.27306542646162 16.4440126716635 M-60.210634187923326 16.68650566884811 C-60.4489401142174 16.632113896262986, -60.68724604051148 16.577722123677862, -61.27306542646162 16.4440126716635 M-61.27306542646162 16.4440126716635 C-61.6870485345409 16.32114465822725, -62.10103164262017 16.198276644791, -62.317777206401544 16.13394769918137 M-61.27306542646162 16.4440126716635 C-61.654098054519224 16.330924187737082, -62.035130682576835 16.217835703810664, -62.317777206401544 16.13394769918137 M-62.317777206401544 16.13394769918137 C-62.64789087899362 16.012462816130146, -62.978004551585705 15.890977933078924, -63.340476582949364 15.757584874882369 M-62.317777206401544 16.13394769918137 C-62.547453176050574 16.049424819249136, -62.77712914569961 15.964901939316903, -63.340476582949364 15.757584874882369 M-63.340476582949364 15.757584874882369 C-63.68014775790492 15.60722252171695, -64.01981893286047 15.456860168551533, -64.33696106499849 15.316470754341127 M-63.340476582949364 15.757584874882369 C-63.6250117218272 15.631629609336159, -63.909546860705035 15.505674343789948, -64.33696106499849 15.316470754341127 M-64.33696106499849 15.316470754341127 C-64.54661132533123 15.207096347812941, -64.75626158566395 15.097721941284757, -65.30313588406693 14.812417970097624 M-64.33696106499849 15.316470754341127 C-64.6372850198072 15.159791939484101, -64.93760897461588 15.003113124627076, -65.30313588406693 14.812417970097624 M-65.30313588406693 14.812417970097624 C-65.60248489419145 14.630950840990092, -65.90183390431596 14.449483711882563, -66.23503082057931 14.247497783161299 M-65.30313588406693 14.812417970097624 C-65.59320625150245 14.636575608715521, -65.88327661893797 14.46073324733342, -66.23503082057931 14.247497783161299 M-66.23503082057931 14.247497783161299 C-66.51778732843478 14.050259083613273, -66.80054383629025 13.853020384065248, -67.12881651835067 13.624031571755264 M-66.23503082057931 14.247497783161299 C-66.4308452050892 14.110906145195289, -66.62665958959909 13.97431450722928, -67.12881651835067 13.624031571755264 M-67.12881651835067 13.624031571755264 C-67.32127349830265 13.470552251738898, -67.5137304782546 13.317072931722533, -67.9808202202324 12.94458129227529 M-67.12881651835067 13.624031571755264 C-67.39544222413218 13.411404666602524, -67.66206792991369 13.198777761449783, -67.9808202202324 12.94458129227529 M-67.9808202202324 12.94458129227529 C-68.27374304220092 12.678556535676641, -68.56666586416945 12.412531779077993, -68.78754086025926 12.211938951661377 M-67.9808202202324 12.94458129227529 C-68.1898569063936 12.75473970471133, -68.39889359255478 12.56489811714737, -68.78754086025926 12.211938951661377 M-68.78754086025926 12.211938951661377 C-69.09045237552401 11.899157942652607, -69.39336389078876 11.586376933643837, -69.54566345028036 11.429115134442386 M-68.78754086025926 12.211938951661377 C-68.97135181484595 12.022139049890589, -69.15516276943264 11.8323391481198, -69.54566345028036 11.429115134442386 M-69.54566345028036 11.429115134442386 C-69.69052030355384 11.2589580319989, -69.83537715682733 11.088800929555411, -70.25207270195651 10.599326631598473 M-69.54566345028036 11.429115134442386 C-69.6929550814538 11.256098003334815, -69.84024671262725 11.083080872227244, -70.25207270195651 10.599326631598473 M-70.25207270195651 10.599326631598473 C-70.49739005322174 10.27062372977352, -70.74270740448696 9.94192082794857, -70.90386582814824 9.72598322207689 M-70.25207270195651 10.599326631598473 C-70.42774753703964 10.363938356893788, -70.60342237212278 10.128550082189102, -70.90386582814824 9.72598322207689 M-70.90386582814824 9.72598322207689 C-71.06884885429355 9.47252498977201, -71.23383188043886 9.219066757467129, -71.49836447109088 8.812673661278936 M-70.90386582814824 9.72598322207689 C-71.05806057735025 9.489098680214907, -71.21225532655227 9.252214138352924, -71.49836447109088 8.812673661278936 M-71.49836447109088 8.812673661278936 C-71.68858705396514 8.474914203260457, -71.8788096368394 8.13715474524198, -72.033125708341 7.863150934094201 M-71.49836447109088 8.812673661278936 C-71.6546810465538 8.535117752774829, -71.81099762201674 8.257561844270722, -72.033125708341 7.863150934094201 M-72.033125708341 7.863150934094201 C-72.22152818703461 7.471929155919661, -72.40993066572821 7.080707377745121, -72.50595209126881 6.881316833080701 M-72.033125708341 7.863150934094201 C-72.12849765329621 7.665109049762006, -72.22386959825141 7.46706716542981, -72.50595209126881 6.881316833080701 M-72.50595209126881 6.881316833080701 C-72.60831881585486 6.628469044227199, -72.71068554044089 6.375621255373695, -72.91490067484592 5.87120592516224 M-72.50595209126881 6.881316833080701 C-72.63297783568831 6.567560788488859, -72.76000358010779 6.253804743897017, -72.91490067484592 5.87120592516224 M-72.91490067484592 5.87120592516224 C-73.04144504413317 5.490074446976229, -73.16798941342041 5.108942968790219, -73.25829100162323 4.8369689727275516 M-72.91490067484592 5.87120592516224 C-72.99007763505361 5.644784898838702, -73.06525459526128 5.4183638725151635, -73.25829100162323 4.8369689727275516 M-73.25829100162323 4.8369689727275516 C-73.3464278456742 4.5008649876113935, -73.43456468972515 4.1647610024952355, -73.534712007091 3.782855877257349 M-73.25829100162323 4.8369689727275516 C-73.35555730192132 4.466050414209745, -73.4528236022194 4.095131855691938, -73.534712007091 3.782855877257349 M-73.534712007091 3.782855877257349 C-73.61142635616822 3.388943908329199, -73.68814070524546 2.9950319394010485, -73.74302781804565 2.713198215567455 M-73.534712007091 3.782855877257349 C-73.60293676123445 3.4325361840376694, -73.67116151537789 3.082216490817989, -73.74302781804565 2.713198215567455 M-73.74302781804565 2.713198215567455 C-73.79058728021418 2.3443364186663764, -73.83814674238272 1.9754746217652979, -73.88238242013637 1.6323914404306026 M-73.74302781804565 2.713198215567455 C-73.7947343537509 2.3121725352479237, -73.84644088945615 1.911146854928392, -73.88238242013637 1.6323914404306026 M-73.88238242013637 1.6323914404306026 C-73.90359916018512 1.3019235883269735, -73.92481590023387 0.9714557362233444, -73.9522031754117 0.54487681871814 M-73.88238242013637 1.6323914404306026 C-73.90560635087127 1.2706599732149724, -73.92883028160618 0.9089285059993419, -73.9522031754117 0.54487681871814 M-73.9522031754117 0.54487681871814 C-73.9522031754117 0.3117771735406998, -73.9522031754117 0.07867752836325964, -73.9522031754117 -0.5448768187181317 M-73.9522031754117 0.54487681871814 C-73.9522031754117 0.2598480501640094, -73.9522031754117 -0.02518071839012115, -73.9522031754117 -0.5448768187181317 M-73.9522031754117 -0.5448768187181317 C-73.92980233073806 -0.8937880561464782, -73.90740148606442 -1.242699293574825, -73.88238242013637 -1.6323914404305793 M-73.9522031754117 -0.5448768187181317 C-73.93772572826606 -0.7703747439964447, -73.92324828112042 -0.9958726692747577, -73.88238242013637 -1.6323914404305793 M-73.88238242013637 -1.6323914404305793 C-73.84580216204155 -1.916100698624922, -73.80922190394675 -2.199809956819265, -73.74302781804565 -2.713198215567447 M-73.88238242013637 -1.6323914404305793 C-73.85279100732647 -1.86189659469866, -73.8231995945166 -2.091401748966741, -73.74302781804565 -2.713198215567447 M-73.74302781804565 -2.713198215567447 C-73.66120365974689 -3.133347974889583, -73.57937950144814 -3.553497734211719, -73.534712007091 -3.782855877257341 M-73.74302781804565 -2.713198215567447 C-73.6908189558131 -2.9812796887846282, -73.63861009358055 -3.2493611620018092, -73.534712007091 -3.782855877257341 M-73.534712007091 -3.782855877257341 C-73.44063465033152 -4.14161361196558, -73.34655729357205 -4.500371346673818, -73.25829100162323 -4.836968972727544 M-73.534712007091 -3.782855877257341 C-73.4533269880125 -4.093212227494049, -73.37194196893401 -4.403568577730756, -73.25829100162323 -4.836968972727544 M-73.25829100162323 -4.836968972727544 C-73.14043049156827 -5.191946050491023, -73.02256998151329 -5.546923128254502, -72.91490067484594 -5.871205925162218 M-73.25829100162323 -4.836968972727544 C-73.14542584641237 -5.176900837602309, -73.03256069120148 -5.516832702477074, -72.91490067484594 -5.871205925162218 M-72.91490067484594 -5.871205925162218 C-72.82831314130433 -6.085078807066049, -72.74172560776273 -6.298951688969879, -72.50595209126881 -6.881316833080692 M-72.91490067484594 -5.871205925162218 C-72.75594204002003 -6.263836826438341, -72.59698340519412 -6.656467727714465, -72.50595209126881 -6.881316833080692 M-72.50595209126881 -6.881316833080692 C-72.34249236438028 -7.220744453442607, -72.17903263749174 -7.560172073804521, -72.033125708341 -7.863150934094194 M-72.50595209126881 -6.881316833080692 C-72.39595621249106 -7.109725628897483, -72.28596033371329 -7.338134424714273, -72.033125708341 -7.863150934094194 M-72.033125708341 -7.863150934094194 C-71.83556078779043 -8.213947456149278, -71.63799586723985 -8.564743978204362, -71.49836447109088 -8.812673661278929 M-72.033125708341 -7.863150934094194 C-71.91194424336791 -8.078320896107872, -71.79076277839481 -8.293490858121551, -71.49836447109088 -8.812673661278929 M-71.49836447109088 -8.812673661278929 C-71.30954536508722 -9.102750513129902, -71.12072625908354 -9.392827364980873, -70.90386582814826 -9.725983222076884 M-71.49836447109088 -8.812673661278929 C-71.36003969911425 -9.025177656437164, -71.22171492713761 -9.2376816515954, -70.90386582814826 -9.725983222076884 M-70.90386582814826 -9.725983222076884 C-70.7609797608094 -9.917437535122414, -70.61809369347056 -10.108891848167943, -70.25207270195651 -10.599326631598467 M-70.90386582814826 -9.725983222076884 C-70.73192817586519 -9.956364012293825, -70.55999052358213 -10.186744802510766, -70.25207270195651 -10.599326631598467 M-70.25207270195651 -10.599326631598467 C-70.0234723909303 -10.867853564656045, -69.7948720799041 -11.136380497713622, -69.54566345028037 -11.42911513444238 M-70.25207270195651 -10.599326631598467 C-70.01250724722021 -10.880733846392259, -69.77294179248392 -11.162141061186052, -69.54566345028037 -11.42911513444238 M-69.54566345028037 -11.42911513444238 C-69.27593123138172 -11.707635795882252, -69.00619901248307 -11.986156457322124, -68.78754086025927 -12.21193895166136 M-69.54566345028037 -11.42911513444238 C-69.35038872592452 -11.630752319692835, -69.15511400156865 -11.832389504943288, -68.78754086025927 -12.21193895166136 M-68.78754086025927 -12.21193895166136 C-68.50153985557945 -12.471677496939655, -68.21553885089963 -12.731416042217953, -67.98082022023242 -12.944581292275274 M-68.78754086025927 -12.21193895166136 C-68.55654511110575 -12.42172317922999, -68.32554936195221 -12.631507406798619, -67.98082022023242 -12.944581292275274 M-67.98082022023242 -12.944581292275274 C-67.71478282428708 -13.156739035989242, -67.44874542834177 -13.368896779703212, -67.12881651835067 -13.624031571755259 M-67.98082022023242 -12.944581292275274 C-67.6638524023006 -13.19735469220801, -67.34688458436881 -13.450128092140746, -67.12881651835067 -13.624031571755259 M-67.12881651835067 -13.624031571755259 C-66.9332199477766 -13.76047127214866, -66.73762337720252 -13.896910972542063, -66.23503082057934 -14.247497783161284 M-67.12881651835067 -13.624031571755259 C-66.85815418006145 -13.812833902162046, -66.5874918417722 -14.001636232568831, -66.23503082057934 -14.247497783161284 M-66.23503082057934 -14.247497783161284 C-66.01355583497312 -14.381757220967257, -65.7920808493669 -14.51601665877323, -65.30313588406695 -14.812417970097618 M-66.23503082057934 -14.247497783161284 C-65.96445208759985 -14.411524201190586, -65.69387335462035 -14.575550619219888, -65.30313588406695 -14.812417970097618 M-65.30313588406695 -14.812417970097618 C-65.04989471955672 -14.944533723413896, -64.79665355504649 -15.076649476730173, -64.33696106499849 -15.316470754341124 M-65.30313588406695 -14.812417970097618 C-65.02073992022906 -14.959743763548593, -64.73834395639119 -15.107069556999567, -64.33696106499849 -15.316470754341124 M-64.33696106499849 -15.316470754341124 C-64.12108294595855 -15.412033593843232, -63.905204826918606 -15.50759643334534, -63.34047658294937 -15.757584874882365 M-64.33696106499849 -15.316470754341124 C-64.05588597420358 -15.440894359239707, -63.77481088340866 -15.56531796413829, -63.34047658294937 -15.757584874882365 M-63.34047658294937 -15.757584874882365 C-63.11906669471985 -15.8390657604414, -62.897656806490325 -15.920546646000437, -62.317777206401566 -16.133947699181363 M-63.34047658294937 -15.757584874882365 C-62.96371203024177 -15.896237713052109, -62.58694747753417 -16.034890551221853, -62.317777206401566 -16.133947699181363 M-62.317777206401566 -16.133947699181363 C-62.085332219943474 -16.20293615103349, -61.85288723348538 -16.271924602885623, -61.27306542646164 -16.444012671663494 M-62.317777206401566 -16.133947699181363 C-62.02758172440028 -16.220076194972176, -61.73738624239899 -16.30620469076299, -61.27306542646164 -16.444012671663494 M-61.27306542646164 -16.444012671663494 C-61.001679834717244 -16.505954662022663, -60.730294242972846 -16.56789665238183, -60.21063418792333 -16.68650566884811 M-61.27306542646164 -16.444012671663494 C-60.97690662632822 -16.511608985177165, -60.680747826194796 -16.579205298690834, -60.21063418792333 -16.68650566884811 M-60.21063418792333 -16.68650566884811 C-59.808846362230696 -16.75146360859497, -59.40705853653805 -16.816421548341832, -59.13484924863661 -16.86043023499518 M-60.21063418792333 -16.68650566884811 C-59.87659524550458 -16.740510494547685, -59.542556303085824 -16.79451532024726, -59.13484924863661 -16.86043023499518 M-59.13484924863661 -16.86043023499518 C-58.79910614694419 -16.892818968225292, -58.463363045251775 -16.925207701455406, -58.05013123967212 -16.965071676755716 M-59.13484924863661 -16.86043023499518 C-58.84438276174684 -16.88845118764838, -58.55391627485707 -16.916472140301572, -58.05013123967212 -16.965071676755716 M-58.05013123967212 -16.965071676755716 C-57.69219361017767 -16.976550039850274, -57.33425598068322 -16.98802840294483, -56.96093750000001 -17 M-58.05013123967212 -16.965071676755716 C-57.827471170088145 -16.97221195180574, -57.60481110050417 -16.979352226855767, -56.96093750000001 -17 M-56.96093750000001 -17 C-56.96093750000001 -17, -56.9609375 -17, -56.9609375 -17 M-56.96093750000001 -17 C-56.96093750000001 -17, -56.96093750000001 -17, -56.9609375 -17" stroke="#9370DB" stroke-width="1.3" fill="none" stroke-dasharray="0 0" style=""></path></g><g class="label" style="" transform="translate(0, -9.5)"><rect></rect><g><rect class="background" style="stroke: none"></rect><text y="-10.1" style=""><tspan class="text-outer-tspan row" x="0" y="-0.1em" dy="1.1em"><tspan font-style="normal" class="text-inner-tspan" font-weight="normal">Pick</tspan><tspan font-style="normal" class="text-inner-tspan" font-weight="normal"> an</tspan><tspan font-style="normal" class="text-inner-tspan" font-weight="normal"> algorithm</tspan></tspan></text></g></g></g><g class="node default" id="gabc1d408-ab5f-45e3-9670-762089166bd5-light-flowchart-Q1-2" data-look="classic" transform="translate(513.6171875, 208.4046859741211)"><polygon points="116.4046859741211,0 232.8093719482422,-116.4046859741211 116.4046859741211,-232.8093719482422 0,-116.4046859741211" class="label-container" transform="translate(-115.9046859741211, 116.4046859741211)"></polygon><g class="label" style="" transform="translate(0, -27.099998474121094)"><rect></rect><g><rect class="background" style="stroke: none"></rect><text y="-10.1" style=""><tspan class="text-outer-tspan row" x="0" y="-0.1em" dy="1.1em"><tspan font-style="normal" class="text-inner-tspan" font-weight="normal">Need</tspan><tspan font-style="normal" class="text-inner-tspan" font-weight="normal"> session</tspan><tspan font-style="normal" class="text-inner-tspan" font-weight="normal"> affinity</tspan></tspan><tspan class="text-outer-tspan row" x="0" y="1em" dy="1.1em"><tspan font-style="normal" class="text-inner-tspan" font-weight="normal">by</tspan><tspan font-style="normal" class="text-inner-tspan" font-weight="normal"> key</tspan><tspan font-style="normal" class="text-inner-tspan" font-weight="normal"> —</tspan><tspan font-style="normal" class="text-inner-tspan" font-weight="normal"> user</tspan><tspan font-style="normal" class="text-inner-tspan" font-weight="normal"> id,</tspan></tspan><tspan class="text-outer-tspan row" x="0" y="2.1em" dy="1.1em"><tspan font-style="normal" class="text-inner-tspan" font-weight="normal">cache</tspan><tspan font-style="normal" class="text-inner-tspan" font-weight="normal"> key,</tspan><tspan font-style="normal" class="text-inner-tspan" font-weight="normal"> tenant?</tspan></tspan></text></g></g></g><g class="node default" id="gabc1d408-ab5f-45e3-9670-762089166bd5-light-flowchart-Hash-4" data-look="classic" transform="translate(259.70703125, 506.71875)"><polygon points="96.6015625,0 193.203125,-96.6015625 96.6015625,-193.203125 0,-96.6015625" class="label-container" transform="translate(-96.1015625, 96.6015625)"></polygon><g class="label" style="" transform="translate(0, -9.5)"><rect></rect><g><rect class="background" style="stroke: none"></rect><text y="-10.1" style=""><tspan class="text-outer-tspan row" x="0" y="-0.1em" dy="1.1em"><tspan font-style="normal" class="text-inner-tspan" font-weight="normal">Pool</tspan><tspan font-style="normal" class="text-inner-tspan" font-weight="normal"> size</tspan><tspan font-style="normal" class="text-inner-tspan" font-weight="normal"> and</tspan><tspan font-style="normal" class="text-inner-tspan" font-weight="normal"> churn?</tspan></tspan></text></g></g></g><g class="node default" id="gabc1d408-ab5f-45e3-9670-762089166bd5-light-flowchart-Ring-6" data-look="classic" transform="translate(122.765625, 764.7906265258789)"><rect class="basic label-container" style="" x="-114.765625" y="-42.099998474121094" width="229.53125" height="84.19999694824219"></rect><g class="label" style="" transform="translate(0, -27.099998474121094)"><rect></rect><g><rect class="background" style="stroke: none"></rect><text y="-10.1" style=""><tspan class="text-outer-tspan row" x="0" y="-0.1em" dy="1.1em"><tspan font-style="normal" class="text-inner-tspan" font-weight="normal">Ring</tspan><tspan font-style="normal" class="text-inner-tspan" font-weight="normal"> consistent</tspan><tspan font-style="normal" class="text-inner-tspan" font-weight="normal"> hash</tspan></tspan><tspan class="text-outer-tspan row" x="0" y="1em" dy="1.1em"><tspan font-style="normal" class="text-inner-tspan" font-weight="normal">e.g.</tspan><tspan font-style="normal" class="text-inner-tspan" font-weight="normal"> Ketama,</tspan><tspan font-style="normal" class="text-inner-tspan" font-weight="normal"> Cassandra</tspan></tspan><tspan class="text-outer-tspan row" x="0" y="2.1em" dy="1.1em"><tspan font-style="normal" class="text-inner-tspan" font-weight="normal">vnodes</tspan></tspan></text></g></g></g><g class="node default" id="gabc1d408-ab5f-45e3-9670-762089166bd5-light-flowchart-Maglev-8" data-look="classic" transform="translate(396.6484375, 764.7906265258789)"><rect class="basic label-container" style="" x="-109.1171875" y="-42.099998474121094" width="218.234375" height="84.19999694824219"></rect><g class="label" style="" transform="translate(0, -27.099998474121094)"><rect></rect><g><rect class="background" style="stroke: none"></rect><text y="-10.1" style=""><tspan class="text-outer-tspan row" x="0" y="-0.1em" dy="1.1em"><tspan font-style="normal" class="text-inner-tspan" font-weight="normal">Maglev</tspan><tspan font-style="normal" class="text-inner-tspan" font-weight="normal"> hash</tspan></tspan><tspan class="text-outer-tspan row" x="0" y="1em" dy="1.1em"><tspan font-style="normal" class="text-inner-tspan" font-weight="normal">e.g.</tspan><tspan font-style="normal" class="text-inner-tspan" font-weight="normal"> Envoy,</tspan><tspan font-style="normal" class="text-inner-tspan" font-weight="normal"> Cloudflare</tspan></tspan><tspan class="text-outer-tspan row" x="0" y="2.1em" dy="1.1em"><tspan font-style="normal" class="text-inner-tspan" font-weight="normal">Unimog</tspan></tspan></text></g></g></g><g class="node default" id="gabc1d408-ab5f-45e3-9670-762089166bd5-light-flowchart-Q2-10" data-look="classic" transform="translate(790.15234375, 506.71875)"><polygon points="108.90937423706055,0 217.8187484741211,-108.90937423706055 108.90937423706055,-217.8187484741211 0,-108.90937423706055" class="label-container" transform="translate(-108.40937423706055, 108.90937423706055)"></polygon><g class="label" style="" transform="translate(0, -18.299999237060547)"><rect></rect><g><rect class="background" style="stroke: none"></rect><text y="-10.1" style=""><tspan class="text-outer-tspan row" x="0" y="-0.1em" dy="1.1em"><tspan font-style="normal" class="text-inner-tspan" font-weight="normal">Variable</tspan><tspan font-style="normal" class="text-inner-tspan" font-weight="normal"> request</tspan><tspan font-style="normal" class="text-inner-tspan" font-weight="normal"> cost</tspan></tspan><tspan class="text-outer-tspan row" x="0" y="1em" dy="1.1em"><tspan font-style="normal" class="text-inner-tspan" font-weight="normal">or</tspan><tspan font-style="normal" class="text-inner-tspan" font-weight="normal"> backend</tspan><tspan font-style="normal" class="text-inner-tspan" font-weight="normal"> capacity?</tspan></tspan></text></g></g></g><g class="node default" id="gabc1d408-ab5f-45e3-9670-762089166bd5-light-flowchart-RR-12" data-look="classic" transform="translate(675.8359375, 764.7906265258789)"><rect class="basic label-container" style="" x="-120.0703125" y="-42.099998474121094" width="240.140625" height="84.19999694824219"></rect><g class="label" style="" transform="translate(0, -27.099998474121094)"><rect></rect><g><rect class="background" style="stroke: none"></rect><text y="-10.1" style=""><tspan class="text-outer-tspan row" x="0" y="-0.1em" dy="1.1em"><tspan font-style="normal" class="text-inner-tspan" font-weight="normal">Round</tspan><tspan font-style="normal" class="text-inner-tspan" font-weight="normal"> robin</tspan></tspan><tspan class="text-outer-tspan row" x="0" y="1em" dy="1.1em"><tspan font-style="normal" class="text-inner-tspan" font-weight="normal">weighted</tspan><tspan font-style="normal" class="text-inner-tspan" font-weight="normal"> RR</tspan><tspan font-style="normal" class="text-inner-tspan" font-weight="normal"> for</tspan><tspan font-style="normal" class="text-inner-tspan" font-weight="normal"> capacity</tspan></tspan><tspan class="text-outer-tspan row" x="0" y="2.1em" dy="1.1em"><tspan font-style="normal" class="text-inner-tspan" font-weight="normal">tiers</tspan></tspan></text></g></g></g><g class="node default" id="gabc1d408-ab5f-45e3-9670-762089166bd5-light-flowchart-Q3-14" data-look="classic" transform="translate(904.46875, 764.7906265258789)"><polygon points="58.5625,0 117.125,-58.5625 58.5625,-117.125 0,-58.5625" class="label-container" transform="translate(-58.0625, 58.5625)"></polygon><g class="label" style="" transform="translate(0, -9.5)"><rect></rect><g><rect class="background" style="stroke: none"></rect><text y="-10.1" style=""><tspan class="text-outer-tspan row" x="0" y="-0.1em" dy="1.1em"><tspan font-style="normal" class="text-inner-tspan" font-weight="normal">Pool</tspan><tspan font-style="normal" class="text-inner-tspan" font-weight="normal"> size?</tspan></tspan></text></g></g></g><g class="node default" id="gabc1d408-ab5f-45e3-9670-762089166bd5-light-flowchart-LC-16" data-look="classic" transform="translate(754.44921875, 956.0531234741211)"><rect class="basic label-container" style="" x="-120.4765625" y="-42.099998474121094" width="240.953125" height="84.19999694824219"></rect><g class="label" style="" transform="translate(0, -27.099998474121094)"><rect></rect><g><rect class="background" style="stroke: none"></rect><text y="-10.1" style=""><tspan class="text-outer-tspan row" x="0" y="-0.1em" dy="1.1em"><tspan font-style="normal" class="text-inner-tspan" font-weight="normal">Least</tspan><tspan font-style="normal" class="text-inner-tspan" font-weight="normal"> connections</tspan><tspan font-style="normal" class="text-inner-tspan" font-weight="normal"> /</tspan><tspan font-style="normal" class="text-inner-tspan" font-weight="normal"> least</tspan></tspan><tspan class="text-outer-tspan row" x="0" y="1em" dy="1.1em"><tspan font-style="normal" class="text-inner-tspan" font-weight="normal">requests</tspan></tspan><tspan class="text-outer-tspan row" x="0" y="2.1em" dy="1.1em"><tspan font-style="normal" class="text-inner-tspan" font-weight="normal">e.g.</tspan><tspan font-style="normal" class="text-inner-tspan" font-weight="normal"> HAProxy</tspan><tspan font-style="normal" class="text-inner-tspan" font-weight="normal"> leastconn</tspan></tspan></text></g></g></g><g class="node default" id="gabc1d408-ab5f-45e3-9670-762089166bd5-light-flowchart-P2C-18" data-look="classic" transform="translate(1054.48828125, 956.0531234741211)"><rect class="basic label-container" style="" x="-129.5625" y="-42.099998474121094" width="259.125" height="84.19999694824219"></rect><g class="label" style="" transform="translate(0, -27.099998474121094)"><rect></rect><g><rect class="background" style="stroke: none"></rect><text y="-10.1" style=""><tspan class="text-outer-tspan row" x="0" y="-0.1em" dy="1.1em"><tspan font-style="normal" class="text-inner-tspan" font-weight="normal">Power</tspan><tspan font-style="normal" class="text-inner-tspan" font-weight="normal"> of</tspan><tspan font-style="normal" class="text-inner-tspan" font-weight="normal"> two</tspan><tspan font-style="normal" class="text-inner-tspan" font-weight="normal"> choices</tspan></tspan><tspan class="text-outer-tspan row" x="0" y="1em" dy="1.1em"><tspan font-style="normal" class="text-inner-tspan" font-weight="normal">e.g.</tspan><tspan font-style="normal" class="text-inner-tspan" font-weight="normal"> Envoy</tspan><tspan font-style="normal" class="text-inner-tspan" font-weight="normal"> LEAST_REQUEST,</tspan></tspan><tspan class="text-outer-tspan row" x="0" y="2.1em" dy="1.1em"><tspan font-style="normal" class="text-inner-tspan" font-weight="normal">Netflix</tspan><tspan font-style="normal" class="text-inner-tspan" font-weight="normal"> Zuul</tspan><tspan font-style="normal" class="text-inner-tspan" font-weight="normal"> Choice-of-2</tspan></tspan></text></g></g></g></g></g></g><defs><filter id="gabc1d408-ab5f-45e3-9670-762089166bd5-light-drop-shadow" height="130%" width="130%"><feDropShadow dx="4" dy="4" stdDeviation="0" flood-opacity="0.06" flood-color="#000000"></feDropShadow></filter></defs><defs><filter id="gabc1d408-ab5f-45e3-9670-762089166bd5-light-drop-shadow-small" height="150%" width="150%"><feDropShadow dx="2" dy="2" stdDeviation="0" flood-opacity="0.06" flood-color="#000000"></feDropShadow></filter></defs></svg>