<svg id="g335ba996-a77c-41e5-bcb0-62a3b0401a04-light" width="100%" xmlns="http://www.w3.org/2000/svg" xmlns:xlink="http://www.w3.org/1999/xlink" class="statediagram" style="max-width: 1113.647216796875px;" viewBox="2.61328125 0 1113.647216796875 903.7999877929688" role="graphics-document document" aria-roledescription="stateDiagram"><style>#g335ba996-a77c-41e5-bcb0-62a3b0401a04-light{font-family:"trebuchet ms",verdana,arial,sans-serif;font-size:16px;fill:#333;}@keyframes edge-animation-frame{from{stroke-dashoffset:0;}}@keyframes dash{to{stroke-dashoffset:0;}}#g335ba996-a77c-41e5-bcb0-62a3b0401a04-light .edge-animation-slow{stroke-dasharray:9,5!important;stroke-dashoffset:900;animation:dash 50s linear infinite;stroke-linecap:round;}#g335ba996-a77c-41e5-bcb0-62a3b0401a04-light .edge-animation-fast{stroke-dasharray:9,5!important;stroke-dashoffset:900;animation:dash 20s linear infinite;stroke-linecap:round;}#g335ba996-a77c-41e5-bcb0-62a3b0401a04-light .error-icon{fill:#552222;}#g335ba996-a77c-41e5-bcb0-62a3b0401a04-light .error-text{fill:#552222;stroke:#552222;}#g335ba996-a77c-41e5-bcb0-62a3b0401a04-light .edge-thickness-normal{stroke-width:1px;}#g335ba996-a77c-41e5-bcb0-62a3b0401a04-light .edge-thickness-thick{stroke-width:3.5px;}#g335ba996-a77c-41e5-bcb0-62a3b0401a04-light .edge-pattern-solid{stroke-dasharray:0;}#g335ba996-a77c-41e5-bcb0-62a3b0401a04-light .edge-thickness-invisible{stroke-width:0;fill:none;}#g335ba996-a77c-41e5-bcb0-62a3b0401a04-light .edge-pattern-dashed{stroke-dasharray:3;}#g335ba996-a77c-41e5-bcb0-62a3b0401a04-light .edge-pattern-dotted{stroke-dasharray:2;}#g335ba996-a77c-41e5-bcb0-62a3b0401a04-light .marker{fill:#333333;stroke:#333333;}#g335ba996-a77c-41e5-bcb0-62a3b0401a04-light .marker.cross{stroke:#333333;}#g335ba996-a77c-41e5-bcb0-62a3b0401a04-light svg{font-family:"trebuchet ms",verdana,arial,sans-serif;font-size:16px;}#g335ba996-a77c-41e5-bcb0-62a3b0401a04-light p{margin:0;}#g335ba996-a77c-41e5-bcb0-62a3b0401a04-light defs [id$="-barbEnd"]{fill:#333333;stroke:#333333;}#g335ba996-a77c-41e5-bcb0-62a3b0401a04-light g.stateGroup text{fill:#9370DB;stroke:none;font-size:10px;}#g335ba996-a77c-41e5-bcb0-62a3b0401a04-light g.stateGroup text{fill:#333;stroke:none;font-size:10px;}#g335ba996-a77c-41e5-bcb0-62a3b0401a04-light g.stateGroup .state-title{font-weight:bolder;fill:#131300;}#g335ba996-a77c-41e5-bcb0-62a3b0401a04-light g.stateGroup rect{fill:#ECECFF;stroke:#9370DB;}#g335ba996-a77c-41e5-bcb0-62a3b0401a04-light g.stateGroup line{stroke:#333333;stroke-width:1;}#g335ba996-a77c-41e5-bcb0-62a3b0401a04-light .transition{stroke:#333333;stroke-width:1;fill:none;}#g335ba996-a77c-41e5-bcb0-62a3b0401a04-light .stateGroup .composit{fill:white;border-bottom:1px;}#g335ba996-a77c-41e5-bcb0-62a3b0401a04-light .stateGroup .alt-composit{fill:#e0e0e0;border-bottom:1px;}#g335ba996-a77c-41e5-bcb0-62a3b0401a04-light .state-note{stroke:#aaaa33;fill:#fff5ad;}#g335ba996-a77c-41e5-bcb0-62a3b0401a04-light .state-note text{fill:black;stroke:none;font-size:10px;}#g335ba996-a77c-41e5-bcb0-62a3b0401a04-light .stateLabel .box{stroke:none;stroke-width:0;fill:#ECECFF;opacity:0.5;}#g335ba996-a77c-41e5-bcb0-62a3b0401a04-light .edgeLabel .label rect{fill:#ECECFF;opacity:0.5;}#g335ba996-a77c-41e5-bcb0-62a3b0401a04-light .edgeLabel{background-color:rgba(232,232,232, 0.8);text-align:center;}#g335ba996-a77c-41e5-bcb0-62a3b0401a04-light .edgeLabel p{background-color:rgba(232,232,232, 0.8);}#g335ba996-a77c-41e5-bcb0-62a3b0401a04-light .edgeLabel rect{opacity:0.5;background-color:rgba(232,232,232, 0.8);fill:rgba(232,232,232, 0.8);}#g335ba996-a77c-41e5-bcb0-62a3b0401a04-light .edgeLabel .label text{fill:#333;}#g335ba996-a77c-41e5-bcb0-62a3b0401a04-light .label div .edgeLabel{color:#333;}#g335ba996-a77c-41e5-bcb0-62a3b0401a04-light .stateLabel text{fill:#131300;font-size:10px;font-weight:bold;}#g335ba996-a77c-41e5-bcb0-62a3b0401a04-light .node circle.state-start{fill:#333333;stroke:#333333;}#g335ba996-a77c-41e5-bcb0-62a3b0401a04-light .node .fork-join{fill:#333333;stroke:#333333;}#g335ba996-a77c-41e5-bcb0-62a3b0401a04-light .node circle.state-end{fill:#9370DB;stroke:white;stroke-width:1.5;}#g335ba996-a77c-41e5-bcb0-62a3b0401a04-light .end-state-inner{fill:white;stroke-width:1.5;}#g335ba996-a77c-41e5-bcb0-62a3b0401a04-light .node rect{fill:#ECECFF;stroke:#9370DB;stroke-width:1px;}#g335ba996-a77c-41e5-bcb0-62a3b0401a04-light .node polygon{fill:#ECECFF;stroke:#9370DB;stroke-width:1px;}#g335ba996-a77c-41e5-bcb0-62a3b0401a04-light [id$="-barbEnd"]{fill:#333333;}#g335ba996-a77c-41e5-bcb0-62a3b0401a04-light .statediagram-cluster rect{fill:#ECECFF;stroke:#9370DB;stroke-width:1px;}#g335ba996-a77c-41e5-bcb0-62a3b0401a04-light .cluster-label,#g335ba996-a77c-41e5-bcb0-62a3b0401a04-light .nodeLabel{color:#131300;}#g335ba996-a77c-41e5-bcb0-62a3b0401a04-light .statediagram-cluster rect.outer{rx:5px;ry:5px;}#g335ba996-a77c-41e5-bcb0-62a3b0401a04-light .statediagram-state .divider{stroke:#9370DB;}#g335ba996-a77c-41e5-bcb0-62a3b0401a04-light .statediagram-state .title-state{rx:5px;ry:5px;}#g335ba996-a77c-41e5-bcb0-62a3b0401a04-light .statediagram-cluster.statediagram-cluster .inner{fill:white;}#g335ba996-a77c-41e5-bcb0-62a3b0401a04-light .statediagram-cluster.statediagram-cluster-alt .inner{fill:#f0f0f0;}#g335ba996-a77c-41e5-bcb0-62a3b0401a04-light .statediagram-cluster .inner{rx:0;ry:0;}#g335ba996-a77c-41e5-bcb0-62a3b0401a04-light .statediagram-state rect.basic{rx:5px;ry:5px;}#g335ba996-a77c-41e5-bcb0-62a3b0401a04-light .statediagram-state rect.divider{stroke-dasharray:10,10;fill:#f0f0f0;}#g335ba996-a77c-41e5-bcb0-62a3b0401a04-light .note-edge{stroke-dasharray:5;}#g335ba996-a77c-41e5-bcb0-62a3b0401a04-light .statediagram-note rect{fill:#fff5ad;stroke:#aaaa33;stroke-width:1px;rx:0;ry:0;}#g335ba996-a77c-41e5-bcb0-62a3b0401a04-light .statediagram-note rect{fill:#fff5ad;stroke:#aaaa33;stroke-width:1px;rx:0;ry:0;}#g335ba996-a77c-41e5-bcb0-62a3b0401a04-light .statediagram-note text{fill:black;}#g335ba996-a77c-41e5-bcb0-62a3b0401a04-light .statediagram-note .nodeLabel{color:black;}#g335ba996-a77c-41e5-bcb0-62a3b0401a04-light .statediagram .edgeLabel{color:red;}#g335ba996-a77c-41e5-bcb0-62a3b0401a04-light [id$="-dependencyStart"],#g335ba996-a77c-41e5-bcb0-62a3b0401a04-light [id$="-dependencyEnd"]{fill:#333333;stroke:#333333;stroke-width:1;}#g335ba996-a77c-41e5-bcb0-62a3b0401a04-light .statediagramTitleText{text-anchor:middle;font-size:18px;fill:#333;}#g335ba996-a77c-41e5-bcb0-62a3b0401a04-light [data-look="neo"].statediagram-cluster rect{fill:#ECECFF;stroke:#9370DB;stroke-width:1;}#g335ba996-a77c-41e5-bcb0-62a3b0401a04-light [data-look="neo"].statediagram-cluster rect.outer{rx:5px;ry:5px;filter:drop-shadow(1px 2px 2px rgba(185, 185, 185, 1));}#g335ba996-a77c-41e5-bcb0-62a3b0401a04-light .node .neo-node{stroke:#9370DB;}#g335ba996-a77c-41e5-bcb0-62a3b0401a04-light [data-look="neo"].node rect,#g335ba996-a77c-41e5-bcb0-62a3b0401a04-light [data-look="neo"].cluster rect,#g335ba996-a77c-41e5-bcb0-62a3b0401a04-light [data-look="neo"].node polygon{stroke:#9370DB;filter:drop-shadow(1px 2px 2px rgba(185, 185, 185, 1));}#g335ba996-a77c-41e5-bcb0-62a3b0401a04-light [data-look="neo"].node path{stroke:#9370DB;stroke-width:1px;}#g335ba996-a77c-41e5-bcb0-62a3b0401a04-light [data-look="neo"].node .outer-path{filter:drop-shadow(1px 2px 2px rgba(185, 185, 185, 1));}#g335ba996-a77c-41e5-bcb0-62a3b0401a04-light [data-look="neo"].node .neo-line path{stroke:#9370DB;filter:none;}#g335ba996-a77c-41e5-bcb0-62a3b0401a04-light [data-look="neo"].node circle{stroke:#9370DB;filter:drop-shadow(1px 2px 2px rgba(185, 185, 185, 1));}#g335ba996-a77c-41e5-bcb0-62a3b0401a04-light [data-look="neo"].node circle .state-start{fill:#000000;}#g335ba996-a77c-41e5-bcb0-62a3b0401a04-light [data-look="neo"].icon-shape .icon{fill:#9370DB;filter:drop-shadow(1px 2px 2px rgba(185, 185, 185, 1));}#g335ba996-a77c-41e5-bcb0-62a3b0401a04-light [data-look="neo"].icon-shape .icon-neo path{stroke:#9370DB;filter:drop-shadow(1px 2px 2px rgba(185, 185, 185, 1));}#g335ba996-a77c-41e5-bcb0-62a3b0401a04-light :root{--mermaid-font-family:"trebuchet ms",verdana,arial,sans-serif;}</style><g><defs><marker id="g335ba996-a77c-41e5-bcb0-62a3b0401a04-light_stateDiagram-barbEnd" refX="19" refY="7" markerWidth="20" markerHeight="14" markerUnits="userSpaceOnUse" orient="auto"><path d="M 19,7 L9,13 L14,7 L9,1 Z"></path></marker></defs><g class="root"><g class="clusters"><g class="note-cluster" id="g335ba996-a77c-41e5-bcb0-62a3b0401a04-light-state-SlowStart----parent-12"><rect x="10.61328125" y="431.1999969482422" width="294.515625" height="187" fill="none"></rect></g><g class="note-cluster" id="g335ba996-a77c-41e5-bcb0-62a3b0401a04-light-state-Outlier----parent-13"><rect x="371.25390625" y="431.1999969482422" width="294.3125" height="187" fill="none"></rect></g><g class="note-cluster" id="g335ba996-a77c-41e5-bcb0-62a3b0401a04-light-state-Draining----parent-14"><rect x="813.0730528831482" y="708.7999954223633" width="295.1875" height="187" fill="none"></rect></g></g><g class="edgePaths"><path d="M575.429,22L575.429,26.167C575.429,30.333,575.429,38.667,575.429,47C575.429,55.333,575.429,63.667,575.429,67.833L575.429,72" id="g335ba996-a77c-41e5-bcb0-62a3b0401a04-light-edge0" class="edge-thickness-normal edge-pattern-solid transition" style="fill:none;;;fill:none" data-edge="true" data-et="edge" data-id="edge0" data-points="W3sieCI6NTc1LjQyOTEwNDU2NjU3NDEsInkiOjIyfSx7IngiOjU3NS40MjkxMDQ1NjY1NzQxLCJ5Ijo0N30seyJ4Ijo1NzUuNDI5MTA0NTY2NTc0MSwieSI6NzJ9XQ==" data-look="classic" marker-end="url(#g335ba996-a77c-41e5-bcb0-62a3b0401a04-light_stateDiagram-barbEnd)"></path><path d="M575.429,107L575.429,114.55C575.429,122.1,575.429,137.2,575.429,152.3C575.429,167.4,575.429,182.5,575.429,190.05L575.429,197.6" id="g335ba996-a77c-41e5-bcb0-62a3b0401a04-light-edge1" class="edge-thickness-normal edge-pattern-solid transition" style="fill:none;;;fill:none" data-edge="true" data-et="edge" data-id="edge1" data-points="W3sieCI6NTc1LjQyOTEwNDU2NjU3NDEsInkiOjEwN30seyJ4Ijo1NzUuNDI5MTA0NTY2NTc0MSwieSI6MTUyLjI5OTk5OTIzNzA2MDU1fSx7IngiOjU3NS40MjkxMDQ1NjY1NzQxLCJ5IjoxOTcuNTk5OTk4NDc0MTIxMX1d" data-look="classic" marker-end="url(#g335ba996-a77c-41e5-bcb0-62a3b0401a04-light_stateDiagram-barbEnd)"></path><path d="M539.781,219.658L463.858,229.365C387.935,239.072,236.088,258.486,169.017,275.743C101.946,293,119.65,308.1,128.502,315.65L137.353,323.2" id="g335ba996-a77c-41e5-bcb0-62a3b0401a04-light-edge2" class="edge-thickness-normal edge-pattern-solid transition" style="fill:none;;;fill:none" data-edge="true" data-et="edge" data-id="edge2" data-points="W3sieCI6NTM5Ljc4MDY2NzA2NjU3NDEsInkiOjIxOS42NTc3NzgzNTM4NzA5NX0seyJ4Ijo4NC4yNDIxODc1LCJ5IjoyNzcuODk5OTk3NzExMTgxNjR9LHsieCI6MTM3LjM1MzQ4NDI3NTAyMDgsInkiOjMyMy4xOTk5OTY5NDgyNDIyfV0=" data-look="classic" marker-end="url(#g335ba996-a77c-41e5-bcb0-62a3b0401a04-light_stateDiagram-barbEnd)"></path><path d="M186.461,323.2L198.796,315.65C211.13,308.1,235.8,293,294.686,276.168C353.573,259.336,446.677,240.772,493.229,231.49L539.781,222.208" id="g335ba996-a77c-41e5-bcb0-62a3b0401a04-light-edge3" class="edge-thickness-normal edge-pattern-solid transition" style="fill:none;;;fill:none" data-edge="true" data-et="edge" data-id="edge3" data-points="W3sieCI6MTg2LjQ2MTIwNTMxMzQ5NTYsInkiOjMyMy4xOTk5OTY5NDgyNDIyfSx7IngiOjI2MC40Njg3NSwieSI6Mjc3Ljg5OTk5NzcxMTE4MTY0fSx7IngiOjUzOS43ODA2NjcwNjY1NzQxLCJ5IjoyMjIuMjA3OTQ2NTU1MDI1MzN9XQ==" data-look="classic" marker-end="url(#g335ba996-a77c-41e5-bcb0-62a3b0401a04-light_stateDiagram-barbEnd)"></path><path d="M539.781,232.236L523.947,239.846C508.114,247.457,476.448,262.679,469.466,277.839C462.485,293,480.189,308.1,489.041,315.65L497.893,323.2" id="g335ba996-a77c-41e5-bcb0-62a3b0401a04-light-edge4" class="edge-thickness-normal edge-pattern-solid transition" style="fill:none;;;fill:none" data-edge="true" data-et="edge" data-id="edge4" data-points="W3sieCI6NTM5Ljc4MDY2NzA2NjU3NDEsInkiOjIzMi4yMzU1NDA4NDY2MjYxfSx7IngiOjQ0NC43ODEyNSwieSI6Mjc3Ljg5OTk5NzcxMTE4MTY0fSx7IngiOjQ5Ny44OTI1NDY3NzUwMjA4LCJ5IjozMjMuMTk5OTk2OTQ4MjQyMn1d" data-look="classic" marker-end="url(#g335ba996-a77c-41e5-bcb0-62a3b0401a04-light_stateDiagram-barbEnd)"></path><path d="M550.814,323.2L564.795,315.65C578.775,308.1,606.735,293,613.59,277.9C620.445,262.8,606.195,247.7,599.07,240.15L591.944,232.6" id="g335ba996-a77c-41e5-bcb0-62a3b0401a04-light-edge5" class="edge-thickness-normal edge-pattern-solid transition" style="fill:none;;;fill:none" data-edge="true" data-et="edge" data-id="edge5" data-points="W3sieCI6NTUwLjgxNDQ1OTczODgxNDEsInkiOjMyMy4xOTk5OTY5NDgyNDIyfSx7IngiOjYzNC42OTUzMTI1LCJ5IjoyNzcuODk5OTk3NzExMTgxNjR9LHsieCI6NTkxLjk0NDM2OTcxNjgxNDUsInkiOjIzMi41OTk5OTg0NzQxMjExfV0=" data-look="classic" marker-end="url(#g335ba996-a77c-41e5-bcb0-62a3b0401a04-light_stateDiagram-barbEnd)"></path><path d="M611.078,221.861L660.327,231.2C709.576,240.54,808.075,259.22,864.871,276.11C921.666,293,936.758,308.1,944.304,315.65L951.849,323.2" id="g335ba996-a77c-41e5-bcb0-62a3b0401a04-light-edge6" class="edge-thickness-normal edge-pattern-solid transition" style="fill:none;;;fill:none" data-edge="true" data-et="edge" data-id="edge6" data-points="W3sieCI6NjExLjA3NzU0MjA2NjU3NDEsInkiOjIyMS44NjA1NDQ2ODc1OTI3NX0seyJ4Ijo5MDYuNTc0MjE4NzUsInkiOjI3Ny44OTk5OTc3MTExODE2NH0seyJ4Ijo5NTEuODQ5NDIyNTU4MjE0NCwieSI6MzIzLjE5OTk5Njk0ODI0MjJ9XQ==" data-look="classic" marker-end="url(#g335ba996-a77c-41e5-bcb0-62a3b0401a04-light_stateDiagram-barbEnd)"></path><path d="M1005.505,323.2L1021.108,315.65C1036.71,308.1,1067.916,293,1002.178,275.696C936.44,258.392,773.759,238.883,692.418,229.129L611.078,219.375" id="g335ba996-a77c-41e5-bcb0-62a3b0401a04-light-edge7" class="edge-thickness-normal edge-pattern-solid transition" style="fill:none;;;fill:none" data-edge="true" data-et="edge" data-id="edge7" data-points="W3sieCI6MTAwNS41MDUwMDE0MzQ1ODMyLCJ5IjozMjMuMTk5OTk2OTQ4MjQyMn0seyJ4IjoxMDk5LjEyMTA5Mzc1LCJ5IjoyNzcuODk5OTk3NzExMTgxNjR9LHsieCI6NjExLjA3NzU0MjA2NjU3NDEsInkiOjIxOS4zNzQ4ODEyMTgyNTY5NX1d" data-look="classic" marker-end="url(#g335ba996-a77c-41e5-bcb0-62a3b0401a04-light_stateDiagram-barbEnd)"></path><path d="M611.078,226.543L637.742,235.103C664.407,243.662,717.737,260.781,744.402,279.807C771.066,298.833,771.066,319.767,771.066,339.233C771.066,358.7,771.066,376.7,771.066,391.783C771.066,406.867,771.066,419.033,787.87,437.783C804.674,456.533,838.282,481.867,855.085,494.533L871.889,507.2" id="g335ba996-a77c-41e5-bcb0-62a3b0401a04-light-edge8" class="edge-thickness-normal edge-pattern-solid transition" style="fill:none;;;fill:none" data-edge="true" data-et="edge" data-id="edge8" data-points="W3sieCI6NjExLjA3NzU0MjA2NjU3NDEsInkiOjIyNi41NDMyMjQ0MjYxMTc4Nn0seyJ4Ijo3NzEuMDY2NDA2MjUsInkiOjI3Ny44OTk5OTc3MTExODE2NH0seyJ4Ijo3NzEuMDY2NDA2MjUsInkiOjM0MC42OTk5OTY5NDgyNDIyfSx7IngiOjc3MS4wNjY0MDYyNSwieSI6Mzk0LjY5OTk5Njk0ODI0MjJ9LHsieCI6NzcxLjA2NjQwNjI1LCJ5Ijo0MzEuMTk5OTk2OTQ4MjQyMn0seyJ4Ijo4NzEuODg5MTI3NjA4OTI2NSwieSI6NTA3LjE5OTk5Njk0ODI0MjJ9XQ==" data-look="classic" marker-end="url(#g335ba996-a77c-41e5-bcb0-62a3b0401a04-light_stateDiagram-barbEnd)"></path><path d="M551.457,345.741L604.945,353.901C658.434,362.061,765.41,378.38,818.898,392.624C872.387,406.867,872.387,419.033,875.464,437.783C878.542,456.533,884.697,481.867,887.775,494.533L890.853,507.2" id="g335ba996-a77c-41e5-bcb0-62a3b0401a04-light-edge9" class="edge-thickness-normal edge-pattern-solid transition" style="fill:none;;;fill:none" data-edge="true" data-et="edge" data-id="edge9" data-points="W3sieCI6NTUxLjQ1NzAzMTI1LCJ5IjozNDUuNzQxMzc5NDU1MDI4OX0seyJ4Ijo4NzIuMzg2NzE4NzUsInkiOjM5NC42OTk5OTY5NDgyNDIyfSx7IngiOjg3Mi4zODY3MTg3NSwieSI6NDMxLjE5OTk5Njk0ODI0MjJ9LHsieCI6ODkwLjg1MjgyMjQ2MTg2NzcsInkiOjUwNy4xOTk5OTY5NDgyNDIyfV0=" data-look="classic" marker-end="url(#g335ba996-a77c-41e5-bcb0-62a3b0401a04-light_stateDiagram-barbEnd)"></path><path d="M969.34,358.2L969.34,364.283C969.34,370.367,969.34,382.533,969.34,394.7C969.34,406.867,969.34,419.033,959.283,437.783C949.226,456.533,929.113,481.867,919.056,494.533L908.999,507.2" id="g335ba996-a77c-41e5-bcb0-62a3b0401a04-light-edge10" class="edge-thickness-normal edge-pattern-solid transition" style="fill:none;;;fill:none" data-edge="true" data-et="edge" data-id="edge10" data-points="W3sieCI6OTY5LjMzOTg0Mzc1LCJ5IjozNTguMTk5OTk2OTQ4MjQyMn0seyJ4Ijo5NjkuMzM5ODQzNzUsInkiOjM5NC42OTk5OTY5NDgyNDIyfSx7IngiOjk2OS4zMzk4NDM3NSwieSI6NDMxLjE5OTk5Njk0ODI0MjJ9LHsieCI6OTA4Ljk5OTEyOTI4MDA0OTUsInkiOjUwNy4xOTk5OTY5NDgyNDIyfV0=" data-look="classic" marker-end="url(#g335ba996-a77c-41e5-bcb0-62a3b0401a04-light_stateDiagram-barbEnd)"></path><path d="M871.889,542.2L855.085,554.867C838.282,567.533,804.674,592.867,787.87,613.083C771.066,633.3,771.066,648.4,771.066,663.5C771.066,678.6,771.066,693.7,771.066,715.666C771.066,737.631,771.066,766.462,771.066,780.878L771.066,795.293" id="g335ba996-a77c-41e5-bcb0-62a3b0401a04-light-edge11" class="edge-thickness-normal edge-pattern-solid transition" style="fill:none;;;fill:none" data-edge="true" data-et="edge" data-id="edge11" data-points="W3sieCI6ODcxLjg4OTEyNzYwODkyNjUsInkiOjU0Mi4xOTk5OTY5NDgyNDIyfSx7IngiOjc3MS4wNjY0MDYyNSwieSI6NjE4LjE5OTk5Njk0ODI0MjJ9LHsieCI6NzcxLjA2NjQwNjI1LCJ5Ijo2NjMuNDk5OTk2MTg1MzAyN30seyJ4Ijo3NzEuMDY2NDA2MjUsInkiOjcwOC43OTk5OTU0MjIzNjMzfSx7IngiOjc3MS4wNjY0MDYyNSwieSI6Nzk1LjI5MzM0ODc4OTIxNTF9XQ==" data-look="classic" marker-end="url(#g335ba996-a77c-41e5-bcb0-62a3b0401a04-light_stateDiagram-barbEnd)"></path><path d="M157.871,358.2L157.871,364.283C157.871,370.367,157.871,382.533,157.871,394.7C157.871,406.867,157.871,419.033,157.871,430.75C157.871,442.467,157.871,453.733,157.871,459.367L157.871,465" id="g335ba996-a77c-41e5-bcb0-62a3b0401a04-light-SlowStart-SlowStart----note-12" class="edge-thickness-normal edge-pattern-solid transition note-edge" style="fill:none;;;fill:none" data-edge="true" data-et="edge" data-id="SlowStart-SlowStart----note-12" data-points="W3sieCI6MTU3Ljg3MTA5Mzc1LCJ5IjozNTguMTk5OTk2OTQ4MjQyMn0seyJ4IjoxNTcuODcxMDkzNzUsInkiOjM5NC42OTk5OTY5NDgyNDIyfSx7IngiOjE1Ny44NzEwOTM3NSwieSI6NDMxLjE5OTk5Njk0ODI0MjJ9LHsieCI6MTU3Ljg3MTA5Mzc1LCJ5Ijo0NjQuOTk5OTk2MTg1MzAyNzN9XQ==" data-look="classic"></path><path d="M518.41,358.2L518.41,364.283C518.41,370.367,518.41,382.533,518.41,394.7C518.41,406.867,518.41,419.033,518.41,429.283C518.41,439.533,518.41,447.867,518.41,452.033L518.41,456.2" id="g335ba996-a77c-41e5-bcb0-62a3b0401a04-light-Outlier-Outlier----note-13" class="edge-thickness-normal edge-pattern-solid transition note-edge" style="fill:none;;;fill:none" data-edge="true" data-et="edge" data-id="Outlier-Outlier----note-13" data-points="W3sieCI6NTE4LjQxMDE1NjI1LCJ5IjozNTguMTk5OTk2OTQ4MjQyMn0seyJ4Ijo1MTguNDEwMTU2MjUsInkiOjM5NC42OTk5OTY5NDgyNDIyfSx7IngiOjUxOC40MTAxNTYyNSwieSI6NDMxLjE5OTk5Njk0ODI0MjJ9LHsieCI6NTE4LjQxMDE1NjI1LCJ5Ijo0NTYuMTk5OTk2OTQ4MjQyMn1d" data-look="classic"></path><path d="M907.376,542.2L916.258,554.867C925.139,567.533,942.903,592.867,951.785,613.083C960.667,633.3,960.667,648.4,960.667,663.5C960.667,678.6,960.667,693.7,960.667,705.417C960.667,717.133,960.667,725.467,960.667,729.633L960.667,733.8" id="g335ba996-a77c-41e5-bcb0-62a3b0401a04-light-Draining-Draining----note-14" class="edge-thickness-normal edge-pattern-solid transition note-edge" style="fill:none;;;fill:none" data-edge="true" data-et="edge" data-id="Draining-Draining----note-14" data-points="W3sieCI6OTA3LjM3NTgzMjg2MTEyMDEsInkiOjU0Mi4xOTk5OTY5NDgyNDIyfSx7IngiOjk2MC42NjY4MDI4ODMxNDgyLCJ5Ijo2MTguMTk5OTk2OTQ4MjQyMn0seyJ4Ijo5NjAuNjY2ODAyODgzMTQ4MiwieSI6NjYzLjQ5OTk5NjE4NTMwMjd9LHsieCI6OTYwLjY2NjgwMjg4MzE0ODIsInkiOjcwOC43OTk5OTU0MjIzNjMzfSx7IngiOjk2MC42NjY4MDI4ODMxNDgyLCJ5Ijo3MzMuNzk5OTk1NDIyMzYzM31d" data-look="classic"></path></g><g class="edgeLabels"><g class="edgeLabel"><g class="label" data-id="edge0" transform="translate(0, 0)"><text y="-10.1" text-anchor="middle"><tspan class="text-outer-tspan row" x="0" y="-0.1em" dy="1.1em" text-anchor="middle"></tspan></text></g></g><g><rect class="background" style="stroke: none"></rect></g><g class="edgeLabel" transform="translate(575.4291045665741, 152.29999923706055)"><g class="label" data-id="edge1" transform="translate(0, -19.299999237060547)"><g><rect class="background" style="" x="-76.9609375" y="-1" width="153.921875" height="40.599998474121094"></rect><text y="-10.1" text-anchor="middle" style=""><tspan class="text-outer-tspan row" x="0" y="-0.1em" dy="1.1em" text-anchor="middle"><tspan font-style="normal" class="text-inner-tspan" font-weight="normal">passes</tspan><tspan font-style="normal" class="text-inner-tspan" font-weight="normal"> N</tspan><tspan font-style="normal" class="text-inner-tspan" font-weight="normal"> consecutive</tspan></tspan><tspan class="text-outer-tspan row" x="0" y="1em" dy="1.1em" text-anchor="middle"><tspan font-style="normal" class="text-inner-tspan" font-weight="normal">probes</tspan></tspan></text></g></g></g><g class="edgeLabel" transform="translate(277.39017, 253.20534)"><g class="label" data-id="edge2" transform="translate(0, -19.299999237060547)"><g><rect class="background" style="" x="-76.2421875" y="-1" width="152.484375" height="40.599998474121094"></rect><text y="-10.1" text-anchor="middle" style=""><tspan class="text-outer-tspan row" x="0" y="-0.1em" dy="1.1em" text-anchor="middle"><tspan font-style="normal" class="text-inner-tspan" font-weight="normal">just</tspan><tspan font-style="normal" class="text-inner-tspan" font-weight="normal"> promoted</tspan></tspan><tspan class="text-outer-tspan row" x="0" y="1em" dy="1.1em" text-anchor="middle"><tspan font-style="normal" class="text-inner-tspan" font-weight="normal">weight</tspan><tspan font-style="normal" class="text-inner-tspan" font-weight="normal"> ramps</tspan><tspan font-style="normal" class="text-inner-tspan" font-weight="normal"> from</tspan><tspan font-style="normal" class="text-inner-tspan" font-weight="normal"> 0</tspan></tspan></text></g></g></g><g class="edgeLabel" transform="translate(357.57674, 258.53762)"><g class="label" data-id="edge3" transform="translate(0, -10.5)"><g><rect class="background" style="" x="-79.984375" y="-1" width="159.96875" height="23"></rect><text y="-10.1" text-anchor="middle" style=""><tspan class="text-outer-tspan row" x="0" y="-0.1em" dy="1.1em" text-anchor="middle"><tspan font-style="normal" class="text-inner-tspan" font-weight="normal">ramp</tspan><tspan font-style="normal" class="text-inner-tspan" font-weight="normal"> window</tspan><tspan font-style="normal" class="text-inner-tspan" font-weight="normal"> elapsed</tspan></tspan></text></g></g></g><g class="edgeLabel" transform="translate(444.78125, 277.89999771118164)"><g class="label" data-id="edge4" transform="translate(0, -19.299999237060547)"><g><rect class="background" style="" x="-84.328125" y="-1" width="168.65625" height="40.599998474121094"></rect><text y="-10.1" text-anchor="middle" style=""><tspan class="text-outer-tspan row" x="0" y="-0.1em" dy="1.1em" text-anchor="middle"><tspan font-style="normal" class="text-inner-tspan" font-weight="normal">passive</tspan><tspan font-style="normal" class="text-inner-tspan" font-weight="normal"> signal</tspan></tspan><tspan class="text-outer-tspan row" x="0" y="1em" dy="1.1em" text-anchor="middle"><tspan font-style="normal" class="text-inner-tspan" font-weight="normal">(5xx</tspan><tspan font-style="normal" class="text-inner-tspan" font-weight="normal"> rate,</tspan><tspan font-style="normal" class="text-inner-tspan" font-weight="normal"> latency</tspan><tspan font-style="normal" class="text-inner-tspan" font-weight="normal"> p99)</tspan></tspan></text></g></g></g><g class="edgeLabel" transform="translate(634.6953125, 277.89999771118164)"><g class="label" data-id="edge5" transform="translate(0, -10.5)"><g><rect class="background" style="" x="-85.5859375" y="-1" width="171.171875" height="23"></rect><text y="-10.1" text-anchor="middle" style=""><tspan class="text-outer-tspan row" x="0" y="-0.1em" dy="1.1em" text-anchor="middle"><tspan font-style="normal" class="text-inner-tspan" font-weight="normal">error</tspan><tspan font-style="normal" class="text-inner-tspan" font-weight="normal"> budget</tspan><tspan font-style="normal" class="text-inner-tspan" font-weight="normal"> recovered</tspan></tspan></text></g></g></g><g class="edgeLabel" transform="translate(790.28827, 255.84696)"><g class="label" data-id="edge6" transform="translate(0, -10.5)"><g><rect class="background" style="" x="-95.5859375" y="-1" width="191.171875" height="23"></rect><text y="-10.1" text-anchor="middle" style=""><tspan class="text-outer-tspan row" x="0" y="-0.1em" dy="1.1em" text-anchor="middle"><tspan font-style="normal" class="text-inner-tspan" font-weight="normal">fails</tspan><tspan font-style="normal" class="text-inner-tspan" font-weight="normal"> N</tspan><tspan font-style="normal" class="text-inner-tspan" font-weight="normal"> consecutive</tspan><tspan font-style="normal" class="text-inner-tspan" font-weight="normal"> probes</tspan></tspan></text></g></g></g><g class="edgeLabel" transform="translate(906.72956, 254.82883)"><g class="label" data-id="edge7" transform="translate(0, -19.299999237060547)"><g><rect class="background" style="" x="-76.9609375" y="-1" width="153.921875" height="40.599998474121094"></rect><text y="-10.1" text-anchor="middle" style=""><tspan class="text-outer-tspan row" x="0" y="-0.1em" dy="1.1em" text-anchor="middle"><tspan font-style="normal" class="text-inner-tspan" font-weight="normal">passes</tspan><tspan font-style="normal" class="text-inner-tspan" font-weight="normal"> N</tspan><tspan font-style="normal" class="text-inner-tspan" font-weight="normal"> consecutive</tspan></tspan><tspan class="text-outer-tspan row" x="0" y="1em" dy="1.1em" text-anchor="middle"><tspan font-style="normal" class="text-inner-tspan" font-weight="normal">probes</tspan></tspan></text></g></g></g><g class="edgeLabel" transform="translate(771.06640625, 340.6999969482422)"><g class="label" data-id="edge8" transform="translate(0, -10.5)"><g><rect class="background" style="" x="-75.2109375" y="-1" width="150.421875" height="23"></rect><text y="-10.1" text-anchor="middle" style=""><tspan class="text-outer-tspan row" x="0" y="-0.1em" dy="1.1em" text-anchor="middle"><tspan font-style="normal" class="text-inner-tspan" font-weight="normal">deregister</tspan><tspan font-style="normal" class="text-inner-tspan" font-weight="normal"> /</tspan><tspan font-style="normal" class="text-inner-tspan" font-weight="normal"> scale-in</tspan></tspan></text></g></g></g><g class="edgeLabel" transform="translate(872.38671875, 394.6999969482422)"><g class="label" data-id="edge9" transform="translate(0, -10.5)"><g><rect class="background" style="" x="-38.4765625" y="-1" width="76.953125" height="23"></rect><text y="-10.1" text-anchor="middle" style=""><tspan class="text-outer-tspan row" x="0" y="-0.1em" dy="1.1em" text-anchor="middle"><tspan font-style="normal" class="text-inner-tspan" font-weight="normal">deregister</tspan></tspan></text></g></g></g><g class="edgeLabel" transform="translate(969.33984375, 394.6999969482422)"><g class="label" data-id="edge10" transform="translate(0, -10.5)"><g><rect class="background" style="" x="-38.4765625" y="-1" width="76.953125" height="23"></rect><text y="-10.1" text-anchor="middle" style=""><tspan class="text-outer-tspan row" x="0" y="-0.1em" dy="1.1em" text-anchor="middle"><tspan font-style="normal" class="text-inner-tspan" font-weight="normal">deregister</tspan></tspan></text></g></g></g><g class="edgeLabel" transform="translate(771.06640625, 663.4999961853027)"><g class="label" data-id="edge11" transform="translate(0, -19.299999237060547)"><g><rect class="background" style="" x="-82.3671875" y="-1" width="164.734375" height="40.599998474121094"></rect><text y="-10.1" text-anchor="middle" style=""><tspan class="text-outer-tspan row" x="0" y="-0.1em" dy="1.1em" text-anchor="middle"><tspan font-style="normal" class="text-inner-tspan" font-weight="normal">drain</tspan><tspan font-style="normal" class="text-inner-tspan" font-weight="normal"> timeout</tspan><tspan font-style="normal" class="text-inner-tspan" font-weight="normal"> reached</tspan></tspan><tspan class="text-outer-tspan row" x="0" y="1em" dy="1.1em" text-anchor="middle"><tspan font-style="normal" class="text-inner-tspan" font-weight="normal">or</tspan><tspan font-style="normal" class="text-inner-tspan" font-weight="normal"> in-flight</tspan><tspan font-style="normal" class="text-inner-tspan" font-weight="normal"> =</tspan><tspan font-style="normal" class="text-inner-tspan" font-weight="normal"> 0</tspan></tspan></text></g></g></g><g class="edgeLabel"><g class="label" data-id="SlowStart-SlowStart----note-12" transform="translate(0, 0)"><text y="-10.1" text-anchor="middle"><tspan class="text-outer-tspan row" x="0" y="-0.1em" dy="1.1em" text-anchor="middle"></tspan></text></g></g><g><rect class="background" style="stroke: none"></rect></g><g class="edgeLabel"><g class="label" data-id="Outlier-Outlier----note-13" transform="translate(0, 0)"><text y="-10.1" text-anchor="middle"><tspan class="text-outer-tspan row" x="0" y="-0.1em" dy="1.1em" text-anchor="middle"></tspan></text></g></g><g><rect class="background" style="stroke: none"></rect></g><g class="edgeLabel"><g class="label" data-id="Draining-Draining----note-14" transform="translate(0, 0)"><text y="-10.1" text-anchor="middle"><tspan class="text-outer-tspan row" x="0" y="-0.1em" dy="1.1em" text-anchor="middle"></tspan></text></g></g><g><rect class="background" style="stroke: none"></rect></g></g><g class="nodes"><g class="node default" id="g335ba996-a77c-41e5-bcb0-62a3b0401a04-light-state-root_start-0" data-look="classic" transform="translate(575.4291045665741, 15)"><circle class="state-start" r="7" width="14" height="14"></circle></g><g class="node  statediagram-state" id="g335ba996-a77c-41e5-bcb0-62a3b0401a04-light-state-Joining-1" data-look="classic" transform="translate(575.4291045665741, 89.5)"><rect class="basic label-container" style="" rx="5" ry="5" x="-33.4296875" y="-17.5" width="66.859375" height="35"></rect><g class="label" style="" transform="translate(-25.4296875, -9.5)"><rect></rect><g><rect class="background" style="stroke: none"></rect><text y="-10.1" style=""><tspan class="text-outer-tspan row" x="0" y="-0.1em" dy="1.1em"><tspan font-style="normal" class="text-inner-tspan" font-weight="normal">Joining</tspan></tspan></text></g></g></g><g class="node  statediagram-state" id="g335ba996-a77c-41e5-bcb0-62a3b0401a04-light-state-Healthy-8" data-look="classic" transform="translate(575.4291045665741, 215.0999984741211)"><rect class="basic label-container" style="" rx="5" ry="5" x="-35.6484375" y="-17.5" width="71.296875" height="35"></rect><g class="label" style="" transform="translate(-27.6484375, -9.5)"><rect></rect><g><rect class="background" style="stroke: none"></rect><text y="-10.1" style=""><tspan class="text-outer-tspan row" x="0" y="-0.1em" dy="1.1em"><tspan font-style="normal" class="text-inner-tspan" font-weight="normal">Healthy</tspan></tspan></text></g></g></g><g class="node  statediagram-state" id="g335ba996-a77c-41e5-bcb0-62a3b0401a04-light-state-SlowStart-12" data-look="classic" transform="translate(157.87109375, 340.6999969482422)"><rect class="basic label-container" style="" rx="5" ry="5" x="-41.9609375" y="-17.5" width="83.921875" height="35"></rect><g class="label" style="" transform="translate(-33.9609375, -9.5)"><rect></rect><g><rect class="background" style="stroke: none"></rect><text y="-10.1" style=""><tspan class="text-outer-tspan row" x="0" y="-0.1em" dy="1.1em"><tspan font-style="normal" class="text-inner-tspan" font-weight="normal">SlowStart</tspan></tspan></text></g></g></g><g class="node  statediagram-state" id="g335ba996-a77c-41e5-bcb0-62a3b0401a04-light-state-Outlier-13" data-look="classic" transform="translate(518.41015625, 340.6999969482422)"><rect class="basic label-container" style="" rx="5" ry="5" x="-33.046875" y="-17.5" width="66.09375" height="35"></rect><g class="label" style="" transform="translate(-25.046875, -9.5)"><rect></rect><g><rect class="background" style="stroke: none"></rect><text y="-10.1" style=""><tspan class="text-outer-tspan row" x="0" y="-0.1em" dy="1.1em"><tspan font-style="normal" class="text-inner-tspan" font-weight="normal">Outlier</tspan></tspan></text></g></g></g><g class="node  statediagram-state" id="g335ba996-a77c-41e5-bcb0-62a3b0401a04-light-state-Unhealthy-10" data-look="classic" transform="translate(969.33984375, 340.6999969482422)"><rect class="basic label-container" style="" rx="5" ry="5" x="-44.34375" y="-17.5" width="88.6875" height="35"></rect><g class="label" style="" transform="translate(-36.34375, -9.5)"><rect></rect><g><rect class="background" style="stroke: none"></rect><text y="-10.1" style=""><tspan class="text-outer-tspan row" x="0" y="-0.1em" dy="1.1em"><tspan font-style="normal" class="text-inner-tspan" font-weight="normal">Unhealthy</tspan></tspan></text></g></g></g><g class="node  statediagram-state" id="g335ba996-a77c-41e5-bcb0-62a3b0401a04-light-state-Draining-14" data-look="classic" transform="translate(895.1048858165741, 524.6999969482422)"><rect class="basic label-container" style="" rx="5" ry="5" x="-37.5390625" y="-17.5" width="75.078125" height="35"></rect><g class="label" style="" transform="translate(-29.5390625, -9.5)"><rect></rect><g><rect class="background" style="stroke: none"></rect><text y="-10.1" style=""><tspan class="text-outer-tspan row" x="0" y="-0.1em" dy="1.1em"><tspan font-style="normal" class="text-inner-tspan" font-weight="normal">Draining</tspan></tspan></text></g></g></g><g class="node default" id="g335ba996-a77c-41e5-bcb0-62a3b0401a04-light-state-root_end-11" data-look="classic" transform="translate(771.06640625, 802.2999954223633)"><g class="outer-path"><path d="M7 0 C7 0.40517908122283747, 6.964012880168563 0.816513743121899, 6.893654271085456 1.2155372436685123 C6.823295662002349 1.6145607442151257, 6.716427752933756 2.013397210557766, 6.5778483455013586 2.394141003279681 C6.439268938068961 2.7748847960015954, 6.26476736710249 3.149104622578984, 6.062177826491071 3.4999999999999996 C5.859588285879653 3.8508953774210153, 5.622755194947063 4.189128084166967, 5.362311101832846 4.499513267805774 C5.10186700871863 4.809898451444582, 4.809898451444583 5.10186700871863, 4.499513267805775 5.362311101832846 C4.189128084166968 5.622755194947063, 3.8508953774210166 5.859588285879652, 3.500000000000001 6.06217782649107 C3.149104622578985 6.264767367102489, 2.7748847960015963 6.439268938068961, 2.3941410032796817 6.5778483455013586 C2.013397210557767 6.716427752933756, 1.6145607442151264 6.823295662002349, 1.2155372436685128 6.893654271085456 C0.8165137431218992 6.964012880168563, 0.4051790812228379 7, 4.286263797015736e-16 7 C-0.405179081222837 7, -0.8165137431218985 6.964012880168563, -1.2155372436685121 6.893654271085456 C-1.6145607442151257 6.823295662002349, -2.0133972105577667 6.716427752933756, -2.394141003279681 6.5778483455013586 C-2.774884796001595 6.439268938068961, -3.149104622578983 6.26476736710249, -3.4999999999999982 6.062177826491071 C-3.8508953774210135 5.859588285879653, -4.189128084166966 5.6227551949470636, -4.499513267805773 5.362311101832848 C-4.809898451444581 5.101867008718632, -5.101867008718628 4.809898451444586, -5.3623111018328435 4.499513267805779 C-5.622755194947059 4.189128084166971, -5.859588285879649 3.8508953774210206, -6.062177826491068 3.5000000000000053 C-6.264767367102486 3.14910462257899, -6.439268938068958 2.774884796001602, -6.577848345501356 2.394141003279688 C-6.716427752933754 2.0133972105577738, -6.823295662002347 1.614560744215134, -6.893654271085454 1.215537243668521 C-6.9640128801685615 0.816513743121908, -6.999999999999999 0.4051790812228472, -7 1.0183126166254463e-14 C-7.000000000000001 -0.40517908122282686, -6.964012880168565 -0.8165137431218878, -6.893654271085459 -1.215537243668501 C-6.823295662002352 -1.6145607442151142, -6.716427752933759 -2.0133972105577542, -6.577848345501363 -2.394141003279669 C-6.439268938068967 -2.7748847960015834, -6.264767367102496 -3.149104622578972, -6.062177826491078 -3.4999999999999876 C-5.859588285879661 -3.8508953774210033, -5.6227551949470715 -4.1891280841669545, -5.362311101832856 -4.499513267805763 C-5.10186700871864 -4.809898451444571, -4.809898451444594 -5.10186700871862, -4.499513267805787 -5.362311101832836 C-4.189128084166979 -5.622755194947053, -3.850895377421028 -5.859588285879643, -3.5000000000000133 -6.062177826491062 C-3.1491046225789985 -6.264767367102482, -2.774884796001611 -6.439268938068954, -2.3941410032796973 -6.577848345501353 C-2.0133972105577835 -6.716427752933752, -1.6145607442151435 -6.823295662002345, -1.2155372436685306 -6.893654271085453 C-0.8165137431219176 -6.9640128801685615, -0.40517908122285695 -6.999999999999999, -1.9937625952807352e-14 -7 C0.4051790812228171 -7.000000000000001, 0.8165137431218781 -6.964012880168565, 1.2155372436684913 -6.89365427108546 C1.6145607442151044 -6.823295662002354, 2.013397210557745 -6.716427752933763, 2.3941410032796595 -6.5778483455013665 C2.774884796001574 -6.43926893806897, 3.149104622578963 -6.2647673671025, 3.499999999999979 -6.062177826491083 C3.8508953774209953 -5.859588285879665, 4.189128084166947 -5.622755194947077, 4.499513267805756 -5.362311101832862 C4.809898451444564 -5.1018670087186475, 5.101867008718613 -4.809898451444602, 5.362311101832829 -4.499513267805796 C5.622755194947046 -4.189128084166989, 5.859588285879637 -3.8508953774210393, 6.062177826491056 -3.500000000000025 C6.2647673671024755 -3.1491046225790105, 6.439268938068949 -2.774884796001623, 6.577848345501348 -2.3941410032797092 C6.716427752933747 -2.0133972105577955, 6.823295662002342 -1.6145607442151562, 6.893654271085451 -1.2155372436685434 C6.96401288016856 -0.8165137431219307, 6.982275711847575 -0.2025895406114567, 7 -3.2800750208310675e-14 C7.017724288152425 0.2025895406113911, 7.017724288152424 -0.2025895406114242, 7 0" stroke="none" stroke-width="0" fill="#ECECFF" style=""></path><path d="M7 0 C7 0.40517908122283747, 6.964012880168563 0.816513743121899, 6.893654271085456 1.2155372436685123 C6.823295662002349 1.6145607442151257, 6.716427752933756 2.013397210557766, 6.5778483455013586 2.394141003279681 C6.439268938068961 2.7748847960015954, 6.26476736710249 3.149104622578984, 6.062177826491071 3.4999999999999996 C5.859588285879653 3.8508953774210153, 5.622755194947063 4.189128084166967, 5.362311101832846 4.499513267805774 C5.10186700871863 4.809898451444582, 4.809898451444583 5.10186700871863, 4.499513267805775 5.362311101832846 C4.189128084166968 5.622755194947063, 3.8508953774210166 5.859588285879652, 3.500000000000001 6.06217782649107 C3.149104622578985 6.264767367102489, 2.7748847960015963 6.439268938068961, 2.3941410032796817 6.5778483455013586 C2.013397210557767 6.716427752933756, 1.6145607442151264 6.823295662002349, 1.2155372436685128 6.893654271085456 C0.8165137431218992 6.964012880168563, 0.4051790812228379 7, 4.286263797015736e-16 7 C-0.405179081222837 7, -0.8165137431218985 6.964012880168563, -1.2155372436685121 6.893654271085456 C-1.6145607442151257 6.823295662002349, -2.0133972105577667 6.716427752933756, -2.394141003279681 6.5778483455013586 C-2.774884796001595 6.439268938068961, -3.149104622578983 6.26476736710249, -3.4999999999999982 6.062177826491071 C-3.8508953774210135 5.859588285879653, -4.189128084166966 5.6227551949470636, -4.499513267805773 5.362311101832848 C-4.809898451444581 5.101867008718632, -5.101867008718628 4.809898451444586, -5.3623111018328435 4.499513267805779 C-5.622755194947059 4.189128084166971, -5.859588285879649 3.8508953774210206, -6.062177826491068 3.5000000000000053 C-6.264767367102486 3.14910462257899, -6.439268938068958 2.774884796001602, -6.577848345501356 2.394141003279688 C-6.716427752933754 2.0133972105577738, -6.823295662002347 1.614560744215134, -6.893654271085454 1.215537243668521 C-6.9640128801685615 0.816513743121908, -6.999999999999999 0.4051790812228472, -7 1.0183126166254463e-14 C-7.000000000000001 -0.40517908122282686, -6.964012880168565 -0.8165137431218878, -6.893654271085459 -1.215537243668501 C-6.823295662002352 -1.6145607442151142, -6.716427752933759 -2.0133972105577542, -6.577848345501363 -2.394141003279669 C-6.439268938068967 -2.7748847960015834, -6.264767367102496 -3.149104622578972, -6.062177826491078 -3.4999999999999876 C-5.859588285879661 -3.8508953774210033, -5.6227551949470715 -4.1891280841669545, -5.362311101832856 -4.499513267805763 C-5.10186700871864 -4.809898451444571, -4.809898451444594 -5.10186700871862, -4.499513267805787 -5.362311101832836 C-4.189128084166979 -5.622755194947053, -3.850895377421028 -5.859588285879643, -3.5000000000000133 -6.062177826491062 C-3.1491046225789985 -6.264767367102482, -2.774884796001611 -6.439268938068954, -2.3941410032796973 -6.577848345501353 C-2.0133972105577835 -6.716427752933752, -1.6145607442151435 -6.823295662002345, -1.2155372436685306 -6.893654271085453 C-0.8165137431219176 -6.9640128801685615, -0.40517908122285695 -6.999999999999999, -1.9937625952807352e-14 -7 C0.4051790812228171 -7.000000000000001, 0.8165137431218781 -6.964012880168565, 1.2155372436684913 -6.89365427108546 C1.6145607442151044 -6.823295662002354, 2.013397210557745 -6.716427752933763, 2.3941410032796595 -6.5778483455013665 C2.774884796001574 -6.43926893806897, 3.149104622578963 -6.2647673671025, 3.499999999999979 -6.062177826491083 C3.8508953774209953 -5.859588285879665, 4.189128084166947 -5.622755194947077, 4.499513267805756 -5.362311101832862 C4.809898451444564 -5.1018670087186475, 5.101867008718613 -4.809898451444602, 5.362311101832829 -4.499513267805796 C5.622755194947046 -4.189128084166989, 5.859588285879637 -3.8508953774210393, 6.062177826491056 -3.500000000000025 C6.2647673671024755 -3.1491046225790105, 6.439268938068949 -2.774884796001623, 6.577848345501348 -2.3941410032797092 C6.716427752933747 -2.0133972105577955, 6.823295662002342 -1.6145607442151562, 6.893654271085451 -1.2155372436685434 C6.96401288016856 -0.8165137431219307, 6.982275711847575 -0.2025895406114567, 7 -3.2800750208310675e-14 C7.017724288152425 0.2025895406113911, 7.017724288152424 -0.2025895406114242, 7 0" stroke="#333333" stroke-width="2" fill="none" stroke-dasharray="0 0" style=""></path><g><path d="M2.5 0 C2.5 0.14470681472244193, 2.487147457203058 0.29161205111496386, 2.46201938253052 0.4341204441673258 C2.436891307857982 0.5766288372196877, 2.3987241974763416 0.7190704323420595, 2.3492315519647713 0.8550503583141718 C2.299738906453201 0.991030284286284, 2.2374169168223177 1.124680222349637, 2.165063509461097 1.2499999999999998 C2.092710102099876 1.3753197776503625, 2.0081268553382365 1.496117172916774, 1.915111107797445 1.6069690242163481 C1.8220953602566536 1.7178208755159223, 1.7178208755159226 1.8220953602566536, 1.6069690242163484 1.915111107797445 C1.4961171729167742 2.0081268553382365, 1.375319777650363 2.0927101020998755, 1.2500000000000002 2.1650635094610964 C1.1246802223496375 2.2374169168223172, 0.9910302842862845 2.2997389064532, 0.8550503583141721 2.349231551964771 C0.7190704323420597 2.3987241974763416, 0.576628837219688 2.436891307857982, 0.43412044416732604 2.46201938253052 C0.291612051114964 2.487147457203058, 0.14470681472244212 2.5, 1.5308084989341916e-16 2.5 C-0.1447068147224418 2.5, -0.2916120511149638 2.487147457203058, -0.43412044416732576 2.46201938253052 C-0.5766288372196877 2.436891307857982, -0.7190704323420595 2.3987241974763416, -0.8550503583141718 2.3492315519647713 C-0.991030284286284 2.299738906453201, -1.124680222349637 2.2374169168223177, -1.2499999999999996 2.165063509461097 C-1.375319777650362 2.092710102099876, -1.4961171729167733 2.008126855338237, -1.6069690242163475 1.9151111077974459 C-1.7178208755159217 1.8220953602566548, -1.822095360256653 1.7178208755159234, -1.9151111077974443 1.6069690242163495 C-2.0081268553382357 1.4961171729167755, -2.0927101020998746 1.3753197776503645, -2.1650635094610955 1.250000000000002 C-2.2374169168223164 1.1246802223496395, -2.2997389064531992 0.9910302842862865, -2.34923155196477 0.8550503583141743 C-2.3987241974763407 0.7190704323420621, -2.436891307857981 0.5766288372196907, -2.4620193825305194 0.434120444167329 C-2.487147457203058 0.29161205111496724, -2.5 0.14470681472244545, -2.5 3.636830773662308e-15 C-2.5 -0.14470681472243818, -2.4871474572030587 -0.2916120511149599, -2.4620193825305208 -0.4341204441673218 C-2.436891307857983 -0.5766288372196837, -2.398724197476343 -0.7190704323420553, -2.3492315519647726 -0.8550503583141675 C-2.2997389064532023 -0.9910302842862798, -2.23741691682232 -1.1246802223496328, -2.165063509461099 -1.2499999999999956 C-2.092710102099878 -1.3753197776503583, -2.00812685533824 -1.4961171729167695, -1.9151111077974488 -1.606969024216344 C-1.8220953602566576 -1.7178208755159183, -1.7178208755159263 -1.82209536025665, -1.6069690242163523 -1.9151111077974416 C-1.4961171729167784 -2.0081268553382334, -1.3753197776503672 -2.0927101020998724, -1.2500000000000047 -2.1650635094610937 C-1.1246802223496422 -2.237416916822315, -0.9910302842862897 -2.299738906453198, -0.8550503583141776 -2.3492315519647686 C-0.7190704323420656 -2.3987241974763394, -0.5766288372196942 -2.4368913078579806, -0.43412044416733236 -2.462019382530519 C-0.29161205111497057 -2.4871474572030574, -0.1447068147224489 -2.4999999999999996, -7.120580697431198e-15 -2.5 C0.14470681472243463 -2.5000000000000004, 0.29161205111495647 -2.487147457203059, 0.4341204441673183 -2.4620193825305217 C0.5766288372196802 -2.436891307857984, 0.7190704323420518 -2.3987241974763442, 0.8550503583141642 -2.349231551964774 C0.9910302842862766 -2.2997389064532037, 1.1246802223496295 -2.2374169168223212, 1.2499999999999925 -2.165063509461101 C1.3753197776503554 -2.0927101020998804, 1.4961171729167668 -2.008126855338242, 1.6069690242163412 -1.915111107797451 C1.7178208755159157 -1.82209536025666, 1.8220953602566472 -1.7178208755159294, 1.915111107797439 -1.6069690242163557 C2.0081268553382308 -1.496117172916782, 2.09271010209987 -1.3753197776503712, 2.1650635094610915 -1.2500000000000089 C2.237416916822313 -1.1246802223496466, 2.299738906453196 -0.9910302842862939, 2.3492315519647673 -0.855050358314182 C2.3987241974763385 -0.71907043234207, 2.4368913078579792 -0.5766288372196986, 2.462019382530518 -0.4341204441673369 C2.487147457203057 -0.29161205111497523, 2.4936698970884197 -0.07235340736123454, 2.5 -1.1714553645825241e-14 C2.5063301029115803 0.07235340736121111, 2.50633010291158 -0.07235340736122292, 2.5 0" stroke="none" stroke-width="0" fill="#9370DB" style=""></path><path d="M2.5 0 C2.5 0.14470681472244193, 2.487147457203058 0.29161205111496386, 2.46201938253052 0.4341204441673258 C2.436891307857982 0.5766288372196877, 2.3987241974763416 0.7190704323420595, 2.3492315519647713 0.8550503583141718 C2.299738906453201 0.991030284286284, 2.2374169168223177 1.124680222349637, 2.165063509461097 1.2499999999999998 C2.092710102099876 1.3753197776503625, 2.0081268553382365 1.496117172916774, 1.915111107797445 1.6069690242163481 C1.8220953602566536 1.7178208755159223, 1.7178208755159226 1.8220953602566536, 1.6069690242163484 1.915111107797445 C1.4961171729167742 2.0081268553382365, 1.375319777650363 2.0927101020998755, 1.2500000000000002 2.1650635094610964 C1.1246802223496375 2.2374169168223172, 0.9910302842862845 2.2997389064532, 0.8550503583141721 2.349231551964771 C0.7190704323420597 2.3987241974763416, 0.576628837219688 2.436891307857982, 0.43412044416732604 2.46201938253052 C0.291612051114964 2.487147457203058, 0.14470681472244212 2.5, 1.5308084989341916e-16 2.5 C-0.1447068147224418 2.5, -0.2916120511149638 2.487147457203058, -0.43412044416732576 2.46201938253052 C-0.5766288372196877 2.436891307857982, -0.7190704323420595 2.3987241974763416, -0.8550503583141718 2.3492315519647713 C-0.991030284286284 2.299738906453201, -1.124680222349637 2.2374169168223177, -1.2499999999999996 2.165063509461097 C-1.375319777650362 2.092710102099876, -1.4961171729167733 2.008126855338237, -1.6069690242163475 1.9151111077974459 C-1.7178208755159217 1.8220953602566548, -1.822095360256653 1.7178208755159234, -1.9151111077974443 1.6069690242163495 C-2.0081268553382357 1.4961171729167755, -2.0927101020998746 1.3753197776503645, -2.1650635094610955 1.250000000000002 C-2.2374169168223164 1.1246802223496395, -2.2997389064531992 0.9910302842862865, -2.34923155196477 0.8550503583141743 C-2.3987241974763407 0.7190704323420621, -2.436891307857981 0.5766288372196907, -2.4620193825305194 0.434120444167329 C-2.487147457203058 0.29161205111496724, -2.5 0.14470681472244545, -2.5 3.636830773662308e-15 C-2.5 -0.14470681472243818, -2.4871474572030587 -0.2916120511149599, -2.4620193825305208 -0.4341204441673218 C-2.436891307857983 -0.5766288372196837, -2.398724197476343 -0.7190704323420553, -2.3492315519647726 -0.8550503583141675 C-2.2997389064532023 -0.9910302842862798, -2.23741691682232 -1.1246802223496328, -2.165063509461099 -1.2499999999999956 C-2.092710102099878 -1.3753197776503583, -2.00812685533824 -1.4961171729167695, -1.9151111077974488 -1.606969024216344 C-1.8220953602566576 -1.7178208755159183, -1.7178208755159263 -1.82209536025665, -1.6069690242163523 -1.9151111077974416 C-1.4961171729167784 -2.0081268553382334, -1.3753197776503672 -2.0927101020998724, -1.2500000000000047 -2.1650635094610937 C-1.1246802223496422 -2.237416916822315, -0.9910302842862897 -2.299738906453198, -0.8550503583141776 -2.3492315519647686 C-0.7190704323420656 -2.3987241974763394, -0.5766288372196942 -2.4368913078579806, -0.43412044416733236 -2.462019382530519 C-0.29161205111497057 -2.4871474572030574, -0.1447068147224489 -2.4999999999999996, -7.120580697431198e-15 -2.5 C0.14470681472243463 -2.5000000000000004, 0.29161205111495647 -2.487147457203059, 0.4341204441673183 -2.4620193825305217 C0.5766288372196802 -2.436891307857984, 0.7190704323420518 -2.3987241974763442, 0.8550503583141642 -2.349231551964774 C0.9910302842862766 -2.2997389064532037, 1.1246802223496295 -2.2374169168223212, 1.2499999999999925 -2.165063509461101 C1.3753197776503554 -2.0927101020998804, 1.4961171729167668 -2.008126855338242, 1.6069690242163412 -1.915111107797451 C1.7178208755159157 -1.82209536025666, 1.8220953602566472 -1.7178208755159294, 1.915111107797439 -1.6069690242163557 C2.0081268553382308 -1.496117172916782, 2.09271010209987 -1.3753197776503712, 2.1650635094610915 -1.2500000000000089 C2.237416916822313 -1.1246802223496466, 2.299738906453196 -0.9910302842862939, 2.3492315519647673 -0.855050358314182 C2.3987241974763385 -0.71907043234207, 2.4368913078579792 -0.5766288372196986, 2.462019382530518 -0.4341204441673369 C2.487147457203057 -0.29161205111497523, 2.4936698970884197 -0.07235340736123454, 2.5 -1.1714553645825241e-14 C2.5063301029115803 0.07235340736121111, 2.50633010291158 -0.07235340736122292, 2.5 0" stroke="#9370DB" stroke-width="2" fill="none" stroke-dasharray="0 0" style=""></path></g></g></g><g class="node statediagram-note" id="g335ba996-a77c-41e5-bcb0-62a3b0401a04-light-state-SlowStart----note-12" data-look="classic" transform="translate(157.87109375, 524.6999969482422)"><g class="basic label-container outer-path"><path d="M-112.2578125 -59.70000076293945 L112.2578125 -59.70000076293945 L112.2578125 59.70000076293945 L-112.2578125 59.70000076293945" stroke="none" stroke-width="0" fill="#fff5ad" style=""></path><path d="M-112.2578125 -59.70000076293945 C-45.109211101057625 -59.70000076293945, 22.03939029788475 -59.70000076293945, 112.2578125 -59.70000076293945 M-112.2578125 -59.70000076293945 C-30.826505927763478 -59.70000076293945, 50.604800644473045 -59.70000076293945, 112.2578125 -59.70000076293945 M112.2578125 -59.70000076293945 C112.2578125 -14.725132162903336, 112.2578125 30.249736437132782, 112.2578125 59.70000076293945 M112.2578125 -59.70000076293945 C112.2578125 -17.87079052499073, 112.2578125 23.95841971295799, 112.2578125 59.70000076293945 M112.2578125 59.70000076293945 C33.17133477304759 59.70000076293945, -45.91514295390482 59.70000076293945, -112.2578125 59.70000076293945 M112.2578125 59.70000076293945 C64.15077964056852 59.70000076293945, 16.04374678113703 59.70000076293945, -112.2578125 59.70000076293945 M-112.2578125 59.70000076293945 C-112.2578125 16.108432816407827, -112.2578125 -27.4831351301238, -112.2578125 -59.70000076293945 M-112.2578125 59.70000076293945 C-112.2578125 34.69434279192917, -112.2578125 9.68868482091888, -112.2578125 -59.70000076293945" stroke="#aaaa33" stroke-width="1.3" fill="none" stroke-dasharray="0 0" style=""></path></g><g class="label noteLabel" style="" transform="translate(-97.2578125, -45.70000076293945)"><rect></rect><g><rect class="background" style="stroke: none"></rect><text y="-10.1" style=""><tspan class="text-outer-tspan row" x="0" y="-0.1em" dy="1.1em"><tspan font-style="normal" class="text-inner-tspan" font-weight="normal">HAProxy:</tspan><tspan font-style="normal" class="text-inner-tspan" font-weight="normal"> server</tspan></tspan><tspan class="text-outer-tspan row" x="0" y="1em" dy="1.1em"><tspan font-style="normal" class="text-inner-tspan" font-weight="normal">slowstart=60s</tspan></tspan><tspan class="text-outer-tspan row" x="0" y="2.1em" dy="1.1em"><tspan font-style="normal" class="text-inner-tspan" font-weight="normal">NGINX</tspan><tspan font-style="normal" class="text-inner-tspan" font-weight="normal"> Plus:</tspan><tspan font-style="normal" class="text-inner-tspan" font-weight="normal"> slow_start=60s</tspan></tspan><tspan class="text-outer-tspan row" x="0" y="3.2em" dy="1.1em"><tspan font-style="normal" class="text-inner-tspan" font-weight="normal">Envoy:</tspan><tspan font-style="normal" class="text-inner-tspan" font-weight="normal"> SLOW_START</tspan><tspan font-style="normal" class="text-inner-tspan" font-weight="normal"> LB</tspan></tspan><tspan class="text-outer-tspan row" x="0" y="4.300000000000001em" dy="1.1em"><tspan font-style="normal" class="text-inner-tspan" font-weight="normal">config</tspan></tspan></text></g></g></g><g class="node statediagram-note" id="g335ba996-a77c-41e5-bcb0-62a3b0401a04-light-state-Outlier----note-13" data-look="classic" transform="translate(518.41015625, 524.6999969482422)"><g class="basic label-container outer-path"><path d="M-112.15625 -68.5 L112.15625 -68.5 L112.15625 68.5 L-112.15625 68.5" stroke="none" stroke-width="0" fill="#fff5ad" style=""></path><path d="M-112.15625 -68.5 C-27.571276318065074 -68.5, 57.01369736386985 -68.5, 112.15625 -68.5 M-112.15625 -68.5 C-29.89989428963105 -68.5, 52.3564614207379 -68.5, 112.15625 -68.5 M112.15625 -68.5 C112.15625 -21.30722288573319, 112.15625 25.88555422853362, 112.15625 68.5 M112.15625 -68.5 C112.15625 -19.559838787808495, 112.15625 29.38032242438301, 112.15625 68.5 M112.15625 68.5 C35.74900353276979 68.5, -40.65824293446042 68.5, -112.15625 68.5 M112.15625 68.5 C55.279044320063825 68.5, -1.5981613598723499 68.5, -112.15625 68.5 M-112.15625 68.5 C-112.15625 34.95821597271499, -112.15625 1.4164319454299772, -112.15625 -68.5 M-112.15625 68.5 C-112.15625 22.14806888669751, -112.15625 -24.203862226604983, -112.15625 -68.5" stroke="#aaaa33" stroke-width="1.3" fill="none" stroke-dasharray="0 0" style=""></path></g><g class="label noteLabel" style="" transform="translate(-97.15625, -54.5)"><rect></rect><g><rect class="background" style="stroke: none"></rect><text y="-10.1" style=""><tspan class="text-outer-tspan row" x="0" y="-0.1em" dy="1.1em"><tspan font-style="normal" class="text-inner-tspan" font-weight="normal">Envoy</tspan><tspan font-style="normal" class="text-inner-tspan" font-weight="normal"> outlier</tspan><tspan font-style="normal" class="text-inner-tspan" font-weight="normal"> detection</tspan></tspan><tspan class="text-outer-tspan row" x="0" y="1em" dy="1.1em"><tspan font-style="normal" class="text-inner-tspan" font-weight="normal">AWS</tspan><tspan font-style="normal" class="text-inner-tspan" font-weight="normal"> unhealthy_threshold</tspan><tspan font-style="normal" class="text-inner-tspan" font-weight="normal"> +</tspan></tspan><tspan class="text-outer-tspan row" x="0" y="2.1em" dy="1.1em"><tspan font-style="normal" class="text-inner-tspan" font-weight="normal">targets_health</tspan></tspan><tspan class="text-outer-tspan row" x="0" y="3.2em" dy="1.1em"><tspan font-style="normal" class="text-inner-tspan" font-weight="normal">Used</tspan><tspan font-style="normal" class="text-inner-tspan" font-weight="normal"> as</tspan><tspan font-style="normal" class="text-inner-tspan" font-weight="normal"> passive</tspan></tspan><tspan class="text-outer-tspan row" x="0" y="4.300000000000001em" dy="1.1em"><tspan font-style="normal" class="text-inner-tspan" font-weight="normal">complement</tspan></tspan><tspan class="text-outer-tspan row" x="0" y="5.4em" dy="1.1em"><tspan font-style="normal" class="text-inner-tspan" font-weight="normal">to</tspan><tspan font-style="normal" class="text-inner-tspan" font-weight="normal"> active</tspan><tspan font-style="normal" class="text-inner-tspan" font-weight="normal"> probes.</tspan></tspan></text></g></g></g><g class="node statediagram-note" id="g335ba996-a77c-41e5-bcb0-62a3b0401a04-light-state-Draining----note-14" data-look="classic" transform="translate(960.6668028831482, 802.2999954223633)"><g class="basic label-container outer-path"><path d="M-112.59375 -68.5 L112.59375 -68.5 L112.59375 68.5 L-112.59375 68.5" stroke="none" stroke-width="0" fill="#fff5ad" style=""></path><path d="M-112.59375 -68.5 C-53.73741158116411 -68.5, 5.118926837671779 -68.5, 112.59375 -68.5 M-112.59375 -68.5 C-35.89439607670485 -68.5, 40.8049578465903 -68.5, 112.59375 -68.5 M112.59375 -68.5 C112.59375 -37.80121122256551, 112.59375 -7.102422445131019, 112.59375 68.5 M112.59375 -68.5 C112.59375 -15.126329105693515, 112.59375 38.24734178861297, 112.59375 68.5 M112.59375 68.5 C24.517875742957415 68.5, -63.55799851408517 68.5, -112.59375 68.5 M112.59375 68.5 C65.80607256381148 68.5, 19.018395127622952 68.5, -112.59375 68.5 M-112.59375 68.5 C-112.59375 38.67837739253038, -112.59375 8.856754785060765, -112.59375 -68.5 M-112.59375 68.5 C-112.59375 26.02991826378578, -112.59375 -16.440163472428438, -112.59375 -68.5" stroke="#aaaa33" stroke-width="1.3" fill="none" stroke-dasharray="0 0" style=""></path></g><g class="label noteLabel" style="" transform="translate(-97.59375, -54.5)"><rect></rect><g><rect class="background" style="stroke: none"></rect><text y="-10.1" style=""><tspan class="text-outer-tspan row" x="0" y="-0.1em" dy="1.1em"><tspan font-style="normal" class="text-inner-tspan" font-weight="normal">New</tspan><tspan font-style="normal" class="text-inner-tspan" font-weight="normal"> requests</tspan><tspan font-style="normal" class="text-inner-tspan" font-weight="normal"> stop.</tspan></tspan><tspan class="text-outer-tspan row" x="0" y="1em" dy="1.1em"><tspan font-style="normal" class="text-inner-tspan" font-weight="normal">Existing</tspan><tspan font-style="normal" class="text-inner-tspan" font-weight="normal"> connections</tspan><tspan font-style="normal" class="text-inner-tspan" font-weight="normal"> finish.</tspan></tspan><tspan class="text-outer-tspan row" x="0" y="2.1em" dy="1.1em"><tspan font-style="normal" class="text-inner-tspan" font-weight="normal">HTTP/2:</tspan><tspan font-style="normal" class="text-inner-tspan" font-weight="normal"> GOAWAY</tspan><tspan font-style="normal" class="text-inner-tspan" font-weight="normal"> frame</tspan></tspan><tspan class="text-outer-tspan row" x="0" y="3.2em" dy="1.1em"><tspan font-style="normal" class="text-inner-tspan" font-weight="normal">(RFC</tspan><tspan font-style="normal" class="text-inner-tspan" font-weight="normal"> 9113)</tspan></tspan><tspan class="text-outer-tspan row" x="0" y="4.300000000000001em" dy="1.1em"><tspan font-style="normal" class="text-inner-tspan" font-weight="normal">AWS</tspan><tspan font-style="normal" class="text-inner-tspan" font-weight="normal"> deregistration_delay</tspan></tspan><tspan class="text-outer-tspan row" x="0" y="5.4em" dy="1.1em"><tspan font-style="normal" class="text-inner-tspan" font-weight="normal">default</tspan><tspan font-style="normal" class="text-inner-tspan" font-weight="normal"> 300s.</tspan></tspan></text></g></g></g></g></g></g><defs><filter id="g335ba996-a77c-41e5-bcb0-62a3b0401a04-light-drop-shadow" height="130%" width="130%"><feDropShadow dx="4" dy="4" stdDeviation="0" flood-opacity="0.06" flood-color="#000000"></feDropShadow></filter></defs><defs><filter id="g335ba996-a77c-41e5-bcb0-62a3b0401a04-light-drop-shadow-small" height="150%" width="150%"><feDropShadow dx="2" dy="2" stdDeviation="0" flood-opacity="0.06" flood-color="#000000"></feDropShadow></filter></defs></svg>