<svg id="gd9289eab-4e70-43a4-ba41-9dc973f1bda2-dark" width="100%" xmlns="http://www.w3.org/2000/svg" xmlns:xlink="http://www.w3.org/1999/xlink" class="flowchart" style="max-width: 659.6007690429688px;" viewBox="0 0 659.6007690429688 996.3968505859375" role="graphics-document document" aria-roledescription="flowchart-v2"><style>#gd9289eab-4e70-43a4-ba41-9dc973f1bda2-dark{font-family:"trebuchet ms",verdana,arial,sans-serif;font-size:16px;fill:#e5e5e5;}@keyframes edge-animation-frame{from{stroke-dashoffset:0;}}@keyframes dash{to{stroke-dashoffset:0;}}#gd9289eab-4e70-43a4-ba41-9dc973f1bda2-dark .edge-animation-slow{stroke-dasharray:9,5!important;stroke-dashoffset:900;animation:dash 50s linear infinite;stroke-linecap:round;}#gd9289eab-4e70-43a4-ba41-9dc973f1bda2-dark .edge-animation-fast{stroke-dasharray:9,5!important;stroke-dashoffset:900;animation:dash 20s linear infinite;stroke-linecap:round;}#gd9289eab-4e70-43a4-ba41-9dc973f1bda2-dark .error-icon{fill:#252525;}#gd9289eab-4e70-43a4-ba41-9dc973f1bda2-dark .error-text{fill:#cccccc;stroke:#cccccc;}#gd9289eab-4e70-43a4-ba41-9dc973f1bda2-dark .edge-thickness-normal{stroke-width:1px;}#gd9289eab-4e70-43a4-ba41-9dc973f1bda2-dark .edge-thickness-thick{stroke-width:3.5px;}#gd9289eab-4e70-43a4-ba41-9dc973f1bda2-dark .edge-pattern-solid{stroke-dasharray:0;}#gd9289eab-4e70-43a4-ba41-9dc973f1bda2-dark .edge-thickness-invisible{stroke-width:0;fill:none;}#gd9289eab-4e70-43a4-ba41-9dc973f1bda2-dark .edge-pattern-dashed{stroke-dasharray:3;}#gd9289eab-4e70-43a4-ba41-9dc973f1bda2-dark .edge-pattern-dotted{stroke-dasharray:2;}#gd9289eab-4e70-43a4-ba41-9dc973f1bda2-dark .marker{fill:#cccccc;stroke:#cccccc;}#gd9289eab-4e70-43a4-ba41-9dc973f1bda2-dark .marker.cross{stroke:#cccccc;}#gd9289eab-4e70-43a4-ba41-9dc973f1bda2-dark svg{font-family:"trebuchet ms",verdana,arial,sans-serif;font-size:16px;}#gd9289eab-4e70-43a4-ba41-9dc973f1bda2-dark p{margin:0;}#gd9289eab-4e70-43a4-ba41-9dc973f1bda2-dark .label{font-family:"trebuchet ms",verdana,arial,sans-serif;color:#e5e5e5;}#gd9289eab-4e70-43a4-ba41-9dc973f1bda2-dark .cluster-label text{fill:#e5e5e5;}#gd9289eab-4e70-43a4-ba41-9dc973f1bda2-dark .cluster-label span{color:#e5e5e5;}#gd9289eab-4e70-43a4-ba41-9dc973f1bda2-dark .cluster-label span p{background-color:transparent;}#gd9289eab-4e70-43a4-ba41-9dc973f1bda2-dark .label text,#gd9289eab-4e70-43a4-ba41-9dc973f1bda2-dark span{fill:#e5e5e5;color:#e5e5e5;}#gd9289eab-4e70-43a4-ba41-9dc973f1bda2-dark .node rect,#gd9289eab-4e70-43a4-ba41-9dc973f1bda2-dark .node circle,#gd9289eab-4e70-43a4-ba41-9dc973f1bda2-dark .node ellipse,#gd9289eab-4e70-43a4-ba41-9dc973f1bda2-dark .node polygon,#gd9289eab-4e70-43a4-ba41-9dc973f1bda2-dark .node path{fill:#2d2d2d;stroke:#555555;stroke-width:1px;}#gd9289eab-4e70-43a4-ba41-9dc973f1bda2-dark .rough-node .label text,#gd9289eab-4e70-43a4-ba41-9dc973f1bda2-dark .node .label text,#gd9289eab-4e70-43a4-ba41-9dc973f1bda2-dark .image-shape .label,#gd9289eab-4e70-43a4-ba41-9dc973f1bda2-dark .icon-shape .label{text-anchor:middle;}#gd9289eab-4e70-43a4-ba41-9dc973f1bda2-dark .node .katex path{fill:#000;stroke:#000;stroke-width:1px;}#gd9289eab-4e70-43a4-ba41-9dc973f1bda2-dark .rough-node .label,#gd9289eab-4e70-43a4-ba41-9dc973f1bda2-dark .node .label,#gd9289eab-4e70-43a4-ba41-9dc973f1bda2-dark .image-shape .label,#gd9289eab-4e70-43a4-ba41-9dc973f1bda2-dark .icon-shape .label{text-align:center;}#gd9289eab-4e70-43a4-ba41-9dc973f1bda2-dark .node.clickable{cursor:pointer;}#gd9289eab-4e70-43a4-ba41-9dc973f1bda2-dark .root .anchor path{fill:#cccccc!important;stroke-width:0;stroke:#cccccc;}#gd9289eab-4e70-43a4-ba41-9dc973f1bda2-dark .arrowheadPath{fill:#cccccc;}#gd9289eab-4e70-43a4-ba41-9dc973f1bda2-dark .edgePath .path{stroke:#cccccc;stroke-width:1px;}#gd9289eab-4e70-43a4-ba41-9dc973f1bda2-dark .flowchart-link{stroke:#cccccc;fill:none;}#gd9289eab-4e70-43a4-ba41-9dc973f1bda2-dark .edgeLabel{background-color:#1e1e1e;text-align:center;}#gd9289eab-4e70-43a4-ba41-9dc973f1bda2-dark .edgeLabel p{background-color:#1e1e1e;}#gd9289eab-4e70-43a4-ba41-9dc973f1bda2-dark .edgeLabel rect{opacity:0.5;background-color:#1e1e1e;fill:#1e1e1e;}#gd9289eab-4e70-43a4-ba41-9dc973f1bda2-dark .labelBkg{background-color:rgba(30, 30, 30, 0.5);}#gd9289eab-4e70-43a4-ba41-9dc973f1bda2-dark .cluster rect{fill:#1e1e1e;stroke:#555555;stroke-width:1px;}#gd9289eab-4e70-43a4-ba41-9dc973f1bda2-dark .cluster text{fill:#e5e5e5;}#gd9289eab-4e70-43a4-ba41-9dc973f1bda2-dark .cluster span{color:#e5e5e5;}#gd9289eab-4e70-43a4-ba41-9dc973f1bda2-dark div.mermaidTooltip{position:absolute;text-align:center;max-width:200px;padding:2px;font-family:"trebuchet ms",verdana,arial,sans-serif;font-size:12px;background:#252525;border:1px solid #555555;border-radius:2px;pointer-events:none;z-index:100;}#gd9289eab-4e70-43a4-ba41-9dc973f1bda2-dark .flowchartTitleText{text-anchor:middle;font-size:18px;fill:#e5e5e5;}#gd9289eab-4e70-43a4-ba41-9dc973f1bda2-dark rect.text{fill:none;stroke-width:0;}#gd9289eab-4e70-43a4-ba41-9dc973f1bda2-dark .icon-shape,#gd9289eab-4e70-43a4-ba41-9dc973f1bda2-dark .image-shape{background-color:#1e1e1e;text-align:center;}#gd9289eab-4e70-43a4-ba41-9dc973f1bda2-dark .icon-shape p,#gd9289eab-4e70-43a4-ba41-9dc973f1bda2-dark .image-shape p{background-color:#1e1e1e;padding:2px;}#gd9289eab-4e70-43a4-ba41-9dc973f1bda2-dark .icon-shape .label rect,#gd9289eab-4e70-43a4-ba41-9dc973f1bda2-dark .image-shape .label rect{opacity:0.5;background-color:#1e1e1e;fill:#1e1e1e;}#gd9289eab-4e70-43a4-ba41-9dc973f1bda2-dark .label-icon{display:inline-block;height:1em;overflow:visible;vertical-align:-0.125em;}#gd9289eab-4e70-43a4-ba41-9dc973f1bda2-dark .node .label-icon path{fill:currentColor;stroke:revert;stroke-width:revert;}#gd9289eab-4e70-43a4-ba41-9dc973f1bda2-dark .node .neo-node{stroke:#555555;}#gd9289eab-4e70-43a4-ba41-9dc973f1bda2-dark [data-look="neo"].node rect,#gd9289eab-4e70-43a4-ba41-9dc973f1bda2-dark [data-look="neo"].cluster rect,#gd9289eab-4e70-43a4-ba41-9dc973f1bda2-dark [data-look="neo"].node polygon{stroke:url(#gd9289eab-4e70-43a4-ba41-9dc973f1bda2-dark-gradient);filter:drop-shadow( 1px 2px 2px rgba(185,185,185,1));}#gd9289eab-4e70-43a4-ba41-9dc973f1bda2-dark [data-look="neo"].node path{stroke:url(#gd9289eab-4e70-43a4-ba41-9dc973f1bda2-dark-gradient);stroke-width:1px;}#gd9289eab-4e70-43a4-ba41-9dc973f1bda2-dark [data-look="neo"].node .outer-path{filter:drop-shadow( 1px 2px 2px rgba(185,185,185,1));}#gd9289eab-4e70-43a4-ba41-9dc973f1bda2-dark [data-look="neo"].node .neo-line path{stroke:#555555;filter:none;}#gd9289eab-4e70-43a4-ba41-9dc973f1bda2-dark [data-look="neo"].node circle{stroke:url(#gd9289eab-4e70-43a4-ba41-9dc973f1bda2-dark-gradient);filter:drop-shadow( 1px 2px 2px rgba(185,185,185,1));}#gd9289eab-4e70-43a4-ba41-9dc973f1bda2-dark [data-look="neo"].node circle .state-start{fill:#000000;}#gd9289eab-4e70-43a4-ba41-9dc973f1bda2-dark [data-look="neo"].icon-shape .icon{fill:url(#gd9289eab-4e70-43a4-ba41-9dc973f1bda2-dark-gradient);filter:drop-shadow( 1px 2px 2px rgba(185,185,185,1));}#gd9289eab-4e70-43a4-ba41-9dc973f1bda2-dark [data-look="neo"].icon-shape .icon-neo path{stroke:url(#gd9289eab-4e70-43a4-ba41-9dc973f1bda2-dark-gradient);filter:drop-shadow( 1px 2px 2px rgba(185,185,185,1));}#gd9289eab-4e70-43a4-ba41-9dc973f1bda2-dark :root{--mermaid-font-family:"trebuchet ms",verdana,arial,sans-serif;}#gd9289eab-4e70-43a4-ba41-9dc973f1bda2-dark .hit rect{fill:#dcfce7!important;stroke:#15803d!important;color:#0f172a!important;}#gd9289eab-4e70-43a4-ba41-9dc973f1bda2-dark .hit polygon{fill:#dcfce7!important;stroke:#15803d!important;color:#0f172a!important;}#gd9289eab-4e70-43a4-ba41-9dc973f1bda2-dark .hit ellipse{fill:#dcfce7!important;stroke:#15803d!important;color:#0f172a!important;}#gd9289eab-4e70-43a4-ba41-9dc973f1bda2-dark .hit circle{fill:#dcfce7!important;stroke:#15803d!important;color:#0f172a!important;}#gd9289eab-4e70-43a4-ba41-9dc973f1bda2-dark .hit path{fill:#dcfce7!important;stroke:#15803d!important;color:#0f172a!important;}#gd9289eab-4e70-43a4-ba41-9dc973f1bda2-dark .hit tspan{fill:#0f172a!important;}#gd9289eab-4e70-43a4-ba41-9dc973f1bda2-dark .miss rect{fill:#fef3c7!important;stroke:#b45309!important;color:#0f172a!important;}#gd9289eab-4e70-43a4-ba41-9dc973f1bda2-dark .miss polygon{fill:#fef3c7!important;stroke:#b45309!important;color:#0f172a!important;}#gd9289eab-4e70-43a4-ba41-9dc973f1bda2-dark .miss ellipse{fill:#fef3c7!important;stroke:#b45309!important;color:#0f172a!important;}#gd9289eab-4e70-43a4-ba41-9dc973f1bda2-dark .miss circle{fill:#fef3c7!important;stroke:#b45309!important;color:#0f172a!important;}#gd9289eab-4e70-43a4-ba41-9dc973f1bda2-dark .miss path{fill:#fef3c7!important;stroke:#b45309!important;color:#0f172a!important;}#gd9289eab-4e70-43a4-ba41-9dc973f1bda2-dark .miss tspan{fill:#0f172a!important;}#gd9289eab-4e70-43a4-ba41-9dc973f1bda2-dark .bypass rect{fill:#fee2e2!important;stroke:#b91c1c!important;color:#0f172a!important;}#gd9289eab-4e70-43a4-ba41-9dc973f1bda2-dark .bypass polygon{fill:#fee2e2!important;stroke:#b91c1c!important;color:#0f172a!important;}#gd9289eab-4e70-43a4-ba41-9dc973f1bda2-dark .bypass ellipse{fill:#fee2e2!important;stroke:#b91c1c!important;color:#0f172a!important;}#gd9289eab-4e70-43a4-ba41-9dc973f1bda2-dark .bypass circle{fill:#fee2e2!important;stroke:#b91c1c!important;color:#0f172a!important;}#gd9289eab-4e70-43a4-ba41-9dc973f1bda2-dark .bypass path{fill:#fee2e2!important;stroke:#b91c1c!important;color:#0f172a!important;}#gd9289eab-4e70-43a4-ba41-9dc973f1bda2-dark .bypass tspan{fill:#0f172a!important;}</style><g><marker id="gd9289eab-4e70-43a4-ba41-9dc973f1bda2-dark_flowchart-v2-pointEnd" class="marker flowchart-v2" viewBox="0 0 10 10" refX="5" refY="5" markerUnits="userSpaceOnUse" markerWidth="8" markerHeight="8" orient="auto"><path d="M 0 0 L 10 5 L 0 10 z" class="arrowMarkerPath" style="stroke-width: 1; stroke-dasharray: 1, 0;"></path></marker><marker id="gd9289eab-4e70-43a4-ba41-9dc973f1bda2-dark_flowchart-v2-pointStart" class="marker flowchart-v2" viewBox="0 0 10 10" refX="4.5" refY="5" markerUnits="userSpaceOnUse" markerWidth="8" markerHeight="8" orient="auto"><path d="M 0 5 L 10 10 L 10 0 z" class="arrowMarkerPath" style="stroke-width: 1; stroke-dasharray: 1, 0;"></path></marker><marker id="gd9289eab-4e70-43a4-ba41-9dc973f1bda2-dark_flowchart-v2-pointEnd-margin" class="marker flowchart-v2" viewBox="0 0 11.5 14" refX="11.5" refY="7" markerUnits="userSpaceOnUse" markerWidth="10.5" markerHeight="14" orient="auto"><path d="M 0 0 L 11.5 7 L 0 14 z" class="arrowMarkerPath" style="stroke-width: 0; stroke-dasharray: 1, 0;"></path></marker><marker id="gd9289eab-4e70-43a4-ba41-9dc973f1bda2-dark_flowchart-v2-pointStart-margin" class="marker flowchart-v2" viewBox="0 0 11.5 14" refX="1" refY="7" markerUnits="userSpaceOnUse" markerWidth="11.5" markerHeight="14" orient="auto"><polygon points="0,7 11.5,14 11.5,0" class="arrowMarkerPath" style="stroke-width: 0; stroke-dasharray: 1, 0;"></polygon></marker><marker id="gd9289eab-4e70-43a4-ba41-9dc973f1bda2-dark_flowchart-v2-circleEnd" class="marker flowchart-v2" viewBox="0 0 10 10" refX="11" refY="5" markerUnits="userSpaceOnUse" markerWidth="11" markerHeight="11" orient="auto"><circle cx="5" cy="5" r="5" class="arrowMarkerPath" style="stroke-width: 1; stroke-dasharray: 1, 0;"></circle></marker><marker id="gd9289eab-4e70-43a4-ba41-9dc973f1bda2-dark_flowchart-v2-circleStart" class="marker flowchart-v2" viewBox="0 0 10 10" refX="-1" refY="5" markerUnits="userSpaceOnUse" markerWidth="11" markerHeight="11" orient="auto"><circle cx="5" cy="5" r="5" class="arrowMarkerPath" style="stroke-width: 1; stroke-dasharray: 1, 0;"></circle></marker><marker id="gd9289eab-4e70-43a4-ba41-9dc973f1bda2-dark_flowchart-v2-circleEnd-margin" class="marker flowchart-v2" viewBox="0 0 10 10" refY="5" refX="12.25" markerUnits="userSpaceOnUse" markerWidth="14" markerHeight="14" orient="auto"><circle cx="5" cy="5" r="5" class="arrowMarkerPath" style="stroke-width: 0; stroke-dasharray: 1, 0;"></circle></marker><marker id="gd9289eab-4e70-43a4-ba41-9dc973f1bda2-dark_flowchart-v2-circleStart-margin" class="marker flowchart-v2" viewBox="0 0 10 10" refX="-2" refY="5" markerUnits="userSpaceOnUse" markerWidth="14" markerHeight="14" orient="auto"><circle cx="5" cy="5" r="5" class="arrowMarkerPath" style="stroke-width: 0; stroke-dasharray: 1, 0;"></circle></marker><marker id="gd9289eab-4e70-43a4-ba41-9dc973f1bda2-dark_flowchart-v2-crossEnd" class="marker cross flowchart-v2" viewBox="0 0 11 11" refX="12" refY="5.2" markerUnits="userSpaceOnUse" markerWidth="11" markerHeight="11" orient="auto"><path d="M 1,1 l 9,9 M 10,1 l -9,9" class="arrowMarkerPath" style="stroke-width: 2; stroke-dasharray: 1, 0;"></path></marker><marker id="gd9289eab-4e70-43a4-ba41-9dc973f1bda2-dark_flowchart-v2-crossStart" class="marker cross flowchart-v2" viewBox="0 0 11 11" refX="-1" refY="5.2" markerUnits="userSpaceOnUse" markerWidth="11" markerHeight="11" orient="auto"><path d="M 1,1 l 9,9 M 10,1 l -9,9" class="arrowMarkerPath" style="stroke-width: 2; stroke-dasharray: 1, 0;"></path></marker><marker id="gd9289eab-4e70-43a4-ba41-9dc973f1bda2-dark_flowchart-v2-crossEnd-margin" class="marker cross flowchart-v2" viewBox="0 0 15 15" refX="17.7" refY="7.5" markerUnits="userSpaceOnUse" markerWidth="12" markerHeight="12" orient="auto"><path d="M 1,1 L 14,14 M 1,14 L 14,1" class="arrowMarkerPath" style="stroke-width: 2.5;"></path></marker><marker id="gd9289eab-4e70-43a4-ba41-9dc973f1bda2-dark_flowchart-v2-crossStart-margin" class="marker cross flowchart-v2" viewBox="0 0 15 15" refX="-3.5" refY="7.5" markerUnits="userSpaceOnUse" markerWidth="12" markerHeight="12" orient="auto"><path d="M 1,1 L 14,14 M 1,14 L 14,1" class="arrowMarkerPath" style="stroke-width: 2.5; stroke-dasharray: 1, 0;"></path></marker><g class="root"><g class="clusters"></g><g class="edgePaths"><path d="M226.031,42.5L225.948,46.583C225.865,50.667,225.698,58.833,225.615,66.417C225.531,74,225.531,81,225.531,84.5L225.531,88" id="gd9289eab-4e70-43a4-ba41-9dc973f1bda2-dark-L_REQ_KEY_0" class="edge-thickness-normal edge-pattern-solid edge-thickness-normal edge-pattern-solid flowchart-link" style=";" data-edge="true" data-et="edge" data-id="L_REQ_KEY_0" data-points="W3sieCI6MjI2LjAzMTI1LCJ5Ijo0Mi41fSx7IngiOjIyNS41MzEyNSwieSI6Njd9LHsieCI6MjI1LjUzMTI1LCJ5Ijo5Mn1d" data-look="classic" marker-end="url(#gd9289eab-4e70-43a4-ba41-9dc973f1bda2-dark_flowchart-v2-pointEnd)"></path><path d="M225.531,158.6L225.531,162.767C225.531,166.933,225.531,175.267,225.531,182.933C225.531,190.6,225.531,197.6,225.531,201.1L225.531,204.6" id="gd9289eab-4e70-43a4-ba41-9dc973f1bda2-dark-L_KEY_LOOK_0" class="edge-thickness-normal edge-pattern-solid edge-thickness-normal edge-pattern-solid flowchart-link" style=";" data-edge="true" data-et="edge" data-id="L_KEY_LOOK_0" data-points="W3sieCI6MjI1LjUzMTI1LCJ5IjoxNTguNTk5OTk4NDc0MTIxMX0seyJ4IjoyMjUuNTMxMjUsInkiOjE4My41OTk5OTg0NzQxMjExfSx7IngiOjIyNS41MzEyNSwieSI6MjA4LjU5OTk5ODQ3NDEyMTA3fV0=" data-look="classic" marker-end="url(#gd9289eab-4e70-43a4-ba41-9dc973f1bda2-dark_flowchart-v2-pointEnd)"></path><path d="M178.301,314.798L155.946,328.753C133.591,342.708,88.882,370.618,66.527,396.206C44.172,421.795,44.172,445.061,44.172,466.411C44.172,487.761,44.172,507.195,44.172,537.592C44.172,567.99,44.172,609.351,44.172,652.629C44.172,695.907,44.172,741.102,44.172,773.866C44.172,806.63,44.172,826.964,44.172,845.38C44.172,863.797,44.172,880.297,61.784,893.729C79.395,907.161,114.619,917.526,132.231,922.708L149.842,927.89" id="gd9289eab-4e70-43a4-ba41-9dc973f1bda2-dark-L_LOOK_SERVE_F_0" class="edge-thickness-normal edge-pattern-solid edge-thickness-normal edge-pattern-solid flowchart-link" style=";" data-edge="true" data-et="edge" data-id="L_LOOK_SERVE_F_0" data-points="W3sieCI6MTc4LjMwMDg3NTM1MTE3NTQ1LCJ5IjozMTQuNzk3NzM5NjcwMDIzMTN9LHsieCI6NDQuMTcxODc1LCJ5IjozOTguNTI4MTE0MzE4ODQ3NjZ9LHsieCI6NDQuMTcxODc1LCJ5Ijo0NjguMzI4MTEzNTU1OTA4Mn0seyJ4Ijo0NC4xNzE4NzUsInkiOjUyNi42MjgxMTI3OTI5Njg4fSx7IngiOjQ0LjE3MTg3NSwieSI6NjUwLjcxMjQ4NjI2NzA4OTh9LHsieCI6NDQuMTcxODc1LCJ5Ijo3ODYuMjk2ODU5NzQxMjEwOX0seyJ4Ijo0NC4xNzE4NzUsInkiOjg0Ny4yOTY4NTk3NDEyMTA5fSx7IngiOjQ0LjE3MTg3NSwieSI6ODk2Ljc5Njg1OTc0MTIxMDl9LHsieCI6MTUzLjY3OTY4NzUsInkiOjkyOS4wMTkyMTI1MzkwNDUzfV0=" data-look="classic" marker-end="url(#gd9289eab-4e70-43a4-ba41-9dc973f1bda2-dark_flowchart-v2-pointEnd)"></path><path d="M225.531,362.028L225.531,368.111C225.531,374.195,225.531,386.361,225.531,399.328C225.531,412.295,225.531,426.061,225.531,432.945L225.531,439.828" id="gd9289eab-4e70-43a4-ba41-9dc973f1bda2-dark-L_LOOK_SERVE_S_0" class="edge-thickness-normal edge-pattern-solid edge-thickness-normal edge-pattern-solid flowchart-link" style=";" data-edge="true" data-et="edge" data-id="L_LOOK_SERVE_S_0" data-points="W3sieCI6MjI1LjUzMTI1LCJ5IjozNjIuMDI4MTE0MzE4ODQ3N30seyJ4IjoyMjUuNTMxMjUsInkiOjM5OC41MjgxMTQzMTg4NDc2Nn0seyJ4IjoyMjUuNTMxMjUsInkiOjQ0My44MjgxMTM1NTU5MDgyfV0=" data-look="classic" marker-end="url(#gd9289eab-4e70-43a4-ba41-9dc973f1bda2-dark_flowchart-v2-pointEnd)"></path><path d="M225.531,492.828L225.531,498.461C225.531,504.095,225.531,515.361,225.531,535.459C225.531,555.556,225.531,584.484,225.531,598.948L225.531,613.412" id="gd9289eab-4e70-43a4-ba41-9dc973f1bda2-dark-L_SERVE_S_BG_0" class="edge-thickness-normal edge-pattern-solid edge-thickness-normal edge-pattern-solid flowchart-link" style=";" data-edge="true" data-et="edge" data-id="L_SERVE_S_BG_0" data-points="W3sieCI6MjI1LjUzMTI1LCJ5Ijo0OTIuODI4MTEzNTU1OTA4Mn0seyJ4IjoyMjUuNTMxMjUsInkiOjUyNi42MjgxMTI3OTI5Njg4fSx7IngiOjIyNS41MzEyNSwieSI6NjE3LjQxMjQ4NzAzMDAyOTN9XQ==" data-look="classic" marker-end="url(#gd9289eab-4e70-43a4-ba41-9dc973f1bda2-dark_flowchart-v2-pointEnd)"></path><path d="M225.531,684.012L225.531,701.06C225.531,718.107,225.531,752.202,227.027,774.69C228.523,797.178,231.515,808.059,233.011,813.499L234.507,818.94" id="gd9289eab-4e70-43a4-ba41-9dc973f1bda2-dark-L_BG_STORE_0" class="edge-thickness-normal edge-pattern-solid edge-thickness-normal edge-pattern-solid flowchart-link" style=";" data-edge="true" data-et="edge" data-id="L_BG_STORE_0" data-points="W3sieCI6MjI1LjUzMTI1LCJ5Ijo2ODQuMDEyNDg1NTA0MTUwNH0seyJ4IjoyMjUuNTMxMjUsInkiOjc4Ni4yOTY4NTk3NDEyMTA5fSx7IngiOjIzNS41Njc4MTUwNjE0NzU0MSwieSI6ODIyLjc5Njg1OTc0MTIxMDl9XQ==" data-look="classic" marker-end="url(#gd9289eab-4e70-43a4-ba41-9dc973f1bda2-dark_flowchart-v2-pointEnd)"></path><path d="M280.433,307.126L318.777,322.36C357.121,337.593,433.808,368.061,472.152,388.711C510.495,409.361,510.495,420.195,510.495,425.611L510.495,431.028" id="gd9289eab-4e70-43a4-ba41-9dc973f1bda2-dark-L_LOOK_ORIGIN_0" class="edge-thickness-normal edge-pattern-solid edge-thickness-normal edge-pattern-solid flowchart-link" style=";" data-edge="true" data-et="edge" data-id="L_LOOK_ORIGIN_0" data-points="W3sieCI6MjgwLjQzMzE4NTczODE3NDMsInkiOjMwNy4xMjYxNzg1ODA2NzM0fSx7IngiOjUxMC40OTUzMTE3MzcwNjA1NSwieSI6Mzk4LjUyODExNDMxODg0NzY2fSx7IngiOjUxMC40OTUzMTE3MzcwNjA1NSwieSI6NDM1LjAyODExNDMxODg0NzY2fV0=" data-look="classic" marker-end="url(#gd9289eab-4e70-43a4-ba41-9dc973f1bda2-dark_flowchart-v2-pointEnd)"></path><path d="M510.495,501.628L510.495,505.795C510.495,509.961,510.495,518.295,510.495,525.961C510.495,533.628,510.495,540.628,510.495,544.128L510.495,547.628" id="gd9289eab-4e70-43a4-ba41-9dc973f1bda2-dark-L_ORIGIN_CACHEABLE_0" class="edge-thickness-normal edge-pattern-solid edge-thickness-normal edge-pattern-solid flowchart-link" style=";" data-edge="true" data-et="edge" data-id="L_ORIGIN_CACHEABLE_0" data-points="W3sieCI6NTEwLjQ5NTMxMTczNzA2MDU1LCJ5Ijo1MDEuNjI4MTEyNzkyOTY4NzV9LHsieCI6NTEwLjQ5NTMxMTczNzA2MDU1LCJ5Ijo1MjYuNjI4MTEyNzkyOTY4OH0seyJ4Ijo1MTAuNDk1MzExNzM3MDYwMjYsInkiOjU1MS42MjgxMTI3OTI5Njg2fV0=" data-look="classic" marker-end="url(#gd9289eab-4e70-43a4-ba41-9dc973f1bda2-dark_flowchart-v2-pointEnd)"></path><path d="M460.416,699.718L445.67,714.148C430.924,728.578,401.433,757.437,374.362,777.667C347.291,797.896,322.641,809.495,310.316,815.294L297.991,821.094" id="gd9289eab-4e70-43a4-ba41-9dc973f1bda2-dark-L_CACHEABLE_STORE_0" class="edge-thickness-normal edge-pattern-solid edge-thickness-normal edge-pattern-solid flowchart-link" style=";" data-edge="true" data-et="edge" data-id="L_CACHEABLE_STORE_0" data-points="W3sieCI6NDYwLjQxNjMzMjI4MDIyMTgsInkiOjY5OS43MTc4ODAyODQzNzE5fSx7IngiOjM3MS45NDA2MjQyMzcwNjA1NSwieSI6Nzg2LjI5Njg1OTc0MTIxMDl9LHsieCI6Mjk0LjM3MTU4MDEyMzkwMTM3LCJ5Ijo4MjIuNzk2ODU5NzQxMjEwOX1d" data-look="classic" marker-end="url(#gd9289eab-4e70-43a4-ba41-9dc973f1bda2-dark_flowchart-v2-pointEnd)"></path><path d="M524.385,735.907L525.755,744.305C527.124,752.704,529.862,769.5,531.232,783.315C532.601,797.13,532.601,807.964,532.601,813.38L532.601,818.797" id="gd9289eab-4e70-43a4-ba41-9dc973f1bda2-dark-L_CACHEABLE_BYPASS_0" class="edge-thickness-normal edge-pattern-solid edge-thickness-normal edge-pattern-solid flowchart-link" style=";" data-edge="true" data-et="edge" data-id="L_CACHEABLE_BYPASS_0" data-points="W3sieCI6NTI0LjM4NTI3NzU3NDc2MTksInkiOjczNS45MDY4OTM5MDM1MX0seyJ4Ijo1MzIuNjAwNzgwNDg3MDYwNSwieSI6Nzg2LjI5Njg1OTc0MTIxMDl9LHsieCI6NTMyLjYwMDc4MDQ4NzA2MDUsInkiOjgyMi43OTY4NTk3NDEyMTA5fV0=" data-look="classic" marker-end="url(#gd9289eab-4e70-43a4-ba41-9dc973f1bda2-dark_flowchart-v2-pointEnd)"></path><path d="M242.305,871.797L242.305,875.964C242.305,880.13,242.305,888.464,242.305,896.13C242.305,903.797,242.305,910.797,242.305,914.297L242.305,917.797" id="gd9289eab-4e70-43a4-ba41-9dc973f1bda2-dark-L_STORE_SERVE_F_0" class="edge-thickness-normal edge-pattern-solid edge-thickness-normal edge-pattern-solid flowchart-link" style=";" data-edge="true" data-et="edge" data-id="L_STORE_SERVE_F_0" data-points="W3sieCI6MjQyLjMwNDY4NzUsInkiOjg3MS43OTY4NTk3NDEyMTA5fSx7IngiOjI0Mi4zMDQ2ODc1LCJ5Ijo4OTYuNzk2ODU5NzQxMjEwOX0seyJ4IjoyNDIuMzA0Njg3NSwieSI6OTIxLjc5Njg1OTc0MTIxMDl9XQ==" data-look="classic" marker-end="url(#gd9289eab-4e70-43a4-ba41-9dc973f1bda2-dark_flowchart-v2-pointEnd)"></path><path d="M532.601,871.797L532.601,875.964C532.601,880.13,532.601,888.464,499.643,899.249C466.684,910.035,400.768,923.273,367.81,929.892L334.851,936.511" id="gd9289eab-4e70-43a4-ba41-9dc973f1bda2-dark-L_BYPASS_SERVE_F_0" class="edge-thickness-normal edge-pattern-solid edge-thickness-normal edge-pattern-solid flowchart-link" style=";" data-edge="true" data-et="edge" data-id="L_BYPASS_SERVE_F_0" data-points="W3sieCI6NTMyLjYwMDc4MDQ4NzA2MDUsInkiOjg3MS43OTY4NTk3NDEyMTA5fSx7IngiOjUzMi42MDA3ODA0ODcwNjA1LCJ5Ijo4OTYuNzk2ODU5NzQxMjEwOX0seyJ4IjozMzAuOTI5Njg3NSwieSI6OTM3LjI5ODM1MDYzNzI5MDF9XQ==" data-look="classic" marker-end="url(#gd9289eab-4e70-43a4-ba41-9dc973f1bda2-dark_flowchart-v2-pointEnd)"></path></g><g class="edgeLabels"><g class="edgeLabel"><g class="label" data-id="L_REQ_KEY_0" transform="translate(0, 0)"><text y="-10.1" text-anchor="middle"><tspan class="text-outer-tspan row" x="0" y="-0.1em" dy="1.1em" text-anchor="middle"></tspan></text></g></g><g><rect class="background" style="stroke: none"></rect></g><g class="edgeLabel"><g class="label" data-id="L_KEY_LOOK_0" transform="translate(0, 0)"><text y="-10.1" text-anchor="middle"><tspan class="text-outer-tspan row" x="0" y="-0.1em" dy="1.1em" text-anchor="middle"></tspan></text></g></g><g><rect class="background" style="stroke: none"></rect></g><g class="edgeLabel" transform="translate(44.171875, 650.7124862670898)"><g class="label" data-id="L_LOOK_SERVE_F_0" transform="translate(0, -10.5)"><g><rect class="background" style="" x="-36.171875" y="-1" width="72.34375" height="23"></rect><text y="-10.1" text-anchor="middle" style=""><tspan class="text-outer-tspan row" x="0" y="-0.1em" dy="1.1em" text-anchor="middle"><tspan font-style="normal" class="text-inner-tspan" font-weight="normal">HIT,</tspan><tspan font-style="normal" class="text-inner-tspan" font-weight="normal"> fresh</tspan></tspan></text></g></g></g><g class="edgeLabel" transform="translate(225.53125, 398.52811431884766)"><g class="label" data-id="L_LOOK_SERVE_S_0" transform="translate(0, -10.5)"><g><rect class="background" style="" x="-59.8125" y="-1" width="119.625" height="23"></rect><text y="-10.1" text-anchor="middle" style=""><tspan class="text-outer-tspan row" x="0" y="-0.1em" dy="1.1em" text-anchor="middle"><tspan font-style="normal" class="text-inner-tspan" font-weight="normal">HIT,</tspan><tspan font-style="normal" class="text-inner-tspan" font-weight="normal"> stale</tspan><tspan font-style="normal" class="text-inner-tspan" font-weight="normal"> +</tspan><tspan font-style="normal" class="text-inner-tspan" font-weight="normal"> SWR</tspan></tspan></text></g></g></g><g class="edgeLabel"><g class="label" data-id="L_SERVE_S_BG_0" transform="translate(0, 0)"><text y="-10.1" text-anchor="middle"><tspan class="text-outer-tspan row" x="0" y="-0.1em" dy="1.1em" text-anchor="middle"></tspan></text></g></g><g><rect class="background" style="stroke: none"></rect></g><g class="edgeLabel"><g class="label" data-id="L_BG_STORE_0" transform="translate(0, 0)"><text y="-10.1" text-anchor="middle"><tspan class="text-outer-tspan row" x="0" y="-0.1em" dy="1.1em" text-anchor="middle"></tspan></text></g></g><g><rect class="background" style="stroke: none"></rect></g><g class="edgeLabel" transform="translate(510.49531173706055, 398.52811431884766)"><g class="label" data-id="L_LOOK_ORIGIN_0" transform="translate(0, -10.5)"><g><rect class="background" style="" x="-17.6015625" y="-1" width="35.203125" height="23"></rect><text y="-10.1" text-anchor="middle" style=""><tspan class="text-outer-tspan row" x="0" y="-0.1em" dy="1.1em" text-anchor="middle"><tspan font-style="normal" class="text-inner-tspan" font-weight="normal">MISS</tspan></tspan></text></g></g></g><g class="edgeLabel"><g class="label" data-id="L_ORIGIN_CACHEABLE_0" transform="translate(0, 0)"><text y="-10.1" text-anchor="middle"><tspan class="text-outer-tspan row" x="0" y="-0.1em" dy="1.1em" text-anchor="middle"></tspan></text></g></g><g><rect class="background" style="stroke: none"></rect></g><g class="edgeLabel" transform="translate(385.54262, 772.98646)"><g class="label" data-id="L_CACHEABLE_STORE_0" transform="translate(0, -10.5)"><g><rect class="background" style="" x="-13.546875" y="-1" width="27.09375" height="23"></rect><text y="-10.1" text-anchor="middle" style=""><tspan class="text-outer-tspan row" x="0" y="-0.1em" dy="1.1em" text-anchor="middle"><tspan font-style="normal" class="text-inner-tspan" font-weight="normal">yes</tspan></tspan></text></g></g></g><g class="edgeLabel" transform="translate(532.6007804870605, 786.2968597412109)"><g class="label" data-id="L_CACHEABLE_BYPASS_0" transform="translate(0, -10.5)"><g><rect class="background" style="" x="-10.6640625" y="-1" width="21.328125" height="23"></rect><text y="-10.1" text-anchor="middle" style=""><tspan class="text-outer-tspan row" x="0" y="-0.1em" dy="1.1em" text-anchor="middle"><tspan font-style="normal" class="text-inner-tspan" font-weight="normal">no</tspan></tspan></text></g></g></g><g class="edgeLabel"><g class="label" data-id="L_STORE_SERVE_F_0" transform="translate(0, 0)"><text y="-10.1" text-anchor="middle"><tspan class="text-outer-tspan row" x="0" y="-0.1em" dy="1.1em" text-anchor="middle"></tspan></text></g></g><g><rect class="background" style="stroke: none"></rect></g><g class="edgeLabel"><g class="label" data-id="L_BYPASS_SERVE_F_0" transform="translate(0, 0)"><text y="-10.1" text-anchor="middle"><tspan class="text-outer-tspan row" x="0" y="-0.1em" dy="1.1em" text-anchor="middle"></tspan></text></g></g><g><rect class="background" style="stroke: none"></rect></g></g><g class="nodes"><g class="node default" id="gd9289eab-4e70-43a4-ba41-9dc973f1bda2-dark-flowchart-REQ-0" data-look="classic" transform="translate(225.53125, 25)"><g class="basic label-container outer-path"><path d="M-73.3671875 -17 C-33.82435636184326 -17, 5.718474776313485 -17, 73.3671875 -17 C73.3671875 -17, 73.3671875 -17, 73.3671875 -17 C73.65293953924395 -16.99083648828405, 73.9386915784879 -16.9816729765681, 74.45638123967211 -16.965071676755716 C74.84137751876918 -16.927931548736993, 75.22637379786623 -16.89079142071827, 75.5410992486366 -16.860430234995185 C75.93863724505691 -16.796159374687157, 76.33617524147722 -16.73188851437913, 76.61688418792333 -16.686505668848113 C77.02094473006723 -16.594281486845222, 77.42500527221111 -16.502057304842335, 77.67931542646163 -16.4440126716635 C78.04663822956772 -16.334993191818352, 78.4139610326738 -16.225973711973207, 78.72402720640156 -16.133947699181366 C79.11633288981663 -15.989575581250635, 79.5086385732317 -15.845203463319905, 79.74672658294936 -15.757584874882369 C80.09346914918764 -15.604092226561457, 80.44021171542592 -15.450599578240546, 80.74321106499849 -15.316470754341125 C81.05510160765485 -15.153757658012728, 81.3669921503112 -14.99104456168433, 81.70938588406693 -14.812417970097622 C81.91024864218201 -14.690653785727676, 82.11111140029708 -14.56888960135773, 82.64128082057933 -14.247497783161291 C82.86081081996234 -14.09436315889221, 83.08034081934535 -13.941228534623129, 83.53506651835067 -13.624031571755262 C83.85318701215205 -13.370338943490536, 84.17130750595342 -13.11664631522581, 84.3870702202324 -12.944581292275288 C84.57697692176455 -12.77211305059976, 84.76688362329672 -12.599644808924234, 85.19379086025927 -12.21193895166137 C85.38918925880046 -12.010174062660724, 85.58458765734164 -11.808409173660076, 85.95191345028036 -11.42911513444239 C86.19745146836608 -11.140692206889879, 86.4429894864518 -10.852269279337369, 86.65832270195651 -10.59932663159847 C86.81532033081619 -10.388964111704722, 86.97231795967586 -10.178601591810974, 87.31011582814824 -9.725983222076888 C87.48700543285153 -9.454233287742927, 87.66389503755484 -9.182483353408966, 87.90461447109088 -8.812673661278927 C88.02273924878263 -8.60293115705643, 88.14086402647439 -8.393188652833933, 88.439375708341 -7.863150934094199 C88.60586932385422 -7.5174233790883225, 88.77236293936743 -7.171695824082446, 88.91220209126881 -6.881316833080699 C89.01757366193283 -6.621047016319831, 89.12294523259686 -6.360777199558963, 89.32115067484592 -5.871205925162238 C89.45275310515095 -5.474840373083279, 89.58435553545597 -5.0784748210043205, 89.66454100162323 -4.836968972727556 C89.72927086966027 -4.590125931800061, 89.7940007376973 -4.343282890872566, 89.940962007091 -3.7828558772573464 C90.01073899820075 -3.424565775281045, 90.08051598931051 -3.066275673304743, 90.14927781804565 -2.713198215567453 C90.19479704633203 -2.360160069766663, 90.2403162746184 -2.007121923965873, 90.28863242013637 -1.632391440430593 C90.30882430880875 -1.3178864757589615, 90.32901619748115 -1.0033815110873299, 90.3584531754117 -0.5448768187181379 C90.3584531754117 -0.15839861784342463, 90.3584531754117 0.2280795830312886, 90.3584531754117 0.5448768187181336 C90.33360885236785 0.9318472041026052, 90.30876452932401 1.3188175894870768, 90.28863242013637 1.6323914404305815 C90.25394469913836 1.901422554625868, 90.21925697814035 2.170453668821154, 90.14927781804565 2.7131982155674415 C90.08273343294618 3.054889568892395, 90.01618904784674 3.3965809222173493, 89.940962007091 3.782855877257343 C89.83388195751259 4.191198515086905, 89.72680190793417 4.599541152916467, 89.66454100162323 4.836968972727545 C89.5530083302203 5.172887608675253, 89.44147565881737 5.50880624462296, 89.32115067484592 5.871205925162227 C89.20160292770719 6.166491171893365, 89.08205518056845 6.461776418624504, 88.91220209126881 6.881316833080694 C88.7576511678365 7.202245132447909, 88.60310024440419 7.523173431815124, 88.439375708341 7.863150934094196 C88.26249167818514 8.177226441086223, 88.08560764802928 8.49130194807825, 87.90461447109088 8.812673661278923 C87.73024271083182 9.080555510410644, 87.55587095057275 9.348437359542364, 87.31011582814826 9.725983222076879 C87.14592220036721 9.94598772495627, 86.98172857258616 10.16599222783566, 86.65832270195651 10.599326631598467 C86.46776096707113 10.823171288664726, 86.27719923218575 11.047015945730983, 85.95191345028037 11.42911513444238 C85.73132626929917 11.656889509349835, 85.51073908831798 11.884663884257288, 85.19379086025927 12.211938951661365 C84.90926423678047 12.470338502942878, 84.62473761330169 12.72873805422439, 84.38707022023242 12.944581292275275 C84.07591314676047 13.192720778131678, 83.76475607328852 13.44086026398808, 83.53506651835067 13.62403157175526 C83.32147639303517 13.773022797007854, 83.10788626771966 13.922014022260448, 82.64128082057934 14.247497783161286 C82.37216243161063 14.410638932069318, 82.10304404264191 14.573780080977349, 81.70938588406695 14.81241797009762 C81.36459108621241 14.992297195286724, 81.01979628835787 15.172176420475827, 80.74321106499849 15.316470754341124 C80.46243391375967 15.440762470236287, 80.18165676252084 15.56505418613145, 79.74672658294936 15.757584874882367 C79.44149220859322 15.869913946201057, 79.13625783423706 15.982243017519746, 78.72402720640156 16.133947699181363 C78.44755459165941 16.216003320002464, 78.17108197691726 16.298058940823566, 77.67931542646164 16.444012671663497 C77.43581424857554 16.499590226522315, 77.19231307068944 16.555167781381133, 76.61688418792333 16.68650566884811 C76.35671949917601 16.728567078117482, 76.09655481042869 16.770628487386855, 75.54109924863661 16.86043023499518 C75.27244982438951 16.886346521854097, 75.0038004001424 16.91226280871301, 74.45638123967211 16.965071676755716 C74.10703582542779 16.976274504230933, 73.75769041118346 16.987477331706152, 73.3671875 17 C73.3671875 17, 73.3671875 17, 73.3671875 17 C36.93839322001361 17, 0.5095989400272174 17, -73.3671875 17 C-73.6782897849373 16.990023555245923, -73.98939206987461 16.980047110491846, -74.45638123967211 16.965071676755716 C-74.8494940934635 16.927148552537837, -75.24260694725491 16.88922542831996, -75.5410992486366 16.86043023499518 C-75.86742445272161 16.807672506688473, -76.19374965680663 16.75491477838176, -76.61688418792333 16.68650566884811 C-77.00360698548313 16.598238713907183, -77.39032978304293 16.509971758966255, -77.67931542646161 16.4440126716635 C-78.0541834854689 16.332753799472737, -78.42905154447618 16.221494927281974, -78.72402720640154 16.13394769918137 C-79.09958316271315 15.995739635657497, -79.47513911902475 15.857531572133626, -79.74672658294936 15.757584874882369 C-80.10061341177624 15.60092967344051, -80.4545002406031 15.44427447199865, -80.74321106499849 15.316470754341127 C-80.99924029790996 15.182900467525764, -81.25526953082142 15.0493301807104, -81.70938588406693 14.812417970097624 C-81.91909866859537 14.685288847707369, -82.1288114531238 14.558159725317116, -82.64128082057931 14.247497783161299 C-82.95073986784308 14.031632548056342, -83.26019891510686 13.815767312951385, -83.53506651835067 13.624031571755264 C-83.79548656870948 13.416353511662697, -84.0559066190683 13.208675451570132, -84.3870702202324 12.94458129227529 C-84.55427204700216 12.792733017120904, -84.72147387377193 12.640884741966518, -85.19379086025926 12.211938951661377 C-85.3576517168503 12.042739164004606, -85.52151257344134 11.873539376347836, -85.95191345028036 11.429115134442386 C-86.13173921655282 11.217881557002782, -86.31156498282529 11.006647979563178, -86.65832270195651 10.599326631598473 C-86.89200754378761 10.28621023267184, -87.12569238561872 9.973093833745208, -87.31011582814824 9.72598322207689 C-87.43016789893097 9.541551002859796, -87.55021996971371 9.357118783642704, -87.90461447109088 8.812673661278936 C-88.11227040138283 8.443959529602505, -88.31992633167478 8.075245397926073, -88.439375708341 7.863150934094201 C-88.62460541241975 7.4785174902939255, -88.80983511649849 7.093884046493651, -88.91220209126881 6.881316833080701 C-89.02763785196545 6.596188272361407, -89.14307361266208 6.3110597116421125, -89.32115067484592 5.87120592516224 C-89.44600787531999 5.4951559306277, -89.57086507579405 5.119105936093159, -89.66454100162323 4.8369689727275516 C-89.76313297801937 4.460995036696199, -89.86172495441552 4.085021100664846, -89.940962007091 3.782855877257349 C-89.99960813032426 3.4817204293170954, -90.05825425355752 3.1805849813768416, -90.14927781804565 2.713198215567455 C-90.19558153030292 2.3540757670022994, -90.24188524256019 1.994953318437143, -90.28863242013637 1.6323914404306026 C-90.31247034705468 1.261096487049606, -90.33630827397299 0.8898015336686093, -90.3584531754117 0.54487681871814 C-90.3584531754117 0.17622284836453572, -90.3584531754117 -0.19243112198906853, -90.3584531754117 -0.5448768187181317 C-90.3326542463577 -0.946715963254688, -90.30685531730371 -1.3485551077912443, -90.28863242013637 -1.6323914404305793 C-90.23291879803133 -2.0644952915780683, -90.17720517592632 -2.496599142725558, -90.14927781804565 -2.713198215567447 C-90.10050736669248 -2.963624175627431, -90.0517369153393 -3.214050135687415, -89.940962007091 -3.782855877257341 C-89.8813668168744 -4.010118166272082, -89.82177162665779 -4.2373804552868215, -89.66454100162323 -4.836968972727544 C-89.58634873566648 -5.072471619543579, -89.50815646970972 -5.307974266359616, -89.32115067484594 -5.871205925162218 C-89.23034066033081 -6.095508416706786, -89.13953064581567 -6.3198109082513545, -88.91220209126881 -6.881316833080692 C-88.76960021078636 -7.177432689093939, -88.62699833030392 -7.473548545107185, -88.439375708341 -7.863150934094194 C-88.24717068235356 -8.20443042060427, -88.05496565636611 -8.545709907114347, -87.90461447109088 -8.812673661278929 C-87.77582570074038 -9.010527797164437, -87.64703693038989 -9.208381933049946, -87.31011582814826 -9.725983222076884 C-87.16638839060334 -9.91856489454813, -87.02266095305845 -10.111146567019375, -86.65832270195651 -10.599326631598467 C-86.50088912275564 -10.784257071952249, -86.34345554355475 -10.96918751230603, -85.95191345028037 -11.42911513444238 C-85.76550108689085 -11.621601204381724, -85.57908872350133 -11.814087274321066, -85.19379086025927 -12.21193895166136 C-85.02435302542669 -12.36581791017686, -84.85491519059413 -12.51969686869236, -84.38707022023242 -12.944581292275274 C-84.09125905127667 -13.180482827651684, -83.79544788232091 -13.416384363028094, -83.53506651835067 -13.624031571755259 C-83.35252401607536 -13.751365319204949, -83.16998151380007 -13.87869906665464, -82.64128082057934 -14.247497783161284 C-82.30410505131204 -14.45189571595588, -81.96692928204475 -14.656293648750475, -81.70938588406695 -14.812417970097618 C-81.35320560310035 -14.998236994533531, -80.99702532213377 -15.184056018969445, -80.74321106499849 -15.316470754341124 C-80.3882068574131 -15.473620586213523, -80.03320264982769 -15.630770418085921, -79.74672658294936 -15.757584874882365 C-79.37992153438681 -15.892572523462087, -79.01311648582424 -16.02756017204181, -78.72402720640156 -16.133947699181363 C-78.46079832204984 -16.212072650340343, -78.19756943769814 -16.29019760149932, -77.67931542646164 -16.444012671663494 C-77.34364956155996 -16.52062621490283, -77.00798369665827 -16.597239758142166, -76.61688418792333 -16.68650566884811 C-76.38293170437215 -16.724329292060055, -76.14897922082099 -16.762152915272004, -75.54109924863661 -16.86043023499518 C-75.14902692246328 -16.898252980765164, -74.75695459628994 -16.936075726535144, -74.45638123967213 -16.965071676755716 C-74.05417314819925 -16.977969707398696, -73.65196505672638 -16.990867738041672, -73.3671875 -17 C-73.3671875 -17, -73.3671875 -17, -73.3671875 -17" stroke="none" stroke-width="0" fill="#2d2d2d" style=""></path><path d="M-73.3671875 -17 C-42.601777060143604 -17, -11.836366620287201 -17, 73.3671875 -17 M-73.3671875 -17 C-38.42882141586581 -17, -3.4904553317316243 -17, 73.3671875 -17 M73.3671875 -17 C73.3671875 -17, 73.3671875 -17, 73.3671875 -17 M73.3671875 -17 C73.3671875 -17, 73.3671875 -17, 73.3671875 -17 M73.3671875 -17 C73.69507190138839 -16.989485385435746, 74.02295630277678 -16.978970770871488, 74.45638123967211 -16.965071676755716 M73.3671875 -17 C73.61500115230379 -16.99205309851063, 73.86281480460758 -16.98410619702126, 74.45638123967211 -16.965071676755716 M74.45638123967211 -16.965071676755716 C74.81248179380299 -16.930719084572285, 75.16858234793388 -16.896366492388854, 75.5410992486366 -16.860430234995185 M74.45638123967211 -16.965071676755716 C74.68359239874144 -16.943152889501697, 74.91080355781077 -16.921234102247677, 75.5410992486366 -16.860430234995185 M75.5410992486366 -16.860430234995185 C75.91506197579652 -16.799970841392234, 76.28902470295644 -16.73951144778928, 76.61688418792333 -16.686505668848113 M75.5410992486366 -16.860430234995185 C75.93986585005358 -16.79596074335927, 76.33863245147056 -16.731491251723355, 76.61688418792333 -16.686505668848113 M76.61688418792333 -16.686505668848113 C76.88029916832251 -16.626382918515393, 77.14371414872167 -16.566260168182673, 77.67931542646163 -16.4440126716635 M76.61688418792333 -16.686505668848113 C77.00617810951769 -16.59765187162445, 77.39547203111205 -16.508798074400787, 77.67931542646163 -16.4440126716635 M77.67931542646163 -16.4440126716635 C77.9122550612137 -16.37487741079418, 78.14519469596577 -16.305742149924857, 78.72402720640156 -16.133947699181366 M77.67931542646163 -16.4440126716635 C78.07476777078709 -16.326644491639417, 78.47022011511255 -16.209276311615337, 78.72402720640156 -16.133947699181366 M78.72402720640156 -16.133947699181366 C79.06256022142972 -16.009364420286115, 79.4010932364579 -15.884781141390862, 79.74672658294936 -15.757584874882369 M78.72402720640156 -16.133947699181366 C78.96206056008685 -16.046349224668976, 79.20009391377216 -15.958750750156582, 79.74672658294936 -15.757584874882369 M79.74672658294936 -15.757584874882369 C80.13473335807574 -15.585825785345968, 80.52274013320209 -15.414066695809565, 80.74321106499849 -15.316470754341125 M79.74672658294936 -15.757584874882369 C80.08635865797017 -15.607239830098207, 80.42599073299097 -15.456894785314043, 80.74321106499849 -15.316470754341125 M80.74321106499849 -15.316470754341125 C80.97930862619215 -15.193298807894095, 81.21540618738582 -15.070126861447063, 81.70938588406693 -14.812417970097622 M80.74321106499849 -15.316470754341125 C80.94526112667927 -15.2110613665815, 81.14731118836006 -15.105651978821877, 81.70938588406693 -14.812417970097622 M81.70938588406693 -14.812417970097622 C81.91769539379702 -14.686139521136688, 82.12600490352709 -14.559861072175755, 82.64128082057933 -14.247497783161291 M81.70938588406693 -14.812417970097622 C81.92929366182462 -14.679108582899367, 82.1492014395823 -14.545799195701113, 82.64128082057933 -14.247497783161291 M82.64128082057933 -14.247497783161291 C82.93039227134733 -14.045826150538526, 83.21950372211533 -13.844154517915758, 83.53506651835067 -13.624031571755262 M82.64128082057933 -14.247497783161291 C82.86986129401669 -14.0880499399806, 83.09844176745406 -13.928602096799908, 83.53506651835067 -13.624031571755262 M83.53506651835067 -13.624031571755262 C83.81944291300563 -13.39724896459162, 84.10381930766057 -13.170466357427978, 84.3870702202324 -12.944581292275288 M83.53506651835067 -13.624031571755262 C83.76599531497703 -13.439872001719106, 83.99692411160339 -13.25571243168295, 84.3870702202324 -12.944581292275288 M84.3870702202324 -12.944581292275288 C84.66677688393047 -12.690559100937483, 84.94648354762853 -12.436536909599678, 85.19379086025927 -12.21193895166137 M84.3870702202324 -12.944581292275288 C84.63542247542158 -12.719034345153064, 84.88377473061077 -12.49348739803084, 85.19379086025927 -12.21193895166137 M85.19379086025927 -12.21193895166137 C85.44889674884794 -11.94852117711059, 85.70400263743662 -11.685103402559813, 85.95191345028036 -11.42911513444239 M85.19379086025927 -12.21193895166137 C85.35903824593223 -12.041307458891362, 85.5242856316052 -11.870675966121354, 85.95191345028036 -11.42911513444239 M85.95191345028036 -11.42911513444239 C86.12604059766515 -11.22457547900884, 86.30016774504995 -11.02003582357529, 86.65832270195651 -10.59932663159847 M85.95191345028036 -11.42911513444239 C86.21273430101333 -11.122740122044608, 86.4735551517463 -10.816365109646824, 86.65832270195651 -10.59932663159847 M86.65832270195651 -10.59932663159847 C86.84281367131632 -10.352125540129391, 87.02730464067614 -10.10492444866031, 87.31011582814824 -9.725983222076888 M86.65832270195651 -10.59932663159847 C86.89976769830379 -10.275812332584769, 87.14121269465109 -9.952298033571067, 87.31011582814824 -9.725983222076888 M87.31011582814824 -9.725983222076888 C87.43025884534039 -9.541411284752405, 87.55040186253252 -9.356839347427922, 87.90461447109088 -8.812673661278927 M87.31011582814824 -9.725983222076888 C87.49285318747141 -9.445249566304822, 87.67559054679457 -9.164515910532756, 87.90461447109088 -8.812673661278927 M87.90461447109088 -8.812673661278927 C88.02811768413973 -8.593381200454274, 88.15162089718856 -8.37408873962962, 88.439375708341 -7.863150934094199 M87.90461447109088 -8.812673661278927 C88.11561035814248 -8.43802909816845, 88.32660624519407 -8.06338453505797, 88.439375708341 -7.863150934094199 M88.439375708341 -7.863150934094199 C88.559002333754 -7.614743686824386, 88.67862895916697 -7.366336439554573, 88.91220209126881 -6.881316833080699 M88.439375708341 -7.863150934094199 C88.62368497272784 -7.48042880300841, 88.80799423711468 -7.09770667192262, 88.91220209126881 -6.881316833080699 M88.91220209126881 -6.881316833080699 C89.02724744700176 -6.597152580169702, 89.14229280273469 -6.312988327258706, 89.32115067484592 -5.871205925162238 M88.91220209126881 -6.881316833080699 C89.03670186706275 -6.573799979830254, 89.16120164285668 -6.26628312657981, 89.32115067484592 -5.871205925162238 M89.32115067484592 -5.871205925162238 C89.40060512373337 -5.631901784460499, 89.48005957262083 -5.39259764375876, 89.66454100162323 -4.836968972727556 M89.32115067484592 -5.871205925162238 C89.42246599424097 -5.566060325548349, 89.52378131363601 -5.260914725934461, 89.66454100162323 -4.836968972727556 M89.66454100162323 -4.836968972727556 C89.72597660868544 -4.602688376638824, 89.78741221574765 -4.368407780550092, 89.940962007091 -3.7828558772573464 M89.66454100162323 -4.836968972727556 C89.74368926264464 -4.535142350379602, 89.82283752366605 -4.233315728031649, 89.940962007091 -3.7828558772573464 M89.940962007091 -3.7828558772573464 C89.9865582073275 -3.548729025803197, 90.03215440756402 -3.314602174349048, 90.14927781804565 -2.713198215567453 M89.940962007091 -3.7828558772573464 C89.99814323561534 -3.4892423540417656, 90.05532446413969 -3.195628830826185, 90.14927781804565 -2.713198215567453 M90.14927781804565 -2.713198215567453 C90.18234765093894 -2.456715122024209, 90.21541748383224 -2.200232028480965, 90.28863242013637 -1.632391440430593 M90.14927781804565 -2.713198215567453 C90.18929127272797 -2.4028617626016606, 90.22930472741031 -2.092525309635868, 90.28863242013637 -1.632391440430593 M90.28863242013637 -1.632391440430593 C90.30441161112975 -1.386617803974898, 90.32019080212314 -1.140844167519203, 90.3584531754117 -0.5448768187181379 M90.28863242013637 -1.632391440430593 C90.3099228197425 -1.3007762812639418, 90.33121321934863 -0.9691611220972906, 90.3584531754117 -0.5448768187181379 M90.3584531754117 -0.5448768187181379 C90.3584531754117 -0.23453543379069897, 90.3584531754117 0.07580595113673994, 90.3584531754117 0.5448768187181336 M90.3584531754117 -0.5448768187181379 C90.3584531754117 -0.15231561709336933, 90.3584531754117 0.24024558453139921, 90.3584531754117 0.5448768187181336 M90.3584531754117 0.5448768187181336 C90.33496548595302 0.9107165409586095, 90.31147779649436 1.2765562631990854, 90.28863242013637 1.6323914404305815 M90.3584531754117 0.5448768187181336 C90.33287204082497 0.9433236386266944, 90.30729090623822 1.3417704585352552, 90.28863242013637 1.6323914404305815 M90.28863242013637 1.6323914404305815 C90.24629034572288 1.9607882081931707, 90.20394827130941 2.28918497595576, 90.14927781804565 2.7131982155674415 M90.28863242013637 1.6323914404305815 C90.26062242224857 1.8496314528485558, 90.2326124243608 2.06687146526653, 90.14927781804565 2.7131982155674415 M90.14927781804565 2.7131982155674415 C90.07271158094896 3.1063496607790224, 89.99614534385226 3.499501105990604, 89.940962007091 3.782855877257343 M90.14927781804565 2.7131982155674415 C90.06826849609847 3.1291639624399235, 89.9872591741513 3.5451297093124055, 89.940962007091 3.782855877257343 M89.940962007091 3.782855877257343 C89.83603681250311 4.182981119087999, 89.7311116179152 4.583106360918655, 89.66454100162323 4.836968972727545 M89.940962007091 3.782855877257343 C89.86069940029596 4.088931983000688, 89.78043679350091 4.395008088744033, 89.66454100162323 4.836968972727545 M89.66454100162323 4.836968972727545 C89.55298814627866 5.1729483994915855, 89.4414352909341 5.5089278262556265, 89.32115067484592 5.871205925162227 M89.66454100162323 4.836968972727545 C89.57981586169066 5.0921475950866, 89.4950907217581 5.347326217445656, 89.32115067484592 5.871205925162227 M89.32115067484592 5.871205925162227 C89.17759516909744 6.2257907998178705, 89.03403966334896 6.580375674473515, 88.91220209126881 6.881316833080694 M89.32115067484592 5.871205925162227 C89.21560395825668 6.13190835574461, 89.11005724166743 6.392610786326992, 88.91220209126881 6.881316833080694 M88.91220209126881 6.881316833080694 C88.73490693384798 7.249474020973717, 88.55761177642714 7.617631208866741, 88.439375708341 7.863150934094196 M88.91220209126881 6.881316833080694 C88.77695972207313 7.1621505064386515, 88.64171735287746 7.442984179796608, 88.439375708341 7.863150934094196 M88.439375708341 7.863150934094196 C88.29482738675009 8.119811116183612, 88.15027906515918 8.37647129827303, 87.90461447109088 8.812673661278923 M88.439375708341 7.863150934094196 C88.29370849395357 8.121797823644007, 88.14804127956614 8.380444713193818, 87.90461447109088 8.812673661278923 M87.90461447109088 8.812673661278923 C87.76519920772333 9.026852944051553, 87.62578394435577 9.241032226824183, 87.31011582814826 9.725983222076879 M87.90461447109088 8.812673661278923 C87.70786645239264 9.114931452239945, 87.51111843369439 9.41718924320097, 87.31011582814826 9.725983222076879 M87.31011582814826 9.725983222076879 C87.13864720675582 9.955735553629976, 86.96717858536338 10.185487885183074, 86.65832270195651 10.599326631598467 M87.31011582814826 9.725983222076879 C87.11616969964608 9.985853365413995, 86.92222357114392 10.245723508751112, 86.65832270195651 10.599326631598467 M86.65832270195651 10.599326631598467 C86.39903913851849 10.903895858865486, 86.13975557508046 11.208465086132502, 85.95191345028037 11.42911513444238 M86.65832270195651 10.599326631598467 C86.42877046576751 10.868971750118334, 86.1992182295785 11.1386168686382, 85.95191345028037 11.42911513444238 M85.95191345028037 11.42911513444238 C85.78546708463672 11.600984672470206, 85.61902071899308 11.772854210498034, 85.19379086025927 12.211938951661365 M85.95191345028037 11.42911513444238 C85.77381211093562 11.613019389707734, 85.59571077159087 11.796923644973088, 85.19379086025927 12.211938951661365 M85.19379086025927 12.211938951661365 C85.01121616848332 12.377748456070655, 84.82864147670736 12.543557960479944, 84.38707022023242 12.944581292275275 M85.19379086025927 12.211938951661365 C84.90401804846174 12.475102952367427, 84.61424523666419 12.738266953073492, 84.38707022023242 12.944581292275275 M84.38707022023242 12.944581292275275 C84.07679581164217 13.192016876377219, 83.76652140305194 13.439452460479163, 83.53506651835067 13.62403157175526 M84.38707022023242 12.944581292275275 C84.13638489694054 13.14449616658393, 83.88569957364865 13.344411040892588, 83.53506651835067 13.62403157175526 M83.53506651835067 13.62403157175526 C83.21430887984197 13.847778215004555, 82.89355124133327 14.071524858253849, 82.64128082057934 14.247497783161286 M83.53506651835067 13.62403157175526 C83.26607939765252 13.811665342889514, 82.99709227695436 13.999299114023769, 82.64128082057934 14.247497783161286 M82.64128082057934 14.247497783161286 C82.43615101062618 14.371848679431466, 82.23102120067301 14.496199575701644, 81.70938588406695 14.81241797009762 M82.64128082057934 14.247497783161286 C82.38568618017 14.402440756218263, 82.13009153976064 14.55738372927524, 81.70938588406695 14.81241797009762 M81.70938588406695 14.81241797009762 C81.4344859255531 14.955833102372466, 81.15958596703925 15.099248234647312, 80.74321106499849 15.316470754341124 M81.70938588406695 14.81241797009762 C81.47826537089458 14.932993393779888, 81.24714485772222 15.053568817462157, 80.74321106499849 15.316470754341124 M80.74321106499849 15.316470754341124 C80.35048214855615 15.490320195760763, 79.9577532321138 15.664169637180402, 79.74672658294936 15.757584874882367 M80.74321106499849 15.316470754341124 C80.43576746105691 15.452566917815584, 80.12832385711533 15.588663081290045, 79.74672658294936 15.757584874882367 M79.74672658294936 15.757584874882367 C79.4629862871423 15.862003926605908, 79.17924599133524 15.96642297832945, 78.72402720640156 16.133947699181363 M79.74672658294936 15.757584874882367 C79.4914377424394 15.851533528054205, 79.23614890192944 15.945482181226044, 78.72402720640156 16.133947699181363 M78.72402720640156 16.133947699181363 C78.37394855728922 16.237849204637577, 78.02386990817689 16.34175071009379, 77.67931542646164 16.444012671663497 M78.72402720640156 16.133947699181363 C78.41529907406863 16.225576588310744, 78.10657094173568 16.317205477440123, 77.67931542646164 16.444012671663497 M77.67931542646164 16.444012671663497 C77.33296940593097 16.52306389073062, 76.98662338540029 16.602115109797744, 76.61688418792333 16.68650566884811 M77.67931542646164 16.444012671663497 C77.43771135237355 16.49915722496018, 77.19610727828545 16.55430177825686, 76.61688418792333 16.68650566884811 M76.61688418792333 16.68650566884811 C76.30442007921016 16.737022442749502, 75.991955970497 16.78753921665089, 75.54109924863661 16.86043023499518 M76.61688418792333 16.68650566884811 C76.19171542556353 16.755243657113446, 75.76654666320373 16.823981645378783, 75.54109924863661 16.86043023499518 M75.54109924863661 16.86043023499518 C75.32053861464622 16.881707454093263, 75.09997798065584 16.902984673191344, 74.45638123967211 16.965071676755716 M75.54109924863661 16.86043023499518 C75.15442864302379 16.89773188327921, 74.76775803741096 16.93503353156324, 74.45638123967211 16.965071676755716 M74.45638123967211 16.965071676755716 C74.14800191392295 16.974960801508548, 73.83962258817378 16.98484992626138, 73.3671875 17 M74.45638123967211 16.965071676755716 C74.05906507923697 16.977812832691882, 73.66174891880185 16.990553988628044, 73.3671875 17 M73.3671875 17 C73.3671875 17, 73.3671875 17, 73.3671875 17 M73.3671875 17 C73.3671875 17, 73.3671875 17, 73.3671875 17 M73.3671875 17 C19.914236231674238 17, -33.538715036651524 17, -73.3671875 17 M73.3671875 17 C41.54308547547224 17, 9.718983450944478 17, -73.3671875 17 M-73.3671875 17 C-73.63834517268901 16.991304501213254, -73.90950284537801 16.98260900242651, -74.45638123967211 16.965071676755716 M-73.3671875 17 C-73.76739641387641 16.987166079091377, -74.16760532775284 16.974332158182754, -74.45638123967211 16.965071676755716 M-74.45638123967211 16.965071676755716 C-74.7194650728164 16.939692295776887, -74.98254890596071 16.914312914798057, -75.5410992486366 16.86043023499518 M-74.45638123967211 16.965071676755716 C-74.67454774040755 16.944025416813375, -74.89271424114298 16.92297915687103, -75.5410992486366 16.86043023499518 M-75.5410992486366 16.86043023499518 C-75.91327275755384 16.80026010832211, -76.2854462664711 16.74008998164904, -76.61688418792333 16.68650566884811 M-75.5410992486366 16.86043023499518 C-75.91177514667893 16.80050223043422, -76.28245104472126 16.74057422587326, -76.61688418792333 16.68650566884811 M-76.61688418792333 16.68650566884811 C-76.98628133456687 16.602193180668383, -77.3556784812104 16.517880692488653, -77.67931542646161 16.4440126716635 M-76.61688418792333 16.68650566884811 C-76.93952686524575 16.6128645831895, -77.26216954256817 16.53922349753089, -77.67931542646161 16.4440126716635 M-77.67931542646161 16.4440126716635 C-77.9423196367452 16.365954402588606, -78.20532384702878 16.287896133513712, -78.72402720640154 16.13394769918137 M-77.67931542646161 16.4440126716635 C-77.91798232919093 16.373177587721578, -78.15664923192026 16.302342503779652, -78.72402720640154 16.13394769918137 M-78.72402720640154 16.13394769918137 C-78.99508360694539 16.034196438163338, -79.26614000748921 15.934445177145307, -79.74672658294936 15.757584874882369 M-78.72402720640154 16.13394769918137 C-79.03765307928795 16.018530478833384, -79.35127895217437 15.903113258485394, -79.74672658294936 15.757584874882369 M-79.74672658294936 15.757584874882369 C-79.99981644148079 15.645549502154415, -80.25290630001221 15.533514129426463, -80.74321106499849 15.316470754341127 M-79.74672658294936 15.757584874882369 C-79.96130042828237 15.662599398660419, -80.17587427361538 15.567613922438467, -80.74321106499849 15.316470754341127 M-80.74321106499849 15.316470754341127 C-81.08720604077291 15.13700879581891, -81.43120101654733 14.957546837296691, -81.70938588406693 14.812417970097624 M-80.74321106499849 15.316470754341127 C-81.0159058253653 15.174206072527094, -81.2886005857321 15.031941390713058, -81.70938588406693 14.812417970097624 M-81.70938588406693 14.812417970097624 C-81.91154843800688 14.689865841860195, -82.1137109919468 14.567313713622768, -82.64128082057931 14.247497783161299 M-81.70938588406693 14.812417970097624 C-81.96822617303634 14.655507465809992, -82.22706646200574 14.498596961522358, -82.64128082057931 14.247497783161299 M-82.64128082057931 14.247497783161299 C-82.94723704302753 14.03407596701283, -83.25319326547574 13.820654150864362, -83.53506651835067 13.624031571755264 M-82.64128082057931 14.247497783161299 C-82.97141061445022 14.017213530045398, -83.30154040832113 13.786929276929497, -83.53506651835067 13.624031571755264 M-83.53506651835067 13.624031571755264 C-83.73389105087008 13.465474298014053, -83.9327155833895 13.30691702427284, -84.3870702202324 12.94458129227529 M-83.53506651835067 13.624031571755264 C-83.8053883156526 13.408457131972108, -84.07571011295454 13.192882692188952, -84.3870702202324 12.94458129227529 M-84.3870702202324 12.94458129227529 C-84.67601553694928 12.682168800707158, -84.96496085366617 12.419756309139027, -85.19379086025926 12.211938951661377 M-84.3870702202324 12.94458129227529 C-84.58932724310517 12.760896815529817, -84.79158426597793 12.577212338784346, -85.19379086025926 12.211938951661377 M-85.19379086025926 12.211938951661377 C-85.41438518415852 11.984157201104578, -85.63497950805778 11.756375450547779, -85.95191345028036 11.429115134442386 M-85.19379086025926 12.211938951661377 C-85.44734738329659 11.950121024247645, -85.7009039063339 11.688303096833913, -85.95191345028036 11.429115134442386 M-85.95191345028036 11.429115134442386 C-86.14601045947946 11.201117743004433, -86.34010746867855 10.97312035156648, -86.65832270195651 10.599326631598473 M-85.95191345028036 11.429115134442386 C-86.15439350600393 11.191270539547919, -86.35687356172751 10.95342594465345, -86.65832270195651 10.599326631598473 M-86.65832270195651 10.599326631598473 C-86.85340339619573 10.337936273534755, -87.04848409043497 10.076545915471039, -87.31011582814824 9.72598322207689 M-86.65832270195651 10.599326631598473 C-86.82511800109768 10.375836126113642, -86.99191330023886 10.152345620628811, -87.31011582814824 9.72598322207689 M-87.31011582814824 9.72598322207689 C-87.5330510672743 9.383494828285466, -87.75598630640036 9.04100643449404, -87.90461447109088 8.812673661278936 M-87.31011582814824 9.72598322207689 C-87.51008834356301 9.418771738260684, -87.71006085897778 9.111560254444477, -87.90461447109088 8.812673661278936 M-87.90461447109088 8.812673661278936 C-88.0599516398132 8.53685678861845, -88.21528880853553 8.261039915957967, -88.439375708341 7.863150934094201 M-87.90461447109088 8.812673661278936 C-88.08510147099071 8.49220071666623, -88.26558847089055 8.171727772053526, -88.439375708341 7.863150934094201 M-88.439375708341 7.863150934094201 C-88.56979504961063 7.592332381420949, -88.70021439088026 7.321513828747697, -88.91220209126881 6.881316833080701 M-88.439375708341 7.863150934094201 C-88.54462154438392 7.64460570365095, -88.64986738042683 7.4260604732077, -88.91220209126881 6.881316833080701 M-88.91220209126881 6.881316833080701 C-89.04410243682425 6.55552042943909, -89.17600278237967 6.22972402579748, -89.32115067484592 5.87120592516224 M-88.91220209126881 6.881316833080701 C-88.99953453265351 6.66560401440258, -89.08686697403823 6.449891195724459, -89.32115067484592 5.87120592516224 M-89.32115067484592 5.87120592516224 C-89.40968056904433 5.60456798915976, -89.49821046324273 5.33793005315728, -89.66454100162323 4.8369689727275516 M-89.32115067484592 5.87120592516224 C-89.38995179515626 5.663987912757371, -89.45875291546659 5.456769900352502, -89.66454100162323 4.8369689727275516 M-89.66454100162323 4.8369689727275516 C-89.76043480740356 4.471284330648874, -89.85632861318386 4.105599688570198, -89.940962007091 3.782855877257349 M-89.66454100162323 4.8369689727275516 C-89.75412730118238 4.49533758556067, -89.84371360074154 4.153706198393789, -89.940962007091 3.782855877257349 M-89.940962007091 3.782855877257349 C-90.02316620954058 3.360754671543104, -90.10537041199015 2.938653465828859, -90.14927781804565 2.713198215567455 M-89.940962007091 3.782855877257349 C-90.01964647144996 3.378827782741545, -90.0983309358089 2.974799688225741, -90.14927781804565 2.713198215567455 M-90.14927781804565 2.713198215567455 C-90.19102746051155 2.3893962330013654, -90.23277710297744 2.065594250435276, -90.28863242013637 1.6323914404306026 M-90.14927781804565 2.713198215567455 C-90.18138737448461 2.46416283657594, -90.21349693092358 2.215127457584425, -90.28863242013637 1.6323914404306026 M-90.28863242013637 1.6323914404306026 C-90.30503730003016 1.3768721943040299, -90.32144217992396 1.121352948177457, -90.3584531754117 0.54487681871814 M-90.28863242013637 1.6323914404306026 C-90.31240874655786 1.2620559645105565, -90.33618507297936 0.8917204885905105, -90.3584531754117 0.54487681871814 M-90.3584531754117 0.54487681871814 C-90.3584531754117 0.11780939420722425, -90.3584531754117 -0.3092580303036915, -90.3584531754117 -0.5448768187181317 M-90.3584531754117 0.54487681871814 C-90.3584531754117 0.26996852856908976, -90.3584531754117 -0.0049397615799604555, -90.3584531754117 -0.5448768187181317 M-90.3584531754117 -0.5448768187181317 C-90.33113097213163 -0.9704421888906001, -90.30380876885157 -1.3960075590630683, -90.28863242013637 -1.6323914404305793 M-90.3584531754117 -0.5448768187181317 C-90.33121520750609 -0.9691301549399007, -90.30397723960048 -1.39338349116167, -90.28863242013637 -1.6323914404305793 M-90.28863242013637 -1.6323914404305793 C-90.25728079001613 -1.875548492563564, -90.22592915989588 -2.1187055446965486, -90.14927781804565 -2.713198215567447 M-90.28863242013637 -1.6323914404305793 C-90.25789671248971 -1.8707715194860344, -90.22716100484307 -2.1091515985414895, -90.14927781804565 -2.713198215567447 M-90.14927781804565 -2.713198215567447 C-90.10087850389691 -2.9617184645225394, -90.05247918974818 -3.210238713477632, -89.940962007091 -3.782855877257341 M-90.14927781804565 -2.713198215567447 C-90.08372487821006 -3.049798707004413, -90.0181719383745 -3.386399198441379, -89.940962007091 -3.782855877257341 M-89.940962007091 -3.782855877257341 C-89.83351401926473 -4.192601623091431, -89.72606603143845 -4.60234736892552, -89.66454100162323 -4.836968972727544 M-89.940962007091 -3.782855877257341 C-89.83765577326967 -4.176807320023006, -89.73434953944836 -4.570758762788669, -89.66454100162323 -4.836968972727544 M-89.66454100162323 -4.836968972727544 C-89.56919885943202 -5.1241243143000865, -89.47385671724079 -5.41127965587263, -89.32115067484594 -5.871205925162218 M-89.66454100162323 -4.836968972727544 C-89.55531328519145 -5.16594545154687, -89.44608556875966 -5.494921930366196, -89.32115067484594 -5.871205925162218 M-89.32115067484594 -5.871205925162218 C-89.17309608882833 -6.236903615066375, -89.02504150281074 -6.602601304970532, -88.91220209126881 -6.881316833080692 M-89.32115067484594 -5.871205925162218 C-89.16704545570565 -6.251848795860437, -89.01294023656537 -6.632491666558655, -88.91220209126881 -6.881316833080692 M-88.91220209126881 -6.881316833080692 C-88.80887139666103 -7.0958852313564185, -88.70554070205326 -7.3104536296321445, -88.439375708341 -7.863150934094194 M-88.91220209126881 -6.881316833080692 C-88.75440371588493 -7.208988535909681, -88.59660534050104 -7.536660238738669, -88.439375708341 -7.863150934094194 M-88.439375708341 -7.863150934094194 C-88.25354153452031 -8.19311832746347, -88.0677073606996 -8.523085720832745, -87.90461447109088 -8.812673661278929 M-88.439375708341 -7.863150934094194 C-88.26801052835202 -8.167427163770762, -88.09664534836303 -8.471703393447331, -87.90461447109088 -8.812673661278929 M-87.90461447109088 -8.812673661278929 C-87.74039140887876 -9.064964384903533, -87.57616834666665 -9.317255108528137, -87.31011582814826 -9.725983222076884 M-87.90461447109088 -8.812673661278929 C-87.71157984832453 -9.109226678902129, -87.51854522555819 -9.405779696525329, -87.31011582814826 -9.725983222076884 M-87.31011582814826 -9.725983222076884 C-87.05619776946891 -10.066210288296185, -86.80227971078955 -10.406437354515488, -86.65832270195651 -10.599326631598467 M-87.31011582814826 -9.725983222076884 C-87.06475473298111 -10.054744736745244, -86.81939363781396 -10.383506251413605, -86.65832270195651 -10.599326631598467 M-86.65832270195651 -10.599326631598467 C-86.45084673332266 -10.843039710072839, -86.24337076468882 -11.08675278854721, -85.95191345028037 -11.42911513444238 M-86.65832270195651 -10.599326631598467 C-86.3807952682112 -10.925326147034053, -86.10326783446588 -11.251325662469638, -85.95191345028037 -11.42911513444238 M-85.95191345028037 -11.42911513444238 C-85.7467566583913 -11.640956365753697, -85.54159986650225 -11.852797597065015, -85.19379086025927 -12.21193895166136 M-85.95191345028037 -11.42911513444238 C-85.66799565833344 -11.722283564711805, -85.38407786638652 -12.01545199498123, -85.19379086025927 -12.21193895166136 M-85.19379086025927 -12.21193895166136 C-84.96682119985938 -12.41806679194841, -84.73985153945948 -12.62419463223546, -84.38707022023242 -12.944581292275274 M-85.19379086025927 -12.21193895166136 C-84.96817542742583 -12.416836918303451, -84.7425599945924 -12.621734884945543, -84.38707022023242 -12.944581292275274 M-84.38707022023242 -12.944581292275274 C-84.17190690459867 -13.116168310756887, -83.95674358896494 -13.2877553292385, -83.53506651835067 -13.624031571755259 M-84.38707022023242 -12.944581292275274 C-84.06334997076911 -13.202739576664628, -83.73962972130582 -13.460897861053985, -83.53506651835067 -13.624031571755259 M-83.53506651835067 -13.624031571755259 C-83.25152731624136 -13.821816244932483, -82.96798811413205 -14.019600918109706, -82.64128082057934 -14.247497783161284 M-83.53506651835067 -13.624031571755259 C-83.27046007062523 -13.808609575060022, -83.00585362289979 -13.993187578364784, -82.64128082057934 -14.247497783161284 M-82.64128082057934 -14.247497783161284 C-82.36500840538298 -14.414975744810238, -82.08873599018663 -14.582453706459193, -81.70938588406695 -14.812417970097618 M-82.64128082057934 -14.247497783161284 C-82.37014820264514 -14.411859969505121, -82.09901558471094 -14.576222155848956, -81.70938588406695 -14.812417970097618 M-81.70938588406695 -14.812417970097618 C-81.39291435883531 -14.977520962101275, -81.07644283360368 -15.14262395410493, -80.74321106499849 -15.316470754341124 M-81.70938588406695 -14.812417970097618 C-81.48974564158111 -14.927004143916193, -81.27010539909526 -15.041590317734766, -80.74321106499849 -15.316470754341124 M-80.74321106499849 -15.316470754341124 C-80.34818694245327 -15.49133621541764, -79.95316281990803 -15.666201676494156, -79.74672658294936 -15.757584874882365 M-80.74321106499849 -15.316470754341124 C-80.44756026159081 -15.447346594840226, -80.15190945818311 -15.57822243533933, -79.74672658294936 -15.757584874882365 M-79.74672658294936 -15.757584874882365 C-79.38856902467492 -15.889390167099537, -79.03041146640048 -16.021195459316708, -78.72402720640156 -16.133947699181363 M-79.74672658294936 -15.757584874882365 C-79.37574131722025 -15.894110882020886, -79.00475605149113 -16.030636889159407, -78.72402720640156 -16.133947699181363 M-78.72402720640156 -16.133947699181363 C-78.45698057654013 -16.213205737167872, -78.18993394667869 -16.292463775154378, -77.67931542646164 -16.444012671663494 M-78.72402720640156 -16.133947699181363 C-78.32801382075404 -16.251482393324867, -77.93200043510652 -16.36901708746837, -77.67931542646164 -16.444012671663494 M-77.67931542646164 -16.444012671663494 C-77.39303135699201 -16.509355142341796, -77.10674728752237 -16.574697613020096, -76.61688418792333 -16.68650566884811 M-77.67931542646164 -16.444012671663494 C-77.37717947227202 -16.512973231585917, -77.07504351808238 -16.581933791508344, -76.61688418792333 -16.68650566884811 M-76.61688418792333 -16.68650566884811 C-76.25263537701362 -16.745394591804274, -75.8883865661039 -16.804283514760442, -75.54109924863661 -16.86043023499518 M-76.61688418792333 -16.68650566884811 C-76.35550891621965 -16.728762795781655, -76.09413364451596 -16.771019922715205, -75.54109924863661 -16.86043023499518 M-75.54109924863661 -16.86043023499518 C-75.14021709553374 -16.899102854173687, -74.73933494243087 -16.937775473352193, -74.45638123967213 -16.965071676755716 M-75.54109924863661 -16.86043023499518 C-75.13895073801402 -16.8992250181606, -74.73680222739141 -16.938019801326018, -74.45638123967213 -16.965071676755716 M-74.45638123967213 -16.965071676755716 C-74.13634081452322 -16.975334750269344, -73.81630038937432 -16.985597823782975, -73.3671875 -17 M-74.45638123967213 -16.965071676755716 C-74.1395720883272 -16.975231129607742, -73.82276293698229 -16.98539058245977, -73.3671875 -17 M-73.3671875 -17 C-73.3671875 -17, -73.3671875 -17, -73.3671875 -17 M-73.3671875 -17 C-73.3671875 -17, -73.3671875 -17, -73.3671875 -17" stroke="#555555" stroke-width="1.3" fill="none" stroke-dasharray="0 0" style=""></path></g><g class="label" style="" transform="translate(0, -9.5)"><rect></rect><g><rect class="background" style="stroke: none"></rect><text y="-10.1" style=""><tspan class="text-outer-tspan row" x="0" y="-0.1em" dy="1.1em"><tspan font-style="normal" class="text-inner-tspan" font-weight="normal">Edge</tspan><tspan font-style="normal" class="text-inner-tspan" font-weight="normal"> receives</tspan><tspan font-style="normal" class="text-inner-tspan" font-weight="normal"> request</tspan></tspan></text></g></g></g><g class="node default" id="gd9289eab-4e70-43a4-ba41-9dc973f1bda2-dark-flowchart-KEY-1" data-look="classic" transform="translate(225.53125, 125.29999923706055)"><rect class="basic label-container" style="" x="-104.34375" y="-33.29999923706055" width="208.6875" height="66.5999984741211"></rect><g class="label" style="" transform="translate(0, -18.299999237060547)"><rect></rect><g><rect class="background" style="stroke: none"></rect><text y="-10.1" style=""><tspan class="text-outer-tspan row" x="0" y="-0.1em" dy="1.1em"><tspan font-style="normal" class="text-inner-tspan" font-weight="normal">Build</tspan><tspan font-style="normal" class="text-inner-tspan" font-weight="normal"> cache</tspan><tspan font-style="normal" class="text-inner-tspan" font-weight="normal"> key</tspan></tspan><tspan class="text-outer-tspan row" x="0" y="1em" dy="1.1em"><tspan font-style="normal" class="text-inner-tspan" font-weight="normal">(URL</tspan><tspan font-style="normal" class="text-inner-tspan" font-weight="normal"> +</tspan><tspan font-style="normal" class="text-inner-tspan" font-weight="normal"> Vary</tspan><tspan font-style="normal" class="text-inner-tspan" font-weight="normal"> headers)</tspan></tspan></text></g></g></g><g class="node default" id="gd9289eab-4e70-43a4-ba41-9dc973f1bda2-dark-flowchart-LOOK-3" data-look="classic" transform="translate(225.53125, 285.3140563964844)"><polygon points="76.71406173706055,0 153.4281234741211,-76.71406173706055 76.71406173706055,-153.4281234741211 0,-76.71406173706055" class="label-container" transform="translate(-76.21406173706055, 76.71406173706055)"></polygon><g class="label" style="" transform="translate(0, -18.299999237060547)"><rect></rect><g><rect class="background" style="stroke: none"></rect><text y="-10.1" style=""><tspan class="text-outer-tspan row" x="0" y="-0.1em" dy="1.1em"><tspan font-style="normal" class="text-inner-tspan" font-weight="normal">Object</tspan><tspan font-style="normal" class="text-inner-tspan" font-weight="normal"> in</tspan></tspan><tspan class="text-outer-tspan row" x="0" y="1em" dy="1.1em"><tspan font-style="normal" class="text-inner-tspan" font-weight="normal">edge</tspan><tspan font-style="normal" class="text-inner-tspan" font-weight="normal"> cache?</tspan></tspan></text></g></g></g><g class="node default hit" id="gd9289eab-4e70-43a4-ba41-9dc973f1bda2-dark-flowchart-SERVE_F-5" data-look="classic" transform="translate(242.3046875, 955.0968589782715)"><rect class="basic label-container" style="fill:#196634 !important;stroke:#15803d !important" x="-88.625" y="-33.29999923706055" width="177.25" height="66.5999984741211"></rect><g class="label" style="color:#0f172a !important" transform="translate(0, -18.299999237060547)"><rect></rect><g><rect class="background" style="stroke: none"></rect><text y="-10.1" style="fill:#0f172a !important"><tspan class="text-outer-tspan row" x="0" y="-0.1em" dy="1.1em"><tspan font-style="normal" class="text-inner-tspan" font-weight="normal">Serve</tspan><tspan font-style="normal" class="text-inner-tspan" font-weight="normal"> from</tspan><tspan font-style="normal" class="text-inner-tspan" font-weight="normal"> edge</tspan></tspan><tspan class="text-outer-tspan row" x="0" y="1em" dy="1.1em"><tspan font-style="normal" class="text-inner-tspan" font-weight="normal">(5-20</tspan><tspan font-style="normal" class="text-inner-tspan" font-weight="normal"> ms)</tspan></tspan></text></g></g></g><g class="node default hit" id="gd9289eab-4e70-43a4-ba41-9dc973f1bda2-dark-flowchart-SERVE_S-7" data-look="classic" transform="translate(225.53125, 468.3281135559082)"><rect class="basic label-container" style="fill:#196634 !important;stroke:#15803d !important" x="-116.46875" y="-24.5" width="232.9375" height="49"></rect><g class="label" style="color:#0f172a !important" transform="translate(0, -9.5)"><rect></rect><g><rect class="background" style="stroke: none"></rect><text y="-10.1" style="fill:#0f172a !important"><tspan class="text-outer-tspan row" x="0" y="-0.1em" dy="1.1em"><tspan font-style="normal" class="text-inner-tspan" font-weight="normal">Serve</tspan><tspan font-style="normal" class="text-inner-tspan" font-weight="normal"> stale</tspan><tspan font-style="normal" class="text-inner-tspan" font-weight="normal"> immediately</tspan></tspan></text></g></g></g><g class="node default" id="gd9289eab-4e70-43a4-ba41-9dc973f1bda2-dark-flowchart-BG-9" data-look="classic" transform="translate(225.53125, 650.7124862670898)"><rect class="basic label-container" style="" x="-110.1875" y="-33.29999923706055" width="220.375" height="66.5999984741211"></rect><g class="label" style="" transform="translate(0, -18.299999237060547)"><rect></rect><g><rect class="background" style="stroke: none"></rect><text y="-10.1" style=""><tspan class="text-outer-tspan row" x="0" y="-0.1em" dy="1.1em"><tspan font-style="normal" class="text-inner-tspan" font-weight="normal">Background</tspan><tspan font-style="normal" class="text-inner-tspan" font-weight="normal"> revalidate</tspan></tspan><tspan class="text-outer-tspan row" x="0" y="1em" dy="1.1em"><tspan font-style="normal" class="text-inner-tspan" font-weight="normal">to</tspan><tspan font-style="normal" class="text-inner-tspan" font-weight="normal"> origin</tspan></tspan></text></g></g></g><g class="node default" id="gd9289eab-4e70-43a4-ba41-9dc973f1bda2-dark-flowchart-STORE-11" data-look="classic" transform="translate(242.3046875, 847.2968597412109)"><rect class="basic label-container" style="" x="-108.109375" y="-24.5" width="216.21875" height="49"></rect><g class="label" style="" transform="translate(0, -9.5)"><rect></rect><g><rect class="background" style="stroke: none"></rect><text y="-10.1" style=""><tspan class="text-outer-tspan row" x="0" y="-0.1em" dy="1.1em"><tspan font-style="normal" class="text-inner-tspan" font-weight="normal">Store</tspan><tspan font-style="normal" class="text-inner-tspan" font-weight="normal"> +</tspan><tspan font-style="normal" class="text-inner-tspan" font-weight="normal"> emit</tspan><tspan font-style="normal" class="text-inner-tspan" font-weight="normal"> response</tspan></tspan></text></g></g></g><g class="node default miss" id="gd9289eab-4e70-43a4-ba41-9dc973f1bda2-dark-flowchart-ORIGIN-13" data-look="classic" transform="translate(510.49531173706055, 468.3281135559082)"><rect class="basic label-container" style="fill:#665719 !important;stroke:#b45309 !important" x="-92.25" y="-33.29999923706055" width="184.5" height="66.5999984741211"></rect><g class="label" style="color:#0f172a !important" transform="translate(0, -18.299999237060547)"><rect></rect><g><rect class="background" style="stroke: none"></rect><text y="-10.1" style="fill:#0f172a !important"><tspan class="text-outer-tspan row" x="0" y="-0.1em" dy="1.1em"><tspan font-style="normal" class="text-inner-tspan" font-weight="normal">Fetch</tspan><tspan font-style="normal" class="text-inner-tspan" font-weight="normal"> from</tspan><tspan font-style="normal" class="text-inner-tspan" font-weight="normal"> origin</tspan></tspan><tspan class="text-outer-tspan row" x="0" y="1em" dy="1.1em"><tspan font-style="normal" class="text-inner-tspan" font-weight="normal">(via</tspan><tspan font-style="normal" class="text-inner-tspan" font-weight="normal"> VPC)</tspan></tspan></text></g></g></g><g class="node default" id="gd9289eab-4e70-43a4-ba41-9dc973f1bda2-dark-flowchart-CACHEABLE-15" data-look="classic" transform="translate(510.49531173706055, 650.7124862670898)"><polygon points="99.0843734741211,0 198.1687469482422,-99.0843734741211 99.0843734741211,-198.1687469482422 0,-99.0843734741211" class="label-container" transform="translate(-98.5843734741211, 99.0843734741211)"></polygon><g class="label" style="" transform="translate(0, -27.099998474121094)"><rect></rect><g><rect class="background" style="stroke: none"></rect><text y="-10.1" style=""><tspan class="text-outer-tspan row" x="0" y="-0.1em" dy="1.1em"><tspan font-style="normal" class="text-inner-tspan" font-weight="normal">Cacheable?</tspan></tspan><tspan class="text-outer-tspan row" x="0" y="1em" dy="1.1em"><tspan font-style="normal" class="text-inner-tspan" font-weight="normal">(Cache-Control,</tspan></tspan><tspan class="text-outer-tspan row" x="0" y="2.1em" dy="1.1em"><tspan font-style="normal" class="text-inner-tspan" font-weight="normal">status,</tspan><tspan font-style="normal" class="text-inner-tspan" font-weight="normal"> method)</tspan></tspan></text></g></g></g><g class="node default bypass" id="gd9289eab-4e70-43a4-ba41-9dc973f1bda2-dark-flowchart-BYPASS-19" data-look="classic" transform="translate(532.6007804870605, 847.2968597412109)"><rect class="basic label-container" style="fill:#661919 !important;stroke:#b91c1c !important" x="-119" y="-24.5" width="238" height="49"></rect><g class="label" style="color:#0f172a !important" transform="translate(0, -9.5)"><rect></rect><g><rect class="background" style="stroke: none"></rect><text y="-10.1" style="fill:#0f172a !important"><tspan class="text-outer-tspan row" x="0" y="-0.1em" dy="1.1em"><tspan font-style="normal" class="text-inner-tspan" font-weight="normal">Pass-through;</tspan><tspan font-style="normal" class="text-inner-tspan" font-weight="normal"> no</tspan><tspan font-style="normal" class="text-inner-tspan" font-weight="normal"> caching</tspan></tspan></text></g></g></g></g></g></g><defs><filter id="gd9289eab-4e70-43a4-ba41-9dc973f1bda2-dark-drop-shadow" height="130%" width="130%"><feDropShadow dx="4" dy="4" stdDeviation="0" flood-opacity="0.06" flood-color="#000000"></feDropShadow></filter></defs><defs><filter id="gd9289eab-4e70-43a4-ba41-9dc973f1bda2-dark-drop-shadow-small" height="150%" width="150%"><feDropShadow dx="2" dy="2" stdDeviation="0" flood-opacity="0.06" flood-color="#000000"></feDropShadow></filter></defs><linearGradient id="gd9289eab-4e70-43a4-ba41-9dc973f1bda2-dark-gradient" gradientUnits="objectBoundingBox" x1="0%" y1="0%" x2="100%" y2="0%"><stop offset="0%" stop-color="#555555" stop-opacity="1"></stop><stop offset="100%" stop-color="#555555" stop-opacity="1"></stop></linearGradient></svg>