<svg id="gee261a4e-7c41-4022-bc8f-3c639d6a3a73-light" width="100%" xmlns="http://www.w3.org/2000/svg" xmlns:xlink="http://www.w3.org/1999/xlink" class="statediagram" style="max-width: 448.54296875px;" viewBox="0 0 448.54296875 800.4000244140625" role="graphics-document document" aria-roledescription="stateDiagram"><style>#gee261a4e-7c41-4022-bc8f-3c639d6a3a73-light{font-family:"trebuchet ms",verdana,arial,sans-serif;font-size:16px;fill:#333;}@keyframes edge-animation-frame{from{stroke-dashoffset:0;}}@keyframes dash{to{stroke-dashoffset:0;}}#gee261a4e-7c41-4022-bc8f-3c639d6a3a73-light .edge-animation-slow{stroke-dasharray:9,5!important;stroke-dashoffset:900;animation:dash 50s linear infinite;stroke-linecap:round;}#gee261a4e-7c41-4022-bc8f-3c639d6a3a73-light .edge-animation-fast{stroke-dasharray:9,5!important;stroke-dashoffset:900;animation:dash 20s linear infinite;stroke-linecap:round;}#gee261a4e-7c41-4022-bc8f-3c639d6a3a73-light .error-icon{fill:#552222;}#gee261a4e-7c41-4022-bc8f-3c639d6a3a73-light .error-text{fill:#552222;stroke:#552222;}#gee261a4e-7c41-4022-bc8f-3c639d6a3a73-light .edge-thickness-normal{stroke-width:1px;}#gee261a4e-7c41-4022-bc8f-3c639d6a3a73-light .edge-thickness-thick{stroke-width:3.5px;}#gee261a4e-7c41-4022-bc8f-3c639d6a3a73-light .edge-pattern-solid{stroke-dasharray:0;}#gee261a4e-7c41-4022-bc8f-3c639d6a3a73-light .edge-thickness-invisible{stroke-width:0;fill:none;}#gee261a4e-7c41-4022-bc8f-3c639d6a3a73-light .edge-pattern-dashed{stroke-dasharray:3;}#gee261a4e-7c41-4022-bc8f-3c639d6a3a73-light .edge-pattern-dotted{stroke-dasharray:2;}#gee261a4e-7c41-4022-bc8f-3c639d6a3a73-light .marker{fill:#333333;stroke:#333333;}#gee261a4e-7c41-4022-bc8f-3c639d6a3a73-light .marker.cross{stroke:#333333;}#gee261a4e-7c41-4022-bc8f-3c639d6a3a73-light svg{font-family:"trebuchet ms",verdana,arial,sans-serif;font-size:16px;}#gee261a4e-7c41-4022-bc8f-3c639d6a3a73-light p{margin:0;}#gee261a4e-7c41-4022-bc8f-3c639d6a3a73-light defs [id$="-barbEnd"]{fill:#333333;stroke:#333333;}#gee261a4e-7c41-4022-bc8f-3c639d6a3a73-light g.stateGroup text{fill:#9370DB;stroke:none;font-size:10px;}#gee261a4e-7c41-4022-bc8f-3c639d6a3a73-light g.stateGroup text{fill:#333;stroke:none;font-size:10px;}#gee261a4e-7c41-4022-bc8f-3c639d6a3a73-light g.stateGroup .state-title{font-weight:bolder;fill:#131300;}#gee261a4e-7c41-4022-bc8f-3c639d6a3a73-light g.stateGroup rect{fill:#ECECFF;stroke:#9370DB;}#gee261a4e-7c41-4022-bc8f-3c639d6a3a73-light g.stateGroup line{stroke:#333333;stroke-width:1;}#gee261a4e-7c41-4022-bc8f-3c639d6a3a73-light .transition{stroke:#333333;stroke-width:1;fill:none;}#gee261a4e-7c41-4022-bc8f-3c639d6a3a73-light .stateGroup .composit{fill:white;border-bottom:1px;}#gee261a4e-7c41-4022-bc8f-3c639d6a3a73-light .stateGroup .alt-composit{fill:#e0e0e0;border-bottom:1px;}#gee261a4e-7c41-4022-bc8f-3c639d6a3a73-light .state-note{stroke:#aaaa33;fill:#fff5ad;}#gee261a4e-7c41-4022-bc8f-3c639d6a3a73-light .state-note text{fill:black;stroke:none;font-size:10px;}#gee261a4e-7c41-4022-bc8f-3c639d6a3a73-light .stateLabel .box{stroke:none;stroke-width:0;fill:#ECECFF;opacity:0.5;}#gee261a4e-7c41-4022-bc8f-3c639d6a3a73-light .edgeLabel .label rect{fill:#ECECFF;opacity:0.5;}#gee261a4e-7c41-4022-bc8f-3c639d6a3a73-light .edgeLabel{background-color:rgba(232,232,232, 0.8);text-align:center;}#gee261a4e-7c41-4022-bc8f-3c639d6a3a73-light .edgeLabel p{background-color:rgba(232,232,232, 0.8);}#gee261a4e-7c41-4022-bc8f-3c639d6a3a73-light .edgeLabel rect{opacity:0.5;background-color:rgba(232,232,232, 0.8);fill:rgba(232,232,232, 0.8);}#gee261a4e-7c41-4022-bc8f-3c639d6a3a73-light .edgeLabel .label text{fill:#333;}#gee261a4e-7c41-4022-bc8f-3c639d6a3a73-light .label div .edgeLabel{color:#333;}#gee261a4e-7c41-4022-bc8f-3c639d6a3a73-light .stateLabel text{fill:#131300;font-size:10px;font-weight:bold;}#gee261a4e-7c41-4022-bc8f-3c639d6a3a73-light .node circle.state-start{fill:#333333;stroke:#333333;}#gee261a4e-7c41-4022-bc8f-3c639d6a3a73-light .node .fork-join{fill:#333333;stroke:#333333;}#gee261a4e-7c41-4022-bc8f-3c639d6a3a73-light .node circle.state-end{fill:#9370DB;stroke:white;stroke-width:1.5;}#gee261a4e-7c41-4022-bc8f-3c639d6a3a73-light .end-state-inner{fill:white;stroke-width:1.5;}#gee261a4e-7c41-4022-bc8f-3c639d6a3a73-light .node rect{fill:#ECECFF;stroke:#9370DB;stroke-width:1px;}#gee261a4e-7c41-4022-bc8f-3c639d6a3a73-light .node polygon{fill:#ECECFF;stroke:#9370DB;stroke-width:1px;}#gee261a4e-7c41-4022-bc8f-3c639d6a3a73-light [id$="-barbEnd"]{fill:#333333;}#gee261a4e-7c41-4022-bc8f-3c639d6a3a73-light .statediagram-cluster rect{fill:#ECECFF;stroke:#9370DB;stroke-width:1px;}#gee261a4e-7c41-4022-bc8f-3c639d6a3a73-light .cluster-label,#gee261a4e-7c41-4022-bc8f-3c639d6a3a73-light .nodeLabel{color:#131300;}#gee261a4e-7c41-4022-bc8f-3c639d6a3a73-light .statediagram-cluster rect.outer{rx:5px;ry:5px;}#gee261a4e-7c41-4022-bc8f-3c639d6a3a73-light .statediagram-state .divider{stroke:#9370DB;}#gee261a4e-7c41-4022-bc8f-3c639d6a3a73-light .statediagram-state .title-state{rx:5px;ry:5px;}#gee261a4e-7c41-4022-bc8f-3c639d6a3a73-light .statediagram-cluster.statediagram-cluster .inner{fill:white;}#gee261a4e-7c41-4022-bc8f-3c639d6a3a73-light .statediagram-cluster.statediagram-cluster-alt .inner{fill:#f0f0f0;}#gee261a4e-7c41-4022-bc8f-3c639d6a3a73-light .statediagram-cluster .inner{rx:0;ry:0;}#gee261a4e-7c41-4022-bc8f-3c639d6a3a73-light .statediagram-state rect.basic{rx:5px;ry:5px;}#gee261a4e-7c41-4022-bc8f-3c639d6a3a73-light .statediagram-state rect.divider{stroke-dasharray:10,10;fill:#f0f0f0;}#gee261a4e-7c41-4022-bc8f-3c639d6a3a73-light .note-edge{stroke-dasharray:5;}#gee261a4e-7c41-4022-bc8f-3c639d6a3a73-light .statediagram-note rect{fill:#fff5ad;stroke:#aaaa33;stroke-width:1px;rx:0;ry:0;}#gee261a4e-7c41-4022-bc8f-3c639d6a3a73-light .statediagram-note rect{fill:#fff5ad;stroke:#aaaa33;stroke-width:1px;rx:0;ry:0;}#gee261a4e-7c41-4022-bc8f-3c639d6a3a73-light .statediagram-note text{fill:black;}#gee261a4e-7c41-4022-bc8f-3c639d6a3a73-light .statediagram-note .nodeLabel{color:black;}#gee261a4e-7c41-4022-bc8f-3c639d6a3a73-light .statediagram .edgeLabel{color:red;}#gee261a4e-7c41-4022-bc8f-3c639d6a3a73-light [id$="-dependencyStart"],#gee261a4e-7c41-4022-bc8f-3c639d6a3a73-light [id$="-dependencyEnd"]{fill:#333333;stroke:#333333;stroke-width:1;}#gee261a4e-7c41-4022-bc8f-3c639d6a3a73-light .statediagramTitleText{text-anchor:middle;font-size:18px;fill:#333;}#gee261a4e-7c41-4022-bc8f-3c639d6a3a73-light [data-look="neo"].statediagram-cluster rect{fill:#ECECFF;stroke:#9370DB;stroke-width:1;}#gee261a4e-7c41-4022-bc8f-3c639d6a3a73-light [data-look="neo"].statediagram-cluster rect.outer{rx:5px;ry:5px;filter:drop-shadow(1px 2px 2px rgba(185, 185, 185, 1));}#gee261a4e-7c41-4022-bc8f-3c639d6a3a73-light .node .neo-node{stroke:#9370DB;}#gee261a4e-7c41-4022-bc8f-3c639d6a3a73-light [data-look="neo"].node rect,#gee261a4e-7c41-4022-bc8f-3c639d6a3a73-light [data-look="neo"].cluster rect,#gee261a4e-7c41-4022-bc8f-3c639d6a3a73-light [data-look="neo"].node polygon{stroke:#9370DB;filter:drop-shadow(1px 2px 2px rgba(185, 185, 185, 1));}#gee261a4e-7c41-4022-bc8f-3c639d6a3a73-light [data-look="neo"].node path{stroke:#9370DB;stroke-width:1px;}#gee261a4e-7c41-4022-bc8f-3c639d6a3a73-light [data-look="neo"].node .outer-path{filter:drop-shadow(1px 2px 2px rgba(185, 185, 185, 1));}#gee261a4e-7c41-4022-bc8f-3c639d6a3a73-light [data-look="neo"].node .neo-line path{stroke:#9370DB;filter:none;}#gee261a4e-7c41-4022-bc8f-3c639d6a3a73-light [data-look="neo"].node circle{stroke:#9370DB;filter:drop-shadow(1px 2px 2px rgba(185, 185, 185, 1));}#gee261a4e-7c41-4022-bc8f-3c639d6a3a73-light [data-look="neo"].node circle .state-start{fill:#000000;}#gee261a4e-7c41-4022-bc8f-3c639d6a3a73-light [data-look="neo"].icon-shape .icon{fill:#9370DB;filter:drop-shadow(1px 2px 2px rgba(185, 185, 185, 1));}#gee261a4e-7c41-4022-bc8f-3c639d6a3a73-light [data-look="neo"].icon-shape .icon-neo path{stroke:#9370DB;filter:drop-shadow(1px 2px 2px rgba(185, 185, 185, 1));}#gee261a4e-7c41-4022-bc8f-3c639d6a3a73-light :root{--mermaid-font-family:"trebuchet ms",verdana,arial,sans-serif;}</style><g><defs><marker id="gee261a4e-7c41-4022-bc8f-3c639d6a3a73-light_stateDiagram-barbEnd" refX="19" refY="7" markerWidth="20" markerHeight="14" markerUnits="userSpaceOnUse" orient="auto"><path d="M 19,7 L9,13 L14,7 L9,1 Z"></path></marker></defs><g class="root"><g class="clusters"></g><g class="edgePaths"><path d="M254.238,22L254.238,28.083C254.238,34.167,254.238,46.333,254.238,58.5C254.238,70.667,254.238,82.833,254.238,88.917L254.238,95" id="gee261a4e-7c41-4022-bc8f-3c639d6a3a73-light-edge0" class="edge-thickness-normal edge-pattern-solid transition" style="fill:none;;;fill:none" data-edge="true" data-et="edge" data-id="edge0" data-points="W3sieCI6MjU0LjIzODI4MTI1LCJ5IjoyMn0seyJ4IjoyNTQuMjM4MjgxMjUsInkiOjU4LjV9LHsieCI6MjU0LjIzODI4MTI1LCJ5Ijo5NX1d" data-look="classic" marker-end="url(#gee261a4e-7c41-4022-bc8f-3c639d6a3a73-light_stateDiagram-barbEnd)"></path><path d="M239.038,130L233.755,136.083C228.471,142.167,217.903,154.333,212.62,166.5C207.336,178.667,207.336,190.833,207.336,196.917L207.336,203" id="gee261a4e-7c41-4022-bc8f-3c639d6a3a73-light-edge1" class="edge-thickness-normal edge-pattern-solid transition" style="fill:none;;;fill:none" data-edge="true" data-et="edge" data-id="edge1" data-points="W3sieCI6MjM5LjAzODQ0NzYyNzMxNDgsInkiOjEzMH0seyJ4IjoyMDcuMzM1OTM3NSwieSI6MTY2LjV9LHsieCI6MjA3LjMzNTkzNzUsInkiOjIwM31d" data-look="classic" marker-end="url(#gee261a4e-7c41-4022-bc8f-3c639d6a3a73-light_stateDiagram-barbEnd)"></path><path d="M298.998,130L314.558,136.083C330.117,142.167,361.236,154.333,376.796,169.417C392.355,184.5,392.355,202.5,392.355,220.5C392.355,238.5,392.355,256.5,392.355,274.967C392.355,293.433,392.355,312.367,392.355,332.767C392.355,353.167,392.355,375.033,392.355,396.433C392.355,417.833,392.355,438.767,392.355,459.7C392.355,480.633,392.355,501.567,382.206,519.583C372.056,537.6,351.756,552.7,341.606,560.25L331.456,567.8" id="gee261a4e-7c41-4022-bc8f-3c639d6a3a73-light-edge2" class="edge-thickness-normal edge-pattern-solid transition" style="fill:none;;;fill:none" data-edge="true" data-et="edge" data-id="edge2" data-points="W3sieCI6Mjk4Ljk5ODQ4MDkwMjc3Nzc3LCJ5IjoxMzB9LHsieCI6MzkyLjM1NTQ2ODc1LCJ5IjoxNjYuNX0seyJ4IjozOTIuMzU1NDY4NzUsInkiOjIyMC41fSx7IngiOjM5Mi4zNTU0Njg3NSwieSI6Mjc0LjV9LHsieCI6MzkyLjM1NTQ2ODc1LCJ5IjozMzEuMjk5OTk5MjM3MDYwNTV9LHsieCI6MzkyLjM1NTQ2ODc1LCJ5IjozOTYuODk5OTk3NzExMTgxNjR9LHsieCI6MzkyLjM1NTQ2ODc1LCJ5Ijo0NTkuNjk5OTk2OTQ4MjQyMn0seyJ4IjozOTIuMzU1NDY4NzUsInkiOjUyMi40OTk5OTYxODUzMDI3fSx7IngiOjMzMS40NTU5ODAzMzE1OTQ1NiwieSI6NTY3Ljc5OTk5NTQyMjM2MzN9XQ==" data-look="classic" marker-end="url(#gee261a4e-7c41-4022-bc8f-3c639d6a3a73-light_stateDiagram-barbEnd)"></path><path d="M185.981,238L178.558,244.083C171.135,250.167,156.288,262.333,148.865,274.967C141.441,287.6,141.441,300.7,141.441,307.25L141.441,313.8" id="gee261a4e-7c41-4022-bc8f-3c639d6a3a73-light-edge3" class="edge-thickness-normal edge-pattern-solid transition" style="fill:none;;;fill:none" data-edge="true" data-et="edge" data-id="edge3" data-points="W3sieCI6MTg1Ljk4MTIyODI5ODYxMTExLCJ5IjoyMzh9LHsieCI6MTQxLjQ0MTQwNjI1LCJ5IjoyNzQuNX0seyJ4IjoxNDEuNDQxNDA2MjUsInkiOjMxMy43OTk5OTkyMzcwNjA1NX1d" data-look="classic" marker-end="url(#gee261a4e-7c41-4022-bc8f-3c639d6a3a73-light_stateDiagram-barbEnd)"></path><path d="M239.936,238L251.268,244.083C262.6,250.167,285.265,262.333,296.597,277.883C307.93,293.433,307.93,312.367,307.93,332.767C307.93,353.167,307.93,375.033,307.93,396.433C307.93,417.833,307.93,438.767,307.93,459.7C307.93,480.633,307.93,501.567,307.93,519.583C307.93,537.6,307.93,552.7,307.93,560.25L307.93,567.8" id="gee261a4e-7c41-4022-bc8f-3c639d6a3a73-light-edge4" class="edge-thickness-normal edge-pattern-solid transition" style="fill:none;;;fill:none" data-edge="true" data-et="edge" data-id="edge4" data-points="W3sieCI6MjM5LjkzNTc2Mzg4ODg4ODg5LCJ5IjoyMzh9LHsieCI6MzA3LjkyOTY4NzUsInkiOjI3NC41fSx7IngiOjMwNy45Mjk2ODc1LCJ5IjozMzEuMjk5OTk5MjM3MDYwNTV9LHsieCI6MzA3LjkyOTY4NzUsInkiOjM5Ni44OTk5OTc3MTExODE2NH0seyJ4IjozMDcuOTI5Njg3NSwieSI6NDU5LjY5OTk5Njk0ODI0MjJ9LHsieCI6MzA3LjkyOTY4NzUsInkiOjUyMi40OTk5OTYxODUzMDI3fSx7IngiOjMwNy45Mjk2ODc1LCJ5Ijo1NjcuNzk5OTk1NDIyMzYzM31d" data-look="classic" marker-end="url(#gee261a4e-7c41-4022-bc8f-3c639d6a3a73-light_stateDiagram-barbEnd)"></path><path d="M141.441,348.8L141.441,356.817C141.441,364.833,141.441,380.867,141.441,396.433C141.441,412,141.441,427.1,141.441,434.65L141.441,442.2" id="gee261a4e-7c41-4022-bc8f-3c639d6a3a73-light-edge5" class="edge-thickness-normal edge-pattern-solid transition" style="fill:none;;;fill:none" data-edge="true" data-et="edge" data-id="edge5" data-points="W3sieCI6MTQxLjQ0MTQwNjI1LCJ5IjozNDguNzk5OTk5MjM3MDYwNTV9LHsieCI6MTQxLjQ0MTQwNjI1LCJ5IjozOTYuODk5OTk3NzExMTgxNjR9LHsieCI6MTQxLjQ0MTQwNjI1LCJ5Ijo0NDIuMTk5OTk2OTQ4MjQyMn1d" data-look="classic" marker-end="url(#gee261a4e-7c41-4022-bc8f-3c639d6a3a73-light_stateDiagram-barbEnd)"></path><path d="M122.792,477.2L114.746,484.75C106.7,492.3,90.608,507.4,82.562,522.5C74.516,537.6,74.516,552.7,74.516,560.25L74.516,567.8" id="gee261a4e-7c41-4022-bc8f-3c639d6a3a73-light-edge6" class="edge-thickness-normal edge-pattern-solid transition" style="fill:none;;;fill:none" data-edge="true" data-et="edge" data-id="edge6" data-points="W3sieCI6MTIyLjc5MTcwNTgzNDMzNzcsInkiOjQ3Ny4xOTk5OTY5NDgyNDIyfSx7IngiOjc0LjUxNTYyNSwieSI6NTIyLjQ5OTk5NjE4NTMwMjd9LHsieCI6NzQuNTE1NjI1LCJ5Ijo1NjcuNzk5OTk1NDIyMzYzM31d" data-look="classic" marker-end="url(#gee261a4e-7c41-4022-bc8f-3c639d6a3a73-light_stateDiagram-barbEnd)"></path><path d="M160.091,477.2L168.137,484.75C176.183,492.3,192.275,507.4,212.291,522.5C232.307,537.6,256.246,552.7,268.216,560.25L280.185,567.8" id="gee261a4e-7c41-4022-bc8f-3c639d6a3a73-light-edge7" class="edge-thickness-normal edge-pattern-solid transition" style="fill:none;;;fill:none" data-edge="true" data-et="edge" data-id="edge7" data-points="W3sieCI6MTYwLjA5MTEwNjY2NTY2MjMsInkiOjQ3Ny4xOTk5OTY5NDgyNDIyfSx7IngiOjIwOC4zNjcxODc1LCJ5Ijo1MjIuNDk5OTk2MTg1MzAyN30seyJ4IjoyODAuMTg1MzU5OTMzNjQyNjQsInkiOjU2Ny43OTk5OTU0MjIzNjMzfV0=" data-look="classic" marker-end="url(#gee261a4e-7c41-4022-bc8f-3c639d6a3a73-light_stateDiagram-barbEnd)"></path><path d="M74.516,602.8L74.516,610.35C74.516,617.9,74.516,633,74.516,648.1C74.516,663.2,74.516,678.3,74.516,685.85L74.516,693.4" id="gee261a4e-7c41-4022-bc8f-3c639d6a3a73-light-edge8" class="edge-thickness-normal edge-pattern-solid transition" style="fill:none;;;fill:none" data-edge="true" data-et="edge" data-id="edge8" data-points="W3sieCI6NzQuNTE1NjI1LCJ5Ijo2MDIuNzk5OTk1NDIyMzYzM30seyJ4Ijo3NC41MTU2MjUsInkiOjY0OC4wOTk5OTQ2NTk0MjM4fSx7IngiOjc0LjUxNTYyNSwieSI6NjkzLjM5OTk5Mzg5NjQ4NDR9XQ==" data-look="classic" marker-end="url(#gee261a4e-7c41-4022-bc8f-3c639d6a3a73-light_stateDiagram-barbEnd)"></path><path d="M74.516,728.4L74.516,732.567C74.516,736.733,74.516,745.067,95.517,754.293C116.518,763.52,158.521,773.639,179.523,778.699L200.524,783.759" id="gee261a4e-7c41-4022-bc8f-3c639d6a3a73-light-edge9" class="edge-thickness-normal edge-pattern-solid transition" style="fill:none;;;fill:none" data-edge="true" data-et="edge" data-id="edge9" data-points="W3sieCI6NzQuNTE1NjI1LCJ5Ijo3MjguMzk5OTkzODk2NDg0NH0seyJ4Ijo3NC41MTU2MjUsInkiOjc1My4zOTk5OTM4OTY0ODQ0fSx7IngiOjIwMC41MjQxOTg4NDU1ODI0MiwieSI6NzgzLjc1ODg2MjEwODQ0Mjh9XQ==" data-look="classic" marker-end="url(#gee261a4e-7c41-4022-bc8f-3c639d6a3a73-light_stateDiagram-barbEnd)"></path><path d="M307.93,602.8L307.93,610.35C307.93,617.9,307.93,633,307.93,651.017C307.93,669.033,307.93,689.967,307.93,707.517C307.93,725.067,307.93,739.233,292.277,751.296C276.624,763.359,245.318,773.317,229.666,778.297L214.013,783.276" id="gee261a4e-7c41-4022-bc8f-3c639d6a3a73-light-edge10" class="edge-thickness-normal edge-pattern-solid transition" style="fill:none;;;fill:none" data-edge="true" data-et="edge" data-id="edge10" data-points="W3sieCI6MzA3LjkyOTY4NzUsInkiOjYwMi43OTk5OTU0MjIzNjMzfSx7IngiOjMwNy45Mjk2ODc1LCJ5Ijo2NDguMDk5OTk0NjU5NDIzOH0seyJ4IjozMDcuOTI5Njg3NSwieSI6NzEwLjg5OTk5Mzg5NjQ4NDR9LHsieCI6MzA3LjkyOTY4NzUsInkiOjc1My4zOTk5OTM4OTY0ODQ0fSx7IngiOjIxNC4wMTI4ODc5MDEwMDIxNiwieSI6NzgzLjI3NTk4MTA5NDE3NzR9XQ==" data-look="classic" marker-end="url(#gee261a4e-7c41-4022-bc8f-3c639d6a3a73-light_stateDiagram-barbEnd)"></path></g><g class="edgeLabels"><g class="edgeLabel" transform="translate(254.23828125, 58.5)"><g class="label" data-id="edge0" transform="translate(0, -10.5)"><g><rect class="background" style="" x="-44.2578125" y="-1" width="88.515625" height="23"></rect><text y="-10.1" text-anchor="middle" style=""><tspan class="text-outer-tspan row" x="0" y="-0.1em" dy="1.1em" text-anchor="middle"><tspan font-style="normal" class="text-inner-tspan" font-weight="normal">POST</tspan><tspan font-style="normal" class="text-inner-tspan" font-weight="normal"> /rides</tspan></tspan></text></g></g></g><g class="edgeLabel" transform="translate(207.3359375, 166.5)"><g class="label" data-id="edge1" transform="translate(0, -10.5)"><g><rect class="background" style="" x="-73.8046875" y="-1" width="147.609375" height="23"></rect><text y="-10.1" text-anchor="middle" style=""><tspan class="text-outer-tspan row" x="0" y="-0.1em" dy="1.1em" text-anchor="middle"><tspan font-style="normal" class="text-inner-tspan" font-weight="normal">DISCO</tspan><tspan font-style="normal" class="text-inner-tspan" font-weight="normal"> assigns</tspan><tspan font-style="normal" class="text-inner-tspan" font-weight="normal"> driver</tspan></tspan></text></g></g></g><g class="edgeLabel" transform="translate(392.35546875, 331.29999923706055)"><g class="label" data-id="edge2" transform="translate(0, -19.299999237060547)"><g><rect class="background" style="" x="-48.1875" y="-1" width="96.375" height="40.599998474121094"></rect><text y="-10.1" text-anchor="middle" style=""><tspan class="text-outer-tspan row" x="0" y="-0.1em" dy="1.1em" text-anchor="middle"><tspan font-style="normal" class="text-inner-tspan" font-weight="normal">rider</tspan><tspan font-style="normal" class="text-inner-tspan" font-weight="normal"> cancels</tspan></tspan><tspan class="text-outer-tspan row" x="0" y="1em" dy="1.1em" text-anchor="middle"><tspan font-style="normal" class="text-inner-tspan" font-weight="normal">or</tspan><tspan font-style="normal" class="text-inner-tspan" font-weight="normal"> no</tspan><tspan font-style="normal" class="text-inner-tspan" font-weight="normal"> supply</tspan></tspan></text></g></g></g><g class="edgeLabel" transform="translate(141.44140625, 274.5)"><g class="label" data-id="edge3" transform="translate(0, -10.5)"><g><rect class="background" style="" x="-53.0078125" y="-1" width="106.015625" height="23"></rect><text y="-10.1" text-anchor="middle" style=""><tspan class="text-outer-tspan row" x="0" y="-0.1em" dy="1.1em" text-anchor="middle"><tspan font-style="normal" class="text-inner-tspan" font-weight="normal">driver</tspan><tspan font-style="normal" class="text-inner-tspan" font-weight="normal"> accepts</tspan></tspan></text></g></g></g><g class="edgeLabel" transform="translate(307.9296875, 396.89999771118164)"><g class="label" data-id="edge4" transform="translate(0, -19.299999237060547)"><g><rect class="background" style="" x="-55.046875" y="-1" width="110.09375" height="40.599998474121094"></rect><text y="-10.1" text-anchor="middle" style=""><tspan class="text-outer-tspan row" x="0" y="-0.1em" dy="1.1em" text-anchor="middle"><tspan font-style="normal" class="text-inner-tspan" font-weight="normal">driver</tspan><tspan font-style="normal" class="text-inner-tspan" font-weight="normal"> declines</tspan></tspan><tspan class="text-outer-tspan row" x="0" y="1em" dy="1.1em" text-anchor="middle"><tspan font-style="normal" class="text-inner-tspan" font-weight="normal">(reassign)</tspan></tspan></text></g></g></g><g class="edgeLabel" transform="translate(141.44140625, 396.89999771118164)"><g class="label" data-id="edge5" transform="translate(0, -19.299999237060547)"><g><rect class="background" style="" x="-56.7421875" y="-1" width="113.484375" height="40.599998474121094"></rect><text y="-10.1" text-anchor="middle" style=""><tspan class="text-outer-tspan row" x="0" y="-0.1em" dy="1.1em" text-anchor="middle"><tspan font-style="normal" class="text-inner-tspan" font-weight="normal">ETA</tspan><tspan font-style="normal" class="text-inner-tspan" font-weight="normal"> &lt;</tspan><tspan font-style="normal" class="text-inner-tspan" font-weight="normal"> 60s</tspan></tspan><tspan class="text-outer-tspan row" x="0" y="1em" dy="1.1em" text-anchor="middle"><tspan font-style="normal" class="text-inner-tspan" font-weight="normal">or</tspan><tspan font-style="normal" class="text-inner-tspan" font-weight="normal"> geofence</tspan><tspan font-style="normal" class="text-inner-tspan" font-weight="normal"> hit</tspan></tspan></text></g></g></g><g class="edgeLabel" transform="translate(74.515625, 522.4999961853027)"><g class="label" data-id="edge6" transform="translate(0, -19.299999237060547)"><g><rect class="background" style="" x="-66.515625" y="-1" width="133.03125" height="40.599998474121094"></rect><text y="-10.1" text-anchor="middle" style=""><tspan class="text-outer-tspan row" x="0" y="-0.1em" dy="1.1em" text-anchor="middle"><tspan font-style="normal" class="text-inner-tspan" font-weight="normal">rider</tspan><tspan font-style="normal" class="text-inner-tspan" font-weight="normal"> boards</tspan></tspan><tspan class="text-outer-tspan row" x="0" y="1em" dy="1.1em" text-anchor="middle"><tspan font-style="normal" class="text-inner-tspan" font-weight="normal">(driver</tspan><tspan font-style="normal" class="text-inner-tspan" font-weight="normal"> taps</tspan><tspan font-style="normal" class="text-inner-tspan" font-weight="normal"> Start)</tspan></tspan></text></g></g></g><g class="edgeLabel" transform="translate(216.2795, 527.49077)"><g class="label" data-id="edge7" transform="translate(0, -19.299999237060547)"><g><rect class="background" style="" x="-47.3359375" y="-1" width="94.671875" height="40.599998474121094"></rect><text y="-10.1" text-anchor="middle" style=""><tspan class="text-outer-tspan row" x="0" y="-0.1em" dy="1.1em" text-anchor="middle"><tspan font-style="normal" class="text-inner-tspan" font-weight="normal">no-show</tspan></tspan><tspan class="text-outer-tspan row" x="0" y="1em" dy="1.1em" text-anchor="middle"><tspan font-style="normal" class="text-inner-tspan" font-weight="normal">(fee</tspan><tspan font-style="normal" class="text-inner-tspan" font-weight="normal"> applies)</tspan></tspan></text></g></g></g><g class="edgeLabel" transform="translate(74.515625, 648.0999946594238)"><g class="label" data-id="edge8" transform="translate(0, -19.299999237060547)"><g><rect class="background" style="" x="-56.25" y="-1" width="112.5" height="40.599998474121094"></rect><text y="-10.1" text-anchor="middle" style=""><tspan class="text-outer-tspan row" x="0" y="-0.1em" dy="1.1em" text-anchor="middle"><tspan font-style="normal" class="text-inner-tspan" font-weight="normal">driver</tspan><tspan font-style="normal" class="text-inner-tspan" font-weight="normal"> taps</tspan><tspan font-style="normal" class="text-inner-tspan" font-weight="normal"> End</tspan></tspan><tspan class="text-outer-tspan row" x="0" y="1em" dy="1.1em" text-anchor="middle"><tspan font-style="normal" class="text-inner-tspan" font-weight="normal">charge</tspan><tspan font-style="normal" class="text-inner-tspan" font-weight="normal"> fires</tspan></tspan></text></g></g></g><g class="edgeLabel"><g class="label" data-id="edge9" transform="translate(0, 0)"><text y="-10.1" text-anchor="middle"><tspan class="text-outer-tspan row" x="0" y="-0.1em" dy="1.1em" text-anchor="middle"></tspan></text></g></g><g><rect class="background" style="stroke: none"></rect></g><g class="edgeLabel"><g class="label" data-id="edge10" transform="translate(0, 0)"><text y="-10.1" text-anchor="middle"><tspan class="text-outer-tspan row" x="0" y="-0.1em" dy="1.1em" text-anchor="middle"></tspan></text></g></g><g><rect class="background" style="stroke: none"></rect></g></g><g class="nodes"><g class="node default" id="gee261a4e-7c41-4022-bc8f-3c639d6a3a73-light-state-root_start-0" data-look="classic" transform="translate(254.23828125, 15)"><circle class="state-start" r="7" width="14" height="14"></circle></g><g class="node  statediagram-state" id="gee261a4e-7c41-4022-bc8f-3c639d6a3a73-light-state-REQUESTED-2" data-look="classic" transform="translate(254.23828125, 112.5)"><rect class="basic label-container" style="" rx="5" ry="5" x="-49.5078125" y="-17.5" width="99.015625" height="35"></rect><g class="label" style="" transform="translate(-41.5078125, -9.5)"><rect></rect><g><rect class="background" style="stroke: none"></rect><text y="-10.1" style=""><tspan class="text-outer-tspan row" x="0" y="-0.1em" dy="1.1em"><tspan font-style="normal" class="text-inner-tspan" font-weight="normal">REQUESTED</tspan></tspan></text></g></g></g><g class="node  statediagram-state" id="gee261a4e-7c41-4022-bc8f-3c639d6a3a73-light-state-MATCHED-4" data-look="classic" transform="translate(207.3359375, 220.5)"><rect class="basic label-container" style="" rx="5" ry="5" x="-41.4765625" y="-17.5" width="82.953125" height="35"></rect><g class="label" style="" transform="translate(-33.4765625, -9.5)"><rect></rect><g><rect class="background" style="stroke: none"></rect><text y="-10.1" style=""><tspan class="text-outer-tspan row" x="0" y="-0.1em" dy="1.1em"><tspan font-style="normal" class="text-inner-tspan" font-weight="normal">MATCHED</tspan></tspan></text></g></g></g><g class="node  statediagram-state" id="gee261a4e-7c41-4022-bc8f-3c639d6a3a73-light-state-CANCELLED-10" data-look="classic" transform="translate(307.9296875, 585.2999954223633)"><rect class="basic label-container" style="" rx="5" ry="5" x="-48.9765625" y="-17.5" width="97.953125" height="35"></rect><g class="label" style="" transform="translate(-40.9765625, -9.5)"><rect></rect><g><rect class="background" style="stroke: none"></rect><text y="-10.1" style=""><tspan class="text-outer-tspan row" x="0" y="-0.1em" dy="1.1em"><tspan font-style="normal" class="text-inner-tspan" font-weight="normal">CANCELLED</tspan></tspan></text></g></g></g><g class="node  statediagram-state" id="gee261a4e-7c41-4022-bc8f-3c639d6a3a73-light-state-DRIVER_ARRIVING-5" data-look="classic" transform="translate(141.44140625, 331.29999923706055)"><rect class="basic label-container" style="" rx="5" ry="5" x="-71.328125" y="-17.5" width="142.65625" height="35"></rect><g class="label" style="" transform="translate(-63.328125, -9.5)"><rect></rect><g><rect class="background" style="stroke: none"></rect><text y="-10.1" style=""><tspan class="text-outer-tspan row" x="0" y="-0.1em" dy="1.1em"><tspan font-style="normal" class="text-inner-tspan" font-weight="normal">DRIVER_ARRIVING</tspan></tspan></text></g></g></g><g class="node  statediagram-state" id="gee261a4e-7c41-4022-bc8f-3c639d6a3a73-light-state-DRIVER_ARRIVED-7" data-look="classic" transform="translate(141.44140625, 459.6999969482422)"><rect class="basic label-container" style="" rx="5" ry="5" x="-67.7734375" y="-17.5" width="135.546875" height="35"></rect><g class="label" style="" transform="translate(-59.7734375, -9.5)"><rect></rect><g><rect class="background" style="stroke: none"></rect><text y="-10.1" style=""><tspan class="text-outer-tspan row" x="0" y="-0.1em" dy="1.1em"><tspan font-style="normal" class="text-inner-tspan" font-weight="normal">DRIVER_ARRIVED</tspan></tspan></text></g></g></g><g class="node  statediagram-state" id="gee261a4e-7c41-4022-bc8f-3c639d6a3a73-light-state-IN_PROGRESS-8" data-look="classic" transform="translate(74.515625, 585.2999954223633)"><rect class="basic label-container" style="" rx="5" ry="5" x="-56.0859375" y="-17.5" width="112.171875" height="35"></rect><g class="label" style="" transform="translate(-48.0859375, -9.5)"><rect></rect><g><rect class="background" style="stroke: none"></rect><text y="-10.1" style=""><tspan class="text-outer-tspan row" x="0" y="-0.1em" dy="1.1em"><tspan font-style="normal" class="text-inner-tspan" font-weight="normal">IN_PROGRESS</tspan></tspan></text></g></g></g><g class="node  statediagram-state" id="gee261a4e-7c41-4022-bc8f-3c639d6a3a73-light-state-COMPLETED-9" data-look="classic" transform="translate(74.515625, 710.8999938964844)"><rect class="basic label-container" style="" rx="5" ry="5" x="-50.484375" y="-17.5" width="100.96875" height="35"></rect><g class="label" style="" transform="translate(-42.484375, -9.5)"><rect></rect><g><rect class="background" style="stroke: none"></rect><text y="-10.1" style=""><tspan class="text-outer-tspan row" x="0" y="-0.1em" dy="1.1em"><tspan font-style="normal" class="text-inner-tspan" font-weight="normal">COMPLETED</tspan></tspan></text></g></g></g><g class="node default" id="gee261a4e-7c41-4022-bc8f-3c639d6a3a73-light-state-root_end-10" data-look="classic" transform="translate(207.3359375, 785.3999938964844)"><g class="outer-path"><path d="M7 0 C7 0.40517908122283747, 6.964012880168563 0.816513743121899, 6.893654271085456 1.2155372436685123 C6.823295662002349 1.6145607442151257, 6.716427752933756 2.013397210557766, 6.5778483455013586 2.394141003279681 C6.439268938068961 2.7748847960015954, 6.26476736710249 3.149104622578984, 6.062177826491071 3.4999999999999996 C5.859588285879653 3.8508953774210153, 5.622755194947063 4.189128084166967, 5.362311101832846 4.499513267805774 C5.10186700871863 4.809898451444582, 4.809898451444583 5.10186700871863, 4.499513267805775 5.362311101832846 C4.189128084166968 5.622755194947063, 3.8508953774210166 5.859588285879652, 3.500000000000001 6.06217782649107 C3.149104622578985 6.264767367102489, 2.7748847960015963 6.439268938068961, 2.3941410032796817 6.5778483455013586 C2.013397210557767 6.716427752933756, 1.6145607442151264 6.823295662002349, 1.2155372436685128 6.893654271085456 C0.8165137431218992 6.964012880168563, 0.4051790812228379 7, 4.286263797015736e-16 7 C-0.405179081222837 7, -0.8165137431218985 6.964012880168563, -1.2155372436685121 6.893654271085456 C-1.6145607442151257 6.823295662002349, -2.0133972105577667 6.716427752933756, -2.394141003279681 6.5778483455013586 C-2.774884796001595 6.439268938068961, -3.149104622578983 6.26476736710249, -3.4999999999999982 6.062177826491071 C-3.8508953774210135 5.859588285879653, -4.189128084166966 5.6227551949470636, -4.499513267805773 5.362311101832848 C-4.809898451444581 5.101867008718632, -5.101867008718628 4.809898451444586, -5.3623111018328435 4.499513267805779 C-5.622755194947059 4.189128084166971, -5.859588285879649 3.8508953774210206, -6.062177826491068 3.5000000000000053 C-6.264767367102486 3.14910462257899, -6.439268938068958 2.774884796001602, -6.577848345501356 2.394141003279688 C-6.716427752933754 2.0133972105577738, -6.823295662002347 1.614560744215134, -6.893654271085454 1.215537243668521 C-6.9640128801685615 0.816513743121908, -6.999999999999999 0.4051790812228472, -7 1.0183126166254463e-14 C-7.000000000000001 -0.40517908122282686, -6.964012880168565 -0.8165137431218878, -6.893654271085459 -1.215537243668501 C-6.823295662002352 -1.6145607442151142, -6.716427752933759 -2.0133972105577542, -6.577848345501363 -2.394141003279669 C-6.439268938068967 -2.7748847960015834, -6.264767367102496 -3.149104622578972, -6.062177826491078 -3.4999999999999876 C-5.859588285879661 -3.8508953774210033, -5.6227551949470715 -4.1891280841669545, -5.362311101832856 -4.499513267805763 C-5.10186700871864 -4.809898451444571, -4.809898451444594 -5.10186700871862, -4.499513267805787 -5.362311101832836 C-4.189128084166979 -5.622755194947053, -3.850895377421028 -5.859588285879643, -3.5000000000000133 -6.062177826491062 C-3.1491046225789985 -6.264767367102482, -2.774884796001611 -6.439268938068954, -2.3941410032796973 -6.577848345501353 C-2.0133972105577835 -6.716427752933752, -1.6145607442151435 -6.823295662002345, -1.2155372436685306 -6.893654271085453 C-0.8165137431219176 -6.9640128801685615, -0.40517908122285695 -6.999999999999999, -1.9937625952807352e-14 -7 C0.4051790812228171 -7.000000000000001, 0.8165137431218781 -6.964012880168565, 1.2155372436684913 -6.89365427108546 C1.6145607442151044 -6.823295662002354, 2.013397210557745 -6.716427752933763, 2.3941410032796595 -6.5778483455013665 C2.774884796001574 -6.43926893806897, 3.149104622578963 -6.2647673671025, 3.499999999999979 -6.062177826491083 C3.8508953774209953 -5.859588285879665, 4.189128084166947 -5.622755194947077, 4.499513267805756 -5.362311101832862 C4.809898451444564 -5.1018670087186475, 5.101867008718613 -4.809898451444602, 5.362311101832829 -4.499513267805796 C5.622755194947046 -4.189128084166989, 5.859588285879637 -3.8508953774210393, 6.062177826491056 -3.500000000000025 C6.2647673671024755 -3.1491046225790105, 6.439268938068949 -2.774884796001623, 6.577848345501348 -2.3941410032797092 C6.716427752933747 -2.0133972105577955, 6.823295662002342 -1.6145607442151562, 6.893654271085451 -1.2155372436685434 C6.96401288016856 -0.8165137431219307, 6.982275711847575 -0.2025895406114567, 7 -3.2800750208310675e-14 C7.017724288152425 0.2025895406113911, 7.017724288152424 -0.2025895406114242, 7 0" stroke="none" stroke-width="0" fill="#ECECFF" style=""></path><path d="M7 0 C7 0.40517908122283747, 6.964012880168563 0.816513743121899, 6.893654271085456 1.2155372436685123 C6.823295662002349 1.6145607442151257, 6.716427752933756 2.013397210557766, 6.5778483455013586 2.394141003279681 C6.439268938068961 2.7748847960015954, 6.26476736710249 3.149104622578984, 6.062177826491071 3.4999999999999996 C5.859588285879653 3.8508953774210153, 5.622755194947063 4.189128084166967, 5.362311101832846 4.499513267805774 C5.10186700871863 4.809898451444582, 4.809898451444583 5.10186700871863, 4.499513267805775 5.362311101832846 C4.189128084166968 5.622755194947063, 3.8508953774210166 5.859588285879652, 3.500000000000001 6.06217782649107 C3.149104622578985 6.264767367102489, 2.7748847960015963 6.439268938068961, 2.3941410032796817 6.5778483455013586 C2.013397210557767 6.716427752933756, 1.6145607442151264 6.823295662002349, 1.2155372436685128 6.893654271085456 C0.8165137431218992 6.964012880168563, 0.4051790812228379 7, 4.286263797015736e-16 7 C-0.405179081222837 7, -0.8165137431218985 6.964012880168563, -1.2155372436685121 6.893654271085456 C-1.6145607442151257 6.823295662002349, -2.0133972105577667 6.716427752933756, -2.394141003279681 6.5778483455013586 C-2.774884796001595 6.439268938068961, -3.149104622578983 6.26476736710249, -3.4999999999999982 6.062177826491071 C-3.8508953774210135 5.859588285879653, -4.189128084166966 5.6227551949470636, -4.499513267805773 5.362311101832848 C-4.809898451444581 5.101867008718632, -5.101867008718628 4.809898451444586, -5.3623111018328435 4.499513267805779 C-5.622755194947059 4.189128084166971, -5.859588285879649 3.8508953774210206, -6.062177826491068 3.5000000000000053 C-6.264767367102486 3.14910462257899, -6.439268938068958 2.774884796001602, -6.577848345501356 2.394141003279688 C-6.716427752933754 2.0133972105577738, -6.823295662002347 1.614560744215134, -6.893654271085454 1.215537243668521 C-6.9640128801685615 0.816513743121908, -6.999999999999999 0.4051790812228472, -7 1.0183126166254463e-14 C-7.000000000000001 -0.40517908122282686, -6.964012880168565 -0.8165137431218878, -6.893654271085459 -1.215537243668501 C-6.823295662002352 -1.6145607442151142, -6.716427752933759 -2.0133972105577542, -6.577848345501363 -2.394141003279669 C-6.439268938068967 -2.7748847960015834, -6.264767367102496 -3.149104622578972, -6.062177826491078 -3.4999999999999876 C-5.859588285879661 -3.8508953774210033, -5.6227551949470715 -4.1891280841669545, -5.362311101832856 -4.499513267805763 C-5.10186700871864 -4.809898451444571, -4.809898451444594 -5.10186700871862, -4.499513267805787 -5.362311101832836 C-4.189128084166979 -5.622755194947053, -3.850895377421028 -5.859588285879643, -3.5000000000000133 -6.062177826491062 C-3.1491046225789985 -6.264767367102482, -2.774884796001611 -6.439268938068954, -2.3941410032796973 -6.577848345501353 C-2.0133972105577835 -6.716427752933752, -1.6145607442151435 -6.823295662002345, -1.2155372436685306 -6.893654271085453 C-0.8165137431219176 -6.9640128801685615, -0.40517908122285695 -6.999999999999999, -1.9937625952807352e-14 -7 C0.4051790812228171 -7.000000000000001, 0.8165137431218781 -6.964012880168565, 1.2155372436684913 -6.89365427108546 C1.6145607442151044 -6.823295662002354, 2.013397210557745 -6.716427752933763, 2.3941410032796595 -6.5778483455013665 C2.774884796001574 -6.43926893806897, 3.149104622578963 -6.2647673671025, 3.499999999999979 -6.062177826491083 C3.8508953774209953 -5.859588285879665, 4.189128084166947 -5.622755194947077, 4.499513267805756 -5.362311101832862 C4.809898451444564 -5.1018670087186475, 5.101867008718613 -4.809898451444602, 5.362311101832829 -4.499513267805796 C5.622755194947046 -4.189128084166989, 5.859588285879637 -3.8508953774210393, 6.062177826491056 -3.500000000000025 C6.2647673671024755 -3.1491046225790105, 6.439268938068949 -2.774884796001623, 6.577848345501348 -2.3941410032797092 C6.716427752933747 -2.0133972105577955, 6.823295662002342 -1.6145607442151562, 6.893654271085451 -1.2155372436685434 C6.96401288016856 -0.8165137431219307, 6.982275711847575 -0.2025895406114567, 7 -3.2800750208310675e-14 C7.017724288152425 0.2025895406113911, 7.017724288152424 -0.2025895406114242, 7 0" stroke="#333333" stroke-width="2" fill="none" stroke-dasharray="0 0" style=""></path><g><path d="M2.5 0 C2.5 0.14470681472244193, 2.487147457203058 0.29161205111496386, 2.46201938253052 0.4341204441673258 C2.436891307857982 0.5766288372196877, 2.3987241974763416 0.7190704323420595, 2.3492315519647713 0.8550503583141718 C2.299738906453201 0.991030284286284, 2.2374169168223177 1.124680222349637, 2.165063509461097 1.2499999999999998 C2.092710102099876 1.3753197776503625, 2.0081268553382365 1.496117172916774, 1.915111107797445 1.6069690242163481 C1.8220953602566536 1.7178208755159223, 1.7178208755159226 1.8220953602566536, 1.6069690242163484 1.915111107797445 C1.4961171729167742 2.0081268553382365, 1.375319777650363 2.0927101020998755, 1.2500000000000002 2.1650635094610964 C1.1246802223496375 2.2374169168223172, 0.9910302842862845 2.2997389064532, 0.8550503583141721 2.349231551964771 C0.7190704323420597 2.3987241974763416, 0.576628837219688 2.436891307857982, 0.43412044416732604 2.46201938253052 C0.291612051114964 2.487147457203058, 0.14470681472244212 2.5, 1.5308084989341916e-16 2.5 C-0.1447068147224418 2.5, -0.2916120511149638 2.487147457203058, -0.43412044416732576 2.46201938253052 C-0.5766288372196877 2.436891307857982, -0.7190704323420595 2.3987241974763416, -0.8550503583141718 2.3492315519647713 C-0.991030284286284 2.299738906453201, -1.124680222349637 2.2374169168223177, -1.2499999999999996 2.165063509461097 C-1.375319777650362 2.092710102099876, -1.4961171729167733 2.008126855338237, -1.6069690242163475 1.9151111077974459 C-1.7178208755159217 1.8220953602566548, -1.822095360256653 1.7178208755159234, -1.9151111077974443 1.6069690242163495 C-2.0081268553382357 1.4961171729167755, -2.0927101020998746 1.3753197776503645, -2.1650635094610955 1.250000000000002 C-2.2374169168223164 1.1246802223496395, -2.2997389064531992 0.9910302842862865, -2.34923155196477 0.8550503583141743 C-2.3987241974763407 0.7190704323420621, -2.436891307857981 0.5766288372196907, -2.4620193825305194 0.434120444167329 C-2.487147457203058 0.29161205111496724, -2.5 0.14470681472244545, -2.5 3.636830773662308e-15 C-2.5 -0.14470681472243818, -2.4871474572030587 -0.2916120511149599, -2.4620193825305208 -0.4341204441673218 C-2.436891307857983 -0.5766288372196837, -2.398724197476343 -0.7190704323420553, -2.3492315519647726 -0.8550503583141675 C-2.2997389064532023 -0.9910302842862798, -2.23741691682232 -1.1246802223496328, -2.165063509461099 -1.2499999999999956 C-2.092710102099878 -1.3753197776503583, -2.00812685533824 -1.4961171729167695, -1.9151111077974488 -1.606969024216344 C-1.8220953602566576 -1.7178208755159183, -1.7178208755159263 -1.82209536025665, -1.6069690242163523 -1.9151111077974416 C-1.4961171729167784 -2.0081268553382334, -1.3753197776503672 -2.0927101020998724, -1.2500000000000047 -2.1650635094610937 C-1.1246802223496422 -2.237416916822315, -0.9910302842862897 -2.299738906453198, -0.8550503583141776 -2.3492315519647686 C-0.7190704323420656 -2.3987241974763394, -0.5766288372196942 -2.4368913078579806, -0.43412044416733236 -2.462019382530519 C-0.29161205111497057 -2.4871474572030574, -0.1447068147224489 -2.4999999999999996, -7.120580697431198e-15 -2.5 C0.14470681472243463 -2.5000000000000004, 0.29161205111495647 -2.487147457203059, 0.4341204441673183 -2.4620193825305217 C0.5766288372196802 -2.436891307857984, 0.7190704323420518 -2.3987241974763442, 0.8550503583141642 -2.349231551964774 C0.9910302842862766 -2.2997389064532037, 1.1246802223496295 -2.2374169168223212, 1.2499999999999925 -2.165063509461101 C1.3753197776503554 -2.0927101020998804, 1.4961171729167668 -2.008126855338242, 1.6069690242163412 -1.915111107797451 C1.7178208755159157 -1.82209536025666, 1.8220953602566472 -1.7178208755159294, 1.915111107797439 -1.6069690242163557 C2.0081268553382308 -1.496117172916782, 2.09271010209987 -1.3753197776503712, 2.1650635094610915 -1.2500000000000089 C2.237416916822313 -1.1246802223496466, 2.299738906453196 -0.9910302842862939, 2.3492315519647673 -0.855050358314182 C2.3987241974763385 -0.71907043234207, 2.4368913078579792 -0.5766288372196986, 2.462019382530518 -0.4341204441673369 C2.487147457203057 -0.29161205111497523, 2.4936698970884197 -0.07235340736123454, 2.5 -1.1714553645825241e-14 C2.5063301029115803 0.07235340736121111, 2.50633010291158 -0.07235340736122292, 2.5 0" stroke="none" stroke-width="0" fill="#9370DB" style=""></path><path d="M2.5 0 C2.5 0.14470681472244193, 2.487147457203058 0.29161205111496386, 2.46201938253052 0.4341204441673258 C2.436891307857982 0.5766288372196877, 2.3987241974763416 0.7190704323420595, 2.3492315519647713 0.8550503583141718 C2.299738906453201 0.991030284286284, 2.2374169168223177 1.124680222349637, 2.165063509461097 1.2499999999999998 C2.092710102099876 1.3753197776503625, 2.0081268553382365 1.496117172916774, 1.915111107797445 1.6069690242163481 C1.8220953602566536 1.7178208755159223, 1.7178208755159226 1.8220953602566536, 1.6069690242163484 1.915111107797445 C1.4961171729167742 2.0081268553382365, 1.375319777650363 2.0927101020998755, 1.2500000000000002 2.1650635094610964 C1.1246802223496375 2.2374169168223172, 0.9910302842862845 2.2997389064532, 0.8550503583141721 2.349231551964771 C0.7190704323420597 2.3987241974763416, 0.576628837219688 2.436891307857982, 0.43412044416732604 2.46201938253052 C0.291612051114964 2.487147457203058, 0.14470681472244212 2.5, 1.5308084989341916e-16 2.5 C-0.1447068147224418 2.5, -0.2916120511149638 2.487147457203058, -0.43412044416732576 2.46201938253052 C-0.5766288372196877 2.436891307857982, -0.7190704323420595 2.3987241974763416, -0.8550503583141718 2.3492315519647713 C-0.991030284286284 2.299738906453201, -1.124680222349637 2.2374169168223177, -1.2499999999999996 2.165063509461097 C-1.375319777650362 2.092710102099876, -1.4961171729167733 2.008126855338237, -1.6069690242163475 1.9151111077974459 C-1.7178208755159217 1.8220953602566548, -1.822095360256653 1.7178208755159234, -1.9151111077974443 1.6069690242163495 C-2.0081268553382357 1.4961171729167755, -2.0927101020998746 1.3753197776503645, -2.1650635094610955 1.250000000000002 C-2.2374169168223164 1.1246802223496395, -2.2997389064531992 0.9910302842862865, -2.34923155196477 0.8550503583141743 C-2.3987241974763407 0.7190704323420621, -2.436891307857981 0.5766288372196907, -2.4620193825305194 0.434120444167329 C-2.487147457203058 0.29161205111496724, -2.5 0.14470681472244545, -2.5 3.636830773662308e-15 C-2.5 -0.14470681472243818, -2.4871474572030587 -0.2916120511149599, -2.4620193825305208 -0.4341204441673218 C-2.436891307857983 -0.5766288372196837, -2.398724197476343 -0.7190704323420553, -2.3492315519647726 -0.8550503583141675 C-2.2997389064532023 -0.9910302842862798, -2.23741691682232 -1.1246802223496328, -2.165063509461099 -1.2499999999999956 C-2.092710102099878 -1.3753197776503583, -2.00812685533824 -1.4961171729167695, -1.9151111077974488 -1.606969024216344 C-1.8220953602566576 -1.7178208755159183, -1.7178208755159263 -1.82209536025665, -1.6069690242163523 -1.9151111077974416 C-1.4961171729167784 -2.0081268553382334, -1.3753197776503672 -2.0927101020998724, -1.2500000000000047 -2.1650635094610937 C-1.1246802223496422 -2.237416916822315, -0.9910302842862897 -2.299738906453198, -0.8550503583141776 -2.3492315519647686 C-0.7190704323420656 -2.3987241974763394, -0.5766288372196942 -2.4368913078579806, -0.43412044416733236 -2.462019382530519 C-0.29161205111497057 -2.4871474572030574, -0.1447068147224489 -2.4999999999999996, -7.120580697431198e-15 -2.5 C0.14470681472243463 -2.5000000000000004, 0.29161205111495647 -2.487147457203059, 0.4341204441673183 -2.4620193825305217 C0.5766288372196802 -2.436891307857984, 0.7190704323420518 -2.3987241974763442, 0.8550503583141642 -2.349231551964774 C0.9910302842862766 -2.2997389064532037, 1.1246802223496295 -2.2374169168223212, 1.2499999999999925 -2.165063509461101 C1.3753197776503554 -2.0927101020998804, 1.4961171729167668 -2.008126855338242, 1.6069690242163412 -1.915111107797451 C1.7178208755159157 -1.82209536025666, 1.8220953602566472 -1.7178208755159294, 1.915111107797439 -1.6069690242163557 C2.0081268553382308 -1.496117172916782, 2.09271010209987 -1.3753197776503712, 2.1650635094610915 -1.2500000000000089 C2.237416916822313 -1.1246802223496466, 2.299738906453196 -0.9910302842862939, 2.3492315519647673 -0.855050358314182 C2.3987241974763385 -0.71907043234207, 2.4368913078579792 -0.5766288372196986, 2.462019382530518 -0.4341204441673369 C2.487147457203057 -0.29161205111497523, 2.4936698970884197 -0.07235340736123454, 2.5 -1.1714553645825241e-14 C2.5063301029115803 0.07235340736121111, 2.50633010291158 -0.07235340736122292, 2.5 0" stroke="#9370DB" stroke-width="2" fill="none" stroke-dasharray="0 0" style=""></path></g></g></g></g></g></g><defs><filter id="gee261a4e-7c41-4022-bc8f-3c639d6a3a73-light-drop-shadow" height="130%" width="130%"><feDropShadow dx="4" dy="4" stdDeviation="0" flood-opacity="0.06" flood-color="#000000"></feDropShadow></filter></defs><defs><filter id="gee261a4e-7c41-4022-bc8f-3c639d6a3a73-light-drop-shadow-small" height="150%" width="150%"><feDropShadow dx="2" dy="2" stdDeviation="0" flood-opacity="0.06" flood-color="#000000"></feDropShadow></filter></defs></svg>