<svg id="g185467d1-84f2-46b3-b763-5b7cbbf306b6-dark" width="100%" xmlns="http://www.w3.org/2000/svg" xmlns:xlink="http://www.w3.org/1999/xlink" class="flowchart" style="max-width: 798.71875px;" viewBox="0 0 798.71875 942.5843505859375" role="graphics-document document" aria-roledescription="flowchart-v2"><style>#g185467d1-84f2-46b3-b763-5b7cbbf306b6-dark{font-family:"trebuchet ms",verdana,arial,sans-serif;font-size:16px;fill:#e5e5e5;}@keyframes edge-animation-frame{from{stroke-dashoffset:0;}}@keyframes dash{to{stroke-dashoffset:0;}}#g185467d1-84f2-46b3-b763-5b7cbbf306b6-dark .edge-animation-slow{stroke-dasharray:9,5!important;stroke-dashoffset:900;animation:dash 50s linear infinite;stroke-linecap:round;}#g185467d1-84f2-46b3-b763-5b7cbbf306b6-dark .edge-animation-fast{stroke-dasharray:9,5!important;stroke-dashoffset:900;animation:dash 20s linear infinite;stroke-linecap:round;}#g185467d1-84f2-46b3-b763-5b7cbbf306b6-dark .error-icon{fill:#252525;}#g185467d1-84f2-46b3-b763-5b7cbbf306b6-dark .error-text{fill:#cccccc;stroke:#cccccc;}#g185467d1-84f2-46b3-b763-5b7cbbf306b6-dark .edge-thickness-normal{stroke-width:1px;}#g185467d1-84f2-46b3-b763-5b7cbbf306b6-dark .edge-thickness-thick{stroke-width:3.5px;}#g185467d1-84f2-46b3-b763-5b7cbbf306b6-dark .edge-pattern-solid{stroke-dasharray:0;}#g185467d1-84f2-46b3-b763-5b7cbbf306b6-dark .edge-thickness-invisible{stroke-width:0;fill:none;}#g185467d1-84f2-46b3-b763-5b7cbbf306b6-dark .edge-pattern-dashed{stroke-dasharray:3;}#g185467d1-84f2-46b3-b763-5b7cbbf306b6-dark .edge-pattern-dotted{stroke-dasharray:2;}#g185467d1-84f2-46b3-b763-5b7cbbf306b6-dark .marker{fill:#cccccc;stroke:#cccccc;}#g185467d1-84f2-46b3-b763-5b7cbbf306b6-dark .marker.cross{stroke:#cccccc;}#g185467d1-84f2-46b3-b763-5b7cbbf306b6-dark svg{font-family:"trebuchet ms",verdana,arial,sans-serif;font-size:16px;}#g185467d1-84f2-46b3-b763-5b7cbbf306b6-dark p{margin:0;}#g185467d1-84f2-46b3-b763-5b7cbbf306b6-dark .label{font-family:"trebuchet ms",verdana,arial,sans-serif;color:#e5e5e5;}#g185467d1-84f2-46b3-b763-5b7cbbf306b6-dark .cluster-label text{fill:#e5e5e5;}#g185467d1-84f2-46b3-b763-5b7cbbf306b6-dark .cluster-label span{color:#e5e5e5;}#g185467d1-84f2-46b3-b763-5b7cbbf306b6-dark .cluster-label span p{background-color:transparent;}#g185467d1-84f2-46b3-b763-5b7cbbf306b6-dark .label text,#g185467d1-84f2-46b3-b763-5b7cbbf306b6-dark span{fill:#e5e5e5;color:#e5e5e5;}#g185467d1-84f2-46b3-b763-5b7cbbf306b6-dark .node rect,#g185467d1-84f2-46b3-b763-5b7cbbf306b6-dark .node circle,#g185467d1-84f2-46b3-b763-5b7cbbf306b6-dark .node ellipse,#g185467d1-84f2-46b3-b763-5b7cbbf306b6-dark .node polygon,#g185467d1-84f2-46b3-b763-5b7cbbf306b6-dark .node path{fill:#2d2d2d;stroke:#555555;stroke-width:1px;}#g185467d1-84f2-46b3-b763-5b7cbbf306b6-dark .rough-node .label text,#g185467d1-84f2-46b3-b763-5b7cbbf306b6-dark .node .label text,#g185467d1-84f2-46b3-b763-5b7cbbf306b6-dark .image-shape .label,#g185467d1-84f2-46b3-b763-5b7cbbf306b6-dark .icon-shape .label{text-anchor:middle;}#g185467d1-84f2-46b3-b763-5b7cbbf306b6-dark .node .katex path{fill:#000;stroke:#000;stroke-width:1px;}#g185467d1-84f2-46b3-b763-5b7cbbf306b6-dark .rough-node .label,#g185467d1-84f2-46b3-b763-5b7cbbf306b6-dark .node .label,#g185467d1-84f2-46b3-b763-5b7cbbf306b6-dark .image-shape .label,#g185467d1-84f2-46b3-b763-5b7cbbf306b6-dark .icon-shape .label{text-align:center;}#g185467d1-84f2-46b3-b763-5b7cbbf306b6-dark .node.clickable{cursor:pointer;}#g185467d1-84f2-46b3-b763-5b7cbbf306b6-dark .root .anchor path{fill:#cccccc!important;stroke-width:0;stroke:#cccccc;}#g185467d1-84f2-46b3-b763-5b7cbbf306b6-dark .arrowheadPath{fill:#cccccc;}#g185467d1-84f2-46b3-b763-5b7cbbf306b6-dark .edgePath .path{stroke:#cccccc;stroke-width:1px;}#g185467d1-84f2-46b3-b763-5b7cbbf306b6-dark .flowchart-link{stroke:#cccccc;fill:none;}#g185467d1-84f2-46b3-b763-5b7cbbf306b6-dark .edgeLabel{background-color:#1e1e1e;text-align:center;}#g185467d1-84f2-46b3-b763-5b7cbbf306b6-dark .edgeLabel p{background-color:#1e1e1e;}#g185467d1-84f2-46b3-b763-5b7cbbf306b6-dark .edgeLabel rect{opacity:0.5;background-color:#1e1e1e;fill:#1e1e1e;}#g185467d1-84f2-46b3-b763-5b7cbbf306b6-dark .labelBkg{background-color:rgba(30, 30, 30, 0.5);}#g185467d1-84f2-46b3-b763-5b7cbbf306b6-dark .cluster rect{fill:#1e1e1e;stroke:#555555;stroke-width:1px;}#g185467d1-84f2-46b3-b763-5b7cbbf306b6-dark .cluster text{fill:#e5e5e5;}#g185467d1-84f2-46b3-b763-5b7cbbf306b6-dark .cluster span{color:#e5e5e5;}#g185467d1-84f2-46b3-b763-5b7cbbf306b6-dark div.mermaidTooltip{position:absolute;text-align:center;max-width:200px;padding:2px;font-family:"trebuchet ms",verdana,arial,sans-serif;font-size:12px;background:#252525;border:1px solid #555555;border-radius:2px;pointer-events:none;z-index:100;}#g185467d1-84f2-46b3-b763-5b7cbbf306b6-dark .flowchartTitleText{text-anchor:middle;font-size:18px;fill:#e5e5e5;}#g185467d1-84f2-46b3-b763-5b7cbbf306b6-dark rect.text{fill:none;stroke-width:0;}#g185467d1-84f2-46b3-b763-5b7cbbf306b6-dark .icon-shape,#g185467d1-84f2-46b3-b763-5b7cbbf306b6-dark .image-shape{background-color:#1e1e1e;text-align:center;}#g185467d1-84f2-46b3-b763-5b7cbbf306b6-dark .icon-shape p,#g185467d1-84f2-46b3-b763-5b7cbbf306b6-dark .image-shape p{background-color:#1e1e1e;padding:2px;}#g185467d1-84f2-46b3-b763-5b7cbbf306b6-dark .icon-shape .label rect,#g185467d1-84f2-46b3-b763-5b7cbbf306b6-dark .image-shape .label rect{opacity:0.5;background-color:#1e1e1e;fill:#1e1e1e;}#g185467d1-84f2-46b3-b763-5b7cbbf306b6-dark .label-icon{display:inline-block;height:1em;overflow:visible;vertical-align:-0.125em;}#g185467d1-84f2-46b3-b763-5b7cbbf306b6-dark .node .label-icon path{fill:currentColor;stroke:revert;stroke-width:revert;}#g185467d1-84f2-46b3-b763-5b7cbbf306b6-dark .node .neo-node{stroke:#555555;}#g185467d1-84f2-46b3-b763-5b7cbbf306b6-dark [data-look="neo"].node rect,#g185467d1-84f2-46b3-b763-5b7cbbf306b6-dark [data-look="neo"].cluster rect,#g185467d1-84f2-46b3-b763-5b7cbbf306b6-dark [data-look="neo"].node polygon{stroke:url(#g185467d1-84f2-46b3-b763-5b7cbbf306b6-dark-gradient);filter:drop-shadow( 1px 2px 2px rgba(185,185,185,1));}#g185467d1-84f2-46b3-b763-5b7cbbf306b6-dark [data-look="neo"].node path{stroke:url(#g185467d1-84f2-46b3-b763-5b7cbbf306b6-dark-gradient);stroke-width:1px;}#g185467d1-84f2-46b3-b763-5b7cbbf306b6-dark [data-look="neo"].node .outer-path{filter:drop-shadow( 1px 2px 2px rgba(185,185,185,1));}#g185467d1-84f2-46b3-b763-5b7cbbf306b6-dark [data-look="neo"].node .neo-line path{stroke:#555555;filter:none;}#g185467d1-84f2-46b3-b763-5b7cbbf306b6-dark [data-look="neo"].node circle{stroke:url(#g185467d1-84f2-46b3-b763-5b7cbbf306b6-dark-gradient);filter:drop-shadow( 1px 2px 2px rgba(185,185,185,1));}#g185467d1-84f2-46b3-b763-5b7cbbf306b6-dark [data-look="neo"].node circle .state-start{fill:#000000;}#g185467d1-84f2-46b3-b763-5b7cbbf306b6-dark [data-look="neo"].icon-shape .icon{fill:url(#g185467d1-84f2-46b3-b763-5b7cbbf306b6-dark-gradient);filter:drop-shadow( 1px 2px 2px rgba(185,185,185,1));}#g185467d1-84f2-46b3-b763-5b7cbbf306b6-dark [data-look="neo"].icon-shape .icon-neo path{stroke:url(#g185467d1-84f2-46b3-b763-5b7cbbf306b6-dark-gradient);filter:drop-shadow( 1px 2px 2px rgba(185,185,185,1));}#g185467d1-84f2-46b3-b763-5b7cbbf306b6-dark :root{--mermaid-font-family:"trebuchet ms",verdana,arial,sans-serif;}</style><g><marker id="g185467d1-84f2-46b3-b763-5b7cbbf306b6-dark_flowchart-v2-pointEnd" class="marker flowchart-v2" viewBox="0 0 10 10" refX="5" refY="5" markerUnits="userSpaceOnUse" markerWidth="8" markerHeight="8" orient="auto"><path d="M 0 0 L 10 5 L 0 10 z" class="arrowMarkerPath" style="stroke-width: 1; stroke-dasharray: 1, 0;"></path></marker><marker id="g185467d1-84f2-46b3-b763-5b7cbbf306b6-dark_flowchart-v2-pointStart" class="marker flowchart-v2" viewBox="0 0 10 10" refX="4.5" refY="5" markerUnits="userSpaceOnUse" markerWidth="8" markerHeight="8" orient="auto"><path d="M 0 5 L 10 10 L 10 0 z" class="arrowMarkerPath" style="stroke-width: 1; stroke-dasharray: 1, 0;"></path></marker><marker id="g185467d1-84f2-46b3-b763-5b7cbbf306b6-dark_flowchart-v2-pointEnd-margin" class="marker flowchart-v2" viewBox="0 0 11.5 14" refX="11.5" refY="7" markerUnits="userSpaceOnUse" markerWidth="10.5" markerHeight="14" orient="auto"><path d="M 0 0 L 11.5 7 L 0 14 z" class="arrowMarkerPath" style="stroke-width: 0; stroke-dasharray: 1, 0;"></path></marker><marker id="g185467d1-84f2-46b3-b763-5b7cbbf306b6-dark_flowchart-v2-pointStart-margin" class="marker flowchart-v2" viewBox="0 0 11.5 14" refX="1" refY="7" markerUnits="userSpaceOnUse" markerWidth="11.5" markerHeight="14" orient="auto"><polygon points="0,7 11.5,14 11.5,0" class="arrowMarkerPath" style="stroke-width: 0; stroke-dasharray: 1, 0;"></polygon></marker><marker id="g185467d1-84f2-46b3-b763-5b7cbbf306b6-dark_flowchart-v2-circleEnd" class="marker flowchart-v2" viewBox="0 0 10 10" refX="11" refY="5" markerUnits="userSpaceOnUse" markerWidth="11" markerHeight="11" orient="auto"><circle cx="5" cy="5" r="5" class="arrowMarkerPath" style="stroke-width: 1; stroke-dasharray: 1, 0;"></circle></marker><marker id="g185467d1-84f2-46b3-b763-5b7cbbf306b6-dark_flowchart-v2-circleStart" class="marker flowchart-v2" viewBox="0 0 10 10" refX="-1" refY="5" markerUnits="userSpaceOnUse" markerWidth="11" markerHeight="11" orient="auto"><circle cx="5" cy="5" r="5" class="arrowMarkerPath" style="stroke-width: 1; stroke-dasharray: 1, 0;"></circle></marker><marker id="g185467d1-84f2-46b3-b763-5b7cbbf306b6-dark_flowchart-v2-circleEnd-margin" class="marker flowchart-v2" viewBox="0 0 10 10" refY="5" refX="12.25" markerUnits="userSpaceOnUse" markerWidth="14" markerHeight="14" orient="auto"><circle cx="5" cy="5" r="5" class="arrowMarkerPath" style="stroke-width: 0; stroke-dasharray: 1, 0;"></circle></marker><marker id="g185467d1-84f2-46b3-b763-5b7cbbf306b6-dark_flowchart-v2-circleStart-margin" class="marker flowchart-v2" viewBox="0 0 10 10" refX="-2" refY="5" markerUnits="userSpaceOnUse" markerWidth="14" markerHeight="14" orient="auto"><circle cx="5" cy="5" r="5" class="arrowMarkerPath" style="stroke-width: 0; stroke-dasharray: 1, 0;"></circle></marker><marker id="g185467d1-84f2-46b3-b763-5b7cbbf306b6-dark_flowchart-v2-crossEnd" class="marker cross flowchart-v2" viewBox="0 0 11 11" refX="12" refY="5.2" markerUnits="userSpaceOnUse" markerWidth="11" markerHeight="11" orient="auto"><path d="M 1,1 l 9,9 M 10,1 l -9,9" class="arrowMarkerPath" style="stroke-width: 2; stroke-dasharray: 1, 0;"></path></marker><marker id="g185467d1-84f2-46b3-b763-5b7cbbf306b6-dark_flowchart-v2-crossStart" class="marker cross flowchart-v2" viewBox="0 0 11 11" refX="-1" refY="5.2" markerUnits="userSpaceOnUse" markerWidth="11" markerHeight="11" orient="auto"><path d="M 1,1 l 9,9 M 10,1 l -9,9" class="arrowMarkerPath" style="stroke-width: 2; stroke-dasharray: 1, 0;"></path></marker><marker id="g185467d1-84f2-46b3-b763-5b7cbbf306b6-dark_flowchart-v2-crossEnd-margin" class="marker cross flowchart-v2" viewBox="0 0 15 15" refX="17.7" refY="7.5" markerUnits="userSpaceOnUse" markerWidth="12" markerHeight="12" orient="auto"><path d="M 1,1 L 14,14 M 1,14 L 14,1" class="arrowMarkerPath" style="stroke-width: 2.5;"></path></marker><marker id="g185467d1-84f2-46b3-b763-5b7cbbf306b6-dark_flowchart-v2-crossStart-margin" class="marker cross flowchart-v2" viewBox="0 0 15 15" refX="-3.5" refY="7.5" markerUnits="userSpaceOnUse" markerWidth="12" markerHeight="12" orient="auto"><path d="M 1,1 L 14,14 M 1,14 L 14,1" class="arrowMarkerPath" style="stroke-width: 2.5; stroke-dasharray: 1, 0;"></path></marker><g class="root"><g class="clusters"></g><g class="edgePaths"><path d="M390.48,42.5L390.397,46.583C390.314,50.667,390.147,58.833,390.064,66.417C389.98,74,389.98,81,389.98,84.5L389.98,88" id="g185467d1-84f2-46b3-b763-5b7cbbf306b6-dark-L_START_Q1_0" class="edge-thickness-normal edge-pattern-solid edge-thickness-normal edge-pattern-solid flowchart-link" style=";" data-edge="true" data-et="edge" data-id="L_START_Q1_0" data-points="W3sieCI6MzkwLjQ4MDQ2ODc1LCJ5Ijo0Mi41fSx7IngiOjM4OS45ODA0Njg3NSwieSI6Njd9LHsieCI6Mzg5Ljk4MDQ2ODc1LCJ5Ijo5Mn1d" data-look="classic" marker-end="url(#g185467d1-84f2-46b3-b763-5b7cbbf306b6-dark_flowchart-v2-pointEnd)"></path><path d="M345.201,176.008L314.274,189.555C283.348,203.101,221.494,230.194,190.567,249.158C159.641,268.121,159.641,278.954,159.641,284.371L159.641,289.788" id="g185467d1-84f2-46b3-b763-5b7cbbf306b6-dark-L_Q1_Q2_0" class="edge-thickness-normal edge-pattern-solid edge-thickness-normal edge-pattern-solid flowchart-link" style=";" data-edge="true" data-et="edge" data-id="L_Q1_Q2_0" data-points="W3sieCI6MzQ1LjIwMTA1Mjc3Mzk4MzYzLCJ5IjoxNzYuMDA4MDkwMTI3NDk5MzJ9LHsieCI6MTU5LjY0MDYyNSwieSI6MjU3LjI4NzUwNjEwMzUxNTZ9LHsieCI6MTU5LjY0MDYyNSwieSI6MjkzLjc4NzUwNjEwMzUxNTZ9XQ==" data-look="classic" marker-end="url(#g185467d1-84f2-46b3-b763-5b7cbbf306b6-dark_flowchart-v2-pointEnd)"></path><path d="M129.394,387.759L118.833,398.884C108.273,410.008,87.152,432.257,76.592,458.366C66.031,484.475,66.031,514.444,66.031,544.413C66.031,574.381,66.031,604.35,66.031,632.482C66.031,660.613,66.031,686.907,66.031,700.054L66.031,713.202" id="g185467d1-84f2-46b3-b763-5b7cbbf306b6-dark-L_Q2_UUID4_0" class="edge-thickness-normal edge-pattern-solid edge-thickness-normal edge-pattern-solid flowchart-link" style=";" data-edge="true" data-et="edge" data-id="L_Q2_UUID4_0" data-points="W3sieCI6MTI5LjM5MzczMjk4MDQwOTY4LCJ5IjozODcuNzU5MzY0MDgzOTI1MzN9LHsieCI6NjYuMDMxMjUsInkiOjQ1NC41MDYyNTYxMDM1MTU2fSx7IngiOjY2LjAzMTI1LCJ5Ijo1NDQuNDEyNTA2MTAzNTE1Nn0seyJ4Ijo2Ni4wMzEyNSwieSI6NjM0LjMxODc1NjEwMzUxNTZ9LHsieCI6NjYuMDMxMjUsInkiOjcxNy4yMDE1Njg2MDM1MTU2fV0=" data-look="classic" marker-end="url(#g185467d1-84f2-46b3-b763-5b7cbbf306b6-dark_flowchart-v2-pointEnd)"></path><path d="M185.692,391.954L193.225,402.38C200.757,412.805,215.822,433.656,223.354,449.498C230.887,465.34,230.887,476.173,230.887,481.59L230.887,487.006" id="g185467d1-84f2-46b3-b763-5b7cbbf306b6-dark-L_Q2_Q3_0" class="edge-thickness-normal edge-pattern-solid edge-thickness-normal edge-pattern-solid flowchart-link" style=";" data-edge="true" data-et="edge" data-id="L_Q2_Q3_0" data-points="W3sieCI6MTg1LjY5MjQ4MTgzMTk4MDMsInkiOjM5MS45NTQzOTkyNzE1MzUzfSx7IngiOjIzMC44ODY3MTg3NSwieSI6NDU0LjUwNjI1NjEwMzUxNTZ9LHsieCI6MjMwLjg4NjcxODc1LCJ5Ijo0OTEuMDA2MjU2MTAzNTE1Nn1d" data-look="classic" marker-end="url(#g185467d1-84f2-46b3-b763-5b7cbbf306b6-dark_flowchart-v2-pointEnd)"></path><path d="M241.525,587.181L243.479,595.037C245.433,602.893,249.342,618.606,251.296,639.61C253.25,660.613,253.25,686.907,253.25,700.054L253.25,713.202" id="g185467d1-84f2-46b3-b763-5b7cbbf306b6-dark-L_Q3_SEQ_0" class="edge-thickness-normal edge-pattern-solid edge-thickness-normal edge-pattern-solid flowchart-link" style=";" data-edge="true" data-et="edge" data-id="L_Q3_SEQ_0" data-points="W3sieCI6MjQxLjUyNDg1ODczMjk1MTE3LCJ5Ijo1ODcuMTgwNjE2MTIwNTY0NH0seyJ4IjoyNTMuMjUsInkiOjYzNC4zMTg3NTYxMDM1MTU2fSx7IngiOjI1My4yNSwieSI6NzE3LjIwMTU2ODYwMzUxNTZ9XQ==" data-look="classic" marker-end="url(#g185467d1-84f2-46b3-b763-5b7cbbf306b6-dark_flowchart-v2-pointEnd)"></path><path d="M206.092,573.024L197.24,583.24C188.387,593.456,170.682,613.887,151.064,637.399C131.446,660.91,109.916,687.501,99.151,700.797L88.385,714.093" id="g185467d1-84f2-46b3-b763-5b7cbbf306b6-dark-L_Q3_UUID4_0" class="edge-thickness-normal edge-pattern-solid edge-thickness-normal edge-pattern-solid flowchart-link" style=";" data-edge="true" data-et="edge" data-id="L_Q3_UUID4_0" data-points="W3sieCI6MjA2LjA5MjQyNDk0MjgyNjA2LCJ5Ijo1NzMuMDI0NDYyMjk2MzQxN30seyJ4IjoxNTIuOTc2NTYyNSwieSI6NjM0LjMxODc1NjEwMzUxNTZ9LHsieCI6ODUuODY4MzE4MDI0NzM2MjcsInkiOjcxNy4yMDE1Njg2MDM1MTU2fV0=" data-look="classic" marker-end="url(#g185467d1-84f2-46b3-b763-5b7cbbf306b6-dark_flowchart-v2-pointEnd)"></path><path d="M431.452,179.316L454.964,192.311C478.476,205.306,525.5,231.297,549.012,249.868C572.523,268.439,572.523,279.59,572.523,285.165L572.523,290.741" id="g185467d1-84f2-46b3-b763-5b7cbbf306b6-dark-L_Q1_Q4_0" class="edge-thickness-normal edge-pattern-solid edge-thickness-normal edge-pattern-solid flowchart-link" style=";" data-edge="true" data-et="edge" data-id="L_Q1_Q4_0" data-points="W3sieCI6NDMxLjQ1MjI1Mzk3MzUyNCwieSI6MTc5LjMxNTcyMDg3OTk5MTU1fSx7IngiOjU3Mi41MjM0Mzc1LCJ5IjoyNTcuMjg3NTA2MTAzNTE1Nn0seyJ4Ijo1NzIuNTIzNDM3NSwieSI6Mjk0Ljc0MDYzMTEwMzUxNTZ9XQ==" data-look="classic" marker-end="url(#g185467d1-84f2-46b3-b763-5b7cbbf306b6-dark_flowchart-v2-pointEnd)"></path><path d="M536.493,381.023L518.93,393.27C501.368,405.517,466.242,430.012,448.68,457.243C431.117,484.475,431.117,514.444,431.117,544.413C431.117,574.381,431.117,604.35,431.117,628.452C431.117,652.553,431.117,670.788,431.117,679.905L431.117,689.022" id="g185467d1-84f2-46b3-b763-5b7cbbf306b6-dark-L_Q4_Q5_0" class="edge-thickness-normal edge-pattern-solid edge-thickness-normal edge-pattern-solid flowchart-link" style=";" data-edge="true" data-et="edge" data-id="L_Q4_Q5_0" data-points="W3sieCI6NTM2LjQ5Mjk2NjY2NDc2NzksInkiOjM4MS4wMjI2NjAyNjgyODM1fSx7IngiOjQzMS4xMTcxODc1LCJ5Ijo0NTQuNTA2MjU2MTAzNTE1Nn0seyJ4Ijo0MzEuMTE3MTg3NSwieSI6NTQ0LjQxMjUwNjEwMzUxNTZ9LHsieCI6NDMxLjExNzE4NzUsInkiOjYzNC4zMTg3NTYxMDM1MTU2fSx7IngiOjQzMS4xMTcxODc1LCJ5Ijo2OTMuMDIxODgxMTAzNTE1Nn1d" data-look="classic" marker-end="url(#g185467d1-84f2-46b3-b763-5b7cbbf306b6-dark_flowchart-v2-pointEnd)"></path><path d="M422.529,781.793L420.126,793.008C417.724,804.223,412.918,826.654,410.516,843.286C408.113,859.918,408.113,870.751,408.113,876.168L408.113,881.584" id="g185467d1-84f2-46b3-b763-5b7cbbf306b6-dark-L_Q5_SNOW_0" class="edge-thickness-normal edge-pattern-solid edge-thickness-normal edge-pattern-solid flowchart-link" style=";" data-edge="true" data-et="edge" data-id="L_Q5_SNOW_0" data-points="W3sieCI6NDIyLjUyODcxMzMxOTAwMywieSI6NzgxLjc5Mjc4MTkyMjUxODV9LHsieCI6NDA4LjExMzI4MTI1LCJ5Ijo4NDkuMDg0MzgxMTAzNTE1Nn0seyJ4Ijo0MDguMTEzMjgxMjUsInkiOjg4NS41ODQzODExMDM1MTU2fV0=" data-look="classic" marker-end="url(#g185467d1-84f2-46b3-b763-5b7cbbf306b6-dark_flowchart-v2-pointEnd)"></path><path d="M452.933,768.565L463.832,781.985C474.73,795.405,496.527,822.245,513.345,841.289C530.163,860.333,542.002,871.581,547.922,877.205L553.841,882.829" id="g185467d1-84f2-46b3-b763-5b7cbbf306b6-dark-L_Q5_UUID7_0" class="edge-thickness-normal edge-pattern-solid edge-thickness-normal edge-pattern-solid flowchart-link" style=";" data-edge="true" data-et="edge" data-id="L_Q5_UUID7_0" data-points="W3sieCI6NDUyLjkzMzM4NzkxMDI2OCwieSI6NzY4LjU2NTA1NTY5MzI0NzZ9LHsieCI6NTE4LjMyNDIxODc1LCJ5Ijo4NDkuMDg0MzgxMTAzNTE1Nn0seyJ4Ijo1NTYuNzQwODQyNzI1NDA5OCwieSI6ODg1LjU4NDM4MTEwMzUxNTZ9XQ==" data-look="classic" marker-end="url(#g185467d1-84f2-46b3-b763-5b7cbbf306b6-dark_flowchart-v2-pointEnd)"></path><path d="M603.754,385.823L615.7,397.27C627.646,408.717,651.538,431.612,663.484,450.53C675.43,469.449,675.43,484.392,675.43,491.863L675.43,499.334" id="g185467d1-84f2-46b3-b763-5b7cbbf306b6-dark-L_Q4_Q6_0" class="edge-thickness-normal edge-pattern-solid edge-thickness-normal edge-pattern-solid flowchart-link" style=";" data-edge="true" data-et="edge" data-id="L_Q4_Q6_0" data-points="W3sieCI6NjAzLjc1MzU3MzM4NDMxNDIsInkiOjM4NS44MjI5OTUyMTkyMDE0Nn0seyJ4Ijo2NzUuNDI5Njg3NSwieSI6NDU0LjUwNjI1NjEwMzUxNTZ9LHsieCI6Njc1LjQyOTY4NzUsInkiOjUwMy4zMzQzODExMDM1MTU2fV0=" data-look="classic" marker-end="url(#g185467d1-84f2-46b3-b763-5b7cbbf306b6-dark_flowchart-v2-pointEnd)"></path><path d="M654.554,564.615L642.55,576.232C630.545,587.85,606.536,611.084,594.532,640.599C582.527,670.113,582.527,705.907,582.527,741.702C582.527,777.496,582.527,813.29,582.527,836.604C582.527,859.918,582.527,870.751,582.527,876.168L582.527,881.584" id="g185467d1-84f2-46b3-b763-5b7cbbf306b6-dark-L_Q6_UUID7_0" class="edge-thickness-normal edge-pattern-solid edge-thickness-normal edge-pattern-solid flowchart-link" style=";" data-edge="true" data-et="edge" data-id="L_Q6_UUID7_0" data-points="W3sieCI6NjU0LjU1NDAwNTM5NDA3ODksInkiOjU2NC42MTQ5NDg5OTc1OTQ1fSx7IngiOjU4Mi41MjczNDM3NSwieSI6NjM0LjMxODc1NjEwMzUxNTZ9LHsieCI6NTgyLjUyNzM0Mzc1LCJ5Ijo3NDEuNzAxNTY4NjAzNTE1Nn0seyJ4Ijo1ODIuNTI3MzQzNzUsInkiOjg0OS4wODQzODExMDM1MTU2fSx7IngiOjU4Mi41MjczNDM3NSwieSI6ODg1LjU4NDM4MTEwMzUxNTZ9XQ==" data-look="classic" marker-end="url(#g185467d1-84f2-46b3-b763-5b7cbbf306b6-dark_flowchart-v2-pointEnd)"></path><path d="M688.908,572.012L693.979,582.397C699.051,592.781,709.193,613.55,714.265,629.351C719.336,645.152,719.336,655.985,719.336,661.402L719.336,666.819" id="g185467d1-84f2-46b3-b763-5b7cbbf306b6-dark-L_Q6_Q7_0" class="edge-thickness-normal edge-pattern-solid edge-thickness-normal edge-pattern-solid flowchart-link" style=";" data-edge="true" data-et="edge" data-id="L_Q6_Q7_0" data-points="W3sieCI6Njg4LjkwODE0NzQ3NzgxNCwieSI6NTcyLjAxMjE3MTEyNTcwMTZ9LHsieCI6NzE5LjMzNTkzNzUsInkiOjYzNC4zMTg3NTYxMDM1MTU2fSx7IngiOjcxOS4zMzU5Mzc1LCJ5Ijo2NzAuODE4NzU2MTAzNTE1Nn1d" data-look="classic" marker-end="url(#g185467d1-84f2-46b3-b763-5b7cbbf306b6-dark_flowchart-v2-pointEnd)"></path><path d="M731.553,800.367L733.244,808.486C734.935,816.606,738.317,832.845,740.008,846.381C741.699,859.918,741.699,870.751,741.699,876.168L741.699,881.584" id="g185467d1-84f2-46b3-b763-5b7cbbf306b6-dark-L_Q7_ULID_K_0" class="edge-thickness-normal edge-pattern-solid edge-thickness-normal edge-pattern-solid flowchart-link" style=";" data-edge="true" data-et="edge" data-id="L_Q7_ULID_K_0" data-points="W3sieCI6NzMxLjU1MzQzMjY1NDY3NDEsInkiOjgwMC4zNjY4ODU5NDg4NDE1fSx7IngiOjc0MS42OTkyMTg3NSwieSI6ODQ5LjA4NDM4MTEwMzUxNTZ9LHsieCI6NzQxLjY5OTIxODc1LCJ5Ijo4ODUuNTg0MzgxMTAzNTE1Nn1d" data-look="classic" marker-end="url(#g185467d1-84f2-46b3-b763-5b7cbbf306b6-dark_flowchart-v2-pointEnd)"></path><path d="M693.522,786.771L687.574,797.156C681.626,807.542,669.729,828.313,656.789,844.362C643.848,860.412,629.865,871.739,622.873,877.403L615.881,883.067" id="g185467d1-84f2-46b3-b763-5b7cbbf306b6-dark-L_Q7_UUID7_0" class="edge-thickness-normal edge-pattern-solid edge-thickness-normal edge-pattern-solid flowchart-link" style=";" data-edge="true" data-et="edge" data-id="L_Q7_UUID7_0" data-points="W3sieCI6NjkzLjUyMjM2MzI0NzM2OSwieSI6Nzg2Ljc3MDgwNjg1MDg4NDZ9LHsieCI6NjU3LjgzMjAzMTI1LCJ5Ijo4NDkuMDg0MzgxMTAzNTE1Nn0seyJ4Ijo2MTIuNzcyNjY5MDU3Mzc3LCJ5Ijo4ODUuNTg0MzgxMTAzNTE1Nn1d" data-look="classic" marker-end="url(#g185467d1-84f2-46b3-b763-5b7cbbf306b6-dark_flowchart-v2-pointEnd)"></path></g><g class="edgeLabels"><g class="edgeLabel"><g class="label" data-id="L_START_Q1_0" transform="translate(0, 0)"><text y="-10.1" text-anchor="middle"><tspan class="text-outer-tspan row" x="0" y="-0.1em" dy="1.1em" text-anchor="middle"></tspan></text></g></g><g><rect class="background" style="stroke: none"></rect></g><g class="edgeLabel" transform="translate(159.640625, 257.2875061035156)"><g class="label" data-id="L_Q1_Q2_0" transform="translate(0, -10.5)"><g><rect class="background" style="" x="-11.3984375" y="-1" width="22.796875" height="23"></rect><text y="-10.1" text-anchor="middle" style=""><tspan class="text-outer-tspan row" x="0" y="-0.1em" dy="1.1em" text-anchor="middle"><tspan font-style="normal" class="text-inner-tspan" font-weight="normal">No</tspan></tspan></text></g></g></g><g class="edgeLabel" transform="translate(66.03125, 544.4125061035156)"><g class="label" data-id="L_Q2_UUID4_0" transform="translate(0, -10.5)"><g><rect class="background" style="" x="-13.328125" y="-1" width="26.65625" height="23"></rect><text y="-10.1" text-anchor="middle" style=""><tspan class="text-outer-tspan row" x="0" y="-0.1em" dy="1.1em" text-anchor="middle"><tspan font-style="normal" class="text-inner-tspan" font-weight="normal">Yes</tspan></tspan></text></g></g></g><g class="edgeLabel" transform="translate(230.88671875, 454.5062561035156)"><g class="label" data-id="L_Q2_Q3_0" transform="translate(0, -10.5)"><g><rect class="background" style="" x="-11.3984375" y="-1" width="22.796875" height="23"></rect><text y="-10.1" text-anchor="middle" style=""><tspan class="text-outer-tspan row" x="0" y="-0.1em" dy="1.1em" text-anchor="middle"><tspan font-style="normal" class="text-inner-tspan" font-weight="normal">No</tspan></tspan></text></g></g></g><g class="edgeLabel" transform="translate(253.25, 634.3187561035156)"><g class="label" data-id="L_Q3_SEQ_0" transform="translate(0, -10.5)"><g><rect class="background" style="" x="-13.328125" y="-1" width="26.65625" height="23"></rect><text y="-10.1" text-anchor="middle" style=""><tspan class="text-outer-tspan row" x="0" y="-0.1em" dy="1.1em" text-anchor="middle"><tspan font-style="normal" class="text-inner-tspan" font-weight="normal">Yes</tspan></tspan></text></g></g></g><g class="edgeLabel" transform="translate(144.94142, 644.24266)"><g class="label" data-id="L_Q3_UUID4_0" transform="translate(0, -10.5)"><g><rect class="background" style="" x="-11.3984375" y="-1" width="22.796875" height="23"></rect><text y="-10.1" text-anchor="middle" style=""><tspan class="text-outer-tspan row" x="0" y="-0.1em" dy="1.1em" text-anchor="middle"><tspan font-style="normal" class="text-inner-tspan" font-weight="normal">No</tspan></tspan></text></g></g></g><g class="edgeLabel" transform="translate(572.5234375, 257.2875061035156)"><g class="label" data-id="L_Q1_Q4_0" transform="translate(0, -10.5)"><g><rect class="background" style="" x="-13.328125" y="-1" width="26.65625" height="23"></rect><text y="-10.1" text-anchor="middle" style=""><tspan class="text-outer-tspan row" x="0" y="-0.1em" dy="1.1em" text-anchor="middle"><tspan font-style="normal" class="text-inner-tspan" font-weight="normal">Yes</tspan></tspan></text></g></g></g><g class="edgeLabel" transform="translate(431.1171875, 544.4125061035156)"><g class="label" data-id="L_Q4_Q5_0" transform="translate(0, -10.5)"><g><rect class="background" style="" x="-13.328125" y="-1" width="26.65625" height="23"></rect><text y="-10.1" text-anchor="middle" style=""><tspan class="text-outer-tspan row" x="0" y="-0.1em" dy="1.1em" text-anchor="middle"><tspan font-style="normal" class="text-inner-tspan" font-weight="normal">Yes</tspan></tspan></text></g></g></g><g class="edgeLabel" transform="translate(408.11328125, 849.0843811035156)"><g class="label" data-id="L_Q5_SNOW_0" transform="translate(0, -10.5)"><g><rect class="background" style="" x="-13.328125" y="-1" width="26.65625" height="23"></rect><text y="-10.1" text-anchor="middle" style=""><tspan class="text-outer-tspan row" x="0" y="-0.1em" dy="1.1em" text-anchor="middle"><tspan font-style="normal" class="text-inner-tspan" font-weight="normal">Yes</tspan></tspan></text></g></g></g><g class="edgeLabel" transform="translate(502.332, 829.39229)"><g class="label" data-id="L_Q5_UUID7_0" transform="translate(0, -10.5)"><g><rect class="background" style="" x="-11.3984375" y="-1" width="22.796875" height="23"></rect><text y="-10.1" text-anchor="middle" style=""><tspan class="text-outer-tspan row" x="0" y="-0.1em" dy="1.1em" text-anchor="middle"><tspan font-style="normal" class="text-inner-tspan" font-weight="normal">No</tspan></tspan></text></g></g></g><g class="edgeLabel" transform="translate(675.4296875, 454.5062561035156)"><g class="label" data-id="L_Q4_Q6_0" transform="translate(0, -10.5)"><g><rect class="background" style="" x="-11.3984375" y="-1" width="22.796875" height="23"></rect><text y="-10.1" text-anchor="middle" style=""><tspan class="text-outer-tspan row" x="0" y="-0.1em" dy="1.1em" text-anchor="middle"><tspan font-style="normal" class="text-inner-tspan" font-weight="normal">No</tspan></tspan></text></g></g></g><g class="edgeLabel" transform="translate(582.52734375, 741.7015686035156)"><g class="label" data-id="L_Q6_UUID7_0" transform="translate(0, -10.5)"><g><rect class="background" style="" x="-13.328125" y="-1" width="26.65625" height="23"></rect><text y="-10.1" text-anchor="middle" style=""><tspan class="text-outer-tspan row" x="0" y="-0.1em" dy="1.1em" text-anchor="middle"><tspan font-style="normal" class="text-inner-tspan" font-weight="normal">Yes</tspan></tspan></text></g></g></g><g class="edgeLabel" transform="translate(719.3359375, 634.3187561035156)"><g class="label" data-id="L_Q6_Q7_0" transform="translate(0, -10.5)"><g><rect class="background" style="" x="-11.3984375" y="-1" width="22.796875" height="23"></rect><text y="-10.1" text-anchor="middle" style=""><tspan class="text-outer-tspan row" x="0" y="-0.1em" dy="1.1em" text-anchor="middle"><tspan font-style="normal" class="text-inner-tspan" font-weight="normal">No</tspan></tspan></text></g></g></g><g class="edgeLabel" transform="translate(741.69921875, 849.0843811035156)"><g class="label" data-id="L_Q7_ULID_K_0" transform="translate(0, -10.5)"><g><rect class="background" style="" x="-13.328125" y="-1" width="26.65625" height="23"></rect><text y="-10.1" text-anchor="middle" style=""><tspan class="text-outer-tspan row" x="0" y="-0.1em" dy="1.1em" text-anchor="middle"><tspan font-style="normal" class="text-inner-tspan" font-weight="normal">Yes</tspan></tspan></text></g></g></g><g class="edgeLabel" transform="translate(661.26704, 843.08702)"><g class="label" data-id="L_Q7_UUID7_0" transform="translate(0, -10.5)"><g><rect class="background" style="" x="-11.3984375" y="-1" width="22.796875" height="23"></rect><text y="-10.1" text-anchor="middle" style=""><tspan class="text-outer-tspan row" x="0" y="-0.1em" dy="1.1em" text-anchor="middle"><tspan font-style="normal" class="text-inner-tspan" font-weight="normal">No</tspan></tspan></text></g></g></g></g><g class="nodes"><g class="node default" id="g185467d1-84f2-46b3-b763-5b7cbbf306b6-dark-flowchart-START-0" data-look="classic" transform="translate(389.98046875, 25)"><g class="basic label-container outer-path"><path d="M-32.5625 -17 C-13.182518881522164 -17, 6.197462236955673 -17, 32.5625 -17 C32.5625 -17, 32.5625 -17, 32.5625 -17 C32.887852424804436 -16.9895665809966, 33.21320484960887 -16.979133161993197, 33.65169373967212 -16.965071676755716 C34.06322552409305 -16.92537170045201, 34.47475730851398 -16.88567172414831, 34.7364117486366 -16.860430234995185 C35.131458908510105 -16.796562073823317, 35.52650606838361 -16.73269391265145, 35.812196687923326 -16.686505668848113 C36.2115340418586 -16.595359523732157, 36.61087139579388 -16.5042133786162, 36.87462792646162 -16.4440126716635 C37.219348302039926 -16.341701473666035, 37.56406867761823 -16.239390275668573, 37.91933970640155 -16.133947699181366 C38.23114771268752 -16.019199470546514, 38.542955718973495 -15.904451241911664, 38.94203908294936 -15.757584874882369 C39.326338981890316 -15.587466709472674, 39.710638880831276 -15.417348544062977, 39.93852356499849 -15.316470754341125 C40.14023047536912 -15.21124038840021, 40.341937385739755 -15.106010022459294, 40.90469838406694 -14.812417970097622 C41.22818423111814 -14.616318948601338, 41.55167007816934 -14.420219927105054, 41.836593320579325 -14.247497783161291 C42.15388925164879 -14.026165877166711, 42.47118518271826 -13.804833971172133, 42.730379018350675 -13.624031571755262 C42.925703911869824 -13.468265166987452, 43.121028805388974 -13.312498762219642, 43.5823827202324 -12.944581292275288 C43.827665483665214 -12.7218219763519, 44.07294824709802 -12.499062660428512, 44.38910336025927 -12.21193895166137 C44.65184666701779 -11.94063491580653, 44.914589973776316 -11.66933087995169, 45.14722595028036 -11.42911513444239 C45.42671108630854 -11.100815990508925, 45.706196222336736 -10.77251684657546, 45.85363520195651 -10.59932663159847 C46.01472788929543 -10.383477106410039, 46.17582057663436 -10.167627581221605, 46.50542832814825 -9.725983222076888 C46.67958792072094 -9.458427319486427, 46.85374751329364 -9.190871416895966, 47.09992697109088 -8.812673661278927 C47.23879616780202 -8.566097340487302, 47.377665364513156 -8.319521019695678, 47.634688208341004 -7.863150934094199 C47.757966408377776 -7.607161113986923, 47.88124460841454 -7.351171293879646, 48.10751459126881 -6.881316833080699 C48.242489738270024 -6.547925610420755, 48.377464885271245 -6.2145343877608115, 48.516463174845924 -5.871205925162238 C48.639726435947466 -5.499956622057993, 48.762989697049 -5.128707318953747, 48.859853501623235 -4.836968972727556 C48.95224681081483 -4.484633241266511, 49.04464012000641 -4.132297509805467, 49.136274507091 -3.7828558772573464 C49.189647783002705 -3.5087953858966143, 49.2430210589144 -3.234734894535882, 49.34459031804565 -2.713198215567453 C49.39788994598094 -2.299816826503318, 49.45118957391624 -1.8864354374391832, 49.483944920136366 -1.632391440430593 C49.5038491904329 -1.3223663641242251, 49.523753460729445 -1.0123412878178573, 49.5537656754117 -0.5448768187181379 C49.5537656754117 -0.15580083663938554, 49.5537656754117 0.23327514543936678, 49.5537656754117 0.5448768187181336 C49.535259320829915 0.8331282293899446, 49.51675296624813 1.1213796400617555, 49.483944920136366 1.6323914404305815 C49.44704599663998 1.9185722045519629, 49.41014707314359 2.2047529686733442, 49.344590318045654 2.7131982155674415 C49.292869819865224 2.9787720425927913, 49.241149321684794 3.2443458696181415, 49.136274507091 3.782855877257343 C49.05392747782805 4.096880789265242, 48.97158044856509 4.410905701273141, 48.859853501623235 4.836968972727545 C48.78857349808723 5.051652986451721, 48.71729349455123 5.266337000175896, 48.516463174845924 5.871205925162227 C48.41673892028321 6.117526761969434, 48.31701466572049 6.363847598776641, 48.10751459126881 6.881316833080694 C47.98037348893173 7.145328052467424, 47.85323238659466 7.4093392718541535, 47.634688208341004 7.863150934094196 C47.514891410190344 8.075862279951915, 47.395094612039685 8.288573625809633, 47.09992697109089 8.812673661278923 C46.931128063019514 9.071994112930014, 46.762329154948134 9.331314564581103, 46.505428328148255 9.725983222076879 C46.37230454428431 9.904356964628361, 46.23918076042037 10.082730707179842, 45.85363520195651 10.599326631598467 C45.67550647656766 10.808566768251813, 45.497377751178824 11.017806904905157, 45.14722595028037 11.42911513444238 C44.960216756753596 11.622217480499106, 44.77320756322682 11.815319826555832, 44.38910336025927 12.211938951661365 C44.21249203174195 12.372332687341109, 44.03588070322463 12.532726423020854, 43.58238272023242 12.944581292275275 C43.402306151796985 13.088187563563793, 43.22222958336155 13.231793834852308, 42.730379018350675 13.62403157175526 C42.530666635758784 13.763342284441663, 42.33095425316689 13.902652997128065, 41.83659332057934 14.247497783161286 C41.49493884490454 14.45461073409991, 41.15328436922974 14.661723685038533, 40.90469838406695 14.81241797009762 C40.60866701343117 14.966857346541161, 40.31263564279539 15.121296722984702, 39.93852356499849 15.316470754341124 C39.674962501535866 15.433141418874861, 39.41140143807325 15.5498120834086, 38.942039082949364 15.757584874882367 C38.61894863917069 15.87648514480824, 38.29585819539202 15.995385414734114, 37.91933970640156 16.133947699181363 C37.629526233822816 16.219962816580775, 37.33971276124407 16.305977933980184, 36.87462792646164 16.444012671663497 C36.51941207115606 16.52508837263691, 36.164196215850474 16.606164073610326, 35.81219668792333 16.68650566884811 C35.42511601725108 16.749085869826967, 35.03803534657882 16.81166607080582, 34.73641174863661 16.86043023499518 C34.469290652239266 16.88619908590451, 34.20216955584193 16.911967936813845, 33.65169373967212 16.965071676755716 C33.276541838814175 16.977102068027353, 32.901389937956225 16.989132459298993, 32.5625 17 C32.5625 17, 32.5625 17, 32.5625 17 C12.077241540651364 17, -8.408016918697271 17, -32.5625 17 C-32.82593081801782 16.99155228640315, -33.08936163603563 16.9831045728063, -33.65169373967211 16.965071676755716 C-33.919590491978894 16.939227999253664, -34.18748724428567 16.91338432175161, -34.736411748636606 16.86043023499518 C-35.11467351102593 16.799275806715855, -35.49293527341525 16.738121378436528, -35.812196687923326 16.68650566884811 C-36.117677948932844 16.616781564474213, -36.423159209942355 16.54705746010032, -36.87462792646162 16.4440126716635 C-37.130939880254296 16.367940629186737, -37.387251834046964 16.29186858670997, -37.919339706401544 16.13394769918137 C-38.2840682390841 15.999724227640591, -38.64879677176666 15.865500756099813, -38.942039082949364 15.757584874882369 C-39.220867659504194 15.634155735197396, -39.49969623605902 15.510726595512422, -39.93852356499848 15.316470754341127 C-40.29693798094758 15.129486183115871, -40.65535239689669 14.942501611890615, -40.90469838406693 14.812417970097624 C-41.13801434688914 14.67098046231801, -41.371330309711354 14.529542954538398, -41.83659332057932 14.247497783161299 C-42.12786995855585 14.044315809671305, -42.41914659653238 13.841133836181312, -42.73037901835067 13.624031571755264 C-43.037681040086426 13.37896638707124, -43.34498306182218 13.133901202387214, -43.5823827202324 12.94458129227529 C-43.8362519794091 12.71402394810353, -44.090121238585795 12.483466603931774, -44.38910336025926 12.211938951661377 C-44.64924573862781 11.943320587909382, -44.90938811699636 11.674702224157386, -45.147225950280365 11.429115134442386 C-45.33928629119585 11.203510129460073, -45.53134663211132 10.97790512447776, -45.85363520195651 10.599326631598473 C-46.06586648503044 10.314956046947044, -46.278097768104374 10.030585462295614, -46.50542832814825 9.72598322207689 C-46.65347687051364 9.498540904403566, -46.801525412879045 9.271098586730242, -47.09992697109088 8.812673661278936 C-47.22523322994355 8.59017971005141, -47.350539488796215 8.367685758823885, -47.634688208341004 7.863150934094201 C-47.78403467468365 7.55302980123122, -47.9333811410263 7.242908668368238, -48.10751459126881 6.881316833080701 C-48.253694387775084 6.520249909516099, -48.399874184281366 6.159182985951496, -48.516463174845924 5.87120592516224 C-48.63420177990872 5.516596005812269, -48.751940384971526 5.161986086462297, -48.859853501623235 4.8369689727275516 C-48.92539356875731 4.587036291500538, -48.99093363589139 4.337103610273524, -49.136274507091 3.782855877257349 C-49.2050633250375 3.429639835623896, -49.273852142984 3.0764237939904437, -49.34459031804565 2.713198215567455 C-49.38096709997205 2.4310670783544173, -49.41734388189844 2.1489359411413793, -49.483944920136366 1.6323914404306026 C-49.501823068367486 1.3539248507494088, -49.519701216598605 1.0754582610682153, -49.5537656754117 0.54487681871814 C-49.5537656754117 0.11656666154019002, -49.5537656754117 -0.31174349563775994, -49.5537656754117 -0.5448768187181317 C-49.53064106202093 -0.9050613381312513, -49.50751644863016 -1.2652458575443712, -49.483944920136366 -1.6323914404305793 C-49.444777092663614 -1.9361693757468956, -49.40560926519086 -2.239947311063212, -49.344590318045654 -2.713198215567447 C-49.299637666838095 -2.944020578772062, -49.254685015630535 -3.174842941976677, -49.136274507091 -3.782855877257341 C-49.053252239407115 -4.099455766014443, -48.97022997172322 -4.416055654771545, -48.859853501623235 -4.836968972727544 C-48.788299479559676 -5.052478286597803, -48.71674545749611 -5.267987600468063, -48.51646317484593 -5.871205925162218 C-48.42965481246158 -6.085624258577072, -48.34284645007723 -6.300042591991926, -48.10751459126881 -6.881316833080692 C-47.97589423013888 -7.154629329191572, -47.84427386900895 -7.427941825302451, -47.634688208341004 -7.863150934094194 C-47.42260621098008 -8.239723996039487, -47.21052421361915 -8.61629705798478, -47.09992697109088 -8.812673661278929 C-46.978848921681966 -8.998682059179675, -46.85777087227306 -9.184690457080421, -46.50542832814825 -9.725983222076884 C-46.358318734932176 -9.92309667502677, -46.21120914171611 -10.120210127976657, -45.85363520195651 -10.599326631598467 C-45.70892280821292 -10.769314043658165, -45.56421041446932 -10.939301455717864, -45.14722595028037 -11.42911513444238 C-44.99327851608702 -11.588078499566429, -44.839331081893654 -11.747041864690475, -44.38910336025928 -12.21193895166136 C-44.07633416213873 -12.495987661974937, -43.76356496401819 -12.780036372288516, -43.58238272023242 -12.944581292275274 C-43.2526699487733 -13.207518453488582, -42.92295717731419 -13.47045561470189, -42.730379018350675 -13.624031571755259 C-42.51209021574034 -13.776300390886265, -42.293801413130005 -13.92856921001727, -41.83659332057934 -14.247497783161284 C-41.58107928189022 -14.402391894981792, -41.325565243201105 -14.557286006802297, -40.90469838406695 -14.812417970097618 C-40.626755579807075 -14.95742055304913, -40.3488127755472 -15.102423136000642, -39.93852356499849 -15.316470754341124 C-39.69054815146994 -15.426242113980926, -39.4425727379414 -15.536013473620729, -38.94203908294937 -15.757584874882365 C-38.61371324613377 -15.878411817841272, -38.28538740931817 -15.999238760800178, -37.919339706401566 -16.133947699181363 C-37.54644887615758 -16.244619740253867, -37.173558045913595 -16.355291781326372, -36.87462792646164 -16.444012671663494 C-36.530013232212085 -16.522668726804913, -36.18539853796252 -16.60132478194633, -35.81219668792333 -16.68650566884811 C-35.41689529926082 -16.75041493175901, -35.02159391059831 -16.81432419466991, -34.73641174863661 -16.86043023499518 C-34.496586260001855 -16.883565911451427, -34.256760771367105 -16.906701587907673, -33.65169373967212 -16.965071676755716 C-33.23986719654611 -16.978278152422032, -32.8280406534201 -16.991484628088344, -32.56250000000001 -17 C-32.56250000000001 -17, -32.5625 -17, -32.5625 -17" stroke="none" stroke-width="0" fill="#2d2d2d" style=""></path><path d="M-32.5625 -17 C-8.200532703581707 -17, 16.161434592836585 -17, 32.5625 -17 M-32.5625 -17 C-12.184872419749695 -17, 8.19275516050061 -17, 32.5625 -17 M32.5625 -17 C32.5625 -17, 32.5625 -17, 32.5625 -17 M32.5625 -17 C32.5625 -17, 32.5625 -17, 32.5625 -17 M32.5625 -17 C32.95597304053452 -16.98738208543887, 33.34944608106904 -16.97476417087774, 33.65169373967212 -16.965071676755716 M32.5625 -17 C32.85100752629518 -16.990748125177547, 33.13951505259036 -16.981496250355093, 33.65169373967212 -16.965071676755716 M33.65169373967212 -16.965071676755716 C33.96611793039571 -16.934739553227026, 34.2805421211193 -16.904407429698338, 34.7364117486366 -16.860430234995185 M33.65169373967212 -16.965071676755716 C33.88793695359402 -16.942281578032706, 34.124180167515924 -16.91949147930969, 34.7364117486366 -16.860430234995185 M34.7364117486366 -16.860430234995185 C34.95790333209949 -16.82462119347379, 35.17939491556238 -16.788812151952392, 35.812196687923326 -16.686505668848113 M34.7364117486366 -16.860430234995185 C34.99698583051669 -16.818302638219, 35.25755991239678 -16.776175041442812, 35.812196687923326 -16.686505668848113 M35.812196687923326 -16.686505668848113 C36.17285074041921 -16.604188734853565, 36.53350479291509 -16.521871800859017, 36.87462792646162 -16.4440126716635 M35.812196687923326 -16.686505668848113 C36.050165487417594 -16.63219084325509, 36.28813428691187 -16.57787601766206, 36.87462792646162 -16.4440126716635 M36.87462792646162 -16.4440126716635 C37.273473504610514 -16.32563739765207, 37.67231908275941 -16.207262123640643, 37.91933970640155 -16.133947699181366 M36.87462792646162 -16.4440126716635 C37.133719129473356 -16.367115762607096, 37.39281033248509 -16.290218853550687, 37.91933970640155 -16.133947699181366 M37.91933970640155 -16.133947699181366 C38.16473002547761 -16.043641793398134, 38.41012034455367 -15.9533358876149, 38.94203908294936 -15.757584874882369 M37.91933970640155 -16.133947699181366 C38.17484173659124 -16.039920590236683, 38.43034376678092 -15.945893481292003, 38.94203908294936 -15.757584874882369 M38.94203908294936 -15.757584874882369 C39.1786236460183 -15.65285590684346, 39.415208209087254 -15.548126938804549, 39.93852356499849 -15.316470754341125 M38.94203908294936 -15.757584874882369 C39.28071723320486 -15.607662104294631, 39.61939538346037 -15.457739333706893, 39.93852356499849 -15.316470754341125 M39.93852356499849 -15.316470754341125 C40.17033213613082 -15.195536371261866, 40.40214070726314 -15.074601988182609, 40.90469838406694 -14.812417970097622 M39.93852356499849 -15.316470754341125 C40.16553166603268 -15.198040773437219, 40.392539767066864 -15.07961079253331, 40.90469838406694 -14.812417970097622 M40.90469838406694 -14.812417970097622 C41.194488703103104 -14.636745375700956, 41.48427902213926 -14.461072781304289, 41.836593320579325 -14.247497783161291 M40.90469838406694 -14.812417970097622 C41.092827319047046 -14.698373104144343, 41.28095625402715 -14.584328238191064, 41.836593320579325 -14.247497783161291 M41.836593320579325 -14.247497783161291 C42.15974481358918 -14.022081290640289, 42.48289630659903 -13.796664798119286, 42.730379018350675 -13.624031571755262 M41.836593320579325 -14.247497783161291 C42.162513821031105 -14.020149750917199, 42.48843432148289 -13.792801718673108, 42.730379018350675 -13.624031571755262 M42.730379018350675 -13.624031571755262 C43.02850058149565 -13.386287558495118, 43.32662214464063 -13.148543545234974, 43.5823827202324 -12.944581292275288 M42.730379018350675 -13.624031571755262 C43.009964279213186 -13.401069766293665, 43.2895495400757 -13.178107960832067, 43.5823827202324 -12.944581292275288 M43.5823827202324 -12.944581292275288 C43.74877396281098 -12.793469168236452, 43.91516520538956 -12.642357044197617, 44.38910336025927 -12.21193895166137 M43.5823827202324 -12.944581292275288 C43.796042393034476 -12.750541230561604, 44.00970206583656 -12.55650116884792, 44.38910336025927 -12.21193895166137 M44.38910336025927 -12.21193895166137 C44.65312024579201 -11.939319841159392, 44.91713713132474 -11.666700730657414, 45.14722595028036 -11.42911513444239 M44.38910336025927 -12.21193895166137 C44.576446996597824 -12.018491265943215, 44.763790632936384 -11.825043580225058, 45.14722595028036 -11.42911513444239 M45.14722595028036 -11.42911513444239 C45.31770906582798 -11.228855966156075, 45.48819218137559 -11.02859679786976, 45.85363520195651 -10.59932663159847 M45.14722595028036 -11.42911513444239 C45.39934440660656 -11.132962449695068, 45.65146286293276 -10.836809764947745, 45.85363520195651 -10.59932663159847 M45.85363520195651 -10.59932663159847 C46.03914195799634 -10.350764478518235, 46.22464871403618 -10.102202325438, 46.50542832814825 -9.725983222076888 M45.85363520195651 -10.59932663159847 C46.07545593805817 -10.302107053507028, 46.29727667415983 -10.004887475415583, 46.50542832814825 -9.725983222076888 M46.50542832814825 -9.725983222076888 C46.67681391500566 -9.462688937189942, 46.848199501863064 -9.199394652302995, 47.09992697109088 -8.812673661278927 M46.50542832814825 -9.725983222076888 C46.72338959435592 -9.391136186386838, 46.941350860563595 -9.056289150696788, 47.09992697109088 -8.812673661278927 M47.09992697109088 -8.812673661278927 C47.27591895372113 -8.500182074998225, 47.45191093635138 -8.187690488717523, 47.634688208341004 -7.863150934094199 M47.09992697109088 -8.812673661278927 C47.266990007912796 -8.516036322434731, 47.43405304473471 -8.219398983590535, 47.634688208341004 -7.863150934094199 M47.634688208341004 -7.863150934094199 C47.76519975088772 -7.592140923496284, 47.89571129343443 -7.321130912898369, 48.10751459126881 -6.881316833080699 M47.634688208341004 -7.863150934094199 C47.81319998694463 -7.492467406283585, 47.99171176554825 -7.12178387847297, 48.10751459126881 -6.881316833080699 M48.10751459126881 -6.881316833080699 C48.25301944423546 -6.521917033108119, 48.39852429720211 -6.1625172331355405, 48.516463174845924 -5.871205925162238 M48.10751459126881 -6.881316833080699 C48.26983042829029 -6.480393577474417, 48.43214626531177 -6.079470321868135, 48.516463174845924 -5.871205925162238 M48.516463174845924 -5.871205925162238 C48.620536004347 -5.557755144458534, 48.72460883384808 -5.2443043637548294, 48.859853501623235 -4.836968972727556 M48.516463174845924 -5.871205925162238 C48.63644174977198 -5.509849573474876, 48.756420324698034 -5.148493221787513, 48.859853501623235 -4.836968972727556 M48.859853501623235 -4.836968972727556 C48.92695564547087 -4.58107941598342, 48.994057789318504 -4.325189859239284, 49.136274507091 -3.7828558772573464 M48.859853501623235 -4.836968972727556 C48.93921612833576 -4.5343248810927, 49.01857875504828 -4.231680789457844, 49.136274507091 -3.7828558772573464 M49.136274507091 -3.7828558772573464 C49.18056641217323 -3.5554263057575577, 49.22485831725545 -3.327996734257769, 49.34459031804565 -2.713198215567453 M49.136274507091 -3.7828558772573464 C49.18341669234808 -3.540790719466607, 49.23055887760517 -3.2987255616758673, 49.34459031804565 -2.713198215567453 M49.34459031804565 -2.713198215567453 C49.373572800578366 -2.488415804282225, 49.40255528311108 -2.263633392996997, 49.483944920136366 -1.632391440430593 M49.34459031804565 -2.713198215567453 C49.38444906067227 -2.4040616787544002, 49.42430780329889 -2.0949251419413475, 49.483944920136366 -1.632391440430593 M49.483944920136366 -1.632391440430593 C49.5009753703811 -1.3671284311368477, 49.51800582062584 -1.1018654218431025, 49.5537656754117 -0.5448768187181379 M49.483944920136366 -1.632391440430593 C49.50555689504725 -1.2957674863214446, 49.52716886995813 -0.959143532212296, 49.5537656754117 -0.5448768187181379 M49.5537656754117 -0.5448768187181379 C49.5537656754117 -0.22850920867035363, 49.5537656754117 0.08785840137743062, 49.5537656754117 0.5448768187181336 M49.5537656754117 -0.5448768187181379 C49.5537656754117 -0.17799155314865406, 49.5537656754117 0.18889371242082975, 49.5537656754117 0.5448768187181336 M49.5537656754117 0.5448768187181336 C49.53304524529284 0.8676142430494322, 49.51232481517398 1.1903516673807308, 49.483944920136366 1.6323914404305815 M49.5537656754117 0.5448768187181336 C49.53057943473825 0.9060212328036196, 49.507393194064804 1.2671656468891055, 49.483944920136366 1.6323914404305815 M49.483944920136366 1.6323914404305815 C49.453389650880396 1.8693720749595313, 49.42283438162442 2.106352709488481, 49.344590318045654 2.7131982155674415 M49.483944920136366 1.6323914404305815 C49.45157926369994 1.8834130804297404, 49.419213607263515 2.1344347204288994, 49.344590318045654 2.7131982155674415 M49.344590318045654 2.7131982155674415 C49.28842343358715 3.00160329638664, 49.23225654912864 3.2900083772058384, 49.136274507091 3.782855877257343 M49.344590318045654 2.7131982155674415 C49.29060245577785 2.9904144779738733, 49.23661459351005 3.267630740380305, 49.136274507091 3.782855877257343 M49.136274507091 3.782855877257343 C49.076259199927186 4.011720254271647, 49.01624389276336 4.240584631285951, 48.859853501623235 4.836968972727545 M49.136274507091 3.782855877257343 C49.029047800017885 4.191757783675965, 48.92182109294476 4.600659690094588, 48.859853501623235 4.836968972727545 M48.859853501623235 4.836968972727545 C48.74783808633461 5.1743415563441415, 48.63582267104599 5.511714139960739, 48.516463174845924 5.871205925162227 M48.859853501623235 4.836968972727545 C48.74886453218983 5.171250064970169, 48.63787556275643 5.505531157212793, 48.516463174845924 5.871205925162227 M48.516463174845924 5.871205925162227 C48.405109177585814 6.146252451277784, 48.2937551803257 6.42129897739334, 48.10751459126881 6.881316833080694 M48.516463174845924 5.871205925162227 C48.38544378900102 6.194826341286639, 48.25442440315612 6.51844675741105, 48.10751459126881 6.881316833080694 M48.10751459126881 6.881316833080694 C47.98035993829061 7.145356190663661, 47.853205285312406 7.4093955482466285, 47.634688208341004 7.863150934094196 M48.10751459126881 6.881316833080694 C47.9341364637167 7.24134022464031, 47.76075833616458 7.601363616199926, 47.634688208341004 7.863150934094196 M47.634688208341004 7.863150934094196 C47.43120164171202 8.22446193839318, 47.22771507508304 8.585772942692163, 47.09992697109089 8.812673661278923 M47.634688208341004 7.863150934094196 C47.50260859479318 8.097671662459513, 47.37052898124536 8.332192390824831, 47.09992697109089 8.812673661278923 M47.09992697109089 8.812673661278923 C46.874604151727866 9.158830019469397, 46.649281332364836 9.504986377659872, 46.505428328148255 9.725983222076879 M47.09992697109089 8.812673661278923 C46.939254342834865 9.059509964921965, 46.778581714578834 9.306346268565008, 46.505428328148255 9.725983222076879 M46.505428328148255 9.725983222076879 C46.36833541159602 9.909675240835243, 46.23124249504379 10.093367259593606, 45.85363520195651 10.599326631598467 M46.505428328148255 9.725983222076879 C46.35531564456946 9.927120542525657, 46.20520296099066 10.128257862974435, 45.85363520195651 10.599326631598467 M45.85363520195651 10.599326631598467 C45.69472130311027 10.785995939640264, 45.535807404264034 10.97266524768206, 45.14722595028037 11.42911513444238 M45.85363520195651 10.599326631598467 C45.633757470414714 10.857607526464815, 45.41387973887292 11.115888421331162, 45.14722595028037 11.42911513444238 M45.14722595028037 11.42911513444238 C44.89690140787718 11.68759577650082, 44.64657686547399 11.946076418559256, 44.38910336025927 12.211938951661365 M45.14722595028037 11.42911513444238 C44.94800219678551 11.634830016500175, 44.748778443290654 11.840544898557969, 44.38910336025927 12.211938951661365 M44.38910336025927 12.211938951661365 C44.214144679979036 12.370831795938864, 44.0391859996988 12.529724640216362, 43.58238272023242 12.944581292275275 M44.38910336025927 12.211938951661365 C44.10667833395074 12.46842988799806, 43.824253307642216 12.724920824334752, 43.58238272023242 12.944581292275275 M43.58238272023242 12.944581292275275 C43.32537373731912 13.149539116852363, 43.06836475440582 13.354496941429451, 42.730379018350675 13.62403157175526 M43.58238272023242 12.944581292275275 C43.257072922121566 13.204007199411386, 42.931763124010715 13.463433106547496, 42.730379018350675 13.62403157175526 M42.730379018350675 13.62403157175526 C42.37423885723162 13.872459531092819, 42.01809869611257 14.120887490430379, 41.83659332057934 14.247497783161286 M42.730379018350675 13.62403157175526 C42.41867475134654 13.8414629749571, 42.10697048434242 14.05889437815894, 41.83659332057934 14.247497783161286 M41.83659332057934 14.247497783161286 C41.51254549600938 14.443937478731991, 41.188497671439414 14.640377174302696, 40.90469838406695 14.81241797009762 M41.83659332057934 14.247497783161286 C41.578314575249884 14.404067876394384, 41.32003582992043 14.560637969627482, 40.90469838406695 14.81241797009762 M40.90469838406695 14.81241797009762 C40.603319549757906 14.969647114914288, 40.30194071544887 15.126876259730956, 39.93852356499849 15.316470754341124 M40.90469838406695 14.81241797009762 C40.55911597491192 14.992708091597702, 40.21353356575688 15.172998213097783, 39.93852356499849 15.316470754341124 M39.93852356499849 15.316470754341124 C39.733380566286385 15.407281474520127, 39.52823756757428 15.498092194699133, 38.942039082949364 15.757584874882367 M39.93852356499849 15.316470754341124 C39.724035185782455 15.411418397248356, 39.50954680656641 15.506366040155589, 38.942039082949364 15.757584874882367 M38.942039082949364 15.757584874882367 C38.68046234675531 15.85384753179062, 38.41888561056127 15.950110188698872, 37.91933970640156 16.133947699181363 M38.942039082949364 15.757584874882367 C38.594967427170985 15.885310452504028, 38.2478957713926 16.01303603012569, 37.91933970640156 16.133947699181363 M37.91933970640156 16.133947699181363 C37.651205732692134 16.21352845511437, 37.383071758982716 16.29310921104738, 36.87462792646164 16.444012671663497 M37.91933970640156 16.133947699181363 C37.63158513728517 16.21935174484055, 37.343830568168784 16.30475579049974, 36.87462792646164 16.444012671663497 M36.87462792646164 16.444012671663497 C36.51969353056696 16.525024131363068, 36.16475913467227 16.60603559106264, 35.81219668792333 16.68650566884811 M36.87462792646164 16.444012671663497 C36.63128465086632 16.499554186354853, 36.38794137527099 16.55509570104621, 35.81219668792333 16.68650566884811 M35.81219668792333 16.68650566884811 C35.41646715550451 16.750484150721228, 35.020737623085694 16.814462632594342, 34.73641174863661 16.86043023499518 M35.81219668792333 16.68650566884811 C35.41338987767655 16.750981661135803, 35.014583067429776 16.8154576534235, 34.73641174863661 16.86043023499518 M34.73641174863661 16.86043023499518 C34.44786845132511 16.888265659862736, 34.15932515401361 16.91610108473029, 33.65169373967212 16.965071676755716 M34.73641174863661 16.86043023499518 C34.40712970360449 16.89219567785983, 34.07784765857237 16.92396112072448, 33.65169373967212 16.965071676755716 M33.65169373967212 16.965071676755716 C33.262337481212995 16.977557574128518, 32.87298122275388 16.99004347150132, 32.5625 17 M33.65169373967212 16.965071676755716 C33.40486982257923 16.972986839363276, 33.15804590548634 16.980902001970836, 32.5625 17 M32.5625 17 C32.5625 17, 32.5625 17, 32.5625 17 M32.5625 17 C32.5625 17, 32.5625 17, 32.5625 17 M32.5625 17 C7.644331199094349 17, -17.2738376018113 17, -32.5625 17 M32.5625 17 C6.52793790851506 17, -19.50662418296988 17, -32.5625 17 M-32.5625 17 C-32.812738804122404 16.991975328612078, -33.06297760824481 16.983950657224156, -33.65169373967211 16.965071676755716 M-32.5625 17 C-32.87791159743386 16.989885363981728, -33.19332319486772 16.97977072796345, -33.65169373967211 16.965071676755716 M-33.65169373967211 16.965071676755716 C-34.014953206593525 16.930028472865235, -34.37821267351493 16.894985268974754, -34.736411748636606 16.86043023499518 M-33.65169373967211 16.965071676755716 C-33.92748897020059 16.938466042558925, -34.20328420072907 16.911860408362138, -34.736411748636606 16.86043023499518 M-34.736411748636606 16.86043023499518 C-35.143198331377675 16.79466413497467, -35.549984914118745 16.72889803495416, -35.812196687923326 16.68650566884811 M-34.736411748636606 16.86043023499518 C-35.09338696572758 16.802717250280068, -35.45036218281856 16.74500426556495, -35.812196687923326 16.68650566884811 M-35.812196687923326 16.68650566884811 C-36.147748271912214 16.609918209481368, -36.4832998559011 16.533330750114626, -36.87462792646162 16.4440126716635 M-35.812196687923326 16.68650566884811 C-36.0674465473981 16.62824655408399, -36.32269640687287 16.56998743931987, -36.87462792646162 16.4440126716635 M-36.87462792646162 16.4440126716635 C-37.13900938948523 16.36554564120471, -37.40339085250885 16.287078610745922, -37.919339706401544 16.13394769918137 M-36.87462792646162 16.4440126716635 C-37.18324278963052 16.35241740022745, -37.49185765279941 16.260822128791393, -37.919339706401544 16.13394769918137 M-37.919339706401544 16.13394769918137 C-38.21334907365164 16.025749534240536, -38.50735844090174 15.917551369299703, -38.942039082949364 15.757584874882369 M-37.919339706401544 16.13394769918137 C-38.21217830323979 16.02618038857458, -38.50501690007804 15.91841307796779, -38.942039082949364 15.757584874882369 M-38.942039082949364 15.757584874882369 C-39.3075254332002 15.595794909393696, -39.67301178345103 15.434004943905023, -39.93852356499848 15.316470754341127 M-38.942039082949364 15.757584874882369 C-39.20298329445139 15.64207261308543, -39.46392750595342 15.526560351288492, -39.93852356499848 15.316470754341127 M-39.93852356499848 15.316470754341127 C-40.167071968648855 15.197237198548969, -40.39562037229922 15.07800364275681, -40.90469838406693 14.812417970097624 M-39.93852356499848 15.316470754341127 C-40.136532290350324 15.213169729155712, -40.334541015702165 15.1098687039703, -40.90469838406693 14.812417970097624 M-40.90469838406693 14.812417970097624 C-41.21233162420944 14.625928892069648, -41.51996486435195 14.439439814041673, -41.83659332057932 14.247497783161299 M-40.90469838406693 14.812417970097624 C-41.196277020535945 14.635661287163844, -41.487855657004964 14.458904604230064, -41.83659332057932 14.247497783161299 M-41.83659332057932 14.247497783161299 C-42.04499330092331 14.10212697836308, -42.25339328126729 13.95675617356486, -42.73037901835067 13.624031571755264 M-41.83659332057932 14.247497783161299 C-42.14280596906297 14.033897095311012, -42.44901861754661 13.820296407460726, -42.73037901835067 13.624031571755264 M-42.73037901835067 13.624031571755264 C-43.03905308399623 13.377872218564793, -43.347727149641784 13.131712865374322, -43.5823827202324 12.94458129227529 M-42.73037901835067 13.624031571755264 C-43.043740879241106 13.37413382660447, -43.35710274013155 13.124236081453676, -43.5823827202324 12.94458129227529 M-43.5823827202324 12.94458129227529 C-43.82080507767082 12.728052415559612, -44.059227435109236 12.511523538843932, -44.38910336025926 12.211938951661377 M-43.5823827202324 12.94458129227529 C-43.803552055931696 12.74372115341314, -44.024721391631 12.54286101455099, -44.38910336025926 12.211938951661377 M-44.38910336025926 12.211938951661377 C-44.58712382328128 12.007466565808775, -44.7851442863033 11.802994179956174, -45.147225950280365 11.429115134442386 M-44.38910336025926 12.211938951661377 C-44.594242746403324 12.000115693210805, -44.79938213254739 11.788292434760232, -45.147225950280365 11.429115134442386 M-45.147225950280365 11.429115134442386 C-45.38837228001794 11.145850933917751, -45.629518609755515 10.862586733393119, -45.85363520195651 10.599326631598473 M-45.147225950280365 11.429115134442386 C-45.386835746902996 11.147655833145773, -45.626445543525634 10.866196531849159, -45.85363520195651 10.599326631598473 M-45.85363520195651 10.599326631598473 C-46.077429338567455 10.299462876605068, -46.3012234751784 9.999599121611663, -46.50542832814825 9.72598322207689 M-45.85363520195651 10.599326631598473 C-46.09170145308347 10.280339543369989, -46.32976770421043 9.961352455141506, -46.50542832814825 9.72598322207689 M-46.50542832814825 9.72598322207689 C-46.69964464418996 9.427614806253661, -46.89386096023167 9.129246390430431, -47.09992697109088 8.812673661278936 M-46.50542832814825 9.72598322207689 C-46.650046338427344 9.503811122914971, -46.79466434870644 9.281639023753053, -47.09992697109088 8.812673661278936 M-47.09992697109088 8.812673661278936 C-47.29367520747189 8.468654048448093, -47.487423443852904 8.12463443561725, -47.634688208341004 7.863150934094201 M-47.09992697109088 8.812673661278936 C-47.29409381826896 8.467910762588952, -47.488260665447044 8.123147863898968, -47.634688208341004 7.863150934094201 M-47.634688208341004 7.863150934094201 C-47.759688568569516 7.603585011500452, -47.88468892879802 7.344019088906702, -48.10751459126881 6.881316833080701 M-47.634688208341004 7.863150934094201 C-47.732968914238846 7.6590689454271, -47.83124962013669 7.454986956759998, -48.10751459126881 6.881316833080701 M-48.10751459126881 6.881316833080701 C-48.255926353567496 6.5147369108567235, -48.40433811586618 6.1481569886327465, -48.516463174845924 5.87120592516224 M-48.10751459126881 6.881316833080701 C-48.24658753749633 6.537803967106216, -48.38566048372386 6.194291101131731, -48.516463174845924 5.87120592516224 M-48.516463174845924 5.87120592516224 C-48.61629882161277 5.570516863750647, -48.71613446837962 5.269827802339053, -48.859853501623235 4.8369689727275516 M-48.516463174845924 5.87120592516224 C-48.58917709854639 5.6522031723668436, -48.66189102224686 5.433200419571446, -48.859853501623235 4.8369689727275516 M-48.859853501623235 4.8369689727275516 C-48.96052905164029 4.453049467453126, -49.061204601657344 4.0691299621787, -49.136274507091 3.782855877257349 M-48.859853501623235 4.8369689727275516 C-48.91669754710869 4.620197990926352, -48.973541592594145 4.403427009125152, -49.136274507091 3.782855877257349 M-49.136274507091 3.782855877257349 C-49.21437888325249 3.381806413033828, -49.292483259413984 2.980756948810307, -49.34459031804565 2.713198215567455 M-49.136274507091 3.782855877257349 C-49.19593584424704 3.4765075203891636, -49.255597181403076 3.1701591635209785, -49.34459031804565 2.713198215567455 M-49.34459031804565 2.713198215567455 C-49.38498666129813 2.399892154461453, -49.42538300455061 2.0865860933554505, -49.483944920136366 1.6323914404306026 M-49.34459031804565 2.713198215567455 C-49.392904727952306 2.338481193090753, -49.44121913785897 1.9637641706140512, -49.483944920136366 1.6323914404306026 M-49.483944920136366 1.6323914404306026 C-49.50090279786259 1.3682588066921628, -49.517860675588814 1.1041261729537233, -49.5537656754117 0.54487681871814 M-49.483944920136366 1.6323914404306026 C-49.50895353233156 1.2428621189020281, -49.53396214452676 0.8533327973734538, -49.5537656754117 0.54487681871814 M-49.5537656754117 0.54487681871814 C-49.5537656754117 0.13936932897370224, -49.5537656754117 -0.2661381607707355, -49.5537656754117 -0.5448768187181317 M-49.5537656754117 0.54487681871814 C-49.5537656754117 0.2398446506437273, -49.5537656754117 -0.0651875174306854, -49.5537656754117 -0.5448768187181317 M-49.5537656754117 -0.5448768187181317 C-49.52952019337478 -0.9225197720439643, -49.50527471133786 -1.300162725369797, -49.483944920136366 -1.6323914404305793 M-49.5537656754117 -0.5448768187181317 C-49.530614967204414 -0.9054677859618508, -49.50746425899713 -1.26605875320557, -49.483944920136366 -1.6323914404305793 M-49.483944920136366 -1.6323914404305793 C-49.444815586850005 -1.9358708224388026, -49.40568625356364 -2.239350204447026, -49.344590318045654 -2.713198215567447 M-49.483944920136366 -1.6323914404305793 C-49.43755797861091 -1.9921593987643467, -49.391171037085456 -2.351927357098114, -49.344590318045654 -2.713198215567447 M-49.344590318045654 -2.713198215567447 C-49.26701280388767 -3.111542354755296, -49.18943528972967 -3.509886493943145, -49.136274507091 -3.782855877257341 M-49.344590318045654 -2.713198215567447 C-49.294290231648986 -2.9714785282873226, -49.24399014525231 -3.2297588410071985, -49.136274507091 -3.782855877257341 M-49.136274507091 -3.782855877257341 C-49.0486973876024 -4.116825390031065, -48.9611202681138 -4.4507949028047875, -48.859853501623235 -4.836968972727544 M-49.136274507091 -3.782855877257341 C-49.058124764025585 -4.080874717878675, -48.97997502096017 -4.37889355850001, -48.859853501623235 -4.836968972727544 M-48.859853501623235 -4.836968972727544 C-48.75070016243077 -5.165721439152417, -48.64154682323831 -5.494473905577291, -48.51646317484593 -5.871205925162218 M-48.859853501623235 -4.836968972727544 C-48.77493297494867 -5.092736068822863, -48.690012448274096 -5.348503164918183, -48.51646317484593 -5.871205925162218 M-48.51646317484593 -5.871205925162218 C-48.35719538182931 -6.2646004531465715, -48.19792758881269 -6.657994981130925, -48.10751459126881 -6.881316833080692 M-48.51646317484593 -5.871205925162218 C-48.39805422352423 -6.16367832420816, -48.27964527220252 -6.456150723254103, -48.10751459126881 -6.881316833080692 M-48.10751459126881 -6.881316833080692 C-47.98731368296569 -7.130916591059548, -47.86711277466257 -7.380516349038403, -47.634688208341004 -7.863150934094194 M-48.10751459126881 -6.881316833080692 C-47.94027437130703 -7.2285947281987974, -47.77303415134525 -7.575872623316903, -47.634688208341004 -7.863150934094194 M-47.634688208341004 -7.863150934094194 C-47.480888964365725 -8.13623706563452, -47.327089720390454 -8.409323197174846, -47.09992697109088 -8.812673661278929 M-47.634688208341004 -7.863150934094194 C-47.51234794259574 -8.080378464220159, -47.39000767685047 -8.297605994346124, -47.09992697109088 -8.812673661278929 M-47.09992697109088 -8.812673661278929 C-46.9192282230358 -9.090275462699438, -46.73852947498073 -9.367877264119945, -46.50542832814825 -9.725983222076884 M-47.09992697109088 -8.812673661278929 C-46.91109284539191 -9.102773587415237, -46.72225871969294 -9.392873513551546, -46.50542832814825 -9.725983222076884 M-46.50542832814825 -9.725983222076884 C-46.36375934818495 -9.915806748918126, -46.22209036822164 -10.105630275759365, -45.85363520195651 -10.599326631598467 M-46.50542832814825 -9.725983222076884 C-46.2515984247764 -10.066092168215253, -45.997768521404545 -10.406201114353621, -45.85363520195651 -10.599326631598467 M-45.85363520195651 -10.599326631598467 C-45.70013747808242 -10.779633792328896, -45.54663975420832 -10.959940953059323, -45.14722595028037 -11.42911513444238 M-45.85363520195651 -10.599326631598467 C-45.588664678219615 -10.910576086029746, -45.323694154482716 -11.221825540461024, -45.14722595028037 -11.42911513444238 M-45.14722595028037 -11.42911513444238 C-44.97987120556342 -11.601922648442708, -44.81251646084646 -11.774730162443035, -44.38910336025928 -12.21193895166136 M-45.14722595028037 -11.42911513444238 C-44.95439097227181 -11.628233081282348, -44.761555994263254 -11.827351028122315, -44.38910336025928 -12.21193895166136 M-44.38910336025928 -12.21193895166136 C-44.130904776427634 -12.446428073937092, -43.872706192595984 -12.680917196212823, -43.58238272023242 -12.944581292275274 M-44.38910336025928 -12.21193895166136 C-44.07054290915364 -12.50124712470784, -43.751982458048005 -12.79055529775432, -43.58238272023242 -12.944581292275274 M-43.58238272023242 -12.944581292275274 C-43.29564020206476 -13.173250819975111, -43.008897683897096 -13.401920347674949, -42.730379018350675 -13.624031571755259 M-43.58238272023242 -12.944581292275274 C-43.31005076879067 -13.161758776492485, -43.03771881734892 -13.378936260709697, -42.730379018350675 -13.624031571755259 M-42.730379018350675 -13.624031571755259 C-42.40932021585592 -13.847988293964043, -42.08826141336117 -14.071945016172828, -41.83659332057934 -14.247497783161284 M-42.730379018350675 -13.624031571755259 C-42.40710359517778 -13.84953451259315, -42.08382817200489 -14.075037453431042, -41.83659332057934 -14.247497783161284 M-41.83659332057934 -14.247497783161284 C-41.59152946074004 -14.39605693515096, -41.34646560090075 -14.544616087140637, -40.90469838406695 -14.812417970097618 M-41.83659332057934 -14.247497783161284 C-41.50131926014446 -14.450742888885985, -41.166045199709586 -14.653987994610686, -40.90469838406695 -14.812417970097618 M-40.90469838406695 -14.812417970097618 C-40.59403227935055 -14.974492277937024, -40.28336617463416 -15.13656658577643, -39.93852356499849 -15.316470754341124 M-40.90469838406695 -14.812417970097618 C-40.63227357858267 -14.954541816622351, -40.359848773098385 -15.096665663147084, -39.93852356499849 -15.316470754341124 M-39.93852356499849 -15.316470754341124 C-39.73660402933322 -15.405854543049927, -39.53468449366795 -15.495238331758731, -38.94203908294937 -15.757584874882365 M-39.93852356499849 -15.316470754341124 C-39.673342707568615 -15.433858453614684, -39.40816185013874 -15.551246152888245, -38.94203908294937 -15.757584874882365 M-38.94203908294937 -15.757584874882365 C-38.65676929966155 -15.862566792137253, -38.371499516373724 -15.967548709392142, -37.919339706401566 -16.133947699181363 M-38.94203908294937 -15.757584874882365 C-38.70774980957876 -15.843805493229054, -38.473460536208144 -15.93002611157574, -37.919339706401566 -16.133947699181363 M-37.919339706401566 -16.133947699181363 C-37.539799804148025 -16.24659314992461, -37.16025990189449 -16.359238600667858, -36.87462792646164 -16.444012671663494 M-37.919339706401566 -16.133947699181363 C-37.561654341696254 -16.240106837897105, -37.20396897699094 -16.346265976612848, -36.87462792646164 -16.444012671663494 M-36.87462792646164 -16.444012671663494 C-36.52132729358723 -16.52465123561499, -36.16802666071281 -16.605289799566485, -35.81219668792333 -16.68650566884811 M-36.87462792646164 -16.444012671663494 C-36.480290915277294 -16.53401752117684, -36.08595390409294 -16.62402237069018, -35.81219668792333 -16.68650566884811 M-35.81219668792333 -16.68650566884811 C-35.51752587333682 -16.73414576094416, -35.222855058750305 -16.781785853040212, -34.73641174863661 -16.86043023499518 M-35.81219668792333 -16.68650566884811 C-35.49823377858434 -16.73726475721131, -35.18427086924536 -16.788023845574514, -34.73641174863661 -16.86043023499518 M-34.73641174863661 -16.86043023499518 C-34.34646955290538 -16.898047489643268, -33.95652735717415 -16.93566474429136, -33.65169373967212 -16.965071676755716 M-34.73641174863661 -16.86043023499518 C-34.30428143433541 -16.902117326703078, -33.872151120034204 -16.943804418410977, -33.65169373967212 -16.965071676755716 M-33.65169373967212 -16.965071676755716 C-33.324498722692596 -16.975564184103785, -32.99730370571307 -16.986056691451854, -32.56250000000001 -17 M-33.65169373967212 -16.965071676755716 C-33.27541738691292 -16.977138127011216, -32.89914103415372 -16.98920457726671, -32.56250000000001 -17 M-32.56250000000001 -17 C-32.56250000000001 -17, -32.5625 -17, -32.5625 -17 M-32.56250000000001 -17 C-32.56250000000001 -17, -32.5625 -17, -32.5625 -17" stroke="#555555" stroke-width="1.3" fill="none" stroke-dasharray="0 0" style=""></path></g><g class="label" style="" transform="translate(0, -9.5)"><rect></rect><g><rect class="background" style="stroke: none"></rect><text y="-10.1" style=""><tspan class="text-outer-tspan row" x="0" y="-0.1em" dy="1.1em"><tspan font-style="normal" class="text-inner-tspan" font-weight="normal">Unique</tspan><tspan font-style="normal" class="text-inner-tspan" font-weight="normal"> IDs</tspan></tspan></text></g></g></g><g class="node default" id="g185467d1-84f2-46b3-b763-5b7cbbf306b6-dark-flowchart-Q1-1" data-look="classic" transform="translate(389.98046875, 156.3937530517578)"><polygon points="64.39374923706055,0 128.7874984741211,-64.39374923706055 64.39374923706055,-128.7874984741211 0,-64.39374923706055" class="label-container" transform="translate(-63.89374923706055, 64.39374923706055)"></polygon><g class="label" style="" transform="translate(0, -18.299999237060547)"><rect></rect><g><rect class="background" style="stroke: none"></rect><text y="-10.1" style=""><tspan class="text-outer-tspan row" x="0" y="-0.1em" dy="1.1em"><tspan font-style="normal" class="text-inner-tspan" font-weight="normal">Time</tspan></tspan><tspan class="text-outer-tspan row" x="0" y="1em" dy="1.1em"><tspan font-style="normal" class="text-inner-tspan" font-weight="normal">ordered?</tspan></tspan></text></g></g></g><g class="node default" id="g185467d1-84f2-46b3-b763-5b7cbbf306b6-dark-flowchart-Q2-3" data-look="classic" transform="translate(159.640625, 355.8968811035156)"><polygon points="62.109375,0 124.21875,-62.109375 62.109375,-124.21875 0,-62.109375" class="label-container" transform="translate(-61.609375, 62.109375)"></polygon><g class="label" style="" transform="translate(0, -9.5)"><rect></rect><g><rect class="background" style="stroke: none"></rect><text y="-10.1" style=""><tspan class="text-outer-tspan row" x="0" y="-0.1em" dy="1.1em"><tspan font-style="normal" class="text-inner-tspan" font-weight="normal">Public</tspan><tspan font-style="normal" class="text-inner-tspan" font-weight="normal"> IDs?</tspan></tspan></text></g></g></g><g class="node default" id="g185467d1-84f2-46b3-b763-5b7cbbf306b6-dark-flowchart-UUID4-5" data-look="classic" transform="translate(66.03125, 741.7015686035156)"><rect class="basic label-container" style="" x="-58.03125" y="-24.5" width="116.0625" height="49"></rect><g class="label" style="" transform="translate(0, -9.5)"><rect></rect><g><rect class="background" style="stroke: none"></rect><text y="-10.1" style=""><tspan class="text-outer-tspan row" x="0" y="-0.1em" dy="1.1em"><tspan font-style="normal" class="text-inner-tspan" font-weight="normal">UUID</tspan><tspan font-style="normal" class="text-inner-tspan" font-weight="normal"> v4</tspan></tspan></text></g></g></g><g class="node default" id="g185467d1-84f2-46b3-b763-5b7cbbf306b6-dark-flowchart-Q3-7" data-look="classic" transform="translate(230.88671875, 544.4125061035156)"><polygon points="53.40625,0 106.8125,-53.40625 53.40625,-106.8125 0,-53.40625" class="label-container" transform="translate(-52.90625, 53.40625)"></polygon><g class="label" style="" transform="translate(0, -9.5)"><rect></rect><g><rect class="background" style="stroke: none"></rect><text y="-10.1" style=""><tspan class="text-outer-tspan row" x="0" y="-0.1em" dy="1.1em"><tspan font-style="normal" class="text-inner-tspan" font-weight="normal">One</tspan><tspan font-style="normal" class="text-inner-tspan" font-weight="normal"> DB?</tspan></tspan></text></g></g></g><g class="node default" id="g185467d1-84f2-46b3-b763-5b7cbbf306b6-dark-flowchart-SEQ-9" data-look="classic" transform="translate(253.25, 741.7015686035156)"><rect class="basic label-container" style="" x="-79.1875" y="-24.5" width="158.375" height="49"></rect><g class="label" style="" transform="translate(0, -9.5)"><rect></rect><g><rect class="background" style="stroke: none"></rect><text y="-10.1" style=""><tspan class="text-outer-tspan row" x="0" y="-0.1em" dy="1.1em"><tspan font-style="normal" class="text-inner-tspan" font-weight="normal">DB</tspan><tspan font-style="normal" class="text-inner-tspan" font-weight="normal"> Sequences</tspan></tspan></text></g></g></g><g class="node default" id="g185467d1-84f2-46b3-b763-5b7cbbf306b6-dark-flowchart-Q4-13" data-look="classic" transform="translate(572.5234375, 355.8968811035156)"><polygon points="61.15625,0 122.3125,-61.15625 61.15625,-122.3125 0,-61.15625" class="label-container" transform="translate(-60.65625, 61.15625)"></polygon><g class="label" style="" transform="translate(0, -9.5)"><rect></rect><g><rect class="background" style="stroke: none"></rect><text y="-10.1" style=""><tspan class="text-outer-tspan row" x="0" y="-0.1em" dy="1.1em"><tspan font-style="normal" class="text-inner-tspan" font-weight="normal">Coord</tspan><tspan font-style="normal" class="text-inner-tspan" font-weight="normal"> IDs?</tspan></tspan></text></g></g></g><g class="node default" id="g185467d1-84f2-46b3-b763-5b7cbbf306b6-dark-flowchart-Q5-15" data-look="classic" transform="translate(431.1171875, 741.7015686035156)"><polygon points="48.6796875,0 97.359375,-48.6796875 48.6796875,-97.359375 0,-48.6796875" class="label-container" transform="translate(-48.1796875, 48.6796875)"></polygon><g class="label" style="" transform="translate(0, -9.5)"><rect></rect><g><rect class="background" style="stroke: none"></rect><text y="-10.1" style=""><tspan class="text-outer-tspan row" x="0" y="-0.1em" dy="1.1em"><tspan font-style="normal" class="text-inner-tspan" font-weight="normal">64-bit?</tspan></tspan></text></g></g></g><g class="node default" id="g185467d1-84f2-46b3-b763-5b7cbbf306b6-dark-flowchart-SNOW-17" data-look="classic" transform="translate(408.11328125, 910.0843811035156)"><rect class="basic label-container" style="" x="-66.3828125" y="-24.5" width="132.765625" height="49"></rect><g class="label" style="" transform="translate(0, -9.5)"><rect></rect><g><rect class="background" style="stroke: none"></rect><text y="-10.1" style=""><tspan class="text-outer-tspan row" x="0" y="-0.1em" dy="1.1em"><tspan font-style="normal" class="text-inner-tspan" font-weight="normal">Snowflake</tspan></tspan></text></g></g></g><g class="node default" id="g185467d1-84f2-46b3-b763-5b7cbbf306b6-dark-flowchart-UUID7-19" data-look="classic" transform="translate(582.52734375, 910.0843811035156)"><rect class="basic label-container" style="" x="-58.03125" y="-24.5" width="116.0625" height="49"></rect><g class="label" style="" transform="translate(0, -9.5)"><rect></rect><g><rect class="background" style="stroke: none"></rect><text y="-10.1" style=""><tspan class="text-outer-tspan row" x="0" y="-0.1em" dy="1.1em"><tspan font-style="normal" class="text-inner-tspan" font-weight="normal">UUID</tspan><tspan font-style="normal" class="text-inner-tspan" font-weight="normal"> v7</tspan></tspan></text></g></g></g><g class="node default" id="g185467d1-84f2-46b3-b763-5b7cbbf306b6-dark-flowchart-Q6-21" data-look="classic" transform="translate(675.4296875, 544.4125061035156)"><polygon points="41.078125,0 82.15625,-41.078125 41.078125,-82.15625 0,-41.078125" class="label-container" transform="translate(-40.578125, 41.078125)"></polygon><g class="label" style="" transform="translate(0, -9.5)"><rect></rect><g><rect class="background" style="stroke: none"></rect><text y="-10.1" style=""><tspan class="text-outer-tspan row" x="0" y="-0.1em" dy="1.1em"><tspan font-style="normal" class="text-inner-tspan" font-weight="normal">RFC?</tspan></tspan></text></g></g></g><g class="node default" id="g185467d1-84f2-46b3-b763-5b7cbbf306b6-dark-flowchart-Q7-25" data-look="classic" transform="translate(719.3359375, 741.7015686035156)"><polygon points="70.8828125,0 141.765625,-70.8828125 70.8828125,-141.765625 0,-70.8828125" class="label-container" transform="translate(-70.3828125, 70.8828125)"></polygon><g class="label" style="" transform="translate(0, -9.5)"><rect></rect><g><rect class="background" style="stroke: none"></rect><text y="-10.1" style=""><tspan class="text-outer-tspan row" x="0" y="-0.1em" dy="1.1em"><tspan font-style="normal" class="text-inner-tspan" font-weight="normal">Compact</tspan><tspan font-style="normal" class="text-inner-tspan" font-weight="normal"> str?</tspan></tspan></text></g></g></g><g class="node default" id="g185467d1-84f2-46b3-b763-5b7cbbf306b6-dark-flowchart-ULID_K-27" data-look="classic" transform="translate(741.69921875, 910.0843811035156)"><rect class="basic label-container" style="" x="-46.375" y="-24.5" width="92.75" height="49"></rect><g class="label" style="" transform="translate(0, -9.5)"><rect></rect><g><rect class="background" style="stroke: none"></rect><text y="-10.1" style=""><tspan class="text-outer-tspan row" x="0" y="-0.1em" dy="1.1em"><tspan font-style="normal" class="text-inner-tspan" font-weight="normal">ULID</tspan></tspan></text></g></g></g></g></g></g><defs><filter id="g185467d1-84f2-46b3-b763-5b7cbbf306b6-dark-drop-shadow" height="130%" width="130%"><feDropShadow dx="4" dy="4" stdDeviation="0" flood-opacity="0.06" flood-color="#000000"></feDropShadow></filter></defs><defs><filter id="g185467d1-84f2-46b3-b763-5b7cbbf306b6-dark-drop-shadow-small" height="150%" width="150%"><feDropShadow dx="2" dy="2" stdDeviation="0" flood-opacity="0.06" flood-color="#000000"></feDropShadow></filter></defs><linearGradient id="g185467d1-84f2-46b3-b763-5b7cbbf306b6-dark-gradient" gradientUnits="objectBoundingBox" x1="0%" y1="0%" x2="100%" y2="0%"><stop offset="0%" stop-color="#555555" stop-opacity="1"></stop><stop offset="100%" stop-color="#555555" stop-opacity="1"></stop></linearGradient></svg>