<svg id="g185467d1-84f2-46b3-b763-5b7cbbf306b6-light" width="100%" xmlns="http://www.w3.org/2000/svg" xmlns:xlink="http://www.w3.org/1999/xlink" class="flowchart" style="max-width: 798.71875px;" viewBox="0 0 798.71875 942.5843505859375" role="graphics-document document" aria-roledescription="flowchart-v2"><style>#g185467d1-84f2-46b3-b763-5b7cbbf306b6-light{font-family:"trebuchet ms",verdana,arial,sans-serif;font-size:16px;fill:#333;}@keyframes edge-animation-frame{from{stroke-dashoffset:0;}}@keyframes dash{to{stroke-dashoffset:0;}}#g185467d1-84f2-46b3-b763-5b7cbbf306b6-light .edge-animation-slow{stroke-dasharray:9,5!important;stroke-dashoffset:900;animation:dash 50s linear infinite;stroke-linecap:round;}#g185467d1-84f2-46b3-b763-5b7cbbf306b6-light .edge-animation-fast{stroke-dasharray:9,5!important;stroke-dashoffset:900;animation:dash 20s linear infinite;stroke-linecap:round;}#g185467d1-84f2-46b3-b763-5b7cbbf306b6-light .error-icon{fill:#552222;}#g185467d1-84f2-46b3-b763-5b7cbbf306b6-light .error-text{fill:#552222;stroke:#552222;}#g185467d1-84f2-46b3-b763-5b7cbbf306b6-light .edge-thickness-normal{stroke-width:1px;}#g185467d1-84f2-46b3-b763-5b7cbbf306b6-light .edge-thickness-thick{stroke-width:3.5px;}#g185467d1-84f2-46b3-b763-5b7cbbf306b6-light .edge-pattern-solid{stroke-dasharray:0;}#g185467d1-84f2-46b3-b763-5b7cbbf306b6-light .edge-thickness-invisible{stroke-width:0;fill:none;}#g185467d1-84f2-46b3-b763-5b7cbbf306b6-light .edge-pattern-dashed{stroke-dasharray:3;}#g185467d1-84f2-46b3-b763-5b7cbbf306b6-light .edge-pattern-dotted{stroke-dasharray:2;}#g185467d1-84f2-46b3-b763-5b7cbbf306b6-light .marker{fill:#333333;stroke:#333333;}#g185467d1-84f2-46b3-b763-5b7cbbf306b6-light .marker.cross{stroke:#333333;}#g185467d1-84f2-46b3-b763-5b7cbbf306b6-light svg{font-family:"trebuchet ms",verdana,arial,sans-serif;font-size:16px;}#g185467d1-84f2-46b3-b763-5b7cbbf306b6-light p{margin:0;}#g185467d1-84f2-46b3-b763-5b7cbbf306b6-light .label{font-family:"trebuchet ms",verdana,arial,sans-serif;color:#333;}#g185467d1-84f2-46b3-b763-5b7cbbf306b6-light .cluster-label text{fill:#333;}#g185467d1-84f2-46b3-b763-5b7cbbf306b6-light .cluster-label span{color:#333;}#g185467d1-84f2-46b3-b763-5b7cbbf306b6-light .cluster-label span p{background-color:transparent;}#g185467d1-84f2-46b3-b763-5b7cbbf306b6-light .label text,#g185467d1-84f2-46b3-b763-5b7cbbf306b6-light span{fill:#333;color:#333;}#g185467d1-84f2-46b3-b763-5b7cbbf306b6-light .node rect,#g185467d1-84f2-46b3-b763-5b7cbbf306b6-light .node circle,#g185467d1-84f2-46b3-b763-5b7cbbf306b6-light .node ellipse,#g185467d1-84f2-46b3-b763-5b7cbbf306b6-light .node polygon,#g185467d1-84f2-46b3-b763-5b7cbbf306b6-light .node path{fill:#ECECFF;stroke:#9370DB;stroke-width:1px;}#g185467d1-84f2-46b3-b763-5b7cbbf306b6-light .rough-node .label text,#g185467d1-84f2-46b3-b763-5b7cbbf306b6-light .node .label text,#g185467d1-84f2-46b3-b763-5b7cbbf306b6-light .image-shape .label,#g185467d1-84f2-46b3-b763-5b7cbbf306b6-light .icon-shape .label{text-anchor:middle;}#g185467d1-84f2-46b3-b763-5b7cbbf306b6-light .node .katex path{fill:#000;stroke:#000;stroke-width:1px;}#g185467d1-84f2-46b3-b763-5b7cbbf306b6-light .rough-node .label,#g185467d1-84f2-46b3-b763-5b7cbbf306b6-light .node .label,#g185467d1-84f2-46b3-b763-5b7cbbf306b6-light .image-shape .label,#g185467d1-84f2-46b3-b763-5b7cbbf306b6-light .icon-shape .label{text-align:center;}#g185467d1-84f2-46b3-b763-5b7cbbf306b6-light .node.clickable{cursor:pointer;}#g185467d1-84f2-46b3-b763-5b7cbbf306b6-light .root .anchor path{fill:#333333!important;stroke-width:0;stroke:#333333;}#g185467d1-84f2-46b3-b763-5b7cbbf306b6-light .arrowheadPath{fill:#333333;}#g185467d1-84f2-46b3-b763-5b7cbbf306b6-light .edgePath .path{stroke:#333333;stroke-width:1px;}#g185467d1-84f2-46b3-b763-5b7cbbf306b6-light .flowchart-link{stroke:#333333;fill:none;}#g185467d1-84f2-46b3-b763-5b7cbbf306b6-light .edgeLabel{background-color:rgba(232,232,232, 0.8);text-align:center;}#g185467d1-84f2-46b3-b763-5b7cbbf306b6-light .edgeLabel p{background-color:rgba(232,232,232, 0.8);}#g185467d1-84f2-46b3-b763-5b7cbbf306b6-light .edgeLabel rect{opacity:0.5;background-color:rgba(232,232,232, 0.8);fill:rgba(232,232,232, 0.8);}#g185467d1-84f2-46b3-b763-5b7cbbf306b6-light .labelBkg{background-color:rgba(232, 232, 232, 0.5);}#g185467d1-84f2-46b3-b763-5b7cbbf306b6-light .cluster rect{fill:#ffffde;stroke:#aaaa33;stroke-width:1px;}#g185467d1-84f2-46b3-b763-5b7cbbf306b6-light .cluster text{fill:#333;}#g185467d1-84f2-46b3-b763-5b7cbbf306b6-light .cluster span{color:#333;}#g185467d1-84f2-46b3-b763-5b7cbbf306b6-light div.mermaidTooltip{position:absolute;text-align:center;max-width:200px;padding:2px;font-family:"trebuchet ms",verdana,arial,sans-serif;font-size:12px;background:hsl(80, 100%, 96.2745098039%);border:1px solid #aaaa33;border-radius:2px;pointer-events:none;z-index:100;}#g185467d1-84f2-46b3-b763-5b7cbbf306b6-light .flowchartTitleText{text-anchor:middle;font-size:18px;fill:#333;}#g185467d1-84f2-46b3-b763-5b7cbbf306b6-light rect.text{fill:none;stroke-width:0;}#g185467d1-84f2-46b3-b763-5b7cbbf306b6-light .icon-shape,#g185467d1-84f2-46b3-b763-5b7cbbf306b6-light .image-shape{background-color:rgba(232,232,232, 0.8);text-align:center;}#g185467d1-84f2-46b3-b763-5b7cbbf306b6-light .icon-shape p,#g185467d1-84f2-46b3-b763-5b7cbbf306b6-light .image-shape p{background-color:rgba(232,232,232, 0.8);padding:2px;}#g185467d1-84f2-46b3-b763-5b7cbbf306b6-light .icon-shape .label rect,#g185467d1-84f2-46b3-b763-5b7cbbf306b6-light .image-shape .label rect{opacity:0.5;background-color:rgba(232,232,232, 0.8);fill:rgba(232,232,232, 0.8);}#g185467d1-84f2-46b3-b763-5b7cbbf306b6-light .label-icon{display:inline-block;height:1em;overflow:visible;vertical-align:-0.125em;}#g185467d1-84f2-46b3-b763-5b7cbbf306b6-light .node .label-icon path{fill:currentColor;stroke:revert;stroke-width:revert;}#g185467d1-84f2-46b3-b763-5b7cbbf306b6-light .node .neo-node{stroke:#9370DB;}#g185467d1-84f2-46b3-b763-5b7cbbf306b6-light [data-look="neo"].node rect,#g185467d1-84f2-46b3-b763-5b7cbbf306b6-light [data-look="neo"].cluster rect,#g185467d1-84f2-46b3-b763-5b7cbbf306b6-light [data-look="neo"].node polygon{stroke:#9370DB;filter:drop-shadow(1px 2px 2px rgba(185, 185, 185, 1));}#g185467d1-84f2-46b3-b763-5b7cbbf306b6-light [data-look="neo"].node path{stroke:#9370DB;stroke-width:1px;}#g185467d1-84f2-46b3-b763-5b7cbbf306b6-light [data-look="neo"].node .outer-path{filter:drop-shadow(1px 2px 2px rgba(185, 185, 185, 1));}#g185467d1-84f2-46b3-b763-5b7cbbf306b6-light [data-look="neo"].node .neo-line path{stroke:#9370DB;filter:none;}#g185467d1-84f2-46b3-b763-5b7cbbf306b6-light [data-look="neo"].node circle{stroke:#9370DB;filter:drop-shadow(1px 2px 2px rgba(185, 185, 185, 1));}#g185467d1-84f2-46b3-b763-5b7cbbf306b6-light [data-look="neo"].node circle .state-start{fill:#000000;}#g185467d1-84f2-46b3-b763-5b7cbbf306b6-light [data-look="neo"].icon-shape .icon{fill:#9370DB;filter:drop-shadow(1px 2px 2px rgba(185, 185, 185, 1));}#g185467d1-84f2-46b3-b763-5b7cbbf306b6-light [data-look="neo"].icon-shape .icon-neo path{stroke:#9370DB;filter:drop-shadow(1px 2px 2px rgba(185, 185, 185, 1));}#g185467d1-84f2-46b3-b763-5b7cbbf306b6-light :root{--mermaid-font-family:"trebuchet ms",verdana,arial,sans-serif;}</style><g><marker id="g185467d1-84f2-46b3-b763-5b7cbbf306b6-light_flowchart-v2-pointEnd" class="marker flowchart-v2" viewBox="0 0 10 10" refX="5" refY="5" markerUnits="userSpaceOnUse" markerWidth="8" markerHeight="8" orient="auto"><path d="M 0 0 L 10 5 L 0 10 z" class="arrowMarkerPath" style="stroke-width: 1; stroke-dasharray: 1, 0;"></path></marker><marker id="g185467d1-84f2-46b3-b763-5b7cbbf306b6-light_flowchart-v2-pointStart" class="marker flowchart-v2" viewBox="0 0 10 10" refX="4.5" refY="5" markerUnits="userSpaceOnUse" markerWidth="8" markerHeight="8" orient="auto"><path d="M 0 5 L 10 10 L 10 0 z" class="arrowMarkerPath" style="stroke-width: 1; stroke-dasharray: 1, 0;"></path></marker><marker id="g185467d1-84f2-46b3-b763-5b7cbbf306b6-light_flowchart-v2-pointEnd-margin" class="marker flowchart-v2" viewBox="0 0 11.5 14" refX="11.5" refY="7" markerUnits="userSpaceOnUse" markerWidth="10.5" markerHeight="14" orient="auto"><path d="M 0 0 L 11.5 7 L 0 14 z" class="arrowMarkerPath" style="stroke-width: 0; stroke-dasharray: 1, 0;"></path></marker><marker id="g185467d1-84f2-46b3-b763-5b7cbbf306b6-light_flowchart-v2-pointStart-margin" class="marker flowchart-v2" viewBox="0 0 11.5 14" refX="1" refY="7" markerUnits="userSpaceOnUse" markerWidth="11.5" markerHeight="14" orient="auto"><polygon points="0,7 11.5,14 11.5,0" class="arrowMarkerPath" style="stroke-width: 0; stroke-dasharray: 1, 0;"></polygon></marker><marker id="g185467d1-84f2-46b3-b763-5b7cbbf306b6-light_flowchart-v2-circleEnd" class="marker flowchart-v2" viewBox="0 0 10 10" refX="11" refY="5" markerUnits="userSpaceOnUse" markerWidth="11" markerHeight="11" orient="auto"><circle cx="5" cy="5" r="5" class="arrowMarkerPath" style="stroke-width: 1; stroke-dasharray: 1, 0;"></circle></marker><marker id="g185467d1-84f2-46b3-b763-5b7cbbf306b6-light_flowchart-v2-circleStart" class="marker flowchart-v2" viewBox="0 0 10 10" refX="-1" refY="5" markerUnits="userSpaceOnUse" markerWidth="11" markerHeight="11" orient="auto"><circle cx="5" cy="5" r="5" class="arrowMarkerPath" style="stroke-width: 1; stroke-dasharray: 1, 0;"></circle></marker><marker id="g185467d1-84f2-46b3-b763-5b7cbbf306b6-light_flowchart-v2-circleEnd-margin" class="marker flowchart-v2" viewBox="0 0 10 10" refY="5" refX="12.25" markerUnits="userSpaceOnUse" markerWidth="14" markerHeight="14" orient="auto"><circle cx="5" cy="5" r="5" class="arrowMarkerPath" style="stroke-width: 0; stroke-dasharray: 1, 0;"></circle></marker><marker id="g185467d1-84f2-46b3-b763-5b7cbbf306b6-light_flowchart-v2-circleStart-margin" class="marker flowchart-v2" viewBox="0 0 10 10" refX="-2" refY="5" markerUnits="userSpaceOnUse" markerWidth="14" markerHeight="14" orient="auto"><circle cx="5" cy="5" r="5" class="arrowMarkerPath" style="stroke-width: 0; stroke-dasharray: 1, 0;"></circle></marker><marker id="g185467d1-84f2-46b3-b763-5b7cbbf306b6-light_flowchart-v2-crossEnd" class="marker cross flowchart-v2" viewBox="0 0 11 11" refX="12" refY="5.2" markerUnits="userSpaceOnUse" markerWidth="11" markerHeight="11" orient="auto"><path d="M 1,1 l 9,9 M 10,1 l -9,9" class="arrowMarkerPath" style="stroke-width: 2; stroke-dasharray: 1, 0;"></path></marker><marker id="g185467d1-84f2-46b3-b763-5b7cbbf306b6-light_flowchart-v2-crossStart" class="marker cross flowchart-v2" viewBox="0 0 11 11" refX="-1" refY="5.2" markerUnits="userSpaceOnUse" markerWidth="11" markerHeight="11" orient="auto"><path d="M 1,1 l 9,9 M 10,1 l -9,9" class="arrowMarkerPath" style="stroke-width: 2; stroke-dasharray: 1, 0;"></path></marker><marker id="g185467d1-84f2-46b3-b763-5b7cbbf306b6-light_flowchart-v2-crossEnd-margin" class="marker cross flowchart-v2" viewBox="0 0 15 15" refX="17.7" refY="7.5" markerUnits="userSpaceOnUse" markerWidth="12" markerHeight="12" orient="auto"><path d="M 1,1 L 14,14 M 1,14 L 14,1" class="arrowMarkerPath" style="stroke-width: 2.5;"></path></marker><marker id="g185467d1-84f2-46b3-b763-5b7cbbf306b6-light_flowchart-v2-crossStart-margin" class="marker cross flowchart-v2" viewBox="0 0 15 15" refX="-3.5" refY="7.5" markerUnits="userSpaceOnUse" markerWidth="12" markerHeight="12" orient="auto"><path d="M 1,1 L 14,14 M 1,14 L 14,1" class="arrowMarkerPath" style="stroke-width: 2.5; stroke-dasharray: 1, 0;"></path></marker><g class="root"><g class="clusters"></g><g class="edgePaths"><path d="M390.48,42.5L390.397,46.583C390.314,50.667,390.147,58.833,390.064,66.417C389.98,74,389.98,81,389.98,84.5L389.98,88" id="g185467d1-84f2-46b3-b763-5b7cbbf306b6-light-L_START_Q1_0" class="edge-thickness-normal edge-pattern-solid edge-thickness-normal edge-pattern-solid flowchart-link" style=";" data-edge="true" data-et="edge" data-id="L_START_Q1_0" data-points="W3sieCI6MzkwLjQ4MDQ2ODc1LCJ5Ijo0Mi41fSx7IngiOjM4OS45ODA0Njg3NSwieSI6Njd9LHsieCI6Mzg5Ljk4MDQ2ODc1LCJ5Ijo5Mn1d" data-look="classic" marker-end="url(#g185467d1-84f2-46b3-b763-5b7cbbf306b6-light_flowchart-v2-pointEnd)"></path><path d="M345.201,176.008L314.274,189.555C283.348,203.101,221.494,230.194,190.567,249.158C159.641,268.121,159.641,278.954,159.641,284.371L159.641,289.788" id="g185467d1-84f2-46b3-b763-5b7cbbf306b6-light-L_Q1_Q2_0" class="edge-thickness-normal edge-pattern-solid edge-thickness-normal edge-pattern-solid flowchart-link" style=";" data-edge="true" data-et="edge" data-id="L_Q1_Q2_0" data-points="W3sieCI6MzQ1LjIwMTA1Mjc3Mzk4MzYzLCJ5IjoxNzYuMDA4MDkwMTI3NDk5MzJ9LHsieCI6MTU5LjY0MDYyNSwieSI6MjU3LjI4NzUwNjEwMzUxNTZ9LHsieCI6MTU5LjY0MDYyNSwieSI6MjkzLjc4NzUwNjEwMzUxNTZ9XQ==" data-look="classic" marker-end="url(#g185467d1-84f2-46b3-b763-5b7cbbf306b6-light_flowchart-v2-pointEnd)"></path><path d="M129.394,387.759L118.833,398.884C108.273,410.008,87.152,432.257,76.592,458.366C66.031,484.475,66.031,514.444,66.031,544.413C66.031,574.381,66.031,604.35,66.031,632.482C66.031,660.613,66.031,686.907,66.031,700.054L66.031,713.202" id="g185467d1-84f2-46b3-b763-5b7cbbf306b6-light-L_Q2_UUID4_0" class="edge-thickness-normal edge-pattern-solid edge-thickness-normal edge-pattern-solid flowchart-link" style=";" data-edge="true" data-et="edge" data-id="L_Q2_UUID4_0" data-points="W3sieCI6MTI5LjM5MzczMjk4MDQwOTY4LCJ5IjozODcuNzU5MzY0MDgzOTI1MzN9LHsieCI6NjYuMDMxMjUsInkiOjQ1NC41MDYyNTYxMDM1MTU2fSx7IngiOjY2LjAzMTI1LCJ5Ijo1NDQuNDEyNTA2MTAzNTE1Nn0seyJ4Ijo2Ni4wMzEyNSwieSI6NjM0LjMxODc1NjEwMzUxNTZ9LHsieCI6NjYuMDMxMjUsInkiOjcxNy4yMDE1Njg2MDM1MTU2fV0=" data-look="classic" marker-end="url(#g185467d1-84f2-46b3-b763-5b7cbbf306b6-light_flowchart-v2-pointEnd)"></path><path d="M185.692,391.954L193.225,402.38C200.757,412.805,215.822,433.656,223.354,449.498C230.887,465.34,230.887,476.173,230.887,481.59L230.887,487.006" id="g185467d1-84f2-46b3-b763-5b7cbbf306b6-light-L_Q2_Q3_0" class="edge-thickness-normal edge-pattern-solid edge-thickness-normal edge-pattern-solid flowchart-link" style=";" data-edge="true" data-et="edge" data-id="L_Q2_Q3_0" data-points="W3sieCI6MTg1LjY5MjQ4MTgzMTk4MDMsInkiOjM5MS45NTQzOTkyNzE1MzUzfSx7IngiOjIzMC44ODY3MTg3NSwieSI6NDU0LjUwNjI1NjEwMzUxNTZ9LHsieCI6MjMwLjg4NjcxODc1LCJ5Ijo0OTEuMDA2MjU2MTAzNTE1Nn1d" data-look="classic" marker-end="url(#g185467d1-84f2-46b3-b763-5b7cbbf306b6-light_flowchart-v2-pointEnd)"></path><path d="M241.525,587.181L243.479,595.037C245.433,602.893,249.342,618.606,251.296,639.61C253.25,660.613,253.25,686.907,253.25,700.054L253.25,713.202" id="g185467d1-84f2-46b3-b763-5b7cbbf306b6-light-L_Q3_SEQ_0" class="edge-thickness-normal edge-pattern-solid edge-thickness-normal edge-pattern-solid flowchart-link" style=";" data-edge="true" data-et="edge" data-id="L_Q3_SEQ_0" data-points="W3sieCI6MjQxLjUyNDg1ODczMjk1MTE3LCJ5Ijo1ODcuMTgwNjE2MTIwNTY0NH0seyJ4IjoyNTMuMjUsInkiOjYzNC4zMTg3NTYxMDM1MTU2fSx7IngiOjI1My4yNSwieSI6NzE3LjIwMTU2ODYwMzUxNTZ9XQ==" data-look="classic" marker-end="url(#g185467d1-84f2-46b3-b763-5b7cbbf306b6-light_flowchart-v2-pointEnd)"></path><path d="M206.092,573.024L197.24,583.24C188.387,593.456,170.682,613.887,151.064,637.399C131.446,660.91,109.916,687.501,99.151,700.797L88.385,714.093" id="g185467d1-84f2-46b3-b763-5b7cbbf306b6-light-L_Q3_UUID4_0" class="edge-thickness-normal edge-pattern-solid edge-thickness-normal edge-pattern-solid flowchart-link" style=";" data-edge="true" data-et="edge" data-id="L_Q3_UUID4_0" data-points="W3sieCI6MjA2LjA5MjQyNDk0MjgyNjA2LCJ5Ijo1NzMuMDI0NDYyMjk2MzQxN30seyJ4IjoxNTIuOTc2NTYyNSwieSI6NjM0LjMxODc1NjEwMzUxNTZ9LHsieCI6ODUuODY4MzE4MDI0NzM2MjcsInkiOjcxNy4yMDE1Njg2MDM1MTU2fV0=" data-look="classic" marker-end="url(#g185467d1-84f2-46b3-b763-5b7cbbf306b6-light_flowchart-v2-pointEnd)"></path><path d="M431.452,179.316L454.964,192.311C478.476,205.306,525.5,231.297,549.012,249.868C572.523,268.439,572.523,279.59,572.523,285.165L572.523,290.741" id="g185467d1-84f2-46b3-b763-5b7cbbf306b6-light-L_Q1_Q4_0" class="edge-thickness-normal edge-pattern-solid edge-thickness-normal edge-pattern-solid flowchart-link" style=";" data-edge="true" data-et="edge" data-id="L_Q1_Q4_0" data-points="W3sieCI6NDMxLjQ1MjI1Mzk3MzUyNCwieSI6MTc5LjMxNTcyMDg3OTk5MTU1fSx7IngiOjU3Mi41MjM0Mzc1LCJ5IjoyNTcuMjg3NTA2MTAzNTE1Nn0seyJ4Ijo1NzIuNTIzNDM3NSwieSI6Mjk0Ljc0MDYzMTEwMzUxNTZ9XQ==" data-look="classic" marker-end="url(#g185467d1-84f2-46b3-b763-5b7cbbf306b6-light_flowchart-v2-pointEnd)"></path><path d="M536.493,381.023L518.93,393.27C501.368,405.517,466.242,430.012,448.68,457.243C431.117,484.475,431.117,514.444,431.117,544.413C431.117,574.381,431.117,604.35,431.117,628.452C431.117,652.553,431.117,670.788,431.117,679.905L431.117,689.022" id="g185467d1-84f2-46b3-b763-5b7cbbf306b6-light-L_Q4_Q5_0" class="edge-thickness-normal edge-pattern-solid edge-thickness-normal edge-pattern-solid flowchart-link" style=";" data-edge="true" data-et="edge" data-id="L_Q4_Q5_0" data-points="W3sieCI6NTM2LjQ5Mjk2NjY2NDc2NzksInkiOjM4MS4wMjI2NjAyNjgyODM1fSx7IngiOjQzMS4xMTcxODc1LCJ5Ijo0NTQuNTA2MjU2MTAzNTE1Nn0seyJ4Ijo0MzEuMTE3MTg3NSwieSI6NTQ0LjQxMjUwNjEwMzUxNTZ9LHsieCI6NDMxLjExNzE4NzUsInkiOjYzNC4zMTg3NTYxMDM1MTU2fSx7IngiOjQzMS4xMTcxODc1LCJ5Ijo2OTMuMDIxODgxMTAzNTE1Nn1d" data-look="classic" marker-end="url(#g185467d1-84f2-46b3-b763-5b7cbbf306b6-light_flowchart-v2-pointEnd)"></path><path d="M422.529,781.793L420.126,793.008C417.724,804.223,412.918,826.654,410.516,843.286C408.113,859.918,408.113,870.751,408.113,876.168L408.113,881.584" id="g185467d1-84f2-46b3-b763-5b7cbbf306b6-light-L_Q5_SNOW_0" class="edge-thickness-normal edge-pattern-solid edge-thickness-normal edge-pattern-solid flowchart-link" style=";" data-edge="true" data-et="edge" data-id="L_Q5_SNOW_0" data-points="W3sieCI6NDIyLjUyODcxMzMxOTAwMywieSI6NzgxLjc5Mjc4MTkyMjUxODV9LHsieCI6NDA4LjExMzI4MTI1LCJ5Ijo4NDkuMDg0MzgxMTAzNTE1Nn0seyJ4Ijo0MDguMTEzMjgxMjUsInkiOjg4NS41ODQzODExMDM1MTU2fV0=" data-look="classic" marker-end="url(#g185467d1-84f2-46b3-b763-5b7cbbf306b6-light_flowchart-v2-pointEnd)"></path><path d="M452.933,768.565L463.832,781.985C474.73,795.405,496.527,822.245,513.345,841.289C530.163,860.333,542.002,871.581,547.922,877.205L553.841,882.829" id="g185467d1-84f2-46b3-b763-5b7cbbf306b6-light-L_Q5_UUID7_0" class="edge-thickness-normal edge-pattern-solid edge-thickness-normal edge-pattern-solid flowchart-link" style=";" data-edge="true" data-et="edge" data-id="L_Q5_UUID7_0" data-points="W3sieCI6NDUyLjkzMzM4NzkxMDI2OCwieSI6NzY4LjU2NTA1NTY5MzI0NzZ9LHsieCI6NTE4LjMyNDIxODc1LCJ5Ijo4NDkuMDg0MzgxMTAzNTE1Nn0seyJ4Ijo1NTYuNzQwODQyNzI1NDA5OCwieSI6ODg1LjU4NDM4MTEwMzUxNTZ9XQ==" data-look="classic" marker-end="url(#g185467d1-84f2-46b3-b763-5b7cbbf306b6-light_flowchart-v2-pointEnd)"></path><path d="M603.754,385.823L615.7,397.27C627.646,408.717,651.538,431.612,663.484,450.53C675.43,469.449,675.43,484.392,675.43,491.863L675.43,499.334" id="g185467d1-84f2-46b3-b763-5b7cbbf306b6-light-L_Q4_Q6_0" class="edge-thickness-normal edge-pattern-solid edge-thickness-normal edge-pattern-solid flowchart-link" style=";" data-edge="true" data-et="edge" data-id="L_Q4_Q6_0" data-points="W3sieCI6NjAzLjc1MzU3MzM4NDMxNDIsInkiOjM4NS44MjI5OTUyMTkyMDE0Nn0seyJ4Ijo2NzUuNDI5Njg3NSwieSI6NDU0LjUwNjI1NjEwMzUxNTZ9LHsieCI6Njc1LjQyOTY4NzUsInkiOjUwMy4zMzQzODExMDM1MTU2fV0=" data-look="classic" marker-end="url(#g185467d1-84f2-46b3-b763-5b7cbbf306b6-light_flowchart-v2-pointEnd)"></path><path d="M654.554,564.615L642.55,576.232C630.545,587.85,606.536,611.084,594.532,640.599C582.527,670.113,582.527,705.907,582.527,741.702C582.527,777.496,582.527,813.29,582.527,836.604C582.527,859.918,582.527,870.751,582.527,876.168L582.527,881.584" id="g185467d1-84f2-46b3-b763-5b7cbbf306b6-light-L_Q6_UUID7_0" class="edge-thickness-normal edge-pattern-solid edge-thickness-normal edge-pattern-solid flowchart-link" style=";" data-edge="true" data-et="edge" data-id="L_Q6_UUID7_0" data-points="W3sieCI6NjU0LjU1NDAwNTM5NDA3ODksInkiOjU2NC42MTQ5NDg5OTc1OTQ1fSx7IngiOjU4Mi41MjczNDM3NSwieSI6NjM0LjMxODc1NjEwMzUxNTZ9LHsieCI6NTgyLjUyNzM0Mzc1LCJ5Ijo3NDEuNzAxNTY4NjAzNTE1Nn0seyJ4Ijo1ODIuNTI3MzQzNzUsInkiOjg0OS4wODQzODExMDM1MTU2fSx7IngiOjU4Mi41MjczNDM3NSwieSI6ODg1LjU4NDM4MTEwMzUxNTZ9XQ==" data-look="classic" marker-end="url(#g185467d1-84f2-46b3-b763-5b7cbbf306b6-light_flowchart-v2-pointEnd)"></path><path d="M688.908,572.012L693.979,582.397C699.051,592.781,709.193,613.55,714.265,629.351C719.336,645.152,719.336,655.985,719.336,661.402L719.336,666.819" id="g185467d1-84f2-46b3-b763-5b7cbbf306b6-light-L_Q6_Q7_0" class="edge-thickness-normal edge-pattern-solid edge-thickness-normal edge-pattern-solid flowchart-link" style=";" data-edge="true" data-et="edge" data-id="L_Q6_Q7_0" data-points="W3sieCI6Njg4LjkwODE0NzQ3NzgxNCwieSI6NTcyLjAxMjE3MTEyNTcwMTZ9LHsieCI6NzE5LjMzNTkzNzUsInkiOjYzNC4zMTg3NTYxMDM1MTU2fSx7IngiOjcxOS4zMzU5Mzc1LCJ5Ijo2NzAuODE4NzU2MTAzNTE1Nn1d" data-look="classic" marker-end="url(#g185467d1-84f2-46b3-b763-5b7cbbf306b6-light_flowchart-v2-pointEnd)"></path><path d="M731.553,800.367L733.244,808.486C734.935,816.606,738.317,832.845,740.008,846.381C741.699,859.918,741.699,870.751,741.699,876.168L741.699,881.584" id="g185467d1-84f2-46b3-b763-5b7cbbf306b6-light-L_Q7_ULID_K_0" class="edge-thickness-normal edge-pattern-solid edge-thickness-normal edge-pattern-solid flowchart-link" style=";" data-edge="true" data-et="edge" data-id="L_Q7_ULID_K_0" data-points="W3sieCI6NzMxLjU1MzQzMjY1NDY3NDEsInkiOjgwMC4zNjY4ODU5NDg4NDE1fSx7IngiOjc0MS42OTkyMTg3NSwieSI6ODQ5LjA4NDM4MTEwMzUxNTZ9LHsieCI6NzQxLjY5OTIxODc1LCJ5Ijo4ODUuNTg0MzgxMTAzNTE1Nn1d" data-look="classic" marker-end="url(#g185467d1-84f2-46b3-b763-5b7cbbf306b6-light_flowchart-v2-pointEnd)"></path><path d="M693.522,786.771L687.574,797.156C681.626,807.542,669.729,828.313,656.789,844.362C643.848,860.412,629.865,871.739,622.873,877.403L615.881,883.067" id="g185467d1-84f2-46b3-b763-5b7cbbf306b6-light-L_Q7_UUID7_0" class="edge-thickness-normal edge-pattern-solid edge-thickness-normal edge-pattern-solid flowchart-link" style=";" data-edge="true" data-et="edge" data-id="L_Q7_UUID7_0" data-points="W3sieCI6NjkzLjUyMjM2MzI0NzM2OSwieSI6Nzg2Ljc3MDgwNjg1MDg4NDZ9LHsieCI6NjU3LjgzMjAzMTI1LCJ5Ijo4NDkuMDg0MzgxMTAzNTE1Nn0seyJ4Ijo2MTIuNzcyNjY5MDU3Mzc3LCJ5Ijo4ODUuNTg0MzgxMTAzNTE1Nn1d" data-look="classic" marker-end="url(#g185467d1-84f2-46b3-b763-5b7cbbf306b6-light_flowchart-v2-pointEnd)"></path></g><g class="edgeLabels"><g class="edgeLabel"><g class="label" data-id="L_START_Q1_0" transform="translate(0, 0)"><text y="-10.1" text-anchor="middle"><tspan class="text-outer-tspan row" x="0" y="-0.1em" dy="1.1em" text-anchor="middle"></tspan></text></g></g><g><rect class="background" style="stroke: none"></rect></g><g class="edgeLabel" transform="translate(159.640625, 257.2875061035156)"><g class="label" data-id="L_Q1_Q2_0" transform="translate(0, -10.5)"><g><rect class="background" style="" x="-11.3984375" y="-1" width="22.796875" height="23"></rect><text y="-10.1" text-anchor="middle" style=""><tspan class="text-outer-tspan row" x="0" y="-0.1em" dy="1.1em" text-anchor="middle"><tspan font-style="normal" class="text-inner-tspan" font-weight="normal">No</tspan></tspan></text></g></g></g><g class="edgeLabel" transform="translate(66.03125, 544.4125061035156)"><g class="label" data-id="L_Q2_UUID4_0" transform="translate(0, -10.5)"><g><rect class="background" style="" x="-13.328125" y="-1" width="26.65625" height="23"></rect><text y="-10.1" text-anchor="middle" style=""><tspan class="text-outer-tspan row" x="0" y="-0.1em" dy="1.1em" text-anchor="middle"><tspan font-style="normal" class="text-inner-tspan" font-weight="normal">Yes</tspan></tspan></text></g></g></g><g class="edgeLabel" transform="translate(230.88671875, 454.5062561035156)"><g class="label" data-id="L_Q2_Q3_0" transform="translate(0, -10.5)"><g><rect class="background" style="" x="-11.3984375" y="-1" width="22.796875" height="23"></rect><text y="-10.1" text-anchor="middle" style=""><tspan class="text-outer-tspan row" x="0" y="-0.1em" dy="1.1em" text-anchor="middle"><tspan font-style="normal" class="text-inner-tspan" font-weight="normal">No</tspan></tspan></text></g></g></g><g class="edgeLabel" transform="translate(253.25, 634.3187561035156)"><g class="label" data-id="L_Q3_SEQ_0" transform="translate(0, -10.5)"><g><rect class="background" style="" x="-13.328125" y="-1" width="26.65625" height="23"></rect><text y="-10.1" text-anchor="middle" style=""><tspan class="text-outer-tspan row" x="0" y="-0.1em" dy="1.1em" text-anchor="middle"><tspan font-style="normal" class="text-inner-tspan" font-weight="normal">Yes</tspan></tspan></text></g></g></g><g class="edgeLabel" transform="translate(144.94142, 644.24266)"><g class="label" data-id="L_Q3_UUID4_0" transform="translate(0, -10.5)"><g><rect class="background" style="" x="-11.3984375" y="-1" width="22.796875" height="23"></rect><text y="-10.1" text-anchor="middle" style=""><tspan class="text-outer-tspan row" x="0" y="-0.1em" dy="1.1em" text-anchor="middle"><tspan font-style="normal" class="text-inner-tspan" font-weight="normal">No</tspan></tspan></text></g></g></g><g class="edgeLabel" transform="translate(572.5234375, 257.2875061035156)"><g class="label" data-id="L_Q1_Q4_0" transform="translate(0, -10.5)"><g><rect class="background" style="" x="-13.328125" y="-1" width="26.65625" height="23"></rect><text y="-10.1" text-anchor="middle" style=""><tspan class="text-outer-tspan row" x="0" y="-0.1em" dy="1.1em" text-anchor="middle"><tspan font-style="normal" class="text-inner-tspan" font-weight="normal">Yes</tspan></tspan></text></g></g></g><g class="edgeLabel" transform="translate(431.1171875, 544.4125061035156)"><g class="label" data-id="L_Q4_Q5_0" transform="translate(0, -10.5)"><g><rect class="background" style="" x="-13.328125" y="-1" width="26.65625" height="23"></rect><text y="-10.1" text-anchor="middle" style=""><tspan class="text-outer-tspan row" x="0" y="-0.1em" dy="1.1em" text-anchor="middle"><tspan font-style="normal" class="text-inner-tspan" font-weight="normal">Yes</tspan></tspan></text></g></g></g><g class="edgeLabel" transform="translate(408.11328125, 849.0843811035156)"><g class="label" data-id="L_Q5_SNOW_0" transform="translate(0, -10.5)"><g><rect class="background" style="" x="-13.328125" y="-1" width="26.65625" height="23"></rect><text y="-10.1" text-anchor="middle" style=""><tspan class="text-outer-tspan row" x="0" y="-0.1em" dy="1.1em" text-anchor="middle"><tspan font-style="normal" class="text-inner-tspan" font-weight="normal">Yes</tspan></tspan></text></g></g></g><g class="edgeLabel" transform="translate(502.332, 829.39229)"><g class="label" data-id="L_Q5_UUID7_0" transform="translate(0, -10.5)"><g><rect class="background" style="" x="-11.3984375" y="-1" width="22.796875" height="23"></rect><text y="-10.1" text-anchor="middle" style=""><tspan class="text-outer-tspan row" x="0" y="-0.1em" dy="1.1em" text-anchor="middle"><tspan font-style="normal" class="text-inner-tspan" font-weight="normal">No</tspan></tspan></text></g></g></g><g class="edgeLabel" transform="translate(675.4296875, 454.5062561035156)"><g class="label" data-id="L_Q4_Q6_0" transform="translate(0, -10.5)"><g><rect class="background" style="" x="-11.3984375" y="-1" width="22.796875" height="23"></rect><text y="-10.1" text-anchor="middle" style=""><tspan class="text-outer-tspan row" x="0" y="-0.1em" dy="1.1em" text-anchor="middle"><tspan font-style="normal" class="text-inner-tspan" font-weight="normal">No</tspan></tspan></text></g></g></g><g class="edgeLabel" transform="translate(582.52734375, 741.7015686035156)"><g class="label" data-id="L_Q6_UUID7_0" transform="translate(0, -10.5)"><g><rect class="background" style="" x="-13.328125" y="-1" width="26.65625" height="23"></rect><text y="-10.1" text-anchor="middle" style=""><tspan class="text-outer-tspan row" x="0" y="-0.1em" dy="1.1em" text-anchor="middle"><tspan font-style="normal" class="text-inner-tspan" font-weight="normal">Yes</tspan></tspan></text></g></g></g><g class="edgeLabel" transform="translate(719.3359375, 634.3187561035156)"><g class="label" data-id="L_Q6_Q7_0" transform="translate(0, -10.5)"><g><rect class="background" style="" x="-11.3984375" y="-1" width="22.796875" height="23"></rect><text y="-10.1" text-anchor="middle" style=""><tspan class="text-outer-tspan row" x="0" y="-0.1em" dy="1.1em" text-anchor="middle"><tspan font-style="normal" class="text-inner-tspan" font-weight="normal">No</tspan></tspan></text></g></g></g><g class="edgeLabel" transform="translate(741.69921875, 849.0843811035156)"><g class="label" data-id="L_Q7_ULID_K_0" transform="translate(0, -10.5)"><g><rect class="background" style="" x="-13.328125" y="-1" width="26.65625" height="23"></rect><text y="-10.1" text-anchor="middle" style=""><tspan class="text-outer-tspan row" x="0" y="-0.1em" dy="1.1em" text-anchor="middle"><tspan font-style="normal" class="text-inner-tspan" font-weight="normal">Yes</tspan></tspan></text></g></g></g><g class="edgeLabel" transform="translate(661.26704, 843.08702)"><g class="label" data-id="L_Q7_UUID7_0" transform="translate(0, -10.5)"><g><rect class="background" style="" x="-11.3984375" y="-1" width="22.796875" height="23"></rect><text y="-10.1" text-anchor="middle" style=""><tspan class="text-outer-tspan row" x="0" y="-0.1em" dy="1.1em" text-anchor="middle"><tspan font-style="normal" class="text-inner-tspan" font-weight="normal">No</tspan></tspan></text></g></g></g></g><g class="nodes"><g class="node default" id="g185467d1-84f2-46b3-b763-5b7cbbf306b6-light-flowchart-START-0" data-look="classic" transform="translate(389.98046875, 25)"><g class="basic label-container outer-path"><path d="M-32.5625 -17 C-14.907837152592567 -17, 2.7468256948148664 -17, 32.5625 -17 C32.5625 -17, 32.5625 -17, 32.5625 -17 C32.81235922560515 -16.991987500956323, 33.06221845121029 -16.983975001912643, 33.65169373967212 -16.965071676755716 C33.892945316866076 -16.94179842725129, 34.134196894060025 -16.918525177746858, 34.7364117486366 -16.860430234995185 C35.05057519442073 -16.809638725454715, 35.36473864020487 -16.758847215914248, 35.812196687923326 -16.686505668848113 C36.03156831627662 -16.636435526210132, 36.25093994462991 -16.58636538357215, 36.87462792646162 -16.4440126716635 C37.16699325865164 -16.35724017572645, 37.459358590841646 -16.270467679789398, 37.91933970640155 -16.133947699181366 C38.233243008852924 -16.018428382188944, 38.54714631130429 -15.90290906519652, 38.94203908294936 -15.757584874882369 C39.22314698658691 -15.63314674471171, 39.50425489022446 -15.508708614541051, 39.93852356499849 -15.316470754341125 C40.14859407278543 -15.206877104985262, 40.358664580572366 -15.0972834556294, 40.90469838406694 -14.812417970097622 C41.132645527442826 -14.674235072217057, 41.360592670818704 -14.536052174336492, 41.836593320579325 -14.247497783161291 C42.03085168871289 -14.11199155486054, 42.225110056846454 -13.976485326559787, 42.730379018350675 -13.624031571755262 C42.9886197888384 -13.418091429366811, 43.24686055932613 -13.21215128697836, 43.5823827202324 -12.944581292275288 C43.79626437427058 -12.750339633076278, 44.01014602830875 -12.55609797387727, 44.38910336025927 -12.21193895166137 C44.67886302612159 -11.91273830694753, 44.9686226919839 -11.613537662233691, 45.14722595028036 -11.42911513444239 C45.356704543815376 -11.18304965880652, 45.566183137350386 -10.936984183170651, 45.85363520195651 -10.59932663159847 C46.07368418025115 -10.304481047557978, 46.29373315854579 -10.009635463517487, 46.50542832814825 -9.725983222076888 C46.627195133239965 -9.538916710490556, 46.74896193833168 -9.351850198904225, 47.09992697109088 -8.812673661278927 C47.21192277196416 -8.61381377602382, 47.32391857283745 -8.414953890768714, 47.634688208341004 -7.863150934094199 C47.80055365395951 -7.518727787315357, 47.966419099578026 -7.174304640536514, 48.10751459126881 -6.881316833080699 C48.223497151353 -6.594837667302494, 48.33947971143719 -6.308358501524291, 48.516463174845924 -5.871205925162238 C48.591377829578576 -5.645574921136792, 48.66629248431122 -5.419943917111345, 48.859853501623235 -4.836968972727556 C48.94979322346356 -4.493989833228384, 49.039732945303875 -4.151010693729212, 49.136274507091 -3.7828558772573464 C49.206741852528985 -3.421020951712009, 49.277209197966975 -3.059186026166672, 49.34459031804565 -2.713198215567453 C49.383218639403125 -2.4136045831437043, 49.421846960760604 -2.114010950719956, 49.483944920136366 -1.632391440430593 C49.49892503411927 -1.3990640734165896, 49.51390514810216 -1.165736706402586, 49.5537656754117 -0.5448768187181379 C49.5537656754117 -0.23929981167059117, 49.5537656754117 0.06627719537695553, 49.5537656754117 0.5448768187181336 C49.53683402258438 0.8086009784877907, 49.519902369757055 1.0723251382574477, 49.483944920136366 1.6323914404305815 C49.45275738508216 1.8742758036356546, 49.42156985002795 2.1161601668407277, 49.344590318045654 2.7131982155674415 C49.29237715194531 2.981301788236132, 49.24016398584497 3.2494053609048223, 49.136274507091 3.782855877257343 C49.05697717553447 4.085250970163293, 48.97767984397794 4.387646063069244, 48.859853501623235 4.836968972727545 C48.73190796143337 5.22232055442597, 48.6039624212435 5.607672136124395, 48.516463174845924 5.871205925162227 C48.39679778027251 6.166781763331577, 48.27713238569909 6.462357601500928, 48.10751459126881 6.881316833080694 C47.95787719332618 7.192042091635967, 47.80823979538356 7.50276735019124, 47.634688208341004 7.863150934094196 C47.441484063058844 8.206204458083832, 47.248279917776685 8.549257982073469, 47.09992697109089 8.812673661278923 C46.897646135175926 9.123431345254266, 46.69536529926096 9.43418902922961, 46.505428328148255 9.725983222076879 C46.33795286458902 9.950385085917654, 46.17047740102978 10.17478694975843, 45.85363520195651 10.599326631598467 C45.69308950459189 10.787912743031923, 45.53254380722727 10.976498854465376, 45.14722595028037 11.42911513444238 C44.90738443519495 11.676771190122672, 44.66754292010953 11.924427245802965, 44.38910336025927 12.211938951661365 C44.16491380352619 12.415541975355726, 43.94072424679312 12.619144999050087, 43.58238272023242 12.944581292275275 C43.39096334710045 13.097233148464571, 43.19954397396848 13.249885004653866, 42.730379018350675 13.62403157175526 C42.44234648755105 13.824950596513782, 42.15431395675143 14.025869621272301, 41.83659332057934 14.247497783161286 C41.64251754212045 14.365147660578932, 41.44844176366156 14.48279753799658, 40.90469838406695 14.81241797009762 C40.61202722656963 14.965104325499146, 40.31935606907231 15.117790680900672, 39.93852356499849 15.316470754341124 C39.63086680278187 15.45266127666083, 39.32321004056524 15.588851798980537, 38.942039082949364 15.757584874882367 C38.571001788832035 15.894130028948693, 38.1999644947147 16.03067518301502, 37.91933970640156 16.133947699181363 C37.627189103161314 16.22065646469326, 37.33503849992107 16.307365230205153, 36.87462792646164 16.444012671663497 C36.5433637976234 16.519621547370363, 36.21209966878516 16.59523042307723, 35.81219668792333 16.68650566884811 C35.38236971184467 16.755996760982526, 34.952542735766 16.82548785311694, 34.73641174863661 16.86043023499518 C34.357615804155884 16.896972224190463, 33.97881985967516 16.93351421338574, 33.65169373967212 16.965071676755716 C33.2451390591048 16.97810909405083, 32.83858437853748 16.991146511345946, 32.5625 17 C32.5625 17, 32.5625 17, 32.5625 17 C10.336467009548063 17, -11.889565980903875 17, -32.5625 17 C-32.78887270083283 16.992740668092022, -33.015245401665666 16.985481336184044, -33.65169373967211 16.965071676755716 C-33.96149104342157 16.935185903448776, -34.271288347171016 16.905300130141836, -34.736411748636606 16.86043023499518 C-35.0142858473752 16.815505705656946, -35.292159946113784 16.77058117631871, -35.812196687923326 16.68650566884811 C-36.23229724561778 16.59062045796669, -36.652397803312226 16.49473524708527, -36.87462792646162 16.4440126716635 C-37.1102328450465 16.37408636854296, -37.34583776363138 16.304160065422426, -37.919339706401544 16.13394769918137 C-38.252920863339035 16.01118674983796, -38.586502020276534 15.88842580049455, -38.942039082949364 15.757584874882369 C-39.29325663161903 15.60211128458472, -39.6444741802887 15.44663769428707, -39.93852356499848 15.316470754341127 C-40.24750389761976 15.155275912723955, -40.55648423024104 14.994081071106784, -40.90469838406693 14.812417970097624 C-41.16234514271659 14.656230990903786, -41.419991901366245 14.500044011709951, -41.83659332057932 14.247497783161299 C-42.171517885977536 14.013868904990257, -42.50644245137576 13.780240026819218, -42.73037901835067 13.624031571755264 C-42.92063637829913 13.472306390157348, -43.11089373824759 13.320581208559432, -43.5823827202324 12.94458129227529 C-43.897553935952956 12.658351133131287, -44.21272515167351 12.372120973987284, -44.38910336025926 12.211938951661377 C-44.576694377936995 12.01823582440014, -44.76428539561473 11.8245326971389, -45.147225950280365 11.429115134442386 C-45.31403579334358 11.23317080103138, -45.48084563640679 11.037226467620371, -45.85363520195651 10.599326631598473 C-46.05045480045665 10.33560630024258, -46.24727439895678 10.071885968886685, -46.50542832814825 9.72598322207689 C-46.738363990144954 9.368131493266603, -46.97129965214165 9.010279764456316, -47.09992697109088 8.812673661278936 C-47.222598793725254 8.59485741832258, -47.345270616359635 8.377041175366223, -47.634688208341004 7.863150934094201 C-47.786941328151045 7.546994073113759, -47.939194447961086 7.230837212133318, -48.10751459126881 6.881316833080701 C-48.21604749085875 6.61323847275269, -48.32458039044869 6.34516011242468, -48.516463174845924 5.87120592516224 C-48.62434157808025 5.546293362709835, -48.732219981314564 5.22138080025743, -48.859853501623235 4.8369689727275516 C-48.94188640122116 4.5241419732770805, -49.02391930081908 4.2113149738266085, -49.136274507091 3.782855877257349 C-49.19869898162033 3.4623193939665953, -49.26112345614966 3.1417829106758415, -49.34459031804565 2.713198215567455 C-49.39635141637942 2.3117493582757183, -49.44811251471319 1.9103005009839813, -49.483944920136366 1.6323914404306026 C-49.50961543672945 1.2325524236253713, -49.53528595332253 0.8327134068201402, -49.5537656754117 0.54487681871814 C-49.5537656754117 0.19910830123150897, -49.5537656754117 -0.14666021625512204, -49.5537656754117 -0.5448768187181317 C-49.52690986695577 -0.9631777130375998, -49.50005405849984 -1.381478607357068, -49.483944920136366 -1.6323914404305793 C-49.444724882281285 -1.9365743091621173, -49.405504844426204 -2.2407571778936552, -49.344590318045654 -2.713198215567447 C-49.27412630714554 -3.0750160189655458, -49.203662296245426 -3.4368338223636448, -49.136274507091 -3.782855877257341 C-49.07482752389767 -4.017179855464509, -49.01338054070433 -4.251503833671676, -48.859853501623235 -4.836968972727544 C-48.781198744651874 -5.07386456879163, -48.702543987680514 -5.310760164855716, -48.51646317484593 -5.871205925162218 C-48.40635417691629 -6.143177278861093, -48.29624517898664 -6.415148632559969, -48.10751459126881 -6.881316833080692 C-47.99724269805167 -7.110298778786624, -47.88697080483453 -7.339280724492556, -47.634688208341004 -7.863150934094194 C-47.49458187978101 -8.111923907756642, -47.35447555122102 -8.360696881419091, -47.09992697109088 -8.812673661278929 C-46.969778117345655 -9.012617250492267, -46.83962926360043 -9.212560839705604, -46.50542832814825 -9.725983222076884 C-46.26960238665451 -10.041968499493247, -46.033776445160775 -10.357953776909612, -45.85363520195651 -10.599326631598467 C-45.7003068048457 -10.779434891477774, -45.5469784077349 -10.95954315135708, -45.14722595028037 -11.42911513444238 C-44.9790457955688 -11.602774952029568, -44.81086564085723 -11.776434769616756, -44.38910336025928 -12.21193895166136 C-44.2013050414801 -12.38249241590538, -44.01350672270092 -12.553045880149403, -43.58238272023242 -12.944581292275274 C-43.33562123228732 -13.141367012312509, -43.08885974434224 -13.338152732349744, -42.730379018350675 -13.624031571755259 C-42.376785871356546 -13.87068284429773, -42.023192724362424 -14.117334116840205, -41.83659332057934 -14.247497783161284 C-41.60133287828513 -14.390114045823854, -41.36607243599092 -14.532730308486423, -40.90469838406695 -14.812417970097618 C-40.596271589071726 -14.973324031489833, -40.28784479407651 -15.134230092882047, -39.93852356499849 -15.316470754341124 C-39.66407059978677 -15.437962940682404, -39.38961763457504 -15.559455127023684, -38.94203908294937 -15.757584874882365 C-38.62810360306182 -15.873116033468749, -38.31416812317426 -15.988647192055133, -37.919339706401566 -16.133947699181363 C-37.61854243331728 -16.22322275091567, -37.317745160232995 -16.312497802649983, -36.87462792646164 -16.444012671663494 C-36.558527136476364 -16.516160614227203, -36.242426346491094 -16.588308556790917, -35.81219668792333 -16.68650566884811 C-35.50977263274258 -16.735399244756156, -35.20734857756184 -16.784292820664206, -34.73641174863661 -16.86043023499518 C-34.373164541069315 -16.895472256240517, -34.00991733350202 -16.930514277485848, -33.65169373967212 -16.965071676755716 C-33.241281149520994 -16.978232809702217, -32.830868559369875 -16.99139394264872, -32.56250000000001 -17 C-32.56250000000001 -17, -32.5625 -17, -32.5625 -17" stroke="none" stroke-width="0" fill="#ECECFF" style=""></path><path d="M-32.5625 -17 C-9.621700935313108 -17, 13.319098129373785 -17, 32.5625 -17 M-32.5625 -17 C-10.80749777747166 -17, 10.94750444505668 -17, 32.5625 -17 M32.5625 -17 C32.5625 -17, 32.5625 -17, 32.5625 -17 M32.5625 -17 C32.5625 -17, 32.5625 -17, 32.5625 -17 M32.5625 -17 C32.9290609125417 -16.98824510500232, 33.2956218250834 -16.97649021000464, 33.65169373967212 -16.965071676755716 M32.5625 -17 C32.89629313060466 -16.989295903990424, 33.23008626120932 -16.978591807980845, 33.65169373967212 -16.965071676755716 M33.65169373967212 -16.965071676755716 C33.91683581443102 -16.939493739683723, 34.181977889189916 -16.913915802611733, 34.7364117486366 -16.860430234995185 M33.65169373967212 -16.965071676755716 C34.0388372054628 -16.92772441221903, 34.42598067125347 -16.89037714768234, 34.7364117486366 -16.860430234995185 M34.7364117486366 -16.860430234995185 C35.11451369607361 -16.799301644357964, 35.49261564351062 -16.738173053720747, 35.812196687923326 -16.686505668848113 M34.7364117486366 -16.860430234995185 C35.00159190810733 -16.81755796331481, 35.26677206757805 -16.77468569163443, 35.812196687923326 -16.686505668848113 M35.812196687923326 -16.686505668848113 C36.19871804608636 -16.59828469113498, 36.58523940424939 -16.51006371342185, 36.87462792646162 -16.4440126716635 M35.812196687923326 -16.686505668848113 C36.16773310639832 -16.60535680142315, 36.52326952487332 -16.524207933998184, 36.87462792646162 -16.4440126716635 M36.87462792646162 -16.4440126716635 C37.149609209250194 -16.36239967033806, 37.42459049203877 -16.28078666901262, 37.91933970640155 -16.133947699181366 M36.87462792646162 -16.4440126716635 C37.23307374755898 -16.337627833482312, 37.591519568656345 -16.231242995301127, 37.91933970640155 -16.133947699181366 M37.91933970640155 -16.133947699181366 C38.28834074794188 -15.998151904886289, 38.65734178948221 -15.862356110591211, 38.94203908294936 -15.757584874882369 M37.91933970640155 -16.133947699181366 C38.238776010973055 -16.016392186262223, 38.55821231554456 -15.898836673343078, 38.94203908294936 -15.757584874882369 M38.94203908294936 -15.757584874882369 C39.261335129885744 -15.616241986484338, 39.58063117682213 -15.474899098086308, 39.93852356499849 -15.316470754341125 M38.94203908294936 -15.757584874882369 C39.3366245613865 -15.582913588540588, 39.731210039823644 -15.408242302198806, 39.93852356499849 -15.316470754341125 M39.93852356499849 -15.316470754341125 C40.30980201222563 -15.122775026237921, 40.68108045945277 -14.929079298134718, 40.90469838406694 -14.812417970097622 M39.93852356499849 -15.316470754341125 C40.31859207131116 -15.118189258043303, 40.698660577623826 -14.91990776174548, 40.90469838406694 -14.812417970097622 M40.90469838406694 -14.812417970097622 C41.21092906762186 -14.626779130115377, 41.517159751176784 -14.441140290133132, 41.836593320579325 -14.247497783161291 M40.90469838406694 -14.812417970097622 C41.16924325732901 -14.652049313287918, 41.433788130591076 -14.491680656478216, 41.836593320579325 -14.247497783161291 M41.836593320579325 -14.247497783161291 C42.09805617206652 -14.065112616508241, 42.359519023553716 -13.882727449855192, 42.730379018350675 -13.624031571755262 M41.836593320579325 -14.247497783161291 C42.193602994195444 -13.998463289546372, 42.55061266781156 -13.749428795931452, 42.730379018350675 -13.624031571755262 M42.730379018350675 -13.624031571755262 C42.98220221194845 -13.423209276157655, 43.23402540554623 -13.222386980560048, 43.5823827202324 -12.944581292275288 M42.730379018350675 -13.624031571755262 C43.047220716067535 -13.371358749337746, 43.36406241378439 -13.11868592692023, 43.5823827202324 -12.944581292275288 M43.5823827202324 -12.944581292275288 C43.843461023306155 -12.70747688517707, 44.104539326379914 -12.470372478078852, 44.38910336025927 -12.21193895166137 M43.5823827202324 -12.944581292275288 C43.87070938062733 -12.68273064801001, 44.159036041022254 -12.420880003744731, 44.38910336025927 -12.21193895166137 M44.38910336025927 -12.21193895166137 C44.68085725710372 -11.910679099729075, 44.97261115394816 -11.609419247796781, 45.14722595028036 -11.42911513444239 M44.38910336025927 -12.21193895166137 C44.6146155177784 -11.979079134130405, 44.84012767529753 -11.746219316599438, 45.14722595028036 -11.42911513444239 M45.14722595028036 -11.42911513444239 C45.3545926978801 -11.185530353209533, 45.561959445479836 -10.941945571976675, 45.85363520195651 -10.59932663159847 M45.14722595028036 -11.42911513444239 C45.33418912815932 -11.209497547199557, 45.521152306038296 -10.989879959956724, 45.85363520195651 -10.59932663159847 M45.85363520195651 -10.59932663159847 C46.09636628926397 -10.274089087863443, 46.339097376571424 -9.948851544128413, 46.50542832814825 -9.725983222076888 M45.85363520195651 -10.59932663159847 C46.0652373567141 -10.315799021576165, 46.2768395114717 -10.032271411553861, 46.50542832814825 -9.725983222076888 M46.50542832814825 -9.725983222076888 C46.742851132328624 -9.361238037906093, 46.980273936509 -8.996492853735296, 47.09992697109088 -8.812673661278927 M46.50542832814825 -9.725983222076888 C46.670125275784876 -9.472964483184173, 46.834822223421504 -9.219945744291458, 47.09992697109088 -8.812673661278927 M47.09992697109088 -8.812673661278927 C47.27894992020345 -8.494800287090223, 47.45797286931602 -8.17692691290152, 47.634688208341004 -7.863150934094199 M47.09992697109088 -8.812673661278927 C47.289007993152666 -8.476941160078567, 47.47808901521445 -8.141208658878206, 47.634688208341004 -7.863150934094199 M47.634688208341004 -7.863150934094199 C47.786172803259134 -7.548589931495606, 47.937657398177265 -7.234028928897012, 48.10751459126881 -6.881316833080699 M47.634688208341004 -7.863150934094199 C47.73822553788728 -7.648153453947396, 47.84176286743355 -7.4331559738005915, 48.10751459126881 -6.881316833080699 M48.10751459126881 -6.881316833080699 C48.24700979151628 -6.53676099151323, 48.38650499176374 -6.19220514994576, 48.516463174845924 -5.871205925162238 M48.10751459126881 -6.881316833080699 C48.19553856898144 -6.663895906302659, 48.28356254669408 -6.446474979524619, 48.516463174845924 -5.871205925162238 M48.516463174845924 -5.871205925162238 C48.639215439000345 -5.501495663446412, 48.76196770315476 -5.1317854017305855, 48.859853501623235 -4.836968972727556 M48.516463174845924 -5.871205925162238 C48.62447516912633 -5.5458910077638865, 48.732487163406724 -5.220576090365536, 48.859853501623235 -4.836968972727556 M48.859853501623235 -4.836968972727556 C48.94835789994432 -4.499463343880368, 49.03686229826541 -4.161957715033181, 49.136274507091 -3.7828558772573464 M48.859853501623235 -4.836968972727556 C48.96739212478358 -4.426877595083059, 49.074930747943924 -4.01678621743856, 49.136274507091 -3.7828558772573464 M49.136274507091 -3.7828558772573464 C49.187280382650634 -3.52095148635424, 49.238286258210266 -3.259047095451134, 49.34459031804565 -2.713198215567453 M49.136274507091 -3.7828558772573464 C49.206448444553075 -3.4225275396565102, 49.276622382015155 -3.062199202055674, 49.34459031804565 -2.713198215567453 M49.34459031804565 -2.713198215567453 C49.37469141166166 -2.4797400776149243, 49.40479250527767 -2.2462819396623956, 49.483944920136366 -1.632391440430593 M49.34459031804565 -2.713198215567453 C49.37578560226722 -2.4712537513505413, 49.4069808864888 -2.22930928713363, 49.483944920136366 -1.632391440430593 M49.483944920136366 -1.632391440430593 C49.49823408919767 -1.4098260982910924, 49.51252325825898 -1.1872607561515918, 49.5537656754117 -0.5448768187181379 M49.483944920136366 -1.632391440430593 C49.498771172009036 -1.4014605999786978, 49.513597423881706 -1.1705297595268025, 49.5537656754117 -0.5448768187181379 M49.5537656754117 -0.5448768187181379 C49.5537656754117 -0.11692265485056114, 49.5537656754117 0.3110315090170156, 49.5537656754117 0.5448768187181336 M49.5537656754117 -0.5448768187181379 C49.5537656754117 -0.21818962768386552, 49.5537656754117 0.10849756335040683, 49.5537656754117 0.5448768187181336 M49.5537656754117 0.5448768187181336 C49.535170017823425 0.8345191958000975, 49.516574360235154 1.1241615728820613, 49.483944920136366 1.6323914404305815 M49.5537656754117 0.5448768187181336 C49.53558182128508 0.8281050244831061, 49.51739796715845 1.1113332302480785, 49.483944920136366 1.6323914404305815 M49.483944920136366 1.6323914404305815 C49.439121822238924 1.9800305364013493, 49.394298724341475 2.327669632372117, 49.344590318045654 2.7131982155674415 M49.483944920136366 1.6323914404305815 C49.429772155119444 2.0525447082794086, 49.37559939010252 2.4726979761282353, 49.344590318045654 2.7131982155674415 M49.344590318045654 2.7131982155674415 C49.26778965325868 3.107553397422307, 49.1909889884717 3.5019085792771723, 49.136274507091 3.782855877257343 M49.344590318045654 2.7131982155674415 C49.27927305163018 3.0485885738017817, 49.213955785214694 3.383978932036122, 49.136274507091 3.782855877257343 M49.136274507091 3.782855877257343 C49.040630939260545 4.147586253579394, 48.94498737143009 4.512316629901447, 48.859853501623235 4.836968972727545 M49.136274507091 3.782855877257343 C49.05145063005225 4.106326083306959, 48.9666267530135 4.429796289356575, 48.859853501623235 4.836968972727545 M48.859853501623235 4.836968972727545 C48.73078417605324 5.2257052169400415, 48.60171485048324 5.614441461152538, 48.516463174845924 5.871205925162227 M48.859853501623235 4.836968972727545 C48.741419350386884 5.193673766332009, 48.622985199150534 5.550378559936472, 48.516463174845924 5.871205925162227 M48.516463174845924 5.871205925162227 C48.38165445621574 6.204186066528045, 48.24684573758556 6.537166207893865, 48.10751459126881 6.881316833080694 M48.516463174845924 5.871205925162227 C48.410550382273634 6.132812570500328, 48.30463758970134 6.394419215838429, 48.10751459126881 6.881316833080694 M48.10751459126881 6.881316833080694 C47.9730237472465 7.160589948336095, 47.83853290322419 7.439863063591496, 47.634688208341004 7.863150934094196 M48.10751459126881 6.881316833080694 C48.008309748111394 7.087317812540677, 47.90910490495398 7.293318792000659, 47.634688208341004 7.863150934094196 M47.634688208341004 7.863150934094196 C47.48684208869728 8.125666690564643, 47.338995969053556 8.38818244703509, 47.09992697109089 8.812673661278923 M47.634688208341004 7.863150934094196 C47.472056209668445 8.151920516012948, 47.309424210995886 8.440690097931702, 47.09992697109089 8.812673661278923 M47.09992697109089 8.812673661278923 C46.87575883940305 9.15705610912326, 46.65159070771521 9.501438556967596, 46.505428328148255 9.725983222076879 M47.09992697109089 8.812673661278923 C46.96451563970216 9.020701829325796, 46.829104308313426 9.228729997372671, 46.505428328148255 9.725983222076879 M46.505428328148255 9.725983222076879 C46.357038955786145 9.92481146249218, 46.208649583424034 10.123639702907479, 45.85363520195651 10.599326631598467 M46.505428328148255 9.725983222076879 C46.338625997590576 9.94948314901924, 46.171823667032896 10.172983075961604, 45.85363520195651 10.599326631598467 M45.85363520195651 10.599326631598467 C45.69483451637539 10.78586295289704, 45.53603383079427 10.972399274195611, 45.14722595028037 11.42911513444238 M45.85363520195651 10.599326631598467 C45.66846324211303 10.816840152213626, 45.48329128226955 11.034353672828784, 45.14722595028037 11.42911513444238 M45.14722595028037 11.42911513444238 C44.970455976893234 11.61164464504932, 44.793686003506096 11.794174155656261, 44.38910336025927 12.211938951661365 M45.14722595028037 11.42911513444238 C44.91698453657074 11.666858297269195, 44.6867431228611 11.904601460096009, 44.38910336025927 12.211938951661365 M44.38910336025927 12.211938951661365 C44.22169727000303 12.363972733509659, 44.05429117974678 12.516006515357953, 43.58238272023242 12.944581292275275 M44.38910336025927 12.211938951661365 C44.07001957930131 12.50172239903318, 43.75093579834334 12.791505846404995, 43.58238272023242 12.944581292275275 M43.58238272023242 12.944581292275275 C43.24707559858924 13.211979798888464, 42.91176847694606 13.479378305501655, 42.730379018350675 13.62403157175526 M43.58238272023242 12.944581292275275 C43.331980085675106 13.144270729840775, 43.081577451117795 13.343960167406275, 42.730379018350675 13.62403157175526 M42.730379018350675 13.62403157175526 C42.38205524822691 13.867007155100618, 42.03373147810314 14.109982738445973, 41.83659332057934 14.247497783161286 M42.730379018350675 13.62403157175526 C42.43455189065285 13.830387769887308, 42.138724762955015 14.036743968019355, 41.83659332057934 14.247497783161286 M41.83659332057934 14.247497783161286 C41.624743865702435 14.375922167673252, 41.41289441082553 14.504346552185218, 40.90469838406695 14.81241797009762 M41.83659332057934 14.247497783161286 C41.53448741234317 14.430636160105433, 41.232381504106996 14.61377453704958, 40.90469838406695 14.81241797009762 M40.90469838406695 14.81241797009762 C40.59412338343191 14.974444748996136, 40.28354838279687 15.136471527894651, 39.93852356499849 15.316470754341124 M40.90469838406695 14.81241797009762 C40.688800857425036 14.925051571457736, 40.47290333078313 15.037685172817854, 39.93852356499849 15.316470754341124 M39.93852356499849 15.316470754341124 C39.57752047154235 15.476276115037873, 39.21651737808621 15.636081475734622, 38.942039082949364 15.757584874882367 M39.93852356499849 15.316470754341124 C39.67330036169162 15.433877198878282, 39.408077158384756 15.551283643415442, 38.942039082949364 15.757584874882367 M38.942039082949364 15.757584874882367 C38.66380188063819 15.859978737329383, 38.38556467832701 15.962372599776401, 37.91933970640156 16.133947699181363 M38.942039082949364 15.757584874882367 C38.55402855653379 15.900376335333288, 38.16601803011821 16.043167795784207, 37.91933970640156 16.133947699181363 M37.91933970640156 16.133947699181363 C37.615135681063194 16.224233857102277, 37.31093165572483 16.31452001502319, 36.87462792646164 16.444012671663497 M37.91933970640156 16.133947699181363 C37.6317330902704 16.219307833171158, 37.34412647413924 16.304667967160952, 36.87462792646164 16.444012671663497 M36.87462792646164 16.444012671663497 C36.65954567131377 16.493103792858115, 36.444463416165895 16.542194914052736, 35.81219668792333 16.68650566884811 M36.87462792646164 16.444012671663497 C36.522405098572676 16.5244052336604, 36.1701822706837 16.6047977956573, 35.81219668792333 16.68650566884811 M35.81219668792333 16.68650566884811 C35.44826824201806 16.745342797674823, 35.08433979611279 16.80417992650154, 34.73641174863661 16.86043023499518 M35.81219668792333 16.68650566884811 C35.55374384678263 16.72829031987202, 35.29529100564192 16.770074970895934, 34.73641174863661 16.86043023499518 M34.73641174863661 16.86043023499518 C34.5159976829364 16.881693314826585, 34.29558361723619 16.902956394657984, 33.65169373967212 16.965071676755716 M34.73641174863661 16.86043023499518 C34.31696957473815 16.90089331705815, 33.8975274008397 16.941356399121112, 33.65169373967212 16.965071676755716 M33.65169373967212 16.965071676755716 C33.26901948211481 16.977343295365323, 32.88634522455749 16.989614913974933, 32.5625 17 M33.65169373967212 16.965071676755716 C33.28565848903823 16.976809714799153, 32.91962323840434 16.988547752842585, 32.5625 17 M32.5625 17 C32.5625 17, 32.5625 17, 32.5625 17 M32.5625 17 C32.5625 17, 32.5625 17, 32.5625 17 M32.5625 17 C15.82464329490261 17, -0.9132134101947784 17, -32.5625 17 M32.5625 17 C13.200407616467167 17, -6.161684767065665 17, -32.5625 17 M-32.5625 17 C-32.95682810251399 16.987354665265464, -33.351156205027976 16.97470933053093, -33.65169373967211 16.965071676755716 M-32.5625 17 C-32.86624284825121 16.99025955805617, -33.16998569650243 16.980519116112344, -33.65169373967211 16.965071676755716 M-33.65169373967211 16.965071676755716 C-34.03576448378412 16.92802083398388, -34.41983522789614 16.890969991212046, -34.736411748636606 16.86043023499518 M-33.65169373967211 16.965071676755716 C-34.03804734606434 16.927800609005253, -34.424400952456566 16.890529541254786, -34.736411748636606 16.86043023499518 M-34.736411748636606 16.86043023499518 C-35.120172628616224 16.79838675203015, -35.50393350859584 16.736343269065117, -35.812196687923326 16.68650566884811 M-34.736411748636606 16.86043023499518 C-35.05518756386694 16.80889303333211, -35.37396337909727 16.757355831669038, -35.812196687923326 16.68650566884811 M-35.812196687923326 16.68650566884811 C-36.04519674720793 16.63332492578388, -36.27819680649254 16.580144182719653, -36.87462792646162 16.4440126716635 M-35.812196687923326 16.68650566884811 C-36.1291412751154 16.614165135078238, -36.44608586230747 16.54182460130837, -36.87462792646162 16.4440126716635 M-36.87462792646162 16.4440126716635 C-37.18588533284236 16.351633107273166, -37.497142739223094 16.259253542882828, -37.919339706401544 16.13394769918137 M-36.87462792646162 16.4440126716635 C-37.14427705664388 16.363982225242573, -37.413926186826146 16.283951778821645, -37.919339706401544 16.13394769918137 M-37.919339706401544 16.13394769918137 C-38.27375066151231 16.003521191561653, -38.628161616623075 15.873094683941936, -38.942039082949364 15.757584874882369 M-37.919339706401544 16.13394769918137 C-38.309074624993244 15.99052164646953, -38.69880954358494 15.847095593757691, -38.942039082949364 15.757584874882369 M-38.942039082949364 15.757584874882369 C-39.148183156615694 15.666331008516963, -39.354327230282024 15.575077142151557, -39.93852356499848 15.316470754341127 M-38.942039082949364 15.757584874882369 C-39.336180092703245 15.583110341641971, -39.730321102457125 15.408635808401574, -39.93852356499848 15.316470754341127 M-39.93852356499848 15.316470754341127 C-40.20321923239127 15.178379194207979, -40.46791489978405 15.04028763407483, -40.90469838406693 14.812417970097624 M-39.93852356499848 15.316470754341127 C-40.138330031499436 15.212231848749731, -40.33813649800038 15.107992943158337, -40.90469838406693 14.812417970097624 M-40.90469838406693 14.812417970097624 C-41.22500697945154 14.61824501723323, -41.54531557483616 14.424072064368836, -41.83659332057932 14.247497783161299 M-40.90469838406693 14.812417970097624 C-41.248247653620936 14.604156383974384, -41.59179692317494 14.395894797851144, -41.83659332057932 14.247497783161299 M-41.83659332057932 14.247497783161299 C-42.08582309034174 14.073645884757877, -42.33505286010416 13.899793986354453, -42.73037901835067 13.624031571755264 M-41.83659332057932 14.247497783161299 C-42.08416189974082 14.074804659409295, -42.33173047890233 13.902111535657292, -42.73037901835067 13.624031571755264 M-42.73037901835067 13.624031571755264 C-42.947371224529505 13.45098606173276, -43.16436343070834 13.277940551710254, -43.5823827202324 12.94458129227529 M-42.73037901835067 13.624031571755264 C-42.93765706328999 13.458732846816583, -43.14493510822932 13.293434121877901, -43.5823827202324 12.94458129227529 M-43.5823827202324 12.94458129227529 C-43.891293513414276 12.664036683239214, -44.20020430659615 12.383492074203136, -44.38910336025926 12.211938951661377 M-43.5823827202324 12.94458129227529 C-43.86554462356555 12.687421143721537, -44.14870652689869 12.430260995167783, -44.38910336025926 12.211938951661377 M-44.38910336025926 12.211938951661377 C-44.544035027826006 12.051959284772249, -44.69896669539275 11.891979617883118, -45.147225950280365 11.429115134442386 M-44.38910336025926 12.211938951661377 C-44.6653591442469 11.92668217367247, -44.94161492823453 11.641425395683562, -45.147225950280365 11.429115134442386 M-45.147225950280365 11.429115134442386 C-45.41922269652817 11.1096122792464, -45.69121944277599 10.790109424050415, -45.85363520195651 10.599326631598473 M-45.147225950280365 11.429115134442386 C-45.28907500534217 11.262491162926901, -45.430924060403974 11.095867191411418, -45.85363520195651 10.599326631598473 M-45.85363520195651 10.599326631598473 C-46.010512455752334 10.389125403323892, -46.16738970954817 10.178924175049312, -46.50542832814825 9.72598322207689 M-45.85363520195651 10.599326631598473 C-46.042163900763995 10.34671535051423, -46.23069259957148 10.094104069429987, -46.50542832814825 9.72598322207689 M-46.50542832814825 9.72598322207689 C-46.69093869399633 9.44098948362604, -46.876449059844404 9.155995745175192, -47.09992697109088 8.812673661278936 M-46.50542832814825 9.72598322207689 C-46.704025448983955 9.420884713679282, -46.90262256981966 9.115786205281674, -47.09992697109088 8.812673661278936 M-47.09992697109088 8.812673661278936 C-47.254864265541485 8.537566805879552, -47.4098015599921 8.262459950480167, -47.634688208341004 7.863150934094201 M-47.09992697109088 8.812673661278936 C-47.28172573610205 8.489871544880435, -47.46352450111321 8.167069428481934, -47.634688208341004 7.863150934094201 M-47.634688208341004 7.863150934094201 C-47.7296740853602 7.66591072809164, -47.82465996237941 7.468670522089079, -48.10751459126881 6.881316833080701 M-47.634688208341004 7.863150934094201 C-47.77238613085873 7.577218251722585, -47.91008405337645 7.291285569350969, -48.10751459126881 6.881316833080701 M-48.10751459126881 6.881316833080701 C-48.21493677918856 6.615981952052195, -48.322358967108315 6.3506470710236895, -48.516463174845924 5.87120592516224 M-48.10751459126881 6.881316833080701 C-48.2382642945789 6.558362538031241, -48.369013997888985 6.235408242981779, -48.516463174845924 5.87120592516224 M-48.516463174845924 5.87120592516224 C-48.62091229710867 5.556621810614502, -48.72536141937141 5.242037696066765, -48.859853501623235 4.8369689727275516 M-48.516463174845924 5.87120592516224 C-48.59035409667753 5.648658241525046, -48.664245018509135 5.426110557887853, -48.859853501623235 4.8369689727275516 M-48.859853501623235 4.8369689727275516 C-48.94508876979712 4.511929953981626, -49.030324037971 4.186890935235701, -49.136274507091 3.782855877257349 M-48.859853501623235 4.8369689727275516 C-48.93164884595319 4.563182208498372, -49.00344419028314 4.289395444269193, -49.136274507091 3.782855877257349 M-49.136274507091 3.782855877257349 C-49.19826205106869 3.4645629400039746, -49.260249595046375 3.1462700027506, -49.34459031804565 2.713198215567455 M-49.136274507091 3.782855877257349 C-49.18578215818544 3.5286445523331627, -49.23528980927988 3.2744332274089762, -49.34459031804565 2.713198215567455 M-49.34459031804565 2.713198215567455 C-49.38380945400266 2.409022341779229, -49.42302858995968 2.1048464679910035, -49.483944920136366 1.6323914404306026 M-49.34459031804565 2.713198215567455 C-49.38444380751231 2.4041024212256463, -49.42429729697898 2.095006626883838, -49.483944920136366 1.6323914404306026 M-49.483944920136366 1.6323914404306026 C-49.502892285902966 1.3372709245774304, -49.52183965166957 1.042150408724258, -49.5537656754117 0.54487681871814 M-49.483944920136366 1.6323914404306026 C-49.50070941422762 1.3712709129032308, -49.51747390831888 1.1101503853758592, -49.5537656754117 0.54487681871814 M-49.5537656754117 0.54487681871814 C-49.5537656754117 0.2307662982729602, -49.5537656754117 -0.0833442221722196, -49.5537656754117 -0.5448768187181317 M-49.5537656754117 0.54487681871814 C-49.5537656754117 0.2890636413421193, -49.5537656754117 0.03325046396609865, -49.5537656754117 -0.5448768187181317 M-49.5537656754117 -0.5448768187181317 C-49.529402792046774 -0.924348392492316, -49.505039908681844 -1.3038199662665004, -49.483944920136366 -1.6323914404305793 M-49.5537656754117 -0.5448768187181317 C-49.529441310184495 -0.9237484414059338, -49.5051169449573 -1.3026200640937358, -49.483944920136366 -1.6323914404305793 M-49.483944920136366 -1.6323914404305793 C-49.428815714488394 -2.0599626729433016, -49.373686508840414 -2.487533905456024, -49.344590318045654 -2.713198215567447 M-49.483944920136366 -1.6323914404305793 C-49.451763643390834 -1.8819830679570537, -49.4195823666453 -2.131574695483528, -49.344590318045654 -2.713198215567447 M-49.344590318045654 -2.713198215567447 C-49.280823912267934 -3.0406252322014082, -49.217057506490214 -3.3680522488353692, -49.136274507091 -3.782855877257341 M-49.344590318045654 -2.713198215567447 C-49.28815851617449 -3.0029635913103263, -49.23172671430333 -3.292728967053206, -49.136274507091 -3.782855877257341 M-49.136274507091 -3.782855877257341 C-49.045135667637304 -4.130407771917174, -48.953996828183605 -4.477959666577005, -48.859853501623235 -4.836968972727544 M-49.136274507091 -3.782855877257341 C-49.06278056045148 -4.063120148271809, -48.989286613811956 -4.343384419286275, -48.859853501623235 -4.836968972727544 M-48.859853501623235 -4.836968972727544 C-48.79087701104456 -5.04471517243921, -48.72190052046588 -5.252461372150877, -48.51646317484593 -5.871205925162218 M-48.859853501623235 -4.836968972727544 C-48.777458121511415 -5.0851307297033195, -48.6950627413996 -5.333292486679095, -48.51646317484593 -5.871205925162218 M-48.51646317484593 -5.871205925162218 C-48.369094960377836 -6.235208264069013, -48.22172674590974 -6.599210602975809, -48.10751459126881 -6.881316833080692 M-48.51646317484593 -5.871205925162218 C-48.427743416005036 -6.090345444779069, -48.33902365716415 -6.309484964395921, -48.10751459126881 -6.881316833080692 M-48.10751459126881 -6.881316833080692 C-47.99750569348026 -7.109752663151964, -47.8874967956917 -7.338188493223235, -47.634688208341004 -7.863150934094194 M-48.10751459126881 -6.881316833080692 C-47.92966715004448 -7.25062085010865, -47.75181970882016 -7.619924867136608, -47.634688208341004 -7.863150934094194 M-47.634688208341004 -7.863150934094194 C-47.492381339672505 -8.115831189548148, -47.35007447100401 -8.3685114450021, -47.09992697109088 -8.812673661278929 M-47.634688208341004 -7.863150934094194 C-47.463343431555664 -8.167390935816636, -47.29199865477033 -8.471630937539079, -47.09992697109088 -8.812673661278929 M-47.09992697109088 -8.812673661278929 C-46.93819801542565 -9.06113276748614, -46.776469059760416 -9.30959187369335, -46.50542832814825 -9.725983222076884 M-47.09992697109088 -8.812673661278929 C-46.89875734612684 -9.121724226831727, -46.69758772116281 -9.430774792384526, -46.50542832814825 -9.725983222076884 M-46.50542832814825 -9.725983222076884 C-46.32985657466696 -9.96123337682602, -46.154284821185676 -10.196483531575153, -45.85363520195651 -10.599326631598467 M-46.50542832814825 -9.725983222076884 C-46.298960583565005 -10.002631190219951, -46.092492838981755 -10.27927915836302, -45.85363520195651 -10.599326631598467 M-45.85363520195651 -10.599326631598467 C-45.594086340086704 -10.904207493499365, -45.334537478216895 -11.209088355400263, -45.14722595028037 -11.42911513444238 M-45.85363520195651 -10.599326631598467 C-45.711055091592186 -10.766809342270513, -45.568474981227865 -10.934292052942556, -45.14722595028037 -11.42911513444238 M-45.14722595028037 -11.42911513444238 C-44.898304134520615 -11.686147346075478, -44.64938231876086 -11.943179557708573, -44.38910336025928 -12.21193895166136 M-45.14722595028037 -11.42911513444238 C-44.94720298054091 -11.635655272889604, -44.74718001080144 -11.842195411336826, -44.38910336025928 -12.21193895166136 M-44.38910336025928 -12.21193895166136 C-44.11293661989679 -12.462746278287028, -43.83676987953431 -12.713553604912695, -43.58238272023242 -12.944581292275274 M-44.38910336025928 -12.21193895166136 C-44.118999109501864 -12.45724048563239, -43.84889485874445 -12.702542019603419, -43.58238272023242 -12.944581292275274 M-43.58238272023242 -12.944581292275274 C-43.27137718322161 -13.192599931836472, -42.9603716462108 -13.440618571397671, -42.730379018350675 -13.624031571755259 M-43.58238272023242 -12.944581292275274 C-43.305906614870665 -13.165063628963116, -43.02943050950892 -13.385545965650957, -42.730379018350675 -13.624031571755259 M-42.730379018350675 -13.624031571755259 C-42.41032087824518 -13.847290275199272, -42.090262738139685 -14.070548978643288, -41.83659332057934 -14.247497783161284 M-42.730379018350675 -13.624031571755259 C-42.46745297220763 -13.807437399659555, -42.20452692606458 -13.99084322756385, -41.83659332057934 -14.247497783161284 M-41.83659332057934 -14.247497783161284 C-41.59802612002051 -14.392118622116532, -41.35945891946169 -14.53673946107178, -40.90469838406695 -14.812417970097618 M-41.83659332057934 -14.247497783161284 C-41.4682264029292 -14.470803973405094, -41.099859485279055 -14.694110163648903, -40.90469838406695 -14.812417970097618 M-40.90469838406695 -14.812417970097618 C-40.57677794416118 -14.98349385355339, -40.24885750425541 -15.154569737009165, -39.93852356499849 -15.316470754341124 M-40.90469838406695 -14.812417970097618 C-40.69494159993915 -14.921847950021457, -40.48518481581136 -15.031277929945295, -39.93852356499849 -15.316470754341124 M-39.93852356499849 -15.316470754341124 C-39.579765446665704 -15.475282331145584, -39.221007328332924 -15.634093907950044, -38.94203908294937 -15.757584874882365 M-39.93852356499849 -15.316470754341124 C-39.73769533081268 -15.405371456257281, -39.536867096626864 -15.494272158173438, -38.94203908294937 -15.757584874882365 M-38.94203908294937 -15.757584874882365 C-38.559139210670985 -15.89849556736843, -38.1762393383926 -16.039406259854495, -37.919339706401566 -16.133947699181363 M-38.94203908294937 -15.757584874882365 C-38.7298417201708 -15.835675465915797, -38.51764435739224 -15.913766056949228, -37.919339706401566 -16.133947699181363 M-37.919339706401566 -16.133947699181363 C-37.55552510387193 -16.24192596351034, -37.19171050134229 -16.349904227839318, -36.87462792646164 -16.444012671663494 M-37.919339706401566 -16.133947699181363 C-37.58659348157685 -16.232705032088763, -37.25384725675213 -16.33146236499616, -36.87462792646164 -16.444012671663494 M-36.87462792646164 -16.444012671663494 C-36.509887100042945 -16.527262385137234, -36.14514627362424 -16.61051209861097, -35.81219668792333 -16.68650566884811 M-36.87462792646164 -16.444012671663494 C-36.59621447503568 -16.507558725133908, -36.31780102360972 -16.571104778604326, -35.81219668792333 -16.68650566884811 M-35.81219668792333 -16.68650566884811 C-35.501697281150975 -16.736704804976203, -35.19119787437861 -16.786903941104296, -34.73641174863661 -16.86043023499518 M-35.81219668792333 -16.68650566884811 C-35.53890854447803 -16.73068877649914, -35.265620401032734 -16.77487188415017, -34.73641174863661 -16.86043023499518 M-34.73641174863661 -16.86043023499518 C-34.4355896702367 -16.88945017910694, -34.13476759183679 -16.918470123218697, -33.65169373967212 -16.965071676755716 M-34.73641174863661 -16.86043023499518 C-34.48736138870938 -16.88445582369048, -34.23831102878214 -16.908481412385783, -33.65169373967212 -16.965071676755716 M-33.65169373967212 -16.965071676755716 C-33.27215341605658 -16.977242796203644, -32.89261309244104 -16.98941391565157, -32.56250000000001 -17 M-33.65169373967212 -16.965071676755716 C-33.3882723767235 -16.9735190871469, -33.12485101377488 -16.981966497538085, -32.56250000000001 -17 M-32.56250000000001 -17 C-32.56250000000001 -17, -32.5625 -17, -32.5625 -17 M-32.56250000000001 -17 C-32.56250000000001 -17, -32.5625 -17, -32.5625 -17" stroke="#9370DB" stroke-width="1.3" fill="none" stroke-dasharray="0 0" style=""></path></g><g class="label" style="" transform="translate(0, -9.5)"><rect></rect><g><rect class="background" style="stroke: none"></rect><text y="-10.1" style=""><tspan class="text-outer-tspan row" x="0" y="-0.1em" dy="1.1em"><tspan font-style="normal" class="text-inner-tspan" font-weight="normal">Unique</tspan><tspan font-style="normal" class="text-inner-tspan" font-weight="normal"> IDs</tspan></tspan></text></g></g></g><g class="node default" id="g185467d1-84f2-46b3-b763-5b7cbbf306b6-light-flowchart-Q1-1" data-look="classic" transform="translate(389.98046875, 156.3937530517578)"><polygon points="64.39374923706055,0 128.7874984741211,-64.39374923706055 64.39374923706055,-128.7874984741211 0,-64.39374923706055" class="label-container" transform="translate(-63.89374923706055, 64.39374923706055)"></polygon><g class="label" style="" transform="translate(0, -18.299999237060547)"><rect></rect><g><rect class="background" style="stroke: none"></rect><text y="-10.1" style=""><tspan class="text-outer-tspan row" x="0" y="-0.1em" dy="1.1em"><tspan font-style="normal" class="text-inner-tspan" font-weight="normal">Time</tspan></tspan><tspan class="text-outer-tspan row" x="0" y="1em" dy="1.1em"><tspan font-style="normal" class="text-inner-tspan" font-weight="normal">ordered?</tspan></tspan></text></g></g></g><g class="node default" id="g185467d1-84f2-46b3-b763-5b7cbbf306b6-light-flowchart-Q2-3" data-look="classic" transform="translate(159.640625, 355.8968811035156)"><polygon points="62.109375,0 124.21875,-62.109375 62.109375,-124.21875 0,-62.109375" class="label-container" transform="translate(-61.609375, 62.109375)"></polygon><g class="label" style="" transform="translate(0, -9.5)"><rect></rect><g><rect class="background" style="stroke: none"></rect><text y="-10.1" style=""><tspan class="text-outer-tspan row" x="0" y="-0.1em" dy="1.1em"><tspan font-style="normal" class="text-inner-tspan" font-weight="normal">Public</tspan><tspan font-style="normal" class="text-inner-tspan" font-weight="normal"> IDs?</tspan></tspan></text></g></g></g><g class="node default" id="g185467d1-84f2-46b3-b763-5b7cbbf306b6-light-flowchart-UUID4-5" data-look="classic" transform="translate(66.03125, 741.7015686035156)"><rect class="basic label-container" style="" x="-58.03125" y="-24.5" width="116.0625" height="49"></rect><g class="label" style="" transform="translate(0, -9.5)"><rect></rect><g><rect class="background" style="stroke: none"></rect><text y="-10.1" style=""><tspan class="text-outer-tspan row" x="0" y="-0.1em" dy="1.1em"><tspan font-style="normal" class="text-inner-tspan" font-weight="normal">UUID</tspan><tspan font-style="normal" class="text-inner-tspan" font-weight="normal"> v4</tspan></tspan></text></g></g></g><g class="node default" id="g185467d1-84f2-46b3-b763-5b7cbbf306b6-light-flowchart-Q3-7" data-look="classic" transform="translate(230.88671875, 544.4125061035156)"><polygon points="53.40625,0 106.8125,-53.40625 53.40625,-106.8125 0,-53.40625" class="label-container" transform="translate(-52.90625, 53.40625)"></polygon><g class="label" style="" transform="translate(0, -9.5)"><rect></rect><g><rect class="background" style="stroke: none"></rect><text y="-10.1" style=""><tspan class="text-outer-tspan row" x="0" y="-0.1em" dy="1.1em"><tspan font-style="normal" class="text-inner-tspan" font-weight="normal">One</tspan><tspan font-style="normal" class="text-inner-tspan" font-weight="normal"> DB?</tspan></tspan></text></g></g></g><g class="node default" id="g185467d1-84f2-46b3-b763-5b7cbbf306b6-light-flowchart-SEQ-9" data-look="classic" transform="translate(253.25, 741.7015686035156)"><rect class="basic label-container" style="" x="-79.1875" y="-24.5" width="158.375" height="49"></rect><g class="label" style="" transform="translate(0, -9.5)"><rect></rect><g><rect class="background" style="stroke: none"></rect><text y="-10.1" style=""><tspan class="text-outer-tspan row" x="0" y="-0.1em" dy="1.1em"><tspan font-style="normal" class="text-inner-tspan" font-weight="normal">DB</tspan><tspan font-style="normal" class="text-inner-tspan" font-weight="normal"> Sequences</tspan></tspan></text></g></g></g><g class="node default" id="g185467d1-84f2-46b3-b763-5b7cbbf306b6-light-flowchart-Q4-13" data-look="classic" transform="translate(572.5234375, 355.8968811035156)"><polygon points="61.15625,0 122.3125,-61.15625 61.15625,-122.3125 0,-61.15625" class="label-container" transform="translate(-60.65625, 61.15625)"></polygon><g class="label" style="" transform="translate(0, -9.5)"><rect></rect><g><rect class="background" style="stroke: none"></rect><text y="-10.1" style=""><tspan class="text-outer-tspan row" x="0" y="-0.1em" dy="1.1em"><tspan font-style="normal" class="text-inner-tspan" font-weight="normal">Coord</tspan><tspan font-style="normal" class="text-inner-tspan" font-weight="normal"> IDs?</tspan></tspan></text></g></g></g><g class="node default" id="g185467d1-84f2-46b3-b763-5b7cbbf306b6-light-flowchart-Q5-15" data-look="classic" transform="translate(431.1171875, 741.7015686035156)"><polygon points="48.6796875,0 97.359375,-48.6796875 48.6796875,-97.359375 0,-48.6796875" class="label-container" transform="translate(-48.1796875, 48.6796875)"></polygon><g class="label" style="" transform="translate(0, -9.5)"><rect></rect><g><rect class="background" style="stroke: none"></rect><text y="-10.1" style=""><tspan class="text-outer-tspan row" x="0" y="-0.1em" dy="1.1em"><tspan font-style="normal" class="text-inner-tspan" font-weight="normal">64-bit?</tspan></tspan></text></g></g></g><g class="node default" id="g185467d1-84f2-46b3-b763-5b7cbbf306b6-light-flowchart-SNOW-17" data-look="classic" transform="translate(408.11328125, 910.0843811035156)"><rect class="basic label-container" style="" x="-66.3828125" y="-24.5" width="132.765625" height="49"></rect><g class="label" style="" transform="translate(0, -9.5)"><rect></rect><g><rect class="background" style="stroke: none"></rect><text y="-10.1" style=""><tspan class="text-outer-tspan row" x="0" y="-0.1em" dy="1.1em"><tspan font-style="normal" class="text-inner-tspan" font-weight="normal">Snowflake</tspan></tspan></text></g></g></g><g class="node default" id="g185467d1-84f2-46b3-b763-5b7cbbf306b6-light-flowchart-UUID7-19" data-look="classic" transform="translate(582.52734375, 910.0843811035156)"><rect class="basic label-container" style="" x="-58.03125" y="-24.5" width="116.0625" height="49"></rect><g class="label" style="" transform="translate(0, -9.5)"><rect></rect><g><rect class="background" style="stroke: none"></rect><text y="-10.1" style=""><tspan class="text-outer-tspan row" x="0" y="-0.1em" dy="1.1em"><tspan font-style="normal" class="text-inner-tspan" font-weight="normal">UUID</tspan><tspan font-style="normal" class="text-inner-tspan" font-weight="normal"> v7</tspan></tspan></text></g></g></g><g class="node default" id="g185467d1-84f2-46b3-b763-5b7cbbf306b6-light-flowchart-Q6-21" data-look="classic" transform="translate(675.4296875, 544.4125061035156)"><polygon points="41.078125,0 82.15625,-41.078125 41.078125,-82.15625 0,-41.078125" class="label-container" transform="translate(-40.578125, 41.078125)"></polygon><g class="label" style="" transform="translate(0, -9.5)"><rect></rect><g><rect class="background" style="stroke: none"></rect><text y="-10.1" style=""><tspan class="text-outer-tspan row" x="0" y="-0.1em" dy="1.1em"><tspan font-style="normal" class="text-inner-tspan" font-weight="normal">RFC?</tspan></tspan></text></g></g></g><g class="node default" id="g185467d1-84f2-46b3-b763-5b7cbbf306b6-light-flowchart-Q7-25" data-look="classic" transform="translate(719.3359375, 741.7015686035156)"><polygon points="70.8828125,0 141.765625,-70.8828125 70.8828125,-141.765625 0,-70.8828125" class="label-container" transform="translate(-70.3828125, 70.8828125)"></polygon><g class="label" style="" transform="translate(0, -9.5)"><rect></rect><g><rect class="background" style="stroke: none"></rect><text y="-10.1" style=""><tspan class="text-outer-tspan row" x="0" y="-0.1em" dy="1.1em"><tspan font-style="normal" class="text-inner-tspan" font-weight="normal">Compact</tspan><tspan font-style="normal" class="text-inner-tspan" font-weight="normal"> str?</tspan></tspan></text></g></g></g><g class="node default" id="g185467d1-84f2-46b3-b763-5b7cbbf306b6-light-flowchart-ULID_K-27" data-look="classic" transform="translate(741.69921875, 910.0843811035156)"><rect class="basic label-container" style="" x="-46.375" y="-24.5" width="92.75" height="49"></rect><g class="label" style="" transform="translate(0, -9.5)"><rect></rect><g><rect class="background" style="stroke: none"></rect><text y="-10.1" style=""><tspan class="text-outer-tspan row" x="0" y="-0.1em" dy="1.1em"><tspan font-style="normal" class="text-inner-tspan" font-weight="normal">ULID</tspan></tspan></text></g></g></g></g></g></g><defs><filter id="g185467d1-84f2-46b3-b763-5b7cbbf306b6-light-drop-shadow" height="130%" width="130%"><feDropShadow dx="4" dy="4" stdDeviation="0" flood-opacity="0.06" flood-color="#000000"></feDropShadow></filter></defs><defs><filter id="g185467d1-84f2-46b3-b763-5b7cbbf306b6-light-drop-shadow-small" height="150%" width="150%"><feDropShadow dx="2" dy="2" stdDeviation="0" flood-opacity="0.06" flood-color="#000000"></feDropShadow></filter></defs></svg>