<svg id="gf9672710-5ea7-4a15-8832-736909ef3177-light" width="100%" xmlns="http://www.w3.org/2000/svg" xmlns:xlink="http://www.w3.org/1999/xlink" class="flowchart" style="max-width: 952.4484252929688px;" viewBox="0.5 0 952.4484252929688 1376.153076171875" role="graphics-document document" aria-roledescription="flowchart-v2"><style>#gf9672710-5ea7-4a15-8832-736909ef3177-light{font-family:"trebuchet ms",verdana,arial,sans-serif;font-size:16px;fill:#333;}@keyframes edge-animation-frame{from{stroke-dashoffset:0;}}@keyframes dash{to{stroke-dashoffset:0;}}#gf9672710-5ea7-4a15-8832-736909ef3177-light .edge-animation-slow{stroke-dasharray:9,5!important;stroke-dashoffset:900;animation:dash 50s linear infinite;stroke-linecap:round;}#gf9672710-5ea7-4a15-8832-736909ef3177-light .edge-animation-fast{stroke-dasharray:9,5!important;stroke-dashoffset:900;animation:dash 20s linear infinite;stroke-linecap:round;}#gf9672710-5ea7-4a15-8832-736909ef3177-light .error-icon{fill:#552222;}#gf9672710-5ea7-4a15-8832-736909ef3177-light .error-text{fill:#552222;stroke:#552222;}#gf9672710-5ea7-4a15-8832-736909ef3177-light .edge-thickness-normal{stroke-width:1px;}#gf9672710-5ea7-4a15-8832-736909ef3177-light .edge-thickness-thick{stroke-width:3.5px;}#gf9672710-5ea7-4a15-8832-736909ef3177-light .edge-pattern-solid{stroke-dasharray:0;}#gf9672710-5ea7-4a15-8832-736909ef3177-light .edge-thickness-invisible{stroke-width:0;fill:none;}#gf9672710-5ea7-4a15-8832-736909ef3177-light .edge-pattern-dashed{stroke-dasharray:3;}#gf9672710-5ea7-4a15-8832-736909ef3177-light .edge-pattern-dotted{stroke-dasharray:2;}#gf9672710-5ea7-4a15-8832-736909ef3177-light .marker{fill:#333333;stroke:#333333;}#gf9672710-5ea7-4a15-8832-736909ef3177-light .marker.cross{stroke:#333333;}#gf9672710-5ea7-4a15-8832-736909ef3177-light svg{font-family:"trebuchet ms",verdana,arial,sans-serif;font-size:16px;}#gf9672710-5ea7-4a15-8832-736909ef3177-light p{margin:0;}#gf9672710-5ea7-4a15-8832-736909ef3177-light .label{font-family:"trebuchet ms",verdana,arial,sans-serif;color:#333;}#gf9672710-5ea7-4a15-8832-736909ef3177-light .cluster-label text{fill:#333;}#gf9672710-5ea7-4a15-8832-736909ef3177-light .cluster-label span{color:#333;}#gf9672710-5ea7-4a15-8832-736909ef3177-light .cluster-label span p{background-color:transparent;}#gf9672710-5ea7-4a15-8832-736909ef3177-light .label text,#gf9672710-5ea7-4a15-8832-736909ef3177-light span{fill:#333;color:#333;}#gf9672710-5ea7-4a15-8832-736909ef3177-light .node rect,#gf9672710-5ea7-4a15-8832-736909ef3177-light .node circle,#gf9672710-5ea7-4a15-8832-736909ef3177-light .node ellipse,#gf9672710-5ea7-4a15-8832-736909ef3177-light .node polygon,#gf9672710-5ea7-4a15-8832-736909ef3177-light .node path{fill:#ECECFF;stroke:#9370DB;stroke-width:1px;}#gf9672710-5ea7-4a15-8832-736909ef3177-light .rough-node .label text,#gf9672710-5ea7-4a15-8832-736909ef3177-light .node .label text,#gf9672710-5ea7-4a15-8832-736909ef3177-light .image-shape .label,#gf9672710-5ea7-4a15-8832-736909ef3177-light .icon-shape .label{text-anchor:middle;}#gf9672710-5ea7-4a15-8832-736909ef3177-light .node .katex path{fill:#000;stroke:#000;stroke-width:1px;}#gf9672710-5ea7-4a15-8832-736909ef3177-light .rough-node .label,#gf9672710-5ea7-4a15-8832-736909ef3177-light .node .label,#gf9672710-5ea7-4a15-8832-736909ef3177-light .image-shape .label,#gf9672710-5ea7-4a15-8832-736909ef3177-light .icon-shape .label{text-align:center;}#gf9672710-5ea7-4a15-8832-736909ef3177-light .node.clickable{cursor:pointer;}#gf9672710-5ea7-4a15-8832-736909ef3177-light .root .anchor path{fill:#333333!important;stroke-width:0;stroke:#333333;}#gf9672710-5ea7-4a15-8832-736909ef3177-light .arrowheadPath{fill:#333333;}#gf9672710-5ea7-4a15-8832-736909ef3177-light .edgePath .path{stroke:#333333;stroke-width:1px;}#gf9672710-5ea7-4a15-8832-736909ef3177-light .flowchart-link{stroke:#333333;fill:none;}#gf9672710-5ea7-4a15-8832-736909ef3177-light .edgeLabel{background-color:rgba(232,232,232, 0.8);text-align:center;}#gf9672710-5ea7-4a15-8832-736909ef3177-light .edgeLabel p{background-color:rgba(232,232,232, 0.8);}#gf9672710-5ea7-4a15-8832-736909ef3177-light .edgeLabel rect{opacity:0.5;background-color:rgba(232,232,232, 0.8);fill:rgba(232,232,232, 0.8);}#gf9672710-5ea7-4a15-8832-736909ef3177-light .labelBkg{background-color:rgba(232, 232, 232, 0.5);}#gf9672710-5ea7-4a15-8832-736909ef3177-light .cluster rect{fill:#ffffde;stroke:#aaaa33;stroke-width:1px;}#gf9672710-5ea7-4a15-8832-736909ef3177-light .cluster text{fill:#333;}#gf9672710-5ea7-4a15-8832-736909ef3177-light .cluster span{color:#333;}#gf9672710-5ea7-4a15-8832-736909ef3177-light div.mermaidTooltip{position:absolute;text-align:center;max-width:200px;padding:2px;font-family:"trebuchet ms",verdana,arial,sans-serif;font-size:12px;background:hsl(80, 100%, 96.2745098039%);border:1px solid #aaaa33;border-radius:2px;pointer-events:none;z-index:100;}#gf9672710-5ea7-4a15-8832-736909ef3177-light .flowchartTitleText{text-anchor:middle;font-size:18px;fill:#333;}#gf9672710-5ea7-4a15-8832-736909ef3177-light rect.text{fill:none;stroke-width:0;}#gf9672710-5ea7-4a15-8832-736909ef3177-light .icon-shape,#gf9672710-5ea7-4a15-8832-736909ef3177-light .image-shape{background-color:rgba(232,232,232, 0.8);text-align:center;}#gf9672710-5ea7-4a15-8832-736909ef3177-light .icon-shape p,#gf9672710-5ea7-4a15-8832-736909ef3177-light .image-shape p{background-color:rgba(232,232,232, 0.8);padding:2px;}#gf9672710-5ea7-4a15-8832-736909ef3177-light .icon-shape .label rect,#gf9672710-5ea7-4a15-8832-736909ef3177-light .image-shape .label rect{opacity:0.5;background-color:rgba(232,232,232, 0.8);fill:rgba(232,232,232, 0.8);}#gf9672710-5ea7-4a15-8832-736909ef3177-light .label-icon{display:inline-block;height:1em;overflow:visible;vertical-align:-0.125em;}#gf9672710-5ea7-4a15-8832-736909ef3177-light .node .label-icon path{fill:currentColor;stroke:revert;stroke-width:revert;}#gf9672710-5ea7-4a15-8832-736909ef3177-light .node .neo-node{stroke:#9370DB;}#gf9672710-5ea7-4a15-8832-736909ef3177-light [data-look="neo"].node rect,#gf9672710-5ea7-4a15-8832-736909ef3177-light [data-look="neo"].cluster rect,#gf9672710-5ea7-4a15-8832-736909ef3177-light [data-look="neo"].node polygon{stroke:#9370DB;filter:drop-shadow(1px 2px 2px rgba(185, 185, 185, 1));}#gf9672710-5ea7-4a15-8832-736909ef3177-light [data-look="neo"].node path{stroke:#9370DB;stroke-width:1px;}#gf9672710-5ea7-4a15-8832-736909ef3177-light [data-look="neo"].node .outer-path{filter:drop-shadow(1px 2px 2px rgba(185, 185, 185, 1));}#gf9672710-5ea7-4a15-8832-736909ef3177-light [data-look="neo"].node .neo-line path{stroke:#9370DB;filter:none;}#gf9672710-5ea7-4a15-8832-736909ef3177-light [data-look="neo"].node circle{stroke:#9370DB;filter:drop-shadow(1px 2px 2px rgba(185, 185, 185, 1));}#gf9672710-5ea7-4a15-8832-736909ef3177-light [data-look="neo"].node circle .state-start{fill:#000000;}#gf9672710-5ea7-4a15-8832-736909ef3177-light [data-look="neo"].icon-shape .icon{fill:#9370DB;filter:drop-shadow(1px 2px 2px rgba(185, 185, 185, 1));}#gf9672710-5ea7-4a15-8832-736909ef3177-light [data-look="neo"].icon-shape .icon-neo path{stroke:#9370DB;filter:drop-shadow(1px 2px 2px rgba(185, 185, 185, 1));}#gf9672710-5ea7-4a15-8832-736909ef3177-light :root{--mermaid-font-family:"trebuchet ms",verdana,arial,sans-serif;}#gf9672710-5ea7-4a15-8832-736909ef3177-light .decision rect{fill:#5A5A5A!important;stroke:#3D3D3D!important;color:#ffffff!important;}#gf9672710-5ea7-4a15-8832-736909ef3177-light .decision polygon{fill:#5A5A5A!important;stroke:#3D3D3D!important;color:#ffffff!important;}#gf9672710-5ea7-4a15-8832-736909ef3177-light .decision ellipse{fill:#5A5A5A!important;stroke:#3D3D3D!important;color:#ffffff!important;}#gf9672710-5ea7-4a15-8832-736909ef3177-light .decision circle{fill:#5A5A5A!important;stroke:#3D3D3D!important;color:#ffffff!important;}#gf9672710-5ea7-4a15-8832-736909ef3177-light .decision path{fill:#5A5A5A!important;stroke:#3D3D3D!important;color:#ffffff!important;}#gf9672710-5ea7-4a15-8832-736909ef3177-light .decision tspan{fill:#ffffff!important;}#gf9672710-5ea7-4a15-8832-736909ef3177-light .recommended rect{fill:#2D7A2D!important;stroke:#1E5A1E!important;color:#ffffff!important;}#gf9672710-5ea7-4a15-8832-736909ef3177-light .recommended polygon{fill:#2D7A2D!important;stroke:#1E5A1E!important;color:#ffffff!important;}#gf9672710-5ea7-4a15-8832-736909ef3177-light .recommended ellipse{fill:#2D7A2D!important;stroke:#1E5A1E!important;color:#ffffff!important;}#gf9672710-5ea7-4a15-8832-736909ef3177-light .recommended circle{fill:#2D7A2D!important;stroke:#1E5A1E!important;color:#ffffff!important;}#gf9672710-5ea7-4a15-8832-736909ef3177-light .recommended path{fill:#2D7A2D!important;stroke:#1E5A1E!important;color:#ffffff!important;}#gf9672710-5ea7-4a15-8832-736909ef3177-light .recommended tspan{fill:#ffffff!important;}#gf9672710-5ea7-4a15-8832-736909ef3177-light .alternative rect{fill:#2E5A88!important;stroke:#1F4870!important;color:#ffffff!important;}#gf9672710-5ea7-4a15-8832-736909ef3177-light .alternative polygon{fill:#2E5A88!important;stroke:#1F4870!important;color:#ffffff!important;}#gf9672710-5ea7-4a15-8832-736909ef3177-light .alternative ellipse{fill:#2E5A88!important;stroke:#1F4870!important;color:#ffffff!important;}#gf9672710-5ea7-4a15-8832-736909ef3177-light .alternative circle{fill:#2E5A88!important;stroke:#1F4870!important;color:#ffffff!important;}#gf9672710-5ea7-4a15-8832-736909ef3177-light .alternative path{fill:#2E5A88!important;stroke:#1F4870!important;color:#ffffff!important;}#gf9672710-5ea7-4a15-8832-736909ef3177-light .alternative tspan{fill:#ffffff!important;}#gf9672710-5ea7-4a15-8832-736909ef3177-light .warn rect{fill:#8B5E15!important;stroke:#6E4810!important;color:#ffffff!important;}#gf9672710-5ea7-4a15-8832-736909ef3177-light .warn polygon{fill:#8B5E15!important;stroke:#6E4810!important;color:#ffffff!important;}#gf9672710-5ea7-4a15-8832-736909ef3177-light .warn ellipse{fill:#8B5E15!important;stroke:#6E4810!important;color:#ffffff!important;}#gf9672710-5ea7-4a15-8832-736909ef3177-light .warn circle{fill:#8B5E15!important;stroke:#6E4810!important;color:#ffffff!important;}#gf9672710-5ea7-4a15-8832-736909ef3177-light .warn path{fill:#8B5E15!important;stroke:#6E4810!important;color:#ffffff!important;}#gf9672710-5ea7-4a15-8832-736909ef3177-light .warn tspan{fill:#ffffff!important;}</style><g><marker id="gf9672710-5ea7-4a15-8832-736909ef3177-light_flowchart-v2-pointEnd" class="marker flowchart-v2" viewBox="0 0 10 10" refX="5" refY="5" markerUnits="userSpaceOnUse" markerWidth="8" markerHeight="8" orient="auto"><path d="M 0 0 L 10 5 L 0 10 z" class="arrowMarkerPath" style="stroke-width: 1; stroke-dasharray: 1, 0;"></path></marker><marker id="gf9672710-5ea7-4a15-8832-736909ef3177-light_flowchart-v2-pointStart" class="marker flowchart-v2" viewBox="0 0 10 10" refX="4.5" refY="5" markerUnits="userSpaceOnUse" markerWidth="8" markerHeight="8" orient="auto"><path d="M 0 5 L 10 10 L 10 0 z" class="arrowMarkerPath" style="stroke-width: 1; stroke-dasharray: 1, 0;"></path></marker><marker id="gf9672710-5ea7-4a15-8832-736909ef3177-light_flowchart-v2-pointEnd-margin" class="marker flowchart-v2" viewBox="0 0 11.5 14" refX="11.5" refY="7" markerUnits="userSpaceOnUse" markerWidth="10.5" markerHeight="14" orient="auto"><path d="M 0 0 L 11.5 7 L 0 14 z" class="arrowMarkerPath" style="stroke-width: 0; stroke-dasharray: 1, 0;"></path></marker><marker id="gf9672710-5ea7-4a15-8832-736909ef3177-light_flowchart-v2-pointStart-margin" class="marker flowchart-v2" viewBox="0 0 11.5 14" refX="1" refY="7" markerUnits="userSpaceOnUse" markerWidth="11.5" markerHeight="14" orient="auto"><polygon points="0,7 11.5,14 11.5,0" class="arrowMarkerPath" style="stroke-width: 0; stroke-dasharray: 1, 0;"></polygon></marker><marker id="gf9672710-5ea7-4a15-8832-736909ef3177-light_flowchart-v2-circleEnd" class="marker flowchart-v2" viewBox="0 0 10 10" refX="11" refY="5" markerUnits="userSpaceOnUse" markerWidth="11" markerHeight="11" orient="auto"><circle cx="5" cy="5" r="5" class="arrowMarkerPath" style="stroke-width: 1; stroke-dasharray: 1, 0;"></circle></marker><marker id="gf9672710-5ea7-4a15-8832-736909ef3177-light_flowchart-v2-circleStart" class="marker flowchart-v2" viewBox="0 0 10 10" refX="-1" refY="5" markerUnits="userSpaceOnUse" markerWidth="11" markerHeight="11" orient="auto"><circle cx="5" cy="5" r="5" class="arrowMarkerPath" style="stroke-width: 1; stroke-dasharray: 1, 0;"></circle></marker><marker id="gf9672710-5ea7-4a15-8832-736909ef3177-light_flowchart-v2-circleEnd-margin" class="marker flowchart-v2" viewBox="0 0 10 10" refY="5" refX="12.25" markerUnits="userSpaceOnUse" markerWidth="14" markerHeight="14" orient="auto"><circle cx="5" cy="5" r="5" class="arrowMarkerPath" style="stroke-width: 0; stroke-dasharray: 1, 0;"></circle></marker><marker id="gf9672710-5ea7-4a15-8832-736909ef3177-light_flowchart-v2-circleStart-margin" class="marker flowchart-v2" viewBox="0 0 10 10" refX="-2" refY="5" markerUnits="userSpaceOnUse" markerWidth="14" markerHeight="14" orient="auto"><circle cx="5" cy="5" r="5" class="arrowMarkerPath" style="stroke-width: 0; stroke-dasharray: 1, 0;"></circle></marker><marker id="gf9672710-5ea7-4a15-8832-736909ef3177-light_flowchart-v2-crossEnd" class="marker cross flowchart-v2" viewBox="0 0 11 11" refX="12" refY="5.2" markerUnits="userSpaceOnUse" markerWidth="11" markerHeight="11" orient="auto"><path d="M 1,1 l 9,9 M 10,1 l -9,9" class="arrowMarkerPath" style="stroke-width: 2; stroke-dasharray: 1, 0;"></path></marker><marker id="gf9672710-5ea7-4a15-8832-736909ef3177-light_flowchart-v2-crossStart" class="marker cross flowchart-v2" viewBox="0 0 11 11" refX="-1" refY="5.2" markerUnits="userSpaceOnUse" markerWidth="11" markerHeight="11" orient="auto"><path d="M 1,1 l 9,9 M 10,1 l -9,9" class="arrowMarkerPath" style="stroke-width: 2; stroke-dasharray: 1, 0;"></path></marker><marker id="gf9672710-5ea7-4a15-8832-736909ef3177-light_flowchart-v2-crossEnd-margin" class="marker cross flowchart-v2" viewBox="0 0 15 15" refX="17.7" refY="7.5" markerUnits="userSpaceOnUse" markerWidth="12" markerHeight="12" orient="auto"><path d="M 1,1 L 14,14 M 1,14 L 14,1" class="arrowMarkerPath" style="stroke-width: 2.5;"></path></marker><marker id="gf9672710-5ea7-4a15-8832-736909ef3177-light_flowchart-v2-crossStart-margin" class="marker cross flowchart-v2" viewBox="0 0 15 15" refX="-3.5" refY="7.5" markerUnits="userSpaceOnUse" markerWidth="12" markerHeight="12" orient="auto"><path d="M 1,1 L 14,14 M 1,14 L 14,1" class="arrowMarkerPath" style="stroke-width: 2.5; stroke-dasharray: 1, 0;"></path></marker><g class="root"><g class="clusters"></g><g class="edgePaths"><path d="M409.584,60.1L409.5,64.183C409.417,68.267,409.25,76.433,409.167,84.017C409.084,91.6,409.084,98.6,409.084,102.1L409.084,105.6" id="gf9672710-5ea7-4a15-8832-736909ef3177-light-L_START_Q_ORDER_0" class="edge-thickness-normal edge-pattern-solid edge-thickness-normal edge-pattern-solid flowchart-link" style=";" data-edge="true" data-et="edge" data-id="L_START_Q_ORDER_0" data-points="W3sieCI6NDA5LjU4MzU5MTQ2MTE4MTY0LCJ5Ijo2MC4wOTk5OTg0NzQxMjExfSx7IngiOjQwOS4wODM1OTE0NjExODE2NCwieSI6ODQuNTk5OTk4NDc0MTIxMX0seyJ4Ijo0MDkuMDgzNTkxNDYxMTgxNiwieSI6MTA5LjU5OTk5ODQ3NDEyMTA3fV0=" data-look="classic" marker-end="url(#gf9672710-5ea7-4a15-8832-736909ef3177-light_flowchart-v2-pointEnd)"></path><path d="M341.023,241.089L300.476,259.983C259.929,278.876,178.835,316.663,138.288,344.957C97.741,373.252,97.741,392.053,97.741,401.454L97.741,410.855" id="gf9672710-5ea7-4a15-8832-736909ef3177-light-L_Q_ORDER_Q_LEAK_0" class="edge-thickness-normal edge-pattern-solid edge-thickness-normal edge-pattern-solid flowchart-link" style=";" data-edge="true" data-et="edge" data-id="L_Q_ORDER_Q_LEAK_0" data-points="W3sieCI6MzQxLjAyMjYzMTQ3OTU3MzUsInkiOjI0MS4wODkwNDE1NDQyNzA3fSx7IngiOjk3Ljc0MDYyMzQ3NDEyMTEsInkiOjM1NC40NTAwMDA3NjI5Mzk0NX0seyJ4Ijo5Ny43NDA2MjM0NzQxMjEwOCwieSI6NDE0Ljg1NDY5MDU1MTc1Nzh9XQ==" data-look="classic" marker-end="url(#gf9672710-5ea7-4a15-8832-736909ef3177-light_flowchart-v2-pointEnd)"></path><path d="M76.326,572.921L72.052,586.558C67.778,600.194,59.23,627.467,60.886,660.283C62.542,693.098,74.402,731.454,80.332,750.633L86.262,769.811" id="gf9672710-5ea7-4a15-8832-736909ef3177-light-L_Q_LEAK_UUID4_0" class="edge-thickness-normal edge-pattern-solid edge-thickness-normal edge-pattern-solid flowchart-link" style=";" data-edge="true" data-et="edge" data-id="L_Q_LEAK_UUID4_0" data-points="W3sieCI6NzYuMzI1ODk3OTM5OTkwMTQsInkiOjU3Mi45MjEyMTE5NjU4NjkxfSx7IngiOjUwLjY4MjAyOTcyNDEyMTA5NCwieSI6NjU0Ljc0MDYyNzI4ODgxODR9LHsieCI6ODcuNDQ0MDk1NDIwNjI2MTQsInkiOjc3My42MzI4MTYzMTQ2OTczfV0=" data-look="classic" marker-end="url(#gf9672710-5ea7-4a15-8832-736909ef3177-light_flowchart-v2-pointEnd)"></path><path d="M127.697,564.379L135.243,579.44C142.79,594.5,157.882,624.62,155.929,658.898C153.975,693.176,134.975,731.612,125.475,750.829L115.975,770.047" id="gf9672710-5ea7-4a15-8832-736909ef3177-light-L_Q_LEAK_UUID4_2" class="edge-thickness-normal edge-pattern-solid edge-thickness-normal edge-pattern-solid flowchart-link" style=";" data-edge="true" data-et="edge" data-id="L_Q_LEAK_UUID4_2" data-points="W3sieCI6MTI3LjY5NzA5MjgwNDcwNzMyLCJ5Ijo1NjQuMzc5NDY4MTY5NDEzOH0seyJ4IjoxNzIuOTc0OTk4NDc0MTIxMSwieSI6NjU0Ljc0MDYyNzI4ODgxODR9LHsieCI6MTE0LjIwMjA3Njk3Mzc3MzUzLCJ5Ijo3NzMuNjMyODE2MzE0Njk3M31d" data-look="classic" marker-end="url(#gf9672710-5ea7-4a15-8832-736909ef3177-light_flowchart-v2-pointEnd)"></path><path d="M454.72,263.513L467.496,278.669C480.272,293.826,505.824,324.138,518.601,346.177C531.377,368.217,531.377,381.983,531.377,388.867L531.377,395.75" id="gf9672710-5ea7-4a15-8832-736909ef3177-light-L_Q_ORDER_Q_64_0" class="edge-thickness-normal edge-pattern-solid edge-thickness-normal edge-pattern-solid flowchart-link" style=";" data-edge="true" data-et="edge" data-id="L_Q_ORDER_Q_64_0" data-points="W3sieCI6NDU0LjcyMDI1MTU1MTI1NjQ3LCJ5IjoyNjMuNTEzMzQxNDM1ODA0MTR9LHsieCI6NTMxLjM3NjU2MDIxMTE4MTYsInkiOjM1NC40NTAwMDA3NjI5Mzk0NX0seyJ4Ijo1MzEuMzc2NTYwMjExMTgxNSwieSI6Mzk5Ljc0OTk5OTk5OTk5OTl9XQ==" data-look="classic" marker-end="url(#gf9672710-5ea7-4a15-8832-736909ef3177-light_flowchart-v2-pointEnd)"></path><path d="M470.23,548.294L445.405,566.035C420.579,583.776,370.929,619.258,346.104,646.775C321.279,674.292,321.279,693.844,321.279,703.62L321.279,713.395" id="gf9672710-5ea7-4a15-8832-736909ef3177-light-L_Q_64_Q_COORD_0" class="edge-thickness-normal edge-pattern-solid edge-thickness-normal edge-pattern-solid flowchart-link" style=";" data-edge="true" data-et="edge" data-id="L_Q_64_Q_COORD_0" data-points="W3sieCI6NDcwLjIyOTYyMTU4OTY4Nzk1LCJ5Ijo1NDguMjkzNjg5NDMwMjYzOH0seyJ4IjozMjEuMjc4OTAzOTYxMTgxNjQsInkiOjY1NC43NDA2MjcyODg4MTg0fSx7IngiOjMyMS4yNzg5MDM5NjExODE1LCJ5Ijo3MTcuMzk1MzE3MDc3NjM3fV0=" data-look="classic" marker-end="url(#gf9672710-5ea7-4a15-8832-736909ef3177-light_flowchart-v2-pointEnd)"></path><path d="M282.723,857.915L269.966,874.783C257.209,891.651,231.695,925.388,218.938,959.334C206.181,993.28,206.181,1027.434,206.181,1044.512L206.181,1061.589" id="gf9672710-5ea7-4a15-8832-736909ef3177-light-L_Q_COORD_SNOW_0" class="edge-thickness-normal edge-pattern-solid edge-thickness-normal edge-pattern-solid flowchart-link" style=";" data-edge="true" data-et="edge" data-id="L_Q_COORD_SNOW_0" data-points="W3sieCI6MjgyLjcyMzE2OTY4MDg5NzcsInkiOjg1Ny45MTQ1Nzk3NDU1OTV9LHsieCI6MjA2LjE4MTI0NzcxMTE4MTY0LCJ5Ijo5NTkuMTI1MDAzODE0Njk3M30seyJ4IjoyMDYuMTgxMjQ3NzExMTgxNjQsInkiOjEwNjUuNTg5MDY5MzY2NDU1fV0=" data-look="classic" marker-end="url(#gf9672710-5ea7-4a15-8832-736909ef3177-light_flowchart-v2-pointEnd)"></path><path d="M359.835,857.915L372.592,874.783C385.349,891.651,410.863,925.388,423.62,957.867C436.377,990.346,436.377,1021.568,436.377,1037.178L436.377,1052.789" id="gf9672710-5ea7-4a15-8832-736909ef3177-light-L_Q_COORD_FLAKE_0" class="edge-thickness-normal edge-pattern-solid edge-thickness-normal edge-pattern-solid flowchart-link" style=";" data-edge="true" data-et="edge" data-id="L_Q_COORD_FLAKE_0" data-points="W3sieCI6MzU5LjgzNDYzODI0MTQ2NTYsInkiOjg1Ny45MTQ1Nzk3NDU1OTUzfSx7IngiOjQzNi4zNzY1NjAyMTExODE2NCwieSI6OTU5LjEyNTAwMzgxNDY5NzN9LHsieCI6NDM2LjM3NjU2MDIxMTE4MTY0LCJ5IjoxMDU2Ljc4OTA3MDEyOTM5NDV9XQ==" data-look="classic" marker-end="url(#gf9672710-5ea7-4a15-8832-736909ef3177-light_flowchart-v2-pointEnd)"></path><path d="M589.327,551.491L610.591,568.699C631.856,585.907,674.386,620.324,695.651,644.416C716.916,668.507,716.916,682.274,716.916,689.157L716.916,696.041" id="gf9672710-5ea7-4a15-8832-736909ef3177-light-L_Q_64_Q_DB_0" class="edge-thickness-normal edge-pattern-solid edge-thickness-normal edge-pattern-solid flowchart-link" style=";" data-edge="true" data-et="edge" data-id="L_Q_64_Q_DB_0" data-points="W3sieCI6NTg5LjMyNjUzNTQ3NDkwMiwieSI6NTUxLjQ5MDY1Mjc4ODAzNzd9LHsieCI6NzE2LjkxNTYyMjcxMTE4MTYsInkiOjY1NC43NDA2MjcyODg4MTg0fSx7IngiOjcxNi45MTU2MjI3MTExODExLCJ5Ijo3MDAuMDQwNjI2NTI1ODc4N31d" data-look="classic" marker-end="url(#gf9672710-5ea7-4a15-8832-736909ef3177-light_flowchart-v2-pointEnd)"></path><path d="M665.765,862.675L651.014,878.75C636.263,894.825,606.761,926.975,592.01,966.344C577.259,1005.713,577.259,1052.301,577.259,1100.356C577.259,1148.41,577.259,1197.932,580.678,1231.092C584.097,1264.252,590.934,1281.05,594.353,1289.449L597.772,1297.848" id="gf9672710-5ea7-4a15-8832-736909ef3177-light-L_Q_DB_UUID7_0" class="edge-thickness-normal edge-pattern-solid edge-thickness-normal edge-pattern-solid flowchart-link" style=";" data-edge="true" data-et="edge" data-id="L_Q_DB_UUID7_0" data-points="W3sieCI6NjY1Ljc2NTIyOTg0ODAzNDIsInkiOjg2Mi42NzQ2MTE3MTQ0ODl9LHsieCI6NTc3LjI1OTM3MjcxMTE4MTYsInkiOjk1OS4xMjUwMDM4MTQ2OTczfSx7IngiOjU3Ny4yNTkzNzI3MTExODE2LCJ5IjoxMDk4Ljg4OTA2ODYwMzUxNTZ9LHsieCI6NTc3LjI1OTM3MjcxMTE4MTYsInkiOjEyNDcuNDUzMTMyNjI5Mzk0NX0seyJ4Ijo1OTkuMjc5NTY5ODU2NDEzNywieSI6MTMwMS41NTMxMzExMDM1MTU2fV0=" data-look="classic" marker-end="url(#gf9672710-5ea7-4a15-8832-736909ef3177-light_flowchart-v2-pointEnd)"></path><path d="M751.048,879.692L757.259,892.931C763.469,906.17,775.891,932.647,782.101,952.77C788.312,972.892,788.312,986.658,788.312,993.542L788.312,1000.425" id="gf9672710-5ea7-4a15-8832-736909ef3177-light-L_Q_DB_Q_LIB_0" class="edge-thickness-normal edge-pattern-solid edge-thickness-normal edge-pattern-solid flowchart-link" style=";" data-edge="true" data-et="edge" data-id="L_Q_DB_Q_LIB_0" data-points="W3sieCI6NzUxLjA0ODM4MTMyOTYwODMsInkiOjg3OS42OTIyNDU5NTkyMTAzfSx7IngiOjc4OC4zMTE3MTc5ODcwNjA1LCJ5Ijo5NTkuMTI1MDAzODE0Njk3M30seyJ4Ijo3ODguMzExNzE3OTg3MDYwOSwieSI6MTAwNC40MjUwMDMwNTE3NTg4fV0=" data-look="classic" marker-end="url(#gf9672710-5ea7-4a15-8832-736909ef3177-light_flowchart-v2-pointEnd)"></path><path d="M749.396,1154.437L738.535,1169.94C727.674,1185.442,705.952,1216.448,688.147,1240.451C670.342,1264.454,656.454,1281.455,649.51,1289.955L642.567,1298.455" id="gf9672710-5ea7-4a15-8832-736909ef3177-light-L_Q_LIB_UUID7_0" class="edge-thickness-normal edge-pattern-solid edge-thickness-normal edge-pattern-solid flowchart-link" style=";" data-edge="true" data-et="edge" data-id="L_Q_LIB_UUID7_0" data-points="W3sieCI6NzQ5LjM5NTU3Mzk5NTExMDEsInkiOjExNTQuNDM2OTkwMTYzMzIzNn0seyJ4Ijo2ODQuMjI5Njg2NzM3MDYwNSwieSI6MTI0Ny40NTMxMzI2MjkzOTQ1fSx7IngiOjY0MC4wMzU5OTM5ODM4MDQ0LCJ5IjoxMzAxLjU1MzEzMTEwMzUxNTZ9XQ==" data-look="classic" marker-end="url(#gf9672710-5ea7-4a15-8832-736909ef3177-light_flowchart-v2-pointEnd)"></path><path d="M817.728,1163.937L824.022,1177.856C830.317,1191.776,842.906,1219.614,849.201,1241.884C855.495,1264.153,855.495,1280.853,855.495,1289.203L855.495,1297.553" id="gf9672710-5ea7-4a15-8832-736909ef3177-light-L_Q_LIB_ULID_0" class="edge-thickness-normal edge-pattern-solid edge-thickness-normal edge-pattern-solid flowchart-link" style=";" data-edge="true" data-et="edge" data-id="L_Q_LIB_ULID_0" data-points="W3sieCI6ODE3LjcyNzcyODY2MDk1MzQsInkiOjExNjMuOTM3MTIzNDgxMzh9LHsieCI6ODU1LjQ5NTMxMTczNzA2MDUsInkiOjEyNDcuNDUzMTMyNjI5Mzk0NX0seyJ4Ijo4NTUuNDk1MzExNzM3MDYwNSwieSI6MTMwMS41NTMxMzExMDM1MTU2fV0=" data-look="classic" marker-end="url(#gf9672710-5ea7-4a15-8832-736909ef3177-light_flowchart-v2-pointEnd)"></path></g><g class="edgeLabels"><g class="edgeLabel"><g class="label" data-id="L_START_Q_ORDER_0" transform="translate(0, 0)"><text y="-10.1" text-anchor="middle"><tspan class="text-outer-tspan row" x="0" y="-0.1em" dy="1.1em" text-anchor="middle"></tspan></text></g></g><g><rect class="background" style="stroke: none"></rect></g><g class="edgeLabel" transform="translate(97.7406234741211, 354.45000076293945)"><g class="label" data-id="L_Q_ORDER_Q_LEAK_0" transform="translate(0, -19.299999237060547)"><g><rect class="background" style="" x="-59.46875" y="-1" width="118.9375" height="40.599998474121094"></rect><text y="-10.1" text-anchor="middle" style=""><tspan class="text-outer-tspan row" x="0" y="-0.1em" dy="1.1em" text-anchor="middle"><tspan font-style="normal" class="text-inner-tspan" font-weight="normal">No</tspan><tspan font-style="normal" class="text-inner-tspan" font-weight="normal"> (read-mostly</tspan></tspan><tspan class="text-outer-tspan row" x="0" y="1em" dy="1.1em" text-anchor="middle"><tspan font-style="normal" class="text-inner-tspan" font-weight="normal">or</tspan><tspan font-style="normal" class="text-inner-tspan" font-weight="normal"> public</tspan><tspan font-style="normal" class="text-inner-tspan" font-weight="normal"> token)</tspan></tspan></text></g></g></g><g class="edgeLabel" transform="translate(50.682029724121094, 654.7406272888184)"><g class="label" data-id="L_Q_LEAK_UUID4_0" transform="translate(0, -10.5)"><g><rect class="background" style="" x="-13.328125" y="-1" width="26.65625" height="23"></rect><text y="-10.1" text-anchor="middle" style=""><tspan class="text-outer-tspan row" x="0" y="-0.1em" dy="1.1em" text-anchor="middle"><tspan font-style="normal" class="text-inner-tspan" font-weight="normal">Yes</tspan></tspan></text></g></g></g><g class="edgeLabel" transform="translate(165.98313, 668.88452)"><g class="label" data-id="L_Q_LEAK_UUID4_2" transform="translate(0, -19.299999237060547)"><g><rect class="background" style="" x="-60.7890625" y="-1" width="121.578125" height="40.599998474121094"></rect><text y="-10.1" text-anchor="middle" style=""><tspan class="text-outer-tspan row" x="0" y="-0.1em" dy="1.1em" text-anchor="middle"><tspan font-style="normal" class="text-inner-tspan" font-weight="normal">No,</tspan><tspan font-style="normal" class="text-inner-tspan" font-weight="normal"> but</tspan><tspan font-style="normal" class="text-inner-tspan" font-weight="normal"> no</tspan></tspan><tspan class="text-outer-tspan row" x="0" y="1em" dy="1.1em" text-anchor="middle"><tspan font-style="normal" class="text-inner-tspan" font-weight="normal">ordering</tspan><tspan font-style="normal" class="text-inner-tspan" font-weight="normal"> needed</tspan></tspan></text></g></g></g><g class="edgeLabel" transform="translate(531.3765602111816, 354.45000076293945)"><g class="label" data-id="L_Q_ORDER_Q_64_0" transform="translate(0, -10.5)"><g><rect class="background" style="" x="-13.328125" y="-1" width="26.65625" height="23"></rect><text y="-10.1" text-anchor="middle" style=""><tspan class="text-outer-tspan row" x="0" y="-0.1em" dy="1.1em" text-anchor="middle"><tspan font-style="normal" class="text-inner-tspan" font-weight="normal">Yes</tspan></tspan></text></g></g></g><g class="edgeLabel" transform="translate(321.27890396118164, 654.7406272888184)"><g class="label" data-id="L_Q_64_Q_COORD_0" transform="translate(0, -10.5)"><g><rect class="background" style="" x="-13.328125" y="-1" width="26.65625" height="23"></rect><text y="-10.1" text-anchor="middle" style=""><tspan class="text-outer-tspan row" x="0" y="-0.1em" dy="1.1em" text-anchor="middle"><tspan font-style="normal" class="text-inner-tspan" font-weight="normal">Yes</tspan></tspan></text></g></g></g><g class="edgeLabel" transform="translate(206.18124771118164, 959.1250038146973)"><g class="label" data-id="L_Q_COORD_SNOW_0" transform="translate(0, -10.5)"><g><rect class="background" style="" x="-13.328125" y="-1" width="26.65625" height="23"></rect><text y="-10.1" text-anchor="middle" style=""><tspan class="text-outer-tspan row" x="0" y="-0.1em" dy="1.1em" text-anchor="middle"><tspan font-style="normal" class="text-inner-tspan" font-weight="normal">Yes</tspan></tspan></text></g></g></g><g class="edgeLabel" transform="translate(436.37656021118164, 959.1250038146973)"><g class="label" data-id="L_Q_COORD_FLAKE_0" transform="translate(0, -10.5)"><g><rect class="background" style="" x="-11.3984375" y="-1" width="22.796875" height="23"></rect><text y="-10.1" text-anchor="middle" style=""><tspan class="text-outer-tspan row" x="0" y="-0.1em" dy="1.1em" text-anchor="middle"><tspan font-style="normal" class="text-inner-tspan" font-weight="normal">No</tspan></tspan></text></g></g></g><g class="edgeLabel" transform="translate(716.9156227111816, 654.7406272888184)"><g class="label" data-id="L_Q_64_Q_DB_0" transform="translate(0, -19.299999237060547)"><g><rect class="background" style="" x="-42.1796875" y="-1" width="84.359375" height="40.599998474121094"></rect><text y="-10.1" text-anchor="middle" style=""><tspan class="text-outer-tspan row" x="0" y="-0.1em" dy="1.1em" text-anchor="middle"><tspan font-style="normal" class="text-inner-tspan" font-weight="normal">No,</tspan><tspan font-style="normal" class="text-inner-tspan" font-weight="normal"> 128-bit</tspan></tspan><tspan class="text-outer-tspan row" x="0" y="1em" dy="1.1em" text-anchor="middle"><tspan font-style="normal" class="text-inner-tspan" font-weight="normal">is</tspan><tspan font-style="normal" class="text-inner-tspan" font-weight="normal"> fine</tspan></tspan></text></g></g></g><g class="edgeLabel" transform="translate(577.2593727111816, 1098.8890686035156)"><g class="label" data-id="L_Q_DB_UUID7_0" transform="translate(0, -10.5)"><g><rect class="background" style="" x="-13.328125" y="-1" width="26.65625" height="23"></rect><text y="-10.1" text-anchor="middle" style=""><tspan class="text-outer-tspan row" x="0" y="-0.1em" dy="1.1em" text-anchor="middle"><tspan font-style="normal" class="text-inner-tspan" font-weight="normal">Yes</tspan></tspan></text></g></g></g><g class="edgeLabel" transform="translate(788.3117179870605, 959.1250038146973)"><g class="label" data-id="L_Q_DB_Q_LIB_0" transform="translate(0, -19.299999237060547)"><g><rect class="background" style="" x="-36.1171875" y="-1" width="72.234375" height="40.599998474121094"></rect><text y="-10.1" text-anchor="middle" style=""><tspan class="text-outer-tspan row" x="0" y="-0.1em" dy="1.1em" text-anchor="middle"><tspan font-style="normal" class="text-inner-tspan" font-weight="normal">No</tspan><tspan font-style="normal" class="text-inner-tspan" font-weight="normal"> native</tspan></tspan><tspan class="text-outer-tspan row" x="0" y="1em" dy="1.1em" text-anchor="middle"><tspan font-style="normal" class="text-inner-tspan" font-weight="normal">function</tspan></tspan></text></g></g></g><g class="edgeLabel" transform="translate(696.77141, 1229.5514)"><g class="label" data-id="L_Q_LIB_UUID7_0" transform="translate(0, -10.5)"><g><rect class="background" style="" x="-51.1484375" y="-1" width="102.296875" height="23"></rect><text y="-10.1" text-anchor="middle" style=""><tspan class="text-outer-tspan row" x="0" y="-0.1em" dy="1.1em" text-anchor="middle"><tspan font-style="normal" class="text-inner-tspan" font-weight="normal">Have</tspan><tspan font-style="normal" class="text-inner-tspan" font-weight="normal"> UUID</tspan><tspan font-style="normal" class="text-inner-tspan" font-weight="normal"> lib</tspan></tspan></text></g></g></g><g class="edgeLabel" transform="translate(855.4953117370605, 1247.4531326293945)"><g class="label" data-id="L_Q_LIB_ULID_0" transform="translate(0, -28.099998474121094)"><g><rect class="background" style="" x="-63.21875" y="-1" width="126.4375" height="58.19999694824219"></rect><text y="-10.1" text-anchor="middle" style=""><tspan class="text-outer-tspan row" x="0" y="-0.1em" dy="1.1em" text-anchor="middle"><tspan font-style="normal" class="text-inner-tspan" font-weight="normal">Want</tspan><tspan font-style="normal" class="text-inner-tspan" font-weight="normal"> compact</tspan></tspan><tspan class="text-outer-tspan row" x="0" y="1em" dy="1.1em" text-anchor="middle"><tspan font-style="normal" class="text-inner-tspan" font-weight="normal">string</tspan><tspan font-style="normal" class="text-inner-tspan" font-weight="normal"> (URLs,</tspan></tspan><tspan class="text-outer-tspan row" x="0" y="2.1em" dy="1.1em" text-anchor="middle"><tspan font-style="normal" class="text-inner-tspan" font-weight="normal">logs,</tspan><tspan font-style="normal" class="text-inner-tspan" font-weight="normal"> copy-paste)</tspan></tspan></text></g></g></g></g><g class="nodes"><g class="node default" id="gf9672710-5ea7-4a15-8832-736909ef3177-light-flowchart-START-0" data-look="classic" transform="translate(409.08359146118164, 33.79999923706055)"><g class="basic label-container outer-path"><path d="M-31.15000057220459 -25.799999237060547 C-9.188616797434872 -25.799999237060547, 12.772766977334847 -25.799999237060547, 31.15000057220459 -25.799999237060547 C31.15000057220459 -25.799999237060547, 31.15000057220459 -25.799999237060547, 31.15000057220459 -25.799999237060547 C31.54312764924955 -25.78739241687515, 31.93625472629451 -25.774785596689753, 32.803012198825286 -25.746990371586765 C33.375849853805406 -25.69172941194891, 33.948687508785525 -25.63646845231105, 34.44923124610231 -25.58818159996402 C34.979358777167434 -25.502474691941813, 35.50948630823256 -25.41676778391961, 36.08189304685753 -25.32422550149928 C36.44860043765971 -25.240526932538046, 36.815307828461876 -25.15682836357681, 37.694288643546784 -24.956206728419545 C38.28592152771817 -24.78061319394186, 38.87755441188956 -24.605019659464176, 39.279792356805515 -24.48563754880318 C39.68043439690165 -24.33819757455338, 40.0810764369978 -24.190757600303577, 40.83188901178644 -23.914451632345997 C41.29421905658005 -23.709791836049366, 41.75654910137366 -23.505132039752738, 42.34420071041056 -23.24499610449772 C42.77257050174352 -23.02151585874326, 43.20094029307648 -22.798035612988805, 43.8105130395184 -22.480021901620034 C44.26516458659692 -22.20440946195198, 44.71981613367543 -21.92879702228392, 45.22480060722664 -21.62267246679901 C45.54241129758945 -21.4011209983471, 45.860021987952265 -21.17956952989519, 46.58125180255584 -20.67647083276321 C46.914501500427775 -20.410713066857245, 47.2477511982997 -20.144955300951274, 47.874292676586506 -19.64530514498651 C48.35934173229699 -19.204796426285, 48.84439078800747 -18.76428770758349, 49.09860984701088 -18.533412684464313 C49.37710646524168 -18.245842061143424, 49.65560308347248 -17.958271437822535, 50.24917233196044 -17.345362455817106 C50.50652945242056 -17.043056138089643, 50.763886572880686 -16.74074982036218, 51.32125222338968 -16.086036412270357 C51.6260232196659 -15.677671042469159, 51.93079421594213 -15.26930567266796, 52.31044411506427 -14.76060939466161 C52.6015820770166 -14.313343303613614, 52.892720038968925 -13.866077212565616, 53.21268320532037 -13.374527866909407 C53.46946692851057 -12.91858236421365, 53.726250651700774 -12.462636861517893, 54.024262000206406 -11.93348753532484 C54.18041942512403 -11.609223301249756, 54.33657685004165 -11.28495906717467, 54.74184554837108 -10.443409943732584 C54.965218089385374 -9.891675448812997, 55.18859063039966 -9.339940953893407, 55.362485145093814 -8.910418140577123 C55.51647887423815 -8.446613563963126, 55.670472603382485 -7.98280898734913, 55.8836304491449 -7.340811518003323 C55.995704955865165 -6.913422850480481, 56.107779462585434 -6.486034182957639, 56.30313996268467 -5.741039926302914 C56.4022205737941 -5.232281928950562, 56.50130118490353 -4.723523931598209, 56.61928983113747 -4.117677170096137 C56.70058853696174 -3.4871404619684494, 56.781887242786006 -2.8566037538407616, 56.83078092687991 -2.4773939951584394 C56.87256428210571 -1.826584510599401, 56.914347637331495 -1.1757750260403625, 56.93674418763487 -0.8269306768952902 C56.93674418763487 -0.48073983609710375, 56.93674418763487 -0.13454899529891728, 56.93674418763487 0.826930676895284 C56.90207612877068 1.366913677258545, 56.86740806990648 1.9068966776218061, 56.83078092687991 2.4773939951584216 C56.77456103310866 2.9134243893745344, 56.718341139337404 3.349454783590647, 56.61928983113748 4.117677170096119 C56.50414640656907 4.708914319683492, 56.38900298200066 5.300151469270865, 56.30313996268467 5.741039926302909 C56.18485063857443 6.1921283860526, 56.0665613144642 6.643216845802291, 55.88363044914491 7.340811518003306 C55.73859407798252 7.77763795953686, 55.593557706820135 8.214464401070416, 55.36248514509383 8.910418140577105 C55.20584423738734 9.297324211058065, 55.04920332968085 9.684230281539026, 54.74184554837109 10.443409943732577 C54.469557550839 11.008821796637797, 54.19726955330691 11.574233649543016, 54.024262000206406 11.933487535324835 C53.75813824011195 12.406017219325388, 53.492014480017495 12.878546903325944, 53.212683205320374 13.374527866909402 C53.03189608005916 13.652265439451133, 52.85110895479795 13.930003011992865, 52.310444115064286 14.760609394661596 C52.008436979889176 15.165271442380227, 51.706429844714066 15.569933490098856, 51.32125222338968 16.086036412270353 C50.920487763553346 16.556797150937886, 50.51972330371702 17.02755788960542, 50.24917233196045 17.345362455817092 C49.82205568017705 17.786395465712715, 49.39493902839366 18.22742847560834, 49.09860984701088 18.533412684464306 C48.74651533451507 18.853175604802697, 48.394420822019256 19.172938525141088, 47.874292676586535 19.64530514498649 C47.43155386081399 19.998377568790403, 46.98881504504145 20.351449992594315, 46.58125180255585 20.676470832763208 C46.29269227314047 20.877757468942676, 46.004132743725094 21.079044105122144, 45.224800607226655 21.622672466799003 C44.88892438027632 21.826282609404096, 44.55304815332599 22.029892752009186, 43.810513039518405 22.48002190162003 C43.37178807421479 22.70890443500217, 42.933063108911185 22.937786968384316, 42.34420071041057 23.244996104497716 C41.984669297314696 23.404149995954825, 41.625137884218816 23.56330388741193, 40.83188901178645 23.914451632345994 C40.423967065501124 24.06457067936813, 40.016045119215796 24.214689726390265, 39.27979235680553 24.485637548803172 C38.959100271749996 24.58081727630055, 38.638408186694456 24.675997003797928, 37.69428864354681 24.95620672841954 C37.2417357105808 25.059498982185158, 36.78918277761478 25.162791235950774, 36.081893046857545 25.324225501499278 C35.43158994785609 25.429361463369982, 34.78128684885463 25.534497425240684, 34.44923124610233 25.588181599964017 C33.95094985754573 25.636250206247027, 33.45266846898913 25.684318812530034, 32.803012198825286 25.746990371586765 C32.163479595282205 25.767498937407694, 31.523946991739123 25.788007503228624, 31.150000572204593 25.799999237060547 C31.150000572204593 25.799999237060547, 31.15000057220459 25.799999237060547, 31.15000057220459 25.799999237060547 C11.956349164126905 25.799999237060547, -7.237302243950779 25.799999237060547, -31.150000572204586 25.799999237060547 C-31.624731921009488 25.784775526712888, -32.099463269814386 25.76955181636523, -32.80301219882527 25.746990371586765 C-33.37305878588121 25.691998662914802, -33.94310537293716 25.63700695424284, -34.449231246102315 25.588181599964017 C-35.018552240561235 25.49613819673015, -35.587873235020155 25.404094793496284, -36.08189304685753 25.324225501499278 C-36.49513783646246 25.229905074946224, -36.908382626067386 25.135584648393166, -37.694288643546784 24.956206728419545 C-38.18909191271855 24.809351715404727, -38.68389518189032 24.662496702389905, -39.2797923568055 24.485637548803183 C-39.6971195183536 24.332057295623493, -40.1144466799017 24.1784770424438, -40.831889011786444 23.914451632345997 C-41.22213297257874 23.74170220707904, -41.612376933371046 23.568952781812087, -42.34420071041056 23.244996104497723 C-42.64734806116308 23.08684432578528, -42.9504954119156 22.928692547072835, -43.8105130395184 22.480021901620038 C-44.12482586293678 22.289483620956634, -44.439138686355165 22.098945340293234, -45.224800607226626 21.622672466799017 C-45.65999865244514 21.319097149874324, -46.095196697663646 21.015521832949634, -46.58125180255584 20.67647083276321 C-46.943525492707664 20.3875672053749, -47.30579918285949 20.098663577986592, -47.874292676586506 19.645305144986512 C-48.22437119669107 19.32737309559762, -48.574449716795634 19.009441046208725, -49.09860984701086 18.533412684464324 C-49.356128287057224 18.26750375245933, -49.61364672710358 18.001594820454336, -50.24917233196044 17.3453624558171 C-50.63142027357262 16.896352273075387, -51.0136682151848 16.447342090333674, -51.32125222338967 16.08603641227036 C-51.584214140964434 15.733691399043693, -51.847176058539205 15.381346385817025, -52.31044411506427 14.760609394661614 C-52.52036173932623 14.438119553020476, -52.730279363588195 14.115629711379338, -53.21268320532036 13.374527866909418 C-53.40584143062704 13.031555878486142, -53.598999655933724 12.688583890062866, -54.0242620002064 11.933487535324842 C-54.26904693485028 11.425186380978268, -54.513831869494155 10.916885226631694, -54.74184554837108 10.443409943732586 C-54.90259023414546 10.0463674620828, -55.06333491991983 9.649324980433013, -55.362485145093814 8.910418140577127 C-55.4906716188771 8.524340905282854, -55.618858092660396 8.13826366998858, -55.8836304491449 7.340811518003316 C-55.97337982432484 6.9985582528169665, -56.06312919950477 6.656304987630617, -56.30313996268467 5.741039926302918 C-56.381617694053624 5.3380733619977425, -56.46009542542257 4.935106797692566, -56.61928983113747 4.117677170096139 C-56.66393666683629 3.7714051289310437, -56.708583502535106 3.4251330877659476, -56.83078092687991 2.477393995158454 C-56.86063812461576 2.0123440401263846, -56.890495322351605 1.5472940850943155, -56.93674418763487 0.8269306768952934 C-56.93674418763487 0.21128013375387433, -56.93674418763487 -0.40437040938754476, -56.93674418763487 -0.8269306768952809 C-56.89859278264974 -1.4211696047984996, -56.860441377664614 -2.0154085327017186, -56.83078092687991 -2.4773939951584185 C-56.78650798767468 -2.8207661689534897, -56.742235048469446 -3.1641383427485614, -56.61928983113748 -4.117677170096128 C-56.49866108257264 -4.737080299081521, -56.3780323340078 -5.356483428066913, -56.30313996268467 -5.741039926302906 C-56.1460701400674 -6.340015234434299, -55.98900031745013 -6.938990542565691, -55.88363044914491 -7.340811518003303 C-55.70427883639613 -7.880989999803801, -55.52492722364735 -8.4211684816043, -55.36248514509383 -8.910418140577093 C-55.22068563838602 -9.260665663652329, -55.078886131678225 -9.610913186727563, -54.74184554837109 -10.443409943732574 C-54.52709932008539 -10.889335081601029, -54.3123530917997 -11.335260219469482, -54.024262000206406 -11.933487535324831 C-53.73977543198885 -12.438622244583891, -53.45528886377131 -12.94375695384295, -53.21268320532037 -13.374527866909409 C-52.95966329506757 -13.763234394416855, -52.706643384814775 -14.1519409219243, -52.31044411506428 -14.760609394661605 C-52.04627026051329 -15.114578293026684, -51.7820964059623 -15.468547191391762, -51.32125222338968 -16.086036412270353 C-50.93807489725784 -16.536138302952335, -50.554897571126 -16.986240193634316, -50.24917233196045 -17.345362455817092 C-49.940748905455614 -17.663834965717577, -49.63232547895078 -17.98230747561806, -49.09860984701089 -18.5334126844643 C-48.63222849245966 -18.956967890893285, -48.16584713790843 -19.380523097322268, -47.874292676586535 -19.645305144986487 C-47.39945372484306 -20.023976573006724, -46.924614773099584 -20.40264800102696, -46.58125180255585 -20.676470832763204 C-46.234972827187875 -20.91802005580466, -45.888693851819895 -21.159569278846117, -45.22480060722666 -21.622672466799 C-44.80986402242715 -21.8742094629425, -44.39492743762763 -22.125746459086, -43.810513039518405 -22.480021901620027 C-43.44656039153262 -22.669895764951413, -43.08260774354684 -22.859769628282802, -42.344200710410576 -23.244996104497716 C-41.99278053129283 -23.40055939328391, -41.641360352175084 -23.556122682070104, -40.83188901178645 -23.91445163234599 C-40.48457872466649 -24.042265028507234, -40.13726843754653 -24.170078424668482, -39.27979235680553 -24.485637548803172 C-38.861717347595665 -24.609720017016155, -38.4436423383858 -24.733802485229138, -37.69428864354682 -24.956206728419538 C-37.091076807117496 -25.09388589375943, -36.48786497068818 -25.23156505909932, -36.081893046857545 -25.324225501499278 C-35.62034310069614 -25.39884531742136, -35.15879315453474 -25.47346513334345, -34.44923124610233 -25.588181599964017 C-33.88422144985726 -25.64268741548408, -33.31921165361219 -25.697193231004146, -32.803012198825286 -25.746990371586765 C-32.16130439438524 -25.76756869186669, -31.519596589945202 -25.788147012146613, -31.150000572204597 -25.799999237060547 C-31.150000572204593 -25.799999237060547, -31.150000572204593 -25.799999237060547, -31.15000057220459 -25.799999237060547" stroke="none" stroke-width="0" fill="#ECECFF" style=""></path><path d="M-31.15000057220459 -25.799999237060547 C-9.600239311758141 -25.799999237060547, 11.949521948688307 -25.799999237060547, 31.15000057220459 -25.799999237060547 M-31.15000057220459 -25.799999237060547 C-13.031259944157384 -25.799999237060547, 5.087480683889822 -25.799999237060547, 31.15000057220459 -25.799999237060547 M31.15000057220459 -25.799999237060547 C31.15000057220459 -25.799999237060547, 31.15000057220459 -25.799999237060547, 31.15000057220459 -25.799999237060547 M31.15000057220459 -25.799999237060547 C31.15000057220459 -25.799999237060547, 31.15000057220459 -25.799999237060547, 31.15000057220459 -25.799999237060547 M31.15000057220459 -25.799999237060547 C31.55664757892083 -25.786958859045537, 31.963294585637072 -25.77391848103053, 32.803012198825286 -25.746990371586765 M31.15000057220459 -25.799999237060547 C31.623520319396796 -25.784814380418368, 32.097040066589 -25.76962952377619, 32.803012198825286 -25.746990371586765 M32.803012198825286 -25.746990371586765 C33.2125612096742 -25.70748167106492, 33.62211022052311 -25.667972970543072, 34.44923124610231 -25.58818159996402 M32.803012198825286 -25.746990371586765 C33.155309705270476 -25.71300465483974, 33.50760721171566 -25.679018938092714, 34.44923124610231 -25.58818159996402 M34.44923124610231 -25.58818159996402 C34.983781930129446 -25.50175959087298, 35.518332614156584 -25.41533758178194, 36.08189304685753 -25.32422550149928 M34.44923124610231 -25.58818159996402 C35.017815632804236 -25.496257285759828, 35.586400019506165 -25.404332971555633, 36.08189304685753 -25.32422550149928 M36.08189304685753 -25.32422550149928 C36.45630185692057 -25.238769133848212, 36.8307106669836 -25.153312766197143, 37.694288643546784 -24.956206728419545 M36.08189304685753 -25.32422550149928 C36.59147620952505 -25.207916469961326, 37.10105937219256 -25.09160743842337, 37.694288643546784 -24.956206728419545 M37.694288643546784 -24.956206728419545 C38.11205737298502 -24.832215162435087, 38.529826102423264 -24.70822359645063, 39.279792356805515 -24.48563754880318 M37.694288643546784 -24.956206728419545 C38.02272367763663 -24.858728934292355, 38.35115871172648 -24.76125114016516, 39.279792356805515 -24.48563754880318 M39.279792356805515 -24.48563754880318 C39.75711192114641 -24.309979536832046, 40.234431485487306 -24.13432152486091, 40.83188901178644 -23.914451632345997 M39.279792356805515 -24.48563754880318 C39.8690070938364 -24.26880107893449, 40.45822183086729 -24.051964609065802, 40.83188901178644 -23.914451632345997 M40.83188901178644 -23.914451632345997 C41.14818573914114 -23.774436453755122, 41.46448246649584 -23.63442127516425, 42.34420071041056 -23.24499610449772 M40.83188901178644 -23.914451632345997 C41.3038678524064 -23.7055206003584, 41.77584669302636 -23.4965895683708, 42.34420071041056 -23.24499610449772 M42.34420071041056 -23.24499610449772 C42.645478189849435 -23.087819836451896, 42.94675566928831 -22.930643568406072, 43.8105130395184 -22.480021901620034 M42.34420071041056 -23.24499610449772 C42.750997241668806 -23.032770614705907, 43.15779377292705 -22.820545124914098, 43.8105130395184 -22.480021901620034 M43.8105130395184 -22.480021901620034 C44.166545446643255 -22.264192964142282, 44.522577853768105 -22.048364026664533, 45.22480060722664 -21.62267246679901 M43.8105130395184 -22.480021901620034 C44.16317067523398 -22.266238770402943, 44.515828310949566 -22.052455639185848, 45.22480060722664 -21.62267246679901 M45.22480060722664 -21.62267246679901 C45.63041231925908 -21.339735295133202, 46.03602403129151 -21.05679812346739, 46.58125180255584 -20.67647083276321 M45.22480060722664 -21.62267246679901 C45.60232231232299 -21.359329667975015, 45.97984401741934 -21.09598686915102, 46.58125180255584 -20.67647083276321 M46.58125180255584 -20.67647083276321 C46.95711087975626 -20.37673322072598, 47.33296995695668 -20.076995608688748, 47.874292676586506 -19.64530514498651 M46.58125180255584 -20.67647083276321 C47.03203194950283 -20.316985661336485, 47.48281209644983 -19.95750048990976, 47.874292676586506 -19.64530514498651 M47.874292676586506 -19.64530514498651 C48.345061002123124 -19.21776580758149, 48.81582932765974 -18.790226470176467, 49.09860984701088 -18.533412684464313 M47.874292676586506 -19.64530514498651 C48.12811343156356 -19.414791851045514, 48.38193418654062 -19.184278557104516, 49.09860984701088 -18.533412684464313 M49.09860984701088 -18.533412684464313 C49.495789560697744 -18.12329202102168, 49.89296927438462 -17.713171357579046, 50.24917233196044 -17.345362455817106 M49.09860984701088 -18.533412684464313 C49.52311560934076 -18.09507563228745, 49.94762137167065 -17.656738580110584, 50.24917233196044 -17.345362455817106 M50.24917233196044 -17.345362455817106 C50.50841021943988 -17.040846882130072, 50.767648106919324 -16.73633130844304, 51.32125222338968 -16.086036412270357 M50.24917233196044 -17.345362455817106 C50.56684596952846 -16.972204924987654, 50.884519607096486 -16.5990473941582, 51.32125222338968 -16.086036412270357 M51.32125222338968 -16.086036412270357 C51.5833941483396 -15.734790114458109, 51.84553607328953 -15.383543816645862, 52.31044411506427 -14.76060939466161 M51.32125222338968 -16.086036412270357 C51.64981731099339 -15.64578912777663, 51.97838239859711 -15.205541843282907, 52.31044411506427 -14.76060939466161 M52.31044411506427 -14.76060939466161 C52.516310565391045 -14.444343244077439, 52.72217701571782 -14.12807709349327, 53.21268320532037 -13.374527866909407 M52.31044411506427 -14.76060939466161 C52.58758410473849 -14.334847948014652, 52.86472409441271 -13.90908650136769, 53.21268320532037 -13.374527866909407 M53.21268320532037 -13.374527866909407 C53.41920350618022 -13.00783016028462, 53.62572380704006 -12.64113245365983, 54.024262000206406 -11.93348753532484 M53.21268320532037 -13.374527866909407 C53.44539320909662 -12.961327690761546, 53.67810321287288 -12.548127514613686, 54.024262000206406 -11.93348753532484 M54.024262000206406 -11.93348753532484 C54.2243115010639 -11.518080466420635, 54.4243610019214 -11.102673397516428, 54.74184554837108 -10.443409943732584 M54.024262000206406 -11.93348753532484 C54.26363695932445 -11.436420310912593, 54.50301191844249 -10.939353086500347, 54.74184554837108 -10.443409943732584 M54.74184554837108 -10.443409943732584 C54.86633285396928 -10.135923892106698, 54.99082015956749 -9.82843784048081, 55.362485145093814 -8.910418140577123 M54.74184554837108 -10.443409943732584 C54.911259869301176 -10.024953295632177, 55.08067419023127 -9.60649664753177, 55.362485145093814 -8.910418140577123 M55.362485145093814 -8.910418140577123 C55.53197322238728 -8.399947056027077, 55.701461299680744 -7.8894759714770295, 55.8836304491449 -7.340811518003323 M55.362485145093814 -8.910418140577123 C55.537960749077214 -8.381913579619821, 55.713436353060615 -7.85340901866252, 55.8836304491449 -7.340811518003323 M55.8836304491449 -7.340811518003323 C56.002115524714704 -6.888976573099093, 56.1206006002845 -6.437141628194862, 56.30313996268467 -5.741039926302914 M55.8836304491449 -7.340811518003323 C56.0432295712552 -6.732190894699666, 56.202828693365504 -6.123570271396009, 56.30313996268467 -5.741039926302914 M56.30313996268467 -5.741039926302914 C56.42421206280013 -5.119360280807444, 56.54528416291559 -4.4976806353119745, 56.61928983113747 -4.117677170096137 M56.30313996268467 -5.741039926302914 C56.36739367744757 -5.411110681022836, 56.43164739221047 -5.081181435742759, 56.61928983113747 -4.117677170096137 M56.61928983113747 -4.117677170096137 C56.67739602080023 -3.6670170374367816, 56.73550221046299 -3.2163569047774265, 56.83078092687991 -2.4773939951584394 M56.61928983113747 -4.117677170096137 C56.66507718324206 -3.7625595089082995, 56.71086453534665 -3.4074418477204618, 56.83078092687991 -2.4773939951584394 M56.83078092687991 -2.4773939951584394 C56.869038140507406 -1.881507012243179, 56.9072953541349 -1.2856200293279187, 56.93674418763487 -0.8269306768952902 M56.83078092687991 -2.4773939951584394 C56.86161279320652 -1.9971627900869393, 56.892444659533126 -1.5169315850154392, 56.93674418763487 -0.8269306768952902 M56.93674418763487 -0.8269306768952902 C56.93674418763487 -0.3329304458973677, 56.93674418763487 0.1610697851005548, 56.93674418763487 0.826930676895284 M56.93674418763487 -0.8269306768952902 C56.93674418763487 -0.3839512795201703, 56.93674418763487 0.05902811785494966, 56.93674418763487 0.826930676895284 M56.93674418763487 0.826930676895284 C56.89750243823079 1.4381525992338968, 56.858260688826704 2.04937452157251, 56.83078092687991 2.4773939951584216 M56.93674418763487 0.826930676895284 C56.906806681071366 1.2932315067422162, 56.87686917450787 1.7595323365891486, 56.83078092687991 2.4773939951584216 M56.83078092687991 2.4773939951584216 C56.75522059426916 3.06342501381202, 56.67966026165842 3.6494560324656184, 56.61928983113748 4.117677170096119 M56.83078092687991 2.4773939951584216 C56.76199769300322 3.010863174320242, 56.693214459126516 3.544332353482062, 56.61928983113748 4.117677170096119 M56.61928983113748 4.117677170096119 C56.511958077206536 4.668803041957266, 56.40462632327559 5.219928913818412, 56.30313996268467 5.741039926302909 M56.61928983113748 4.117677170096119 C56.52592213479732 4.597100557533204, 56.43255443845717 5.0765239449702895, 56.30313996268467 5.741039926302909 M56.30313996268467 5.741039926302909 C56.21156399901658 6.090258765043024, 56.119988035348506 6.43947760378314, 55.88363044914491 7.340811518003306 M56.30313996268467 5.741039926302909 C56.163652367243614 6.272966582025927, 56.02416477180256 6.804893237748945, 55.88363044914491 7.340811518003306 M55.88363044914491 7.340811518003306 C55.70642385553242 7.8745295439276966, 55.529217261919925 8.408247569852088, 55.36248514509383 8.910418140577105 M55.88363044914491 7.340811518003306 C55.69208203710644 7.917724815968295, 55.50053362506797 8.494638113933284, 55.36248514509383 8.910418140577105 M55.36248514509383 8.910418140577105 C55.20626784402059 9.296277894484065, 55.050050542947346 9.682137648391027, 54.74184554837109 10.443409943732577 M55.36248514509383 8.910418140577105 C55.21910555288877 9.264568505379435, 55.07572596068371 9.618718870181764, 54.74184554837109 10.443409943732577 M54.74184554837109 10.443409943732577 C54.461530797728486 11.02548952121678, 54.18121604708588 11.607569098700983, 54.024262000206406 11.933487535324835 M54.74184554837109 10.443409943732577 C54.50112640089233 10.943268404036868, 54.260407253413575 11.443126864341156, 54.024262000206406 11.933487535324835 M54.024262000206406 11.933487535324835 C53.7369298629491 12.4436748405591, 53.44959772569179 12.953862145793364, 53.212683205320374 13.374527866909402 M54.024262000206406 11.933487535324835 C53.73384553223919 12.44915138205689, 53.443429064271974 12.964815228788947, 53.212683205320374 13.374527866909402 M53.212683205320374 13.374527866909402 C52.87585145249535 13.89199189123875, 52.53901969967032 14.409455915568095, 52.310444115064286 14.760609394661596 M53.212683205320374 13.374527866909402 C52.96225165985761 13.7592579710261, 52.71182011439483 14.143988075142797, 52.310444115064286 14.760609394661596 M52.310444115064286 14.760609394661596 C52.01380640837154 15.158076897378848, 51.7171687016788 15.5555444000961, 51.32125222338968 16.086036412270353 M52.310444115064286 14.760609394661596 C51.956898536745946 15.23432826094339, 51.60335295842761 15.708047127225184, 51.32125222338968 16.086036412270353 M51.32125222338968 16.086036412270353 C51.07691635458415 16.373047226874117, 50.83258048577863 16.660058041477882, 50.24917233196045 17.345362455817092 M51.32125222338968 16.086036412270353 C51.096901302138974 16.349571770300493, 50.87255038088827 16.61310712833063, 50.24917233196045 17.345362455817092 M50.24917233196045 17.345362455817092 C50.00765618963598 17.59474770161116, 49.76614004731151 17.844132947405228, 49.09860984701088 18.533412684464306 M50.24917233196045 17.345362455817092 C49.94667881538542 17.657711846860398, 49.64418529881038 17.970061237903703, 49.09860984701088 18.533412684464306 M49.09860984701088 18.533412684464306 C48.76022639153042 18.84072358559604, 48.42184293604997 19.148034486727774, 47.874292676586535 19.64530514498649 M49.09860984701088 18.533412684464306 C48.68993290548798 18.904562269756067, 48.28125596396508 19.275711855047827, 47.874292676586535 19.64530514498649 M47.874292676586535 19.64530514498649 C47.43782655254746 19.993375264056297, 47.00136042850839 20.341445383126104, 46.58125180255585 20.676470832763208 M47.874292676586535 19.64530514498649 C47.48936480344473 19.952274880456184, 47.104436930302924 20.259244615925876, 46.58125180255585 20.676470832763208 M46.58125180255585 20.676470832763208 C46.06695322556731 21.03522325644384, 45.55265464857877 21.39397568012447, 45.224800607226655 21.622672466799003 M46.58125180255585 20.676470832763208 C46.293230846273374 20.877381783639617, 46.0052098899909 21.078292734516022, 45.224800607226655 21.622672466799003 M45.224800607226655 21.622672466799003 C44.82418861454872 21.865525811017754, 44.42357662187079 22.10837915523651, 43.810513039518405 22.48002190162003 M45.224800607226655 21.622672466799003 C44.90005876002378 21.819532882968307, 44.5753169128209 22.016393299137615, 43.810513039518405 22.48002190162003 M43.810513039518405 22.48002190162003 C43.45186677745635 22.667127426813906, 43.09322051539431 22.854232952007784, 42.34420071041057 23.244996104497716 M43.810513039518405 22.48002190162003 C43.349453448363526 22.72055639500277, 42.88839385720864 22.96109088838551, 42.34420071041057 23.244996104497716 M42.34420071041057 23.244996104497716 C41.93006818908256 23.428320286884862, 41.51593566775455 23.611644469272008, 40.83188901178645 23.914451632345994 M42.34420071041057 23.244996104497716 C41.85268835574122 23.462574043713868, 41.361176001071875 23.680151982930024, 40.83188901178645 23.914451632345994 M40.83188901178645 23.914451632345994 C40.31318763042696 24.105338535509294, 39.79448624906747 24.296225438672597, 39.27979235680553 24.485637548803172 M40.83188901178645 23.914451632345994 C40.44028583588817 24.05856522101664, 40.048682659989886 24.20267880968728, 39.27979235680553 24.485637548803172 M39.27979235680553 24.485637548803172 C38.75147375525709 24.64243973654182, 38.22315515370865 24.79924192428047, 37.69428864354681 24.95620672841954 M39.27979235680553 24.485637548803172 C38.85483790181951 24.61176180041157, 38.42988344683349 24.73788605201997, 37.69428864354681 24.95620672841954 M37.69428864354681 24.95620672841954 C37.30577783513209 25.044881785170244, 36.91726702671737 25.133556841920946, 36.081893046857545 25.324225501499278 M37.69428864354681 24.95620672841954 C37.337311361585115 25.03768446353283, 36.980334079623425 25.11916219864612, 36.081893046857545 25.324225501499278 M36.081893046857545 25.324225501499278 C35.517099137270684 25.415537000759098, 34.952305227683816 25.506848500018915, 34.44923124610233 25.588181599964017 M36.081893046857545 25.324225501499278 C35.63361028827271 25.39670038142256, 35.18532752968789 25.46917526134584, 34.44923124610233 25.588181599964017 M34.44923124610233 25.588181599964017 C33.897584211357426 25.641398325953233, 33.34593717661253 25.694615051942446, 32.803012198825286 25.746990371586765 M34.44923124610233 25.588181599964017 C33.87087297008422 25.64397512727389, 33.29251469406611 25.699768654583764, 32.803012198825286 25.746990371586765 M32.803012198825286 25.746990371586765 C32.22206745382682 25.76562013881852, 31.641122708828345 25.78424990605027, 31.150000572204593 25.799999237060547 M32.803012198825286 25.746990371586765 C32.2717685722863 25.76402632068688, 31.740524945747314 25.781062269786997, 31.150000572204593 25.799999237060547 M31.150000572204593 25.799999237060547 C31.150000572204593 25.799999237060547, 31.150000572204593 25.799999237060547, 31.15000057220459 25.799999237060547 M31.150000572204593 25.799999237060547 C31.150000572204593 25.799999237060547, 31.15000057220459 25.799999237060547, 31.15000057220459 25.799999237060547 M31.15000057220459 25.799999237060547 C9.11238920798931 25.799999237060547, -12.92522215622597 25.799999237060547, -31.150000572204586 25.799999237060547 M31.15000057220459 25.799999237060547 C18.22129325379906 25.799999237060547, 5.292585935393529 25.799999237060547, -31.150000572204586 25.799999237060547 M-31.150000572204586 25.799999237060547 C-31.690633123078843 25.782662203431432, -32.2312656739531 25.765325169802317, -32.80301219882527 25.746990371586765 M-31.150000572204586 25.799999237060547 C-31.799636919375814 25.779166663847207, -32.44927326654704 25.758334090633866, -32.80301219882527 25.746990371586765 M-32.80301219882527 25.746990371586765 C-33.415411169943624 25.687912979360497, -34.02781014106198 25.628835587134226, -34.449231246102315 25.588181599964017 M-32.80301219882527 25.746990371586765 C-33.3161108234298 25.697492364362546, -33.82920944803433 25.647994357138327, -34.449231246102315 25.588181599964017 M-34.449231246102315 25.588181599964017 C-34.789885894548405 25.533107198219508, -35.130540542994495 25.478032796475, -36.08189304685753 25.324225501499278 M-34.449231246102315 25.588181599964017 C-35.02173192270884 25.49562413037933, -35.59423259931536 25.403066660794643, -36.08189304685753 25.324225501499278 M-36.08189304685753 25.324225501499278 C-36.665557392809674 25.191007923301505, -37.249221738761825 25.057790345103733, -37.694288643546784 24.956206728419545 M-36.08189304685753 25.324225501499278 C-36.556634321370304 25.215868903568076, -37.03137559588308 25.107512305636874, -37.694288643546784 24.956206728419545 M-37.694288643546784 24.956206728419545 C-38.066350033748925 24.845780860797642, -38.43841142395107 24.735354993175736, -39.2797923568055 24.485637548803183 M-37.694288643546784 24.956206728419545 C-38.02252772816637 24.858787091066567, -38.35076681278594 24.761367453713593, -39.2797923568055 24.485637548803183 M-39.2797923568055 24.485637548803183 C-39.689362291977055 24.334912026637074, -40.098932227148616 24.18418650447096, -40.831889011786444 23.914451632345997 M-39.2797923568055 24.485637548803183 C-39.639723738163234 24.353179473294322, -39.99965511952096 24.22072139778546, -40.831889011786444 23.914451632345997 M-40.831889011786444 23.914451632345997 C-41.317272937301766 23.69958656692294, -41.80265686281708 23.484721501499884, -42.34420071041056 23.244996104497723 M-40.831889011786444 23.914451632345997 C-41.23492955714714 23.736037538687803, -41.63797010250784 23.557623445029613, -42.34420071041056 23.244996104497723 M-42.34420071041056 23.244996104497723 C-42.70539248323769 23.056562587968184, -43.06658425606481 22.868129071438645, -43.8105130395184 22.480021901620038 M-42.34420071041056 23.244996104497723 C-42.89194982728828 22.95923574107267, -43.439698944166 22.673475377647623, -43.8105130395184 22.480021901620038 M-43.8105130395184 22.480021901620038 C-44.19850329528293 22.244819928491744, -44.586493551047475 22.00961795536345, -45.224800607226626 21.622672466799017 M-43.8105130395184 22.480021901620038 C-44.10854135060728 22.299355388029195, -44.40656966169617 22.11868887443835, -45.224800607226626 21.622672466799017 M-45.224800607226626 21.622672466799017 C-45.516169440324305 21.419426181983575, -45.807538273421976 21.216179897168136, -46.58125180255584 20.67647083276321 M-45.224800607226626 21.622672466799017 C-45.52940025538414 21.410196938150587, -45.83399990354165 21.197721409502154, -46.58125180255584 20.67647083276321 M-46.58125180255584 20.67647083276321 C-46.97666859204429 20.361136465628856, -47.37208538153275 20.045802098494498, -47.874292676586506 19.645305144986512 M-46.58125180255584 20.67647083276321 C-46.85062814729677 20.46165036623791, -47.12000449203769 20.246829899712615, -47.874292676586506 19.645305144986512 M-47.874292676586506 19.645305144986512 C-48.32923035544824 19.232142782035663, -48.78416803430997 18.818980419084813, -49.09860984701086 18.533412684464324 M-47.874292676586506 19.645305144986512 C-48.24881433051014 19.305174488193018, -48.62333598443378 18.96504383139952, -49.09860984701086 18.533412684464324 M-49.09860984701086 18.533412684464324 C-49.418420907878975 18.203181507141586, -49.73823196874709 17.87295032981885, -50.24917233196044 17.3453624558171 M-49.09860984701086 18.533412684464324 C-49.43208410719108 18.189073132082314, -49.7655583673713 17.8447335797003, -50.24917233196044 17.3453624558171 M-50.24917233196044 17.3453624558171 C-50.54157404516039 17.00189076536362, -50.83397575836034 16.65841907491014, -51.32125222338967 16.08603641227036 M-50.24917233196044 17.3453624558171 C-50.533147867102514 17.011788633573513, -50.81712340224459 16.678214811329926, -51.32125222338967 16.08603641227036 M-51.32125222338967 16.08603641227036 C-51.63681062100024 15.66321690743362, -51.95236901861081 15.240397402596882, -52.31044411506427 14.760609394661614 M-51.32125222338967 16.08603641227036 C-51.63306472794057 15.6682360628757, -51.94487723249147 15.250435713481037, -52.31044411506427 14.760609394661614 M-52.31044411506427 14.760609394661614 C-52.56438860598195 14.370482462968248, -52.818333096899615 13.980355531274881, -53.21268320532036 13.374527866909418 M-52.31044411506427 14.760609394661614 C-52.58920358507946 14.33235999131956, -52.86796305509465 13.904110587977508, -53.21268320532036 13.374527866909418 M-53.21268320532036 13.374527866909418 C-53.43889395506248 12.972867774419992, -53.665104704804605 12.571207681930566, -54.0242620002064 11.933487535324842 M-53.21268320532036 13.374527866909418 C-53.484389886624655 12.892085140968716, -53.75609656792896 12.409642415028014, -54.0242620002064 11.933487535324842 M-54.0242620002064 11.933487535324842 C-54.23729636264004 11.491117123526248, -54.45033072507368 11.048746711727652, -54.74184554837108 10.443409943732586 M-54.0242620002064 11.933487535324842 C-54.25176014401556 11.461082772024625, -54.47925828782473 10.988678008724408, -54.74184554837108 10.443409943732586 M-54.74184554837108 10.443409943732586 C-54.97071776740225 9.878091137782278, -55.19958998643341 9.31277233183197, -55.362485145093814 8.910418140577127 M-54.74184554837108 10.443409943732586 C-54.89489499873921 10.065374842313487, -55.047944449107334 9.687339740894386, -55.362485145093814 8.910418140577127 M-55.362485145093814 8.910418140577127 C-55.47051940611397 8.585036159306345, -55.57855366713413 8.259654178035563, -55.8836304491449 7.340811518003316 M-55.362485145093814 8.910418140577127 C-55.52900805947067 8.408877654297354, -55.695530973847525 7.907337168017582, -55.8836304491449 7.340811518003316 M-55.8836304491449 7.340811518003316 C-55.99704715370563 6.90830446840256, -56.110463858266364 6.475797418801803, -56.30313996268467 5.741039926302918 M-55.8836304491449 7.340811518003316 C-56.0388328114877 6.748957645260882, -56.19403517383051 6.157103772518447, -56.30313996268467 5.741039926302918 M-56.30313996268467 5.741039926302918 C-56.41321997734927 5.175802316419517, -56.523299992013875 4.610564706536118, -56.61928983113747 4.117677170096139 M-56.30313996268467 5.741039926302918 C-56.368772299143274 5.404031749987188, -56.43440463560189 5.067023573671458, -56.61928983113747 4.117677170096139 M-56.61928983113747 4.117677170096139 C-56.669154683148264 3.7309352248292162, -56.71901953515906 3.3441932795622926, -56.83078092687991 2.477393995158454 M-56.61928983113747 4.117677170096139 C-56.683453912273826 3.620033227433546, -56.74761799341018 3.1223892847709527, -56.83078092687991 2.477393995158454 M-56.83078092687991 2.477393995158454 C-56.86599393631843 1.9289229497238507, -56.901206945756954 1.3804519042892476, -56.93674418763487 0.8269306768952934 M-56.83078092687991 2.477393995158454 C-56.87280660752842 1.8228100965391065, -56.914832288176925 1.168226197919759, -56.93674418763487 0.8269306768952934 M-56.93674418763487 0.8269306768952934 C-56.93674418763487 0.20010774659035524, -56.93674418763487 -0.42671518371458295, -56.93674418763487 -0.8269306768952809 M-56.93674418763487 0.8269306768952934 C-56.93674418763487 0.24803742035968768, -56.93674418763487 -0.33085583617591807, -56.93674418763487 -0.8269306768952809 M-56.93674418763487 -0.8269306768952809 C-56.9136304861325 -1.1869452348387752, -56.89051678463013 -1.5469597927822698, -56.83078092687991 -2.4773939951584185 M-56.93674418763487 -0.8269306768952809 C-56.91311240566722 -1.1950147562725606, -56.88948062369956 -1.5630988356498405, -56.83078092687991 -2.4773939951584185 M-56.83078092687991 -2.4773939951584185 C-56.76914634204295 -2.955419664028469, -56.70751175720599 -3.43344533289852, -56.61928983113748 -4.117677170096128 M-56.83078092687991 -2.4773939951584185 C-56.78071717250654 -2.865678587871788, -56.730653418133166 -3.253963180585158, -56.61928983113748 -4.117677170096128 M-56.61928983113748 -4.117677170096128 C-56.529701905634816 -4.57769223313752, -56.44011398013215 -5.037707296178912, -56.30313996268467 -5.741039926302906 M-56.61928983113748 -4.117677170096128 C-56.5522418883385 -4.461954185781164, -56.485193945539514 -4.8062312014662005, -56.30313996268467 -5.741039926302906 M-56.30313996268467 -5.741039926302906 C-56.18907059037233 -6.176035880908526, -56.07500121806 -6.611031835514146, -55.88363044914491 -7.340811518003303 M-56.30313996268467 -5.741039926302906 C-56.15543729076125 -6.304294229089862, -56.00773461883783 -6.867548531876818, -55.88363044914491 -7.340811518003303 M-55.88363044914491 -7.340811518003303 C-55.71972022573214 -7.834482995375027, -55.55581000231937 -8.328154472746752, -55.36248514509383 -8.910418140577093 M-55.88363044914491 -7.340811518003303 C-55.74021127627734 -7.772767215938415, -55.596792103409776 -8.204722913873526, -55.36248514509383 -8.910418140577093 M-55.36248514509383 -8.910418140577093 C-55.13986732295352 -9.460288465286457, -54.917249500813206 -10.01015878999582, -54.74184554837109 -10.443409943732574 M-55.36248514509383 -8.910418140577093 C-55.151720066614224 -9.431011959287297, -54.94095498813462 -9.951605777997502, -54.74184554837109 -10.443409943732574 M-54.74184554837109 -10.443409943732574 C-54.4701585293568 -11.007573851886692, -54.19847151034252 -11.571737760040808, -54.024262000206406 -11.933487535324831 M-54.74184554837109 -10.443409943732574 C-54.48327093366958 -10.980345663770699, -54.22469631896808 -11.517281383808822, -54.024262000206406 -11.933487535324831 M-54.024262000206406 -11.933487535324831 C-53.842555767025395 -12.256125352089029, -53.660849533844384 -12.578763168853227, -53.21268320532037 -13.374527866909409 M-54.024262000206406 -11.933487535324831 C-53.733438300370516 -12.449874463476418, -53.44261460053462 -12.966261391628006, -53.21268320532037 -13.374527866909409 M-53.21268320532037 -13.374527866909409 C-52.91743727971625 -13.828104893269247, -52.62219135411214 -14.281681919629083, -52.31044411506428 -14.760609394661605 M-53.21268320532037 -13.374527866909409 C-52.959765799237644 -13.763076920485398, -52.70684839315492 -14.151625974061387, -52.31044411506428 -14.760609394661605 M-52.31044411506428 -14.760609394661605 C-51.94644281570243 -15.248337974605915, -51.58244151634059 -15.736066554550224, -51.32125222338968 -16.086036412270353 M-52.31044411506428 -14.760609394661605 C-51.96659416117669 -15.221337007495755, -51.622744207289095 -15.682064620329905, -51.32125222338968 -16.086036412270353 M-51.32125222338968 -16.086036412270353 C-51.104295678873385 -16.340885914636296, -50.88733913435709 -16.595735417002242, -50.24917233196045 -17.345362455817092 M-51.32125222338968 -16.086036412270353 C-51.008773438159984 -16.453091773947733, -50.69629465293029 -16.820147135625113, -50.24917233196045 -17.345362455817092 M-50.24917233196045 -17.345362455817092 C-49.94777253229081 -17.65658249435975, -49.646372732621174 -17.967802532902407, -49.09860984701089 -18.5334126844643 M-50.24917233196045 -17.345362455817092 C-49.90679487043944 -17.698895294549892, -49.56441740891844 -18.052428133282696, -49.09860984701089 -18.5334126844643 M-49.09860984701089 -18.5334126844643 C-48.79201627696153 -18.81185285276179, -48.48542270691217 -19.090293021059278, -47.874292676586535 -19.645305144986487 M-49.09860984701089 -18.5334126844643 C-48.76048503793596 -18.840488689773945, -48.422360228861024 -19.147564695083595, -47.874292676586535 -19.645305144986487 M-47.874292676586535 -19.645305144986487 C-47.57489192495594 -19.884069277023276, -47.27549117332534 -20.122833409060068, -46.58125180255585 -20.676470832763204 M-47.874292676586535 -19.645305144986487 C-47.59555441349261 -19.8675914922672, -47.31681615039868 -20.08987783954791, -46.58125180255585 -20.676470832763204 M-46.58125180255585 -20.676470832763204 C-46.22495148392221 -20.925010511049827, -45.868651165288576 -21.173550189336453, -45.22480060722666 -21.622672466799 M-46.58125180255585 -20.676470832763204 C-46.10928631558501 -21.00569352541742, -45.63732082861417 -21.33491621807164, -45.22480060722666 -21.622672466799 M-45.22480060722666 -21.622672466799 C-44.66458244734287 -21.962280007527887, -44.104364287459084 -22.301887548256776, -43.810513039518405 -22.480021901620027 M-45.22480060722666 -21.622672466799 C-44.81956942853568 -21.86832598872421, -44.4143382498447 -22.11397951064942, -43.810513039518405 -22.480021901620027 M-43.810513039518405 -22.480021901620027 C-43.26959128567768 -22.76222043412182, -42.72866953183695 -23.044418966623606, -42.344200710410576 -23.244996104497716 M-43.810513039518405 -22.480021901620027 C-43.26806016015602 -22.763019221325735, -42.72560728079364 -23.046016541031438, -42.344200710410576 -23.244996104497716 M-42.344200710410576 -23.244996104497716 C-41.8900332764226 -23.44604255512594, -41.43586584243462 -23.647089005754157, -40.83188901178645 -23.91445163234599 M-42.344200710410576 -23.244996104497716 C-41.87116876216938 -23.454393315989904, -41.3981368139282 -23.66379052748209, -40.83188901178645 -23.91445163234599 M-40.83188901178645 -23.91445163234599 C-40.28624855092698 -24.115252365787406, -39.740608090067504 -24.31605309922882, -39.27979235680553 -24.485637548803172 M-40.83188901178645 -23.91445163234599 C-40.42396820132555 -24.06457026137424, -40.01604739086464 -24.21468889040249, -39.27979235680553 -24.485637548803172 M-39.27979235680553 -24.485637548803172 C-38.94495807457656 -24.585014606187716, -38.6101237923476 -24.68439166357226, -37.69428864354682 -24.956206728419538 M-39.27979235680553 -24.485637548803172 C-38.89504235608478 -24.599829329423127, -38.51029235536403 -24.714021110043078, -37.69428864354682 -24.956206728419538 M-37.69428864354682 -24.956206728419538 C-37.317907486842294 -25.042113271320762, -36.941526330137776 -25.128019814221986, -36.081893046857545 -25.324225501499278 M-37.69428864354682 -24.956206728419538 C-37.33894190225953 -25.037312303264166, -36.98359516097224 -25.118417878108797, -36.081893046857545 -25.324225501499278 M-36.081893046857545 -25.324225501499278 C-35.623914005182804 -25.398268001276737, -35.16593496350806 -25.472310501054196, -34.44923124610233 -25.588181599964017 M-36.081893046857545 -25.324225501499278 C-35.60507446635612 -25.40131383181143, -35.1282558858547 -25.478402162123583, -34.44923124610233 -25.588181599964017 M-34.44923124610233 -25.588181599964017 C-34.0330168195852 -25.62833330511904, -33.61680239306808 -25.668485010274065, -32.803012198825286 -25.746990371586765 M-34.44923124610233 -25.588181599964017 C-34.10593311338165 -25.62129915795117, -33.76263498066097 -25.654416715938325, -32.803012198825286 -25.746990371586765 M-32.803012198825286 -25.746990371586765 C-32.462992336665664 -25.757894146757714, -32.12297247450604 -25.76879792192866, -31.150000572204597 -25.799999237060547 M-32.803012198825286 -25.746990371586765 C-32.16352972952198 -25.767497329700205, -31.524047260218683 -25.788004287813646, -31.150000572204597 -25.799999237060547 M-31.150000572204597 -25.799999237060547 C-31.150000572204597 -25.799999237060547, -31.150000572204593 -25.799999237060547, -31.15000057220459 -25.799999237060547 M-31.150000572204597 -25.799999237060547 C-31.150000572204593 -25.799999237060547, -31.150000572204593 -25.799999237060547, -31.15000057220459 -25.799999237060547" stroke="#9370DB" stroke-width="1.3" fill="none" stroke-dasharray="0 0" style=""></path></g><g class="label" style="" transform="translate(0, -18.299999237060547)"><rect></rect><g><rect class="background" style="stroke: none"></rect><text y="-10.1" style=""><tspan class="text-outer-tspan row" x="0" y="-0.1em" dy="1.1em"><tspan font-style="normal" class="text-inner-tspan" font-weight="normal">New</tspan><tspan font-style="normal" class="text-inner-tspan" font-weight="normal"> table</tspan><tspan font-style="normal" class="text-inner-tspan" font-weight="normal"> /</tspan></tspan><tspan class="text-outer-tspan row" x="0" y="1em" dy="1.1em"><tspan font-style="normal" class="text-inner-tspan" font-weight="normal">new</tspan><tspan font-style="normal" class="text-inner-tspan" font-weight="normal"> system</tspan></tspan></text></g></g></g><g class="node default decision" id="gf9672710-5ea7-4a15-8832-736909ef3177-light-flowchart-Q_ORDER-1" data-look="classic" transform="translate(409.08359146118164, 209.375)"><polygon points="99.7750015258789,0 199.5500030517578,-99.7750015258789 99.7750015258789,-199.5500030517578 0,-99.7750015258789" class="label-container" transform="translate(-99.2750015258789, 99.7750015258789)" style="fill:#5A5A5A !important;stroke:#3D3D3D !important"></polygon><g class="label" style="color:#ffffff !important" transform="translate(0, -35.900001525878906)"><rect></rect><g><rect class="background" style="stroke: none"></rect><text y="-10.1" style="fill:#ffffff !important"><tspan class="text-outer-tspan row" x="0" y="-0.1em" dy="1.1em"><tspan font-style="normal" class="text-inner-tspan" font-weight="normal">Need</tspan></tspan><tspan class="text-outer-tspan row" x="0" y="1em" dy="1.1em"><tspan font-style="normal" class="text-inner-tspan" font-weight="normal">time</tspan><tspan font-style="normal" class="text-inner-tspan" font-weight="normal"> ordering</tspan></tspan><tspan class="text-outer-tspan row" x="0" y="2.1em" dy="1.1em"><tspan font-style="normal" class="text-inner-tspan" font-weight="normal">or</tspan><tspan font-style="normal" class="text-inner-tspan" font-weight="normal"> good</tspan><tspan font-style="normal" class="text-inner-tspan" font-weight="normal"> index</tspan></tspan><tspan class="text-outer-tspan row" x="0" y="3.2em" dy="1.1em"><tspan font-style="normal" class="text-inner-tspan" font-weight="normal">locality?</tspan></tspan></text></g></g></g><g class="node default decision" id="gf9672710-5ea7-4a15-8832-736909ef3177-light-flowchart-Q_LEAK-3" data-look="classic" transform="translate(97.7406234741211, 504.5953140258789)"><polygon points="89.7406234741211,0 179.4812469482422,-89.7406234741211 89.7406234741211,-179.4812469482422 0,-89.7406234741211" class="label-container" transform="translate(-89.2406234741211, 89.7406234741211)" style="fill:#5A5A5A !important;stroke:#3D3D3D !important"></polygon><g class="label" style="color:#ffffff !important" transform="translate(0, -27.099998474121094)"><rect></rect><g><rect class="background" style="stroke: none"></rect><text y="-10.1" style="fill:#ffffff !important"><tspan class="text-outer-tspan row" x="0" y="-0.1em" dy="1.1em"><tspan font-style="normal" class="text-inner-tspan" font-weight="normal">Want</tspan><tspan font-style="normal" class="text-inner-tspan" font-weight="normal"> to</tspan></tspan><tspan class="text-outer-tspan row" x="0" y="1em" dy="1.1em"><tspan font-style="normal" class="text-inner-tspan" font-weight="normal">hide</tspan><tspan font-style="normal" class="text-inner-tspan" font-weight="normal"> creation</tspan></tspan><tspan class="text-outer-tspan row" x="0" y="2.1em" dy="1.1em"><tspan font-style="normal" class="text-inner-tspan" font-weight="normal">time?</tspan></tspan></text></g></g></g><g class="node default warn" id="gf9672710-5ea7-4a15-8832-736909ef3177-light-flowchart-UUID4-5" data-look="classic" transform="translate(97.7406234741211, 806.9328155517578)"><rect class="basic label-container" style="fill:#8B5E15 !important;stroke:#6E4810 !important" x="-62.953125" y="-33.29999923706055" width="125.90625" height="66.5999984741211"></rect><g class="label" style="color:#ffffff !important" transform="translate(0, -18.299999237060547)"><rect></rect><g><rect class="background" style="stroke: none"></rect><text y="-10.1" style="fill:#ffffff !important"><tspan class="text-outer-tspan row" x="0" y="-0.1em" dy="1.1em"><tspan font-style="normal" class="text-inner-tspan" font-weight="normal">UUID</tspan><tspan font-style="normal" class="text-inner-tspan" font-weight="normal"> v4</tspan></tspan><tspan class="text-outer-tspan row" x="0" y="1em" dy="1.1em"><tspan font-style="normal" class="text-inner-tspan" font-weight="normal">(random)</tspan></tspan></text></g></g></g><g class="node default decision" id="gf9672710-5ea7-4a15-8832-736909ef3177-light-flowchart-Q_64-9" data-look="classic" transform="translate(531.3765602111816, 504.5953140258789)"><polygon points="104.8453140258789,0 209.6906280517578,-104.8453140258789 104.8453140258789,-209.6906280517578 0,-104.8453140258789" class="label-container" transform="translate(-104.3453140258789, 104.8453140258789)" style="fill:#5A5A5A !important;stroke:#3D3D3D !important"></polygon><g class="label" style="color:#ffffff !important" transform="translate(0, -35.900001525878906)"><rect></rect><g><rect class="background" style="stroke: none"></rect><text y="-10.1" style="fill:#ffffff !important"><tspan class="text-outer-tspan row" x="0" y="-0.1em" dy="1.1em"><tspan font-style="normal" class="text-inner-tspan" font-weight="normal">Hard</tspan><tspan font-style="normal" class="text-inner-tspan" font-weight="normal"> 64-bit</tspan></tspan><tspan class="text-outer-tspan row" x="0" y="1em" dy="1.1em"><tspan font-style="normal" class="text-inner-tspan" font-weight="normal">budget?</tspan></tspan><tspan class="text-outer-tspan row" x="0" y="2.1em" dy="1.1em"><tspan font-style="normal" class="text-inner-tspan" font-weight="normal">(BIGINT,</tspan><tspan font-style="normal" class="text-inner-tspan" font-weight="normal"> legacy</tspan></tspan><tspan class="text-outer-tspan row" x="0" y="3.2em" dy="1.1em"><tspan font-style="normal" class="text-inner-tspan" font-weight="normal">schema)</tspan></tspan></text></g></g></g><g class="node default decision" id="gf9672710-5ea7-4a15-8832-736909ef3177-light-flowchart-Q_COORD-11" data-look="classic" transform="translate(321.27890396118164, 806.9328155517578)"><polygon points="89.5374984741211,0 179.0749969482422,-89.5374984741211 89.5374984741211,-179.0749969482422 0,-89.5374984741211" class="label-container" transform="translate(-89.0374984741211, 89.5374984741211)" style="fill:#5A5A5A !important;stroke:#3D3D3D !important"></polygon><g class="label" style="color:#ffffff !important" transform="translate(0, -27.099998474121094)"><rect></rect><g><rect class="background" style="stroke: none"></rect><text y="-10.1" style="fill:#ffffff !important"><tspan class="text-outer-tspan row" x="0" y="-0.1em" dy="1.1em"><tspan font-style="normal" class="text-inner-tspan" font-weight="normal">Can</tspan><tspan font-style="normal" class="text-inner-tspan" font-weight="normal"> assign</tspan></tspan><tspan class="text-outer-tspan row" x="0" y="1em" dy="1.1em"><tspan font-style="normal" class="text-inner-tspan" font-weight="normal">worker</tspan><tspan font-style="normal" class="text-inner-tspan" font-weight="normal"> IDs</tspan><tspan font-style="normal" class="text-inner-tspan" font-weight="normal"> at</tspan></tspan><tspan class="text-outer-tspan row" x="0" y="2.1em" dy="1.1em"><tspan font-style="normal" class="text-inner-tspan" font-weight="normal">deploy</tspan><tspan font-style="normal" class="text-inner-tspan" font-weight="normal"> time?</tspan></tspan></text></g></g></g><g class="node default alternative" id="gf9672710-5ea7-4a15-8832-736909ef3177-light-flowchart-SNOW-13" data-look="classic" transform="translate(206.18124771118164, 1098.8890686035156)"><rect class="basic label-container" style="fill:#2E5A88 !important;stroke:#1F4870 !important" x="-87.640625" y="-33.29999923706055" width="175.28125" height="66.5999984741211"></rect><g class="label" style="color:#ffffff !important" transform="translate(0, -18.299999237060547)"><rect></rect><g><rect class="background" style="stroke: none"></rect><text y="-10.1" style="fill:#ffffff !important"><tspan class="text-outer-tspan row" x="0" y="-0.1em" dy="1.1em"><tspan font-style="normal" class="text-inner-tspan" font-weight="normal">Snowflake</tspan></tspan><tspan class="text-outer-tspan row" x="0" y="1em" dy="1.1em"><tspan font-style="normal" class="text-inner-tspan" font-weight="normal">(64-bit,</tspan><tspan font-style="normal" class="text-inner-tspan" font-weight="normal"> 5+5+12)</tspan></tspan></text></g></g></g><g class="node default alternative" id="gf9672710-5ea7-4a15-8832-736909ef3177-light-flowchart-FLAKE-15" data-look="classic" transform="translate(436.37656021118164, 1098.8890686035156)"><rect class="basic label-container" style="fill:#2E5A88 !important;stroke:#1F4870 !important" x="-92.5546875" y="-42.099998474121094" width="185.109375" height="84.19999694824219"></rect><g class="label" style="color:#ffffff !important" transform="translate(0, -27.099998474121094)"><rect></rect><g><rect class="background" style="stroke: none"></rect><text y="-10.1" style="fill:#ffffff !important"><tspan class="text-outer-tspan row" x="0" y="-0.1em" dy="1.1em"><tspan font-style="normal" class="text-inner-tspan" font-weight="normal">Sonyflake</tspan><tspan font-style="normal" class="text-inner-tspan" font-weight="normal"> /</tspan><tspan font-style="normal" class="text-inner-tspan" font-weight="normal"> Flake</tspan></tspan><tspan class="text-outer-tspan row" x="0" y="1em" dy="1.1em"><tspan font-style="normal" class="text-inner-tspan" font-weight="normal">(no</tspan><tspan font-style="normal" class="text-inner-tspan" font-weight="normal"> central</tspan></tspan><tspan class="text-outer-tspan row" x="0" y="2.1em" dy="1.1em"><tspan font-style="normal" class="text-inner-tspan" font-weight="normal">coordinator)</tspan></tspan></text></g></g></g><g class="node default decision" id="gf9672710-5ea7-4a15-8832-736909ef3177-light-flowchart-Q_DB-17" data-look="classic" transform="translate(716.9156227111816, 806.9328155517578)"><polygon points="106.8921890258789,0 213.7843780517578,-106.8921890258789 106.8921890258789,-213.7843780517578 0,-106.8921890258789" class="label-container" transform="translate(-106.3921890258789, 106.8921890258789)" style="fill:#5A5A5A !important;stroke:#3D3D3D !important"></polygon><g class="label" style="color:#ffffff !important" transform="translate(0, -35.900001525878906)"><rect></rect><g><rect class="background" style="stroke: none"></rect><text y="-10.1" style="fill:#ffffff !important"><tspan class="text-outer-tspan row" x="0" y="-0.1em" dy="1.1em"><tspan font-style="normal" class="text-inner-tspan" font-weight="normal">DB</tspan><tspan font-style="normal" class="text-inner-tspan" font-weight="normal"> has</tspan></tspan><tspan class="text-outer-tspan row" x="0" y="1em" dy="1.1em"><tspan font-style="normal" class="text-inner-tspan" font-weight="normal">native</tspan><tspan font-style="normal" class="text-inner-tspan" font-weight="normal"> UUIDv7?</tspan></tspan><tspan class="text-outer-tspan row" x="0" y="2.1em" dy="1.1em"><tspan font-style="normal" class="text-inner-tspan" font-weight="normal">(PG18+,</tspan><tspan font-style="normal" class="text-inner-tspan" font-weight="normal"> MS</tspan><tspan font-style="normal" class="text-inner-tspan" font-weight="normal"> SQL</tspan></tspan><tspan class="text-outer-tspan row" x="0" y="3.2em" dy="1.1em"><tspan font-style="normal" class="text-inner-tspan" font-weight="normal">2025,</tspan><tspan font-style="normal" class="text-inner-tspan" font-weight="normal"> etc.)</tspan></tspan></text></g></g></g><g class="node default recommended" id="gf9672710-5ea7-4a15-8832-736909ef3177-light-flowchart-UUID7-19" data-look="classic" transform="translate(612.8335914611816, 1334.8531303405762)"><rect class="basic label-container" style="fill:#2D7A2D !important;stroke:#1E5A1E !important" x="-68.7109375" y="-33.29999923706055" width="137.421875" height="66.5999984741211"></rect><g class="label" style="color:#ffffff !important" transform="translate(0, -18.299999237060547)"><rect></rect><g><rect class="background" style="stroke: none"></rect><text y="-10.1" style="fill:#ffffff !important"><tspan class="text-outer-tspan row" x="0" y="-0.1em" dy="1.1em"><tspan font-style="normal" class="text-inner-tspan" font-weight="normal">UUID</tspan><tspan font-style="normal" class="text-inner-tspan" font-weight="normal"> v7</tspan></tspan><tspan class="text-outer-tspan row" x="0" y="1em" dy="1.1em"><tspan font-style="normal" class="text-inner-tspan" font-weight="normal">(RFC</tspan><tspan font-style="normal" class="text-inner-tspan" font-weight="normal"> 9562)</tspan></tspan></text></g></g></g><g class="node default decision" id="gf9672710-5ea7-4a15-8832-736909ef3177-light-flowchart-Q_LIB-21" data-look="classic" transform="translate(788.3117179870605, 1098.8890686035156)"><polygon points="94.46406173706055,0 188.9281234741211,-94.46406173706055 94.46406173706055,-188.9281234741211 0,-94.46406173706055" class="label-container" transform="translate(-93.96406173706055, 94.46406173706055)" style="fill:#5A5A5A !important;stroke:#3D3D3D !important"></polygon><g class="label" style="color:#ffffff !important" transform="translate(0, -18.299999237060547)"><rect></rect><g><rect class="background" style="stroke: none"></rect><text y="-10.1" style="fill:#ffffff !important"><tspan class="text-outer-tspan row" x="0" y="-0.1em" dy="1.1em"><tspan font-style="normal" class="text-inner-tspan" font-weight="normal">Library</tspan><tspan font-style="normal" class="text-inner-tspan" font-weight="normal"> and</tspan></tspan><tspan class="text-outer-tspan row" x="0" y="1em" dy="1.1em"><tspan font-style="normal" class="text-inner-tspan" font-weight="normal">team</tspan><tspan font-style="normal" class="text-inner-tspan" font-weight="normal"> familiarity?</tspan></tspan></text></g></g></g><g class="node default alternative" id="gf9672710-5ea7-4a15-8832-736909ef3177-light-flowchart-ULID-25" data-look="classic" transform="translate(855.4953117370605, 1334.8531303405762)"><rect class="basic label-container" style="fill:#2E5A88 !important;stroke:#1F4870 !important" x="-89.453125" y="-33.29999923706055" width="178.90625" height="66.5999984741211"></rect><g class="label" style="color:#ffffff !important" transform="translate(0, -18.299999237060547)"><rect></rect><g><rect class="background" style="stroke: none"></rect><text y="-10.1" style="fill:#ffffff !important"><tspan class="text-outer-tspan row" x="0" y="-0.1em" dy="1.1em"><tspan font-style="normal" class="text-inner-tspan" font-weight="normal">ULID</tspan></tspan><tspan class="text-outer-tspan row" x="0" y="1em" dy="1.1em"><tspan font-style="normal" class="text-inner-tspan" font-weight="normal">(26</tspan><tspan font-style="normal" class="text-inner-tspan" font-weight="normal"> char</tspan><tspan font-style="normal" class="text-inner-tspan" font-weight="normal"> Base32)</tspan></tspan></text></g></g></g></g></g></g><defs><filter id="gf9672710-5ea7-4a15-8832-736909ef3177-light-drop-shadow" height="130%" width="130%"><feDropShadow dx="4" dy="4" stdDeviation="0" flood-opacity="0.06" flood-color="#000000"></feDropShadow></filter></defs><defs><filter id="gf9672710-5ea7-4a15-8832-736909ef3177-light-drop-shadow-small" height="150%" width="150%"><feDropShadow dx="2" dy="2" stdDeviation="0" flood-opacity="0.06" flood-color="#000000"></feDropShadow></filter></defs></svg>