<svg id="gc834a63f-b649-40dc-8210-d716b96e216f-dark" width="100%" xmlns="http://www.w3.org/2000/svg" xmlns:xlink="http://www.w3.org/1999/xlink" class="statediagram" style="max-width: 511.2918701171875px;" viewBox="56.828125 0 511.2918701171875 538" role="graphics-document document" aria-roledescription="stateDiagram"><style>#gc834a63f-b649-40dc-8210-d716b96e216f-dark{font-family:"trebuchet ms",verdana,arial,sans-serif;font-size:16px;fill:#e5e5e5;}@keyframes edge-animation-frame{from{stroke-dashoffset:0;}}@keyframes dash{to{stroke-dashoffset:0;}}#gc834a63f-b649-40dc-8210-d716b96e216f-dark .edge-animation-slow{stroke-dasharray:9,5!important;stroke-dashoffset:900;animation:dash 50s linear infinite;stroke-linecap:round;}#gc834a63f-b649-40dc-8210-d716b96e216f-dark .edge-animation-fast{stroke-dasharray:9,5!important;stroke-dashoffset:900;animation:dash 20s linear infinite;stroke-linecap:round;}#gc834a63f-b649-40dc-8210-d716b96e216f-dark .error-icon{fill:#252525;}#gc834a63f-b649-40dc-8210-d716b96e216f-dark .error-text{fill:#cccccc;stroke:#cccccc;}#gc834a63f-b649-40dc-8210-d716b96e216f-dark .edge-thickness-normal{stroke-width:1px;}#gc834a63f-b649-40dc-8210-d716b96e216f-dark .edge-thickness-thick{stroke-width:3.5px;}#gc834a63f-b649-40dc-8210-d716b96e216f-dark .edge-pattern-solid{stroke-dasharray:0;}#gc834a63f-b649-40dc-8210-d716b96e216f-dark .edge-thickness-invisible{stroke-width:0;fill:none;}#gc834a63f-b649-40dc-8210-d716b96e216f-dark .edge-pattern-dashed{stroke-dasharray:3;}#gc834a63f-b649-40dc-8210-d716b96e216f-dark .edge-pattern-dotted{stroke-dasharray:2;}#gc834a63f-b649-40dc-8210-d716b96e216f-dark .marker{fill:#cccccc;stroke:#cccccc;}#gc834a63f-b649-40dc-8210-d716b96e216f-dark .marker.cross{stroke:#cccccc;}#gc834a63f-b649-40dc-8210-d716b96e216f-dark svg{font-family:"trebuchet ms",verdana,arial,sans-serif;font-size:16px;}#gc834a63f-b649-40dc-8210-d716b96e216f-dark p{margin:0;}#gc834a63f-b649-40dc-8210-d716b96e216f-dark defs [id$="-barbEnd"]{fill:#cccccc;stroke:#cccccc;}#gc834a63f-b649-40dc-8210-d716b96e216f-dark g.stateGroup text{fill:#555555;stroke:none;font-size:10px;}#gc834a63f-b649-40dc-8210-d716b96e216f-dark g.stateGroup text{fill:#e5e5e5;stroke:none;font-size:10px;}#gc834a63f-b649-40dc-8210-d716b96e216f-dark g.stateGroup .state-title{font-weight:bolder;fill:#e5e5e5;}#gc834a63f-b649-40dc-8210-d716b96e216f-dark g.stateGroup rect{fill:#2d2d2d;stroke:#555555;}#gc834a63f-b649-40dc-8210-d716b96e216f-dark g.stateGroup line{stroke:#cccccc;stroke-width:1;}#gc834a63f-b649-40dc-8210-d716b96e216f-dark .transition{stroke:#cccccc;stroke-width:1;fill:none;}#gc834a63f-b649-40dc-8210-d716b96e216f-dark .stateGroup .composit{fill:#111111;border-bottom:1px;}#gc834a63f-b649-40dc-8210-d716b96e216f-dark .stateGroup .alt-composit{fill:#e0e0e0;border-bottom:1px;}#gc834a63f-b649-40dc-8210-d716b96e216f-dark .state-note{stroke:#555555;fill:#333333;}#gc834a63f-b649-40dc-8210-d716b96e216f-dark .state-note text{fill:#e5e5e5;stroke:none;font-size:10px;}#gc834a63f-b649-40dc-8210-d716b96e216f-dark .stateLabel .box{stroke:none;stroke-width:0;fill:#2d2d2d;opacity:0.5;}#gc834a63f-b649-40dc-8210-d716b96e216f-dark .edgeLabel .label rect{fill:#2d2d2d;opacity:0.5;}#gc834a63f-b649-40dc-8210-d716b96e216f-dark .edgeLabel{background-color:#1e1e1e;text-align:center;}#gc834a63f-b649-40dc-8210-d716b96e216f-dark .edgeLabel p{background-color:#1e1e1e;}#gc834a63f-b649-40dc-8210-d716b96e216f-dark .edgeLabel rect{opacity:0.5;background-color:#1e1e1e;fill:#1e1e1e;}#gc834a63f-b649-40dc-8210-d716b96e216f-dark .edgeLabel .label text{fill:#e5e5e5;}#gc834a63f-b649-40dc-8210-d716b96e216f-dark .label div .edgeLabel{color:#e5e5e5;}#gc834a63f-b649-40dc-8210-d716b96e216f-dark .stateLabel text{fill:#e5e5e5;font-size:10px;font-weight:bold;}#gc834a63f-b649-40dc-8210-d716b96e216f-dark .node circle.state-start{fill:#cccccc;stroke:#cccccc;}#gc834a63f-b649-40dc-8210-d716b96e216f-dark .node .fork-join{fill:#cccccc;stroke:#cccccc;}#gc834a63f-b649-40dc-8210-d716b96e216f-dark .node circle.state-end{fill:#555555;stroke:#111111;stroke-width:1.5;}#gc834a63f-b649-40dc-8210-d716b96e216f-dark .end-state-inner{fill:#111111;stroke-width:1.5;}#gc834a63f-b649-40dc-8210-d716b96e216f-dark .node rect{fill:#2d2d2d;stroke:#555555;stroke-width:1px;}#gc834a63f-b649-40dc-8210-d716b96e216f-dark .node polygon{fill:#2d2d2d;stroke:#555555;stroke-width:1px;}#gc834a63f-b649-40dc-8210-d716b96e216f-dark [id$="-barbEnd"]{fill:#cccccc;}#gc834a63f-b649-40dc-8210-d716b96e216f-dark .statediagram-cluster rect{fill:#2d2d2d;stroke:#555555;stroke-width:1px;}#gc834a63f-b649-40dc-8210-d716b96e216f-dark .cluster-label,#gc834a63f-b649-40dc-8210-d716b96e216f-dark .nodeLabel{color:#e5e5e5;}#gc834a63f-b649-40dc-8210-d716b96e216f-dark .statediagram-cluster rect.outer{rx:5px;ry:5px;}#gc834a63f-b649-40dc-8210-d716b96e216f-dark .statediagram-state .divider{stroke:#555555;}#gc834a63f-b649-40dc-8210-d716b96e216f-dark .statediagram-state .title-state{rx:5px;ry:5px;}#gc834a63f-b649-40dc-8210-d716b96e216f-dark .statediagram-cluster.statediagram-cluster .inner{fill:#111111;}#gc834a63f-b649-40dc-8210-d716b96e216f-dark .statediagram-cluster.statediagram-cluster-alt .inner{fill:#252525;}#gc834a63f-b649-40dc-8210-d716b96e216f-dark .statediagram-cluster .inner{rx:0;ry:0;}#gc834a63f-b649-40dc-8210-d716b96e216f-dark .statediagram-state rect.basic{rx:5px;ry:5px;}#gc834a63f-b649-40dc-8210-d716b96e216f-dark .statediagram-state rect.divider{stroke-dasharray:10,10;fill:#252525;}#gc834a63f-b649-40dc-8210-d716b96e216f-dark .note-edge{stroke-dasharray:5;}#gc834a63f-b649-40dc-8210-d716b96e216f-dark .statediagram-note rect{fill:#333333;stroke:#555555;stroke-width:1px;rx:0;ry:0;}#gc834a63f-b649-40dc-8210-d716b96e216f-dark .statediagram-note rect{fill:#333333;stroke:#555555;stroke-width:1px;rx:0;ry:0;}#gc834a63f-b649-40dc-8210-d716b96e216f-dark .statediagram-note text{fill:#e5e5e5;}#gc834a63f-b649-40dc-8210-d716b96e216f-dark .statediagram-note .nodeLabel{color:#e5e5e5;}#gc834a63f-b649-40dc-8210-d716b96e216f-dark .statediagram .edgeLabel{color:red;}#gc834a63f-b649-40dc-8210-d716b96e216f-dark [id$="-dependencyStart"],#gc834a63f-b649-40dc-8210-d716b96e216f-dark [id$="-dependencyEnd"]{fill:#cccccc;stroke:#cccccc;stroke-width:1;}#gc834a63f-b649-40dc-8210-d716b96e216f-dark .statediagramTitleText{text-anchor:middle;font-size:18px;fill:#e5e5e5;}#gc834a63f-b649-40dc-8210-d716b96e216f-dark [data-look="neo"].statediagram-cluster rect{fill:#2d2d2d;stroke:url(#gc834a63f-b649-40dc-8210-d716b96e216f-dark-gradient);stroke-width:1;}#gc834a63f-b649-40dc-8210-d716b96e216f-dark [data-look="neo"].statediagram-cluster rect.outer{rx:5px;ry:5px;filter:drop-shadow( 1px 2px 2px rgba(185,185,185,1));}#gc834a63f-b649-40dc-8210-d716b96e216f-dark .node .neo-node{stroke:#555555;}#gc834a63f-b649-40dc-8210-d716b96e216f-dark [data-look="neo"].node rect,#gc834a63f-b649-40dc-8210-d716b96e216f-dark [data-look="neo"].cluster rect,#gc834a63f-b649-40dc-8210-d716b96e216f-dark [data-look="neo"].node polygon{stroke:url(#gc834a63f-b649-40dc-8210-d716b96e216f-dark-gradient);filter:drop-shadow( 1px 2px 2px rgba(185,185,185,1));}#gc834a63f-b649-40dc-8210-d716b96e216f-dark [data-look="neo"].node path{stroke:url(#gc834a63f-b649-40dc-8210-d716b96e216f-dark-gradient);stroke-width:1px;}#gc834a63f-b649-40dc-8210-d716b96e216f-dark [data-look="neo"].node .outer-path{filter:drop-shadow( 1px 2px 2px rgba(185,185,185,1));}#gc834a63f-b649-40dc-8210-d716b96e216f-dark [data-look="neo"].node .neo-line path{stroke:#555555;filter:none;}#gc834a63f-b649-40dc-8210-d716b96e216f-dark [data-look="neo"].node circle{stroke:url(#gc834a63f-b649-40dc-8210-d716b96e216f-dark-gradient);filter:drop-shadow( 1px 2px 2px rgba(185,185,185,1));}#gc834a63f-b649-40dc-8210-d716b96e216f-dark [data-look="neo"].node circle .state-start{fill:#000000;}#gc834a63f-b649-40dc-8210-d716b96e216f-dark [data-look="neo"].icon-shape .icon{fill:url(#gc834a63f-b649-40dc-8210-d716b96e216f-dark-gradient);filter:drop-shadow( 1px 2px 2px rgba(185,185,185,1));}#gc834a63f-b649-40dc-8210-d716b96e216f-dark [data-look="neo"].icon-shape .icon-neo path{stroke:url(#gc834a63f-b649-40dc-8210-d716b96e216f-dark-gradient);filter:drop-shadow( 1px 2px 2px rgba(185,185,185,1));}#gc834a63f-b649-40dc-8210-d716b96e216f-dark :root{--mermaid-font-family:"trebuchet ms",verdana,arial,sans-serif;}</style><g><defs><marker id="gc834a63f-b649-40dc-8210-d716b96e216f-dark_stateDiagram-barbEnd" refX="19" refY="7" markerWidth="20" markerHeight="14" markerUnits="userSpaceOnUse" orient="auto"><path d="M 19,7 L9,13 L14,7 L9,1 Z"></path></marker></defs><g class="root"><g class="clusters"></g><g class="edgePaths"><path d="M362.688,22L362.688,28.083C362.688,34.167,362.688,46.333,362.688,58.5C362.688,70.667,362.688,82.833,362.688,88.917L362.688,95" id="gc834a63f-b649-40dc-8210-d716b96e216f-dark-edge0" class="edge-thickness-normal edge-pattern-solid transition" style="fill:none;;;fill:none" data-edge="true" data-et="edge" data-id="edge0" data-points="W3sieCI6MzYyLjY4NzUsInkiOjIyfSx7IngiOjM2Mi42ODc1LCJ5Ijo1OC41fSx7IngiOjM2Mi42ODc1LCJ5Ijo5NX1d" data-look="classic" marker-end="url(#gc834a63f-b649-40dc-8210-d716b96e216f-dark_stateDiagram-barbEnd)"></path><path d="M341.984,118.055L300.961,129.063C259.938,140.07,177.891,162.085,147.3,182.576C116.71,203.067,137.576,222.033,148.009,231.517L158.443,241" id="gc834a63f-b649-40dc-8210-d716b96e216f-dark-edge1" class="edge-thickness-normal edge-pattern-solid transition" style="fill:none;;;fill:none" data-edge="true" data-et="edge" data-id="edge1" data-points="W3sieCI6MzQxLjk4NDM3NSwieSI6MTE4LjA1NTEwMDAxMDQzNTA4fSx7IngiOjk1Ljg0Mzc1LCJ5IjoxODQuMDk5OTk4NDc0MTIxMX0seyJ4IjoxNTguNDQyNTkyMjMzNjU2MiwieSI6MjQwLjk5OTk5NjE4NTMwMjczfV0=" data-look="classic" marker-end="url(#gc834a63f-b649-40dc-8210-d716b96e216f-dark_stateDiagram-barbEnd)"></path><path d="M177.695,276L177.695,284.017C177.695,292.033,177.695,308.067,185.535,323.633C193.375,339.2,209.055,354.3,216.895,361.85L224.734,369.4" id="gc834a63f-b649-40dc-8210-d716b96e216f-dark-edge2" class="edge-thickness-normal edge-pattern-solid transition" style="fill:none;;;fill:none" data-edge="true" data-et="edge" data-id="edge2" data-points="W3sieCI6MTc3LjY5NTMxMjUsInkiOjI3NS45OTk5OTYxODUzMDI3M30seyJ4IjoxNzcuNjk1MzEyNSwieSI6MzI0LjA5OTk5NDY1OTQyMzh9LHsieCI6MjI0LjczNDQxMjEwMDA5NTM0LCJ5IjozNjkuMzk5OTkzODk2NDg0NH1d" data-look="classic" marker-end="url(#gc834a63f-b649-40dc-8210-d716b96e216f-dark_stateDiagram-barbEnd)"></path><path d="M219.008,402.779L207.238,410.599C195.469,418.419,171.93,434.06,160.16,449.43C148.391,464.8,148.391,479.9,148.391,487.45L148.391,495" id="gc834a63f-b649-40dc-8210-d716b96e216f-dark-edge3" class="edge-thickness-normal edge-pattern-solid transition" style="fill:none;;;fill:none" data-edge="true" data-et="edge" data-id="edge3" data-points="W3sieCI6MjE5LjAwNzgxMjUsInkiOjQwMi43NzkwODExNTYwNDUzfSx7IngiOjE0OC4zOTA2MjUsInkiOjQ0OS42OTk5OTMxMzM1NDQ5fSx7IngiOjE0OC4zOTA2MjUsInkiOjQ5NC45OTk5OTIzNzA2MDU0N31d" data-look="classic" marker-end="url(#gc834a63f-b649-40dc-8210-d716b96e216f-dark_stateDiagram-barbEnd)"></path><path d="M383.391,127.012L396.964,136.527C410.538,146.042,437.684,165.071,451.258,186.977C464.831,208.883,464.831,233.667,464.831,246.058L464.831,258.45" id="gc834a63f-b649-40dc-8210-d716b96e216f-dark-Hot-cyclic-special-1" class="edge-thickness-normal edge-pattern-solid transition" style="fill:none;;;fill:none" data-edge="true" data-et="edge" data-id="Hot-cyclic-special-1" data-points="W3sieCI6MzgzLjM5MDYyNSwieSI6MTI3LjAxMjMyOTEyODI5OTM0fSx7IngiOjQ2NC44MzEyNTAwMDA3NDUwNiwieSI6MTg0LjA5OTk5ODQ3NDEyMTF9LHsieCI6NDY0LjgzMTI1MDAwMDc0NTA2LCJ5IjoyNTguNDQ5OTk2MTg0NTU3N31d" data-look="classic"></path><path d="M464.831,258.55L464.831,269.475C464.831,280.4,464.831,302.25,472.766,323.633C480.7,345.017,496.569,365.933,504.503,376.392L512.438,386.85" id="gc834a63f-b649-40dc-8210-d716b96e216f-dark-Hot-cyclic-special-mid" class="edge-thickness-normal edge-pattern-solid transition" style="fill:none;;;fill:none" data-edge="true" data-et="edge" data-id="Hot-cyclic-special-mid" data-points="W3sieCI6NDY0LjgzMTI1MDAwMDc0NTA2LCJ5IjoyNTguNTQ5OTk2MTg2MDQ3OH0seyJ4Ijo0NjQuODMxMjUwMDAwNzQ1MDYsInkiOjMyNC4wOTk5OTQ2NTk0MjM4fSx7IngiOjUxMi40Mzc4NDc3MDU3MzAxLCJ5IjozODYuODQ5OTkzODk1NzM5M31d" data-look="classic"></path><path d="M512.514,386.85L520.448,376.392C528.383,365.933,544.251,345.017,552.186,323.625C560.12,302.233,560.12,280.367,560.12,257.033C560.12,233.7,560.12,208.9,530.665,185.818C501.21,162.736,442.301,141.372,412.846,130.69L383.391,120.008" id="gc834a63f-b649-40dc-8210-d716b96e216f-dark-Hot-cyclic-special-2" class="edge-thickness-normal edge-pattern-solid transition" style="fill:none;;;fill:none" data-edge="true" data-et="edge" data-id="Hot-cyclic-special-2" data-points="W3sieCI6NTEyLjUxMzcxNDc5NTc2LCJ5IjozODYuODQ5OTkzODk1NzM5M30seyJ4Ijo1NjAuMTIwMzEyNTAwNzQ1MSwieSI6MzI0LjA5OTk5NDY1OTQyMzh9LHsieCI6NTYwLjEyMDMxMjUwMDc0NTEsInkiOjI1OC40OTk5OTYxODUzMDI3M30seyJ4Ijo1NjAuMTIwMzEyNTAwNzQ1MSwieSI6MTg0LjA5OTk5ODQ3NDEyMTF9LHsieCI6MzgzLjM5MDYyNSwieSI6MTIwLjAwODA5MTk5MTU2Nzc0fV0=" data-look="classic" marker-end="url(#gc834a63f-b649-40dc-8210-d716b96e216f-dark_stateDiagram-barbEnd)"></path><path d="M196.948,241L207.381,231.517C217.814,222.033,238.681,203.067,262.853,184.045C287.026,165.024,314.505,145.948,328.245,136.41L341.984,126.872" id="gc834a63f-b649-40dc-8210-d716b96e216f-dark-edge5" class="edge-thickness-normal edge-pattern-solid transition" style="fill:none;;;fill:none" data-edge="true" data-et="edge" data-id="edge5" data-points="W3sieCI6MTk2Ljk0ODAzMjc2NjM0MzgsInkiOjI0MC45OTk5OTYxODUzMDI3M30seyJ4IjoyNTkuNTQ2ODc1LCJ5IjoxODQuMDk5OTk4NDc0MTIxMX0seyJ4IjozNDEuOTg0Mzc1LCJ5IjoxMjYuODcyMDY0NTMyMzc1NDZ9XQ==" data-look="classic" marker-end="url(#gc834a63f-b649-40dc-8210-d716b96e216f-dark_stateDiagram-barbEnd)"></path><path d="M266.805,374.37L282.785,365.992C298.766,357.614,330.727,340.857,346.707,321.545C362.688,302.233,362.688,280.367,362.688,257.033C362.688,233.7,362.688,208.9,362.688,187.483C362.688,166.067,362.688,148.033,362.688,139.017L362.688,130" id="gc834a63f-b649-40dc-8210-d716b96e216f-dark-edge6" class="edge-thickness-normal edge-pattern-solid transition" style="fill:none;;;fill:none" data-edge="true" data-et="edge" data-id="edge6" data-points="W3sieCI6MjY2LjgwNDY4NzUsInkiOjM3NC4zNzAzMDQ1MTA0ODMzfSx7IngiOjM2Mi42ODc1LCJ5IjozMjQuMDk5OTk0NjU5NDIzOH0seyJ4IjozNjIuNjg3NSwieSI6MjU4LjQ5OTk5NjE4NTMwMjczfSx7IngiOjM2Mi42ODc1LCJ5IjoxODQuMDk5OTk4NDc0MTIxMX0seyJ4IjozNjIuNjg3NSwieSI6MTMwfV0=" data-look="classic" marker-end="url(#gc834a63f-b649-40dc-8210-d716b96e216f-dark_stateDiagram-barbEnd)"></path><path d="M266.805,402.779L278.574,410.599C290.344,418.419,313.883,434.06,325.652,451.179C337.422,468.298,337.422,486.896,337.422,496.194L337.422,505.493" id="gc834a63f-b649-40dc-8210-d716b96e216f-dark-edge7" class="edge-thickness-normal edge-pattern-solid transition" style="fill:none;;;fill:none" data-edge="true" data-et="edge" data-id="edge7" data-points="W3sieCI6MjY2LjgwNDY4NzUsInkiOjQwMi43NzkwODExNTYwNDUzfSx7IngiOjMzNy40MjE4NzUsInkiOjQ0OS42OTk5OTMxMzM1NDQ5fSx7IngiOjMzNy40MjE4NzUsInkiOjUwNS40OTMzNDU3Mzc0NTczfV0=" data-look="classic" marker-end="url(#gc834a63f-b649-40dc-8210-d716b96e216f-dark_stateDiagram-barbEnd)"></path></g><g class="edgeLabels"><g class="edgeLabel" transform="translate(362.6875, 58.5)"><g class="label" data-id="edge0" transform="translate(0, -10.5)"><g><rect class="background" style="" x="-70.328125" y="-1" width="140.65625" height="23"></rect><text y="-10.1" text-anchor="middle" style=""><tspan class="text-outer-tspan row" x="0" y="-0.1em" dy="1.1em" text-anchor="middle"><tspan font-style="normal" class="text-inner-tspan" font-weight="normal">upload</tspan><tspan font-style="normal" class="text-inner-tspan" font-weight="normal"> +</tspan><tspan font-style="normal" class="text-inner-tspan" font-weight="normal"> transcode</tspan></tspan></text></g></g></g><g class="edgeLabel" transform="translate(178.06188, 162.03908)"><g class="label" data-id="edge1" transform="translate(0, -28.099998474121094)"><g><rect class="background" style="" x="-87.84375" y="-1" width="175.6875" height="58.19999694824219"></rect><text y="-10.1" text-anchor="middle" style=""><tspan class="text-outer-tspan row" x="0" y="-0.1em" dy="1.1em" text-anchor="middle"><tspan font-style="normal" class="text-inner-tspan" font-weight="normal">views/day</tspan><tspan font-style="normal" class="text-inner-tspan" font-weight="normal"> drops</tspan><tspan font-style="normal" class="text-inner-tspan" font-weight="normal"> below</tspan></tspan><tspan class="text-outer-tspan row" x="0" y="1em" dy="1.1em" text-anchor="middle"><tspan font-style="normal" class="text-inner-tspan" font-weight="normal">threshold</tspan></tspan><tspan class="text-outer-tspan row" x="0" y="2.1em" dy="1.1em" text-anchor="middle"><tspan font-style="normal" class="text-inner-tspan" font-weight="normal">(typically</tspan><tspan font-style="normal" class="text-inner-tspan" font-weight="normal"> after</tspan><tspan font-style="normal" class="text-inner-tspan" font-weight="normal"> 30</tspan><tspan font-style="normal" class="text-inner-tspan" font-weight="normal"> days)</tspan></tspan></text></g></g></g><g class="edgeLabel" transform="translate(177.6953125, 324.0999946594238)"><g class="label" data-id="edge2" transform="translate(0, -19.299999237060547)"><g><rect class="background" style="" x="-99.6015625" y="-1" width="199.203125" height="40.599998474121094"></rect><text y="-10.1" text-anchor="middle" style=""><tspan class="text-outer-tspan row" x="0" y="-0.1em" dy="1.1em" text-anchor="middle"><tspan font-style="normal" class="text-inner-tspan" font-weight="normal">views/day</tspan><tspan font-style="normal" class="text-inner-tspan" font-weight="normal"> approaches</tspan><tspan font-style="normal" class="text-inner-tspan" font-weight="normal"> zero</tspan></tspan><tspan class="text-outer-tspan row" x="0" y="1em" dy="1.1em" text-anchor="middle"><tspan font-style="normal" class="text-inner-tspan" font-weight="normal">(typically</tspan><tspan font-style="normal" class="text-inner-tspan" font-weight="normal"> after</tspan><tspan font-style="normal" class="text-inner-tspan" font-weight="normal"> 90</tspan><tspan font-style="normal" class="text-inner-tspan" font-weight="normal"> days)</tspan></tspan></text></g></g></g><g class="edgeLabel" transform="translate(148.390625, 449.6999931335449)"><g class="label" data-id="edge3" transform="translate(0, -19.299999237060547)"><g><rect class="background" style="" x="-83.5625" y="-1" width="167.125" height="40.599998474121094"></rect><text y="-10.1" text-anchor="middle" style=""><tspan class="text-outer-tspan row" x="0" y="-0.1em" dy="1.1em" text-anchor="middle"><tspan font-style="normal" class="text-inner-tspan" font-weight="normal">original</tspan><tspan font-style="normal" class="text-inner-tspan" font-weight="normal"> raw</tspan><tspan font-style="normal" class="text-inner-tspan" font-weight="normal"> bytes</tspan><tspan font-style="normal" class="text-inner-tspan" font-weight="normal"> only</tspan></tspan><tspan class="text-outer-tspan row" x="0" y="1em" dy="1.1em" text-anchor="middle"><tspan font-style="normal" class="text-inner-tspan" font-weight="normal">(retention</tspan><tspan font-style="normal" class="text-inner-tspan" font-weight="normal"> copy)</tspan></tspan></text></g></g></g><g class="edgeLabel"><g class="label" data-id="Hot-cyclic-special-1" transform="translate(0, 0)"><text y="-10.1" text-anchor="middle"><tspan class="text-outer-tspan row" x="0" y="-0.1em" dy="1.1em" text-anchor="middle"></tspan></text></g></g><g><rect class="background" style="stroke: none"></rect></g><g class="edgeLabel" transform="translate(464.83125000074506, 324.0999946594238)"><g class="label" data-id="Hot-cyclic-special-mid" transform="translate(0, -10.5)"><g><rect class="background" style="" x="-75.2890625" y="-1" width="150.578125" height="23"></rect><text y="-10.1" text-anchor="middle" style=""><tspan class="text-outer-tspan row" x="0" y="-0.1em" dy="1.1em" text-anchor="middle"><tspan font-style="normal" class="text-inner-tspan" font-weight="normal">trending</tspan><tspan font-style="normal" class="text-inner-tspan" font-weight="normal"> re-promote</tspan></tspan></text></g></g></g><g class="edgeLabel"><g class="label" data-id="Hot-cyclic-special-2" transform="translate(0, 0)"><text y="-10.1" text-anchor="middle"><tspan class="text-outer-tspan row" x="0" y="-0.1em" dy="1.1em" text-anchor="middle"></tspan></text></g></g><g><rect class="background" style="stroke: none"></rect></g><g class="edgeLabel" transform="translate(259.546875, 184.0999984741211)"><g class="label" data-id="edge5" transform="translate(0, -19.299999237060547)"><g><rect class="background" style="" x="-55.859375" y="-1" width="111.71875" height="40.599998474121094"></rect><text y="-10.1" text-anchor="middle" style=""><tspan class="text-outer-tspan row" x="0" y="-0.1em" dy="1.1em" text-anchor="middle"><tspan font-style="normal" class="text-inner-tspan" font-weight="normal">rediscovered</tspan></tspan><tspan class="text-outer-tspan row" x="0" y="1em" dy="1.1em" text-anchor="middle"><tspan font-style="normal" class="text-inner-tspan" font-weight="normal">(viral</tspan><tspan font-style="normal" class="text-inner-tspan" font-weight="normal"> re-share)</tspan></tspan></text></g></g></g><g class="edgeLabel" transform="translate(362.6875, 258.49999618530273)"><g class="label" data-id="edge6" transform="translate(0, -19.299999237060547)"><g><rect class="background" style="" x="-67.09375" y="-1" width="134.1875" height="40.599998474121094"></rect><text y="-10.1" text-anchor="middle" style=""><tspan class="text-outer-tspan row" x="0" y="-0.1em" dy="1.1em" text-anchor="middle"><tspan font-style="normal" class="text-inner-tspan" font-weight="normal">traffic</tspan><tspan font-style="normal" class="text-inner-tspan" font-weight="normal"> spike</tspan></tspan><tspan class="text-outer-tspan row" x="0" y="1em" dy="1.1em" text-anchor="middle"><tspan font-style="normal" class="text-inner-tspan" font-weight="normal">(promote</tspan><tspan font-style="normal" class="text-inner-tspan" font-weight="normal"> on</tspan><tspan font-style="normal" class="text-inner-tspan" font-weight="normal"> miss)</tspan></tspan></text></g></g></g><g class="edgeLabel" transform="translate(337.421875, 449.6999931335449)"><g class="label" data-id="edge7" transform="translate(0, -19.299999237060547)"><g><rect class="background" style="" x="-85.46875" y="-1" width="170.9375" height="40.599998474121094"></rect><text y="-10.1" text-anchor="middle" style=""><tspan class="text-outer-tspan row" x="0" y="-0.1em" dy="1.1em" text-anchor="middle"><tspan font-style="normal" class="text-inner-tspan" font-weight="normal">deleted</tspan><tspan font-style="normal" class="text-inner-tspan" font-weight="normal"> by</tspan><tspan font-style="normal" class="text-inner-tspan" font-weight="normal"> lifecycle</tspan></tspan><tspan class="text-outer-tspan row" x="0" y="1em" dy="1.1em" text-anchor="middle"><tspan font-style="normal" class="text-inner-tspan" font-weight="normal">(zero</tspan><tspan font-style="normal" class="text-inner-tspan" font-weight="normal"> views</tspan><tspan font-style="normal" class="text-inner-tspan" font-weight="normal"> &gt;</tspan><tspan font-style="normal" class="text-inner-tspan" font-weight="normal"> 365</tspan><tspan font-style="normal" class="text-inner-tspan" font-weight="normal"> days)</tspan></tspan></text></g></g></g></g><g class="nodes"><g class="node default" id="gc834a63f-b649-40dc-8210-d716b96e216f-dark-state-root_start-0" data-look="classic" transform="translate(362.6875, 15)"><circle class="state-start" r="7" width="14" height="14"></circle></g><g class="node  statediagram-state" id="gc834a63f-b649-40dc-8210-d716b96e216f-dark-state-Hot-6" data-look="classic" transform="translate(362.6875, 112.5)"><rect class="basic label-container" style="" rx="5" ry="5" x="-20.703125" y="-17.5" width="41.40625" height="35"></rect><g class="label" style="" transform="translate(-12.703125, -9.5)"><rect></rect><g><rect class="background" style="stroke: none"></rect><text y="-10.1" style=""><tspan class="text-outer-tspan row" x="0" y="-0.1em" dy="1.1em"><tspan font-style="normal" class="text-inner-tspan" font-weight="normal">Hot</tspan></tspan></text></g></g></g><g class="node  statediagram-state" id="gc834a63f-b649-40dc-8210-d716b96e216f-dark-state-Warm-5" data-look="classic" transform="translate(177.6953125, 258.49999618530273)"><rect class="basic label-container" style="" rx="5" ry="5" x="-28.328125" y="-17.5" width="56.65625" height="35"></rect><g class="label" style="" transform="translate(-20.328125, -9.5)"><rect></rect><g><rect class="background" style="stroke: none"></rect><text y="-10.1" style=""><tspan class="text-outer-tspan row" x="0" y="-0.1em" dy="1.1em"><tspan font-style="normal" class="text-inner-tspan" font-weight="normal">Warm</tspan></tspan></text></g></g></g><g class="node  statediagram-state" id="gc834a63f-b649-40dc-8210-d716b96e216f-dark-state-Cold-7" data-look="classic" transform="translate(242.90625, 386.8999938964844)"><rect class="basic label-container" style="" rx="5" ry="5" x="-23.8984375" y="-17.5" width="47.796875" height="35"></rect><g class="label" style="" transform="translate(-15.8984375, -9.5)"><rect></rect><g><rect class="background" style="stroke: none"></rect><text y="-10.1" style=""><tspan class="text-outer-tspan row" x="0" y="-0.1em" dy="1.1em"><tspan font-style="normal" class="text-inner-tspan" font-weight="normal">Cold</tspan></tspan></text></g></g></g><g class="node  statediagram-state" id="gc834a63f-b649-40dc-8210-d716b96e216f-dark-state-Archive-3" data-look="classic" transform="translate(148.390625, 512.4999923706055)"><rect class="basic label-container" style="" rx="5" ry="5" x="-34.7265625" y="-17.5" width="69.453125" height="35"></rect><g class="label" style="" transform="translate(-26.7265625, -9.5)"><rect></rect><g><rect class="background" style="stroke: none"></rect><text y="-10.1" style=""><tspan class="text-outer-tspan row" x="0" y="-0.1em" dy="1.1em"><tspan font-style="normal" class="text-inner-tspan" font-weight="normal">Archive</tspan></tspan></text></g></g></g><g class="node default" id="gc834a63f-b649-40dc-8210-d716b96e216f-dark-state-root_end-7" data-look="classic" transform="translate(337.421875, 512.4999923706055)"><g class="outer-path"><path d="M7 0 C7 0.40517908122283747, 6.964012880168563 0.816513743121899, 6.893654271085456 1.2155372436685123 C6.823295662002349 1.6145607442151257, 6.716427752933756 2.013397210557766, 6.5778483455013586 2.394141003279681 C6.439268938068961 2.7748847960015954, 6.26476736710249 3.149104622578984, 6.062177826491071 3.4999999999999996 C5.859588285879653 3.8508953774210153, 5.622755194947063 4.189128084166967, 5.362311101832846 4.499513267805774 C5.10186700871863 4.809898451444582, 4.809898451444583 5.10186700871863, 4.499513267805775 5.362311101832846 C4.189128084166968 5.622755194947063, 3.8508953774210166 5.859588285879652, 3.500000000000001 6.06217782649107 C3.149104622578985 6.264767367102489, 2.7748847960015963 6.439268938068961, 2.3941410032796817 6.5778483455013586 C2.013397210557767 6.716427752933756, 1.6145607442151264 6.823295662002349, 1.2155372436685128 6.893654271085456 C0.8165137431218992 6.964012880168563, 0.4051790812228379 7, 4.286263797015736e-16 7 C-0.405179081222837 7, -0.8165137431218985 6.964012880168563, -1.2155372436685121 6.893654271085456 C-1.6145607442151257 6.823295662002349, -2.0133972105577667 6.716427752933756, -2.394141003279681 6.5778483455013586 C-2.774884796001595 6.439268938068961, -3.149104622578983 6.26476736710249, -3.4999999999999982 6.062177826491071 C-3.8508953774210135 5.859588285879653, -4.189128084166966 5.6227551949470636, -4.499513267805773 5.362311101832848 C-4.809898451444581 5.101867008718632, -5.101867008718628 4.809898451444586, -5.3623111018328435 4.499513267805779 C-5.622755194947059 4.189128084166971, -5.859588285879649 3.8508953774210206, -6.062177826491068 3.5000000000000053 C-6.264767367102486 3.14910462257899, -6.439268938068958 2.774884796001602, -6.577848345501356 2.394141003279688 C-6.716427752933754 2.0133972105577738, -6.823295662002347 1.614560744215134, -6.893654271085454 1.215537243668521 C-6.9640128801685615 0.816513743121908, -6.999999999999999 0.4051790812228472, -7 1.0183126166254463e-14 C-7.000000000000001 -0.40517908122282686, -6.964012880168565 -0.8165137431218878, -6.893654271085459 -1.215537243668501 C-6.823295662002352 -1.6145607442151142, -6.716427752933759 -2.0133972105577542, -6.577848345501363 -2.394141003279669 C-6.439268938068967 -2.7748847960015834, -6.264767367102496 -3.149104622578972, -6.062177826491078 -3.4999999999999876 C-5.859588285879661 -3.8508953774210033, -5.6227551949470715 -4.1891280841669545, -5.362311101832856 -4.499513267805763 C-5.10186700871864 -4.809898451444571, -4.809898451444594 -5.10186700871862, -4.499513267805787 -5.362311101832836 C-4.189128084166979 -5.622755194947053, -3.850895377421028 -5.859588285879643, -3.5000000000000133 -6.062177826491062 C-3.1491046225789985 -6.264767367102482, -2.774884796001611 -6.439268938068954, -2.3941410032796973 -6.577848345501353 C-2.0133972105577835 -6.716427752933752, -1.6145607442151435 -6.823295662002345, -1.2155372436685306 -6.893654271085453 C-0.8165137431219176 -6.9640128801685615, -0.40517908122285695 -6.999999999999999, -1.9937625952807352e-14 -7 C0.4051790812228171 -7.000000000000001, 0.8165137431218781 -6.964012880168565, 1.2155372436684913 -6.89365427108546 C1.6145607442151044 -6.823295662002354, 2.013397210557745 -6.716427752933763, 2.3941410032796595 -6.5778483455013665 C2.774884796001574 -6.43926893806897, 3.149104622578963 -6.2647673671025, 3.499999999999979 -6.062177826491083 C3.8508953774209953 -5.859588285879665, 4.189128084166947 -5.622755194947077, 4.499513267805756 -5.362311101832862 C4.809898451444564 -5.1018670087186475, 5.101867008718613 -4.809898451444602, 5.362311101832829 -4.499513267805796 C5.622755194947046 -4.189128084166989, 5.859588285879637 -3.8508953774210393, 6.062177826491056 -3.500000000000025 C6.2647673671024755 -3.1491046225790105, 6.439268938068949 -2.774884796001623, 6.577848345501348 -2.3941410032797092 C6.716427752933747 -2.0133972105577955, 6.823295662002342 -1.6145607442151562, 6.893654271085451 -1.2155372436685434 C6.96401288016856 -0.8165137431219307, 6.982275711847575 -0.2025895406114567, 7 -3.2800750208310675e-14 C7.017724288152425 0.2025895406113911, 7.017724288152424 -0.2025895406114242, 7 0" stroke="none" stroke-width="0" fill="#2d2d2d" style=""></path><path d="M7 0 C7 0.40517908122283747, 6.964012880168563 0.816513743121899, 6.893654271085456 1.2155372436685123 C6.823295662002349 1.6145607442151257, 6.716427752933756 2.013397210557766, 6.5778483455013586 2.394141003279681 C6.439268938068961 2.7748847960015954, 6.26476736710249 3.149104622578984, 6.062177826491071 3.4999999999999996 C5.859588285879653 3.8508953774210153, 5.622755194947063 4.189128084166967, 5.362311101832846 4.499513267805774 C5.10186700871863 4.809898451444582, 4.809898451444583 5.10186700871863, 4.499513267805775 5.362311101832846 C4.189128084166968 5.622755194947063, 3.8508953774210166 5.859588285879652, 3.500000000000001 6.06217782649107 C3.149104622578985 6.264767367102489, 2.7748847960015963 6.439268938068961, 2.3941410032796817 6.5778483455013586 C2.013397210557767 6.716427752933756, 1.6145607442151264 6.823295662002349, 1.2155372436685128 6.893654271085456 C0.8165137431218992 6.964012880168563, 0.4051790812228379 7, 4.286263797015736e-16 7 C-0.405179081222837 7, -0.8165137431218985 6.964012880168563, -1.2155372436685121 6.893654271085456 C-1.6145607442151257 6.823295662002349, -2.0133972105577667 6.716427752933756, -2.394141003279681 6.5778483455013586 C-2.774884796001595 6.439268938068961, -3.149104622578983 6.26476736710249, -3.4999999999999982 6.062177826491071 C-3.8508953774210135 5.859588285879653, -4.189128084166966 5.6227551949470636, -4.499513267805773 5.362311101832848 C-4.809898451444581 5.101867008718632, -5.101867008718628 4.809898451444586, -5.3623111018328435 4.499513267805779 C-5.622755194947059 4.189128084166971, -5.859588285879649 3.8508953774210206, -6.062177826491068 3.5000000000000053 C-6.264767367102486 3.14910462257899, -6.439268938068958 2.774884796001602, -6.577848345501356 2.394141003279688 C-6.716427752933754 2.0133972105577738, -6.823295662002347 1.614560744215134, -6.893654271085454 1.215537243668521 C-6.9640128801685615 0.816513743121908, -6.999999999999999 0.4051790812228472, -7 1.0183126166254463e-14 C-7.000000000000001 -0.40517908122282686, -6.964012880168565 -0.8165137431218878, -6.893654271085459 -1.215537243668501 C-6.823295662002352 -1.6145607442151142, -6.716427752933759 -2.0133972105577542, -6.577848345501363 -2.394141003279669 C-6.439268938068967 -2.7748847960015834, -6.264767367102496 -3.149104622578972, -6.062177826491078 -3.4999999999999876 C-5.859588285879661 -3.8508953774210033, -5.6227551949470715 -4.1891280841669545, -5.362311101832856 -4.499513267805763 C-5.10186700871864 -4.809898451444571, -4.809898451444594 -5.10186700871862, -4.499513267805787 -5.362311101832836 C-4.189128084166979 -5.622755194947053, -3.850895377421028 -5.859588285879643, -3.5000000000000133 -6.062177826491062 C-3.1491046225789985 -6.264767367102482, -2.774884796001611 -6.439268938068954, -2.3941410032796973 -6.577848345501353 C-2.0133972105577835 -6.716427752933752, -1.6145607442151435 -6.823295662002345, -1.2155372436685306 -6.893654271085453 C-0.8165137431219176 -6.9640128801685615, -0.40517908122285695 -6.999999999999999, -1.9937625952807352e-14 -7 C0.4051790812228171 -7.000000000000001, 0.8165137431218781 -6.964012880168565, 1.2155372436684913 -6.89365427108546 C1.6145607442151044 -6.823295662002354, 2.013397210557745 -6.716427752933763, 2.3941410032796595 -6.5778483455013665 C2.774884796001574 -6.43926893806897, 3.149104622578963 -6.2647673671025, 3.499999999999979 -6.062177826491083 C3.8508953774209953 -5.859588285879665, 4.189128084166947 -5.622755194947077, 4.499513267805756 -5.362311101832862 C4.809898451444564 -5.1018670087186475, 5.101867008718613 -4.809898451444602, 5.362311101832829 -4.499513267805796 C5.622755194947046 -4.189128084166989, 5.859588285879637 -3.8508953774210393, 6.062177826491056 -3.500000000000025 C6.2647673671024755 -3.1491046225790105, 6.439268938068949 -2.774884796001623, 6.577848345501348 -2.3941410032797092 C6.716427752933747 -2.0133972105577955, 6.823295662002342 -1.6145607442151562, 6.893654271085451 -1.2155372436685434 C6.96401288016856 -0.8165137431219307, 6.982275711847575 -0.2025895406114567, 7 -3.2800750208310675e-14 C7.017724288152425 0.2025895406113911, 7.017724288152424 -0.2025895406114242, 7 0" stroke="#cccccc" stroke-width="2" fill="none" stroke-dasharray="0 0" style=""></path><g><path d="M2.5 0 C2.5 0.14470681472244193, 2.487147457203058 0.29161205111496386, 2.46201938253052 0.4341204441673258 C2.436891307857982 0.5766288372196877, 2.3987241974763416 0.7190704323420595, 2.3492315519647713 0.8550503583141718 C2.299738906453201 0.991030284286284, 2.2374169168223177 1.124680222349637, 2.165063509461097 1.2499999999999998 C2.092710102099876 1.3753197776503625, 2.0081268553382365 1.496117172916774, 1.915111107797445 1.6069690242163481 C1.8220953602566536 1.7178208755159223, 1.7178208755159226 1.8220953602566536, 1.6069690242163484 1.915111107797445 C1.4961171729167742 2.0081268553382365, 1.375319777650363 2.0927101020998755, 1.2500000000000002 2.1650635094610964 C1.1246802223496375 2.2374169168223172, 0.9910302842862845 2.2997389064532, 0.8550503583141721 2.349231551964771 C0.7190704323420597 2.3987241974763416, 0.576628837219688 2.436891307857982, 0.43412044416732604 2.46201938253052 C0.291612051114964 2.487147457203058, 0.14470681472244212 2.5, 1.5308084989341916e-16 2.5 C-0.1447068147224418 2.5, -0.2916120511149638 2.487147457203058, -0.43412044416732576 2.46201938253052 C-0.5766288372196877 2.436891307857982, -0.7190704323420595 2.3987241974763416, -0.8550503583141718 2.3492315519647713 C-0.991030284286284 2.299738906453201, -1.124680222349637 2.2374169168223177, -1.2499999999999996 2.165063509461097 C-1.375319777650362 2.092710102099876, -1.4961171729167733 2.008126855338237, -1.6069690242163475 1.9151111077974459 C-1.7178208755159217 1.8220953602566548, -1.822095360256653 1.7178208755159234, -1.9151111077974443 1.6069690242163495 C-2.0081268553382357 1.4961171729167755, -2.0927101020998746 1.3753197776503645, -2.1650635094610955 1.250000000000002 C-2.2374169168223164 1.1246802223496395, -2.2997389064531992 0.9910302842862865, -2.34923155196477 0.8550503583141743 C-2.3987241974763407 0.7190704323420621, -2.436891307857981 0.5766288372196907, -2.4620193825305194 0.434120444167329 C-2.487147457203058 0.29161205111496724, -2.5 0.14470681472244545, -2.5 3.636830773662308e-15 C-2.5 -0.14470681472243818, -2.4871474572030587 -0.2916120511149599, -2.4620193825305208 -0.4341204441673218 C-2.436891307857983 -0.5766288372196837, -2.398724197476343 -0.7190704323420553, -2.3492315519647726 -0.8550503583141675 C-2.2997389064532023 -0.9910302842862798, -2.23741691682232 -1.1246802223496328, -2.165063509461099 -1.2499999999999956 C-2.092710102099878 -1.3753197776503583, -2.00812685533824 -1.4961171729167695, -1.9151111077974488 -1.606969024216344 C-1.8220953602566576 -1.7178208755159183, -1.7178208755159263 -1.82209536025665, -1.6069690242163523 -1.9151111077974416 C-1.4961171729167784 -2.0081268553382334, -1.3753197776503672 -2.0927101020998724, -1.2500000000000047 -2.1650635094610937 C-1.1246802223496422 -2.237416916822315, -0.9910302842862897 -2.299738906453198, -0.8550503583141776 -2.3492315519647686 C-0.7190704323420656 -2.3987241974763394, -0.5766288372196942 -2.4368913078579806, -0.43412044416733236 -2.462019382530519 C-0.29161205111497057 -2.4871474572030574, -0.1447068147224489 -2.4999999999999996, -7.120580697431198e-15 -2.5 C0.14470681472243463 -2.5000000000000004, 0.29161205111495647 -2.487147457203059, 0.4341204441673183 -2.4620193825305217 C0.5766288372196802 -2.436891307857984, 0.7190704323420518 -2.3987241974763442, 0.8550503583141642 -2.349231551964774 C0.9910302842862766 -2.2997389064532037, 1.1246802223496295 -2.2374169168223212, 1.2499999999999925 -2.165063509461101 C1.3753197776503554 -2.0927101020998804, 1.4961171729167668 -2.008126855338242, 1.6069690242163412 -1.915111107797451 C1.7178208755159157 -1.82209536025666, 1.8220953602566472 -1.7178208755159294, 1.915111107797439 -1.6069690242163557 C2.0081268553382308 -1.496117172916782, 2.09271010209987 -1.3753197776503712, 2.1650635094610915 -1.2500000000000089 C2.237416916822313 -1.1246802223496466, 2.299738906453196 -0.9910302842862939, 2.3492315519647673 -0.855050358314182 C2.3987241974763385 -0.71907043234207, 2.4368913078579792 -0.5766288372196986, 2.462019382530518 -0.4341204441673369 C2.487147457203057 -0.29161205111497523, 2.4936698970884197 -0.07235340736123454, 2.5 -1.1714553645825241e-14 C2.5063301029115803 0.07235340736121111, 2.50633010291158 -0.07235340736122292, 2.5 0" stroke="none" stroke-width="0" fill="#555555" style=""></path><path d="M2.5 0 C2.5 0.14470681472244193, 2.487147457203058 0.29161205111496386, 2.46201938253052 0.4341204441673258 C2.436891307857982 0.5766288372196877, 2.3987241974763416 0.7190704323420595, 2.3492315519647713 0.8550503583141718 C2.299738906453201 0.991030284286284, 2.2374169168223177 1.124680222349637, 2.165063509461097 1.2499999999999998 C2.092710102099876 1.3753197776503625, 2.0081268553382365 1.496117172916774, 1.915111107797445 1.6069690242163481 C1.8220953602566536 1.7178208755159223, 1.7178208755159226 1.8220953602566536, 1.6069690242163484 1.915111107797445 C1.4961171729167742 2.0081268553382365, 1.375319777650363 2.0927101020998755, 1.2500000000000002 2.1650635094610964 C1.1246802223496375 2.2374169168223172, 0.9910302842862845 2.2997389064532, 0.8550503583141721 2.349231551964771 C0.7190704323420597 2.3987241974763416, 0.576628837219688 2.436891307857982, 0.43412044416732604 2.46201938253052 C0.291612051114964 2.487147457203058, 0.14470681472244212 2.5, 1.5308084989341916e-16 2.5 C-0.1447068147224418 2.5, -0.2916120511149638 2.487147457203058, -0.43412044416732576 2.46201938253052 C-0.5766288372196877 2.436891307857982, -0.7190704323420595 2.3987241974763416, -0.8550503583141718 2.3492315519647713 C-0.991030284286284 2.299738906453201, -1.124680222349637 2.2374169168223177, -1.2499999999999996 2.165063509461097 C-1.375319777650362 2.092710102099876, -1.4961171729167733 2.008126855338237, -1.6069690242163475 1.9151111077974459 C-1.7178208755159217 1.8220953602566548, -1.822095360256653 1.7178208755159234, -1.9151111077974443 1.6069690242163495 C-2.0081268553382357 1.4961171729167755, -2.0927101020998746 1.3753197776503645, -2.1650635094610955 1.250000000000002 C-2.2374169168223164 1.1246802223496395, -2.2997389064531992 0.9910302842862865, -2.34923155196477 0.8550503583141743 C-2.3987241974763407 0.7190704323420621, -2.436891307857981 0.5766288372196907, -2.4620193825305194 0.434120444167329 C-2.487147457203058 0.29161205111496724, -2.5 0.14470681472244545, -2.5 3.636830773662308e-15 C-2.5 -0.14470681472243818, -2.4871474572030587 -0.2916120511149599, -2.4620193825305208 -0.4341204441673218 C-2.436891307857983 -0.5766288372196837, -2.398724197476343 -0.7190704323420553, -2.3492315519647726 -0.8550503583141675 C-2.2997389064532023 -0.9910302842862798, -2.23741691682232 -1.1246802223496328, -2.165063509461099 -1.2499999999999956 C-2.092710102099878 -1.3753197776503583, -2.00812685533824 -1.4961171729167695, -1.9151111077974488 -1.606969024216344 C-1.8220953602566576 -1.7178208755159183, -1.7178208755159263 -1.82209536025665, -1.6069690242163523 -1.9151111077974416 C-1.4961171729167784 -2.0081268553382334, -1.3753197776503672 -2.0927101020998724, -1.2500000000000047 -2.1650635094610937 C-1.1246802223496422 -2.237416916822315, -0.9910302842862897 -2.299738906453198, -0.8550503583141776 -2.3492315519647686 C-0.7190704323420656 -2.3987241974763394, -0.5766288372196942 -2.4368913078579806, -0.43412044416733236 -2.462019382530519 C-0.29161205111497057 -2.4871474572030574, -0.1447068147224489 -2.4999999999999996, -7.120580697431198e-15 -2.5 C0.14470681472243463 -2.5000000000000004, 0.29161205111495647 -2.487147457203059, 0.4341204441673183 -2.4620193825305217 C0.5766288372196802 -2.436891307857984, 0.7190704323420518 -2.3987241974763442, 0.8550503583141642 -2.349231551964774 C0.9910302842862766 -2.2997389064532037, 1.1246802223496295 -2.2374169168223212, 1.2499999999999925 -2.165063509461101 C1.3753197776503554 -2.0927101020998804, 1.4961171729167668 -2.008126855338242, 1.6069690242163412 -1.915111107797451 C1.7178208755159157 -1.82209536025666, 1.8220953602566472 -1.7178208755159294, 1.915111107797439 -1.6069690242163557 C2.0081268553382308 -1.496117172916782, 2.09271010209987 -1.3753197776503712, 2.1650635094610915 -1.2500000000000089 C2.237416916822313 -1.1246802223496466, 2.299738906453196 -0.9910302842862939, 2.3492315519647673 -0.855050358314182 C2.3987241974763385 -0.71907043234207, 2.4368913078579792 -0.5766288372196986, 2.462019382530518 -0.4341204441673369 C2.487147457203057 -0.29161205111497523, 2.4936698970884197 -0.07235340736123454, 2.5 -1.1714553645825241e-14 C2.5063301029115803 0.07235340736121111, 2.50633010291158 -0.07235340736122292, 2.5 0" stroke="#555555" stroke-width="2" fill="none" stroke-dasharray="0 0" style=""></path></g></g></g><g class="label edgeLabel" id="Hot---Hot---1" transform="translate(464.83125000074506, 258.49999618530273)"><rect width="0.1" height="0.1"></rect><g class="label" style="" transform="translate(0, 0)"><rect></rect><g><rect class="background" style="stroke: none"></rect><text y="-10.1" style=""><tspan class="text-outer-tspan row" x="0" y="-0.1em" dy="1.1em"></tspan></text></g></g></g><g class="label edgeLabel" id="Hot---Hot---2" transform="translate(512.4757812507451, 386.8999938964844)"><rect width="0.1" height="0.1"></rect><g class="label" style="" transform="translate(0, 0)"><rect></rect><g><rect class="background" style="stroke: none"></rect><text y="-10.1" style=""><tspan class="text-outer-tspan row" x="0" y="-0.1em" dy="1.1em"></tspan></text></g></g></g></g></g></g><defs><filter id="gc834a63f-b649-40dc-8210-d716b96e216f-dark-drop-shadow" height="130%" width="130%"><feDropShadow dx="4" dy="4" stdDeviation="0" flood-opacity="0.06" flood-color="#000000"></feDropShadow></filter></defs><defs><filter id="gc834a63f-b649-40dc-8210-d716b96e216f-dark-drop-shadow-small" height="150%" width="150%"><feDropShadow dx="2" dy="2" stdDeviation="0" flood-opacity="0.06" flood-color="#000000"></feDropShadow></filter></defs><linearGradient id="gc834a63f-b649-40dc-8210-d716b96e216f-dark-gradient" gradientUnits="objectBoundingBox" x1="0%" y1="0%" x2="100%" y2="0%"><stop offset="0%" stop-color="#555555" stop-opacity="1"></stop><stop offset="100%" stop-color="#555555" stop-opacity="1"></stop></linearGradient></svg>