<svg id="gc34cd44a-d1f8-40a7-a2f7-3412ba116d16-light" width="100%" xmlns="http://www.w3.org/2000/svg" xmlns:xlink="http://www.w3.org/1999/xlink" class="flowchart" style="max-width: 1072.7288818359375px;" viewBox="0 0 1072.7288818359375 555.3999633789062" role="graphics-document document" aria-roledescription="flowchart-v2"><style>#gc34cd44a-d1f8-40a7-a2f7-3412ba116d16-light{font-family:"trebuchet ms",verdana,arial,sans-serif;font-size:16px;fill:#333;}@keyframes edge-animation-frame{from{stroke-dashoffset:0;}}@keyframes dash{to{stroke-dashoffset:0;}}#gc34cd44a-d1f8-40a7-a2f7-3412ba116d16-light .edge-animation-slow{stroke-dasharray:9,5!important;stroke-dashoffset:900;animation:dash 50s linear infinite;stroke-linecap:round;}#gc34cd44a-d1f8-40a7-a2f7-3412ba116d16-light .edge-animation-fast{stroke-dasharray:9,5!important;stroke-dashoffset:900;animation:dash 20s linear infinite;stroke-linecap:round;}#gc34cd44a-d1f8-40a7-a2f7-3412ba116d16-light .error-icon{fill:#552222;}#gc34cd44a-d1f8-40a7-a2f7-3412ba116d16-light .error-text{fill:#552222;stroke:#552222;}#gc34cd44a-d1f8-40a7-a2f7-3412ba116d16-light .edge-thickness-normal{stroke-width:1px;}#gc34cd44a-d1f8-40a7-a2f7-3412ba116d16-light .edge-thickness-thick{stroke-width:3.5px;}#gc34cd44a-d1f8-40a7-a2f7-3412ba116d16-light .edge-pattern-solid{stroke-dasharray:0;}#gc34cd44a-d1f8-40a7-a2f7-3412ba116d16-light .edge-thickness-invisible{stroke-width:0;fill:none;}#gc34cd44a-d1f8-40a7-a2f7-3412ba116d16-light .edge-pattern-dashed{stroke-dasharray:3;}#gc34cd44a-d1f8-40a7-a2f7-3412ba116d16-light .edge-pattern-dotted{stroke-dasharray:2;}#gc34cd44a-d1f8-40a7-a2f7-3412ba116d16-light .marker{fill:#333333;stroke:#333333;}#gc34cd44a-d1f8-40a7-a2f7-3412ba116d16-light .marker.cross{stroke:#333333;}#gc34cd44a-d1f8-40a7-a2f7-3412ba116d16-light svg{font-family:"trebuchet ms",verdana,arial,sans-serif;font-size:16px;}#gc34cd44a-d1f8-40a7-a2f7-3412ba116d16-light p{margin:0;}#gc34cd44a-d1f8-40a7-a2f7-3412ba116d16-light .label{font-family:"trebuchet ms",verdana,arial,sans-serif;color:#333;}#gc34cd44a-d1f8-40a7-a2f7-3412ba116d16-light .cluster-label text{fill:#333;}#gc34cd44a-d1f8-40a7-a2f7-3412ba116d16-light .cluster-label span{color:#333;}#gc34cd44a-d1f8-40a7-a2f7-3412ba116d16-light .cluster-label span p{background-color:transparent;}#gc34cd44a-d1f8-40a7-a2f7-3412ba116d16-light .label text,#gc34cd44a-d1f8-40a7-a2f7-3412ba116d16-light span{fill:#333;color:#333;}#gc34cd44a-d1f8-40a7-a2f7-3412ba116d16-light .node rect,#gc34cd44a-d1f8-40a7-a2f7-3412ba116d16-light .node circle,#gc34cd44a-d1f8-40a7-a2f7-3412ba116d16-light .node ellipse,#gc34cd44a-d1f8-40a7-a2f7-3412ba116d16-light .node polygon,#gc34cd44a-d1f8-40a7-a2f7-3412ba116d16-light .node path{fill:#ECECFF;stroke:#9370DB;stroke-width:1px;}#gc34cd44a-d1f8-40a7-a2f7-3412ba116d16-light .rough-node .label text,#gc34cd44a-d1f8-40a7-a2f7-3412ba116d16-light .node .label text,#gc34cd44a-d1f8-40a7-a2f7-3412ba116d16-light .image-shape .label,#gc34cd44a-d1f8-40a7-a2f7-3412ba116d16-light .icon-shape .label{text-anchor:middle;}#gc34cd44a-d1f8-40a7-a2f7-3412ba116d16-light .node .katex path{fill:#000;stroke:#000;stroke-width:1px;}#gc34cd44a-d1f8-40a7-a2f7-3412ba116d16-light .rough-node .label,#gc34cd44a-d1f8-40a7-a2f7-3412ba116d16-light .node .label,#gc34cd44a-d1f8-40a7-a2f7-3412ba116d16-light .image-shape .label,#gc34cd44a-d1f8-40a7-a2f7-3412ba116d16-light .icon-shape .label{text-align:center;}#gc34cd44a-d1f8-40a7-a2f7-3412ba116d16-light .node.clickable{cursor:pointer;}#gc34cd44a-d1f8-40a7-a2f7-3412ba116d16-light .root .anchor path{fill:#333333!important;stroke-width:0;stroke:#333333;}#gc34cd44a-d1f8-40a7-a2f7-3412ba116d16-light .arrowheadPath{fill:#333333;}#gc34cd44a-d1f8-40a7-a2f7-3412ba116d16-light .edgePath .path{stroke:#333333;stroke-width:1px;}#gc34cd44a-d1f8-40a7-a2f7-3412ba116d16-light .flowchart-link{stroke:#333333;fill:none;}#gc34cd44a-d1f8-40a7-a2f7-3412ba116d16-light .edgeLabel{background-color:rgba(232,232,232, 0.8);text-align:center;}#gc34cd44a-d1f8-40a7-a2f7-3412ba116d16-light .edgeLabel p{background-color:rgba(232,232,232, 0.8);}#gc34cd44a-d1f8-40a7-a2f7-3412ba116d16-light .edgeLabel rect{opacity:0.5;background-color:rgba(232,232,232, 0.8);fill:rgba(232,232,232, 0.8);}#gc34cd44a-d1f8-40a7-a2f7-3412ba116d16-light .labelBkg{background-color:rgba(232, 232, 232, 0.5);}#gc34cd44a-d1f8-40a7-a2f7-3412ba116d16-light .cluster rect{fill:#ffffde;stroke:#aaaa33;stroke-width:1px;}#gc34cd44a-d1f8-40a7-a2f7-3412ba116d16-light .cluster text{fill:#333;}#gc34cd44a-d1f8-40a7-a2f7-3412ba116d16-light .cluster span{color:#333;}#gc34cd44a-d1f8-40a7-a2f7-3412ba116d16-light div.mermaidTooltip{position:absolute;text-align:center;max-width:200px;padding:2px;font-family:"trebuchet ms",verdana,arial,sans-serif;font-size:12px;background:hsl(80, 100%, 96.2745098039%);border:1px solid #aaaa33;border-radius:2px;pointer-events:none;z-index:100;}#gc34cd44a-d1f8-40a7-a2f7-3412ba116d16-light .flowchartTitleText{text-anchor:middle;font-size:18px;fill:#333;}#gc34cd44a-d1f8-40a7-a2f7-3412ba116d16-light rect.text{fill:none;stroke-width:0;}#gc34cd44a-d1f8-40a7-a2f7-3412ba116d16-light .icon-shape,#gc34cd44a-d1f8-40a7-a2f7-3412ba116d16-light .image-shape{background-color:rgba(232,232,232, 0.8);text-align:center;}#gc34cd44a-d1f8-40a7-a2f7-3412ba116d16-light .icon-shape p,#gc34cd44a-d1f8-40a7-a2f7-3412ba116d16-light .image-shape p{background-color:rgba(232,232,232, 0.8);padding:2px;}#gc34cd44a-d1f8-40a7-a2f7-3412ba116d16-light .icon-shape .label rect,#gc34cd44a-d1f8-40a7-a2f7-3412ba116d16-light .image-shape .label rect{opacity:0.5;background-color:rgba(232,232,232, 0.8);fill:rgba(232,232,232, 0.8);}#gc34cd44a-d1f8-40a7-a2f7-3412ba116d16-light .label-icon{display:inline-block;height:1em;overflow:visible;vertical-align:-0.125em;}#gc34cd44a-d1f8-40a7-a2f7-3412ba116d16-light .node .label-icon path{fill:currentColor;stroke:revert;stroke-width:revert;}#gc34cd44a-d1f8-40a7-a2f7-3412ba116d16-light .node .neo-node{stroke:#9370DB;}#gc34cd44a-d1f8-40a7-a2f7-3412ba116d16-light [data-look="neo"].node rect,#gc34cd44a-d1f8-40a7-a2f7-3412ba116d16-light [data-look="neo"].cluster rect,#gc34cd44a-d1f8-40a7-a2f7-3412ba116d16-light [data-look="neo"].node polygon{stroke:#9370DB;filter:drop-shadow(1px 2px 2px rgba(185, 185, 185, 1));}#gc34cd44a-d1f8-40a7-a2f7-3412ba116d16-light [data-look="neo"].node path{stroke:#9370DB;stroke-width:1px;}#gc34cd44a-d1f8-40a7-a2f7-3412ba116d16-light [data-look="neo"].node .outer-path{filter:drop-shadow(1px 2px 2px rgba(185, 185, 185, 1));}#gc34cd44a-d1f8-40a7-a2f7-3412ba116d16-light [data-look="neo"].node .neo-line path{stroke:#9370DB;filter:none;}#gc34cd44a-d1f8-40a7-a2f7-3412ba116d16-light [data-look="neo"].node circle{stroke:#9370DB;filter:drop-shadow(1px 2px 2px rgba(185, 185, 185, 1));}#gc34cd44a-d1f8-40a7-a2f7-3412ba116d16-light [data-look="neo"].node circle .state-start{fill:#000000;}#gc34cd44a-d1f8-40a7-a2f7-3412ba116d16-light [data-look="neo"].icon-shape .icon{fill:#9370DB;filter:drop-shadow(1px 2px 2px rgba(185, 185, 185, 1));}#gc34cd44a-d1f8-40a7-a2f7-3412ba116d16-light [data-look="neo"].icon-shape .icon-neo path{stroke:#9370DB;filter:drop-shadow(1px 2px 2px rgba(185, 185, 185, 1));}#gc34cd44a-d1f8-40a7-a2f7-3412ba116d16-light :root{--mermaid-font-family:"trebuchet ms",verdana,arial,sans-serif;}#gc34cd44a-d1f8-40a7-a2f7-3412ba116d16-light .question rect{fill:#5A4D8B!important;stroke:#9673a6!important;stroke-width:2px!important;color:#ffffff!important;}#gc34cd44a-d1f8-40a7-a2f7-3412ba116d16-light .question polygon{fill:#5A4D8B!important;stroke:#9673a6!important;stroke-width:2px!important;color:#ffffff!important;}#gc34cd44a-d1f8-40a7-a2f7-3412ba116d16-light .question ellipse{fill:#5A4D8B!important;stroke:#9673a6!important;stroke-width:2px!important;color:#ffffff!important;}#gc34cd44a-d1f8-40a7-a2f7-3412ba116d16-light .question circle{fill:#5A4D8B!important;stroke:#9673a6!important;stroke-width:2px!important;color:#ffffff!important;}#gc34cd44a-d1f8-40a7-a2f7-3412ba116d16-light .question path{fill:#5A4D8B!important;stroke:#9673a6!important;stroke-width:2px!important;color:#ffffff!important;}#gc34cd44a-d1f8-40a7-a2f7-3412ba116d16-light .question tspan{fill:#ffffff!important;}#gc34cd44a-d1f8-40a7-a2f7-3412ba116d16-light .pick rect{fill:#2E5A88!important;stroke:#6c8ebf!important;stroke-width:2px!important;color:#ffffff!important;}#gc34cd44a-d1f8-40a7-a2f7-3412ba116d16-light .pick polygon{fill:#2E5A88!important;stroke:#6c8ebf!important;stroke-width:2px!important;color:#ffffff!important;}#gc34cd44a-d1f8-40a7-a2f7-3412ba116d16-light .pick ellipse{fill:#2E5A88!important;stroke:#6c8ebf!important;stroke-width:2px!important;color:#ffffff!important;}#gc34cd44a-d1f8-40a7-a2f7-3412ba116d16-light .pick circle{fill:#2E5A88!important;stroke:#6c8ebf!important;stroke-width:2px!important;color:#ffffff!important;}#gc34cd44a-d1f8-40a7-a2f7-3412ba116d16-light .pick path{fill:#2E5A88!important;stroke:#6c8ebf!important;stroke-width:2px!important;color:#ffffff!important;}#gc34cd44a-d1f8-40a7-a2f7-3412ba116d16-light .pick tspan{fill:#ffffff!important;}#gc34cd44a-d1f8-40a7-a2f7-3412ba116d16-light .entry rect{fill:#B43A3A!important;stroke:#b85450!important;stroke-width:2px!important;color:#ffffff!important;}#gc34cd44a-d1f8-40a7-a2f7-3412ba116d16-light .entry polygon{fill:#B43A3A!important;stroke:#b85450!important;stroke-width:2px!important;color:#ffffff!important;}#gc34cd44a-d1f8-40a7-a2f7-3412ba116d16-light .entry ellipse{fill:#B43A3A!important;stroke:#b85450!important;stroke-width:2px!important;color:#ffffff!important;}#gc34cd44a-d1f8-40a7-a2f7-3412ba116d16-light .entry circle{fill:#B43A3A!important;stroke:#b85450!important;stroke-width:2px!important;color:#ffffff!important;}#gc34cd44a-d1f8-40a7-a2f7-3412ba116d16-light .entry path{fill:#B43A3A!important;stroke:#b85450!important;stroke-width:2px!important;color:#ffffff!important;}#gc34cd44a-d1f8-40a7-a2f7-3412ba116d16-light .entry tspan{fill:#ffffff!important;}</style><g><marker id="gc34cd44a-d1f8-40a7-a2f7-3412ba116d16-light_flowchart-v2-pointEnd" class="marker flowchart-v2" viewBox="0 0 10 10" refX="5" refY="5" markerUnits="userSpaceOnUse" markerWidth="8" markerHeight="8" orient="auto"><path d="M 0 0 L 10 5 L 0 10 z" class="arrowMarkerPath" style="stroke-width: 1; stroke-dasharray: 1, 0;"></path></marker><marker id="gc34cd44a-d1f8-40a7-a2f7-3412ba116d16-light_flowchart-v2-pointStart" class="marker flowchart-v2" viewBox="0 0 10 10" refX="4.5" refY="5" markerUnits="userSpaceOnUse" markerWidth="8" markerHeight="8" orient="auto"><path d="M 0 5 L 10 10 L 10 0 z" class="arrowMarkerPath" style="stroke-width: 1; stroke-dasharray: 1, 0;"></path></marker><marker id="gc34cd44a-d1f8-40a7-a2f7-3412ba116d16-light_flowchart-v2-pointEnd-margin" class="marker flowchart-v2" viewBox="0 0 11.5 14" refX="11.5" refY="7" markerUnits="userSpaceOnUse" markerWidth="10.5" markerHeight="14" orient="auto"><path d="M 0 0 L 11.5 7 L 0 14 z" class="arrowMarkerPath" style="stroke-width: 0; stroke-dasharray: 1, 0;"></path></marker><marker id="gc34cd44a-d1f8-40a7-a2f7-3412ba116d16-light_flowchart-v2-pointStart-margin" class="marker flowchart-v2" viewBox="0 0 11.5 14" refX="1" refY="7" markerUnits="userSpaceOnUse" markerWidth="11.5" markerHeight="14" orient="auto"><polygon points="0,7 11.5,14 11.5,0" class="arrowMarkerPath" style="stroke-width: 0; stroke-dasharray: 1, 0;"></polygon></marker><marker id="gc34cd44a-d1f8-40a7-a2f7-3412ba116d16-light_flowchart-v2-circleEnd" class="marker flowchart-v2" viewBox="0 0 10 10" refX="11" refY="5" markerUnits="userSpaceOnUse" markerWidth="11" markerHeight="11" orient="auto"><circle cx="5" cy="5" r="5" class="arrowMarkerPath" style="stroke-width: 1; stroke-dasharray: 1, 0;"></circle></marker><marker id="gc34cd44a-d1f8-40a7-a2f7-3412ba116d16-light_flowchart-v2-circleStart" class="marker flowchart-v2" viewBox="0 0 10 10" refX="-1" refY="5" markerUnits="userSpaceOnUse" markerWidth="11" markerHeight="11" orient="auto"><circle cx="5" cy="5" r="5" class="arrowMarkerPath" style="stroke-width: 1; stroke-dasharray: 1, 0;"></circle></marker><marker id="gc34cd44a-d1f8-40a7-a2f7-3412ba116d16-light_flowchart-v2-circleEnd-margin" class="marker flowchart-v2" viewBox="0 0 10 10" refY="5" refX="12.25" markerUnits="userSpaceOnUse" markerWidth="14" markerHeight="14" orient="auto"><circle cx="5" cy="5" r="5" class="arrowMarkerPath" style="stroke-width: 0; stroke-dasharray: 1, 0;"></circle></marker><marker id="gc34cd44a-d1f8-40a7-a2f7-3412ba116d16-light_flowchart-v2-circleStart-margin" class="marker flowchart-v2" viewBox="0 0 10 10" refX="-2" refY="5" markerUnits="userSpaceOnUse" markerWidth="14" markerHeight="14" orient="auto"><circle cx="5" cy="5" r="5" class="arrowMarkerPath" style="stroke-width: 0; stroke-dasharray: 1, 0;"></circle></marker><marker id="gc34cd44a-d1f8-40a7-a2f7-3412ba116d16-light_flowchart-v2-crossEnd" class="marker cross flowchart-v2" viewBox="0 0 11 11" refX="12" refY="5.2" markerUnits="userSpaceOnUse" markerWidth="11" markerHeight="11" orient="auto"><path d="M 1,1 l 9,9 M 10,1 l -9,9" class="arrowMarkerPath" style="stroke-width: 2; stroke-dasharray: 1, 0;"></path></marker><marker id="gc34cd44a-d1f8-40a7-a2f7-3412ba116d16-light_flowchart-v2-crossStart" class="marker cross flowchart-v2" viewBox="0 0 11 11" refX="-1" refY="5.2" markerUnits="userSpaceOnUse" markerWidth="11" markerHeight="11" orient="auto"><path d="M 1,1 l 9,9 M 10,1 l -9,9" class="arrowMarkerPath" style="stroke-width: 2; stroke-dasharray: 1, 0;"></path></marker><marker id="gc34cd44a-d1f8-40a7-a2f7-3412ba116d16-light_flowchart-v2-crossEnd-margin" class="marker cross flowchart-v2" viewBox="0 0 15 15" refX="17.7" refY="7.5" markerUnits="userSpaceOnUse" markerWidth="12" markerHeight="12" orient="auto"><path d="M 1,1 L 14,14 M 1,14 L 14,1" class="arrowMarkerPath" style="stroke-width: 2.5;"></path></marker><marker id="gc34cd44a-d1f8-40a7-a2f7-3412ba116d16-light_flowchart-v2-crossStart-margin" class="marker cross flowchart-v2" viewBox="0 0 15 15" refX="-3.5" refY="7.5" markerUnits="userSpaceOnUse" markerWidth="12" markerHeight="12" orient="auto"><path d="M 1,1 L 14,14 M 1,14 L 14,1" class="arrowMarkerPath" style="stroke-width: 2.5; stroke-dasharray: 1, 0;"></path></marker><g class="root"><g class="clusters"></g><g class="edgePaths"><path d="M513.97,42.5L513.887,46.583C513.804,50.667,513.637,58.833,513.624,66.5C513.611,74.167,513.751,81.334,513.822,84.917L513.892,88.501" id="gc34cd44a-d1f8-40a7-a2f7-3412ba116d16-light-L_Start_Q1_0" class="edge-thickness-normal edge-pattern-solid edge-thickness-normal edge-pattern-solid flowchart-link" style=";" data-edge="true" data-et="edge" data-id="L_Start_Q1_0" data-points="W3sieCI6NTEzLjk3MDMxNDAyNTg3ODksInkiOjQyLjV9LHsieCI6NTEzLjQ3MDMxNDAyNTg3ODksInkiOjY3fSx7IngiOjUxMy45NzAzMTQwMjU4Nzg5LCJ5Ijo5Mi41fV0=" data-look="classic" marker-end="url(#gc34cd44a-d1f8-40a7-a2f7-3412ba116d16-light_flowchart-v2-pointEnd)"></path><path d="M433.66,135.057L397.198,142.564C360.736,150.071,287.812,165.086,251.424,178.093C215.036,191.1,215.185,202.1,215.259,207.6L215.333,213.1" id="gc34cd44a-d1f8-40a7-a2f7-3412ba116d16-light-L_Q1_Q4_0" class="edge-thickness-normal edge-pattern-solid edge-thickness-normal edge-pattern-solid flowchart-link" style=";" data-edge="true" data-et="edge" data-id="L_Q1_Q4_0" data-points="W3sieCI6NDMzLjY1OTc0Mzc0NTk4NjUzLCJ5IjoxMzUuMDU2OTg2NzI5MDMzNTh9LHsieCI6MjE0Ljg4NzUwMDc2MjkzOTQ1LCJ5IjoxODAuMDk5OTk4NDc0MTIxMX0seyJ4IjoyMTUuMzg3NTAwNzYyOTM5NDUsInkiOjIxNy4wOTk5OTg0NzQxMjExfV0=" data-look="classic" marker-end="url(#gc34cd44a-d1f8-40a7-a2f7-3412ba116d16-light_flowchart-v2-pointEnd)"></path><path d="M593.39,136.839L624.553,144.049C655.715,151.259,718.04,165.68,749.277,178.39C780.513,191.1,780.662,202.1,780.736,207.6L780.811,213.1" id="gc34cd44a-d1f8-40a7-a2f7-3412ba116d16-light-L_Q1_Q2_0" class="edge-thickness-normal edge-pattern-solid edge-thickness-normal edge-pattern-solid flowchart-link" style=";" data-edge="true" data-et="edge" data-id="L_Q1_Q2_0" data-points="W3sieCI6NTkzLjM5MDA3NDE2NDAyOTksInkiOjEzNi44Mzg1OTkzODMxMjIzM30seyJ4Ijo3ODAuMzY0ODQ1Mjc1ODc4OSwieSI6MTgwLjA5OTk5ODQ3NDEyMTF9LHsieCI6NzgwLjg2NDg0NTI3NTg3ODksInkiOjIxNy4wOTk5OTg0NzQxMjExfV0=" data-look="classic" marker-end="url(#gc34cd44a-d1f8-40a7-a2f7-3412ba116d16-light_flowchart-v2-pointEnd)"></path><path d="M705.165,263.706L679.919,270.538C654.674,277.371,604.184,291.035,578.938,309.501C553.693,327.967,553.693,351.233,553.693,374.5C553.693,397.767,553.693,421.033,550.54,438.172C547.387,455.31,541.081,466.319,537.928,471.824L534.775,477.329" id="gc34cd44a-d1f8-40a7-a2f7-3412ba116d16-light-L_Q2_ARC_0" class="edge-thickness-normal edge-pattern-solid edge-thickness-normal edge-pattern-solid flowchart-link" style=";" data-edge="true" data-et="edge" data-id="L_Q2_ARC_0" data-points="W3sieCI6NzA1LjE2NDY4NTM4MTE0MzIsInkiOjI2My43MDU5MzA5NzM0Njg0fSx7IngiOjU1My42OTI5NzAyNzU4Nzg5LCJ5IjozMDQuNjk5OTk2OTQ4MjQyMn0seyJ4Ijo1NTMuNjkyOTcwMjc1ODc4OSwieSI6Mzc0LjQ5OTk5NjE4NTMwMjczfSx7IngiOjU1My42OTI5NzAyNzU4Nzg5LCJ5Ijo0NDQuMjk5OTk1NDIyMzYzM30seyJ4Ijo1MzIuNzg2Njg2ODY4MjQzNywieSI6NDgwLjc5OTk5NTQyMjM2MzN9XQ==" data-look="classic" marker-end="url(#gc34cd44a-d1f8-40a7-a2f7-3412ba116d16-light_flowchart-v2-pointEnd)"></path><path d="M808.825,268.7L815.334,274.7C821.844,280.7,834.863,292.7,841.448,305.45C848.033,318.2,848.185,331.7,848.26,338.45L848.336,345.2" id="gc34cd44a-d1f8-40a7-a2f7-3412ba116d16-light-L_Q2_Q3_0" class="edge-thickness-normal edge-pattern-solid edge-thickness-normal edge-pattern-solid flowchart-link" style=";" data-edge="true" data-et="edge" data-id="L_Q2_Q3_0" data-points="W3sieCI6ODA4LjgyNTA5MDM5MjMyOTUsInkiOjI2OC42OTk5OTY5NDgyNDIyfSx7IngiOjg0Ny44ODEyNTIyODg4MTg0LCJ5IjozMDQuNjk5OTk2OTQ4MjQyMn0seyJ4Ijo4NDguMzgxMjUyMjg4ODE4MiwieSI6MzQ5LjE5OTk5Njk0ODI0MjJ9XQ==" data-look="classic" marker-end="url(#gc34cd44a-d1f8-40a7-a2f7-3412ba116d16-light_flowchart-v2-pointEnd)"></path><path d="M804.331,400.8L791.726,408.05C779.122,415.3,753.914,429.8,741.31,442.467C728.705,455.133,728.705,465.967,728.705,471.383L728.705,476.8" id="gc34cd44a-d1f8-40a7-a2f7-3412ba116d16-light-L_Q3_WTLFU_0" class="edge-thickness-normal edge-pattern-solid edge-thickness-normal edge-pattern-solid flowchart-link" style=";" data-edge="true" data-et="edge" data-id="L_Q3_WTLFU_0" data-points="W3sieCI6ODA0LjMzMDYwNjE3MjI4NDksInkiOjQwMC43OTk5OTU0MjIzNjMzfSx7IngiOjcyOC43MDU0NzEwMzg4MTg0LCJ5Ijo0NDQuMjk5OTk1NDIyMzYzM30seyJ4Ijo3MjguNzA1NDcxMDM4ODE4NCwieSI6NDgwLjc5OTk5NTQyMjM2MzN9XQ==" data-look="classic" marker-end="url(#gc34cd44a-d1f8-40a7-a2f7-3412ba116d16-light_flowchart-v2-pointEnd)"></path><path d="M892.432,400.8L904.869,408.05C917.307,415.3,942.182,429.8,954.62,442.467C967.057,455.133,967.057,465.967,967.057,471.383L967.057,476.8" id="gc34cd44a-d1f8-40a7-a2f7-3412ba116d16-light-L_Q3_LRU_0" class="edge-thickness-normal edge-pattern-solid edge-thickness-normal edge-pattern-solid flowchart-link" style=";" data-edge="true" data-et="edge" data-id="L_Q3_LRU_0" data-points="W3sieCI6ODkyLjQzMTg5ODQwNTM1MywieSI6NDAwLjc5OTk5NTQyMjM2MzN9LHsieCI6OTY3LjA1NzAzMzUzODgxODQsInkiOjQ0NC4yOTk5OTU0MjIzNjMzfSx7IngiOjk2Ny4wNTcwMzM1Mzg4MTg0LCJ5Ijo0ODAuNzk5OTk1NDIyMzYzM31d" data-look="classic" marker-end="url(#gc34cd44a-d1f8-40a7-a2f7-3412ba116d16-light_flowchart-v2-pointEnd)"></path><path d="M166.774,268.7L155.229,274.7C143.683,280.7,120.591,292.7,109.046,304.117C97.5,315.533,97.5,326.367,97.5,331.783L97.5,337.2" id="gc34cd44a-d1f8-40a7-a2f7-3412ba116d16-light-L_Q4_SIEVE_0" class="edge-thickness-normal edge-pattern-solid edge-thickness-normal edge-pattern-solid flowchart-link" style=";" data-edge="true" data-et="edge" data-id="L_Q4_SIEVE_0" data-points="W3sieCI6MTY2Ljc3NDM3OTI5ODg0Mzk0LCJ5IjoyNjguNjk5OTk2OTQ4MjQyMn0seyJ4Ijo5Ny41LCJ5IjozMDQuNjk5OTk2OTQ4MjQyMn0seyJ4Ijo5Ny41LCJ5IjozNDEuMTk5OTk2OTQ4MjQyMn1d" data-look="classic" marker-end="url(#gc34cd44a-d1f8-40a7-a2f7-3412ba116d16-light_flowchart-v2-pointEnd)"></path><path d="M264.001,268.7L275.38,274.7C286.759,280.7,309.517,292.7,320.972,305.45C332.427,318.2,332.578,331.7,332.654,338.45L332.73,345.2" id="gc34cd44a-d1f8-40a7-a2f7-3412ba116d16-light-L_Q4_Q5_0" class="edge-thickness-normal edge-pattern-solid edge-thickness-normal edge-pattern-solid flowchart-link" style=";" data-edge="true" data-et="edge" data-id="L_Q4_Q5_0" data-points="W3sieCI6MjY0LjAwMDYyMjIyNzAzNDk3LCJ5IjoyNjguNjk5OTk2OTQ4MjQyMn0seyJ4IjozMzIuMjc1MDAxNTI1ODc4OSwieSI6MzA0LjY5OTk5Njk0ODI0MjJ9LHsieCI6MzMyLjc3NTAwMTUyNTg3ODksInkiOjM0OS4xOTk5OTY5NDgyNDIyfV0=" data-look="classic" marker-end="url(#gc34cd44a-d1f8-40a7-a2f7-3412ba116d16-light_flowchart-v2-pointEnd)"></path><path d="M318.871,400.8L314.836,408.05C310.8,415.3,302.729,429.8,298.694,442.467C294.659,455.133,294.659,465.967,294.659,471.383L294.659,476.8" id="gc34cd44a-d1f8-40a7-a2f7-3412ba116d16-light-L_Q5_TWOQ_0" class="edge-thickness-normal edge-pattern-solid edge-thickness-normal edge-pattern-solid flowchart-link" style=";" data-edge="true" data-et="edge" data-id="L_Q5_TWOQ_0" data-points="W3sieCI6MzE4Ljg3MDk0MzU5NjQzNjUsInkiOjQwMC43OTk5OTU0MjIzNjMzNH0seyJ4IjoyOTQuNjU4NTk2MDM4ODE4MzYsInkiOjQ0NC4yOTk5OTU0MjIzNjMzfSx7IngiOjI5NC42NTg1OTYwMzg4MTgzNiwieSI6NDgwLjc5OTk5NTQyMjM2MzN9XQ==" data-look="classic" marker-end="url(#gc34cd44a-d1f8-40a7-a2f7-3412ba116d16-light_flowchart-v2-pointEnd)"></path><path d="M373.259,400.8L384.683,408.05C396.107,415.3,418.955,429.8,436.167,442.669C453.38,455.538,464.958,466.776,470.747,472.395L476.536,478.014" id="gc34cd44a-d1f8-40a7-a2f7-3412ba116d16-light-L_Q5_ARC_0" class="edge-thickness-normal edge-pattern-solid edge-thickness-normal edge-pattern-solid flowchart-link" style=";" data-edge="true" data-et="edge" data-id="L_Q5_ARC_0" data-points="W3sieCI6MzczLjI1OTMxOTgwNzc0NjYsInkiOjQwMC43OTk5OTU0MjIzNjMzNH0seyJ4Ijo0NDEuODAyMzQ1Mjc1ODc4OSwieSI6NDQ0LjI5OTk5NTQyMjM2MzN9LHsieCI6NDc5LjQwNjIwMzA4ODAxMDEsInkiOjQ4MC43OTk5OTU0MjIzNjMzfV0=" data-look="classic" marker-end="url(#gc34cd44a-d1f8-40a7-a2f7-3412ba116d16-light_flowchart-v2-pointEnd)"></path></g><g class="edgeLabels"><g class="edgeLabel"><g class="label" data-id="L_Start_Q1_0" transform="translate(0, 0)"><text y="-10.1" text-anchor="middle"><tspan class="text-outer-tspan row" x="0" y="-0.1em" dy="1.1em" text-anchor="middle"></tspan></text></g></g><g><rect class="background" style="stroke: none"></rect></g><g class="edgeLabel" transform="translate(214.88750076293945, 180.0999984741211)"><g class="label" data-id="L_Q1_Q4_0" transform="translate(0, -10.5)"><g><rect class="background" style="" x="-13.546875" y="-1" width="27.09375" height="23"></rect><text y="-10.1" text-anchor="middle" style=""><tspan class="text-outer-tspan row" x="0" y="-0.1em" dy="1.1em" text-anchor="middle"><tspan font-style="normal" class="text-inner-tspan" font-weight="normal">yes</tspan></tspan></text></g></g></g><g class="edgeLabel" transform="translate(704.90294, 162.63996)"><g class="label" data-id="L_Q1_Q2_0" transform="translate(0, -10.5)"><g><rect class="background" style="" x="-10.6640625" y="-1" width="21.328125" height="23"></rect><text y="-10.1" text-anchor="middle" style=""><tspan class="text-outer-tspan row" x="0" y="-0.1em" dy="1.1em" text-anchor="middle"><tspan font-style="normal" class="text-inner-tspan" font-weight="normal">no</tspan></tspan></text></g></g></g><g class="edgeLabel" transform="translate(553.6929702758789, 374.49999618530273)"><g class="label" data-id="L_Q2_ARC_0" transform="translate(0, -10.5)"><g><rect class="background" style="" x="-13.546875" y="-1" width="27.09375" height="23"></rect><text y="-10.1" text-anchor="middle" style=""><tspan class="text-outer-tspan row" x="0" y="-0.1em" dy="1.1em" text-anchor="middle"><tspan font-style="normal" class="text-inner-tspan" font-weight="normal">yes</tspan></tspan></text></g></g></g><g class="edgeLabel" transform="translate(847.8812522888184, 304.6999969482422)"><g class="label" data-id="L_Q2_Q3_0" transform="translate(0, -10.5)"><g><rect class="background" style="" x="-10.6640625" y="-1" width="21.328125" height="23"></rect><text y="-10.1" text-anchor="middle" style=""><tspan class="text-outer-tspan row" x="0" y="-0.1em" dy="1.1em" text-anchor="middle"><tspan font-style="normal" class="text-inner-tspan" font-weight="normal">no</tspan></tspan></text></g></g></g><g class="edgeLabel" transform="translate(728.7054710388184, 444.2999954223633)"><g class="label" data-id="L_Q3_WTLFU_0" transform="translate(0, -10.5)"><g><rect class="background" style="" x="-13.546875" y="-1" width="27.09375" height="23"></rect><text y="-10.1" text-anchor="middle" style=""><tspan class="text-outer-tspan row" x="0" y="-0.1em" dy="1.1em" text-anchor="middle"><tspan font-style="normal" class="text-inner-tspan" font-weight="normal">yes</tspan></tspan></text></g></g></g><g class="edgeLabel" transform="translate(967.0570335388184, 444.2999954223633)"><g class="label" data-id="L_Q3_LRU_0" transform="translate(0, -10.5)"><g><rect class="background" style="" x="-10.6640625" y="-1" width="21.328125" height="23"></rect><text y="-10.1" text-anchor="middle" style=""><tspan class="text-outer-tspan row" x="0" y="-0.1em" dy="1.1em" text-anchor="middle"><tspan font-style="normal" class="text-inner-tspan" font-weight="normal">no</tspan></tspan></text></g></g></g><g class="edgeLabel" transform="translate(97.5, 304.6999969482422)"><g class="label" data-id="L_Q4_SIEVE_0" transform="translate(0, -10.5)"><g><rect class="background" style="" x="-13.546875" y="-1" width="27.09375" height="23"></rect><text y="-10.1" text-anchor="middle" style=""><tspan class="text-outer-tspan row" x="0" y="-0.1em" dy="1.1em" text-anchor="middle"><tspan font-style="normal" class="text-inner-tspan" font-weight="normal">yes</tspan></tspan></text></g></g></g><g class="edgeLabel" transform="translate(332.2750015258789, 304.6999969482422)"><g class="label" data-id="L_Q4_Q5_0" transform="translate(0, -10.5)"><g><rect class="background" style="" x="-10.6640625" y="-1" width="21.328125" height="23"></rect><text y="-10.1" text-anchor="middle" style=""><tspan class="text-outer-tspan row" x="0" y="-0.1em" dy="1.1em" text-anchor="middle"><tspan font-style="normal" class="text-inner-tspan" font-weight="normal">no</tspan></tspan></text></g></g></g><g class="edgeLabel" transform="translate(294.65859603881836, 444.2999954223633)"><g class="label" data-id="L_Q5_TWOQ_0" transform="translate(0, -10.5)"><g><rect class="background" style="" x="-13.546875" y="-1" width="27.09375" height="23"></rect><text y="-10.1" text-anchor="middle" style=""><tspan class="text-outer-tspan row" x="0" y="-0.1em" dy="1.1em" text-anchor="middle"><tspan font-style="normal" class="text-inner-tspan" font-weight="normal">yes</tspan></tspan></text></g></g></g><g class="edgeLabel" transform="translate(429.65421, 436.59033)"><g class="label" data-id="L_Q5_ARC_0" transform="translate(0, -10.5)"><g><rect class="background" style="" x="-10.6640625" y="-1" width="21.328125" height="23"></rect><text y="-10.1" text-anchor="middle" style=""><tspan class="text-outer-tspan row" x="0" y="-0.1em" dy="1.1em" text-anchor="middle"><tspan font-style="normal" class="text-inner-tspan" font-weight="normal">no</tspan></tspan></text></g></g></g></g><g class="nodes"><g class="node default entry" id="gc34cd44a-d1f8-40a7-a2f7-3412ba116d16-light-flowchart-Start-0" data-look="classic" transform="translate(513.4703140258789, 25)"><g class="basic label-container outer-path"><path d="M-92.1484375 -17 C-51.15268921163883 -17, -10.15694092327766 -17, 92.1484375 -17 C92.1484375 -17, 92.1484375 -17, 92.1484375 -17 C92.39921924298575 -16.991957917619498, 92.6500009859715 -16.983915835238996, 93.23763123967211 -16.965071676755716 C93.64917557082302 -16.925370490084063, 94.06071990197391 -16.88566930341241, 94.3223492486366 -16.860430234995185 C94.53922495726412 -16.825367452320528, 94.75610066589167 -16.790304669645867, 95.39813418792333 -16.686505668848113 C95.8025004844375 -16.59421170040544, 96.20686678095167 -16.501917731962767, 96.46056542646163 -16.4440126716635 C96.82456959937102 -16.335978143840887, 97.1885737722804 -16.227943616018273, 97.50527720640156 -16.133947699181366 C97.77710041324535 -16.03391424635667, 98.04892362008916 -15.933880793531973, 98.52797658294936 -15.757584874882369 C98.7303747523191 -15.667989209230765, 98.93277292168882 -15.578393543579162, 99.52446106499849 -15.316470754341125 C99.76385041866983 -15.191581481866983, 100.00323977234117 -15.066692209392839, 100.49063588406693 -14.812417970097622 C100.75123795765877 -14.654439461618473, 101.01184003125061 -14.496460953139325, 101.42253082057933 -14.247497783161291 C101.70099065231233 -14.053256258876182, 101.97945048404533 -13.859014734591074, 102.31631651835067 -13.624031571755262 C102.65455619388105 -13.354294431455573, 102.99279586941142 -13.084557291155882, 103.1683202202324 -12.944581292275288 C103.36583903558865 -12.765199930230224, 103.56335785094488 -12.58581856818516, 103.97504086025927 -12.21193895166137 C104.12768405010772 -12.054322325903899, 104.28032723995615 -11.896705700146427, 104.73316345028036 -11.42911513444239 C104.99518623433754 -11.121328262770044, 105.25720901839472 -10.813541391097699, 105.43957270195651 -10.59932663159847 C105.58067236438578 -10.410265938386939, 105.72177202681505 -10.221205245175407, 106.09136582814824 -9.725983222076888 C106.29763086029041 -9.40910474279007, 106.50389589243258 -9.092226263503253, 106.68586447109088 -8.812673661278927 C106.82943278303075 -8.557753585561668, 106.97300109497063 -8.30283350984441, 107.220625708341 -7.863150934094199 C107.35501500447509 -7.584088685201482, 107.48940430060917 -7.305026436308763, 107.69345209126881 -6.881316833080699 C107.82651291510118 -6.552654025658743, 107.95957373893354 -6.2239912182367885, 108.10240067484592 -5.871205925162238 C108.20670012170963 -5.557072609068876, 108.31099956857334 -5.242939292975514, 108.44579100162323 -4.836968972727556 C108.5307241450124 -4.513082086727475, 108.61565728840156 -4.189195200727394, 108.722212007091 -3.7828558772573464 C108.78076068347336 -3.4822207983010633, 108.83930935985572 -3.18158571934478, 108.93052781804565 -2.713198215567453 C108.97657461893907 -2.356068320807433, 109.02262141983248 -1.9989384260474135, 109.06988242013637 -1.632391440430593 C109.09075562377126 -1.3072744452705658, 109.11162882740614 -0.9821574501105383, 109.1397031754117 -0.5448768187181379 C109.1397031754117 -0.1679983663312395, 109.1397031754117 0.2088800860556589, 109.1397031754117 0.5448768187181336 C109.12367012066211 0.7946045880916798, 109.10763706591254 1.044332357465226, 109.06988242013637 1.6323914404305815 C109.02787569244367 1.9581873252485211, 108.98586896475096 2.283983210066461, 108.93052781804565 2.7131982155674415 C108.8859844393391 2.941919050979174, 108.84144106063255 3.1706398863909073, 108.722212007091 3.782855877257343 C108.66441019184374 4.003279250260347, 108.60660837659648 4.22370262326335, 108.44579100162323 4.836968972727545 C108.32992809056073 5.185929600599904, 108.2140651794982 5.534890228472262, 108.10240067484592 5.871205925162227 C107.96105538455615 6.220331524903251, 107.81971009426638 6.569457124644276, 107.69345209126881 6.881316833080694 C107.51637405979005 7.249023154309255, 107.33929602831128 7.6167294755378165, 107.220625708341 7.863150934094196 C107.03533091290697 8.192160606519947, 106.85003611747295 8.521170278945698, 106.68586447109088 8.812673661278923 C106.56377415990505 9.000237165099358, 106.44168384871924 9.187800668919792, 106.09136582814826 9.725983222076879 C105.8924875647713 9.992461976819484, 105.69360930139433 10.25894073156209, 105.43957270195651 10.599326631598467 C105.20657847434197 10.873014909101634, 104.97358424672743 11.146703186604803, 104.73316345028037 11.42911513444238 C104.49782967690209 11.67211657671758, 104.2624959035238 11.915118018992779, 103.97504086025927 12.211938951661365 C103.65279307218582 12.504595866580424, 103.33054528411238 12.797252781499482, 103.16832022023242 12.944581292275275 C102.87593601771792 13.177749913110196, 102.5835518152034 13.410918533945116, 102.31631651835067 13.62403157175526 C101.97541758747067 13.861827908660283, 101.63451865659066 14.099624245565305, 101.42253082057934 14.247497783161286 C101.17471971865946 14.397722329444798, 100.92690861673958 14.547946875728309, 100.49063588406695 14.81241797009762 C100.26204087489263 14.931675839961768, 100.03344586571832 15.050933709825918, 99.52446106499849 15.316470754341124 C99.2020561274919 15.459189856372621, 98.87965118998531 15.60190895840412, 98.52797658294936 15.757584874882367 C98.19990537575337 15.878318111787488, 97.87183416855737 15.999051348692607, 97.50527720640156 16.133947699181363 C97.13451257369734 16.243988695984708, 96.76374794099311 16.35402969278805, 96.46056542646164 16.444012671663497 C96.22511643490317 16.49775236753846, 95.98966744334469 16.551492063413423, 95.39813418792333 16.68650566884811 C95.02826068003932 16.746303949190903, 94.65838717215532 16.806102229533696, 94.32234924863661 16.86043023499518 C94.03383191013181 16.888263155647874, 93.74531457162702 16.916096076300565, 93.23763123967211 16.965071676755716 C93.01324607664343 16.972267272194824, 92.78886091361476 16.979462867633927, 92.1484375 17 C92.1484375 17, 92.1484375 17, 92.1484375 17 C35.810275800186886 17, -20.527885899626227 17, -92.1484375 17 C-92.58275326603149 16.986072338727723, -93.01706903206298 16.97214467745545, -93.23763123967211 16.965071676755716 C-93.61652024905602 16.92852070970115, -93.99540925843995 16.891969742646587, -94.3223492486366 16.86043023499518 C-94.70733247919517 16.798189131868014, -95.09231570975376 16.735948028740847, -95.39813418792333 16.68650566884811 C-95.79260802914821 16.596469588770912, -96.1870818703731 16.506433508693714, -96.46056542646161 16.4440126716635 C-96.71551633665351 16.368344579783184, -96.9704672468454 16.292676487902867, -97.50527720640154 16.13394769918137 C-97.74519298316585 16.045656475574976, -97.98510875993016 15.957365251968584, -98.52797658294936 15.757584874882369 C-98.80860241089542 15.63336014532007, -99.08922823884147 15.509135415757772, -99.52446106499849 15.316470754341127 C-99.86146968486382 15.140653573221705, -100.19847830472915 14.964836392102281, -100.49063588406693 14.812417970097624 C-100.73213675235077 14.666018724527328, -100.9736376206346 14.519619478957033, -101.42253082057931 14.247497783161299 C-101.66398843171173 14.079067406166846, -101.90544604284415 13.910637029172394, -102.31631651835067 13.624031571755264 C-102.5584281493325 13.43095398890834, -102.80053978031432 13.237876406061417, -103.1683202202324 12.94458129227529 C-103.4293454812824 12.707525056539628, -103.6903707423324 12.470468820803967, -103.97504086025926 12.211938951661377 C-104.22998219358854 11.948691093926158, -104.48492352691783 11.68544323619094, -104.73316345028036 11.429115134442386 C-104.92310988584671 11.205993242967772, -105.11305632141308 10.982871351493158, -105.43957270195651 10.599326631598473 C-105.65528616139443 10.310290247852087, -105.87099962083235 10.021253864105704, -106.09136582814824 9.72598322207689 C-106.27721975524517 9.44046168128869, -106.46307368234211 9.154940140500491, -106.68586447109088 8.812673661278936 C-106.84516089639624 8.529826727637094, -107.00445732170158 8.246979793995251, -107.220625708341 7.863150934094201 C-107.39268590215252 7.505864260146185, -107.56474609596405 7.1485775861981695, -107.69345209126881 6.881316833080701 C-107.85290723691728 6.487459540473484, -108.01236238256574 6.093602247866266, -108.10240067484592 5.87120592516224 C-108.22537473775422 5.500827640938546, -108.34834880066254 5.130449356714852, -108.44579100162323 4.8369689727275516 C-108.55097045146817 4.435874145406885, -108.65614990131311 4.034779318086217, -108.722212007091 3.782855877257349 C-108.77430510072124 3.515368851345342, -108.82639819435147 3.2478818254333346, -108.93052781804565 2.713198215567455 C-108.96218677333752 2.4676576100914844, -108.99384572862941 2.222117004615513, -109.06988242013637 1.6323914404306026 C-109.08573513226101 1.385472653010531, -109.10158784438563 1.1385538655904595, -109.1397031754117 0.54487681871814 C-109.1397031754117 0.226991270695595, -109.1397031754117 -0.09089427732694999, -109.1397031754117 -0.5448768187181317 C-109.11963112076381 -0.8575152717297869, -109.09955906611593 -1.170153724741442, -109.06988242013637 -1.6323914404305793 C-109.04156732253838 -1.8519977459520613, -109.0132522249404 -2.0716040514735434, -108.93052781804565 -2.713198215567447 C-108.86932381764926 -3.0274678221328655, -108.80811981725286 -3.341737428698284, -108.722212007091 -3.782855877257341 C-108.65689307427435 -4.031945277491786, -108.5915741414577 -4.281034677726231, -108.44579100162323 -4.836968972727544 C-108.34257979638306 -5.14782467843859, -108.23936859114289 -5.458680384149636, -108.10240067484594 -5.871205925162218 C-107.95406519565017 -6.2375974266471506, -107.8057297164544 -6.6039889281320825, -107.69345209126881 -6.881316833080692 C-107.55770273101781 -7.163203284212901, -107.42195337076681 -7.44508973534511, -107.220625708341 -7.863150934094194 C-107.0652556884218 -8.139026137381268, -106.90988566850261 -8.414901340668342, -106.68586447109088 -8.812673661278929 C-106.45878266813828 -9.161532290616215, -106.2317008651857 -9.510390919953501, -106.09136582814826 -9.725983222076884 C-105.92259778773764 -9.952117021142326, -105.75382974732703 -10.178250820207767, -105.43957270195651 -10.599326631598467 C-105.26184955187448 -10.80809035641854, -105.08412640179245 -11.016854081238613, -104.73316345028037 -11.42911513444238 C-104.53639750080828 -11.632292132057206, -104.33963155133618 -11.835469129672031, -103.97504086025927 -12.21193895166136 C-103.78527597704289 -12.384278397694814, -103.59551109382649 -12.556617843728269, -103.16832022023242 -12.944581292275274 C-102.88706261373528 -13.168876748877501, -102.60580500723813 -13.39317220547973, -102.31631651835067 -13.624031571755259 C-102.10204006431893 -13.773501550209613, -101.88776361028718 -13.922971528663966, -101.42253082057934 -14.247497783161284 C-101.11358922218974 -14.434779995647407, -100.80464762380016 -14.62206220813353, -100.49063588406695 -14.812417970097618 C-100.22581225485233 -14.950576287831256, -99.9609886256377 -15.088734605564895, -99.52446106499849 -15.316470754341124 C-99.29029898275712 -15.420127361978007, -99.05613690051574 -15.52378396961489, -98.52797658294936 -15.757584874882365 C-98.3005328431996 -15.841286273577161, -98.07308910344985 -15.924987672271955, -97.50527720640156 -16.133947699181363 C-97.11227283688945 -16.250589333130527, -96.71926846737733 -16.36723096707969, -96.46056542646164 -16.444012671663494 C-96.18704648217332 -16.50644158581939, -95.91352753788499 -16.56887049997528, -95.39813418792333 -16.68650566884811 C-95.13817973770816 -16.72853308838203, -94.87822528749298 -16.77056050791595, -94.32234924863661 -16.86043023499518 C-94.0711834062156 -16.884659901742417, -93.82001756379458 -16.908889568489652, -93.23763123967213 -16.965071676755716 C-92.86782944722135 -16.97693050046409, -92.49802765477057 -16.988789324172465, -92.1484375 -17 C-92.1484375 -17, -92.1484375 -17, -92.1484375 -17" stroke="none" stroke-width="0" fill="#B43A3A" style="fill:#B43A3A !important;stroke:#b85450 !important;stroke-width:2px !important"></path><path d="M-92.1484375 -17 C-25.815739145165992 -17, 40.516959209668016 -17, 92.1484375 -17 M-92.1484375 -17 C-30.098139416696974 -17, 31.952158666606053 -17, 92.1484375 -17 M92.1484375 -17 C92.1484375 -17, 92.1484375 -17, 92.1484375 -17 M92.1484375 -17 C92.1484375 -17, 92.1484375 -17, 92.1484375 -17 M92.1484375 -17 C92.46404326318141 -16.989879137464122, 92.77964902636282 -16.979758274928248, 93.23763123967211 -16.965071676755716 M92.1484375 -17 C92.49574922450947 -16.988862388996242, 92.84306094901895 -16.977724777992485, 93.23763123967211 -16.965071676755716 M93.23763123967211 -16.965071676755716 C93.51693493837686 -16.938127584853515, 93.7962386370816 -16.91118349295131, 94.3223492486366 -16.860430234995185 M93.23763123967211 -16.965071676755716 C93.59106052370001 -16.930976778786448, 93.9444898077279 -16.89688188081718, 94.3223492486366 -16.860430234995185 M94.3223492486366 -16.860430234995185 C94.57621243316521 -16.819387604059, 94.83007561769384 -16.77834497312281, 95.39813418792333 -16.686505668848113 M94.3223492486366 -16.860430234995185 C94.5420710883774 -16.82490731191421, 94.7617929281182 -16.789384388833234, 95.39813418792333 -16.686505668848113 M95.39813418792333 -16.686505668848113 C95.79826398741895 -16.5951786532042, 96.19839378691456 -16.503851637560285, 96.46056542646163 -16.4440126716635 M95.39813418792333 -16.686505668848113 C95.7635402573506 -16.603104117998786, 96.12894632677785 -16.51970256714946, 96.46056542646163 -16.4440126716635 M96.46056542646163 -16.4440126716635 C96.74499413721072 -16.35959572330994, 97.02942284795981 -16.275178774956377, 97.50527720640156 -16.133947699181366 M96.46056542646163 -16.4440126716635 C96.84585171472968 -16.329661723714544, 97.23113800299771 -16.215310775765584, 97.50527720640156 -16.133947699181366 M97.50527720640156 -16.133947699181366 C97.7781854751684 -16.03351493353879, 98.05109374393523 -15.93308216789621, 98.52797658294936 -15.757584874882369 M97.50527720640156 -16.133947699181366 C97.84313527405921 -16.009612807157612, 98.18099334171686 -15.885277915133855, 98.52797658294936 -15.757584874882369 M98.52797658294936 -15.757584874882369 C98.76891466741354 -15.650928732064411, 99.00985275187773 -15.544272589246454, 99.52446106499849 -15.316470754341125 M98.52797658294936 -15.757584874882369 C98.7936397352987 -15.639983677954733, 99.05930288764804 -15.522382481027096, 99.52446106499849 -15.316470754341125 M99.52446106499849 -15.316470754341125 C99.84902635681269 -15.14714524949565, 100.17359164862688 -14.977819744650176, 100.49063588406693 -14.812417970097622 M99.52446106499849 -15.316470754341125 C99.79509045986408 -15.175283572386142, 100.06571985472968 -15.034096390431161, 100.49063588406693 -14.812417970097622 M100.49063588406693 -14.812417970097622 C100.71707970227331 -14.675146396769335, 100.94352352047967 -14.53787482344105, 101.42253082057933 -14.247497783161291 M100.49063588406693 -14.812417970097622 C100.76863909675717 -14.643890788836586, 101.04664230944739 -14.47536360757555, 101.42253082057933 -14.247497783161291 M101.42253082057933 -14.247497783161291 C101.75665001801822 -14.01443069481486, 102.09076921545712 -13.78136360646843, 102.31631651835067 -13.624031571755262 M101.42253082057933 -14.247497783161291 C101.64906185422704 -14.08947954045904, 101.87559288787476 -13.93146129775679, 102.31631651835067 -13.624031571755262 M102.31631651835067 -13.624031571755262 C102.49625386487207 -13.48053632623833, 102.67619121139349 -13.337041080721399, 103.1683202202324 -12.944581292275288 M102.31631651835067 -13.624031571755262 C102.62627173686776 -13.376850533242658, 102.93622695538484 -13.129669494730054, 103.1683202202324 -12.944581292275288 M103.1683202202324 -12.944581292275288 C103.36636484480772 -12.76472240420961, 103.56440946938304 -12.584863516143933, 103.97504086025927 -12.21193895166137 M103.1683202202324 -12.944581292275288 C103.44014400153591 -12.697718126158577, 103.71196778283944 -12.450854960041864, 103.97504086025927 -12.21193895166137 M103.97504086025927 -12.21193895166137 C104.13073379709391 -12.051173211751772, 104.28642673392854 -11.890407471842172, 104.73316345028036 -11.42911513444239 M103.97504086025927 -12.21193895166137 C104.20794671446578 -11.971444535266901, 104.44085256867228 -11.73095011887243, 104.73316345028036 -11.42911513444239 M104.73316345028036 -11.42911513444239 C104.88212038942696 -11.254141837830844, 105.03107732857356 -11.079168541219298, 105.43957270195651 -10.59932663159847 M104.73316345028036 -11.42911513444239 C104.9314716480212 -11.196171041319886, 105.12977984576203 -10.963226948197384, 105.43957270195651 -10.59932663159847 M105.43957270195651 -10.59932663159847 C105.69796921237466 -10.253098848044516, 105.95636572279281 -9.906871064490561, 106.09136582814824 -9.725983222076888 M105.43957270195651 -10.59932663159847 C105.6351172028275 -10.337314814901834, 105.83066170369851 -10.0753029982052, 106.09136582814824 -9.725983222076888 M106.09136582814824 -9.725983222076888 C106.2550707488568 -9.474488502942235, 106.41877566956535 -9.222993783807581, 106.68586447109088 -8.812673661278927 M106.09136582814824 -9.725983222076888 C106.23083690209967 -9.5117181992602, 106.3703079760511 -9.297453176443511, 106.68586447109088 -8.812673661278927 M106.68586447109088 -8.812673661278927 C106.80093280758396 -8.608358177902906, 106.91600114407704 -8.404042694526884, 107.220625708341 -7.863150934094199 M106.68586447109088 -8.812673661278927 C106.83687105800581 -8.54454617513643, 106.98787764492074 -8.276418688993935, 107.220625708341 -7.863150934094199 M107.220625708341 -7.863150934094199 C107.381495952026 -7.529100431010496, 107.542366195711 -7.195049927926793, 107.69345209126881 -6.881316833080699 M107.220625708341 -7.863150934094199 C107.35827952726393 -7.577309833780845, 107.49593334618686 -7.291468733467491, 107.69345209126881 -6.881316833080699 M107.69345209126881 -6.881316833080699 C107.77758633087356 -6.673503634632113, 107.8617205704783 -6.465690436183528, 108.10240067484592 -5.871205925162238 M107.69345209126881 -6.881316833080699 C107.84287011225139 -6.512251432452828, 107.99228813323396 -6.143186031824957, 108.10240067484592 -5.871205925162238 M108.10240067484592 -5.871205925162238 C108.23109922788186 -5.48358638874776, 108.35979778091779 -5.095966852333283, 108.44579100162323 -4.836968972727556 M108.10240067484592 -5.871205925162238 C108.22076460940896 -5.514712612990269, 108.33912854397201 -5.158219300818299, 108.44579100162323 -4.836968972727556 M108.44579100162323 -4.836968972727556 C108.53479069393525 -4.49757457323119, 108.62379038624726 -4.158180173734824, 108.722212007091 -3.7828558772573464 M108.44579100162323 -4.836968972727556 C108.5476093482921 -4.448691488528566, 108.64942769496098 -4.060414004329576, 108.722212007091 -3.7828558772573464 M108.722212007091 -3.7828558772573464 C108.77820263361193 -3.4953558436955263, 108.83419326013284 -3.2078558101337062, 108.93052781804565 -2.713198215567453 M108.722212007091 -3.7828558772573464 C108.78066162732203 -3.4827294307026317, 108.83911124755305 -3.1826029841479166, 108.93052781804565 -2.713198215567453 M108.93052781804565 -2.713198215567453 C108.97247555021602 -2.3878598883707056, 109.01442328238639 -2.062521561173958, 109.06988242013637 -1.632391440430593 M108.93052781804565 -2.713198215567453 C108.97025802851073 -2.405058548817703, 109.00998823897582 -2.0969188820679534, 109.06988242013637 -1.632391440430593 M109.06988242013637 -1.632391440430593 C109.09453061384579 -1.248475927742558, 109.1191788075552 -0.8645604150545229, 109.1397031754117 -0.5448768187181379 M109.06988242013637 -1.632391440430593 C109.09470719808917 -1.2457254856155593, 109.11953197604198 -0.8590595308005257, 109.1397031754117 -0.5448768187181379 M109.1397031754117 -0.5448768187181379 C109.1397031754117 -0.20742877080335315, 109.1397031754117 0.13001927711143157, 109.1397031754117 0.5448768187181336 M109.1397031754117 -0.5448768187181379 C109.1397031754117 -0.26801750655775897, 109.1397031754117 0.008841805602619934, 109.1397031754117 0.5448768187181336 M109.1397031754117 0.5448768187181336 C109.1145540852395 0.9365941981301789, 109.08940499506731 1.328311577542224, 109.06988242013637 1.6323914404305815 M109.1397031754117 0.5448768187181336 C109.12078442927228 0.8395515607766801, 109.10186568313284 1.1342263028352266, 109.06988242013637 1.6323914404305815 M109.06988242013637 1.6323914404305815 C109.0299882376979 1.941802841425875, 108.99009405525945 2.2512142424211685, 108.93052781804565 2.7131982155674415 M109.06988242013637 1.6323914404305815 C109.04144053661736 1.8529810725188536, 109.01299865309835 2.0735707046071257, 108.93052781804565 2.7131982155674415 M108.93052781804565 2.7131982155674415 C108.87531527953901 2.9967029316248737, 108.82010274103237 3.280207647682306, 108.722212007091 3.782855877257343 M108.93052781804565 2.7131982155674415 C108.88638881539066 2.9398426654193197, 108.84224981273566 3.166487115271198, 108.722212007091 3.782855877257343 M108.722212007091 3.782855877257343 C108.65649631769463 4.033458282285655, 108.59078062829826 4.284060687313967, 108.44579100162323 4.836968972727545 M108.722212007091 3.782855877257343 C108.62039041461244 4.171145739135401, 108.5185688221339 4.55943560101346, 108.44579100162323 4.836968972727545 M108.44579100162323 4.836968972727545 C108.32934330928961 5.1876908686162535, 108.21289561695598 5.538412764504961, 108.10240067484592 5.871205925162227 M108.44579100162323 4.836968972727545 C108.31931088036134 5.217906946097695, 108.19283075909946 5.598844919467844, 108.10240067484592 5.871205925162227 M108.10240067484592 5.871205925162227 C108.00673995684134 6.107489748107691, 107.91107923883678 6.343773571053155, 107.69345209126881 6.881316833080694 M108.10240067484592 5.871205925162227 C107.93908286951164 6.2746040618728856, 107.77576506417735 6.678002198583545, 107.69345209126881 6.881316833080694 M107.69345209126881 6.881316833080694 C107.50436743931184 7.273955158632779, 107.31528278735487 7.666593484184863, 107.220625708341 7.863150934094196 M107.69345209126881 6.881316833080694 C107.56099176146938 7.156373542106235, 107.42853143166995 7.4314302511317765, 107.220625708341 7.863150934094196 M107.220625708341 7.863150934094196 C107.06206205362209 8.144696759358757, 106.90349839890317 8.426242584623317, 106.68586447109088 8.812673661278923 M107.220625708341 7.863150934094196 C107.03313646952532 8.196057062955562, 106.84564723070964 8.528963191816928, 106.68586447109088 8.812673661278923 M106.68586447109088 8.812673661278923 C106.51656867611563 9.072757464647193, 106.34727288114037 9.332841268015464, 106.09136582814826 9.725983222076879 M106.68586447109088 8.812673661278923 C106.54909383960512 9.022790079298028, 106.41232320811935 9.232906497317133, 106.09136582814826 9.725983222076879 M106.09136582814826 9.725983222076879 C105.95403183610927 9.909998260025064, 105.81669784407028 10.09401329797325, 105.43957270195651 10.599326631598467 M106.09136582814826 9.725983222076879 C105.91420229873547 9.96336621156044, 105.73703876932271 10.200749201044, 105.43957270195651 10.599326631598467 M105.43957270195651 10.599326631598467 C105.2125237977154 10.866031193968716, 104.98547489347429 11.132735756338963, 104.73316345028037 11.42911513444238 M105.43957270195651 10.599326631598467 C105.23742318448855 10.836782957449733, 105.03527366702059 11.074239283300997, 104.73316345028037 11.42911513444238 M104.73316345028037 11.42911513444238 C104.48358640838835 11.686823920852111, 104.23400936649631 11.944532707261844, 103.97504086025927 12.211938951661365 M104.73316345028037 11.42911513444238 C104.4621444190008 11.708964535314827, 104.19112538772121 11.988813936187274, 103.97504086025927 12.211938951661365 M103.97504086025927 12.211938951661365 C103.65751349133755 12.500308906802262, 103.33998612241585 12.78867886194316, 103.16832022023242 12.944581292275275 M103.97504086025927 12.211938951661365 C103.76454893746211 12.403102146634664, 103.55405701466493 12.594265341607962, 103.16832022023242 12.944581292275275 M103.16832022023242 12.944581292275275 C102.872607309065 13.180404469680228, 102.5768943978976 13.416227647085181, 102.31631651835067 13.62403157175526 M103.16832022023242 12.944581292275275 C102.84341887009458 13.203681473022161, 102.51851751995675 13.462781653769046, 102.31631651835067 13.62403157175526 M102.31631651835067 13.62403157175526 C102.11556381873156 13.764067964565252, 101.91481111911246 13.904104357375244, 101.42253082057934 14.247497783161286 M102.31631651835067 13.62403157175526 C102.07766391837387 13.790505294394533, 101.83901131839707 13.956979017033806, 101.42253082057934 14.247497783161286 M101.42253082057934 14.247497783161286 C101.07027301909413 14.461038532518234, 100.71801521760894 14.674579281875184, 100.49063588406695 14.81241797009762 M101.42253082057934 14.247497783161286 C101.12644929420723 14.42698414441624, 100.83036776783513 14.606470505671194, 100.49063588406695 14.81241797009762 M100.49063588406695 14.81241797009762 C100.18601913986785 14.971336330429953, 99.88140239566874 15.130254690762284, 99.52446106499849 15.316470754341124 M100.49063588406695 14.81241797009762 C100.1529083251467 14.988610221261485, 99.81518076622646 15.164802472425352, 99.52446106499849 15.316470754341124 M99.52446106499849 15.316470754341124 C99.25642635636221 15.435121768887273, 98.98839164772593 15.55377278343342, 98.52797658294936 15.757584874882367 M99.52446106499849 15.316470754341124 C99.20331096850231 15.458634375480854, 98.88216087200611 15.600797996620583, 98.52797658294936 15.757584874882367 M98.52797658294936 15.757584874882367 C98.15524101315845 15.894755010095263, 97.78250544336751 16.03192514530816, 97.50527720640156 16.133947699181363 M98.52797658294936 15.757584874882367 C98.25683085503711 15.857369009197711, 97.98568512712485 15.957153143513054, 97.50527720640156 16.133947699181363 M97.50527720640156 16.133947699181363 C97.18329878980371 16.22950920312841, 96.86132037320586 16.325070707075454, 96.46056542646164 16.444012671663497 M97.50527720640156 16.133947699181363 C97.22756536824957 16.21637111500569, 96.94985353009758 16.298794530830012, 96.46056542646164 16.444012671663497 M96.46056542646164 16.444012671663497 C96.16873943300367 16.510620050327702, 95.8769134395457 16.577227428991904, 95.39813418792333 16.68650566884811 M96.46056542646164 16.444012671663497 C96.13167513135201 16.51907973531252, 95.80278483624238 16.594146798961546, 95.39813418792333 16.68650566884811 M95.39813418792333 16.68650566884811 C95.09950716178422 16.734785370547108, 94.8008801356451 16.783065072246103, 94.32234924863661 16.86043023499518 M95.39813418792333 16.68650566884811 C95.05567438151904 16.741871914532094, 94.71321457511475 16.797238160216075, 94.32234924863661 16.86043023499518 M94.32234924863661 16.86043023499518 C94.02369185584473 16.889241354489748, 93.72503446305285 16.918052473984314, 93.23763123967211 16.965071676755716 M94.32234924863661 16.86043023499518 C93.90845291056335 16.900358316945933, 93.49455657249008 16.94028639889669, 93.23763123967211 16.965071676755716 M93.23763123967211 16.965071676755716 C92.80269016452397 16.979019390474274, 92.3677490893758 16.99296710419283, 92.1484375 17 M93.23763123967211 16.965071676755716 C92.88479608771658 16.97638641332697, 92.53196093576106 16.987701149898225, 92.1484375 17 M92.1484375 17 C92.1484375 17, 92.1484375 17, 92.1484375 17 M92.1484375 17 C92.1484375 17, 92.1484375 17, 92.1484375 17 M92.1484375 17 C39.49712500312734 17, -13.154187493745326 17, -92.1484375 17 M92.1484375 17 C47.33637605723735 17, 2.5243146144747044 17, -92.1484375 17 M-92.1484375 17 C-92.393448854267 16.992142962754325, -92.63846020853403 16.984285925508654, -93.23763123967211 16.965071676755716 M-92.1484375 17 C-92.4529850681536 16.990233752255193, -92.75753263630719 16.98046750451039, -93.23763123967211 16.965071676755716 M-93.23763123967211 16.965071676755716 C-93.57868371172532 16.932170754952352, -93.91973618377853 16.899269833148985, -94.3223492486366 16.86043023499518 M-93.23763123967211 16.965071676755716 C-93.58922574567903 16.93115377761549, -93.94082025168595 16.89723587847526, -94.3223492486366 16.86043023499518 M-94.3223492486366 16.86043023499518 C-94.54480949093633 16.82446458822511, -94.76726973323605 16.788498941455032, -95.39813418792333 16.68650566884811 M-94.3223492486366 16.86043023499518 C-94.57457238508232 16.819652754314276, -94.82679552152803 16.778875273633368, -95.39813418792333 16.68650566884811 M-95.39813418792333 16.68650566884811 C-95.6113771729895 16.637834349047278, -95.82462015805568 16.58916302924645, -96.46056542646161 16.4440126716635 M-95.39813418792333 16.68650566884811 C-95.7710180070634 16.601397370423708, -96.14390182620349 16.51628907199931, -96.46056542646161 16.4440126716635 M-96.46056542646161 16.4440126716635 C-96.82960686891539 16.334483108681283, -97.19864831136917 16.224953545699066, -97.50527720640154 16.13394769918137 M-96.46056542646161 16.4440126716635 C-96.72677888253654 16.36500191528341, -96.99299233861146 16.28599115890332, -97.50527720640154 16.13394769918137 M-97.50527720640154 16.13394769918137 C-97.75033820889637 16.0437629849442, -97.9953992113912 15.953578270707027, -98.52797658294936 15.757584874882369 M-97.50527720640154 16.13394769918137 C-97.83932697065265 16.011014298014793, -98.17337673490375 15.888080896848214, -98.52797658294936 15.757584874882369 M-98.52797658294936 15.757584874882369 C-98.85606587686323 15.612349476889813, -99.18415517077709 15.467114078897255, -99.52446106499849 15.316470754341127 M-98.52797658294936 15.757584874882369 C-98.92129484363579 15.58347454824815, -99.31461310432222 15.40936422161393, -99.52446106499849 15.316470754341127 M-99.52446106499849 15.316470754341127 C-99.85931916959824 15.141775495658292, -100.19417727419798 14.967080236975457, -100.49063588406693 14.812417970097624 M-99.52446106499849 15.316470754341127 C-99.79783476714263 15.173851869036739, -100.07120846928679 15.031232983732348, -100.49063588406693 14.812417970097624 M-100.49063588406693 14.812417970097624 C-100.7701416671248 14.642979921849639, -101.04964745018268 14.473541873601656, -101.42253082057931 14.247497783161299 M-100.49063588406693 14.812417970097624 C-100.77427986590625 14.640471321429574, -101.05792384774556 14.468524672761523, -101.42253082057931 14.247497783161299 M-101.42253082057931 14.247497783161299 C-101.69912352694392 14.054558684706633, -101.97571623330852 13.861619586251967, -102.31631651835067 13.624031571755264 M-101.42253082057931 14.247497783161299 C-101.65187090228791 14.087520070133511, -101.8812109839965 13.927542357105722, -102.31631651835067 13.624031571755264 M-102.31631651835067 13.624031571755264 C-102.59219673870948 13.404024437500109, -102.86807695906828 13.184017303244953, -103.1683202202324 12.94458129227529 M-102.31631651835067 13.624031571755264 C-102.60657599741602 13.39255736132978, -102.89683547648137 13.161083150904297, -103.1683202202324 12.94458129227529 M-103.1683202202324 12.94458129227529 C-103.33180833898788 12.796105708480145, -103.49529645774336 12.647630124685, -103.97504086025926 12.211938951661377 M-103.1683202202324 12.94458129227529 C-103.3557006681884 12.774407327256625, -103.54308111614439 12.60423336223796, -103.97504086025926 12.211938951661377 M-103.97504086025926 12.211938951661377 C-104.2704660322895 11.90688820668245, -104.56589120431974 11.60183746170352, -104.73316345028036 11.429115134442386 M-103.97504086025926 12.211938951661377 C-104.1807701147077 11.999506605757444, -104.38649936915614 11.787074259853512, -104.73316345028036 11.429115134442386 M-104.73316345028036 11.429115134442386 C-104.97674706715699 11.142987957758642, -105.22033068403364 10.8568607810749, -105.43957270195651 10.599326631598473 M-104.73316345028036 11.429115134442386 C-104.94844625685458 11.17623169990158, -105.16372906342882 10.923348265360776, -105.43957270195651 10.599326631598473 M-105.43957270195651 10.599326631598473 C-105.67961652098899 10.277689782536745, -105.91966034002145 9.956052933475018, -106.09136582814824 9.72598322207689 M-105.43957270195651 10.599326631598473 C-105.61360855306334 10.366134446107518, -105.78764440417017 10.132942260616565, -106.09136582814824 9.72598322207689 M-106.09136582814824 9.72598322207689 C-106.22984086716868 9.513248376387022, -106.36831590618912 9.300513530697154, -106.68586447109088 8.812673661278936 M-106.09136582814824 9.72598322207689 C-106.30112505135746 9.403736726989408, -106.51088427456668 9.081490231901924, -106.68586447109088 8.812673661278936 M-106.68586447109088 8.812673661278936 C-106.84583243345702 8.528634345585171, -107.00580039582314 8.244595029891407, -107.220625708341 7.863150934094201 M-106.68586447109088 8.812673661278936 C-106.84856883801184 8.52377558220706, -107.0112732049328 8.234877503135184, -107.220625708341 7.863150934094201 M-107.220625708341 7.863150934094201 C-107.34104820945706 7.61309103389796, -107.46147071057311 7.363031133701719, -107.69345209126881 6.881316833080701 M-107.220625708341 7.863150934094201 C-107.39536738405529 7.500296105600576, -107.57010905976958 7.13744127710695, -107.69345209126881 6.881316833080701 M-107.69345209126881 6.881316833080701 C-107.81071016201835 6.591687131298766, -107.9279682327679 6.302057429516831, -108.10240067484592 5.87120592516224 M-107.69345209126881 6.881316833080701 C-107.83408266120945 6.533956606420232, -107.97471323115008 6.186596379759763, -108.10240067484592 5.87120592516224 M-108.10240067484592 5.87120592516224 C-108.22703223265415 5.495835530385916, -108.35166379046238 5.120465135609592, -108.44579100162323 4.8369689727275516 M-108.10240067484592 5.87120592516224 C-108.18307709265883 5.628221408751339, -108.26375351047173 5.385236892340438, -108.44579100162323 4.8369689727275516 M-108.44579100162323 4.8369689727275516 C-108.54461819560326 4.4600980501048735, -108.6434453895833 4.083227127482196, -108.722212007091 3.782855877257349 M-108.44579100162323 4.8369689727275516 C-108.51442019907039 4.575256098779248, -108.58304939651754 4.313543224830945, -108.722212007091 3.782855877257349 M-108.722212007091 3.782855877257349 C-108.78243268585534 3.4736354194474233, -108.84265336461968 3.1644149616374975, -108.93052781804565 2.713198215567455 M-108.722212007091 3.782855877257349 C-108.77204331939461 3.526982620429899, -108.82187463169822 3.2711093636024486, -108.93052781804565 2.713198215567455 M-108.93052781804565 2.713198215567455 C-108.96367133923157 2.4561436101779974, -108.99681486041749 2.199089004788539, -109.06988242013637 1.6323914404306026 M-108.93052781804565 2.713198215567455 C-108.98423153243273 2.296682811779147, -109.03793524681981 1.8801674079908388, -109.06988242013637 1.6323914404306026 M-109.06988242013637 1.6323914404306026 C-109.09460156120664 1.247370865329613, -109.11932070227691 0.8623502902286235, -109.1397031754117 0.54487681871814 M-109.06988242013637 1.6323914404306026 C-109.09476441612514 1.2448342685196803, -109.11964641211394 0.8572770966087577, -109.1397031754117 0.54487681871814 M-109.1397031754117 0.54487681871814 C-109.1397031754117 0.28719859501952716, -109.1397031754117 0.02952037132091434, -109.1397031754117 -0.5448768187181317 M-109.1397031754117 0.54487681871814 C-109.1397031754117 0.31024940693043235, -109.1397031754117 0.07562199514272466, -109.1397031754117 -0.5448768187181317 M-109.1397031754117 -0.5448768187181317 C-109.11936220058567 -0.8617039205729117, -109.09902122575963 -1.1785310224276917, -109.06988242013637 -1.6323914404305793 M-109.1397031754117 -0.5448768187181317 C-109.121081863122 -0.8349187884828903, -109.1024605508323 -1.1249607582476489, -109.06988242013637 -1.6323914404305793 M-109.06988242013637 -1.6323914404305793 C-109.03904636562761 -1.8715497899327187, -109.00821031111887 -2.110708139434858, -108.93052781804565 -2.713198215567447 M-109.06988242013637 -1.6323914404305793 C-109.02834646837434 -1.954536080095437, -108.98681051661232 -2.2766807197602947, -108.93052781804565 -2.713198215567447 M-108.93052781804565 -2.713198215567447 C-108.87338943527752 -3.0065917348803, -108.8162510525094 -3.2999852541931527, -108.722212007091 -3.782855877257341 M-108.93052781804565 -2.713198215567447 C-108.85363160555715 -3.1080440146755977, -108.77673539306866 -3.5028898137837485, -108.722212007091 -3.782855877257341 M-108.722212007091 -3.782855877257341 C-108.6618876369935 -4.012898845186497, -108.60156326689601 -4.242941813115651, -108.44579100162323 -4.836968972727544 M-108.722212007091 -3.782855877257341 C-108.62924987288228 -4.137360785039004, -108.53628773867356 -4.491865692820666, -108.44579100162323 -4.836968972727544 M-108.44579100162323 -4.836968972727544 C-108.31017660330792 -5.245417933233218, -108.17456220499261 -5.653866893738892, -108.10240067484594 -5.871205925162218 M-108.44579100162323 -4.836968972727544 C-108.37134915234383 -5.061175962059177, -108.2969073030644 -5.28538295139081, -108.10240067484594 -5.871205925162218 M-108.10240067484594 -5.871205925162218 C-107.99173643846949 -6.144548728559518, -107.88107220209302 -6.417891531956819, -107.69345209126881 -6.881316833080692 M-108.10240067484594 -5.871205925162218 C-107.97080605585585 -6.196247178276609, -107.83921143686575 -6.521288431391, -107.69345209126881 -6.881316833080692 M-107.69345209126881 -6.881316833080692 C-107.58145131465808 -7.113888842145593, -107.46945053804735 -7.346460851210493, -107.220625708341 -7.863150934094194 M-107.69345209126881 -6.881316833080692 C-107.53373006104341 -7.212983046347696, -107.37400803081802 -7.544649259614698, -107.220625708341 -7.863150934094194 M-107.220625708341 -7.863150934094194 C-107.0360927174285 -8.190807945450898, -106.85155972651602 -8.5184649568076, -106.68586447109088 -8.812673661278929 M-107.220625708341 -7.863150934094194 C-107.05826365481761 -8.151441201065703, -106.8959016012942 -8.43973146803721, -106.68586447109088 -8.812673661278929 M-106.68586447109088 -8.812673661278929 C-106.45544827237669 -9.166654817916664, -106.22503207366249 -9.520635974554398, -106.09136582814826 -9.725983222076884 M-106.68586447109088 -8.812673661278929 C-106.46633645917079 -9.149927639113383, -106.2468084472507 -9.487181616947836, -106.09136582814826 -9.725983222076884 M-106.09136582814826 -9.725983222076884 C-105.90571772634185 -9.974734765607455, -105.72006962453545 -10.223486309138025, -105.43957270195651 -10.599326631598467 M-106.09136582814826 -9.725983222076884 C-105.8842451393133 -10.003506076032812, -105.67712445047832 -10.28102892998874, -105.43957270195651 -10.599326631598467 M-105.43957270195651 -10.599326631598467 C-105.16957283936296 -10.916483833628256, -104.89957297676942 -11.233641035658044, -104.73316345028037 -11.42911513444238 M-105.43957270195651 -10.599326631598467 C-105.16451299794755 -10.92242741126793, -104.8894532939386 -11.245528190937394, -104.73316345028037 -11.42911513444238 M-104.73316345028037 -11.42911513444238 C-104.53894625793122 -11.629660331070921, -104.34472906558206 -11.83020552769946, -103.97504086025927 -12.21193895166136 M-104.73316345028037 -11.42911513444238 C-104.44001115499088 -11.731818947579827, -104.14685885970138 -12.034522760717275, -103.97504086025927 -12.21193895166136 M-103.97504086025927 -12.21193895166136 C-103.70595811186531 -12.456312784213376, -103.43687536347134 -12.700686616765392, -103.16832022023242 -12.944581292275274 M-103.97504086025927 -12.21193895166136 C-103.77035695719154 -12.397827456788166, -103.56567305412382 -12.58371596191497, -103.16832022023242 -12.944581292275274 M-103.16832022023242 -12.944581292275274 C-102.95171159780921 -13.117320904460257, -102.735102975386 -13.29006051664524, -102.31631651835067 -13.624031571755259 M-103.16832022023242 -12.944581292275274 C-102.8778143105944 -13.176252024524665, -102.58730840095639 -13.407922756774056, -102.31631651835067 -13.624031571755259 M-102.31631651835067 -13.624031571755259 C-101.97261268693677 -13.863784485850537, -101.62890885552287 -14.103537399945818, -101.42253082057934 -14.247497783161284 M-102.31631651835067 -13.624031571755259 C-102.10998689273934 -13.767958186716184, -101.90365726712803 -13.911884801677111, -101.42253082057934 -14.247497783161284 M-101.42253082057934 -14.247497783161284 C-101.18099032095792 -14.393921053481325, -100.9394498213365 -14.540344323801364, -100.49063588406695 -14.812417970097618 M-101.42253082057934 -14.247497783161284 C-101.17807582416741 -14.395687838563218, -100.93362082775546 -14.54387789396515, -100.49063588406695 -14.812417970097618 M-100.49063588406695 -14.812417970097618 C-100.11190289185983 -15.010002729542016, -99.7331698996527 -15.207587488986412, -99.52446106499849 -15.316470754341124 M-100.49063588406695 -14.812417970097618 C-100.23520526670124 -14.945675959566184, -99.97977464933555 -15.07893394903475, -99.52446106499849 -15.316470754341124 M-99.52446106499849 -15.316470754341124 C-99.1343870343881 -15.48914495655735, -98.74431300377769 -15.661819158773579, -98.52797658294936 -15.757584874882365 M-99.52446106499849 -15.316470754341124 C-99.22503302420182 -15.449018665784566, -98.92560498340514 -15.581566577228008, -98.52797658294936 -15.757584874882365 M-98.52797658294936 -15.757584874882365 C-98.17120403684278 -15.88888046981885, -97.81443149073621 -16.020176064755336, -97.50527720640156 -16.133947699181363 M-98.52797658294936 -15.757584874882365 C-98.17448112691785 -15.887674470378137, -97.82098567088634 -16.01776406587391, -97.50527720640156 -16.133947699181363 M-97.50527720640156 -16.133947699181363 C-97.1551355742208 -16.23786789768168, -96.80499394204001 -16.341788096182004, -96.46056542646164 -16.444012671663494 M-97.50527720640156 -16.133947699181363 C-97.23510039849032 -16.214134757582414, -96.96492359057908 -16.294321815983466, -96.46056542646164 -16.444012671663494 M-96.46056542646164 -16.444012671663494 C-96.04259077150239 -16.53941265911842, -95.62461611654312 -16.634812646573344, -95.39813418792333 -16.68650566884811 M-96.46056542646164 -16.444012671663494 C-96.09066886406335 -16.528439148230255, -95.72077230166505 -16.612865624797013, -95.39813418792333 -16.68650566884811 M-95.39813418792333 -16.68650566884811 C-95.12356386658767 -16.730896069077016, -94.848993545252 -16.77528646930592, -94.32234924863661 -16.86043023499518 M-95.39813418792333 -16.68650566884811 C-95.07633012250386 -16.73853245451733, -94.75452605708439 -16.79055924018655, -94.32234924863661 -16.86043023499518 M-94.32234924863661 -16.86043023499518 C-93.99007340275229 -16.89248448622747, -93.65779755686798 -16.92453873745976, -93.23763123967213 -16.965071676755716 M-94.32234924863661 -16.86043023499518 C-94.00332027812922 -16.89120657609156, -93.68429130762183 -16.921982917187933, -93.23763123967213 -16.965071676755716 M-93.23763123967213 -16.965071676755716 C-92.90199768920755 -16.97583479144804, -92.56636413874297 -16.986597906140368, -92.1484375 -17 M-93.23763123967213 -16.965071676755716 C-92.90505504878078 -16.975736747877317, -92.57247885788944 -16.986401818998917, -92.1484375 -17 M-92.1484375 -17 C-92.1484375 -17, -92.1484375 -17, -92.1484375 -17 M-92.1484375 -17 C-92.1484375 -17, -92.1484375 -17, -92.1484375 -17" stroke="#b85450" stroke-width="2" fill="none" stroke-dasharray="0 0" style="fill:#B43A3A !important;stroke:#b85450 !important;stroke-width:2px !important"></path></g><g class="label" style="color:#ffffff !important" transform="translate(0, -9.5)"><rect></rect><g><rect class="background" style="stroke: none"></rect><text y="-10.1" style="fill:#ffffff !important"><tspan class="text-outer-tspan row" x="0" y="-0.1em" dy="1.1em"><tspan font-style="normal" class="text-inner-tspan" font-weight="normal">Choosing</tspan><tspan font-style="normal" class="text-inner-tspan" font-weight="normal"> an</tspan><tspan font-style="normal" class="text-inner-tspan" font-weight="normal"> eviction</tspan><tspan font-style="normal" class="text-inner-tspan" font-weight="normal"> policy</tspan></tspan></text></g></g></g><g class="node default question" id="gc34cd44a-d1f8-40a7-a2f7-3412ba116d16-light-flowchart-Q1-1" data-look="classic" transform="translate(513.4703140258789, 117.79999923706055)"><polygon points="12.899999618530273,0 164.47812461853027,0 177.37812423706055,-25.799999237060547 164.47812461853027,-51.599998474121094 12.899999618530273,-51.599998474121094 0,-25.799999237060547" class="label-container" transform="translate(-88.68906211853027,25.799999237060547)" style="fill:#5A4D8B !important;stroke:#9673a6 !important;stroke-width:2px !important"></polygon><g class="label" style="color:#ffffff !important" transform="translate(0, -18.299999237060547)"><rect></rect><g><rect class="background" style="stroke: none"></rect><text y="-10.1" style="fill:#ffffff !important"><tspan class="text-outer-tspan row" x="0" y="-0.1em" dy="1.1em"><tspan font-style="normal" class="text-inner-tspan" font-weight="normal">Frequent</tspan><tspan font-style="normal" class="text-inner-tspan" font-weight="normal"> full</tspan><tspan font-style="normal" class="text-inner-tspan" font-weight="normal"> scans</tspan></tspan><tspan class="text-outer-tspan row" x="0" y="1em" dy="1.1em"><tspan font-style="normal" class="text-inner-tspan" font-weight="normal">or</tspan><tspan font-style="normal" class="text-inner-tspan" font-weight="normal"> batch</tspan><tspan font-style="normal" class="text-inner-tspan" font-weight="normal"> jobs?</tspan></tspan></text></g></g></g><g class="node default question" id="gc34cd44a-d1f8-40a7-a2f7-3412ba116d16-light-flowchart-Q2-2" data-look="classic" transform="translate(780.3648452758789, 242.39999771118164)"><polygon points="12.899999618530273,0 159.30624961853027,0 172.20624923706055,-25.799999237060547 159.30624961853027,-51.599998474121094 12.899999618530273,-51.599998474121094 0,-25.799999237060547" class="label-container" transform="translate(-86.10312461853027,25.799999237060547)" style="fill:#5A4D8B !important;stroke:#9673a6 !important;stroke-width:2px !important"></polygon><g class="label" style="color:#ffffff !important" transform="translate(0, -18.299999237060547)"><rect></rect><g><rect class="background" style="stroke: none"></rect><text y="-10.1" style="fill:#ffffff !important"><tspan class="text-outer-tspan row" x="0" y="-0.1em" dy="1.1em"><tspan font-style="normal" class="text-inner-tspan" font-weight="normal">Workload</tspan><tspan font-style="normal" class="text-inner-tspan" font-weight="normal"> patterns</tspan></tspan><tspan class="text-outer-tspan row" x="0" y="1em" dy="1.1em"><tspan font-style="normal" class="text-inner-tspan" font-weight="normal">change</tspan><tspan font-style="normal" class="text-inner-tspan" font-weight="normal"> over</tspan><tspan font-style="normal" class="text-inner-tspan" font-weight="normal"> time?</tspan></tspan></text></g></g></g><g class="node default question" id="gc34cd44a-d1f8-40a7-a2f7-3412ba116d16-light-flowchart-Q3-3" data-look="classic" transform="translate(847.8812522888184, 374.49999618530273)"><polygon points="12.899999618530273,0 160.07187461853027,0 172.97187423706055,-25.799999237060547 160.07187461853027,-51.599998474121094 12.899999618530273,-51.599998474121094 0,-25.799999237060547" class="label-container" transform="translate(-86.48593711853027,25.799999237060547)" style="fill:#5A4D8B !important;stroke:#9673a6 !important;stroke-width:2px !important"></polygon><g class="label" style="color:#ffffff !important" transform="translate(0, -18.299999237060547)"><rect></rect><g><rect class="background" style="stroke: none"></rect><text y="-10.1" style="fill:#ffffff !important"><tspan class="text-outer-tspan row" x="0" y="-0.1em" dy="1.1em"><tspan font-style="normal" class="text-inner-tspan" font-weight="normal">Skewed</tspan><tspan font-style="normal" class="text-inner-tspan" font-weight="normal"> popularity</tspan></tspan><tspan class="text-outer-tspan row" x="0" y="1em" dy="1.1em"><tspan font-style="normal" class="text-inner-tspan" font-weight="normal">(Zipf-like)?</tspan></tspan></text></g></g></g><g class="node default question" id="gc34cd44a-d1f8-40a7-a2f7-3412ba116d16-light-flowchart-Q4-4" data-look="classic" transform="translate(214.88750076293945, 242.39999771118164)"><polygon points="12.899999618530273,0 223.10312461853027,0 236.00312423706055,-25.799999237060547 223.10312461853027,-51.599998474121094 12.899999618530273,-51.599998474121094 0,-25.799999237060547" class="label-container" transform="translate(-118.00156211853027,25.799999237060547)" style="fill:#5A4D8B !important;stroke:#9673a6 !important;stroke-width:2px !important"></polygon><g class="label" style="color:#ffffff !important" transform="translate(0, -18.299999237060547)"><rect></rect><g><rect class="background" style="stroke: none"></rect><text y="-10.1" style="fill:#ffffff !important"><tspan class="text-outer-tspan row" x="0" y="-0.1em" dy="1.1em"><tspan font-style="normal" class="text-inner-tspan" font-weight="normal">Need</tspan><tspan font-style="normal" class="text-inner-tspan" font-weight="normal"> maximum</tspan><tspan font-style="normal" class="text-inner-tspan" font-weight="normal"> throughput</tspan></tspan><tspan class="text-outer-tspan row" x="0" y="1em" dy="1.1em"><tspan font-style="normal" class="text-inner-tspan" font-weight="normal">and</tspan><tspan font-style="normal" class="text-inner-tspan" font-weight="normal"> minimal</tspan><tspan font-style="normal" class="text-inner-tspan" font-weight="normal"> overhead?</tspan></tspan></text></g></g></g><g class="node default question" id="gc34cd44a-d1f8-40a7-a2f7-3412ba116d16-light-flowchart-Q5-5" data-look="classic" transform="translate(332.2750015258789, 374.49999618530273)"><polygon points="12.899999618530273,0 177.64999961853027,0 190.54999923706055,-25.799999237060547 177.64999961853027,-51.599998474121094 12.899999618530273,-51.599998474121094 0,-25.799999237060547" class="label-container" transform="translate(-95.27499961853027,25.799999237060547)" style="fill:#5A4D8B !important;stroke:#9673a6 !important;stroke-width:2px !important"></polygon><g class="label" style="color:#ffffff !important" transform="translate(0, -18.299999237060547)"><rect></rect><g><rect class="background" style="stroke: none"></rect><text y="-10.1" style="fill:#ffffff !important"><tspan class="text-outer-tspan row" x="0" y="-0.1em" dy="1.1em"><tspan font-style="normal" class="text-inner-tspan" font-weight="normal">Memory</tspan><tspan font-style="normal" class="text-inner-tspan" font-weight="normal"> or</tspan><tspan font-style="normal" class="text-inner-tspan" font-weight="normal"> simplicity</tspan></tspan><tspan class="text-outer-tspan row" x="0" y="1em" dy="1.1em"><tspan font-style="normal" class="text-inner-tspan" font-weight="normal">matters</tspan><tspan font-style="normal" class="text-inner-tspan" font-weight="normal"> most?</tspan></tspan></text></g></g></g><g class="node default pick" id="gc34cd44a-d1f8-40a7-a2f7-3412ba116d16-light-flowchart-ARC-13" data-look="classic" transform="translate(513.7132835388184, 514.0999946594238)"><rect class="basic label-container" style="fill:#2E5A88 !important;stroke:#6c8ebf !important;stroke-width:2px !important" x="-74.3125" y="-33.29999923706055" width="148.625" height="66.5999984741211"></rect><g class="label" style="color:#ffffff !important" transform="translate(0, -18.299999237060547)"><rect></rect><g><rect class="background" style="stroke: none"></rect><text y="-10.1" style="fill:#ffffff !important"><tspan class="text-outer-tspan row" x="0" y="-0.1em" dy="1.1em"><tspan font-style="normal" class="text-inner-tspan" font-weight="normal">Pick</tspan><tspan font-style="normal" class="text-inner-tspan" font-weight="normal"> ARC</tspan></tspan><tspan class="text-outer-tspan row" x="0" y="1em" dy="1.1em"><tspan font-style="normal" class="text-inner-tspan" font-weight="normal">(self-tuning)</tspan></tspan></text></g></g></g><g class="node default pick" id="gc34cd44a-d1f8-40a7-a2f7-3412ba116d16-light-flowchart-WTLFU-17" data-look="classic" transform="translate(728.7054710388184, 514.0999946594238)"><rect class="basic label-container" style="fill:#2E5A88 !important;stroke:#6c8ebf !important;stroke-width:2px !important" x="-90.6796875" y="-33.29999923706055" width="181.359375" height="66.5999984741211"></rect><g class="label" style="color:#ffffff !important" transform="translate(0, -18.299999237060547)"><rect></rect><g><rect class="background" style="stroke: none"></rect><text y="-10.1" style="fill:#ffffff !important"><tspan class="text-outer-tspan row" x="0" y="-0.1em" dy="1.1em"><tspan font-style="normal" class="text-inner-tspan" font-weight="normal">Pick</tspan><tspan font-style="normal" class="text-inner-tspan" font-weight="normal"> W-TinyLFU</tspan></tspan><tspan class="text-outer-tspan row" x="0" y="1em" dy="1.1em"><tspan font-style="normal" class="text-inner-tspan" font-weight="normal">(Caffeine,</tspan><tspan font-style="normal" class="text-inner-tspan" font-weight="normal"> moka)</tspan></tspan></text></g></g></g><g class="node default pick" id="gc34cd44a-d1f8-40a7-a2f7-3412ba116d16-light-flowchart-LRU-19" data-look="classic" transform="translate(967.0570335388184, 514.0999946594238)"><rect class="basic label-container" style="fill:#2E5A88 !important;stroke:#6c8ebf !important;stroke-width:2px !important" x="-97.671875" y="-33.29999923706055" width="195.34375" height="66.5999984741211"></rect><g class="label" style="color:#ffffff !important" transform="translate(0, -18.299999237060547)"><rect></rect><g><rect class="background" style="stroke: none"></rect><text y="-10.1" style="fill:#ffffff !important"><tspan class="text-outer-tspan row" x="0" y="-0.1em" dy="1.1em"><tspan font-style="normal" class="text-inner-tspan" font-weight="normal">Pick</tspan><tspan font-style="normal" class="text-inner-tspan" font-weight="normal"> LRU</tspan></tspan><tspan class="text-outer-tspan row" x="0" y="1em" dy="1.1em"><tspan font-style="normal" class="text-inner-tspan" font-weight="normal">(simplest</tspan><tspan font-style="normal" class="text-inner-tspan" font-weight="normal"> baseline)</tspan></tspan></text></g></g></g><g class="node default pick" id="gc34cd44a-d1f8-40a7-a2f7-3412ba116d16-light-flowchart-SIEVE-21" data-look="classic" transform="translate(97.5, 374.49999618530273)"><rect class="basic label-container" style="fill:#2E5A88 !important;stroke:#6c8ebf !important;stroke-width:2px !important" x="-89.5" y="-33.29999923706055" width="179" height="66.5999984741211"></rect><g class="label" style="color:#ffffff !important" transform="translate(0, -18.299999237060547)"><rect></rect><g><rect class="background" style="stroke: none"></rect><text y="-10.1" style="fill:#ffffff !important"><tspan class="text-outer-tspan row" x="0" y="-0.1em" dy="1.1em"><tspan font-style="normal" class="text-inner-tspan" font-weight="normal">Pick</tspan><tspan font-style="normal" class="text-inner-tspan" font-weight="normal"> SIEVE</tspan></tspan><tspan class="text-outer-tspan row" x="0" y="1em" dy="1.1em"><tspan font-style="normal" class="text-inner-tspan" font-weight="normal">(lazy</tspan><tspan font-style="normal" class="text-inner-tspan" font-weight="normal"> promotion)</tspan></tspan></text></g></g></g><g class="node default pick" id="gc34cd44a-d1f8-40a7-a2f7-3412ba116d16-light-flowchart-TWOQ-25" data-look="classic" transform="translate(294.65859603881836, 514.0999946594238)"><rect class="basic label-container" style="fill:#2E5A88 !important;stroke:#6c8ebf !important;stroke-width:2px !important" x="-94.7421875" y="-33.29999923706055" width="189.484375" height="66.5999984741211"></rect><g class="label" style="color:#ffffff !important" transform="translate(0, -18.299999237060547)"><rect></rect><g><rect class="background" style="stroke: none"></rect><text y="-10.1" style="fill:#ffffff !important"><tspan class="text-outer-tspan row" x="0" y="-0.1em" dy="1.1em"><tspan font-style="normal" class="text-inner-tspan" font-weight="normal">Pick</tspan><tspan font-style="normal" class="text-inner-tspan" font-weight="normal"> 2Q</tspan></tspan><tspan class="text-outer-tspan row" x="0" y="1em" dy="1.1em"><tspan font-style="normal" class="text-inner-tspan" font-weight="normal">(O(1),</tspan><tspan font-style="normal" class="text-inner-tspan" font-weight="normal"> no</tspan><tspan font-style="normal" class="text-inner-tspan" font-weight="normal"> patents)</tspan></tspan></text></g></g></g></g></g></g><defs><filter id="gc34cd44a-d1f8-40a7-a2f7-3412ba116d16-light-drop-shadow" height="130%" width="130%"><feDropShadow dx="4" dy="4" stdDeviation="0" flood-opacity="0.06" flood-color="#000000"></feDropShadow></filter></defs><defs><filter id="gc34cd44a-d1f8-40a7-a2f7-3412ba116d16-light-drop-shadow-small" height="150%" width="150%"><feDropShadow dx="2" dy="2" stdDeviation="0" flood-opacity="0.06" flood-color="#000000"></feDropShadow></filter></defs></svg>