<svg id="g2529a416-43a6-4f37-8012-6a48cebe273e-dark" width="100%" xmlns="http://www.w3.org/2000/svg" xmlns:xlink="http://www.w3.org/1999/xlink" class="flowchart" style="max-width: 1072.7288818359375px;" viewBox="0 0 1072.7288818359375 555.3999633789062" role="graphics-document document" aria-roledescription="flowchart-v2"><style>#g2529a416-43a6-4f37-8012-6a48cebe273e-dark{font-family:"trebuchet ms",verdana,arial,sans-serif;font-size:16px;fill:#e5e5e5;}@keyframes edge-animation-frame{from{stroke-dashoffset:0;}}@keyframes dash{to{stroke-dashoffset:0;}}#g2529a416-43a6-4f37-8012-6a48cebe273e-dark .edge-animation-slow{stroke-dasharray:9,5!important;stroke-dashoffset:900;animation:dash 50s linear infinite;stroke-linecap:round;}#g2529a416-43a6-4f37-8012-6a48cebe273e-dark .edge-animation-fast{stroke-dasharray:9,5!important;stroke-dashoffset:900;animation:dash 20s linear infinite;stroke-linecap:round;}#g2529a416-43a6-4f37-8012-6a48cebe273e-dark .error-icon{fill:#252525;}#g2529a416-43a6-4f37-8012-6a48cebe273e-dark .error-text{fill:#cccccc;stroke:#cccccc;}#g2529a416-43a6-4f37-8012-6a48cebe273e-dark .edge-thickness-normal{stroke-width:1px;}#g2529a416-43a6-4f37-8012-6a48cebe273e-dark .edge-thickness-thick{stroke-width:3.5px;}#g2529a416-43a6-4f37-8012-6a48cebe273e-dark .edge-pattern-solid{stroke-dasharray:0;}#g2529a416-43a6-4f37-8012-6a48cebe273e-dark .edge-thickness-invisible{stroke-width:0;fill:none;}#g2529a416-43a6-4f37-8012-6a48cebe273e-dark .edge-pattern-dashed{stroke-dasharray:3;}#g2529a416-43a6-4f37-8012-6a48cebe273e-dark .edge-pattern-dotted{stroke-dasharray:2;}#g2529a416-43a6-4f37-8012-6a48cebe273e-dark .marker{fill:#cccccc;stroke:#cccccc;}#g2529a416-43a6-4f37-8012-6a48cebe273e-dark .marker.cross{stroke:#cccccc;}#g2529a416-43a6-4f37-8012-6a48cebe273e-dark svg{font-family:"trebuchet ms",verdana,arial,sans-serif;font-size:16px;}#g2529a416-43a6-4f37-8012-6a48cebe273e-dark p{margin:0;}#g2529a416-43a6-4f37-8012-6a48cebe273e-dark .label{font-family:"trebuchet ms",verdana,arial,sans-serif;color:#e5e5e5;}#g2529a416-43a6-4f37-8012-6a48cebe273e-dark .cluster-label text{fill:#e5e5e5;}#g2529a416-43a6-4f37-8012-6a48cebe273e-dark .cluster-label span{color:#e5e5e5;}#g2529a416-43a6-4f37-8012-6a48cebe273e-dark .cluster-label span p{background-color:transparent;}#g2529a416-43a6-4f37-8012-6a48cebe273e-dark .label text,#g2529a416-43a6-4f37-8012-6a48cebe273e-dark span{fill:#e5e5e5;color:#e5e5e5;}#g2529a416-43a6-4f37-8012-6a48cebe273e-dark .node rect,#g2529a416-43a6-4f37-8012-6a48cebe273e-dark .node circle,#g2529a416-43a6-4f37-8012-6a48cebe273e-dark .node ellipse,#g2529a416-43a6-4f37-8012-6a48cebe273e-dark .node polygon,#g2529a416-43a6-4f37-8012-6a48cebe273e-dark .node path{fill:#2d2d2d;stroke:#555555;stroke-width:1px;}#g2529a416-43a6-4f37-8012-6a48cebe273e-dark .rough-node .label text,#g2529a416-43a6-4f37-8012-6a48cebe273e-dark .node .label text,#g2529a416-43a6-4f37-8012-6a48cebe273e-dark .image-shape .label,#g2529a416-43a6-4f37-8012-6a48cebe273e-dark .icon-shape .label{text-anchor:middle;}#g2529a416-43a6-4f37-8012-6a48cebe273e-dark .node .katex path{fill:#000;stroke:#000;stroke-width:1px;}#g2529a416-43a6-4f37-8012-6a48cebe273e-dark .rough-node .label,#g2529a416-43a6-4f37-8012-6a48cebe273e-dark .node .label,#g2529a416-43a6-4f37-8012-6a48cebe273e-dark .image-shape .label,#g2529a416-43a6-4f37-8012-6a48cebe273e-dark .icon-shape .label{text-align:center;}#g2529a416-43a6-4f37-8012-6a48cebe273e-dark .node.clickable{cursor:pointer;}#g2529a416-43a6-4f37-8012-6a48cebe273e-dark .root .anchor path{fill:#cccccc!important;stroke-width:0;stroke:#cccccc;}#g2529a416-43a6-4f37-8012-6a48cebe273e-dark .arrowheadPath{fill:#cccccc;}#g2529a416-43a6-4f37-8012-6a48cebe273e-dark .edgePath .path{stroke:#cccccc;stroke-width:1px;}#g2529a416-43a6-4f37-8012-6a48cebe273e-dark .flowchart-link{stroke:#cccccc;fill:none;}#g2529a416-43a6-4f37-8012-6a48cebe273e-dark .edgeLabel{background-color:#1e1e1e;text-align:center;}#g2529a416-43a6-4f37-8012-6a48cebe273e-dark .edgeLabel p{background-color:#1e1e1e;}#g2529a416-43a6-4f37-8012-6a48cebe273e-dark .edgeLabel rect{opacity:0.5;background-color:#1e1e1e;fill:#1e1e1e;}#g2529a416-43a6-4f37-8012-6a48cebe273e-dark .labelBkg{background-color:rgba(30, 30, 30, 0.5);}#g2529a416-43a6-4f37-8012-6a48cebe273e-dark .cluster rect{fill:#1e1e1e;stroke:#555555;stroke-width:1px;}#g2529a416-43a6-4f37-8012-6a48cebe273e-dark .cluster text{fill:#e5e5e5;}#g2529a416-43a6-4f37-8012-6a48cebe273e-dark .cluster span{color:#e5e5e5;}#g2529a416-43a6-4f37-8012-6a48cebe273e-dark div.mermaidTooltip{position:absolute;text-align:center;max-width:200px;padding:2px;font-family:"trebuchet ms",verdana,arial,sans-serif;font-size:12px;background:#252525;border:1px solid #555555;border-radius:2px;pointer-events:none;z-index:100;}#g2529a416-43a6-4f37-8012-6a48cebe273e-dark .flowchartTitleText{text-anchor:middle;font-size:18px;fill:#e5e5e5;}#g2529a416-43a6-4f37-8012-6a48cebe273e-dark rect.text{fill:none;stroke-width:0;}#g2529a416-43a6-4f37-8012-6a48cebe273e-dark .icon-shape,#g2529a416-43a6-4f37-8012-6a48cebe273e-dark .image-shape{background-color:#1e1e1e;text-align:center;}#g2529a416-43a6-4f37-8012-6a48cebe273e-dark .icon-shape p,#g2529a416-43a6-4f37-8012-6a48cebe273e-dark .image-shape p{background-color:#1e1e1e;padding:2px;}#g2529a416-43a6-4f37-8012-6a48cebe273e-dark .icon-shape .label rect,#g2529a416-43a6-4f37-8012-6a48cebe273e-dark .image-shape .label rect{opacity:0.5;background-color:#1e1e1e;fill:#1e1e1e;}#g2529a416-43a6-4f37-8012-6a48cebe273e-dark .label-icon{display:inline-block;height:1em;overflow:visible;vertical-align:-0.125em;}#g2529a416-43a6-4f37-8012-6a48cebe273e-dark .node .label-icon path{fill:currentColor;stroke:revert;stroke-width:revert;}#g2529a416-43a6-4f37-8012-6a48cebe273e-dark .node .neo-node{stroke:#555555;}#g2529a416-43a6-4f37-8012-6a48cebe273e-dark [data-look="neo"].node rect,#g2529a416-43a6-4f37-8012-6a48cebe273e-dark [data-look="neo"].cluster rect,#g2529a416-43a6-4f37-8012-6a48cebe273e-dark [data-look="neo"].node polygon{stroke:url(#g2529a416-43a6-4f37-8012-6a48cebe273e-dark-gradient);filter:drop-shadow( 1px 2px 2px rgba(185,185,185,1));}#g2529a416-43a6-4f37-8012-6a48cebe273e-dark [data-look="neo"].node path{stroke:url(#g2529a416-43a6-4f37-8012-6a48cebe273e-dark-gradient);stroke-width:1px;}#g2529a416-43a6-4f37-8012-6a48cebe273e-dark [data-look="neo"].node .outer-path{filter:drop-shadow( 1px 2px 2px rgba(185,185,185,1));}#g2529a416-43a6-4f37-8012-6a48cebe273e-dark [data-look="neo"].node .neo-line path{stroke:#555555;filter:none;}#g2529a416-43a6-4f37-8012-6a48cebe273e-dark [data-look="neo"].node circle{stroke:url(#g2529a416-43a6-4f37-8012-6a48cebe273e-dark-gradient);filter:drop-shadow( 1px 2px 2px rgba(185,185,185,1));}#g2529a416-43a6-4f37-8012-6a48cebe273e-dark [data-look="neo"].node circle .state-start{fill:#000000;}#g2529a416-43a6-4f37-8012-6a48cebe273e-dark [data-look="neo"].icon-shape .icon{fill:url(#g2529a416-43a6-4f37-8012-6a48cebe273e-dark-gradient);filter:drop-shadow( 1px 2px 2px rgba(185,185,185,1));}#g2529a416-43a6-4f37-8012-6a48cebe273e-dark [data-look="neo"].icon-shape .icon-neo path{stroke:url(#g2529a416-43a6-4f37-8012-6a48cebe273e-dark-gradient);filter:drop-shadow( 1px 2px 2px rgba(185,185,185,1));}#g2529a416-43a6-4f37-8012-6a48cebe273e-dark :root{--mermaid-font-family:"trebuchet ms",verdana,arial,sans-serif;}#g2529a416-43a6-4f37-8012-6a48cebe273e-dark .question rect{fill:#5A4D8B!important;stroke:#9673a6!important;stroke-width:2px!important;color:#ffffff!important;}#g2529a416-43a6-4f37-8012-6a48cebe273e-dark .question polygon{fill:#5A4D8B!important;stroke:#9673a6!important;stroke-width:2px!important;color:#ffffff!important;}#g2529a416-43a6-4f37-8012-6a48cebe273e-dark .question ellipse{fill:#5A4D8B!important;stroke:#9673a6!important;stroke-width:2px!important;color:#ffffff!important;}#g2529a416-43a6-4f37-8012-6a48cebe273e-dark .question circle{fill:#5A4D8B!important;stroke:#9673a6!important;stroke-width:2px!important;color:#ffffff!important;}#g2529a416-43a6-4f37-8012-6a48cebe273e-dark .question path{fill:#5A4D8B!important;stroke:#9673a6!important;stroke-width:2px!important;color:#ffffff!important;}#g2529a416-43a6-4f37-8012-6a48cebe273e-dark .question tspan{fill:#ffffff!important;}#g2529a416-43a6-4f37-8012-6a48cebe273e-dark .pick rect{fill:#2E5A88!important;stroke:#6c8ebf!important;stroke-width:2px!important;color:#ffffff!important;}#g2529a416-43a6-4f37-8012-6a48cebe273e-dark .pick polygon{fill:#2E5A88!important;stroke:#6c8ebf!important;stroke-width:2px!important;color:#ffffff!important;}#g2529a416-43a6-4f37-8012-6a48cebe273e-dark .pick ellipse{fill:#2E5A88!important;stroke:#6c8ebf!important;stroke-width:2px!important;color:#ffffff!important;}#g2529a416-43a6-4f37-8012-6a48cebe273e-dark .pick circle{fill:#2E5A88!important;stroke:#6c8ebf!important;stroke-width:2px!important;color:#ffffff!important;}#g2529a416-43a6-4f37-8012-6a48cebe273e-dark .pick path{fill:#2E5A88!important;stroke:#6c8ebf!important;stroke-width:2px!important;color:#ffffff!important;}#g2529a416-43a6-4f37-8012-6a48cebe273e-dark .pick tspan{fill:#ffffff!important;}#g2529a416-43a6-4f37-8012-6a48cebe273e-dark .root rect{fill:#B43A3A!important;stroke:#b85450!important;stroke-width:2px!important;color:#ffffff!important;}#g2529a416-43a6-4f37-8012-6a48cebe273e-dark .root polygon{fill:#B43A3A!important;stroke:#b85450!important;stroke-width:2px!important;color:#ffffff!important;}#g2529a416-43a6-4f37-8012-6a48cebe273e-dark .root ellipse{fill:#B43A3A!important;stroke:#b85450!important;stroke-width:2px!important;color:#ffffff!important;}#g2529a416-43a6-4f37-8012-6a48cebe273e-dark .root circle{fill:#B43A3A!important;stroke:#b85450!important;stroke-width:2px!important;color:#ffffff!important;}#g2529a416-43a6-4f37-8012-6a48cebe273e-dark .root path{fill:#B43A3A!important;stroke:#b85450!important;stroke-width:2px!important;color:#ffffff!important;}#g2529a416-43a6-4f37-8012-6a48cebe273e-dark .root tspan{fill:#ffffff!important;}</style><g><marker id="g2529a416-43a6-4f37-8012-6a48cebe273e-dark_flowchart-v2-pointEnd" class="marker flowchart-v2" viewBox="0 0 10 10" refX="5" refY="5" markerUnits="userSpaceOnUse" markerWidth="8" markerHeight="8" orient="auto"><path d="M 0 0 L 10 5 L 0 10 z" class="arrowMarkerPath" style="stroke-width: 1; stroke-dasharray: 1, 0;"></path></marker><marker id="g2529a416-43a6-4f37-8012-6a48cebe273e-dark_flowchart-v2-pointStart" class="marker flowchart-v2" viewBox="0 0 10 10" refX="4.5" refY="5" markerUnits="userSpaceOnUse" markerWidth="8" markerHeight="8" orient="auto"><path d="M 0 5 L 10 10 L 10 0 z" class="arrowMarkerPath" style="stroke-width: 1; stroke-dasharray: 1, 0;"></path></marker><marker id="g2529a416-43a6-4f37-8012-6a48cebe273e-dark_flowchart-v2-pointEnd-margin" class="marker flowchart-v2" viewBox="0 0 11.5 14" refX="11.5" refY="7" markerUnits="userSpaceOnUse" markerWidth="10.5" markerHeight="14" orient="auto"><path d="M 0 0 L 11.5 7 L 0 14 z" class="arrowMarkerPath" style="stroke-width: 0; stroke-dasharray: 1, 0;"></path></marker><marker id="g2529a416-43a6-4f37-8012-6a48cebe273e-dark_flowchart-v2-pointStart-margin" class="marker flowchart-v2" viewBox="0 0 11.5 14" refX="1" refY="7" markerUnits="userSpaceOnUse" markerWidth="11.5" markerHeight="14" orient="auto"><polygon points="0,7 11.5,14 11.5,0" class="arrowMarkerPath" style="stroke-width: 0; stroke-dasharray: 1, 0;"></polygon></marker><marker id="g2529a416-43a6-4f37-8012-6a48cebe273e-dark_flowchart-v2-circleEnd" class="marker flowchart-v2" viewBox="0 0 10 10" refX="11" refY="5" markerUnits="userSpaceOnUse" markerWidth="11" markerHeight="11" orient="auto"><circle cx="5" cy="5" r="5" class="arrowMarkerPath" style="stroke-width: 1; stroke-dasharray: 1, 0;"></circle></marker><marker id="g2529a416-43a6-4f37-8012-6a48cebe273e-dark_flowchart-v2-circleStart" class="marker flowchart-v2" viewBox="0 0 10 10" refX="-1" refY="5" markerUnits="userSpaceOnUse" markerWidth="11" markerHeight="11" orient="auto"><circle cx="5" cy="5" r="5" class="arrowMarkerPath" style="stroke-width: 1; stroke-dasharray: 1, 0;"></circle></marker><marker id="g2529a416-43a6-4f37-8012-6a48cebe273e-dark_flowchart-v2-circleEnd-margin" class="marker flowchart-v2" viewBox="0 0 10 10" refY="5" refX="12.25" markerUnits="userSpaceOnUse" markerWidth="14" markerHeight="14" orient="auto"><circle cx="5" cy="5" r="5" class="arrowMarkerPath" style="stroke-width: 0; stroke-dasharray: 1, 0;"></circle></marker><marker id="g2529a416-43a6-4f37-8012-6a48cebe273e-dark_flowchart-v2-circleStart-margin" class="marker flowchart-v2" viewBox="0 0 10 10" refX="-2" refY="5" markerUnits="userSpaceOnUse" markerWidth="14" markerHeight="14" orient="auto"><circle cx="5" cy="5" r="5" class="arrowMarkerPath" style="stroke-width: 0; stroke-dasharray: 1, 0;"></circle></marker><marker id="g2529a416-43a6-4f37-8012-6a48cebe273e-dark_flowchart-v2-crossEnd" class="marker cross flowchart-v2" viewBox="0 0 11 11" refX="12" refY="5.2" markerUnits="userSpaceOnUse" markerWidth="11" markerHeight="11" orient="auto"><path d="M 1,1 l 9,9 M 10,1 l -9,9" class="arrowMarkerPath" style="stroke-width: 2; stroke-dasharray: 1, 0;"></path></marker><marker id="g2529a416-43a6-4f37-8012-6a48cebe273e-dark_flowchart-v2-crossStart" class="marker cross flowchart-v2" viewBox="0 0 11 11" refX="-1" refY="5.2" markerUnits="userSpaceOnUse" markerWidth="11" markerHeight="11" orient="auto"><path d="M 1,1 l 9,9 M 10,1 l -9,9" class="arrowMarkerPath" style="stroke-width: 2; stroke-dasharray: 1, 0;"></path></marker><marker id="g2529a416-43a6-4f37-8012-6a48cebe273e-dark_flowchart-v2-crossEnd-margin" class="marker cross flowchart-v2" viewBox="0 0 15 15" refX="17.7" refY="7.5" markerUnits="userSpaceOnUse" markerWidth="12" markerHeight="12" orient="auto"><path d="M 1,1 L 14,14 M 1,14 L 14,1" class="arrowMarkerPath" style="stroke-width: 2.5;"></path></marker><marker id="g2529a416-43a6-4f37-8012-6a48cebe273e-dark_flowchart-v2-crossStart-margin" class="marker cross flowchart-v2" viewBox="0 0 15 15" refX="-3.5" refY="7.5" markerUnits="userSpaceOnUse" markerWidth="12" markerHeight="12" orient="auto"><path d="M 1,1 L 14,14 M 1,14 L 14,1" class="arrowMarkerPath" style="stroke-width: 2.5; stroke-dasharray: 1, 0;"></path></marker><g class="root"><g class="clusters"></g><g class="edgePaths"><path d="M513.97,42.5L513.887,46.583C513.804,50.667,513.637,58.833,513.624,66.5C513.611,74.167,513.751,81.334,513.822,84.917L513.892,88.501" id="g2529a416-43a6-4f37-8012-6a48cebe273e-dark-L_Start_Q1_0" class="edge-thickness-normal edge-pattern-solid edge-thickness-normal edge-pattern-solid flowchart-link" style=";" data-edge="true" data-et="edge" data-id="L_Start_Q1_0" data-points="W3sieCI6NTEzLjk3MDMxNDAyNTg3ODksInkiOjQyLjV9LHsieCI6NTEzLjQ3MDMxNDAyNTg3ODksInkiOjY3fSx7IngiOjUxMy45NzAzMTQwMjU4Nzg5LCJ5Ijo5Mi41fV0=" data-look="classic" marker-end="url(#g2529a416-43a6-4f37-8012-6a48cebe273e-dark_flowchart-v2-pointEnd)"></path><path d="M433.66,135.057L397.198,142.564C360.736,150.071,287.812,165.086,251.424,178.093C215.036,191.1,215.185,202.1,215.259,207.6L215.333,213.1" id="g2529a416-43a6-4f37-8012-6a48cebe273e-dark-L_Q1_Q4_0" class="edge-thickness-normal edge-pattern-solid edge-thickness-normal edge-pattern-solid flowchart-link" style=";" data-edge="true" data-et="edge" data-id="L_Q1_Q4_0" data-points="W3sieCI6NDMzLjY1OTc0Mzc0NTk4NjUzLCJ5IjoxMzUuMDU2OTg2NzI5MDMzNTh9LHsieCI6MjE0Ljg4NzUwMDc2MjkzOTQ1LCJ5IjoxODAuMDk5OTk4NDc0MTIxMX0seyJ4IjoyMTUuMzg3NTAwNzYyOTM5NDUsInkiOjIxNy4wOTk5OTg0NzQxMjExfV0=" data-look="classic" marker-end="url(#g2529a416-43a6-4f37-8012-6a48cebe273e-dark_flowchart-v2-pointEnd)"></path><path d="M593.39,136.839L624.553,144.049C655.715,151.259,718.04,165.68,749.277,178.39C780.513,191.1,780.662,202.1,780.736,207.6L780.811,213.1" id="g2529a416-43a6-4f37-8012-6a48cebe273e-dark-L_Q1_Q2_0" class="edge-thickness-normal edge-pattern-solid edge-thickness-normal edge-pattern-solid flowchart-link" style=";" data-edge="true" data-et="edge" data-id="L_Q1_Q2_0" data-points="W3sieCI6NTkzLjM5MDA3NDE2NDAyOTksInkiOjEzNi44Mzg1OTkzODMxMjIzM30seyJ4Ijo3ODAuMzY0ODQ1Mjc1ODc4OSwieSI6MTgwLjA5OTk5ODQ3NDEyMTF9LHsieCI6NzgwLjg2NDg0NTI3NTg3ODksInkiOjIxNy4wOTk5OTg0NzQxMjExfV0=" data-look="classic" marker-end="url(#g2529a416-43a6-4f37-8012-6a48cebe273e-dark_flowchart-v2-pointEnd)"></path><path d="M705.165,263.706L679.919,270.538C654.674,277.371,604.184,291.035,578.938,309.501C553.693,327.967,553.693,351.233,553.693,374.5C553.693,397.767,553.693,421.033,550.54,438.172C547.387,455.31,541.081,466.319,537.928,471.824L534.775,477.329" id="g2529a416-43a6-4f37-8012-6a48cebe273e-dark-L_Q2_ARC_0" class="edge-thickness-normal edge-pattern-solid edge-thickness-normal edge-pattern-solid flowchart-link" style=";" data-edge="true" data-et="edge" data-id="L_Q2_ARC_0" data-points="W3sieCI6NzA1LjE2NDY4NTM4MTE0MzIsInkiOjI2My43MDU5MzA5NzM0Njg0fSx7IngiOjU1My42OTI5NzAyNzU4Nzg5LCJ5IjozMDQuNjk5OTk2OTQ4MjQyMn0seyJ4Ijo1NTMuNjkyOTcwMjc1ODc4OSwieSI6Mzc0LjQ5OTk5NjE4NTMwMjczfSx7IngiOjU1My42OTI5NzAyNzU4Nzg5LCJ5Ijo0NDQuMjk5OTk1NDIyMzYzM30seyJ4Ijo1MzIuNzg2Njg2ODY4MjQzNywieSI6NDgwLjc5OTk5NTQyMjM2MzN9XQ==" data-look="classic" marker-end="url(#g2529a416-43a6-4f37-8012-6a48cebe273e-dark_flowchart-v2-pointEnd)"></path><path d="M808.825,268.7L815.334,274.7C821.844,280.7,834.863,292.7,841.448,305.45C848.033,318.2,848.185,331.7,848.26,338.45L848.336,345.2" id="g2529a416-43a6-4f37-8012-6a48cebe273e-dark-L_Q2_Q3_0" class="edge-thickness-normal edge-pattern-solid edge-thickness-normal edge-pattern-solid flowchart-link" style=";" data-edge="true" data-et="edge" data-id="L_Q2_Q3_0" data-points="W3sieCI6ODA4LjgyNTA5MDM5MjMyOTUsInkiOjI2OC42OTk5OTY5NDgyNDIyfSx7IngiOjg0Ny44ODEyNTIyODg4MTg0LCJ5IjozMDQuNjk5OTk2OTQ4MjQyMn0seyJ4Ijo4NDguMzgxMjUyMjg4ODE4MiwieSI6MzQ5LjE5OTk5Njk0ODI0MjJ9XQ==" data-look="classic" marker-end="url(#g2529a416-43a6-4f37-8012-6a48cebe273e-dark_flowchart-v2-pointEnd)"></path><path d="M804.331,400.8L791.726,408.05C779.122,415.3,753.914,429.8,741.31,442.467C728.705,455.133,728.705,465.967,728.705,471.383L728.705,476.8" id="g2529a416-43a6-4f37-8012-6a48cebe273e-dark-L_Q3_WTLFU_0" class="edge-thickness-normal edge-pattern-solid edge-thickness-normal edge-pattern-solid flowchart-link" style=";" data-edge="true" data-et="edge" data-id="L_Q3_WTLFU_0" data-points="W3sieCI6ODA0LjMzMDYwNjE3MjI4NDksInkiOjQwMC43OTk5OTU0MjIzNjMzfSx7IngiOjcyOC43MDU0NzEwMzg4MTg0LCJ5Ijo0NDQuMjk5OTk1NDIyMzYzM30seyJ4Ijo3MjguNzA1NDcxMDM4ODE4NCwieSI6NDgwLjc5OTk5NTQyMjM2MzN9XQ==" data-look="classic" marker-end="url(#g2529a416-43a6-4f37-8012-6a48cebe273e-dark_flowchart-v2-pointEnd)"></path><path d="M892.432,400.8L904.869,408.05C917.307,415.3,942.182,429.8,954.62,442.467C967.057,455.133,967.057,465.967,967.057,471.383L967.057,476.8" id="g2529a416-43a6-4f37-8012-6a48cebe273e-dark-L_Q3_LRU_0" class="edge-thickness-normal edge-pattern-solid edge-thickness-normal edge-pattern-solid flowchart-link" style=";" data-edge="true" data-et="edge" data-id="L_Q3_LRU_0" data-points="W3sieCI6ODkyLjQzMTg5ODQwNTM1MywieSI6NDAwLjc5OTk5NTQyMjM2MzN9LHsieCI6OTY3LjA1NzAzMzUzODgxODQsInkiOjQ0NC4yOTk5OTU0MjIzNjMzfSx7IngiOjk2Ny4wNTcwMzM1Mzg4MTg0LCJ5Ijo0ODAuNzk5OTk1NDIyMzYzM31d" data-look="classic" marker-end="url(#g2529a416-43a6-4f37-8012-6a48cebe273e-dark_flowchart-v2-pointEnd)"></path><path d="M166.774,268.7L155.229,274.7C143.683,280.7,120.591,292.7,109.046,304.117C97.5,315.533,97.5,326.367,97.5,331.783L97.5,337.2" id="g2529a416-43a6-4f37-8012-6a48cebe273e-dark-L_Q4_SIEVE_0" class="edge-thickness-normal edge-pattern-solid edge-thickness-normal edge-pattern-solid flowchart-link" style=";" data-edge="true" data-et="edge" data-id="L_Q4_SIEVE_0" data-points="W3sieCI6MTY2Ljc3NDM3OTI5ODg0Mzk0LCJ5IjoyNjguNjk5OTk2OTQ4MjQyMn0seyJ4Ijo5Ny41LCJ5IjozMDQuNjk5OTk2OTQ4MjQyMn0seyJ4Ijo5Ny41LCJ5IjozNDEuMTk5OTk2OTQ4MjQyMn1d" data-look="classic" marker-end="url(#g2529a416-43a6-4f37-8012-6a48cebe273e-dark_flowchart-v2-pointEnd)"></path><path d="M264.001,268.7L275.38,274.7C286.759,280.7,309.517,292.7,320.972,305.45C332.427,318.2,332.578,331.7,332.654,338.45L332.73,345.2" id="g2529a416-43a6-4f37-8012-6a48cebe273e-dark-L_Q4_Q5_0" class="edge-thickness-normal edge-pattern-solid edge-thickness-normal edge-pattern-solid flowchart-link" style=";" data-edge="true" data-et="edge" data-id="L_Q4_Q5_0" data-points="W3sieCI6MjY0LjAwMDYyMjIyNzAzNDk3LCJ5IjoyNjguNjk5OTk2OTQ4MjQyMn0seyJ4IjozMzIuMjc1MDAxNTI1ODc4OSwieSI6MzA0LjY5OTk5Njk0ODI0MjJ9LHsieCI6MzMyLjc3NTAwMTUyNTg3ODksInkiOjM0OS4xOTk5OTY5NDgyNDIyfV0=" data-look="classic" marker-end="url(#g2529a416-43a6-4f37-8012-6a48cebe273e-dark_flowchart-v2-pointEnd)"></path><path d="M318.871,400.8L314.836,408.05C310.8,415.3,302.729,429.8,298.694,442.467C294.659,455.133,294.659,465.967,294.659,471.383L294.659,476.8" id="g2529a416-43a6-4f37-8012-6a48cebe273e-dark-L_Q5_TWOQ_0" class="edge-thickness-normal edge-pattern-solid edge-thickness-normal edge-pattern-solid flowchart-link" style=";" data-edge="true" data-et="edge" data-id="L_Q5_TWOQ_0" data-points="W3sieCI6MzE4Ljg3MDk0MzU5NjQzNjUsInkiOjQwMC43OTk5OTU0MjIzNjMzNH0seyJ4IjoyOTQuNjU4NTk2MDM4ODE4MzYsInkiOjQ0NC4yOTk5OTU0MjIzNjMzfSx7IngiOjI5NC42NTg1OTYwMzg4MTgzNiwieSI6NDgwLjc5OTk5NTQyMjM2MzN9XQ==" data-look="classic" marker-end="url(#g2529a416-43a6-4f37-8012-6a48cebe273e-dark_flowchart-v2-pointEnd)"></path><path d="M373.259,400.8L384.683,408.05C396.107,415.3,418.955,429.8,436.167,442.669C453.38,455.538,464.958,466.776,470.747,472.395L476.536,478.014" id="g2529a416-43a6-4f37-8012-6a48cebe273e-dark-L_Q5_ARC_0" class="edge-thickness-normal edge-pattern-solid edge-thickness-normal edge-pattern-solid flowchart-link" style=";" data-edge="true" data-et="edge" data-id="L_Q5_ARC_0" data-points="W3sieCI6MzczLjI1OTMxOTgwNzc0NjYsInkiOjQwMC43OTk5OTU0MjIzNjMzNH0seyJ4Ijo0NDEuODAyMzQ1Mjc1ODc4OSwieSI6NDQ0LjI5OTk5NTQyMjM2MzN9LHsieCI6NDc5LjQwNjIwMzA4ODAxMDEsInkiOjQ4MC43OTk5OTU0MjIzNjMzfV0=" data-look="classic" marker-end="url(#g2529a416-43a6-4f37-8012-6a48cebe273e-dark_flowchart-v2-pointEnd)"></path></g><g class="edgeLabels"><g class="edgeLabel"><g class="label" data-id="L_Start_Q1_0" transform="translate(0, 0)"><text y="-10.1" text-anchor="middle"><tspan class="text-outer-tspan row" x="0" y="-0.1em" dy="1.1em" text-anchor="middle"></tspan></text></g></g><g><rect class="background" style="stroke: none"></rect></g><g class="edgeLabel" transform="translate(214.88750076293945, 180.0999984741211)"><g class="label" data-id="L_Q1_Q4_0" transform="translate(0, -10.5)"><g><rect class="background" style="" x="-13.546875" y="-1" width="27.09375" height="23"></rect><text y="-10.1" text-anchor="middle" style=""><tspan class="text-outer-tspan row" x="0" y="-0.1em" dy="1.1em" text-anchor="middle"><tspan font-style="normal" class="text-inner-tspan" font-weight="normal">yes</tspan></tspan></text></g></g></g><g class="edgeLabel" transform="translate(704.90294, 162.63996)"><g class="label" data-id="L_Q1_Q2_0" transform="translate(0, -10.5)"><g><rect class="background" style="" x="-10.6640625" y="-1" width="21.328125" height="23"></rect><text y="-10.1" text-anchor="middle" style=""><tspan class="text-outer-tspan row" x="0" y="-0.1em" dy="1.1em" text-anchor="middle"><tspan font-style="normal" class="text-inner-tspan" font-weight="normal">no</tspan></tspan></text></g></g></g><g class="edgeLabel" transform="translate(553.6929702758789, 374.49999618530273)"><g class="label" data-id="L_Q2_ARC_0" transform="translate(0, -10.5)"><g><rect class="background" style="" x="-13.546875" y="-1" width="27.09375" height="23"></rect><text y="-10.1" text-anchor="middle" style=""><tspan class="text-outer-tspan row" x="0" y="-0.1em" dy="1.1em" text-anchor="middle"><tspan font-style="normal" class="text-inner-tspan" font-weight="normal">yes</tspan></tspan></text></g></g></g><g class="edgeLabel" transform="translate(847.8812522888184, 304.6999969482422)"><g class="label" data-id="L_Q2_Q3_0" transform="translate(0, -10.5)"><g><rect class="background" style="" x="-10.6640625" y="-1" width="21.328125" height="23"></rect><text y="-10.1" text-anchor="middle" style=""><tspan class="text-outer-tspan row" x="0" y="-0.1em" dy="1.1em" text-anchor="middle"><tspan font-style="normal" class="text-inner-tspan" font-weight="normal">no</tspan></tspan></text></g></g></g><g class="edgeLabel" transform="translate(728.7054710388184, 444.2999954223633)"><g class="label" data-id="L_Q3_WTLFU_0" transform="translate(0, -10.5)"><g><rect class="background" style="" x="-13.546875" y="-1" width="27.09375" height="23"></rect><text y="-10.1" text-anchor="middle" style=""><tspan class="text-outer-tspan row" x="0" y="-0.1em" dy="1.1em" text-anchor="middle"><tspan font-style="normal" class="text-inner-tspan" font-weight="normal">yes</tspan></tspan></text></g></g></g><g class="edgeLabel" transform="translate(967.0570335388184, 444.2999954223633)"><g class="label" data-id="L_Q3_LRU_0" transform="translate(0, -10.5)"><g><rect class="background" style="" x="-10.6640625" y="-1" width="21.328125" height="23"></rect><text y="-10.1" text-anchor="middle" style=""><tspan class="text-outer-tspan row" x="0" y="-0.1em" dy="1.1em" text-anchor="middle"><tspan font-style="normal" class="text-inner-tspan" font-weight="normal">no</tspan></tspan></text></g></g></g><g class="edgeLabel" transform="translate(97.5, 304.6999969482422)"><g class="label" data-id="L_Q4_SIEVE_0" transform="translate(0, -10.5)"><g><rect class="background" style="" x="-13.546875" y="-1" width="27.09375" height="23"></rect><text y="-10.1" text-anchor="middle" style=""><tspan class="text-outer-tspan row" x="0" y="-0.1em" dy="1.1em" text-anchor="middle"><tspan font-style="normal" class="text-inner-tspan" font-weight="normal">yes</tspan></tspan></text></g></g></g><g class="edgeLabel" transform="translate(332.2750015258789, 304.6999969482422)"><g class="label" data-id="L_Q4_Q5_0" transform="translate(0, -10.5)"><g><rect class="background" style="" x="-10.6640625" y="-1" width="21.328125" height="23"></rect><text y="-10.1" text-anchor="middle" style=""><tspan class="text-outer-tspan row" x="0" y="-0.1em" dy="1.1em" text-anchor="middle"><tspan font-style="normal" class="text-inner-tspan" font-weight="normal">no</tspan></tspan></text></g></g></g><g class="edgeLabel" transform="translate(294.65859603881836, 444.2999954223633)"><g class="label" data-id="L_Q5_TWOQ_0" transform="translate(0, -10.5)"><g><rect class="background" style="" x="-13.546875" y="-1" width="27.09375" height="23"></rect><text y="-10.1" text-anchor="middle" style=""><tspan class="text-outer-tspan row" x="0" y="-0.1em" dy="1.1em" text-anchor="middle"><tspan font-style="normal" class="text-inner-tspan" font-weight="normal">yes</tspan></tspan></text></g></g></g><g class="edgeLabel" transform="translate(429.65421, 436.59033)"><g class="label" data-id="L_Q5_ARC_0" transform="translate(0, -10.5)"><g><rect class="background" style="" x="-10.6640625" y="-1" width="21.328125" height="23"></rect><text y="-10.1" text-anchor="middle" style=""><tspan class="text-outer-tspan row" x="0" y="-0.1em" dy="1.1em" text-anchor="middle"><tspan font-style="normal" class="text-inner-tspan" font-weight="normal">no</tspan></tspan></text></g></g></g></g><g class="nodes"><g class="node default root" id="g2529a416-43a6-4f37-8012-6a48cebe273e-dark-flowchart-Start-0" data-look="classic" transform="translate(513.4703140258789, 25)"><g class="basic label-container outer-path"><path d="M-92.1484375 -17 C-47.86340338027421 -17, -3.5783692605484134 -17, 92.1484375 -17 C92.1484375 -17, 92.1484375 -17, 92.1484375 -17 C92.54349706223297 -16.987331208775977, 92.93855662446595 -16.974662417551954, 93.23763123967211 -16.965071676755716 C93.49174414278968 -16.940557710607443, 93.74585704590724 -16.916043744459174, 94.3223492486366 -16.860430234995185 C94.67368913104494 -16.803628327488887, 95.02502901345328 -16.74682641998259, 95.39813418792333 -16.686505668848113 C95.75331054350845 -16.605438983428137, 96.10848689909355 -16.52437229800816, 96.46056542646163 -16.4440126716635 C96.75786089373791 -16.35577693751165, 97.05515636101421 -16.267541203359798, 97.50527720640156 -16.133947699181366 C97.87470131367974 -15.997996212783985, 98.24412542095791 -15.862044726386602, 98.52797658294936 -15.757584874882369 C98.73793843036086 -15.664640993330215, 98.94790027777235 -15.57169711177806, 99.52446106499849 -15.316470754341125 C99.87499218288438 -15.13359889466595, 100.22552330077028 -14.950727034990775, 100.49063588406693 -14.812417970097622 C100.85746742431878 -14.590042534655533, 101.22429896457065 -14.367667099213444, 101.42253082057933 -14.247497783161291 C101.68005271440376 -14.067861657972482, 101.93757460822818 -13.888225532783675, 102.31631651835067 -13.624031571755262 C102.5419414082538 -13.444101726187993, 102.76756629815694 -13.264171880620724, 103.1683202202324 -12.944581292275288 C103.37073858567011 -12.760750288481226, 103.57315695110782 -12.576919284687165, 103.97504086025927 -12.21193895166137 C104.1596480390634 -12.021316883014846, 104.34425521786754 -11.830694814368323, 104.73316345028036 -11.42911513444239 C104.89795396584415 -11.23554281801518, 105.06274448140796 -11.041970501587972, 105.43957270195651 -10.59932663159847 C105.64526292113929 -10.323720476657991, 105.85095314032209 -10.048114321717513, 106.09136582814824 -9.725983222076888 C106.28171482459379 -9.433556047674085, 106.47206382103934 -9.14112887327128, 106.68586447109088 -8.812673661278927 C106.8793894857747 -8.4690504011751, 107.07291450045852 -8.125427141071274, 107.220625708341 -7.863150934094199 C107.32810329118008 -7.639971433676965, 107.43558087401917 -7.41679193325973, 107.69345209126881 -6.881316833080699 C107.77587951199268 -6.677719510266968, 107.85830693271656 -6.474122187453236, 108.10240067484592 -5.871205925162238 C108.19636680256066 -5.588194919954731, 108.2903329302754 -5.305183914747224, 108.44579100162323 -4.836968972727556 C108.51512618700065 -4.572563860824058, 108.58446137237806 -4.308158748920561, 108.722212007091 -3.7828558772573464 C108.76411960839667 -3.56766920172743, 108.80602720970234 -3.352482526197513, 108.93052781804565 -2.713198215567453 C108.9640332924337 -2.453336372618069, 108.99753876682173 -2.1934745296686846, 109.06988242013637 -1.632391440430593 C109.08473209606673 -1.4010957513725346, 109.0995817719971 -1.1698000623144762, 109.1397031754117 -0.5448768187181379 C109.1397031754117 -0.27862933462225625, 109.1397031754117 -0.012381850526374638, 109.1397031754117 0.5448768187181336 C109.12535409637253 0.768375307121119, 109.11100501733338 0.9918737955241045, 109.06988242013637 1.6323914404305815 C109.04166791694944 1.8512175555645307, 109.01345341376252 2.07004367069848, 108.93052781804565 2.7131982155674415 C108.85973165540129 3.076721547971931, 108.78893549275695 3.4402448803764205, 108.722212007091 3.782855877257343 C108.62260140110222 4.162714289402324, 108.52299079511343 4.542572701547305, 108.44579100162323 4.836968972727545 C108.33134452958538 5.181663511936527, 108.21689805754754 5.52635805114551, 108.10240067484592 5.871205925162227 C107.97926508187084 6.175353220475431, 107.85612948889575 6.479500515788636, 107.69345209126881 6.881316833080694 C107.5499332082987 7.1793368643803115, 107.40641432532857 7.47735689567993, 107.220625708341 7.863150934094196 C107.0698552673605 8.13085911921776, 106.91908482637997 8.398567304341324, 106.68586447109088 8.812673661278923 C106.53939222635256 9.037694362501881, 106.39291998161424 9.262715063724837, 106.09136582814826 9.725983222076879 C105.9159275454994 9.961054538069991, 105.74048926285056 10.196125854063101, 105.43957270195651 10.599326631598467 C105.18783154105104 10.895036123675876, 104.93609038014559 11.190745615753285, 104.73316345028037 11.42911513444238 C104.44596046611247 11.725675795399269, 104.15875748194455 12.022236456356158, 103.97504086025927 12.211938951661365 C103.6837796108584 12.476454712016874, 103.39251836145752 12.740970472372386, 103.16832022023242 12.944581292275275 C102.83480050592313 13.210554389104594, 102.50128079161384 13.476527485933913, 102.31631651835067 13.62403157175526 C102.04828772608796 13.810996854458313, 101.78025893382527 13.997962137161366, 101.42253082057934 14.247497783161286 C101.05122210318609 14.472587309697305, 100.67991338579283 14.697676836233324, 100.49063588406695 14.81241797009762 C100.24711949078838 14.939460316491354, 100.00360309750981 15.066502662885089, 99.52446106499849 15.316470754341124 C99.27182570283387 15.428304935009653, 99.01919034066924 15.540139115678182, 98.52797658294936 15.757584874882367 C98.32201634056243 15.83338014795637, 98.11605609817549 15.909175421030374, 97.50527720640156 16.133947699181363 C97.26380748459944 16.205614645111798, 97.02233776279733 16.27728159104223, 96.46056542646164 16.444012671663497 C96.051016831558 16.53748946589591, 95.64146823665435 16.63096626012832, 95.39813418792333 16.68650566884811 C95.05114463836135 16.742604248277146, 94.70415508879937 16.79870282770618, 94.32234924863661 16.86043023499518 C93.92383918977113 16.89887402109547, 93.52532913090565 16.937317807195754, 93.23763123967211 16.965071676755716 C92.9160741690236 16.975383386138546, 92.59451709837509 16.985695095521375, 92.1484375 17 C92.1484375 17, 92.1484375 17, 92.1484375 17 C54.16793820655353 17, 16.18743891310706 17, -92.1484375 17 C-92.5660879705539 16.98660676231666, -92.98373844110779 16.973213524633323, -93.23763123967211 16.965071676755716 C-93.50167586876833 16.93959960894693, -93.76572049786455 16.914127541138146, -94.3223492486366 16.86043023499518 C-94.65295066356104 16.80698116208246, -94.98355207848549 16.75353208916974, -95.39813418792333 16.68650566884811 C-95.78129245837525 16.59905229395884, -96.16445072882716 16.511598919069577, -96.46056542646161 16.4440126716635 C-96.70347403992076 16.371918670242156, -96.94638265337991 16.299824668820815, -97.50527720640154 16.13394769918137 C-97.84459717290041 16.009074814870402, -98.18391713939928 15.884201930559431, -98.52797658294936 15.757584874882369 C-98.78649864534574 15.643144826644, -99.04502070774213 15.528704778405633, -99.52446106499849 15.316470754341127 C-99.77796839036779 15.184216145075156, -100.03147571573709 15.051961535809184, -100.49063588406693 14.812417970097624 C-100.74034187885968 14.661044728618949, -100.99004787365243 14.509671487140274, -101.42253082057931 14.247497783161299 C-101.67202059422912 14.073464517301428, -101.92151036787892 13.899431251441557, -102.31631651835067 13.624031571755264 C-102.65654101960013 13.352711585763036, -102.99676552084959 13.081391599770805, -103.1683202202324 12.94458129227529 C-103.35871801225954 12.771667055205755, -103.5491158042867 12.598752818136221, -103.97504086025926 12.211938951661377 C-104.27589705407512 11.90128023079362, -104.57675324789096 11.590621509925866, -104.73316345028036 11.429115134442386 C-104.96780733755963 11.153489072828735, -105.2024512248389 10.877863011215085, -105.43957270195651 10.599326631598473 C-105.66579618868762 10.296207768762383, -105.89201967541875 9.993088905926292, -106.09136582814824 9.72598322207689 C-106.27329739553595 9.446487479103116, -106.45522896292367 9.16699173612934, -106.68586447109088 8.812673661278936 C-106.80845163039372 8.595007746640816, -106.93103878969656 8.377341832002696, -107.220625708341 7.863150934094201 C-107.32438237632655 7.647697992985166, -107.42813904431209 7.432245051876132, -107.69345209126881 6.881316833080701 C-107.85300019714921 6.48722992690332, -108.01254830302962 6.093143020725937, -108.10240067484592 5.87120592516224 C-108.20227518885793 5.5703998018009155, -108.30214970286991 5.269593678439591, -108.44579100162323 4.8369689727275516 C-108.50108437569253 4.626111373101419, -108.55637774976182 4.415253773475286, -108.722212007091 3.782855877257349 C-108.76771837866238 3.549190277013369, -108.81322475023376 3.315524676769389, -108.93052781804565 2.713198215567455 C-108.97395873433794 2.3763566052089495, -109.01738965063022 2.039514994850444, -109.06988242013637 1.6323914404306026 C-109.08693737103086 1.3667468137403802, -109.10399232192535 1.101102187050158, -109.1397031754117 0.54487681871814 C-109.1397031754117 0.19028338519585813, -109.1397031754117 -0.1643100483264237, -109.1397031754117 -0.5448768187181317 C-109.12552168474309 -0.7657649829749127, -109.11134019407449 -0.9866531472316936, -109.06988242013637 -1.6323914404305793 C-109.02595598076515 -1.9730762299372067, -108.98202954139391 -2.313761019443834, -108.93052781804565 -2.713198215567447 C-108.88420506856711 -2.951055743823173, -108.83788231908858 -3.1889132720788997, -108.722212007091 -3.782855877257341 C-108.65561716392146 -4.036810876650406, -108.58902232075192 -4.290765876043471, -108.44579100162323 -4.836968972727544 C-108.36250578450526 -5.087810776989598, -108.27922056738728 -5.338652581251653, -108.10240067484594 -5.871205925162218 C-108.00673569274602 -6.107500280505601, -107.91107071064611 -6.343794635848985, -107.69345209126881 -6.881316833080692 C-107.5258916480102 -7.229259678726328, -107.35833120475161 -7.577202524371964, -107.220625708341 -7.863150934094194 C-107.08529456060964 -8.103445090655933, -106.94996341287826 -8.343739247217673, -106.68586447109088 -8.812673661278929 C-106.5298579796765 -9.052341525700006, -106.37385148826215 -9.292009390121082, -106.09136582814826 -9.725983222076884 C-105.91565186909776 -9.96142391933357, -105.73993791004726 -10.196864616590254, -105.43957270195651 -10.599326631598467 C-105.20968321196483 -10.869367907625252, -104.97979372197314 -11.139409183652038, -104.73316345028037 -11.42911513444238 C-104.47930821926099 -11.691241502371964, -104.2254529882416 -11.95336787030155, -103.97504086025927 -12.21193895166136 C-103.77026232883826 -12.397913395754891, -103.56548379741724 -12.583887839848423, -103.16832022023242 -12.944581292275274 C-102.84336993083024 -13.203720500783154, -102.51841964142804 -13.462859709291035, -102.31631651835067 -13.624031571755259 C-102.00642555090042 -13.840198095684789, -101.69653458345016 -14.05636461961432, -101.42253082057934 -14.247497783161284 C-101.19012168506609 -14.388385566897101, -100.95771254955282 -14.529273350632918, -100.49063588406695 -14.812417970097618 C-100.19095618675416 -14.96876067623169, -99.89127648944138 -15.125103382365761, -99.52446106499849 -15.316470754341124 C-99.15670590282808 -15.479265055564676, -98.78895074065768 -15.642059356788227, -98.52797658294936 -15.757584874882365 C-98.19272424774022 -15.880960833277944, -97.85747191253108 -16.004336791673524, -97.50527720640156 -16.133947699181363 C-97.12685697727768 -16.24626083681701, -96.74843674815381 -16.358573974452664, -96.46056542646164 -16.444012671663494 C-96.05704777418762 -16.536112942596272, -95.6535301219136 -16.62821321352905, -95.39813418792333 -16.68650566884811 C-95.0564090692882 -16.741753135911164, -94.71468395065305 -16.79700060297422, -94.32234924863661 -16.86043023499518 C-93.94878799476078 -16.896467239883446, -93.57522674088496 -16.932504244771707, -93.23763123967213 -16.965071676755716 C-92.89575654268833 -16.976034932869258, -92.55388184570455 -16.9869981889828, -92.1484375 -17 C-92.1484375 -17, -92.1484375 -17, -92.1484375 -17" stroke="none" stroke-width="0" fill="#B43A3A" style="fill:#B43A3A !important;stroke:#b85450 !important;stroke-width:2px !important"></path><path d="M-92.1484375 -17 C-48.850493278340686 -17, -5.5525490566813716 -17, 92.1484375 -17 M-92.1484375 -17 C-34.42446540383046 -17, 23.29950669233908 -17, 92.1484375 -17 M92.1484375 -17 C92.1484375 -17, 92.1484375 -17, 92.1484375 -17 M92.1484375 -17 C92.1484375 -17, 92.1484375 -17, 92.1484375 -17 M92.1484375 -17 C92.53486897739822 -16.98760789466308, 92.92130045479644 -16.97521578932616, 93.23763123967211 -16.965071676755716 M92.1484375 -17 C92.4637023605002 -16.98989006954958, 92.77896722100041 -16.979780139099166, 93.23763123967211 -16.965071676755716 M93.23763123967211 -16.965071676755716 C93.66976945251125 -16.923383823085366, 94.10190766535037 -16.881695969415016, 94.3223492486366 -16.860430234995185 M93.23763123967211 -16.965071676755716 C93.58370544141702 -16.93168631472851, 93.92977964316192 -16.898300952701298, 94.3223492486366 -16.860430234995185 M94.3223492486366 -16.860430234995185 C94.739724018771 -16.79295231894954, 95.1570987889054 -16.725474402903895, 95.39813418792333 -16.686505668848113 M94.3223492486366 -16.860430234995185 C94.57006902503117 -16.82038082264327, 94.81778880142575 -16.780331410291353, 95.39813418792333 -16.686505668848113 M95.39813418792333 -16.686505668848113 C95.65561718522453 -16.6277368549477, 95.91310018252571 -16.568968041047285, 96.46056542646163 -16.4440126716635 M95.39813418792333 -16.686505668848113 C95.73855437781499 -16.608806981954686, 96.07897456770664 -16.53110829506126, 96.46056542646163 -16.4440126716635 M96.46056542646163 -16.4440126716635 C96.81912809744651 -16.337593153049056, 97.17769076843138 -16.23117363443461, 97.50527720640156 -16.133947699181366 M96.46056542646163 -16.4440126716635 C96.7385781730971 -16.36149994778078, 97.01659091973256 -16.278987223898056, 97.50527720640156 -16.133947699181366 M97.50527720640156 -16.133947699181366 C97.85047371316368 -16.006912193731374, 98.1956702199258 -15.879876688281383, 98.52797658294936 -15.757584874882369 M97.50527720640156 -16.133947699181366 C97.91030564974676 -15.984893487988444, 98.31533409309196 -15.835839276795522, 98.52797658294936 -15.757584874882369 M98.52797658294936 -15.757584874882369 C98.91253892039309 -15.587350535732458, 99.29710125783681 -15.417116196582548, 99.52446106499849 -15.316470754341125 M98.52797658294936 -15.757584874882369 C98.75998197625391 -15.654882969461912, 98.99198736955847 -15.552181064041454, 99.52446106499849 -15.316470754341125 M99.52446106499849 -15.316470754341125 C99.80768406513961 -15.168713496580489, 100.09090706528075 -15.020956238819851, 100.49063588406693 -14.812417970097622 M99.52446106499849 -15.316470754341125 C99.81492051629336 -15.164938244648754, 100.1053799675882 -15.01340573495638, 100.49063588406693 -14.812417970097622 M100.49063588406693 -14.812417970097622 C100.78199483374414 -14.635794462588064, 101.07335378342133 -14.459170955078505, 101.42253082057933 -14.247497783161291 M100.49063588406693 -14.812417970097622 C100.8021897895889 -14.623552161676235, 101.11374369511086 -14.43468635325485, 101.42253082057933 -14.247497783161291 M101.42253082057933 -14.247497783161291 C101.60158701738709 -14.122595931486028, 101.78064321419485 -13.997694079810765, 102.31631651835067 -13.624031571755262 M101.42253082057933 -14.247497783161291 C101.73698751032526 -14.028146409005227, 102.0514442000712 -13.808795034849163, 102.31631651835067 -13.624031571755262 M102.31631651835067 -13.624031571755262 C102.64579061257028 -13.36128474928899, 102.9752647067899 -13.098537926822717, 103.1683202202324 -12.944581292275288 M102.31631651835067 -13.624031571755262 C102.51468894139842 -13.46583484328656, 102.71306136444618 -13.307638114817856, 103.1683202202324 -12.944581292275288 M103.1683202202324 -12.944581292275288 C103.43492881718649 -12.702454418598515, 103.70153741414056 -12.460327544921745, 103.97504086025927 -12.21193895166137 M103.1683202202324 -12.944581292275288 C103.37941703793466 -12.752868747753826, 103.59051385563691 -12.561156203232366, 103.97504086025927 -12.21193895166137 M103.97504086025927 -12.21193895166137 C104.20917513161307 -11.970176093707401, 104.44330940296686 -11.728413235753433, 104.73316345028036 -11.42911513444239 M103.97504086025927 -12.21193895166137 C104.2698340424946 -11.907540788033026, 104.5646272247299 -11.603142624404683, 104.73316345028036 -11.42911513444239 M104.73316345028036 -11.42911513444239 C104.94817346648794 -11.176552134988448, 105.16318348269553 -10.923989135534507, 105.43957270195651 -10.59932663159847 M104.73316345028036 -11.42911513444239 C104.89744369933722 -11.23614220608922, 105.06172394839408 -11.043169277736052, 105.43957270195651 -10.59932663159847 M105.43957270195651 -10.59932663159847 C105.68667292750177 -10.268234840661462, 105.93377315304704 -9.937143049724451, 106.09136582814824 -9.725983222076888 M105.43957270195651 -10.59932663159847 C105.57110580801546 -10.423084252391943, 105.70263891407441 -10.246841873185414, 106.09136582814824 -9.725983222076888 M106.09136582814824 -9.725983222076888 C106.28107219552689 -9.43454329849092, 106.47077856290552 -9.143103374904953, 106.68586447109088 -8.812673661278927 M106.09136582814824 -9.725983222076888 C106.21613096493921 -9.534310467835716, 106.34089610173017 -9.342637713594545, 106.68586447109088 -8.812673661278927 M106.68586447109088 -8.812673661278927 C106.84255742256941 -8.534449459046924, 106.99925037404793 -8.256225256814918, 107.220625708341 -7.863150934094199 M106.68586447109088 -8.812673661278927 C106.8897087282688 -8.450727541190203, 107.09355298544673 -8.08878142110148, 107.220625708341 -7.863150934094199 M107.220625708341 -7.863150934094199 C107.3198462519067 -7.65711735240051, 107.41906679547238 -7.451083770706821, 107.69345209126881 -6.881316833080699 M107.220625708341 -7.863150934094199 C107.33039447859362 -7.635213733989213, 107.44016324884623 -7.407276533884225, 107.69345209126881 -6.881316833080699 M107.69345209126881 -6.881316833080699 C107.77904930481115 -6.669890060721556, 107.86464651835351 -6.458463288362414, 108.10240067484592 -5.871205925162238 M107.69345209126881 -6.881316833080699 C107.79809412809651 -6.622848979000126, 107.9027361649242 -6.364381124919553, 108.10240067484592 -5.871205925162238 M108.10240067484592 -5.871205925162238 C108.18005631072607 -5.637319522636567, 108.25771194660622 -5.403433120110895, 108.44579100162323 -4.836968972727556 M108.10240067484592 -5.871205925162238 C108.23090766668996 -5.484163340536613, 108.359414658534 -5.097120755910988, 108.44579100162323 -4.836968972727556 M108.44579100162323 -4.836968972727556 C108.50895953971435 -4.596079959568546, 108.57212807780546 -4.355190946409536, 108.722212007091 -3.7828558772573464 M108.44579100162323 -4.836968972727556 C108.54219751221348 -4.469329165000942, 108.63860402280373 -4.101689357274328, 108.722212007091 -3.7828558772573464 M108.722212007091 -3.7828558772573464 C108.77292626331952 -3.5224488899857906, 108.82364051954802 -3.262041902714235, 108.93052781804565 -2.713198215567453 M108.722212007091 -3.7828558772573464 C108.7912127520233 -3.4285516353426275, 108.86021349695558 -3.0742473934279086, 108.93052781804565 -2.713198215567453 M108.93052781804565 -2.713198215567453 C108.96567120961159 -2.4406330104296883, 109.00081460117751 -2.1680678052919236, 109.06988242013637 -1.632391440430593 M108.93052781804565 -2.713198215567453 C108.98423716353727 -2.296639138044328, 109.0379465090289 -1.8800800605212031, 109.06988242013637 -1.632391440430593 M109.06988242013637 -1.632391440430593 C109.09201425134412 -1.2876703048770992, 109.1141460825519 -0.9429491693236055, 109.1397031754117 -0.5448768187181379 M109.06988242013637 -1.632391440430593 C109.08661072821825 -1.3718345392081246, 109.10333903630013 -1.1112776379856564, 109.1397031754117 -0.5448768187181379 M109.1397031754117 -0.5448768187181379 C109.1397031754117 -0.23327208437040486, 109.1397031754117 0.07833264997732814, 109.1397031754117 0.5448768187181336 M109.1397031754117 -0.5448768187181379 C109.1397031754117 -0.2714908943140718, 109.1397031754117 0.001895030089994254, 109.1397031754117 0.5448768187181336 M109.1397031754117 0.5448768187181336 C109.11396892948612 0.945708471318315, 109.08823468356056 1.3465401239184964, 109.06988242013637 1.6323914404305815 M109.1397031754117 0.5448768187181336 C109.1173475170939 0.8930842421804124, 109.0949918587761 1.2412916656426911, 109.06988242013637 1.6323914404305815 M109.06988242013637 1.6323914404305815 C109.0274181776773 1.9617357194299108, 108.98495393521824 2.2910799984292396, 108.93052781804565 2.7131982155674415 M109.06988242013637 1.6323914404305815 C109.04178827743078 1.8502840634390822, 109.0136941347252 2.068176686447583, 108.93052781804565 2.7131982155674415 M108.93052781804565 2.7131982155674415 C108.88667102098015 2.938393599361493, 108.84281422391463 3.163588983155545, 108.722212007091 3.782855877257343 M108.93052781804565 2.7131982155674415 C108.87960358655057 2.974683381454495, 108.82867935505551 3.2361685473415482, 108.722212007091 3.782855877257343 M108.722212007091 3.782855877257343 C108.64011214137567 4.09593824753679, 108.55801227566033 4.409020617816235, 108.44579100162323 4.836968972727545 M108.722212007091 3.782855877257343 C108.66254229562556 4.010402348091608, 108.60287258416012 4.237948818925873, 108.44579100162323 4.836968972727545 M108.44579100162323 4.836968972727545 C108.35504359468497 5.110285703789799, 108.26429618774672 5.383602434852053, 108.10240067484592 5.871205925162227 M108.44579100162323 4.836968972727545 C108.35598488762346 5.107450679433731, 108.2661787736237 5.377932386139916, 108.10240067484592 5.871205925162227 M108.10240067484592 5.871205925162227 C107.98230629340675 6.16784136918388, 107.86221191196759 6.464476813205534, 107.69345209126881 6.881316833080694 M108.10240067484592 5.871205925162227 C107.94504979800564 6.259865633129984, 107.78769892116534 6.64852534109774, 107.69345209126881 6.881316833080694 M107.69345209126881 6.881316833080694 C107.56083055417024 7.1567082925121825, 107.42820901707168 7.43209975194367, 107.220625708341 7.863150934094196 M107.69345209126881 6.881316833080694 C107.59317244987108 7.0895496540837035, 107.49289280847333 7.297782475086712, 107.220625708341 7.863150934094196 M107.220625708341 7.863150934094196 C107.07292525983726 8.1254080367048, 106.92522481133352 8.387665139315402, 106.68586447109088 8.812673661278923 M107.220625708341 7.863150934094196 C107.02801216504031 8.205155784460796, 106.83539862173961 8.547160634827396, 106.68586447109088 8.812673661278923 M106.68586447109088 8.812673661278923 C106.47568043079144 9.135572789496353, 106.265496390492 9.458471917713782, 106.09136582814826 9.725983222076879 M106.68586447109088 8.812673661278923 C106.51024339769616 9.082474790874576, 106.33462232430144 9.352275920470227, 106.09136582814826 9.725983222076879 M106.09136582814826 9.725983222076879 C105.85978788771165 10.036276565077547, 105.62820994727504 10.346569908078212, 105.43957270195651 10.599326631598467 M106.09136582814826 9.725983222076879 C105.92524334972138 9.948572209099757, 105.75912087129453 10.171161196122632, 105.43957270195651 10.599326631598467 M105.43957270195651 10.599326631598467 C105.18247010416805 10.901333972513052, 104.92536750637957 11.203341313427638, 104.73316345028037 11.42911513444238 M105.43957270195651 10.599326631598467 C105.23812322172041 10.835960653883943, 105.03667374148431 11.072594676169418, 104.73316345028037 11.42911513444238 M104.73316345028037 11.42911513444238 C104.5078874518012 11.661731098375576, 104.282611453322 11.894347062308773, 103.97504086025927 12.211938951661365 M104.73316345028037 11.42911513444238 C104.52213637920495 11.6470179109725, 104.31110930812953 11.864920687502618, 103.97504086025927 12.211938951661365 M103.97504086025927 12.211938951661365 C103.76258101346615 12.404889363139377, 103.55012116667302 12.59783977461739, 103.16832022023242 12.944581292275275 M103.97504086025927 12.211938951661365 C103.66676926999972 12.491903053515767, 103.35849767974018 12.77186715537017, 103.16832022023242 12.944581292275275 M103.16832022023242 12.944581292275275 C102.91241422323473 13.14865951493635, 102.65650822623705 13.352737737597424, 102.31631651835067 13.62403157175526 M103.16832022023242 12.944581292275275 C102.92147650007058 13.141432590317068, 102.67463277990876 13.33828388835886, 102.31631651835067 13.62403157175526 M102.31631651835067 13.62403157175526 C101.96747401593095 13.867369000294719, 101.61863151351123 14.110706428834177, 101.42253082057934 14.247497783161286 M102.31631651835067 13.62403157175526 C102.1259316891766 13.756835786960675, 101.93554686000252 13.889640002166091, 101.42253082057934 14.247497783161286 M101.42253082057934 14.247497783161286 C101.09574972515503 14.445594403586377, 100.76896862973072 14.643691024011467, 100.49063588406695 14.81241797009762 M101.42253082057934 14.247497783161286 C101.0716401068173 14.460209795906552, 100.72074939305527 14.672921808651818, 100.49063588406695 14.81241797009762 M100.49063588406695 14.81241797009762 C100.29632022756205 14.91379232363111, 100.10200457105714 15.0151666771646, 99.52446106499849 15.316470754341124 M100.49063588406695 14.81241797009762 C100.16206935879984 14.983830915872566, 99.83350283353272 15.155243861647515, 99.52446106499849 15.316470754341124 M99.52446106499849 15.316470754341124 C99.13427652850461 15.489193874233925, 98.74409199201075 15.661916994126726, 98.52797658294936 15.757584874882367 M99.52446106499849 15.316470754341124 C99.22803216921525 15.447691033253593, 98.93160327343202 15.57891131216606, 98.52797658294936 15.757584874882367 M98.52797658294936 15.757584874882367 C98.20842109052907 15.875184250031626, 97.88886559810877 15.992783625180886, 97.50527720640156 16.133947699181363 M98.52797658294936 15.757584874882367 C98.23774888941695 15.864391348937685, 97.94752119588453 15.971197822993005, 97.50527720640156 16.133947699181363 M97.50527720640156 16.133947699181363 C97.10970453343019 16.251351592115935, 96.71413186045882 16.368755485050507, 96.46056542646164 16.444012671663497 M97.50527720640156 16.133947699181363 C97.21687291037732 16.21954458037632, 96.92846861435306 16.30514146157127, 96.46056542646164 16.444012671663497 M96.46056542646164 16.444012671663497 C96.15516831826153 16.513717568707794, 95.84977121006142 16.583422465752093, 95.39813418792333 16.68650566884811 M96.46056542646164 16.444012671663497 C96.20126607799024 16.50319605586571, 95.94196672951884 16.56237944006793, 95.39813418792333 16.68650566884811 M95.39813418792333 16.68650566884811 C95.17550097046747 16.722499280899985, 94.9528677530116 16.758492892951864, 94.32234924863661 16.86043023499518 M95.39813418792333 16.68650566884811 C94.97045446786508 16.755649609281363, 94.54277474780685 16.824793549714617, 94.32234924863661 16.86043023499518 M94.32234924863661 16.86043023499518 C94.00419727392202 16.891121973362168, 93.68604529920742 16.921813711729154, 93.23763123967211 16.965071676755716 M94.32234924863661 16.86043023499518 C94.02087155453818 16.889513425564886, 93.71939386043972 16.918596616134586, 93.23763123967211 16.965071676755716 M93.23763123967211 16.965071676755716 C92.96374113063293 16.973854799457847, 92.68985102159374 16.982637922159977, 92.1484375 17 M93.23763123967211 16.965071676755716 C92.93394906944559 16.974810172873397, 92.63026689921908 16.984548668991074, 92.1484375 17 M92.1484375 17 C92.1484375 17, 92.1484375 17, 92.1484375 17 M92.1484375 17 C92.1484375 17, 92.1484375 17, 92.1484375 17 M92.1484375 17 C49.77412177141188 17, 7.399806042823755 17, -92.1484375 17 M92.1484375 17 C54.03745793958132 17, 15.926478379162646 17, -92.1484375 17 M-92.1484375 17 C-92.46861027618866 16.98973268224613, -92.78878305237731 16.979465364492263, -93.23763123967211 16.965071676755716 M-92.1484375 17 C-92.41274280392645 16.991524243342145, -92.67704810785288 16.983048486684286, -93.23763123967211 16.965071676755716 M-93.23763123967211 16.965071676755716 C-93.47549794602872 16.942124961670064, -93.71336465238532 16.91917824658441, -94.3223492486366 16.86043023499518 M-93.23763123967211 16.965071676755716 C-93.58029689783106 16.93201513282887, -93.92296255599 16.898958588902026, -94.3223492486366 16.86043023499518 M-94.3223492486366 16.86043023499518 C-94.53941621047862 16.825336531983993, -94.75648317232066 16.790242828972804, -95.39813418792333 16.68650566884811 M-94.3223492486366 16.86043023499518 C-94.7495365670244 16.791365902245374, -95.1767238854122 16.722301569495567, -95.39813418792333 16.68650566884811 M-95.39813418792333 16.68650566884811 C-95.65876521941972 16.627018336685484, -95.91939625091611 16.567531004522863, -96.46056542646161 16.4440126716635 M-95.39813418792333 16.68650566884811 C-95.70643226830875 16.61613864383313, -96.01473034869417 16.545771618818144, -96.46056542646161 16.4440126716635 M-96.46056542646161 16.4440126716635 C-96.87167139516498 16.32199857809161, -97.28277736386835 16.199984484519714, -97.50527720640154 16.13394769918137 M-96.46056542646161 16.4440126716635 C-96.84540199793378 16.32979519729895, -97.23023856940594 16.2155777229344, -97.50527720640154 16.13394769918137 M-97.50527720640154 16.13394769918137 C-97.76380990221921 16.038805277270423, -98.02234259803689 15.94366285535948, -98.52797658294936 15.757584874882369 M-97.50527720640154 16.13394769918137 C-97.80609017906389 16.02324574455699, -98.10690315172623 15.912543789932613, -98.52797658294936 15.757584874882369 M-98.52797658294936 15.757584874882369 C-98.89506760799748 15.595084567461926, -99.2621586330456 15.432584260041484, -99.52446106499849 15.316470754341127 M-98.52797658294936 15.757584874882369 C-98.89824402906925 15.59367846007864, -99.26851147518911 15.429772045274914, -99.52446106499849 15.316470754341127 M-99.52446106499849 15.316470754341127 C-99.91044797117564 15.11510163262492, -100.29643487735278 14.913732510908714, -100.49063588406693 14.812417970097624 M-99.52446106499849 15.316470754341127 C-99.74017107255112 15.20393498156977, -99.95588108010377 15.091399208798412, -100.49063588406693 14.812417970097624 M-100.49063588406693 14.812417970097624 C-100.76890148483265 14.643731727643262, -101.04716708559837 14.475045485188899, -101.42253082057931 14.247497783161299 M-100.49063588406693 14.812417970097624 C-100.8430450197163 14.598785481081018, -101.19545415536567 14.385152992064413, -101.42253082057931 14.247497783161299 M-101.42253082057931 14.247497783161299 C-101.74270941931806 14.024155052989304, -102.0628880180568 13.800812322817311, -102.31631651835067 13.624031571755264 M-101.42253082057931 14.247497783161299 C-101.77141702530244 14.00412986978683, -102.12030323002557 13.760761956412363, -102.31631651835067 13.624031571755264 M-102.31631651835067 13.624031571755264 C-102.5383944317674 13.446930345546894, -102.76047234518413 13.269829119338523, -103.1683202202324 12.94458129227529 M-102.31631651835067 13.624031571755264 C-102.62026779516835 13.381638516976345, -102.92421907198602 13.139245462197424, -103.1683202202324 12.94458129227529 M-103.1683202202324 12.94458129227529 C-103.48212019131869 12.65959646122699, -103.79592016240495 12.37461163017869, -103.97504086025926 12.211938951661377 M-103.1683202202324 12.94458129227529 C-103.43247703264375 12.704681064449568, -103.69663384505508 12.464780836623847, -103.97504086025926 12.211938951661377 M-103.97504086025926 12.211938951661377 C-104.27067369030647 11.906673782730888, -104.56630652035368 11.601408613800398, -104.73316345028036 11.429115134442386 M-103.97504086025926 12.211938951661377 C-104.22914868527509 11.9495517596921, -104.48325651029093 11.687164567722824, -104.73316345028036 11.429115134442386 M-104.73316345028036 11.429115134442386 C-104.95098486111223 11.17324971088988, -105.16880627194409 10.917384287337377, -105.43957270195651 10.599326631598473 M-104.73316345028036 11.429115134442386 C-105.00130922954924 11.11413584418608, -105.26945500881813 10.799156553929773, -105.43957270195651 10.599326631598473 M-105.43957270195651 10.599326631598473 C-105.67931442266884 10.278094566764015, -105.91905614338117 9.956862501929558, -106.09136582814824 9.72598322207689 M-105.43957270195651 10.599326631598473 C-105.6921542309741 10.260890393365564, -105.94473575999169 9.922454155132655, -106.09136582814824 9.72598322207689 M-106.09136582814824 9.72598322207689 C-106.26274668687667 9.462696200865746, -106.4341275456051 9.199409179654605, -106.68586447109088 8.812673661278936 M-106.09136582814824 9.72598322207689 C-106.3224796955054 9.370930259053319, -106.55359356286255 9.015877296029748, -106.68586447109088 8.812673661278936 M-106.68586447109088 8.812673661278936 C-106.84008227915986 8.538844326806045, -106.99430008722882 8.265014992333152, -107.220625708341 7.863150934094201 M-106.68586447109088 8.812673661278936 C-106.89622223130264 8.439162156989923, -107.10657999151441 8.065650652700912, -107.220625708341 7.863150934094201 M-107.220625708341 7.863150934094201 C-107.31991654126024 7.656971395053912, -107.41920737417948 7.4507918560136215, -107.69345209126881 6.881316833080701 M-107.220625708341 7.863150934094201 C-107.34586672301315 7.603085287399073, -107.47110773768529 7.343019640703944, -107.69345209126881 6.881316833080701 M-107.69345209126881 6.881316833080701 C-107.83109871629449 6.54132700805081, -107.96874534132017 6.201337183020917, -108.10240067484592 5.87120592516224 M-107.69345209126881 6.881316833080701 C-107.80888279282682 6.596200768531604, -107.92431349438485 6.311084703982506, -108.10240067484592 5.87120592516224 M-108.10240067484592 5.87120592516224 C-108.20428328139008 5.564351747040145, -108.30616588793423 5.257497568918049, -108.44579100162323 4.8369689727275516 M-108.10240067484592 5.87120592516224 C-108.17507369646263 5.6523263629262885, -108.24774671807933 5.433446800690337, -108.44579100162323 4.8369689727275516 M-108.44579100162323 4.8369689727275516 C-108.52517645749765 4.534237823604194, -108.60456191337207 4.231506674480835, -108.722212007091 3.782855877257349 M-108.44579100162323 4.8369689727275516 C-108.5188595240549 4.558327028597665, -108.59192804648657 4.279685084467778, -108.722212007091 3.782855877257349 M-108.722212007091 3.782855877257349 C-108.77632351525743 3.5050047192940452, -108.83043502342386 3.2271535613307414, -108.93052781804565 2.713198215567455 M-108.722212007091 3.782855877257349 C-108.77466455034786 3.513523153482323, -108.82711709360471 3.244190429707297, -108.93052781804565 2.713198215567455 M-108.93052781804565 2.713198215567455 C-108.96754708635966 2.4260840808053397, -109.00456635467367 2.1389699460432245, -109.06988242013637 1.6323914404306026 M-108.93052781804565 2.713198215567455 C-108.977261860076 2.3507382142604714, -109.02399590210635 1.9882782129534875, -109.06988242013637 1.6323914404306026 M-109.06988242013637 1.6323914404306026 C-109.09242456844875 1.281279284770676, -109.11496671676113 0.9301671291107495, -109.1397031754117 0.54487681871814 M-109.06988242013637 1.6323914404306026 C-109.09004672569262 1.3183161050574999, -109.11021103124887 1.0042407696843973, -109.1397031754117 0.54487681871814 M-109.1397031754117 0.54487681871814 C-109.1397031754117 0.28665554574908936, -109.1397031754117 0.02843427278003874, -109.1397031754117 -0.5448768187181317 M-109.1397031754117 0.54487681871814 C-109.1397031754117 0.1407659871032712, -109.1397031754117 -0.26334484451159756, -109.1397031754117 -0.5448768187181317 M-109.1397031754117 -0.5448768187181317 C-109.11664747252222 -0.9039880014502484, -109.09359176963272 -1.2630991841823653, -109.06988242013637 -1.6323914404305793 M-109.1397031754117 -0.5448768187181317 C-109.12379352798067 -0.7926824194927642, -109.10788388054962 -1.040488020267397, -109.06988242013637 -1.6323914404305793 M-109.06988242013637 -1.6323914404305793 C-109.01581987775499 -2.0516898432839796, -108.96175733537362 -2.47098824613738, -108.93052781804565 -2.713198215567447 M-109.06988242013637 -1.6323914404305793 C-109.02065581716735 -2.0141832521659415, -108.97142921419835 -2.395975063901304, -108.93052781804565 -2.713198215567447 M-108.93052781804565 -2.713198215567447 C-108.8748251811048 -2.9992194835022348, -108.81912254416395 -3.2852407514370228, -108.722212007091 -3.782855877257341 M-108.93052781804565 -2.713198215567447 C-108.87361591969716 -3.005428785252997, -108.81670402134866 -3.2976593549385473, -108.722212007091 -3.782855877257341 M-108.722212007091 -3.782855877257341 C-108.6394695611908 -4.0983886842777295, -108.55672711529058 -4.413921491298119, -108.44579100162323 -4.836968972727544 M-108.722212007091 -3.782855877257341 C-108.65590705138916 -4.035705410098049, -108.58960209568731 -4.288554942938758, -108.44579100162323 -4.836968972727544 M-108.44579100162323 -4.836968972727544 C-108.3125183025977 -5.238365108071542, -108.17924560357216 -5.639761243415539, -108.10240067484594 -5.871205925162218 M-108.44579100162323 -4.836968972727544 C-108.33922364383142 -5.157932875193865, -108.2326562860396 -5.478896777660186, -108.10240067484594 -5.871205925162218 M-108.10240067484594 -5.871205925162218 C-107.94508503273586 -6.259778602665132, -107.78776939062578 -6.648351280168046, -107.69345209126881 -6.881316833080692 M-108.10240067484594 -5.871205925162218 C-107.99264996681902 -6.1422922958743165, -107.88289925879208 -6.413378666586414, -107.69345209126881 -6.881316833080692 M-107.69345209126881 -6.881316833080692 C-107.51326819782692 -7.255472543130482, -107.33308430438504 -7.629628253180272, -107.220625708341 -7.863150934094194 M-107.69345209126881 -6.881316833080692 C-107.50755687625696 -7.267332224573219, -107.3216616612451 -7.653347616065746, -107.220625708341 -7.863150934094194 M-107.220625708341 -7.863150934094194 C-107.0222365028074 -8.215411057604543, -106.8238472972738 -8.567671181114893, -106.68586447109088 -8.812673661278929 M-107.220625708341 -7.863150934094194 C-107.0467163377319 -8.171944631844022, -106.8728069671228 -8.48073832959385, -106.68586447109088 -8.812673661278929 M-106.68586447109088 -8.812673661278929 C-106.5188260029566 -9.069289604442329, -106.35178753482232 -9.325905547605728, -106.09136582814826 -9.725983222076884 M-106.68586447109088 -8.812673661278929 C-106.54830010189553 -9.024009473568375, -106.41073573270018 -9.235345285857822, -106.09136582814826 -9.725983222076884 M-106.09136582814826 -9.725983222076884 C-105.94953918068788 -9.916018009000403, -105.8077125332275 -10.106052795923922, -105.43957270195651 -10.599326631598467 M-106.09136582814826 -9.725983222076884 C-105.88208349951778 -10.006402476429361, -105.6728011708873 -10.286821730781838, -105.43957270195651 -10.599326631598467 M-105.43957270195651 -10.599326631598467 C-105.19997290365218 -10.880774188301471, -104.96037310534787 -11.162221745004475, -104.73316345028037 -11.42911513444238 M-105.43957270195651 -10.599326631598467 C-105.19135643364197 -10.890895584266499, -104.94314016532745 -11.18246453693453, -104.73316345028037 -11.42911513444238 M-104.73316345028037 -11.42911513444238 C-104.50143918679552 -11.66838946140633, -104.26971492331067 -11.907663788370279, -103.97504086025927 -12.21193895166136 M-104.73316345028037 -11.42911513444238 C-104.57213753929794 -11.595387608004895, -104.41111162831551 -11.761660081567408, -103.97504086025927 -12.21193895166136 M-103.97504086025927 -12.21193895166136 C-103.70290213966078 -12.459088137312936, -103.43076341906229 -12.70623732296451, -103.16832022023242 -12.944581292275274 M-103.97504086025927 -12.21193895166136 C-103.66913807937728 -12.489751763514333, -103.36323529849528 -12.767564575367306, -103.16832022023242 -12.944581292275274 M-103.16832022023242 -12.944581292275274 C-102.98312290517812 -13.092271222723548, -102.79792559012381 -13.239961153171825, -102.31631651835067 -13.624031571755259 M-103.16832022023242 -12.944581292275274 C-102.91983580043073 -13.142741004619001, -102.67135138062905 -13.340900716962729, -102.31631651835067 -13.624031571755259 M-102.31631651835067 -13.624031571755259 C-102.10685184161207 -13.770145062668403, -101.89738716487345 -13.916258553581546, -101.42253082057934 -14.247497783161284 M-102.31631651835067 -13.624031571755259 C-102.02769438651265 -13.825361876674748, -101.73907225467464 -14.026692181594237, -101.42253082057934 -14.247497783161284 M-101.42253082057934 -14.247497783161284 C-101.19798095445348 -14.383621231608265, -100.97343108832763 -14.519744680055245, -100.49063588406695 -14.812417970097618 M-101.42253082057934 -14.247497783161284 C-101.21781161627746 -14.371599767872668, -101.01309241197558 -14.495701752584054, -100.49063588406695 -14.812417970097618 M-100.49063588406695 -14.812417970097618 C-100.27115796264165 -14.926919461122878, -100.05168004121634 -15.041420952148139, -99.52446106499849 -15.316470754341124 M-100.49063588406695 -14.812417970097618 C-100.20417192618352 -14.961866033436483, -99.91770796830008 -15.111314096775347, -99.52446106499849 -15.316470754341124 M-99.52446106499849 -15.316470754341124 C-99.17138154768651 -15.472768582923388, -98.81830203037453 -15.629066411505654, -98.52797658294936 -15.757584874882365 M-99.52446106499849 -15.316470754341124 C-99.26052759138516 -15.433306273801428, -98.99659411777182 -15.550141793261732, -98.52797658294936 -15.757584874882365 M-98.52797658294936 -15.757584874882365 C-98.32169975222125 -15.83349665539243, -98.11542292149315 -15.909408435902495, -97.50527720640156 -16.133947699181363 M-98.52797658294936 -15.757584874882365 C-98.14383788972873 -15.89895146492671, -97.75969919650811 -16.040318054971056, -97.50527720640156 -16.133947699181363 M-97.50527720640156 -16.133947699181363 C-97.09547259125534 -16.25557555784844, -96.68566797610912 -16.377203416515517, -96.46056542646164 -16.444012671663494 M-97.50527720640156 -16.133947699181363 C-97.25294570241682 -16.20883836504894, -97.00061419843209 -16.283729030916515, -96.46056542646164 -16.444012671663494 M-96.46056542646164 -16.444012671663494 C-96.07575577859382 -16.531842962671696, -95.69094613072599 -16.6196732536799, -95.39813418792333 -16.68650566884811 M-96.46056542646164 -16.444012671663494 C-96.08321955183924 -16.530139405134104, -95.70587367721681 -16.616266138604715, -95.39813418792333 -16.68650566884811 M-95.39813418792333 -16.68650566884811 C-95.02576165080112 -16.746707972857877, -94.6533891136789 -16.80691027686764, -94.32234924863661 -16.86043023499518 M-95.39813418792333 -16.68650566884811 C-95.17447795102544 -16.72266467474974, -94.95082171412754 -16.758823680651368, -94.32234924863661 -16.86043023499518 M-94.32234924863661 -16.86043023499518 C-94.0994920587164 -16.8819290000818, -93.87663486879617 -16.90342776516842, -93.23763123967213 -16.965071676755716 M-94.32234924863661 -16.86043023499518 C-94.06904972542196 -16.884865735362453, -93.81575020220733 -16.90930123572972, -93.23763123967213 -16.965071676755716 M-93.23763123967213 -16.965071676755716 C-92.89699958161913 -16.975995071030177, -92.55636792356613 -16.986918465304633, -92.1484375 -17 M-93.23763123967213 -16.965071676755716 C-92.90569931092026 -16.975716087644486, -92.57376738216837 -16.98636049853325, -92.1484375 -17 M-92.1484375 -17 C-92.1484375 -17, -92.1484375 -17, -92.1484375 -17 M-92.1484375 -17 C-92.1484375 -17, -92.1484375 -17, -92.1484375 -17" stroke="#b85450" stroke-width="2" fill="none" stroke-dasharray="0 0" style="fill:#B43A3A !important;stroke:#b85450 !important;stroke-width:2px !important"></path></g><g class="label" style="color:#ffffff !important" transform="translate(0, -9.5)"><rect></rect><g><rect class="background" style="stroke: none"></rect><text y="-10.1" style="fill:#404040 !important"><tspan class="text-outer-tspan row" x="0" y="-0.1em" dy="1.1em"><tspan font-style="normal" class="text-inner-tspan" font-weight="normal">Choosing</tspan><tspan font-style="normal" class="text-inner-tspan" font-weight="normal"> an</tspan><tspan font-style="normal" class="text-inner-tspan" font-weight="normal"> eviction</tspan><tspan font-style="normal" class="text-inner-tspan" font-weight="normal"> policy</tspan></tspan></text></g></g></g><g class="node default question" id="g2529a416-43a6-4f37-8012-6a48cebe273e-dark-flowchart-Q1-1" data-look="classic" transform="translate(513.4703140258789, 117.79999923706055)"><polygon points="12.899999618530273,0 164.47812461853027,0 177.37812423706055,-25.799999237060547 164.47812461853027,-51.599998474121094 12.899999618530273,-51.599998474121094 0,-25.799999237060547" class="label-container" transform="translate(-88.68906211853027,25.799999237060547)" style="fill:#5A4D8B !important;stroke:#9673a6 !important;stroke-width:2px !important"></polygon><g class="label" style="color:#ffffff !important" transform="translate(0, -18.299999237060547)"><rect></rect><g><rect class="background" style="stroke: none"></rect><text y="-10.1" style="fill:#404040 !important"><tspan class="text-outer-tspan row" x="0" y="-0.1em" dy="1.1em"><tspan font-style="normal" class="text-inner-tspan" font-weight="normal">Frequent</tspan><tspan font-style="normal" class="text-inner-tspan" font-weight="normal"> full</tspan><tspan font-style="normal" class="text-inner-tspan" font-weight="normal"> scans</tspan></tspan><tspan class="text-outer-tspan row" x="0" y="1em" dy="1.1em"><tspan font-style="normal" class="text-inner-tspan" font-weight="normal">or</tspan><tspan font-style="normal" class="text-inner-tspan" font-weight="normal"> batch</tspan><tspan font-style="normal" class="text-inner-tspan" font-weight="normal"> jobs?</tspan></tspan></text></g></g></g><g class="node default question" id="g2529a416-43a6-4f37-8012-6a48cebe273e-dark-flowchart-Q2-2" data-look="classic" transform="translate(780.3648452758789, 242.39999771118164)"><polygon points="12.899999618530273,0 159.30624961853027,0 172.20624923706055,-25.799999237060547 159.30624961853027,-51.599998474121094 12.899999618530273,-51.599998474121094 0,-25.799999237060547" class="label-container" transform="translate(-86.10312461853027,25.799999237060547)" style="fill:#5A4D8B !important;stroke:#9673a6 !important;stroke-width:2px !important"></polygon><g class="label" style="color:#ffffff !important" transform="translate(0, -18.299999237060547)"><rect></rect><g><rect class="background" style="stroke: none"></rect><text y="-10.1" style="fill:#404040 !important"><tspan class="text-outer-tspan row" x="0" y="-0.1em" dy="1.1em"><tspan font-style="normal" class="text-inner-tspan" font-weight="normal">Workload</tspan><tspan font-style="normal" class="text-inner-tspan" font-weight="normal"> patterns</tspan></tspan><tspan class="text-outer-tspan row" x="0" y="1em" dy="1.1em"><tspan font-style="normal" class="text-inner-tspan" font-weight="normal">change</tspan><tspan font-style="normal" class="text-inner-tspan" font-weight="normal"> over</tspan><tspan font-style="normal" class="text-inner-tspan" font-weight="normal"> time?</tspan></tspan></text></g></g></g><g class="node default question" id="g2529a416-43a6-4f37-8012-6a48cebe273e-dark-flowchart-Q3-3" data-look="classic" transform="translate(847.8812522888184, 374.49999618530273)"><polygon points="12.899999618530273,0 160.07187461853027,0 172.97187423706055,-25.799999237060547 160.07187461853027,-51.599998474121094 12.899999618530273,-51.599998474121094 0,-25.799999237060547" class="label-container" transform="translate(-86.48593711853027,25.799999237060547)" style="fill:#5A4D8B !important;stroke:#9673a6 !important;stroke-width:2px !important"></polygon><g class="label" style="color:#ffffff !important" transform="translate(0, -18.299999237060547)"><rect></rect><g><rect class="background" style="stroke: none"></rect><text y="-10.1" style="fill:#404040 !important"><tspan class="text-outer-tspan row" x="0" y="-0.1em" dy="1.1em"><tspan font-style="normal" class="text-inner-tspan" font-weight="normal">Skewed</tspan><tspan font-style="normal" class="text-inner-tspan" font-weight="normal"> popularity</tspan></tspan><tspan class="text-outer-tspan row" x="0" y="1em" dy="1.1em"><tspan font-style="normal" class="text-inner-tspan" font-weight="normal">(Zipf-like)?</tspan></tspan></text></g></g></g><g class="node default question" id="g2529a416-43a6-4f37-8012-6a48cebe273e-dark-flowchart-Q4-4" data-look="classic" transform="translate(214.88750076293945, 242.39999771118164)"><polygon points="12.899999618530273,0 223.10312461853027,0 236.00312423706055,-25.799999237060547 223.10312461853027,-51.599998474121094 12.899999618530273,-51.599998474121094 0,-25.799999237060547" class="label-container" transform="translate(-118.00156211853027,25.799999237060547)" style="fill:#5A4D8B !important;stroke:#9673a6 !important;stroke-width:2px !important"></polygon><g class="label" style="color:#ffffff !important" transform="translate(0, -18.299999237060547)"><rect></rect><g><rect class="background" style="stroke: none"></rect><text y="-10.1" style="fill:#404040 !important"><tspan class="text-outer-tspan row" x="0" y="-0.1em" dy="1.1em"><tspan font-style="normal" class="text-inner-tspan" font-weight="normal">Need</tspan><tspan font-style="normal" class="text-inner-tspan" font-weight="normal"> maximum</tspan><tspan font-style="normal" class="text-inner-tspan" font-weight="normal"> throughput</tspan></tspan><tspan class="text-outer-tspan row" x="0" y="1em" dy="1.1em"><tspan font-style="normal" class="text-inner-tspan" font-weight="normal">and</tspan><tspan font-style="normal" class="text-inner-tspan" font-weight="normal"> minimal</tspan><tspan font-style="normal" class="text-inner-tspan" font-weight="normal"> overhead?</tspan></tspan></text></g></g></g><g class="node default question" id="g2529a416-43a6-4f37-8012-6a48cebe273e-dark-flowchart-Q5-5" data-look="classic" transform="translate(332.2750015258789, 374.49999618530273)"><polygon points="12.899999618530273,0 177.64999961853027,0 190.54999923706055,-25.799999237060547 177.64999961853027,-51.599998474121094 12.899999618530273,-51.599998474121094 0,-25.799999237060547" class="label-container" transform="translate(-95.27499961853027,25.799999237060547)" style="fill:#5A4D8B !important;stroke:#9673a6 !important;stroke-width:2px !important"></polygon><g class="label" style="color:#ffffff !important" transform="translate(0, -18.299999237060547)"><rect></rect><g><rect class="background" style="stroke: none"></rect><text y="-10.1" style="fill:#404040 !important"><tspan class="text-outer-tspan row" x="0" y="-0.1em" dy="1.1em"><tspan font-style="normal" class="text-inner-tspan" font-weight="normal">Memory</tspan><tspan font-style="normal" class="text-inner-tspan" font-weight="normal"> or</tspan><tspan font-style="normal" class="text-inner-tspan" font-weight="normal"> simplicity</tspan></tspan><tspan class="text-outer-tspan row" x="0" y="1em" dy="1.1em"><tspan font-style="normal" class="text-inner-tspan" font-weight="normal">matters</tspan><tspan font-style="normal" class="text-inner-tspan" font-weight="normal"> most?</tspan></tspan></text></g></g></g><g class="node default pick" id="g2529a416-43a6-4f37-8012-6a48cebe273e-dark-flowchart-ARC-13" data-look="classic" transform="translate(513.7132835388184, 514.0999946594238)"><rect class="basic label-container" style="fill:#2E5A88 !important;stroke:#6c8ebf !important;stroke-width:2px !important" x="-74.3125" y="-33.29999923706055" width="148.625" height="66.5999984741211"></rect><g class="label" style="color:#ffffff !important" transform="translate(0, -18.299999237060547)"><rect></rect><g><rect class="background" style="stroke: none"></rect><text y="-10.1" style="fill:#404040 !important"><tspan class="text-outer-tspan row" x="0" y="-0.1em" dy="1.1em"><tspan font-style="normal" class="text-inner-tspan" font-weight="normal">Pick</tspan><tspan font-style="normal" class="text-inner-tspan" font-weight="normal"> ARC</tspan></tspan><tspan class="text-outer-tspan row" x="0" y="1em" dy="1.1em"><tspan font-style="normal" class="text-inner-tspan" font-weight="normal">(self-tuning)</tspan></tspan></text></g></g></g><g class="node default pick" id="g2529a416-43a6-4f37-8012-6a48cebe273e-dark-flowchart-WTLFU-17" data-look="classic" transform="translate(728.7054710388184, 514.0999946594238)"><rect class="basic label-container" style="fill:#2E5A88 !important;stroke:#6c8ebf !important;stroke-width:2px !important" x="-90.6796875" y="-33.29999923706055" width="181.359375" height="66.5999984741211"></rect><g class="label" style="color:#ffffff !important" transform="translate(0, -18.299999237060547)"><rect></rect><g><rect class="background" style="stroke: none"></rect><text y="-10.1" style="fill:#404040 !important"><tspan class="text-outer-tspan row" x="0" y="-0.1em" dy="1.1em"><tspan font-style="normal" class="text-inner-tspan" font-weight="normal">Pick</tspan><tspan font-style="normal" class="text-inner-tspan" font-weight="normal"> W-TinyLFU</tspan></tspan><tspan class="text-outer-tspan row" x="0" y="1em" dy="1.1em"><tspan font-style="normal" class="text-inner-tspan" font-weight="normal">(Caffeine,</tspan><tspan font-style="normal" class="text-inner-tspan" font-weight="normal"> moka)</tspan></tspan></text></g></g></g><g class="node default pick" id="g2529a416-43a6-4f37-8012-6a48cebe273e-dark-flowchart-LRU-19" data-look="classic" transform="translate(967.0570335388184, 514.0999946594238)"><rect class="basic label-container" style="fill:#2E5A88 !important;stroke:#6c8ebf !important;stroke-width:2px !important" x="-97.671875" y="-33.29999923706055" width="195.34375" height="66.5999984741211"></rect><g class="label" style="color:#ffffff !important" transform="translate(0, -18.299999237060547)"><rect></rect><g><rect class="background" style="stroke: none"></rect><text y="-10.1" style="fill:#404040 !important"><tspan class="text-outer-tspan row" x="0" y="-0.1em" dy="1.1em"><tspan font-style="normal" class="text-inner-tspan" font-weight="normal">Pick</tspan><tspan font-style="normal" class="text-inner-tspan" font-weight="normal"> LRU</tspan></tspan><tspan class="text-outer-tspan row" x="0" y="1em" dy="1.1em"><tspan font-style="normal" class="text-inner-tspan" font-weight="normal">(simplest</tspan><tspan font-style="normal" class="text-inner-tspan" font-weight="normal"> baseline)</tspan></tspan></text></g></g></g><g class="node default pick" id="g2529a416-43a6-4f37-8012-6a48cebe273e-dark-flowchart-SIEVE-21" data-look="classic" transform="translate(97.5, 374.49999618530273)"><rect class="basic label-container" style="fill:#2E5A88 !important;stroke:#6c8ebf !important;stroke-width:2px !important" x="-89.5" y="-33.29999923706055" width="179" height="66.5999984741211"></rect><g class="label" style="color:#ffffff !important" transform="translate(0, -18.299999237060547)"><rect></rect><g><rect class="background" style="stroke: none"></rect><text y="-10.1" style="fill:#404040 !important"><tspan class="text-outer-tspan row" x="0" y="-0.1em" dy="1.1em"><tspan font-style="normal" class="text-inner-tspan" font-weight="normal">Pick</tspan><tspan font-style="normal" class="text-inner-tspan" font-weight="normal"> SIEVE</tspan></tspan><tspan class="text-outer-tspan row" x="0" y="1em" dy="1.1em"><tspan font-style="normal" class="text-inner-tspan" font-weight="normal">(lazy</tspan><tspan font-style="normal" class="text-inner-tspan" font-weight="normal"> promotion)</tspan></tspan></text></g></g></g><g class="node default pick" id="g2529a416-43a6-4f37-8012-6a48cebe273e-dark-flowchart-TWOQ-25" data-look="classic" transform="translate(294.65859603881836, 514.0999946594238)"><rect class="basic label-container" style="fill:#2E5A88 !important;stroke:#6c8ebf !important;stroke-width:2px !important" x="-94.7421875" y="-33.29999923706055" width="189.484375" height="66.5999984741211"></rect><g class="label" style="color:#ffffff !important" transform="translate(0, -18.299999237060547)"><rect></rect><g><rect class="background" style="stroke: none"></rect><text y="-10.1" style="fill:#404040 !important"><tspan class="text-outer-tspan row" x="0" y="-0.1em" dy="1.1em"><tspan font-style="normal" class="text-inner-tspan" font-weight="normal">Pick</tspan><tspan font-style="normal" class="text-inner-tspan" font-weight="normal"> 2Q</tspan></tspan><tspan class="text-outer-tspan row" x="0" y="1em" dy="1.1em"><tspan font-style="normal" class="text-inner-tspan" font-weight="normal">(O(1),</tspan><tspan font-style="normal" class="text-inner-tspan" font-weight="normal"> no</tspan><tspan font-style="normal" class="text-inner-tspan" font-weight="normal"> patents)</tspan></tspan></text></g></g></g></g></g></g><defs><filter id="g2529a416-43a6-4f37-8012-6a48cebe273e-dark-drop-shadow" height="130%" width="130%"><feDropShadow dx="4" dy="4" stdDeviation="0" flood-opacity="0.06" flood-color="#000000"></feDropShadow></filter></defs><defs><filter id="g2529a416-43a6-4f37-8012-6a48cebe273e-dark-drop-shadow-small" height="150%" width="150%"><feDropShadow dx="2" dy="2" stdDeviation="0" flood-opacity="0.06" flood-color="#000000"></feDropShadow></filter></defs><linearGradient id="g2529a416-43a6-4f37-8012-6a48cebe273e-dark-gradient" gradientUnits="objectBoundingBox" x1="0%" y1="0%" x2="100%" y2="0%"><stop offset="0%" stop-color="#555555" stop-opacity="1"></stop><stop offset="100%" stop-color="#555555" stop-opacity="1"></stop></linearGradient></svg>