<svg id="g7ade1b60-0caf-4db6-a010-937270dbd2b7-light" width="100%" xmlns="http://www.w3.org/2000/svg" xmlns:xlink="http://www.w3.org/1999/xlink" class="flowchart" style="max-width: 559.171875px;" viewBox="0 0 559.171875 997.5812377929688" role="graphics-document document" aria-roledescription="flowchart-v2"><style>#g7ade1b60-0caf-4db6-a010-937270dbd2b7-light{font-family:"trebuchet ms",verdana,arial,sans-serif;font-size:16px;fill:#333;}@keyframes edge-animation-frame{from{stroke-dashoffset:0;}}@keyframes dash{to{stroke-dashoffset:0;}}#g7ade1b60-0caf-4db6-a010-937270dbd2b7-light .edge-animation-slow{stroke-dasharray:9,5!important;stroke-dashoffset:900;animation:dash 50s linear infinite;stroke-linecap:round;}#g7ade1b60-0caf-4db6-a010-937270dbd2b7-light .edge-animation-fast{stroke-dasharray:9,5!important;stroke-dashoffset:900;animation:dash 20s linear infinite;stroke-linecap:round;}#g7ade1b60-0caf-4db6-a010-937270dbd2b7-light .error-icon{fill:#552222;}#g7ade1b60-0caf-4db6-a010-937270dbd2b7-light .error-text{fill:#552222;stroke:#552222;}#g7ade1b60-0caf-4db6-a010-937270dbd2b7-light .edge-thickness-normal{stroke-width:1px;}#g7ade1b60-0caf-4db6-a010-937270dbd2b7-light .edge-thickness-thick{stroke-width:3.5px;}#g7ade1b60-0caf-4db6-a010-937270dbd2b7-light .edge-pattern-solid{stroke-dasharray:0;}#g7ade1b60-0caf-4db6-a010-937270dbd2b7-light .edge-thickness-invisible{stroke-width:0;fill:none;}#g7ade1b60-0caf-4db6-a010-937270dbd2b7-light .edge-pattern-dashed{stroke-dasharray:3;}#g7ade1b60-0caf-4db6-a010-937270dbd2b7-light .edge-pattern-dotted{stroke-dasharray:2;}#g7ade1b60-0caf-4db6-a010-937270dbd2b7-light .marker{fill:#333333;stroke:#333333;}#g7ade1b60-0caf-4db6-a010-937270dbd2b7-light .marker.cross{stroke:#333333;}#g7ade1b60-0caf-4db6-a010-937270dbd2b7-light svg{font-family:"trebuchet ms",verdana,arial,sans-serif;font-size:16px;}#g7ade1b60-0caf-4db6-a010-937270dbd2b7-light p{margin:0;}#g7ade1b60-0caf-4db6-a010-937270dbd2b7-light .label{font-family:"trebuchet ms",verdana,arial,sans-serif;color:#333;}#g7ade1b60-0caf-4db6-a010-937270dbd2b7-light .cluster-label text{fill:#333;}#g7ade1b60-0caf-4db6-a010-937270dbd2b7-light .cluster-label span{color:#333;}#g7ade1b60-0caf-4db6-a010-937270dbd2b7-light .cluster-label span p{background-color:transparent;}#g7ade1b60-0caf-4db6-a010-937270dbd2b7-light .label text,#g7ade1b60-0caf-4db6-a010-937270dbd2b7-light span{fill:#333;color:#333;}#g7ade1b60-0caf-4db6-a010-937270dbd2b7-light .node rect,#g7ade1b60-0caf-4db6-a010-937270dbd2b7-light .node circle,#g7ade1b60-0caf-4db6-a010-937270dbd2b7-light .node ellipse,#g7ade1b60-0caf-4db6-a010-937270dbd2b7-light .node polygon,#g7ade1b60-0caf-4db6-a010-937270dbd2b7-light .node path{fill:#ECECFF;stroke:#9370DB;stroke-width:1px;}#g7ade1b60-0caf-4db6-a010-937270dbd2b7-light .rough-node .label text,#g7ade1b60-0caf-4db6-a010-937270dbd2b7-light .node .label text,#g7ade1b60-0caf-4db6-a010-937270dbd2b7-light .image-shape .label,#g7ade1b60-0caf-4db6-a010-937270dbd2b7-light .icon-shape .label{text-anchor:middle;}#g7ade1b60-0caf-4db6-a010-937270dbd2b7-light .node .katex path{fill:#000;stroke:#000;stroke-width:1px;}#g7ade1b60-0caf-4db6-a010-937270dbd2b7-light .rough-node .label,#g7ade1b60-0caf-4db6-a010-937270dbd2b7-light .node .label,#g7ade1b60-0caf-4db6-a010-937270dbd2b7-light .image-shape .label,#g7ade1b60-0caf-4db6-a010-937270dbd2b7-light .icon-shape .label{text-align:center;}#g7ade1b60-0caf-4db6-a010-937270dbd2b7-light .node.clickable{cursor:pointer;}#g7ade1b60-0caf-4db6-a010-937270dbd2b7-light .root .anchor path{fill:#333333!important;stroke-width:0;stroke:#333333;}#g7ade1b60-0caf-4db6-a010-937270dbd2b7-light .arrowheadPath{fill:#333333;}#g7ade1b60-0caf-4db6-a010-937270dbd2b7-light .edgePath .path{stroke:#333333;stroke-width:1px;}#g7ade1b60-0caf-4db6-a010-937270dbd2b7-light .flowchart-link{stroke:#333333;fill:none;}#g7ade1b60-0caf-4db6-a010-937270dbd2b7-light .edgeLabel{background-color:rgba(232,232,232, 0.8);text-align:center;}#g7ade1b60-0caf-4db6-a010-937270dbd2b7-light .edgeLabel p{background-color:rgba(232,232,232, 0.8);}#g7ade1b60-0caf-4db6-a010-937270dbd2b7-light .edgeLabel rect{opacity:0.5;background-color:rgba(232,232,232, 0.8);fill:rgba(232,232,232, 0.8);}#g7ade1b60-0caf-4db6-a010-937270dbd2b7-light .labelBkg{background-color:rgba(232, 232, 232, 0.5);}#g7ade1b60-0caf-4db6-a010-937270dbd2b7-light .cluster rect{fill:#ffffde;stroke:#aaaa33;stroke-width:1px;}#g7ade1b60-0caf-4db6-a010-937270dbd2b7-light .cluster text{fill:#333;}#g7ade1b60-0caf-4db6-a010-937270dbd2b7-light .cluster span{color:#333;}#g7ade1b60-0caf-4db6-a010-937270dbd2b7-light div.mermaidTooltip{position:absolute;text-align:center;max-width:200px;padding:2px;font-family:"trebuchet ms",verdana,arial,sans-serif;font-size:12px;background:hsl(80, 100%, 96.2745098039%);border:1px solid #aaaa33;border-radius:2px;pointer-events:none;z-index:100;}#g7ade1b60-0caf-4db6-a010-937270dbd2b7-light .flowchartTitleText{text-anchor:middle;font-size:18px;fill:#333;}#g7ade1b60-0caf-4db6-a010-937270dbd2b7-light rect.text{fill:none;stroke-width:0;}#g7ade1b60-0caf-4db6-a010-937270dbd2b7-light .icon-shape,#g7ade1b60-0caf-4db6-a010-937270dbd2b7-light .image-shape{background-color:rgba(232,232,232, 0.8);text-align:center;}#g7ade1b60-0caf-4db6-a010-937270dbd2b7-light .icon-shape p,#g7ade1b60-0caf-4db6-a010-937270dbd2b7-light .image-shape p{background-color:rgba(232,232,232, 0.8);padding:2px;}#g7ade1b60-0caf-4db6-a010-937270dbd2b7-light .icon-shape .label rect,#g7ade1b60-0caf-4db6-a010-937270dbd2b7-light .image-shape .label rect{opacity:0.5;background-color:rgba(232,232,232, 0.8);fill:rgba(232,232,232, 0.8);}#g7ade1b60-0caf-4db6-a010-937270dbd2b7-light .label-icon{display:inline-block;height:1em;overflow:visible;vertical-align:-0.125em;}#g7ade1b60-0caf-4db6-a010-937270dbd2b7-light .node .label-icon path{fill:currentColor;stroke:revert;stroke-width:revert;}#g7ade1b60-0caf-4db6-a010-937270dbd2b7-light .node .neo-node{stroke:#9370DB;}#g7ade1b60-0caf-4db6-a010-937270dbd2b7-light [data-look="neo"].node rect,#g7ade1b60-0caf-4db6-a010-937270dbd2b7-light [data-look="neo"].cluster rect,#g7ade1b60-0caf-4db6-a010-937270dbd2b7-light [data-look="neo"].node polygon{stroke:#9370DB;filter:drop-shadow(1px 2px 2px rgba(185, 185, 185, 1));}#g7ade1b60-0caf-4db6-a010-937270dbd2b7-light [data-look="neo"].node path{stroke:#9370DB;stroke-width:1px;}#g7ade1b60-0caf-4db6-a010-937270dbd2b7-light [data-look="neo"].node .outer-path{filter:drop-shadow(1px 2px 2px rgba(185, 185, 185, 1));}#g7ade1b60-0caf-4db6-a010-937270dbd2b7-light [data-look="neo"].node .neo-line path{stroke:#9370DB;filter:none;}#g7ade1b60-0caf-4db6-a010-937270dbd2b7-light [data-look="neo"].node circle{stroke:#9370DB;filter:drop-shadow(1px 2px 2px rgba(185, 185, 185, 1));}#g7ade1b60-0caf-4db6-a010-937270dbd2b7-light [data-look="neo"].node circle .state-start{fill:#000000;}#g7ade1b60-0caf-4db6-a010-937270dbd2b7-light [data-look="neo"].icon-shape .icon{fill:#9370DB;filter:drop-shadow(1px 2px 2px rgba(185, 185, 185, 1));}#g7ade1b60-0caf-4db6-a010-937270dbd2b7-light [data-look="neo"].icon-shape .icon-neo path{stroke:#9370DB;filter:drop-shadow(1px 2px 2px rgba(185, 185, 185, 1));}#g7ade1b60-0caf-4db6-a010-937270dbd2b7-light :root{--mermaid-font-family:"trebuchet ms",verdana,arial,sans-serif;}</style><g><marker id="g7ade1b60-0caf-4db6-a010-937270dbd2b7-light_flowchart-v2-pointEnd" class="marker flowchart-v2" viewBox="0 0 10 10" refX="5" refY="5" markerUnits="userSpaceOnUse" markerWidth="8" markerHeight="8" orient="auto"><path d="M 0 0 L 10 5 L 0 10 z" class="arrowMarkerPath" style="stroke-width: 1; stroke-dasharray: 1, 0;"></path></marker><marker id="g7ade1b60-0caf-4db6-a010-937270dbd2b7-light_flowchart-v2-pointStart" class="marker flowchart-v2" viewBox="0 0 10 10" refX="4.5" refY="5" markerUnits="userSpaceOnUse" markerWidth="8" markerHeight="8" orient="auto"><path d="M 0 5 L 10 10 L 10 0 z" class="arrowMarkerPath" style="stroke-width: 1; stroke-dasharray: 1, 0;"></path></marker><marker id="g7ade1b60-0caf-4db6-a010-937270dbd2b7-light_flowchart-v2-pointEnd-margin" class="marker flowchart-v2" viewBox="0 0 11.5 14" refX="11.5" refY="7" markerUnits="userSpaceOnUse" markerWidth="10.5" markerHeight="14" orient="auto"><path d="M 0 0 L 11.5 7 L 0 14 z" class="arrowMarkerPath" style="stroke-width: 0; stroke-dasharray: 1, 0;"></path></marker><marker id="g7ade1b60-0caf-4db6-a010-937270dbd2b7-light_flowchart-v2-pointStart-margin" class="marker flowchart-v2" viewBox="0 0 11.5 14" refX="1" refY="7" markerUnits="userSpaceOnUse" markerWidth="11.5" markerHeight="14" orient="auto"><polygon points="0,7 11.5,14 11.5,0" class="arrowMarkerPath" style="stroke-width: 0; stroke-dasharray: 1, 0;"></polygon></marker><marker id="g7ade1b60-0caf-4db6-a010-937270dbd2b7-light_flowchart-v2-circleEnd" class="marker flowchart-v2" viewBox="0 0 10 10" refX="11" refY="5" markerUnits="userSpaceOnUse" markerWidth="11" markerHeight="11" orient="auto"><circle cx="5" cy="5" r="5" class="arrowMarkerPath" style="stroke-width: 1; stroke-dasharray: 1, 0;"></circle></marker><marker id="g7ade1b60-0caf-4db6-a010-937270dbd2b7-light_flowchart-v2-circleStart" class="marker flowchart-v2" viewBox="0 0 10 10" refX="-1" refY="5" markerUnits="userSpaceOnUse" markerWidth="11" markerHeight="11" orient="auto"><circle cx="5" cy="5" r="5" class="arrowMarkerPath" style="stroke-width: 1; stroke-dasharray: 1, 0;"></circle></marker><marker id="g7ade1b60-0caf-4db6-a010-937270dbd2b7-light_flowchart-v2-circleEnd-margin" class="marker flowchart-v2" viewBox="0 0 10 10" refY="5" refX="12.25" markerUnits="userSpaceOnUse" markerWidth="14" markerHeight="14" orient="auto"><circle cx="5" cy="5" r="5" class="arrowMarkerPath" style="stroke-width: 0; stroke-dasharray: 1, 0;"></circle></marker><marker id="g7ade1b60-0caf-4db6-a010-937270dbd2b7-light_flowchart-v2-circleStart-margin" class="marker flowchart-v2" viewBox="0 0 10 10" refX="-2" refY="5" markerUnits="userSpaceOnUse" markerWidth="14" markerHeight="14" orient="auto"><circle cx="5" cy="5" r="5" class="arrowMarkerPath" style="stroke-width: 0; stroke-dasharray: 1, 0;"></circle></marker><marker id="g7ade1b60-0caf-4db6-a010-937270dbd2b7-light_flowchart-v2-crossEnd" class="marker cross flowchart-v2" viewBox="0 0 11 11" refX="12" refY="5.2" markerUnits="userSpaceOnUse" markerWidth="11" markerHeight="11" orient="auto"><path d="M 1,1 l 9,9 M 10,1 l -9,9" class="arrowMarkerPath" style="stroke-width: 2; stroke-dasharray: 1, 0;"></path></marker><marker id="g7ade1b60-0caf-4db6-a010-937270dbd2b7-light_flowchart-v2-crossStart" class="marker cross flowchart-v2" viewBox="0 0 11 11" refX="-1" refY="5.2" markerUnits="userSpaceOnUse" markerWidth="11" markerHeight="11" orient="auto"><path d="M 1,1 l 9,9 M 10,1 l -9,9" class="arrowMarkerPath" style="stroke-width: 2; stroke-dasharray: 1, 0;"></path></marker><marker id="g7ade1b60-0caf-4db6-a010-937270dbd2b7-light_flowchart-v2-crossEnd-margin" class="marker cross flowchart-v2" viewBox="0 0 15 15" refX="17.7" refY="7.5" markerUnits="userSpaceOnUse" markerWidth="12" markerHeight="12" orient="auto"><path d="M 1,1 L 14,14 M 1,14 L 14,1" class="arrowMarkerPath" style="stroke-width: 2.5;"></path></marker><marker id="g7ade1b60-0caf-4db6-a010-937270dbd2b7-light_flowchart-v2-crossStart-margin" class="marker cross flowchart-v2" viewBox="0 0 15 15" refX="-3.5" refY="7.5" markerUnits="userSpaceOnUse" markerWidth="12" markerHeight="12" orient="auto"><path d="M 1,1 L 14,14 M 1,14 L 14,1" class="arrowMarkerPath" style="stroke-width: 2.5; stroke-dasharray: 1, 0;"></path></marker><g class="root"><g class="clusters"></g><g class="edgePaths"><path d="M280.965,42.5L280.882,46.583C280.798,50.667,280.632,58.833,280.548,66.417C280.465,74,280.465,81,280.465,84.5L280.465,88" id="g7ade1b60-0caf-4db6-a010-937270dbd2b7-light-L_Start_Q1_0" class="edge-thickness-normal edge-pattern-solid edge-thickness-normal edge-pattern-solid flowchart-link" style=";" data-edge="true" data-et="edge" data-id="L_Start_Q1_0" data-points="W3sieCI6MjgwLjk2NDg0Mzc1LCJ5Ijo0Mi41fSx7IngiOjI4MC40NjQ4NDM3NSwieSI6Njd9LHsieCI6MjgwLjQ2NDg0Mzc1LCJ5Ijo5MS45OTk5OTk5OTk5OTk5OX1d" data-look="classic" marker-end="url(#g7ade1b60-0caf-4db6-a010-937270dbd2b7-light_flowchart-v2-pointEnd)"></path><path d="M230.152,257.444L217.506,271.912C204.861,286.381,179.569,315.319,166.923,335.204C154.277,355.09,154.277,365.923,154.277,371.34L154.277,376.756" id="g7ade1b60-0caf-4db6-a010-937270dbd2b7-light-L_Q1_Q2_0" class="edge-thickness-normal edge-pattern-solid edge-thickness-normal edge-pattern-solid flowchart-link" style=";" data-edge="true" data-et="edge" data-id="L_Q1_Q2_0" data-points="W3sieCI6MjMwLjE1MjIwNDk5MTQzNjU4LCJ5IjoyNTcuNDQzNjAyMDg2MTYzMX0seyJ4IjoxNTQuMjc3MzQzNzUsInkiOjM0NC4yNTYyNDA4NDQ3MjY1Nn0seyJ4IjoxNTQuMjc3MzQzNzUsInkiOjM4MC43NTYyNDA4NDQ3MjY1Nn1d" data-look="classic" marker-end="url(#g7ade1b60-0caf-4db6-a010-937270dbd2b7-light_flowchart-v2-pointEnd)"></path><path d="M337.775,250.447L355.494,266.082C373.213,281.716,408.651,312.986,426.371,349.973C444.09,386.96,444.09,429.665,444.09,472.369C444.09,515.073,444.09,557.777,442.723,584.566C441.357,611.355,438.624,622.228,437.257,627.665L435.891,633.102" id="g7ade1b60-0caf-4db6-a010-937270dbd2b7-light-L_Q1_NonHOT_0" class="edge-thickness-normal edge-pattern-solid edge-thickness-normal edge-pattern-solid flowchart-link" style=";" data-edge="true" data-et="edge" data-id="L_Q1_NonHOT_0" data-points="W3sieCI6MzM3Ljc3NDUxNDYwNjI2ODI3LCJ5IjoyNTAuNDQ2NTY5OTg4NDU4MzV9LHsieCI6NDQ0LjA4OTg0Mzc1LCJ5IjozNDQuMjU2MjQwODQ0NzI2NTZ9LHsieCI6NDQ0LjA4OTg0Mzc1LCJ5Ijo0NzIuMzY4NzQzODk2NDg0NH0seyJ4Ijo0NDQuMDg5ODQzNzUsInkiOjYwMC40ODEyNDY5NDgyNDIyfSx7IngiOjQzNC45MTU3NTk0Nzc0NTksInkiOjYzNi45ODEyNDY5NDgyNDIyfV0=" data-look="classic" marker-end="url(#g7ade1b60-0caf-4db6-a010-937270dbd2b7-light_flowchart-v2-pointEnd)"></path><path d="M140.796,550.5L139.359,558.83C137.921,567.16,135.047,583.821,133.609,597.568C132.172,611.315,132.172,622.148,132.172,627.565L132.172,632.981" id="g7ade1b60-0caf-4db6-a010-937270dbd2b7-light-L_Q2_HOT_0" class="edge-thickness-normal edge-pattern-solid edge-thickness-normal edge-pattern-solid flowchart-link" style=";" data-edge="true" data-et="edge" data-id="L_Q2_HOT_0" data-points="W3sieCI6MTQwLjc5NjAxODU4NjEwNzY0LCJ5Ijo1NTAuNDk5OTIxNzg0MzQ5OH0seyJ4IjoxMzIuMTcxODc1LCJ5Ijo2MDAuNDgxMjQ2OTQ4MjQyMn0seyJ4IjoxMzIuMTcxODc1LCJ5Ijo2MzYuOTgxMjQ2OTQ4MjQyMn1d" data-look="classic" marker-end="url(#g7ade1b60-0caf-4db6-a010-937270dbd2b7-light_flowchart-v2-pointEnd)"></path><path d="M203.428,514.831L219.952,529.106C236.475,543.381,269.523,571.931,298.031,591.999C326.538,612.068,350.507,623.654,362.491,629.447L374.475,635.24" id="g7ade1b60-0caf-4db6-a010-937270dbd2b7-light-L_Q2_NonHOT_0" class="edge-thickness-normal edge-pattern-solid edge-thickness-normal edge-pattern-solid flowchart-link" style=";" data-edge="true" data-et="edge" data-id="L_Q2_NonHOT_0" data-points="W3sieCI6MjAzLjQyNzkyNjYzNjgyMjYsInkiOjUxNC44MzA2NjQwNjE0MTk2fSx7IngiOjMwMi41NzAzMTI1LCJ5Ijo2MDAuNDgxMjQ2OTQ4MjQyMn0seyJ4IjozNzguMDc1OTQ3NzQ1OTAxNjYsInkiOjYzNi45ODEyNDY5NDgyNDIyfV0=" data-look="classic" marker-end="url(#g7ade1b60-0caf-4db6-a010-937270dbd2b7-light_flowchart-v2-pointEnd)"></path><path d="M132.172,685.981L132.172,690.148C132.172,694.315,132.172,702.648,132.172,713.248C132.172,723.848,132.172,736.715,132.172,743.148L132.172,749.581" id="g7ade1b60-0caf-4db6-a010-937270dbd2b7-light-L_HOT_HOTSteps_0" class="edge-thickness-normal edge-pattern-solid edge-thickness-normal edge-pattern-solid flowchart-link" style=";" data-edge="true" data-et="edge" data-id="L_HOT_HOTSteps_0" data-points="W3sieCI6MTMyLjE3MTg3NSwieSI6Njg1Ljk4MTI0Njk0ODI0MjJ9LHsieCI6MTMyLjE3MTg3NSwieSI6NzEwLjk4MTI0Njk0ODI0MjJ9LHsieCI6MTMyLjE3MTg3NSwieSI6NzUzLjU4MTI0NTQyMjM2MzN9XQ==" data-look="classic" marker-end="url(#g7ade1b60-0caf-4db6-a010-937270dbd2b7-light_flowchart-v2-pointEnd)"></path><path d="M132.172,855.381L132.172,862.481C132.172,869.581,132.172,883.781,132.172,895.848C132.172,907.915,132.172,917.848,132.172,922.815L132.172,927.781" id="g7ade1b60-0caf-4db6-a010-937270dbd2b7-light-L_HOTSteps_Cheap_0" class="edge-thickness-normal edge-pattern-solid edge-thickness-normal edge-pattern-solid flowchart-link" style=";" data-edge="true" data-et="edge" data-id="L_HOTSteps_Cheap_0" data-points="W3sieCI6MTMyLjE3MTg3NSwieSI6ODU1LjM4MTI0ODQ3NDEyMTF9LHsieCI6MTMyLjE3MTg3NSwieSI6ODk3Ljk4MTI0Njk0ODI0MjJ9LHsieCI6MTMyLjE3MTg3NSwieSI6OTMxLjc4MTI0NjE4NTMwMjd9XQ==" data-look="classic" marker-end="url(#g7ade1b60-0caf-4db6-a010-937270dbd2b7-light_flowchart-v2-pointEnd)"></path><path d="M428.758,685.981L428.758,690.148C428.758,694.315,428.758,702.648,428.758,710.315C428.758,717.981,428.758,724.981,428.758,728.481L428.758,731.981" id="g7ade1b60-0caf-4db6-a010-937270dbd2b7-light-L_NonHOT_NonHOTSteps_0" class="edge-thickness-normal edge-pattern-solid edge-thickness-normal edge-pattern-solid flowchart-link" style=";" data-edge="true" data-et="edge" data-id="L_NonHOT_NonHOTSteps_0" data-points="W3sieCI6NDI4Ljc1NzgxMjUsInkiOjY4NS45ODEyNDY5NDgyNDIyfSx7IngiOjQyOC43NTc4MTI1LCJ5Ijo3MTAuOTgxMjQ2OTQ4MjQyMn0seyJ4Ijo0MjguNzU3ODEyNSwieSI6NzM1Ljk4MTI0Njk0ODI0MjJ9XQ==" data-look="classic" marker-end="url(#g7ade1b60-0caf-4db6-a010-937270dbd2b7-light_flowchart-v2-pointEnd)"></path><path d="M428.758,872.981L428.758,877.148C428.758,881.315,428.758,889.648,428.758,897.315C428.758,904.981,428.758,911.981,428.758,915.481L428.758,918.981" id="g7ade1b60-0caf-4db6-a010-937270dbd2b7-light-L_NonHOTSteps_WriteAmp_0" class="edge-thickness-normal edge-pattern-solid edge-thickness-normal edge-pattern-solid flowchart-link" style=";" data-edge="true" data-et="edge" data-id="L_NonHOTSteps_WriteAmp_0" data-points="W3sieCI6NDI4Ljc1NzgxMjUsInkiOjg3Mi45ODEyNDY5NDgyNDIyfSx7IngiOjQyOC43NTc4MTI1LCJ5Ijo4OTcuOTgxMjQ2OTQ4MjQyMn0seyJ4Ijo0MjguNzU3ODEyNSwieSI6OTIyLjk4MTI0Njk0ODI0MjJ9XQ==" data-look="classic" marker-end="url(#g7ade1b60-0caf-4db6-a010-937270dbd2b7-light_flowchart-v2-pointEnd)"></path></g><g class="edgeLabels"><g class="edgeLabel"><g class="label" data-id="L_Start_Q1_0" transform="translate(0, 0)"><text y="-10.1" text-anchor="middle"><tspan class="text-outer-tspan row" x="0" y="-0.1em" dy="1.1em" text-anchor="middle"></tspan></text></g></g><g><rect class="background" style="stroke: none"></rect></g><g class="edgeLabel" transform="translate(154.27734375, 344.25624084472656)"><g class="label" data-id="L_Q1_Q2_0" transform="translate(0, -10.5)"><g><rect class="background" style="" x="-10.6640625" y="-1" width="21.328125" height="23"></rect><text y="-10.1" text-anchor="middle" style=""><tspan class="text-outer-tspan row" x="0" y="-0.1em" dy="1.1em" text-anchor="middle"><tspan font-style="normal" class="text-inner-tspan" font-weight="normal">no</tspan></tspan></text></g></g></g><g class="edgeLabel" transform="translate(444.08984375, 472.3687438964844)"><g class="label" data-id="L_Q1_NonHOT_0" transform="translate(0, -10.5)"><g><rect class="background" style="" x="-13.546875" y="-1" width="27.09375" height="23"></rect><text y="-10.1" text-anchor="middle" style=""><tspan class="text-outer-tspan row" x="0" y="-0.1em" dy="1.1em" text-anchor="middle"><tspan font-style="normal" class="text-inner-tspan" font-weight="normal">yes</tspan></tspan></text></g></g></g><g class="edgeLabel" transform="translate(132.171875, 600.4812469482422)"><g class="label" data-id="L_Q2_HOT_0" transform="translate(0, -10.5)"><g><rect class="background" style="" x="-13.546875" y="-1" width="27.09375" height="23"></rect><text y="-10.1" text-anchor="middle" style=""><tspan class="text-outer-tspan row" x="0" y="-0.1em" dy="1.1em" text-anchor="middle"><tspan font-style="normal" class="text-inner-tspan" font-weight="normal">yes</tspan></tspan></text></g></g></g><g class="edgeLabel" transform="translate(284.73026, 585.06896)"><g class="label" data-id="L_Q2_NonHOT_0" transform="translate(0, -10.5)"><g><rect class="background" style="" x="-10.6640625" y="-1" width="21.328125" height="23"></rect><text y="-10.1" text-anchor="middle" style=""><tspan class="text-outer-tspan row" x="0" y="-0.1em" dy="1.1em" text-anchor="middle"><tspan font-style="normal" class="text-inner-tspan" font-weight="normal">no</tspan></tspan></text></g></g></g><g class="edgeLabel"><g class="label" data-id="L_HOT_HOTSteps_0" transform="translate(0, 0)"><text y="-10.1" text-anchor="middle"><tspan class="text-outer-tspan row" x="0" y="-0.1em" dy="1.1em" text-anchor="middle"></tspan></text></g></g><g><rect class="background" style="stroke: none"></rect></g><g class="edgeLabel"><g class="label" data-id="L_HOTSteps_Cheap_0" transform="translate(0, 0)"><text y="-10.1" text-anchor="middle"><tspan class="text-outer-tspan row" x="0" y="-0.1em" dy="1.1em" text-anchor="middle"></tspan></text></g></g><g><rect class="background" style="stroke: none"></rect></g><g class="edgeLabel"><g class="label" data-id="L_NonHOT_NonHOTSteps_0" transform="translate(0, 0)"><text y="-10.1" text-anchor="middle"><tspan class="text-outer-tspan row" x="0" y="-0.1em" dy="1.1em" text-anchor="middle"></tspan></text></g></g><g><rect class="background" style="stroke: none"></rect></g><g class="edgeLabel"><g class="label" data-id="L_NonHOTSteps_WriteAmp_0" transform="translate(0, 0)"><text y="-10.1" text-anchor="middle"><tspan class="text-outer-tspan row" x="0" y="-0.1em" dy="1.1em" text-anchor="middle"></tspan></text></g></g><g><rect class="background" style="stroke: none"></rect></g></g><g class="nodes"><g class="node default" id="g7ade1b60-0caf-4db6-a010-937270dbd2b7-light-flowchart-Start-0" data-look="classic" transform="translate(280.46484375, 25)"><g class="basic label-container outer-path"><path d="M-55.640625 -17 C-27.979748198059063 -17, -0.3188713961181264 -17, 55.640625 -17 C55.640625 -17, 55.640625 -17, 55.640625 -17 C55.961808620473214 -16.989700266437417, 56.28299224094642 -16.97940053287483, 56.72981873967212 -16.965071676755716 C57.13167074533103 -16.92630549706755, 57.533522750989945 -16.887539317379378, 57.8145367486366 -16.860430234995185 C58.13332618202571 -16.808890831653812, 58.452115615414826 -16.75735142831244, 58.890321687923326 -16.686505668848113 C59.30716586070112 -16.591363706574022, 59.724010033478905 -16.49622174429993, 59.95275292646162 -16.4440126716635 C60.26228994162353 -16.352143710356398, 60.57182695678543 -16.26027474904929, 60.99746470640155 -16.133947699181366 C61.40326146587332 -15.984610740551632, 61.80905822534508 -15.835273781921897, 62.02016408294936 -15.757584874882369 C62.260057467147824 -15.651391189882112, 62.49995085134629 -15.545197504881855, 63.01664856499849 -15.316470754341125 C63.25569868221605 -15.19175846130763, 63.494748799433616 -15.067046168274137, 63.98282338406694 -14.812417970097622 C64.31151112646155 -14.613165529074433, 64.64019886885616 -14.413913088051244, 64.91471832057933 -14.247497783161291 C65.11334403457664 -14.108945083445338, 65.31196974857397 -13.970392383729385, 65.80850401835067 -13.624031571755262 C65.98987014656947 -13.479396910856142, 66.17123627478826 -13.334762249957022, 66.6605077202324 -12.944581292275288 C66.94142944750605 -12.689455612346954, 67.22235117477972 -12.43432993241862, 67.46722836025927 -12.21193895166137 C67.73570244800405 -11.934717413932349, 68.00417653574884 -11.657495876203328, 68.22535095028036 -11.42911513444239 C68.38179932984944 -11.245341965635559, 68.53824770941853 -11.061568796828727, 68.93176020195651 -10.59932663159847 C69.07988887377188 -10.400847706165495, 69.22801754558724 -10.202368780732519, 69.58355332814824 -9.725983222076888 C69.81001935601948 -9.378070588623329, 70.03648538389072 -9.030157955169772, 70.17805197109088 -8.812673661278927 C70.35424501834146 -8.499825064404826, 70.53043806559204 -8.186976467530725, 70.712813208341 -7.863150934094199 C70.8732018001884 -7.530100591356984, 71.03359039203579 -7.197050248619768, 71.18563959126881 -6.881316833080699 C71.2701557745977 -6.672560226249115, 71.35467195792657 -6.463803619417531, 71.59458817484592 -5.871205925162238 C71.67154992870344 -5.639409384733621, 71.74851168256097 -5.407612844305004, 71.93797850162323 -4.836968972727556 C72.00972212436494 -4.5633794453306145, 72.08146574710666 -4.289789917933673, 72.214399507091 -3.7828558772573464 C72.28392974781318 -3.42583278637058, 72.35345998853533 -3.0688096954838135, 72.42271531804565 -2.713198215567453 C72.46685996405185 -2.370821058489738, 72.51100461005804 -2.0284439014120226, 72.56206992013637 -1.632391440430593 C72.58619481272878 -1.25662676504098, 72.61031970532119 -0.8808620896513668, 72.6318906754117 -0.5448768187181379 C72.6318906754117 -0.2143305996048121, 72.6318906754117 0.11621561950851367, 72.6318906754117 0.5448768187181336 C72.60897738846339 0.9017697582103158, 72.58606410151508 1.258662697702498, 72.56206992013637 1.6323914404305815 C72.51731147879377 1.979529072929759, 72.47255303745119 2.326666705428937, 72.42271531804565 2.7131982155674415 C72.34917254574768 3.090824808047083, 72.27562977344971 3.4684514005267246, 72.214399507091 3.782855877257343 C72.1552329521153 4.0084835943268455, 72.0960663971396 4.234111311396347, 71.93797850162323 4.836968972727545 C71.83920832814377 5.134448998357667, 71.7404381546643 5.431929023987788, 71.59458817484592 5.871205925162227 C71.48589777662912 6.139673310143627, 71.37720737841232 6.408140695125027, 71.18563959126881 6.881316833080694 C71.02634409937187 7.212097330382201, 70.86704860747494 7.542877827683708, 70.712813208341 7.863150934094196 C70.59937274660943 8.064575960990958, 70.48593228487788 8.26600098788772, 70.17805197109088 8.812673661278923 C69.98977640744756 9.101915486102838, 69.80150084380425 9.391157310926753, 69.58355332814826 9.725983222076879 C69.37517420014966 10.005192269865912, 69.16679507215105 10.284401317654947, 68.93176020195651 10.599326631598467 C68.78251790749857 10.774635122795884, 68.63327561304064 10.9499436139933, 68.22535095028037 11.42911513444238 C68.03832813859968 11.622231542361087, 67.851305326919 11.815347950279794, 67.46722836025927 12.211938951661365 C67.28575243541599 12.376750585014188, 67.10427651057269 12.54156221836701, 66.66050772023242 12.944581292275275 C66.33402907379039 13.204939324851143, 66.00755042734835 13.46529735742701, 65.80850401835067 13.62403157175526 C65.61935576177554 13.755973207446017, 65.4302075052004 13.887914843136773, 64.91471832057934 14.247497783161286 C64.5675714709755 14.457940243452468, 64.22042462137165 14.668382703743648, 63.98282338406695 14.81241797009762 C63.675910601129935 14.972534172368839, 63.36899781819292 15.132650374640058, 63.01664856499849 15.316470754341124 C62.77329074968328 15.424198040228067, 62.52993293436807 15.531925326115008, 62.020164082949364 15.757584874882367 C61.727513766620156 15.865282896521386, 61.43486345029095 15.972980918160403, 60.99746470640156 16.133947699181363 C60.665665245596315 16.23242403749745, 60.33386578479107 16.330900375813535, 59.95275292646164 16.444012671663497 C59.67276109320458 16.507918980486956, 59.392769259947514 16.571825289310414, 58.89032168792333 16.68650566884811 C58.548295639132654 16.741801787964963, 58.206269590341975 16.797097907081817, 57.81453674863661 16.86043023499518 C57.58786070784061 16.882297400032947, 57.36118466704462 16.90416456507071, 56.72981873967212 16.965071676755716 C56.45525708801057 16.973876334522668, 56.18069543634901 16.98268099228962, 55.640625 17 C55.640625 17, 55.640625 17, 55.640625 17 C27.03963266662375 17, -1.5613596667525016 17, -55.640625 17 C-55.88165723708421 16.9922705652975, -56.12268947416843 16.984541130594994, -56.72981873967211 16.965071676755716 C-57.11473855752118 16.92793892486163, -57.49965837537025 16.890806172967537, -57.814536748636606 16.86043023499518 C-58.230021696404016 16.79325785077404, -58.64550664417143 16.7260854665529, -58.890321687923326 16.68650566884811 C-59.30981644768703 16.590758727391183, -59.72931120745073 16.495011785934253, -59.95275292646162 16.4440126716635 C-60.36424292689295 16.321884599490573, -60.77573292732427 16.199756527317643, -60.997464706401544 16.13394769918137 C-61.40296513079208 15.98471979460082, -61.808465555182615 15.835491890020272, -62.020164082949364 15.757584874882369 C-62.27920047924766 15.642917146282793, -62.53823687554596 15.528249417683218, -63.01664856499848 15.316470754341127 C-63.318236573556966 15.159132483452506, -63.61982458211545 15.001794212563885, -63.98282338406693 14.812417970097624 C-64.20563158260359 14.677350330778392, -64.42843978114024 14.542282691459159, -64.91471832057931 14.247497783161299 C-65.22169988789547 14.033360730819417, -65.52868145521163 13.819223678477538, -65.80850401835067 13.624031571755264 C-66.04327729369435 13.43680613224793, -66.278050569038 13.249580692740597, -66.6605077202324 12.94458129227529 C-66.93754682381598 12.692981708453695, -67.21458592739954 12.441382124632101, -67.46722836025926 12.211938951661377 C-67.75072921380138 11.919201044526195, -68.03423006734349 11.626463137391013, -68.22535095028036 11.429115134442386 C-68.43153022652714 11.186925224629741, -68.63770950277393 10.944735314817096, -68.93176020195651 10.599326631598473 C-69.06694243999331 10.418194747984383, -69.20212467803013 10.237062864370294, -69.58355332814824 9.72598322207689 C-69.79823200128735 9.396179130839837, -70.01291067442644 9.066375039602786, -70.17805197109088 8.812673661278936 C-70.34045851152926 8.524304403285075, -70.50286505196766 8.235935145291213, -70.712813208341 7.863150934094201 C-70.81438753731528 7.652229666636617, -70.91596186628958 7.441308399179033, -71.18563959126881 6.881316833080701 C-71.34245422837624 6.493981647620583, -71.49926886548369 6.106646462160464, -71.59458817484592 5.87120592516224 C-71.66714391685419 5.652679590420947, -71.73969965886245 5.434153255679654, -71.93797850162323 4.8369689727275516 C-72.00637002731202 4.576162444201472, -72.07476155300081 4.315355915675392, -72.214399507091 3.782855877257349 C-72.26452772453102 3.525458075305335, -72.31465594197104 3.26806027335332, -72.42271531804565 2.713198215567455 C-72.46476896828577 2.3870384087376078, -72.50682261852589 2.0608786019077603, -72.56206992013637 1.6323914404306026 C-72.58249897705566 1.3141923888746394, -72.60292803397496 0.9959933373186763, -72.6318906754117 0.54487681871814 C-72.6318906754117 0.26709033906274854, -72.6318906754117 -0.0106961405926429, -72.6318906754117 -0.5448768187181317 C-72.60778689291949 -0.9203126872571502, -72.5836831104273 -1.2957485557961688, -72.56206992013637 -1.6323914404305793 C-72.52608983748382 -1.911445856412727, -72.49010975483128 -2.1905002723948748, -72.42271531804565 -2.713198215567447 C-72.35977654639632 -3.0363755058726576, -72.29683777474699 -3.3595527961778684, -72.214399507091 -3.782855877257341 C-72.12139816355918 -4.137510307181432, -72.02839682002737 -4.492164737105523, -71.93797850162323 -4.836968972727544 C-71.85762623767594 -5.0789771893421465, -71.77727397372864 -5.320985405956749, -71.59458817484594 -5.871205925162218 C-71.5098306778991 -6.080558581295617, -71.42507318095227 -6.289911237429015, -71.18563959126881 -6.881316833080692 C-71.075009984393 -7.111041578852683, -70.9643803775172 -7.340766324624674, -70.712813208341 -7.863150934094194 C-70.56301779704332 -8.12912785528344, -70.41322238574563 -8.395104776472685, -70.17805197109088 -8.812673661278929 C-70.0239354997339 -9.049437947350407, -69.86981902837692 -9.286202233421886, -69.58355332814826 -9.725983222076884 C-69.34512962813217 -10.045449259252525, -69.10670592811609 -10.364915296428164, -68.93176020195651 -10.599326631598467 C-68.66668325866267 -10.910701092496778, -68.40160631536882 -11.222075553395088, -68.22535095028037 -11.42911513444238 C-67.9942747077474 -11.66772032657002, -67.7631984652144 -11.90632551869766, -67.46722836025927 -12.21193895166136 C-67.29778339019244 -12.365824390207832, -67.12833842012559 -12.519709828754303, -66.66050772023242 -12.944581292275274 C-66.42132879527439 -13.135320120110805, -66.18214987031635 -13.326058947946334, -65.80850401835067 -13.624031571755259 C-65.47068148939141 -13.85968194385567, -65.13285896043213 -14.095332315956078, -64.91471832057934 -14.247497783161284 C-64.70287119329745 -14.375920756671475, -64.49102406601556 -14.504343730181665, -63.98282338406695 -14.812417970097618 C-63.651573759734376 -14.985230686936411, -63.3203241354018 -15.158043403775205, -63.01664856499849 -15.316470754341124 C-62.74410198243723 -15.437119041633878, -62.47155539987597 -15.55776732892663, -62.02016408294937 -15.757584874882365 C-61.687326393409236 -15.88007222135101, -61.3544887038691 -16.002559567819656, -60.997464706401566 -16.133947699181363 C-60.68829483023306 -16.225707695562377, -60.379124954064565 -16.31746769194339, -59.95275292646164 -16.444012671663494 C-59.669047110091576 -16.508766672896492, -59.38534129372151 -16.57352067412949, -58.89032168792333 -16.68650566884811 C-58.51852746262887 -16.74661447588644, -58.146733237334395 -16.80672328292477, -57.81453674863661 -16.86043023499518 C-57.58838997224948 -16.882246342531957, -57.36224319586235 -16.904062450068732, -56.72981873967212 -16.965071676755716 C-56.510884609261346 -16.972092468188556, -56.29195047885057 -16.979113259621396, -55.64062500000001 -17 C-55.64062500000001 -17, -55.640625 -17, -55.640625 -17" stroke="none" stroke-width="0" fill="#ECECFF" style=""></path><path d="M-55.640625 -17 C-15.598727616034651 -17, 24.443169767930698 -17, 55.640625 -17 M-55.640625 -17 C-14.708041295343179 -17, 26.224542409313642 -17, 55.640625 -17 M55.640625 -17 C55.640625 -17, 55.640625 -17, 55.640625 -17 M55.640625 -17 C55.640625 -17, 55.640625 -17, 55.640625 -17 M55.640625 -17 C56.04699612642327 -16.986968468929017, 56.45336725284654 -16.97393693785804, 56.72981873967212 -16.965071676755716 M55.640625 -17 C55.91384820192033 -16.991238263711114, 56.187071403840655 -16.98247652742223, 56.72981873967212 -16.965071676755716 M56.72981873967212 -16.965071676755716 C57.06835114378399 -16.932413862875826, 57.406883547895866 -16.89975604899594, 57.8145367486366 -16.860430234995185 M56.72981873967212 -16.965071676755716 C57.13007603483794 -16.926459336870895, 57.530333330003764 -16.887846996986074, 57.8145367486366 -16.860430234995185 M57.8145367486366 -16.860430234995185 C58.10450921132009 -16.813549735998553, 58.39448167400358 -16.76666923700192, 58.890321687923326 -16.686505668848113 M57.8145367486366 -16.860430234995185 C58.166151331771545 -16.803583916005746, 58.5177659149065 -16.746737597016303, 58.890321687923326 -16.686505668848113 M58.890321687923326 -16.686505668848113 C59.198516848012794 -16.616162134719065, 59.506712008102255 -16.545818600590017, 59.95275292646162 -16.4440126716635 M58.890321687923326 -16.686505668848113 C59.214782584487054 -16.612449586512664, 59.53924348105079 -16.538393504177215, 59.95275292646162 -16.4440126716635 M59.95275292646162 -16.4440126716635 C60.35096979730373 -16.325823994680572, 60.74918666814584 -16.207635317697644, 60.99746470640155 -16.133947699181366 M59.95275292646162 -16.4440126716635 C60.300453229910424 -16.340817046716033, 60.64815353335922 -16.237621421768566, 60.99746470640155 -16.133947699181366 M60.99746470640155 -16.133947699181366 C61.24891126768758 -16.041413040281572, 61.50035782897361 -15.94887838138178, 62.02016408294936 -15.757584874882369 M60.99746470640155 -16.133947699181366 C61.278241313340196 -16.03061931235744, 61.55901792027883 -15.92729092553352, 62.02016408294936 -15.757584874882369 M62.02016408294936 -15.757584874882369 C62.29280939856475 -15.636892881395367, 62.56545471418014 -15.516200887908363, 63.01664856499849 -15.316470754341125 M62.02016408294936 -15.757584874882369 C62.29482338955756 -15.636001347325772, 62.56948269616575 -15.514417819769173, 63.01664856499849 -15.316470754341125 M63.01664856499849 -15.316470754341125 C63.31463582305803 -15.161010992681408, 63.61262308111758 -15.005551231021693, 63.98282338406694 -14.812417970097622 M63.01664856499849 -15.316470754341125 C63.282669441858104 -15.17768783327797, 63.54869031871772 -15.038904912214813, 63.98282338406694 -14.812417970097622 M63.98282338406694 -14.812417970097622 C64.30643420504194 -14.6162431886743, 64.63004502601694 -14.420068407250978, 64.91471832057933 -14.247497783161291 M63.98282338406694 -14.812417970097622 C64.2608861928294 -14.643854661347367, 64.53894900159187 -14.475291352597115, 64.91471832057933 -14.247497783161291 M64.91471832057933 -14.247497783161291 C65.20021238923276 -14.048349479707701, 65.4857064578862 -13.84920117625411, 65.80850401835067 -13.624031571755262 M64.91471832057933 -14.247497783161291 C65.11508738756034 -14.107728995872453, 65.31545645454135 -13.967960208583614, 65.80850401835067 -13.624031571755262 M65.80850401835067 -13.624031571755262 C66.14590947557774 -13.354959698352978, 66.4833149328048 -13.085887824950696, 66.6605077202324 -12.944581292275288 M65.80850401835067 -13.624031571755262 C66.0974605403759 -13.393596434896132, 66.38641706240112 -13.163161298037002, 66.6605077202324 -12.944581292275288 M66.6605077202324 -12.944581292275288 C66.85840678885278 -12.764854594276693, 67.05630585747315 -12.585127896278097, 67.46722836025927 -12.21193895166137 M66.6605077202324 -12.944581292275288 C66.98281685942639 -12.65186865989182, 67.30512599862038 -12.359156027508352, 67.46722836025927 -12.21193895166137 M67.46722836025927 -12.21193895166137 C67.64078857561165 -12.032723779751345, 67.81434879096405 -11.85350860784132, 68.22535095028036 -11.42911513444239 M67.46722836025927 -12.21193895166137 C67.7395404326602 -11.930754379670473, 68.01185250506114 -11.649569807679574, 68.22535095028036 -11.42911513444239 M68.22535095028036 -11.42911513444239 C68.40811932941925 -11.214424996490465, 68.59088770855814 -10.999734858538538, 68.93176020195651 -10.59932663159847 M68.22535095028036 -11.42911513444239 C68.45456378015815 -11.159868701888431, 68.68377661003595 -10.890622269334472, 68.93176020195651 -10.59932663159847 M68.93176020195651 -10.59932663159847 C69.16419277150413 -10.28788816344734, 69.39662534105177 -9.976449695296209, 69.58355332814824 -9.725983222076888 M68.93176020195651 -10.59932663159847 C69.1523511220395 -10.303754894933489, 69.3729420421225 -10.008183158268508, 69.58355332814824 -9.725983222076888 M69.58355332814824 -9.725983222076888 C69.71625032490753 -9.522125000921736, 69.84894732166683 -9.318266779766585, 70.17805197109088 -8.812673661278927 M69.58355332814824 -9.725983222076888 C69.789370360346 -9.409792991009521, 69.99518739254374 -9.093602759942154, 70.17805197109088 -8.812673661278927 M70.17805197109088 -8.812673661278927 C70.37951921584396 -8.454948167449137, 70.58098646059702 -8.097222673619347, 70.712813208341 -7.863150934094199 M70.17805197109088 -8.812673661278927 C70.38485281934737 -8.445477814342883, 70.59165366760388 -8.078281967406841, 70.712813208341 -7.863150934094199 M70.712813208341 -7.863150934094199 C70.8880447680128 -7.499278851080956, 71.0632763276846 -7.135406768067712, 71.18563959126881 -6.881316833080699 M70.712813208341 -7.863150934094199 C70.82649564930658 -7.6270869130146215, 70.94017809027214 -7.391022891935044, 71.18563959126881 -6.881316833080699 M71.18563959126881 -6.881316833080699 C71.30324551614727 -6.590827924875027, 71.42085144102573 -6.300339016669356, 71.59458817484592 -5.871205925162238 M71.18563959126881 -6.881316833080699 C71.32977688858577 -6.525294922002733, 71.47391418590274 -6.169273010924768, 71.59458817484592 -5.871205925162238 M71.59458817484592 -5.871205925162238 C71.69635181218536 -5.564710063329593, 71.7981154495248 -5.258214201496949, 71.93797850162323 -4.836968972727556 M71.59458817484592 -5.871205925162238 C71.71799700622653 -5.499518187570924, 71.84140583760713 -5.1278304499796095, 71.93797850162323 -4.836968972727556 M71.93797850162323 -4.836968972727556 C72.01078712919757 -4.559318120327832, 72.0835957567719 -4.281667267928108, 72.214399507091 -3.7828558772573464 M71.93797850162323 -4.836968972727556 C72.03684642414123 -4.459942734537778, 72.13571434665921 -4.082916496348, 72.214399507091 -3.7828558772573464 M72.214399507091 -3.7828558772573464 C72.28814517357755 -3.4041874660010922, 72.36189084006408 -3.025519054744838, 72.42271531804565 -2.713198215567453 M72.214399507091 -3.7828558772573464 C72.25958834239773 -3.550820758620994, 72.30477717770447 -3.318785639984641, 72.42271531804565 -2.713198215567453 M72.42271531804565 -2.713198215567453 C72.46522420416618 -2.3835076891456564, 72.5077330902867 -2.05381716272386, 72.56206992013637 -1.632391440430593 M72.42271531804565 -2.713198215567453 C72.4540402609263 -2.4702481443946986, 72.48536520380696 -2.2272980732219447, 72.56206992013637 -1.632391440430593 M72.56206992013637 -1.632391440430593 C72.58403772051531 -1.2902252174391333, 72.60600552089427 -0.9480589944476736, 72.6318906754117 -0.5448768187181379 M72.56206992013637 -1.632391440430593 C72.58266329253883 -1.3116330425912495, 72.6032566649413 -0.9908746447519059, 72.6318906754117 -0.5448768187181379 M72.6318906754117 -0.5448768187181379 C72.6318906754117 -0.1628103363770534, 72.6318906754117 0.2192561459640311, 72.6318906754117 0.5448768187181336 M72.6318906754117 -0.5448768187181379 C72.6318906754117 -0.20851713715325437, 72.6318906754117 0.12784254441162912, 72.6318906754117 0.5448768187181336 M72.6318906754117 0.5448768187181336 C72.60597961878595 0.9484624406924536, 72.58006856216022 1.3520480626667735, 72.56206992013637 1.6323914404305815 M72.6318906754117 0.5448768187181336 C72.60937191099215 0.8956247513720439, 72.5868531465726 1.2463726840259541, 72.56206992013637 1.6323914404305815 M72.56206992013637 1.6323914404305815 C72.53367876893698 1.8525876026660582, 72.5052876177376 2.072783764901535, 72.42271531804565 2.7131982155674415 M72.56206992013637 1.6323914404305815 C72.53156777619115 1.8689600455400408, 72.50106563224594 2.1055286506495, 72.42271531804565 2.7131982155674415 M72.42271531804565 2.7131982155674415 C72.35348855090172 3.0686630337691128, 72.28426178375778 3.424127851970784, 72.214399507091 3.782855877257343 M72.42271531804565 2.7131982155674415 C72.36861320624297 2.99100112518879, 72.3145110944403 3.2688040348101386, 72.214399507091 3.782855877257343 M72.214399507091 3.782855877257343 C72.11233596215395 4.172068408722527, 72.0102724172169 4.561280940187712, 71.93797850162323 4.836968972727545 M72.214399507091 3.782855877257343 C72.11263691720005 4.170920736697022, 72.01087432730908 4.558985596136701, 71.93797850162323 4.836968972727545 M71.93797850162323 4.836968972727545 C71.83934459858042 5.134038573514198, 71.74071069553762 5.431108174300851, 71.59458817484592 5.871205925162227 M71.93797850162323 4.836968972727545 C71.80982670768586 5.222941757851384, 71.6816749137485 5.608914542975223, 71.59458817484592 5.871205925162227 M71.59458817484592 5.871205925162227 C71.4942699811666 6.118993803070504, 71.39395178748727 6.3667816809787805, 71.18563959126881 6.881316833080694 M71.59458817484592 5.871205925162227 C71.45163353796902 6.224306642088084, 71.3086789010921 6.577407359013943, 71.18563959126881 6.881316833080694 M71.18563959126881 6.881316833080694 C71.01507872608478 7.235490119053225, 70.84451786090075 7.589663405025754, 70.712813208341 7.863150934094196 M71.18563959126881 6.881316833080694 C70.9974425461069 7.272112024131087, 70.809245500945 7.66290721518148, 70.712813208341 7.863150934094196 M70.712813208341 7.863150934094196 C70.53246791647462 8.183372261744019, 70.35212262460823 8.503593589393843, 70.17805197109088 8.812673661278923 M70.712813208341 7.863150934094196 C70.5948832754006 8.072547471730488, 70.47695334246022 8.281944009366779, 70.17805197109088 8.812673661278923 M70.17805197109088 8.812673661278923 C70.03712811728106 9.02917054408413, 69.89620426347123 9.245667426889337, 69.58355332814826 9.725983222076879 M70.17805197109088 8.812673661278923 C69.96866280123126 9.134351655048203, 69.75927363137163 9.456029648817484, 69.58355332814826 9.725983222076879 M69.58355332814826 9.725983222076879 C69.38430064655124 9.992963663124153, 69.18504796495424 10.259944104171426, 68.93176020195651 10.599326631598467 M69.58355332814826 9.725983222076879 C69.452004355992 9.90224686040835, 69.32045538383575 10.078510498739822, 68.93176020195651 10.599326631598467 M68.93176020195651 10.599326631598467 C68.73453936800277 10.830993445343893, 68.53731853404904 11.062660259089318, 68.22535095028037 11.42911513444238 M68.93176020195651 10.599326631598467 C68.78505808973989 10.771651280194774, 68.63835597752326 10.943975928791081, 68.22535095028037 11.42911513444238 M68.22535095028037 11.42911513444238 C67.92422918324628 11.740048081461929, 67.62310741621219 12.050981028481477, 67.46722836025927 12.211938951661365 M68.22535095028037 11.42911513444238 C67.9927402961365 11.6693047325358, 67.76012964199263 11.909494330629219, 67.46722836025927 12.211938951661365 M67.46722836025927 12.211938951661365 C67.23401341077408 12.423738598254388, 67.00079846128888 12.635538244847414, 66.66050772023242 12.944581292275275 M67.46722836025927 12.211938951661365 C67.23074836396077 12.426703827381829, 66.99426836766227 12.641468703102293, 66.66050772023242 12.944581292275275 M66.66050772023242 12.944581292275275 C66.39121552063533 13.159334655287559, 66.12192332103825 13.374088018299844, 65.80850401835067 13.62403157175526 M66.66050772023242 12.944581292275275 C66.39969225422014 13.15257468582903, 66.13887678820785 13.360568079382787, 65.80850401835067 13.62403157175526 M65.80850401835067 13.62403157175526 C65.57082921308876 13.78982322712948, 65.33315440782684 13.9556148825037, 64.91471832057934 14.247497783161286 M65.80850401835067 13.62403157175526 C65.53776855068827 13.81288491404705, 65.26703308302586 14.001738256338841, 64.91471832057934 14.247497783161286 M64.91471832057934 14.247497783161286 C64.637207114303 14.41572670724287, 64.35969590802667 14.583955631324454, 63.98282338406695 14.81241797009762 M64.91471832057934 14.247497783161286 C64.61196621581692 14.431027888237118, 64.3092141110545 14.61455799331295, 63.98282338406695 14.81241797009762 M63.98282338406695 14.81241797009762 C63.71110828002132 14.954171565836392, 63.439393175975695 15.095925161575165, 63.01664856499849 15.316470754341124 M63.98282338406695 14.81241797009762 C63.64982151134047 14.986144833801141, 63.316819638614 15.159871697504665, 63.01664856499849 15.316470754341124 M63.01664856499849 15.316470754341124 C62.618460105086115 15.492736973703344, 62.22027164517374 15.669003193065564, 62.020164082949364 15.757584874882367 M63.01664856499849 15.316470754341124 C62.77244484882172 15.42457249544672, 62.52824113264495 15.532674236552317, 62.020164082949364 15.757584874882367 M62.020164082949364 15.757584874882367 C61.70929834091239 15.87198634156339, 61.39843259887542 15.986387808244416, 60.99746470640156 16.133947699181363 M62.020164082949364 15.757584874882367 C61.691993787702124 15.878354577106306, 61.363823492454884 15.999124279330244, 60.99746470640156 16.133947699181363 M60.99746470640156 16.133947699181363 C60.693189325620295 16.224255035023177, 60.38891394483904 16.31456237086499, 59.95275292646164 16.444012671663497 M60.99746470640156 16.133947699181363 C60.69375757179287 16.22408638254194, 60.390050437184186 16.31422506590252, 59.95275292646164 16.444012671663497 M59.95275292646164 16.444012671663497 C59.59844288560936 16.524881626398937, 59.244132844757075 16.60575058113438, 58.89032168792333 16.68650566884811 M59.95275292646164 16.444012671663497 C59.687668110728936 16.5045165510144, 59.42258329499624 16.565020430365305, 58.89032168792333 16.68650566884811 M58.89032168792333 16.68650566884811 C58.53007172483062 16.74474808910075, 58.16982176173791 16.802990509353393, 57.81453674863661 16.86043023499518 M58.89032168792333 16.68650566884811 C58.54111049863416 16.742963425759164, 58.19189930934499 16.799421182670216, 57.81453674863661 16.86043023499518 M57.81453674863661 16.86043023499518 C57.48135905652314 16.892571486248567, 57.148181364409666 16.924712737501956, 56.72981873967212 16.965071676755716 M57.81453674863661 16.86043023499518 C57.494021444305005 16.891349960928, 57.1735061399734 16.922269686860822, 56.72981873967212 16.965071676755716 M56.72981873967212 16.965071676755716 C56.43746850347752 16.974446779805263, 56.14511826728292 16.983821882854812, 55.640625 17 M56.72981873967212 16.965071676755716 C56.39390838717216 16.975843667950553, 56.05799803467221 16.98661565914539, 55.640625 17 M55.640625 17 C55.640625 17, 55.640625 17, 55.640625 17 M55.640625 17 C55.640625 17, 55.640625 17, 55.640625 17 M55.640625 17 C14.386361005607995 17, -26.86790298878401 17, -55.640625 17 M55.640625 17 C16.0542118409196 17, -23.5322013181608 17, -55.640625 17 M-55.640625 17 C-56.02357770261148 16.987719452199467, -56.406530405222966 16.97543890439893, -56.72981873967211 16.965071676755716 M-55.640625 17 C-55.888699165605 16.992044744356118, -56.136773331209994 16.984089488712236, -56.72981873967211 16.965071676755716 M-56.72981873967211 16.965071676755716 C-57.1617462529948 16.923404149014313, -57.59367376631749 16.881736621272907, -57.814536748636606 16.86043023499518 M-56.72981873967211 16.965071676755716 C-57.09277783589364 16.930057449265405, -57.45573693211518 16.89504322177509, -57.814536748636606 16.86043023499518 M-57.814536748636606 16.86043023499518 C-58.199099961682386 16.798257037042198, -58.583663174728166 16.736083839089215, -58.890321687923326 16.68650566884811 M-57.814536748636606 16.86043023499518 C-58.225016384588976 16.794067070771522, -58.63549602054134 16.727703906547863, -58.890321687923326 16.68650566884811 M-58.890321687923326 16.68650566884811 C-59.29151614982331 16.59493565095797, -59.692710611723285 16.503365633067833, -59.95275292646162 16.4440126716635 M-58.890321687923326 16.68650566884811 C-59.24451858957409 16.605662537397112, -59.59871549122486 16.524819405946115, -59.95275292646162 16.4440126716635 M-59.95275292646162 16.4440126716635 C-60.22402029755206 16.36350193983535, -60.49528766864249 16.282991208007193, -60.997464706401544 16.13394769918137 M-59.95275292646162 16.4440126716635 C-60.35720800218106 16.323972528217986, -60.7616630779005 16.203932384772475, -60.997464706401544 16.13394769918137 M-60.997464706401544 16.13394769918137 C-61.275078640824866 16.031783205078508, -61.552692575248194 15.929618710975646, -62.020164082949364 15.757584874882369 M-60.997464706401544 16.13394769918137 C-61.358265140187726 16.001169804345405, -61.7190655739739 15.868391909509445, -62.020164082949364 15.757584874882369 M-62.020164082949364 15.757584874882369 C-62.261631253523355 15.650694521338382, -62.50309842409734 15.543804167794395, -63.01664856499848 15.316470754341127 M-62.020164082949364 15.757584874882369 C-62.26958535014899 15.647173478712103, -62.51900661734862 15.53676208254184, -63.01664856499848 15.316470754341127 M-63.01664856499848 15.316470754341127 C-63.40232191123039 15.11526521664751, -63.7879952574623 14.914059678953892, -63.98282338406693 14.812417970097624 M-63.01664856499848 15.316470754341127 C-63.24699476597801 15.19629928883389, -63.47734096695754 15.076127823326654, -63.98282338406693 14.812417970097624 M-63.98282338406693 14.812417970097624 C-64.3401113599024 14.595827899488961, -64.69739933573786 14.3792378288803, -64.91471832057931 14.247497783161299 M-63.98282338406693 14.812417970097624 C-64.21574274681072 14.67122088361623, -64.4486621095545 14.530023797134838, -64.91471832057931 14.247497783161299 M-64.91471832057931 14.247497783161299 C-65.18286099068635 14.060453064203738, -65.45100366079339 13.873408345246176, -65.80850401835067 13.624031571755264 M-64.91471832057931 14.247497783161299 C-65.26608136928994 14.002402130642, -65.61744441800056 13.757306478122702, -65.80850401835067 13.624031571755264 M-65.80850401835067 13.624031571755264 C-66.09877285530148 13.392549898665154, -66.38904169225228 13.161068225575043, -66.6605077202324 12.94458129227529 M-65.80850401835067 13.624031571755264 C-66.07209635189166 13.413823700242913, -66.33568868543264 13.203615828730562, -66.6605077202324 12.94458129227529 M-66.6605077202324 12.94458129227529 C-66.91978123701402 12.709115944335554, -67.17905475379565 12.473650596395819, -67.46722836025926 12.211938951661377 M-66.6605077202324 12.94458129227529 C-66.90959750917625 12.718364536511142, -67.15868729812011 12.492147780746995, -67.46722836025926 12.211938951661377 M-67.46722836025926 12.211938951661377 C-67.65378809386236 12.019300709877188, -67.84034782746546 11.826662468092998, -68.22535095028036 11.429115134442386 M-67.46722836025926 12.211938951661377 C-67.65639233418683 12.016611617930067, -67.8455563081144 11.821284284198757, -68.22535095028036 11.429115134442386 M-68.22535095028036 11.429115134442386 C-68.37807489499039 11.249716898747346, -68.53079883970042 11.070318663052308, -68.93176020195651 10.599326631598473 M-68.22535095028036 11.429115134442386 C-68.50459294662971 11.101101596210714, -68.78383494297908 10.773088057979043, -68.93176020195651 10.599326631598473 M-68.93176020195651 10.599326631598473 C-69.1385385355475 10.322262502480275, -69.34531686913847 10.045198373362075, -69.58355332814824 9.72598322207689 M-68.93176020195651 10.599326631598473 C-69.17510653456885 10.273264715204895, -69.41845286718119 9.947202798811318, -69.58355332814824 9.72598322207689 M-69.58355332814824 9.72598322207689 C-69.79514515562965 9.400921354704163, -70.00673698311107 9.075859487331437, -70.17805197109088 8.812673661278936 M-69.58355332814824 9.72598322207689 C-69.80494535909904 9.385865610452083, -70.02633739004983 9.045747998827274, -70.17805197109088 8.812673661278936 M-70.17805197109088 8.812673661278936 C-70.38336468185709 8.44812015314716, -70.5886773926233 8.083566645015383, -70.712813208341 7.863150934094201 M-70.17805197109088 8.812673661278936 C-70.31493202544142 8.569629264171049, -70.45181207979196 8.326584867063161, -70.712813208341 7.863150934094201 M-70.712813208341 7.863150934094201 C-70.82330659222272 7.633709058284125, -70.93379997610445 7.404267182474047, -71.18563959126881 6.881316833080701 M-70.712813208341 7.863150934094201 C-70.83183766325409 7.615994106751819, -70.95086211816718 7.368837279409436, -71.18563959126881 6.881316833080701 M-71.18563959126881 6.881316833080701 C-71.31341171166302 6.565717225401115, -71.44118383205722 6.250117617721529, -71.59458817484592 5.87120592516224 M-71.18563959126881 6.881316833080701 C-71.31904668632775 6.551798729034395, -71.4524537813867 6.222280624988088, -71.59458817484592 5.87120592516224 M-71.59458817484592 5.87120592516224 C-71.67116504254405 5.640568600522458, -71.74774191024217 5.409931275882675, -71.93797850162323 4.8369689727275516 M-71.59458817484592 5.87120592516224 C-71.68215415485878 5.607471145107774, -71.76972013487162 5.343736365053308, -71.93797850162323 4.8369689727275516 M-71.93797850162323 4.8369689727275516 C-72.01928288691482 4.526920114067218, -72.10058727220643 4.216871255406884, -72.214399507091 3.782855877257349 M-71.93797850162323 4.8369689727275516 C-72.04390817276064 4.433013226470747, -72.14983784389804 4.029057480213942, -72.214399507091 3.782855877257349 M-72.214399507091 3.782855877257349 C-72.26974100372574 3.4986889884674275, -72.32508250036048 3.214522099677506, -72.42271531804565 2.713198215567455 M-72.214399507091 3.782855877257349 C-72.26437862182145 3.526223686206138, -72.3143577365519 3.2695914951549265, -72.42271531804565 2.713198215567455 M-72.42271531804565 2.713198215567455 C-72.46315980858678 2.3995187335983927, -72.50360429912793 2.0858392516293303, -72.56206992013637 1.6323914404306026 M-72.42271531804565 2.713198215567455 C-72.47217434385529 2.3296037781771948, -72.52163336966494 1.9460093407869348, -72.56206992013637 1.6323914404306026 M-72.56206992013637 1.6323914404306026 C-72.57990676278814 1.3545682184890553, -72.5977436054399 1.0767449965475078, -72.6318906754117 0.54487681871814 M-72.56206992013637 1.6323914404306026 C-72.5803351097188 1.3478963692885966, -72.59860029930122 1.0634012981465908, -72.6318906754117 0.54487681871814 M-72.6318906754117 0.54487681871814 C-72.6318906754117 0.2024318315395448, -72.6318906754117 -0.14001315563905037, -72.6318906754117 -0.5448768187181317 M-72.6318906754117 0.54487681871814 C-72.6318906754117 0.2022827455203508, -72.6318906754117 -0.14031132767743837, -72.6318906754117 -0.5448768187181317 M-72.6318906754117 -0.5448768187181317 C-72.61202842523113 -0.8542473978002081, -72.59216617505056 -1.1636179768822843, -72.56206992013637 -1.6323914404305793 M-72.6318906754117 -0.5448768187181317 C-72.60885469101657 -0.9036808699841438, -72.58581870662144 -1.2624849212501559, -72.56206992013637 -1.6323914404305793 M-72.56206992013637 -1.6323914404305793 C-72.53344328737487 -1.8544139511607693, -72.50481665461336 -2.0764364618909594, -72.42271531804565 -2.713198215567447 M-72.56206992013637 -1.6323914404305793 C-72.5254033117282 -1.916770414603549, -72.48873670332003 -2.2011493887765186, -72.42271531804565 -2.713198215567447 M-72.42271531804565 -2.713198215567447 C-72.36933891083633 -2.9872747854796207, -72.31596250362702 -3.2613513553917945, -72.214399507091 -3.782855877257341 M-72.42271531804565 -2.713198215567447 C-72.36081180711062 -3.0310596609071707, -72.29890829617558 -3.3489211062468947, -72.214399507091 -3.782855877257341 M-72.214399507091 -3.782855877257341 C-72.1142023977075 -4.164950881038547, -72.014005288324 -4.547045884819752, -71.93797850162323 -4.836968972727544 M-72.214399507091 -3.782855877257341 C-72.12902205771063 -4.108437094565365, -72.04364460833024 -4.4340183118733885, -71.93797850162323 -4.836968972727544 M-71.93797850162323 -4.836968972727544 C-71.85675211449819 -5.081609909080894, -71.77552572737315 -5.326250845434246, -71.59458817484594 -5.871205925162218 M-71.93797850162323 -4.836968972727544 C-71.8257773122597 -5.1749010782587, -71.71357612289617 -5.512833183789857, -71.59458817484594 -5.871205925162218 M-71.59458817484594 -5.871205925162218 C-71.51029984395284 -6.079399732072179, -71.42601151305975 -6.287593538982141, -71.18563959126881 -6.881316833080692 M-71.59458817484594 -5.871205925162218 C-71.5005298475851 -6.103531811990532, -71.40647152032426 -6.335857698818846, -71.18563959126881 -6.881316833080692 M-71.18563959126881 -6.881316833080692 C-71.02396479010756 -7.2170380169786315, -70.86228998894629 -7.55275920087657, -70.712813208341 -7.863150934094194 M-71.18563959126881 -6.881316833080692 C-71.032557807494 -7.199194432514537, -70.8794760237192 -7.517072031948382, -70.712813208341 -7.863150934094194 M-70.712813208341 -7.863150934094194 C-70.58337400459526 -8.092983347485443, -70.4539348008495 -8.322815760876692, -70.17805197109088 -8.812673661278929 M-70.712813208341 -7.863150934094194 C-70.55543971752076 -8.14258350283952, -70.3980662267005 -8.422016071584844, -70.17805197109088 -8.812673661278929 M-70.17805197109088 -8.812673661278929 C-70.0494846548728 -9.010187584148278, -69.92091733865473 -9.207701507017626, -69.58355332814826 -9.725983222076884 M-70.17805197109088 -8.812673661278929 C-69.98981570862918 -9.101855108934027, -69.8015794461675 -9.391036556589125, -69.58355332814826 -9.725983222076884 M-69.58355332814826 -9.725983222076884 C-69.43695548228763 -9.922410980191612, -69.29035763642702 -10.11883873830634, -68.93176020195651 -10.599326631598467 M-69.58355332814826 -9.725983222076884 C-69.37708960220381 -10.002625805610071, -69.17062587625935 -10.279268389143256, -68.93176020195651 -10.599326631598467 M-68.93176020195651 -10.599326631598467 C-68.78136041299236 -10.775994781706194, -68.6309606240282 -10.95266293181392, -68.22535095028037 -11.42911513444238 M-68.93176020195651 -10.599326631598467 C-68.65426743696862 -10.925285423138865, -68.37677467198075 -11.25124421467926, -68.22535095028037 -11.42911513444238 M-68.22535095028037 -11.42911513444238 C-68.0443060263725 -11.61605888244195, -67.86326110246462 -11.803002630441519, -67.46722836025927 -12.21193895166136 M-68.22535095028037 -11.42911513444238 C-68.04687960659761 -11.613401449564645, -67.86840826291485 -11.79768776468691, -67.46722836025927 -12.21193895166136 M-67.46722836025927 -12.21193895166136 C-67.24864156351093 -12.410453696978495, -67.03005476676258 -12.60896844229563, -66.66050772023242 -12.944581292275274 M-67.46722836025927 -12.21193895166136 C-67.30115085386804 -12.362766148795853, -67.1350733474768 -12.513593345930348, -66.66050772023242 -12.944581292275274 M-66.66050772023242 -12.944581292275274 C-66.34706256496585 -13.194545462474476, -66.03361740969927 -13.444509632673677, -65.80850401835067 -13.624031571755259 M-66.66050772023242 -12.944581292275274 C-66.44383916385539 -13.11736870019352, -66.22717060747836 -13.290156108111766, -65.80850401835067 -13.624031571755259 M-65.80850401835067 -13.624031571755259 C-65.5504096233887 -13.804067048954446, -65.29231522842673 -13.984102526153634, -64.91471832057934 -14.247497783161284 M-65.80850401835067 -13.624031571755259 C-65.52607116253232 -13.821044505652873, -65.24363830671396 -14.018057439550486, -64.91471832057934 -14.247497783161284 M-64.91471832057934 -14.247497783161284 C-64.66518180357434 -14.398768286209059, -64.41564528656936 -14.550038789256831, -63.98282338406695 -14.812417970097618 M-64.91471832057934 -14.247497783161284 C-64.69349215416234 -14.381606385312525, -64.47226598774536 -14.515714987463765, -63.98282338406695 -14.812417970097618 M-63.98282338406695 -14.812417970097618 C-63.61655741132427 -15.003498693472919, -63.2502914385816 -15.19457941684822, -63.01664856499849 -15.316470754341124 M-63.98282338406695 -14.812417970097618 C-63.62210387067768 -15.000605109180922, -63.261384357288414 -15.188792248264228, -63.01664856499849 -15.316470754341124 M-63.01664856499849 -15.316470754341124 C-62.70531384436156 -15.45428939975074, -62.393979123724634 -15.592108045160355, -62.02016408294937 -15.757584874882365 M-63.01664856499849 -15.316470754341124 C-62.74270471586518 -15.43773757009688, -62.46876086673188 -15.559004385852639, -62.02016408294937 -15.757584874882365 M-62.02016408294937 -15.757584874882365 C-61.62671820226155 -15.902376595949336, -61.23327232157372 -16.047168317016308, -60.997464706401566 -16.133947699181363 M-62.02016408294937 -15.757584874882365 C-61.77199177542335 -15.848914578131605, -61.523819467897326 -15.940244281380844, -60.997464706401566 -16.133947699181363 M-60.997464706401566 -16.133947699181363 C-60.71763244649341 -16.217000445052598, -60.43780018658525 -16.30005319092383, -59.95275292646164 -16.444012671663494 M-60.997464706401566 -16.133947699181363 C-60.76160588831845 -16.203949358340232, -60.52574707023534 -16.273951017499098, -59.95275292646164 -16.444012671663494 M-59.95275292646164 -16.444012671663494 C-59.7147662119672 -16.4983315862384, -59.47677949747276 -16.55265050081331, -58.89032168792333 -16.68650566884811 M-59.95275292646164 -16.444012671663494 C-59.5561108550574 -16.534543636130106, -59.15946878365315 -16.62507460059672, -58.89032168792333 -16.68650566884811 M-58.89032168792333 -16.68650566884811 C-58.57536527662765 -16.737425378902948, -58.26040886533197 -16.788345088957783, -57.81453674863661 -16.86043023499518 M-58.89032168792333 -16.68650566884811 C-58.599592157417845 -16.733508564699054, -58.30886262691236 -16.78051146055, -57.81453674863661 -16.86043023499518 M-57.81453674863661 -16.86043023499518 C-57.59396156037347 -16.88170885812645, -57.37338637211034 -16.90298748125772, -56.72981873967212 -16.965071676755716 M-57.81453674863661 -16.86043023499518 C-57.40201258634883 -16.90022594479819, -56.98948842406105 -16.940021654601203, -56.72981873967212 -16.965071676755716 M-56.72981873967212 -16.965071676755716 C-56.41169561973479 -16.975273266023017, -56.09357249979746 -16.98547485529032, -55.64062500000001 -17 M-56.72981873967212 -16.965071676755716 C-56.369535437152656 -16.97662526101861, -56.00925213463319 -16.988178845281503, -55.64062500000001 -17 M-55.64062500000001 -17 C-55.64062500000001 -17, -55.640625 -17, -55.640625 -17 M-55.64062500000001 -17 C-55.64062500000001 -17, -55.640625 -17, -55.640625 -17" stroke="#9370DB" stroke-width="1.3" fill="none" stroke-dasharray="0 0" style=""></path></g><g class="label" style="" transform="translate(0, -9.5)"><rect></rect><g><rect class="background" style="stroke: none"></rect><text y="-10.1" style=""><tspan class="text-outer-tspan row" x="0" y="-0.1em" dy="1.1em"><tspan font-style="normal" class="text-inner-tspan" font-weight="normal">UPDATE</tspan><tspan font-style="normal" class="text-inner-tspan" font-weight="normal"> on</tspan><tspan font-style="normal" class="text-inner-tspan" font-weight="normal"> a</tspan><tspan font-style="normal" class="text-inner-tspan" font-weight="normal"> row</tspan></tspan></text></g></g></g><g class="node default" id="g7ade1b60-0caf-4db6-a010-937270dbd2b7-light-flowchart-Q1-1" data-look="classic" transform="translate(280.46484375, 199.87812042236328)"><polygon points="107.87812423706055,0 215.7562484741211,-107.87812423706055 107.87812423706055,-215.7562484741211 0,-107.87812423706055" class="label-container" transform="translate(-107.37812423706055, 107.87812423706055)"></polygon><g class="label" style="" transform="translate(0, -18.299999237060547)"><rect></rect><g><rect class="background" style="stroke: none"></rect><text y="-10.1" style=""><tspan class="text-outer-tspan row" x="0" y="-0.1em" dy="1.1em"><tspan font-style="normal" class="text-inner-tspan" font-weight="normal">Update</tspan><tspan font-style="normal" class="text-inner-tspan" font-weight="normal"> touches</tspan></tspan><tspan class="text-outer-tspan row" x="0" y="1em" dy="1.1em"><tspan font-style="normal" class="text-inner-tspan" font-weight="normal">any</tspan><tspan font-style="normal" class="text-inner-tspan" font-weight="normal"> indexed</tspan><tspan font-style="normal" class="text-inner-tspan" font-weight="normal"> column?</tspan></tspan></text></g></g></g><g class="node default" id="g7ade1b60-0caf-4db6-a010-937270dbd2b7-light-flowchart-Q2-2" data-look="classic" transform="translate(154.27734375, 472.3687438964844)"><polygon points="91.61249923706055,0 183.2249984741211,-91.61249923706055 91.61249923706055,-183.2249984741211 0,-91.61249923706055" class="label-container" transform="translate(-91.11249923706055, 91.61249923706055)"></polygon><g class="label" style="" transform="translate(0, -18.299999237060547)"><rect></rect><g><rect class="background" style="stroke: none"></rect><text y="-10.1" style=""><tspan class="text-outer-tspan row" x="0" y="-0.1em" dy="1.1em"><tspan font-style="normal" class="text-inner-tspan" font-weight="normal">Same</tspan><tspan font-style="normal" class="text-inner-tspan" font-weight="normal"> heap</tspan><tspan font-style="normal" class="text-inner-tspan" font-weight="normal"> page</tspan></tspan><tspan class="text-outer-tspan row" x="0" y="1em" dy="1.1em"><tspan font-style="normal" class="text-inner-tspan" font-weight="normal">has</tspan><tspan font-style="normal" class="text-inner-tspan" font-weight="normal"> free</tspan><tspan font-style="normal" class="text-inner-tspan" font-weight="normal"> space?</tspan></tspan></text></g></g></g><g class="node default" id="g7ade1b60-0caf-4db6-a010-937270dbd2b7-light-flowchart-HOT-3" data-look="classic" transform="translate(132.171875, 661.4812469482422)"><rect class="basic label-container" style="" x="-72.5703125" y="-24.5" width="145.140625" height="49"></rect><g class="label" style="" transform="translate(0, -9.5)"><rect></rect><g><rect class="background" style="stroke: none"></rect><text y="-10.1" style=""><tspan class="text-outer-tspan row" x="0" y="-0.1em" dy="1.1em"><tspan font-style="normal" class="text-inner-tspan" font-weight="normal">HOT</tspan><tspan font-style="normal" class="text-inner-tspan" font-weight="normal"> update</tspan></tspan></text></g></g></g><g class="node default" id="g7ade1b60-0caf-4db6-a010-937270dbd2b7-light-flowchart-HOTSteps-4" data-look="classic" transform="translate(132.171875, 804.4812469482422)"><rect class="basic label-container" style="" x="-124.171875" y="-50.900001525878906" width="248.34375" height="101.80000305175781"></rect><g class="label" style="" transform="translate(0, -35.900001525878906)"><rect></rect><g><rect class="background" style="stroke: none"></rect><text y="-10.1" style=""><tspan class="text-outer-tspan row" x="0" y="-0.1em" dy="1.1em"><tspan font-style="normal" class="text-inner-tspan" font-weight="normal">Write</tspan><tspan font-style="normal" class="text-inner-tspan" font-weight="normal"> new</tspan><tspan font-style="normal" class="text-inner-tspan" font-weight="normal"> tuple</tspan><tspan font-style="normal" class="text-inner-tspan" font-weight="normal"> on</tspan><tspan font-style="normal" class="text-inner-tspan" font-weight="normal"> same</tspan></tspan><tspan class="text-outer-tspan row" x="0" y="1em" dy="1.1em"><tspan font-style="normal" class="text-inner-tspan" font-weight="normal">page</tspan></tspan><tspan class="text-outer-tspan row" x="0" y="2.1em" dy="1.1em"><tspan font-style="normal" class="text-inner-tspan" font-weight="normal">Link</tspan><tspan font-style="normal" class="text-inner-tspan" font-weight="normal"> old</tspan><tspan font-style="normal" class="text-inner-tspan" font-weight="normal"> ctid</tspan><tspan font-style="normal" class="text-inner-tspan" font-weight="normal"> to</tspan><tspan font-style="normal" class="text-inner-tspan" font-weight="normal"> new</tspan><tspan font-style="normal" class="text-inner-tspan" font-weight="normal"> ctid</tspan></tspan><tspan class="text-outer-tspan row" x="0" y="3.2em" dy="1.1em"><tspan font-style="normal" class="text-inner-tspan" font-weight="normal">No</tspan><tspan font-style="normal" class="text-inner-tspan" font-weight="normal"> secondary</tspan><tspan font-style="normal" class="text-inner-tspan" font-weight="normal"> index</tspan><tspan font-style="normal" class="text-inner-tspan" font-weight="normal"> writes</tspan></tspan></text></g></g></g><g class="node default" id="g7ade1b60-0caf-4db6-a010-937270dbd2b7-light-flowchart-NonHOT-5" data-look="classic" transform="translate(428.7578125, 661.4812469482422)"><rect class="basic label-container" style="" x="-89.2734375" y="-24.5" width="178.546875" height="49"></rect><g class="label" style="" transform="translate(0, -9.5)"><rect></rect><g><rect class="background" style="stroke: none"></rect><text y="-10.1" style=""><tspan class="text-outer-tspan row" x="0" y="-0.1em" dy="1.1em"><tspan font-style="normal" class="text-inner-tspan" font-weight="normal">Non-HOT</tspan><tspan font-style="normal" class="text-inner-tspan" font-weight="normal"> update</tspan></tspan></text></g></g></g><g class="node default" id="g7ade1b60-0caf-4db6-a010-937270dbd2b7-light-flowchart-NonHOTSteps-6" data-look="classic" transform="translate(428.7578125, 804.4812469482422)"><rect class="basic label-container" style="" x="-122.4140625" y="-68.5" width="244.828125" height="137"></rect><g class="label" style="" transform="translate(0, -53.5)"><rect></rect><g><rect class="background" style="stroke: none"></rect><text y="-10.1" style=""><tspan class="text-outer-tspan row" x="0" y="-0.1em" dy="1.1em"><tspan font-style="normal" class="text-inner-tspan" font-weight="normal">Write</tspan><tspan font-style="normal" class="text-inner-tspan" font-weight="normal"> new</tspan><tspan font-style="normal" class="text-inner-tspan" font-weight="normal"> tuple</tspan></tspan><tspan class="text-outer-tspan row" x="0" y="1em" dy="1.1em"><tspan font-style="normal" class="text-inner-tspan" font-weight="normal">often</tspan><tspan font-style="normal" class="text-inner-tspan" font-weight="normal"> on</tspan><tspan font-style="normal" class="text-inner-tspan" font-weight="normal"> a</tspan><tspan font-style="normal" class="text-inner-tspan" font-weight="normal"> new</tspan><tspan font-style="normal" class="text-inner-tspan" font-weight="normal"> page</tspan></tspan><tspan class="text-outer-tspan row" x="0" y="2.1em" dy="1.1em"><tspan font-style="normal" class="text-inner-tspan" font-weight="normal">Insert</tspan><tspan font-style="normal" class="text-inner-tspan" font-weight="normal"> new</tspan><tspan font-style="normal" class="text-inner-tspan" font-weight="normal"> entry</tspan><tspan font-style="normal" class="text-inner-tspan" font-weight="normal"> in</tspan><tspan font-style="normal" class="text-inner-tspan" font-weight="normal"> EVERY</tspan></tspan><tspan class="text-outer-tspan row" x="0" y="3.2em" dy="1.1em"><tspan font-style="normal" class="text-inner-tspan" font-weight="normal">secondary</tspan><tspan font-style="normal" class="text-inner-tspan" font-weight="normal"> index</tspan></tspan><tspan class="text-outer-tspan row" x="0" y="4.300000000000001em" dy="1.1em"><tspan font-style="normal" class="text-inner-tspan" font-weight="normal">WAL</tspan><tspan font-style="normal" class="text-inner-tspan" font-weight="normal"> records</tspan><tspan font-style="normal" class="text-inner-tspan" font-weight="normal"> every</tspan><tspan font-style="normal" class="text-inner-tspan" font-weight="normal"> index</tspan></tspan><tspan class="text-outer-tspan row" x="0" y="5.4em" dy="1.1em"><tspan font-style="normal" class="text-inner-tspan" font-weight="normal">change</tspan></tspan></text></g></g></g><g class="node default" id="g7ade1b60-0caf-4db6-a010-937270dbd2b7-light-flowchart-WriteAmp-7" data-look="classic" transform="translate(428.7578125, 956.2812461853027)"><rect class="basic label-container" style="" x="-119.046875" y="-33.29999923706055" width="238.09375" height="66.5999984741211"></rect><g class="label" style="" transform="translate(0, -18.299999237060547)"><rect></rect><g><rect class="background" style="stroke: none"></rect><text y="-10.1" style=""><tspan class="text-outer-tspan row" x="0" y="-0.1em" dy="1.1em"><tspan font-style="normal" class="text-inner-tspan" font-weight="normal">Write</tspan><tspan font-style="normal" class="text-inner-tspan" font-weight="normal"> amplification</tspan><tspan font-style="normal" class="text-inner-tspan" font-weight="normal"> ≈</tspan><tspan font-style="normal" class="text-inner-tspan" font-weight="normal"> 1</tspan><tspan font-style="normal" class="text-inner-tspan" font-weight="normal"> +</tspan></tspan><tspan class="text-outer-tspan row" x="0" y="1em" dy="1.1em"><tspan font-style="normal" class="text-inner-tspan" font-weight="normal">n_indexes</tspan></tspan></text></g></g></g><g class="node default" id="g7ade1b60-0caf-4db6-a010-937270dbd2b7-light-flowchart-Cheap-8" data-look="classic" transform="translate(132.171875, 956.2812461853027)"><rect class="basic label-container" style="" x="-112.4375" y="-24.5" width="224.875" height="49"></rect><g class="label" style="" transform="translate(0, -9.5)"><rect></rect><g><rect class="background" style="stroke: none"></rect><text y="-10.1" style=""><tspan class="text-outer-tspan row" x="0" y="-0.1em" dy="1.1em"><tspan font-style="normal" class="text-inner-tspan" font-weight="normal">Write</tspan><tspan font-style="normal" class="text-inner-tspan" font-weight="normal"> amplification</tspan><tspan font-style="normal" class="text-inner-tspan" font-weight="normal"> ≈</tspan><tspan font-style="normal" class="text-inner-tspan" font-weight="normal"> 1</tspan></tspan></text></g></g></g></g></g></g><defs><filter id="g7ade1b60-0caf-4db6-a010-937270dbd2b7-light-drop-shadow" height="130%" width="130%"><feDropShadow dx="4" dy="4" stdDeviation="0" flood-opacity="0.06" flood-color="#000000"></feDropShadow></filter></defs><defs><filter id="g7ade1b60-0caf-4db6-a010-937270dbd2b7-light-drop-shadow-small" height="150%" width="150%"><feDropShadow dx="2" dy="2" stdDeviation="0" flood-opacity="0.06" flood-color="#000000"></feDropShadow></filter></defs></svg>