<svg id="gf8965b36-cbee-484d-aee5-0ef8be7f50b8-dark" width="100%" xmlns="http://www.w3.org/2000/svg" xmlns:xlink="http://www.w3.org/1999/xlink" class="flowchart" style="max-width: 673.43359375px;" viewBox="0 0 673.43359375 1237.5062255859375" role="graphics-document document" aria-roledescription="flowchart-v2"><style>#gf8965b36-cbee-484d-aee5-0ef8be7f50b8-dark{font-family:"trebuchet ms",verdana,arial,sans-serif;font-size:16px;fill:#e5e5e5;}@keyframes edge-animation-frame{from{stroke-dashoffset:0;}}@keyframes dash{to{stroke-dashoffset:0;}}#gf8965b36-cbee-484d-aee5-0ef8be7f50b8-dark .edge-animation-slow{stroke-dasharray:9,5!important;stroke-dashoffset:900;animation:dash 50s linear infinite;stroke-linecap:round;}#gf8965b36-cbee-484d-aee5-0ef8be7f50b8-dark .edge-animation-fast{stroke-dasharray:9,5!important;stroke-dashoffset:900;animation:dash 20s linear infinite;stroke-linecap:round;}#gf8965b36-cbee-484d-aee5-0ef8be7f50b8-dark .error-icon{fill:#252525;}#gf8965b36-cbee-484d-aee5-0ef8be7f50b8-dark .error-text{fill:#cccccc;stroke:#cccccc;}#gf8965b36-cbee-484d-aee5-0ef8be7f50b8-dark .edge-thickness-normal{stroke-width:1px;}#gf8965b36-cbee-484d-aee5-0ef8be7f50b8-dark .edge-thickness-thick{stroke-width:3.5px;}#gf8965b36-cbee-484d-aee5-0ef8be7f50b8-dark .edge-pattern-solid{stroke-dasharray:0;}#gf8965b36-cbee-484d-aee5-0ef8be7f50b8-dark .edge-thickness-invisible{stroke-width:0;fill:none;}#gf8965b36-cbee-484d-aee5-0ef8be7f50b8-dark .edge-pattern-dashed{stroke-dasharray:3;}#gf8965b36-cbee-484d-aee5-0ef8be7f50b8-dark .edge-pattern-dotted{stroke-dasharray:2;}#gf8965b36-cbee-484d-aee5-0ef8be7f50b8-dark .marker{fill:#cccccc;stroke:#cccccc;}#gf8965b36-cbee-484d-aee5-0ef8be7f50b8-dark .marker.cross{stroke:#cccccc;}#gf8965b36-cbee-484d-aee5-0ef8be7f50b8-dark svg{font-family:"trebuchet ms",verdana,arial,sans-serif;font-size:16px;}#gf8965b36-cbee-484d-aee5-0ef8be7f50b8-dark p{margin:0;}#gf8965b36-cbee-484d-aee5-0ef8be7f50b8-dark .label{font-family:"trebuchet ms",verdana,arial,sans-serif;color:#e5e5e5;}#gf8965b36-cbee-484d-aee5-0ef8be7f50b8-dark .cluster-label text{fill:#e5e5e5;}#gf8965b36-cbee-484d-aee5-0ef8be7f50b8-dark .cluster-label span{color:#e5e5e5;}#gf8965b36-cbee-484d-aee5-0ef8be7f50b8-dark .cluster-label span p{background-color:transparent;}#gf8965b36-cbee-484d-aee5-0ef8be7f50b8-dark .label text,#gf8965b36-cbee-484d-aee5-0ef8be7f50b8-dark span{fill:#e5e5e5;color:#e5e5e5;}#gf8965b36-cbee-484d-aee5-0ef8be7f50b8-dark .node rect,#gf8965b36-cbee-484d-aee5-0ef8be7f50b8-dark .node circle,#gf8965b36-cbee-484d-aee5-0ef8be7f50b8-dark .node ellipse,#gf8965b36-cbee-484d-aee5-0ef8be7f50b8-dark .node polygon,#gf8965b36-cbee-484d-aee5-0ef8be7f50b8-dark .node path{fill:#2d2d2d;stroke:#555555;stroke-width:1px;}#gf8965b36-cbee-484d-aee5-0ef8be7f50b8-dark .rough-node .label text,#gf8965b36-cbee-484d-aee5-0ef8be7f50b8-dark .node .label text,#gf8965b36-cbee-484d-aee5-0ef8be7f50b8-dark .image-shape .label,#gf8965b36-cbee-484d-aee5-0ef8be7f50b8-dark .icon-shape .label{text-anchor:middle;}#gf8965b36-cbee-484d-aee5-0ef8be7f50b8-dark .node .katex path{fill:#000;stroke:#000;stroke-width:1px;}#gf8965b36-cbee-484d-aee5-0ef8be7f50b8-dark .rough-node .label,#gf8965b36-cbee-484d-aee5-0ef8be7f50b8-dark .node .label,#gf8965b36-cbee-484d-aee5-0ef8be7f50b8-dark .image-shape .label,#gf8965b36-cbee-484d-aee5-0ef8be7f50b8-dark .icon-shape .label{text-align:center;}#gf8965b36-cbee-484d-aee5-0ef8be7f50b8-dark .node.clickable{cursor:pointer;}#gf8965b36-cbee-484d-aee5-0ef8be7f50b8-dark .root .anchor path{fill:#cccccc!important;stroke-width:0;stroke:#cccccc;}#gf8965b36-cbee-484d-aee5-0ef8be7f50b8-dark .arrowheadPath{fill:#cccccc;}#gf8965b36-cbee-484d-aee5-0ef8be7f50b8-dark .edgePath .path{stroke:#cccccc;stroke-width:1px;}#gf8965b36-cbee-484d-aee5-0ef8be7f50b8-dark .flowchart-link{stroke:#cccccc;fill:none;}#gf8965b36-cbee-484d-aee5-0ef8be7f50b8-dark .edgeLabel{background-color:#1e1e1e;text-align:center;}#gf8965b36-cbee-484d-aee5-0ef8be7f50b8-dark .edgeLabel p{background-color:#1e1e1e;}#gf8965b36-cbee-484d-aee5-0ef8be7f50b8-dark .edgeLabel rect{opacity:0.5;background-color:#1e1e1e;fill:#1e1e1e;}#gf8965b36-cbee-484d-aee5-0ef8be7f50b8-dark .labelBkg{background-color:rgba(30, 30, 30, 0.5);}#gf8965b36-cbee-484d-aee5-0ef8be7f50b8-dark .cluster rect{fill:#1e1e1e;stroke:#555555;stroke-width:1px;}#gf8965b36-cbee-484d-aee5-0ef8be7f50b8-dark .cluster text{fill:#e5e5e5;}#gf8965b36-cbee-484d-aee5-0ef8be7f50b8-dark .cluster span{color:#e5e5e5;}#gf8965b36-cbee-484d-aee5-0ef8be7f50b8-dark div.mermaidTooltip{position:absolute;text-align:center;max-width:200px;padding:2px;font-family:"trebuchet ms",verdana,arial,sans-serif;font-size:12px;background:#252525;border:1px solid #555555;border-radius:2px;pointer-events:none;z-index:100;}#gf8965b36-cbee-484d-aee5-0ef8be7f50b8-dark .flowchartTitleText{text-anchor:middle;font-size:18px;fill:#e5e5e5;}#gf8965b36-cbee-484d-aee5-0ef8be7f50b8-dark rect.text{fill:none;stroke-width:0;}#gf8965b36-cbee-484d-aee5-0ef8be7f50b8-dark .icon-shape,#gf8965b36-cbee-484d-aee5-0ef8be7f50b8-dark .image-shape{background-color:#1e1e1e;text-align:center;}#gf8965b36-cbee-484d-aee5-0ef8be7f50b8-dark .icon-shape p,#gf8965b36-cbee-484d-aee5-0ef8be7f50b8-dark .image-shape p{background-color:#1e1e1e;padding:2px;}#gf8965b36-cbee-484d-aee5-0ef8be7f50b8-dark .icon-shape .label rect,#gf8965b36-cbee-484d-aee5-0ef8be7f50b8-dark .image-shape .label rect{opacity:0.5;background-color:#1e1e1e;fill:#1e1e1e;}#gf8965b36-cbee-484d-aee5-0ef8be7f50b8-dark .label-icon{display:inline-block;height:1em;overflow:visible;vertical-align:-0.125em;}#gf8965b36-cbee-484d-aee5-0ef8be7f50b8-dark .node .label-icon path{fill:currentColor;stroke:revert;stroke-width:revert;}#gf8965b36-cbee-484d-aee5-0ef8be7f50b8-dark .node .neo-node{stroke:#555555;}#gf8965b36-cbee-484d-aee5-0ef8be7f50b8-dark [data-look="neo"].node rect,#gf8965b36-cbee-484d-aee5-0ef8be7f50b8-dark [data-look="neo"].cluster rect,#gf8965b36-cbee-484d-aee5-0ef8be7f50b8-dark [data-look="neo"].node polygon{stroke:url(#gf8965b36-cbee-484d-aee5-0ef8be7f50b8-dark-gradient);filter:drop-shadow( 1px 2px 2px rgba(185,185,185,1));}#gf8965b36-cbee-484d-aee5-0ef8be7f50b8-dark [data-look="neo"].node path{stroke:url(#gf8965b36-cbee-484d-aee5-0ef8be7f50b8-dark-gradient);stroke-width:1px;}#gf8965b36-cbee-484d-aee5-0ef8be7f50b8-dark [data-look="neo"].node .outer-path{filter:drop-shadow( 1px 2px 2px rgba(185,185,185,1));}#gf8965b36-cbee-484d-aee5-0ef8be7f50b8-dark [data-look="neo"].node .neo-line path{stroke:#555555;filter:none;}#gf8965b36-cbee-484d-aee5-0ef8be7f50b8-dark [data-look="neo"].node circle{stroke:url(#gf8965b36-cbee-484d-aee5-0ef8be7f50b8-dark-gradient);filter:drop-shadow( 1px 2px 2px rgba(185,185,185,1));}#gf8965b36-cbee-484d-aee5-0ef8be7f50b8-dark [data-look="neo"].node circle .state-start{fill:#000000;}#gf8965b36-cbee-484d-aee5-0ef8be7f50b8-dark [data-look="neo"].icon-shape .icon{fill:url(#gf8965b36-cbee-484d-aee5-0ef8be7f50b8-dark-gradient);filter:drop-shadow( 1px 2px 2px rgba(185,185,185,1));}#gf8965b36-cbee-484d-aee5-0ef8be7f50b8-dark [data-look="neo"].icon-shape .icon-neo path{stroke:url(#gf8965b36-cbee-484d-aee5-0ef8be7f50b8-dark-gradient);filter:drop-shadow( 1px 2px 2px rgba(185,185,185,1));}#gf8965b36-cbee-484d-aee5-0ef8be7f50b8-dark :root{--mermaid-font-family:"trebuchet ms",verdana,arial,sans-serif;}</style><g><marker id="gf8965b36-cbee-484d-aee5-0ef8be7f50b8-dark_flowchart-v2-pointEnd" class="marker flowchart-v2" viewBox="0 0 10 10" refX="5" refY="5" markerUnits="userSpaceOnUse" markerWidth="8" markerHeight="8" orient="auto"><path d="M 0 0 L 10 5 L 0 10 z" class="arrowMarkerPath" style="stroke-width: 1; stroke-dasharray: 1, 0;"></path></marker><marker id="gf8965b36-cbee-484d-aee5-0ef8be7f50b8-dark_flowchart-v2-pointStart" class="marker flowchart-v2" viewBox="0 0 10 10" refX="4.5" refY="5" markerUnits="userSpaceOnUse" markerWidth="8" markerHeight="8" orient="auto"><path d="M 0 5 L 10 10 L 10 0 z" class="arrowMarkerPath" style="stroke-width: 1; stroke-dasharray: 1, 0;"></path></marker><marker id="gf8965b36-cbee-484d-aee5-0ef8be7f50b8-dark_flowchart-v2-pointEnd-margin" class="marker flowchart-v2" viewBox="0 0 11.5 14" refX="11.5" refY="7" markerUnits="userSpaceOnUse" markerWidth="10.5" markerHeight="14" orient="auto"><path d="M 0 0 L 11.5 7 L 0 14 z" class="arrowMarkerPath" style="stroke-width: 0; stroke-dasharray: 1, 0;"></path></marker><marker id="gf8965b36-cbee-484d-aee5-0ef8be7f50b8-dark_flowchart-v2-pointStart-margin" class="marker flowchart-v2" viewBox="0 0 11.5 14" refX="1" refY="7" markerUnits="userSpaceOnUse" markerWidth="11.5" markerHeight="14" orient="auto"><polygon points="0,7 11.5,14 11.5,0" class="arrowMarkerPath" style="stroke-width: 0; stroke-dasharray: 1, 0;"></polygon></marker><marker id="gf8965b36-cbee-484d-aee5-0ef8be7f50b8-dark_flowchart-v2-circleEnd" class="marker flowchart-v2" viewBox="0 0 10 10" refX="11" refY="5" markerUnits="userSpaceOnUse" markerWidth="11" markerHeight="11" orient="auto"><circle cx="5" cy="5" r="5" class="arrowMarkerPath" style="stroke-width: 1; stroke-dasharray: 1, 0;"></circle></marker><marker id="gf8965b36-cbee-484d-aee5-0ef8be7f50b8-dark_flowchart-v2-circleStart" class="marker flowchart-v2" viewBox="0 0 10 10" refX="-1" refY="5" markerUnits="userSpaceOnUse" markerWidth="11" markerHeight="11" orient="auto"><circle cx="5" cy="5" r="5" class="arrowMarkerPath" style="stroke-width: 1; stroke-dasharray: 1, 0;"></circle></marker><marker id="gf8965b36-cbee-484d-aee5-0ef8be7f50b8-dark_flowchart-v2-circleEnd-margin" class="marker flowchart-v2" viewBox="0 0 10 10" refY="5" refX="12.25" markerUnits="userSpaceOnUse" markerWidth="14" markerHeight="14" orient="auto"><circle cx="5" cy="5" r="5" class="arrowMarkerPath" style="stroke-width: 0; stroke-dasharray: 1, 0;"></circle></marker><marker id="gf8965b36-cbee-484d-aee5-0ef8be7f50b8-dark_flowchart-v2-circleStart-margin" class="marker flowchart-v2" viewBox="0 0 10 10" refX="-2" refY="5" markerUnits="userSpaceOnUse" markerWidth="14" markerHeight="14" orient="auto"><circle cx="5" cy="5" r="5" class="arrowMarkerPath" style="stroke-width: 0; stroke-dasharray: 1, 0;"></circle></marker><marker id="gf8965b36-cbee-484d-aee5-0ef8be7f50b8-dark_flowchart-v2-crossEnd" class="marker cross flowchart-v2" viewBox="0 0 11 11" refX="12" refY="5.2" markerUnits="userSpaceOnUse" markerWidth="11" markerHeight="11" orient="auto"><path d="M 1,1 l 9,9 M 10,1 l -9,9" class="arrowMarkerPath" style="stroke-width: 2; stroke-dasharray: 1, 0;"></path></marker><marker id="gf8965b36-cbee-484d-aee5-0ef8be7f50b8-dark_flowchart-v2-crossStart" class="marker cross flowchart-v2" viewBox="0 0 11 11" refX="-1" refY="5.2" markerUnits="userSpaceOnUse" markerWidth="11" markerHeight="11" orient="auto"><path d="M 1,1 l 9,9 M 10,1 l -9,9" class="arrowMarkerPath" style="stroke-width: 2; stroke-dasharray: 1, 0;"></path></marker><marker id="gf8965b36-cbee-484d-aee5-0ef8be7f50b8-dark_flowchart-v2-crossEnd-margin" class="marker cross flowchart-v2" viewBox="0 0 15 15" refX="17.7" refY="7.5" markerUnits="userSpaceOnUse" markerWidth="12" markerHeight="12" orient="auto"><path d="M 1,1 L 14,14 M 1,14 L 14,1" class="arrowMarkerPath" style="stroke-width: 2.5;"></path></marker><marker id="gf8965b36-cbee-484d-aee5-0ef8be7f50b8-dark_flowchart-v2-crossStart-margin" class="marker cross flowchart-v2" viewBox="0 0 15 15" refX="-3.5" refY="7.5" markerUnits="userSpaceOnUse" markerWidth="12" markerHeight="12" orient="auto"><path d="M 1,1 L 14,14 M 1,14 L 14,1" class="arrowMarkerPath" style="stroke-width: 2.5; stroke-dasharray: 1, 0;"></path></marker><g class="root"><g class="clusters"></g><g class="edgePaths"><path d="M261.883,42.5L261.799,46.583C261.716,50.667,261.549,58.833,261.466,66.417C261.383,74,261.383,81,261.383,84.5L261.383,88" id="gf8965b36-cbee-484d-aee5-0ef8be7f50b8-dark-L_Start_Q1_0" class="edge-thickness-normal edge-pattern-solid edge-thickness-normal edge-pattern-solid flowchart-link" style=";" data-edge="true" data-et="edge" data-id="L_Start_Q1_0" data-points="W3sieCI6MjYxLjg4MjgxMjUsInkiOjQyLjV9LHsieCI6MjYxLjM4MjgxMjUsInkiOjY3fSx7IngiOjI2MS4zODI4MTI1LCJ5Ijo5MS45OTk5OTk5OTk5OTk5OX1d" data-look="classic" marker-end="url(#gf8965b36-cbee-484d-aee5-0ef8be7f50b8-dark_flowchart-v2-pointEnd)"></path><path d="M206.095,231.671L186.048,246.969C166.002,262.267,125.909,292.863,105.863,333.351C85.816,373.838,85.816,424.217,85.816,474.595C85.816,524.974,85.816,575.353,88.599,606.031C91.382,636.709,96.947,647.686,99.73,653.175L102.512,658.664" id="gf8965b36-cbee-484d-aee5-0ef8be7f50b8-dark-L_Q1_NotIOS_0" class="edge-thickness-normal edge-pattern-solid edge-thickness-normal edge-pattern-solid flowchart-link" style=";" data-edge="true" data-et="edge" data-id="L_Q1_NotIOS_0" data-points="W3sieCI6MjA2LjA5NDg5NTM1NDk5ODUsInkiOjIzMS42NzE0NjM5NTg1MTQxNX0seyJ4Ijo4NS44MTY0MDYyNSwieSI6MzIzLjQ1OTM4MTEwMzUxNTZ9LHsieCI6ODUuODE2NDA2MjUsInkiOjQ3NC41OTUzMjE2NTUyNzM0NH0seyJ4Ijo4NS44MTY0MDYyNSwieSI6NjI1LjczMTI2MjIwNzAzMTJ9LHsieCI6MTA0LjMyMDkyMjcwNDA1MTk1LCJ5Ijo2NjIuMjMxMjYyMjA3MDMxMn1d" data-look="classic" marker-end="url(#gf8965b36-cbee-484d-aee5-0ef8be7f50b8-dark_flowchart-v2-pointEnd)"></path><path d="M302.568,245.774L312.04,258.722C321.513,271.669,340.458,297.564,349.93,315.929C359.402,334.293,359.402,345.126,359.402,350.543L359.402,355.959" id="gf8965b36-cbee-484d-aee5-0ef8be7f50b8-dark-L_Q1_Q2_0" class="edge-thickness-normal edge-pattern-solid edge-thickness-normal edge-pattern-solid flowchart-link" style=";" data-edge="true" data-et="edge" data-id="L_Q1_Q2_0" data-points="W3sieCI6MzAyLjU2NzkyMjk1MDI1MzksInkiOjI0NS43NzQyNzA2NTMyNjE2OH0seyJ4IjozNTkuNDAyMzQzNzUsInkiOjMyMy40NTkzODExMDM1MTU2fSx7IngiOjM1OS40MDIzNDM3NSwieSI6MzU5Ljk1OTM4MTEwMzUxNTZ9XQ==" data-look="classic" marker-end="url(#gf8965b36-cbee-484d-aee5-0ef8be7f50b8-dark_flowchart-v2-pointEnd)"></path><path d="M304.24,534.069L290.071,549.346C275.901,564.623,247.562,595.177,225.393,616.151C203.223,637.125,187.224,648.518,179.224,654.214L171.224,659.911" id="gf8965b36-cbee-484d-aee5-0ef8be7f50b8-dark-L_Q2_NotIOS_0" class="edge-thickness-normal edge-pattern-solid edge-thickness-normal edge-pattern-solid flowchart-link" style=";" data-edge="true" data-et="edge" data-id="L_Q2_NotIOS_0" data-points="W3sieCI6MzA0LjI0MDA3NzIwNjcyMDM0LCJ5Ijo1MzQuMDY4OTk1NjYzNzUxNX0seyJ4IjoyMTkuMjIyNjU2MjUsInkiOjYyNS43MzEyNjIyMDcwMzEyfSx7IngiOjE2Ny45NjYwMjQwMTg5MDEwNCwieSI6NjYyLjIzMTI2MjIwNzAzMTJ9XQ==" data-look="classic" marker-end="url(#gf8965b36-cbee-484d-aee5-0ef8be7f50b8-dark_flowchart-v2-pointEnd)"></path><path d="M384.406,564.228L387.265,574.478C390.125,584.729,395.844,605.23,398.703,620.897C401.563,636.565,401.563,647.398,401.563,652.815L401.563,658.231" id="gf8965b36-cbee-484d-aee5-0ef8be7f50b8-dark-L_Q2_Walk_0" class="edge-thickness-normal edge-pattern-solid edge-thickness-normal edge-pattern-solid flowchart-link" style=";" data-edge="true" data-et="edge" data-id="L_Q2_Walk_0" data-points="W3sieCI6Mzg0LjQwNTc5MzA5Nzg5MTIsInkiOjU2NC4yMjc4MTI4NTkxNDAyfSx7IngiOjQwMS41NjI1LCJ5Ijo2MjUuNzMxMjYyMjA3MDMxMn0seyJ4Ijo0MDEuNTYyNSwieSI6NjYyLjIzMTI2MjIwNzAzMTJ9XQ==" data-look="classic" marker-end="url(#gf8965b36-cbee-484d-aee5-0ef8be7f50b8-dark_flowchart-v2-pointEnd)"></path><path d="M401.563,728.831L401.563,732.998C401.563,737.165,401.563,745.498,401.563,753.165C401.563,760.831,401.563,767.831,401.563,771.331L401.563,774.831" id="gf8965b36-cbee-484d-aee5-0ef8be7f50b8-dark-L_Walk_VM_0" class="edge-thickness-normal edge-pattern-solid edge-thickness-normal edge-pattern-solid flowchart-link" style=";" data-edge="true" data-et="edge" data-id="L_Walk_VM_0" data-points="W3sieCI6NDAxLjU2MjUsInkiOjcyOC44MzEyNjA2ODExNTIzfSx7IngiOjQwMS41NjI1LCJ5Ijo3NTMuODMxMjYwNjgxMTUyM30seyJ4Ijo0MDEuNTYyNSwieSI6Nzc4LjgzMTI2MDY4MTE1MjJ9XQ==" data-look="classic" marker-end="url(#gf8965b36-cbee-484d-aee5-0ef8be7f50b8-dark_flowchart-v2-pointEnd)"></path><path d="M347.888,937.232L332.483,952.261C317.078,967.29,286.267,997.348,270.862,1017.794C255.457,1038.24,255.457,1049.073,255.457,1054.49L255.457,1059.906" id="gf8965b36-cbee-484d-aee5-0ef8be7f50b8-dark-L_VM_ReturnFromIdx_0" class="edge-thickness-normal edge-pattern-solid edge-thickness-normal edge-pattern-solid flowchart-link" style=";" data-edge="true" data-et="edge" data-id="L_VM_ReturnFromIdx_0" data-points="W3sieCI6MzQ3Ljg4ODM3NTk4MjI0OTk1LCJ5Ijo5MzcuMjMyMTMzNjExNjQ0NH0seyJ4IjoyNTUuNDU3MDMxMjUsInkiOjEwMjcuNDA2MjU3NjI5Mzk0NX0seyJ4IjoyNTUuNDU3MDMxMjUsInkiOjEwNjMuOTA2MjU3NjI5Mzk0NX1d" data-look="classic" marker-end="url(#gf8965b36-cbee-484d-aee5-0ef8be7f50b8-dark_flowchart-v2-pointEnd)"></path><path d="M455.237,937.232L470.642,952.261C486.047,967.29,516.858,997.348,532.263,1017.794C547.668,1038.24,547.668,1049.073,547.668,1054.49L547.668,1059.906" id="gf8965b36-cbee-484d-aee5-0ef8be7f50b8-dark-L_VM_HeapVisit_0" class="edge-thickness-normal edge-pattern-solid edge-thickness-normal edge-pattern-solid flowchart-link" style=";" data-edge="true" data-et="edge" data-id="L_VM_HeapVisit_0" data-points="W3sieCI6NDU1LjIzNjYyNDAxNzc1MDE2LCJ5Ijo5MzcuMjMyMTMzNjExNjQ0M30seyJ4Ijo1NDcuNjY3OTY4NzUsInkiOjEwMjcuNDA2MjU3NjI5Mzk0NX0seyJ4Ijo1NDcuNjY3OTY4NzUsInkiOjEwNjMuOTA2MjU3NjI5Mzk0NX1d" data-look="classic" marker-end="url(#gf8965b36-cbee-484d-aee5-0ef8be7f50b8-dark_flowchart-v2-pointEnd)"></path><path d="M547.668,1130.506L547.668,1134.673C547.668,1138.84,547.668,1147.173,547.668,1154.84C547.668,1162.506,547.668,1169.506,547.668,1173.006L547.668,1176.506" id="gf8965b36-cbee-484d-aee5-0ef8be7f50b8-dark-L_HeapVisit_ReturnFromHeap_0" class="edge-thickness-normal edge-pattern-solid edge-thickness-normal edge-pattern-solid flowchart-link" style=";" data-edge="true" data-et="edge" data-id="L_HeapVisit_ReturnFromHeap_0" data-points="W3sieCI6NTQ3LjY2Nzk2ODc1LCJ5IjoxMTMwLjUwNjI1NjEwMzUxNTZ9LHsieCI6NTQ3LjY2Nzk2ODc1LCJ5IjoxMTU1LjUwNjI1NjEwMzUxNTZ9LHsieCI6NTQ3LjY2Nzk2ODc1LCJ5IjoxMTgwLjUwNjI1NjEwMzUxNTZ9XQ==" data-look="classic" marker-end="url(#gf8965b36-cbee-484d-aee5-0ef8be7f50b8-dark_flowchart-v2-pointEnd)"></path></g><g class="edgeLabels"><g class="edgeLabel"><g class="label" data-id="L_Start_Q1_0" transform="translate(0, 0)"><text y="-10.1" text-anchor="middle"><tspan class="text-outer-tspan row" x="0" y="-0.1em" dy="1.1em" text-anchor="middle"></tspan></text></g></g><g><rect class="background" style="stroke: none"></rect></g><g class="edgeLabel" transform="translate(85.81640625, 474.59532165527344)"><g class="label" data-id="L_Q1_NotIOS_0" transform="translate(0, -10.5)"><g><rect class="background" style="" x="-10.6640625" y="-1" width="21.328125" height="23"></rect><text y="-10.1" text-anchor="middle" style=""><tspan class="text-outer-tspan row" x="0" y="-0.1em" dy="1.1em" text-anchor="middle"><tspan font-style="normal" class="text-inner-tspan" font-weight="normal">no</tspan></tspan></text></g></g></g><g class="edgeLabel" transform="translate(359.40234375, 323.4593811035156)"><g class="label" data-id="L_Q1_Q2_0" transform="translate(0, -10.5)"><g><rect class="background" style="" x="-13.546875" y="-1" width="27.09375" height="23"></rect><text y="-10.1" text-anchor="middle" style=""><tspan class="text-outer-tspan row" x="0" y="-0.1em" dy="1.1em" text-anchor="middle"><tspan font-style="normal" class="text-inner-tspan" font-weight="normal">yes</tspan></tspan></text></g></g></g><g class="edgeLabel" transform="translate(240.33603, 602.9677)"><g class="label" data-id="L_Q2_NotIOS_0" transform="translate(0, -10.5)"><g><rect class="background" style="" x="-50.7734375" y="-1" width="101.546875" height="23"></rect><text y="-10.1" text-anchor="middle" style=""><tspan class="text-outer-tspan row" x="0" y="-0.1em" dy="1.1em" text-anchor="middle"><tspan font-style="normal" class="text-inner-tspan" font-weight="normal">no</tspan><tspan font-style="normal" class="text-inner-tspan" font-weight="normal"> —</tspan><tspan font-style="normal" class="text-inner-tspan" font-weight="normal"> e.g.</tspan><tspan font-style="normal" class="text-inner-tspan" font-weight="normal"> GIN</tspan></tspan></text></g></g></g><g class="edgeLabel" transform="translate(401.5625, 625.7312622070312)"><g class="label" data-id="L_Q2_Walk_0" transform="translate(0, -10.5)"><g><rect class="background" style="" x="-13.546875" y="-1" width="27.09375" height="23"></rect><text y="-10.1" text-anchor="middle" style=""><tspan class="text-outer-tspan row" x="0" y="-0.1em" dy="1.1em" text-anchor="middle"><tspan font-style="normal" class="text-inner-tspan" font-weight="normal">yes</tspan></tspan></text></g></g></g><g class="edgeLabel"><g class="label" data-id="L_Walk_VM_0" transform="translate(0, 0)"><text y="-10.1" text-anchor="middle"><tspan class="text-outer-tspan row" x="0" y="-0.1em" dy="1.1em" text-anchor="middle"></tspan></text></g></g><g><rect class="background" style="stroke: none"></rect></g><g class="edgeLabel" transform="translate(255.45703125, 1027.4062576293945)"><g class="label" data-id="L_VM_ReturnFromIdx_0" transform="translate(0, -10.5)"><g><rect class="background" style="" x="-12.7734375" y="-1" width="25.546875" height="23"></rect><text y="-10.1" text-anchor="middle" style=""><tspan class="text-outer-tspan row" x="0" y="-0.1em" dy="1.1em" text-anchor="middle"><tspan font-style="normal" class="text-inner-tspan" font-weight="normal">set</tspan></tspan></text></g></g></g><g class="edgeLabel" transform="translate(547.66796875, 1027.4062576293945)"><g class="label" data-id="L_VM_HeapVisit_0" transform="translate(0, -10.5)"><g><rect class="background" style="" x="-21.515625" y="-1" width="43.03125" height="23"></rect><text y="-10.1" text-anchor="middle" style=""><tspan class="text-outer-tspan row" x="0" y="-0.1em" dy="1.1em" text-anchor="middle"><tspan font-style="normal" class="text-inner-tspan" font-weight="normal">unset</tspan></tspan></text></g></g></g><g class="edgeLabel"><g class="label" data-id="L_HeapVisit_ReturnFromHeap_0" transform="translate(0, 0)"><text y="-10.1" text-anchor="middle"><tspan class="text-outer-tspan row" x="0" y="-0.1em" dy="1.1em" text-anchor="middle"></tspan></text></g></g><g><rect class="background" style="stroke: none"></rect></g></g><g class="nodes"><g class="node default" id="gf8965b36-cbee-484d-aee5-0ef8be7f50b8-dark-flowchart-Start-0" data-look="classic" transform="translate(261.3828125, 25)"><g class="basic label-container outer-path"><path d="M-89.859375 -17 C-48.4610386228555 -17, -7.0627022457109945 -17, 89.859375 -17 C89.859375 -17, 89.859375 -17, 89.859375 -17 C90.18522754342942 -16.989550543165716, 90.51108008685884 -16.979101086331433, 90.94856873967211 -16.965071676755716 C91.25652209648632 -16.93536378679195, 91.56447545330052 -16.905655896828183, 92.0332867486366 -16.860430234995185 C92.31255048772141 -16.815281039382594, 92.59181422680624 -16.770131843770002, 93.10907168792333 -16.686505668848113 C93.51500181893245 -16.593854765386943, 93.92093194994156 -16.501203861925774, 94.17150292646163 -16.4440126716635 C94.40137434050804 -16.3757880425942, 94.63124575455446 -16.3075634135249, 95.21621470640156 -16.133947699181366 C95.61894826721255 -15.985738025974698, 96.02168182802353 -15.837528352768027, 96.23891408294936 -15.757584874882369 C96.63712763136058 -15.581307549585931, 97.03534117977182 -15.405030224289495, 97.23539856499849 -15.316470754341125 C97.61252628241448 -15.119723465727036, 97.98965399983047 -14.922976177112947, 98.20157338406693 -14.812417970097622 C98.4054913474397 -14.688801702346078, 98.60940931081248 -14.565185434594534, 99.13346832057933 -14.247497783161291 C99.33308446036607 -14.108254205289478, 99.53270060015281 -13.969010627417665, 100.02725401835067 -13.624031571755262 C100.31440855256815 -13.395033472219907, 100.60156308678562 -13.166035372684552, 100.8792577202324 -12.944581292275288 C101.10835553565916 -12.736520717900735, 101.33745335108593 -12.528460143526182, 101.68597836025927 -12.21193895166137 C101.95186316031322 -11.937391066057605, 102.21774796036718 -11.66284318045384, 102.44410095028036 -11.42911513444239 C102.67265892325938 -11.160637934064145, 102.90121689623841 -10.8921607336859, 103.15051020195651 -10.59932663159847 C103.30638511731344 -10.3904684455171, 103.46226003267037 -10.18161025943573, 103.80230332814824 -9.725983222076888 C103.9621139763219 -9.48047115131442, 104.12192462449556 -9.23495908055195, 104.39680197109088 -8.812673661278927 C104.51612760694401 -8.600798911790838, 104.63545324279713 -8.388924162302748, 104.931563208341 -7.863150934094199 C105.11612300957222 -7.479908557890432, 105.30068281080344 -7.096666181686665, 105.40438959126881 -6.881316833080699 C105.51250752514221 -6.6142634460953476, 105.62062545901561 -6.3472100591099965, 105.81333817484592 -5.871205925162238 C105.93560822408097 -5.502948017953063, 106.057878273316 -5.134690110743889, 106.15672850162323 -4.836968972727556 C106.25591257617597 -4.458737109808122, 106.35509665072871 -4.080505246888688, 106.433149507091 -3.7828558772573464 C106.4914429957238 -3.4835311334610783, 106.54973648435661 -3.1842063896648103, 106.64146531804565 -2.713198215567453 C106.67729529992182 -2.4353079515660103, 106.713125281798 -2.1574176875645676, 106.78081992013637 -1.632391440430593 C106.80045962306806 -1.3264872143864739, 106.82009932599978 -1.0205829883423547, 106.8506406754117 -0.5448768187181379 C106.8506406754117 -0.2165125868489015, 106.8506406754117 0.11185164502033484, 106.8506406754117 0.5448768187181336 C106.83136393802997 0.845127563341004, 106.81208720064822 1.1453783079638744, 106.78081992013637 1.6323914404305815 C106.74634999408562 1.8997333800233163, 106.71188006803489 2.1670753196160515, 106.64146531804565 2.7131982155674415 C106.59516391224875 2.9509461485289585, 106.54886250645184 3.188694081490475, 106.433149507091 3.782855877257343 C106.37724411814132 3.9960473548713087, 106.32133872919165 4.2092388324852745, 106.15672850162323 4.836968972727545 C106.08647744512426 5.048553961916626, 106.0162263886253 5.260138951105708, 105.81333817484592 5.871205925162227 C105.70578953859625 6.136853136010342, 105.59824090234659 6.4025003468584565, 105.40438959126881 6.881316833080694 C105.29820994353636 7.101801143477623, 105.19203029580393 7.322285453874552, 104.931563208341 7.863150934094196 C104.75555381206838 8.175673440060235, 104.57954441579578 8.488195946026275, 104.39680197109088 8.812673661278923 C104.27514301099622 8.999574493989337, 104.15348405090157 9.186475326699751, 103.80230332814826 9.725983222076879 C103.58323686201561 10.019512329328998, 103.36417039588297 10.313041436581118, 103.15051020195651 10.599326631598467 C102.99911646258792 10.777162332408619, 102.84772272321933 10.954998033218772, 102.44410095028037 11.42911513444238 C102.16239997190688 11.71999452269346, 101.88069899353339 12.01087391094454, 101.68597836025927 12.211938951661365 C101.36827630459067 12.500467552683832, 101.05057424892206 12.788996153706297, 100.87925772023242 12.944581292275275 C100.5738944771053 13.188100352611979, 100.26853123397818 13.431619412948685, 100.02725401835067 13.62403157175526 C99.80678230705941 13.777823093485495, 99.58631059576813 13.931614615215729, 99.13346832057934 14.247497783161286 C98.87505954808236 14.404146699627459, 98.6166507755854 14.560795616093632, 98.20157338406695 14.81241797009762 C97.85528023278947 14.993078885307728, 97.50898708151199 15.173739800517838, 97.23539856499849 15.316470754341124 C96.89473077106005 15.467274281166613, 96.55406297712162 15.618077807992105, 96.23891408294936 15.757584874882367 C95.91609949933675 15.876383625717105, 95.59328491572415 15.995182376551844, 95.21621470640156 16.133947699181363 C94.97647461902811 16.205101298692405, 94.73673453165466 16.276254898203447, 94.17150292646164 16.444012671663497 C93.80935024346269 16.526671658290894, 93.44719756046372 16.60933064491829, 93.10907168792333 16.68650566884811 C92.85991278712974 16.726787747672283, 92.61075388633614 16.767069826496456, 92.03328674863661 16.86043023499518 C91.64096817649187 16.89827673581787, 91.24864960434712 16.936123236640558, 90.94856873967211 16.965071676755716 C90.72063471503311 16.972381077279223, 90.49270069039412 16.979690477802734, 89.859375 17 C89.859375 17, 89.859375 17, 89.859375 17 C34.33846501855565 17, -21.182444962888695 17, -89.859375 17 C-90.08522581607008 16.992757403920578, -90.31107663214014 16.985514807841156, -90.94856873967211 16.965071676755716 C-91.25483012499664 16.935527009246663, -91.56109151032116 16.905982341737612, -92.0332867486366 16.86043023499518 C-92.41006104011443 16.799516289477317, -92.78683533159224 16.738602343959453, -93.10907168792333 16.68650566884811 C-93.33650635647403 16.634595189901326, -93.56394102502475 16.58268471095454, -94.17150292646161 16.4440126716635 C-94.48458151514106 16.351092589926488, -94.7976601038205 16.258172508189478, -95.21621470640154 16.13394769918137 C-95.44935343038868 16.048150493643366, -95.68249215437581 15.962353288105358, -96.23891408294936 15.757584874882369 C-96.6260958731186 15.58619098171418, -97.01327766328784 15.41479708854599, -97.23539856499849 15.316470754341127 C-97.54524143289066 15.154825928625609, -97.85508430078283 14.99318110291009, -98.20157338406693 14.812417970097624 C-98.42877322497235 14.674688091366292, -98.65597306587776 14.536958212634962, -99.13346832057931 14.247497783161299 C-99.32941788833695 14.110811847213649, -99.52536745609459 13.974125911265997, -100.02725401835067 13.624031571755264 C-100.3621488183901 13.356961880648734, -100.6970436184295 13.089892189542207, -100.8792577202324 12.94458129227529 C-101.07423427963485 12.76750873982305, -101.2692108390373 12.59043618737081, -101.68597836025926 12.211938951661377 C-101.8381749891842 12.054783436720761, -101.99037161810912 11.897627921780147, -102.44410095028036 11.429115134442386 C-102.67679706048229 11.155777042615437, -102.90949317068421 10.88243895078849, -103.15051020195651 10.599326631598473 C-103.37491173507372 10.298649020621626, -103.59931326819094 9.99797140964478, -103.80230332814824 9.72598322207689 C-104.0008908292177 9.42089949222353, -104.19947833028714 9.115815762370168, -104.39680197109088 8.812673661278936 C-104.53964438157553 8.55904249710093, -104.68248679206016 8.305411332922922, -104.931563208341 7.863150934094201 C-105.09800703343629 7.5175267699564925, -105.26445085853157 7.171902605818784, -105.40438959126881 6.881316833080701 C-105.4974720086481 6.651401462527723, -105.59055442602741 6.421486091974744, -105.81333817484592 5.87120592516224 C-105.94963708132772 5.460695335120669, -106.08593598780953 5.050184745079099, -106.15672850162323 4.8369689727275516 C-106.22890344983092 4.561734614391231, -106.3010783980386 4.28650025605491, -106.433149507091 3.782855877257349 C-106.49818583511981 3.4489080782622024, -106.56322216314862 3.1149602792670557, -106.64146531804565 2.713198215567455 C-106.67557404176453 2.4486576899330617, -106.70968276548344 2.1841171642986685, -106.78081992013637 1.6323914404306026 C-106.80597363611416 1.2406020103622954, -106.83112735209197 0.8488125802939885, -106.8506406754117 0.54487681871814 C-106.8506406754117 0.1838654404686612, -106.8506406754117 -0.17714593778081755, -106.8506406754117 -0.5448768187181317 C-106.82909558047757 -0.8804590632047903, -106.80755048554343 -1.216041307691449, -106.78081992013637 -1.6323914404305793 C-106.73132065177624 -2.0162979910956, -106.6818213834161 -2.400204541760621, -106.64146531804565 -2.713198215567447 C-106.561443186896 -3.1240949463374608, -106.48142105574637 -3.5349916771074748, -106.433149507091 -3.782855877257341 C-106.33915370089329 -4.14130262432932, -106.24515789469558 -4.499749371401299, -106.15672850162323 -4.836968972727544 C-106.08281563826931 -5.05958274073406, -106.00890277491538 -5.282196508740575, -105.81333817484594 -5.871205925162218 C-105.71986660623831 -6.102082506772878, -105.6263950376307 -6.332959088383538, -105.40438959126881 -6.881316833080692 C-105.27037856003818 -7.1595936068078085, -105.13636752880757 -7.4378703805349256, -104.931563208341 -7.863150934094194 C-104.78620826398753 -8.121243356577956, -104.64085331963405 -8.37933577906172, -104.39680197109088 -8.812673661278929 C-104.23750804883817 -9.057391902266497, -104.07821412658544 -9.302110143254065, -103.80230332814826 -9.725983222076884 C-103.55785853250399 -10.053516978861204, -103.3134137368597 -10.381050735645521, -103.15051020195651 -10.599326631598467 C-102.88940750383203 -10.906032717979887, -102.62830480570756 -11.212738804361308, -102.44410095028037 -11.42911513444238 C-102.19785734267393 -11.683381876272204, -101.95161373506747 -11.937648618102028, -101.68597836025927 -12.21193895166136 C-101.40413011682432 -12.467906069053116, -101.12228187338935 -12.723873186444871, -100.87925772023242 -12.944581292275274 C-100.62343884138306 -13.148590040531364, -100.36761996253371 -13.352598788787454, -100.02725401835067 -13.624031571755259 C-99.69920686899371 -13.852863062214464, -99.37115971963674 -14.08169455267367, -99.13346832057934 -14.247497783161284 C-98.88836012617406 -14.396083811025395, -98.64325193176879 -14.544669838889504, -98.20157338406695 -14.812417970097618 C-97.91507078586247 -14.961886192067226, -97.62856818765798 -15.111354414036832, -97.23539856499849 -15.316470754341124 C-96.98649846080053 -15.426651447110297, -96.73759835660258 -15.536832139879472, -96.23891408294936 -15.757584874882365 C-95.87778108383027 -15.890485156835041, -95.51664808471118 -16.023385438787717, -95.21621470640156 -16.133947699181363 C-94.89487812634223 -16.22931870941284, -94.57354154628293 -16.324689719644315, -94.17150292646164 -16.444012671663494 C-93.74800369460159 -16.54067360774479, -93.32450446274154 -16.63733454382609, -93.10907168792333 -16.68650566884811 C-92.72275798326774 -16.7489618727093, -92.33644427861215 -16.811418076570494, -92.03328674863661 -16.86043023499518 C-91.62614148552488 -16.89970704886375, -91.21899622241317 -16.938983862732318, -90.94856873967213 -16.965071676755716 C-90.66164101762764 -16.974272890330752, -90.37471329558316 -16.983474103905788, -89.859375 -17 C-89.859375 -17, -89.859375 -17, -89.859375 -17" stroke="none" stroke-width="0" fill="#2d2d2d" style=""></path><path d="M-89.859375 -17 C-48.647369649472544 -17, -7.435364298945089 -17, 89.859375 -17 M-89.859375 -17 C-35.69900685297161 -17, 18.461361294056786 -17, 89.859375 -17 M89.859375 -17 C89.859375 -17, 89.859375 -17, 89.859375 -17 M89.859375 -17 C89.859375 -17, 89.859375 -17, 89.859375 -17 M89.859375 -17 C90.13531420997677 -16.991151166619133, 90.41125341995354 -16.98230233323827, 90.94856873967211 -16.965071676755716 M89.859375 -17 C90.16712963950661 -16.990130907719088, 90.47488427901324 -16.980261815438176, 90.94856873967211 -16.965071676755716 M90.94856873967211 -16.965071676755716 C91.24201415632174 -16.936763350331276, 91.53545957297136 -16.908455023906836, 92.0332867486366 -16.860430234995185 M90.94856873967211 -16.965071676755716 C91.24973411698426 -16.936018615010774, 91.55089949429639 -16.90696555326583, 92.0332867486366 -16.860430234995185 M92.0332867486366 -16.860430234995185 C92.28707734838885 -16.819399339002736, 92.54086794814111 -16.778368443010287, 93.10907168792333 -16.686505668848113 M92.0332867486366 -16.860430234995185 C92.42251084861789 -16.79750350098819, 92.81173494859917 -16.734576766981192, 93.10907168792333 -16.686505668848113 M93.10907168792333 -16.686505668848113 C93.50177510393685 -16.596873676772308, 93.89447851995037 -16.5072416846965, 94.17150292646163 -16.4440126716635 M93.10907168792333 -16.686505668848113 C93.32505890154206 -16.637207996787925, 93.5410461151608 -16.587910324727737, 94.17150292646163 -16.4440126716635 M94.17150292646163 -16.4440126716635 C94.46894008232434 -16.355734885082942, 94.76637723818703 -16.26745709850238, 95.21621470640156 -16.133947699181366 M94.17150292646163 -16.4440126716635 C94.5427283509267 -16.33383491428429, 94.91395377539175 -16.223657156905073, 95.21621470640156 -16.133947699181366 M95.21621470640156 -16.133947699181366 C95.53422825436198 -16.01691577384692, 95.85224180232238 -15.899883848512475, 96.23891408294936 -15.757584874882369 M95.21621470640156 -16.133947699181366 C95.53582119070856 -16.016329558546435, 95.85542767501555 -15.898711417911507, 96.23891408294936 -15.757584874882369 M96.23891408294936 -15.757584874882369 C96.49001276184903 -15.64643093831115, 96.74111144074868 -15.535277001739933, 97.23539856499849 -15.316470754341125 M96.23891408294936 -15.757584874882369 C96.57828567413195 -15.607355138566408, 96.91765726531453 -15.457125402250448, 97.23539856499849 -15.316470754341125 M97.23539856499849 -15.316470754341125 C97.55162116413135 -15.151497626923751, 97.86784376326422 -14.986524499506375, 98.20157338406693 -14.812417970097622 M97.23539856499849 -15.316470754341125 C97.51149621238514 -15.172430788548493, 97.78759385977179 -15.02839082275586, 98.20157338406693 -14.812417970097622 M98.20157338406693 -14.812417970097622 C98.41480666316878 -14.683154703208245, 98.62803994227062 -14.553891436318871, 99.13346832057933 -14.247497783161291 M98.20157338406693 -14.812417970097622 C98.49014345177783 -14.637485099225325, 98.77871351948873 -14.462552228353026, 99.13346832057933 -14.247497783161291 M99.13346832057933 -14.247497783161291 C99.38062126305248 -14.075094589570465, 99.62777420552563 -13.902691395979637, 100.02725401835067 -13.624031571755262 M99.13346832057933 -14.247497783161291 C99.47113111608037 -14.011958834206595, 99.80879391158142 -13.776419885251897, 100.02725401835067 -13.624031571755262 M100.02725401835067 -13.624031571755262 C100.3579093003936 -13.36034278343262, 100.68856458243654 -13.096653995109977, 100.8792577202324 -12.944581292275288 M100.02725401835067 -13.624031571755262 C100.25017890719906 -13.446254905179108, 100.47310379604744 -13.268478238602953, 100.8792577202324 -12.944581292275288 M100.8792577202324 -12.944581292275288 C101.07308144327402 -12.768555715303583, 101.26690516631564 -12.592530138331878, 101.68597836025927 -12.21193895166137 M100.8792577202324 -12.944581292275288 C101.1802305764168 -12.67124570759401, 101.4812034326012 -12.397910122912734, 101.68597836025927 -12.21193895166137 M101.68597836025927 -12.21193895166137 C101.95795916182503 -11.931096444005634, 102.22993996339079 -11.650253936349896, 102.44410095028036 -11.42911513444239 M101.68597836025927 -12.21193895166137 C101.95725956822595 -11.931818831834377, 102.22854077619265 -11.651698712007384, 102.44410095028036 -11.42911513444239 M102.44410095028036 -11.42911513444239 C102.62743828586042 -11.213756667880128, 102.81077562144047 -10.998398201317867, 103.15051020195651 -10.59932663159847 M102.44410095028036 -11.42911513444239 C102.60908479472927 -11.235315722906007, 102.77406863917817 -11.041516311369627, 103.15051020195651 -10.59932663159847 M103.15051020195651 -10.59932663159847 C103.29557725055672 -10.404950002354184, 103.44064429915694 -10.210573373109897, 103.80230332814824 -9.725983222076888 M103.15051020195651 -10.59932663159847 C103.40643515793889 -10.256410505825212, 103.66236011392127 -9.913494380051954, 103.80230332814824 -9.725983222076888 M103.80230332814824 -9.725983222076888 C103.92786963798089 -9.533079650898612, 104.05343594781353 -9.340176079720335, 104.39680197109088 -8.812673661278927 M103.80230332814824 -9.725983222076888 C104.00706608476254 -9.41141264141834, 104.21182884137684 -9.096842060759792, 104.39680197109088 -8.812673661278927 M104.39680197109088 -8.812673661278927 C104.60091886061191 -8.450243454857997, 104.80503575013294 -8.087813248437067, 104.931563208341 -7.863150934094199 M104.39680197109088 -8.812673661278927 C104.58629756770972 -8.476205040972292, 104.77579316432856 -8.13973642066566, 104.931563208341 -7.863150934094199 M104.931563208341 -7.863150934094199 C105.04299869975206 -7.63175275184159, 105.15443419116312 -7.400354569588981, 105.40438959126881 -6.881316833080699 M104.931563208341 -7.863150934094199 C105.07735299595424 -7.560415320713577, 105.22314278356747 -7.257679707332955, 105.40438959126881 -6.881316833080699 M105.40438959126881 -6.881316833080699 C105.52160624951466 -6.591789420983516, 105.63882290776053 -6.302262008886332, 105.81333817484592 -5.871205925162238 M105.40438959126881 -6.881316833080699 C105.50523422096067 -6.632228648043528, 105.60607885065252 -6.383140463006358, 105.81333817484592 -5.871205925162238 M105.81333817484592 -5.871205925162238 C105.9394486013923 -5.491381413372363, 106.06555902793866 -5.111556901582487, 106.15672850162323 -4.836968972727556 M105.81333817484592 -5.871205925162238 C105.92917806273708 -5.52231463941376, 106.04501795062824 -5.173423353665282, 106.15672850162323 -4.836968972727556 M106.15672850162323 -4.836968972727556 C106.2640634921876 -4.4276541344264375, 106.37139848275197 -4.01833929612532, 106.433149507091 -3.7828558772573464 M106.15672850162323 -4.836968972727556 C106.25260528161908 -4.471349257344083, 106.34848206161493 -4.105729541960609, 106.433149507091 -3.7828558772573464 M106.433149507091 -3.7828558772573464 C106.49841477344658 -3.4477325283403886, 106.56368003980215 -3.1126091794234303, 106.64146531804565 -2.713198215567453 M106.433149507091 -3.7828558772573464 C106.5152706344782 -3.361181244430502, 106.5973917618654 -2.9395066116036572, 106.64146531804565 -2.713198215567453 M106.64146531804565 -2.713198215567453 C106.69680562678886 -2.283989709135148, 106.75214593553207 -1.8547812027028425, 106.78081992013637 -1.632391440430593 M106.64146531804565 -2.713198215567453 C106.69138280521638 -2.326048042394072, 106.74130029238711 -1.9388978692206906, 106.78081992013637 -1.632391440430593 M106.78081992013637 -1.632391440430593 C106.80266687434045 -1.292107494158122, 106.82451382854451 -0.9518235478856514, 106.8506406754117 -0.5448768187181379 M106.78081992013637 -1.632391440430593 C106.79804809523762 -1.36404870689593, 106.81527627033887 -1.0957059733612668, 106.8506406754117 -0.5448768187181379 M106.8506406754117 -0.5448768187181379 C106.8506406754117 -0.23750007611512702, 106.8506406754117 0.06987666648788382, 106.8506406754117 0.5448768187181336 M106.8506406754117 -0.5448768187181379 C106.8506406754117 -0.2787327833758745, 106.8506406754117 -0.012588748033611097, 106.8506406754117 0.5448768187181336 M106.8506406754117 0.5448768187181336 C106.8287499838308 0.8858420099387556, 106.80685929224991 1.2268072011593776, 106.78081992013637 1.6323914404305815 M106.8506406754117 0.5448768187181336 C106.83381754758794 0.8069106139575373, 106.81699441976417 1.068944409196941, 106.78081992013637 1.6323914404305815 M106.78081992013637 1.6323914404305815 C106.75027439978078 1.8692964644133265, 106.71972887942518 2.1062014883960716, 106.64146531804565 2.7131982155674415 M106.78081992013637 1.6323914404305815 C106.74482948780798 1.9115261264548247, 106.70883905547959 2.190660812479068, 106.64146531804565 2.7131982155674415 M106.64146531804565 2.7131982155674415 C106.57031592338069 3.0785353197421377, 106.49916652871573 3.443872423916834, 106.433149507091 3.782855877257343 M106.64146531804565 2.7131982155674415 C106.58684819262204 2.9936456112840846, 106.53223106719845 3.2740930070007273, 106.433149507091 3.782855877257343 M106.433149507091 3.782855877257343 C106.32645125008007 4.189742574557126, 106.21975299306915 4.59662927185691, 106.15672850162323 4.836968972727545 M106.433149507091 3.782855877257343 C106.32508601449042 4.1949488095573155, 106.21702252188985 4.607041741857289, 106.15672850162323 4.836968972727545 M106.15672850162323 4.836968972727545 C106.07012568905681 5.0978028458932645, 105.9835228764904 5.358636719058984, 105.81333817484592 5.871205925162227 M106.15672850162323 4.836968972727545 C106.0569150024101 5.137591329236106, 105.95710150319695 5.438213685744667, 105.81333817484592 5.871205925162227 M105.81333817484592 5.871205925162227 C105.65484962555438 6.262675706079983, 105.49636107626284 6.654145486997738, 105.40438959126881 6.881316833080694 M105.81333817484592 5.871205925162227 C105.67162345351265 6.221244026723165, 105.52990873217938 6.571282128284103, 105.40438959126881 6.881316833080694 M105.40438959126881 6.881316833080694 C105.24310819559194 7.216221102072757, 105.08182679991508 7.5511253710648205, 104.931563208341 7.863150934094196 M105.40438959126881 6.881316833080694 C105.24729331615833 7.207530609669411, 105.09019704104786 7.533744386258128, 104.931563208341 7.863150934094196 M104.931563208341 7.863150934094196 C104.72521586581084 8.229541535690688, 104.51886852328069 8.59593213728718, 104.39680197109088 8.812673661278923 M104.931563208341 7.863150934094196 C104.77908838759811 8.133885418073026, 104.62661356685523 8.404619902051857, 104.39680197109088 8.812673661278923 M104.39680197109088 8.812673661278923 C104.20922409502685 9.100843650625702, 104.02164621896283 9.389013639972479, 103.80230332814826 9.725983222076879 M104.39680197109088 8.812673661278923 C104.20277028557231 9.11075843503837, 104.00873860005375 9.408843208797817, 103.80230332814826 9.725983222076879 M103.80230332814826 9.725983222076879 C103.6665422416199 9.907890709935467, 103.53078115509153 10.089798197794057, 103.15051020195651 10.599326631598467 M103.80230332814826 9.725983222076879 C103.6288677269012 9.958371127439598, 103.45543212565417 10.190759032802317, 103.15051020195651 10.599326631598467 M103.15051020195651 10.599326631598467 C102.98184003223787 10.797456210554529, 102.81316986251923 10.99558578951059, 102.44410095028037 11.42911513444238 M103.15051020195651 10.599326631598467 C102.91095103455052 10.880726460936328, 102.67139186714454 11.162126290274188, 102.44410095028037 11.42911513444238 M102.44410095028037 11.42911513444238 C102.27049843767314 11.608373981740707, 102.0968959250659 11.787632829039032, 101.68597836025927 12.211938951661365 M102.44410095028037 11.42911513444238 C102.21230732256953 11.668461085664578, 101.98051369485869 11.907807036886778, 101.68597836025927 12.211938951661365 M101.68597836025927 12.211938951661365 C101.41015923268075 12.462430585553966, 101.13434010510224 12.712922219446565, 100.87925772023242 12.944581292275275 M101.68597836025927 12.211938951661365 C101.47573546603604 12.402875985472756, 101.2654925718128 12.593813019284145, 100.87925772023242 12.944581292275275 M100.87925772023242 12.944581292275275 C100.6000766975556 13.16722072854102, 100.32089567487876 13.389860164806766, 100.02725401835067 13.62403157175526 M100.87925772023242 12.944581292275275 C100.70655029411287 13.082310868667982, 100.53384286799334 13.220040445060688, 100.02725401835067 13.62403157175526 M100.02725401835067 13.62403157175526 C99.8303843395883 13.761359337308848, 99.63351466082595 13.898687102862434, 99.13346832057934 14.247497783161286 M100.02725401835067 13.62403157175526 C99.80556927195032 13.77866925426615, 99.58388452554996 13.93330693677704, 99.13346832057934 14.247497783161286 M99.13346832057934 14.247497783161286 C98.8766094122419 14.40320716286593, 98.61975050390447 14.558916542570577, 98.20157338406695 14.81241797009762 M99.13346832057934 14.247497783161286 C98.87291711838796 14.405445453098526, 98.61236591619657 14.563393123035766, 98.20157338406695 14.81241797009762 M98.20157338406695 14.81241797009762 C97.83924805837451 15.001442860430918, 97.47692273268207 15.190467750764217, 97.23539856499849 15.316470754341124 M98.20157338406695 14.81241797009762 C97.89082236755402 14.974536576366887, 97.5800713510411 15.136655182636156, 97.23539856499849 15.316470754341124 M97.23539856499849 15.316470754341124 C96.99042161613335 15.424914782620732, 96.7454446672682 15.533358810900339, 96.23891408294936 15.757584874882367 M97.23539856499849 15.316470754341124 C96.96013525353726 15.43832165692899, 96.68487194207604 15.560172559516856, 96.23891408294936 15.757584874882367 M96.23891408294936 15.757584874882367 C95.94757209845584 15.86480141831177, 95.6562301139623 15.972017961741171, 95.21621470640156 16.133947699181363 M96.23891408294936 15.757584874882367 C95.9138841986829 15.877198876835743, 95.58885431441642 15.996812878789118, 95.21621470640156 16.133947699181363 M95.21621470640156 16.133947699181363 C94.96700918354207 16.207910590259573, 94.7178036606826 16.281873481337787, 94.17150292646164 16.444012671663497 M95.21621470640156 16.133947699181363 C94.92152007887495 16.221411517747594, 94.62682545134834 16.30887533631383, 94.17150292646164 16.444012671663497 M94.17150292646164 16.444012671663497 C93.84977817727358 16.51744424621548, 93.52805342808551 16.59087582076746, 93.10907168792333 16.68650566884811 M94.17150292646164 16.444012671663497 C93.87967032145102 16.51062155937145, 93.58783771644038 16.577230447079405, 93.10907168792333 16.68650566884811 M93.10907168792333 16.68650566884811 C92.83035776035119 16.731565975199185, 92.55164383277905 16.776626281550257, 92.03328674863661 16.86043023499518 M93.10907168792333 16.68650566884811 C92.80399996490792 16.735827299158696, 92.49892824189249 16.785148929469283, 92.03328674863661 16.86043023499518 M92.03328674863661 16.86043023499518 C91.68717792220235 16.89381893722453, 91.3410690957681 16.92720763945388, 90.94856873967211 16.965071676755716 M92.03328674863661 16.86043023499518 C91.66894301709559 16.895578036589498, 91.30459928555457 16.930725838183815, 90.94856873967211 16.965071676755716 M90.94856873967211 16.965071676755716 C90.61549959805551 16.975752555847606, 90.2824304564389 16.986433434939496, 89.859375 17 M90.94856873967211 16.965071676755716 C90.71792657530834 16.972467922049123, 90.48728441094458 16.97986416734253, 89.859375 17 M89.859375 17 C89.859375 17, 89.859375 17, 89.859375 17 M89.859375 17 C89.859375 17, 89.859375 17, 89.859375 17 M89.859375 17 C34.251753337237815 17, -21.35586832552437 17, -89.859375 17 M89.859375 17 C34.44778433998162 17, -20.963806320036767 17, -89.859375 17 M-89.859375 17 C-90.169108879602 16.990067437341587, -90.47884275920403 16.980134874683174, -90.94856873967211 16.965071676755716 M-89.859375 17 C-90.14933303965451 16.990701610037366, -90.43929107930902 16.981403220074732, -90.94856873967211 16.965071676755716 M-90.94856873967211 16.965071676755716 C-91.26916908306524 16.934143747206907, -91.58976942645836 16.903215817658097, -92.0332867486366 16.86043023499518 M-90.94856873967211 16.965071676755716 C-91.35307739615659 16.926049213157494, -91.75758605264106 16.887026749559272, -92.0332867486366 16.86043023499518 M-92.0332867486366 16.86043023499518 C-92.37218261284681 16.805640179846353, -92.71107847705703 16.750850124697525, -93.10907168792333 16.68650566884811 M-92.0332867486366 16.86043023499518 C-92.31423462069294 16.8150087618244, -92.59518249274927 16.76958728865362, -93.10907168792333 16.68650566884811 M-93.10907168792333 16.68650566884811 C-93.3699780974015 16.626955483458154, -93.63088450687965 16.5674052980682, -94.17150292646161 16.4440126716635 M-93.10907168792333 16.68650566884811 C-93.42346370994214 16.614747741421994, -93.73785573196095 16.542989813995874, -94.17150292646161 16.4440126716635 M-94.17150292646161 16.4440126716635 C-94.39214333005091 16.37852775804331, -94.61278373364021 16.31304284442312, -95.21621470640154 16.13394769918137 M-94.17150292646161 16.4440126716635 C-94.45365940446649 16.36027011006123, -94.73581588247137 16.276527548458958, -95.21621470640154 16.13394769918137 M-95.21621470640154 16.13394769918137 C-95.45187906283878 16.047221037555033, -95.68754341927603 15.960494375928699, -96.23891408294936 15.757584874882369 M-95.21621470640154 16.13394769918137 C-95.60351256713922 15.991418506287728, -95.9908104278769 15.848889313394086, -96.23891408294936 15.757584874882369 M-96.23891408294936 15.757584874882369 C-96.47122315816293 15.654748538489196, -96.70353223337649 15.551912202096023, -97.23539856499849 15.316470754341127 M-96.23891408294936 15.757584874882369 C-96.56425210569323 15.613567383023215, -96.88959012843708 15.46954989116406, -97.23539856499849 15.316470754341127 M-97.23539856499849 15.316470754341127 C-97.57648519344654 15.138526078756186, -97.91757182189461 14.960581403171245, -98.20157338406693 14.812417970097624 M-97.23539856499849 15.316470754341127 C-97.48304199506076 15.18727533550083, -97.73068542512301 15.058079916660535, -98.20157338406693 14.812417970097624 M-98.20157338406693 14.812417970097624 C-98.47760009721667 14.64508895447324, -98.75362681036638 14.477759938848855, -99.13346832057931 14.247497783161299 M-98.20157338406693 14.812417970097624 C-98.44528413659938 14.664679079709101, -98.68899488913182 14.51694018932058, -99.13346832057931 14.247497783161299 M-99.13346832057931 14.247497783161299 C-99.41065173682003 14.054146631068473, -99.68783515306075 13.860795478975646, -100.02725401835067 13.624031571755264 M-99.13346832057931 14.247497783161299 C-99.37179845047781 14.081249001689152, -99.6101285803763 13.915000220217005, -100.02725401835067 13.624031571755264 M-100.02725401835067 13.624031571755264 C-100.36788805661087 13.352384990895212, -100.70852209487106 13.08073841003516, -100.8792577202324 12.94458129227529 M-100.02725401835067 13.624031571755264 C-100.30172178524339 13.405150831552346, -100.5761895521361 13.18627009134943, -100.8792577202324 12.94458129227529 M-100.8792577202324 12.94458129227529 C-101.07210865913936 12.769439172116222, -101.26495959804632 12.594297051957156, -101.68597836025926 12.211938951661377 M-100.8792577202324 12.94458129227529 C-101.13333698475516 12.71383322680467, -101.38741624927792 12.48308516133405, -101.68597836025926 12.211938951661377 M-101.68597836025926 12.211938951661377 C-101.85439067945107 12.038039405187275, -102.02280299864289 11.864139858713173, -102.44410095028036 11.429115134442386 M-101.68597836025926 12.211938951661377 C-101.85382542133793 12.038623080597649, -102.0216724824166 11.86530720953392, -102.44410095028036 11.429115134442386 M-102.44410095028036 11.429115134442386 C-102.64491919196777 11.193222600874694, -102.84573743365517 10.957330067307002, -103.15051020195651 10.599326631598473 M-102.44410095028036 11.429115134442386 C-102.7186222661973 11.106646776060963, -102.99314358211423 10.784178417679541, -103.15051020195651 10.599326631598473 M-103.15051020195651 10.599326631598473 C-103.38218790526095 10.288899615443476, -103.6138656085654 9.97847259928848, -103.80230332814824 9.72598322207689 M-103.15051020195651 10.599326631598473 C-103.28709588354705 10.416314261478712, -103.4236815651376 10.233301891358954, -103.80230332814824 9.72598322207689 M-103.80230332814824 9.72598322207689 C-103.95727451804409 9.487905858805643, -104.11224570793995 9.249828495534397, -104.39680197109088 8.812673661278936 M-103.80230332814824 9.72598322207689 C-103.99577574341848 9.428757637603981, -104.18924815868871 9.131532053131075, -104.39680197109088 8.812673661278936 M-104.39680197109088 8.812673661278936 C-104.5871362945979 8.47471579645202, -104.77747061810493 8.136757931625107, -104.931563208341 7.863150934094201 M-104.39680197109088 8.812673661278936 C-104.51853410995143 8.596525922016294, -104.640266248812 8.380378182753653, -104.931563208341 7.863150934094201 M-104.931563208341 7.863150934094201 C-105.07484574201106 7.565621687173219, -105.21812827568112 7.2680924402522376, -105.40438959126881 6.881316833080701 M-104.931563208341 7.863150934094201 C-105.05389662391269 7.609122979143812, -105.17623003948438 7.355095024193424, -105.40438959126881 6.881316833080701 M-105.40438959126881 6.881316833080701 C-105.55002245844815 6.521600835527784, -105.6956553256275 6.161884837974866, -105.81333817484592 5.87120592516224 M-105.40438959126881 6.881316833080701 C-105.53386014333242 6.5615220663407445, -105.66333069539603 6.241727299600789, -105.81333817484592 5.87120592516224 M-105.81333817484592 5.87120592516224 C-105.90733708020694 5.588096198906566, -106.00133598556795 5.304986472650892, -106.15672850162323 4.8369689727275516 M-105.81333817484592 5.87120592516224 C-105.91711914452937 5.55863417972769, -106.02090011421282 5.2460624342931395, -106.15672850162323 4.8369689727275516 M-106.15672850162323 4.8369689727275516 C-106.21478028746434 4.61559235351228, -106.27283207330544 4.39421573429701, -106.433149507091 3.782855877257349 M-106.15672850162323 4.8369689727275516 C-106.24483972835563 4.500962677549694, -106.33295095508802 4.164956382371837, -106.433149507091 3.782855877257349 M-106.433149507091 3.782855877257349 C-106.50129093046623 3.43296406992051, -106.56943235384145 3.083072262583671, -106.64146531804565 2.713198215567455 M-106.433149507091 3.782855877257349 C-106.47842219746529 3.5503901805718403, -106.5236948878396 3.3179244838863315, -106.64146531804565 2.713198215567455 M-106.64146531804565 2.713198215567455 C-106.69565219076665 2.2929355311516746, -106.74983906348766 1.8726728467358944, -106.78081992013637 1.6323914404306026 M-106.64146531804565 2.713198215567455 C-106.68004586053556 2.4139751466055226, -106.71862640302547 2.1147520776435904, -106.78081992013637 1.6323914404306026 M-106.78081992013637 1.6323914404306026 C-106.79834754308823 1.359384564912695, -106.8158751660401 1.0863776893947876, -106.8506406754117 0.54487681871814 M-106.78081992013637 1.6323914404306026 C-106.79611663784925 1.3941327147640235, -106.81141335556215 1.1558739890974445, -106.8506406754117 0.54487681871814 M-106.8506406754117 0.54487681871814 C-106.8506406754117 0.22997137236574428, -106.8506406754117 -0.08493407398665143, -106.8506406754117 -0.5448768187181317 M-106.8506406754117 0.54487681871814 C-106.8506406754117 0.2989504871581856, -106.8506406754117 0.05302415559823126, -106.8506406754117 -0.5448768187181317 M-106.8506406754117 -0.5448768187181317 C-106.8352520294906 -0.7845674004306191, -106.8198633835695 -1.0242579821431066, -106.78081992013637 -1.6323914404305793 M-106.8506406754117 -0.5448768187181317 C-106.83547188539549 -0.781142967247366, -106.82030309537929 -1.0174091157766003, -106.78081992013637 -1.6323914404305793 M-106.78081992013637 -1.6323914404305793 C-106.73654425374794 -1.9757847657199892, -106.69226858735951 -2.319178091009399, -106.64146531804565 -2.713198215567447 M-106.78081992013637 -1.6323914404305793 C-106.73910345971063 -1.9559360696456356, -106.69738699928492 -2.279480698860692, -106.64146531804565 -2.713198215567447 M-106.64146531804565 -2.713198215567447 C-106.59404444776283 -2.956694362065221, -106.54662357748002 -3.2001905085629954, -106.433149507091 -3.782855877257341 M-106.64146531804565 -2.713198215567447 C-106.56873279436846 -3.0866643526255158, -106.49600027069127 -3.4601304896835843, -106.433149507091 -3.782855877257341 M-106.433149507091 -3.782855877257341 C-106.33298038516283 -4.164844152741543, -106.23281126323465 -4.546832428225747, -106.15672850162323 -4.836968972727544 M-106.433149507091 -3.782855877257341 C-106.35029797314375 -4.098804684280145, -106.26744643919652 -4.41475349130295, -106.15672850162323 -4.836968972727544 M-106.15672850162323 -4.836968972727544 C-106.02947730962694 -5.220229288296302, -105.90222611763065 -5.603489603865061, -105.81333817484594 -5.871205925162218 M-106.15672850162323 -4.836968972727544 C-106.01987328371993 -5.249155084134513, -105.88301806581661 -5.661341195541482, -105.81333817484594 -5.871205925162218 M-105.81333817484594 -5.871205925162218 C-105.65366698244009 -6.265596857437169, -105.49399579003423 -6.65998778971212, -105.40438959126881 -6.881316833080692 M-105.81333817484594 -5.871205925162218 C-105.65432179630778 -6.263979454523994, -105.49530541776961 -6.656752983885771, -105.40438959126881 -6.881316833080692 M-105.40438959126881 -6.881316833080692 C-105.30575460833933 -7.086134485584316, -105.20711962540985 -7.29095213808794, -104.931563208341 -7.863150934094194 M-105.40438959126881 -6.881316833080692 C-105.2693794527174 -7.161668274536898, -105.13436931416598 -7.442019715993103, -104.931563208341 -7.863150934094194 M-104.931563208341 -7.863150934094194 C-104.81269742121843 -8.074209175596451, -104.69383163409587 -8.285267417098707, -104.39680197109088 -8.812673661278929 M-104.931563208341 -7.863150934094194 C-104.81243433129289 -8.074676318399984, -104.6933054542448 -8.286201702705775, -104.39680197109088 -8.812673661278929 M-104.39680197109088 -8.812673661278929 C-104.23082308697369 -9.067661798853946, -104.06484420285648 -9.322649936428963, -103.80230332814826 -9.725983222076884 M-104.39680197109088 -8.812673661278929 C-104.16452694861538 -9.16951047037812, -103.93225192613986 -9.52634727947731, -103.80230332814826 -9.725983222076884 M-103.80230332814826 -9.725983222076884 C-103.66946305499458 -9.903977086104955, -103.53662278184092 -10.081970950133027, -103.15051020195651 -10.599326631598467 M-103.80230332814826 -9.725983222076884 C-103.64949624887932 -9.930730787285954, -103.49668916961038 -10.135478352495026, -103.15051020195651 -10.599326631598467 M-103.15051020195651 -10.599326631598467 C-102.96169191922696 -10.821123330557237, -102.77287363649744 -11.042920029516008, -102.44410095028037 -11.42911513444238 M-103.15051020195651 -10.599326631598467 C-102.92019462463306 -10.869868414050206, -102.6898790473096 -11.140410196501945, -102.44410095028037 -11.42911513444238 M-102.44410095028037 -11.42911513444238 C-102.17599856551035 -11.705952858332562, -101.90789618074035 -11.982790582222746, -101.68597836025927 -12.21193895166136 M-102.44410095028037 -11.42911513444238 C-102.15181494214151 -11.730924434973296, -101.85952893400267 -12.032733735504213, -101.68597836025927 -12.21193895166136 M-101.68597836025927 -12.21193895166136 C-101.42645070158241 -12.447635104546126, -101.16692304290554 -12.683331257430893, -100.87925772023242 -12.944581292275274 M-101.68597836025927 -12.21193895166136 C-101.51273855516892 -12.36927075897035, -101.33949875007858 -12.52660256627934, -100.87925772023242 -12.944581292275274 M-100.87925772023242 -12.944581292275274 C-100.63906000607827 -13.136132577383595, -100.3988622919241 -13.327683862491916, -100.02725401835067 -13.624031571755259 M-100.87925772023242 -12.944581292275274 C-100.60459319755836 -13.163618939977926, -100.32992867488429 -13.382656587680579, -100.02725401835067 -13.624031571755259 M-100.02725401835067 -13.624031571755259 C-99.76776850405378 -13.805037433581907, -99.50828298975688 -13.986043295408553, -99.13346832057934 -14.247497783161284 M-100.02725401835067 -13.624031571755259 C-99.83178555662806 -13.760381908959625, -99.63631709490545 -13.89673224616399, -99.13346832057934 -14.247497783161284 M-99.13346832057934 -14.247497783161284 C-98.7717815285102 -14.46675444202111, -98.41009473644108 -14.686011100880936, -98.20157338406695 -14.812417970097618 M-99.13346832057934 -14.247497783161284 C-98.91116833406222 -14.382257341367684, -98.68886834754512 -14.517016899574081, -98.20157338406695 -14.812417970097618 M-98.20157338406695 -14.812417970097618 C-97.88299061740055 -14.978622395405473, -97.56440785073417 -15.144826820713327, -97.23539856499849 -15.316470754341124 M-98.20157338406695 -14.812417970097618 C-97.9871328310851 -14.924291469232514, -97.77269227810326 -15.03616496836741, -97.23539856499849 -15.316470754341124 M-97.23539856499849 -15.316470754341124 C-96.94499298322684 -15.445024690815924, -96.6545874014552 -15.573578627290724, -96.23891408294936 -15.757584874882365 M-97.23539856499849 -15.316470754341124 C-96.99192363880869 -15.424249881738278, -96.74844871261888 -15.532029009135432, -96.23891408294936 -15.757584874882365 M-96.23891408294936 -15.757584874882365 C-96.03245300623307 -15.833564459619234, -95.82599192951677 -15.909544044356103, -95.21621470640156 -16.133947699181363 M-96.23891408294936 -15.757584874882365 C-95.96636032064767 -15.85788717886875, -95.69380655834597 -15.958189482855136, -95.21621470640156 -16.133947699181363 M-95.21621470640156 -16.133947699181363 C-94.93629083145751 -16.217027635914352, -94.65636695651347 -16.30010757264734, -94.17150292646164 -16.444012671663494 M-95.21621470640156 -16.133947699181363 C-94.93720023197956 -16.21675773061295, -94.65818575755756 -16.299567762044536, -94.17150292646164 -16.444012671663494 M-94.17150292646164 -16.444012671663494 C-93.90250011060468 -16.505410808975423, -93.63349729474771 -16.56680894628735, -93.10907168792333 -16.68650566884811 M-94.17150292646164 -16.444012671663494 C-93.92875947410793 -16.499417280614164, -93.68601602175423 -16.554821889564835, -93.10907168792333 -16.68650566884811 M-93.10907168792333 -16.68650566884811 C-92.68679116614362 -16.754776708775097, -92.2645106443639 -16.823047748702088, -92.03328674863661 -16.86043023499518 M-93.10907168792333 -16.68650566884811 C-92.74386227968678 -16.745549893730537, -92.37865287145021 -16.80459411861296, -92.03328674863661 -16.86043023499518 M-92.03328674863661 -16.86043023499518 C-91.76465550329992 -16.886344768156473, -91.49602425796323 -16.912259301317764, -90.94856873967213 -16.965071676755716 M-92.03328674863661 -16.86043023499518 C-91.6817652907219 -16.89434108727381, -91.33024383280718 -16.928251939552435, -90.94856873967213 -16.965071676755716 M-90.94856873967213 -16.965071676755716 C-90.65592886471143 -16.974456067956744, -90.36328898975073 -16.983840459157772, -89.859375 -17 M-90.94856873967213 -16.965071676755716 C-90.69771915094528 -16.973115934817084, -90.44686956221844 -16.98116019287845, -89.859375 -17 M-89.859375 -17 C-89.859375 -17, -89.859375 -17, -89.859375 -17 M-89.859375 -17 C-89.859375 -17, -89.859375 -17, -89.859375 -17" stroke="#555555" stroke-width="1.3" fill="none" stroke-dasharray="0 0" style=""></path></g><g class="label" style="" transform="translate(0, -9.5)"><rect></rect><g><rect class="background" style="stroke: none"></rect><text y="-10.1" style=""><tspan class="text-outer-tspan row" x="0" y="-0.1em" dy="1.1em"><tspan font-style="normal" class="text-inner-tspan" font-weight="normal">Index-Only</tspan><tspan font-style="normal" class="text-inner-tspan" font-weight="normal"> Scan</tspan><tspan font-style="normal" class="text-inner-tspan" font-weight="normal"> candidate</tspan></tspan></text></g></g></g><g class="node default" id="gf8965b36-cbee-484d-aee5-0ef8be7f50b8-dark-flowchart-Q1-1" data-look="classic" transform="translate(261.3828125, 189.4796905517578)"><polygon points="97.47968673706055,0 194.9593734741211,-97.47968673706055 97.47968673706055,-194.9593734741211 0,-97.47968673706055" class="label-container" transform="translate(-96.97968673706055, 97.47968673706055)"></polygon><g class="label" style="" transform="translate(0, -18.299999237060547)"><rect></rect><g><rect class="background" style="stroke: none"></rect><text y="-10.1" style=""><tspan class="text-outer-tspan row" x="0" y="-0.1em" dy="1.1em"><tspan font-style="normal" class="text-inner-tspan" font-weight="normal">Query</tspan><tspan font-style="normal" class="text-inner-tspan" font-weight="normal"> columns</tspan><tspan font-style="normal" class="text-inner-tspan" font-weight="normal"> all</tspan></tspan><tspan class="text-outer-tspan row" x="0" y="1em" dy="1.1em"><tspan font-style="normal" class="text-inner-tspan" font-weight="normal">covered</tspan><tspan font-style="normal" class="text-inner-tspan" font-weight="normal"> by</tspan><tspan font-style="normal" class="text-inner-tspan" font-weight="normal"> index?</tspan></tspan></text></g></g></g><g class="node default" id="gf8965b36-cbee-484d-aee5-0ef8be7f50b8-dark-flowchart-Q2-2" data-look="classic" transform="translate(359.40234375, 474.59532165527344)"><polygon points="114.63593673706055,0 229.2718734741211,-114.63593673706055 114.63593673706055,-229.2718734741211 0,-114.63593673706055" class="label-container" transform="translate(-114.13593673706055, 114.63593673706055)"></polygon><g class="label" style="" transform="translate(0, -18.299999237060547)"><rect></rect><g><rect class="background" style="stroke: none"></rect><text y="-10.1" style=""><tspan class="text-outer-tspan row" x="0" y="-0.1em" dy="1.1em"><tspan font-style="normal" class="text-inner-tspan" font-weight="normal">AM</tspan><tspan font-style="normal" class="text-inner-tspan" font-weight="normal"> supports</tspan><tspan font-style="normal" class="text-inner-tspan" font-weight="normal"> IOS?</tspan></tspan><tspan class="text-outer-tspan row" x="0" y="1em" dy="1.1em"><tspan font-style="normal" class="text-inner-tspan" font-weight="normal">(B-tree,</tspan><tspan font-style="normal" class="text-inner-tspan" font-weight="normal"> GiST,</tspan><tspan font-style="normal" class="text-inner-tspan" font-weight="normal"> SP-GiST)</tspan></tspan></text></g></g></g><g class="node default" id="gf8965b36-cbee-484d-aee5-0ef8be7f50b8-dark-flowchart-Walk-3" data-look="classic" transform="translate(401.5625, 695.5312614440918)"><rect class="basic label-container" style="" x="-117.15625" y="-33.29999923706055" width="234.3125" height="66.5999984741211"></rect><g class="label" style="" transform="translate(0, -18.299999237060547)"><rect></rect><g><rect class="background" style="stroke: none"></rect><text y="-10.1" style=""><tspan class="text-outer-tspan row" x="0" y="-0.1em" dy="1.1em"><tspan font-style="normal" class="text-inner-tspan" font-weight="normal">Walk</tspan><tspan font-style="normal" class="text-inner-tspan" font-weight="normal"> B-tree</tspan><tspan font-style="normal" class="text-inner-tspan" font-weight="normal"> to</tspan><tspan font-style="normal" class="text-inner-tspan" font-weight="normal"> matching</tspan></tspan><tspan class="text-outer-tspan row" x="0" y="1em" dy="1.1em"><tspan font-style="normal" class="text-inner-tspan" font-weight="normal">index</tspan><tspan font-style="normal" class="text-inner-tspan" font-weight="normal"> tuples</tspan></tspan></text></g></g></g><g class="node default" id="gf8965b36-cbee-484d-aee5-0ef8be7f50b8-dark-flowchart-VM-4" data-look="classic" transform="translate(401.5625, 884.8687591552734)"><polygon points="106.0374984741211,0 212.0749969482422,-106.0374984741211 106.0374984741211,-212.0749969482422 0,-106.0374984741211" class="label-container" transform="translate(-105.5374984741211, 106.0374984741211)"></polygon><g class="label" style="" transform="translate(0, -27.099998474121094)"><rect></rect><g><rect class="background" style="stroke: none"></rect><text y="-10.1" style=""><tspan class="text-outer-tspan row" x="0" y="-0.1em" dy="1.1em"><tspan font-style="normal" class="text-inner-tspan" font-weight="normal">Visibility-map</tspan><tspan font-style="normal" class="text-inner-tspan" font-weight="normal"> bit</tspan></tspan><tspan class="text-outer-tspan row" x="0" y="1em" dy="1.1em"><tspan font-style="normal" class="text-inner-tspan" font-weight="normal">for</tspan><tspan font-style="normal" class="text-inner-tspan" font-weight="normal"> the</tspan><tspan font-style="normal" class="text-inner-tspan" font-weight="normal"> heap</tspan><tspan font-style="normal" class="text-inner-tspan" font-weight="normal"> page</tspan></tspan><tspan class="text-outer-tspan row" x="0" y="2.1em" dy="1.1em"><tspan font-style="normal" class="text-inner-tspan" font-weight="normal">=</tspan><tspan font-style="normal" class="text-inner-tspan" font-weight="normal"> all-visible?</tspan></tspan></text></g></g></g><g class="node default" id="gf8965b36-cbee-484d-aee5-0ef8be7f50b8-dark-flowchart-ReturnFromIdx-5" data-look="classic" transform="translate(255.45703125, 1097.206256866455)"><rect class="basic label-container" style="" x="-124.4453125" y="-33.29999923706055" width="248.890625" height="66.5999984741211"></rect><g class="label" style="" transform="translate(0, -18.299999237060547)"><rect></rect><g><rect class="background" style="stroke: none"></rect><text y="-10.1" style=""><tspan class="text-outer-tspan row" x="0" y="-0.1em" dy="1.1em"><tspan font-style="normal" class="text-inner-tspan" font-weight="normal">Return</tspan><tspan font-style="normal" class="text-inner-tspan" font-weight="normal"> tuple</tspan><tspan font-style="normal" class="text-inner-tspan" font-weight="normal"> from</tspan><tspan font-style="normal" class="text-inner-tspan" font-weight="normal"> index</tspan><tspan font-style="normal" class="text-inner-tspan" font-weight="normal"> —</tspan></tspan><tspan class="text-outer-tspan row" x="0" y="1em" dy="1.1em"><tspan font-style="normal" class="text-inner-tspan" font-weight="normal">no</tspan><tspan font-style="normal" class="text-inner-tspan" font-weight="normal"> heap</tspan><tspan font-style="normal" class="text-inner-tspan" font-weight="normal"> touch</tspan></tspan></text></g></g></g><g class="node default" id="gf8965b36-cbee-484d-aee5-0ef8be7f50b8-dark-flowchart-HeapVisit-6" data-look="classic" transform="translate(547.66796875, 1097.206256866455)"><rect class="basic label-container" style="" x="-117.765625" y="-33.29999923706055" width="235.53125" height="66.5999984741211"></rect><g class="label" style="" transform="translate(0, -18.299999237060547)"><rect></rect><g><rect class="background" style="stroke: none"></rect><text y="-10.1" style=""><tspan class="text-outer-tspan row" x="0" y="-0.1em" dy="1.1em"><tspan font-style="normal" class="text-inner-tspan" font-weight="normal">Visit</tspan><tspan font-style="normal" class="text-inner-tspan" font-weight="normal"> heap</tspan><tspan font-style="normal" class="text-inner-tspan" font-weight="normal"> page</tspan><tspan font-style="normal" class="text-inner-tspan" font-weight="normal"> to</tspan><tspan font-style="normal" class="text-inner-tspan" font-weight="normal"> check</tspan></tspan><tspan class="text-outer-tspan row" x="0" y="1em" dy="1.1em"><tspan font-style="normal" class="text-inner-tspan" font-weight="normal">tuple</tspan><tspan font-style="normal" class="text-inner-tspan" font-weight="normal"> visibility</tspan></tspan></text></g></g></g><g class="node default" id="gf8965b36-cbee-484d-aee5-0ef8be7f50b8-dark-flowchart-ReturnFromHeap-7" data-look="classic" transform="translate(547.66796875, 1205.0062561035156)"><rect class="basic label-container" style="" x="-107.8125" y="-24.5" width="215.625" height="49"></rect><g class="label" style="" transform="translate(0, -9.5)"><rect></rect><g><rect class="background" style="stroke: none"></rect><text y="-10.1" style=""><tspan class="text-outer-tspan row" x="0" y="-0.1em" dy="1.1em"><tspan font-style="normal" class="text-inner-tspan" font-weight="normal">Return</tspan><tspan font-style="normal" class="text-inner-tspan" font-weight="normal"> tuple</tspan><tspan font-style="normal" class="text-inner-tspan" font-weight="normal"> if</tspan><tspan font-style="normal" class="text-inner-tspan" font-weight="normal"> visible</tspan></tspan></text></g></g></g><g class="node default" id="gf8965b36-cbee-484d-aee5-0ef8be7f50b8-dark-flowchart-NotIOS-8" data-look="classic" transform="translate(121.203125, 695.5312614440918)"><rect class="basic label-container" style="" x="-113.203125" y="-33.29999923706055" width="226.40625" height="66.5999984741211"></rect><g class="label" style="" transform="translate(0, -18.299999237060547)"><rect></rect><g><rect class="background" style="stroke: none"></rect><text y="-10.1" style=""><tspan class="text-outer-tspan row" x="0" y="-0.1em" dy="1.1em"><tspan font-style="normal" class="text-inner-tspan" font-weight="normal">Plain</tspan><tspan font-style="normal" class="text-inner-tspan" font-weight="normal"> Index</tspan><tspan font-style="normal" class="text-inner-tspan" font-weight="normal"> Scan</tspan><tspan font-style="normal" class="text-inner-tspan" font-weight="normal"> or</tspan><tspan font-style="normal" class="text-inner-tspan" font-weight="normal"> Seq</tspan></tspan><tspan class="text-outer-tspan row" x="0" y="1em" dy="1.1em"><tspan font-style="normal" class="text-inner-tspan" font-weight="normal">Scan</tspan></tspan></text></g></g></g></g></g></g><defs><filter id="gf8965b36-cbee-484d-aee5-0ef8be7f50b8-dark-drop-shadow" height="130%" width="130%"><feDropShadow dx="4" dy="4" stdDeviation="0" flood-opacity="0.06" flood-color="#000000"></feDropShadow></filter></defs><defs><filter id="gf8965b36-cbee-484d-aee5-0ef8be7f50b8-dark-drop-shadow-small" height="150%" width="150%"><feDropShadow dx="2" dy="2" stdDeviation="0" flood-opacity="0.06" flood-color="#000000"></feDropShadow></filter></defs><linearGradient id="gf8965b36-cbee-484d-aee5-0ef8be7f50b8-dark-gradient" gradientUnits="objectBoundingBox" x1="0%" y1="0%" x2="100%" y2="0%"><stop offset="0%" stop-color="#555555" stop-opacity="1"></stop><stop offset="100%" stop-color="#555555" stop-opacity="1"></stop></linearGradient></svg>