<svg id="g39f268a2-6345-4a80-a494-27a0f15015a8-dark" width="100%" xmlns="http://www.w3.org/2000/svg" xmlns:xlink="http://www.w3.org/1999/xlink" class="flowchart" style="max-width: 927.9710693359375px;" viewBox="0 0 927.9710693359375 1318.481201171875" role="graphics-document document" aria-roledescription="flowchart-v2"><style>#g39f268a2-6345-4a80-a494-27a0f15015a8-dark{font-family:"trebuchet ms",verdana,arial,sans-serif;font-size:16px;fill:#e5e5e5;}@keyframes edge-animation-frame{from{stroke-dashoffset:0;}}@keyframes dash{to{stroke-dashoffset:0;}}#g39f268a2-6345-4a80-a494-27a0f15015a8-dark .edge-animation-slow{stroke-dasharray:9,5!important;stroke-dashoffset:900;animation:dash 50s linear infinite;stroke-linecap:round;}#g39f268a2-6345-4a80-a494-27a0f15015a8-dark .edge-animation-fast{stroke-dasharray:9,5!important;stroke-dashoffset:900;animation:dash 20s linear infinite;stroke-linecap:round;}#g39f268a2-6345-4a80-a494-27a0f15015a8-dark .error-icon{fill:#252525;}#g39f268a2-6345-4a80-a494-27a0f15015a8-dark .error-text{fill:#cccccc;stroke:#cccccc;}#g39f268a2-6345-4a80-a494-27a0f15015a8-dark .edge-thickness-normal{stroke-width:1px;}#g39f268a2-6345-4a80-a494-27a0f15015a8-dark .edge-thickness-thick{stroke-width:3.5px;}#g39f268a2-6345-4a80-a494-27a0f15015a8-dark .edge-pattern-solid{stroke-dasharray:0;}#g39f268a2-6345-4a80-a494-27a0f15015a8-dark .edge-thickness-invisible{stroke-width:0;fill:none;}#g39f268a2-6345-4a80-a494-27a0f15015a8-dark .edge-pattern-dashed{stroke-dasharray:3;}#g39f268a2-6345-4a80-a494-27a0f15015a8-dark .edge-pattern-dotted{stroke-dasharray:2;}#g39f268a2-6345-4a80-a494-27a0f15015a8-dark .marker{fill:#cccccc;stroke:#cccccc;}#g39f268a2-6345-4a80-a494-27a0f15015a8-dark .marker.cross{stroke:#cccccc;}#g39f268a2-6345-4a80-a494-27a0f15015a8-dark svg{font-family:"trebuchet ms",verdana,arial,sans-serif;font-size:16px;}#g39f268a2-6345-4a80-a494-27a0f15015a8-dark p{margin:0;}#g39f268a2-6345-4a80-a494-27a0f15015a8-dark .label{font-family:"trebuchet ms",verdana,arial,sans-serif;color:#e5e5e5;}#g39f268a2-6345-4a80-a494-27a0f15015a8-dark .cluster-label text{fill:#e5e5e5;}#g39f268a2-6345-4a80-a494-27a0f15015a8-dark .cluster-label span{color:#e5e5e5;}#g39f268a2-6345-4a80-a494-27a0f15015a8-dark .cluster-label span p{background-color:transparent;}#g39f268a2-6345-4a80-a494-27a0f15015a8-dark .label text,#g39f268a2-6345-4a80-a494-27a0f15015a8-dark span{fill:#e5e5e5;color:#e5e5e5;}#g39f268a2-6345-4a80-a494-27a0f15015a8-dark .node rect,#g39f268a2-6345-4a80-a494-27a0f15015a8-dark .node circle,#g39f268a2-6345-4a80-a494-27a0f15015a8-dark .node ellipse,#g39f268a2-6345-4a80-a494-27a0f15015a8-dark .node polygon,#g39f268a2-6345-4a80-a494-27a0f15015a8-dark .node path{fill:#2d2d2d;stroke:#555555;stroke-width:1px;}#g39f268a2-6345-4a80-a494-27a0f15015a8-dark .rough-node .label text,#g39f268a2-6345-4a80-a494-27a0f15015a8-dark .node .label text,#g39f268a2-6345-4a80-a494-27a0f15015a8-dark .image-shape .label,#g39f268a2-6345-4a80-a494-27a0f15015a8-dark .icon-shape .label{text-anchor:middle;}#g39f268a2-6345-4a80-a494-27a0f15015a8-dark .node .katex path{fill:#000;stroke:#000;stroke-width:1px;}#g39f268a2-6345-4a80-a494-27a0f15015a8-dark .rough-node .label,#g39f268a2-6345-4a80-a494-27a0f15015a8-dark .node .label,#g39f268a2-6345-4a80-a494-27a0f15015a8-dark .image-shape .label,#g39f268a2-6345-4a80-a494-27a0f15015a8-dark .icon-shape .label{text-align:center;}#g39f268a2-6345-4a80-a494-27a0f15015a8-dark .node.clickable{cursor:pointer;}#g39f268a2-6345-4a80-a494-27a0f15015a8-dark .root .anchor path{fill:#cccccc!important;stroke-width:0;stroke:#cccccc;}#g39f268a2-6345-4a80-a494-27a0f15015a8-dark .arrowheadPath{fill:#cccccc;}#g39f268a2-6345-4a80-a494-27a0f15015a8-dark .edgePath .path{stroke:#cccccc;stroke-width:1px;}#g39f268a2-6345-4a80-a494-27a0f15015a8-dark .flowchart-link{stroke:#cccccc;fill:none;}#g39f268a2-6345-4a80-a494-27a0f15015a8-dark .edgeLabel{background-color:#1e1e1e;text-align:center;}#g39f268a2-6345-4a80-a494-27a0f15015a8-dark .edgeLabel p{background-color:#1e1e1e;}#g39f268a2-6345-4a80-a494-27a0f15015a8-dark .edgeLabel rect{opacity:0.5;background-color:#1e1e1e;fill:#1e1e1e;}#g39f268a2-6345-4a80-a494-27a0f15015a8-dark .labelBkg{background-color:rgba(30, 30, 30, 0.5);}#g39f268a2-6345-4a80-a494-27a0f15015a8-dark .cluster rect{fill:#1e1e1e;stroke:#555555;stroke-width:1px;}#g39f268a2-6345-4a80-a494-27a0f15015a8-dark .cluster text{fill:#e5e5e5;}#g39f268a2-6345-4a80-a494-27a0f15015a8-dark .cluster span{color:#e5e5e5;}#g39f268a2-6345-4a80-a494-27a0f15015a8-dark div.mermaidTooltip{position:absolute;text-align:center;max-width:200px;padding:2px;font-family:"trebuchet ms",verdana,arial,sans-serif;font-size:12px;background:#252525;border:1px solid #555555;border-radius:2px;pointer-events:none;z-index:100;}#g39f268a2-6345-4a80-a494-27a0f15015a8-dark .flowchartTitleText{text-anchor:middle;font-size:18px;fill:#e5e5e5;}#g39f268a2-6345-4a80-a494-27a0f15015a8-dark rect.text{fill:none;stroke-width:0;}#g39f268a2-6345-4a80-a494-27a0f15015a8-dark .icon-shape,#g39f268a2-6345-4a80-a494-27a0f15015a8-dark .image-shape{background-color:#1e1e1e;text-align:center;}#g39f268a2-6345-4a80-a494-27a0f15015a8-dark .icon-shape p,#g39f268a2-6345-4a80-a494-27a0f15015a8-dark .image-shape p{background-color:#1e1e1e;padding:2px;}#g39f268a2-6345-4a80-a494-27a0f15015a8-dark .icon-shape .label rect,#g39f268a2-6345-4a80-a494-27a0f15015a8-dark .image-shape .label rect{opacity:0.5;background-color:#1e1e1e;fill:#1e1e1e;}#g39f268a2-6345-4a80-a494-27a0f15015a8-dark .label-icon{display:inline-block;height:1em;overflow:visible;vertical-align:-0.125em;}#g39f268a2-6345-4a80-a494-27a0f15015a8-dark .node .label-icon path{fill:currentColor;stroke:revert;stroke-width:revert;}#g39f268a2-6345-4a80-a494-27a0f15015a8-dark .node .neo-node{stroke:#555555;}#g39f268a2-6345-4a80-a494-27a0f15015a8-dark [data-look="neo"].node rect,#g39f268a2-6345-4a80-a494-27a0f15015a8-dark [data-look="neo"].cluster rect,#g39f268a2-6345-4a80-a494-27a0f15015a8-dark [data-look="neo"].node polygon{stroke:url(#g39f268a2-6345-4a80-a494-27a0f15015a8-dark-gradient);filter:drop-shadow( 1px 2px 2px rgba(185,185,185,1));}#g39f268a2-6345-4a80-a494-27a0f15015a8-dark [data-look="neo"].node path{stroke:url(#g39f268a2-6345-4a80-a494-27a0f15015a8-dark-gradient);stroke-width:1px;}#g39f268a2-6345-4a80-a494-27a0f15015a8-dark [data-look="neo"].node .outer-path{filter:drop-shadow( 1px 2px 2px rgba(185,185,185,1));}#g39f268a2-6345-4a80-a494-27a0f15015a8-dark [data-look="neo"].node .neo-line path{stroke:#555555;filter:none;}#g39f268a2-6345-4a80-a494-27a0f15015a8-dark [data-look="neo"].node circle{stroke:url(#g39f268a2-6345-4a80-a494-27a0f15015a8-dark-gradient);filter:drop-shadow( 1px 2px 2px rgba(185,185,185,1));}#g39f268a2-6345-4a80-a494-27a0f15015a8-dark [data-look="neo"].node circle .state-start{fill:#000000;}#g39f268a2-6345-4a80-a494-27a0f15015a8-dark [data-look="neo"].icon-shape .icon{fill:url(#g39f268a2-6345-4a80-a494-27a0f15015a8-dark-gradient);filter:drop-shadow( 1px 2px 2px rgba(185,185,185,1));}#g39f268a2-6345-4a80-a494-27a0f15015a8-dark [data-look="neo"].icon-shape .icon-neo path{stroke:url(#g39f268a2-6345-4a80-a494-27a0f15015a8-dark-gradient);filter:drop-shadow( 1px 2px 2px rgba(185,185,185,1));}#g39f268a2-6345-4a80-a494-27a0f15015a8-dark :root{--mermaid-font-family:"trebuchet ms",verdana,arial,sans-serif;}</style><g><marker id="g39f268a2-6345-4a80-a494-27a0f15015a8-dark_flowchart-v2-pointEnd" class="marker flowchart-v2" viewBox="0 0 10 10" refX="5" refY="5" markerUnits="userSpaceOnUse" markerWidth="8" markerHeight="8" orient="auto"><path d="M 0 0 L 10 5 L 0 10 z" class="arrowMarkerPath" style="stroke-width: 1; stroke-dasharray: 1, 0;"></path></marker><marker id="g39f268a2-6345-4a80-a494-27a0f15015a8-dark_flowchart-v2-pointStart" class="marker flowchart-v2" viewBox="0 0 10 10" refX="4.5" refY="5" markerUnits="userSpaceOnUse" markerWidth="8" markerHeight="8" orient="auto"><path d="M 0 5 L 10 10 L 10 0 z" class="arrowMarkerPath" style="stroke-width: 1; stroke-dasharray: 1, 0;"></path></marker><marker id="g39f268a2-6345-4a80-a494-27a0f15015a8-dark_flowchart-v2-pointEnd-margin" class="marker flowchart-v2" viewBox="0 0 11.5 14" refX="11.5" refY="7" markerUnits="userSpaceOnUse" markerWidth="10.5" markerHeight="14" orient="auto"><path d="M 0 0 L 11.5 7 L 0 14 z" class="arrowMarkerPath" style="stroke-width: 0; stroke-dasharray: 1, 0;"></path></marker><marker id="g39f268a2-6345-4a80-a494-27a0f15015a8-dark_flowchart-v2-pointStart-margin" class="marker flowchart-v2" viewBox="0 0 11.5 14" refX="1" refY="7" markerUnits="userSpaceOnUse" markerWidth="11.5" markerHeight="14" orient="auto"><polygon points="0,7 11.5,14 11.5,0" class="arrowMarkerPath" style="stroke-width: 0; stroke-dasharray: 1, 0;"></polygon></marker><marker id="g39f268a2-6345-4a80-a494-27a0f15015a8-dark_flowchart-v2-circleEnd" class="marker flowchart-v2" viewBox="0 0 10 10" refX="11" refY="5" markerUnits="userSpaceOnUse" markerWidth="11" markerHeight="11" orient="auto"><circle cx="5" cy="5" r="5" class="arrowMarkerPath" style="stroke-width: 1; stroke-dasharray: 1, 0;"></circle></marker><marker id="g39f268a2-6345-4a80-a494-27a0f15015a8-dark_flowchart-v2-circleStart" class="marker flowchart-v2" viewBox="0 0 10 10" refX="-1" refY="5" markerUnits="userSpaceOnUse" markerWidth="11" markerHeight="11" orient="auto"><circle cx="5" cy="5" r="5" class="arrowMarkerPath" style="stroke-width: 1; stroke-dasharray: 1, 0;"></circle></marker><marker id="g39f268a2-6345-4a80-a494-27a0f15015a8-dark_flowchart-v2-circleEnd-margin" class="marker flowchart-v2" viewBox="0 0 10 10" refY="5" refX="12.25" markerUnits="userSpaceOnUse" markerWidth="14" markerHeight="14" orient="auto"><circle cx="5" cy="5" r="5" class="arrowMarkerPath" style="stroke-width: 0; stroke-dasharray: 1, 0;"></circle></marker><marker id="g39f268a2-6345-4a80-a494-27a0f15015a8-dark_flowchart-v2-circleStart-margin" class="marker flowchart-v2" viewBox="0 0 10 10" refX="-2" refY="5" markerUnits="userSpaceOnUse" markerWidth="14" markerHeight="14" orient="auto"><circle cx="5" cy="5" r="5" class="arrowMarkerPath" style="stroke-width: 0; stroke-dasharray: 1, 0;"></circle></marker><marker id="g39f268a2-6345-4a80-a494-27a0f15015a8-dark_flowchart-v2-crossEnd" class="marker cross flowchart-v2" viewBox="0 0 11 11" refX="12" refY="5.2" markerUnits="userSpaceOnUse" markerWidth="11" markerHeight="11" orient="auto"><path d="M 1,1 l 9,9 M 10,1 l -9,9" class="arrowMarkerPath" style="stroke-width: 2; stroke-dasharray: 1, 0;"></path></marker><marker id="g39f268a2-6345-4a80-a494-27a0f15015a8-dark_flowchart-v2-crossStart" class="marker cross flowchart-v2" viewBox="0 0 11 11" refX="-1" refY="5.2" markerUnits="userSpaceOnUse" markerWidth="11" markerHeight="11" orient="auto"><path d="M 1,1 l 9,9 M 10,1 l -9,9" class="arrowMarkerPath" style="stroke-width: 2; stroke-dasharray: 1, 0;"></path></marker><marker id="g39f268a2-6345-4a80-a494-27a0f15015a8-dark_flowchart-v2-crossEnd-margin" class="marker cross flowchart-v2" viewBox="0 0 15 15" refX="17.7" refY="7.5" markerUnits="userSpaceOnUse" markerWidth="12" markerHeight="12" orient="auto"><path d="M 1,1 L 14,14 M 1,14 L 14,1" class="arrowMarkerPath" style="stroke-width: 2.5;"></path></marker><marker id="g39f268a2-6345-4a80-a494-27a0f15015a8-dark_flowchart-v2-crossStart-margin" class="marker cross flowchart-v2" viewBox="0 0 15 15" refX="-3.5" refY="7.5" markerUnits="userSpaceOnUse" markerWidth="12" markerHeight="12" orient="auto"><path d="M 1,1 L 14,14 M 1,14 L 14,1" class="arrowMarkerPath" style="stroke-width: 2.5; stroke-dasharray: 1, 0;"></path></marker><g class="root"><g class="clusters"></g><g class="edgePaths"><path d="M276.584,60.1L276.5,64.183C276.417,68.267,276.25,76.433,276.167,84.017C276.084,91.6,276.084,98.6,276.084,102.1L276.084,105.6" id="g39f268a2-6345-4a80-a494-27a0f15015a8-dark-L_Start_Mut_0" class="edge-thickness-normal edge-pattern-solid edge-thickness-normal edge-pattern-solid flowchart-link" style=";" data-edge="true" data-et="edge" data-id="L_Start_Mut_0" data-points="W3sieCI6Mjc2LjU4MzU5NTI3NTg3ODksInkiOjYwLjA5OTk5ODQ3NDEyMTA3fSx7IngiOjI3Ni4wODM1OTUyNzU4Nzg5LCJ5Ijo4NC41OTk5OTg0NzQxMjExfSx7IngiOjI3Ni4wODM1OTUyNzU4Nzg5LCJ5IjoxMDkuNTk5OTk4NDc0MTIxMDh9XQ==" data-look="classic" marker-end="url(#g39f268a2-6345-4a80-a494-27a0f15015a8-dark_flowchart-v2-pointEnd)"></path><path d="M224.064,265.024L209.22,279.777C194.376,294.531,164.688,324.037,149.844,354.718C135,385.399,135,417.255,135,433.183L135,449.111" id="g39f268a2-6345-4a80-a494-27a0f15015a8-dark-L_Mut_NetOnly_0" class="edge-thickness-normal edge-pattern-solid edge-thickness-normal edge-pattern-solid flowchart-link" style=";" data-edge="true" data-et="edge" data-id="L_Mut_NetOnly_0" data-points="W3sieCI6MjI0LjA2Mzc5NDEyNjI1MTY1LCJ5IjoyNjUuMDIzOTM4MTY5MjIwNH0seyJ4IjoxMzUsInkiOjM1My41NDM3MzkzMTg4NDc2Nn0seyJ4IjoxMzUsInkiOjQ1My4xMTA5MzEzOTY0ODQ0fV0=" data-look="classic" marker-end="url(#g39f268a2-6345-4a80-a494-27a0f15015a8-dark_flowchart-v2-pointEnd)"></path><path d="M328.103,265.024L342.947,279.777C357.791,294.531,387.479,324.037,402.323,344.207C417.167,364.377,417.167,375.21,417.167,380.627L417.167,386.044" id="g39f268a2-6345-4a80-a494-27a0f15015a8-dark-L_Mut_Vers_0" class="edge-thickness-normal edge-pattern-solid edge-thickness-normal edge-pattern-solid flowchart-link" style=";" data-edge="true" data-et="edge" data-id="L_Mut_Vers_0" data-points="W3sieCI6MzI4LjEwMzM5NjQyNTUwNjIsInkiOjI2NS4wMjM5MzgxNjkyMjAzNH0seyJ4Ijo0MTcuMTY3MTkwNTUxNzU3OCwieSI6MzUzLjU0MzczOTMxODg0NzY2fSx7IngiOjQxNy4xNjcxOTA1NTE3NTc4LCJ5IjozOTAuMDQzNzM5MzE4ODQ3Nn1d" data-look="classic" marker-end="url(#g39f268a2-6345-4a80-a494-27a0f15015a8-dark_flowchart-v2-pointEnd)"></path><path d="M370.88,554.091L360.033,567.889C349.186,581.687,327.492,609.282,316.645,637.665C305.798,666.047,305.798,695.217,305.798,709.801L305.798,724.386" id="g39f268a2-6345-4a80-a494-27a0f15015a8-dark-L_Vers_CacheFirst_0" class="edge-thickness-normal edge-pattern-solid edge-thickness-normal edge-pattern-solid flowchart-link" style=";" data-edge="true" data-et="edge" data-id="L_Vers_CacheFirst_0" data-points="W3sieCI6MzcwLjg3OTkzNzM3NzEwODQzLCJ5Ijo1NTQuMDkwODY3MjQ3NzE0fSx7IngiOjMwNS43OTg0MzkwMjU4Nzg5LCJ5Ijo2MzYuODc4MTIwNDIyMzYzM30seyJ4IjozMDUuNzk4NDM5MDI1ODc4OSwieSI6NzI4LjM4NTkzNjczNzA2MDV9XQ==" data-look="classic" marker-end="url(#g39f268a2-6345-4a80-a494-27a0f15015a8-dark_flowchart-v2-pointEnd)"></path><path d="M463.454,554.091L474.301,567.889C485.148,581.687,506.842,609.282,517.689,628.497C528.536,647.711,528.536,658.545,528.536,663.961L528.536,669.378" id="g39f268a2-6345-4a80-a494-27a0f15015a8-dark-L_Vers_Stale_0" class="edge-thickness-normal edge-pattern-solid edge-thickness-normal edge-pattern-solid flowchart-link" style=";" data-edge="true" data-et="edge" data-id="L_Vers_Stale_0" data-points="W3sieCI6NDYzLjQ1NDQ0MzcyNjQwNzIsInkiOjU1NC4wOTA4NjcyNDc3MTR9LHsieCI6NTI4LjUzNTk0MjA3NzYzNjcsInkiOjYzNi44NzgxMjA0MjIzNjMzfSx7IngiOjUyOC41MzU5NDIwNzc2MzY3LCJ5Ijo2NzMuMzc4MTIwNDIyMzYzM31d" data-look="classic" marker-end="url(#g39f268a2-6345-4a80-a494-27a0f15015a8-dark_flowchart-v2-pointEnd)"></path><path d="M481.964,803.422L466.515,817.267C451.066,831.113,420.167,858.803,404.718,890.239C389.269,921.675,389.269,956.856,389.269,974.447L389.269,992.037" id="g39f268a2-6345-4a80-a494-27a0f15015a8-dark-L_Stale_SWR_0" class="edge-thickness-normal edge-pattern-solid edge-thickness-normal edge-pattern-solid flowchart-link" style=";" data-edge="true" data-et="edge" data-id="L_Stale_SWR_0" data-points="W3sieCI6NDgxLjk2NDM5NjYxMzI0MTEsInkiOjgwMy40MjIyMDYwNjE0ODMzfSx7IngiOjM4OS4yNjg3NTY4NjY0NTUxLCJ5Ijo4ODYuNDkzNzUxNTI1ODc4OX0seyJ4IjozODkuMjY4NzU2ODY2NDU1MSwieSI6OTk2LjAzNzQ5ODQ3NDEyMTF9XQ==" data-look="classic" marker-end="url(#g39f268a2-6345-4a80-a494-27a0f15015a8-dark_flowchart-v2-pointEnd)"></path><path d="M575.107,803.422L590.557,817.267C606.006,831.113,636.905,858.803,652.354,878.065C667.803,897.327,667.803,908.16,667.803,913.577L667.803,918.994" id="g39f268a2-6345-4a80-a494-27a0f15015a8-dark-L_Stale_Fresh_0" class="edge-thickness-normal edge-pattern-solid edge-thickness-normal edge-pattern-solid flowchart-link" style=";" data-edge="true" data-et="edge" data-id="L_Stale_Fresh_0" data-points="W3sieCI6NTc1LjEwNzQ4NzU0MjAzMjEsInkiOjgwMy40MjIyMDYwNjE0ODI5fSx7IngiOjY2Ny44MDMxMjcyODg4MTg0LCJ5Ijo4ODYuNDkzNzUxNTI1ODc4OX0seyJ4Ijo2NjcuODAzMTI3Mjg4ODE3OCwieSI6OTIyLjk5Mzc1MTUyNTg3OTR9XQ==" data-look="classic" marker-end="url(#g39f268a2-6345-4a80-a494-27a0f15015a8-dark_flowchart-v2-pointEnd)"></path><path d="M612.566,1098.044L598.468,1113.334C584.37,1128.623,556.175,1159.202,542.077,1179.908C527.979,1200.615,527.979,1211.448,527.979,1216.865L527.979,1222.281" id="g39f268a2-6345-4a80-a494-27a0f15015a8-dark-L_Fresh_NetFirst_0" class="edge-thickness-normal edge-pattern-solid edge-thickness-normal edge-pattern-solid flowchart-link" style=";" data-edge="true" data-et="edge" data-id="L_Fresh_NetFirst_0" data-points="W3sieCI6NjEyLjU2NTg5MjkyMTIzNjgsInkiOjEwOTguMDQ0MDA4MDAzMDIzfSx7IngiOjUyNy45Nzg5MDg1Mzg4MTg0LCJ5IjoxMTg5Ljc4MTI0MjM3MDYwNTV9LHsieCI6NTI3Ljk3ODkwODUzODgxODQsInkiOjEyMjYuMjgxMjQyMzcwNjA1NX1d" data-look="classic" marker-end="url(#g39f268a2-6345-4a80-a494-27a0f15015a8-dark_flowchart-v2-pointEnd)"></path><path d="M723.04,1098.044L737.138,1113.334C751.236,1128.623,779.432,1159.202,793.53,1181.375C807.627,1203.548,807.627,1217.315,807.627,1224.198L807.627,1231.081" id="g39f268a2-6345-4a80-a494-27a0f15015a8-dark-L_Fresh_CacheOnly_0" class="edge-thickness-normal edge-pattern-solid edge-thickness-normal edge-pattern-solid flowchart-link" style=";" data-edge="true" data-et="edge" data-id="L_Fresh_CacheOnly_0" data-points="W3sieCI6NzIzLjA0MDM2MTY1NjQwMDksInkiOjEwOTguMDQ0MDA4MDAzMDIzN30seyJ4Ijo4MDcuNjI3MzQ2MDM4ODE4NCwieSI6MTE4OS43ODEyNDIzNzA2MDU1fSx7IngiOjgwNy42MjczNDYwMzg4MTg0LCJ5IjoxMjM1LjA4MTI0MTYwNzY2Nn1d" data-look="classic" marker-end="url(#g39f268a2-6345-4a80-a494-27a0f15015a8-dark_flowchart-v2-pointEnd)"></path></g><g class="edgeLabels"><g class="edgeLabel"><g class="label" data-id="L_Start_Mut_0" transform="translate(0, 0)"><text y="-10.1" text-anchor="middle"><tspan class="text-outer-tspan row" x="0" y="-0.1em" dy="1.1em" text-anchor="middle"></tspan></text></g></g><g><rect class="background" style="stroke: none"></rect></g><g class="edgeLabel" transform="translate(135, 353.54373931884766)"><g class="label" data-id="L_Mut_NetOnly_0" transform="translate(0, -10.5)"><g><rect class="background" style="" x="-13.546875" y="-1" width="27.09375" height="23"></rect><text y="-10.1" text-anchor="middle" style=""><tspan class="text-outer-tspan row" x="0" y="-0.1em" dy="1.1em" text-anchor="middle"><tspan font-style="normal" class="text-inner-tspan" font-weight="normal">yes</tspan></tspan></text></g></g></g><g class="edgeLabel" transform="translate(417.1671905517578, 353.54373931884766)"><g class="label" data-id="L_Mut_Vers_0" transform="translate(0, -10.5)"><g><rect class="background" style="" x="-10.6640625" y="-1" width="21.328125" height="23"></rect><text y="-10.1" text-anchor="middle" style=""><tspan class="text-outer-tspan row" x="0" y="-0.1em" dy="1.1em" text-anchor="middle"><tspan font-style="normal" class="text-inner-tspan" font-weight="normal">no</tspan></tspan></text></g></g></g><g class="edgeLabel" transform="translate(305.7984390258789, 636.8781204223633)"><g class="label" data-id="L_Vers_CacheFirst_0" transform="translate(0, -10.5)"><g><rect class="background" style="" x="-13.546875" y="-1" width="27.09375" height="23"></rect><text y="-10.1" text-anchor="middle" style=""><tspan class="text-outer-tspan row" x="0" y="-0.1em" dy="1.1em" text-anchor="middle"><tspan font-style="normal" class="text-inner-tspan" font-weight="normal">yes</tspan></tspan></text></g></g></g><g class="edgeLabel" transform="translate(528.5359420776367, 636.8781204223633)"><g class="label" data-id="L_Vers_Stale_0" transform="translate(0, -10.5)"><g><rect class="background" style="" x="-10.6640625" y="-1" width="21.328125" height="23"></rect><text y="-10.1" text-anchor="middle" style=""><tspan class="text-outer-tspan row" x="0" y="-0.1em" dy="1.1em" text-anchor="middle"><tspan font-style="normal" class="text-inner-tspan" font-weight="normal">no</tspan></tspan></text></g></g></g><g class="edgeLabel" transform="translate(389.2687568664551, 886.4937515258789)"><g class="label" data-id="L_Stale_SWR_0" transform="translate(0, -10.5)"><g><rect class="background" style="" x="-13.546875" y="-1" width="27.09375" height="23"></rect><text y="-10.1" text-anchor="middle" style=""><tspan class="text-outer-tspan row" x="0" y="-0.1em" dy="1.1em" text-anchor="middle"><tspan font-style="normal" class="text-inner-tspan" font-weight="normal">yes</tspan></tspan></text></g></g></g><g class="edgeLabel" transform="translate(667.8031272888184, 886.4937515258789)"><g class="label" data-id="L_Stale_Fresh_0" transform="translate(0, -10.5)"><g><rect class="background" style="" x="-10.6640625" y="-1" width="21.328125" height="23"></rect><text y="-10.1" text-anchor="middle" style=""><tspan class="text-outer-tspan row" x="0" y="-0.1em" dy="1.1em" text-anchor="middle"><tspan font-style="normal" class="text-inner-tspan" font-weight="normal">no</tspan></tspan></text></g></g></g><g class="edgeLabel" transform="translate(527.9789085388184, 1189.7812423706055)"><g class="label" data-id="L_Fresh_NetFirst_0" transform="translate(0, -10.5)"><g><rect class="background" style="" x="-13.546875" y="-1" width="27.09375" height="23"></rect><text y="-10.1" text-anchor="middle" style=""><tspan class="text-outer-tspan row" x="0" y="-0.1em" dy="1.1em" text-anchor="middle"><tspan font-style="normal" class="text-inner-tspan" font-weight="normal">yes</tspan></tspan></text></g></g></g><g class="edgeLabel" transform="translate(807.6273460388184, 1189.7812423706055)"><g class="label" data-id="L_Fresh_CacheOnly_0" transform="translate(0, -10.5)"><g><rect class="background" style="" x="-10.6640625" y="-1" width="21.328125" height="23"></rect><text y="-10.1" text-anchor="middle" style=""><tspan class="text-outer-tspan row" x="0" y="-0.1em" dy="1.1em" text-anchor="middle"><tspan font-style="normal" class="text-inner-tspan" font-weight="normal">no</tspan></tspan></text></g></g></g></g><g class="nodes"><g class="node default" id="g39f268a2-6345-4a80-a494-27a0f15015a8-dark-flowchart-Start-0" data-look="classic" transform="translate(276.0835952758789, 33.79999923706055)"><g class="basic label-container outer-path"><path d="M-68.29062557220459 -25.799999237060547 C-27.39614995841805 -25.799999237060547, 13.49832565536849 -25.799999237060547, 68.29062557220459 -25.799999237060547 C68.29062557220459 -25.799999237060547, 68.29062557220459 -25.799999237060547, 68.29062557220459 -25.799999237060547 C68.81657442432835 -25.783133081070275, 69.34252327645213 -25.766266925080004, 69.94363719882529 -25.746990371586765 C70.4135239516239 -25.701660961665784, 70.88341070442252 -25.656331551744803, 71.58985624610231 -25.58818159996402 C71.91940156529068 -25.534903268419765, 72.24894688447907 -25.481624936875505, 73.22251804685753 -25.32422550149928 C73.66628435628598 -25.222938737218037, 74.11005066571444 -25.12165197293679, 74.83491364354678 -24.956206728419545 C75.4129198971411 -24.784657506369495, 75.99092615073539 -24.613108284319445, 76.42041735680552 -24.48563754880318 C76.8183824535018 -24.339182714469924, 77.21634755019807 -24.192727880136665, 77.97251401178644 -23.914451632345997 C78.56265986210889 -23.65321157046291, 79.15280571243132 -23.39197150857983, 79.48482571041056 -23.24499610449772 C79.84208534073552 -23.0586139841929, 80.1993449710605 -22.87223186388808, 80.9511380395184 -22.480021901620034 C81.41620151823088 -22.198097687808172, 81.88126499694334 -21.916173473996306, 82.36542560722664 -21.62267246679901 C82.83307780170534 -21.296458540267885, 83.30072999618405 -20.970244613736757, 83.72187680255584 -20.67647083276321 C84.12466988340483 -20.35525406956018, 84.52746296425383 -20.034037306357142, 85.0149176765865 -19.64530514498651 C85.37531547187213 -19.31800140291124, 85.73571326715775 -18.99069766083597, 86.23923484701088 -18.533412684464313 C86.66549982248588 -18.093259100281024, 87.09176479796089 -17.653105516097735, 87.38979733196044 -17.345362455817106 C87.70210780444253 -16.97850480387033, 88.01441827692462 -16.61164715192355, 88.46187722338968 -16.086036412270357 C88.8314565239638 -15.590833818867969, 89.2010358245379 -15.095631225465581, 89.45106911506427 -14.76060939466161 C89.67763562522701 -14.412542393425028, 89.90420213538975 -14.064475392188445, 90.35330820532036 -13.374527866909407 C90.54053023924226 -13.042096187394373, 90.72775227316417 -12.70966450787934, 91.1648870002064 -11.93348753532484 C91.3793537423608 -11.488142756388067, 91.5938204845152 -11.042797977451293, 91.88247054837109 -10.443409943732584 C92.08940288027618 -9.93228308316251, 92.29633521218129 -9.421156222592437, 92.50311014509381 -8.910418140577123 C92.6371142683407 -8.5068190720151, 92.77111839158756 -8.103220003453076, 93.0242554491449 -7.340811518003323 C93.11408274620393 -6.998261102920419, 93.20391004326297 -6.655710687837515, 93.44376496268467 -5.741039926302914 C93.5260273155572 -5.318640130456895, 93.60828966842973 -4.896240334610876, 93.75991483113748 -4.117677170096137 C93.80902201378672 -3.7368115587786592, 93.85812919643597 -3.355945947461182, 93.97140592687991 -2.4773939951584394 C94.01219453943158 -1.842078430690865, 94.05298315198323 -1.2067628662232908, 94.07736918763487 -0.8269306768952902 C94.07736918763487 -0.47264419128976154, 94.07736918763487 -0.11835770568423287, 94.07736918763487 0.826930676895284 C94.05466257772854 1.180604454632123, 94.0319559678222 1.5342782323689619, 93.97140592687991 2.4773939951584216 C93.89987100080714 3.032204755609918, 93.82833607473437 3.5870155160614137, 93.75991483113748 4.117677170096119 C93.64605173022629 4.702340128300169, 93.5321886293151 5.287003086504219, 93.44376496268467 5.741039926302909 C93.34431992693982 6.120266947349148, 93.24487489119497 6.499493968395385, 93.0242554491449 7.340811518003306 C92.90244367419776 7.707689176073471, 92.7806318992506 8.074566834143635, 92.50311014509383 8.910418140577105 C92.31022340125402 9.386852127072922, 92.11733665741421 9.863286113568737, 91.88247054837109 10.443409943732577 C91.7143386378062 10.79253945346717, 91.5462067272413 11.141668963201761, 91.1648870002064 11.933487535324835 C90.86155134673302 12.472090704132476, 90.55821569325964 13.010693872940116, 90.35330820532037 13.374527866909402 C90.0383816213966 13.858339669444966, 89.72345503747283 14.342151471980529, 89.45106911506429 14.760609394661596 C89.22124317571487 15.068555215816014, 88.99141723636545 15.376501036970433, 88.46187722338968 16.086036412270353 C88.09883888311631 16.512481904222213, 87.73580054284295 16.938927396174073, 87.38979733196045 17.345362455817092 C86.95383970691624 17.7955244964619, 86.51788208187205 18.245686537106714, 86.23923484701088 18.533412684464306 C85.92176055427062 18.82173443722153, 85.60428626153035 19.110056189978753, 85.01491767658653 19.64530514498649 C84.75517689705897 19.85244150466729, 84.49543611753141 20.059577864348093, 83.72187680255584 20.676470832763208 C83.1850205808803 21.050958492872795, 82.64816435920477 21.425446152982378, 82.36542560722665 21.622672466799003 C82.06804539232152 21.802946100674617, 81.7706651774164 21.98321973455023, 80.95113803951841 22.48002190162003 C80.4025709434662 22.76620900425647, 79.854003847414 23.05239610689291, 79.48482571041058 23.244996104497716 C79.0104020227829 23.455009397731818, 78.53597833515524 23.665022690965916, 77.97251401178644 23.914451632345994 C77.42808296649469 24.11480728967878, 76.88365192120291 24.31516294701156, 76.42041735680553 24.485637548803172 C75.9738384659242 24.618179819476318, 75.52725957504286 24.750722090149466, 74.83491364354681 24.95620672841954 C74.22247395189454 25.095992091496687, 73.61003426024229 25.23577745457383, 73.22251804685754 25.324225501499278 C72.57335480208374 25.429177180578154, 71.92419155730994 25.53412885965703, 71.58985624610233 25.588181599964017 C71.13988503872366 25.631589781170284, 70.68991383134501 25.67499796237655, 69.94363719882529 25.746990371586765 C69.59000109322265 25.75833079318252, 69.23636498762001 25.769671214778274, 68.29062557220459 25.799999237060547 C68.29062557220459 25.799999237060547, 68.29062557220459 25.799999237060547, 68.29062557220459 25.799999237060547 C36.717025006184286 25.799999237060547, 5.143424440163976 25.799999237060547, -68.29062557220459 25.799999237060547 C-68.85827397817262 25.781795857541745, -69.42592238414065 25.763592478022947, -69.94363719882527 25.746990371586765 C-70.43029416183214 25.700043159656122, -70.91695112483902 25.653095947725475, -71.58985624610231 25.588181599964017 C-71.96255694522004 25.52792624126775, -72.33525764433777 25.467670882571486, -73.22251804685753 25.324225501499278 C-73.8139252983492 25.18924065563929, -74.40533254984088 25.054255809779303, -74.83491364354678 24.956206728419545 C-75.15557019754173 24.861037546354446, -75.47622675153667 24.765868364289346, -76.4204173568055 24.485637548803183 C-76.7745766603489 24.3553036512865, -77.1287359638923 24.224969753769816, -77.97251401178644 23.914451632345997 C-78.32965103294362 23.75635766717304, -78.68678805410079 23.598263702000086, -79.48482571041056 23.244996104497723 C-80.05831766157144 22.945805720916223, -80.6318096127323 22.646615337334726, -80.9511380395184 22.480021901620038 C-81.27442839681743 22.284041387160343, -81.59771875411646 22.088060872700648, -82.36542560722663 21.622672466799017 C-82.82026532827638 21.30539596708889, -83.27510504932614 20.988119467378763, -83.72187680255584 20.67647083276321 C-84.13535699931072 20.34673137902134, -84.54883719606559 20.016991925279466, -85.0149176765865 19.645305144986512 C-85.46746941138116 19.234309633308758, -85.92002114617583 18.823314121631004, -86.23923484701086 18.533412684464324 C-86.62817394827307 18.131801129917015, -87.01711304953528 17.730189575369707, -87.38979733196044 17.3453624558171 C-87.6401688838973 17.05126178436717, -87.89054043583415 16.757161112917245, -88.46187722338968 16.08603641227036 C-88.83445831478534 15.586811692635873, -89.207039406181 15.087586973001388, -89.45106911506427 14.760609394661614 C-89.80310696533839 14.219784721241576, -90.1551448156125 13.678960047821537, -90.35330820532036 13.374527866909418 C-90.63564462546942 12.873210963272058, -90.91798104561849 12.371894059634696, -91.16488700020639 11.933487535324842 C-91.40171698747648 11.441704999408563, -91.63854697474656 10.949922463492282, -91.88247054837109 10.443409943732586 C-92.05156742943115 10.025737378248456, -92.2206643104912 9.608064812764326, -92.50311014509381 8.910418140577127 C-92.64547623893483 8.481634148884616, -92.78784233277585 8.052850157192104, -93.0242554491449 7.340811518003316 C-93.1552738172361 6.841181696751708, -93.28629218532727 6.341551875500099, -93.44376496268467 5.741039926302918 C-93.52652486521262 5.316085318133453, -93.60928476774059 4.891130709963989, -93.75991483113748 4.117677170096139 C-93.80628094030662 3.7580707834041025, -93.85264704947578 3.3984643967120656, -93.97140592687991 2.477393995158454 C-94.00423941387413 1.9659859325096969, -94.03707290086837 1.4545778698609397, -94.07736918763487 0.8269306768952934 C-94.07736918763487 0.21336515406849255, -94.07736918763487 -0.40020036875830833, -94.07736918763487 -0.8269306768952809 C-94.05223077481854 -1.2184817478712273, -94.02709236200221 -1.6100328188471735, -93.97140592687991 -2.4773939951584185 C-93.91849511986078 -2.887759765978209, -93.86558431284163 -3.2981255367979987, -93.75991483113748 -4.117677170096128 C-93.64745381188992 -4.6951407352875245, -93.53499279264234 -5.272604300478921, -93.44376496268467 -5.741039926302906 C-93.32563466085796 -6.1915219651647995, -93.20750435903126 -6.642004004026694, -93.0242554491449 -7.340811518003303 C-92.88889239620536 -7.748503466283591, -92.75352934326582 -8.156195414563879, -92.50311014509383 -8.910418140577093 C-92.3783310983668 -9.218624798431623, -92.25355205163976 -9.526831456286152, -91.88247054837109 -10.443409943732574 C-91.62009778060317 -10.988232609880548, -91.35772501283526 -11.533055276028524, -91.1648870002064 -11.933487535324831 C-90.92487410149499 -12.359654740928377, -90.68486120278357 -12.785821946531923, -90.35330820532036 -13.374527866909409 C-90.06679933123765 -13.814682435905546, -89.78029045715493 -14.254837004901681, -89.45106911506429 -14.760609394661605 C-89.2391107889024 -15.044614241917786, -89.0271524627405 -15.328619089173968, -88.46187722338968 -16.086036412270353 C-88.23769730863803 -16.349370896336154, -88.01351739388639 -16.61270538040196, -87.38979733196045 -17.345362455817092 C-87.03615867079635 -17.71052340774307, -86.68252000963224 -18.075684359669054, -86.23923484701089 -18.5334126844643 C-85.90060593863787 -18.840946499418738, -85.56197703026484 -19.148480314373174, -85.01491767658653 -19.645305144986487 C-84.59926575418304 -19.97677649214109, -84.18361383177954 -20.308247839295696, -83.72187680255585 -20.676470832763204 C-83.2111773146337 -21.032712687713175, -82.70047782671155 -21.38895454266315, -82.36542560722665 -21.622672466799 C-81.91777746358179 -21.894039402149012, -81.47012931993692 -22.165406337499025, -80.95113803951841 -22.480021901620027 C-80.383395006503 -22.776213078287405, -79.81565197348758 -23.07240425495478, -79.48482571041058 -23.244996104497716 C-79.17078682373007 -23.38401180399859, -78.85674793704955 -23.523027503499463, -77.97251401178646 -23.91445163234599 C-77.35702194781251 -24.140958401434673, -76.74152988383857 -24.367465170523356, -76.42041735680553 -24.485637548803172 C-76.06388122241823 -24.591455601992962, -75.70734508803093 -24.69727365518275, -74.83491364354681 -24.956206728419538 C-74.27330955804244 -25.084389196126757, -73.71170547253807 -25.21257166383398, -73.22251804685754 -25.324225501499278 C-72.81443648846056 -25.39020096314115, -72.40635493006359 -25.456176424783024, -71.58985624610233 -25.588181599964017 C-71.25585566816143 -25.620402234023512, -70.92185509022052 -25.652622868083004, -69.94363719882529 -25.746990371586765 C-69.29008666862666 -25.7679484650313, -68.63653613842803 -25.788906558475833, -68.2906255722046 -25.799999237060547 C-68.2906255722046 -25.799999237060547, -68.29062557220459 -25.799999237060547, -68.29062557220459 -25.799999237060547" stroke="none" stroke-width="0" fill="#2d2d2d" style=""></path><path d="M-68.29062557220459 -25.799999237060547 C-20.10508117775221 -25.799999237060547, 28.080463216700167 -25.799999237060547, 68.29062557220459 -25.799999237060547 M-68.29062557220459 -25.799999237060547 C-37.1511035671953 -25.799999237060547, -6.011581562186009 -25.799999237060547, 68.29062557220459 -25.799999237060547 M68.29062557220459 -25.799999237060547 C68.29062557220459 -25.799999237060547, 68.29062557220459 -25.799999237060547, 68.29062557220459 -25.799999237060547 M68.29062557220459 -25.799999237060547 C68.29062557220459 -25.799999237060547, 68.29062557220459 -25.799999237060547, 68.29062557220459 -25.799999237060547 M68.29062557220459 -25.799999237060547 C68.79787119623995 -25.783732857191445, 69.3051168202753 -25.767466477322344, 69.94363719882529 -25.746990371586765 M68.29062557220459 -25.799999237060547 C68.94921605410622 -25.77887952217457, 69.60780653600784 -25.75775980728859, 69.94363719882529 -25.746990371586765 M69.94363719882529 -25.746990371586765 C70.28705319110462 -25.713861443829735, 70.63046918338394 -25.68073251607271, 71.58985624610231 -25.58818159996402 M69.94363719882529 -25.746990371586765 C70.5481834849447 -25.68867051843811, 71.1527297710641 -25.630350665289455, 71.58985624610231 -25.58818159996402 M71.58985624610231 -25.58818159996402 C71.92274838598796 -25.53436218040441, 72.25564052587362 -25.4805427608448, 73.22251804685753 -25.32422550149928 M71.58985624610231 -25.58818159996402 C71.92965630939985 -25.533245360918922, 72.26945637269739 -25.478309121873824, 73.22251804685753 -25.32422550149928 M73.22251804685753 -25.32422550149928 C73.76469829022085 -25.200476399008338, 74.30687853358418 -25.076727296517397, 74.83491364354678 -24.956206728419545 M73.22251804685753 -25.32422550149928 C73.54962012276536 -25.249566587213845, 73.87672219867319 -25.174907672928413, 74.83491364354678 -24.956206728419545 M74.83491364354678 -24.956206728419545 C75.28779200940309 -24.821794806640447, 75.74067037525938 -24.68738288486135, 76.42041735680552 -24.48563754880318 M74.83491364354678 -24.956206728419545 C75.2872691193759 -24.82194999765581, 75.73962459520503 -24.687693266892072, 76.42041735680552 -24.48563754880318 M76.42041735680552 -24.48563754880318 C77.0294396060914 -24.261511731326014, 77.6384618553773 -24.037385913848848, 77.97251401178644 -23.914451632345997 M76.42041735680552 -24.48563754880318 C77.04064047392932 -24.257389708421975, 77.66086359105313 -24.029141868040767, 77.97251401178644 -23.914451632345997 M77.97251401178644 -23.914451632345997 C78.5634657724764 -23.652854817849693, 79.15441753316637 -23.39125800335339, 79.48482571041056 -23.24499610449772 M77.97251401178644 -23.914451632345997 C78.54458844127716 -23.66121125239546, 79.11666287076788 -23.407970872444924, 79.48482571041056 -23.24499610449772 M79.48482571041056 -23.24499610449772 C79.94518109941168 -23.004828992927536, 80.4055364884128 -22.764661881357352, 80.9511380395184 -22.480021901620034 M79.48482571041056 -23.24499610449772 C79.88292674221105 -23.037307051203285, 80.28102777401153 -22.829617997908855, 80.9511380395184 -22.480021901620034 M80.9511380395184 -22.480021901620034 C81.36225412001565 -22.23080091763634, 81.7733702005129 -21.98157993365265, 82.36542560722664 -21.62267246679901 M80.9511380395184 -22.480021901620034 C81.24052174555844 -22.304595798411142, 81.52990545159847 -22.12916969520225, 82.36542560722664 -21.62267246679901 M82.36542560722664 -21.62267246679901 C82.69106394167342 -21.395521261345237, 83.0167022761202 -21.168370055891465, 83.72187680255584 -20.67647083276321 M82.36542560722664 -21.62267246679901 C82.87532931796414 -21.266985711564402, 83.38523302870166 -20.911298956329794, 83.72187680255584 -20.67647083276321 M83.72187680255584 -20.67647083276321 C83.99426015196798 -20.459252360032373, 84.26664350138012 -20.242033887301538, 85.0149176765865 -19.64530514498651 M83.72187680255584 -20.67647083276321 C84.21781340535841 -20.280974589455422, 84.71375000816097 -19.88547834614763, 85.0149176765865 -19.64530514498651 M85.0149176765865 -19.64530514498651 C85.35149864504476 -19.33963121487715, 85.688079613503 -19.033957284767794, 86.23923484701088 -18.533412684464313 M85.0149176765865 -19.64530514498651 C85.3312381984917 -19.358031216374595, 85.64755872039689 -19.07075728776268, 86.23923484701088 -18.533412684464313 M86.23923484701088 -18.533412684464313 C86.65594330681647 -18.103126987314223, 87.07265176662206 -17.672841290164133, 87.38979733196044 -17.345362455817106 M86.23923484701088 -18.533412684464313 C86.69802901395634 -18.05967003939149, 87.15682318090181 -17.585927394318666, 87.38979733196044 -17.345362455817106 M87.38979733196044 -17.345362455817106 C87.79083331058705 -16.874282775728652, 88.19186928921366 -16.403203095640198, 88.46187722338968 -16.086036412270357 M87.38979733196044 -17.345362455817106 C87.77370938750279 -16.894397510162243, 88.15762144304516 -16.443432564507376, 88.46187722338968 -16.086036412270357 M88.46187722338968 -16.086036412270357 C88.84503573585967 -15.572638912019137, 89.22819424832967 -15.059241411767918, 89.45106911506427 -14.76060939466161 M88.46187722338968 -16.086036412270357 C88.7824649543077 -15.656478058983316, 89.10305268522572 -15.226919705696277, 89.45106911506427 -14.76060939466161 M89.45106911506427 -14.76060939466161 C89.68966757628996 -14.3940580855611, 89.92826603751564 -14.02750677646059, 90.35330820532036 -13.374527866909407 M89.45106911506427 -14.76060939466161 C89.68741802307292 -14.397514003392086, 89.92376693108157 -14.034418612122563, 90.35330820532036 -13.374527866909407 M90.35330820532036 -13.374527866909407 C90.55932716204819 -13.008720347557617, 90.76534611877602 -12.642912828205827, 91.1648870002064 -11.93348753532484 M90.35330820532036 -13.374527866909407 C90.5175251279992 -13.082944091926528, 90.68174205067807 -12.791360316943647, 91.1648870002064 -11.93348753532484 M91.1648870002064 -11.93348753532484 C91.44071072789518 -11.360733663096758, 91.71653445558395 -10.787979790868675, 91.88247054837109 -10.443409943732584 M91.1648870002064 -11.93348753532484 C91.36927039669372 -11.5090810394148, 91.57365379318104 -11.08467454350476, 91.88247054837109 -10.443409943732584 M91.88247054837109 -10.443409943732584 C92.083774408555 -9.946185517132937, 92.28507826873891 -9.448961090533292, 92.50311014509381 -8.910418140577123 M91.88247054837109 -10.443409943732584 C92.1295719501144 -9.833064704046013, 92.37667335185769 -9.222719464359441, 92.50311014509381 -8.910418140577123 M92.50311014509381 -8.910418140577123 C92.68384984119334 -8.366058972885225, 92.86458953729287 -7.8216998051933295, 93.0242554491449 -7.340811518003323 M92.50311014509381 -8.910418140577123 C92.65550837739559 -8.451418946245013, 92.80790660969737 -7.992419751912905, 93.0242554491449 -7.340811518003323 M93.0242554491449 -7.340811518003323 C93.1500818178959 -6.860981040462609, 93.27590818664689 -6.381150562921894, 93.44376496268467 -5.741039926302914 M93.0242554491449 -7.340811518003323 C93.16290972126002 -6.812062685286712, 93.30156399337514 -6.283313852570101, 93.44376496268467 -5.741039926302914 M93.44376496268467 -5.741039926302914 C93.51388606843341 -5.380982868384118, 93.58400717418213 -5.020925810465322, 93.75991483113748 -4.117677170096137 M93.44376496268467 -5.741039926302914 C93.55755160601653 -5.156769561609416, 93.67133824934838 -4.572499196915917, 93.75991483113748 -4.117677170096137 M93.75991483113748 -4.117677170096137 C93.83230131504268 -3.5562618952553615, 93.9046877989479 -2.9948466204145867, 93.97140592687991 -2.4773939951584394 M93.75991483113748 -4.117677170096137 C93.83279448708055 -3.552436950317536, 93.90567414302362 -2.987196730538935, 93.97140592687991 -2.4773939951584394 M93.97140592687991 -2.4773939951584394 C93.99889301827471 -2.0492603595034327, 94.02638010966953 -1.6211267238484262, 94.07736918763487 -0.8269306768952902 M93.97140592687991 -2.4773939951584394 C93.99870036055857 -2.0522611589430406, 94.02599479423722 -1.6271283227276416, 94.07736918763487 -0.8269306768952902 M94.07736918763487 -0.8269306768952902 C94.07736918763487 -0.2294596669591985, 94.07736918763487 0.3680113429768932, 94.07736918763487 0.826930676895284 M94.07736918763487 -0.8269306768952902 C94.07736918763487 -0.23993819713384634, 94.07736918763487 0.3470542826275975, 94.07736918763487 0.826930676895284 M94.07736918763487 0.826930676895284 C94.04417436412031 1.3439668475137878, 94.01097954060576 1.8610030181322916, 93.97140592687991 2.4773939951584216 M94.07736918763487 0.826930676895284 C94.04144706639975 1.3864467109466494, 94.00552494516464 1.9459627449980148, 93.97140592687991 2.4773939951584216 M93.97140592687991 2.4773939951584216 C93.90895064121894 2.961784857553851, 93.84649535555795 3.44617571994928, 93.75991483113748 4.117677170096119 M93.97140592687991 2.4773939951584216 C93.91654585261901 2.9028778977789944, 93.86168577835811 3.3283618003995676, 93.75991483113748 4.117677170096119 M93.75991483113748 4.117677170096119 C93.66134017954525 4.62383717226222, 93.56276552795302 5.129997174428319, 93.44376496268467 5.741039926302909 M93.75991483113748 4.117677170096119 C93.67937574396619 4.531228360778578, 93.5988366567949 4.944779551461037, 93.44376496268467 5.741039926302909 M93.44376496268467 5.741039926302909 C93.33222176767698 6.166402471993702, 93.22067857266931 6.591765017684494, 93.0242554491449 7.340811518003306 M93.44376496268467 5.741039926302909 C93.34260927152825 6.1267904178362285, 93.24145358037181 6.512540909369548, 93.0242554491449 7.340811518003306 M93.0242554491449 7.340811518003306 C92.89478738071728 7.730748712171956, 92.76531931228965 8.120685906340608, 92.50311014509383 8.910418140577105 M93.0242554491449 7.340811518003306 C92.89225466009391 7.738376863155284, 92.76025387104292 8.135942208307263, 92.50311014509383 8.910418140577105 M92.50311014509383 8.910418140577105 C92.30988985499275 9.387675992786964, 92.11666956489165 9.864933844996822, 91.88247054837109 10.443409943732577 M92.50311014509383 8.910418140577105 C92.3369969082405 9.320721047185794, 92.17088367138716 9.731023953794482, 91.88247054837109 10.443409943732577 M91.88247054837109 10.443409943732577 C91.6992198634473 10.823933911913366, 91.5159691785235 11.204457880094155, 91.1648870002064 11.933487535324835 M91.88247054837109 10.443409943732577 C91.73535946741606 10.74888925100859, 91.58824838646102 11.054368558284603, 91.1648870002064 11.933487535324835 M91.1648870002064 11.933487535324835 C90.90228646474469 12.399761377224769, 90.63968592928299 12.8660352191247, 90.35330820532037 13.374527866909402 M91.1648870002064 11.933487535324835 C90.87233466513679 12.452943830377185, 90.57978233006719 12.972400125429537, 90.35330820532037 13.374527866909402 M90.35330820532037 13.374527866909402 C90.05472137587596 13.833237418726242, 89.75613454643154 14.291946970543082, 89.45106911506429 14.760609394661596 M90.35330820532037 13.374527866909402 C90.15043775877182 13.68619135115058, 89.94756731222324 13.997854835391756, 89.45106911506429 14.760609394661596 M89.45106911506429 14.760609394661596 C89.06941383084394 15.271992706005195, 88.68775854662358 15.783376017348791, 88.46187722338968 16.086036412270353 M89.45106911506429 14.760609394661596 C89.08284042390989 15.254002294484614, 88.71461173275549 15.747395194307632, 88.46187722338968 16.086036412270353 M88.46187722338968 16.086036412270353 C88.09638592459089 16.515363288883464, 87.73089462579212 16.94469016549657, 87.38979733196045 17.345362455817092 M88.46187722338968 16.086036412270353 C88.24415354455397 16.34178703425907, 88.02642986571824 16.59753765624779, 87.38979733196045 17.345362455817092 M87.38979733196045 17.345362455817092 C87.14478055780177 17.598362391387205, 86.89976378364308 17.851362326957318, 86.23923484701088 18.533412684464306 M87.38979733196045 17.345362455817092 C87.10869322301662 17.63562552737815, 86.8275891140728 17.92588859893921, 86.23923484701088 18.533412684464306 M86.23923484701088 18.533412684464306 C85.89752861071618 18.84374124721558, 85.55582237442147 19.154069809966852, 85.01491767658653 19.64530514498649 M86.23923484701088 18.533412684464306 C85.85533982197734 18.882055988894006, 85.47144479694381 19.230699293323703, 85.01491767658653 19.64530514498649 M85.01491767658653 19.64530514498649 C84.57111954210225 19.999222347273363, 84.12732140761796 20.353139549560233, 83.72187680255584 20.676470832763208 M85.01491767658653 19.64530514498649 C84.60964101328396 19.968502499105345, 84.20436434998139 20.291699853224195, 83.72187680255584 20.676470832763208 M83.72187680255584 20.676470832763208 C83.43656025103007 20.87549530795313, 83.15124369950432 21.074519783143053, 82.36542560722665 21.622672466799003 M83.72187680255584 20.676470832763208 C83.23381734259486 21.016919984278484, 82.74575788263388 21.35736913579376, 82.36542560722665 21.622672466799003 M82.36542560722665 21.622672466799003 C81.90173880103333 21.903762133639532, 81.43805199484001 22.184851800480065, 80.95113803951841 22.48002190162003 M82.36542560722665 21.622672466799003 C81.81071993653286 21.958938304185935, 81.25601426583907 22.29520414157287, 80.95113803951841 22.48002190162003 M80.95113803951841 22.48002190162003 C80.39343075481116 22.770977434823237, 79.83572347010391 23.061932968026444, 79.48482571041058 23.244996104497716 M80.95113803951841 22.48002190162003 C80.61170348560698 22.657104690977413, 80.27226893169555 22.834187480334798, 79.48482571041058 23.244996104497716 M79.48482571041058 23.244996104497716 C78.88366977695561 23.511110003581056, 78.28251384350064 23.7772239026644, 77.97251401178644 23.914451632345994 M79.48482571041058 23.244996104497716 C79.1394184441554 23.39789765512638, 78.79401117790022 23.550799205755037, 77.97251401178644 23.914451632345994 M77.97251401178644 23.914451632345994 C77.6337271017507 24.039128346951017, 77.29494019171494 24.163805061556037, 76.42041735680553 24.485637548803172 M77.97251401178644 23.914451632345994 C77.41827015032494 24.11841849673792, 76.86402628886343 24.322385361129847, 76.42041735680553 24.485637548803172 M76.42041735680553 24.485637548803172 C75.9722334592613 24.618656177029017, 75.52404956171706 24.75167480525486, 74.83491364354681 24.95620672841954 M76.42041735680553 24.485637548803172 C76.00420551651276 24.609167038261536, 75.58799367621998 24.732696527719902, 74.83491364354681 24.95620672841954 M74.83491364354681 24.95620672841954 C74.34131574218453 25.068867228378153, 73.84771784082226 25.181527728336768, 73.22251804685754 25.324225501499278 M74.83491364354681 24.95620672841954 C74.24247965351135 25.091425920652053, 73.65004566347591 25.226645112884565, 73.22251804685754 25.324225501499278 M73.22251804685754 25.324225501499278 C72.6264517145203 25.420592883548117, 72.03038538218306 25.51696026559696, 71.58985624610233 25.588181599964017 M73.22251804685754 25.324225501499278 C72.71920233453065 25.405597682596646, 72.21588662220375 25.486969863694014, 71.58985624610233 25.588181599964017 M71.58985624610233 25.588181599964017 C71.13647783446487 25.631918470067365, 70.68309942282742 25.675655340170717, 69.94363719882529 25.746990371586765 M71.58985624610233 25.588181599964017 C70.98505543534812 25.64652600679808, 70.38025462459392 25.704870413632147, 69.94363719882529 25.746990371586765 M69.94363719882529 25.746990371586765 C69.59973251285342 25.75801872549602, 69.25582782688157 25.769047079405276, 68.29062557220459 25.799999237060547 M69.94363719882529 25.746990371586765 C69.55508889140295 25.7594503595424, 69.1665405839806 25.771910347498032, 68.29062557220459 25.799999237060547 M68.29062557220459 25.799999237060547 C68.29062557220459 25.799999237060547, 68.29062557220459 25.799999237060547, 68.29062557220459 25.799999237060547 M68.29062557220459 25.799999237060547 C68.29062557220459 25.799999237060547, 68.29062557220459 25.799999237060547, 68.29062557220459 25.799999237060547 M68.29062557220459 25.799999237060547 C24.21124275036646 25.799999237060547, -19.86814007147167 25.799999237060547, -68.29062557220459 25.799999237060547 M68.29062557220459 25.799999237060547 C14.901173536348978 25.799999237060547, -38.488278499506634 25.799999237060547, -68.29062557220459 25.799999237060547 M-68.29062557220459 25.799999237060547 C-68.83426278985127 25.78256584961627, -69.37790000749794 25.76513246217199, -69.94363719882527 25.746990371586765 M-68.29062557220459 25.799999237060547 C-68.88445781280859 25.780956192928713, -69.4782900534126 25.76191314879688, -69.94363719882527 25.746990371586765 M-69.94363719882527 25.746990371586765 C-70.41001456375615 25.701999508092726, -70.87639192868704 25.657008644598687, -71.58985624610231 25.588181599964017 M-69.94363719882527 25.746990371586765 C-70.4633562965187 25.696853695285945, -70.98307539421211 25.64671701898512, -71.58985624610231 25.588181599964017 M-71.58985624610231 25.588181599964017 C-72.20115246080974 25.489351968643067, -72.81244867551716 25.390522337322118, -73.22251804685753 25.324225501499278 M-71.58985624610231 25.588181599964017 C-71.92694418741587 25.533683835768468, -72.26403212872943 25.47918607157292, -73.22251804685753 25.324225501499278 M-73.22251804685753 25.324225501499278 C-73.75987424730583 25.201577455323868, -74.29723044775413 25.078929409148458, -74.83491364354678 24.956206728419545 M-73.22251804685753 25.324225501499278 C-73.86688622141529 25.177152670551777, -74.51125439597305 25.030079839604277, -74.83491364354678 24.956206728419545 M-74.83491364354678 24.956206728419545 C-75.16745839582053 24.85750919150772, -75.50000314809428 24.7588116545959, -76.4204173568055 24.485637548803183 M-74.83491364354678 24.956206728419545 C-75.2137196270863 24.8437791008982, -75.59252561062581 24.731351473376858, -76.4204173568055 24.485637548803183 M-76.4204173568055 24.485637548803183 C-76.93761996055284 24.295302209655706, -77.45482256430017 24.104966870508225, -77.97251401178644 23.914451632345997 M-76.4204173568055 24.485637548803183 C-76.921187783283 24.301349402788382, -77.4219582097605 24.117061256773585, -77.97251401178644 23.914451632345997 M-77.97251401178644 23.914451632345997 C-78.33891801070487 23.75225545101326, -78.7053220096233 23.590059269680523, -79.48482571041056 23.244996104497723 M-77.97251401178644 23.914451632345997 C-78.29145057311128 23.77326787756444, -78.61038713443611 23.632084122782878, -79.48482571041056 23.244996104497723 M-79.48482571041056 23.244996104497723 C-80.04833817608336 22.95101201210318, -80.61185064175618 22.657027919708643, -80.9511380395184 22.480021901620038 M-79.48482571041056 23.244996104497723 C-79.88948197960949 23.033887188051352, -80.29413824880842 22.822778271604985, -80.9511380395184 22.480021901620038 M-80.9511380395184 22.480021901620038 C-81.4027761367886 22.206236232934778, -81.8544142340588 21.932450564249518, -82.36542560722663 21.622672466799017 M-80.9511380395184 22.480021901620038 C-81.25504351447032 22.295792616757375, -81.55894898942223 22.11156333189471, -82.36542560722663 21.622672466799017 M-82.36542560722663 21.622672466799017 C-82.72475776223341 21.372017910704574, -83.08408991724018 21.121363354610132, -83.72187680255584 20.67647083276321 M-82.36542560722663 21.622672466799017 C-82.8351187669104 21.295034851292797, -83.30481192659417 20.967397235786574, -83.72187680255584 20.67647083276321 M-83.72187680255584 20.67647083276321 C-84.07738490663523 20.392962580227856, -84.43289301071464 20.1094543276925, -85.0149176765865 19.645305144986512 M-83.72187680255584 20.67647083276321 C-83.99189792911973 20.46113616989246, -84.26191905568363 20.245801507021707, -85.0149176765865 19.645305144986512 M-85.0149176765865 19.645305144986512 C-85.33682147129163 19.352960635743, -85.65872526599676 19.060616126499486, -86.23923484701086 18.533412684464324 M-85.0149176765865 19.645305144986512 C-85.29396717099362 19.391879777411003, -85.57301666540073 19.138454409835493, -86.23923484701086 18.533412684464324 M-86.23923484701086 18.533412684464324 C-86.58457874394232 18.176816757621364, -86.92992264087377 17.820220830778403, -87.38979733196044 17.3453624558171 M-86.23923484701086 18.533412684464324 C-86.49865848447438 18.2655364797065, -86.75808212193789 17.997660274948675, -87.38979733196044 17.3453624558171 M-87.38979733196044 17.3453624558171 C-87.77047792816553 16.89819336617504, -88.15115852437062 16.45102427653298, -88.46187722338968 16.08603641227036 M-87.38979733196044 17.3453624558171 C-87.80682906776883 16.855493249158563, -88.22386080357722 16.365624042500027, -88.46187722338968 16.08603641227036 M-88.46187722338968 16.08603641227036 C-88.84791896328325 15.568775649938978, -89.2339607031768 15.051514887607597, -89.45106911506427 14.760609394661614 M-88.46187722338968 16.08603641227036 C-88.73263274993819 15.72324867303125, -89.0033882764867 15.360460933792139, -89.45106911506427 14.760609394661614 M-89.45106911506427 14.760609394661614 C-89.78076720489513 14.254104592348044, -90.11046529472598 13.747599790034474, -90.35330820532036 13.374527866909418 M-89.45106911506427 14.760609394661614 C-89.68519775595507 14.400924929910305, -89.91932639684588 14.041240465158996, -90.35330820532036 13.374527866909418 M-90.35330820532036 13.374527866909418 C-90.67161582996711 12.809340447206974, -90.98992345461386 12.24415302750453, -91.16488700020639 11.933487535324842 M-90.35330820532036 13.374527866909418 C-90.6295273455679 12.88407281317897, -90.90574648581544 12.39361775944852, -91.16488700020639 11.933487535324842 M-91.16488700020639 11.933487535324842 C-91.42876737370827 11.385534293612693, -91.69264774721016 10.837581051900544, -91.88247054837109 10.443409943732586 M-91.16488700020639 11.933487535324842 C-91.39983719463365 11.44560842946783, -91.6347873890609 10.957729323610819, -91.88247054837109 10.443409943732586 M-91.88247054837109 10.443409943732586 C-92.0188943242888 10.106440579641571, -92.1553181002065 9.769471215550558, -92.50311014509381 8.910418140577127 M-91.88247054837109 10.443409943732586 C-92.02274626613365 10.09692620881254, -92.16302198389621 9.750442473892495, -92.50311014509381 8.910418140577127 M-92.50311014509381 8.910418140577127 C-92.65065090063365 8.466048892318168, -92.79819165617349 8.02167964405921, -93.0242554491449 7.340811518003316 M-92.50311014509381 8.910418140577127 C-92.65405484254536 8.455796761624585, -92.80499953999691 8.001175382672043, -93.0242554491449 7.340811518003316 M-93.0242554491449 7.340811518003316 C-93.12442283564813 6.958829860446589, -93.22459022215135 6.576848202889861, -93.44376496268467 5.741039926302918 M-93.0242554491449 7.340811518003316 C-93.14550346413878 6.878440287609525, -93.26675147913268 6.416069057215735, -93.44376496268467 5.741039926302918 M-93.44376496268467 5.741039926302918 C-93.53133755223031 5.291373187459406, -93.61891014177596 4.841706448615896, -93.75991483113748 4.117677170096139 M-93.44376496268467 5.741039926302918 C-93.5289712252389 5.3035237764368865, -93.61417748779314 4.866007626570856, -93.75991483113748 4.117677170096139 M-93.75991483113748 4.117677170096139 C-93.80830223320956 3.742394034798351, -93.85668963528165 3.3671108995005623, -93.97140592687991 2.477393995158454 M-93.75991483113748 4.117677170096139 C-93.81575227268782 3.684612999781758, -93.87158971423814 3.2515488294673767, -93.97140592687991 2.477393995158454 M-93.97140592687991 2.477393995158454 C-94.00364810771532 1.975196003226976, -94.03589028855073 1.472998011295498, -94.07736918763487 0.8269306768952934 M-93.97140592687991 2.477393995158454 C-93.99849133530897 2.0555168959276684, -94.02557674373803 1.6336397966968828, -94.07736918763487 0.8269306768952934 M-94.07736918763487 0.8269306768952934 C-94.07736918763487 0.1752532737841953, -94.07736918763487 -0.4764241293269028, -94.07736918763487 -0.8269306768952809 M-94.07736918763487 0.8269306768952934 C-94.07736918763487 0.20132706688443902, -94.07736918763487 -0.4242765431264154, -94.07736918763487 -0.8269306768952809 M-94.07736918763487 -0.8269306768952809 C-94.03521601743847 -1.483500328130829, -93.99306284724207 -2.140069979366377, -93.97140592687991 -2.4773939951584185 M-94.07736918763487 -0.8269306768952809 C-94.03549106836705 -1.4792161879009467, -93.99361294909924 -2.1315016989066127, -93.97140592687991 -2.4773939951584185 M-93.97140592687991 -2.4773939951584185 C-93.92117391527951 -2.866983557698483, -93.87094190367911 -3.2565731202385466, -93.75991483113748 -4.117677170096128 M-93.97140592687991 -2.4773939951584185 C-93.91429306000902 -2.920350112397874, -93.85718019313812 -3.3633062296373293, -93.75991483113748 -4.117677170096128 M-93.75991483113748 -4.117677170096128 C-93.65265447665034 -4.668436420903615, -93.5453941221632 -5.219195671711103, -93.44376496268467 -5.741039926302906 M-93.75991483113748 -4.117677170096128 C-93.64807259846566 -4.691963397001671, -93.53623036579384 -5.266249623907214, -93.44376496268467 -5.741039926302906 M-93.44376496268467 -5.741039926302906 C-93.30547531755741 -6.26839827828449, -93.16718567243014 -6.795756630266074, -93.0242554491449 -7.340811518003303 M-93.44376496268467 -5.741039926302906 C-93.27882965947734 -6.370009720845035, -93.11389435627001 -6.998979515387163, -93.0242554491449 -7.340811518003303 M-93.0242554491449 -7.340811518003303 C-92.85809002617911 -7.841275297111461, -92.69192460321334 -8.34173907621962, -92.50311014509383 -8.910418140577093 M-93.0242554491449 -7.340811518003303 C-92.85412409513918 -7.853220049518458, -92.68399274113345 -8.365628581033613, -92.50311014509383 -8.910418140577093 M-92.50311014509383 -8.910418140577093 C-92.28435810342027 -9.450739912793804, -92.0656060617467 -9.991061685010513, -91.88247054837109 -10.443409943732574 M-92.50311014509383 -8.910418140577093 C-92.3088704741226 -9.39019388324461, -92.11463080315136 -9.869969625912125, -91.88247054837109 -10.443409943732574 M-91.88247054837109 -10.443409943732574 C-91.69209392295856 -10.838731079808914, -91.50171729754604 -11.234052215885256, -91.1648870002064 -11.933487535324831 M-91.88247054837109 -10.443409943732574 C-91.7265910660032 -10.767097024156131, -91.5707115836353 -11.090784104579688, -91.1648870002064 -11.933487535324831 M-91.1648870002064 -11.933487535324831 C-90.87201868083041 -12.453504892510038, -90.57915036145442 -12.973522249695243, -90.35330820532036 -13.374527866909409 M-91.1648870002064 -11.933487535324831 C-90.89375459021913 -12.41491058439088, -90.62262218023186 -12.896333633456928, -90.35330820532036 -13.374527866909409 M-90.35330820532036 -13.374527866909409 C-90.03494888511143 -13.863613274197741, -89.71658956490249 -14.352698681486071, -89.45106911506429 -14.760609394661605 M-90.35330820532036 -13.374527866909409 C-90.09125275428887 -13.777115411435357, -89.82919730325737 -14.179702955961305, -89.45106911506429 -14.760609394661605 M-89.45106911506429 -14.760609394661605 C-89.17100641523021 -15.135867898202434, -88.89094371539613 -15.511126401743262, -88.46187722338968 -16.086036412270353 M-89.45106911506429 -14.760609394661605 C-89.24230658830496 -15.040332161861674, -89.03354406154561 -15.320054929061744, -88.46187722338968 -16.086036412270353 M-88.46187722338968 -16.086036412270353 C-88.1547803804971 -16.44676983823736, -87.84768353760452 -16.807503264204367, -87.38979733196045 -17.345362455817092 M-88.46187722338968 -16.086036412270353 C-88.06851318192143 -16.548104198427, -87.67514914045319 -17.010171984583646, -87.38979733196045 -17.345362455817092 M-87.38979733196045 -17.345362455817092 C-86.9534262452546 -17.79595142957339, -86.51705515854874 -18.246540403329686, -86.23923484701089 -18.5334126844643 M-87.38979733196045 -17.345362455817092 C-87.04788663048551 -17.698413326480626, -86.70597592901055 -18.051464197144156, -86.23923484701089 -18.5334126844643 M-86.23923484701089 -18.5334126844643 C-85.93783213461728 -18.807138653181408, -85.63642942222367 -19.080864621898517, -85.01491767658653 -19.645305144986487 M-86.23923484701089 -18.5334126844643 C-85.90007331085786 -18.841430217875985, -85.56091177470482 -19.149447751287667, -85.01491767658653 -19.645305144986487 M-85.01491767658653 -19.645305144986487 C-84.65434614823687 -19.93285134363401, -84.29377461988719 -20.220397542281532, -83.72187680255585 -20.676470832763204 M-85.01491767658653 -19.645305144986487 C-84.64495514525578 -19.94034041860634, -84.27499261392502 -20.235375692226196, -83.72187680255585 -20.676470832763204 M-83.72187680255585 -20.676470832763204 C-83.18415572677273 -21.05156177765931, -82.6464346509896 -21.426652722555414, -82.36542560722665 -21.622672466799 M-83.72187680255585 -20.676470832763204 C-83.24804853010052 -21.006992923932717, -82.7742202576452 -21.33751501510223, -82.36542560722665 -21.622672466799 M-82.36542560722665 -21.622672466799 C-81.97472020669984 -21.859520376638145, -81.58401480617303 -22.096368286477286, -80.95113803951841 -22.480021901620027 M-82.36542560722665 -21.622672466799 C-82.0200427931823 -21.832045558367398, -81.67465997913794 -22.041418649935796, -80.95113803951841 -22.480021901620027 M-80.95113803951841 -22.480021901620027 C-80.52010751375599 -22.704890250822054, -80.08907698799358 -22.92975860002408, -79.48482571041058 -23.244996104497716 M-80.95113803951841 -22.480021901620027 C-80.53036939880074 -22.699536631967256, -80.10960075808309 -22.919051362314484, -79.48482571041058 -23.244996104497716 M-79.48482571041058 -23.244996104497716 C-78.88374351979735 -23.51107735981252, -78.28266132918414 -23.777158615127327, -77.97251401178646 -23.91445163234599 M-79.48482571041058 -23.244996104497716 C-78.88645782699388 -23.509875816533683, -78.28808994357718 -23.77475552856965, -77.97251401178646 -23.91445163234599 M-77.97251401178646 -23.91445163234599 C-77.51566929949203 -24.082574709496566, -77.0588245871976 -24.25069778664714, -76.42041735680553 -24.485637548803172 M-77.97251401178646 -23.91445163234599 C-77.59108709291739 -24.054820264361595, -77.20966017404832 -24.1951888963772, -76.42041735680553 -24.485637548803172 M-76.42041735680553 -24.485637548803172 C-75.83586569734882 -24.659129412955647, -75.25131403789213 -24.83262127710812, -74.83491364354681 -24.956206728419538 M-76.42041735680553 -24.485637548803172 C-75.94472460021507 -24.62682066199699, -75.4690318436246 -24.768003775190806, -74.83491364354681 -24.956206728419538 M-74.83491364354681 -24.956206728419538 C-74.39540637663582 -25.056521394039024, -73.95589910972481 -25.15683605965851, -73.22251804685754 -25.324225501499278 M-74.83491364354681 -24.956206728419538 C-74.29380065785541 -25.079712236311373, -73.75268767216401 -25.203217744203204, -73.22251804685754 -25.324225501499278 M-73.22251804685754 -25.324225501499278 C-72.88663223883921 -25.37852891410634, -72.55074643082087 -25.4328323267134, -71.58985624610233 -25.588181599964017 M-73.22251804685754 -25.324225501499278 C-72.75346367579908 -25.400058574641033, -72.28440930474063 -25.47589164778279, -71.58985624610233 -25.588181599964017 M-71.58985624610233 -25.588181599964017 C-71.05579683715021 -25.639701668845216, -70.5217374281981 -25.691221737726416, -69.94363719882529 -25.746990371586765 M-71.58985624610233 -25.588181599964017 C-71.22533321212168 -25.62334669864904, -70.86081017814102 -25.658511797334064, -69.94363719882529 -25.746990371586765 M-69.94363719882529 -25.746990371586765 C-69.50782649517463 -25.76096597259877, -69.07201579152397 -25.77494157361077, -68.2906255722046 -25.799999237060547 M-69.94363719882529 -25.746990371586765 C-69.4384220085322 -25.763191639397753, -68.9332068182391 -25.77939290720874, -68.2906255722046 -25.799999237060547 M-68.2906255722046 -25.799999237060547 C-68.2906255722046 -25.799999237060547, -68.29062557220459 -25.799999237060547, -68.29062557220459 -25.799999237060547 M-68.2906255722046 -25.799999237060547 C-68.2906255722046 -25.799999237060547, -68.29062557220459 -25.799999237060547, -68.29062557220459 -25.799999237060547" stroke="#555555" stroke-width="1.3" fill="none" stroke-dasharray="0 0" style=""></path></g><g class="label" style="" transform="translate(0, -18.299999237060547)"><rect></rect><g><rect class="background" style="stroke: none"></rect><text y="-10.1" style=""><tspan class="text-outer-tspan row" x="0" y="-0.1em" dy="1.1em"><tspan font-style="normal" class="text-inner-tspan" font-weight="normal">Request</tspan><tspan font-style="normal" class="text-inner-tspan" font-weight="normal"> entered</tspan><tspan font-style="normal" class="text-inner-tspan" font-weight="normal"> fetch</tspan></tspan><tspan class="text-outer-tspan row" x="0" y="1em" dy="1.1em"><tspan font-style="normal" class="text-inner-tspan" font-weight="normal">handler</tspan></tspan></text></g></g></g><g class="node default" id="g39f268a2-6345-4a80-a494-27a0f15015a8-dark-flowchart-Mut-1" data-look="classic" transform="translate(276.0835952758789, 213.32186889648438)"><polygon points="103.72187423706055,0 207.4437484741211,-103.72187423706055 103.72187423706055,-207.4437484741211 0,-103.72187423706055" class="label-container" transform="translate(-103.22187423706055, 103.72187423706055)"></polygon><g class="label" style="" transform="translate(0, -18.299999237060547)"><rect></rect><g><rect class="background" style="stroke: none"></rect><text y="-10.1" style=""><tspan class="text-outer-tspan row" x="0" y="-0.1em" dy="1.1em"><tspan font-style="normal" class="text-inner-tspan" font-weight="normal">Mutating</tspan><tspan font-style="normal" class="text-inner-tspan" font-weight="normal"> method</tspan></tspan><tspan class="text-outer-tspan row" x="0" y="1em" dy="1.1em"><tspan font-style="normal" class="text-inner-tspan" font-weight="normal">POST/PUT/DELETE?</tspan></tspan></text></g></g></g><g class="node default" id="g39f268a2-6345-4a80-a494-27a0f15015a8-dark-flowchart-NetOnly-3" data-look="classic" transform="translate(135, 495.21092987060547)"><rect class="basic label-container" style="" x="-127" y="-42.099998474121094" width="254" height="84.19999694824219"></rect><g class="label" style="" transform="translate(0, -27.099998474121094)"><rect></rect><g><rect class="background" style="stroke: none"></rect><text y="-10.1" style=""><tspan class="text-outer-tspan row" x="0" y="-0.1em" dy="1.1em"><tspan font-style="normal" class="text-inner-tspan" font-weight="normal">Network-only</tspan></tspan><tspan class="text-outer-tspan row" x="0" y="1em" dy="1.1em"><tspan font-style="normal" class="text-inner-tspan" font-weight="normal">queue</tspan><tspan font-style="normal" class="text-inner-tspan" font-weight="normal"> for</tspan><tspan font-style="normal" class="text-inner-tspan" font-weight="normal"> Background</tspan><tspan font-style="normal" class="text-inner-tspan" font-weight="normal"> Sync</tspan></tspan><tspan class="text-outer-tspan row" x="0" y="2.1em" dy="1.1em"><tspan font-style="normal" class="text-inner-tspan" font-weight="normal">if</tspan><tspan font-style="normal" class="text-inner-tspan" font-weight="normal"> a</tspan><tspan font-style="normal" class="text-inner-tspan" font-weight="normal"> write</tspan><tspan font-style="normal" class="text-inner-tspan" font-weight="normal"> may</tspan><tspan font-style="normal" class="text-inner-tspan" font-weight="normal"> retry</tspan></tspan></text></g></g></g><g class="node default" id="g39f268a2-6345-4a80-a494-27a0f15015a8-dark-flowchart-Vers-5" data-look="classic" transform="translate(417.1671905517578, 495.21092987060547)"><polygon points="105.16718673706055,0 210.3343734741211,-105.16718673706055 105.16718673706055,-210.3343734741211 0,-105.16718673706055" class="label-container" transform="translate(-104.66718673706055, 105.16718673706055)"></polygon><g class="label" style="" transform="translate(0, -18.299999237060547)"><rect></rect><g><rect class="background" style="stroke: none"></rect><text y="-10.1" style=""><tspan class="text-outer-tspan row" x="0" y="-0.1em" dy="1.1em"><tspan font-style="normal" class="text-inner-tspan" font-weight="normal">Versioned</tspan><tspan font-style="normal" class="text-inner-tspan" font-weight="normal"> URL</tspan></tspan><tspan class="text-outer-tspan row" x="0" y="1em" dy="1.1em"><tspan font-style="normal" class="text-inner-tspan" font-weight="normal">or</tspan><tspan font-style="normal" class="text-inner-tspan" font-weight="normal"> immutable</tspan><tspan font-style="normal" class="text-inner-tspan" font-weight="normal"> asset?</tspan></tspan></text></g></g></g><g class="node default" id="g39f268a2-6345-4a80-a494-27a0f15015a8-dark-flowchart-CacheFirst-7" data-look="classic" transform="translate(305.7984390258789, 761.6859359741211)"><rect class="basic label-container" style="" x="-84.4296875" y="-33.29999923706055" width="168.859375" height="66.5999984741211"></rect><g class="label" style="" transform="translate(0, -18.299999237060547)"><rect></rect><g><rect class="background" style="stroke: none"></rect><text y="-10.1" style=""><tspan class="text-outer-tspan row" x="0" y="-0.1em" dy="1.1em"><tspan font-style="normal" class="text-inner-tspan" font-weight="normal">Cache-first</tspan></tspan><tspan class="text-outer-tspan row" x="0" y="1em" dy="1.1em"><tspan font-style="normal" class="text-inner-tspan" font-weight="normal">+</tspan><tspan font-style="normal" class="text-inner-tspan" font-weight="normal"> long</tspan><tspan font-style="normal" class="text-inner-tspan" font-weight="normal"> max-age</tspan></tspan></text></g></g></g><g class="node default" id="g39f268a2-6345-4a80-a494-27a0f15015a8-dark-flowchart-Stale-9" data-look="classic" transform="translate(528.5359420776367, 761.6859359741211)"><polygon points="88.30781173706055,0 176.6156234741211,-88.30781173706055 88.30781173706055,-176.6156234741211 0,-88.30781173706055" class="label-container" transform="translate(-87.80781173706055, 88.30781173706055)"></polygon><g class="label" style="" transform="translate(0, -18.299999237060547)"><rect></rect><g><rect class="background" style="stroke: none"></rect><text y="-10.1" style=""><tspan class="text-outer-tspan row" x="0" y="-0.1em" dy="1.1em"><tspan font-style="normal" class="text-inner-tspan" font-weight="normal">Slight</tspan><tspan font-style="normal" class="text-inner-tspan" font-weight="normal"> staleness</tspan></tspan><tspan class="text-outer-tspan row" x="0" y="1em" dy="1.1em"><tspan font-style="normal" class="text-inner-tspan" font-weight="normal">acceptable?</tspan></tspan></text></g></g></g><g class="node default" id="g39f268a2-6345-4a80-a494-27a0f15015a8-dark-flowchart-SWR-11" data-look="classic" transform="translate(389.2687568664551, 1038.1374969482422)"><rect class="basic label-container" style="" x="-113.390625" y="-42.099998474121094" width="226.78125" height="84.19999694824219"></rect><g class="label" style="" transform="translate(0, -27.099998474121094)"><rect></rect><g><rect class="background" style="stroke: none"></rect><text y="-10.1" style=""><tspan class="text-outer-tspan row" x="0" y="-0.1em" dy="1.1em"><tspan font-style="normal" class="text-inner-tspan" font-weight="normal">Stale-while-revalidate</tspan></tspan><tspan class="text-outer-tspan row" x="0" y="1em" dy="1.1em"><tspan font-style="normal" class="text-inner-tspan" font-weight="normal">cache</tspan><tspan font-style="normal" class="text-inner-tspan" font-weight="normal"> hit</tspan><tspan font-style="normal" class="text-inner-tspan" font-weight="normal"> +</tspan><tspan font-style="normal" class="text-inner-tspan" font-weight="normal"> background</tspan></tspan><tspan class="text-outer-tspan row" x="0" y="2.1em" dy="1.1em"><tspan font-style="normal" class="text-inner-tspan" font-weight="normal">revalidate</tspan></tspan></text></g></g></g><g class="node default" id="g39f268a2-6345-4a80-a494-27a0f15015a8-dark-flowchart-Fresh-13" data-look="classic" transform="translate(667.8031272888184, 1038.1374969482422)"><polygon points="115.14374923706055,0 230.2874984741211,-115.14374923706055 115.14374923706055,-230.2874984741211 0,-115.14374923706055" class="label-container" transform="translate(-114.64374923706055, 115.14374923706055)"></polygon><g class="label" style="" transform="translate(0, -18.299999237060547)"><rect></rect><g><rect class="background" style="stroke: none"></rect><text y="-10.1" style=""><tspan class="text-outer-tspan row" x="0" y="-0.1em" dy="1.1em"><tspan font-style="normal" class="text-inner-tspan" font-weight="normal">Freshness</tspan><tspan font-style="normal" class="text-inner-tspan" font-weight="normal"> critical?</tspan></tspan><tspan class="text-outer-tspan row" x="0" y="1em" dy="1.1em"><tspan font-style="normal" class="text-inner-tspan" font-weight="normal">HTML</tspan><tspan font-style="normal" class="text-inner-tspan" font-weight="normal"> /</tspan><tspan font-style="normal" class="text-inner-tspan" font-weight="normal"> API</tspan><tspan font-style="normal" class="text-inner-tspan" font-weight="normal"> /</tspan><tspan font-style="normal" class="text-inner-tspan" font-weight="normal"> user</tspan><tspan font-style="normal" class="text-inner-tspan" font-weight="normal"> data</tspan></tspan></text></g></g></g><g class="node default" id="g39f268a2-6345-4a80-a494-27a0f15015a8-dark-flowchart-NetFirst-15" data-look="classic" transform="translate(527.9789085388184, 1268.3812408447266)"><rect class="basic label-container" style="" x="-117.3046875" y="-42.099998474121094" width="234.609375" height="84.19999694824219"></rect><g class="label" style="" transform="translate(0, -27.099998474121094)"><rect></rect><g><rect class="background" style="stroke: none"></rect><text y="-10.1" style=""><tspan class="text-outer-tspan row" x="0" y="-0.1em" dy="1.1em"><tspan font-style="normal" class="text-inner-tspan" font-weight="normal">Network-first</tspan></tspan><tspan class="text-outer-tspan row" x="0" y="1em" dy="1.1em"><tspan font-style="normal" class="text-inner-tspan" font-weight="normal">with</tspan><tspan font-style="normal" class="text-inner-tspan" font-weight="normal"> timeout</tspan><tspan font-style="normal" class="text-inner-tspan" font-weight="normal"> fallback</tspan><tspan font-style="normal" class="text-inner-tspan" font-weight="normal"> to</tspan></tspan><tspan class="text-outer-tspan row" x="0" y="2.1em" dy="1.1em"><tspan font-style="normal" class="text-inner-tspan" font-weight="normal">cache</tspan></tspan></text></g></g></g><g class="node default" id="g39f268a2-6345-4a80-a494-27a0f15015a8-dark-flowchart-CacheOnly-17" data-look="classic" transform="translate(807.6273460388184, 1268.3812408447266)"><rect class="basic label-container" style="" x="-112.34375" y="-33.29999923706055" width="224.6875" height="66.5999984741211"></rect><g class="label" style="" transform="translate(0, -18.299999237060547)"><rect></rect><g><rect class="background" style="stroke: none"></rect><text y="-10.1" style=""><tspan class="text-outer-tspan row" x="0" y="-0.1em" dy="1.1em"><tspan font-style="normal" class="text-inner-tspan" font-weight="normal">Cache-only</tspan></tspan><tspan class="text-outer-tspan row" x="0" y="1em" dy="1.1em"><tspan font-style="normal" class="text-inner-tspan" font-weight="normal">precached</tspan><tspan font-style="normal" class="text-inner-tspan" font-weight="normal"> offline</tspan><tspan font-style="normal" class="text-inner-tspan" font-weight="normal"> shell</tspan></tspan></text></g></g></g></g></g></g><defs><filter id="g39f268a2-6345-4a80-a494-27a0f15015a8-dark-drop-shadow" height="130%" width="130%"><feDropShadow dx="4" dy="4" stdDeviation="0" flood-opacity="0.06" flood-color="#000000"></feDropShadow></filter></defs><defs><filter id="g39f268a2-6345-4a80-a494-27a0f15015a8-dark-drop-shadow-small" height="150%" width="150%"><feDropShadow dx="2" dy="2" stdDeviation="0" flood-opacity="0.06" flood-color="#000000"></feDropShadow></filter></defs><linearGradient id="g39f268a2-6345-4a80-a494-27a0f15015a8-dark-gradient" gradientUnits="objectBoundingBox" x1="0%" y1="0%" x2="100%" y2="0%"><stop offset="0%" stop-color="#555555" stop-opacity="1"></stop><stop offset="100%" stop-color="#555555" stop-opacity="1"></stop></linearGradient></svg>