<svg id="g8d10d3b5-d831-4473-931d-9b2bea4b4bb0-light" width="100%" xmlns="http://www.w3.org/2000/svg" xmlns:xlink="http://www.w3.org/1999/xlink" class="statediagram" style="max-width: 1864.9781494140625px;" viewBox="0 0 1864.9781494140625 662.1500244140625" role="graphics-document document" aria-roledescription="stateDiagram"><style>#g8d10d3b5-d831-4473-931d-9b2bea4b4bb0-light{font-family:"trebuchet ms",verdana,arial,sans-serif;font-size:16px;fill:#333;}@keyframes edge-animation-frame{from{stroke-dashoffset:0;}}@keyframes dash{to{stroke-dashoffset:0;}}#g8d10d3b5-d831-4473-931d-9b2bea4b4bb0-light .edge-animation-slow{stroke-dasharray:9,5!important;stroke-dashoffset:900;animation:dash 50s linear infinite;stroke-linecap:round;}#g8d10d3b5-d831-4473-931d-9b2bea4b4bb0-light .edge-animation-fast{stroke-dasharray:9,5!important;stroke-dashoffset:900;animation:dash 20s linear infinite;stroke-linecap:round;}#g8d10d3b5-d831-4473-931d-9b2bea4b4bb0-light .error-icon{fill:#552222;}#g8d10d3b5-d831-4473-931d-9b2bea4b4bb0-light .error-text{fill:#552222;stroke:#552222;}#g8d10d3b5-d831-4473-931d-9b2bea4b4bb0-light .edge-thickness-normal{stroke-width:1px;}#g8d10d3b5-d831-4473-931d-9b2bea4b4bb0-light .edge-thickness-thick{stroke-width:3.5px;}#g8d10d3b5-d831-4473-931d-9b2bea4b4bb0-light .edge-pattern-solid{stroke-dasharray:0;}#g8d10d3b5-d831-4473-931d-9b2bea4b4bb0-light .edge-thickness-invisible{stroke-width:0;fill:none;}#g8d10d3b5-d831-4473-931d-9b2bea4b4bb0-light .edge-pattern-dashed{stroke-dasharray:3;}#g8d10d3b5-d831-4473-931d-9b2bea4b4bb0-light .edge-pattern-dotted{stroke-dasharray:2;}#g8d10d3b5-d831-4473-931d-9b2bea4b4bb0-light .marker{fill:#333333;stroke:#333333;}#g8d10d3b5-d831-4473-931d-9b2bea4b4bb0-light .marker.cross{stroke:#333333;}#g8d10d3b5-d831-4473-931d-9b2bea4b4bb0-light svg{font-family:"trebuchet ms",verdana,arial,sans-serif;font-size:16px;}#g8d10d3b5-d831-4473-931d-9b2bea4b4bb0-light p{margin:0;}#g8d10d3b5-d831-4473-931d-9b2bea4b4bb0-light defs [id$="-barbEnd"]{fill:#333333;stroke:#333333;}#g8d10d3b5-d831-4473-931d-9b2bea4b4bb0-light g.stateGroup text{fill:#9370DB;stroke:none;font-size:10px;}#g8d10d3b5-d831-4473-931d-9b2bea4b4bb0-light g.stateGroup text{fill:#333;stroke:none;font-size:10px;}#g8d10d3b5-d831-4473-931d-9b2bea4b4bb0-light g.stateGroup .state-title{font-weight:bolder;fill:#131300;}#g8d10d3b5-d831-4473-931d-9b2bea4b4bb0-light g.stateGroup rect{fill:#ECECFF;stroke:#9370DB;}#g8d10d3b5-d831-4473-931d-9b2bea4b4bb0-light g.stateGroup line{stroke:#333333;stroke-width:1;}#g8d10d3b5-d831-4473-931d-9b2bea4b4bb0-light .transition{stroke:#333333;stroke-width:1;fill:none;}#g8d10d3b5-d831-4473-931d-9b2bea4b4bb0-light .stateGroup .composit{fill:white;border-bottom:1px;}#g8d10d3b5-d831-4473-931d-9b2bea4b4bb0-light .stateGroup .alt-composit{fill:#e0e0e0;border-bottom:1px;}#g8d10d3b5-d831-4473-931d-9b2bea4b4bb0-light .state-note{stroke:#aaaa33;fill:#fff5ad;}#g8d10d3b5-d831-4473-931d-9b2bea4b4bb0-light .state-note text{fill:black;stroke:none;font-size:10px;}#g8d10d3b5-d831-4473-931d-9b2bea4b4bb0-light .stateLabel .box{stroke:none;stroke-width:0;fill:#ECECFF;opacity:0.5;}#g8d10d3b5-d831-4473-931d-9b2bea4b4bb0-light .edgeLabel .label rect{fill:#ECECFF;opacity:0.5;}#g8d10d3b5-d831-4473-931d-9b2bea4b4bb0-light .edgeLabel{background-color:rgba(232,232,232, 0.8);text-align:center;}#g8d10d3b5-d831-4473-931d-9b2bea4b4bb0-light .edgeLabel p{background-color:rgba(232,232,232, 0.8);}#g8d10d3b5-d831-4473-931d-9b2bea4b4bb0-light .edgeLabel rect{opacity:0.5;background-color:rgba(232,232,232, 0.8);fill:rgba(232,232,232, 0.8);}#g8d10d3b5-d831-4473-931d-9b2bea4b4bb0-light .edgeLabel .label text{fill:#333;}#g8d10d3b5-d831-4473-931d-9b2bea4b4bb0-light .label div .edgeLabel{color:#333;}#g8d10d3b5-d831-4473-931d-9b2bea4b4bb0-light .stateLabel text{fill:#131300;font-size:10px;font-weight:bold;}#g8d10d3b5-d831-4473-931d-9b2bea4b4bb0-light .node circle.state-start{fill:#333333;stroke:#333333;}#g8d10d3b5-d831-4473-931d-9b2bea4b4bb0-light .node .fork-join{fill:#333333;stroke:#333333;}#g8d10d3b5-d831-4473-931d-9b2bea4b4bb0-light .node circle.state-end{fill:#9370DB;stroke:white;stroke-width:1.5;}#g8d10d3b5-d831-4473-931d-9b2bea4b4bb0-light .end-state-inner{fill:white;stroke-width:1.5;}#g8d10d3b5-d831-4473-931d-9b2bea4b4bb0-light .node rect{fill:#ECECFF;stroke:#9370DB;stroke-width:1px;}#g8d10d3b5-d831-4473-931d-9b2bea4b4bb0-light .node polygon{fill:#ECECFF;stroke:#9370DB;stroke-width:1px;}#g8d10d3b5-d831-4473-931d-9b2bea4b4bb0-light [id$="-barbEnd"]{fill:#333333;}#g8d10d3b5-d831-4473-931d-9b2bea4b4bb0-light .statediagram-cluster rect{fill:#ECECFF;stroke:#9370DB;stroke-width:1px;}#g8d10d3b5-d831-4473-931d-9b2bea4b4bb0-light .cluster-label,#g8d10d3b5-d831-4473-931d-9b2bea4b4bb0-light .nodeLabel{color:#131300;}#g8d10d3b5-d831-4473-931d-9b2bea4b4bb0-light .statediagram-cluster rect.outer{rx:5px;ry:5px;}#g8d10d3b5-d831-4473-931d-9b2bea4b4bb0-light .statediagram-state .divider{stroke:#9370DB;}#g8d10d3b5-d831-4473-931d-9b2bea4b4bb0-light .statediagram-state .title-state{rx:5px;ry:5px;}#g8d10d3b5-d831-4473-931d-9b2bea4b4bb0-light .statediagram-cluster.statediagram-cluster .inner{fill:white;}#g8d10d3b5-d831-4473-931d-9b2bea4b4bb0-light .statediagram-cluster.statediagram-cluster-alt .inner{fill:#f0f0f0;}#g8d10d3b5-d831-4473-931d-9b2bea4b4bb0-light .statediagram-cluster .inner{rx:0;ry:0;}#g8d10d3b5-d831-4473-931d-9b2bea4b4bb0-light .statediagram-state rect.basic{rx:5px;ry:5px;}#g8d10d3b5-d831-4473-931d-9b2bea4b4bb0-light .statediagram-state rect.divider{stroke-dasharray:10,10;fill:#f0f0f0;}#g8d10d3b5-d831-4473-931d-9b2bea4b4bb0-light .note-edge{stroke-dasharray:5;}#g8d10d3b5-d831-4473-931d-9b2bea4b4bb0-light .statediagram-note rect{fill:#fff5ad;stroke:#aaaa33;stroke-width:1px;rx:0;ry:0;}#g8d10d3b5-d831-4473-931d-9b2bea4b4bb0-light .statediagram-note rect{fill:#fff5ad;stroke:#aaaa33;stroke-width:1px;rx:0;ry:0;}#g8d10d3b5-d831-4473-931d-9b2bea4b4bb0-light .statediagram-note text{fill:black;}#g8d10d3b5-d831-4473-931d-9b2bea4b4bb0-light .statediagram-note .nodeLabel{color:black;}#g8d10d3b5-d831-4473-931d-9b2bea4b4bb0-light .statediagram .edgeLabel{color:red;}#g8d10d3b5-d831-4473-931d-9b2bea4b4bb0-light [id$="-dependencyStart"],#g8d10d3b5-d831-4473-931d-9b2bea4b4bb0-light [id$="-dependencyEnd"]{fill:#333333;stroke:#333333;stroke-width:1;}#g8d10d3b5-d831-4473-931d-9b2bea4b4bb0-light .statediagramTitleText{text-anchor:middle;font-size:18px;fill:#333;}#g8d10d3b5-d831-4473-931d-9b2bea4b4bb0-light [data-look="neo"].statediagram-cluster rect{fill:#ECECFF;stroke:#9370DB;stroke-width:1;}#g8d10d3b5-d831-4473-931d-9b2bea4b4bb0-light [data-look="neo"].statediagram-cluster rect.outer{rx:5px;ry:5px;filter:drop-shadow(1px 2px 2px rgba(185, 185, 185, 1));}#g8d10d3b5-d831-4473-931d-9b2bea4b4bb0-light .node .neo-node{stroke:#9370DB;}#g8d10d3b5-d831-4473-931d-9b2bea4b4bb0-light [data-look="neo"].node rect,#g8d10d3b5-d831-4473-931d-9b2bea4b4bb0-light [data-look="neo"].cluster rect,#g8d10d3b5-d831-4473-931d-9b2bea4b4bb0-light [data-look="neo"].node polygon{stroke:#9370DB;filter:drop-shadow(1px 2px 2px rgba(185, 185, 185, 1));}#g8d10d3b5-d831-4473-931d-9b2bea4b4bb0-light [data-look="neo"].node path{stroke:#9370DB;stroke-width:1px;}#g8d10d3b5-d831-4473-931d-9b2bea4b4bb0-light [data-look="neo"].node .outer-path{filter:drop-shadow(1px 2px 2px rgba(185, 185, 185, 1));}#g8d10d3b5-d831-4473-931d-9b2bea4b4bb0-light [data-look="neo"].node .neo-line path{stroke:#9370DB;filter:none;}#g8d10d3b5-d831-4473-931d-9b2bea4b4bb0-light [data-look="neo"].node circle{stroke:#9370DB;filter:drop-shadow(1px 2px 2px rgba(185, 185, 185, 1));}#g8d10d3b5-d831-4473-931d-9b2bea4b4bb0-light [data-look="neo"].node circle .state-start{fill:#000000;}#g8d10d3b5-d831-4473-931d-9b2bea4b4bb0-light [data-look="neo"].icon-shape .icon{fill:#9370DB;filter:drop-shadow(1px 2px 2px rgba(185, 185, 185, 1));}#g8d10d3b5-d831-4473-931d-9b2bea4b4bb0-light [data-look="neo"].icon-shape .icon-neo path{stroke:#9370DB;filter:drop-shadow(1px 2px 2px rgba(185, 185, 185, 1));}#g8d10d3b5-d831-4473-931d-9b2bea4b4bb0-light :root{--mermaid-font-family:"trebuchet ms",verdana,arial,sans-serif;}</style><g><defs><marker id="g8d10d3b5-d831-4473-931d-9b2bea4b4bb0-light_stateDiagram-barbEnd" refX="19" refY="7" markerWidth="20" markerHeight="14" markerUnits="userSpaceOnUse" orient="auto"><path d="M 19,7 L9,13 L14,7 L9,1 Z"></path></marker></defs><g class="root"><g class="clusters"><g class="note-cluster" id="g8d10d3b5-d831-4473-931d-9b2bea4b4bb0-light-state-Main----parent-6"><rect x="466.640625" y="8" width="254.203125" height="154.1999969482422" fill="none"></rect></g><g class="note-cluster" id="g8d10d3b5-d831-4473-931d-9b2bea4b4bb0-light-state-Pending----parent-7"><rect x="923.546875" y="105.0999984741211" width="245" height="154.1999969482422" fill="none"></rect></g><g class="note-cluster" id="g8d10d3b5-d831-4473-931d-9b2bea4b4bb0-light-state-Active----parent-8"><rect x="1419.90625" y="321.2999954223633" width="253.84375" height="154.1999969482422" fill="none"></rect></g></g><g class="edgePaths"><path d="M22,241.75L38.055,241.75C54.109,241.75,86.219,241.75,118.328,241.75C150.438,241.75,182.547,241.75,198.602,241.75L214.656,241.75" id="g8d10d3b5-d831-4473-931d-9b2bea4b4bb0-light-edge0" class="edge-thickness-normal edge-pattern-solid transition" style="fill:none;;;fill:none" data-edge="true" data-et="edge" data-id="edge0" data-points="W3sieCI6MjIsInkiOjI0MS43NDk5OTYxODUzMDI3M30seyJ4IjoxMTguMzI4MTI1LCJ5IjoyNDEuNzQ5OTk2MTg1MzAyNzN9LHsieCI6MjE0LjY1NjI1LCJ5IjoyNDEuNzQ5OTk2MTg1MzAyNzN9XQ==" data-look="classic" marker-end="url(#g8d10d3b5-d831-4473-931d-9b2bea4b4bb0-light_stateDiagram-barbEnd)"></path><path d="M249.552,259.25L268.824,291.787C288.095,324.325,326.637,389.4,362.819,421.937C399,454.475,432.82,454.475,464.923,454.475C497.026,454.475,527.411,454.475,542.604,454.475L557.797,454.475" id="g8d10d3b5-d831-4473-931d-9b2bea4b4bb0-light-edge1" class="edge-thickness-normal edge-pattern-solid transition" style="fill:none;;;fill:none" data-edge="true" data-et="edge" data-id="edge1" data-points="W3sieCI6MjQ5LjU1MjM1MjgwNDY4NzU2LCJ5IjoyNTkuMjQ5OTk2MTg1MzAyNzN9LHsieCI6MzY1LjE3OTY4NzUsInkiOjQ1NC40NzQ5OTMxMzM5MTc0NX0seyJ4Ijo0NjYuNjQwNjI1LCJ5Ijo0NTQuNDc0OTkzMTMzOTE3NDV9LHsieCI6NTU3Ljc5Njg3NSwieSI6NDU0LjQ3NDk5MzEzMzkxNzQ1fV0=" data-look="classic" marker-end="url(#g8d10d3b5-d831-4473-931d-9b2bea4b4bb0-light_stateDiagram-barbEnd)"></path><path d="M619.141,436.975L636.091,425.296C653.042,413.617,686.943,390.258,720.785,378.579C754.628,366.9,788.411,366.9,822.195,366.9C855.979,366.9,889.763,366.9,927.063,366.9C964.364,366.9,1005.18,366.9,1025.589,366.9L1045.997,366.9" id="g8d10d3b5-d831-4473-931d-9b2bea4b4bb0-light-Pending-cyclic-special-1" class="edge-thickness-normal edge-pattern-solid transition" style="fill:none;;;fill:none" data-edge="true" data-et="edge" data-id="Pending-cyclic-special-1" data-points="W3sieCI6NjE5LjE0MDczMDA0MjAyNzgsInkiOjQzNi45NzQ5OTMxMzM5MTc0NX0seyJ4Ijo3MjAuODQzNzUsInkiOjM2Ni44OTk5OTM4OTY0ODQ0fSx7IngiOjgyMi4xOTUzMTI1LCJ5IjozNjYuODk5OTkzODk2NDg0NH0seyJ4Ijo5MjMuNTQ2ODc1LCJ5IjozNjYuODk5OTkzODk2NDg0NH0seyJ4IjoxMDQ1Ljk5Njg3NDk5OTI1NSwieSI6MzY2Ljg5OTk5Mzg5NjQ4NDR9XQ==" data-look="classic"></path><path d="M1046.092,366.95L1066.501,389.629C1086.91,412.308,1127.729,457.667,1169.084,480.346C1210.44,503.025,1252.333,503.025,1294.227,503.025C1336.12,503.025,1378.013,503.025,1420.105,507.019C1462.197,511.014,1504.487,519.002,1525.633,522.996L1546.778,526.991" id="g8d10d3b5-d831-4473-931d-9b2bea4b4bb0-light-Pending-cyclic-special-mid" class="edge-thickness-normal edge-pattern-solid transition" style="fill:none;;;fill:none" data-edge="true" data-et="edge" data-id="Pending-cyclic-special-mid" data-points="W3sieCI6MTA0Ni4wOTE4NzA0MDk4MDY1LCJ5IjozNjYuOTQ5OTkzODk3MjI5NDN9LHsieCI6MTE2OC41NDY4NzUsInkiOjUwMy4wMjQ5OTIzNzA5Nzh9LHsieCI6MTI5NC4yMjY1NjI1LCJ5Ijo1MDMuMDI0OTkyMzcwOTc4fSx7IngiOjE0MTkuOTA2MjUsInkiOjUwMy4wMjQ5OTIzNzA5Nzh9LHsieCI6MTU0Ni43NzgxMjQ5OTkyNTUsInkiOjUyNi45OTA1NDc1ODQwNTU5fV0=" data-look="classic"></path><path d="M1546.778,527.02L1525.633,535.65C1504.487,544.28,1462.197,561.54,1420.105,570.17C1378.013,578.8,1336.12,578.8,1294.227,578.8C1252.333,578.8,1210.44,578.8,1169.077,578.8C1127.714,578.8,1086.88,578.8,1046.047,578.8C1005.214,578.8,964.38,578.8,927.072,578.8C889.763,578.8,855.979,578.8,822.195,578.8C788.411,578.8,754.628,578.8,719.534,560.996C684.44,543.192,648.037,507.583,629.835,489.779L611.633,471.975" id="g8d10d3b5-d831-4473-931d-9b2bea4b4bb0-light-Pending-cyclic-special-2" class="edge-thickness-normal edge-pattern-solid transition" style="fill:none;;;fill:none" data-edge="true" data-et="edge" data-id="Pending-cyclic-special-2" data-points="W3sieCI6MTU0Ni43NzgxMjQ5OTkyNTUsInkiOjUyNy4wMjAzOTg2MjQ3NTY5fSx7IngiOjE0MTkuOTA2MjUsInkiOjU3OC43OTk5OTIzNzEzNTA1fSx7IngiOjEyOTQuMjI2NTYyNSwieSI6NTc4Ljc5OTk5MjM3MTM1MDV9LHsieCI6MTE2OC41NDY4NzUsInkiOjU3OC43OTk5OTIzNzEzNTA1fSx7IngiOjEwNDYuMDQ2ODc1LCJ5Ijo1NzguNzk5OTkyMzcxMzUwNX0seyJ4Ijo5MjMuNTQ2ODc1LCJ5Ijo1NzguNzk5OTkyMzcxMzUwNX0seyJ4Ijo4MjIuMTk1MzEyNSwieSI6NTc4Ljc5OTk5MjM3MTM1MDV9LHsieCI6NzIwLjg0Mzc1LCJ5Ijo1NzguNzk5OTkyMzcxMzUwNX0seyJ4Ijo2MTEuNjMzMDE2ODM3NTY2NSwieSI6NDcxLjk3NDk5MzEzMzkxNzQ1fV0=" data-look="classic" marker-end="url(#g8d10d3b5-d831-4473-931d-9b2bea4b4bb0-light_stateDiagram-barbEnd)"></path><path d="M629.688,449.377L644.88,447.223C660.073,445.068,690.458,440.759,722.543,438.605C754.628,436.45,788.411,436.45,822.195,436.45C855.979,436.45,889.763,436.45,922.003,436.45C954.242,436.45,984.938,436.45,1000.285,436.45L1015.633,436.45" id="g8d10d3b5-d831-4473-931d-9b2bea4b4bb0-light-edge3" class="edge-thickness-normal edge-pattern-solid transition" style="fill:none;;;fill:none" data-edge="true" data-et="edge" data-id="edge3" data-points="W3sieCI6NjI5LjY4NzUsInkiOjQ0OS4zNzczODI2NDc2MTEzNH0seyJ4Ijo3MjAuODQzNzUsInkiOjQzNi40NDk5OTMxMzM1NDQ5fSx7IngiOjgyMi4xOTUzMTI1LCJ5Ijo0MzYuNDQ5OTkzMTMzNTQ0OX0seyJ4Ijo5MjMuNTQ2ODc1LCJ5Ijo0MzYuNDQ5OTkzMTMzNTQ0OX0seyJ4IjoxMDE1LjYzMjgxMjUsInkiOjQzNi40NDk5OTMxMzM1NDQ5fV0=" data-look="classic" marker-end="url(#g8d10d3b5-d831-4473-931d-9b2bea4b4bb0-light_stateDiagram-barbEnd)"></path><path d="M1058.131,453.95L1076.534,480.6C1094.936,507.25,1131.742,560.55,1171.091,587.2C1210.44,613.85,1252.333,613.85,1294.227,613.85C1336.12,613.85,1378.013,613.85,1420.105,613.85C1462.197,613.85,1504.487,613.85,1525.633,613.85L1546.778,613.85" id="g8d10d3b5-d831-4473-931d-9b2bea4b4bb0-light-Active-cyclic-special-1" class="edge-thickness-normal edge-pattern-solid transition" style="fill:none;;;fill:none" data-edge="true" data-et="edge" data-id="Active-cyclic-special-1" data-points="W3sieCI6MTA1OC4xMzExNDc4ODE2MzIyLCJ5Ijo0NTMuOTQ5OTkzMTMzNTQ0OX0seyJ4IjoxMTY4LjU0Njg3NSwieSI6NjEzLjg0OTk5MjM3MjA5NTZ9LHsieCI6MTI5NC4yMjY1NjI1LCJ5Ijo2MTMuODQ5OTkyMzcyMDk1Nn0seyJ4IjoxNDE5LjkwNjI1LCJ5Ijo2MTMuODQ5OTkyMzcyMDk1Nn0seyJ4IjoxNTQ2Ljc3ODEyNDk5OTI1NSwieSI6NjEzLjg0OTk5MjM3MjA5NTZ9XQ==" data-look="classic"></path><path d="M1546.878,613.85L1568.023,613.85C1589.169,613.85,1631.459,613.85,1667.861,613.85C1704.263,613.85,1734.776,613.85,1765.289,617.206C1795.802,620.563,1826.315,627.276,1841.572,630.632L1856.828,633.989" id="g8d10d3b5-d831-4473-931d-9b2bea4b4bb0-light-Active-cyclic-special-mid" class="edge-thickness-normal edge-pattern-solid transition" style="fill:none;;;fill:none" data-edge="true" data-et="edge" data-id="Active-cyclic-special-mid" data-points="W3sieCI6MTU0Ni44NzgxMjUwMDA3NDUsInkiOjYxMy44NDk5OTIzNzIwOTU2fSx7IngiOjE2NzMuNzUsInkiOjYxMy44NDk5OTIzNzIwOTU2fSx7IngiOjE3NjUuMjg5MDYyNSwieSI6NjEzLjg0OTk5MjM3MjA5NTZ9LHsieCI6MTg1Ni44MjgxMjUsInkiOjYzMy45ODg5OTE3Njg4OTE3fV0=" data-look="classic"></path><path d="M1856.828,634.011L1841.572,637.367C1826.315,640.724,1795.802,647.437,1765.289,650.793C1734.776,654.15,1704.263,654.15,1667.853,654.15C1631.443,654.15,1589.135,654.15,1546.828,654.15C1504.521,654.15,1462.214,654.15,1420.113,654.15C1378.013,654.15,1336.12,654.15,1294.227,654.15C1252.333,654.15,1210.44,654.15,1170.718,620.783C1130.996,587.417,1093.445,520.683,1074.67,487.317L1055.894,453.95" id="g8d10d3b5-d831-4473-931d-9b2bea4b4bb0-light-Active-cyclic-special-2" class="edge-thickness-normal edge-pattern-solid transition" style="fill:none;;;fill:none" data-edge="true" data-et="edge" data-id="Active-cyclic-special-2" data-points="W3sieCI6MTg1Ni44MjgxMjUsInkiOjYzNC4wMTA5OTIyMTIzNjAxfSx7IngiOjE3NjUuMjg5MDYyNSwieSI6NjU0LjE0OTk5MTYwOTE1NjF9LHsieCI6MTY3My43NSwieSI6NjU0LjE0OTk5MTYwOTE1NjF9LHsieCI6MTU0Ni44MjgxMjUsInkiOjY1NC4xNDk5OTE2MDkxNTYxfSx7IngiOjE0MTkuOTA2MjUsInkiOjY1NC4xNDk5OTE2MDkxNTYxfSx7IngiOjEyOTQuMjI2NTYyNSwieSI6NjU0LjE0OTk5MTYwOTE1NjF9LHsieCI6MTE2OC41NDY4NzUsInkiOjY1NC4xNDk5OTE2MDkxNTYxfSx7IngiOjEwNTUuODk0MTQxOTQ5OTgyLCJ5Ijo0NTMuOTQ5OTkzMTMzNTQ0OX1d" data-look="classic" marker-end="url(#g8d10d3b5-d831-4473-931d-9b2bea4b4bb0-light_stateDiagram-barbEnd)"></path><path d="M1059.688,418.95L1077.831,395.675C1095.974,372.4,1132.261,325.85,1171.35,302.575C1210.44,279.3,1252.333,279.3,1294.227,279.3C1336.12,279.3,1378.013,279.3,1418.946,279.3C1459.878,279.3,1499.85,279.3,1519.836,279.3L1539.821,279.3" id="g8d10d3b5-d831-4473-931d-9b2bea4b4bb0-light-edge5" class="edge-thickness-normal edge-pattern-solid transition" style="fill:none;;;fill:none" data-edge="true" data-et="edge" data-id="edge5" data-points="W3sieCI6MTA1OS42ODgzMDA1ODg0MzYzLCJ5Ijo0MTguOTQ5OTkzMTMzNTQ0OX0seyJ4IjoxMTY4LjU0Njg3NSwieSI6Mjc5LjI5OTk5NTQyMjM2MzN9LHsieCI6MTI5NC4yMjY1NjI1LCJ5IjoyNzkuMjk5OTk1NDIyMzYzM30seyJ4IjoxNDE5LjkwNjI1LCJ5IjoyNzkuMjk5OTk1NDIyMzYzM30seyJ4IjoxNTM5LjgyMTQ3ODM2Njg1MTgsInkiOjI3OS4yOTk5OTU0MjIzNjMzfV0=" data-look="classic" marker-end="url(#g8d10d3b5-d831-4473-931d-9b2bea4b4bb0-light_stateDiagram-barbEnd)"></path><path d="M253.263,224.25L271.915,201.058C290.568,177.867,327.874,131.483,363.437,108.292C399,85.1,432.82,85.1,453.897,85.1C474.974,85.1,483.307,85.1,487.474,85.1L491.641,85.1" id="g8d10d3b5-d831-4473-931d-9b2bea4b4bb0-light-Main-Main----note-6" class="edge-thickness-normal edge-pattern-solid transition note-edge" style="fill:none;;;fill:none" data-edge="true" data-et="edge" data-id="Main-Main----note-6" data-points="W3sieCI6MjUzLjI2MjU5Mjk2ODE3OTU4LCJ5IjoyMjQuMjQ5OTk2MTg1MzAyNzN9LHsieCI6MzY1LjE3OTY4NzUsInkiOjg1LjA5OTk5ODQ3NDEyMTF9LHsieCI6NDY2LjY0MDYyNSwieSI6ODUuMDk5OTk4NDc0MTIxMX0seyJ4Ijo0OTEuNjQwNjI1LCJ5Ijo4NS4wOTk5OTg0NzQxMjExfV0=" data-look="classic"></path><path d="M601.911,436.975L621.733,394.512C641.556,352.05,681.2,267.125,717.914,224.662C754.628,182.2,788.411,182.2,822.195,182.2C855.979,182.2,889.763,182.2,910.822,182.2C931.88,182.2,940.214,182.2,944.38,182.2L948.547,182.2" id="g8d10d3b5-d831-4473-931d-9b2bea4b4bb0-light-Pending-Pending----note-7" class="edge-thickness-normal edge-pattern-solid transition note-edge" style="fill:none;;;fill:none" data-edge="true" data-et="edge" data-id="Pending-Pending----note-7" data-points="W3sieCI6NjAxLjkxMTQxODUxNjEwNTQsInkiOjQzNi45NzQ5OTMxMzM5MTc0NX0seyJ4Ijo3MjAuODQzNzUsInkiOjE4Mi4xOTk5OTY5NDgyNDIyfSx7IngiOjgyMi4xOTUzMTI1LCJ5IjoxODIuMTk5OTk2OTQ4MjQyMn0seyJ4Ijo5MjMuNTQ2ODc1LCJ5IjoxODIuMTk5OTk2OTQ4MjQyMn0seyJ4Ijo5NDguNTQ2ODc1LCJ5IjoxODIuMTk5OTk2OTQ4MjQyMn1d" data-look="classic"></path><path d="M1076.461,427.003L1091.809,422.236C1107.156,417.469,1137.852,407.934,1174.146,403.167C1210.44,398.4,1252.333,398.4,1294.227,398.4C1336.12,398.4,1378.013,398.4,1403.126,398.4C1428.24,398.4,1436.573,398.4,1440.74,398.4L1444.906,398.4" id="g8d10d3b5-d831-4473-931d-9b2bea4b4bb0-light-Active-Active----note-8" class="edge-thickness-normal edge-pattern-solid transition note-edge" style="fill:none;;;fill:none" data-edge="true" data-et="edge" data-id="Active-Active----note-8" data-points="W3sieCI6MTA3Ni40NjA5Mzc1LCJ5Ijo0MjcuMDAzMDEzMDkzMzc0Mn0seyJ4IjoxMTY4LjU0Njg3NSwieSI6Mzk4LjM5OTk5Mzg5NjQ4NDR9LHsieCI6MTI5NC4yMjY1NjI1LCJ5IjozOTguMzk5OTkzODk2NDg0NH0seyJ4IjoxNDE5LjkwNjI1LCJ5IjozOTguMzk5OTkzODk2NDg0NH0seyJ4IjoxNDQ0LjkwNjI1LCJ5IjozOTguMzk5OTkzODk2NDg0NH1d" data-look="classic"></path></g><g class="edgeLabels"><g class="edgeLabel" transform="translate(118.328125, 241.74999618530273)"><g class="label" data-id="edge0" transform="translate(0, -10.5)"><g><rect class="background" style="" x="-71.328125" y="-1" width="142.65625" height="23"></rect><text y="-10.1" text-anchor="middle" style=""><tspan class="text-outer-tspan row" x="0" y="-0.1em" dy="1.1em" text-anchor="middle"><tspan font-style="normal" class="text-inner-tspan" font-weight="normal">cc</tspan><tspan font-style="normal" class="text-inner-tspan" font-weight="normal"> receives</tspan><tspan font-style="normal" class="text-inner-tspan" font-weight="normal"> commit</tspan></tspan></text></g></g></g><g class="edgeLabel" transform="translate(365.1796875, 454.47499313391745)"><g class="label" data-id="edge1" transform="translate(0, -10.5)"><g><rect class="background" style="" x="-76.4609375" y="-1" width="152.921875" height="23"></rect><text y="-10.1" text-anchor="middle" style=""><tspan class="text-outer-tspan row" x="0" y="-0.1em" dy="1.1em" text-anchor="middle"><tspan font-style="normal" class="text-inner-tspan" font-weight="normal">push</tspan><tspan font-style="normal" class="text-inner-tspan" font-weight="normal"> to</tspan><tspan font-style="normal" class="text-inner-tspan" font-weight="normal"> pending</tspan><tspan font-style="normal" class="text-inner-tspan" font-weight="normal"> tree</tspan></tspan></text></g></g></g><g class="edgeLabel"><g class="label" data-id="Pending-cyclic-special-1" transform="translate(0, 0)"><text y="-10.1" text-anchor="middle"><tspan class="text-outer-tspan row" x="0" y="-0.1em" dy="1.1em" text-anchor="middle"></tspan></text></g></g><g><rect class="background" style="stroke: none"></rect></g><g class="edgeLabel" transform="translate(1294.2265625, 503.024992370978)"><g class="label" data-id="Pending-cyclic-special-mid" transform="translate(0, -10.5)"><g><rect class="background" style="" x="-85.3828125" y="-1" width="170.765625" height="23"></rect><text y="-10.1" text-anchor="middle" style=""><tspan class="text-outer-tspan row" x="0" y="-0.1em" dy="1.1em" text-anchor="middle"><tspan font-style="normal" class="text-inner-tspan" font-weight="normal">raster</tspan><tspan font-style="normal" class="text-inner-tspan" font-weight="normal"> outstanding</tspan><tspan font-style="normal" class="text-inner-tspan" font-weight="normal"> tiles</tspan></tspan></text></g></g></g><g class="edgeLabel"><g class="label" data-id="Pending-cyclic-special-2" transform="translate(0, 0)"><text y="-10.1" text-anchor="middle"><tspan class="text-outer-tspan row" x="0" y="-0.1em" dy="1.1em" text-anchor="middle"></tspan></text></g></g><g><rect class="background" style="stroke: none"></rect></g><g class="edgeLabel" transform="translate(822.1953125, 436.4499931335449)"><g class="label" data-id="edge3" transform="translate(0, -19.299999237060547)"><g><rect class="background" style="" x="-76.3515625" y="-1" width="152.703125" height="40.599998474121094"></rect><text y="-10.1" text-anchor="middle" style=""><tspan class="text-outer-tspan row" x="0" y="-0.1em" dy="1.1em" text-anchor="middle"><tspan font-style="normal" class="text-inner-tspan" font-weight="normal">activate</tspan><tspan font-style="normal" class="text-inner-tspan" font-weight="normal"> when</tspan><tspan font-style="normal" class="text-inner-tspan" font-weight="normal"> raster</tspan></tspan><tspan class="text-outer-tspan row" x="0" y="1em" dy="1.1em" text-anchor="middle"><tspan font-style="normal" class="text-inner-tspan" font-weight="normal">complete</tspan></tspan></text></g></g></g><g class="edgeLabel"><g class="label" data-id="Active-cyclic-special-1" transform="translate(0, 0)"><text y="-10.1" text-anchor="middle"><tspan class="text-outer-tspan row" x="0" y="-0.1em" dy="1.1em" text-anchor="middle"></tspan></text></g></g><g><rect class="background" style="stroke: none"></rect></g><g class="edgeLabel" transform="translate(1765.2890625, 613.8499923720956)"><g class="label" data-id="Active-cyclic-special-mid" transform="translate(0, -19.299999237060547)"><g><rect class="background" style="" x="-66.5390625" y="-1" width="133.078125" height="40.599998474121094"></rect><text y="-10.1" text-anchor="middle" style=""><tspan class="text-outer-tspan row" x="0" y="-0.1em" dy="1.1em" text-anchor="middle"><tspan font-style="normal" class="text-inner-tspan" font-weight="normal">scroll,</tspan><tspan font-style="normal" class="text-inner-tspan" font-weight="normal"> transform,</tspan></tspan><tspan class="text-outer-tspan row" x="0" y="1em" dy="1.1em" text-anchor="middle"><tspan font-style="normal" class="text-inner-tspan" font-weight="normal">opacity</tspan><tspan font-style="normal" class="text-inner-tspan" font-weight="normal"> animation</tspan></tspan></text></g></g></g><g class="edgeLabel"><g class="label" data-id="Active-cyclic-special-2" transform="translate(0, 0)"><text y="-10.1" text-anchor="middle"><tspan class="text-outer-tspan row" x="0" y="-0.1em" dy="1.1em" text-anchor="middle"></tspan></text></g></g><g><rect class="background" style="stroke: none"></rect></g><g class="edgeLabel" transform="translate(1294.2265625, 279.2999954223633)"><g class="label" data-id="edge5" transform="translate(0, -10.5)"><g><rect class="background" style="" x="-100.6796875" y="-1" width="201.359375" height="23"></rect><text y="-10.1" text-anchor="middle" style=""><tspan class="text-outer-tspan row" x="0" y="-0.1em" dy="1.1em" text-anchor="middle"><tspan font-style="normal" class="text-inner-tspan" font-weight="normal">replaced</tspan><tspan font-style="normal" class="text-inner-tspan" font-weight="normal"> by</tspan><tspan font-style="normal" class="text-inner-tspan" font-weight="normal"> next</tspan><tspan font-style="normal" class="text-inner-tspan" font-weight="normal"> activation</tspan></tspan></text></g></g></g><g class="edgeLabel"><g class="label" data-id="Main-Main----note-6" transform="translate(0, 0)"><text y="-10.1" text-anchor="middle"><tspan class="text-outer-tspan row" x="0" y="-0.1em" dy="1.1em" text-anchor="middle"></tspan></text></g></g><g><rect class="background" style="stroke: none"></rect></g><g class="edgeLabel"><g class="label" data-id="Pending-Pending----note-7" transform="translate(0, 0)"><text y="-10.1" text-anchor="middle"><tspan class="text-outer-tspan row" x="0" y="-0.1em" dy="1.1em" text-anchor="middle"></tspan></text></g></g><g><rect class="background" style="stroke: none"></rect></g><g class="edgeLabel"><g class="label" data-id="Active-Active----note-8" transform="translate(0, 0)"><text y="-10.1" text-anchor="middle"><tspan class="text-outer-tspan row" x="0" y="-0.1em" dy="1.1em" text-anchor="middle"></tspan></text></g></g><g><rect class="background" style="stroke: none"></rect></g></g><g class="nodes"><g class="node default" id="g8d10d3b5-d831-4473-931d-9b2bea4b4bb0-light-state-root_start-0" data-look="classic" transform="translate(15, 241.74999618530273)"><circle class="state-start" r="7" width="14" height="14"></circle></g><g class="node  statediagram-state" id="g8d10d3b5-d831-4473-931d-9b2bea4b4bb0-light-state-Main-6" data-look="classic" transform="translate(239.1875, 241.74999618530273)"><rect class="basic label-container" style="" rx="5" ry="5" x="-24.53125" y="-17.5" width="49.0625" height="35"></rect><g class="label" style="" transform="translate(-16.53125, -9.5)"><rect></rect><g><rect class="background" style="stroke: none"></rect><text y="-10.1" style=""><tspan class="text-outer-tspan row" x="0" y="-0.1em" dy="1.1em"><tspan font-style="normal" class="text-inner-tspan" font-weight="normal">Main</tspan></tspan></text></g></g></g><g class="node  statediagram-state" id="g8d10d3b5-d831-4473-931d-9b2bea4b4bb0-light-state-Pending-7" data-look="classic" transform="translate(593.7421875, 454.47499313391745)"><rect class="basic label-container" style="" rx="5" ry="5" x="-35.9453125" y="-17.5" width="71.890625" height="35"></rect><g class="label" style="" transform="translate(-27.9453125, -9.5)"><rect></rect><g><rect class="background" style="stroke: none"></rect><text y="-10.1" style=""><tspan class="text-outer-tspan row" x="0" y="-0.1em" dy="1.1em"><tspan font-style="normal" class="text-inner-tspan" font-weight="normal">Pending</tspan></tspan></text></g></g></g><g class="node  statediagram-state" id="g8d10d3b5-d831-4473-931d-9b2bea4b4bb0-light-state-Active-8" data-look="classic" transform="translate(1046.046875, 436.4499931335449)"><rect class="basic label-container" style="" rx="5" ry="5" x="-30.4140625" y="-17.5" width="60.828125" height="35"></rect><g class="label" style="" transform="translate(-22.4140625, -9.5)"><rect></rect><g><rect class="background" style="stroke: none"></rect><text y="-10.1" style=""><tspan class="text-outer-tspan row" x="0" y="-0.1em" dy="1.1em"><tspan font-style="normal" class="text-inner-tspan" font-weight="normal">Active</tspan></tspan></text></g></g></g><g class="node default" id="g8d10d3b5-d831-4473-931d-9b2bea4b4bb0-light-state-root_end-5" data-look="classic" transform="translate(1546.828125, 279.2999954223633)"><g class="outer-path"><path d="M7 0 C7 0.40517908122283747, 6.964012880168563 0.816513743121899, 6.893654271085456 1.2155372436685123 C6.823295662002349 1.6145607442151257, 6.716427752933756 2.013397210557766, 6.5778483455013586 2.394141003279681 C6.439268938068961 2.7748847960015954, 6.26476736710249 3.149104622578984, 6.062177826491071 3.4999999999999996 C5.859588285879653 3.8508953774210153, 5.622755194947063 4.189128084166967, 5.362311101832846 4.499513267805774 C5.10186700871863 4.809898451444582, 4.809898451444583 5.10186700871863, 4.499513267805775 5.362311101832846 C4.189128084166968 5.622755194947063, 3.8508953774210166 5.859588285879652, 3.500000000000001 6.06217782649107 C3.149104622578985 6.264767367102489, 2.7748847960015963 6.439268938068961, 2.3941410032796817 6.5778483455013586 C2.013397210557767 6.716427752933756, 1.6145607442151264 6.823295662002349, 1.2155372436685128 6.893654271085456 C0.8165137431218992 6.964012880168563, 0.4051790812228379 7, 4.286263797015736e-16 7 C-0.405179081222837 7, -0.8165137431218985 6.964012880168563, -1.2155372436685121 6.893654271085456 C-1.6145607442151257 6.823295662002349, -2.0133972105577667 6.716427752933756, -2.394141003279681 6.5778483455013586 C-2.774884796001595 6.439268938068961, -3.149104622578983 6.26476736710249, -3.4999999999999982 6.062177826491071 C-3.8508953774210135 5.859588285879653, -4.189128084166966 5.6227551949470636, -4.499513267805773 5.362311101832848 C-4.809898451444581 5.101867008718632, -5.101867008718628 4.809898451444586, -5.3623111018328435 4.499513267805779 C-5.622755194947059 4.189128084166971, -5.859588285879649 3.8508953774210206, -6.062177826491068 3.5000000000000053 C-6.264767367102486 3.14910462257899, -6.439268938068958 2.774884796001602, -6.577848345501356 2.394141003279688 C-6.716427752933754 2.0133972105577738, -6.823295662002347 1.614560744215134, -6.893654271085454 1.215537243668521 C-6.9640128801685615 0.816513743121908, -6.999999999999999 0.4051790812228472, -7 1.0183126166254463e-14 C-7.000000000000001 -0.40517908122282686, -6.964012880168565 -0.8165137431218878, -6.893654271085459 -1.215537243668501 C-6.823295662002352 -1.6145607442151142, -6.716427752933759 -2.0133972105577542, -6.577848345501363 -2.394141003279669 C-6.439268938068967 -2.7748847960015834, -6.264767367102496 -3.149104622578972, -6.062177826491078 -3.4999999999999876 C-5.859588285879661 -3.8508953774210033, -5.6227551949470715 -4.1891280841669545, -5.362311101832856 -4.499513267805763 C-5.10186700871864 -4.809898451444571, -4.809898451444594 -5.10186700871862, -4.499513267805787 -5.362311101832836 C-4.189128084166979 -5.622755194947053, -3.850895377421028 -5.859588285879643, -3.5000000000000133 -6.062177826491062 C-3.1491046225789985 -6.264767367102482, -2.774884796001611 -6.439268938068954, -2.3941410032796973 -6.577848345501353 C-2.0133972105577835 -6.716427752933752, -1.6145607442151435 -6.823295662002345, -1.2155372436685306 -6.893654271085453 C-0.8165137431219176 -6.9640128801685615, -0.40517908122285695 -6.999999999999999, -1.9937625952807352e-14 -7 C0.4051790812228171 -7.000000000000001, 0.8165137431218781 -6.964012880168565, 1.2155372436684913 -6.89365427108546 C1.6145607442151044 -6.823295662002354, 2.013397210557745 -6.716427752933763, 2.3941410032796595 -6.5778483455013665 C2.774884796001574 -6.43926893806897, 3.149104622578963 -6.2647673671025, 3.499999999999979 -6.062177826491083 C3.8508953774209953 -5.859588285879665, 4.189128084166947 -5.622755194947077, 4.499513267805756 -5.362311101832862 C4.809898451444564 -5.1018670087186475, 5.101867008718613 -4.809898451444602, 5.362311101832829 -4.499513267805796 C5.622755194947046 -4.189128084166989, 5.859588285879637 -3.8508953774210393, 6.062177826491056 -3.500000000000025 C6.2647673671024755 -3.1491046225790105, 6.439268938068949 -2.774884796001623, 6.577848345501348 -2.3941410032797092 C6.716427752933747 -2.0133972105577955, 6.823295662002342 -1.6145607442151562, 6.893654271085451 -1.2155372436685434 C6.96401288016856 -0.8165137431219307, 6.982275711847575 -0.2025895406114567, 7 -3.2800750208310675e-14 C7.017724288152425 0.2025895406113911, 7.017724288152424 -0.2025895406114242, 7 0" stroke="none" stroke-width="0" fill="#ECECFF" style=""></path><path d="M7 0 C7 0.40517908122283747, 6.964012880168563 0.816513743121899, 6.893654271085456 1.2155372436685123 C6.823295662002349 1.6145607442151257, 6.716427752933756 2.013397210557766, 6.5778483455013586 2.394141003279681 C6.439268938068961 2.7748847960015954, 6.26476736710249 3.149104622578984, 6.062177826491071 3.4999999999999996 C5.859588285879653 3.8508953774210153, 5.622755194947063 4.189128084166967, 5.362311101832846 4.499513267805774 C5.10186700871863 4.809898451444582, 4.809898451444583 5.10186700871863, 4.499513267805775 5.362311101832846 C4.189128084166968 5.622755194947063, 3.8508953774210166 5.859588285879652, 3.500000000000001 6.06217782649107 C3.149104622578985 6.264767367102489, 2.7748847960015963 6.439268938068961, 2.3941410032796817 6.5778483455013586 C2.013397210557767 6.716427752933756, 1.6145607442151264 6.823295662002349, 1.2155372436685128 6.893654271085456 C0.8165137431218992 6.964012880168563, 0.4051790812228379 7, 4.286263797015736e-16 7 C-0.405179081222837 7, -0.8165137431218985 6.964012880168563, -1.2155372436685121 6.893654271085456 C-1.6145607442151257 6.823295662002349, -2.0133972105577667 6.716427752933756, -2.394141003279681 6.5778483455013586 C-2.774884796001595 6.439268938068961, -3.149104622578983 6.26476736710249, -3.4999999999999982 6.062177826491071 C-3.8508953774210135 5.859588285879653, -4.189128084166966 5.6227551949470636, -4.499513267805773 5.362311101832848 C-4.809898451444581 5.101867008718632, -5.101867008718628 4.809898451444586, -5.3623111018328435 4.499513267805779 C-5.622755194947059 4.189128084166971, -5.859588285879649 3.8508953774210206, -6.062177826491068 3.5000000000000053 C-6.264767367102486 3.14910462257899, -6.439268938068958 2.774884796001602, -6.577848345501356 2.394141003279688 C-6.716427752933754 2.0133972105577738, -6.823295662002347 1.614560744215134, -6.893654271085454 1.215537243668521 C-6.9640128801685615 0.816513743121908, -6.999999999999999 0.4051790812228472, -7 1.0183126166254463e-14 C-7.000000000000001 -0.40517908122282686, -6.964012880168565 -0.8165137431218878, -6.893654271085459 -1.215537243668501 C-6.823295662002352 -1.6145607442151142, -6.716427752933759 -2.0133972105577542, -6.577848345501363 -2.394141003279669 C-6.439268938068967 -2.7748847960015834, -6.264767367102496 -3.149104622578972, -6.062177826491078 -3.4999999999999876 C-5.859588285879661 -3.8508953774210033, -5.6227551949470715 -4.1891280841669545, -5.362311101832856 -4.499513267805763 C-5.10186700871864 -4.809898451444571, -4.809898451444594 -5.10186700871862, -4.499513267805787 -5.362311101832836 C-4.189128084166979 -5.622755194947053, -3.850895377421028 -5.859588285879643, -3.5000000000000133 -6.062177826491062 C-3.1491046225789985 -6.264767367102482, -2.774884796001611 -6.439268938068954, -2.3941410032796973 -6.577848345501353 C-2.0133972105577835 -6.716427752933752, -1.6145607442151435 -6.823295662002345, -1.2155372436685306 -6.893654271085453 C-0.8165137431219176 -6.9640128801685615, -0.40517908122285695 -6.999999999999999, -1.9937625952807352e-14 -7 C0.4051790812228171 -7.000000000000001, 0.8165137431218781 -6.964012880168565, 1.2155372436684913 -6.89365427108546 C1.6145607442151044 -6.823295662002354, 2.013397210557745 -6.716427752933763, 2.3941410032796595 -6.5778483455013665 C2.774884796001574 -6.43926893806897, 3.149104622578963 -6.2647673671025, 3.499999999999979 -6.062177826491083 C3.8508953774209953 -5.859588285879665, 4.189128084166947 -5.622755194947077, 4.499513267805756 -5.362311101832862 C4.809898451444564 -5.1018670087186475, 5.101867008718613 -4.809898451444602, 5.362311101832829 -4.499513267805796 C5.622755194947046 -4.189128084166989, 5.859588285879637 -3.8508953774210393, 6.062177826491056 -3.500000000000025 C6.2647673671024755 -3.1491046225790105, 6.439268938068949 -2.774884796001623, 6.577848345501348 -2.3941410032797092 C6.716427752933747 -2.0133972105577955, 6.823295662002342 -1.6145607442151562, 6.893654271085451 -1.2155372436685434 C6.96401288016856 -0.8165137431219307, 6.982275711847575 -0.2025895406114567, 7 -3.2800750208310675e-14 C7.017724288152425 0.2025895406113911, 7.017724288152424 -0.2025895406114242, 7 0" stroke="#333333" stroke-width="2" fill="none" stroke-dasharray="0 0" style=""></path><g><path d="M2.5 0 C2.5 0.14470681472244193, 2.487147457203058 0.29161205111496386, 2.46201938253052 0.4341204441673258 C2.436891307857982 0.5766288372196877, 2.3987241974763416 0.7190704323420595, 2.3492315519647713 0.8550503583141718 C2.299738906453201 0.991030284286284, 2.2374169168223177 1.124680222349637, 2.165063509461097 1.2499999999999998 C2.092710102099876 1.3753197776503625, 2.0081268553382365 1.496117172916774, 1.915111107797445 1.6069690242163481 C1.8220953602566536 1.7178208755159223, 1.7178208755159226 1.8220953602566536, 1.6069690242163484 1.915111107797445 C1.4961171729167742 2.0081268553382365, 1.375319777650363 2.0927101020998755, 1.2500000000000002 2.1650635094610964 C1.1246802223496375 2.2374169168223172, 0.9910302842862845 2.2997389064532, 0.8550503583141721 2.349231551964771 C0.7190704323420597 2.3987241974763416, 0.576628837219688 2.436891307857982, 0.43412044416732604 2.46201938253052 C0.291612051114964 2.487147457203058, 0.14470681472244212 2.5, 1.5308084989341916e-16 2.5 C-0.1447068147224418 2.5, -0.2916120511149638 2.487147457203058, -0.43412044416732576 2.46201938253052 C-0.5766288372196877 2.436891307857982, -0.7190704323420595 2.3987241974763416, -0.8550503583141718 2.3492315519647713 C-0.991030284286284 2.299738906453201, -1.124680222349637 2.2374169168223177, -1.2499999999999996 2.165063509461097 C-1.375319777650362 2.092710102099876, -1.4961171729167733 2.008126855338237, -1.6069690242163475 1.9151111077974459 C-1.7178208755159217 1.8220953602566548, -1.822095360256653 1.7178208755159234, -1.9151111077974443 1.6069690242163495 C-2.0081268553382357 1.4961171729167755, -2.0927101020998746 1.3753197776503645, -2.1650635094610955 1.250000000000002 C-2.2374169168223164 1.1246802223496395, -2.2997389064531992 0.9910302842862865, -2.34923155196477 0.8550503583141743 C-2.3987241974763407 0.7190704323420621, -2.436891307857981 0.5766288372196907, -2.4620193825305194 0.434120444167329 C-2.487147457203058 0.29161205111496724, -2.5 0.14470681472244545, -2.5 3.636830773662308e-15 C-2.5 -0.14470681472243818, -2.4871474572030587 -0.2916120511149599, -2.4620193825305208 -0.4341204441673218 C-2.436891307857983 -0.5766288372196837, -2.398724197476343 -0.7190704323420553, -2.3492315519647726 -0.8550503583141675 C-2.2997389064532023 -0.9910302842862798, -2.23741691682232 -1.1246802223496328, -2.165063509461099 -1.2499999999999956 C-2.092710102099878 -1.3753197776503583, -2.00812685533824 -1.4961171729167695, -1.9151111077974488 -1.606969024216344 C-1.8220953602566576 -1.7178208755159183, -1.7178208755159263 -1.82209536025665, -1.6069690242163523 -1.9151111077974416 C-1.4961171729167784 -2.0081268553382334, -1.3753197776503672 -2.0927101020998724, -1.2500000000000047 -2.1650635094610937 C-1.1246802223496422 -2.237416916822315, -0.9910302842862897 -2.299738906453198, -0.8550503583141776 -2.3492315519647686 C-0.7190704323420656 -2.3987241974763394, -0.5766288372196942 -2.4368913078579806, -0.43412044416733236 -2.462019382530519 C-0.29161205111497057 -2.4871474572030574, -0.1447068147224489 -2.4999999999999996, -7.120580697431198e-15 -2.5 C0.14470681472243463 -2.5000000000000004, 0.29161205111495647 -2.487147457203059, 0.4341204441673183 -2.4620193825305217 C0.5766288372196802 -2.436891307857984, 0.7190704323420518 -2.3987241974763442, 0.8550503583141642 -2.349231551964774 C0.9910302842862766 -2.2997389064532037, 1.1246802223496295 -2.2374169168223212, 1.2499999999999925 -2.165063509461101 C1.3753197776503554 -2.0927101020998804, 1.4961171729167668 -2.008126855338242, 1.6069690242163412 -1.915111107797451 C1.7178208755159157 -1.82209536025666, 1.8220953602566472 -1.7178208755159294, 1.915111107797439 -1.6069690242163557 C2.0081268553382308 -1.496117172916782, 2.09271010209987 -1.3753197776503712, 2.1650635094610915 -1.2500000000000089 C2.237416916822313 -1.1246802223496466, 2.299738906453196 -0.9910302842862939, 2.3492315519647673 -0.855050358314182 C2.3987241974763385 -0.71907043234207, 2.4368913078579792 -0.5766288372196986, 2.462019382530518 -0.4341204441673369 C2.487147457203057 -0.29161205111497523, 2.4936698970884197 -0.07235340736123454, 2.5 -1.1714553645825241e-14 C2.5063301029115803 0.07235340736121111, 2.50633010291158 -0.07235340736122292, 2.5 0" stroke="none" stroke-width="0" fill="#9370DB" style=""></path><path d="M2.5 0 C2.5 0.14470681472244193, 2.487147457203058 0.29161205111496386, 2.46201938253052 0.4341204441673258 C2.436891307857982 0.5766288372196877, 2.3987241974763416 0.7190704323420595, 2.3492315519647713 0.8550503583141718 C2.299738906453201 0.991030284286284, 2.2374169168223177 1.124680222349637, 2.165063509461097 1.2499999999999998 C2.092710102099876 1.3753197776503625, 2.0081268553382365 1.496117172916774, 1.915111107797445 1.6069690242163481 C1.8220953602566536 1.7178208755159223, 1.7178208755159226 1.8220953602566536, 1.6069690242163484 1.915111107797445 C1.4961171729167742 2.0081268553382365, 1.375319777650363 2.0927101020998755, 1.2500000000000002 2.1650635094610964 C1.1246802223496375 2.2374169168223172, 0.9910302842862845 2.2997389064532, 0.8550503583141721 2.349231551964771 C0.7190704323420597 2.3987241974763416, 0.576628837219688 2.436891307857982, 0.43412044416732604 2.46201938253052 C0.291612051114964 2.487147457203058, 0.14470681472244212 2.5, 1.5308084989341916e-16 2.5 C-0.1447068147224418 2.5, -0.2916120511149638 2.487147457203058, -0.43412044416732576 2.46201938253052 C-0.5766288372196877 2.436891307857982, -0.7190704323420595 2.3987241974763416, -0.8550503583141718 2.3492315519647713 C-0.991030284286284 2.299738906453201, -1.124680222349637 2.2374169168223177, -1.2499999999999996 2.165063509461097 C-1.375319777650362 2.092710102099876, -1.4961171729167733 2.008126855338237, -1.6069690242163475 1.9151111077974459 C-1.7178208755159217 1.8220953602566548, -1.822095360256653 1.7178208755159234, -1.9151111077974443 1.6069690242163495 C-2.0081268553382357 1.4961171729167755, -2.0927101020998746 1.3753197776503645, -2.1650635094610955 1.250000000000002 C-2.2374169168223164 1.1246802223496395, -2.2997389064531992 0.9910302842862865, -2.34923155196477 0.8550503583141743 C-2.3987241974763407 0.7190704323420621, -2.436891307857981 0.5766288372196907, -2.4620193825305194 0.434120444167329 C-2.487147457203058 0.29161205111496724, -2.5 0.14470681472244545, -2.5 3.636830773662308e-15 C-2.5 -0.14470681472243818, -2.4871474572030587 -0.2916120511149599, -2.4620193825305208 -0.4341204441673218 C-2.436891307857983 -0.5766288372196837, -2.398724197476343 -0.7190704323420553, -2.3492315519647726 -0.8550503583141675 C-2.2997389064532023 -0.9910302842862798, -2.23741691682232 -1.1246802223496328, -2.165063509461099 -1.2499999999999956 C-2.092710102099878 -1.3753197776503583, -2.00812685533824 -1.4961171729167695, -1.9151111077974488 -1.606969024216344 C-1.8220953602566576 -1.7178208755159183, -1.7178208755159263 -1.82209536025665, -1.6069690242163523 -1.9151111077974416 C-1.4961171729167784 -2.0081268553382334, -1.3753197776503672 -2.0927101020998724, -1.2500000000000047 -2.1650635094610937 C-1.1246802223496422 -2.237416916822315, -0.9910302842862897 -2.299738906453198, -0.8550503583141776 -2.3492315519647686 C-0.7190704323420656 -2.3987241974763394, -0.5766288372196942 -2.4368913078579806, -0.43412044416733236 -2.462019382530519 C-0.29161205111497057 -2.4871474572030574, -0.1447068147224489 -2.4999999999999996, -7.120580697431198e-15 -2.5 C0.14470681472243463 -2.5000000000000004, 0.29161205111495647 -2.487147457203059, 0.4341204441673183 -2.4620193825305217 C0.5766288372196802 -2.436891307857984, 0.7190704323420518 -2.3987241974763442, 0.8550503583141642 -2.349231551964774 C0.9910302842862766 -2.2997389064532037, 1.1246802223496295 -2.2374169168223212, 1.2499999999999925 -2.165063509461101 C1.3753197776503554 -2.0927101020998804, 1.4961171729167668 -2.008126855338242, 1.6069690242163412 -1.915111107797451 C1.7178208755159157 -1.82209536025666, 1.8220953602566472 -1.7178208755159294, 1.915111107797439 -1.6069690242163557 C2.0081268553382308 -1.496117172916782, 2.09271010209987 -1.3753197776503712, 2.1650635094610915 -1.2500000000000089 C2.237416916822313 -1.1246802223496466, 2.299738906453196 -0.9910302842862939, 2.3492315519647673 -0.855050358314182 C2.3987241974763385 -0.71907043234207, 2.4368913078579792 -0.5766288372196986, 2.462019382530518 -0.4341204441673369 C2.487147457203057 -0.29161205111497523, 2.4936698970884197 -0.07235340736123454, 2.5 -1.1714553645825241e-14 C2.5063301029115803 0.07235340736121111, 2.50633010291158 -0.07235340736122292, 2.5 0" stroke="#9370DB" stroke-width="2" fill="none" stroke-dasharray="0 0" style=""></path></g></g></g><g class="node statediagram-note" id="g8d10d3b5-d831-4473-931d-9b2bea4b4bb0-light-state-Main----note-6" data-look="classic" transform="translate(593.7421875, 85.0999984741211)"><g class="basic label-container outer-path"><path d="M-102.1015625 -42.099998474121094 L102.1015625 -42.099998474121094 L102.1015625 42.099998474121094 L-102.1015625 42.099998474121094" stroke="none" stroke-width="0" fill="#fff5ad" style=""></path><path d="M-102.1015625 -42.099998474121094 C-57.86335597953963 -42.099998474121094, -13.625149459079253 -42.099998474121094, 102.1015625 -42.099998474121094 M-102.1015625 -42.099998474121094 C-50.72527501067225 -42.099998474121094, 0.6510124786555025 -42.099998474121094, 102.1015625 -42.099998474121094 M102.1015625 -42.099998474121094 C102.1015625 -16.751663784672616, 102.1015625 8.596670904775863, 102.1015625 42.099998474121094 M102.1015625 -42.099998474121094 C102.1015625 -8.84737495066907, 102.1015625 24.405248572782952, 102.1015625 42.099998474121094 M102.1015625 42.099998474121094 C58.853746646941666 42.099998474121094, 15.605930793883331 42.099998474121094, -102.1015625 42.099998474121094 M102.1015625 42.099998474121094 C49.183856541540486 42.099998474121094, -3.7338494169190284 42.099998474121094, -102.1015625 42.099998474121094 M-102.1015625 42.099998474121094 C-102.1015625 17.841465651807795, -102.1015625 -6.417067170505504, -102.1015625 -42.099998474121094 M-102.1015625 42.099998474121094 C-102.1015625 21.681104216104874, -102.1015625 1.262209958088654, -102.1015625 -42.099998474121094" stroke="#aaaa33" stroke-width="1.3" fill="none" stroke-dasharray="0 0" style=""></path></g><g class="label noteLabel" style="" transform="translate(-87.1015625, -28.099998474121094)"><rect></rect><g><rect class="background" style="stroke: none"></rect><text y="-10.1" style=""><tspan class="text-outer-tspan row" x="0" y="-0.1em" dy="1.1em"><tspan font-style="normal" class="text-inner-tspan" font-weight="normal">Source</tspan><tspan font-style="normal" class="text-inner-tspan" font-weight="normal"> of</tspan><tspan font-style="normal" class="text-inner-tspan" font-weight="normal"> truth.</tspan></tspan><tspan class="text-outer-tspan row" x="0" y="1em" dy="1.1em"><tspan font-style="normal" class="text-inner-tspan" font-weight="normal">Updated</tspan><tspan font-style="normal" class="text-inner-tspan" font-weight="normal"> by</tspan><tspan font-style="normal" class="text-inner-tspan" font-weight="normal"> main</tspan><tspan font-style="normal" class="text-inner-tspan" font-weight="normal"> thread</tspan></tspan><tspan class="text-outer-tspan row" x="0" y="2.1em" dy="1.1em"><tspan font-style="normal" class="text-inner-tspan" font-weight="normal">via</tspan><tspan font-style="normal" class="text-inner-tspan" font-weight="normal"> Commit.</tspan></tspan></text></g></g></g><g class="node statediagram-note" id="g8d10d3b5-d831-4473-931d-9b2bea4b4bb0-light-state-Pending----note-7" data-look="classic" transform="translate(1046.046875, 182.1999969482422)"><g class="basic label-container outer-path"><path d="M-97.5 -42.099998474121094 L97.5 -42.099998474121094 L97.5 42.099998474121094 L-97.5 42.099998474121094" stroke="none" stroke-width="0" fill="#fff5ad" style=""></path><path d="M-97.5 -42.099998474121094 C-49.46992080227989 -42.099998474121094, -1.4398416045597742 -42.099998474121094, 97.5 -42.099998474121094 M-97.5 -42.099998474121094 C-47.566878185143025 -42.099998474121094, 2.3662436297139493 -42.099998474121094, 97.5 -42.099998474121094 M97.5 -42.099998474121094 C97.5 -12.344933617871582, 97.5 17.41013123837793, 97.5 42.099998474121094 M97.5 -42.099998474121094 C97.5 -18.92067052038424, 97.5 4.258657433352617, 97.5 42.099998474121094 M97.5 42.099998474121094 C25.736203679988435 42.099998474121094, -46.02759264002313 42.099998474121094, -97.5 42.099998474121094 M97.5 42.099998474121094 C53.56005193335955 42.099998474121094, 9.620103866719106 42.099998474121094, -97.5 42.099998474121094 M-97.5 42.099998474121094 C-97.5 21.413647179050876, -97.5 0.7272958839806591, -97.5 -42.099998474121094 M-97.5 42.099998474121094 C-97.5 19.72060803108304, -97.5 -2.6587824119550163, -97.5 -42.099998474121094" stroke="#aaaa33" stroke-width="1.3" fill="none" stroke-dasharray="0 0" style=""></path></g><g class="label noteLabel" style="" transform="translate(-82.5, -28.099998474121094)"><rect></rect><g><rect class="background" style="stroke: none"></rect><text y="-10.1" style=""><tspan class="text-outer-tspan row" x="0" y="-0.1em" dy="1.1em"><tspan font-style="normal" class="text-inner-tspan" font-weight="normal">Staging</tspan><tspan font-style="normal" class="text-inner-tspan" font-weight="normal"> area</tspan><tspan font-style="normal" class="text-inner-tspan" font-weight="normal"> while</tspan></tspan><tspan class="text-outer-tspan row" x="0" y="1em" dy="1.1em"><tspan font-style="normal" class="text-inner-tspan" font-weight="normal">raster</tspan><tspan font-style="normal" class="text-inner-tspan" font-weight="normal"> work</tspan><tspan font-style="normal" class="text-inner-tspan" font-weight="normal"> is</tspan><tspan font-style="normal" class="text-inner-tspan" font-weight="normal"> in</tspan><tspan font-style="normal" class="text-inner-tspan" font-weight="normal"> flight.</tspan></tspan><tspan class="text-outer-tspan row" x="0" y="2.1em" dy="1.1em"><tspan font-style="normal" class="text-inner-tspan" font-weight="normal">Not</tspan><tspan font-style="normal" class="text-inner-tspan" font-weight="normal"> drawable</tspan><tspan font-style="normal" class="text-inner-tspan" font-weight="normal"> yet.</tspan></tspan></text></g></g></g><g class="node statediagram-note" id="g8d10d3b5-d831-4473-931d-9b2bea4b4bb0-light-state-Active----note-8" data-look="classic" transform="translate(1546.828125, 398.3999938964844)"><g class="basic label-container outer-path"><path d="M-101.921875 -42.099998474121094 L101.921875 -42.099998474121094 L101.921875 42.099998474121094 L-101.921875 42.099998474121094" stroke="none" stroke-width="0" fill="#fff5ad" style=""></path><path d="M-101.921875 -42.099998474121094 C-21.86587994994558 -42.099998474121094, 58.19011510010884 -42.099998474121094, 101.921875 -42.099998474121094 M-101.921875 -42.099998474121094 C-55.27641310353502 -42.099998474121094, -8.63095120707004 -42.099998474121094, 101.921875 -42.099998474121094 M101.921875 -42.099998474121094 C101.921875 -10.49111008052731, 101.921875 21.117778313066474, 101.921875 42.099998474121094 M101.921875 -42.099998474121094 C101.921875 -9.621625817288347, 101.921875 22.8567468395444, 101.921875 42.099998474121094 M101.921875 42.099998474121094 C39.87062572417352 42.099998474121094, -22.180623551652957 42.099998474121094, -101.921875 42.099998474121094 M101.921875 42.099998474121094 C27.41764906480138 42.099998474121094, -47.08657687039724 42.099998474121094, -101.921875 42.099998474121094 M-101.921875 42.099998474121094 C-101.921875 11.038977971510583, -101.921875 -20.022042531099927, -101.921875 -42.099998474121094 M-101.921875 42.099998474121094 C-101.921875 12.890527624719663, -101.921875 -16.318943224681767, -101.921875 -42.099998474121094" stroke="#aaaa33" stroke-width="1.3" fill="none" stroke-dasharray="0 0" style=""></path></g><g class="label noteLabel" style="" transform="translate(-86.921875, -28.099998474121094)"><rect></rect><g><rect class="background" style="stroke: none"></rect><text y="-10.1" style=""><tspan class="text-outer-tspan row" x="0" y="-0.1em" dy="1.1em"><tspan font-style="normal" class="text-inner-tspan" font-weight="normal">Drawable.</tspan><tspan font-style="normal" class="text-inner-tspan" font-weight="normal"> Survives</tspan><tspan font-style="normal" class="text-inner-tspan" font-weight="normal"> until</tspan></tspan><tspan class="text-outer-tspan row" x="0" y="1em" dy="1.1em"><tspan font-style="normal" class="text-inner-tspan" font-weight="normal">the</tspan><tspan font-style="normal" class="text-inner-tspan" font-weight="normal"> next</tspan><tspan font-style="normal" class="text-inner-tspan" font-weight="normal"> pending</tspan><tspan font-style="normal" class="text-inner-tspan" font-weight="normal"> tree</tspan></tspan><tspan class="text-outer-tspan row" x="0" y="2.1em" dy="1.1em"><tspan font-style="normal" class="text-inner-tspan" font-weight="normal">activates.</tspan></tspan></text></g></g></g><g class="label edgeLabel" id="Pending---Pending---1" transform="translate(1046.046875, 366.8999938964844)"><rect width="0.1" height="0.1"></rect><g class="label" style="" transform="translate(0, 0)"><rect></rect><g><rect class="background" style="stroke: none"></rect><text y="-10.1" style=""><tspan class="text-outer-tspan row" x="0" y="-0.1em" dy="1.1em"></tspan></text></g></g></g><g class="label edgeLabel" id="Pending---Pending---2" transform="translate(1546.828125, 526.9999923706055)"><rect width="0.1" height="0.1"></rect><g class="label" style="" transform="translate(0, 0)"><rect></rect><g><rect class="background" style="stroke: none"></rect><text y="-10.1" style=""><tspan class="text-outer-tspan row" x="0" y="-0.1em" dy="1.1em"></tspan></text></g></g></g><g class="label edgeLabel" id="Active---Active---1" transform="translate(1546.828125, 613.8499923720956)"><rect width="0.1" height="0.1"></rect><g class="label" style="" transform="translate(0, 0)"><rect></rect><g><rect class="background" style="stroke: none"></rect><text y="-10.1" style=""><tspan class="text-outer-tspan row" x="0" y="-0.1em" dy="1.1em"></tspan></text></g></g></g><g class="label edgeLabel" id="Active---Active---2" transform="translate(1856.878125000745, 633.9999919906259)"><rect width="0.1" height="0.1"></rect><g class="label" style="" transform="translate(0, 0)"><rect></rect><g><rect class="background" style="stroke: none"></rect><text y="-10.1" style=""><tspan class="text-outer-tspan row" x="0" y="-0.1em" dy="1.1em"></tspan></text></g></g></g></g></g></g><defs><filter id="g8d10d3b5-d831-4473-931d-9b2bea4b4bb0-light-drop-shadow" height="130%" width="130%"><feDropShadow dx="4" dy="4" stdDeviation="0" flood-opacity="0.06" flood-color="#000000"></feDropShadow></filter></defs><defs><filter id="g8d10d3b5-d831-4473-931d-9b2bea4b4bb0-light-drop-shadow-small" height="150%" width="150%"><feDropShadow dx="2" dy="2" stdDeviation="0" flood-opacity="0.06" flood-color="#000000"></feDropShadow></filter></defs></svg>