<svg id="g54dfdb82-771c-48e7-8186-fa5b30331289-light" width="100%" xmlns="http://www.w3.org/2000/svg" xmlns:xlink="http://www.w3.org/1999/xlink" class="flowchart" style="max-width: 1523.8515625px;" viewBox="0 0 1523.8515625 1500.4156494140625" role="graphics-document document" aria-roledescription="flowchart-v2"><style>#g54dfdb82-771c-48e7-8186-fa5b30331289-light{font-family:"trebuchet ms",verdana,arial,sans-serif;font-size:16px;fill:#333;}@keyframes edge-animation-frame{from{stroke-dashoffset:0;}}@keyframes dash{to{stroke-dashoffset:0;}}#g54dfdb82-771c-48e7-8186-fa5b30331289-light .edge-animation-slow{stroke-dasharray:9,5!important;stroke-dashoffset:900;animation:dash 50s linear infinite;stroke-linecap:round;}#g54dfdb82-771c-48e7-8186-fa5b30331289-light .edge-animation-fast{stroke-dasharray:9,5!important;stroke-dashoffset:900;animation:dash 20s linear infinite;stroke-linecap:round;}#g54dfdb82-771c-48e7-8186-fa5b30331289-light .error-icon{fill:#552222;}#g54dfdb82-771c-48e7-8186-fa5b30331289-light .error-text{fill:#552222;stroke:#552222;}#g54dfdb82-771c-48e7-8186-fa5b30331289-light .edge-thickness-normal{stroke-width:1px;}#g54dfdb82-771c-48e7-8186-fa5b30331289-light .edge-thickness-thick{stroke-width:3.5px;}#g54dfdb82-771c-48e7-8186-fa5b30331289-light .edge-pattern-solid{stroke-dasharray:0;}#g54dfdb82-771c-48e7-8186-fa5b30331289-light .edge-thickness-invisible{stroke-width:0;fill:none;}#g54dfdb82-771c-48e7-8186-fa5b30331289-light .edge-pattern-dashed{stroke-dasharray:3;}#g54dfdb82-771c-48e7-8186-fa5b30331289-light .edge-pattern-dotted{stroke-dasharray:2;}#g54dfdb82-771c-48e7-8186-fa5b30331289-light .marker{fill:#333333;stroke:#333333;}#g54dfdb82-771c-48e7-8186-fa5b30331289-light .marker.cross{stroke:#333333;}#g54dfdb82-771c-48e7-8186-fa5b30331289-light svg{font-family:"trebuchet ms",verdana,arial,sans-serif;font-size:16px;}#g54dfdb82-771c-48e7-8186-fa5b30331289-light p{margin:0;}#g54dfdb82-771c-48e7-8186-fa5b30331289-light .label{font-family:"trebuchet ms",verdana,arial,sans-serif;color:#333;}#g54dfdb82-771c-48e7-8186-fa5b30331289-light .cluster-label text{fill:#333;}#g54dfdb82-771c-48e7-8186-fa5b30331289-light .cluster-label span{color:#333;}#g54dfdb82-771c-48e7-8186-fa5b30331289-light .cluster-label span p{background-color:transparent;}#g54dfdb82-771c-48e7-8186-fa5b30331289-light .label text,#g54dfdb82-771c-48e7-8186-fa5b30331289-light span{fill:#333;color:#333;}#g54dfdb82-771c-48e7-8186-fa5b30331289-light .node rect,#g54dfdb82-771c-48e7-8186-fa5b30331289-light .node circle,#g54dfdb82-771c-48e7-8186-fa5b30331289-light .node ellipse,#g54dfdb82-771c-48e7-8186-fa5b30331289-light .node polygon,#g54dfdb82-771c-48e7-8186-fa5b30331289-light .node path{fill:#ECECFF;stroke:#9370DB;stroke-width:1px;}#g54dfdb82-771c-48e7-8186-fa5b30331289-light .rough-node .label text,#g54dfdb82-771c-48e7-8186-fa5b30331289-light .node .label text,#g54dfdb82-771c-48e7-8186-fa5b30331289-light .image-shape .label,#g54dfdb82-771c-48e7-8186-fa5b30331289-light .icon-shape .label{text-anchor:middle;}#g54dfdb82-771c-48e7-8186-fa5b30331289-light .node .katex path{fill:#000;stroke:#000;stroke-width:1px;}#g54dfdb82-771c-48e7-8186-fa5b30331289-light .rough-node .label,#g54dfdb82-771c-48e7-8186-fa5b30331289-light .node .label,#g54dfdb82-771c-48e7-8186-fa5b30331289-light .image-shape .label,#g54dfdb82-771c-48e7-8186-fa5b30331289-light .icon-shape .label{text-align:center;}#g54dfdb82-771c-48e7-8186-fa5b30331289-light .node.clickable{cursor:pointer;}#g54dfdb82-771c-48e7-8186-fa5b30331289-light .root .anchor path{fill:#333333!important;stroke-width:0;stroke:#333333;}#g54dfdb82-771c-48e7-8186-fa5b30331289-light .arrowheadPath{fill:#333333;}#g54dfdb82-771c-48e7-8186-fa5b30331289-light .edgePath .path{stroke:#333333;stroke-width:1px;}#g54dfdb82-771c-48e7-8186-fa5b30331289-light .flowchart-link{stroke:#333333;fill:none;}#g54dfdb82-771c-48e7-8186-fa5b30331289-light .edgeLabel{background-color:rgba(232,232,232, 0.8);text-align:center;}#g54dfdb82-771c-48e7-8186-fa5b30331289-light .edgeLabel p{background-color:rgba(232,232,232, 0.8);}#g54dfdb82-771c-48e7-8186-fa5b30331289-light .edgeLabel rect{opacity:0.5;background-color:rgba(232,232,232, 0.8);fill:rgba(232,232,232, 0.8);}#g54dfdb82-771c-48e7-8186-fa5b30331289-light .labelBkg{background-color:rgba(232, 232, 232, 0.5);}#g54dfdb82-771c-48e7-8186-fa5b30331289-light .cluster rect{fill:#ffffde;stroke:#aaaa33;stroke-width:1px;}#g54dfdb82-771c-48e7-8186-fa5b30331289-light .cluster text{fill:#333;}#g54dfdb82-771c-48e7-8186-fa5b30331289-light .cluster span{color:#333;}#g54dfdb82-771c-48e7-8186-fa5b30331289-light div.mermaidTooltip{position:absolute;text-align:center;max-width:200px;padding:2px;font-family:"trebuchet ms",verdana,arial,sans-serif;font-size:12px;background:hsl(80, 100%, 96.2745098039%);border:1px solid #aaaa33;border-radius:2px;pointer-events:none;z-index:100;}#g54dfdb82-771c-48e7-8186-fa5b30331289-light .flowchartTitleText{text-anchor:middle;font-size:18px;fill:#333;}#g54dfdb82-771c-48e7-8186-fa5b30331289-light rect.text{fill:none;stroke-width:0;}#g54dfdb82-771c-48e7-8186-fa5b30331289-light .icon-shape,#g54dfdb82-771c-48e7-8186-fa5b30331289-light .image-shape{background-color:rgba(232,232,232, 0.8);text-align:center;}#g54dfdb82-771c-48e7-8186-fa5b30331289-light .icon-shape p,#g54dfdb82-771c-48e7-8186-fa5b30331289-light .image-shape p{background-color:rgba(232,232,232, 0.8);padding:2px;}#g54dfdb82-771c-48e7-8186-fa5b30331289-light .icon-shape .label rect,#g54dfdb82-771c-48e7-8186-fa5b30331289-light .image-shape .label rect{opacity:0.5;background-color:rgba(232,232,232, 0.8);fill:rgba(232,232,232, 0.8);}#g54dfdb82-771c-48e7-8186-fa5b30331289-light .label-icon{display:inline-block;height:1em;overflow:visible;vertical-align:-0.125em;}#g54dfdb82-771c-48e7-8186-fa5b30331289-light .node .label-icon path{fill:currentColor;stroke:revert;stroke-width:revert;}#g54dfdb82-771c-48e7-8186-fa5b30331289-light .node .neo-node{stroke:#9370DB;}#g54dfdb82-771c-48e7-8186-fa5b30331289-light [data-look="neo"].node rect,#g54dfdb82-771c-48e7-8186-fa5b30331289-light [data-look="neo"].cluster rect,#g54dfdb82-771c-48e7-8186-fa5b30331289-light [data-look="neo"].node polygon{stroke:#9370DB;filter:drop-shadow(1px 2px 2px rgba(185, 185, 185, 1));}#g54dfdb82-771c-48e7-8186-fa5b30331289-light [data-look="neo"].node path{stroke:#9370DB;stroke-width:1px;}#g54dfdb82-771c-48e7-8186-fa5b30331289-light [data-look="neo"].node .outer-path{filter:drop-shadow(1px 2px 2px rgba(185, 185, 185, 1));}#g54dfdb82-771c-48e7-8186-fa5b30331289-light [data-look="neo"].node .neo-line path{stroke:#9370DB;filter:none;}#g54dfdb82-771c-48e7-8186-fa5b30331289-light [data-look="neo"].node circle{stroke:#9370DB;filter:drop-shadow(1px 2px 2px rgba(185, 185, 185, 1));}#g54dfdb82-771c-48e7-8186-fa5b30331289-light [data-look="neo"].node circle .state-start{fill:#000000;}#g54dfdb82-771c-48e7-8186-fa5b30331289-light [data-look="neo"].icon-shape .icon{fill:#9370DB;filter:drop-shadow(1px 2px 2px rgba(185, 185, 185, 1));}#g54dfdb82-771c-48e7-8186-fa5b30331289-light [data-look="neo"].icon-shape .icon-neo path{stroke:#9370DB;filter:drop-shadow(1px 2px 2px rgba(185, 185, 185, 1));}#g54dfdb82-771c-48e7-8186-fa5b30331289-light :root{--mermaid-font-family:"trebuchet ms",verdana,arial,sans-serif;}</style><g><marker id="g54dfdb82-771c-48e7-8186-fa5b30331289-light_flowchart-v2-pointEnd" class="marker flowchart-v2" viewBox="0 0 10 10" refX="5" refY="5" markerUnits="userSpaceOnUse" markerWidth="8" markerHeight="8" orient="auto"><path d="M 0 0 L 10 5 L 0 10 z" class="arrowMarkerPath" style="stroke-width: 1; stroke-dasharray: 1, 0;"></path></marker><marker id="g54dfdb82-771c-48e7-8186-fa5b30331289-light_flowchart-v2-pointStart" class="marker flowchart-v2" viewBox="0 0 10 10" refX="4.5" refY="5" markerUnits="userSpaceOnUse" markerWidth="8" markerHeight="8" orient="auto"><path d="M 0 5 L 10 10 L 10 0 z" class="arrowMarkerPath" style="stroke-width: 1; stroke-dasharray: 1, 0;"></path></marker><marker id="g54dfdb82-771c-48e7-8186-fa5b30331289-light_flowchart-v2-pointEnd-margin" class="marker flowchart-v2" viewBox="0 0 11.5 14" refX="11.5" refY="7" markerUnits="userSpaceOnUse" markerWidth="10.5" markerHeight="14" orient="auto"><path d="M 0 0 L 11.5 7 L 0 14 z" class="arrowMarkerPath" style="stroke-width: 0; stroke-dasharray: 1, 0;"></path></marker><marker id="g54dfdb82-771c-48e7-8186-fa5b30331289-light_flowchart-v2-pointStart-margin" class="marker flowchart-v2" viewBox="0 0 11.5 14" refX="1" refY="7" markerUnits="userSpaceOnUse" markerWidth="11.5" markerHeight="14" orient="auto"><polygon points="0,7 11.5,14 11.5,0" class="arrowMarkerPath" style="stroke-width: 0; stroke-dasharray: 1, 0;"></polygon></marker><marker id="g54dfdb82-771c-48e7-8186-fa5b30331289-light_flowchart-v2-circleEnd" class="marker flowchart-v2" viewBox="0 0 10 10" refX="11" refY="5" markerUnits="userSpaceOnUse" markerWidth="11" markerHeight="11" orient="auto"><circle cx="5" cy="5" r="5" class="arrowMarkerPath" style="stroke-width: 1; stroke-dasharray: 1, 0;"></circle></marker><marker id="g54dfdb82-771c-48e7-8186-fa5b30331289-light_flowchart-v2-circleStart" class="marker flowchart-v2" viewBox="0 0 10 10" refX="-1" refY="5" markerUnits="userSpaceOnUse" markerWidth="11" markerHeight="11" orient="auto"><circle cx="5" cy="5" r="5" class="arrowMarkerPath" style="stroke-width: 1; stroke-dasharray: 1, 0;"></circle></marker><marker id="g54dfdb82-771c-48e7-8186-fa5b30331289-light_flowchart-v2-circleEnd-margin" class="marker flowchart-v2" viewBox="0 0 10 10" refY="5" refX="12.25" markerUnits="userSpaceOnUse" markerWidth="14" markerHeight="14" orient="auto"><circle cx="5" cy="5" r="5" class="arrowMarkerPath" style="stroke-width: 0; stroke-dasharray: 1, 0;"></circle></marker><marker id="g54dfdb82-771c-48e7-8186-fa5b30331289-light_flowchart-v2-circleStart-margin" class="marker flowchart-v2" viewBox="0 0 10 10" refX="-2" refY="5" markerUnits="userSpaceOnUse" markerWidth="14" markerHeight="14" orient="auto"><circle cx="5" cy="5" r="5" class="arrowMarkerPath" style="stroke-width: 0; stroke-dasharray: 1, 0;"></circle></marker><marker id="g54dfdb82-771c-48e7-8186-fa5b30331289-light_flowchart-v2-crossEnd" class="marker cross flowchart-v2" viewBox="0 0 11 11" refX="12" refY="5.2" markerUnits="userSpaceOnUse" markerWidth="11" markerHeight="11" orient="auto"><path d="M 1,1 l 9,9 M 10,1 l -9,9" class="arrowMarkerPath" style="stroke-width: 2; stroke-dasharray: 1, 0;"></path></marker><marker id="g54dfdb82-771c-48e7-8186-fa5b30331289-light_flowchart-v2-crossStart" class="marker cross flowchart-v2" viewBox="0 0 11 11" refX="-1" refY="5.2" markerUnits="userSpaceOnUse" markerWidth="11" markerHeight="11" orient="auto"><path d="M 1,1 l 9,9 M 10,1 l -9,9" class="arrowMarkerPath" style="stroke-width: 2; stroke-dasharray: 1, 0;"></path></marker><marker id="g54dfdb82-771c-48e7-8186-fa5b30331289-light_flowchart-v2-crossEnd-margin" class="marker cross flowchart-v2" viewBox="0 0 15 15" refX="17.7" refY="7.5" markerUnits="userSpaceOnUse" markerWidth="12" markerHeight="12" orient="auto"><path d="M 1,1 L 14,14 M 1,14 L 14,1" class="arrowMarkerPath" style="stroke-width: 2.5;"></path></marker><marker id="g54dfdb82-771c-48e7-8186-fa5b30331289-light_flowchart-v2-crossStart-margin" class="marker cross flowchart-v2" viewBox="0 0 15 15" refX="-3.5" refY="7.5" markerUnits="userSpaceOnUse" markerWidth="12" markerHeight="12" orient="auto"><path d="M 1,1 L 14,14 M 1,14 L 14,1" class="arrowMarkerPath" style="stroke-width: 2.5; stroke-dasharray: 1, 0;"></path></marker><g class="root"><g class="clusters"></g><g class="edgePaths"><path d="M533.293,42.5L533.21,46.583C533.126,50.667,532.96,58.833,532.876,66.417C532.793,74,532.793,81,532.793,84.5L532.793,88" id="g54dfdb82-771c-48e7-8186-fa5b30331289-light-L_Start_Q1_0" class="edge-thickness-normal edge-pattern-solid edge-thickness-normal edge-pattern-solid flowchart-link" style=";" data-edge="true" data-et="edge" data-id="L_Start_Q1_0" data-points="W3sieCI6NTMzLjI5Mjk2ODc1LCJ5Ijo0Mi41fSx7IngiOjUzMi43OTI5Njg3NSwieSI6Njd9LHsieCI6NTMyLjc5Mjk2ODc1LCJ5Ijo5MS45OTk5OTk5OTk5OTk5OX1d" data-look="classic" marker-end="url(#g54dfdb82-771c-48e7-8186-fa5b30331289-light_flowchart-v2-pointEnd)"></path><path d="M486.048,261.042L475.441,274.916C464.835,288.791,443.623,316.539,433.016,345.191C422.41,373.844,422.41,403.4,422.41,418.178L422.41,432.956" id="g54dfdb82-771c-48e7-8186-fa5b30331289-light-L_Q1_Single_0" class="edge-thickness-normal edge-pattern-solid edge-thickness-normal edge-pattern-solid flowchart-link" style=";" data-edge="true" data-et="edge" data-id="L_Q1_Single_0" data-points="W3sieCI6NDg2LjA0NzYzMzcyNTc5NDA3LCJ5IjoyNjEuMDQyMTcxMDc5MzA5N30seyJ4Ijo0MjIuNDEwMTU2MjUsInkiOjM0NC4yODc1MDYxMDM1MTU2fSx7IngiOjQyMi40MTAxNTYyNSwieSI6NDM2Ljk1NjI1Njg2NjQ1NTF9XQ==" data-look="classic" marker-end="url(#g54dfdb82-771c-48e7-8186-fa5b30331289-light_flowchart-v2-pointEnd)"></path><path d="M579.538,261.042L590.145,274.916C600.751,288.791,621.963,316.539,632.57,335.83C643.176,355.121,643.176,365.954,643.176,371.371L643.176,376.788" id="g54dfdb82-771c-48e7-8186-fa5b30331289-light-L_Q1_Q2_0" class="edge-thickness-normal edge-pattern-solid edge-thickness-normal edge-pattern-solid flowchart-link" style=";" data-edge="true" data-et="edge" data-id="L_Q1_Q2_0" data-points="W3sieCI6NTc5LjUzODMwMzc3NDIwNiwieSI6MjYxLjA0MjE3MTA3OTMwOTY0fSx7IngiOjY0My4xNzU3ODEyNSwieSI6MzQ0LjI4NzUwNjEwMzUxNTZ9LHsieCI6NjQzLjE3NTc4MTI1LCJ5IjozODAuNzg3NTA2MTAzNTE1Nn1d" data-look="classic" marker-end="url(#g54dfdb82-771c-48e7-8186-fa5b30331289-light_flowchart-v2-pointEnd)"></path><path d="M576.389,492.938L525.699,510.152C475.01,527.367,373.632,561.796,322.943,584.587C272.254,607.379,272.254,618.532,272.254,624.109L272.254,629.686" id="g54dfdb82-771c-48e7-8186-fa5b30331289-light-L_Q2_Q5_0" class="edge-thickness-normal edge-pattern-solid edge-thickness-normal edge-pattern-solid flowchart-link" style=";" data-edge="true" data-et="edge" data-id="L_Q2_Q5_0" data-points="W3sieCI6NTc2LjM4ODYxNTU1NTUyNSwieSI6NDkyLjkzNzg0MDQwOTA0MDYzfSx7IngiOjI3Mi4yNTM5MDYyNSwieSI6NTk2LjIyNTAwNjEwMzUxNTZ9LHsieCI6MjcyLjI1MzkwNjI1LCJ5Ijo2MzMuNjg1OTQzNjAzNTE1N31d" data-look="classic" marker-end="url(#g54dfdb82-771c-48e7-8186-fa5b30331289-light_flowchart-v2-pointEnd)"></path><path d="M220.758,783.837L205.28,798.663C189.802,813.489,158.846,843.141,143.369,874.07C127.891,904.999,127.891,937.205,127.891,953.308L127.891,969.411" id="g54dfdb82-771c-48e7-8186-fa5b30331289-light-L_Q5_HLL_0" class="edge-thickness-normal edge-pattern-solid edge-thickness-normal edge-pattern-solid flowchart-link" style=";" data-edge="true" data-et="edge" data-id="L_Q5_HLL_0" data-points="W3sieCI6MjIwLjc1Nzk4MTEwNzk5NTY4LCJ5Ijo3ODMuODM2ODk5NTY1MDI2OX0seyJ4IjoxMjcuODkwNjI1LCJ5Ijo4NzIuNzkzNzYyMjA3MDMxMn0seyJ4IjoxMjcuODkwNjI1LCJ5Ijo5NzMuNDEwOTQ5NzA3MDMxMn1d" data-look="classic" marker-end="url(#g54dfdb82-771c-48e7-8186-fa5b30331289-light_flowchart-v2-pointEnd)"></path><path d="M323.75,783.837L339.228,798.663C354.706,813.489,385.661,843.141,401.139,874.07C416.617,904.999,416.617,937.205,416.617,953.308L416.617,969.411" id="g54dfdb82-771c-48e7-8186-fa5b30331289-light-L_Q5_CMS_0" class="edge-thickness-normal edge-pattern-solid edge-thickness-normal edge-pattern-solid flowchart-link" style=";" data-edge="true" data-et="edge" data-id="L_Q5_CMS_0" data-points="W3sieCI6MzIzLjc0OTgzMTM5MjAwNDM1LCJ5Ijo3ODMuODM2ODk5NTY1MDI2OX0seyJ4Ijo0MTYuNjE3MTg3NSwieSI6ODcyLjc5Mzc2MjIwNzAzMTJ9LHsieCI6NDE2LjYxNzE4NzUsInkiOjk3My40MTA5NDk3MDcwMzEyfV0=" data-look="classic" marker-end="url(#g54dfdb82-771c-48e7-8186-fa5b30331289-light_flowchart-v2-pointEnd)"></path><path d="M703.878,499.023L738.062,515.224C772.246,531.424,840.615,563.824,874.8,585.441C908.984,607.058,908.984,617.892,908.984,623.308L908.984,628.725" id="g54dfdb82-771c-48e7-8186-fa5b30331289-light-L_Q2_Q3_0" class="edge-thickness-normal edge-pattern-solid edge-thickness-normal edge-pattern-solid flowchart-link" style=";" data-edge="true" data-et="edge" data-id="L_Q2_Q3_0" data-points="W3sieCI6NzAzLjg3NzUxMTQ1ODM4NTIsInkiOjQ5OS4wMjMyNzU4OTUxMzA0fSx7IngiOjkwOC45ODQzNzUsInkiOjU5Ni4yMjUwMDYxMDM1MTU2fSx7IngiOjkwOC45ODQzNzUwMDAwMDAxLCJ5Ijo2MzIuNzI1MDA2MTAzNTE1NX1d" data-look="classic" marker-end="url(#g54dfdb82-771c-48e7-8186-fa5b30331289-light_flowchart-v2-pointEnd)"></path><path d="M843.499,770.808L812.833,787.806C782.168,804.803,720.838,838.799,690.173,863.64C659.508,888.481,659.508,904.169,659.508,912.013L659.508,919.856" id="g54dfdb82-771c-48e7-8186-fa5b30331289-light-L_Q3_Q3a_0" class="edge-thickness-normal edge-pattern-solid edge-thickness-normal edge-pattern-solid flowchart-link" style=";" data-edge="true" data-et="edge" data-id="L_Q3_Q3a_0" data-points="W3sieCI6ODQzLjQ5ODYyMzA5MjA4MjksInkiOjc3MC44MDgwMTAyOTkxMTQxfSx7IngiOjY1OS41MDc4MTI1LCJ5Ijo4NzIuNzkzNzYyMjA3MDMxMn0seyJ4Ijo2NTkuNTA3ODEyNSwieSI6OTIzLjg1NjI2MjIwNzAzMTJ9XQ==" data-look="classic" marker-end="url(#g54dfdb82-771c-48e7-8186-fa5b30331289-light_flowchart-v2-pointEnd)"></path><path d="M620.987,1033.445L604.802,1048.376C588.616,1063.306,556.246,1093.167,540.06,1122.605C523.875,1152.043,523.875,1181.057,523.875,1195.565L523.875,1210.072" id="g54dfdb82-771c-48e7-8186-fa5b30331289-light-L_Q3a_HashShard_0" class="edge-thickness-normal edge-pattern-solid edge-thickness-normal edge-pattern-solid flowchart-link" style=";" data-edge="true" data-et="edge" data-id="L_Q3a_HashShard_0" data-points="W3sieCI6NjIwLjk4NzIxNTk3MjkyOTcsInkiOjEwMzMuNDQ1MDQwNjc5OTYwOH0seyJ4Ijo1MjMuODc1LCJ5IjoxMTIzLjAyODEzNzIwNzAzMTJ9LHsieCI6NTIzLjg3NSwieSI6MTIxNC4wNzE4ODc5Njk5NzA3fV0=" data-look="classic" marker-end="url(#g54dfdb82-771c-48e7-8186-fa5b30331289-light_flowchart-v2-pointEnd)"></path><path d="M698.028,1033.445L714.214,1048.376C730.399,1063.306,762.77,1093.167,778.955,1122.605C795.141,1152.043,795.141,1181.057,795.141,1195.565L795.141,1210.072" id="g54dfdb82-771c-48e7-8186-fa5b30331289-light-L_Q3a_SyncShard_0" class="edge-thickness-normal edge-pattern-solid edge-thickness-normal edge-pattern-solid flowchart-link" style=";" data-edge="true" data-et="edge" data-id="L_Q3a_SyncShard_0" data-points="W3sieCI6Njk4LjAyODQwOTAyNzA3MDMsInkiOjEwMzMuNDQ1MDQwNjc5OTYwOH0seyJ4Ijo3OTUuMTQwNjI1LCJ5IjoxMTIzLjAyODEzNzIwNzAzMTJ9LHsieCI6Nzk1LjE0MDYyNSwieSI6MTIxNC4wNzE4ODc5Njk5NzA3fV0=" data-look="classic" marker-end="url(#g54dfdb82-771c-48e7-8186-fa5b30331289-light_flowchart-v2-pointEnd)"></path><path d="M975.81,769.468L1008.728,786.689C1041.647,803.91,1107.483,838.352,1140.402,860.99C1173.32,883.627,1173.32,894.46,1173.32,899.877L1173.32,905.294" id="g54dfdb82-771c-48e7-8186-fa5b30331289-light-L_Q3_Q4_0" class="edge-thickness-normal edge-pattern-solid edge-thickness-normal edge-pattern-solid flowchart-link" style=";" data-edge="true" data-et="edge" data-id="L_Q3_Q4_0" data-points="W3sieCI6OTc1LjgwOTc4ODMxMzUxOTMsInkiOjc2OS40NjgzNDg4OTM1MTE4fSx7IngiOjExNzMuMzIwMzEyNSwieSI6ODcyLjc5Mzc2MjIwNzAzMTJ9LHsieCI6MTE3My4zMjAzMTI1LCJ5Ijo5MDkuMjkzNzYyMjA3MDMxMn1d" data-look="classic" marker-end="url(#g54dfdb82-771c-48e7-8186-fa5b30331289-light_flowchart-v2-pointEnd)"></path><path d="M1129.794,1043.002L1116.92,1056.34C1104.045,1069.678,1078.296,1096.353,1065.421,1124.198C1052.547,1152.043,1052.547,1181.057,1052.547,1195.565L1052.547,1210.072" id="g54dfdb82-771c-48e7-8186-fa5b30331289-light-L_Q4_SyncShardEv_0" class="edge-thickness-normal edge-pattern-solid edge-thickness-normal edge-pattern-solid flowchart-link" style=";" data-edge="true" data-et="edge" data-id="L_Q4_SyncShardEv_0" data-points="W3sieCI6MTEyOS43OTQ0NDY2NTYzNjcyLCJ5IjoxMDQzLjAwMjI3MTM2MzM5ODR9LHsieCI6MTA1Mi41NDY4NzUsInkiOjExMjMuMDI4MTM3MjA3MDMxMn0seyJ4IjoxMDUyLjU0Njg3NSwieSI6MTIxNC4wNzE4ODc5Njk5NzA3fV0=" data-look="classic" marker-end="url(#g54dfdb82-771c-48e7-8186-fa5b30331289-light_flowchart-v2-pointEnd)"></path><path d="M1216.846,1043.002L1229.721,1056.34C1242.595,1069.678,1268.345,1096.353,1281.219,1115.107C1294.094,1133.861,1294.094,1144.695,1294.094,1150.111L1294.094,1155.528" id="g54dfdb82-771c-48e7-8186-fa5b30331289-light-L_Q4_Q4a_0" class="edge-thickness-normal edge-pattern-solid edge-thickness-normal edge-pattern-solid flowchart-link" style=";" data-edge="true" data-et="edge" data-id="L_Q4_Q4a_0" data-points="W3sieCI6MTIxNi44NDYxNzgzNDM2MzI4LCJ5IjoxMDQzLjAwMjI3MTM2MzM5ODR9LHsieCI6MTI5NC4wOTM3NSwieSI6MTEyMy4wMjgxMzcyMDcwMzEyfSx7IngiOjEyOTQuMDkzNzUsInkiOjExNTkuNTI4MTM3MjA3MDMxMn1d" data-look="classic" marker-end="url(#g54dfdb82-771c-48e7-8186-fa5b30331289-light_flowchart-v2-pointEnd)"></path><path d="M1249.689,1290.811L1235.905,1304.295C1222.121,1317.779,1194.553,1344.747,1180.768,1365.115C1166.984,1385.482,1166.984,1399.249,1166.984,1406.132L1166.984,1413.016" id="g54dfdb82-771c-48e7-8186-fa5b30331289-light-L_Q4a_AsyncRollup_0" class="edge-thickness-normal edge-pattern-solid edge-thickness-normal edge-pattern-solid flowchart-link" style=";" data-edge="true" data-et="edge" data-id="L_Q4a_AsyncRollup_0" data-points="W3sieCI6MTI0OS42ODg3OTcxNDc4MjgyLCJ5IjoxMjkwLjgxMDY4NDM1NDg1OTR9LHsieCI6MTE2Ni45ODQzNzUsInkiOjEzNzEuNzE1NjM3MjA3MDMxMn0seyJ4IjoxMTY2Ljk4NDM3NSwieSI6MTQxNy4wMTU2MzY0NDQwOTE4fV0=" data-look="classic" marker-end="url(#g54dfdb82-771c-48e7-8186-fa5b30331289-light_flowchart-v2-pointEnd)"></path><path d="M1338.499,1290.811L1352.283,1304.295C1366.067,1317.779,1393.635,1344.747,1407.419,1363.648C1421.203,1382.549,1421.203,1393.382,1421.203,1398.799L1421.203,1404.216" id="g54dfdb82-771c-48e7-8186-fa5b30331289-light-L_Q4a_Hybrid_0" class="edge-thickness-normal edge-pattern-solid edge-thickness-normal edge-pattern-solid flowchart-link" style=";" data-edge="true" data-et="edge" data-id="L_Q4a_Hybrid_0" data-points="W3sieCI6MTMzOC40OTg3MDI4NTIxNzE4LCJ5IjoxMjkwLjgxMDY4NDM1NDg1OTR9LHsieCI6MTQyMS4yMDMxMjUsInkiOjEzNzEuNzE1NjM3MjA3MDMxMn0seyJ4IjoxNDIxLjIwMzEyNSwieSI6MTQwOC4yMTU2MzcyMDcwMzEyfV0=" data-look="classic" marker-end="url(#g54dfdb82-771c-48e7-8186-fa5b30331289-light_flowchart-v2-pointEnd)"></path></g><g class="edgeLabels"><g class="edgeLabel"><g class="label" data-id="L_Start_Q1_0" transform="translate(0, 0)"><text y="-10.1" text-anchor="middle"><tspan class="text-outer-tspan row" x="0" y="-0.1em" dy="1.1em" text-anchor="middle"></tspan></text></g></g><g><rect class="background" style="stroke: none"></rect></g><g class="edgeLabel" transform="translate(422.41015625, 344.2875061035156)"><g class="label" data-id="L_Q1_Single_0" transform="translate(0, -10.5)"><g><rect class="background" style="" x="-61.8671875" y="-1" width="123.734375" height="23"></rect><text y="-10.1" text-anchor="middle" style=""><tspan class="text-outer-tspan row" x="0" y="-0.1em" dy="1.1em" text-anchor="middle"><tspan font-style="normal" class="text-inner-tspan" font-weight="normal">&lt;</tspan><tspan font-style="normal" class="text-inner-tspan" font-weight="normal"> per-key</tspan><tspan font-style="normal" class="text-inner-tspan" font-weight="normal"> ceiling</tspan></tspan></text></g></g></g><g class="edgeLabel" transform="translate(643.17578125, 344.2875061035156)"><g class="label" data-id="L_Q1_Q2_0" transform="translate(0, -10.5)"><g><rect class="background" style="" x="-49.28125" y="-1" width="98.5625" height="23"></rect><text y="-10.1" text-anchor="middle" style=""><tspan class="text-outer-tspan row" x="0" y="-0.1em" dy="1.1em" text-anchor="middle"><tspan font-style="normal" class="text-inner-tspan" font-weight="normal">above</tspan><tspan font-style="normal" class="text-inner-tspan" font-weight="normal"> ceiling</tspan></tspan></text></g></g></g><g class="edgeLabel" transform="translate(272.25390625, 596.2250061035156)"><g class="label" data-id="L_Q2_Q5_0" transform="translate(0, -10.5)"><g><rect class="background" style="" x="-11.3984375" y="-1" width="22.796875" height="23"></rect><text y="-10.1" text-anchor="middle" style=""><tspan class="text-outer-tspan row" x="0" y="-0.1em" dy="1.1em" text-anchor="middle"><tspan font-style="normal" class="text-inner-tspan" font-weight="normal">No</tspan></tspan></text></g></g></g><g class="edgeLabel" transform="translate(127.890625, 872.7937622070312)"><g class="label" data-id="L_Q5_HLL_0" transform="translate(0, -10.5)"><g><rect class="background" style="" x="-29.3828125" y="-1" width="58.765625" height="23"></rect><text y="-10.1" text-anchor="middle" style=""><tspan class="text-outer-tspan row" x="0" y="-0.1em" dy="1.1em" text-anchor="middle"><tspan font-style="normal" class="text-inner-tspan" font-weight="normal">Distinct</tspan></tspan></text></g></g></g><g class="edgeLabel" transform="translate(416.6171875, 872.7937622070312)"><g class="label" data-id="L_Q5_CMS_0" transform="translate(0, -10.5)"><g><rect class="background" style="" x="-39.140625" y="-1" width="78.28125" height="23"></rect><text y="-10.1" text-anchor="middle" style=""><tspan class="text-outer-tspan row" x="0" y="-0.1em" dy="1.1em" text-anchor="middle"><tspan font-style="normal" class="text-inner-tspan" font-weight="normal">Frequency</tspan></tspan></text></g></g></g><g class="edgeLabel" transform="translate(908.984375, 596.2250061035156)"><g class="label" data-id="L_Q2_Q3_0" transform="translate(0, -10.5)"><g><rect class="background" style="" x="-13.328125" y="-1" width="26.65625" height="23"></rect><text y="-10.1" text-anchor="middle" style=""><tspan class="text-outer-tspan row" x="0" y="-0.1em" dy="1.1em" text-anchor="middle"><tspan font-style="normal" class="text-inner-tspan" font-weight="normal">Yes</tspan></tspan></text></g></g></g><g class="edgeLabel" transform="translate(659.5078125, 872.7937622070312)"><g class="label" data-id="L_Q3_Q3a_0" transform="translate(0, -10.5)"><g><rect class="background" style="" x="-24.8125" y="-1" width="49.625" height="23"></rect><text y="-10.1" text-anchor="middle" style=""><tspan class="text-outer-tspan row" x="0" y="-0.1em" dy="1.1em" text-anchor="middle"><tspan font-style="normal" class="text-inner-tspan" font-weight="normal">Strong</tspan></tspan></text></g></g></g><g class="edgeLabel" transform="translate(523.875, 1123.0281372070312)"><g class="label" data-id="L_Q3a_HashShard_0" transform="translate(0, -10.5)"><g><rect class="background" style="" x="-73.2421875" y="-1" width="146.484375" height="23"></rect><text y="-10.1" text-anchor="middle" style=""><tspan class="text-outer-tspan row" x="0" y="-0.1em" dy="1.1em" text-anchor="middle"><tspan font-style="normal" class="text-inner-tspan" font-weight="normal">Per-client</tspan><tspan font-style="normal" class="text-inner-tspan" font-weight="normal"> /</tspan><tspan font-style="normal" class="text-inner-tspan" font-weight="normal"> per-key</tspan></tspan></text></g></g></g><g class="edgeLabel" transform="translate(795.140625, 1123.0281372070312)"><g class="label" data-id="L_Q3a_SyncShard_0" transform="translate(0, -10.5)"><g><rect class="background" style="" x="-62.9609375" y="-1" width="125.921875" height="23"></rect><text y="-10.1" text-anchor="middle" style=""><tspan class="text-outer-tspan row" x="0" y="-0.1em" dy="1.1em" text-anchor="middle"><tspan font-style="normal" class="text-inner-tspan" font-weight="normal">Global</tspan><tspan font-style="normal" class="text-inner-tspan" font-weight="normal"> aggregate</tspan></tspan></text></g></g></g><g class="edgeLabel" transform="translate(1173.3203125, 872.7937622070312)"><g class="label" data-id="L_Q3_Q4_0" transform="translate(0, -10.5)"><g><rect class="background" style="" x="-33.046875" y="-1" width="66.09375" height="23"></rect><text y="-10.1" text-anchor="middle" style=""><tspan class="text-outer-tspan row" x="0" y="-0.1em" dy="1.1em" text-anchor="middle"><tspan font-style="normal" class="text-inner-tspan" font-weight="normal">Eventual</tspan></tspan></text></g></g></g><g class="edgeLabel" transform="translate(1052.546875, 1123.0281372070312)"><g class="label" data-id="L_Q4_SyncShardEv_0" transform="translate(0, -10.5)"><g><rect class="background" style="" x="-60.2890625" y="-1" width="120.578125" height="23"></rect><text y="-10.1" text-anchor="middle" style=""><tspan class="text-outer-tspan row" x="0" y="-0.1em" dy="1.1em" text-anchor="middle"><tspan font-style="normal" class="text-inner-tspan" font-weight="normal">O(N)</tspan><tspan font-style="normal" class="text-inner-tspan" font-weight="normal"> acceptable</tspan></tspan></text></g></g></g><g class="edgeLabel" transform="translate(1294.09375, 1123.0281372070312)"><g class="label" data-id="L_Q4_Q4a_0" transform="translate(0, -10.5)"><g><rect class="background" style="" x="-38.1640625" y="-1" width="76.328125" height="23"></rect><text y="-10.1" text-anchor="middle" style=""><tspan class="text-outer-tspan row" x="0" y="-0.1em" dy="1.1em" text-anchor="middle"><tspan font-style="normal" class="text-inner-tspan" font-weight="normal">Need</tspan><tspan font-style="normal" class="text-inner-tspan" font-weight="normal"> O(1)</tspan></tspan></text></g></g></g><g class="edgeLabel" transform="translate(1166.984375, 1371.7156372070312)"><g class="label" data-id="L_Q4a_AsyncRollup_0" transform="translate(0, -10.5)"><g><rect class="background" style="" x="-42.9375" y="-1" width="85.875" height="23"></rect><text y="-10.1" text-anchor="middle" style=""><tspan class="text-outer-tspan row" x="0" y="-0.1em" dy="1.1em" text-anchor="middle"><tspan font-style="normal" class="text-inner-tspan" font-weight="normal">Seconds</tspan><tspan font-style="normal" class="text-inner-tspan" font-weight="normal"> OK</tspan></tspan></text></g></g></g><g class="edgeLabel" transform="translate(1421.203125, 1371.7156372070312)"><g class="label" data-id="L_Q4a_Hybrid_0" transform="translate(0, -10.5)"><g><rect class="background" style="" x="-55.1484375" y="-1" width="110.296875" height="23"></rect><text y="-10.1" text-anchor="middle" style=""><tspan class="text-outer-tspan row" x="0" y="-0.1em" dy="1.1em" text-anchor="middle"><tspan font-style="normal" class="text-inner-tspan" font-weight="normal">Near-real-time</tspan></tspan></text></g></g></g></g><g class="nodes"><g class="node default" id="g54dfdb82-771c-48e7-8186-fa5b30331289-light-flowchart-Start-0" data-look="classic" transform="translate(532.79296875, 25)"><g class="basic label-container outer-path"><path d="M-40.2265625 -17 C-9.190797897917147 -17, 21.844966704165707 -17, 40.2265625 -17 C40.2265625 -17, 40.2265625 -17, 40.2265625 -17 C40.60550118651882 -16.98784817388275, 40.984439873037644 -16.9756963477655, 41.31575623967212 -16.965071676755716 C41.66692423260658 -16.93119492281863, 42.018092225541054 -16.897318168881547, 42.4004742486366 -16.860430234995185 C42.75928396187332 -16.802420663169958, 43.11809367511005 -16.744411091344727, 43.476259187923326 -16.686505668848113 C43.79120554668106 -16.61462121767872, 44.10615190543881 -16.542736766509325, 44.53869042646162 -16.4440126716635 C44.939743285522695 -16.32498228826359, 45.34079614458377 -16.205951904863678, 45.58340220640155 -16.133947699181366 C45.96209615331651 -15.99458482610819, 46.34079010023147 -15.855221953035013, 46.60610158294936 -15.757584874882369 C46.990608718235386 -15.587374972090158, 47.375115853521415 -15.417165069297946, 47.60258606499849 -15.316470754341125 C47.938125440206086 -15.141420077218548, 48.27366481541369 -14.966369400095973, 48.56876088406694 -14.812417970097622 C48.78187594393271 -14.683226368403886, 48.994991003798475 -14.554034766710151, 49.500655820579325 -14.247497783161291 C49.84650453731061 -14.006248689919197, 50.19235325404189 -13.764999596677104, 50.394441518350675 -13.624031571755262 C50.692823987495125 -13.38607949290354, 50.99120645663957 -13.14812741405182, 51.2464452202324 -12.944581292275288 C51.51585140315823 -12.699913725039046, 51.78525758608405 -12.455246157802806, 52.05316586025927 -12.21193895166137 C52.235815696842174 -12.02333799955905, 52.418465533425085 -11.83473704745673, 52.81128845028036 -11.42911513444239 C53.02891277582585 -11.173481218481728, 53.24653710137135 -10.917847302521068, 53.51769770195651 -10.59932663159847 C53.687701405518645 -10.371537156481208, 53.85770510908079 -10.143747681363946, 54.16949082814825 -9.725983222076888 C54.336302127838316 -9.469716270647073, 54.503113427528376 -9.213449319217258, 54.76398947109088 -8.812673661278927 C54.8727673466353 -8.619527528295496, 54.98154522217972 -8.426381395312063, 55.298750708341004 -7.863150934094199 C55.44086841463188 -7.56804047614941, 55.582986120922754 -7.27293001820462, 55.77157709126881 -6.881316833080699 C55.866778846698594 -6.646166656568415, 55.96198060212837 -6.411016480056132, 56.180525674845924 -5.871205925162238 C56.29812561856309 -5.517013631692631, 56.41572556228026 -5.162821338223023, 56.523916001623235 -4.836968972727556 C56.61382738285304 -4.494097908259175, 56.70373876408285 -4.151226843790795, 56.800337007091 -3.7828558772573464 C56.87620330492255 -3.3932984722400596, 56.9520696027541 -3.003741067222773, 57.00865281804565 -2.713198215567453 C57.0450160733744 -2.431171987974613, 57.08137932870315 -2.1491457603817734, 57.148007420136366 -1.632391440430593 C57.17426857656692 -1.223352731400896, 57.20052973299747 -0.8143140223711993, 57.2178281754117 -0.5448768187181379 C57.2178281754117 -0.2911482658857116, 57.2178281754117 -0.037419713053285286, 57.2178281754117 0.5448768187181336 C57.20176262413207 0.7951107477777895, 57.185697072852456 1.0453446768374453, 57.148007420136366 1.6323914404305815 C57.10917619270799 1.9335587722718732, 57.070344965279624 2.234726104113165, 57.008652818045654 2.7131982155674415 C56.94171349483631 3.0569174926164697, 56.87477417162696 3.400636769665498, 56.800337007091 3.782855877257343 C56.69511436231082 4.184115425586906, 56.589891717530634 4.58537497391647, 56.523916001623235 4.836968972727545 C56.399916023655905 5.2104371496516695, 56.27591604568857 5.583905326575794, 56.180525674845924 5.871205925162227 C56.025734115344214 6.253544069822665, 55.870942555842504 6.635882214483104, 55.77157709126881 6.881316833080694 C55.5959954441369 7.245915880195508, 55.420413797005004 7.610514927310321, 55.298750708341004 7.863150934094196 C55.09012532247647 8.233586432307783, 54.88149993661193 8.60402193052137, 54.76398947109089 8.812673661278923 C54.569885294029994 9.110869801514088, 54.375781116969094 9.409065941749251, 54.169490828148255 9.725983222076879 C54.02844603045733 9.914970401537307, 53.88740123276641 10.103957580997735, 53.51769770195651 10.599326631598467 C53.36091193919044 10.783496109906126, 53.20412617642437 10.967665588213785, 52.81128845028037 11.42911513444238 C52.6381465432416 11.607898368674848, 52.46500463620283 11.786681602907313, 52.05316586025927 12.211938951661365 C51.76612270186759 12.472623953366899, 51.47907954347591 12.733308955072433, 51.24644522023242 12.944581292275275 C51.007988905583396 13.134743857618838, 50.769532590934375 13.324906422962401, 50.394441518350675 13.62403157175526 C50.09562543409232 13.832472736594086, 49.79680934983397 14.04091390143291, 49.50065582057934 14.247497783161286 C49.268324593895755 14.388338338106713, 49.03599336721217 14.52917889305214, 48.56876088406695 14.81241797009762 C48.27353212347841 14.966438625393613, 47.97830336288987 15.120459280689607, 47.60258606499849 15.316470754341124 C47.31989145593912 15.441611271934077, 47.03719684687975 15.566751789527032, 46.606101582949364 15.757584874882367 C46.29017957596694 15.873847093802919, 45.97425756898452 15.990109312723469, 45.58340220640156 16.133947699181363 C45.16564057768127 16.257937157710007, 44.747878948960995 16.38192661623865, 44.53869042646164 16.444012671663497 C44.29310304777641 16.500066388240985, 44.04751566909118 16.55612010481847, 43.47625918792333 16.68650566884811 C43.187522711194404 16.733186343220822, 42.89878623446547 16.77986701759354, 42.40047424863661 16.86043023499518 C42.098342842127025 16.88957648841498, 41.79621143561744 16.918722741834785, 41.31575623967212 16.965071676755716 C40.8903503079124 16.978713616984837, 40.46494437615267 16.99235555721396, 40.2265625 17 C40.2265625 17, 40.2265625 17, 40.2265625 17 C19.813857100174292 17, -0.5988482996514151 17, -40.2265625 17 C-40.59835404042713 16.988077368946833, -40.970145580854265 16.97615473789367, -41.31575623967211 16.965071676755716 C-41.676881576572214 16.930234349821724, -42.038006913472316 16.89539702288773, -42.400474248636606 16.86043023499518 C-42.79896244375042 16.796005753931286, -43.19745063886423 16.73158127286739, -43.476259187923326 16.68650566884811 C-43.86351519676459 16.598117011911718, -44.25077120560585 16.509728354975326, -44.53869042646162 16.4440126716635 C-44.75170763307975 16.380790282889375, -44.964724839697865 16.317567894115253, -45.583402206401544 16.13394769918137 C-45.828411926689014 16.043781857270552, -46.07342164697649 15.953616015359735, -46.606101582949364 15.757584874882369 C-46.89480234323325 15.629785612308467, -47.18350310351713 15.501986349734565, -47.60258606499848 15.316470754341127 C-47.980453290088995 15.119337665046917, -48.35832051517951 14.922204575752705, -48.56876088406693 14.812417970097624 C-48.86916174285281 14.630313204150228, -49.16956260163869 14.448208438202835, -49.50065582057932 14.247497783161299 C-49.798612866404795 14.039655846346072, -50.09656991223028 13.831813909530846, -50.39444151835067 13.624031571755264 C-50.58309336633026 13.473586743228054, -50.771745214309846 13.323141914700845, -51.2464452202324 12.94458129227529 C-51.51989735226699 12.696239301108418, -51.79334948430157 12.447897309941547, -52.05316586025926 12.211938951661377 C-52.25822223564324 12.00020140863591, -52.46327861102721 11.788463865610442, -52.811288450280365 11.429115134442386 C-52.96925903563896 11.24355389609923, -53.12722962099756 11.057992657756074, -53.51769770195651 10.599326631598473 C-53.669738354890875 10.395606007854848, -53.82177900782524 10.191885384111224, -54.16949082814825 9.72598322207689 C-54.3748444539367 9.410504907696243, -54.580198079725164 9.095026593315595, -54.76398947109088 8.812673661278936 C-54.89181550077398 8.585705601787517, -55.01964153045707 8.358737542296097, -55.298750708341004 7.863150934094201 C-55.42534540247384 7.600274343034838, -55.55194009660667 7.337397751975475, -55.77157709126881 6.881316833080701 C-55.86190272791464 6.658210764238119, -55.95222836456047 6.4351046953955375, -56.180525674845924 5.87120592516224 C-56.26956934874905 5.6030205665488015, -56.35861302265218 5.334835207935363, -56.523916001623235 4.8369689727275516 C-56.600683581682745 4.544220918680982, -56.677451161742255 4.251472864634412, -56.800337007091 3.782855877257349 C-56.86642709507842 3.443497243586971, -56.93251718306585 3.104138609916592, -57.00865281804565 2.713198215567455 C-57.049837752408465 2.3937759975346173, -57.09102268677128 2.07435377950178, -57.148007420136366 1.6323914404306026 C-57.1624960084937 1.4067199817871336, -57.176984596851035 1.1810485231436645, -57.2178281754117 0.54487681871814 C-57.2178281754117 0.2613500668469036, -57.2178281754117 -0.022176685024332787, -57.2178281754117 -0.5448768187181317 C-57.20032317011626 -0.8175314059804757, -57.18281816482082 -1.09018599324282, -57.148007420136366 -1.6323914404305793 C-57.11207902182133 -1.9110450028972763, -57.076150623506294 -2.1896985653639733, -57.008652818045654 -2.713198215567447 C-56.94280832278689 -3.0512957824821925, -56.87696382752813 -3.389393349396938, -56.800337007091 -3.782855877257341 C-56.71470410495791 -4.109411246625366, -56.629071202824825 -4.435966615993391, -56.523916001623235 -4.836968972727544 C-56.39284894568052 -5.231722062527564, -56.261781889737804 -5.6264751523275836, -56.18052567484593 -5.871205925162218 C-56.072147066925496 -6.138903182083532, -55.96376845900506 -6.406600439004846, -55.77157709126881 -6.881316833080692 C-55.59528910110935 -7.247382616605548, -55.41900111094989 -7.6134484001304035, -55.298750708341004 -7.863150934094194 C-55.14788382453429 -8.131030363221576, -54.99701694072757 -8.39890979234896, -54.76398947109088 -8.812673661278929 C-54.58176810905317 -9.092614606655864, -54.399546747015464 -9.3725555520328, -54.16949082814825 -9.725983222076884 C-53.99030404840379 -9.966077182682998, -53.81111726865934 -10.20617114328911, -53.51769770195651 -10.599326631598467 C-53.242272932577336 -10.92285623782459, -52.96684816319817 -11.246385844050714, -52.81128845028037 -11.42911513444238 C-52.580340740243805 -11.66758760621476, -52.34939303020723 -11.90606007798714, -52.05316586025928 -12.21193895166136 C-51.88894879960427 -12.361076541202904, -51.724731738949274 -12.510214130744448, -51.24644522023242 -12.944581292275274 C-51.05669389276892 -13.095902926432524, -50.86694256530542 -13.247224560589775, -50.394441518350675 -13.624031571755259 C-50.10413667879651 -13.82653566073429, -49.81383183924233 -14.029039749713322, -49.50065582057934 -14.247497783161284 C-49.20920518836689 -14.424176869162501, -48.917754556154435 -14.60085595516372, -48.56876088406695 -14.812417970097618 C-48.32941488928728 -14.937284622265743, -48.09006889450762 -15.06215127443387, -47.60258606499849 -15.316470754341124 C-47.35378282852353 -15.42660856664281, -47.10497959204856 -15.536746378944496, -46.60610158294937 -15.757584874882365 C-46.362682917449604 -15.847165193923757, -46.119264251949836 -15.936745512965151, -45.583402206401566 -16.133947699181363 C-45.29749623920112 -16.21880308949541, -45.01159027200067 -16.303658479809457, -44.53869042646164 -16.444012671663494 C-44.26480625057909 -16.50652494754741, -43.99092207469655 -16.569037223431327, -43.47625918792333 -16.68650566884811 C-43.101498292111316 -16.747094104168845, -42.72673739629929 -16.80768253948958, -42.40047424863661 -16.86043023499518 C-42.03018988945868 -16.89615112179298, -41.659905530280746 -16.93187200859078, -41.31575623967212 -16.965071676755716 C-40.93319843170162 -16.97733956105373, -40.55064062373113 -16.989607445351744, -40.22656250000001 -17 C-40.22656250000001 -17, -40.2265625 -17, -40.2265625 -17" stroke="none" stroke-width="0" fill="#ECECFF" style=""></path><path d="M-40.2265625 -17 C-21.127555503219625 -17, -2.0285485064392503 -17, 40.2265625 -17 M-40.2265625 -17 C-19.44495404487564 -17, 1.3366544102487197 -17, 40.2265625 -17 M40.2265625 -17 C40.2265625 -17, 40.2265625 -17, 40.2265625 -17 M40.2265625 -17 C40.2265625 -17, 40.2265625 -17, 40.2265625 -17 M40.2265625 -17 C40.55564762030214 -16.98944688071724, 40.88473274060428 -16.978893761434477, 41.31575623967212 -16.965071676755716 M40.2265625 -17 C40.564854488072015 -16.98915163438794, 40.90314647614403 -16.97830326877588, 41.31575623967212 -16.965071676755716 M41.31575623967212 -16.965071676755716 C41.693309379007935 -16.928649579478073, 42.07086251834376 -16.892227482200433, 42.4004742486366 -16.860430234995185 M41.31575623967212 -16.965071676755716 C41.63838521653563 -16.933948047375807, 41.96101419339915 -16.902824417995898, 42.4004742486366 -16.860430234995185 M42.4004742486366 -16.860430234995185 C42.82062715858854 -16.792503170848637, 43.24078006854049 -16.724576106702084, 43.476259187923326 -16.686505668848113 M42.4004742486366 -16.860430234995185 C42.70566237717877 -16.81108978514177, 43.01085050572093 -16.76174933528836, 43.476259187923326 -16.686505668848113 M43.476259187923326 -16.686505668848113 C43.73640778922766 -16.627128448228675, 43.99655639053199 -16.567751227609232, 44.53869042646162 -16.4440126716635 M43.476259187923326 -16.686505668848113 C43.75422058909759 -16.623062792897745, 44.032181990271866 -16.559619916947373, 44.53869042646162 -16.4440126716635 M44.53869042646162 -16.4440126716635 C44.89344297284517 -16.338723978030977, 45.248195519228716 -16.233435284398457, 45.58340220640155 -16.133947699181366 M44.53869042646162 -16.4440126716635 C44.82922551042304 -16.357783383793524, 45.11976059438447 -16.271554095923552, 45.58340220640155 -16.133947699181366 M45.58340220640155 -16.133947699181366 C45.93184382884404 -16.005717961163484, 46.28028545128652 -15.8774882231456, 46.60610158294936 -15.757584874882369 M45.58340220640155 -16.133947699181366 C45.81660829410655 -16.048125703172484, 46.049814381811544 -15.962303707163603, 46.60610158294936 -15.757584874882369 M46.60610158294936 -15.757584874882369 C46.837651387966574 -15.65508464488217, 47.06920119298379 -15.55258441488197, 47.60258606499849 -15.316470754341125 M46.60610158294936 -15.757584874882369 C46.96337411059319 -15.599430925007425, 47.32064663823703 -15.441276975132482, 47.60258606499849 -15.316470754341125 M47.60258606499849 -15.316470754341125 C47.86502342669702 -15.179557350842154, 48.12746078839555 -15.042643947343182, 48.56876088406694 -14.812417970097622 M47.60258606499849 -15.316470754341125 C47.909219614767096 -15.156500227835007, 48.215853164535694 -14.99652970132889, 48.56876088406694 -14.812417970097622 M48.56876088406694 -14.812417970097622 C48.85972450601897 -14.636034112578264, 49.150688127970994 -14.459650255058905, 49.500655820579325 -14.247497783161291 M48.56876088406694 -14.812417970097622 C48.78316927677933 -14.682442342431793, 48.99757766949173 -14.552466714765965, 49.500655820579325 -14.247497783161291 M49.500655820579325 -14.247497783161291 C49.679757909381074 -14.122563919217654, 49.85885999818283 -13.997630055274017, 50.394441518350675 -13.624031571755262 M49.500655820579325 -14.247497783161291 C49.800074218177166 -14.038636470610566, 50.099492615775006 -13.829775158059842, 50.394441518350675 -13.624031571755262 M50.394441518350675 -13.624031571755262 C50.613531473427415 -13.449313162810123, 50.832621428504154 -13.274594753864982, 51.2464452202324 -12.944581292275288 M50.394441518350675 -13.624031571755262 C50.58769714474729 -13.469915352452166, 50.780952771143895 -13.31579913314907, 51.2464452202324 -12.944581292275288 M51.2464452202324 -12.944581292275288 C51.44519088469305 -12.764085738334252, 51.64393654915369 -12.583590184393216, 52.05316586025927 -12.21193895166137 M51.2464452202324 -12.944581292275288 C51.4133018264623 -12.793046537281167, 51.58015843269221 -12.641511782287049, 52.05316586025927 -12.21193895166137 M52.05316586025927 -12.21193895166137 C52.20535562674541 -12.05479052275223, 52.35754539323154 -11.897642093843091, 52.81128845028036 -11.42911513444239 M52.05316586025927 -12.21193895166137 C52.298891267364205 -11.958207294394407, 52.54461667446914 -11.704475637127445, 52.81128845028036 -11.42911513444239 M52.81128845028036 -11.42911513444239 C53.009696688455556 -11.196053528133229, 53.208104926630746 -10.96299192182407, 53.51769770195651 -10.59932663159847 M52.81128845028036 -11.42911513444239 C53.082617139070386 -11.110397017549863, 53.353945827860414 -10.791678900657336, 53.51769770195651 -10.59932663159847 M53.51769770195651 -10.59932663159847 C53.73891051241287 -10.30292161848856, 53.96012332286924 -10.006516605378648, 54.16949082814825 -9.725983222076888 M53.51769770195651 -10.59932663159847 C53.70721415835345 -10.345391845330923, 53.896730614750396 -10.091457059063373, 54.16949082814825 -9.725983222076888 M54.16949082814825 -9.725983222076888 C54.32725230212288 -9.483619233164443, 54.48501377609752 -9.241255244251997, 54.76398947109088 -8.812673661278927 M54.16949082814825 -9.725983222076888 C54.353596131242746 -9.443148037327715, 54.537701434337244 -9.16031285257854, 54.76398947109088 -8.812673661278927 M54.76398947109088 -8.812673661278927 C54.95275464174784 -8.47750198623127, 55.14151981240479 -8.142330311183612, 55.298750708341004 -7.863150934094199 M54.76398947109088 -8.812673661278927 C54.95938177295042 -8.465734843711274, 55.154774074809964 -8.118796026143622, 55.298750708341004 -7.863150934094199 M55.298750708341004 -7.863150934094199 C55.45294758794322 -7.542957814315507, 55.60714446754544 -7.2227646945368145, 55.77157709126881 -6.881316833080699 M55.298750708341004 -7.863150934094199 C55.42635846180065 -7.598170703666701, 55.55396621526031 -7.333190473239204, 55.77157709126881 -6.881316833080699 M55.77157709126881 -6.881316833080699 C55.85835030202581 -6.6669853248649975, 55.94512351278282 -6.452653816649297, 56.180525674845924 -5.871205925162238 M55.77157709126881 -6.881316833080699 C55.926572947073176 -6.498474072602898, 56.08156880287755 -6.115631312125097, 56.180525674845924 -5.871205925162238 M56.180525674845924 -5.871205925162238 C56.27337493247113 -5.591558754715328, 56.36622419009633 -5.311911584268417, 56.523916001623235 -4.836968972727556 M56.180525674845924 -5.871205925162238 C56.31624767106939 -5.462432896900623, 56.45196966729285 -5.053659868639008, 56.523916001623235 -4.836968972727556 M56.523916001623235 -4.836968972727556 C56.63217367912105 -4.424135529254139, 56.74043135661888 -4.011302085780722, 56.800337007091 -3.7828558772573464 M56.523916001623235 -4.836968972727556 C56.588474591265374 -4.590779090552343, 56.65303318090751 -4.34458920837713, 56.800337007091 -3.7828558772573464 M56.800337007091 -3.7828558772573464 C56.86169014318895 -3.4678204903842693, 56.9230432792869 -3.1527851035111927, 57.00865281804565 -2.713198215567453 M56.800337007091 -3.7828558772573464 C56.84527978327282 -3.5520842202227945, 56.89022255945465 -3.3213125631882425, 57.00865281804565 -2.713198215567453 M57.00865281804565 -2.713198215567453 C57.05152078960079 -2.3807226934242336, 57.09438876115593 -2.048247171281014, 57.148007420136366 -1.632391440430593 M57.00865281804565 -2.713198215567453 C57.053790341986826 -2.363120493291936, 57.098927865928005 -2.0130427710164187, 57.148007420136366 -1.632391440430593 M57.148007420136366 -1.632391440430593 C57.163940447901986 -1.3842216720725997, 57.1798734756676 -1.1360519037146064, 57.2178281754117 -0.5448768187181379 M57.148007420136366 -1.632391440430593 C57.16579931447077 -1.3552683248137485, 57.18359120880516 -1.0781452091969037, 57.2178281754117 -0.5448768187181379 M57.2178281754117 -0.5448768187181379 C57.2178281754117 -0.27964165595156465, 57.2178281754117 -0.014406493184991431, 57.2178281754117 0.5448768187181336 M57.2178281754117 -0.5448768187181379 C57.2178281754117 -0.2216677923559366, 57.2178281754117 0.10154123400626469, 57.2178281754117 0.5448768187181336 M57.2178281754117 0.5448768187181336 C57.20216920025861 0.7887779964246394, 57.18651022510553 1.0326791741311452, 57.148007420136366 1.6323914404305815 M57.2178281754117 0.5448768187181336 C57.19294728940351 0.9324167017852467, 57.16806640339533 1.3199565848523598, 57.148007420136366 1.6323914404305815 M57.148007420136366 1.6323914404305815 C57.11976458771578 1.8514372715065899, 57.09152175529519 2.0704831025825983, 57.008652818045654 2.7131982155674415 M57.148007420136366 1.6323914404305815 C57.1006649946656 1.9995699435625118, 57.05332256919484 2.366748446694442, 57.008652818045654 2.7131982155674415 M57.008652818045654 2.7131982155674415 C56.96222450994685 2.9515977650283984, 56.91579620184805 3.189997314489355, 56.800337007091 3.782855877257343 M57.008652818045654 2.7131982155674415 C56.93618554583331 3.085302342414433, 56.86371827362096 3.4574064692614237, 56.800337007091 3.782855877257343 M56.800337007091 3.782855877257343 C56.71982431964221 4.089885648919073, 56.63931163219341 4.396915420580802, 56.523916001623235 4.836968972727545 M56.800337007091 3.782855877257343 C56.69130603605516 4.198638224138763, 56.582275065019324 4.614420571020184, 56.523916001623235 4.836968972727545 M56.523916001623235 4.836968972727545 C56.426065959193515 5.131677710238791, 56.3282159167638 5.426386447750037, 56.180525674845924 5.871205925162227 M56.523916001623235 4.836968972727545 C56.3978598247044 5.216630093282791, 56.27180364778556 5.596291213838036, 56.180525674845924 5.871205925162227 M56.180525674845924 5.871205925162227 C56.02472024926045 6.256048338651331, 55.86891482367498 6.640890752140434, 55.77157709126881 6.881316833080694 M56.180525674845924 5.871205925162227 C56.050465038821706 6.192458210693385, 55.92040440279749 6.513710496224542, 55.77157709126881 6.881316833080694 M55.77157709126881 6.881316833080694 C55.62373289949524 7.188318460657457, 55.47588870772167 7.4953200882342195, 55.298750708341004 7.863150934094196 M55.77157709126881 6.881316833080694 C55.6393346950575 7.155920998347484, 55.50709229884618 7.430525163614273, 55.298750708341004 7.863150934094196 M55.298750708341004 7.863150934094196 C55.113683107850484 8.191757198891777, 54.92861550735996 8.520363463689359, 54.76398947109089 8.812673661278923 M55.298750708341004 7.863150934094196 C55.18735884164725 8.060938473058576, 55.0759669749535 8.258726012022956, 54.76398947109089 8.812673661278923 M54.76398947109089 8.812673661278923 C54.59575375088475 9.071128905131896, 54.427518030678605 9.329584148984871, 54.169490828148255 9.725983222076879 M54.76398947109089 8.812673661278923 C54.59322436228279 9.075014725260445, 54.422459253474685 9.337355789241967, 54.169490828148255 9.725983222076879 M54.169490828148255 9.725983222076879 C53.9409072476986 10.032264395486845, 53.71232366724894 10.338545568896809, 53.51769770195651 10.599326631598467 M54.169490828148255 9.725983222076879 C54.03368184586443 9.907954885884397, 53.8978728635806 10.089926549691913, 53.51769770195651 10.599326631598467 M53.51769770195651 10.599326631598467 C53.35937537950265 10.785301040348124, 53.201053057048796 10.971275449097782, 52.81128845028037 11.42911513444238 M53.51769770195651 10.599326631598467 C53.363074083127685 10.78095633260796, 53.20845046429886 10.962586033617452, 52.81128845028037 11.42911513444238 M52.81128845028037 11.42911513444238 C52.51065970290737 11.73953899818419, 52.21003095553436 12.049962861926, 52.05316586025927 12.211938951661365 M52.81128845028037 11.42911513444238 C52.62364729806307 11.62287002973185, 52.43600614584576 11.816624925021317, 52.05316586025927 12.211938951661365 M52.05316586025927 12.211938951661365 C51.817258644825 12.426183642955886, 51.581351429390736 12.640428334250405, 51.24644522023242 12.944581292275275 M52.05316586025927 12.211938951661365 C51.80917548895851 12.433524551245254, 51.56518511765774 12.655110150829143, 51.24644522023242 12.944581292275275 M51.24644522023242 12.944581292275275 C51.04830830310766 13.102590211037466, 50.850171385982904 13.260599129799656, 50.394441518350675 13.62403157175526 M51.24644522023242 12.944581292275275 C51.0073402233468 13.135261164440365, 50.76823522646119 13.325941036605453, 50.394441518350675 13.62403157175526 M50.394441518350675 13.62403157175526 C50.13901045792938 13.802209222072763, 49.88357939750809 13.980386872390266, 49.50065582057934 14.247497783161286 M50.394441518350675 13.62403157175526 C50.062054630642386 13.8558902758241, 49.729667742934105 14.08774897989294, 49.50065582057934 14.247497783161286 M49.50065582057934 14.247497783161286 C49.30494110004256 14.366141196898043, 49.109226379505785 14.4847846106348, 48.56876088406695 14.81241797009762 M49.50065582057934 14.247497783161286 C49.31049558556464 14.362774035132778, 49.120335350549944 14.47805028710427, 48.56876088406695 14.81241797009762 M48.56876088406695 14.81241797009762 C48.21604905391624 14.996427505964533, 47.863337223765534 15.180437041831448, 47.60258606499849 15.316470754341124 M48.56876088406695 14.81241797009762 C48.26564804221908 14.970551745536612, 47.96253520037121 15.128685520975605, 47.60258606499849 15.316470754341124 M47.60258606499849 15.316470754341124 C47.230733032287176 15.481079061294125, 46.85887999957586 15.645687368247126, 46.606101582949364 15.757584874882367 M47.60258606499849 15.316470754341124 C47.39285726678199 15.409311471927817, 47.183128468565485 15.502152189514508, 46.606101582949364 15.757584874882367 M46.606101582949364 15.757584874882367 C46.24341981675796 15.891055117434302, 45.88073805056654 16.024525359986235, 45.58340220640156 16.133947699181363 M46.606101582949364 15.757584874882367 C46.394528444614444 15.83544574555027, 46.18295530627952 15.913306616218172, 45.58340220640156 16.133947699181363 M45.58340220640156 16.133947699181363 C45.33747826662697 16.20693663362536, 45.091554326852375 16.27992556806936, 44.53869042646164 16.444012671663497 M45.58340220640156 16.133947699181363 C45.269297592785314 16.2271722997339, 44.95519297916907 16.320396900286443, 44.53869042646164 16.444012671663497 M44.53869042646164 16.444012671663497 C44.32185166986649 16.493504702851215, 44.10501291327134 16.542996734038933, 43.47625918792333 16.68650566884811 M44.53869042646164 16.444012671663497 C44.16841272058813 16.52852614174128, 43.798135014714624 16.613039611819065, 43.47625918792333 16.68650566884811 M43.47625918792333 16.68650566884811 C43.18893451453592 16.732958093805266, 42.90160984114852 16.77941051876242, 42.40047424863661 16.86043023499518 M43.47625918792333 16.68650566884811 C43.05202504669213 16.75509255481747, 42.62779090546093 16.82367944078683, 42.40047424863661 16.86043023499518 M42.40047424863661 16.86043023499518 C42.06262589184208 16.893022059653052, 41.72477753504755 16.925613884310927, 41.31575623967212 16.965071676755716 M42.40047424863661 16.86043023499518 C42.06774621518663 16.892528108218094, 41.73501818173664 16.924625981441007, 41.31575623967212 16.965071676755716 M41.31575623967212 16.965071676755716 C41.012618218256925 16.97479272308014, 40.70948019684173 16.984513769404558, 40.2265625 17 M41.31575623967212 16.965071676755716 C40.92733070594999 16.97752772759775, 40.53890517222787 16.989983778439782, 40.2265625 17 M40.2265625 17 C40.2265625 17, 40.2265625 17, 40.2265625 17 M40.2265625 17 C40.2265625 17, 40.2265625 17, 40.2265625 17 M40.2265625 17 C9.519706150216791 17, -21.187150199566418 17, -40.2265625 17 M40.2265625 17 C14.56905838415475 17, -11.088445731690499 17, -40.2265625 17 M-40.2265625 17 C-40.644075155133564 16.98661118178895, -41.06158781026713 16.9732223635779, -41.31575623967211 16.965071676755716 M-40.2265625 17 C-40.50302207094834 16.991134479655596, -40.77948164189669 16.982268959311195, -41.31575623967211 16.965071676755716 M-41.31575623967211 16.965071676755716 C-41.56885222996966 16.940655810964174, -41.82194822026721 16.91623994517263, -42.400474248636606 16.86043023499518 M-41.31575623967211 16.965071676755716 C-41.5456072852842 16.942898222821846, -41.77545833089629 16.920724768887972, -42.400474248636606 16.86043023499518 M-42.400474248636606 16.86043023499518 C-42.77932310155286 16.799180890472414, -43.158171954469125 16.73793154594965, -43.476259187923326 16.68650566884811 M-42.400474248636606 16.86043023499518 C-42.821092208873665 16.79242798512505, -43.24171016911072 16.724425735254925, -43.476259187923326 16.68650566884811 M-43.476259187923326 16.68650566884811 C-43.78046498197186 16.61707268148486, -44.084670776020396 16.547639694121607, -44.53869042646162 16.4440126716635 M-43.476259187923326 16.68650566884811 C-43.71425388496263 16.63218493230943, -43.952248582001936 16.577864195770747, -44.53869042646162 16.4440126716635 M-44.53869042646162 16.4440126716635 C-44.80487757917685 16.365009721982496, -45.071064731892086 16.286006772301494, -45.583402206401544 16.13394769918137 M-44.53869042646162 16.4440126716635 C-44.922606681799685 16.330068342296713, -45.30652293713775 16.21612401292992, -45.583402206401544 16.13394769918137 M-45.583402206401544 16.13394769918137 C-45.80311893230736 16.05308991300888, -46.022835658213175 15.972232126836388, -46.606101582949364 15.757584874882369 M-45.583402206401544 16.13394769918137 C-45.89281544994394 16.0200807653731, -46.20222869348633 15.906213831564829, -46.606101582949364 15.757584874882369 M-46.606101582949364 15.757584874882369 C-46.9890712201858 15.588055576868452, -47.372040857422235 15.418526278854536, -47.60258606499848 15.316470754341127 M-46.606101582949364 15.757584874882369 C-46.976039208342094 15.593824461930764, -47.345976833734824 15.43006404897916, -47.60258606499848 15.316470754341127 M-47.60258606499848 15.316470754341127 C-47.90203508390723 15.160248392982686, -48.20148410281597 15.004026031624244, -48.56876088406693 14.812417970097624 M-47.60258606499848 15.316470754341127 C-47.818011867359004 15.204083251236456, -48.03343766971952 15.091695748131787, -48.56876088406693 14.812417970097624 M-48.56876088406693 14.812417970097624 C-48.88629250741114 14.619928434003423, -49.20382413075534 14.427438897909223, -49.50065582057932 14.247497783161299 M-48.56876088406693 14.812417970097624 C-48.850417807792844 14.641675887735166, -49.13207473151876 14.47093380537271, -49.50065582057932 14.247497783161299 M-49.50065582057932 14.247497783161299 C-49.75594880701414 14.06941644727963, -50.01124179344896 13.891335111397963, -50.39444151835067 13.624031571755264 M-49.50065582057932 14.247497783161299 C-49.70256108830603 14.10665740873332, -49.90446635603273 13.965817034305338, -50.39444151835067 13.624031571755264 M-50.39444151835067 13.624031571755264 C-50.6149131819287 13.448211287049153, -50.835384845506724 13.272391002343042, -51.2464452202324 12.94458129227529 M-50.39444151835067 13.624031571755264 C-50.62341466188488 13.441431583017978, -50.8523878054191 13.258831594280693, -51.2464452202324 12.94458129227529 M-51.2464452202324 12.94458129227529 C-51.4770447564369 12.735156894823751, -51.7076442926414 12.525732497372212, -52.05316586025926 12.211938951661377 M-51.2464452202324 12.94458129227529 C-51.55169946896614 12.667357460160144, -51.85695371769989 12.390133628044998, -52.05316586025926 12.211938951661377 M-52.05316586025926 12.211938951661377 C-52.27849953778303 11.979263429379108, -52.50383321530679 11.746587907096838, -52.811288450280365 11.429115134442386 M-52.05316586025926 12.211938951661377 C-52.2208707343092 12.03876990037859, -52.38857560835914 11.865600849095802, -52.811288450280365 11.429115134442386 M-52.811288450280365 11.429115134442386 C-53.01014903944274 11.19552217092419, -53.2090096286051 10.961929207405994, -53.51769770195651 10.599326631598473 M-52.811288450280365 11.429115134442386 C-53.0440344422648 11.155718448635346, -53.27678043424924 10.882321762828308, -53.51769770195651 10.599326631598473 M-53.51769770195651 10.599326631598473 C-53.68441263172516 10.375943813751032, -53.851127561493804 10.152560995903592, -54.16949082814825 9.72598322207689 M-53.51769770195651 10.599326631598473 C-53.69165155661533 10.366244313877825, -53.86560541127415 10.133161996157176, -54.16949082814825 9.72598322207689 M-54.16949082814825 9.72598322207689 C-54.34713341821109 9.453076500025785, -54.524776008273925 9.180169777974681, -54.76398947109088 8.812673661278936 M-54.16949082814825 9.72598322207689 C-54.31880956021324 9.4965895519313, -54.46812829227822 9.267195881785712, -54.76398947109088 8.812673661278936 M-54.76398947109088 8.812673661278936 C-54.893532562245326 8.582656785273803, -55.02307565339978 8.352639909268671, -55.298750708341004 7.863150934094201 M-54.76398947109088 8.812673661278936 C-54.922957936477616 8.530409053682138, -55.08192640186435 8.248144446085341, -55.298750708341004 7.863150934094201 M-55.298750708341004 7.863150934094201 C-55.4441796933412 7.561164535059503, -55.589608678341385 7.259178136024805, -55.77157709126881 6.881316833080701 M-55.298750708341004 7.863150934094201 C-55.41833139966104 7.6148390699512305, -55.53791209098108 7.366527205808259, -55.77157709126881 6.881316833080701 M-55.77157709126881 6.881316833080701 C-55.91499808027328 6.527064217383481, -56.05841906927775 6.172811601686261, -56.180525674845924 5.87120592516224 M-55.77157709126881 6.881316833080701 C-55.860244046110694 6.662307740362297, -55.94891100095258 6.443298647643894, -56.180525674845924 5.87120592516224 M-56.180525674845924 5.87120592516224 C-56.27261709524631 5.593841239691508, -56.364708515646704 5.316476554220775, -56.523916001623235 4.8369689727275516 M-56.180525674845924 5.87120592516224 C-56.26948462955194 5.603275727272342, -56.35844358425795 5.335345529382445, -56.523916001623235 4.8369689727275516 M-56.523916001623235 4.8369689727275516 C-56.5966435917673 4.559627151171285, -56.66937118191136 4.282285329615019, -56.800337007091 3.782855877257349 M-56.523916001623235 4.8369689727275516 C-56.588531699565465 4.5905613118531905, -56.653147397507695 4.3441536509788286, -56.800337007091 3.782855877257349 M-56.800337007091 3.782855877257349 C-56.85865610684873 3.4833996257475244, -56.91697520660645 3.1839433742376992, -57.00865281804565 2.713198215567455 M-56.800337007091 3.782855877257349 C-56.861620116620855 3.4681800620113195, -56.922903226150716 3.1535042467652903, -57.00865281804565 2.713198215567455 M-57.00865281804565 2.713198215567455 C-57.042940465978866 2.4472699890593512, -57.07722811391208 2.1813417625512472, -57.148007420136366 1.6323914404306026 M-57.00865281804565 2.713198215567455 C-57.05180716719737 2.3785016053368224, -57.09496151634909 2.043804995106189, -57.148007420136366 1.6323914404306026 M-57.148007420136366 1.6323914404306026 C-57.165230661700654 1.364125550716484, -57.18245390326494 1.0958596610023656, -57.2178281754117 0.54487681871814 M-57.148007420136366 1.6323914404306026 C-57.16448396867554 1.3757558973024162, -57.18096051721471 1.11912035417423, -57.2178281754117 0.54487681871814 M-57.2178281754117 0.54487681871814 C-57.2178281754117 0.27298740574646047, -57.2178281754117 0.0010979927747809537, -57.2178281754117 -0.5448768187181317 M-57.2178281754117 0.54487681871814 C-57.2178281754117 0.30943138717399865, -57.2178281754117 0.07398595562985727, -57.2178281754117 -0.5448768187181317 M-57.2178281754117 -0.5448768187181317 C-57.20333573443411 -0.7706082850317539, -57.188843293456536 -0.9963397513453761, -57.148007420136366 -1.6323914404305793 M-57.2178281754117 -0.5448768187181317 C-57.19933736376447 -0.8328861356381869, -57.180846552117245 -1.1208954525582422, -57.148007420136366 -1.6323914404305793 M-57.148007420136366 -1.6323914404305793 C-57.10262996368408 -1.9843300318822443, -57.05725250723179 -2.3362686233339094, -57.008652818045654 -2.713198215567447 M-57.148007420136366 -1.6323914404305793 C-57.10479933596764 -1.967504808841908, -57.06159125179892 -2.302618177253237, -57.008652818045654 -2.713198215567447 M-57.008652818045654 -2.713198215567447 C-56.93768277124915 -3.0776144063427746, -56.866712724452654 -3.4420305971181024, -56.800337007091 -3.782855877257341 M-57.008652818045654 -2.713198215567447 C-56.946827837008314 -3.0306564264798004, -56.88500285597098 -3.3481146373921544, -56.800337007091 -3.782855877257341 M-56.800337007091 -3.782855877257341 C-56.69976108201176 -4.166395469466151, -56.59918515693252 -4.549935061674961, -56.523916001623235 -4.836968972727544 M-56.800337007091 -3.782855877257341 C-56.69684640559212 -4.177510393882997, -56.593355804093235 -4.572164910508654, -56.523916001623235 -4.836968972727544 M-56.523916001623235 -4.836968972727544 C-56.416542853010164 -5.160359788762142, -56.30916970439709 -5.48375060479674, -56.18052567484593 -5.871205925162218 M-56.523916001623235 -4.836968972727544 C-56.419561447892285 -5.151268261924962, -56.31520689416134 -5.465567551122381, -56.18052567484593 -5.871205925162218 M-56.18052567484593 -5.871205925162218 C-56.079706764855786 -6.120230582038905, -55.97888785486563 -6.369255238915592, -55.77157709126881 -6.881316833080692 M-56.18052567484593 -5.871205925162218 C-56.07159726446624 -6.140261204787602, -55.962668854086544 -6.409316484412986, -55.77157709126881 -6.881316833080692 M-55.77157709126881 -6.881316833080692 C-55.58993272219687 -7.258505252025459, -55.40828835312493 -7.635693670970224, -55.298750708341004 -7.863150934094194 M-55.77157709126881 -6.881316833080692 C-55.65455643829696 -7.124312722817606, -55.53753578532511 -7.367308612554521, -55.298750708341004 -7.863150934094194 M-55.298750708341004 -7.863150934094194 C-55.173102287943685 -8.086252427791857, -55.04745386754637 -8.309353921489521, -54.76398947109088 -8.812673661278929 M-55.298750708341004 -7.863150934094194 C-55.15699417731554 -8.114854009335211, -55.015237646290075 -8.366557084576227, -54.76398947109088 -8.812673661278929 M-54.76398947109088 -8.812673661278929 C-54.60353274012816 -9.059178288702919, -54.44307600916543 -9.305682916126909, -54.16949082814825 -9.725983222076884 M-54.76398947109088 -8.812673661278929 C-54.55502532532318 -9.133698703908056, -54.346061179555484 -9.454723746537185, -54.16949082814825 -9.725983222076884 M-54.16949082814825 -9.725983222076884 C-53.96500434028373 -9.999976486713058, -53.76051785241921 -10.27396975134923, -53.51769770195651 -10.599326631598467 M-54.16949082814825 -9.725983222076884 C-53.95210034671458 -10.017266662517722, -53.73470986528091 -10.30855010295856, -53.51769770195651 -10.599326631598467 M-53.51769770195651 -10.599326631598467 C-53.362762542085704 -10.781322286443054, -53.20782738221491 -10.963317941287642, -52.81128845028037 -11.42911513444238 M-53.51769770195651 -10.599326631598467 C-53.318274062154934 -10.833580986435964, -53.11885042235336 -11.06783534127346, -52.81128845028037 -11.42911513444238 M-52.81128845028037 -11.42911513444238 C-52.556532186344 -11.692171892834935, -52.30177592240763 -11.955228651227491, -52.05316586025928 -12.21193895166136 M-52.81128845028037 -11.42911513444238 C-52.59508078086865 -11.652367304089768, -52.37887311145692 -11.875619473737155, -52.05316586025928 -12.21193895166136 M-52.05316586025928 -12.21193895166136 C-51.78178154342639 -12.458403007773441, -51.510397226593504 -12.704867063885521, -51.24644522023242 -12.944581292275274 M-52.05316586025928 -12.21193895166136 C-51.87019309670851 -12.378109974324133, -51.68722033315774 -12.544280996986908, -51.24644522023242 -12.944581292275274 M-51.24644522023242 -12.944581292275274 C-50.931956775430244 -13.195377458116022, -50.617468330628064 -13.446173623956769, -50.394441518350675 -13.624031571755259 M-51.24644522023242 -12.944581292275274 C-50.978815502442956 -13.158008870286478, -50.71118578465349 -13.371436448297683, -50.394441518350675 -13.624031571755259 M-50.394441518350675 -13.624031571755259 C-50.17446112835519 -13.777480369018509, -49.9544807383597 -13.930929166281759, -49.50065582057934 -14.247497783161284 M-50.394441518350675 -13.624031571755259 C-50.09762975243487 -13.831074610883867, -49.80081798651906 -14.038117650012476, -49.50065582057934 -14.247497783161284 M-49.50065582057934 -14.247497783161284 C-49.2948022993009 -14.372287397489844, -49.08894877802246 -14.497077011818401, -48.56876088406695 -14.812417970097618 M-49.50065582057934 -14.247497783161284 C-49.2163257734924 -14.419860328614213, -48.931995726405454 -14.592222874067144, -48.56876088406695 -14.812417970097618 M-48.56876088406695 -14.812417970097618 C-48.314126989431145 -14.945260309828322, -48.05949309479534 -15.078102649559026, -47.60258606499849 -15.316470754341124 M-48.56876088406695 -14.812417970097618 C-48.35308647287836 -14.924935172268649, -48.13741206168978 -15.03745237443968, -47.60258606499849 -15.316470754341124 M-47.60258606499849 -15.316470754341124 C-47.30807053290818 -15.446844043904651, -47.013555000817874 -15.577217333468178, -46.60610158294937 -15.757584874882365 M-47.60258606499849 -15.316470754341124 C-47.348611434506445 -15.428897789370218, -47.0946368040144 -15.541324824399315, -46.60610158294937 -15.757584874882365 M-46.60610158294937 -15.757584874882365 C-46.20673804600583 -15.904554348153654, -45.80737450906229 -16.051523821424944, -45.583402206401566 -16.133947699181363 M-46.60610158294937 -15.757584874882365 C-46.35709347323075 -15.849222161064551, -46.10808536351213 -15.940859447246739, -45.583402206401566 -16.133947699181363 M-45.583402206401566 -16.133947699181363 C-45.33594451803659 -16.207391842156174, -45.08848682967162 -16.280835985130985, -44.53869042646164 -16.444012671663494 M-45.583402206401566 -16.133947699181363 C-45.24015178464186 -16.23582262260141, -44.896901362882154 -16.337697546021463, -44.53869042646164 -16.444012671663494 M-44.53869042646164 -16.444012671663494 C-44.147487946357536 -16.5333020849125, -43.75628546625343 -16.622591498161505, -43.47625918792333 -16.68650566884811 M-44.53869042646164 -16.444012671663494 C-44.23635830295474 -16.51301800595246, -43.93402617944785 -16.582023340241427, -43.47625918792333 -16.68650566884811 M-43.47625918792333 -16.68650566884811 C-43.25954728915286 -16.721541968015444, -43.04283539038239 -16.75657826718278, -42.40047424863661 -16.86043023499518 M-43.47625918792333 -16.68650566884811 C-43.06607773917455 -16.75282062447717, -42.65589629042577 -16.819135580106227, -42.40047424863661 -16.86043023499518 M-42.40047424863661 -16.86043023499518 C-42.06453733668934 -16.89283766486749, -41.72860042474207 -16.925245094739793, -41.31575623967212 -16.965071676755716 M-42.40047424863661 -16.86043023499518 C-42.07988992794069 -16.891356618853663, -41.75930560724477 -16.922283002712142, -41.31575623967212 -16.965071676755716 M-41.31575623967212 -16.965071676755716 C-40.88379382356501 -16.978923870676436, -40.451831407457895 -16.992776064597155, -40.22656250000001 -17 M-41.31575623967212 -16.965071676755716 C-40.976811223719125 -16.975940983700877, -40.63786620776614 -16.98681029064604, -40.22656250000001 -17 M-40.22656250000001 -17 C-40.22656250000001 -17, -40.22656250000001 -17, -40.2265625 -17 M-40.22656250000001 -17 C-40.22656250000001 -17, -40.2265625 -17, -40.2265625 -17" stroke="#9370DB" stroke-width="1.3" fill="none" stroke-dasharray="0 0" style=""></path></g><g class="label" style="" transform="translate(0, -9.5)"><rect></rect><g><rect class="background" style="stroke: none"></rect><text y="-10.1" style=""><tspan class="text-outer-tspan row" x="0" y="-0.1em" dy="1.1em"><tspan font-style="normal" class="text-inner-tspan" font-weight="normal">New</tspan><tspan font-style="normal" class="text-inner-tspan" font-weight="normal"> counter</tspan></tspan></text></g></g></g><g class="node default" id="g54dfdb82-771c-48e7-8186-fa5b30331289-light-flowchart-Q1-1" data-look="classic" transform="translate(532.79296875, 199.8937530517578)"><polygon points="107.89374923706055,0 215.7874984741211,-107.89374923706055 107.89374923706055,-215.7874984741211 0,-107.89374923706055" class="label-container" transform="translate(-107.39374923706055, 107.89374923706055)"></polygon><g class="label" style="" transform="translate(0, -18.299999237060547)"><rect></rect><g><rect class="background" style="stroke: none"></rect><text y="-10.1" style=""><tspan class="text-outer-tspan row" x="0" y="-0.1em" dy="1.1em"><tspan font-style="normal" class="text-inner-tspan" font-weight="normal">Sustained</tspan><tspan font-style="normal" class="text-inner-tspan" font-weight="normal"> writes/sec</tspan></tspan><tspan class="text-outer-tspan row" x="0" y="1em" dy="1.1em"><tspan font-style="normal" class="text-inner-tspan" font-weight="normal">per</tspan><tspan font-style="normal" class="text-inner-tspan" font-weight="normal"> logical</tspan><tspan font-style="normal" class="text-inner-tspan" font-weight="normal"> counter?</tspan></tspan></text></g></g></g><g class="node default" id="g54dfdb82-771c-48e7-8186-fa5b30331289-light-flowchart-Single-3" data-look="classic" transform="translate(422.41015625, 470.2562561035156)"><rect class="basic label-container" style="" x="-81.296875" y="-33.29999923706055" width="162.59375" height="66.5999984741211"></rect><g class="label" style="" transform="translate(0, -18.299999237060547)"><rect></rect><g><rect class="background" style="stroke: none"></rect><text y="-10.1" style=""><tspan class="text-outer-tspan row" x="0" y="-0.1em" dy="1.1em"><tspan font-style="normal" class="text-inner-tspan" font-weight="normal">Single</tspan><tspan font-style="normal" class="text-inner-tspan" font-weight="normal"> counter</tspan></tspan><tspan class="text-outer-tspan row" x="0" y="1em" dy="1.1em"><tspan font-style="normal" class="text-inner-tspan" font-weight="normal">(no</tspan><tspan font-style="normal" class="text-inner-tspan" font-weight="normal"> sharding)</tspan></tspan></text></g></g></g><g class="node default" id="g54dfdb82-771c-48e7-8186-fa5b30331289-light-flowchart-Q2-5" data-look="classic" transform="translate(643.17578125, 470.2562561035156)"><polygon points="89.46875,0 178.9375,-89.46875 89.46875,-178.9375 0,-89.46875" class="label-container" transform="translate(-88.96875, 89.46875)"></polygon><g class="label" style="" transform="translate(0, -9.5)"><rect></rect><g><rect class="background" style="stroke: none"></rect><text y="-10.1" style=""><tspan class="text-outer-tspan row" x="0" y="-0.1em" dy="1.1em"><tspan font-style="normal" class="text-inner-tspan" font-weight="normal">Need</tspan><tspan font-style="normal" class="text-inner-tspan" font-weight="normal"> exact</tspan><tspan font-style="normal" class="text-inner-tspan" font-weight="normal"> value?</tspan></tspan></text></g></g></g><g class="node default" id="g54dfdb82-771c-48e7-8186-fa5b30331289-light-flowchart-Q5-7" data-look="classic" transform="translate(272.25390625, 734.5093841552734)"><polygon points="100.82343673706055,0 201.6468734741211,-100.82343673706055 100.82343673706055,-201.6468734741211 0,-100.82343673706055" class="label-container" transform="translate(-100.32343673706055, 100.82343673706055)"></polygon><g class="label" style="" transform="translate(0, -18.299999237060547)"><rect></rect><g><rect class="background" style="stroke: none"></rect><text y="-10.1" style=""><tspan class="text-outer-tspan row" x="0" y="-0.1em" dy="1.1em"><tspan font-style="normal" class="text-inner-tspan" font-weight="normal">Distinct</tspan><tspan font-style="normal" class="text-inner-tspan" font-weight="normal"> items</tspan></tspan><tspan class="text-outer-tspan row" x="0" y="1em" dy="1.1em"><tspan font-style="normal" class="text-inner-tspan" font-weight="normal">or</tspan><tspan font-style="normal" class="text-inner-tspan" font-weight="normal"> item</tspan><tspan font-style="normal" class="text-inner-tspan" font-weight="normal"> frequency?</tspan></tspan></text></g></g></g><g class="node default" id="g54dfdb82-771c-48e7-8186-fa5b30331289-light-flowchart-HLL-9" data-look="classic" transform="translate(127.890625, 997.9109497070312)"><rect class="basic label-container" style="" x="-119.890625" y="-24.5" width="239.78125" height="49"></rect><g class="label" style="" transform="translate(0, -9.5)"><rect></rect><g><rect class="background" style="stroke: none"></rect><text y="-10.1" style=""><tspan class="text-outer-tspan row" x="0" y="-0.1em" dy="1.1em"><tspan font-style="normal" class="text-inner-tspan" font-weight="normal">HyperLogLog</tspan><tspan font-style="normal" class="text-inner-tspan" font-weight="normal"> per</tspan><tspan font-style="normal" class="text-inner-tspan" font-weight="normal"> window</tspan></tspan></text></g></g></g><g class="node default" id="g54dfdb82-771c-48e7-8186-fa5b30331289-light-flowchart-CMS-11" data-look="classic" transform="translate(416.6171875, 997.9109497070312)"><rect class="basic label-container" style="" x="-118.8359375" y="-24.5" width="237.671875" height="49"></rect><g class="label" style="" transform="translate(0, -9.5)"><rect></rect><g><rect class="background" style="stroke: none"></rect><text y="-10.1" style=""><tspan class="text-outer-tspan row" x="0" y="-0.1em" dy="1.1em"><tspan font-style="normal" class="text-inner-tspan" font-weight="normal">Count-Min</tspan><tspan font-style="normal" class="text-inner-tspan" font-weight="normal"> Sketch</tspan><tspan font-style="normal" class="text-inner-tspan" font-weight="normal"> +</tspan><tspan font-style="normal" class="text-inner-tspan" font-weight="normal"> heap</tspan></tspan></text></g></g></g><g class="node default" id="g54dfdb82-771c-48e7-8186-fa5b30331289-light-flowchart-Q3-13" data-look="classic" transform="translate(908.984375, 734.5093841552734)"><polygon points="101.78437423706055,0 203.5687484741211,-101.78437423706055 101.78437423706055,-203.5687484741211 0,-101.78437423706055" class="label-container" transform="translate(-101.28437423706055, 101.78437423706055)"></polygon><g class="label" style="" transform="translate(0, -18.299999237060547)"><rect></rect><g><rect class="background" style="stroke: none"></rect><text y="-10.1" style=""><tspan class="text-outer-tspan row" x="0" y="-0.1em" dy="1.1em"><tspan font-style="normal" class="text-inner-tspan" font-weight="normal">Consistency:</tspan></tspan><tspan class="text-outer-tspan row" x="0" y="1em" dy="1.1em"><tspan font-style="normal" class="text-inner-tspan" font-weight="normal">strong</tspan><tspan font-style="normal" class="text-inner-tspan" font-weight="normal"> or</tspan><tspan font-style="normal" class="text-inner-tspan" font-weight="normal"> eventual?</tspan></tspan></text></g></g></g><g class="node default" id="g54dfdb82-771c-48e7-8186-fa5b30331289-light-flowchart-Q3a-15" data-look="classic" transform="translate(659.5078125, 997.9109497070312)"><polygon points="74.0546875,0 148.109375,-74.0546875 74.0546875,-148.109375 0,-74.0546875" class="label-container" transform="translate(-73.5546875, 74.0546875)"></polygon><g class="label" style="" transform="translate(0, -9.5)"><rect></rect><g><rect class="background" style="stroke: none"></rect><text y="-10.1" style=""><tspan class="text-outer-tspan row" x="0" y="-0.1em" dy="1.1em"><tspan font-style="normal" class="text-inner-tspan" font-weight="normal">Read</tspan><tspan font-style="normal" class="text-inner-tspan" font-weight="normal"> pattern?</tspan></tspan></text></g></g></g><g class="node default" id="g54dfdb82-771c-48e7-8186-fa5b30331289-light-flowchart-HashShard-17" data-look="classic" transform="translate(523.875, 1247.3718872070312)"><rect class="basic label-container" style="" x="-117.5625" y="-33.29999923706055" width="235.125" height="66.5999984741211"></rect><g class="label" style="" transform="translate(0, -18.299999237060547)"><rect></rect><g><rect class="background" style="stroke: none"></rect><text y="-10.1" style=""><tspan class="text-outer-tspan row" x="0" y="-0.1em" dy="1.1em"><tspan font-style="normal" class="text-inner-tspan" font-weight="normal">Hash-by-key</tspan><tspan font-style="normal" class="text-inner-tspan" font-weight="normal"> sharding</tspan></tspan><tspan class="text-outer-tspan row" x="0" y="1em" dy="1.1em"><tspan font-style="normal" class="text-inner-tspan" font-weight="normal">+</tspan><tspan font-style="normal" class="text-inner-tspan" font-weight="normal"> sync</tspan><tspan font-style="normal" class="text-inner-tspan" font-weight="normal"> read</tspan><tspan font-style="normal" class="text-inner-tspan" font-weight="normal"> of</tspan><tspan font-style="normal" class="text-inner-tspan" font-weight="normal"> one</tspan><tspan font-style="normal" class="text-inner-tspan" font-weight="normal"> shard</tspan></tspan></text></g></g></g><g class="node default" id="g54dfdb82-771c-48e7-8186-fa5b30331289-light-flowchart-SyncShard-19" data-look="classic" transform="translate(795.140625, 1247.3718872070312)"><rect class="basic label-container" style="" x="-103.703125" y="-33.29999923706055" width="207.40625" height="66.5999984741211"></rect><g class="label" style="" transform="translate(0, -18.299999237060547)"><rect></rect><g><rect class="background" style="stroke: none"></rect><text y="-10.1" style=""><tspan class="text-outer-tspan row" x="0" y="-0.1em" dy="1.1em"><tspan font-style="normal" class="text-inner-tspan" font-weight="normal">Random</tspan><tspan font-style="normal" class="text-inner-tspan" font-weight="normal"> sharding</tspan></tspan><tspan class="text-outer-tspan row" x="0" y="1em" dy="1.1em"><tspan font-style="normal" class="text-inner-tspan" font-weight="normal">+</tspan><tspan font-style="normal" class="text-inner-tspan" font-weight="normal"> synchronous</tspan><tspan font-style="normal" class="text-inner-tspan" font-weight="normal"> fan-in</tspan></tspan></text></g></g></g><g class="node default" id="g54dfdb82-771c-48e7-8186-fa5b30331289-light-flowchart-Q4-21" data-look="classic" transform="translate(1173.3203125, 997.9109497070312)"><polygon points="88.6171875,0 177.234375,-88.6171875 88.6171875,-177.234375 0,-88.6171875" class="label-container" transform="translate(-88.1171875, 88.6171875)"></polygon><g class="label" style="" transform="translate(0, -9.5)"><rect></rect><g><rect class="background" style="stroke: none"></rect><text y="-10.1" style=""><tspan class="text-outer-tspan row" x="0" y="-0.1em" dy="1.1em"><tspan font-style="normal" class="text-inner-tspan" font-weight="normal">Read</tspan><tspan font-style="normal" class="text-inner-tspan" font-weight="normal"> latency</tspan><tspan font-style="normal" class="text-inner-tspan" font-weight="normal"> SLA?</tspan></tspan></text></g></g></g><g class="node default" id="g54dfdb82-771c-48e7-8186-fa5b30331289-light-flowchart-SyncShardEv-23" data-look="classic" transform="translate(1052.546875, 1247.3718872070312)"><rect class="basic label-container" style="" x="-103.703125" y="-33.29999923706055" width="207.40625" height="66.5999984741211"></rect><g class="label" style="" transform="translate(0, -18.299999237060547)"><rect></rect><g><rect class="background" style="stroke: none"></rect><text y="-10.1" style=""><tspan class="text-outer-tspan row" x="0" y="-0.1em" dy="1.1em"><tspan font-style="normal" class="text-inner-tspan" font-weight="normal">Random</tspan><tspan font-style="normal" class="text-inner-tspan" font-weight="normal"> sharding</tspan></tspan><tspan class="text-outer-tspan row" x="0" y="1em" dy="1.1em"><tspan font-style="normal" class="text-inner-tspan" font-weight="normal">+</tspan><tspan font-style="normal" class="text-inner-tspan" font-weight="normal"> synchronous</tspan><tspan font-style="normal" class="text-inner-tspan" font-weight="normal"> fan-in</tspan></tspan></text></g></g></g><g class="node default" id="g54dfdb82-771c-48e7-8186-fa5b30331289-light-flowchart-Q4a-25" data-look="classic" transform="translate(1294.09375, 1247.3718872070312)"><polygon points="87.84375,0 175.6875,-87.84375 87.84375,-175.6875 0,-87.84375" class="label-container" transform="translate(-87.34375, 87.84375)"></polygon><g class="label" style="" transform="translate(0, -9.5)"><rect></rect><g><rect class="background" style="stroke: none"></rect><text y="-10.1" style=""><tspan class="text-outer-tspan row" x="0" y="-0.1em" dy="1.1em"><tspan font-style="normal" class="text-inner-tspan" font-weight="normal">Staleness</tspan><tspan font-style="normal" class="text-inner-tspan" font-weight="normal"> budget?</tspan></tspan></text></g></g></g><g class="node default" id="g54dfdb82-771c-48e7-8186-fa5b30331289-light-flowchart-AsyncRollup-27" data-look="classic" transform="translate(1166.984375, 1450.3156356811523)"><rect class="basic label-container" style="" x="-109.5703125" y="-33.29999923706055" width="219.140625" height="66.5999984741211"></rect><g class="label" style="" transform="translate(0, -18.299999237060547)"><rect></rect><g><rect class="background" style="stroke: none"></rect><text y="-10.1" style=""><tspan class="text-outer-tspan row" x="0" y="-0.1em" dy="1.1em"><tspan font-style="normal" class="text-inner-tspan" font-weight="normal">Random</tspan><tspan font-style="normal" class="text-inner-tspan" font-weight="normal"> sharding</tspan></tspan><tspan class="text-outer-tspan row" x="0" y="1em" dy="1.1em"><tspan font-style="normal" class="text-inner-tspan" font-weight="normal">+</tspan><tspan font-style="normal" class="text-inner-tspan" font-weight="normal"> async</tspan><tspan font-style="normal" class="text-inner-tspan" font-weight="normal"> rollup</tspan><tspan font-style="normal" class="text-inner-tspan" font-weight="normal"> +</tspan><tspan font-style="normal" class="text-inner-tspan" font-weight="normal"> cache</tspan></tspan></text></g></g></g><g class="node default" id="g54dfdb82-771c-48e7-8186-fa5b30331289-light-flowchart-Hybrid-29" data-look="classic" transform="translate(1421.203125, 1450.3156356811523)"><rect class="basic label-container" style="" x="-94.6484375" y="-42.099998474121094" width="189.296875" height="84.19999694824219"></rect><g class="label" style="" transform="translate(0, -27.099998474121094)"><rect></rect><g><rect class="background" style="stroke: none"></rect><text y="-10.1" style=""><tspan class="text-outer-tspan row" x="0" y="-0.1em" dy="1.1em"><tspan font-style="normal" class="text-inner-tspan" font-weight="normal">Hybrid:</tspan><tspan font-style="normal" class="text-inner-tspan" font-weight="normal"> pre-rollup</tspan></tspan><tspan class="text-outer-tspan row" x="0" y="1em" dy="1.1em"><tspan font-style="normal" class="text-inner-tspan" font-weight="normal">+</tspan><tspan font-style="normal" class="text-inner-tspan" font-weight="normal"> live</tspan><tspan font-style="normal" class="text-inner-tspan" font-weight="normal"> event</tspan><tspan font-style="normal" class="text-inner-tspan" font-weight="normal"> tail</tspan></tspan><tspan class="text-outer-tspan row" x="0" y="2.1em" dy="1.1em"><tspan font-style="normal" class="text-inner-tspan" font-weight="normal">(Netflix-style)</tspan></tspan></text></g></g></g></g></g></g><defs><filter id="g54dfdb82-771c-48e7-8186-fa5b30331289-light-drop-shadow" height="130%" width="130%"><feDropShadow dx="4" dy="4" stdDeviation="0" flood-opacity="0.06" flood-color="#000000"></feDropShadow></filter></defs><defs><filter id="g54dfdb82-771c-48e7-8186-fa5b30331289-light-drop-shadow-small" height="150%" width="150%"><feDropShadow dx="2" dy="2" stdDeviation="0" flood-opacity="0.06" flood-color="#000000"></feDropShadow></filter></defs></svg>