<svg id="gba3443e7-3490-4c28-ad4b-dcf826e1b197-dark" width="100%" xmlns="http://www.w3.org/2000/svg" xmlns:xlink="http://www.w3.org/1999/xlink" class="erDiagram" style="max-width: 344.09375px;" viewBox="0 0 344.09375 863.75" role="graphics-document document" aria-roledescription="er"><style>#gba3443e7-3490-4c28-ad4b-dcf826e1b197-dark{font-family:"trebuchet ms",verdana,arial,sans-serif;font-size:16px;fill:#e5e5e5;}@keyframes edge-animation-frame{from{stroke-dashoffset:0;}}@keyframes dash{to{stroke-dashoffset:0;}}#gba3443e7-3490-4c28-ad4b-dcf826e1b197-dark .edge-animation-slow{stroke-dasharray:9,5!important;stroke-dashoffset:900;animation:dash 50s linear infinite;stroke-linecap:round;}#gba3443e7-3490-4c28-ad4b-dcf826e1b197-dark .edge-animation-fast{stroke-dasharray:9,5!important;stroke-dashoffset:900;animation:dash 20s linear infinite;stroke-linecap:round;}#gba3443e7-3490-4c28-ad4b-dcf826e1b197-dark .error-icon{fill:#252525;}#gba3443e7-3490-4c28-ad4b-dcf826e1b197-dark .error-text{fill:#cccccc;stroke:#cccccc;}#gba3443e7-3490-4c28-ad4b-dcf826e1b197-dark .edge-thickness-normal{stroke-width:1px;}#gba3443e7-3490-4c28-ad4b-dcf826e1b197-dark .edge-thickness-thick{stroke-width:3.5px;}#gba3443e7-3490-4c28-ad4b-dcf826e1b197-dark .edge-pattern-solid{stroke-dasharray:0;}#gba3443e7-3490-4c28-ad4b-dcf826e1b197-dark .edge-thickness-invisible{stroke-width:0;fill:none;}#gba3443e7-3490-4c28-ad4b-dcf826e1b197-dark .edge-pattern-dashed{stroke-dasharray:3;}#gba3443e7-3490-4c28-ad4b-dcf826e1b197-dark .edge-pattern-dotted{stroke-dasharray:2;}#gba3443e7-3490-4c28-ad4b-dcf826e1b197-dark .marker{fill:#cccccc;stroke:#cccccc;}#gba3443e7-3490-4c28-ad4b-dcf826e1b197-dark .marker.cross{stroke:#cccccc;}#gba3443e7-3490-4c28-ad4b-dcf826e1b197-dark svg{font-family:"trebuchet ms",verdana,arial,sans-serif;font-size:16px;}#gba3443e7-3490-4c28-ad4b-dcf826e1b197-dark p{margin:0;}#gba3443e7-3490-4c28-ad4b-dcf826e1b197-dark .entityBox{fill:#2d2d2d;stroke:#555555;}#gba3443e7-3490-4c28-ad4b-dcf826e1b197-dark .relationshipLabelBox{fill:#252525;opacity:0.7;background-color:#252525;}#gba3443e7-3490-4c28-ad4b-dcf826e1b197-dark .relationshipLabelBox rect{opacity:0.5;}#gba3443e7-3490-4c28-ad4b-dcf826e1b197-dark .labelBkg{background-color:rgba(37, 37, 37, 0.5);}#gba3443e7-3490-4c28-ad4b-dcf826e1b197-dark .edgeLabel{background-color:#1e1e1e;}#gba3443e7-3490-4c28-ad4b-dcf826e1b197-dark .edgeLabel .label rect{fill:#1e1e1e;}#gba3443e7-3490-4c28-ad4b-dcf826e1b197-dark .edgeLabel .label text{fill:#e5e5e5;}#gba3443e7-3490-4c28-ad4b-dcf826e1b197-dark .edgeLabel .label{fill:#555555;font-size:14px;}#gba3443e7-3490-4c28-ad4b-dcf826e1b197-dark .label{font-family:"trebuchet ms",verdana,arial,sans-serif;color:#e5e5e5;}#gba3443e7-3490-4c28-ad4b-dcf826e1b197-dark .edge-pattern-dashed{stroke-dasharray:8,8;}#gba3443e7-3490-4c28-ad4b-dcf826e1b197-dark .node rect,#gba3443e7-3490-4c28-ad4b-dcf826e1b197-dark .node circle,#gba3443e7-3490-4c28-ad4b-dcf826e1b197-dark .node ellipse,#gba3443e7-3490-4c28-ad4b-dcf826e1b197-dark .node polygon{fill:#2d2d2d;stroke:#555555;stroke-width:1px;}#gba3443e7-3490-4c28-ad4b-dcf826e1b197-dark .relationshipLine{stroke:#cccccc;stroke-width:1px;fill:none;}#gba3443e7-3490-4c28-ad4b-dcf826e1b197-dark .marker{fill:none!important;stroke:#cccccc!important;stroke-width:1;}#gba3443e7-3490-4c28-ad4b-dcf826e1b197-dark [data-look=neo].labelBkg{background-color:rgba(37, 37, 37, 0.5);}#gba3443e7-3490-4c28-ad4b-dcf826e1b197-dark .node .neo-node{stroke:#555555;}#gba3443e7-3490-4c28-ad4b-dcf826e1b197-dark [data-look="neo"].node rect,#gba3443e7-3490-4c28-ad4b-dcf826e1b197-dark [data-look="neo"].cluster rect,#gba3443e7-3490-4c28-ad4b-dcf826e1b197-dark [data-look="neo"].node polygon{stroke:url(#gba3443e7-3490-4c28-ad4b-dcf826e1b197-dark-gradient);filter:drop-shadow( 1px 2px 2px rgba(185,185,185,1));}#gba3443e7-3490-4c28-ad4b-dcf826e1b197-dark [data-look="neo"].node path{stroke:url(#gba3443e7-3490-4c28-ad4b-dcf826e1b197-dark-gradient);stroke-width:1px;}#gba3443e7-3490-4c28-ad4b-dcf826e1b197-dark [data-look="neo"].node .outer-path{filter:drop-shadow( 1px 2px 2px rgba(185,185,185,1));}#gba3443e7-3490-4c28-ad4b-dcf826e1b197-dark [data-look="neo"].node .neo-line path{stroke:#555555;filter:none;}#gba3443e7-3490-4c28-ad4b-dcf826e1b197-dark [data-look="neo"].node circle{stroke:url(#gba3443e7-3490-4c28-ad4b-dcf826e1b197-dark-gradient);filter:drop-shadow( 1px 2px 2px rgba(185,185,185,1));}#gba3443e7-3490-4c28-ad4b-dcf826e1b197-dark [data-look="neo"].node circle .state-start{fill:#000000;}#gba3443e7-3490-4c28-ad4b-dcf826e1b197-dark [data-look="neo"].icon-shape .icon{fill:url(#gba3443e7-3490-4c28-ad4b-dcf826e1b197-dark-gradient);filter:drop-shadow( 1px 2px 2px rgba(185,185,185,1));}#gba3443e7-3490-4c28-ad4b-dcf826e1b197-dark [data-look="neo"].icon-shape .icon-neo path{stroke:url(#gba3443e7-3490-4c28-ad4b-dcf826e1b197-dark-gradient);filter:drop-shadow( 1px 2px 2px rgba(185,185,185,1));}#gba3443e7-3490-4c28-ad4b-dcf826e1b197-dark :root{--mermaid-font-family:"trebuchet ms",verdana,arial,sans-serif;}</style><g><defs><marker id="gba3443e7-3490-4c28-ad4b-dcf826e1b197-dark_er-onlyOneStart" class="marker onlyOne er" refX="0" refY="9" markerWidth="18" markerHeight="18" orient="auto"><path d="M9,0 L9,18 M15,0 L15,18"></path></marker></defs><defs><marker id="gba3443e7-3490-4c28-ad4b-dcf826e1b197-dark_er-onlyOneEnd" class="marker onlyOne er" refX="18" refY="9" markerWidth="18" markerHeight="18" orient="auto"><path d="M3,0 L3,18 M9,0 L9,18"></path></marker></defs><defs><marker id="gba3443e7-3490-4c28-ad4b-dcf826e1b197-dark_er-zeroOrOneStart" class="marker zeroOrOne er" refX="0" refY="9" markerWidth="30" markerHeight="18" orient="auto"><circle fill="white" cx="21" cy="9" r="6"></circle><path d="M9,0 L9,18"></path></marker></defs><defs><marker id="gba3443e7-3490-4c28-ad4b-dcf826e1b197-dark_er-zeroOrOneEnd" class="marker zeroOrOne er" refX="30" refY="9" markerWidth="30" markerHeight="18" orient="auto"><circle fill="white" cx="9" cy="9" r="6"></circle><path d="M21,0 L21,18"></path></marker></defs><defs><marker id="gba3443e7-3490-4c28-ad4b-dcf826e1b197-dark_er-oneOrMoreStart" class="marker oneOrMore er" refX="18" refY="18" markerWidth="45" markerHeight="36" orient="auto"><path d="M0,18 Q 18,0 36,18 Q 18,36 0,18 M42,9 L42,27"></path></marker></defs><defs><marker id="gba3443e7-3490-4c28-ad4b-dcf826e1b197-dark_er-oneOrMoreEnd" class="marker oneOrMore er" refX="27" refY="18" markerWidth="45" markerHeight="36" orient="auto"><path d="M3,9 L3,27 M9,18 Q27,0 45,18 Q27,36 9,18"></path></marker></defs><defs><marker id="gba3443e7-3490-4c28-ad4b-dcf826e1b197-dark_er-zeroOrMoreStart" class="marker zeroOrMore er" refX="18" refY="18" markerWidth="57" markerHeight="36" orient="auto"><circle fill="white" cx="48" cy="18" r="6"></circle><path d="M0,18 Q18,0 36,18 Q18,36 0,18"></path></marker></defs><defs><marker id="gba3443e7-3490-4c28-ad4b-dcf826e1b197-dark_er-zeroOrMoreEnd" class="marker zeroOrMore er" refX="39" refY="18" markerWidth="57" markerHeight="36" orient="auto"><circle fill="white" cx="9" cy="18" r="6"></circle><path d="M21,18 Q39,0 57,18 Q39,36 21,18"></path></marker></defs><g class="root"><g class="clusters"></g><g class="edgePaths"><path d="M179.505,159L186.189,167.583C192.873,176.167,206.241,193.333,212.925,210.5C219.609,227.667,219.609,244.833,219.609,253.417L219.609,262" id="gba3443e7-3490-4c28-ad4b-dcf826e1b197-dark-id_entity-PROJECT-0_entity-STATUS-1_0" class="edge-thickness-normal edge-pattern-solid relationshipLine" style="undefined;;;undefined" data-edge="true" data-et="edge" data-id="id_entity-PROJECT-0_entity-STATUS-1_0" data-points="W3sieCI6MTc5LjUwNDg5MDUwMTk2ODUsInkiOjE1OX0seyJ4IjoyMTkuNjA5Mzc1LCJ5IjoyMTAuNX0seyJ4IjoyMTkuNjA5Mzc1LCJ5IjoyNjJ9XQ==" data-look="classic" marker-start="url(#gba3443e7-3490-4c28-ad4b-dcf826e1b197-dark_er-onlyOneStart)" marker-end="url(#gba3443e7-3490-4c28-ad4b-dcf826e1b197-dark_er-zeroOrMoreEnd)"></path><path d="M61.917,159L55.233,167.583C48.549,176.167,35.181,193.333,28.497,229.375C21.813,265.417,21.813,320.333,21.813,375.25C21.813,430.167,21.813,485.083,27.347,521.125C32.881,557.167,43.95,574.333,49.484,582.917L55.019,591.5" id="gba3443e7-3490-4c28-ad4b-dcf826e1b197-dark-id_entity-PROJECT-0_entity-WORKFLOW_TRANSITION-2_1" class="edge-thickness-normal edge-pattern-solid relationshipLine" style="undefined;;;undefined" data-edge="true" data-et="edge" data-id="id_entity-PROJECT-0_entity-WORKFLOW_TRANSITION-2_1" data-points="W3sieCI6NjEuOTE2OTg0NDk4MDMxNDk2LCJ5IjoxNTl9LHsieCI6MjEuODEyNSwieSI6MjEwLjV9LHsieCI6MjEuODEyNSwieSI6Mzc1LjI1fSx7IngiOjIxLjgxMjUsInkiOjU0MH0seyJ4Ijo1NS4wMTg4NjkxMjg2NTg5NSwieSI6NTkxLjV9XQ==" data-look="classic" marker-start="url(#gba3443e7-3490-4c28-ad4b-dcf826e1b197-dark_er-onlyOneStart)" marker-end="url(#gba3443e7-3490-4c28-ad4b-dcf826e1b197-dark_er-zeroOrMoreEnd)"></path><path d="M165.03,488.5L160.894,497.083C156.757,505.667,148.484,522.833,144.348,540C140.211,557.167,140.211,574.333,140.211,582.917L140.211,591.5" id="gba3443e7-3490-4c28-ad4b-dcf826e1b197-dark-id_entity-STATUS-1_entity-WORKFLOW_TRANSITION-2_2" class="edge-thickness-normal edge-pattern-solid relationshipLine" style="undefined;;;undefined" data-edge="true" data-et="edge" data-id="id_entity-STATUS-1_entity-WORKFLOW_TRANSITION-2_2" data-points="W3sieCI6MTY1LjAzMDQ3OTQxOTU3NTEsInkiOjQ4OC41fSx7IngiOjE0MC4yMTA5Mzc1LCJ5Ijo1NDB9LHsieCI6MTQwLjIxMDkzNzUsInkiOjU5MS41fV0=" data-look="classic" marker-start="url(#gba3443e7-3490-4c28-ad4b-dcf826e1b197-dark_er-onlyOneStart)" marker-end="url(#gba3443e7-3490-4c28-ad4b-dcf826e1b197-dark_er-zeroOrMoreEnd)"></path><path d="M236.268,488.5L237.531,497.083C238.793,505.667,241.319,522.833,237.737,540C234.155,557.167,224.467,574.333,219.623,582.917L214.779,591.5" id="gba3443e7-3490-4c28-ad4b-dcf826e1b197-dark-id_entity-STATUS-1_entity-WORKFLOW_TRANSITION-2_3" class="edge-thickness-normal edge-pattern-solid relationshipLine" style="undefined;;;undefined" data-edge="true" data-et="edge" data-id="id_entity-STATUS-1_entity-WORKFLOW_TRANSITION-2_3" data-points="W3sieCI6MjM2LjI2ODIwOTQwODE5NDIyLCJ5Ijo0ODguNX0seyJ4IjoyNDMuODQzNzUsInkiOjU0MH0seyJ4IjoyMTQuNzc4NTkwODc4MTQ4NCwieSI6NTkxLjV9XQ==" data-look="classic" marker-start="url(#gba3443e7-3490-4c28-ad4b-dcf826e1b197-dark_er-onlyOneStart)" marker-end="url(#gba3443e7-3490-4c28-ad4b-dcf826e1b197-dark_er-zeroOrMoreEnd)"></path></g><g class="edgeLabels"><g class="edgeLabel" transform="translate(219.609375, 210.5)"><g class="label" data-id="id_entity-PROJECT-0_entity-STATUS-1_0" transform="translate(0, -9.000000476837158)"><g><rect class="background" style="" x="-13.8125" y="-1" width="27.625" height="23"></rect><text y="-10.1" text-anchor="middle" style=""><tspan class="text-outer-tspan row" x="0" y="-0.1em" dy="1.1em" text-anchor="middle"><tspan font-style="normal" class="text-inner-tspan" font-weight="normal">has</tspan></tspan></text></g></g></g><g class="edgeLabel" transform="translate(21.8125, 375.25)"><g class="label" data-id="id_entity-PROJECT-0_entity-WORKFLOW_TRANSITION-2_1" transform="translate(0, -9.000000476837158)"><g><rect class="background" style="" x="-13.8125" y="-1" width="27.625" height="23"></rect><text y="-10.1" text-anchor="middle" style=""><tspan class="text-outer-tspan row" x="0" y="-0.1em" dy="1.1em" text-anchor="middle"><tspan font-style="normal" class="text-inner-tspan" font-weight="normal">has</tspan></tspan></text></g></g></g><g class="edgeLabel" transform="translate(140.2109375, 540)"><g class="label" data-id="id_entity-STATUS-1_entity-WORKFLOW_TRANSITION-2_2" transform="translate(0, -9.000000476837158)"><g><rect class="background" style="" x="-19" y="-1" width="38" height="23"></rect><text y="-10.1" text-anchor="middle" style=""><tspan class="text-outer-tspan row" x="0" y="-0.1em" dy="1.1em" text-anchor="middle"><tspan font-style="normal" class="text-inner-tspan" font-weight="normal">from</tspan></tspan></text></g></g></g><g class="edgeLabel" transform="translate(243.84375, 540)"><g class="label" data-id="id_entity-STATUS-1_entity-WORKFLOW_TRANSITION-2_3" transform="translate(0, -9.000000476837158)"><g><rect class="background" style="" x="-9.46875" y="-1" width="18.9375" height="23"></rect><text y="-10.1" text-anchor="middle" style=""><tspan class="text-outer-tspan row" x="0" y="-0.1em" dy="1.1em" text-anchor="middle"><tspan font-style="normal" class="text-inner-tspan" font-weight="normal">to</tspan></tspan></text></g></g></g></g><g class="nodes"><g class="node default" id="gba3443e7-3490-4c28-ad4b-dcf826e1b197-dark-entity-PROJECT-0" data-look="classic" transform="translate(120.7109375, 83.5)"><g class="outer-path" style=""><path d="M-86.3359375 -75.5 L86.3359375 -75.5 L86.3359375 75.5 L-86.3359375 75.5" stroke="none" stroke-width="0" fill="#2d2d2d"></path><path d="M-86.3359375 -75.5 C-42.92394207163457 -75.5, 0.4880533567308589 -75.5, 86.3359375 -75.5 M-86.3359375 -75.5 C-28.88663976894692 -75.5, 28.562657962106158 -75.5, 86.3359375 -75.5 M86.3359375 -75.5 C86.3359375 -31.67227886765096, 86.3359375 12.155442264698081, 86.3359375 75.5 M86.3359375 -75.5 C86.3359375 -28.149600704410346, 86.3359375 19.200798591179307, 86.3359375 75.5 M86.3359375 75.5 C25.97252761579262 75.5, -34.39088226841476 75.5, -86.3359375 75.5 M86.3359375 75.5 C25.49997637661822 75.5, -35.33598474676356 75.5, -86.3359375 75.5 M-86.3359375 75.5 C-86.3359375 16.929630735582904, -86.3359375 -41.64073852883419, -86.3359375 -75.5 M-86.3359375 75.5 C-86.3359375 15.334019915420747, -86.3359375 -44.831960169158506, -86.3359375 -75.5" stroke="#555555" stroke-width="1.3" fill="none" stroke-dasharray="0 0"></path></g><g style="" class="row-rect-odd"><path d="M-86.3359375 -37.75 L86.3359375 -37.75 L86.3359375 0 L-86.3359375 0" stroke="none" stroke-width="0" fill="hsl(0, 0%, 92.6470588235%)"></path><path d="M-86.3359375 -37.75 C-28.993624384323212 -37.75, 28.348688731353576 -37.75, 86.3359375 -37.75 M-86.3359375 -37.75 C-38.92670798447404 -37.75, 8.482521531051916 -37.75, 86.3359375 -37.75 M86.3359375 -37.75 C86.3359375 -24.634412196288785, 86.3359375 -11.51882439257757, 86.3359375 0 M86.3359375 -37.75 C86.3359375 -23.099342279515415, 86.3359375 -8.44868455903083, 86.3359375 0 M86.3359375 0 C36.27987708249594 0, -13.776183335008113 0, -86.3359375 0 M86.3359375 0 C37.31247834563623 0, -11.710980808727541 0, -86.3359375 0 M-86.3359375 0 C-86.3359375 -11.705703484399578, -86.3359375 -23.411406968799156, -86.3359375 -37.75 M-86.3359375 0 C-86.3359375 -14.035921572477656, -86.3359375 -28.071843144955313, -86.3359375 -37.75" stroke="#555555" stroke-width="1.3" fill="none" stroke-dasharray="0 0"></path></g><g style="" class="row-rect-even"><path d="M-86.3359375 0 L86.3359375 0 L86.3359375 37.75 L-86.3359375 37.75" stroke="none" stroke-width="0" fill="hsl(0, 0%, 22.6470588235%)"></path><path d="M-86.3359375 0 C-24.785552821108695 0, 36.76483185778261 0, 86.3359375 0 M-86.3359375 0 C-47.77143868446695 0, -9.206939868933901 0, 86.3359375 0 M86.3359375 0 C86.3359375 11.297668670185978, 86.3359375 22.595337340371955, 86.3359375 37.75 M86.3359375 0 C86.3359375 10.909779509638732, 86.3359375 21.819559019277463, 86.3359375 37.75 M86.3359375 37.75 C37.55431142126336 37.75, -11.227314657473286 37.75, -86.3359375 37.75 M86.3359375 37.75 C39.36420862280126 37.75, -7.607520254397485 37.75, -86.3359375 37.75 M-86.3359375 37.75 C-86.3359375 26.988196003603115, -86.3359375 16.226392007206226, -86.3359375 0 M-86.3359375 37.75 C-86.3359375 28.966492092570448, -86.3359375 20.182984185140892, -86.3359375 0" stroke="#555555" stroke-width="1.3" fill="none" stroke-dasharray="0 0"></path></g><g style="" class="row-rect-odd"><path d="M-86.3359375 37.75 L86.3359375 37.75 L86.3359375 75.5 L-86.3359375 75.5" stroke="none" stroke-width="0" fill="hsl(0, 0%, 92.6470588235%)"></path><path d="M-86.3359375 37.75 C-23.488678846173308 37.75, 39.358579807653385 37.75, 86.3359375 37.75 M-86.3359375 37.75 C-39.09107271979136 37.75, 8.153792060417274 37.75, 86.3359375 37.75 M86.3359375 37.75 C86.3359375 51.75585251165612, 86.3359375 65.76170502331225, 86.3359375 75.5 M86.3359375 37.75 C86.3359375 50.473640050594625, 86.3359375 63.19728010118925, 86.3359375 75.5 M86.3359375 75.5 C34.888424869194886 75.5, -16.55908776161023 75.5, -86.3359375 75.5 M86.3359375 75.5 C40.39057493793189 75.5, -5.554787624136225 75.5, -86.3359375 75.5 M-86.3359375 75.5 C-86.3359375 65.9838952689198, -86.3359375 56.46779053783958, -86.3359375 37.75 M-86.3359375 75.5 C-86.3359375 67.6281678380774, -86.3359375 59.756335676154805, -86.3359375 37.75" stroke="#555555" stroke-width="1.3" fill="none" stroke-dasharray="0 0"></path></g><g class="label name" transform="translate(-32.0390625, -66.125)" style=""><g><rect class="background" style="stroke: none"></rect></g><text y="-10.1" style=""><tspan class="text-outer-tspan row" x="0" y="-0.1em" dy="1.1em"><tspan font-style="normal" class="text-inner-tspan" font-weight="normal">PROJECT</tspan></tspan></text></g><g class="label attribute-type" transform="translate(-73.8359375, -28.375)" style=""><g><rect class="background" style="stroke: none"></rect></g><text y="-10.1" style=""><tspan class="text-outer-tspan row" x="0" y="-0.1em" dy="1.1em"><tspan font-style="normal" class="text-inner-tspan" font-weight="normal">uuid</tspan></tspan></text></g><g class="label attribute-name" transform="translate(-8.4609375, -28.375)" style=""><g><rect class="background" style="stroke: none"></rect></g><text y="-10.1" style=""><tspan class="text-outer-tspan row" x="0" y="-0.1em" dy="1.1em"><tspan font-style="normal" class="text-inner-tspan" font-weight="normal">id</tspan></tspan></text></g><g class="label attribute-keys" transform="translate(55.6953125, -28.375)" style=""><g><rect class="background" style="stroke: none"></rect></g><text y="-10.1" style=""><tspan class="text-outer-tspan row" x="0" y="-0.1em" dy="1.1em"><tspan font-style="normal" class="text-inner-tspan" font-weight="normal">PK</tspan></tspan></text></g><g class="label attribute-comment" transform="translate(98.8359375, -28.375)" style=""><g><rect class="background" style="stroke: none"></rect></g><text y="-10.1" style=""><tspan class="text-outer-tspan row" x="0" y="-0.1em" dy="1.1em"></tspan></text></g><g class="label attribute-type" transform="translate(-73.8359375, 9.375)" style=""><g><rect class="background" style="stroke: none"></rect></g><text y="-10.1" style=""><tspan class="text-outer-tspan row" x="0" y="-0.1em" dy="1.1em"><tspan font-style="normal" class="text-inner-tspan" font-weight="normal">string</tspan></tspan></text></g><g class="label attribute-name" transform="translate(-8.4609375, 9.375)" style=""><g><rect class="background" style="stroke: none"></rect></g><text y="-10.1" style=""><tspan class="text-outer-tspan row" x="0" y="-0.1em" dy="1.1em"><tspan font-style="normal" class="text-inner-tspan" font-weight="normal">key</tspan></tspan></text></g><g class="label attribute-keys" transform="translate(55.6953125, 9.375)" style=""><g><rect class="background" style="stroke: none"></rect></g><text y="-10.1" style=""><tspan class="text-outer-tspan row" x="0" y="-0.1em" dy="1.1em"></tspan></text></g><g class="label attribute-comment" transform="translate(98.8359375, 9.375)" style=""><g><rect class="background" style="stroke: none"></rect></g><text y="-10.1" style=""><tspan class="text-outer-tspan row" x="0" y="-0.1em" dy="1.1em"></tspan></text></g><g class="label attribute-type" transform="translate(-73.8359375, 47.125)" style=""><g><rect class="background" style="stroke: none"></rect></g><text y="-10.1" style=""><tspan class="text-outer-tspan row" x="0" y="-0.1em" dy="1.1em"><tspan font-style="normal" class="text-inner-tspan" font-weight="normal">string</tspan></tspan></text></g><g class="label attribute-name" transform="translate(-8.4609375, 47.125)" style=""><g><rect class="background" style="stroke: none"></rect></g><text y="-10.1" style=""><tspan class="text-outer-tspan row" x="0" y="-0.1em" dy="1.1em"><tspan font-style="normal" class="text-inner-tspan" font-weight="normal">name</tspan></tspan></text></g><g class="label attribute-keys" transform="translate(55.6953125, 47.125)" style=""><g><rect class="background" style="stroke: none"></rect></g><text y="-10.1" style=""><tspan class="text-outer-tspan row" x="0" y="-0.1em" dy="1.1em"></tspan></text></g><g class="label attribute-comment" transform="translate(98.8359375, 47.125)" style=""><g><rect class="background" style="stroke: none"></rect></g><text y="-10.1" style=""><tspan class="text-outer-tspan row" x="0" y="-0.1em" dy="1.1em"></tspan></text></g><g class="divider"><path d="M-86.3359375 -37.75005 L-86.3359375 -37.74995 L86.3359375 -37.74995 L86.3359375 -37.75005" stroke="none" stroke-width="0" fill="#2d2d2d" fill-rule="evenodd"></path><path d="M-86.3359375 -37.75005 C-86.3359375 -37.75001238755459, -86.3359375 -37.74997477510917, -86.3359375 -37.74995 M-86.3359375 -37.75005 C-86.3359375 -37.750025020329645, -86.3359375 -37.75000004065928, -86.3359375 -37.74995 M-86.3359375 -37.74995 C-20.43170191963847 -37.74995, 45.47253366072306 -37.74995, 86.3359375 -37.74995 M-86.3359375 -37.74995 C-49.63545298019124 -37.74995, -12.934968460382478 -37.74995, 86.3359375 -37.74995 M86.3359375 -37.74995 C86.3359375 -37.74998392853455, 86.3359375 -37.750017857069096, 86.3359375 -37.75005 M86.3359375 -37.74995 C86.3359375 -37.74997057124446, 86.3359375 -37.749991142488916, 86.3359375 -37.75005 M86.3359375 -37.75005 C27.794426553116814 -37.75005, -30.74708439376637 -37.75005, -86.3359375 -37.75005 M86.3359375 -37.75005 C42.0384978319252 -37.75005, -2.258941836149603 -37.75005, -86.3359375 -37.75005" stroke="#555555" stroke-width="1.3" fill="none" stroke-dasharray="0 0"></path></g><g class="divider"><path d="M-20.9609875 -37.75 L-20.9608875 -37.75 L-20.9608875 75.5 L-20.9609875 75.5" stroke="none" stroke-width="0" fill="#2d2d2d" fill-rule="evenodd"></path><path d="M-20.9609875 -37.75 C-20.96094890513513 -37.75, -20.96091031027026 -37.75, -20.9608875 -37.75 M-20.9609875 -37.75 C-20.960958505946767 -37.75, -20.96092951189353 -37.75, -20.9608875 -37.75 M-20.9608875 -37.75 C-20.9608875 -12.595837440138865, -20.9608875 12.55832511972227, -20.9608875 75.5 M-20.9608875 -37.75 C-20.9608875 -3.5545432003027244, -20.9608875 30.64091359939455, -20.9608875 75.5 M-20.9608875 75.5 C-20.960921658592415 75.5, -20.960955817184832 75.5, -20.9609875 75.5 M-20.9608875 75.5 C-20.96091002130044 75.5, -20.960932542600876 75.5, -20.9609875 75.5 M-20.9609875 75.5 C-20.9609875 33.82192885531888, -20.9609875 -7.856142289362239, -20.9609875 -37.75 M-20.9609875 75.5 C-20.9609875 37.74439941319081, -20.9609875 -0.011201173618374582, -20.9609875 -37.75" stroke="#555555" stroke-width="1.3" fill="none" stroke-dasharray="0 0"></path></g><g class="divider"><path d="M43.1952625 -37.75 L43.1953625 -37.75 L43.1953625 75.5 L43.1952625 75.5" stroke="none" stroke-width="0" fill="#2d2d2d" fill-rule="evenodd"></path><path d="M43.1952625 -37.75 C43.195282508264725 -37.75, 43.195302516529445 -37.75, 43.1953625 -37.75 M43.1952625 -37.75 C43.195285939433774 -37.75, 43.195309378867556 -37.75, 43.1953625 -37.75 M43.1953625 -37.75 C43.1953625 2.2999900635545956, 43.1953625 42.34998012710919, 43.1953625 75.5 M43.1953625 -37.75 C43.1953625 -3.8905530503878296, 43.1953625 29.96889389922434, 43.1953625 75.5 M43.1953625 75.5 C43.195333798346574 75.5, 43.19530509669315 75.5, 43.1952625 75.5 M43.1953625 75.5 C43.195338186868284 75.5, 43.195313873736566 75.5, 43.1952625 75.5 M43.1952625 75.5 C43.1952625 42.17868965989058, 43.1952625 8.85737931978116, 43.1952625 -37.75 M43.1952625 75.5 C43.1952625 34.51728590266861, 43.1952625 -6.465428194662778, 43.1952625 -37.75" stroke="#555555" stroke-width="1.3" fill="none" stroke-dasharray="0 0"></path></g><g class="divider"><path d="M-86.3359375 -37.75005 L-86.3359375 -37.74995 L86.3359375 -37.74995 L86.3359375 -37.75005" stroke="none" stroke-width="0" fill="#2d2d2d" fill-rule="evenodd"></path><path d="M-86.3359375 -37.75005 C-86.3359375 -37.750022370239165, -86.3359375 -37.74999474047833, -86.3359375 -37.74995 M-86.3359375 -37.75005 C-86.3359375 -37.75001784539753, -86.3359375 -37.749985690795064, -86.3359375 -37.74995 M-86.3359375 -37.74995 C-38.66292924753505 -37.74995, 9.010079004929906 -37.74995, 86.3359375 -37.74995 M-86.3359375 -37.74995 C-35.586046237799536 -37.74995, 15.163845024400928 -37.74995, 86.3359375 -37.74995 M86.3359375 -37.74995 C86.3359375 -37.74997928457118, 86.3359375 -37.75000856914236, 86.3359375 -37.75005 M86.3359375 -37.74995 C86.3359375 -37.7499756126294, 86.3359375 -37.750001225258806, 86.3359375 -37.75005 M86.3359375 -37.75005 C33.152440992652046 -37.75005, -20.031055514695908 -37.75005, -86.3359375 -37.75005 M86.3359375 -37.75005 C19.326359205306645 -37.75005, -47.68321908938671 -37.75005, -86.3359375 -37.75005" stroke="#555555" stroke-width="1.3" fill="none" stroke-dasharray="0 0"></path></g></g><g class="node default" id="gba3443e7-3490-4c28-ad4b-dcf826e1b197-dark-entity-STATUS-1" data-look="classic" transform="translate(219.609375, 375.25)"><g class="outer-path" style=""><path d="M-103.984375 -113.25 L103.984375 -113.25 L103.984375 113.25 L-103.984375 113.25" stroke="none" stroke-width="0" fill="#2d2d2d"></path><path d="M-103.984375 -113.25 C-39.740749286449685 -113.25, 24.50287642710063 -113.25, 103.984375 -113.25 M-103.984375 -113.25 C-52.13761862901182 -113.25, -0.29086225802363685 -113.25, 103.984375 -113.25 M103.984375 -113.25 C103.984375 -43.03012051649712, 103.984375 27.18975896700576, 103.984375 113.25 M103.984375 -113.25 C103.984375 -29.686382842504585, 103.984375 53.87723431499083, 103.984375 113.25 M103.984375 113.25 C37.12749854895459 113.25, -29.729377902090818 113.25, -103.984375 113.25 M103.984375 113.25 C48.022463359481634 113.25, -7.939448281036732 113.25, -103.984375 113.25 M-103.984375 113.25 C-103.984375 23.770783748207876, -103.984375 -65.70843250358425, -103.984375 -113.25 M-103.984375 113.25 C-103.984375 52.71224012338616, -103.984375 -7.825519753227681, -103.984375 -113.25" stroke="#555555" stroke-width="1.3" fill="none" stroke-dasharray="0 0"></path></g><g style="" class="row-rect-odd"><path d="M-103.984375 -75.5 L103.984375 -75.5 L103.984375 -37.75 L-103.984375 -37.75" stroke="none" stroke-width="0" fill="hsl(0, 0%, 92.6470588235%)"></path><path d="M-103.984375 -75.5 C-30.29179156375193 -75.5, 43.40079187249614 -75.5, 103.984375 -75.5 M-103.984375 -75.5 C-53.98297237899708 -75.5, -3.9815697579941656 -75.5, 103.984375 -75.5 M103.984375 -75.5 C103.984375 -62.39742074655862, 103.984375 -49.29484149311725, 103.984375 -37.75 M103.984375 -75.5 C103.984375 -64.25805564759423, 103.984375 -53.01611129518845, 103.984375 -37.75 M103.984375 -37.75 C21.701106739549388 -37.75, -60.582161520901224 -37.75, -103.984375 -37.75 M103.984375 -37.75 C34.59688863720737 -37.75, -34.79059772558526 -37.75, -103.984375 -37.75 M-103.984375 -37.75 C-103.984375 -52.27034698067266, -103.984375 -66.79069396134533, -103.984375 -75.5 M-103.984375 -37.75 C-103.984375 -48.97571679272869, -103.984375 -60.20143358545738, -103.984375 -75.5" stroke="#555555" stroke-width="1.3" fill="none" stroke-dasharray="0 0"></path></g><g style="" class="row-rect-even"><path d="M-103.984375 -37.75 L103.984375 -37.75 L103.984375 0 L-103.984375 0" stroke="none" stroke-width="0" fill="hsl(0, 0%, 22.6470588235%)"></path><path d="M-103.984375 -37.75 C-56.072946308469156 -37.75, -8.161517616938312 -37.75, 103.984375 -37.75 M-103.984375 -37.75 C-58.24457851766859 -37.75, -12.504782035337186 -37.75, 103.984375 -37.75 M103.984375 -37.75 C103.984375 -22.876926207809564, 103.984375 -8.003852415619129, 103.984375 0 M103.984375 -37.75 C103.984375 -29.49634080452787, 103.984375 -21.24268160905574, 103.984375 0 M103.984375 0 C55.04536072824978 0, 6.1063464564995655 0, -103.984375 0 M103.984375 0 C43.317044059858866 0, -17.35028688028227 0, -103.984375 0 M-103.984375 0 C-103.984375 -14.261633253337216, -103.984375 -28.52326650667443, -103.984375 -37.75 M-103.984375 0 C-103.984375 -13.625935687363121, -103.984375 -27.251871374726242, -103.984375 -37.75" stroke="#555555" stroke-width="1.3" fill="none" stroke-dasharray="0 0"></path></g><g style="" class="row-rect-odd"><path d="M-103.984375 0 L103.984375 0 L103.984375 37.75 L-103.984375 37.75" stroke="none" stroke-width="0" fill="hsl(0, 0%, 92.6470588235%)"></path><path d="M-103.984375 0 C-55.17340167084756 0, -6.3624283416951215 0, 103.984375 0 M-103.984375 0 C-21.04344202981075 0, 61.8974909403785 0, 103.984375 0 M103.984375 0 C103.984375 10.349546267360795, 103.984375 20.69909253472159, 103.984375 37.75 M103.984375 0 C103.984375 11.089181800231673, 103.984375 22.178363600463346, 103.984375 37.75 M103.984375 37.75 C51.32138800087569 37.75, -1.3415989982486138 37.75, -103.984375 37.75 M103.984375 37.75 C44.14292752492849 37.75, -15.698519950143023 37.75, -103.984375 37.75 M-103.984375 37.75 C-103.984375 24.256626899512167, -103.984375 10.763253799024334, -103.984375 0 M-103.984375 37.75 C-103.984375 28.68006980113497, -103.984375 19.61013960226994, -103.984375 0" stroke="#555555" stroke-width="1.3" fill="none" stroke-dasharray="0 0"></path></g><g style="" class="row-rect-even"><path d="M-103.984375 37.75 L103.984375 37.75 L103.984375 75.5 L-103.984375 75.5" stroke="none" stroke-width="0" fill="hsl(0, 0%, 22.6470588235%)"></path><path d="M-103.984375 37.75 C-51.27057092111522 37.75, 1.443233157769555 37.75, 103.984375 37.75 M-103.984375 37.75 C-40.75463487763088 37.75, 22.475105244738245 37.75, 103.984375 37.75 M103.984375 37.75 C103.984375 48.75789371384179, 103.984375 59.76578742768358, 103.984375 75.5 M103.984375 37.75 C103.984375 47.36838435187677, 103.984375 56.98676870375354, 103.984375 75.5 M103.984375 75.5 C48.93286848494462 75.5, -6.118638030110759 75.5, -103.984375 75.5 M103.984375 75.5 C55.375492798025036 75.5, 6.7666105960500715 75.5, -103.984375 75.5 M-103.984375 75.5 C-103.984375 65.18422252891365, -103.984375 54.868445057827294, -103.984375 37.75 M-103.984375 75.5 C-103.984375 63.1100080218728, -103.984375 50.720016043745595, -103.984375 37.75" stroke="#555555" stroke-width="1.3" fill="none" stroke-dasharray="0 0"></path></g><g style="" class="row-rect-odd"><path d="M-103.984375 75.5 L103.984375 75.5 L103.984375 113.25 L-103.984375 113.25" stroke="none" stroke-width="0" fill="hsl(0, 0%, 92.6470588235%)"></path><path d="M-103.984375 75.5 C-45.79619084896632 75.5, 12.391993302067362 75.5, 103.984375 75.5 M-103.984375 75.5 C-51.7494530137531 75.5, 0.4854689724938055 75.5, 103.984375 75.5 M103.984375 75.5 C103.984375 87.36312502061305, 103.984375 99.22625004122611, 103.984375 113.25 M103.984375 75.5 C103.984375 86.25322962071867, 103.984375 97.00645924143734, 103.984375 113.25 M103.984375 113.25 C45.92541949394582 113.25, -12.133536012108365 113.25, -103.984375 113.25 M103.984375 113.25 C29.775384011831633 113.25, -44.43360697633673 113.25, -103.984375 113.25 M-103.984375 113.25 C-103.984375 100.6721871398449, -103.984375 88.09437427968979, -103.984375 75.5 M-103.984375 113.25 C-103.984375 105.11627933391478, -103.984375 96.98255866782957, -103.984375 75.5" stroke="#555555" stroke-width="1.3" fill="none" stroke-dasharray="0 0"></path></g><g class="label name" transform="translate(-25.3359375, -103.875)" style=""><g><rect class="background" style="stroke: none"></rect></g><text y="-10.1" style=""><tspan class="text-outer-tspan row" x="0" y="-0.1em" dy="1.1em"><tspan font-style="normal" class="text-inner-tspan" font-weight="normal">STATUS</tspan></tspan></text></g><g class="label attribute-type" transform="translate(-91.484375, -66.125)" style=""><g><rect class="background" style="stroke: none"></rect></g><text y="-10.1" style=""><tspan class="text-outer-tspan row" x="0" y="-0.1em" dy="1.1em"><tspan font-style="normal" class="text-inner-tspan" font-weight="normal">uuid</tspan></tspan></text></g><g class="label attribute-name" transform="translate(-26.109375, -66.125)" style=""><g><rect class="background" style="stroke: none"></rect></g><text y="-10.1" style=""><tspan class="text-outer-tspan row" x="0" y="-0.1em" dy="1.1em"><tspan font-style="normal" class="text-inner-tspan" font-weight="normal">id</tspan></tspan></text></g><g class="label attribute-keys" transform="translate(73.34375, -66.125)" style=""><g><rect class="background" style="stroke: none"></rect></g><text y="-10.1" style=""><tspan class="text-outer-tspan row" x="0" y="-0.1em" dy="1.1em"><tspan font-style="normal" class="text-inner-tspan" font-weight="normal">PK</tspan></tspan></text></g><g class="label attribute-comment" transform="translate(116.484375, -66.125)" style=""><g><rect class="background" style="stroke: none"></rect></g><text y="-10.1" style=""><tspan class="text-outer-tspan row" x="0" y="-0.1em" dy="1.1em"></tspan></text></g><g class="label attribute-type" transform="translate(-91.484375, -28.375)" style=""><g><rect class="background" style="stroke: none"></rect></g><text y="-10.1" style=""><tspan class="text-outer-tspan row" x="0" y="-0.1em" dy="1.1em"><tspan font-style="normal" class="text-inner-tspan" font-weight="normal">uuid</tspan></tspan></text></g><g class="label attribute-name" transform="translate(-26.109375, -28.375)" style=""><g><rect class="background" style="stroke: none"></rect></g><text y="-10.1" style=""><tspan class="text-outer-tspan row" x="0" y="-0.1em" dy="1.1em"><tspan font-style="normal" class="text-inner-tspan" font-weight="normal">project_id</tspan></tspan></text></g><g class="label attribute-keys" transform="translate(73.34375, -28.375)" style=""><g><rect class="background" style="stroke: none"></rect></g><text y="-10.1" style=""><tspan class="text-outer-tspan row" x="0" y="-0.1em" dy="1.1em"><tspan font-style="normal" class="text-inner-tspan" font-weight="normal">FK</tspan></tspan></text></g><g class="label attribute-comment" transform="translate(116.484375, -28.375)" style=""><g><rect class="background" style="stroke: none"></rect></g><text y="-10.1" style=""><tspan class="text-outer-tspan row" x="0" y="-0.1em" dy="1.1em"></tspan></text></g><g class="label attribute-type" transform="translate(-91.484375, 9.375)" style=""><g><rect class="background" style="stroke: none"></rect></g><text y="-10.1" style=""><tspan class="text-outer-tspan row" x="0" y="-0.1em" dy="1.1em"><tspan font-style="normal" class="text-inner-tspan" font-weight="normal">string</tspan></tspan></text></g><g class="label attribute-name" transform="translate(-26.109375, 9.375)" style=""><g><rect class="background" style="stroke: none"></rect></g><text y="-10.1" style=""><tspan class="text-outer-tspan row" x="0" y="-0.1em" dy="1.1em"><tspan font-style="normal" class="text-inner-tspan" font-weight="normal">name</tspan></tspan></text></g><g class="label attribute-keys" transform="translate(73.34375, 9.375)" style=""><g><rect class="background" style="stroke: none"></rect></g><text y="-10.1" style=""><tspan class="text-outer-tspan row" x="0" y="-0.1em" dy="1.1em"></tspan></text></g><g class="label attribute-comment" transform="translate(116.484375, 9.375)" style=""><g><rect class="background" style="stroke: none"></rect></g><text y="-10.1" style=""><tspan class="text-outer-tspan row" x="0" y="-0.1em" dy="1.1em"></tspan></text></g><g class="label attribute-type" transform="translate(-91.484375, 47.125)" style=""><g><rect class="background" style="stroke: none"></rect></g><text y="-10.1" style=""><tspan class="text-outer-tspan row" x="0" y="-0.1em" dy="1.1em"><tspan font-style="normal" class="text-inner-tspan" font-weight="normal">string</tspan></tspan></text></g><g class="label attribute-name" transform="translate(-26.109375, 47.125)" style=""><g><rect class="background" style="stroke: none"></rect></g><text y="-10.1" style=""><tspan class="text-outer-tspan row" x="0" y="-0.1em" dy="1.1em"><tspan font-style="normal" class="text-inner-tspan" font-weight="normal">category</tspan></tspan></text></g><g class="label attribute-keys" transform="translate(73.34375, 47.125)" style=""><g><rect class="background" style="stroke: none"></rect></g><text y="-10.1" style=""><tspan class="text-outer-tspan row" x="0" y="-0.1em" dy="1.1em"></tspan></text></g><g class="label attribute-comment" transform="translate(116.484375, 47.125)" style=""><g><rect class="background" style="stroke: none"></rect></g><text y="-10.1" style=""><tspan class="text-outer-tspan row" x="0" y="-0.1em" dy="1.1em"></tspan></text></g><g class="label attribute-type" transform="translate(-91.484375, 84.875)" style=""><g><rect class="background" style="stroke: none"></rect></g><text y="-10.1" style=""><tspan class="text-outer-tspan row" x="0" y="-0.1em" dy="1.1em"><tspan font-style="normal" class="text-inner-tspan" font-weight="normal">int</tspan></tspan></text></g><g class="label attribute-name" transform="translate(-26.109375, 84.875)" style=""><g><rect class="background" style="stroke: none"></rect></g><text y="-10.1" style=""><tspan class="text-outer-tspan row" x="0" y="-0.1em" dy="1.1em"><tspan font-style="normal" class="text-inner-tspan" font-weight="normal">position</tspan></tspan></text></g><g class="label attribute-keys" transform="translate(73.34375, 84.875)" style=""><g><rect class="background" style="stroke: none"></rect></g><text y="-10.1" style=""><tspan class="text-outer-tspan row" x="0" y="-0.1em" dy="1.1em"></tspan></text></g><g class="label attribute-comment" transform="translate(116.484375, 84.875)" style=""><g><rect class="background" style="stroke: none"></rect></g><text y="-10.1" style=""><tspan class="text-outer-tspan row" x="0" y="-0.1em" dy="1.1em"></tspan></text></g><g class="divider"><path d="M-103.984375 -75.50005 L-103.984375 -75.49995 L103.984375 -75.49995 L103.984375 -75.50005" stroke="none" stroke-width="0" fill="#2d2d2d" fill-rule="evenodd"></path><path d="M-103.984375 -75.50005 C-103.984375 -75.50001834946282, -103.984375 -75.49998669892562, -103.984375 -75.49995 M-103.984375 -75.50005 C-103.984375 -75.50001696672652, -103.984375 -75.49998393345304, -103.984375 -75.49995 M-103.984375 -75.49995 C-42.77026828838712 -75.49995, 18.443838423225756 -75.49995, 103.984375 -75.49995 M-103.984375 -75.49995 C-23.867805109795896 -75.49995, 56.24876478040821 -75.49995, 103.984375 -75.49995 M103.984375 -75.49995 C103.984375 -75.49997889191751, 103.984375 -75.50000778383502, 103.984375 -75.50005 M103.984375 -75.49995 C103.984375 -75.49997624190803, 103.984375 -75.50000248381606, 103.984375 -75.50005 M103.984375 -75.50005 C22.448682629471122 -75.50005, -59.087009741057756 -75.50005, -103.984375 -75.50005 M103.984375 -75.50005 C59.234892407303875 -75.50005, 14.485409814607749 -75.50005, -103.984375 -75.50005" stroke="#555555" stroke-width="1.3" fill="none" stroke-dasharray="0 0"></path></g><g class="divider"><path d="M-38.609425 -75.5 L-38.609325 -75.5 L-38.609325 113.25 L-38.609425 113.25" stroke="none" stroke-width="0" fill="#2d2d2d" fill-rule="evenodd"></path><path d="M-38.609425 -75.5 C-38.60939200439596 -75.5, -38.609359008791905 -75.5, -38.609325 -75.5 M-38.609425 -75.5 C-38.60939415510416 -75.5, -38.60936331020833 -75.5, -38.609325 -75.5 M-38.609325 -75.5 C-38.609325 -26.589631187250838, -38.609325 22.320737625498325, -38.609325 113.25 M-38.609325 -75.5 C-38.609325 -1.4295571333206993, -38.609325 72.6408857333586, -38.609325 113.25 M-38.609325 113.25 C-38.609345659121644 113.25, -38.60936631824329 113.25, -38.609425 113.25 M-38.609325 113.25 C-38.609354309392394 113.25, -38.60938361878479 113.25, -38.609425 113.25 M-38.609425 113.25 C-38.609425 42.60150729739725, -38.609425 -28.046985405205504, -38.609425 -75.5 M-38.609425 113.25 C-38.609425 67.43426935471686, -38.609425 21.618538709433707, -38.609425 -75.5" stroke="#555555" stroke-width="1.3" fill="none" stroke-dasharray="0 0"></path></g><g class="divider"><path d="M60.8437 -75.5 L60.8438 -75.5 L60.8438 113.25 L60.8437 113.25" stroke="none" stroke-width="0" fill="#2d2d2d" fill-rule="evenodd"></path><path d="M60.8437 -75.5 C60.84372662109501 -75.5, 60.84375324219001 -75.5, 60.8438 -75.5 M60.8437 -75.5 C60.843735626948174 -75.5, 60.84377125389635 -75.5, 60.8438 -75.5 M60.8438 -75.5 C60.8438 -22.513495939466537, 60.8438 30.473008121066925, 60.8438 113.25 M60.8438 -75.5 C60.8438 -29.344049057898296, 60.8438 16.811901884203408, 60.8438 113.25 M60.8438 113.25 C60.843764631540836 113.25, 60.84372926308168 113.25, 60.8437 113.25 M60.8438 113.25 C60.84376755097453 113.25, 60.843735101949065 113.25, 60.8437 113.25 M60.8437 113.25 C60.8437 60.107580976692574, 60.8437 6.965161953385149, 60.8437 -75.5 M60.8437 113.25 C60.8437 65.40605591444475, 60.8437 17.5621118288895, 60.8437 -75.5" stroke="#555555" stroke-width="1.3" fill="none" stroke-dasharray="0 0"></path></g><g class="divider"><path d="M-103.984375 -75.50005 L-103.984375 -75.49995 L103.984375 -75.49995 L103.984375 -75.50005" stroke="none" stroke-width="0" fill="#2d2d2d" fill-rule="evenodd"></path><path d="M-103.984375 -75.50005 C-103.984375 -75.50002451868538, -103.984375 -75.49999903737076, -103.984375 -75.49995 M-103.984375 -75.50005 C-103.984375 -75.50001954393522, -103.984375 -75.49998908787046, -103.984375 -75.49995 M-103.984375 -75.49995 C-50.27858411200171 -75.49995, 3.4272067759965807 -75.49995, 103.984375 -75.49995 M-103.984375 -75.49995 C-35.732054950815154 -75.49995, 32.52026509836969 -75.49995, 103.984375 -75.49995 M103.984375 -75.49995 C103.984375 -75.49998615989165, 103.984375 -75.50002231978331, 103.984375 -75.50005 M103.984375 -75.49995 C103.984375 -75.4999881843847, 103.984375 -75.5000263687694, 103.984375 -75.50005 M103.984375 -75.50005 C47.57202365856822 -75.50005, -8.84032768286356 -75.50005, -103.984375 -75.50005 M103.984375 -75.50005 C51.745249314382015 -75.50005, -0.49387637123597017 -75.50005, -103.984375 -75.50005" stroke="#555555" stroke-width="1.3" fill="none" stroke-dasharray="0 0"></path></g></g><g class="node default" id="gba3443e7-3490-4c28-ad4b-dcf826e1b197-dark-entity-WORKFLOW_TRANSITION-2" data-look="classic" transform="translate(140.2109375, 723.625)"><g class="outer-path" style=""><path d="M-128.203125 -132.125 L128.203125 -132.125 L128.203125 132.125 L-128.203125 132.125" stroke="none" stroke-width="0" fill="#2d2d2d"></path><path d="M-128.203125 -132.125 C-69.29712590841524 -132.125, -10.391126816830479 -132.125, 128.203125 -132.125 M-128.203125 -132.125 C-29.659127689027358 -132.125, 68.88486962194528 -132.125, 128.203125 -132.125 M128.203125 -132.125 C128.203125 -27.09246905893376, 128.203125 77.94006188213248, 128.203125 132.125 M128.203125 -132.125 C128.203125 -49.188618349477125, 128.203125 33.74776330104575, 128.203125 132.125 M128.203125 132.125 C72.48509702782246 132.125, 16.76706905564494 132.125, -128.203125 132.125 M128.203125 132.125 C29.655789751086502 132.125, -68.891545497827 132.125, -128.203125 132.125 M-128.203125 132.125 C-128.203125 36.33252089713929, -128.203125 -59.45995820572142, -128.203125 -132.125 M-128.203125 132.125 C-128.203125 36.381125891781664, -128.203125 -59.36274821643667, -128.203125 -132.125" stroke="#555555" stroke-width="1.3" fill="none" stroke-dasharray="0 0"></path></g><g style="" class="row-rect-odd"><path d="M-128.203125 -94.375 L128.203125 -94.375 L128.203125 -56.625 L-128.203125 -56.625" stroke="none" stroke-width="0" fill="hsl(0, 0%, 92.6470588235%)"></path><path d="M-128.203125 -94.375 C-29.414460483401555 -94.375, 69.37420403319689 -94.375, 128.203125 -94.375 M-128.203125 -94.375 C-71.5769835457364 -94.375, -14.95084209147278 -94.375, 128.203125 -94.375 M128.203125 -94.375 C128.203125 -82.56247840540395, 128.203125 -70.74995681080792, 128.203125 -56.625 M128.203125 -94.375 C128.203125 -81.779369629388, 128.203125 -69.18373925877601, 128.203125 -56.625 M128.203125 -56.625 C58.330936642446275 -56.625, -11.54125171510745 -56.625, -128.203125 -56.625 M128.203125 -56.625 C64.5314763924751 -56.625, 0.8598277849501983 -56.625, -128.203125 -56.625 M-128.203125 -56.625 C-128.203125 -71.07289576815265, -128.203125 -85.52079153630531, -128.203125 -94.375 M-128.203125 -56.625 C-128.203125 -67.6107389246375, -128.203125 -78.596477849275, -128.203125 -94.375" stroke="#555555" stroke-width="1.3" fill="none" stroke-dasharray="0 0"></path></g><g style="" class="row-rect-even"><path d="M-128.203125 -56.625 L128.203125 -56.625 L128.203125 -18.875 L-128.203125 -18.875" stroke="none" stroke-width="0" fill="hsl(0, 0%, 22.6470588235%)"></path><path d="M-128.203125 -56.625 C-49.87271004226453 -56.625, 28.45770491547094 -56.625, 128.203125 -56.625 M-128.203125 -56.625 C-29.784574129610803 -56.625, 68.6339767407784 -56.625, 128.203125 -56.625 M128.203125 -56.625 C128.203125 -41.60308080388395, 128.203125 -26.5811616077679, 128.203125 -18.875 M128.203125 -56.625 C128.203125 -44.91590661729738, 128.203125 -33.206813234594755, 128.203125 -18.875 M128.203125 -18.875 C46.003019062511626 -18.875, -36.19708687497675 -18.875, -128.203125 -18.875 M128.203125 -18.875 C33.699146050076635 -18.875, -60.80483289984673 -18.875, -128.203125 -18.875 M-128.203125 -18.875 C-128.203125 -28.953586879762256, -128.203125 -39.03217375952451, -128.203125 -56.625 M-128.203125 -18.875 C-128.203125 -27.218696533366725, -128.203125 -35.56239306673345, -128.203125 -56.625" stroke="#555555" stroke-width="1.3" fill="none" stroke-dasharray="0 0"></path></g><g style="" class="row-rect-odd"><path d="M-128.203125 -18.875 L128.203125 -18.875 L128.203125 18.875 L-128.203125 18.875" stroke="none" stroke-width="0" fill="hsl(0, 0%, 92.6470588235%)"></path><path d="M-128.203125 -18.875 C-39.05045033791821 -18.875, 50.102224324163586 -18.875, 128.203125 -18.875 M-128.203125 -18.875 C-37.412368555843855 -18.875, 53.37838788831229 -18.875, 128.203125 -18.875 M128.203125 -18.875 C128.203125 -9.287987737092545, 128.203125 0.2990245258149109, 128.203125 18.875 M128.203125 -18.875 C128.203125 -9.184002712052873, 128.203125 0.5069945758942538, 128.203125 18.875 M128.203125 18.875 C33.18608043871173 18.875, -61.830964122576546 18.875, -128.203125 18.875 M128.203125 18.875 C52.78918168621756 18.875, -22.62476162756488 18.875, -128.203125 18.875 M-128.203125 18.875 C-128.203125 7.047183544190634, -128.203125 -4.780632911618731, -128.203125 -18.875 M-128.203125 18.875 C-128.203125 7.559173374263656, -128.203125 -3.756653251472688, -128.203125 -18.875" stroke="#555555" stroke-width="1.3" fill="none" stroke-dasharray="0 0"></path></g><g style="" class="row-rect-even"><path d="M-128.203125 18.875 L128.203125 18.875 L128.203125 56.625 L-128.203125 56.625" stroke="none" stroke-width="0" fill="hsl(0, 0%, 22.6470588235%)"></path><path d="M-128.203125 18.875 C-74.51946914940677 18.875, -20.835813298813548 18.875, 128.203125 18.875 M-128.203125 18.875 C-67.35910990237568 18.875, -6.515094804751371 18.875, 128.203125 18.875 M128.203125 18.875 C128.203125 27.658226010529056, 128.203125 36.44145202105811, 128.203125 56.625 M128.203125 18.875 C128.203125 27.288482682985865, 128.203125 35.70196536597173, 128.203125 56.625 M128.203125 56.625 C58.79169234499912 56.625, -10.61974031000176 56.625, -128.203125 56.625 M128.203125 56.625 C67.11822237496273 56.625, 6.033319749925468 56.625, -128.203125 56.625 M-128.203125 56.625 C-128.203125 45.30913806059666, -128.203125 33.99327612119332, -128.203125 18.875 M-128.203125 56.625 C-128.203125 47.506645237530755, -128.203125 38.38829047506151, -128.203125 18.875" stroke="#555555" stroke-width="1.3" fill="none" stroke-dasharray="0 0"></path></g><g style="" class="row-rect-odd"><path d="M-128.203125 56.625 L128.203125 56.625 L128.203125 94.375 L-128.203125 94.375" stroke="none" stroke-width="0" fill="hsl(0, 0%, 92.6470588235%)"></path><path d="M-128.203125 56.625 C-67.47635771702704 56.625, -6.749590434054099 56.625, 128.203125 56.625 M-128.203125 56.625 C-35.71663573904469 56.625, 56.76985352191062 56.625, 128.203125 56.625 M128.203125 56.625 C128.203125 69.14855761929483, 128.203125 81.67211523858967, 128.203125 94.375 M128.203125 56.625 C128.203125 65.85147636295774, 128.203125 75.07795272591548, 128.203125 94.375 M128.203125 94.375 C70.5013406247197 94.375, 12.799556249439405 94.375, -128.203125 94.375 M128.203125 94.375 C74.21012339659183 94.375, 20.217121793183637 94.375, -128.203125 94.375 M-128.203125 94.375 C-128.203125 81.91334459153025, -128.203125 69.4516891830605, -128.203125 56.625 M-128.203125 94.375 C-128.203125 84.45095310397325, -128.203125 74.5269062079465, -128.203125 56.625" stroke="#555555" stroke-width="1.3" fill="none" stroke-dasharray="0 0"></path></g><g style="" class="row-rect-even"><path d="M-128.203125 94.375 L128.203125 94.375 L128.203125 132.125 L-128.203125 132.125" stroke="none" stroke-width="0" fill="hsl(0, 0%, 22.6470588235%)"></path><path d="M-128.203125 94.375 C-41.521687208497625 94.375, 45.15975058300475 94.375, 128.203125 94.375 M-128.203125 94.375 C-41.24786850426263 94.375, 45.70738799147475 94.375, 128.203125 94.375 M128.203125 94.375 C128.203125 107.30733885438066, 128.203125 120.2396777087613, 128.203125 132.125 M128.203125 94.375 C128.203125 103.64528212681182, 128.203125 112.91556425362364, 128.203125 132.125 M128.203125 132.125 C46.28602427846921 132.125, -35.63107644306157 132.125, -128.203125 132.125 M128.203125 132.125 C70.611916956248 132.125, 13.02070891249599 132.125, -128.203125 132.125 M-128.203125 132.125 C-128.203125 123.61431437559257, -128.203125 115.10362875118514, -128.203125 94.375 M-128.203125 132.125 C-128.203125 119.44368632176653, -128.203125 106.76237264353306, -128.203125 94.375" stroke="#555555" stroke-width="1.3" fill="none" stroke-dasharray="0 0"></path></g><g class="label name" transform="translate(-88.6875, -122.75)" style=""><g><rect class="background" style="stroke: none"></rect></g><text y="-10.1" style=""><tspan class="text-outer-tspan row" x="0" y="-0.1em" dy="1.1em"><tspan font-style="normal" class="text-inner-tspan" font-weight="normal">WORKFLOW_TRANSITION</tspan></tspan></text></g><g class="label attribute-type" transform="translate(-115.703125, -85)" style=""><g><rect class="background" style="stroke: none"></rect></g><text y="-10.1" style=""><tspan class="text-outer-tspan row" x="0" y="-0.1em" dy="1.1em"><tspan font-style="normal" class="text-inner-tspan" font-weight="normal">uuid</tspan></tspan></text></g><g class="label attribute-name" transform="translate(-50.328125, -85)" style=""><g><rect class="background" style="stroke: none"></rect></g><text y="-10.1" style=""><tspan class="text-outer-tspan row" x="0" y="-0.1em" dy="1.1em"><tspan font-style="normal" class="text-inner-tspan" font-weight="normal">id</tspan></tspan></text></g><g class="label attribute-keys" transform="translate(97.5625, -85)" style=""><g><rect class="background" style="stroke: none"></rect></g><text y="-10.1" style=""><tspan class="text-outer-tspan row" x="0" y="-0.1em" dy="1.1em"><tspan font-style="normal" class="text-inner-tspan" font-weight="normal">PK</tspan></tspan></text></g><g class="label attribute-comment" transform="translate(140.703125, -85)" style=""><g><rect class="background" style="stroke: none"></rect></g><text y="-10.1" style=""><tspan class="text-outer-tspan row" x="0" y="-0.1em" dy="1.1em"></tspan></text></g><g class="label attribute-type" transform="translate(-115.703125, -47.25)" style=""><g><rect class="background" style="stroke: none"></rect></g><text y="-10.1" style=""><tspan class="text-outer-tspan row" x="0" y="-0.1em" dy="1.1em"><tspan font-style="normal" class="text-inner-tspan" font-weight="normal">uuid</tspan></tspan></text></g><g class="label attribute-name" transform="translate(-50.328125, -47.25)" style=""><g><rect class="background" style="stroke: none"></rect></g><text y="-10.1" style=""><tspan class="text-outer-tspan row" x="0" y="-0.1em" dy="1.1em"><tspan font-style="normal" class="text-inner-tspan" font-weight="normal">project_id</tspan></tspan></text></g><g class="label attribute-keys" transform="translate(97.5625, -47.25)" style=""><g><rect class="background" style="stroke: none"></rect></g><text y="-10.1" style=""><tspan class="text-outer-tspan row" x="0" y="-0.1em" dy="1.1em"><tspan font-style="normal" class="text-inner-tspan" font-weight="normal">FK</tspan></tspan></text></g><g class="label attribute-comment" transform="translate(140.703125, -47.25)" style=""><g><rect class="background" style="stroke: none"></rect></g><text y="-10.1" style=""><tspan class="text-outer-tspan row" x="0" y="-0.1em" dy="1.1em"></tspan></text></g><g class="label attribute-type" transform="translate(-115.703125, -9.5)" style=""><g><rect class="background" style="stroke: none"></rect></g><text y="-10.1" style=""><tspan class="text-outer-tspan row" x="0" y="-0.1em" dy="1.1em"><tspan font-style="normal" class="text-inner-tspan" font-weight="normal">uuid</tspan></tspan></text></g><g class="label attribute-name" transform="translate(-50.328125, -9.5)" style=""><g><rect class="background" style="stroke: none"></rect></g><text y="-10.1" style=""><tspan class="text-outer-tspan row" x="0" y="-0.1em" dy="1.1em"><tspan font-style="normal" class="text-inner-tspan" font-weight="normal">from_status_id</tspan></tspan></text></g><g class="label attribute-keys" transform="translate(97.5625, -9.5)" style=""><g><rect class="background" style="stroke: none"></rect></g><text y="-10.1" style=""><tspan class="text-outer-tspan row" x="0" y="-0.1em" dy="1.1em"><tspan font-style="normal" class="text-inner-tspan" font-weight="normal">FK</tspan></tspan></text></g><g class="label attribute-comment" transform="translate(140.703125, -9.5)" style=""><g><rect class="background" style="stroke: none"></rect></g><text y="-10.1" style=""><tspan class="text-outer-tspan row" x="0" y="-0.1em" dy="1.1em"></tspan></text></g><g class="label attribute-type" transform="translate(-115.703125, 28.25)" style=""><g><rect class="background" style="stroke: none"></rect></g><text y="-10.1" style=""><tspan class="text-outer-tspan row" x="0" y="-0.1em" dy="1.1em"><tspan font-style="normal" class="text-inner-tspan" font-weight="normal">uuid</tspan></tspan></text></g><g class="label attribute-name" transform="translate(-50.328125, 28.25)" style=""><g><rect class="background" style="stroke: none"></rect></g><text y="-10.1" style=""><tspan class="text-outer-tspan row" x="0" y="-0.1em" dy="1.1em"><tspan font-style="normal" class="text-inner-tspan" font-weight="normal">to_status_id</tspan></tspan></text></g><g class="label attribute-keys" transform="translate(97.5625, 28.25)" style=""><g><rect class="background" style="stroke: none"></rect></g><text y="-10.1" style=""><tspan class="text-outer-tspan row" x="0" y="-0.1em" dy="1.1em"><tspan font-style="normal" class="text-inner-tspan" font-weight="normal">FK</tspan></tspan></text></g><g class="label attribute-comment" transform="translate(140.703125, 28.25)" style=""><g><rect class="background" style="stroke: none"></rect></g><text y="-10.1" style=""><tspan class="text-outer-tspan row" x="0" y="-0.1em" dy="1.1em"></tspan></text></g><g class="label attribute-type" transform="translate(-115.703125, 66)" style=""><g><rect class="background" style="stroke: none"></rect></g><text y="-10.1" style=""><tspan class="text-outer-tspan row" x="0" y="-0.1em" dy="1.1em"><tspan font-style="normal" class="text-inner-tspan" font-weight="normal">string</tspan></tspan></text></g><g class="label attribute-name" transform="translate(-50.328125, 66)" style=""><g><rect class="background" style="stroke: none"></rect></g><text y="-10.1" style=""><tspan class="text-outer-tspan row" x="0" y="-0.1em" dy="1.1em"><tspan font-style="normal" class="text-inner-tspan" font-weight="normal">name</tspan></tspan></text></g><g class="label attribute-keys" transform="translate(97.5625, 66)" style=""><g><rect class="background" style="stroke: none"></rect></g><text y="-10.1" style=""><tspan class="text-outer-tspan row" x="0" y="-0.1em" dy="1.1em"></tspan></text></g><g class="label attribute-comment" transform="translate(140.703125, 66)" style=""><g><rect class="background" style="stroke: none"></rect></g><text y="-10.1" style=""><tspan class="text-outer-tspan row" x="0" y="-0.1em" dy="1.1em"></tspan></text></g><g class="label attribute-type" transform="translate(-115.703125, 103.75)" style=""><g><rect class="background" style="stroke: none"></rect></g><text y="-10.1" style=""><tspan class="text-outer-tspan row" x="0" y="-0.1em" dy="1.1em"><tspan font-style="normal" class="text-inner-tspan" font-weight="normal">int</tspan></tspan></text></g><g class="label attribute-name" transform="translate(-50.328125, 103.75)" style=""><g><rect class="background" style="stroke: none"></rect></g><text y="-10.1" style=""><tspan class="text-outer-tspan row" x="0" y="-0.1em" dy="1.1em"><tspan font-style="normal" class="text-inner-tspan" font-weight="normal">opsbar_sequence</tspan></tspan></text></g><g class="label attribute-keys" transform="translate(97.5625, 103.75)" style=""><g><rect class="background" style="stroke: none"></rect></g><text y="-10.1" style=""><tspan class="text-outer-tspan row" x="0" y="-0.1em" dy="1.1em"></tspan></text></g><g class="label attribute-comment" transform="translate(140.703125, 103.75)" style=""><g><rect class="background" style="stroke: none"></rect></g><text y="-10.1" style=""><tspan class="text-outer-tspan row" x="0" y="-0.1em" dy="1.1em"></tspan></text></g><g class="divider"><path d="M-128.203125 -94.37505 L-128.203125 -94.37495 L128.203125 -94.37495 L128.203125 -94.37505" stroke="none" stroke-width="0" fill="#2d2d2d" fill-rule="evenodd"></path><path d="M-128.203125 -94.37505 C-128.203125 -94.37502041520264, -128.203125 -94.3749908304053, -128.203125 -94.37495 M-128.203125 -94.37505 C-128.203125 -94.375018818996, -128.203125 -94.374987637992, -128.203125 -94.37495 M-128.203125 -94.37495 C-68.19323570369544 -94.37495, -8.183346407390871 -94.37495, 128.203125 -94.37495 M-128.203125 -94.37495 C-54.665975130991214 -94.37495, 18.871174738017572 -94.37495, 128.203125 -94.37495 M128.203125 -94.37495 C128.203125 -94.37497543741885, 128.203125 -94.37500087483771, 128.203125 -94.37505 M128.203125 -94.37495 C128.203125 -94.37498087788735, 128.203125 -94.3750117557747, 128.203125 -94.37505 M128.203125 -94.37505 C30.836412910873904 -94.37505, -66.53029917825219 -94.37505, -128.203125 -94.37505 M128.203125 -94.37505 C66.1283903518059 -94.37505, 4.053655703611824 -94.37505, -128.203125 -94.37505" stroke="#555555" stroke-width="1.3" fill="none" stroke-dasharray="0 0"></path></g><g class="divider"><path d="M-62.828175 -94.375 L-62.828075 -94.375 L-62.828075 132.125 L-62.828175 132.125" stroke="none" stroke-width="0" fill="#2d2d2d" fill-rule="evenodd"></path><path d="M-62.828175 -94.375 C-62.82814438100867 -94.375, -62.82811376201733 -94.375, -62.828075 -94.375 M-62.828175 -94.375 C-62.82813725047405 -94.375, -62.82809950094809 -94.375, -62.828075 -94.375 M-62.828075 -94.375 C-62.828075 -18.497758899563948, -62.828075 57.379482200872104, -62.828075 132.125 M-62.828075 -94.375 C-62.828075 -22.903921517700567, -62.828075 48.567156964598865, -62.828075 132.125 M-62.828075 132.125 C-62.82810581262935 132.125, -62.82813662525871 132.125, -62.828175 132.125 M-62.828075 132.125 C-62.82810493849615 132.125, -62.82813487699231 132.125, -62.828175 132.125 M-62.828175 132.125 C-62.828175 75.17351815208839, -62.828175 18.222036304176783, -62.828175 -94.375 M-62.828175 132.125 C-62.828175 71.06218758970184, -62.828175 9.999375179403671, -62.828175 -94.375" stroke="#555555" stroke-width="1.3" fill="none" stroke-dasharray="0 0"></path></g><g class="divider"><path d="M85.06245 -94.375 L85.06255 -94.375 L85.06255 132.125 L85.06245 132.125" stroke="none" stroke-width="0" fill="#2d2d2d" fill-rule="evenodd"></path><path d="M85.06245 -94.375 C85.06248241367577 -94.375, 85.06251482735154 -94.375, 85.06255 -94.375 M85.06245 -94.375 C85.06247739019771 -94.375, 85.06250478039543 -94.375, 85.06255 -94.375 M85.06255 -94.375 C85.06255 -7.618893253844789, 85.06255 79.13721349231042, 85.06255 132.125 M85.06255 -94.375 C85.06255 -28.942322741106224, 85.06255 36.49035451778755, 85.06255 132.125 M85.06255 132.125 C85.06251833091277 132.125, 85.06248666182552 132.125, 85.06245 132.125 M85.06255 132.125 C85.06252127571912 132.125, 85.06249255143823 132.125, 85.06245 132.125 M85.06245 132.125 C85.06245 52.954182227833655, 85.06245 -26.21663554433269, 85.06245 -94.375 M85.06245 132.125 C85.06245 77.11893598720579, 85.06245 22.11287197441159, 85.06245 -94.375" stroke="#555555" stroke-width="1.3" fill="none" stroke-dasharray="0 0"></path></g><g class="divider"><path d="M-128.203125 -94.37505 L-128.203125 -94.37495 L128.203125 -94.37495 L128.203125 -94.37505" stroke="none" stroke-width="0" fill="#2d2d2d" fill-rule="evenodd"></path><path d="M-128.203125 -94.37505 C-128.203125 -94.37502462771135, -128.203125 -94.37499925542271, -128.203125 -94.37495 M-128.203125 -94.37505 C-128.203125 -94.37501197277096, -128.203125 -94.37497394554192, -128.203125 -94.37495 M-128.203125 -94.37495 C-74.75827198158859 -94.37495, -21.31341896317717 -94.37495, 128.203125 -94.37495 M-128.203125 -94.37495 C-33.638945396549516 -94.37495, 60.92523420690097 -94.37495, 128.203125 -94.37495 M128.203125 -94.37495 C128.203125 -94.37498787155255, 128.203125 -94.3750257431051, 128.203125 -94.37505 M128.203125 -94.37495 C128.203125 -94.37498915151825, 128.203125 -94.37502830303652, 128.203125 -94.37505 M128.203125 -94.37505 C65.54918886222447 -94.37505, 2.8952527244489232 -94.37505, -128.203125 -94.37505 M128.203125 -94.37505 C64.91713800877646 -94.37505, 1.6311510175529236 -94.37505, -128.203125 -94.37505" stroke="#555555" stroke-width="1.3" fill="none" stroke-dasharray="0 0"></path></g></g></g></g></g><defs><filter id="gba3443e7-3490-4c28-ad4b-dcf826e1b197-dark-drop-shadow" height="130%" width="130%"><feDropShadow dx="4" dy="4" stdDeviation="0" flood-opacity="0.06" flood-color="#000000"></feDropShadow></filter></defs><defs><filter id="gba3443e7-3490-4c28-ad4b-dcf826e1b197-dark-drop-shadow-small" height="150%" width="150%"><feDropShadow dx="2" dy="2" stdDeviation="0" flood-opacity="0.06" flood-color="#000000"></feDropShadow></filter></defs><linearGradient id="gba3443e7-3490-4c28-ad4b-dcf826e1b197-dark-gradient" gradientUnits="objectBoundingBox" x1="0%" y1="0%" x2="100%" y2="0%"><stop offset="0%" stop-color="#555555" stop-opacity="1"></stop><stop offset="100%" stop-color="#555555" stop-opacity="1"></stop></linearGradient></svg>