<svg id="gf5650386-eaa3-4350-bfdd-fc9e2228e64c-dark" width="100%" xmlns="http://www.w3.org/2000/svg" xmlns:xlink="http://www.w3.org/1999/xlink" class="statediagram" style="max-width: 1077.40625px;" viewBox="0 0 1077.40625 557.7999877929688" role="graphics-document document" aria-roledescription="stateDiagram"><style>#gf5650386-eaa3-4350-bfdd-fc9e2228e64c-dark{font-family:"trebuchet ms",verdana,arial,sans-serif;font-size:16px;fill:#e5e5e5;}@keyframes edge-animation-frame{from{stroke-dashoffset:0;}}@keyframes dash{to{stroke-dashoffset:0;}}#gf5650386-eaa3-4350-bfdd-fc9e2228e64c-dark .edge-animation-slow{stroke-dasharray:9,5!important;stroke-dashoffset:900;animation:dash 50s linear infinite;stroke-linecap:round;}#gf5650386-eaa3-4350-bfdd-fc9e2228e64c-dark .edge-animation-fast{stroke-dasharray:9,5!important;stroke-dashoffset:900;animation:dash 20s linear infinite;stroke-linecap:round;}#gf5650386-eaa3-4350-bfdd-fc9e2228e64c-dark .error-icon{fill:#252525;}#gf5650386-eaa3-4350-bfdd-fc9e2228e64c-dark .error-text{fill:#cccccc;stroke:#cccccc;}#gf5650386-eaa3-4350-bfdd-fc9e2228e64c-dark .edge-thickness-normal{stroke-width:1px;}#gf5650386-eaa3-4350-bfdd-fc9e2228e64c-dark .edge-thickness-thick{stroke-width:3.5px;}#gf5650386-eaa3-4350-bfdd-fc9e2228e64c-dark .edge-pattern-solid{stroke-dasharray:0;}#gf5650386-eaa3-4350-bfdd-fc9e2228e64c-dark .edge-thickness-invisible{stroke-width:0;fill:none;}#gf5650386-eaa3-4350-bfdd-fc9e2228e64c-dark .edge-pattern-dashed{stroke-dasharray:3;}#gf5650386-eaa3-4350-bfdd-fc9e2228e64c-dark .edge-pattern-dotted{stroke-dasharray:2;}#gf5650386-eaa3-4350-bfdd-fc9e2228e64c-dark .marker{fill:#cccccc;stroke:#cccccc;}#gf5650386-eaa3-4350-bfdd-fc9e2228e64c-dark .marker.cross{stroke:#cccccc;}#gf5650386-eaa3-4350-bfdd-fc9e2228e64c-dark svg{font-family:"trebuchet ms",verdana,arial,sans-serif;font-size:16px;}#gf5650386-eaa3-4350-bfdd-fc9e2228e64c-dark p{margin:0;}#gf5650386-eaa3-4350-bfdd-fc9e2228e64c-dark defs [id$="-barbEnd"]{fill:#cccccc;stroke:#cccccc;}#gf5650386-eaa3-4350-bfdd-fc9e2228e64c-dark g.stateGroup text{fill:#555555;stroke:none;font-size:10px;}#gf5650386-eaa3-4350-bfdd-fc9e2228e64c-dark g.stateGroup text{fill:#e5e5e5;stroke:none;font-size:10px;}#gf5650386-eaa3-4350-bfdd-fc9e2228e64c-dark g.stateGroup .state-title{font-weight:bolder;fill:#e5e5e5;}#gf5650386-eaa3-4350-bfdd-fc9e2228e64c-dark g.stateGroup rect{fill:#2d2d2d;stroke:#555555;}#gf5650386-eaa3-4350-bfdd-fc9e2228e64c-dark g.stateGroup line{stroke:#cccccc;stroke-width:1;}#gf5650386-eaa3-4350-bfdd-fc9e2228e64c-dark .transition{stroke:#cccccc;stroke-width:1;fill:none;}#gf5650386-eaa3-4350-bfdd-fc9e2228e64c-dark .stateGroup .composit{fill:#111111;border-bottom:1px;}#gf5650386-eaa3-4350-bfdd-fc9e2228e64c-dark .stateGroup .alt-composit{fill:#e0e0e0;border-bottom:1px;}#gf5650386-eaa3-4350-bfdd-fc9e2228e64c-dark .state-note{stroke:#555555;fill:#333333;}#gf5650386-eaa3-4350-bfdd-fc9e2228e64c-dark .state-note text{fill:#e5e5e5;stroke:none;font-size:10px;}#gf5650386-eaa3-4350-bfdd-fc9e2228e64c-dark .stateLabel .box{stroke:none;stroke-width:0;fill:#2d2d2d;opacity:0.5;}#gf5650386-eaa3-4350-bfdd-fc9e2228e64c-dark .edgeLabel .label rect{fill:#2d2d2d;opacity:0.5;}#gf5650386-eaa3-4350-bfdd-fc9e2228e64c-dark .edgeLabel{background-color:#1e1e1e;text-align:center;}#gf5650386-eaa3-4350-bfdd-fc9e2228e64c-dark .edgeLabel p{background-color:#1e1e1e;}#gf5650386-eaa3-4350-bfdd-fc9e2228e64c-dark .edgeLabel rect{opacity:0.5;background-color:#1e1e1e;fill:#1e1e1e;}#gf5650386-eaa3-4350-bfdd-fc9e2228e64c-dark .edgeLabel .label text{fill:#e5e5e5;}#gf5650386-eaa3-4350-bfdd-fc9e2228e64c-dark .label div .edgeLabel{color:#e5e5e5;}#gf5650386-eaa3-4350-bfdd-fc9e2228e64c-dark .stateLabel text{fill:#e5e5e5;font-size:10px;font-weight:bold;}#gf5650386-eaa3-4350-bfdd-fc9e2228e64c-dark .node circle.state-start{fill:#cccccc;stroke:#cccccc;}#gf5650386-eaa3-4350-bfdd-fc9e2228e64c-dark .node .fork-join{fill:#cccccc;stroke:#cccccc;}#gf5650386-eaa3-4350-bfdd-fc9e2228e64c-dark .node circle.state-end{fill:#555555;stroke:#111111;stroke-width:1.5;}#gf5650386-eaa3-4350-bfdd-fc9e2228e64c-dark .end-state-inner{fill:#111111;stroke-width:1.5;}#gf5650386-eaa3-4350-bfdd-fc9e2228e64c-dark .node rect{fill:#2d2d2d;stroke:#555555;stroke-width:1px;}#gf5650386-eaa3-4350-bfdd-fc9e2228e64c-dark .node polygon{fill:#2d2d2d;stroke:#555555;stroke-width:1px;}#gf5650386-eaa3-4350-bfdd-fc9e2228e64c-dark [id$="-barbEnd"]{fill:#cccccc;}#gf5650386-eaa3-4350-bfdd-fc9e2228e64c-dark .statediagram-cluster rect{fill:#2d2d2d;stroke:#555555;stroke-width:1px;}#gf5650386-eaa3-4350-bfdd-fc9e2228e64c-dark .cluster-label,#gf5650386-eaa3-4350-bfdd-fc9e2228e64c-dark .nodeLabel{color:#e5e5e5;}#gf5650386-eaa3-4350-bfdd-fc9e2228e64c-dark .statediagram-cluster rect.outer{rx:5px;ry:5px;}#gf5650386-eaa3-4350-bfdd-fc9e2228e64c-dark .statediagram-state .divider{stroke:#555555;}#gf5650386-eaa3-4350-bfdd-fc9e2228e64c-dark .statediagram-state .title-state{rx:5px;ry:5px;}#gf5650386-eaa3-4350-bfdd-fc9e2228e64c-dark .statediagram-cluster.statediagram-cluster .inner{fill:#111111;}#gf5650386-eaa3-4350-bfdd-fc9e2228e64c-dark .statediagram-cluster.statediagram-cluster-alt .inner{fill:#252525;}#gf5650386-eaa3-4350-bfdd-fc9e2228e64c-dark .statediagram-cluster .inner{rx:0;ry:0;}#gf5650386-eaa3-4350-bfdd-fc9e2228e64c-dark .statediagram-state rect.basic{rx:5px;ry:5px;}#gf5650386-eaa3-4350-bfdd-fc9e2228e64c-dark .statediagram-state rect.divider{stroke-dasharray:10,10;fill:#252525;}#gf5650386-eaa3-4350-bfdd-fc9e2228e64c-dark .note-edge{stroke-dasharray:5;}#gf5650386-eaa3-4350-bfdd-fc9e2228e64c-dark .statediagram-note rect{fill:#333333;stroke:#555555;stroke-width:1px;rx:0;ry:0;}#gf5650386-eaa3-4350-bfdd-fc9e2228e64c-dark .statediagram-note rect{fill:#333333;stroke:#555555;stroke-width:1px;rx:0;ry:0;}#gf5650386-eaa3-4350-bfdd-fc9e2228e64c-dark .statediagram-note text{fill:#e5e5e5;}#gf5650386-eaa3-4350-bfdd-fc9e2228e64c-dark .statediagram-note .nodeLabel{color:#e5e5e5;}#gf5650386-eaa3-4350-bfdd-fc9e2228e64c-dark .statediagram .edgeLabel{color:red;}#gf5650386-eaa3-4350-bfdd-fc9e2228e64c-dark [id$="-dependencyStart"],#gf5650386-eaa3-4350-bfdd-fc9e2228e64c-dark [id$="-dependencyEnd"]{fill:#cccccc;stroke:#cccccc;stroke-width:1;}#gf5650386-eaa3-4350-bfdd-fc9e2228e64c-dark .statediagramTitleText{text-anchor:middle;font-size:18px;fill:#e5e5e5;}#gf5650386-eaa3-4350-bfdd-fc9e2228e64c-dark [data-look="neo"].statediagram-cluster rect{fill:#2d2d2d;stroke:url(#gf5650386-eaa3-4350-bfdd-fc9e2228e64c-dark-gradient);stroke-width:1;}#gf5650386-eaa3-4350-bfdd-fc9e2228e64c-dark [data-look="neo"].statediagram-cluster rect.outer{rx:5px;ry:5px;filter:drop-shadow( 1px 2px 2px rgba(185,185,185,1));}#gf5650386-eaa3-4350-bfdd-fc9e2228e64c-dark .node .neo-node{stroke:#555555;}#gf5650386-eaa3-4350-bfdd-fc9e2228e64c-dark [data-look="neo"].node rect,#gf5650386-eaa3-4350-bfdd-fc9e2228e64c-dark [data-look="neo"].cluster rect,#gf5650386-eaa3-4350-bfdd-fc9e2228e64c-dark [data-look="neo"].node polygon{stroke:url(#gf5650386-eaa3-4350-bfdd-fc9e2228e64c-dark-gradient);filter:drop-shadow( 1px 2px 2px rgba(185,185,185,1));}#gf5650386-eaa3-4350-bfdd-fc9e2228e64c-dark [data-look="neo"].node path{stroke:url(#gf5650386-eaa3-4350-bfdd-fc9e2228e64c-dark-gradient);stroke-width:1px;}#gf5650386-eaa3-4350-bfdd-fc9e2228e64c-dark [data-look="neo"].node .outer-path{filter:drop-shadow( 1px 2px 2px rgba(185,185,185,1));}#gf5650386-eaa3-4350-bfdd-fc9e2228e64c-dark [data-look="neo"].node .neo-line path{stroke:#555555;filter:none;}#gf5650386-eaa3-4350-bfdd-fc9e2228e64c-dark [data-look="neo"].node circle{stroke:url(#gf5650386-eaa3-4350-bfdd-fc9e2228e64c-dark-gradient);filter:drop-shadow( 1px 2px 2px rgba(185,185,185,1));}#gf5650386-eaa3-4350-bfdd-fc9e2228e64c-dark [data-look="neo"].node circle .state-start{fill:#000000;}#gf5650386-eaa3-4350-bfdd-fc9e2228e64c-dark [data-look="neo"].icon-shape .icon{fill:url(#gf5650386-eaa3-4350-bfdd-fc9e2228e64c-dark-gradient);filter:drop-shadow( 1px 2px 2px rgba(185,185,185,1));}#gf5650386-eaa3-4350-bfdd-fc9e2228e64c-dark [data-look="neo"].icon-shape .icon-neo path{stroke:url(#gf5650386-eaa3-4350-bfdd-fc9e2228e64c-dark-gradient);filter:drop-shadow( 1px 2px 2px rgba(185,185,185,1));}#gf5650386-eaa3-4350-bfdd-fc9e2228e64c-dark :root{--mermaid-font-family:"trebuchet ms",verdana,arial,sans-serif;}</style><g><defs><marker id="gf5650386-eaa3-4350-bfdd-fc9e2228e64c-dark_stateDiagram-barbEnd" refX="19" refY="7" markerWidth="20" markerHeight="14" markerUnits="userSpaceOnUse" orient="auto"><path d="M 19,7 L9,13 L14,7 L9,1 Z"></path></marker></defs><g class="root"><g class="clusters"><g class="note-cluster" id="gf5650386-eaa3-4350-bfdd-fc9e2228e64c-dark-state-Constructed----parent-9"><rect x="8" y="203" width="262.484375" height="151.8000030517578" fill="none"></rect></g></g><g class="edgePaths"><path d="M435.332,22L435.332,28.083C435.332,34.167,435.332,46.333,435.332,58.5C435.332,70.667,435.332,82.833,435.332,88.917L435.332,95" id="gf5650386-eaa3-4350-bfdd-fc9e2228e64c-dark-edge0" class="edge-thickness-normal edge-pattern-solid transition" style="fill:none;;;fill:none" data-edge="true" data-et="edge" data-id="edge0" data-points="W3sieCI6NDM1LjMzMjAzMTI1LCJ5IjoyMn0seyJ4Ijo0MzUuMzMyMDMxMjUsInkiOjU4LjV9LHsieCI6NDM1LjMzMjAzMTI1LCJ5Ijo5NX1d" data-look="classic" marker-end="url(#gf5650386-eaa3-4350-bfdd-fc9e2228e64c-dark_stateDiagram-barbEnd)"></path><path d="M486.629,124.669L516.019,131.641C545.409,138.612,604.189,152.556,633.579,165.611C662.969,178.667,662.969,190.833,662.969,206.65C662.969,222.467,662.969,241.933,662.969,251.667L662.969,261.4" id="gf5650386-eaa3-4350-bfdd-fc9e2228e64c-dark-edge1" class="edge-thickness-normal edge-pattern-solid transition" style="fill:none;;;fill:none" data-edge="true" data-et="edge" data-id="edge1" data-points="W3sieCI6NDg2LjYyODkwNjI1LCJ5IjoxMjQuNjY4NjQ4NjQ4NjQ4NjZ9LHsieCI6NjYyLjk2ODc1LCJ5IjoxNjYuNX0seyJ4Ijo2NjIuOTY4NzUsInkiOjIwM30seyJ4Ijo2NjIuOTY4NzUsInkiOjI2MS40MDAwMDE1MjU4Nzg5fV0=" data-look="classic" marker-end="url(#gf5650386-eaa3-4350-bfdd-fc9e2228e64c-dark_stateDiagram-barbEnd)"></path><path d="M616.828,288.302L562.438,299.385C508.047,310.468,399.266,332.634,344.875,349.8C290.484,366.967,290.484,379.133,303.433,391.3C316.383,403.467,342.281,415.633,355.23,421.717L368.179,427.8" id="gf5650386-eaa3-4350-bfdd-fc9e2228e64c-dark-edge2" class="edge-thickness-normal edge-pattern-solid transition" style="fill:none;;;fill:none" data-edge="true" data-et="edge" data-id="edge2" data-points="W3sieCI6NjE2LjgyODEyNSwieSI6Mjg4LjMwMTkzNTUyMDg0MTh9LHsieCI6MjkwLjQ4NDM3NSwieSI6MzU0LjgwMDAwMzA1MTc1Nzh9LHsieCI6MjkwLjQ4NDM3NSwieSI6MzkxLjMwMDAwMzA1MTc1Nzh9LHsieCI6MzY4LjE3ODg5MTc4MjQwNzQsInkiOjQyNy44MDAwMDMwNTE3NTc4fV0=" data-look="classic" marker-end="url(#gf5650386-eaa3-4350-bfdd-fc9e2228e64c-dark_stateDiagram-barbEnd)"></path><path d="M422.866,427.8L428.928,421.717C434.989,415.633,447.112,403.467,453.173,391.3C459.234,379.133,459.234,366.967,485.5,351.098C511.766,335.23,564.297,315.66,590.563,305.875L616.828,296.089" id="gf5650386-eaa3-4350-bfdd-fc9e2228e64c-dark-edge3" class="edge-thickness-normal edge-pattern-solid transition" style="fill:none;;;fill:none" data-edge="true" data-et="edge" data-id="edge3" data-points="W3sieCI6NDIyLjg2NjM5MTc4MjQwNzQsInkiOjQyNy44MDAwMDMwNTE3NTc4fSx7IngiOjQ1OS4yMzQzNzUsInkiOjM5MS4zMDAwMDMwNTE3NTc4fSx7IngiOjQ1OS4yMzQzNzUsInkiOjM1NC44MDAwMDMwNTE3NTc4fSx7IngiOjYxNi44MjgxMjUsInkiOjI5Ni4wODk0MTA1Njg0Mzc0fV0=" data-look="classic" marker-end="url(#gf5650386-eaa3-4350-bfdd-fc9e2228e64c-dark_stateDiagram-barbEnd)"></path><path d="M647.186,296.4L638.407,306.133C629.629,315.867,612.072,335.333,603.294,351.15C594.516,366.967,594.516,379.133,605.671,391.3C616.826,403.467,639.137,415.633,650.293,421.717L661.448,427.8" id="gf5650386-eaa3-4350-bfdd-fc9e2228e64c-dark-edge4" class="edge-thickness-normal edge-pattern-solid transition" style="fill:none;;;fill:none" data-edge="true" data-et="edge" data-id="edge4" data-points="W3sieCI6NjQ3LjE4NTc1MDQ4MTk4ODcsInkiOjI5Ni40MDAwMDE1MjU4Nzg5fSx7IngiOjU5NC41MTU2MjUsInkiOjM1NC44MDAwMDMwNTE3NTc4fSx7IngiOjU5NC41MTU2MjUsInkiOjM5MS4zMDAwMDMwNTE3NTc4fSx7IngiOjY2MS40NDgxMzM2ODA1NTU1LCJ5Ijo0MjcuODAwMDAzMDUxNzU3OH1d" data-look="classic" marker-end="url(#gf5650386-eaa3-4350-bfdd-fc9e2228e64c-dark_stateDiagram-barbEnd)"></path><path d="M705.816,427.8L710.084,421.717C714.351,415.633,722.887,403.467,727.154,391.3C731.422,379.133,731.422,366.967,722.644,351.15C713.865,335.333,696.308,315.867,687.53,306.133L678.752,296.4" id="gf5650386-eaa3-4350-bfdd-fc9e2228e64c-dark-edge5" class="edge-thickness-normal edge-pattern-solid transition" style="fill:none;;;fill:none" data-edge="true" data-et="edge" data-id="edge5" data-points="W3sieCI6NzA1LjgxNTg5OTg4NDI1OTIsInkiOjQyNy44MDAwMDMwNTE3NTc4fSx7IngiOjczMS40MjE4NzUsInkiOjM5MS4zMDAwMDMwNTE3NTc4fSx7IngiOjczMS40MjE4NzUsInkiOjM1NC44MDAwMDMwNTE3NTc4fSx7IngiOjY3OC43NTE3NDk1MTgwMTEzLCJ5IjoyOTYuNDAwMDAxNTI1ODc4OX1d" data-look="classic" marker-end="url(#gf5650386-eaa3-4350-bfdd-fc9e2228e64c-dark_stateDiagram-barbEnd)"></path><path d="M709.109,294.587L738.628,304.622C768.146,314.658,827.182,334.729,856.701,350.848C886.219,366.967,886.219,379.133,897.629,391.3C909.038,403.467,931.858,415.633,943.268,421.717L954.677,427.8" id="gf5650386-eaa3-4350-bfdd-fc9e2228e64c-dark-edge6" class="edge-thickness-normal edge-pattern-solid transition" style="fill:none;;;fill:none" data-edge="true" data-et="edge" data-id="edge6" data-points="W3sieCI6NzA5LjEwOTM3NSwieSI6Mjk0LjU4Njc4MDk1NjU4NDQ1fSx7IngiOjg4Ni4yMTg3NSwieSI6MzU0LjgwMDAwMzA1MTc1Nzh9LHsieCI6ODg2LjIxODc1LCJ5IjozOTEuMzAwMDAzMDUxNzU3OH0seyJ4Ijo5NTQuNjc3MzcyNjg1MTg1MiwieSI6NDI3LjgwMDAwMzA1MTc1Nzh9XQ==" data-look="classic" marker-end="url(#gf5650386-eaa3-4350-bfdd-fc9e2228e64c-dark_stateDiagram-barbEnd)"></path><path d="M1000.509,427.8L1005.031,421.717C1009.553,415.633,1018.597,403.467,1023.119,391.3C1027.641,379.133,1027.641,366.967,974.552,349.834C921.464,332.701,815.286,310.602,762.198,299.553L709.109,288.503" id="gf5650386-eaa3-4350-bfdd-fc9e2228e64c-dark-edge7" class="edge-thickness-normal edge-pattern-solid transition" style="fill:none;;;fill:none" data-edge="true" data-et="edge" data-id="edge7" data-points="W3sieCI6MTAwMC41MDg1MzU4Nzk2Mjk3LCJ5Ijo0MjcuODAwMDAzMDUxNzU3OH0seyJ4IjoxMDI3LjY0MDYyNSwieSI6MzkxLjMwMDAwMzA1MTc1Nzh9LHsieCI6MTAyNy42NDA2MjUsInkiOjM1NC44MDAwMDMwNTE3NTc4fSx7IngiOjcwOS4xMDkzNzUsInkiOjI4OC41MDMzNTY2MTg0NjczfV0=" data-look="classic" marker-end="url(#gf5650386-eaa3-4350-bfdd-fc9e2228e64c-dark_stateDiagram-barbEnd)"></path><path d="M987.5,462.8L987.5,468.883C987.5,474.967,987.5,487.133,987.5,499.299C987.5,511.464,987.5,523.629,987.5,529.711L987.5,535.793" id="gf5650386-eaa3-4350-bfdd-fc9e2228e64c-dark-edge8" class="edge-thickness-normal edge-pattern-solid transition" style="fill:none;;;fill:none" data-edge="true" data-et="edge" data-id="edge8" data-points="W3sieCI6OTg3LjUsInkiOjQ2Mi44MDAwMDMwNTE3NTc4fSx7IngiOjk4Ny41LCJ5Ijo0OTkuMzAwMDAzMDUxNzU3OH0seyJ4Ijo5ODcuNSwieSI6NTM1Ljc5MzM1NjQxODYwOTZ9XQ==" data-look="classic" marker-end="url(#gf5650386-eaa3-4350-bfdd-fc9e2228e64c-dark_stateDiagram-barbEnd)"></path><path d="M384.035,121.855L343.236,129.296C302.438,136.737,220.84,151.618,180.041,165.143C139.242,178.667,139.242,190.833,139.242,201.083C139.242,211.333,139.242,219.667,139.242,223.833L139.242,228" id="gf5650386-eaa3-4350-bfdd-fc9e2228e64c-dark-Constructed-Constructed----note-9" class="edge-thickness-normal edge-pattern-solid transition note-edge" style="fill:none;;;fill:none" data-edge="true" data-et="edge" data-id="Constructed-Constructed----note-9" data-points="W3sieCI6Mzg0LjAzNTE1NjI1LCJ5IjoxMjEuODU1Mzc0MDgxNDUyMjV9LHsieCI6MTM5LjI0MjE4NzUsInkiOjE2Ni41fSx7IngiOjEzOS4yNDIxODc1LCJ5IjoyMDN9LHsieCI6MTM5LjI0MjE4NzUsInkiOjIyOH1d" data-look="classic"></path></g><g class="edgeLabels"><g class="edgeLabel" transform="translate(435.33203125, 58.5)"><g class="label" data-id="edge0" transform="translate(0, -10.5)"><g><rect class="background" style="" x="-57.890625" y="-1" width="115.78125" height="23"></rect><text y="-10.1" text-anchor="middle" style=""><tspan class="text-outer-tspan row" x="0" y="-0.1em" dy="1.1em" text-anchor="middle"><tspan font-style="normal" class="text-inner-tspan" font-weight="normal">new</tspan><tspan font-style="normal" class="text-inner-tspan" font-weight="normal"> or</tspan><tspan font-style="normal" class="text-inner-tspan" font-weight="normal"> upgrade</tspan></tspan></text></g></g></g><g class="edgeLabel" transform="translate(662.96875, 166.5)"><g class="label" data-id="edge1" transform="translate(0, -10.5)"><g><rect class="background" style="" x="-69.6796875" y="-1" width="139.359375" height="23"></rect><text y="-10.1" text-anchor="middle" style=""><tspan class="text-outer-tspan row" x="0" y="-0.1em" dy="1.1em" text-anchor="middle"><tspan font-style="normal" class="text-inner-tspan" font-weight="normal">connectedCallback</tspan></tspan></text></g></g></g><g class="edgeLabel" transform="translate(290.484375, 391.3000030517578)"><g class="label" data-id="edge2" transform="translate(0, -10.5)"><g><rect class="background" style="" x="-95.234375" y="-1" width="190.46875" height="23"></rect><text y="-10.1" text-anchor="middle" style=""><tspan class="text-outer-tspan row" x="0" y="-0.1em" dy="1.1em" text-anchor="middle"><tspan font-style="normal" class="text-inner-tspan" font-weight="normal">attributeChangedCallback</tspan></tspan></text></g></g></g><g class="edgeLabel" transform="translate(459.234375, 391.3000030517578)"><g class="label" data-id="edge3" transform="translate(0, -10.5)"><g><rect class="background" style="" x="-53.515625" y="-1" width="107.03125" height="23"></rect><text y="-10.1" text-anchor="middle" style=""><tspan class="text-outer-tspan row" x="0" y="-0.1em" dy="1.1em" text-anchor="middle"><tspan font-style="normal" class="text-inner-tspan" font-weight="normal">sync</tspan><tspan font-style="normal" class="text-inner-tspan" font-weight="normal"> or</tspan><tspan font-style="normal" class="text-inner-tspan" font-weight="normal"> render</tspan></tspan></text></g></g></g><g class="edgeLabel" transform="translate(594.515625, 391.3000030517578)"><g class="label" data-id="edge4" transform="translate(0, -10.5)"><g><rect class="background" style="" x="-61.765625" y="-1" width="123.53125" height="23"></rect><text y="-10.1" text-anchor="middle" style=""><tspan class="text-outer-tspan row" x="0" y="-0.1em" dy="1.1em" text-anchor="middle"><tspan font-style="normal" class="text-inner-tspan" font-weight="normal">adoptedCallback</tspan></tspan></text></g></g></g><g class="edgeLabel" transform="translate(731.421875, 391.3000030517578)"><g class="label" data-id="edge5" transform="translate(0, -10.5)"><g><rect class="background" style="" x="-55.140625" y="-1" width="110.28125" height="23"></rect><text y="-10.1" text-anchor="middle" style=""><tspan class="text-outer-tspan row" x="0" y="-0.1em" dy="1.1em" text-anchor="middle"><tspan font-style="normal" class="text-inner-tspan" font-weight="normal">still</tspan><tspan font-style="normal" class="text-inner-tspan" font-weight="normal"> connected</tspan></tspan></text></g></g></g><g class="edgeLabel" transform="translate(886.21875, 391.3000030517578)"><g class="label" data-id="edge6" transform="translate(0, -10.5)"><g><rect class="background" style="" x="-79.65625" y="-1" width="159.3125" height="23"></rect><text y="-10.1" text-anchor="middle" style=""><tspan class="text-outer-tspan row" x="0" y="-0.1em" dy="1.1em" text-anchor="middle"><tspan font-style="normal" class="text-inner-tspan" font-weight="normal">disconnectedCallback</tspan></tspan></text></g></g></g><g class="edgeLabel" transform="translate(1027.640625, 391.3000030517578)"><g class="label" data-id="edge7" transform="translate(0, -10.5)"><g><rect class="background" style="" x="-41.765625" y="-1" width="83.53125" height="23"></rect><text y="-10.1" text-anchor="middle" style=""><tspan class="text-outer-tspan row" x="0" y="-0.1em" dy="1.1em" text-anchor="middle"><tspan font-style="normal" class="text-inner-tspan" font-weight="normal">re-inserted</tspan></tspan></text></g></g></g><g class="edgeLabel" transform="translate(987.5, 499.3000030517578)"><g class="label" data-id="edge8" transform="translate(0, -10.5)"><g><rect class="background" style="" x="-80.2109375" y="-1" width="160.421875" height="23"></rect><text y="-10.1" text-anchor="middle" style=""><tspan class="text-outer-tspan row" x="0" y="-0.1em" dy="1.1em" text-anchor="middle"><tspan font-style="normal" class="text-inner-tspan" font-weight="normal">GC</tspan><tspan font-style="normal" class="text-inner-tspan" font-weight="normal"> when</tspan><tspan font-style="normal" class="text-inner-tspan" font-weight="normal"> unreachable</tspan></tspan></text></g></g></g><g class="edgeLabel"><g class="label" data-id="Constructed-Constructed----note-9" transform="translate(0, 0)"><text y="-10.1" text-anchor="middle"><tspan class="text-outer-tspan row" x="0" y="-0.1em" dy="1.1em" text-anchor="middle"></tspan></text></g></g><g><rect class="background" style="stroke: none"></rect></g></g><g class="nodes"><g class="node default" id="gf5650386-eaa3-4350-bfdd-fc9e2228e64c-dark-state-root_start-0" data-look="classic" transform="translate(435.33203125, 15)"><circle class="state-start" r="7" width="14" height="14"></circle></g><g class="node  statediagram-state" id="gf5650386-eaa3-4350-bfdd-fc9e2228e64c-dark-state-Constructed-9" data-look="classic" transform="translate(435.33203125, 112.5)"><rect class="basic label-container" style="" rx="5" ry="5" x="-51.296875" y="-17.5" width="102.59375" height="35"></rect><g class="label" style="" transform="translate(-43.296875, -9.5)"><rect></rect><g><rect class="background" style="stroke: none"></rect><text y="-10.1" style=""><tspan class="text-outer-tspan row" x="0" y="-0.1em" dy="1.1em"><tspan font-style="normal" class="text-inner-tspan" font-weight="normal">Constructed</tspan></tspan></text></g></g></g><g class="node  statediagram-state" id="gf5650386-eaa3-4350-bfdd-fc9e2228e64c-dark-state-Connected-7" data-look="classic" transform="translate(662.96875, 278.9000015258789)"><rect class="basic label-container" style="" rx="5" ry="5" x="-46.140625" y="-17.5" width="92.28125" height="35"></rect><g class="label" style="" transform="translate(-38.140625, -9.5)"><rect></rect><g><rect class="background" style="stroke: none"></rect><text y="-10.1" style=""><tspan class="text-outer-tspan row" x="0" y="-0.1em" dy="1.1em"><tspan font-style="normal" class="text-inner-tspan" font-weight="normal">Connected</tspan></tspan></text></g></g></g><g class="node  statediagram-state" id="gf5650386-eaa3-4350-bfdd-fc9e2228e64c-dark-state-AttributeChanged-3" data-look="classic" transform="translate(405.4296875, 445.3000030517578)"><rect class="basic label-container" style="" rx="5" ry="5" x="-71.3828125" y="-17.5" width="142.765625" height="35"></rect><g class="label" style="" transform="translate(-63.3828125, -9.5)"><rect></rect><g><rect class="background" style="stroke: none"></rect><text y="-10.1" style=""><tspan class="text-outer-tspan row" x="0" y="-0.1em" dy="1.1em"><tspan font-style="normal" class="text-inner-tspan" font-weight="normal">AttributeChanged</tspan></tspan></text></g></g></g><g class="node  statediagram-state" id="gf5650386-eaa3-4350-bfdd-fc9e2228e64c-dark-state-Adopted-5" data-look="classic" transform="translate(693.5390625, 445.3000030517578)"><rect class="basic label-container" style="" rx="5" ry="5" x="-37.921875" y="-17.5" width="75.84375" height="35"></rect><g class="label" style="" transform="translate(-29.921875, -9.5)"><rect></rect><g><rect class="background" style="stroke: none"></rect><text y="-10.1" style=""><tspan class="text-outer-tspan row" x="0" y="-0.1em" dy="1.1em"><tspan font-style="normal" class="text-inner-tspan" font-weight="normal">Adopted</tspan></tspan></text></g></g></g><g class="node  statediagram-state" id="gf5650386-eaa3-4350-bfdd-fc9e2228e64c-dark-state-Disconnected-8" data-look="classic" transform="translate(987.5, 445.3000030517578)"><rect class="basic label-container" style="" rx="5" ry="5" x="-55.7421875" y="-17.5" width="111.484375" height="35"></rect><g class="label" style="" transform="translate(-47.7421875, -9.5)"><rect></rect><g><rect class="background" style="stroke: none"></rect><text y="-10.1" style=""><tspan class="text-outer-tspan row" x="0" y="-0.1em" dy="1.1em"><tspan font-style="normal" class="text-inner-tspan" font-weight="normal">Disconnected</tspan></tspan></text></g></g></g><g class="node default" id="gf5650386-eaa3-4350-bfdd-fc9e2228e64c-dark-state-root_end-8" data-look="classic" transform="translate(987.5, 542.8000030517578)"><g class="outer-path"><path d="M7 0 C7 0.40517908122283747, 6.964012880168563 0.816513743121899, 6.893654271085456 1.2155372436685123 C6.823295662002349 1.6145607442151257, 6.716427752933756 2.013397210557766, 6.5778483455013586 2.394141003279681 C6.439268938068961 2.7748847960015954, 6.26476736710249 3.149104622578984, 6.062177826491071 3.4999999999999996 C5.859588285879653 3.8508953774210153, 5.622755194947063 4.189128084166967, 5.362311101832846 4.499513267805774 C5.10186700871863 4.809898451444582, 4.809898451444583 5.10186700871863, 4.499513267805775 5.362311101832846 C4.189128084166968 5.622755194947063, 3.8508953774210166 5.859588285879652, 3.500000000000001 6.06217782649107 C3.149104622578985 6.264767367102489, 2.7748847960015963 6.439268938068961, 2.3941410032796817 6.5778483455013586 C2.013397210557767 6.716427752933756, 1.6145607442151264 6.823295662002349, 1.2155372436685128 6.893654271085456 C0.8165137431218992 6.964012880168563, 0.4051790812228379 7, 4.286263797015736e-16 7 C-0.405179081222837 7, -0.8165137431218985 6.964012880168563, -1.2155372436685121 6.893654271085456 C-1.6145607442151257 6.823295662002349, -2.0133972105577667 6.716427752933756, -2.394141003279681 6.5778483455013586 C-2.774884796001595 6.439268938068961, -3.149104622578983 6.26476736710249, -3.4999999999999982 6.062177826491071 C-3.8508953774210135 5.859588285879653, -4.189128084166966 5.6227551949470636, -4.499513267805773 5.362311101832848 C-4.809898451444581 5.101867008718632, -5.101867008718628 4.809898451444586, -5.3623111018328435 4.499513267805779 C-5.622755194947059 4.189128084166971, -5.859588285879649 3.8508953774210206, -6.062177826491068 3.5000000000000053 C-6.264767367102486 3.14910462257899, -6.439268938068958 2.774884796001602, -6.577848345501356 2.394141003279688 C-6.716427752933754 2.0133972105577738, -6.823295662002347 1.614560744215134, -6.893654271085454 1.215537243668521 C-6.9640128801685615 0.816513743121908, -6.999999999999999 0.4051790812228472, -7 1.0183126166254463e-14 C-7.000000000000001 -0.40517908122282686, -6.964012880168565 -0.8165137431218878, -6.893654271085459 -1.215537243668501 C-6.823295662002352 -1.6145607442151142, -6.716427752933759 -2.0133972105577542, -6.577848345501363 -2.394141003279669 C-6.439268938068967 -2.7748847960015834, -6.264767367102496 -3.149104622578972, -6.062177826491078 -3.4999999999999876 C-5.859588285879661 -3.8508953774210033, -5.6227551949470715 -4.1891280841669545, -5.362311101832856 -4.499513267805763 C-5.10186700871864 -4.809898451444571, -4.809898451444594 -5.10186700871862, -4.499513267805787 -5.362311101832836 C-4.189128084166979 -5.622755194947053, -3.850895377421028 -5.859588285879643, -3.5000000000000133 -6.062177826491062 C-3.1491046225789985 -6.264767367102482, -2.774884796001611 -6.439268938068954, -2.3941410032796973 -6.577848345501353 C-2.0133972105577835 -6.716427752933752, -1.6145607442151435 -6.823295662002345, -1.2155372436685306 -6.893654271085453 C-0.8165137431219176 -6.9640128801685615, -0.40517908122285695 -6.999999999999999, -1.9937625952807352e-14 -7 C0.4051790812228171 -7.000000000000001, 0.8165137431218781 -6.964012880168565, 1.2155372436684913 -6.89365427108546 C1.6145607442151044 -6.823295662002354, 2.013397210557745 -6.716427752933763, 2.3941410032796595 -6.5778483455013665 C2.774884796001574 -6.43926893806897, 3.149104622578963 -6.2647673671025, 3.499999999999979 -6.062177826491083 C3.8508953774209953 -5.859588285879665, 4.189128084166947 -5.622755194947077, 4.499513267805756 -5.362311101832862 C4.809898451444564 -5.1018670087186475, 5.101867008718613 -4.809898451444602, 5.362311101832829 -4.499513267805796 C5.622755194947046 -4.189128084166989, 5.859588285879637 -3.8508953774210393, 6.062177826491056 -3.500000000000025 C6.2647673671024755 -3.1491046225790105, 6.439268938068949 -2.774884796001623, 6.577848345501348 -2.3941410032797092 C6.716427752933747 -2.0133972105577955, 6.823295662002342 -1.6145607442151562, 6.893654271085451 -1.2155372436685434 C6.96401288016856 -0.8165137431219307, 6.982275711847575 -0.2025895406114567, 7 -3.2800750208310675e-14 C7.017724288152425 0.2025895406113911, 7.017724288152424 -0.2025895406114242, 7 0" stroke="none" stroke-width="0" fill="#2d2d2d" style=""></path><path d="M7 0 C7 0.40517908122283747, 6.964012880168563 0.816513743121899, 6.893654271085456 1.2155372436685123 C6.823295662002349 1.6145607442151257, 6.716427752933756 2.013397210557766, 6.5778483455013586 2.394141003279681 C6.439268938068961 2.7748847960015954, 6.26476736710249 3.149104622578984, 6.062177826491071 3.4999999999999996 C5.859588285879653 3.8508953774210153, 5.622755194947063 4.189128084166967, 5.362311101832846 4.499513267805774 C5.10186700871863 4.809898451444582, 4.809898451444583 5.10186700871863, 4.499513267805775 5.362311101832846 C4.189128084166968 5.622755194947063, 3.8508953774210166 5.859588285879652, 3.500000000000001 6.06217782649107 C3.149104622578985 6.264767367102489, 2.7748847960015963 6.439268938068961, 2.3941410032796817 6.5778483455013586 C2.013397210557767 6.716427752933756, 1.6145607442151264 6.823295662002349, 1.2155372436685128 6.893654271085456 C0.8165137431218992 6.964012880168563, 0.4051790812228379 7, 4.286263797015736e-16 7 C-0.405179081222837 7, -0.8165137431218985 6.964012880168563, -1.2155372436685121 6.893654271085456 C-1.6145607442151257 6.823295662002349, -2.0133972105577667 6.716427752933756, -2.394141003279681 6.5778483455013586 C-2.774884796001595 6.439268938068961, -3.149104622578983 6.26476736710249, -3.4999999999999982 6.062177826491071 C-3.8508953774210135 5.859588285879653, -4.189128084166966 5.6227551949470636, -4.499513267805773 5.362311101832848 C-4.809898451444581 5.101867008718632, -5.101867008718628 4.809898451444586, -5.3623111018328435 4.499513267805779 C-5.622755194947059 4.189128084166971, -5.859588285879649 3.8508953774210206, -6.062177826491068 3.5000000000000053 C-6.264767367102486 3.14910462257899, -6.439268938068958 2.774884796001602, -6.577848345501356 2.394141003279688 C-6.716427752933754 2.0133972105577738, -6.823295662002347 1.614560744215134, -6.893654271085454 1.215537243668521 C-6.9640128801685615 0.816513743121908, -6.999999999999999 0.4051790812228472, -7 1.0183126166254463e-14 C-7.000000000000001 -0.40517908122282686, -6.964012880168565 -0.8165137431218878, -6.893654271085459 -1.215537243668501 C-6.823295662002352 -1.6145607442151142, -6.716427752933759 -2.0133972105577542, -6.577848345501363 -2.394141003279669 C-6.439268938068967 -2.7748847960015834, -6.264767367102496 -3.149104622578972, -6.062177826491078 -3.4999999999999876 C-5.859588285879661 -3.8508953774210033, -5.6227551949470715 -4.1891280841669545, -5.362311101832856 -4.499513267805763 C-5.10186700871864 -4.809898451444571, -4.809898451444594 -5.10186700871862, -4.499513267805787 -5.362311101832836 C-4.189128084166979 -5.622755194947053, -3.850895377421028 -5.859588285879643, -3.5000000000000133 -6.062177826491062 C-3.1491046225789985 -6.264767367102482, -2.774884796001611 -6.439268938068954, -2.3941410032796973 -6.577848345501353 C-2.0133972105577835 -6.716427752933752, -1.6145607442151435 -6.823295662002345, -1.2155372436685306 -6.893654271085453 C-0.8165137431219176 -6.9640128801685615, -0.40517908122285695 -6.999999999999999, -1.9937625952807352e-14 -7 C0.4051790812228171 -7.000000000000001, 0.8165137431218781 -6.964012880168565, 1.2155372436684913 -6.89365427108546 C1.6145607442151044 -6.823295662002354, 2.013397210557745 -6.716427752933763, 2.3941410032796595 -6.5778483455013665 C2.774884796001574 -6.43926893806897, 3.149104622578963 -6.2647673671025, 3.499999999999979 -6.062177826491083 C3.8508953774209953 -5.859588285879665, 4.189128084166947 -5.622755194947077, 4.499513267805756 -5.362311101832862 C4.809898451444564 -5.1018670087186475, 5.101867008718613 -4.809898451444602, 5.362311101832829 -4.499513267805796 C5.622755194947046 -4.189128084166989, 5.859588285879637 -3.8508953774210393, 6.062177826491056 -3.500000000000025 C6.2647673671024755 -3.1491046225790105, 6.439268938068949 -2.774884796001623, 6.577848345501348 -2.3941410032797092 C6.716427752933747 -2.0133972105577955, 6.823295662002342 -1.6145607442151562, 6.893654271085451 -1.2155372436685434 C6.96401288016856 -0.8165137431219307, 6.982275711847575 -0.2025895406114567, 7 -3.2800750208310675e-14 C7.017724288152425 0.2025895406113911, 7.017724288152424 -0.2025895406114242, 7 0" stroke="#cccccc" stroke-width="2" fill="none" stroke-dasharray="0 0" style=""></path><g><path d="M2.5 0 C2.5 0.14470681472244193, 2.487147457203058 0.29161205111496386, 2.46201938253052 0.4341204441673258 C2.436891307857982 0.5766288372196877, 2.3987241974763416 0.7190704323420595, 2.3492315519647713 0.8550503583141718 C2.299738906453201 0.991030284286284, 2.2374169168223177 1.124680222349637, 2.165063509461097 1.2499999999999998 C2.092710102099876 1.3753197776503625, 2.0081268553382365 1.496117172916774, 1.915111107797445 1.6069690242163481 C1.8220953602566536 1.7178208755159223, 1.7178208755159226 1.8220953602566536, 1.6069690242163484 1.915111107797445 C1.4961171729167742 2.0081268553382365, 1.375319777650363 2.0927101020998755, 1.2500000000000002 2.1650635094610964 C1.1246802223496375 2.2374169168223172, 0.9910302842862845 2.2997389064532, 0.8550503583141721 2.349231551964771 C0.7190704323420597 2.3987241974763416, 0.576628837219688 2.436891307857982, 0.43412044416732604 2.46201938253052 C0.291612051114964 2.487147457203058, 0.14470681472244212 2.5, 1.5308084989341916e-16 2.5 C-0.1447068147224418 2.5, -0.2916120511149638 2.487147457203058, -0.43412044416732576 2.46201938253052 C-0.5766288372196877 2.436891307857982, -0.7190704323420595 2.3987241974763416, -0.8550503583141718 2.3492315519647713 C-0.991030284286284 2.299738906453201, -1.124680222349637 2.2374169168223177, -1.2499999999999996 2.165063509461097 C-1.375319777650362 2.092710102099876, -1.4961171729167733 2.008126855338237, -1.6069690242163475 1.9151111077974459 C-1.7178208755159217 1.8220953602566548, -1.822095360256653 1.7178208755159234, -1.9151111077974443 1.6069690242163495 C-2.0081268553382357 1.4961171729167755, -2.0927101020998746 1.3753197776503645, -2.1650635094610955 1.250000000000002 C-2.2374169168223164 1.1246802223496395, -2.2997389064531992 0.9910302842862865, -2.34923155196477 0.8550503583141743 C-2.3987241974763407 0.7190704323420621, -2.436891307857981 0.5766288372196907, -2.4620193825305194 0.434120444167329 C-2.487147457203058 0.29161205111496724, -2.5 0.14470681472244545, -2.5 3.636830773662308e-15 C-2.5 -0.14470681472243818, -2.4871474572030587 -0.2916120511149599, -2.4620193825305208 -0.4341204441673218 C-2.436891307857983 -0.5766288372196837, -2.398724197476343 -0.7190704323420553, -2.3492315519647726 -0.8550503583141675 C-2.2997389064532023 -0.9910302842862798, -2.23741691682232 -1.1246802223496328, -2.165063509461099 -1.2499999999999956 C-2.092710102099878 -1.3753197776503583, -2.00812685533824 -1.4961171729167695, -1.9151111077974488 -1.606969024216344 C-1.8220953602566576 -1.7178208755159183, -1.7178208755159263 -1.82209536025665, -1.6069690242163523 -1.9151111077974416 C-1.4961171729167784 -2.0081268553382334, -1.3753197776503672 -2.0927101020998724, -1.2500000000000047 -2.1650635094610937 C-1.1246802223496422 -2.237416916822315, -0.9910302842862897 -2.299738906453198, -0.8550503583141776 -2.3492315519647686 C-0.7190704323420656 -2.3987241974763394, -0.5766288372196942 -2.4368913078579806, -0.43412044416733236 -2.462019382530519 C-0.29161205111497057 -2.4871474572030574, -0.1447068147224489 -2.4999999999999996, -7.120580697431198e-15 -2.5 C0.14470681472243463 -2.5000000000000004, 0.29161205111495647 -2.487147457203059, 0.4341204441673183 -2.4620193825305217 C0.5766288372196802 -2.436891307857984, 0.7190704323420518 -2.3987241974763442, 0.8550503583141642 -2.349231551964774 C0.9910302842862766 -2.2997389064532037, 1.1246802223496295 -2.2374169168223212, 1.2499999999999925 -2.165063509461101 C1.3753197776503554 -2.0927101020998804, 1.4961171729167668 -2.008126855338242, 1.6069690242163412 -1.915111107797451 C1.7178208755159157 -1.82209536025666, 1.8220953602566472 -1.7178208755159294, 1.915111107797439 -1.6069690242163557 C2.0081268553382308 -1.496117172916782, 2.09271010209987 -1.3753197776503712, 2.1650635094610915 -1.2500000000000089 C2.237416916822313 -1.1246802223496466, 2.299738906453196 -0.9910302842862939, 2.3492315519647673 -0.855050358314182 C2.3987241974763385 -0.71907043234207, 2.4368913078579792 -0.5766288372196986, 2.462019382530518 -0.4341204441673369 C2.487147457203057 -0.29161205111497523, 2.4936698970884197 -0.07235340736123454, 2.5 -1.1714553645825241e-14 C2.5063301029115803 0.07235340736121111, 2.50633010291158 -0.07235340736122292, 2.5 0" stroke="none" stroke-width="0" fill="#555555" style=""></path><path d="M2.5 0 C2.5 0.14470681472244193, 2.487147457203058 0.29161205111496386, 2.46201938253052 0.4341204441673258 C2.436891307857982 0.5766288372196877, 2.3987241974763416 0.7190704323420595, 2.3492315519647713 0.8550503583141718 C2.299738906453201 0.991030284286284, 2.2374169168223177 1.124680222349637, 2.165063509461097 1.2499999999999998 C2.092710102099876 1.3753197776503625, 2.0081268553382365 1.496117172916774, 1.915111107797445 1.6069690242163481 C1.8220953602566536 1.7178208755159223, 1.7178208755159226 1.8220953602566536, 1.6069690242163484 1.915111107797445 C1.4961171729167742 2.0081268553382365, 1.375319777650363 2.0927101020998755, 1.2500000000000002 2.1650635094610964 C1.1246802223496375 2.2374169168223172, 0.9910302842862845 2.2997389064532, 0.8550503583141721 2.349231551964771 C0.7190704323420597 2.3987241974763416, 0.576628837219688 2.436891307857982, 0.43412044416732604 2.46201938253052 C0.291612051114964 2.487147457203058, 0.14470681472244212 2.5, 1.5308084989341916e-16 2.5 C-0.1447068147224418 2.5, -0.2916120511149638 2.487147457203058, -0.43412044416732576 2.46201938253052 C-0.5766288372196877 2.436891307857982, -0.7190704323420595 2.3987241974763416, -0.8550503583141718 2.3492315519647713 C-0.991030284286284 2.299738906453201, -1.124680222349637 2.2374169168223177, -1.2499999999999996 2.165063509461097 C-1.375319777650362 2.092710102099876, -1.4961171729167733 2.008126855338237, -1.6069690242163475 1.9151111077974459 C-1.7178208755159217 1.8220953602566548, -1.822095360256653 1.7178208755159234, -1.9151111077974443 1.6069690242163495 C-2.0081268553382357 1.4961171729167755, -2.0927101020998746 1.3753197776503645, -2.1650635094610955 1.250000000000002 C-2.2374169168223164 1.1246802223496395, -2.2997389064531992 0.9910302842862865, -2.34923155196477 0.8550503583141743 C-2.3987241974763407 0.7190704323420621, -2.436891307857981 0.5766288372196907, -2.4620193825305194 0.434120444167329 C-2.487147457203058 0.29161205111496724, -2.5 0.14470681472244545, -2.5 3.636830773662308e-15 C-2.5 -0.14470681472243818, -2.4871474572030587 -0.2916120511149599, -2.4620193825305208 -0.4341204441673218 C-2.436891307857983 -0.5766288372196837, -2.398724197476343 -0.7190704323420553, -2.3492315519647726 -0.8550503583141675 C-2.2997389064532023 -0.9910302842862798, -2.23741691682232 -1.1246802223496328, -2.165063509461099 -1.2499999999999956 C-2.092710102099878 -1.3753197776503583, -2.00812685533824 -1.4961171729167695, -1.9151111077974488 -1.606969024216344 C-1.8220953602566576 -1.7178208755159183, -1.7178208755159263 -1.82209536025665, -1.6069690242163523 -1.9151111077974416 C-1.4961171729167784 -2.0081268553382334, -1.3753197776503672 -2.0927101020998724, -1.2500000000000047 -2.1650635094610937 C-1.1246802223496422 -2.237416916822315, -0.9910302842862897 -2.299738906453198, -0.8550503583141776 -2.3492315519647686 C-0.7190704323420656 -2.3987241974763394, -0.5766288372196942 -2.4368913078579806, -0.43412044416733236 -2.462019382530519 C-0.29161205111497057 -2.4871474572030574, -0.1447068147224489 -2.4999999999999996, -7.120580697431198e-15 -2.5 C0.14470681472243463 -2.5000000000000004, 0.29161205111495647 -2.487147457203059, 0.4341204441673183 -2.4620193825305217 C0.5766288372196802 -2.436891307857984, 0.7190704323420518 -2.3987241974763442, 0.8550503583141642 -2.349231551964774 C0.9910302842862766 -2.2997389064532037, 1.1246802223496295 -2.2374169168223212, 1.2499999999999925 -2.165063509461101 C1.3753197776503554 -2.0927101020998804, 1.4961171729167668 -2.008126855338242, 1.6069690242163412 -1.915111107797451 C1.7178208755159157 -1.82209536025666, 1.8220953602566472 -1.7178208755159294, 1.915111107797439 -1.6069690242163557 C2.0081268553382308 -1.496117172916782, 2.09271010209987 -1.3753197776503712, 2.1650635094610915 -1.2500000000000089 C2.237416916822313 -1.1246802223496466, 2.299738906453196 -0.9910302842862939, 2.3492315519647673 -0.855050358314182 C2.3987241974763385 -0.71907043234207, 2.4368913078579792 -0.5766288372196986, 2.462019382530518 -0.4341204441673369 C2.487147457203057 -0.29161205111497523, 2.4936698970884197 -0.07235340736123454, 2.5 -1.1714553645825241e-14 C2.5063301029115803 0.07235340736121111, 2.50633010291158 -0.07235340736122292, 2.5 0" stroke="#555555" stroke-width="2" fill="none" stroke-dasharray="0 0" style=""></path></g></g></g><g class="node statediagram-note" id="gf5650386-eaa3-4350-bfdd-fc9e2228e64c-dark-state-Constructed----note-9" data-look="classic" transform="translate(139.2421875, 278.9000015258789)"><g class="basic label-container outer-path"><path d="M-96.2421875 -50.900001525878906 L96.2421875 -50.900001525878906 L96.2421875 50.900001525878906 L-96.2421875 50.900001525878906" stroke="none" stroke-width="0" fill="#333333" style=""></path><path d="M-96.2421875 -50.900001525878906 C-37.030539853576045 -50.900001525878906, 22.18110779284791 -50.900001525878906, 96.2421875 -50.900001525878906 M-96.2421875 -50.900001525878906 C-48.810643178439605 -50.900001525878906, -1.3790988568792102 -50.900001525878906, 96.2421875 -50.900001525878906 M96.2421875 -50.900001525878906 C96.2421875 -19.845472747727516, 96.2421875 11.209056030423874, 96.2421875 50.900001525878906 M96.2421875 -50.900001525878906 C96.2421875 -22.909219417472745, 96.2421875 5.081562690933417, 96.2421875 50.900001525878906 M96.2421875 50.900001525878906 C21.000252733820574 50.900001525878906, -54.24168203235885 50.900001525878906, -96.2421875 50.900001525878906 M96.2421875 50.900001525878906 C47.05282229712609 50.900001525878906, -2.1365429057478167 50.900001525878906, -96.2421875 50.900001525878906 M-96.2421875 50.900001525878906 C-96.2421875 30.427634166839123, -96.2421875 9.95526680779934, -96.2421875 -50.900001525878906 M-96.2421875 50.900001525878906 C-96.2421875 15.260494249221452, -96.2421875 -20.379013027436002, -96.2421875 -50.900001525878906" stroke="#555555" stroke-width="1.3" fill="none" stroke-dasharray="0 0" style=""></path></g><g class="label noteLabel" style="" transform="translate(-81.2421875, -36.900001525878906)"><rect></rect><g><rect class="background" style="stroke: none"></rect><text y="-10.1" style=""><tspan class="text-outer-tspan row" x="0" y="-0.1em" dy="1.1em"><tspan font-style="normal" class="text-inner-tspan" font-weight="normal">constructor:</tspan><tspan font-style="normal" class="text-inner-tspan" font-weight="normal"> call</tspan><tspan font-style="normal" class="text-inner-tspan" font-weight="normal"> super</tspan></tspan><tspan class="text-outer-tspan row" x="0" y="1em" dy="1.1em"><tspan font-style="normal" class="text-inner-tspan" font-weight="normal">only;</tspan></tspan><tspan class="text-outer-tspan row" x="0" y="2.1em" dy="1.1em"><tspan font-style="normal" class="text-inner-tspan" font-weight="normal">defer</tspan><tspan font-style="normal" class="text-inner-tspan" font-weight="normal"> DOM</tspan><tspan font-style="normal" class="text-inner-tspan" font-weight="normal"> work</tspan><tspan font-style="normal" class="text-inner-tspan" font-weight="normal"> to</tspan></tspan><tspan class="text-outer-tspan row" x="0" y="3.2em" dy="1.1em"><tspan font-style="normal" class="text-inner-tspan" font-weight="normal">connectedCallback</tspan></tspan></text></g></g></g></g></g></g><defs><filter id="gf5650386-eaa3-4350-bfdd-fc9e2228e64c-dark-drop-shadow" height="130%" width="130%"><feDropShadow dx="4" dy="4" stdDeviation="0" flood-opacity="0.06" flood-color="#000000"></feDropShadow></filter></defs><defs><filter id="gf5650386-eaa3-4350-bfdd-fc9e2228e64c-dark-drop-shadow-small" height="150%" width="150%"><feDropShadow dx="2" dy="2" stdDeviation="0" flood-opacity="0.06" flood-color="#000000"></feDropShadow></filter></defs><linearGradient id="gf5650386-eaa3-4350-bfdd-fc9e2228e64c-dark-gradient" gradientUnits="objectBoundingBox" x1="0%" y1="0%" x2="100%" y2="0%"><stop offset="0%" stop-color="#555555" stop-opacity="1"></stop><stop offset="100%" stop-color="#555555" stop-opacity="1"></stop></linearGradient></svg>