<svg id="geea57e38-9d80-4359-98ca-22ca2a9e014a-light" width="100%" xmlns="http://www.w3.org/2000/svg" xmlns:xlink="http://www.w3.org/1999/xlink" class="flowchart" style="max-width: 1783.2874755859375px;" viewBox="0 0 1783.2874755859375 1224.96240234375" role="graphics-document document" aria-roledescription="flowchart-v2"><style>#geea57e38-9d80-4359-98ca-22ca2a9e014a-light{font-family:"trebuchet ms",verdana,arial,sans-serif;font-size:16px;fill:#333;}@keyframes edge-animation-frame{from{stroke-dashoffset:0;}}@keyframes dash{to{stroke-dashoffset:0;}}#geea57e38-9d80-4359-98ca-22ca2a9e014a-light .edge-animation-slow{stroke-dasharray:9,5!important;stroke-dashoffset:900;animation:dash 50s linear infinite;stroke-linecap:round;}#geea57e38-9d80-4359-98ca-22ca2a9e014a-light .edge-animation-fast{stroke-dasharray:9,5!important;stroke-dashoffset:900;animation:dash 20s linear infinite;stroke-linecap:round;}#geea57e38-9d80-4359-98ca-22ca2a9e014a-light .error-icon{fill:#552222;}#geea57e38-9d80-4359-98ca-22ca2a9e014a-light .error-text{fill:#552222;stroke:#552222;}#geea57e38-9d80-4359-98ca-22ca2a9e014a-light .edge-thickness-normal{stroke-width:1px;}#geea57e38-9d80-4359-98ca-22ca2a9e014a-light .edge-thickness-thick{stroke-width:3.5px;}#geea57e38-9d80-4359-98ca-22ca2a9e014a-light .edge-pattern-solid{stroke-dasharray:0;}#geea57e38-9d80-4359-98ca-22ca2a9e014a-light .edge-thickness-invisible{stroke-width:0;fill:none;}#geea57e38-9d80-4359-98ca-22ca2a9e014a-light .edge-pattern-dashed{stroke-dasharray:3;}#geea57e38-9d80-4359-98ca-22ca2a9e014a-light .edge-pattern-dotted{stroke-dasharray:2;}#geea57e38-9d80-4359-98ca-22ca2a9e014a-light .marker{fill:#333333;stroke:#333333;}#geea57e38-9d80-4359-98ca-22ca2a9e014a-light .marker.cross{stroke:#333333;}#geea57e38-9d80-4359-98ca-22ca2a9e014a-light svg{font-family:"trebuchet ms",verdana,arial,sans-serif;font-size:16px;}#geea57e38-9d80-4359-98ca-22ca2a9e014a-light p{margin:0;}#geea57e38-9d80-4359-98ca-22ca2a9e014a-light .label{font-family:"trebuchet ms",verdana,arial,sans-serif;color:#333;}#geea57e38-9d80-4359-98ca-22ca2a9e014a-light .cluster-label text{fill:#333;}#geea57e38-9d80-4359-98ca-22ca2a9e014a-light .cluster-label span{color:#333;}#geea57e38-9d80-4359-98ca-22ca2a9e014a-light .cluster-label span p{background-color:transparent;}#geea57e38-9d80-4359-98ca-22ca2a9e014a-light .label text,#geea57e38-9d80-4359-98ca-22ca2a9e014a-light span{fill:#333;color:#333;}#geea57e38-9d80-4359-98ca-22ca2a9e014a-light .node rect,#geea57e38-9d80-4359-98ca-22ca2a9e014a-light .node circle,#geea57e38-9d80-4359-98ca-22ca2a9e014a-light .node ellipse,#geea57e38-9d80-4359-98ca-22ca2a9e014a-light .node polygon,#geea57e38-9d80-4359-98ca-22ca2a9e014a-light .node path{fill:#ECECFF;stroke:#9370DB;stroke-width:1px;}#geea57e38-9d80-4359-98ca-22ca2a9e014a-light .rough-node .label text,#geea57e38-9d80-4359-98ca-22ca2a9e014a-light .node .label text,#geea57e38-9d80-4359-98ca-22ca2a9e014a-light .image-shape .label,#geea57e38-9d80-4359-98ca-22ca2a9e014a-light .icon-shape .label{text-anchor:middle;}#geea57e38-9d80-4359-98ca-22ca2a9e014a-light .node .katex path{fill:#000;stroke:#000;stroke-width:1px;}#geea57e38-9d80-4359-98ca-22ca2a9e014a-light .rough-node .label,#geea57e38-9d80-4359-98ca-22ca2a9e014a-light .node .label,#geea57e38-9d80-4359-98ca-22ca2a9e014a-light .image-shape .label,#geea57e38-9d80-4359-98ca-22ca2a9e014a-light .icon-shape .label{text-align:center;}#geea57e38-9d80-4359-98ca-22ca2a9e014a-light .node.clickable{cursor:pointer;}#geea57e38-9d80-4359-98ca-22ca2a9e014a-light .root .anchor path{fill:#333333!important;stroke-width:0;stroke:#333333;}#geea57e38-9d80-4359-98ca-22ca2a9e014a-light .arrowheadPath{fill:#333333;}#geea57e38-9d80-4359-98ca-22ca2a9e014a-light .edgePath .path{stroke:#333333;stroke-width:1px;}#geea57e38-9d80-4359-98ca-22ca2a9e014a-light .flowchart-link{stroke:#333333;fill:none;}#geea57e38-9d80-4359-98ca-22ca2a9e014a-light .edgeLabel{background-color:rgba(232,232,232, 0.8);text-align:center;}#geea57e38-9d80-4359-98ca-22ca2a9e014a-light .edgeLabel p{background-color:rgba(232,232,232, 0.8);}#geea57e38-9d80-4359-98ca-22ca2a9e014a-light .edgeLabel rect{opacity:0.5;background-color:rgba(232,232,232, 0.8);fill:rgba(232,232,232, 0.8);}#geea57e38-9d80-4359-98ca-22ca2a9e014a-light .labelBkg{background-color:rgba(232, 232, 232, 0.5);}#geea57e38-9d80-4359-98ca-22ca2a9e014a-light .cluster rect{fill:#ffffde;stroke:#aaaa33;stroke-width:1px;}#geea57e38-9d80-4359-98ca-22ca2a9e014a-light .cluster text{fill:#333;}#geea57e38-9d80-4359-98ca-22ca2a9e014a-light .cluster span{color:#333;}#geea57e38-9d80-4359-98ca-22ca2a9e014a-light div.mermaidTooltip{position:absolute;text-align:center;max-width:200px;padding:2px;font-family:"trebuchet ms",verdana,arial,sans-serif;font-size:12px;background:hsl(80, 100%, 96.2745098039%);border:1px solid #aaaa33;border-radius:2px;pointer-events:none;z-index:100;}#geea57e38-9d80-4359-98ca-22ca2a9e014a-light .flowchartTitleText{text-anchor:middle;font-size:18px;fill:#333;}#geea57e38-9d80-4359-98ca-22ca2a9e014a-light rect.text{fill:none;stroke-width:0;}#geea57e38-9d80-4359-98ca-22ca2a9e014a-light .icon-shape,#geea57e38-9d80-4359-98ca-22ca2a9e014a-light .image-shape{background-color:rgba(232,232,232, 0.8);text-align:center;}#geea57e38-9d80-4359-98ca-22ca2a9e014a-light .icon-shape p,#geea57e38-9d80-4359-98ca-22ca2a9e014a-light .image-shape p{background-color:rgba(232,232,232, 0.8);padding:2px;}#geea57e38-9d80-4359-98ca-22ca2a9e014a-light .icon-shape .label rect,#geea57e38-9d80-4359-98ca-22ca2a9e014a-light .image-shape .label rect{opacity:0.5;background-color:rgba(232,232,232, 0.8);fill:rgba(232,232,232, 0.8);}#geea57e38-9d80-4359-98ca-22ca2a9e014a-light .label-icon{display:inline-block;height:1em;overflow:visible;vertical-align:-0.125em;}#geea57e38-9d80-4359-98ca-22ca2a9e014a-light .node .label-icon path{fill:currentColor;stroke:revert;stroke-width:revert;}#geea57e38-9d80-4359-98ca-22ca2a9e014a-light .node .neo-node{stroke:#9370DB;}#geea57e38-9d80-4359-98ca-22ca2a9e014a-light [data-look="neo"].node rect,#geea57e38-9d80-4359-98ca-22ca2a9e014a-light [data-look="neo"].cluster rect,#geea57e38-9d80-4359-98ca-22ca2a9e014a-light [data-look="neo"].node polygon{stroke:#9370DB;filter:drop-shadow(1px 2px 2px rgba(185, 185, 185, 1));}#geea57e38-9d80-4359-98ca-22ca2a9e014a-light [data-look="neo"].node path{stroke:#9370DB;stroke-width:1px;}#geea57e38-9d80-4359-98ca-22ca2a9e014a-light [data-look="neo"].node .outer-path{filter:drop-shadow(1px 2px 2px rgba(185, 185, 185, 1));}#geea57e38-9d80-4359-98ca-22ca2a9e014a-light [data-look="neo"].node .neo-line path{stroke:#9370DB;filter:none;}#geea57e38-9d80-4359-98ca-22ca2a9e014a-light [data-look="neo"].node circle{stroke:#9370DB;filter:drop-shadow(1px 2px 2px rgba(185, 185, 185, 1));}#geea57e38-9d80-4359-98ca-22ca2a9e014a-light [data-look="neo"].node circle .state-start{fill:#000000;}#geea57e38-9d80-4359-98ca-22ca2a9e014a-light [data-look="neo"].icon-shape .icon{fill:#9370DB;filter:drop-shadow(1px 2px 2px rgba(185, 185, 185, 1));}#geea57e38-9d80-4359-98ca-22ca2a9e014a-light [data-look="neo"].icon-shape .icon-neo path{stroke:#9370DB;filter:drop-shadow(1px 2px 2px rgba(185, 185, 185, 1));}#geea57e38-9d80-4359-98ca-22ca2a9e014a-light :root{--mermaid-font-family:"trebuchet ms",verdana,arial,sans-serif;}</style><g><marker id="geea57e38-9d80-4359-98ca-22ca2a9e014a-light_flowchart-v2-pointEnd" class="marker flowchart-v2" viewBox="0 0 10 10" refX="5" refY="5" markerUnits="userSpaceOnUse" markerWidth="8" markerHeight="8" orient="auto"><path d="M 0 0 L 10 5 L 0 10 z" class="arrowMarkerPath" style="stroke-width: 1; stroke-dasharray: 1, 0;"></path></marker><marker id="geea57e38-9d80-4359-98ca-22ca2a9e014a-light_flowchart-v2-pointStart" class="marker flowchart-v2" viewBox="0 0 10 10" refX="4.5" refY="5" markerUnits="userSpaceOnUse" markerWidth="8" markerHeight="8" orient="auto"><path d="M 0 5 L 10 10 L 10 0 z" class="arrowMarkerPath" style="stroke-width: 1; stroke-dasharray: 1, 0;"></path></marker><marker id="geea57e38-9d80-4359-98ca-22ca2a9e014a-light_flowchart-v2-pointEnd-margin" class="marker flowchart-v2" viewBox="0 0 11.5 14" refX="11.5" refY="7" markerUnits="userSpaceOnUse" markerWidth="10.5" markerHeight="14" orient="auto"><path d="M 0 0 L 11.5 7 L 0 14 z" class="arrowMarkerPath" style="stroke-width: 0; stroke-dasharray: 1, 0;"></path></marker><marker id="geea57e38-9d80-4359-98ca-22ca2a9e014a-light_flowchart-v2-pointStart-margin" class="marker flowchart-v2" viewBox="0 0 11.5 14" refX="1" refY="7" markerUnits="userSpaceOnUse" markerWidth="11.5" markerHeight="14" orient="auto"><polygon points="0,7 11.5,14 11.5,0" class="arrowMarkerPath" style="stroke-width: 0; stroke-dasharray: 1, 0;"></polygon></marker><marker id="geea57e38-9d80-4359-98ca-22ca2a9e014a-light_flowchart-v2-circleEnd" class="marker flowchart-v2" viewBox="0 0 10 10" refX="11" refY="5" markerUnits="userSpaceOnUse" markerWidth="11" markerHeight="11" orient="auto"><circle cx="5" cy="5" r="5" class="arrowMarkerPath" style="stroke-width: 1; stroke-dasharray: 1, 0;"></circle></marker><marker id="geea57e38-9d80-4359-98ca-22ca2a9e014a-light_flowchart-v2-circleStart" class="marker flowchart-v2" viewBox="0 0 10 10" refX="-1" refY="5" markerUnits="userSpaceOnUse" markerWidth="11" markerHeight="11" orient="auto"><circle cx="5" cy="5" r="5" class="arrowMarkerPath" style="stroke-width: 1; stroke-dasharray: 1, 0;"></circle></marker><marker id="geea57e38-9d80-4359-98ca-22ca2a9e014a-light_flowchart-v2-circleEnd-margin" class="marker flowchart-v2" viewBox="0 0 10 10" refY="5" refX="12.25" markerUnits="userSpaceOnUse" markerWidth="14" markerHeight="14" orient="auto"><circle cx="5" cy="5" r="5" class="arrowMarkerPath" style="stroke-width: 0; stroke-dasharray: 1, 0;"></circle></marker><marker id="geea57e38-9d80-4359-98ca-22ca2a9e014a-light_flowchart-v2-circleStart-margin" class="marker flowchart-v2" viewBox="0 0 10 10" refX="-2" refY="5" markerUnits="userSpaceOnUse" markerWidth="14" markerHeight="14" orient="auto"><circle cx="5" cy="5" r="5" class="arrowMarkerPath" style="stroke-width: 0; stroke-dasharray: 1, 0;"></circle></marker><marker id="geea57e38-9d80-4359-98ca-22ca2a9e014a-light_flowchart-v2-crossEnd" class="marker cross flowchart-v2" viewBox="0 0 11 11" refX="12" refY="5.2" markerUnits="userSpaceOnUse" markerWidth="11" markerHeight="11" orient="auto"><path d="M 1,1 l 9,9 M 10,1 l -9,9" class="arrowMarkerPath" style="stroke-width: 2; stroke-dasharray: 1, 0;"></path></marker><marker id="geea57e38-9d80-4359-98ca-22ca2a9e014a-light_flowchart-v2-crossStart" class="marker cross flowchart-v2" viewBox="0 0 11 11" refX="-1" refY="5.2" markerUnits="userSpaceOnUse" markerWidth="11" markerHeight="11" orient="auto"><path d="M 1,1 l 9,9 M 10,1 l -9,9" class="arrowMarkerPath" style="stroke-width: 2; stroke-dasharray: 1, 0;"></path></marker><marker id="geea57e38-9d80-4359-98ca-22ca2a9e014a-light_flowchart-v2-crossEnd-margin" class="marker cross flowchart-v2" viewBox="0 0 15 15" refX="17.7" refY="7.5" markerUnits="userSpaceOnUse" markerWidth="12" markerHeight="12" orient="auto"><path d="M 1,1 L 14,14 M 1,14 L 14,1" class="arrowMarkerPath" style="stroke-width: 2.5;"></path></marker><marker id="geea57e38-9d80-4359-98ca-22ca2a9e014a-light_flowchart-v2-crossStart-margin" class="marker cross flowchart-v2" viewBox="0 0 15 15" refX="-3.5" refY="7.5" markerUnits="userSpaceOnUse" markerWidth="12" markerHeight="12" orient="auto"><path d="M 1,1 L 14,14 M 1,14 L 14,1" class="arrowMarkerPath" style="stroke-width: 2.5; stroke-dasharray: 1, 0;"></path></marker><g class="root"><g class="clusters"><g class="cluster" id="geea57e38-9d80-4359-98ca-22ca2a9e014a-light-Data" data-look="classic"><rect style="" x="739.296875" y="1072.3999938964844" width="1035.9906311035156" height="144.5624008178711"></rect><g class="cluster-label" transform="translate(1195.4171905517578, 1072.3999938964844)"><g><rect class="background" style="stroke: none"></rect><text y="-10.1" style=""><tspan class="text-outer-tspan row" x="0" y="-0.1em" dy="1.1em"><tspan font-style="normal" class="text-inner-tspan" font-weight="normal">Data</tspan><tspan font-style="normal" class="text-inner-tspan" font-weight="normal"> +</tspan><tspan font-style="normal" class="text-inner-tspan" font-weight="normal"> messaging</tspan></tspan></text></g></g></g><g class="cluster" id="geea57e38-9d80-4359-98ca-22ca2a9e014a-light-Core" data-look="classic"><rect style="" x="8" y="628.5999984741211" width="711.296875" height="588.3623962402344"></rect><g class="cluster-label" transform="translate(297.2890625, 628.5999984741211)"><g><rect class="background" style="stroke: none"></rect><text y="-10.1" style=""><tspan class="text-outer-tspan row" x="0" y="-0.1em" dy="1.1em"><tspan font-style="normal" class="text-inner-tspan" font-weight="normal">Flash-sale</tspan><tspan font-style="normal" class="text-inner-tspan" font-weight="normal"> services</tspan></tspan></text></g></g></g><g class="cluster" id="geea57e38-9d80-4359-98ca-22ca2a9e014a-light-Gateway" data-look="classic"><rect style="" x="268.921875" y="380.5999984741211" width="290.09375" height="198"></rect><g class="cluster-label" transform="translate(370.296875, 380.5999984741211)"><g><rect class="background" style="stroke: none"></rect><text y="-10.1" style=""><tspan class="text-outer-tspan row" x="0" y="-0.1em" dy="1.1em"><tspan font-style="normal" class="text-inner-tspan" font-weight="normal">API</tspan><tspan font-style="normal" class="text-inner-tspan" font-weight="normal"> gateway</tspan></tspan></text></g></g></g><g class="cluster" id="geea57e38-9d80-4359-98ca-22ca2a9e014a-light-Edge" data-look="classic"><rect style="" x="250.1015625" y="115" width="327.734375" height="215.5999984741211"></rect><g class="cluster-label" transform="translate(379.5625, 115)"><g><rect class="background" style="stroke: none"></rect><text y="-10.1" style=""><tspan class="text-outer-tspan row" x="0" y="-0.1em" dy="1.1em"><tspan font-style="normal" class="text-inner-tspan" font-weight="normal">CDN</tspan><tspan font-style="normal" class="text-inner-tspan" font-weight="normal"> edge</tspan></tspan></text></g></g></g></g><g class="edgePaths"><path d="M414.469,42.5L414.385,48.5C414.302,54.5,414.135,66.5,414.052,78.583C413.969,90.667,413.969,102.833,413.969,112.417C413.969,122,413.969,129,413.969,132.5L413.969,136" id="geea57e38-9d80-4359-98ca-22ca2a9e014a-light-L_Users_WR_0" class="edge-thickness-normal edge-pattern-solid edge-thickness-normal edge-pattern-solid flowchart-link" style=";" data-edge="true" data-et="edge" data-id="L_Users_WR_0" data-points="W3sieCI6NDE0LjQ2ODc1LCJ5Ijo0Mi41fSx7IngiOjQxMy45Njg3NSwieSI6NzguNX0seyJ4Ijo0MTMuOTY4NzUsInkiOjExNX0seyJ4Ijo0MTMuOTY4NzUsInkiOjE0MH1d" data-look="classic" marker-end="url(#geea57e38-9d80-4359-98ca-22ca2a9e014a-light_flowchart-v2-pointEnd)"></path><path d="M413.969,206.6L413.969,210.767C413.969,214.933,413.969,223.267,413.969,230.933C413.969,238.6,413.969,245.6,413.969,249.1L413.969,252.6" id="geea57e38-9d80-4359-98ca-22ca2a9e014a-light-L_WR_CDN_0" class="edge-thickness-normal edge-pattern-solid edge-thickness-normal edge-pattern-solid flowchart-link" style=";" data-edge="true" data-et="edge" data-id="L_WR_CDN_0" data-points="W3sieCI6NDEzLjk2ODc1LCJ5IjoyMDYuNTk5OTk4NDc0MTIxMX0seyJ4Ijo0MTMuOTY4NzUsInkiOjIzMS41OTk5OTg0NzQxMjExfSx7IngiOjQxMy45Njg3NSwieSI6MjU2LjU5OTk5ODQ3NDEyMTF9XQ==" data-look="classic" marker-end="url(#geea57e38-9d80-4359-98ca-22ca2a9e014a-light_flowchart-v2-pointEnd)"></path><path d="M413.969,305.6L413.969,309.767C413.969,313.933,413.969,322.267,413.969,330.6C413.969,338.933,413.969,347.267,413.969,355.6C413.969,363.933,413.969,372.267,413.969,379.933C413.969,387.6,413.969,394.6,413.969,398.1L413.969,401.6" id="geea57e38-9d80-4359-98ca-22ca2a9e014a-light-L_CDN_RL_0" class="edge-thickness-normal edge-pattern-solid edge-thickness-normal edge-pattern-solid flowchart-link" style=";" data-edge="true" data-et="edge" data-id="L_CDN_RL_0" data-points="W3sieCI6NDEzLjk2ODc1LCJ5IjozMDUuNTk5OTk4NDc0MTIxMX0seyJ4Ijo0MTMuOTY4NzUsInkiOjMzMC41OTk5OTg0NzQxMjExfSx7IngiOjQxMy45Njg3NSwieSI6MzU1LjU5OTk5ODQ3NDEyMTF9LHsieCI6NDEzLjk2ODc1LCJ5IjozODAuNTk5OTk4NDc0MTIxMX0seyJ4Ijo0MTMuOTY4NzUsInkiOjQwNS41OTk5OTg0NzQxMjExfV0=" data-look="classic" marker-end="url(#geea57e38-9d80-4359-98ca-22ca2a9e014a-light_flowchart-v2-pointEnd)"></path><path d="M413.969,454.6L413.969,458.767C413.969,462.933,413.969,471.267,413.969,478.933C413.969,486.6,413.969,493.6,413.969,497.1L413.969,500.6" id="geea57e38-9d80-4359-98ca-22ca2a9e014a-light-L_RL_Auth_0" class="edge-thickness-normal edge-pattern-solid edge-thickness-normal edge-pattern-solid flowchart-link" style=";" data-edge="true" data-et="edge" data-id="L_RL_Auth_0" data-points="W3sieCI6NDEzLjk2ODc1LCJ5Ijo0NTQuNTk5OTk4NDc0MTIxMX0seyJ4Ijo0MTMuOTY4NzUsInkiOjQ3OS41OTk5OTg0NzQxMjExfSx7IngiOjQxMy45Njg3NSwieSI6NTA0LjU5OTk5ODQ3NDEyMTF9XQ==" data-look="classic" marker-end="url(#geea57e38-9d80-4359-98ca-22ca2a9e014a-light_flowchart-v2-pointEnd)"></path><path d="M413.969,553.6L413.969,557.767C413.969,561.933,413.969,570.267,413.969,578.6C413.969,586.933,413.969,595.267,413.969,603.6C413.969,611.933,413.969,620.267,413.969,627.933C413.969,635.6,413.969,642.6,413.969,646.1L413.969,649.6" id="geea57e38-9d80-4359-98ca-22ca2a9e014a-light-L_Auth_QS_0" class="edge-thickness-normal edge-pattern-solid edge-thickness-normal edge-pattern-solid flowchart-link" style=";" data-edge="true" data-et="edge" data-id="L_Auth_QS_0" data-points="W3sieCI6NDEzLjk2ODc1LCJ5Ijo1NTMuNTk5OTk4NDc0MTIxMX0seyJ4Ijo0MTMuOTY4NzUsInkiOjU3OC41OTk5OTg0NzQxMjExfSx7IngiOjQxMy45Njg3NSwieSI6NjAzLjU5OTk5ODQ3NDEyMTF9LHsieCI6NDEzLjk2ODc1LCJ5Ijo2MjguNTk5OTk4NDc0MTIxMX0seyJ4Ijo0MTMuOTY4NzUsInkiOjY1My41OTk5OTg0NzQxMjExfV0=" data-look="classic" marker-end="url(#geea57e38-9d80-4359-98ca-22ca2a9e014a-light_flowchart-v2-pointEnd)"></path><path d="M358.4,720.2L348.249,726.283C338.098,732.367,317.795,744.533,307.644,756.033C297.492,767.533,297.492,778.367,297.492,783.783L297.492,789.2" id="geea57e38-9d80-4359-98ca-22ca2a9e014a-light-L_QS_IS_0" class="edge-thickness-normal edge-pattern-solid edge-thickness-normal edge-pattern-solid flowchart-link" style=";" data-edge="true" data-et="edge" data-id="L_QS_IS_0" data-points="W3sieCI6MzU4LjQwMDQxOTI3MjQ4Mjc0LCJ5Ijo3MjAuMTk5OTk2OTQ4MjQyMn0seyJ4IjoyOTcuNDkyMTg3NSwieSI6NzU2LjY5OTk5Njk0ODI0MjJ9LHsieCI6Mjk3LjQ5MjE4NzUsInkiOjc5My4xOTk5OTY5NDgyNDIyfV0=" data-look="classic" marker-end="url(#geea57e38-9d80-4359-98ca-22ca2a9e014a-light_flowchart-v2-pointEnd)"></path><path d="M249.348,859.8L240.553,865.883C231.758,871.967,214.168,884.133,205.373,901.85C196.578,919.567,196.578,942.833,196.578,966.1C196.578,989.367,196.578,1012.633,196.578,1030.35C196.578,1048.067,196.578,1060.233,292.202,1076.765C387.826,1093.296,579.073,1114.193,674.697,1124.641L770.321,1135.089" id="geea57e38-9d80-4359-98ca-22ca2a9e014a-light-L_IS_Redis_0" class="edge-thickness-normal edge-pattern-solid edge-thickness-normal edge-pattern-solid flowchart-link" style=";" data-edge="true" data-et="edge" data-id="L_IS_Redis_0" data-points="W3sieCI6MjQ5LjM0ODM3MzE1OTE3NjI4LCJ5Ijo4NTkuNzk5OTk1NDIyMzYzM30seyJ4IjoxOTYuNTc4MTI1LCJ5Ijo4OTYuMjk5OTk1NDIyMzYzM30seyJ4IjoxOTYuNTc4MTI1LCJ5Ijo5NjYuMDk5OTk0NjU5NDIzOH0seyJ4IjoxOTYuNTc4MTI1LCJ5IjoxMDM1Ljg5OTk5Mzg5NjQ4NDR9LHsieCI6MTk2LjU3ODEyNSwieSI6MTA3Mi4zOTk5OTM4OTY0ODQ0fSx7IngiOjc3NC4yOTY4NzUsInkiOjExMzUuNTIzNTQ5NjYwMTAwNn1d" data-look="classic" marker-end="url(#geea57e38-9d80-4359-98ca-22ca2a9e014a-light_flowchart-v2-pointEnd)"></path><path d="M362.127,859.8L373.934,865.883C385.742,871.967,409.357,884.133,421.165,895.633C432.973,907.133,432.973,917.967,432.973,923.383L432.973,928.8" id="geea57e38-9d80-4359-98ca-22ca2a9e014a-light-L_IS_OS_0" class="edge-thickness-normal edge-pattern-solid edge-thickness-normal edge-pattern-solid flowchart-link" style=";" data-edge="true" data-et="edge" data-id="L_IS_OS_0" data-points="W3sieCI6MzYyLjEyNjg1MTYxNjM4ODgsInkiOjg1OS43OTk5OTU0MjIzNjMzfSx7IngiOjQzMi45NzI2NTYyNSwieSI6ODk2LjI5OTk5NTQyMjM2MzN9LHsieCI6NDMyLjk3MjY1NjI1LCJ5Ijo5MzIuNzk5OTk1NDIyMzYzM31d" data-look="classic" marker-end="url(#geea57e38-9d80-4359-98ca-22ca2a9e014a-light_flowchart-v2-pointEnd)"></path><path d="M416.482,999.4L413.469,1005.483C410.457,1011.567,404.431,1023.733,401.419,1035.9C398.406,1048.067,398.406,1060.233,496.746,1076.527C595.085,1092.821,791.764,1113.242,890.104,1123.452L988.443,1133.663" id="geea57e38-9d80-4359-98ca-22ca2a9e014a-light-L_OS_MQ_0" class="edge-thickness-normal edge-pattern-solid edge-thickness-normal edge-pattern-solid flowchart-link" style=";" data-edge="true" data-et="edge" data-id="L_OS_MQ_0" data-points="W3sieCI6NDE2LjQ4MTgwNjQ3NDQzNDksInkiOjk5OS4zOTk5OTM4OTY0ODQ0fSx7IngiOjM5OC40MDYyNSwieSI6MTAzNS44OTk5OTM4OTY0ODQ0fSx7IngiOjM5OC40MDYyNSwieSI6MTA3Mi4zOTk5OTM4OTY0ODQ0fSx7IngiOjk5Mi40MjE4NzUsInkiOjExMzQuMDc1ODE0MDc1MjU3M31d" data-look="classic" marker-end="url(#geea57e38-9d80-4359-98ca-22ca2a9e014a-light_flowchart-v2-pointEnd)"></path><path d="M992.422,1132.395L908.781,1122.396C825.141,1112.397,657.859,1092.398,574.219,1076.316C490.578,1060.233,490.578,1048.067,485.982,1036.414C481.386,1024.762,472.193,1013.623,467.597,1008.054L463.001,1002.485" id="geea57e38-9d80-4359-98ca-22ca2a9e014a-light-L_MQ_OS_0" class="edge-thickness-normal edge-pattern-solid edge-thickness-normal edge-pattern-solid flowchart-link" style=";" data-edge="true" data-et="edge" data-id="L_MQ_OS_0" data-points="W3sieCI6OTkyLjQyMTg3NSwieSI6MTEzMi4zOTUyNTY5Mzk3NTF9LHsieCI6NDkwLjU3ODEyNSwieSI6MTA3Mi4zOTk5OTM4OTY0ODQ0fSx7IngiOjQ5MC41NzgxMjUsInkiOjEwMzUuODk5OTkzODk2NDg0NH0seyJ4Ijo0NjAuNDU0OTIxMDk4MDM0NywieSI6OTk5LjM5OTk5Mzg5NjQ4NDR9XQ==" data-look="classic" marker-end="url(#geea57e38-9d80-4359-98ca-22ca2a9e014a-light_flowchart-v2-pointEnd)"></path><path d="M307.973,995.984L280.145,1002.636C252.318,1009.289,196.663,1022.595,168.835,1035.331C141.008,1048.067,141.008,1060.233,141.008,1072.147C141.008,1084.06,141.008,1095.721,141.008,1101.551L141.008,1107.381" id="geea57e38-9d80-4359-98ca-22ca2a9e014a-light-L_OS_PS_0" class="edge-thickness-normal edge-pattern-solid edge-thickness-normal edge-pattern-solid flowchart-link" style=";" data-edge="true" data-et="edge" data-id="L_OS_PS_0" data-points="W3sieCI6MzA3Ljk3MjY1NjI1LCJ5Ijo5OTUuOTgzNzI5MjY0NDgzfSx7IngiOjE0MS4wMDc4MTI1LCJ5IjoxMDM1Ljg5OTk5Mzg5NjQ4NDR9LHsieCI6MTQxLjAwNzgxMjUsInkiOjEwNzIuMzk5OTkzODk2NDg0NH0seyJ4IjoxNDEuMDA3ODEyNSwieSI6MTExMS4zODExOTUwNjgzNTk0fV0=" data-look="classic" marker-end="url(#geea57e38-9d80-4359-98ca-22ca2a9e014a-light_flowchart-v2-pointEnd)"></path><path d="M501.185,999.4L513.647,1005.483C526.108,1011.567,551.031,1023.733,563.492,1035.9C575.953,1048.067,575.953,1060.233,688.865,1076.729C801.776,1093.225,1027.6,1114.05,1140.511,1124.463L1253.423,1134.875" id="geea57e38-9d80-4359-98ca-22ca2a9e014a-light-L_OS_DB_0" class="edge-thickness-normal edge-pattern-solid edge-thickness-normal edge-pattern-solid flowchart-link" style=";" data-edge="true" data-et="edge" data-id="L_OS_DB_0" data-points="W3sieCI6NTAxLjE4NTQwMDU1Mjc0NzIsInkiOjk5OS4zOTk5OTM4OTY0ODQ0fSx7IngiOjU3NS45NTMxMjUsInkiOjEwMzUuODk5OTkzODk2NDg0NH0seyJ4Ijo1NzUuOTUzMTI1LCJ5IjoxMDcyLjM5OTk5Mzg5NjQ4NDR9LHsieCI6MTI1Ny40MDYyNSwieSI6MTEzNS4yNDI0OTg3NzQyMzIyfV0=" data-look="classic" marker-end="url(#geea57e38-9d80-4359-98ca-22ca2a9e014a-light_flowchart-v2-pointEnd)"></path><path d="M358.271,999.4L344.624,1005.483C330.977,1011.567,303.684,1023.733,290.037,1035.9C276.391,1048.067,276.391,1060.233,358.713,1076.546C441.036,1092.858,605.682,1113.316,688.005,1123.545L770.327,1133.774" id="geea57e38-9d80-4359-98ca-22ca2a9e014a-light-L_OS_Redis_0" class="edge-thickness-normal edge-pattern-dotted edge-thickness-normal edge-pattern-solid flowchart-link" style=";" data-edge="true" data-et="edge" data-id="L_OS_Redis_0" data-points="W3sieCI6MzU4LjI3MDkxNDQ0MjYxNzU0LCJ5Ijo5OTkuMzk5OTkzODk2NDg0NH0seyJ4IjoyNzYuMzkwNjI1LCJ5IjoxMDM1Ljg5OTk5Mzg5NjQ4NDR9LHsieCI6Mjc2LjM5MDYyNSwieSI6MTA3Mi4zOTk5OTM4OTY0ODQ0fSx7IngiOjc3NC4yOTY4NzUsInkiOjExMzQuMjY3MTA5OTkxODY4Mn1d" data-look="classic" marker-end="url(#geea57e38-9d80-4359-98ca-22ca2a9e014a-light_flowchart-v2-pointEnd)"></path><path d="M719.297,1131.652L1525.057,1138.055" id="geea57e38-9d80-4359-98ca-22ca2a9e014a-light-L_Core_OBS_0" class="edge-thickness-normal edge-pattern-solid edge-thickness-normal edge-pattern-solid flowchart-link" style=";" data-edge="true" data-et="edge" data-id="L_Core_OBS_0" data-points="W3sieCI6NTE3LjY4MDg5NTA2ODM0MSwieSI6NzIwLjE5OTk5Njk0ODI0MjJ9LHsieCI6NjMxLjM1OTM3NSwieSI6NzU2LjY5OTk5Njk0ODI0MjJ9LHsieCI6NjMxLjM1OTM3NSwieSI6ODI2LjQ5OTk5NjE4NTMwMjd9LHsieCI6NjMxLjM1OTM3NSwieSI6ODk2LjI5OTk5NTQyMjM2MzN9LHsieCI6NjMxLjM1OTM3NSwieSI6OTY2LjA5OTk5NDY1OTQyMzh9LHsieCI6NjMxLjM1OTM3NSwieSI6MTAzNS44OTk5OTM4OTY0ODQ0fSx7IngiOjYzMS4zNTkzNzUsInkiOjEwNzIuMzk5OTkzODk2NDg0NH0seyJ4IjoxNTI5LjA1NjUxODg1MjcyNCwieSI6MTEzOC4wODY5MDU4MzcwMzZ9XQ==" data-look="classic" marker-end="url(#geea57e38-9d80-4359-98ca-22ca2a9e014a-light_flowchart-v2-pointEnd)"></path></g><g class="edgeLabels"><g class="edgeLabel" transform="translate(413.96875, 78.5)"><g class="label" data-id="L_Users_WR_0" transform="translate(0, -10.5)"><g><rect class="background" style="" x="-49.7578125" y="-1" width="99.515625" height="23"></rect><text y="-10.1" text-anchor="middle" style=""><tspan class="text-outer-tspan row" x="0" y="-0.1em" dy="1.1em" text-anchor="middle"><tspan font-style="normal" class="text-inner-tspan" font-weight="normal">1.</tspan><tspan font-style="normal" class="text-inner-tspan" font-weight="normal"> join</tspan><tspan font-style="normal" class="text-inner-tspan" font-weight="normal"> queue</tspan></tspan></text></g></g></g><g class="edgeLabel"><g class="label" data-id="L_WR_CDN_0" transform="translate(0, 0)"><text y="-10.1" text-anchor="middle"><tspan class="text-outer-tspan row" x="0" y="-0.1em" dy="1.1em" text-anchor="middle"></tspan></text></g></g><g><rect class="background" style="stroke: none"></rect></g><g class="edgeLabel"><g class="label" data-id="L_CDN_RL_0" transform="translate(0, 0)"><text y="-10.1" text-anchor="middle"><tspan class="text-outer-tspan row" x="0" y="-0.1em" dy="1.1em" text-anchor="middle"></tspan></text></g></g><g><rect class="background" style="stroke: none"></rect></g><g class="edgeLabel"><g class="label" data-id="L_RL_Auth_0" transform="translate(0, 0)"><text y="-10.1" text-anchor="middle"><tspan class="text-outer-tspan row" x="0" y="-0.1em" dy="1.1em" text-anchor="middle"></tspan></text></g></g><g><rect class="background" style="stroke: none"></rect></g><g class="edgeLabel"><g class="label" data-id="L_Auth_QS_0" transform="translate(0, 0)"><text y="-10.1" text-anchor="middle"><tspan class="text-outer-tspan row" x="0" y="-0.1em" dy="1.1em" text-anchor="middle"></tspan></text></g></g><g><rect class="background" style="stroke: none"></rect></g><g class="edgeLabel" transform="translate(297.4921875, 756.6999969482422)"><g class="label" data-id="L_QS_IS_0" transform="translate(0, -10.5)"><g><rect class="background" style="" x="-32.296875" y="-1" width="64.59375" height="23"></rect><text y="-10.1" text-anchor="middle" style=""><tspan class="text-outer-tspan row" x="0" y="-0.1em" dy="1.1em" text-anchor="middle"><tspan font-style="normal" class="text-inner-tspan" font-weight="normal">2.</tspan><tspan font-style="normal" class="text-inner-tspan" font-weight="normal"> admit</tspan></tspan></text></g></g></g><g class="edgeLabel" transform="translate(196.578125, 966.0999946594238)"><g class="label" data-id="L_IS_Redis_0" transform="translate(0, -10.5)"><g><rect class="background" style="" x="-38.0078125" y="-1" width="76.015625" height="23"></rect><text y="-10.1" text-anchor="middle" style=""><tspan class="text-outer-tspan row" x="0" y="-0.1em" dy="1.1em" text-anchor="middle"><tspan font-style="normal" class="text-inner-tspan" font-weight="normal">3.</tspan><tspan font-style="normal" class="text-inner-tspan" font-weight="normal"> reserve</tspan></tspan></text></g></g></g><g class="edgeLabel" transform="translate(432.97265625, 896.2999954223633)"><g class="label" data-id="L_IS_OS_0" transform="translate(0, -10.5)"><g><rect class="background" style="" x="-54.8125" y="-1" width="109.625" height="23"></rect><text y="-10.1" text-anchor="middle" style=""><tspan class="text-outer-tspan row" x="0" y="-0.1em" dy="1.1em" text-anchor="middle"><tspan font-style="normal" class="text-inner-tspan" font-weight="normal">4.</tspan><tspan font-style="normal" class="text-inner-tspan" font-weight="normal"> checkout</tspan><tspan font-style="normal" class="text-inner-tspan" font-weight="normal"> ok</tspan></tspan></text></g></g></g><g class="edgeLabel" transform="translate(398.40625, 1035.8999938964844)"><g class="label" data-id="L_OS_MQ_0" transform="translate(0, -10.5)"><g><rect class="background" style="" x="-42.203125" y="-1" width="84.40625" height="23"></rect><text y="-10.1" text-anchor="middle" style=""><tspan class="text-outer-tspan row" x="0" y="-0.1em" dy="1.1em" text-anchor="middle"><tspan font-style="normal" class="text-inner-tspan" font-weight="normal">5.</tspan><tspan font-style="normal" class="text-inner-tspan" font-weight="normal"> enqueue</tspan></tspan></text></g></g></g><g class="edgeLabel" transform="translate(490.578125, 1035.8999938964844)"><g class="label" data-id="L_MQ_OS_0" transform="translate(0, -10.5)"><g><rect class="background" style="" x="-29.96875" y="-1" width="59.9375" height="23"></rect><text y="-10.1" text-anchor="middle" style=""><tspan class="text-outer-tspan row" x="0" y="-0.1em" dy="1.1em" text-anchor="middle"><tspan font-style="normal" class="text-inner-tspan" font-weight="normal">6.</tspan><tspan font-style="normal" class="text-inner-tspan" font-weight="normal"> drain</tspan></tspan></text></g></g></g><g class="edgeLabel" transform="translate(141.0078125, 1035.8999938964844)"><g class="label" data-id="L_OS_PS_0" transform="translate(0, -10.5)"><g><rect class="background" style="" x="-35.5703125" y="-1" width="71.140625" height="23"></rect><text y="-10.1" text-anchor="middle" style=""><tspan class="text-outer-tspan row" x="0" y="-0.1em" dy="1.1em" text-anchor="middle"><tspan font-style="normal" class="text-inner-tspan" font-weight="normal">7.</tspan><tspan font-style="normal" class="text-inner-tspan" font-weight="normal"> charge</tspan></tspan></text></g></g></g><g class="edgeLabel" transform="translate(575.953125, 1035.8999938964844)"><g class="label" data-id="L_OS_DB_0" transform="translate(0, -10.5)"><g><rect class="background" style="" x="-35.40625" y="-1" width="70.8125" height="23"></rect><text y="-10.1" text-anchor="middle" style=""><tspan class="text-outer-tspan row" x="0" y="-0.1em" dy="1.1em" text-anchor="middle"><tspan font-style="normal" class="text-inner-tspan" font-weight="normal">8.</tspan><tspan font-style="normal" class="text-inner-tspan" font-weight="normal"> persist</tspan></tspan></text></g></g></g><g class="edgeLabel" transform="translate(276.390625, 1035.8999938964844)"><g class="label" data-id="L_OS_Redis_0" transform="translate(0, -10.5)"><g><rect class="background" style="" x="-59.8125" y="-1" width="119.625" height="23"></rect><text y="-10.1" text-anchor="middle" style=""><tspan class="text-outer-tspan row" x="0" y="-0.1em" dy="1.1em" text-anchor="middle"><tspan font-style="normal" class="text-inner-tspan" font-weight="normal">confirm/release</tspan></tspan></text></g></g></g><g class="edgeLabel"><g class="label" data-id="L_Core_OBS_0" transform="translate(0, 0)"><text y="-10.1" text-anchor="middle"><tspan class="text-outer-tspan row" x="0" y="-0.1em" dy="1.1em" text-anchor="middle"></tspan></text></g></g><g><rect class="background" style="stroke: none"></rect></g></g><g class="nodes"><g class="node default" id="geea57e38-9d80-4359-98ca-22ca2a9e014a-light-flowchart-Users-0" data-look="classic" transform="translate(413.96875, 25)"><g class="basic label-container outer-path"><path d="M-77.734375 -17 C-29.881043423547524 -17, 17.97228815290495 -17, 77.734375 -17 C77.734375 -17, 77.734375 -17, 77.734375 -17 C78.09419636590069 -16.988461229145365, 78.45401773180137 -16.97692245829073, 78.82356873967211 -16.965071676755716 C79.22987639407114 -16.92587566599229, 79.63618404847017 -16.886679655228864, 79.9082867486366 -16.860430234995185 C80.19070018071899 -16.81477182144498, 80.47311361280137 -16.76911340789478, 80.98407168792333 -16.686505668848113 C81.35246577666092 -16.602422122089852, 81.72085986539852 -16.51833857533159, 82.04650292646163 -16.4440126716635 C82.36747015338045 -16.348751283505347, 82.68843738029928 -16.253489895347194, 83.09121470640156 -16.133947699181366 C83.38643700438331 -16.025303164519073, 83.68165930236506 -15.91665862985678, 84.11391408294936 -15.757584874882369 C84.38801435933176 -15.636248813423686, 84.66211463571418 -15.514912751965005, 85.11039856499849 -15.316470754341125 C85.47377566937494 -15.12689715174207, 85.83715277375141 -14.937323549143011, 86.07657338406693 -14.812417970097622 C86.28838951742101 -14.684013785288618, 86.50020565077507 -14.555609600479615, 87.00846832057933 -14.247497783161291 C87.19232760675699 -14.119245504263969, 87.37618689293467 -13.990993225366646, 87.90225401835067 -13.624031571755262 C88.13941828249372 -13.434899382307309, 88.37658254663675 -13.245767192859354, 88.7542577202324 -12.944581292275288 C89.05453215749277 -12.671879993181667, 89.35480659475314 -12.399178694088047, 89.56097836025927 -12.21193895166137 C89.83756996297959 -11.926335413259743, 90.11416156569989 -11.640731874858114, 90.31910095028036 -11.42911513444239 C90.53173767829485 -11.179339934343993, 90.74437440630933 -10.929564734245595, 91.02551020195651 -10.59932663159847 C91.22604967135169 -10.330622012130426, 91.42658914074687 -10.06191739266238, 91.67730332814824 -9.725983222076888 C91.869850042425 -9.430179762915479, 92.06239675670176 -9.13437630375407, 92.27180197109088 -8.812673661278927 C92.42279897850874 -8.544563184503511, 92.57379598592661 -8.276452707728096, 92.806563208341 -7.863150934094199 C92.94604001409812 -7.573524362613983, 93.08551681985523 -7.283897791133767, 93.27938959126881 -6.881316833080699 C93.41532838301069 -6.545545389280518, 93.55126717475257 -6.209773945480338, 93.68833817484592 -5.871205925162238 C93.80559341120063 -5.518051835346709, 93.92284864755533 -5.16489774553118, 94.03172850162323 -4.836968972727556 C94.11764522475065 -4.509331270899402, 94.20356194787804 -4.181693569071247, 94.308149507091 -3.7828558772573464 C94.37638575800895 -3.4324771505304112, 94.4446220089269 -3.082098423803476, 94.51646531804565 -2.713198215567453 C94.55680102660783 -2.400362425145777, 94.59713673517 -2.0875266347241017, 94.65581992013637 -1.632391440430593 C94.67101169981152 -1.3957672094062783, 94.68620347948666 -1.1591429783819633, 94.7256406754117 -0.5448768187181379 C94.7256406754117 -0.2275521117947572, 94.7256406754117 0.08977259512862346, 94.7256406754117 0.5448768187181336 C94.6984154303954 0.9689319856691603, 94.6711901853791 1.392987152620187, 94.65581992013637 1.6323914404305815 C94.61448917983856 1.95294450050254, 94.57315843954076 2.2734975605744987, 94.51646531804565 2.7131982155674415 C94.4638346552727 2.983445545411955, 94.41120399249978 3.253692875256468, 94.308149507091 3.782855877257343 C94.24255130782018 4.03301024151639, 94.17695310854936 4.283164605775436, 94.03172850162323 4.836968972727545 C93.90061643686255 5.231857621916108, 93.76950437210186 5.626746271104669, 93.68833817484592 5.871205925162227 C93.58671742367524 6.122211145257371, 93.48509667250457 6.373216365352516, 93.27938959126881 6.881316833080694 C93.09299630527774 7.268366479618592, 92.90660301928666 7.655416126156491, 92.806563208341 7.863150934094196 C92.60253395417553 8.225425535067307, 92.39850470001004 8.587700136040418, 92.27180197109088 8.812673661278923 C92.11918894979236 9.04712824432775, 91.96657592849382 9.281582827376575, 91.67730332814826 9.725983222076879 C91.42849710421633 10.05936089543236, 91.17969088028441 10.392738568787838, 91.02551020195651 10.599326631598467 C90.79385552981823 10.871441391016347, 90.56220085767995 11.143556150434227, 90.31910095028037 11.42911513444238 C90.15738801963953 11.596097012207577, 89.99567508899868 11.763078889972775, 89.56097836025927 12.211938951661365 C89.322025570307 12.428949553151648, 89.08307278035474 12.645960154641932, 88.75425772023242 12.944581292275275 C88.51770298444188 13.133227399082331, 88.28114824865135 13.32187350588939, 87.90225401835067 13.62403157175526 C87.59529070938302 13.838155887863616, 87.28832740041538 14.052280203971971, 87.00846832057934 14.247497783161286 C86.74619758852641 14.406487842205674, 86.48392685647347 14.565477901250063, 86.07657338406695 14.81241797009762 C85.69127639368959 15.013427163182982, 85.30597940331225 15.214436356268344, 85.11039856499849 15.316470754341124 C84.81337586814179 15.447953891374334, 84.51635317128508 15.579437028407545, 84.11391408294936 15.757584874882367 C83.73698396391697 15.896298642990113, 83.36005384488458 16.03501241109786, 83.09121470640156 16.133947699181363 C82.77903625367394 16.226600625292782, 82.46685780094633 16.319253551404206, 82.04650292646164 16.444012671663497 C81.79810157202729 16.500708659842815, 81.54970021759293 16.55740464802213, 80.98407168792333 16.68650566884811 C80.65671152288773 16.73943072161507, 80.32935135785213 16.792355774382028, 79.90828674863661 16.86043023499518 C79.47737610678317 16.901999666368916, 79.04646546492972 16.943569097742646, 78.82356873967211 16.965071676755716 C78.53961456664106 16.974177534401555, 78.25566039361003 16.98328339204739, 77.734375 17 C77.734375 17, 77.734375 17, 77.734375 17 C28.830770045819577 17, -20.072834908360846 17, -77.734375 17 C-77.98437074710378 16.991983122977583, -78.23436649420756 16.983966245955166, -78.82356873967211 16.965071676755716 C-79.1381985087343 16.934719721331945, -79.45282827779651 16.904367765908173, -79.9082867486366 16.86043023499518 C-80.26786481154976 16.802296442352908, -80.62744287446291 16.744162649710635, -80.98407168792333 16.68650566884811 C-81.37392211213023 16.59752485353465, -81.76377253633714 16.508544038221192, -82.04650292646161 16.4440126716635 C-82.46036237757104 16.321181358966815, -82.87422182868046 16.19835004627013, -83.09121470640154 16.13394769918137 C-83.44841120123262 16.002496087195333, -83.80560769606369 15.871044475209297, -84.11391408294936 15.757584874882369 C-84.38148375553533 15.63913971800089, -84.64905342812129 15.520694561119415, -85.11039856499849 15.316470754341127 C-85.35865565349822 15.186955190287074, -85.60691274199795 15.05743962623302, -86.07657338406693 14.812417970097624 C-86.35959504442083 14.640848576371198, -86.64261670477472 14.469279182644774, -87.00846832057931 14.247497783161299 C-87.2502377505174 14.078849894866424, -87.4920071804555 13.910202006571552, -87.90225401835067 13.624031571755264 C-88.09697961051427 13.468743093870435, -88.29170520267785 13.313454615985608, -88.7542577202324 12.94458129227529 C-88.93118100594069 12.783904245328642, -89.10810429164897 12.623227198381997, -89.56097836025926 12.211938951661377 C-89.79697697273629 11.968251008432409, -90.03297558521334 11.72456306520344, -90.31910095028036 11.429115134442386 C-90.47889494446699 11.241412016334925, -90.63868893865362 11.053708898227464, -91.02551020195651 10.599326631598473 C-91.20312302730015 10.361341626499252, -91.3807358526438 10.123356621400031, -91.67730332814824 9.72598322207689 C-91.8147422034254 9.514840202145642, -91.95218107870254 9.303697182214393, -92.27180197109088 8.812673661278936 C-92.38980867297629 8.603140812607064, -92.5078153748617 8.39360796393519, -92.806563208341 7.863150934094201 C-92.987208633089 7.488036844412079, -93.167854057837 7.112922754729957, -93.27938959126881 6.881316833080701 C-93.41156933030341 6.554830322143831, -93.54374906933802 6.228343811206961, -93.68833817484592 5.87120592516224 C-93.76227336388685 5.6485249157436055, -93.83620855292777 5.42584390632497, -94.03172850162323 4.8369689727275516 C-94.0932196879485 4.6024764288205455, -94.15471087427379 4.3679838849135395, -94.308149507091 3.782855877257349 C-94.37544924468318 3.4372859485260587, -94.44274898227536 3.091716019794769, -94.51646531804565 2.713198215567455 C-94.56274847641784 2.35423517887613, -94.60903163479003 1.9952721421848052, -94.65581992013637 1.6323914404306026 C-94.67740299932899 1.2962175604576347, -94.6989860785216 0.9600436804846667, -94.7256406754117 0.54487681871814 C-94.7256406754117 0.24922273505828418, -94.7256406754117 -0.04643134860157161, -94.7256406754117 -0.5448768187181317 C-94.70048995703365 -0.9366195587505404, -94.67533923865562 -1.3283622987829493, -94.65581992013637 -1.6323914404305793 C-94.60887760587265 -1.9964667600515806, -94.56193529160892 -2.360542079672582, -94.51646531804565 -2.713198215567447 C-94.46344739385663 -2.9854340509358246, -94.4104294696676 -3.257669886304202, -94.308149507091 -3.782855877257341 C-94.22265542791841 -4.108881854510741, -94.13716134874582 -4.43490783176414, -94.03172850162323 -4.836968972727544 C-93.95062888536866 -5.081228095417271, -93.86952926911407 -5.325487218106998, -93.68833817484594 -5.871205925162218 C-93.57109410923638 -6.160801033977627, -93.45385004362682 -6.4503961427930365, -93.27938959126881 -6.881316833080692 C-93.15569046028516 -7.1381807253056575, -93.0319913293015 -7.395044617530623, -92.806563208341 -7.863150934094194 C-92.6632848058381 -8.117556246249606, -92.52000640333519 -8.371961558405019, -92.27180197109088 -8.812673661278929 C-92.117846037923 -9.049191317581414, -91.96389010475512 -9.2857089738839, -91.67730332814826 -9.725983222076884 C-91.42844595281802 -10.0594294336461, -91.17958857748779 -10.392875645215316, -91.02551020195651 -10.599326631598467 C-90.80529128322713 -10.858008304349447, -90.58507236449776 -11.116689977100428, -90.31910095028037 -11.42911513444238 C-90.09415380297222 -11.661391532542304, -89.86920665566407 -11.893667930642229, -89.56097836025927 -12.21193895166136 C-89.38814318037618 -12.368903289062915, -89.21530800049308 -12.525867626464473, -88.75425772023242 -12.944581292275274 C-88.44312376585867 -13.192702341266092, -88.13198981148491 -13.440823390256908, -87.90225401835067 -13.624031571755259 C-87.57523777653755 -13.85214394573915, -87.24822153472441 -14.080256319723045, -87.00846832057934 -14.247497783161284 C-86.77833239524782 -14.387007533526067, -86.5481964699163 -14.526517283890849, -86.07657338406695 -14.812417970097618 C-85.6928205734657 -15.012621565582885, -85.30906776286444 -15.212825161068151, -85.11039856499849 -15.316470754341124 C-84.7672753052444 -15.468361243044399, -84.4241520454903 -15.620251731747672, -84.11391408294936 -15.757584874882365 C-83.78114502496432 -15.880046964304315, -83.44837596697927 -16.002509053726264, -83.09121470640156 -16.133947699181363 C-82.81487570574762 -16.215963664042437, -82.53853670509369 -16.297979628903512, -82.04650292646164 -16.444012671663494 C-81.6971677960338 -16.52374613555888, -81.34783266560596 -16.603479599454268, -80.98407168792333 -16.68650566884811 C-80.61565082258456 -16.746069097209602, -80.24722995724578 -16.80563252557109, -79.90828674863661 -16.86043023499518 C-79.47532661839523 -16.90219737804883, -79.04236648815383 -16.943964521102476, -78.82356873967213 -16.965071676755716 C-78.50025898672872 -16.975439591248353, -78.17694923378531 -16.98580750574099, -77.734375 -17 C-77.734375 -17, -77.734375 -17, -77.734375 -17" stroke="none" stroke-width="0" fill="#ECECFF" style=""></path><path d="M-77.734375 -17 C-33.21259453043519 -17, 11.30918593912962 -17, 77.734375 -17 M-77.734375 -17 C-18.393784664093076 -17, 40.94680567181385 -17, 77.734375 -17 M77.734375 -17 C77.734375 -17, 77.734375 -17, 77.734375 -17 M77.734375 -17 C77.734375 -17, 77.734375 -17, 77.734375 -17 M77.734375 -17 C78.08606318476717 -16.98872204443404, 78.43775136953434 -16.977444088868083, 78.82356873967211 -16.965071676755716 M77.734375 -17 C78.05891860566516 -16.989592518252124, 78.38346221133031 -16.979185036504248, 78.82356873967211 -16.965071676755716 M78.82356873967211 -16.965071676755716 C79.1313524224364 -16.935380155043482, 79.43913610520067 -16.90568863333125, 79.9082867486366 -16.860430234995185 M78.82356873967211 -16.965071676755716 C79.09604013662013 -16.93878668878694, 79.36851153356815 -16.912501700818165, 79.9082867486366 -16.860430234995185 M79.9082867486366 -16.860430234995185 C80.20874508768489 -16.811854460827078, 80.50920342673317 -16.76327868665897, 80.98407168792333 -16.686505668848113 M79.9082867486366 -16.860430234995185 C80.28956173225617 -16.79878865247523, 80.67083671587574 -16.73714706995528, 80.98407168792333 -16.686505668848113 M80.98407168792333 -16.686505668848113 C81.24690028552544 -16.626516756562317, 81.50972888312755 -16.56652784427652, 82.04650292646163 -16.4440126716635 M80.98407168792333 -16.686505668848113 C81.25417961631348 -16.62485529681202, 81.52428754470363 -16.563204924775928, 82.04650292646163 -16.4440126716635 M82.04650292646163 -16.4440126716635 C82.35613442541816 -16.352115668062105, 82.6657659243747 -16.260218664460712, 83.09121470640156 -16.133947699181366 M82.04650292646163 -16.4440126716635 C82.36549434046901 -16.34933769440621, 82.6844857544764 -16.254662717148918, 83.09121470640156 -16.133947699181366 M83.09121470640156 -16.133947699181366 C83.44591776888367 -16.003413693348783, 83.80062083136578 -15.872879687516198, 84.11391408294936 -15.757584874882369 M83.09121470640156 -16.133947699181366 C83.44402694850116 -16.004109532728098, 83.79683919060076 -15.874271366274831, 84.11391408294936 -15.757584874882369 M84.11391408294936 -15.757584874882369 C84.37288464920906 -15.642946287288105, 84.63185521546875 -15.528307699693842, 85.11039856499849 -15.316470754341125 M84.11391408294936 -15.757584874882369 C84.32143532061949 -15.665721378864603, 84.52895655828961 -15.573857882846838, 85.11039856499849 -15.316470754341125 M85.11039856499849 -15.316470754341125 C85.43562891705588 -15.14679828799277, 85.76085926911325 -14.977125821644414, 86.07657338406693 -14.812417970097622 M85.11039856499849 -15.316470754341125 C85.48463540787984 -15.121231633120065, 85.85887225076118 -14.925992511899002, 86.07657338406693 -14.812417970097622 M86.07657338406693 -14.812417970097622 C86.40846882222222 -14.611221005053801, 86.7403642603775 -14.41002404000998, 87.00846832057933 -14.247497783161291 M86.07657338406693 -14.812417970097622 C86.41104602033683 -14.60965869241143, 86.74551865660672 -14.406899414725235, 87.00846832057933 -14.247497783161291 M87.00846832057933 -14.247497783161291 C87.19133451805416 -14.11993823995295, 87.374200715529 -13.992378696744606, 87.90225401835067 -13.624031571755262 M87.00846832057933 -14.247497783161291 C87.2203667071888 -14.099686641595836, 87.43226509379828 -13.951875500030383, 87.90225401835067 -13.624031571755262 M87.90225401835067 -13.624031571755262 C88.15256626816287 -13.424414213618748, 88.40287851797507 -13.224796855482234, 88.7542577202324 -12.944581292275288 M87.90225401835067 -13.624031571755262 C88.23879135337472 -13.355652002708178, 88.57532868839878 -13.087272433661091, 88.7542577202324 -12.944581292275288 M88.7542577202324 -12.944581292275288 C88.91901481806218 -12.794953255260207, 89.08377191589197 -12.645325218245127, 89.56097836025927 -12.21193895166137 M88.7542577202324 -12.944581292275288 C88.98672013536827 -12.733465077467354, 89.21918255050413 -12.52234886265942, 89.56097836025927 -12.21193895166137 M89.56097836025927 -12.21193895166137 C89.84985004855079 -11.913655216693694, 90.1387217368423 -11.61537148172602, 90.31910095028036 -11.42911513444239 M89.56097836025927 -12.21193895166137 C89.82617018569769 -11.93810661924242, 90.0913620111361 -11.66427428682347, 90.31910095028036 -11.42911513444239 M90.31910095028036 -11.42911513444239 C90.53106640617442 -11.180128448773111, 90.74303186206848 -10.931141763103831, 91.02551020195651 -10.59932663159847 M90.31910095028036 -11.42911513444239 C90.4900071259088 -11.228359015712341, 90.66091330153724 -11.027602896982291, 91.02551020195651 -10.59932663159847 M91.02551020195651 -10.59932663159847 C91.16647066979169 -10.410452446462111, 91.30743113762689 -10.221578261325753, 91.67730332814824 -9.725983222076888 M91.02551020195651 -10.59932663159847 C91.20500680731327 -10.358817532897568, 91.38450341267001 -10.118308434196663, 91.67730332814824 -9.725983222076888 M91.67730332814824 -9.725983222076888 C91.83106803661961 -9.489759338259267, 91.98483274509098 -9.253535454441646, 92.27180197109088 -8.812673661278927 M91.67730332814824 -9.725983222076888 C91.90384046910256 -9.377961339831172, 92.1303776100569 -9.029939457585456, 92.27180197109088 -8.812673661278927 M92.27180197109088 -8.812673661278927 C92.41317617787097 -8.561649441450113, 92.55455038465105 -8.3106252216213, 92.806563208341 -7.863150934094199 M92.27180197109088 -8.812673661278927 C92.38935910561527 -8.603939064980183, 92.50691624013966 -8.39520446868144, 92.806563208341 -7.863150934094199 M92.806563208341 -7.863150934094199 C92.94777129170214 -7.5699293276258395, 93.08897937506326 -7.2767077211574795, 93.27938959126881 -6.881316833080699 M92.806563208341 -7.863150934094199 C92.95559377304632 -7.553685777740352, 93.10462433775163 -7.244220621386504, 93.27938959126881 -6.881316833080699 M93.27938959126881 -6.881316833080699 C93.41353405928517 -6.549977403573448, 93.54767852730151 -6.218637974066196, 93.68833817484592 -5.871205925162238 M93.27938959126881 -6.881316833080699 C93.41683377125732 -6.541827051206633, 93.55427795124584 -6.202337269332568, 93.68833817484592 -5.871205925162238 M93.68833817484592 -5.871205925162238 C93.80811802874665 -5.510448089541264, 93.92789788264739 -5.14969025392029, 94.03172850162323 -4.836968972727556 M93.68833817484592 -5.871205925162238 C93.7816737047957 -5.5900941799507216, 93.87500923474546 -5.308982434739205, 94.03172850162323 -4.836968972727556 M94.03172850162323 -4.836968972727556 C94.09012765908548 -4.61426767496903, 94.14852681654774 -4.391566377210505, 94.308149507091 -3.7828558772573464 M94.03172850162323 -4.836968972727556 C94.14183849093119 -4.41707186152506, 94.25194848023915 -3.9971747503225643, 94.308149507091 -3.7828558772573464 M94.308149507091 -3.7828558772573464 C94.3671340663527 -3.4799826318395, 94.42611862561441 -3.1771093864216535, 94.51646531804565 -2.713198215567453 M94.308149507091 -3.7828558772573464 C94.37918412725065 -3.4181081159097935, 94.45021874741032 -3.0533603545622405, 94.51646531804565 -2.713198215567453 M94.51646531804565 -2.713198215567453 C94.54450188469625 -2.495752141071691, 94.57253845134684 -2.2783060665759294, 94.65581992013637 -1.632391440430593 M94.51646531804565 -2.713198215567453 C94.54621385730786 -2.4824744195631974, 94.57596239657009 -2.2517506235589413, 94.65581992013637 -1.632391440430593 M94.65581992013637 -1.632391440430593 C94.67522207481396 -1.330187220189631, 94.69462422949157 -1.027982999948669, 94.7256406754117 -0.5448768187181379 M94.65581992013637 -1.632391440430593 C94.67182344291629 -1.3831236553221558, 94.68782696569622 -1.1338558702137187, 94.7256406754117 -0.5448768187181379 M94.7256406754117 -0.5448768187181379 C94.7256406754117 -0.141387146890546, 94.7256406754117 0.2621025249370459, 94.7256406754117 0.5448768187181336 M94.7256406754117 -0.5448768187181379 C94.7256406754117 -0.27561854361209537, 94.7256406754117 -0.0063602685060528685, 94.7256406754117 0.5448768187181336 M94.7256406754117 0.5448768187181336 C94.70450215727861 0.8741263013456029, 94.68336363914553 1.203375783973072, 94.65581992013637 1.6323914404305815 M94.7256406754117 0.5448768187181336 C94.70195231793545 0.9138421073085412, 94.67826396045922 1.2828073958989488, 94.65581992013637 1.6323914404305815 M94.65581992013637 1.6323914404305815 C94.61058219687003 1.9832462888854026, 94.5653444736037 2.334101137340223, 94.51646531804565 2.7131982155674415 M94.65581992013637 1.6323914404305815 C94.61026081095294 1.9857388945935157, 94.56470170176952 2.33908634875645, 94.51646531804565 2.7131982155674415 M94.51646531804565 2.7131982155674415 C94.4402684683906 3.1044529343362486, 94.36407161873555 3.495707653105056, 94.308149507091 3.782855877257343 M94.51646531804565 2.7131982155674415 C94.45236237938079 3.0423532574506416, 94.38825944071591 3.3715082993338417, 94.308149507091 3.782855877257343 M94.308149507091 3.782855877257343 C94.20939098458399 4.159464925790992, 94.11063246207698 4.536073974324641, 94.03172850162323 4.836968972727545 M94.308149507091 3.782855877257343 C94.24764194064022 4.013597452279383, 94.18713437418943 4.244339027301422, 94.03172850162323 4.836968972727545 M94.03172850162323 4.836968972727545 C93.92976879831183 5.144055354028917, 93.8278090950004 5.451141735330289, 93.68833817484592 5.871205925162227 M94.03172850162323 4.836968972727545 C93.93804472311217 5.119129587119805, 93.84436094460112 5.401290201512064, 93.68833817484592 5.871205925162227 M93.68833817484592 5.871205925162227 C93.59079862738855 6.112130493180796, 93.49325907993118 6.353055061199366, 93.27938959126881 6.881316833080694 M93.68833817484592 5.871205925162227 C93.59223538549 6.108581672892398, 93.49613259613407 6.345957420622569, 93.27938959126881 6.881316833080694 M93.27938959126881 6.881316833080694 C93.14304680017298 7.164435556059563, 93.00670400907717 7.447554279038432, 92.806563208341 7.863150934094196 M93.27938959126881 6.881316833080694 C93.15319000981141 7.143372964215468, 93.026990428354 7.405429095350241, 92.806563208341 7.863150934094196 M92.806563208341 7.863150934094196 C92.67121845144025 8.103469255114245, 92.5358736945395 8.343787576134293, 92.27180197109088 8.812673661278923 M92.806563208341 7.863150934094196 C92.67634473404676 8.094367021253975, 92.54612625975254 8.325583108413753, 92.27180197109088 8.812673661278923 M92.27180197109088 8.812673661278923 C92.07092443622626 9.121275498001852, 91.87004690136163 9.429877334724782, 91.67730332814826 9.725983222076879 M92.27180197109088 8.812673661278923 C92.11404057052074 9.055037537422344, 91.95627916995062 9.297401413565764, 91.67730332814826 9.725983222076879 M91.67730332814826 9.725983222076879 C91.42706604575599 10.061278383397102, 91.17682876336373 10.396573544717324, 91.02551020195651 10.599326631598467 M91.67730332814826 9.725983222076879 C91.45644839646626 10.021908710232555, 91.23559346478427 10.317834198388233, 91.02551020195651 10.599326631598467 M91.02551020195651 10.599326631598467 C90.82865541506872 10.830563465631547, 90.63180062818095 11.061800299664627, 90.31910095028037 11.42911513444238 M91.02551020195651 10.599326631598467 C90.75018158940306 10.922743286545629, 90.4748529768496 11.24615994149279, 90.31910095028037 11.42911513444238 M90.31910095028037 11.42911513444238 C90.04727206247661 11.709800778666501, 89.77544317467284 11.990486422890623, 89.56097836025927 12.211938951661365 M90.31910095028037 11.42911513444238 C90.10326412783685 11.651984374147993, 89.88742730539333 11.874853613853606, 89.56097836025927 12.211938951661365 M89.56097836025927 12.211938951661365 C89.31876097341002 12.431914373676983, 89.07654358656077 12.651889795692602, 88.75425772023242 12.944581292275275 M89.56097836025927 12.211938951661365 C89.28904418344445 12.45890237606055, 89.01711000662961 12.705865800459733, 88.75425772023242 12.944581292275275 M88.75425772023242 12.944581292275275 C88.46221979818587 13.177473763651912, 88.17018187613931 13.41036623502855, 87.90225401835067 13.62403157175526 M88.75425772023242 12.944581292275275 C88.42405021645212 13.207912989349346, 88.09384271267183 13.471244686423418, 87.90225401835067 13.62403157175526 M87.90225401835067 13.62403157175526 C87.70942264053491 13.758542393383728, 87.51659126271916 13.893053215012193, 87.00846832057934 14.247497783161286 M87.90225401835067 13.62403157175526 C87.70507787111094 13.761573116451851, 87.50790172387123 13.89911466114844, 87.00846832057934 14.247497783161286 M87.00846832057934 14.247497783161286 C86.77401231573202 14.389626391116147, 86.53955631088472 14.531754999071007, 86.07657338406695 14.81241797009762 M87.00846832057934 14.247497783161286 C86.77134611272008 14.391242659050338, 86.53422390486082 14.534987534939388, 86.07657338406695 14.81241797009762 M86.07657338406695 14.81241797009762 C85.86053525081314 14.9251249258371, 85.64449711755934 15.037831881576578, 85.11039856499849 15.316470754341124 M86.07657338406695 14.81241797009762 C85.87679282246826 14.916643361118094, 85.67701226086959 15.020868752138568, 85.11039856499849 15.316470754341124 M85.11039856499849 15.316470754341124 C84.75752156568662 15.472678934212226, 84.40464456637474 15.628887114083327, 84.11391408294936 15.757584874882367 M85.11039856499849 15.316470754341124 C84.76612367398315 15.46887103604183, 84.42184878296779 15.621271317742535, 84.11391408294936 15.757584874882367 M84.11391408294936 15.757584874882367 C83.82981986804846 15.862134172104033, 83.54572565314756 15.9666834693257, 83.09121470640156 16.133947699181363 M84.11391408294936 15.757584874882367 C83.78936176212947 15.87702312907285, 83.4648094413096 15.996461383263334, 83.09121470640156 16.133947699181363 M83.09121470640156 16.133947699181363 C82.84207303282643 16.20789164012713, 82.5929313592513 16.2818355810729, 82.04650292646164 16.444012671663497 M83.09121470640156 16.133947699181363 C82.84759513457401 16.20625270931455, 82.60397556274647 16.27855771944774, 82.04650292646164 16.444012671663497 M82.04650292646164 16.444012671663497 C81.6682212210123 16.530353002413488, 81.28993951556295 16.616693333163475, 80.98407168792333 16.68650566884811 M82.04650292646164 16.444012671663497 C81.70467657704795 16.52203230529178, 81.36285022763424 16.600051938920064, 80.98407168792333 16.68650566884811 M80.98407168792333 16.68650566884811 C80.74600933999992 16.724993743059287, 80.5079469920765 16.763481817270463, 79.90828674863661 16.86043023499518 M80.98407168792333 16.68650566884811 C80.56810505558434 16.753755928095266, 80.15213842324535 16.821006187342423, 79.90828674863661 16.86043023499518 M79.90828674863661 16.86043023499518 C79.51624455755584 16.898250073669026, 79.12420236647505 16.936069912342873, 78.82356873967211 16.965071676755716 M79.90828674863661 16.86043023499518 C79.56712394454112 16.89334180039797, 79.22596114044563 16.92625336580076, 78.82356873967211 16.965071676755716 M78.82356873967211 16.965071676755716 C78.5108744001405 16.975099175601887, 78.19818006060889 16.985126674448058, 77.734375 17 M78.82356873967211 16.965071676755716 C78.5628272736753 16.97343314806776, 78.30208580767847 16.9817946193798, 77.734375 17 M77.734375 17 C77.734375 17, 77.734375 17, 77.734375 17 M77.734375 17 C77.734375 17, 77.734375 17, 77.734375 17 M77.734375 17 C24.964464008087447 17, -27.805446983825107 17, -77.734375 17 M77.734375 17 C19.04753823930441 17, -39.63929852139118 17, -77.734375 17 M-77.734375 17 C-77.999782823083 16.991488887698715, -78.26519064616599 16.982977775397433, -78.82356873967211 16.965071676755716 M-77.734375 17 C-77.99262837397042 16.991718316956465, -78.25088174794084 16.983436633912934, -78.82356873967211 16.965071676755716 M-78.82356873967211 16.965071676755716 C-79.11197684387349 16.9372492938049, -79.40038494807489 16.909426910854087, -79.9082867486366 16.86043023499518 M-78.82356873967211 16.965071676755716 C-79.1892658920079 16.929793312285057, -79.55496304434368 16.894514947814397, -79.9082867486366 16.86043023499518 M-79.9082867486366 16.86043023499518 C-80.31317918317232 16.794970366167174, -80.71807161770803 16.729510497339163, -80.98407168792333 16.68650566884811 M-79.9082867486366 16.86043023499518 C-80.23999689081619 16.80680191165816, -80.57170703299577 16.753173588321136, -80.98407168792333 16.68650566884811 M-80.98407168792333 16.68650566884811 C-81.35045655171282 16.602880714572834, -81.71684141550232 16.519255760297558, -82.04650292646161 16.4440126716635 M-80.98407168792333 16.68650566884811 C-81.26290781804624 16.622863141723354, -81.54174394816916 16.559220614598594, -82.04650292646161 16.4440126716635 M-82.04650292646161 16.4440126716635 C-82.27807026795924 16.37528470022879, -82.50963760945685 16.306556728794074, -83.09121470640154 16.13394769918137 M-82.04650292646161 16.4440126716635 C-82.29727776590153 16.36958401566173, -82.54805260534144 16.295155359659958, -83.09121470640154 16.13394769918137 M-83.09121470640154 16.13394769918137 C-83.48747857842264 15.988118931254528, -83.88374245044375 15.842290163327684, -84.11391408294936 15.757584874882369 M-83.09121470640154 16.13394769918137 C-83.37576201038479 16.029231660989094, -83.66030931436802 15.924515622796818, -84.11391408294936 15.757584874882369 M-84.11391408294936 15.757584874882369 C-84.35009949171568 15.653032600612745, -84.58628490048199 15.54848032634312, -85.11039856499849 15.316470754341127 M-84.11391408294936 15.757584874882369 C-84.39767657948725 15.63197163518043, -84.68143907602516 15.506358395478488, -85.11039856499849 15.316470754341127 M-85.11039856499849 15.316470754341127 C-85.41491046257565 15.157607092424303, -85.7194223601528 14.998743430507478, -86.07657338406693 14.812417970097624 M-85.11039856499849 15.316470754341127 C-85.40538929419742 15.16257427986862, -85.70038002339636 15.008677805396115, -86.07657338406693 14.812417970097624 M-86.07657338406693 14.812417970097624 C-86.4176836409504 14.605634927788488, -86.75879389783387 14.398851885479354, -87.00846832057931 14.247497783161299 M-86.07657338406693 14.812417970097624 C-86.42722865588493 14.599848683642445, -86.77788392770292 14.38727939718727, -87.00846832057931 14.247497783161299 M-87.00846832057931 14.247497783161299 C-87.34714564520009 14.011251142610938, -87.68582296982086 13.775004502060575, -87.90225401835067 13.624031571755264 M-87.00846832057931 14.247497783161299 C-87.20939783584274 14.107338051412057, -87.41032735110618 13.967178319662816, -87.90225401835067 13.624031571755264 M-87.90225401835067 13.624031571755264 C-88.08278984118674 13.480059057303512, -88.26332566402282 13.336086542851762, -88.7542577202324 12.94458129227529 M-87.90225401835067 13.624031571755264 C-88.162354590738 13.416608286843289, -88.42245516312533 13.209185001931315, -88.7542577202324 12.94458129227529 M-88.7542577202324 12.94458129227529 C-88.99654932000749 12.724538472043983, -89.23884091978259 12.504495651812677, -89.56097836025926 12.211938951661377 M-88.7542577202324 12.94458129227529 C-88.93645156820644 12.779117660130328, -89.11864541618047 12.613654027985369, -89.56097836025926 12.211938951661377 M-89.56097836025926 12.211938951661377 C-89.74263904390656 12.024359381176035, -89.92429972755386 11.836779810690693, -90.31910095028036 11.429115134442386 M-89.56097836025926 12.211938951661377 C-89.82605916567468 11.938221256531087, -90.09113997109009 11.664503561400796, -90.31910095028036 11.429115134442386 M-90.31910095028036 11.429115134442386 C-90.46206438913715 11.261182144311071, -90.60502782799395 11.093249154179759, -91.02551020195651 10.599326631598473 M-90.31910095028036 11.429115134442386 C-90.53786701150372 11.172140070787908, -90.75663307272707 10.915165007133428, -91.02551020195651 10.599326631598473 M-91.02551020195651 10.599326631598473 C-91.16884861883058 10.407266211385624, -91.31218703570465 10.215205791172773, -91.67730332814824 9.72598322207689 M-91.02551020195651 10.599326631598473 C-91.16078697533379 10.41806807924049, -91.29606374871108 10.236809526882507, -91.67730332814824 9.72598322207689 M-91.67730332814824 9.72598322207689 C-91.8746392747542 9.422822215968878, -92.07197522136016 9.119661209860867, -92.27180197109088 8.812673661278936 M-91.67730332814824 9.72598322207689 C-91.87873943697105 9.416523265756092, -92.08017554579385 9.107063309435294, -92.27180197109088 8.812673661278936 M-92.27180197109088 8.812673661278936 C-92.41175954564018 8.564164815425443, -92.55171712018948 8.31565596957195, -92.806563208341 7.863150934094201 M-92.27180197109088 8.812673661278936 C-92.44758301326748 8.500556621133734, -92.62336405544407 8.188439580988534, -92.806563208341 7.863150934094201 M-92.806563208341 7.863150934094201 C-92.99461660999603 7.472654021859335, -93.18267001165104 7.082157109624468, -93.27938959126881 6.881316833080701 M-92.806563208341 7.863150934094201 C-92.94251539224315 7.580843315310648, -93.0784675761453 7.298535696527094, -93.27938959126881 6.881316833080701 M-93.27938959126881 6.881316833080701 C-93.36553661501775 6.668532018881422, -93.4516836387667 6.455747204682142, -93.68833817484592 5.87120592516224 M-93.27938959126881 6.881316833080701 C-93.42471837425833 6.522351929355698, -93.57004715724786 6.163387025630693, -93.68833817484592 5.87120592516224 M-93.68833817484592 5.87120592516224 C-93.81486772783842 5.490119071295376, -93.94139728083091 5.1090322174285125, -94.03172850162323 4.8369689727275516 M-93.68833817484592 5.87120592516224 C-93.76567081549501 5.638292332810224, -93.84300345614409 5.405378740458207, -94.03172850162323 4.8369689727275516 M-94.03172850162323 4.8369689727275516 C-94.10983935477034 4.539098436219717, -94.18795020791745 4.241227899711884, -94.308149507091 3.782855877257349 M-94.03172850162323 4.8369689727275516 C-94.09470290224155 4.596820289892023, -94.15767730285987 4.356671607056495, -94.308149507091 3.782855877257349 M-94.308149507091 3.782855877257349 C-94.38310423064506 3.39797921349371, -94.4580589541991 3.013102549730071, -94.51646531804565 2.713198215567455 M-94.308149507091 3.782855877257349 C-94.37252306971072 3.4523112385623183, -94.43689663233046 3.121766599867287, -94.51646531804565 2.713198215567455 M-94.51646531804565 2.713198215567455 C-94.55057264540831 2.4486685197962266, -94.58467997277097 2.1841388240249984, -94.65581992013637 1.6323914404306026 M-94.51646531804565 2.713198215567455 C-94.55024975680611 2.451172780033308, -94.58403419556657 2.189147344499161, -94.65581992013637 1.6323914404306026 M-94.65581992013637 1.6323914404306026 C-94.6772925340713 1.2979381460120933, -94.69876514800623 0.9634848515935843, -94.7256406754117 0.54487681871814 M-94.65581992013637 1.6323914404306026 C-94.67094883662283 1.3967463543123335, -94.6860777531093 1.1611012681940642, -94.7256406754117 0.54487681871814 M-94.7256406754117 0.54487681871814 C-94.7256406754117 0.3180579231564271, -94.7256406754117 0.0912390275947142, -94.7256406754117 -0.5448768187181317 M-94.7256406754117 0.54487681871814 C-94.7256406754117 0.2591143657207348, -94.7256406754117 -0.02664808727667034, -94.7256406754117 -0.5448768187181317 M-94.7256406754117 -0.5448768187181317 C-94.7091113801212 -0.8023339350745091, -94.69258208483072 -1.0597910514308864, -94.65581992013637 -1.6323914404305793 M-94.7256406754117 -0.5448768187181317 C-94.69983244269277 -0.9468608753458765, -94.67402420997384 -1.348844931973621, -94.65581992013637 -1.6323914404305793 M-94.65581992013637 -1.6323914404305793 C-94.62097110162883 -1.9026719950974342, -94.5861222831213 -2.172952549764289, -94.51646531804565 -2.713198215567447 M-94.65581992013637 -1.6323914404305793 C-94.61373154574922 -1.9588205608876765, -94.57164317136208 -2.285249681344774, -94.51646531804565 -2.713198215567447 M-94.51646531804565 -2.713198215567447 C-94.44751714760042 -3.0672324986026753, -94.37856897715521 -3.4212667816379043, -94.308149507091 -3.782855877257341 M-94.51646531804565 -2.713198215567447 C-94.44793018604446 -3.0651116334882995, -94.37939505404326 -3.4170250514091527, -94.308149507091 -3.782855877257341 M-94.308149507091 -3.782855877257341 C-94.2207986343355 -4.115962613181799, -94.13344776158 -4.4490693491062565, -94.03172850162323 -4.836968972727544 M-94.308149507091 -3.782855877257341 C-94.2237552229809 -4.1046878592832545, -94.13936093887081 -4.426519841309169, -94.03172850162323 -4.836968972727544 M-94.03172850162323 -4.836968972727544 C-93.91115876573122 -5.200105807055711, -93.79058902983918 -5.563242641383878, -93.68833817484594 -5.871205925162218 M-94.03172850162323 -4.836968972727544 C-93.95423099558131 -5.0703791133750515, -93.87673348953939 -5.30378925402256, -93.68833817484594 -5.871205925162218 M-93.68833817484594 -5.871205925162218 C-93.531727046206 -6.258038440773034, -93.37511591756606 -6.644870956383851, -93.27938959126881 -6.881316833080692 M-93.68833817484594 -5.871205925162218 C-93.54022019354514 -6.237060202641541, -93.39210221224434 -6.602914480120865, -93.27938959126881 -6.881316833080692 M-93.27938959126881 -6.881316833080692 C-93.16646580968722 -7.115805481716726, -93.05354202810562 -7.35029413035276, -92.806563208341 -7.863150934094194 M-93.27938959126881 -6.881316833080692 C-93.18293913111222 -7.081598277305099, -93.08648867095563 -7.2818797215295055, -92.806563208341 -7.863150934094194 M-92.806563208341 -7.863150934094194 C-92.68560310745556 -8.077927841754688, -92.56464300657012 -8.292704749415183, -92.27180197109088 -8.812673661278929 M-92.806563208341 -7.863150934094194 C-92.60578901417477 -8.219645846428072, -92.40501482000853 -8.57614075876195, -92.27180197109088 -8.812673661278929 M-92.27180197109088 -8.812673661278929 C-92.13770115651118 -9.018688523584094, -92.00360034193149 -9.22470338588926, -91.67730332814826 -9.725983222076884 M-92.27180197109088 -8.812673661278929 C-92.1070767394389 -9.065735852014551, -91.94235150778691 -9.318798042750176, -91.67730332814826 -9.725983222076884 M-91.67730332814826 -9.725983222076884 C-91.41699829093392 -10.074768257667344, -91.1566932537196 -10.423553293257804, -91.02551020195651 -10.599326631598467 M-91.67730332814826 -9.725983222076884 C-91.51506219548665 -9.943371559372178, -91.35282106282506 -10.160759896667471, -91.02551020195651 -10.599326631598467 M-91.02551020195651 -10.599326631598467 C-90.77422506375227 -10.894500453462598, -90.52293992554802 -11.189674275326729, -90.31910095028037 -11.42911513444238 M-91.02551020195651 -10.599326631598467 C-90.83939256418026 -10.817950999324054, -90.65327492640401 -11.036575367049641, -90.31910095028037 -11.42911513444238 M-90.31910095028037 -11.42911513444238 C-90.08177845010356 -11.674170100414567, -89.84445594992674 -11.919225066386756, -89.56097836025927 -12.21193895166136 M-90.31910095028037 -11.42911513444238 C-90.16230595653494 -11.591018838592941, -90.00551096278949 -11.752922542743502, -89.56097836025927 -12.21193895166136 M-89.56097836025927 -12.21193895166136 C-89.36240630907037 -12.392276834622553, -89.16383425788148 -12.572614717583745, -88.75425772023242 -12.944581292275274 M-89.56097836025927 -12.21193895166136 C-89.31421086616415 -12.436046660688445, -89.06744337206902 -12.660154369715533, -88.75425772023242 -12.944581292275274 M-88.75425772023242 -12.944581292275274 C-88.42236353210389 -13.209258075232503, -88.09046934397537 -13.473934858189732, -87.90225401835067 -13.624031571755259 M-88.75425772023242 -12.944581292275274 C-88.510619618915 -13.138876194593749, -88.26698151759759 -13.333171096912226, -87.90225401835067 -13.624031571755259 M-87.90225401835067 -13.624031571755259 C-87.54850064142929 -13.870794613758745, -87.19474726450791 -14.117557655762232, -87.00846832057934 -14.247497783161284 M-87.90225401835067 -13.624031571755259 C-87.60918292001809 -13.828465283108702, -87.3161118216855 -14.032898994462148, -87.00846832057934 -14.247497783161284 M-87.00846832057934 -14.247497783161284 C-86.77721871681494 -14.38768265193678, -86.54596911305053 -14.527867520712276, -86.07657338406695 -14.812417970097618 M-87.00846832057934 -14.247497783161284 C-86.74312343307156 -14.408351413308145, -86.47777854556378 -14.569205043455005, -86.07657338406695 -14.812417970097618 M-86.07657338406695 -14.812417970097618 C-85.70424679550317 -15.006660512864784, -85.33192020693937 -15.200903055631947, -85.11039856499849 -15.316470754341124 M-86.07657338406695 -14.812417970097618 C-85.77623733209127 -14.969103096038904, -85.47590128011561 -15.12578822198019, -85.11039856499849 -15.316470754341124 M-85.11039856499849 -15.316470754341124 C-84.74132493984669 -15.479848700015724, -84.37225131469489 -15.643226645690325, -84.11391408294936 -15.757584874882365 M-85.11039856499849 -15.316470754341124 C-84.81722778747694 -15.446248760947789, -84.52405700995538 -15.576026767554454, -84.11391408294936 -15.757584874882365 M-84.11391408294936 -15.757584874882365 C-83.81830829148048 -15.866370538692896, -83.5227025000116 -15.975156202503426, -83.09121470640156 -16.133947699181363 M-84.11391408294936 -15.757584874882365 C-83.8281359912475 -15.862753854332368, -83.54235789954566 -15.967922833782373, -83.09121470640156 -16.133947699181363 M-83.09121470640156 -16.133947699181363 C-82.68046294762466 -16.255856665106364, -82.26971118884778 -16.37776563103137, -82.04650292646164 -16.444012671663494 M-83.09121470640156 -16.133947699181363 C-82.76996493834142 -16.22929294406717, -82.44871517028128 -16.324638188952978, -82.04650292646164 -16.444012671663494 M-82.04650292646164 -16.444012671663494 C-81.64794949134867 -16.53497989242381, -81.24939605623568 -16.625947113184125, -80.98407168792333 -16.68650566884811 M-82.04650292646164 -16.444012671663494 C-81.81285147473403 -16.497342090802107, -81.57920002300642 -16.55067150994072, -80.98407168792333 -16.68650566884811 M-80.98407168792333 -16.68650566884811 C-80.72786127077299 -16.727927782151518, -80.47165085362265 -16.769349895454923, -79.90828674863661 -16.86043023499518 M-80.98407168792333 -16.68650566884811 C-80.76688185165058 -16.72161923724435, -80.54969201537784 -16.756732805640592, -79.90828674863661 -16.86043023499518 M-79.90828674863661 -16.86043023499518 C-79.48343032481519 -16.901415623236627, -79.05857390099376 -16.942401011478076, -78.82356873967213 -16.965071676755716 M-79.90828674863661 -16.86043023499518 C-79.59222683403262 -16.890920154839367, -79.27616691942863 -16.921410074683557, -78.82356873967213 -16.965071676755716 M-78.82356873967213 -16.965071676755716 C-78.58849421204543 -16.972610059311894, -78.35341968441872 -16.98014844186807, -77.734375 -17 M-78.82356873967213 -16.965071676755716 C-78.41010016461752 -16.97833080918996, -77.99663158956291 -16.991589941624202, -77.734375 -17 M-77.734375 -17 C-77.734375 -17, -77.734375 -17, -77.734375 -17 M-77.734375 -17 C-77.734375 -17, -77.734375 -17, -77.734375 -17" stroke="#9370DB" stroke-width="1.3" fill="none" stroke-dasharray="0 0" style=""></path></g><g class="label" style="" transform="translate(0, -9.5)"><rect></rect><g><rect class="background" style="stroke: none"></rect><text y="-10.1" style=""><tspan class="text-outer-tspan row" x="0" y="-0.1em" dy="1.1em"><tspan font-style="normal" class="text-inner-tspan" font-weight="normal">Users</tspan><tspan font-style="normal" class="text-inner-tspan" font-weight="normal"> (10M</tspan><tspan font-style="normal" class="text-inner-tspan" font-weight="normal"> concurrent)</tspan></tspan></text></g></g></g><g class="node default" id="geea57e38-9d80-4359-98ca-22ca2a9e014a-light-flowchart-WR-1" data-look="classic" transform="translate(413.96875, 173.29999923706055)"><rect class="basic label-container" style="" x="-128.8671875" y="-33.29999923706055" width="257.734375" height="66.5999984741211"></rect><g class="label" style="" transform="translate(0, -18.299999237060547)"><rect></rect><g><rect class="background" style="stroke: none"></rect><text y="-10.1" style=""><tspan class="text-outer-tspan row" x="0" y="-0.1em" dy="1.1em"><tspan font-style="normal" class="text-inner-tspan" font-weight="normal">Virtual</tspan><tspan font-style="normal" class="text-inner-tspan" font-weight="normal"> waiting</tspan><tspan font-style="normal" class="text-inner-tspan" font-weight="normal"> room:</tspan><tspan font-style="normal" class="text-inner-tspan" font-weight="normal"> static</tspan></tspan><tspan class="text-outer-tspan row" x="0" y="1em" dy="1.1em"><tspan font-style="normal" class="text-inner-tspan" font-weight="normal">HTML</tspan><tspan font-style="normal" class="text-inner-tspan" font-weight="normal"> +</tspan><tspan font-style="normal" class="text-inner-tspan" font-weight="normal"> JS</tspan></tspan></text></g></g></g><g class="node default" id="geea57e38-9d80-4359-98ca-22ca2a9e014a-light-flowchart-CDN-2" data-look="classic" transform="translate(413.96875, 281.0999984741211)"><rect class="basic label-container" style="" x="-92.125" y="-24.5" width="184.25" height="49"></rect><g class="label" style="" transform="translate(0, -9.5)"><rect></rect><g><rect class="background" style="stroke: none"></rect><text y="-10.1" style=""><tspan class="text-outer-tspan row" x="0" y="-0.1em" dy="1.1em"><tspan font-style="normal" class="text-inner-tspan" font-weight="normal">CDN</tspan><tspan font-style="normal" class="text-inner-tspan" font-weight="normal"> cache</tspan><tspan font-style="normal" class="text-inner-tspan" font-weight="normal"> +</tspan><tspan font-style="normal" class="text-inner-tspan" font-weight="normal"> WAF</tspan></tspan></text></g></g></g><g class="node default" id="geea57e38-9d80-4359-98ca-22ca2a9e014a-light-flowchart-RL-3" data-look="classic" transform="translate(413.96875, 430.0999984741211)"><rect class="basic label-container" style="" x="-110.046875" y="-24.5" width="220.09375" height="49"></rect><g class="label" style="" transform="translate(0, -9.5)"><rect></rect><g><rect class="background" style="stroke: none"></rect><text y="-10.1" style=""><tspan class="text-outer-tspan row" x="0" y="-0.1em" dy="1.1em"><tspan font-style="normal" class="text-inner-tspan" font-weight="normal">Rate</tspan><tspan font-style="normal" class="text-inner-tspan" font-weight="normal"> limiter</tspan><tspan font-style="normal" class="text-inner-tspan" font-weight="normal"> /</tspan><tspan font-style="normal" class="text-inner-tspan" font-weight="normal"> throttle</tspan></tspan></text></g></g></g><g class="node default" id="geea57e38-9d80-4359-98ca-22ca2a9e014a-light-flowchart-Auth-4" data-look="classic" transform="translate(413.96875, 529.0999984741211)"><rect class="basic label-container" style="" x="-95.2578125" y="-24.5" width="190.515625" height="49"></rect><g class="label" style="" transform="translate(0, -9.5)"><rect></rect><g><rect class="background" style="stroke: none"></rect><text y="-10.1" style=""><tspan class="text-outer-tspan row" x="0" y="-0.1em" dy="1.1em"><tspan font-style="normal" class="text-inner-tspan" font-weight="normal">Auth</tspan><tspan font-style="normal" class="text-inner-tspan" font-weight="normal"> +</tspan><tspan font-style="normal" class="text-inner-tspan" font-weight="normal"> bot</tspan><tspan font-style="normal" class="text-inner-tspan" font-weight="normal"> scoring</tspan></tspan></text></g></g></g><g class="node default" id="geea57e38-9d80-4359-98ca-22ca2a9e014a-light-flowchart-QS-5" data-look="classic" transform="translate(413.96875, 686.8999977111816)"><rect class="basic label-container" style="" x="-120.875" y="-33.29999923706055" width="241.75" height="66.5999984741211"></rect><g class="label" style="" transform="translate(0, -18.299999237060547)"><rect></rect><g><rect class="background" style="stroke: none"></rect><text y="-10.1" style=""><tspan class="text-outer-tspan row" x="0" y="-0.1em" dy="1.1em"><tspan font-style="normal" class="text-inner-tspan" font-weight="normal">Queue</tspan><tspan font-style="normal" class="text-inner-tspan" font-weight="normal"> service:</tspan><tspan font-style="normal" class="text-inner-tspan" font-weight="normal"> admission</tspan></tspan><tspan class="text-outer-tspan row" x="0" y="1em" dy="1.1em"><tspan font-style="normal" class="text-inner-tspan" font-weight="normal">tokens</tspan></tspan></text></g></g></g><g class="node default" id="geea57e38-9d80-4359-98ca-22ca2a9e014a-light-flowchart-IS-6" data-look="classic" transform="translate(297.4921875, 826.4999961853027)"><rect class="basic label-container" style="" x="-121.3203125" y="-33.29999923706055" width="242.640625" height="66.5999984741211"></rect><g class="label" style="" transform="translate(0, -18.299999237060547)"><rect></rect><g><rect class="background" style="stroke: none"></rect><text y="-10.1" style=""><tspan class="text-outer-tspan row" x="0" y="-0.1em" dy="1.1em"><tspan font-style="normal" class="text-inner-tspan" font-weight="normal">Inventory</tspan><tspan font-style="normal" class="text-inner-tspan" font-weight="normal"> service:</tspan><tspan font-style="normal" class="text-inner-tspan" font-weight="normal"> atomic</tspan></tspan><tspan class="text-outer-tspan row" x="0" y="1em" dy="1.1em"><tspan font-style="normal" class="text-inner-tspan" font-weight="normal">reserve</tspan></tspan></text></g></g></g><g class="node default" id="geea57e38-9d80-4359-98ca-22ca2a9e014a-light-flowchart-OS-7" data-look="classic" transform="translate(432.97265625, 966.0999946594238)"><rect class="basic label-container" style="" x="-125" y="-33.29999923706055" width="250" height="66.5999984741211"></rect><g class="label" style="" transform="translate(0, -18.299999237060547)"><rect></rect><g><rect class="background" style="stroke: none"></rect><text y="-10.1" style=""><tspan class="text-outer-tspan row" x="0" y="-0.1em" dy="1.1em"><tspan font-style="normal" class="text-inner-tspan" font-weight="normal">Order</tspan><tspan font-style="normal" class="text-inner-tspan" font-weight="normal"> service:</tspan><tspan font-style="normal" class="text-inner-tspan" font-weight="normal"> idempotent</tspan></tspan><tspan class="text-outer-tspan row" x="0" y="1em" dy="1.1em"><tspan font-style="normal" class="text-inner-tspan" font-weight="normal">enqueue</tspan></tspan></text></g></g></g><g class="node default" id="geea57e38-9d80-4359-98ca-22ca2a9e014a-light-flowchart-PS-8" data-look="classic" transform="translate(141.0078125, 1144.68119430542)"><rect class="basic label-container" style="" x="-98.0078125" y="-33.29999923706055" width="196.015625" height="66.5999984741211"></rect><g class="label" style="" transform="translate(0, -18.299999237060547)"><rect></rect><g><rect class="background" style="stroke: none"></rect><text y="-10.1" style=""><tspan class="text-outer-tspan row" x="0" y="-0.1em" dy="1.1em"><tspan font-style="normal" class="text-inner-tspan" font-weight="normal">Payment</tspan><tspan font-style="normal" class="text-inner-tspan" font-weight="normal"> service:</tspan></tspan><tspan class="text-outer-tspan row" x="0" y="1em" dy="1.1em"><tspan font-style="normal" class="text-inner-tspan" font-weight="normal">idempotent</tspan><tspan font-style="normal" class="text-inner-tspan" font-weight="normal"> charge</tspan></tspan></text></g></g></g><g class="node default" id="geea57e38-9d80-4359-98ca-22ca2a9e014a-light-flowchart-Redis-9" data-look="classic" transform="translate(858.109375, 1144.68119430542)"><path d="M0,14.320803075608714 a83.8125,14.320803075608714 0,0,0 167.625,0 a83.8125,14.320803075608714 0,0,0 -167.625,0 l0,65.9208015497298 a83.8125,14.320803075608714 0,0,0 167.625,0 l0,-65.9208015497298" class="basic label-container outer-path" style="" transform="translate(-83.8125, -47.28120385047362)"></path><g class="label" style="" transform="translate(0, -9.299999237060547)"><rect></rect><g><rect class="background" style="stroke: none"></rect><text y="-10.1" style=""><tspan class="text-outer-tspan row" x="0" y="-0.1em" dy="1.1em"><tspan font-style="normal" class="text-inner-tspan" font-weight="normal">Redis</tspan><tspan font-style="normal" class="text-inner-tspan" font-weight="normal"> cluster:</tspan><tspan font-style="normal" class="text-inner-tspan" font-weight="normal"> stock</tspan><tspan font-style="normal" class="text-inner-tspan" font-weight="normal"> +</tspan></tspan><tspan class="text-outer-tspan row" x="0" y="1em" dy="1.1em"><tspan font-style="normal" class="text-inner-tspan" font-weight="normal">tokens</tspan></tspan></text></g></g></g><g class="node default" id="geea57e38-9d80-4359-98ca-22ca2a9e014a-light-flowchart-MQ-10" data-look="classic" transform="translate(1099.6640625, 1144.68119430542)"><polygon points="0,0 199.484375,0 199.484375,-34 0,-34 0,0 -8,0 207.484375,0 207.484375,-34 -8,-34 -8,0" class="label-container" transform="translate(-99.7421875,17)"></polygon><g class="label" style="" transform="translate(0, -9.5)"><rect></rect><g><rect class="background" style="stroke: none"></rect><text y="-10.1" style=""><tspan class="text-outer-tspan row" x="0" y="-0.1em" dy="1.1em"><tspan font-style="normal" class="text-inner-tspan" font-weight="normal">Order</tspan><tspan font-style="normal" class="text-inner-tspan" font-weight="normal"> queue:</tspan><tspan font-style="normal" class="text-inner-tspan" font-weight="normal"> SQS</tspan><tspan font-style="normal" class="text-inner-tspan" font-weight="normal"> /</tspan><tspan font-style="normal" class="text-inner-tspan" font-weight="normal"> Kafka</tspan></tspan></text></g></g></g><g class="node default" id="geea57e38-9d80-4359-98ca-22ca2a9e014a-light-flowchart-DB-11" data-look="classic" transform="translate(1359.7578125, 1144.68119430542)"><path d="M0,15.521776219136534 a102.3515625,15.521776219136534 0,0,0 204.703125,0 a102.3515625,15.521776219136534 0,0,0 -204.703125,0 l0,49.521776219136534 a102.3515625,15.521776219136534 0,0,0 204.703125,0 l0,-49.521776219136534" class="basic label-container outer-path" style="" transform="translate(-102.3515625, -40.2826643287048)"></path><g class="label" style="" transform="translate(0, -0.5)"><rect></rect><g><rect class="background" style="stroke: none"></rect><text y="-10.1" style=""><tspan class="text-outer-tspan row" x="0" y="-0.1em" dy="1.1em"><tspan font-style="normal" class="text-inner-tspan" font-weight="normal">PostgreSQL:</tspan><tspan font-style="normal" class="text-inner-tspan" font-weight="normal"> orders</tspan><tspan font-style="normal" class="text-inner-tspan" font-weight="normal"> /</tspan><tspan font-style="normal" class="text-inner-tspan" font-weight="normal"> users</tspan></tspan></text></g></g></g><g class="node default" id="geea57e38-9d80-4359-98ca-22ca2a9e014a-light-flowchart-OBS-12" data-look="classic" transform="translate(1626.1984405517578, 1144.68119430542)"><polygon points="-25.799999237060547,0 176.578125,0 202.37812423706055,-51.599998474121094 0,-51.599998474121094" class="label-container" transform="translate(-88.2890625,25.799999237060547)"></polygon><g class="label" style="" transform="translate(0, -18.299999237060547)"><rect></rect><g><rect class="background" style="stroke: none"></rect><text y="-10.1" style=""><tspan class="text-outer-tspan row" x="0" y="-0.1em" dy="1.1em"><tspan font-style="normal" class="text-inner-tspan" font-weight="normal">Metrics</tspan><tspan font-style="normal" class="text-inner-tspan" font-weight="normal"> +</tspan><tspan font-style="normal" class="text-inner-tspan" font-weight="normal"> traces</tspan><tspan font-style="normal" class="text-inner-tspan" font-weight="normal"> +</tspan><tspan font-style="normal" class="text-inner-tspan" font-weight="normal"> DLQ</tspan></tspan><tspan class="text-outer-tspan row" x="0" y="1em" dy="1.1em"><tspan font-style="normal" class="text-inner-tspan" font-weight="normal">alerts</tspan></tspan></text></g></g></g></g></g></g><defs><filter id="geea57e38-9d80-4359-98ca-22ca2a9e014a-light-drop-shadow" height="130%" width="130%"><feDropShadow dx="4" dy="4" stdDeviation="0" flood-opacity="0.06" flood-color="#000000"></feDropShadow></filter></defs><defs><filter id="geea57e38-9d80-4359-98ca-22ca2a9e014a-light-drop-shadow-small" height="150%" width="150%"><feDropShadow dx="2" dy="2" stdDeviation="0" flood-opacity="0.06" flood-color="#000000"></feDropShadow></filter></defs></svg>