<svg id="g165b63eb-c49a-4672-9434-c32a032ecc45-dark" width="100%" xmlns="http://www.w3.org/2000/svg" xmlns:xlink="http://www.w3.org/1999/xlink" class="erDiagram" style="max-width: 280.09375px;" viewBox="0 0 280.09375 572" role="graphics-document document" aria-roledescription="er"><style>#g165b63eb-c49a-4672-9434-c32a032ecc45-dark{font-family:"trebuchet ms",verdana,arial,sans-serif;font-size:16px;fill:#e5e5e5;}@keyframes edge-animation-frame{from{stroke-dashoffset:0;}}@keyframes dash{to{stroke-dashoffset:0;}}#g165b63eb-c49a-4672-9434-c32a032ecc45-dark .edge-animation-slow{stroke-dasharray:9,5!important;stroke-dashoffset:900;animation:dash 50s linear infinite;stroke-linecap:round;}#g165b63eb-c49a-4672-9434-c32a032ecc45-dark .edge-animation-fast{stroke-dasharray:9,5!important;stroke-dashoffset:900;animation:dash 20s linear infinite;stroke-linecap:round;}#g165b63eb-c49a-4672-9434-c32a032ecc45-dark .error-icon{fill:#252525;}#g165b63eb-c49a-4672-9434-c32a032ecc45-dark .error-text{fill:#cccccc;stroke:#cccccc;}#g165b63eb-c49a-4672-9434-c32a032ecc45-dark .edge-thickness-normal{stroke-width:1px;}#g165b63eb-c49a-4672-9434-c32a032ecc45-dark .edge-thickness-thick{stroke-width:3.5px;}#g165b63eb-c49a-4672-9434-c32a032ecc45-dark .edge-pattern-solid{stroke-dasharray:0;}#g165b63eb-c49a-4672-9434-c32a032ecc45-dark .edge-thickness-invisible{stroke-width:0;fill:none;}#g165b63eb-c49a-4672-9434-c32a032ecc45-dark .edge-pattern-dashed{stroke-dasharray:3;}#g165b63eb-c49a-4672-9434-c32a032ecc45-dark .edge-pattern-dotted{stroke-dasharray:2;}#g165b63eb-c49a-4672-9434-c32a032ecc45-dark .marker{fill:#cccccc;stroke:#cccccc;}#g165b63eb-c49a-4672-9434-c32a032ecc45-dark .marker.cross{stroke:#cccccc;}#g165b63eb-c49a-4672-9434-c32a032ecc45-dark svg{font-family:"trebuchet ms",verdana,arial,sans-serif;font-size:16px;}#g165b63eb-c49a-4672-9434-c32a032ecc45-dark p{margin:0;}#g165b63eb-c49a-4672-9434-c32a032ecc45-dark .entityBox{fill:#2d2d2d;stroke:#555555;}#g165b63eb-c49a-4672-9434-c32a032ecc45-dark .relationshipLabelBox{fill:#252525;opacity:0.7;background-color:#252525;}#g165b63eb-c49a-4672-9434-c32a032ecc45-dark .relationshipLabelBox rect{opacity:0.5;}#g165b63eb-c49a-4672-9434-c32a032ecc45-dark .labelBkg{background-color:rgba(37, 37, 37, 0.5);}#g165b63eb-c49a-4672-9434-c32a032ecc45-dark .edgeLabel{background-color:#1e1e1e;}#g165b63eb-c49a-4672-9434-c32a032ecc45-dark .edgeLabel .label rect{fill:#1e1e1e;}#g165b63eb-c49a-4672-9434-c32a032ecc45-dark .edgeLabel .label text{fill:#e5e5e5;}#g165b63eb-c49a-4672-9434-c32a032ecc45-dark .edgeLabel .label{fill:#555555;font-size:14px;}#g165b63eb-c49a-4672-9434-c32a032ecc45-dark .label{font-family:"trebuchet ms",verdana,arial,sans-serif;color:#e5e5e5;}#g165b63eb-c49a-4672-9434-c32a032ecc45-dark .edge-pattern-dashed{stroke-dasharray:8,8;}#g165b63eb-c49a-4672-9434-c32a032ecc45-dark .node rect,#g165b63eb-c49a-4672-9434-c32a032ecc45-dark .node circle,#g165b63eb-c49a-4672-9434-c32a032ecc45-dark .node ellipse,#g165b63eb-c49a-4672-9434-c32a032ecc45-dark .node polygon{fill:#2d2d2d;stroke:#555555;stroke-width:1px;}#g165b63eb-c49a-4672-9434-c32a032ecc45-dark .relationshipLine{stroke:#cccccc;stroke-width:1px;fill:none;}#g165b63eb-c49a-4672-9434-c32a032ecc45-dark .marker{fill:none!important;stroke:#cccccc!important;stroke-width:1;}#g165b63eb-c49a-4672-9434-c32a032ecc45-dark [data-look=neo].labelBkg{background-color:rgba(37, 37, 37, 0.5);}#g165b63eb-c49a-4672-9434-c32a032ecc45-dark .node .neo-node{stroke:#555555;}#g165b63eb-c49a-4672-9434-c32a032ecc45-dark [data-look="neo"].node rect,#g165b63eb-c49a-4672-9434-c32a032ecc45-dark [data-look="neo"].cluster rect,#g165b63eb-c49a-4672-9434-c32a032ecc45-dark [data-look="neo"].node polygon{stroke:url(#g165b63eb-c49a-4672-9434-c32a032ecc45-dark-gradient);filter:drop-shadow( 1px 2px 2px rgba(185,185,185,1));}#g165b63eb-c49a-4672-9434-c32a032ecc45-dark [data-look="neo"].node path{stroke:url(#g165b63eb-c49a-4672-9434-c32a032ecc45-dark-gradient);stroke-width:1px;}#g165b63eb-c49a-4672-9434-c32a032ecc45-dark [data-look="neo"].node .outer-path{filter:drop-shadow( 1px 2px 2px rgba(185,185,185,1));}#g165b63eb-c49a-4672-9434-c32a032ecc45-dark [data-look="neo"].node .neo-line path{stroke:#555555;filter:none;}#g165b63eb-c49a-4672-9434-c32a032ecc45-dark [data-look="neo"].node circle{stroke:url(#g165b63eb-c49a-4672-9434-c32a032ecc45-dark-gradient);filter:drop-shadow( 1px 2px 2px rgba(185,185,185,1));}#g165b63eb-c49a-4672-9434-c32a032ecc45-dark [data-look="neo"].node circle .state-start{fill:#000000;}#g165b63eb-c49a-4672-9434-c32a032ecc45-dark [data-look="neo"].icon-shape .icon{fill:url(#g165b63eb-c49a-4672-9434-c32a032ecc45-dark-gradient);filter:drop-shadow( 1px 2px 2px rgba(185,185,185,1));}#g165b63eb-c49a-4672-9434-c32a032ecc45-dark [data-look="neo"].icon-shape .icon-neo path{stroke:url(#g165b63eb-c49a-4672-9434-c32a032ecc45-dark-gradient);filter:drop-shadow( 1px 2px 2px rgba(185,185,185,1));}#g165b63eb-c49a-4672-9434-c32a032ecc45-dark :root{--mermaid-font-family:"trebuchet ms",verdana,arial,sans-serif;}</style><g><defs><marker id="g165b63eb-c49a-4672-9434-c32a032ecc45-dark_er-onlyOneStart" class="marker onlyOne er" refX="0" refY="9" markerWidth="18" markerHeight="18" orient="auto"><path d="M9,0 L9,18 M15,0 L15,18"></path></marker></defs><defs><marker id="g165b63eb-c49a-4672-9434-c32a032ecc45-dark_er-onlyOneEnd" class="marker onlyOne er" refX="18" refY="9" markerWidth="18" markerHeight="18" orient="auto"><path d="M3,0 L3,18 M9,0 L9,18"></path></marker></defs><defs><marker id="g165b63eb-c49a-4672-9434-c32a032ecc45-dark_er-zeroOrOneStart" class="marker zeroOrOne er" refX="0" refY="9" markerWidth="30" markerHeight="18" orient="auto"><circle fill="white" cx="21" cy="9" r="6"></circle><path d="M9,0 L9,18"></path></marker></defs><defs><marker id="g165b63eb-c49a-4672-9434-c32a032ecc45-dark_er-zeroOrOneEnd" class="marker zeroOrOne er" refX="30" refY="9" markerWidth="30" markerHeight="18" orient="auto"><circle fill="white" cx="9" cy="9" r="6"></circle><path d="M21,0 L21,18"></path></marker></defs><defs><marker id="g165b63eb-c49a-4672-9434-c32a032ecc45-dark_er-oneOrMoreStart" class="marker oneOrMore er" refX="18" refY="18" markerWidth="45" markerHeight="36" orient="auto"><path d="M0,18 Q 18,0 36,18 Q 18,36 0,18 M42,9 L42,27"></path></marker></defs><defs><marker id="g165b63eb-c49a-4672-9434-c32a032ecc45-dark_er-oneOrMoreEnd" class="marker oneOrMore er" refX="27" refY="18" markerWidth="45" markerHeight="36" orient="auto"><path d="M3,9 L3,27 M9,18 Q27,0 45,18 Q27,36 9,18"></path></marker></defs><defs><marker id="g165b63eb-c49a-4672-9434-c32a032ecc45-dark_er-zeroOrMoreStart" class="marker zeroOrMore er" refX="18" refY="18" markerWidth="57" markerHeight="36" orient="auto"><circle fill="white" cx="48" cy="18" r="6"></circle><path d="M0,18 Q18,0 36,18 Q18,36 0,18"></path></marker></defs><defs><marker id="g165b63eb-c49a-4672-9434-c32a032ecc45-dark_er-zeroOrMoreEnd" class="marker zeroOrMore er" refX="39" refY="18" markerWidth="57" markerHeight="36" orient="auto"><circle fill="white" cx="9" cy="18" r="6"></circle><path d="M21,18 Q39,0 57,18 Q39,36 21,18"></path></marker></defs><g class="root"><g class="clusters"></g><g class="edgePaths"><path d="M96.741,234.5L93.933,243.083C91.125,251.667,85.508,268.833,85.508,286C85.508,303.167,91.125,320.333,93.933,328.917L96.741,337.5" id="g165b63eb-c49a-4672-9434-c32a032ecc45-dark-id_entity-OBJECT-0_entity-ASSOCIATION-1_0" class="edge-thickness-normal edge-pattern-solid relationshipLine" style="undefined;;;undefined" data-edge="true" data-et="edge" data-id="id_entity-OBJECT-0_entity-ASSOCIATION-1_0" data-points="W3sieCI6OTYuNzQxNDQwNjI5NzQyMDMsInkiOjIzNC41fSx7IngiOjc5Ljg5MDYyNSwieSI6Mjg2fSx7IngiOjk2Ljc0MTQ0MDYyOTc0MjAzLCJ5IjozMzcuNX1d" data-look="classic" marker-start="url(#g165b63eb-c49a-4672-9434-c32a032ecc45-dark_er-onlyOneStart)" marker-end="url(#g165b63eb-c49a-4672-9434-c32a032ecc45-dark_er-zeroOrMoreEnd)"></path><path d="M170.852,234.5L173.661,243.083C176.469,251.667,182.086,268.833,182.086,286C182.086,303.167,176.469,320.333,173.661,328.917L170.852,337.5" id="g165b63eb-c49a-4672-9434-c32a032ecc45-dark-id_entity-OBJECT-0_entity-ASSOCIATION-1_1" class="edge-thickness-normal edge-pattern-solid relationshipLine" style="undefined;;;undefined" data-edge="true" data-et="edge" data-id="id_entity-OBJECT-0_entity-ASSOCIATION-1_1" data-points="W3sieCI6MTcwLjg1MjMwOTM3MDI1Nzk2LCJ5IjoyMzQuNX0seyJ4IjoxODcuNzAzMTI1LCJ5IjoyODZ9LHsieCI6MTcwLjg1MjMwOTM3MDI1Nzk2LCJ5IjozMzcuNX1d" data-look="classic" marker-start="url(#g165b63eb-c49a-4672-9434-c32a032ecc45-dark_er-onlyOneStart)" marker-end="url(#g165b63eb-c49a-4672-9434-c32a032ecc45-dark_er-zeroOrMoreEnd)"></path></g><g class="edgeLabels"><g class="edgeLabel" transform="translate(79.890625, 286)"><g class="label" data-id="id_entity-OBJECT-0_entity-ASSOCIATION-1_0" transform="translate(0, -9.000000476837158)"><g><rect class="background" style="" x="-44.5546875" y="-1" width="89.109375" height="23"></rect><text y="-10.1" text-anchor="middle" style=""><tspan class="text-outer-tspan row" x="0" y="-0.1em" dy="1.1em" text-anchor="middle"><tspan font-style="normal" class="text-inner-tspan" font-weight="normal">source</tspan><tspan font-style="normal" class="text-inner-tspan" font-weight="normal"> (id1)</tspan></tspan></text></g></g></g><g class="edgeLabel" transform="translate(187.703125, 286)"><g class="label" data-id="id_entity-OBJECT-0_entity-ASSOCIATION-1_1" transform="translate(0, -9.000000476837158)"><g><rect class="background" style="" x="-43.2578125" y="-1" width="86.515625" height="23"></rect><text y="-10.1" text-anchor="middle" style=""><tspan class="text-outer-tspan row" x="0" y="-0.1em" dy="1.1em" text-anchor="middle"><tspan font-style="normal" class="text-inner-tspan" font-weight="normal">target</tspan><tspan font-style="normal" class="text-inner-tspan" font-weight="normal"> (id2)</tspan></tspan></text></g></g></g></g><g class="nodes"><g class="node default" id="g165b63eb-c49a-4672-9434-c32a032ecc45-dark-entity-OBJECT-0" data-look="classic" transform="translate(133.796875, 121.25)"><g class="outer-path" style=""><path d="M-125.796875 -113.25 L125.796875 -113.25 L125.796875 113.25 L-125.796875 113.25" stroke="none" stroke-width="0" fill="#2d2d2d"></path><path d="M-125.796875 -113.25 C-65.28114949497997 -113.25, -4.765423989959942 -113.25, 125.796875 -113.25 M-125.796875 -113.25 C-38.709371263822675 -113.25, 48.37813247235465 -113.25, 125.796875 -113.25 M125.796875 -113.25 C125.796875 -43.05673423792214, 125.796875 27.136531524155714, 125.796875 113.25 M125.796875 -113.25 C125.796875 -60.36236657133415, 125.796875 -7.474733142668299, 125.796875 113.25 M125.796875 113.25 C47.97126131198266 113.25, -29.854352376034683 113.25, -125.796875 113.25 M125.796875 113.25 C68.63674305130922 113.25, 11.476611102618463 113.25, -125.796875 113.25 M-125.796875 113.25 C-125.796875 25.451968097493065, -125.796875 -62.34606380501387, -125.796875 -113.25 M-125.796875 113.25 C-125.796875 55.329069497780225, -125.796875 -2.5918610044395507, -125.796875 -113.25" stroke="#555555" stroke-width="1.3" fill="none" stroke-dasharray="0 0"></path></g><g style="" class="row-rect-odd"><path d="M-125.796875 -75.5 L125.796875 -75.5 L125.796875 -37.75 L-125.796875 -37.75" stroke="none" stroke-width="0" fill="hsl(0, 0%, 92.6470588235%)"></path><path d="M-125.796875 -75.5 C-69.54377787793433 -75.5, -13.290680755868664 -75.5, 125.796875 -75.5 M-125.796875 -75.5 C-43.754169070961396 -75.5, 38.28853685807721 -75.5, 125.796875 -75.5 M125.796875 -75.5 C125.796875 -61.037107887618234, 125.796875 -46.57421577523647, 125.796875 -37.75 M125.796875 -75.5 C125.796875 -65.69438434017415, 125.796875 -55.88876868034829, 125.796875 -37.75 M125.796875 -37.75 C67.04217001009822 -37.75, 8.287465020196436 -37.75, -125.796875 -37.75 M125.796875 -37.75 C62.16382927767186 -37.75, -1.4692164446562828 -37.75, -125.796875 -37.75 M-125.796875 -37.75 C-125.796875 -51.04094530873436, -125.796875 -64.33189061746872, -125.796875 -75.5 M-125.796875 -37.75 C-125.796875 -51.507282532647224, -125.796875 -65.26456506529445, -125.796875 -75.5" stroke="#555555" stroke-width="1.3" fill="none" stroke-dasharray="0 0"></path></g><g style="" class="row-rect-even"><path d="M-125.796875 -37.75 L125.796875 -37.75 L125.796875 0 L-125.796875 0" stroke="none" stroke-width="0" fill="hsl(0, 0%, 22.6470588235%)"></path><path d="M-125.796875 -37.75 C-38.158578874379316 -37.75, 49.47971725124137 -37.75, 125.796875 -37.75 M-125.796875 -37.75 C-38.07697421439994 -37.75, 49.64292657120012 -37.75, 125.796875 -37.75 M125.796875 -37.75 C125.796875 -23.218509316319217, 125.796875 -8.687018632638434, 125.796875 0 M125.796875 -37.75 C125.796875 -26.530003368933556, 125.796875 -15.310006737867113, 125.796875 0 M125.796875 0 C29.292883311678295 0, -67.21110837664341 0, -125.796875 0 M125.796875 0 C69.30229775200222 0, 12.807720504004436 0, -125.796875 0 M-125.796875 0 C-125.796875 -13.599315514686644, -125.796875 -27.19863102937329, -125.796875 -37.75 M-125.796875 0 C-125.796875 -9.262158218676491, -125.796875 -18.524316437352983, -125.796875 -37.75" stroke="#555555" stroke-width="1.3" fill="none" stroke-dasharray="0 0"></path></g><g style="" class="row-rect-odd"><path d="M-125.796875 0 L125.796875 0 L125.796875 37.75 L-125.796875 37.75" stroke="none" stroke-width="0" fill="hsl(0, 0%, 92.6470588235%)"></path><path d="M-125.796875 0 C-36.247144601550715 0, 53.30258579689857 0, 125.796875 0 M-125.796875 0 C-37.692858261909976 0, 50.41115847618005 0, 125.796875 0 M125.796875 0 C125.796875 14.724255212676622, 125.796875 29.448510425353245, 125.796875 37.75 M125.796875 0 C125.796875 11.507963161368755, 125.796875 23.01592632273751, 125.796875 37.75 M125.796875 37.75 C28.90947433471807 37.75, -67.97792633056386 37.75, -125.796875 37.75 M125.796875 37.75 C58.269990715517636 37.75, -9.256893568964728 37.75, -125.796875 37.75 M-125.796875 37.75 C-125.796875 27.977688506157662, -125.796875 18.20537701231532, -125.796875 0 M-125.796875 37.75 C-125.796875 24.23134123738506, -125.796875 10.712682474770116, -125.796875 0" stroke="#555555" stroke-width="1.3" fill="none" stroke-dasharray="0 0"></path></g><g style="" class="row-rect-even"><path d="M-125.796875 37.75 L125.796875 37.75 L125.796875 75.5 L-125.796875 75.5" stroke="none" stroke-width="0" fill="hsl(0, 0%, 22.6470588235%)"></path><path d="M-125.796875 37.75 C-30.021429085709073 37.75, 65.75401682858185 37.75, 125.796875 37.75 M-125.796875 37.75 C-47.764460983795345 37.75, 30.26795303240931 37.75, 125.796875 37.75 M125.796875 37.75 C125.796875 46.48104339122169, 125.796875 55.21208678244337, 125.796875 75.5 M125.796875 37.75 C125.796875 45.57622296510777, 125.796875 53.402445930215535, 125.796875 75.5 M125.796875 75.5 C69.44878229702618 75.5, 13.100689594052355 75.5, -125.796875 75.5 M125.796875 75.5 C36.20977828636093 75.5, -53.37731842727814 75.5, -125.796875 75.5 M-125.796875 75.5 C-125.796875 61.88483941556903, -125.796875 48.26967883113807, -125.796875 37.75 M-125.796875 75.5 C-125.796875 65.74880098775316, -125.796875 55.997601975506306, -125.796875 37.75" stroke="#555555" stroke-width="1.3" fill="none" stroke-dasharray="0 0"></path></g><g style="" class="row-rect-odd"><path d="M-125.796875 75.5 L125.796875 75.5 L125.796875 113.25 L-125.796875 113.25" stroke="none" stroke-width="0" fill="hsl(0, 0%, 92.6470588235%)"></path><path d="M-125.796875 75.5 C-42.492473616357785 75.5, 40.81192776728443 75.5, 125.796875 75.5 M-125.796875 75.5 C-54.014007581402794 75.5, 17.768859837194412 75.5, 125.796875 75.5 M125.796875 75.5 C125.796875 86.09956938787859, 125.796875 96.69913877575718, 125.796875 113.25 M125.796875 75.5 C125.796875 88.70213022031919, 125.796875 101.9042604406384, 125.796875 113.25 M125.796875 113.25 C68.24593747323956 113.25, 10.694999946479143 113.25, -125.796875 113.25 M125.796875 113.25 C53.43334504401433 113.25, -18.930184911971338 113.25, -125.796875 113.25 M-125.796875 113.25 C-125.796875 100.20481700088125, -125.796875 87.1596340017625, -125.796875 75.5 M-125.796875 113.25 C-125.796875 104.43574622845851, -125.796875 95.62149245691703, -125.796875 75.5" stroke="#555555" stroke-width="1.3" fill="none" stroke-dasharray="0 0"></path></g><g class="label name" transform="translate(-27.4453125, -103.875)" style=""><g><rect class="background" style="stroke: none"></rect></g><text y="-10.1" style=""><tspan class="text-outer-tspan row" x="0" y="-0.1em" dy="1.1em"><tspan font-style="normal" class="text-inner-tspan" font-weight="normal">OBJECT</tspan></tspan></text></g><g class="label attribute-type" transform="translate(-113.296875, -66.125)" style=""><g><rect class="background" style="stroke: none"></rect></g><text y="-10.1" style=""><tspan class="text-outer-tspan row" x="0" y="-0.1em" dy="1.1em"><tspan font-style="normal" class="text-inner-tspan" font-weight="normal">bigint</tspan></tspan></text></g><g class="label attribute-name" transform="translate(-11.953125, -66.125)" style=""><g><rect class="background" style="stroke: none"></rect></g><text y="-10.1" style=""><tspan class="text-outer-tspan row" x="0" y="-0.1em" dy="1.1em"><tspan font-style="normal" class="text-inner-tspan" font-weight="normal">id</tspan></tspan></text></g><g class="label attribute-keys" transform="translate(95.15625, -66.125)" style=""><g><rect class="background" style="stroke: none"></rect></g><text y="-10.1" style=""><tspan class="text-outer-tspan row" x="0" y="-0.1em" dy="1.1em"><tspan font-style="normal" class="text-inner-tspan" font-weight="normal">PK</tspan></tspan></text></g><g class="label attribute-comment" transform="translate(138.296875, -66.125)" style=""><g><rect class="background" style="stroke: none"></rect></g><text y="-10.1" style=""><tspan class="text-outer-tspan row" x="0" y="-0.1em" dy="1.1em"></tspan></text></g><g class="label attribute-type" transform="translate(-113.296875, -28.375)" style=""><g><rect class="background" style="stroke: none"></rect></g><text y="-10.1" style=""><tspan class="text-outer-tspan row" x="0" y="-0.1em" dy="1.1em"><tspan font-style="normal" class="text-inner-tspan" font-weight="normal">string</tspan></tspan></text></g><g class="label attribute-name" transform="translate(-11.953125, -28.375)" style=""><g><rect class="background" style="stroke: none"></rect></g><text y="-10.1" style=""><tspan class="text-outer-tspan row" x="0" y="-0.1em" dy="1.1em"><tspan font-style="normal" class="text-inner-tspan" font-weight="normal">type</tspan></tspan></text></g><g class="label attribute-keys" transform="translate(95.15625, -28.375)" style=""><g><rect class="background" style="stroke: none"></rect></g><text y="-10.1" style=""><tspan class="text-outer-tspan row" x="0" y="-0.1em" dy="1.1em"></tspan></text></g><g class="label attribute-comment" transform="translate(138.296875, -28.375)" style=""><g><rect class="background" style="stroke: none"></rect></g><text y="-10.1" style=""><tspan class="text-outer-tspan row" x="0" y="-0.1em" dy="1.1em"></tspan></text></g><g class="label attribute-type" transform="translate(-113.296875, 9.375)" style=""><g><rect class="background" style="stroke: none"></rect></g><text y="-10.1" style=""><tspan class="text-outer-tspan row" x="0" y="-0.1em" dy="1.1em"><tspan font-style="normal" class="text-inner-tspan" font-weight="normal">blob</tspan></tspan></text></g><g class="label attribute-name" transform="translate(-11.953125, 9.375)" style=""><g><rect class="background" style="stroke: none"></rect></g><text y="-10.1" style=""><tspan class="text-outer-tspan row" x="0" y="-0.1em" dy="1.1em"><tspan font-style="normal" class="text-inner-tspan" font-weight="normal">data</tspan></tspan></text></g><g class="label attribute-keys" transform="translate(95.15625, 9.375)" style=""><g><rect class="background" style="stroke: none"></rect></g><text y="-10.1" style=""><tspan class="text-outer-tspan row" x="0" y="-0.1em" dy="1.1em"></tspan></text></g><g class="label attribute-comment" transform="translate(138.296875, 9.375)" style=""><g><rect class="background" style="stroke: none"></rect></g><text y="-10.1" style=""><tspan class="text-outer-tspan row" x="0" y="-0.1em" dy="1.1em"></tspan></text></g><g class="label attribute-type" transform="translate(-113.296875, 47.125)" style=""><g><rect class="background" style="stroke: none"></rect></g><text y="-10.1" style=""><tspan class="text-outer-tspan row" x="0" y="-0.1em" dy="1.1em"><tspan font-style="normal" class="text-inner-tspan" font-weight="normal">timestamp</tspan></tspan></text></g><g class="label attribute-name" transform="translate(-11.953125, 47.125)" style=""><g><rect class="background" style="stroke: none"></rect></g><text y="-10.1" style=""><tspan class="text-outer-tspan row" x="0" y="-0.1em" dy="1.1em"><tspan font-style="normal" class="text-inner-tspan" font-weight="normal">created_at</tspan></tspan></text></g><g class="label attribute-keys" transform="translate(95.15625, 47.125)" style=""><g><rect class="background" style="stroke: none"></rect></g><text y="-10.1" style=""><tspan class="text-outer-tspan row" x="0" y="-0.1em" dy="1.1em"></tspan></text></g><g class="label attribute-comment" transform="translate(138.296875, 47.125)" style=""><g><rect class="background" style="stroke: none"></rect></g><text y="-10.1" style=""><tspan class="text-outer-tspan row" x="0" y="-0.1em" dy="1.1em"></tspan></text></g><g class="label attribute-type" transform="translate(-113.296875, 84.875)" style=""><g><rect class="background" style="stroke: none"></rect></g><text y="-10.1" style=""><tspan class="text-outer-tspan row" x="0" y="-0.1em" dy="1.1em"><tspan font-style="normal" class="text-inner-tspan" font-weight="normal">timestamp</tspan></tspan></text></g><g class="label attribute-name" transform="translate(-11.953125, 84.875)" style=""><g><rect class="background" style="stroke: none"></rect></g><text y="-10.1" style=""><tspan class="text-outer-tspan row" x="0" y="-0.1em" dy="1.1em"><tspan font-style="normal" class="text-inner-tspan" font-weight="normal">updated_at</tspan></tspan></text></g><g class="label attribute-keys" transform="translate(95.15625, 84.875)" style=""><g><rect class="background" style="stroke: none"></rect></g><text y="-10.1" style=""><tspan class="text-outer-tspan row" x="0" y="-0.1em" dy="1.1em"></tspan></text></g><g class="label attribute-comment" transform="translate(138.296875, 84.875)" style=""><g><rect class="background" style="stroke: none"></rect></g><text y="-10.1" style=""><tspan class="text-outer-tspan row" x="0" y="-0.1em" dy="1.1em"></tspan></text></g><g class="divider"><path d="M-125.796875 -75.50005 L-125.796875 -75.49995 L125.796875 -75.49995 L125.796875 -75.50005" stroke="none" stroke-width="0" fill="#2d2d2d" fill-rule="evenodd"></path><path d="M-125.796875 -75.50005 C-125.796875 -75.50002471244673, -125.796875 -75.49999942489345, -125.796875 -75.49995 M-125.796875 -75.50005 C-125.796875 -75.50002260306222, -125.796875 -75.49999520612444, -125.796875 -75.49995 M-125.796875 -75.49995 C-33.77880784936363 -75.49995, 58.23925930127274 -75.49995, 125.796875 -75.49995 M-125.796875 -75.49995 C-65.60750846299777 -75.49995, -5.418141925995556 -75.49995, 125.796875 -75.49995 M125.796875 -75.49995 C125.796875 -75.4999816208322, 125.796875 -75.50001324166442, 125.796875 -75.50005 M125.796875 -75.49995 C125.796875 -75.49998497984171, 125.796875 -75.50001995968343, 125.796875 -75.50005 M125.796875 -75.50005 C66.38244890318971 -75.50005, 6.968022806379423 -75.50005, -125.796875 -75.50005 M125.796875 -75.50005 C25.575122118950986 -75.50005, -74.64663076209803 -75.50005, -125.796875 -75.50005" stroke="#555555" stroke-width="1.3" fill="none" stroke-dasharray="0 0"></path></g><g class="divider"><path d="M-24.453175 -75.5 L-24.453075 -75.5 L-24.453075 113.25 L-24.453175 113.25" stroke="none" stroke-width="0" fill="#2d2d2d" fill-rule="evenodd"></path><path d="M-24.453175 -75.5 C-24.45314101382896 -75.5, -24.453107027657918 -75.5, -24.453075 -75.5 M-24.453175 -75.5 C-24.45315450749961 -75.5, -24.453134014999222 -75.5, -24.453075 -75.5 M-24.453075 -75.5 C-24.453075 -27.43637607224406, -24.453075 20.627247855511882, -24.453075 113.25 M-24.453075 -75.5 C-24.453075 -21.238926424257222, -24.453075 33.022147151485555, -24.453075 113.25 M-24.453075 113.25 C-24.453106881874543 113.25, -24.453138763749088 113.25, -24.453175 113.25 M-24.453075 113.25 C-24.453112602862607 113.25, -24.453150205725215 113.25, -24.453175 113.25 M-24.453175 113.25 C-24.453175 62.073142716038866, -24.453175 10.896285432077732, -24.453175 -75.5 M-24.453175 113.25 C-24.453175 47.69345280548197, -24.453175 -17.863094389036064, -24.453175 -75.5" stroke="#555555" stroke-width="1.3" fill="none" stroke-dasharray="0 0"></path></g><g class="divider"><path d="M82.6562 -75.5 L82.6563 -75.5 L82.6563 113.25 L82.6562 113.25" stroke="none" stroke-width="0" fill="#2d2d2d" fill-rule="evenodd"></path><path d="M82.6562 -75.5 C82.65622716106924 -75.5, 82.65625432213848 -75.5, 82.6563 -75.5 M82.6562 -75.5 C82.65622819658718 -75.5, 82.65625639317435 -75.5, 82.6563 -75.5 M82.6563 -75.5 C82.6563 -23.39288361353364, 82.6563 28.714232772932718, 82.6563 113.25 M82.6563 -75.5 C82.6563 -10.090129843095042, 82.6563 55.319740313809916, 82.6563 113.25 M82.6563 113.25 C82.65627415913883 113.25, 82.65624831827766 113.25, 82.6562 113.25 M82.6563 113.25 C82.65626548045736 113.25, 82.65623096091473 113.25, 82.6562 113.25 M82.6562 113.25 C82.6562 68.2781604994955, 82.6562 23.306320998990984, 82.6562 -75.5 M82.6562 113.25 C82.6562 55.84631463579982, 82.6562 -1.5573707284003575, 82.6562 -75.5" stroke="#555555" stroke-width="1.3" fill="none" stroke-dasharray="0 0"></path></g><g class="divider"><path d="M-125.796875 -75.50005 L-125.796875 -75.49995 L125.796875 -75.49995 L125.796875 -75.50005" stroke="none" stroke-width="0" fill="#2d2d2d" fill-rule="evenodd"></path><path d="M-125.796875 -75.50005 C-125.796875 -75.50002158387976, -125.796875 -75.49999316775951, -125.796875 -75.49995 M-125.796875 -75.50005 C-125.796875 -75.50002671456001, -125.796875 -75.50000342912, -125.796875 -75.49995 M-125.796875 -75.49995 C-39.3552180671212 -75.49995, 47.0864388657576 -75.49995, 125.796875 -75.49995 M-125.796875 -75.49995 C-55.20540658787945 -75.49995, 15.386061824241096 -75.49995, 125.796875 -75.49995 M125.796875 -75.49995 C125.796875 -75.49997912872695, 125.796875 -75.5000082574539, 125.796875 -75.50005 M125.796875 -75.49995 C125.796875 -75.49998410271026, 125.796875 -75.50001820542052, 125.796875 -75.50005 M125.796875 -75.50005 C72.59495858089963 -75.50005, 19.393042161799272 -75.50005, -125.796875 -75.50005 M125.796875 -75.50005 C59.43508503365355 -75.50005, -6.9267049326929 -75.50005, -125.796875 -75.50005" stroke="#555555" stroke-width="1.3" fill="none" stroke-dasharray="0 0"></path></g></g><g class="node default" id="g165b63eb-c49a-4672-9434-c32a032ecc45-dark-entity-ASSOCIATION-1" data-look="classic" transform="translate(133.796875, 450.75)"><g class="outer-path" style=""><path d="M-123.8125 -113.25 L123.8125 -113.25 L123.8125 113.25 L-123.8125 113.25" stroke="none" stroke-width="0" fill="#2d2d2d"></path><path d="M-123.8125 -113.25 C-49.69289703685732 -113.25, 24.426705926285365 -113.25, 123.8125 -113.25 M-123.8125 -113.25 C-38.4619645469561 -113.25, 46.88857090608781 -113.25, 123.8125 -113.25 M123.8125 -113.25 C123.8125 -32.08693210940841, 123.8125 49.07613578118318, 123.8125 113.25 M123.8125 -113.25 C123.8125 -64.31803021639621, 123.8125 -15.38606043279242, 123.8125 113.25 M123.8125 113.25 C57.82894614176399 113.25, -8.154607716472015 113.25, -123.8125 113.25 M123.8125 113.25 C46.702329744270685 113.25, -30.40784051145863 113.25, -123.8125 113.25 M-123.8125 113.25 C-123.8125 37.17643651684385, -123.8125 -38.8971269663123, -123.8125 -113.25 M-123.8125 113.25 C-123.8125 23.73770572242401, -123.8125 -65.77458855515198, -123.8125 -113.25" stroke="#555555" stroke-width="1.3" fill="none" stroke-dasharray="0 0"></path></g><g style="" class="row-rect-odd"><path d="M-123.8125 -75.5 L123.8125 -75.5 L123.8125 -37.75 L-123.8125 -37.75" stroke="none" stroke-width="0" fill="hsl(0, 0%, 92.6470588235%)"></path><path d="M-123.8125 -75.5 C-56.85873968622573 -75.5, 10.095020627548536 -75.5, 123.8125 -75.5 M-123.8125 -75.5 C-60.88604272977771 -75.5, 2.040414540444587 -75.5, 123.8125 -75.5 M123.8125 -75.5 C123.8125 -67.16582485456584, 123.8125 -58.831649709131675, 123.8125 -37.75 M123.8125 -75.5 C123.8125 -67.84494543372494, 123.8125 -60.189890867449876, 123.8125 -37.75 M123.8125 -37.75 C25.813649794282867 -37.75, -72.18520041143427 -37.75, -123.8125 -37.75 M123.8125 -37.75 C50.68453699742098 -37.75, -22.443426005158045 -37.75, -123.8125 -37.75 M-123.8125 -37.75 C-123.8125 -45.666130902083125, -123.8125 -53.58226180416625, -123.8125 -75.5 M-123.8125 -37.75 C-123.8125 -51.91389049293647, -123.8125 -66.07778098587293, -123.8125 -75.5" stroke="#555555" stroke-width="1.3" fill="none" stroke-dasharray="0 0"></path></g><g style="" class="row-rect-even"><path d="M-123.8125 -37.75 L123.8125 -37.75 L123.8125 0 L-123.8125 0" stroke="none" stroke-width="0" fill="hsl(0, 0%, 22.6470588235%)"></path><path d="M-123.8125 -37.75 C-54.72815934247795 -37.75, 14.356181315044097 -37.75, 123.8125 -37.75 M-123.8125 -37.75 C-68.57207372139513 -37.75, -13.33164744279027 -37.75, 123.8125 -37.75 M123.8125 -37.75 C123.8125 -26.121396162338634, 123.8125 -14.492792324677264, 123.8125 0 M123.8125 -37.75 C123.8125 -25.08335025236689, 123.8125 -12.416700504733786, 123.8125 0 M123.8125 0 C59.722471431698324 0, -4.367557136603352 0, -123.8125 0 M123.8125 0 C48.89985059929408 0, -26.012798801411833 0, -123.8125 0 M-123.8125 0 C-123.8125 -13.358817758410279, -123.8125 -26.717635516820557, -123.8125 -37.75 M-123.8125 0 C-123.8125 -11.833524572070644, -123.8125 -23.667049144141288, -123.8125 -37.75" stroke="#555555" stroke-width="1.3" fill="none" stroke-dasharray="0 0"></path></g><g style="" class="row-rect-odd"><path d="M-123.8125 0 L123.8125 0 L123.8125 37.75 L-123.8125 37.75" stroke="none" stroke-width="0" fill="hsl(0, 0%, 92.6470588235%)"></path><path d="M-123.8125 0 C-63.431113962030345 0, -3.04972792406069 0, 123.8125 0 M-123.8125 0 C-46.72777780615577 0, 30.356944387688458 0, 123.8125 0 M123.8125 0 C123.8125 9.41059629399953, 123.8125 18.82119258799906, 123.8125 37.75 M123.8125 0 C123.8125 12.747311928511339, 123.8125 25.494623857022678, 123.8125 37.75 M123.8125 37.75 C67.12884252941366 37.75, 10.44518505882732 37.75, -123.8125 37.75 M123.8125 37.75 C31.099589569265405 37.75, -61.61332086146919 37.75, -123.8125 37.75 M-123.8125 37.75 C-123.8125 24.118791780486283, -123.8125 10.487583560972563, -123.8125 0 M-123.8125 37.75 C-123.8125 29.424811104184776, -123.8125 21.09962220836955, -123.8125 0" stroke="#555555" stroke-width="1.3" fill="none" stroke-dasharray="0 0"></path></g><g style="" class="row-rect-even"><path d="M-123.8125 37.75 L123.8125 37.75 L123.8125 75.5 L-123.8125 75.5" stroke="none" stroke-width="0" fill="hsl(0, 0%, 22.6470588235%)"></path><path d="M-123.8125 37.75 C-35.831074398210646 37.75, 52.15035120357871 37.75, 123.8125 37.75 M-123.8125 37.75 C-43.635989482959786 37.75, 36.54052103408043 37.75, 123.8125 37.75 M123.8125 37.75 C123.8125 46.60311239580527, 123.8125 55.45622479161054, 123.8125 75.5 M123.8125 37.75 C123.8125 48.358282911123325, 123.8125 58.96656582224665, 123.8125 75.5 M123.8125 75.5 C52.32745233426729 75.5, -19.157595331465416 75.5, -123.8125 75.5 M123.8125 75.5 C45.52740737473384 75.5, -32.75768525053232 75.5, -123.8125 75.5 M-123.8125 75.5 C-123.8125 66.25399845876603, -123.8125 57.007996917532076, -123.8125 37.75 M-123.8125 75.5 C-123.8125 61.69620055488733, -123.8125 47.89240110977465, -123.8125 37.75" stroke="#555555" stroke-width="1.3" fill="none" stroke-dasharray="0 0"></path></g><g style="" class="row-rect-odd"><path d="M-123.8125 75.5 L123.8125 75.5 L123.8125 113.25 L-123.8125 113.25" stroke="none" stroke-width="0" fill="hsl(0, 0%, 92.6470588235%)"></path><path d="M-123.8125 75.5 C-72.28456831742807 75.5, -20.75663663485615 75.5, 123.8125 75.5 M-123.8125 75.5 C-34.822290058646544 75.5, 54.16791988270691 75.5, 123.8125 75.5 M123.8125 75.5 C123.8125 83.79931733554099, 123.8125 92.09863467108197, 123.8125 113.25 M123.8125 75.5 C123.8125 85.81148796466174, 123.8125 96.12297592932347, 123.8125 113.25 M123.8125 113.25 C34.26814232245849 113.25, -55.276215355083025 113.25, -123.8125 113.25 M123.8125 113.25 C63.271383620873614 113.25, 2.730267241747228 113.25, -123.8125 113.25 M-123.8125 113.25 C-123.8125 101.64479999032606, -123.8125 90.03959998065211, -123.8125 75.5 M-123.8125 113.25 C-123.8125 105.2691470844222, -123.8125 97.28829416884442, -123.8125 75.5" stroke="#555555" stroke-width="1.3" fill="none" stroke-dasharray="0 0"></path></g><g class="label name" transform="translate(-46.125, -103.875)" style=""><g><rect class="background" style="stroke: none"></rect></g><text y="-10.1" style=""><tspan class="text-outer-tspan row" x="0" y="-0.1em" dy="1.1em"><tspan font-style="normal" class="text-inner-tspan" font-weight="normal">ASSOCIATION</tspan></tspan></text></g><g class="label attribute-type" transform="translate(-111.3125, -66.125)" style=""><g><rect class="background" style="stroke: none"></rect></g><text y="-10.1" style=""><tspan class="text-outer-tspan row" x="0" y="-0.1em" dy="1.1em"><tspan font-style="normal" class="text-inner-tspan" font-weight="normal">bigint</tspan></tspan></text></g><g class="label attribute-name" transform="translate(-9.96875, -66.125)" style=""><g><rect class="background" style="stroke: none"></rect></g><text y="-10.1" style=""><tspan class="text-outer-tspan row" x="0" y="-0.1em" dy="1.1em"><tspan font-style="normal" class="text-inner-tspan" font-weight="normal">id1</tspan></tspan></text></g><g class="label attribute-keys" transform="translate(93.171875, -66.125)" style=""><g><rect class="background" style="stroke: none"></rect></g><text y="-10.1" style=""><tspan class="text-outer-tspan row" x="0" y="-0.1em" dy="1.1em"><tspan font-style="normal" class="text-inner-tspan" font-weight="normal">PK</tspan></tspan></text></g><g class="label attribute-comment" transform="translate(136.3125, -66.125)" style=""><g><rect class="background" style="stroke: none"></rect></g><text y="-10.1" style=""><tspan class="text-outer-tspan row" x="0" y="-0.1em" dy="1.1em"></tspan></text></g><g class="label attribute-type" transform="translate(-111.3125, -28.375)" style=""><g><rect class="background" style="stroke: none"></rect></g><text y="-10.1" style=""><tspan class="text-outer-tspan row" x="0" y="-0.1em" dy="1.1em"><tspan font-style="normal" class="text-inner-tspan" font-weight="normal">string</tspan></tspan></text></g><g class="label attribute-name" transform="translate(-9.96875, -28.375)" style=""><g><rect class="background" style="stroke: none"></rect></g><text y="-10.1" style=""><tspan class="text-outer-tspan row" x="0" y="-0.1em" dy="1.1em"><tspan font-style="normal" class="text-inner-tspan" font-weight="normal">assoc_type</tspan></tspan></text></g><g class="label attribute-keys" transform="translate(93.171875, -28.375)" style=""><g><rect class="background" style="stroke: none"></rect></g><text y="-10.1" style=""><tspan class="text-outer-tspan row" x="0" y="-0.1em" dy="1.1em"><tspan font-style="normal" class="text-inner-tspan" font-weight="normal">PK</tspan></tspan></text></g><g class="label attribute-comment" transform="translate(136.3125, -28.375)" style=""><g><rect class="background" style="stroke: none"></rect></g><text y="-10.1" style=""><tspan class="text-outer-tspan row" x="0" y="-0.1em" dy="1.1em"></tspan></text></g><g class="label attribute-type" transform="translate(-111.3125, 9.375)" style=""><g><rect class="background" style="stroke: none"></rect></g><text y="-10.1" style=""><tspan class="text-outer-tspan row" x="0" y="-0.1em" dy="1.1em"><tspan font-style="normal" class="text-inner-tspan" font-weight="normal">bigint</tspan></tspan></text></g><g class="label attribute-name" transform="translate(-9.96875, 9.375)" style=""><g><rect class="background" style="stroke: none"></rect></g><text y="-10.1" style=""><tspan class="text-outer-tspan row" x="0" y="-0.1em" dy="1.1em"><tspan font-style="normal" class="text-inner-tspan" font-weight="normal">id2</tspan></tspan></text></g><g class="label attribute-keys" transform="translate(93.171875, 9.375)" style=""><g><rect class="background" style="stroke: none"></rect></g><text y="-10.1" style=""><tspan class="text-outer-tspan row" x="0" y="-0.1em" dy="1.1em"><tspan font-style="normal" class="text-inner-tspan" font-weight="normal">PK</tspan></tspan></text></g><g class="label attribute-comment" transform="translate(136.3125, 9.375)" style=""><g><rect class="background" style="stroke: none"></rect></g><text y="-10.1" style=""><tspan class="text-outer-tspan row" x="0" y="-0.1em" dy="1.1em"></tspan></text></g><g class="label attribute-type" transform="translate(-111.3125, 47.125)" style=""><g><rect class="background" style="stroke: none"></rect></g><text y="-10.1" style=""><tspan class="text-outer-tspan row" x="0" y="-0.1em" dy="1.1em"><tspan font-style="normal" class="text-inner-tspan" font-weight="normal">timestamp</tspan></tspan></text></g><g class="label attribute-name" transform="translate(-9.96875, 47.125)" style=""><g><rect class="background" style="stroke: none"></rect></g><text y="-10.1" style=""><tspan class="text-outer-tspan row" x="0" y="-0.1em" dy="1.1em"><tspan font-style="normal" class="text-inner-tspan" font-weight="normal">time</tspan></tspan></text></g><g class="label attribute-keys" transform="translate(93.171875, 47.125)" style=""><g><rect class="background" style="stroke: none"></rect></g><text y="-10.1" style=""><tspan class="text-outer-tspan row" x="0" y="-0.1em" dy="1.1em"></tspan></text></g><g class="label attribute-comment" transform="translate(136.3125, 47.125)" style=""><g><rect class="background" style="stroke: none"></rect></g><text y="-10.1" style=""><tspan class="text-outer-tspan row" x="0" y="-0.1em" dy="1.1em"></tspan></text></g><g class="label attribute-type" transform="translate(-111.3125, 84.875)" style=""><g><rect class="background" style="stroke: none"></rect></g><text y="-10.1" style=""><tspan class="text-outer-tspan row" x="0" y="-0.1em" dy="1.1em"><tspan font-style="normal" class="text-inner-tspan" font-weight="normal">blob</tspan></tspan></text></g><g class="label attribute-name" transform="translate(-9.96875, 84.875)" style=""><g><rect class="background" style="stroke: none"></rect></g><text y="-10.1" style=""><tspan class="text-outer-tspan row" x="0" y="-0.1em" dy="1.1em"><tspan font-style="normal" class="text-inner-tspan" font-weight="normal">data</tspan></tspan></text></g><g class="label attribute-keys" transform="translate(93.171875, 84.875)" style=""><g><rect class="background" style="stroke: none"></rect></g><text y="-10.1" style=""><tspan class="text-outer-tspan row" x="0" y="-0.1em" dy="1.1em"></tspan></text></g><g class="label attribute-comment" transform="translate(136.3125, 84.875)" style=""><g><rect class="background" style="stroke: none"></rect></g><text y="-10.1" style=""><tspan class="text-outer-tspan row" x="0" y="-0.1em" dy="1.1em"></tspan></text></g><g class="divider"><path d="M-123.8125 -75.50005 L-123.8125 -75.49995 L123.8125 -75.49995 L123.8125 -75.50005" stroke="none" stroke-width="0" fill="#2d2d2d" fill-rule="evenodd"></path><path d="M-123.8125 -75.50005 C-123.8125 -75.50001059650666, -123.8125 -75.4999711930133, -123.8125 -75.49995 M-123.8125 -75.50005 C-123.8125 -75.5000179933713, -123.8125 -75.4999859867426, -123.8125 -75.49995 M-123.8125 -75.49995 C-57.39552687378442 -75.49995, 9.021446252431161 -75.49995, 123.8125 -75.49995 M-123.8125 -75.49995 C-34.4956015214745 -75.49995, 54.821296957051004 -75.49995, 123.8125 -75.49995 M123.8125 -75.49995 C123.8125 -75.4999888757371, 123.8125 -75.5000277514742, 123.8125 -75.50005 M123.8125 -75.49995 C123.8125 -75.49998584601455, 123.8125 -75.50002169202911, 123.8125 -75.50005 M123.8125 -75.50005 C69.1533629286619 -75.50005, 14.494225857323812 -75.50005, -123.8125 -75.50005 M123.8125 -75.50005 C25.278150104536365 -75.50005, -73.25619979092727 -75.50005, -123.8125 -75.50005" stroke="#555555" stroke-width="1.3" fill="none" stroke-dasharray="0 0"></path></g><g class="divider"><path d="M-22.4688 -75.5 L-22.4687 -75.5 L-22.4687 113.25 L-22.4688 113.25" stroke="none" stroke-width="0" fill="#2d2d2d" fill-rule="evenodd"></path><path d="M-22.4688 -75.5 C-22.46876332445308 -75.5, -22.468726648906152 -75.5, -22.4687 -75.5 M-22.4688 -75.5 C-22.468762204979218 -75.5, -22.468724409958437 -75.5, -22.4687 -75.5 M-22.4687 -75.5 C-22.4687 -17.062730079386974, -22.4687 41.37453984122605, -22.4687 113.25 M-22.4687 -75.5 C-22.4687 -11.97113168512427, -22.4687 51.55773662975146, -22.4687 113.25 M-22.4687 113.25 C-22.468733308599052 113.25, -22.468766617198103 113.25, -22.4688 113.25 M-22.4687 113.25 C-22.468723632230784 113.25, -22.468747264461573 113.25, -22.4688 113.25 M-22.4688 113.25 C-22.4688 55.77079103866876, -22.4688 -1.708417922662477, -22.4688 -75.5 M-22.4688 113.25 C-22.4688 45.86284418699388, -22.4688 -21.524311626012235, -22.4688 -75.5" stroke="#555555" stroke-width="1.3" fill="none" stroke-dasharray="0 0"></path></g><g class="divider"><path d="M80.671825 -75.5 L80.671925 -75.5 L80.671925 113.25 L80.671825 113.25" stroke="none" stroke-width="0" fill="#2d2d2d" fill-rule="evenodd"></path><path d="M80.671825 -75.5 C80.6718461575236 -75.5, 80.6718673150472 -75.5, 80.671925 -75.5 M80.671825 -75.5 C80.671863840637 -75.5, 80.671902681274 -75.5, 80.671925 -75.5 M80.671925 -75.5 C80.671925 -7.872964182956437, 80.671925 59.754071634087126, 80.671925 113.25 M80.671925 -75.5 C80.671925 -30.836875666038374, 80.671925 13.826248667923252, 80.671925 113.25 M80.671925 113.25 C80.67189479297815 113.25, 80.67186458595629 113.25, 80.671825 113.25 M80.671925 113.25 C80.67190440151437 113.25, 80.67188380302873 113.25, 80.671825 113.25 M80.671825 113.25 C80.671825 45.21236281924401, 80.671825 -22.825274361511987, 80.671825 -75.5 M80.671825 113.25 C80.671825 69.55138506938206, 80.671825 25.852770138764114, 80.671825 -75.5" stroke="#555555" stroke-width="1.3" fill="none" stroke-dasharray="0 0"></path></g><g class="divider"><path d="M-123.8125 -75.50005 L-123.8125 -75.49995 L123.8125 -75.49995 L123.8125 -75.50005" stroke="none" stroke-width="0" fill="#2d2d2d" fill-rule="evenodd"></path><path d="M-123.8125 -75.50005 C-123.8125 -75.50002394924525, -123.8125 -75.49999789849049, -123.8125 -75.49995 M-123.8125 -75.50005 C-123.8125 -75.50002865553196, -123.8125 -75.50000731106392, -123.8125 -75.49995 M-123.8125 -75.49995 C-63.389216779594776 -75.49995, -2.9659335591895513 -75.49995, 123.8125 -75.49995 M-123.8125 -75.49995 C-41.27526516159003 -75.49995, 41.261969676819945 -75.49995, 123.8125 -75.49995 M123.8125 -75.49995 C123.8125 -75.4999863517974, 123.8125 -75.50002270359481, 123.8125 -75.50005 M123.8125 -75.49995 C123.8125 -75.49997969529616, 123.8125 -75.50000939059231, 123.8125 -75.50005 M123.8125 -75.50005 C29.17409101672996 -75.50005, -65.46431796654008 -75.50005, -123.8125 -75.50005 M123.8125 -75.50005 C72.96695902887652 -75.50005, 22.12141805775302 -75.50005, -123.8125 -75.50005" stroke="#555555" stroke-width="1.3" fill="none" stroke-dasharray="0 0"></path></g></g></g></g></g><defs><filter id="g165b63eb-c49a-4672-9434-c32a032ecc45-dark-drop-shadow" height="130%" width="130%"><feDropShadow dx="4" dy="4" stdDeviation="0" flood-opacity="0.06" flood-color="#000000"></feDropShadow></filter></defs><defs><filter id="g165b63eb-c49a-4672-9434-c32a032ecc45-dark-drop-shadow-small" height="150%" width="150%"><feDropShadow dx="2" dy="2" stdDeviation="0" flood-opacity="0.06" flood-color="#000000"></feDropShadow></filter></defs><linearGradient id="g165b63eb-c49a-4672-9434-c32a032ecc45-dark-gradient" gradientUnits="objectBoundingBox" x1="0%" y1="0%" x2="100%" y2="0%"><stop offset="0%" stop-color="#555555" stop-opacity="1"></stop><stop offset="100%" stop-color="#555555" stop-opacity="1"></stop></linearGradient></svg>