<svg id="g5327d270-334d-4992-aa21-f86069766f41-dark" width="100%" xmlns="http://www.w3.org/2000/svg" xmlns:xlink="http://www.w3.org/1999/xlink" class="flowchart" style="max-width: 1101.893798828125px;" viewBox="0 0 1101.893798828125 1305.25" role="graphics-document document" aria-roledescription="flowchart-v2"><style>#g5327d270-334d-4992-aa21-f86069766f41-dark{font-family:"trebuchet ms",verdana,arial,sans-serif;font-size:16px;fill:#e5e5e5;}@keyframes edge-animation-frame{from{stroke-dashoffset:0;}}@keyframes dash{to{stroke-dashoffset:0;}}#g5327d270-334d-4992-aa21-f86069766f41-dark .edge-animation-slow{stroke-dasharray:9,5!important;stroke-dashoffset:900;animation:dash 50s linear infinite;stroke-linecap:round;}#g5327d270-334d-4992-aa21-f86069766f41-dark .edge-animation-fast{stroke-dasharray:9,5!important;stroke-dashoffset:900;animation:dash 20s linear infinite;stroke-linecap:round;}#g5327d270-334d-4992-aa21-f86069766f41-dark .error-icon{fill:#252525;}#g5327d270-334d-4992-aa21-f86069766f41-dark .error-text{fill:#cccccc;stroke:#cccccc;}#g5327d270-334d-4992-aa21-f86069766f41-dark .edge-thickness-normal{stroke-width:1px;}#g5327d270-334d-4992-aa21-f86069766f41-dark .edge-thickness-thick{stroke-width:3.5px;}#g5327d270-334d-4992-aa21-f86069766f41-dark .edge-pattern-solid{stroke-dasharray:0;}#g5327d270-334d-4992-aa21-f86069766f41-dark .edge-thickness-invisible{stroke-width:0;fill:none;}#g5327d270-334d-4992-aa21-f86069766f41-dark .edge-pattern-dashed{stroke-dasharray:3;}#g5327d270-334d-4992-aa21-f86069766f41-dark .edge-pattern-dotted{stroke-dasharray:2;}#g5327d270-334d-4992-aa21-f86069766f41-dark .marker{fill:#cccccc;stroke:#cccccc;}#g5327d270-334d-4992-aa21-f86069766f41-dark .marker.cross{stroke:#cccccc;}#g5327d270-334d-4992-aa21-f86069766f41-dark svg{font-family:"trebuchet ms",verdana,arial,sans-serif;font-size:16px;}#g5327d270-334d-4992-aa21-f86069766f41-dark p{margin:0;}#g5327d270-334d-4992-aa21-f86069766f41-dark .label{font-family:"trebuchet ms",verdana,arial,sans-serif;color:#e5e5e5;}#g5327d270-334d-4992-aa21-f86069766f41-dark .cluster-label text{fill:#e5e5e5;}#g5327d270-334d-4992-aa21-f86069766f41-dark .cluster-label span{color:#e5e5e5;}#g5327d270-334d-4992-aa21-f86069766f41-dark .cluster-label span p{background-color:transparent;}#g5327d270-334d-4992-aa21-f86069766f41-dark .label text,#g5327d270-334d-4992-aa21-f86069766f41-dark span{fill:#e5e5e5;color:#e5e5e5;}#g5327d270-334d-4992-aa21-f86069766f41-dark .node rect,#g5327d270-334d-4992-aa21-f86069766f41-dark .node circle,#g5327d270-334d-4992-aa21-f86069766f41-dark .node ellipse,#g5327d270-334d-4992-aa21-f86069766f41-dark .node polygon,#g5327d270-334d-4992-aa21-f86069766f41-dark .node path{fill:#2d2d2d;stroke:#555555;stroke-width:1px;}#g5327d270-334d-4992-aa21-f86069766f41-dark .rough-node .label text,#g5327d270-334d-4992-aa21-f86069766f41-dark .node .label text,#g5327d270-334d-4992-aa21-f86069766f41-dark .image-shape .label,#g5327d270-334d-4992-aa21-f86069766f41-dark .icon-shape .label{text-anchor:middle;}#g5327d270-334d-4992-aa21-f86069766f41-dark .node .katex path{fill:#000;stroke:#000;stroke-width:1px;}#g5327d270-334d-4992-aa21-f86069766f41-dark .rough-node .label,#g5327d270-334d-4992-aa21-f86069766f41-dark .node .label,#g5327d270-334d-4992-aa21-f86069766f41-dark .image-shape .label,#g5327d270-334d-4992-aa21-f86069766f41-dark .icon-shape .label{text-align:center;}#g5327d270-334d-4992-aa21-f86069766f41-dark .node.clickable{cursor:pointer;}#g5327d270-334d-4992-aa21-f86069766f41-dark .root .anchor path{fill:#cccccc!important;stroke-width:0;stroke:#cccccc;}#g5327d270-334d-4992-aa21-f86069766f41-dark .arrowheadPath{fill:#cccccc;}#g5327d270-334d-4992-aa21-f86069766f41-dark .edgePath .path{stroke:#cccccc;stroke-width:1px;}#g5327d270-334d-4992-aa21-f86069766f41-dark .flowchart-link{stroke:#cccccc;fill:none;}#g5327d270-334d-4992-aa21-f86069766f41-dark .edgeLabel{background-color:#1e1e1e;text-align:center;}#g5327d270-334d-4992-aa21-f86069766f41-dark .edgeLabel p{background-color:#1e1e1e;}#g5327d270-334d-4992-aa21-f86069766f41-dark .edgeLabel rect{opacity:0.5;background-color:#1e1e1e;fill:#1e1e1e;}#g5327d270-334d-4992-aa21-f86069766f41-dark .labelBkg{background-color:rgba(30, 30, 30, 0.5);}#g5327d270-334d-4992-aa21-f86069766f41-dark .cluster rect{fill:#1e1e1e;stroke:#555555;stroke-width:1px;}#g5327d270-334d-4992-aa21-f86069766f41-dark .cluster text{fill:#e5e5e5;}#g5327d270-334d-4992-aa21-f86069766f41-dark .cluster span{color:#e5e5e5;}#g5327d270-334d-4992-aa21-f86069766f41-dark div.mermaidTooltip{position:absolute;text-align:center;max-width:200px;padding:2px;font-family:"trebuchet ms",verdana,arial,sans-serif;font-size:12px;background:#252525;border:1px solid #555555;border-radius:2px;pointer-events:none;z-index:100;}#g5327d270-334d-4992-aa21-f86069766f41-dark .flowchartTitleText{text-anchor:middle;font-size:18px;fill:#e5e5e5;}#g5327d270-334d-4992-aa21-f86069766f41-dark rect.text{fill:none;stroke-width:0;}#g5327d270-334d-4992-aa21-f86069766f41-dark .icon-shape,#g5327d270-334d-4992-aa21-f86069766f41-dark .image-shape{background-color:#1e1e1e;text-align:center;}#g5327d270-334d-4992-aa21-f86069766f41-dark .icon-shape p,#g5327d270-334d-4992-aa21-f86069766f41-dark .image-shape p{background-color:#1e1e1e;padding:2px;}#g5327d270-334d-4992-aa21-f86069766f41-dark .icon-shape .label rect,#g5327d270-334d-4992-aa21-f86069766f41-dark .image-shape .label rect{opacity:0.5;background-color:#1e1e1e;fill:#1e1e1e;}#g5327d270-334d-4992-aa21-f86069766f41-dark .label-icon{display:inline-block;height:1em;overflow:visible;vertical-align:-0.125em;}#g5327d270-334d-4992-aa21-f86069766f41-dark .node .label-icon path{fill:currentColor;stroke:revert;stroke-width:revert;}#g5327d270-334d-4992-aa21-f86069766f41-dark .node .neo-node{stroke:#555555;}#g5327d270-334d-4992-aa21-f86069766f41-dark [data-look="neo"].node rect,#g5327d270-334d-4992-aa21-f86069766f41-dark [data-look="neo"].cluster rect,#g5327d270-334d-4992-aa21-f86069766f41-dark [data-look="neo"].node polygon{stroke:url(#g5327d270-334d-4992-aa21-f86069766f41-dark-gradient);filter:drop-shadow( 1px 2px 2px rgba(185,185,185,1));}#g5327d270-334d-4992-aa21-f86069766f41-dark [data-look="neo"].node path{stroke:url(#g5327d270-334d-4992-aa21-f86069766f41-dark-gradient);stroke-width:1px;}#g5327d270-334d-4992-aa21-f86069766f41-dark [data-look="neo"].node .outer-path{filter:drop-shadow( 1px 2px 2px rgba(185,185,185,1));}#g5327d270-334d-4992-aa21-f86069766f41-dark [data-look="neo"].node .neo-line path{stroke:#555555;filter:none;}#g5327d270-334d-4992-aa21-f86069766f41-dark [data-look="neo"].node circle{stroke:url(#g5327d270-334d-4992-aa21-f86069766f41-dark-gradient);filter:drop-shadow( 1px 2px 2px rgba(185,185,185,1));}#g5327d270-334d-4992-aa21-f86069766f41-dark [data-look="neo"].node circle .state-start{fill:#000000;}#g5327d270-334d-4992-aa21-f86069766f41-dark [data-look="neo"].icon-shape .icon{fill:url(#g5327d270-334d-4992-aa21-f86069766f41-dark-gradient);filter:drop-shadow( 1px 2px 2px rgba(185,185,185,1));}#g5327d270-334d-4992-aa21-f86069766f41-dark [data-look="neo"].icon-shape .icon-neo path{stroke:url(#g5327d270-334d-4992-aa21-f86069766f41-dark-gradient);filter:drop-shadow( 1px 2px 2px rgba(185,185,185,1));}#g5327d270-334d-4992-aa21-f86069766f41-dark :root{--mermaid-font-family:"trebuchet ms",verdana,arial,sans-serif;}#g5327d270-334d-4992-aa21-f86069766f41-dark .good rect{fill:#1f6f3a!important;stroke:#0b3d20!important;color:#ffffff!important;}#g5327d270-334d-4992-aa21-f86069766f41-dark .good polygon{fill:#1f6f3a!important;stroke:#0b3d20!important;color:#ffffff!important;}#g5327d270-334d-4992-aa21-f86069766f41-dark .good ellipse{fill:#1f6f3a!important;stroke:#0b3d20!important;color:#ffffff!important;}#g5327d270-334d-4992-aa21-f86069766f41-dark .good circle{fill:#1f6f3a!important;stroke:#0b3d20!important;color:#ffffff!important;}#g5327d270-334d-4992-aa21-f86069766f41-dark .good path{fill:#1f6f3a!important;stroke:#0b3d20!important;color:#ffffff!important;}#g5327d270-334d-4992-aa21-f86069766f41-dark .good tspan{fill:#ffffff!important;}#g5327d270-334d-4992-aa21-f86069766f41-dark .bad rect{fill:#8a1c1c!important;stroke:#3d0b0b!important;color:#ffffff!important;}#g5327d270-334d-4992-aa21-f86069766f41-dark .bad polygon{fill:#8a1c1c!important;stroke:#3d0b0b!important;color:#ffffff!important;}#g5327d270-334d-4992-aa21-f86069766f41-dark .bad ellipse{fill:#8a1c1c!important;stroke:#3d0b0b!important;color:#ffffff!important;}#g5327d270-334d-4992-aa21-f86069766f41-dark .bad circle{fill:#8a1c1c!important;stroke:#3d0b0b!important;color:#ffffff!important;}#g5327d270-334d-4992-aa21-f86069766f41-dark .bad path{fill:#8a1c1c!important;stroke:#3d0b0b!important;color:#ffffff!important;}#g5327d270-334d-4992-aa21-f86069766f41-dark .bad tspan{fill:#ffffff!important;}</style><g><marker id="g5327d270-334d-4992-aa21-f86069766f41-dark_flowchart-v2-pointEnd" class="marker flowchart-v2" viewBox="0 0 10 10" refX="5" refY="5" markerUnits="userSpaceOnUse" markerWidth="8" markerHeight="8" orient="auto"><path d="M 0 0 L 10 5 L 0 10 z" class="arrowMarkerPath" style="stroke-width: 1; stroke-dasharray: 1, 0;"></path></marker><marker id="g5327d270-334d-4992-aa21-f86069766f41-dark_flowchart-v2-pointStart" class="marker flowchart-v2" viewBox="0 0 10 10" refX="4.5" refY="5" markerUnits="userSpaceOnUse" markerWidth="8" markerHeight="8" orient="auto"><path d="M 0 5 L 10 10 L 10 0 z" class="arrowMarkerPath" style="stroke-width: 1; stroke-dasharray: 1, 0;"></path></marker><marker id="g5327d270-334d-4992-aa21-f86069766f41-dark_flowchart-v2-pointEnd-margin" class="marker flowchart-v2" viewBox="0 0 11.5 14" refX="11.5" refY="7" markerUnits="userSpaceOnUse" markerWidth="10.5" markerHeight="14" orient="auto"><path d="M 0 0 L 11.5 7 L 0 14 z" class="arrowMarkerPath" style="stroke-width: 0; stroke-dasharray: 1, 0;"></path></marker><marker id="g5327d270-334d-4992-aa21-f86069766f41-dark_flowchart-v2-pointStart-margin" class="marker flowchart-v2" viewBox="0 0 11.5 14" refX="1" refY="7" markerUnits="userSpaceOnUse" markerWidth="11.5" markerHeight="14" orient="auto"><polygon points="0,7 11.5,14 11.5,0" class="arrowMarkerPath" style="stroke-width: 0; stroke-dasharray: 1, 0;"></polygon></marker><marker id="g5327d270-334d-4992-aa21-f86069766f41-dark_flowchart-v2-circleEnd" class="marker flowchart-v2" viewBox="0 0 10 10" refX="11" refY="5" markerUnits="userSpaceOnUse" markerWidth="11" markerHeight="11" orient="auto"><circle cx="5" cy="5" r="5" class="arrowMarkerPath" style="stroke-width: 1; stroke-dasharray: 1, 0;"></circle></marker><marker id="g5327d270-334d-4992-aa21-f86069766f41-dark_flowchart-v2-circleStart" class="marker flowchart-v2" viewBox="0 0 10 10" refX="-1" refY="5" markerUnits="userSpaceOnUse" markerWidth="11" markerHeight="11" orient="auto"><circle cx="5" cy="5" r="5" class="arrowMarkerPath" style="stroke-width: 1; stroke-dasharray: 1, 0;"></circle></marker><marker id="g5327d270-334d-4992-aa21-f86069766f41-dark_flowchart-v2-circleEnd-margin" class="marker flowchart-v2" viewBox="0 0 10 10" refY="5" refX="12.25" markerUnits="userSpaceOnUse" markerWidth="14" markerHeight="14" orient="auto"><circle cx="5" cy="5" r="5" class="arrowMarkerPath" style="stroke-width: 0; stroke-dasharray: 1, 0;"></circle></marker><marker id="g5327d270-334d-4992-aa21-f86069766f41-dark_flowchart-v2-circleStart-margin" class="marker flowchart-v2" viewBox="0 0 10 10" refX="-2" refY="5" markerUnits="userSpaceOnUse" markerWidth="14" markerHeight="14" orient="auto"><circle cx="5" cy="5" r="5" class="arrowMarkerPath" style="stroke-width: 0; stroke-dasharray: 1, 0;"></circle></marker><marker id="g5327d270-334d-4992-aa21-f86069766f41-dark_flowchart-v2-crossEnd" class="marker cross flowchart-v2" viewBox="0 0 11 11" refX="12" refY="5.2" markerUnits="userSpaceOnUse" markerWidth="11" markerHeight="11" orient="auto"><path d="M 1,1 l 9,9 M 10,1 l -9,9" class="arrowMarkerPath" style="stroke-width: 2; stroke-dasharray: 1, 0;"></path></marker><marker id="g5327d270-334d-4992-aa21-f86069766f41-dark_flowchart-v2-crossStart" class="marker cross flowchart-v2" viewBox="0 0 11 11" refX="-1" refY="5.2" markerUnits="userSpaceOnUse" markerWidth="11" markerHeight="11" orient="auto"><path d="M 1,1 l 9,9 M 10,1 l -9,9" class="arrowMarkerPath" style="stroke-width: 2; stroke-dasharray: 1, 0;"></path></marker><marker id="g5327d270-334d-4992-aa21-f86069766f41-dark_flowchart-v2-crossEnd-margin" class="marker cross flowchart-v2" viewBox="0 0 15 15" refX="17.7" refY="7.5" markerUnits="userSpaceOnUse" markerWidth="12" markerHeight="12" orient="auto"><path d="M 1,1 L 14,14 M 1,14 L 14,1" class="arrowMarkerPath" style="stroke-width: 2.5;"></path></marker><marker id="g5327d270-334d-4992-aa21-f86069766f41-dark_flowchart-v2-crossStart-margin" class="marker cross flowchart-v2" viewBox="0 0 15 15" refX="-3.5" refY="7.5" markerUnits="userSpaceOnUse" markerWidth="12" markerHeight="12" orient="auto"><path d="M 1,1 L 14,14 M 1,14 L 14,1" class="arrowMarkerPath" style="stroke-width: 2.5; stroke-dasharray: 1, 0;"></path></marker><g class="root"><g class="clusters"></g><g class="edgePaths"><path d="M450.191,42.5L450.107,46.583C450.024,50.667,449.857,58.833,449.774,66.417C449.691,74,449.691,81,449.691,84.5L449.691,88" id="g5327d270-334d-4992-aa21-f86069766f41-dark-L_Start_Q1_0" class="edge-thickness-normal edge-pattern-solid edge-thickness-normal edge-pattern-solid flowchart-link" style=";" data-edge="true" data-et="edge" data-id="L_Start_Q1_0" data-points="W3sieCI6NDUwLjE5MDYyODA1MTc1NzgsInkiOjQyLjV9LHsieCI6NDQ5LjY5MDYyODA1MTc1NzgsInkiOjY3fSx7IngiOjQ0OS42OTA2MjgwNTE3NTc4LCJ5Ijo5MS45OTk5OTk5OTk5OTk5OX1d" data-look="classic" marker-end="url(#g5327d270-334d-4992-aa21-f86069766f41-dark_flowchart-v2-pointEnd)"></path><path d="M390.446,223.855L364.406,239.813C338.366,255.77,286.287,287.685,260.247,310.959C234.207,334.233,234.207,348.866,234.207,356.182L234.207,363.498" id="g5327d270-334d-4992-aa21-f86069766f41-dark-L_Q1_Q2_0" class="edge-thickness-normal edge-pattern-solid edge-thickness-normal edge-pattern-solid flowchart-link" style=";" data-edge="true" data-et="edge" data-id="L_Q1_Q2_0" data-points="W3sieCI6MzkwLjQ0NjExNjYxMjYwNDU2LCJ5IjoyMjMuODU1NDk0NjY0MzYyNH0seyJ4IjoyMzQuMjA3MDMxMjUsInkiOjMxOS42MDAwMDYxMDM1MTU2fSx7IngiOjIzNC4yMDcwMzEyNDk5OTk5NywieSI6MzY3LjQ5ODQ0MzYwMzUxNTZ9XQ==" data-look="classic" marker-end="url(#g5327d270-334d-4992-aa21-f86069766f41-dark_flowchart-v2-pointEnd)"></path><path d="M194.42,486.874L179.808,501.488C165.197,516.102,135.973,545.331,121.362,581.262C106.75,617.193,106.75,659.827,106.75,681.144L106.75,702.461" id="g5327d270-334d-4992-aa21-f86069766f41-dark-L_Q2_ModAsync_0" class="edge-thickness-normal edge-pattern-solid edge-thickness-normal edge-pattern-solid flowchart-link" style=";" data-edge="true" data-et="edge" data-id="L_Q2_ModAsync_0" data-points="W3sieCI6MTk0LjQxOTk0MTM5NzA5MzE0LCJ5Ijo0ODYuODczODU5ODU0MTI0NX0seyJ4IjoxMDYuNzUsInkiOjU3NC41NTkzODcyMDcwMzEyfSx7IngiOjEwNi43NSwieSI6NzA2LjQ2MDk1Mjc1ODc4OTF9XQ==" data-look="classic" marker-end="url(#g5327d270-334d-4992-aa21-f86069766f41-dark_flowchart-v2-pointEnd)"></path><path d="M273.994,486.874L288.606,501.488C303.217,516.102,332.441,545.331,347.052,579.795C361.664,614.26,361.664,653.96,361.664,673.811L361.664,693.661" id="g5327d270-334d-4992-aa21-f86069766f41-dark-L_Q2_Module_0" class="edge-thickness-normal edge-pattern-solid edge-thickness-normal edge-pattern-solid flowchart-link" style=";" data-edge="true" data-et="edge" data-id="L_Q2_Module_0" data-points="W3sieCI6MjczLjk5NDEyMTEwMjkwNjgzLCJ5Ijo0ODYuODczODU5ODU0MTI0NX0seyJ4IjozNjEuNjY0MDYyNSwieSI6NTc0LjU1OTM4NzIwNzAzMTJ9LHsieCI6MzYxLjY2NDA2MjUsInkiOjY5Ny42NjA5NTM1MjE3Mjg1fV0=" data-look="classic" marker-end="url(#g5327d270-334d-4992-aa21-f86069766f41-dark_flowchart-v2-pointEnd)"></path><path d="M513.502,219.289L547.115,236.007C580.728,252.726,647.954,286.163,681.567,308.298C715.18,330.433,715.18,341.267,715.18,346.683L715.18,352.1" id="g5327d270-334d-4992-aa21-f86069766f41-dark-L_Q1_Q3_0" class="edge-thickness-normal edge-pattern-solid edge-thickness-normal edge-pattern-solid flowchart-link" style=";" data-edge="true" data-et="edge" data-id="L_Q1_Q3_0" data-points="W3sieCI6NTEzLjUwMTk4MDg4MzUyMjIsInkiOjIxOS4yODg2NTMyNzE3NTEyfSx7IngiOjcxNS4xODA0NzMzMjc2MzY3LCJ5IjozMTkuNjAwMDA2MTAzNTE1Nn0seyJ4Ijo3MTUuMTgwNDczMzI3NjM2NywieSI6MzU2LjEwMDAwNjEwMzUxNTZ9XQ==" data-look="classic" marker-end="url(#g5327d270-334d-4992-aa21-f86069766f41-dark_flowchart-v2-pointEnd)"></path><path d="M749.565,503.675L756.743,515.489C763.92,527.303,778.276,550.931,785.454,588.812C792.631,626.693,792.631,678.827,792.631,730.961C792.631,783.095,792.631,835.229,792.631,886.861C792.631,938.494,792.631,989.625,792.631,1040.756C792.631,1091.888,792.631,1143.019,794.183,1175.484C795.735,1207.949,798.839,1221.748,800.39,1228.648L801.942,1235.548" id="g5327d270-334d-4992-aa21-f86069766f41-dark-L_Q3_Defer_0" class="edge-thickness-normal edge-pattern-solid edge-thickness-normal edge-pattern-solid flowchart-link" style=";" data-edge="true" data-et="edge" data-id="L_Q3_Defer_0" data-points="W3sieCI6NzQ5LjU2NTA1MzMwNTAzODMsInkiOjUwMy42NzQ4MDcyMjk2Mjk4fSx7IngiOjc5Mi42MzEyNTYxMDM1MTU2LCJ5Ijo1NzQuNTU5Mzg3MjA3MDMxMn0seyJ4Ijo3OTIuNjMxMjU2MTAzNTE1NiwieSI6NzMwLjk2MDk1Mjc1ODc4OTF9LHsieCI6NzkyLjYzMTI1NjEwMzUxNTYsInkiOjg4Ny4zNjI1MTgzMTA1NDY5fSx7IngiOjc5Mi42MzEyNTYxMDM1MTU2LCJ5IjoxMDQwLjc1NjI3MTM2MjMwNDd9LHsieCI6NzkyLjYzMTI1NjEwMzUxNTYsInkiOjExOTQuMTUwMDI0NDE0MDYyNX0seyJ4Ijo4MDIuODIwMDA0MDI4NTk5MywieSI6MTIzOS40NTAwMjM2NTExMjN9XQ==" data-look="classic" marker-end="url(#g5327d270-334d-4992-aa21-f86069766f41-dark_flowchart-v2-pointEnd)"></path><path d="M680.796,503.675L673.618,515.489C666.44,527.303,652.085,550.931,644.907,568.162C637.73,585.393,637.73,596.226,637.73,601.643L637.73,607.059" id="g5327d270-334d-4992-aa21-f86069766f41-dark-L_Q3_Q4_0" class="edge-thickness-normal edge-pattern-solid edge-thickness-normal edge-pattern-solid flowchart-link" style=";" data-edge="true" data-et="edge" data-id="L_Q3_Q4_0" data-points="W3sieCI6NjgwLjc5NTg5MzM1MDIzNTIsInkiOjUwMy42NzQ4MDcyMjk2Mjk2Nn0seyJ4Ijo2MzcuNzI5NjkwNTUxNzU3OCwieSI6NTc0LjU1OTM4NzIwNzAzMTJ9LHsieCI6NjM3LjcyOTY5MDU1MTc1NzgsInkiOjYxMS4wNTkzODcyMDcwMzEyfV0=" data-look="classic" marker-end="url(#g5327d270-334d-4992-aa21-f86069766f41-dark_flowchart-v2-pointEnd)"></path><path d="M637.73,850.863L637.73,856.946C637.73,863.029,637.73,875.196,637.73,902.095C637.73,928.994,637.73,970.625,637.73,991.441L637.73,1012.256" id="g5327d270-334d-4992-aa21-f86069766f41-dark-L_Q4_Async_0" class="edge-thickness-normal edge-pattern-solid edge-thickness-normal edge-pattern-solid flowchart-link" style=";" data-edge="true" data-et="edge" data-id="L_Q4_Async_0" data-points="W3sieCI6NjM3LjcyOTY5MDU1MTc1NzgsInkiOjg1MC44NjI1MTgzMTA1NDd9LHsieCI6NjM3LjcyOTY5MDU1MTc1NzgsInkiOjg4Ny4zNjI1MTgzMTA1NDY5fSx7IngiOjYzNy43Mjk2OTA1NTE3NTc4LCJ5IjoxMDE2LjI1NjI3MTM2MjMwNDd9XQ==" data-look="classic" marker-end="url(#g5327d270-334d-4992-aa21-f86069766f41-dark_flowchart-v2-pointEnd)"></path><path d="M719.76,768.832L762.55,788.587C805.34,808.342,890.92,847.852,933.71,873.024C976.5,898.196,976.5,909.029,976.5,914.446L976.5,919.863" id="g5327d270-334d-4992-aa21-f86069766f41-dark-L_Q4_Q5_0" class="edge-thickness-normal edge-pattern-solid edge-thickness-normal edge-pattern-solid flowchart-link" style=";" data-edge="true" data-et="edge" data-id="L_Q4_Q5_0" data-points="W3sieCI6NzE5Ljc1OTk3NzAxMzg3MjgsInkiOjc2OC44MzIyMzE4NDg0MzE5fSx7IngiOjk3Ni41MDAwMDc2MjkzOTQ1LCJ5Ijo4ODcuMzYyNTE4MzEwNTQ2OX0seyJ4Ijo5NzYuNTAwMDA3NjI5Mzk0NCwieSI6OTIzLjg2MjUxODMxMDU0Njl9XQ==" data-look="classic" marker-end="url(#g5327d270-334d-4992-aa21-f86069766f41-dark_flowchart-v2-pointEnd)"></path><path d="M991.374,1142.776L992.622,1151.339C993.87,1159.901,996.367,1177.026,997.615,1191.004C998.863,1204.983,998.863,1215.817,998.863,1221.233L998.863,1226.65" id="g5327d270-334d-4992-aa21-f86069766f41-dark-L_Q5_Sync_0" class="edge-thickness-normal edge-pattern-solid edge-thickness-normal edge-pattern-solid flowchart-link" style=";" data-edge="true" data-et="edge" data-id="L_Q5_Sync_0" data-points="W3sieCI6OTkxLjM3MzUzOTY0MDUwMTksInkiOjExNDIuNzc2NDkyNDAyOTU1Mn0seyJ4Ijo5OTguODYzMjg4ODc5Mzk0NSwieSI6MTE5NC4xNTAwMjQ0MTQwNjI1fSx7IngiOjk5OC44NjMyODg4NzkzOTQ1LCJ5IjoxMjMwLjY1MDAyNDQxNDA2MjV9XQ==" data-look="classic" marker-end="url(#g5327d270-334d-4992-aa21-f86069766f41-dark_flowchart-v2-pointEnd)"></path><path d="M932.609,1113.759L924.554,1127.158C916.499,1140.556,900.388,1167.353,884.609,1187.85C868.829,1208.348,853.381,1222.546,845.657,1229.644L837.933,1236.743" id="g5327d270-334d-4992-aa21-f86069766f41-dark-L_Q5_Defer_0" class="edge-thickness-normal edge-pattern-solid edge-thickness-normal edge-pattern-solid flowchart-link" style=";" data-edge="true" data-et="edge" data-id="L_Q5_Defer_0" data-points="W3sieCI6OTMyLjYwOTQwNDI0NDU4NDMsInkiOjExMTMuNzU5NDIxMDI5MjUyM30seyJ4Ijo4ODQuMjc3MzUxMzc5Mzk0NSwieSI6MTE5NC4xNTAwMjQ0MTQwNjI1fSx7IngiOjgzNC45ODgwNDY0MTgzMDI4LCJ5IjoxMjM5LjQ1MDAyMzY1MTEyM31d" data-look="classic" marker-end="url(#g5327d270-334d-4992-aa21-f86069766f41-dark_flowchart-v2-pointEnd)"></path></g><g class="edgeLabels"><g class="edgeLabel"><g class="label" data-id="L_Start_Q1_0" transform="translate(0, 0)"><text y="-10.1" text-anchor="middle"><tspan class="text-outer-tspan row" x="0" y="-0.1em" dy="1.1em" text-anchor="middle"></tspan></text></g></g><g><rect class="background" style="stroke: none"></rect></g><g class="edgeLabel" transform="translate(234.20703125, 319.6000061035156)"><g class="label" data-id="L_Q1_Q2_0" transform="translate(0, -10.5)"><g><rect class="background" style="" x="-13.328125" y="-1" width="26.65625" height="23"></rect><text y="-10.1" text-anchor="middle" style=""><tspan class="text-outer-tspan row" x="0" y="-0.1em" dy="1.1em" text-anchor="middle"><tspan font-style="normal" class="text-inner-tspan" font-weight="normal">Yes</tspan></tspan></text></g></g></g><g class="edgeLabel" transform="translate(106.75, 574.5593872070312)"><g class="label" data-id="L_Q2_ModAsync_0" transform="translate(0, -10.5)"><g><rect class="background" style="" x="-13.328125" y="-1" width="26.65625" height="23"></rect><text y="-10.1" text-anchor="middle" style=""><tspan class="text-outer-tspan row" x="0" y="-0.1em" dy="1.1em" text-anchor="middle"><tspan font-style="normal" class="text-inner-tspan" font-weight="normal">Yes</tspan></tspan></text></g></g></g><g class="edgeLabel" transform="translate(361.6640625, 574.5593872070312)"><g class="label" data-id="L_Q2_Module_0" transform="translate(0, -10.5)"><g><rect class="background" style="" x="-11.3984375" y="-1" width="22.796875" height="23"></rect><text y="-10.1" text-anchor="middle" style=""><tspan class="text-outer-tspan row" x="0" y="-0.1em" dy="1.1em" text-anchor="middle"><tspan font-style="normal" class="text-inner-tspan" font-weight="normal">No</tspan></tspan></text></g></g></g><g class="edgeLabel" transform="translate(715.1804733276367, 319.6000061035156)"><g class="label" data-id="L_Q1_Q3_0" transform="translate(0, -10.5)"><g><rect class="background" style="" x="-11.3984375" y="-1" width="22.796875" height="23"></rect><text y="-10.1" text-anchor="middle" style=""><tspan class="text-outer-tspan row" x="0" y="-0.1em" dy="1.1em" text-anchor="middle"><tspan font-style="normal" class="text-inner-tspan" font-weight="normal">No</tspan></tspan></text></g></g></g><g class="edgeLabel" transform="translate(792.6312561035156, 887.3625183105469)"><g class="label" data-id="L_Q3_Defer_0" transform="translate(0, -10.5)"><g><rect class="background" style="" x="-13.328125" y="-1" width="26.65625" height="23"></rect><text y="-10.1" text-anchor="middle" style=""><tspan class="text-outer-tspan row" x="0" y="-0.1em" dy="1.1em" text-anchor="middle"><tspan font-style="normal" class="text-inner-tspan" font-weight="normal">Yes</tspan></tspan></text></g></g></g><g class="edgeLabel" transform="translate(637.7296905517578, 574.5593872070312)"><g class="label" data-id="L_Q3_Q4_0" transform="translate(0, -10.5)"><g><rect class="background" style="" x="-11.3984375" y="-1" width="22.796875" height="23"></rect><text y="-10.1" text-anchor="middle" style=""><tspan class="text-outer-tspan row" x="0" y="-0.1em" dy="1.1em" text-anchor="middle"><tspan font-style="normal" class="text-inner-tspan" font-weight="normal">No</tspan></tspan></text></g></g></g><g class="edgeLabel" transform="translate(637.7296905517578, 887.3625183105469)"><g class="label" data-id="L_Q4_Async_0" transform="translate(0, -10.5)"><g><rect class="background" style="" x="-13.328125" y="-1" width="26.65625" height="23"></rect><text y="-10.1" text-anchor="middle" style=""><tspan class="text-outer-tspan row" x="0" y="-0.1em" dy="1.1em" text-anchor="middle"><tspan font-style="normal" class="text-inner-tspan" font-weight="normal">Yes</tspan></tspan></text></g></g></g><g class="edgeLabel" transform="translate(976.5000076293945, 887.3625183105469)"><g class="label" data-id="L_Q4_Q5_0" transform="translate(0, -10.5)"><g><rect class="background" style="" x="-11.3984375" y="-1" width="22.796875" height="23"></rect><text y="-10.1" text-anchor="middle" style=""><tspan class="text-outer-tspan row" x="0" y="-0.1em" dy="1.1em" text-anchor="middle"><tspan font-style="normal" class="text-inner-tspan" font-weight="normal">No</tspan></tspan></text></g></g></g><g class="edgeLabel" transform="translate(998.8632888793945, 1194.1500244140625)"><g class="label" data-id="L_Q5_Sync_0" transform="translate(0, -10.5)"><g><rect class="background" style="" x="-13.328125" y="-1" width="26.65625" height="23"></rect><text y="-10.1" text-anchor="middle" style=""><tspan class="text-outer-tspan row" x="0" y="-0.1em" dy="1.1em" text-anchor="middle"><tspan font-style="normal" class="text-inner-tspan" font-weight="normal">Yes</tspan></tspan></text></g></g></g><g class="edgeLabel" transform="translate(891.1965, 1182.64142)"><g class="label" data-id="L_Q5_Defer_0" transform="translate(0, -10.5)"><g><rect class="background" style="" x="-11.3984375" y="-1" width="22.796875" height="23"></rect><text y="-10.1" text-anchor="middle" style=""><tspan class="text-outer-tspan row" x="0" y="-0.1em" dy="1.1em" text-anchor="middle"><tspan font-style="normal" class="text-inner-tspan" font-weight="normal">No</tspan></tspan></text></g></g></g></g><g class="nodes"><g class="node default" id="g5327d270-334d-4992-aa21-f86069766f41-dark-flowchart-Start-0" data-look="classic" transform="translate(449.6906280517578, 25)"><g class="basic label-container outer-path"><path d="M-72.828125 -17 C-35.06617702659412 -17, 2.6957709468117628 -17, 72.828125 -17 C72.828125 -17, 72.828125 -17, 72.828125 -17 C73.20395871351091 -16.987947744323648, 73.57979242702184 -16.9758954886473, 73.91731873967211 -16.965071676755716 C74.25628659491504 -16.932371855428922, 74.59525445015798 -16.899672034102128, 75.0020367486366 -16.860430234995185 C75.39438982396673 -16.796997632519354, 75.78674289929687 -16.73356503004352, 76.07782168792333 -16.686505668848113 C76.43555928174838 -16.60485439751351, 76.79329687557343 -16.52320312617891, 77.14025292646163 -16.4440126716635 C77.42741894977527 -16.358783303309227, 77.71458497308892 -16.273553934954954, 78.18496470640156 -16.133947699181366 C78.58887843447408 -15.985303713513103, 78.9927921625466 -15.83665972784484, 79.20766408294936 -15.757584874882369 C79.46816418799904 -15.642269205837936, 79.72866429304872 -15.526953536793503, 80.20414856499849 -15.316470754341125 C80.43080491569857 -15.19822428136121, 80.65746126639867 -15.079977808381296, 81.17032338406693 -14.812417970097622 C81.45779767074052 -14.638149368129666, 81.7452719574141 -14.463880766161711, 82.10221832057933 -14.247497783161291 C82.33840272939852 -14.082745763827292, 82.57458713821772 -13.917993744493295, 82.99600401835067 -13.624031571755262 C83.31154483700286 -13.372396165773983, 83.62708565565502 -13.120760759792706, 83.8480077202324 -12.944581292275288 C84.14092441204913 -12.678562102918308, 84.43384110386584 -12.41254291356133, 84.65472836025927 -12.21193895166137 C84.93747812886164 -11.919976601391697, 85.220227897464 -11.628014251122025, 85.41285095028036 -11.42911513444239 C85.58944690088732 -11.221675482265198, 85.76604285149429 -11.014235830088005, 86.11926020195651 -10.59932663159847 C86.26515764671366 -10.403837347154528, 86.41105509147083 -10.208348062710584, 86.77105332814824 -9.725983222076888 C86.91397885363737 -9.506411234048155, 87.05690437912651 -9.286839246019422, 87.36555197109088 -8.812673661278927 C87.56286878041422 -8.46231768583178, 87.76018558973757 -8.111961710384634, 87.900313208341 -7.863150934094199 C88.04981564459571 -7.552705926371607, 88.19931808085042 -7.242260918649015, 88.37313959126881 -6.881316833080699 C88.4994614160462 -6.569299483614205, 88.6257832408236 -6.257282134147711, 88.78208817484592 -5.871205925162238 C88.85181693553496 -5.6611940077361655, 88.92154569622399 -5.451182090310094, 89.12547850162323 -4.836968972727556 C89.1923286534187 -4.582040370892366, 89.25917880521418 -4.327111769057176, 89.401899507091 -3.7828558772573464 C89.45974191233893 -3.4858473513059383, 89.51758431758685 -3.18883882535453, 89.61021531804565 -2.713198215567453 C89.64712888476193 -2.4269038815242716, 89.68404245147819 -2.1406095474810902, 89.74956992013637 -1.632391440430593 C89.76640249753419 -1.3702104604475474, 89.78323507493202 -1.1080294804645017, 89.8193906754117 -0.5448768187181379 C89.8193906754117 -0.19428154788909674, 89.8193906754117 0.1563137229399444, 89.8193906754117 0.5448768187181336 C89.80151300604658 0.8233359496748479, 89.78363533668146 1.1017950806315622, 89.74956992013637 1.6323914404305815 C89.69890747496203 2.0253193607713578, 89.64824502978769 2.418247281112134, 89.61021531804565 2.7131982155674415 C89.56763938267031 2.93181664529268, 89.52506344729497 3.1504350750179184, 89.401899507091 3.782855877257343 C89.3396277364274 4.020325127553772, 89.2773559657638 4.2577943778502, 89.12547850162323 4.836968972727545 C88.9932198230666 5.235311039981408, 88.86096114450996 5.633653107235271, 88.78208817484592 5.871205925162227 C88.66350773179241 6.164101912101313, 88.54492728873889 6.4569978990404, 88.37313959126881 6.881316833080694 C88.19348366523683 7.254376207507119, 88.01382773920486 7.627435581933543, 87.900313208341 7.863150934094196 C87.71215740559246 8.19724061471526, 87.52400160284394 8.531330295336327, 87.36555197109088 8.812673661278923 C87.20862522046748 9.053755290969278, 87.05169846984407 9.294836920659632, 86.77105332814826 9.725983222076879 C86.54557262328396 10.028106824880235, 86.32009191841966 10.33023042768359, 86.11926020195651 10.599326631598467 C85.86857062772768 10.893800870128528, 85.61788105349885 11.18827510865859, 85.41285095028037 11.42911513444238 C85.21125830129976 11.637276095579143, 85.00966565231916 11.845437056715904, 84.65472836025927 12.211938951661365 C84.48076112974934 12.369931387489798, 84.30679389923941 12.52792382331823, 83.84800772023242 12.944581292275275 C83.57189112573636 13.16477692861472, 83.2957745312403 13.384972564954161, 82.99600401835067 13.62403157175526 C82.74536921761968 13.798863558939546, 82.49473441688869 13.973695546123832, 82.10221832057934 14.247497783161286 C81.91522582957455 14.360853730098238, 81.72823333856977 14.47420967703519, 81.17032338406695 14.81241797009762 C80.88401448686598 14.96178513837776, 80.59770558966503 15.1111523066579, 80.20414856499849 15.316470754341124 C79.86960953350383 15.46456125983603, 79.53507050200918 15.612651765330936, 79.20766408294936 15.757584874882367 C78.83419088167302 15.895026465300486, 78.46071768039668 16.032468055718606, 78.18496470640156 16.133947699181363 C77.78524203205677 16.25258329073976, 77.38551935771198 16.371218882298162, 77.14025292646164 16.444012671663497 C76.78791415597442 16.524431696801855, 76.4355753854872 16.60485072194021, 76.07782168792333 16.68650566884811 C75.84337912908892 16.72440852363126, 75.6089365702545 16.76231137841441, 75.00203674863661 16.86043023499518 C74.67218604489999 16.892250535681143, 74.34233534116336 16.924070836367104, 73.91731873967211 16.965071676755716 C73.62511426304953 16.97444210557949, 73.33290978642694 16.98381253440327, 72.828125 17 C72.828125 17, 72.828125 17, 72.828125 17 C23.536285828242335 17, -25.75555334351533 17, -72.828125 17 C-73.09896941620039 16.99131454673913, -73.36981383240077 16.982629093478256, -73.91731873967211 16.965071676755716 C-74.34512896184408 16.923801339139853, -74.77293918401605 16.882531001523994, -75.0020367486366 16.86043023499518 C-75.31764115074714 16.80940576281064, -75.63324555285767 16.758381290626104, -76.07782168792333 16.68650566884811 C-76.4892783321676 16.592593374804885, -76.90073497641188 16.498681080761656, -77.14025292646161 16.4440126716635 C-77.46001886329272 16.349107820097682, -77.77978480012383 16.254202968531864, -78.18496470640154 16.13394769918137 C-78.41351631187207 16.049838595660336, -78.64206791734259 15.965729492139303, -79.20766408294936 15.757584874882369 C-79.56443828536304 15.599651518804524, -79.92121248777671 15.44171816272668, -80.20414856499849 15.316470754341127 C-80.52352405705967 15.149852764702572, -80.84289954912086 14.98323477506402, -81.17032338406693 14.812417970097624 C-81.40277100151926 14.671506858384204, -81.63521861897156 14.530595746670782, -82.10221832057931 14.247497783161299 C-82.31374027044146 14.0999492275751, -82.5252622203036 13.9524006719889, -82.99600401835067 13.624031571755264 C-83.28384314203629 13.394487530336754, -83.5716822657219 13.164943488918244, -83.8480077202324 12.94458129227529 C-84.04303889655709 12.767459138179351, -84.2380700728818 12.590336984083413, -84.65472836025926 12.211938951661377 C-84.81572048036554 12.045701369952766, -84.97671260047181 11.879463788244154, -85.41285095028036 11.429115134442386 C-85.60405551822559 11.204515369085785, -85.79526008617083 10.979915603729184, -86.11926020195651 10.599326631598473 C-86.2913243111042 10.368776400703373, -86.4633884202519 10.138226169808272, -86.77105332814824 9.72598322207689 C-86.97037068548694 9.41977823700011, -87.16968804282564 9.11357325192333, -87.36555197109088 8.812673661278936 C-87.57683654162719 8.437516511408978, -87.7881211121635 8.06235936153902, -87.900313208341 7.863150934094201 C-88.08523694136153 7.479152845743055, -88.27016067438204 7.09515475739191, -88.37313959126881 6.881316833080701 C-88.4808585361365 6.615248956653415, -88.58857748100417 6.34918108022613, -88.78208817484592 5.87120592516224 C-88.90628854539175 5.497134197719945, -89.03048891593755 5.1230624702776515, -89.12547850162323 4.8369689727275516 C-89.21738871625215 4.4864754902085044, -89.30929893088106 4.1359820076894565, -89.401899507091 3.782855877257349 C-89.48371755670854 3.3627374847222167, -89.56553560632607 2.9426190921870843, -89.61021531804565 2.713198215567455 C-89.65925419019993 2.3328624069594808, -89.7082930623542 1.9525265983515063, -89.74956992013637 1.6323914404306026 C-89.77056058185859 1.305444940749769, -89.79155124358081 0.9784984410689355, -89.8193906754117 0.54487681871814 C-89.8193906754117 0.1293884686474716, -89.8193906754117 -0.28609988142319676, -89.8193906754117 -0.5448768187181317 C-89.8011489349894 -0.8290066502633249, -89.78290719456709 -1.1131364818085183, -89.74956992013637 -1.6323914404305793 C-89.69929716245399 -2.0222970215362452, -89.64902440477161 -2.412202602641911, -89.61021531804565 -2.713198215567447 C-89.5609453943986 -2.966188860292993, -89.51167547075156 -3.2191795050185394, -89.401899507091 -3.782855877257341 C-89.32934042891706 -4.0595550896379935, -89.25678135074311 -4.336254302018646, -89.12547850162323 -4.836968972727544 C-89.03377106120065 -5.113177171684043, -88.94206362077806 -5.389385370640543, -88.78208817484594 -5.871205925162218 C-88.67996096715042 -6.123462102665379, -88.5778337594549 -6.37571828016854, -88.37313959126881 -6.881316833080692 C-88.25784580008629 -7.120726857363134, -88.14255200890378 -7.360136881645575, -87.900313208341 -7.863150934094194 C-87.75712959285039 -8.117387942311064, -87.61394597735976 -8.371624950527933, -87.36555197109088 -8.812673661278929 C-87.20879885714899 -9.053488538398492, -87.0520457432071 -9.294303415518055, -86.77105332814826 -9.725983222076884 C-86.51188197539824 -10.073249223765936, -86.25271062264824 -10.420515225454988, -86.11926020195651 -10.599326631598467 C-85.91982702292934 -10.833592191753135, -85.72039384390219 -11.067857751907804, -85.41285095028037 -11.42911513444238 C-85.1354857630539 -11.71551746235909, -84.85812057582741 -12.001919790275798, -84.65472836025927 -12.21193895166136 C-84.35063493910522 -12.488108550882442, -84.04654151795118 -12.764278150103525, -83.84800772023242 -12.944581292275274 C-83.67529078648974 -13.082318450744427, -83.50257385274705 -13.220055609213581, -82.99600401835067 -13.624031571755259 C-82.64342928866485 -13.869972440470036, -82.29085455897902 -14.115913309184814, -82.10221832057934 -14.247497783161284 C-81.82739237993874 -14.414098883434106, -81.55256643929816 -14.580699983706928, -81.17032338406695 -14.812417970097618 C-80.92259514544756 -14.941657633507845, -80.67486690682817 -15.07089729691807, -80.20414856499849 -15.316470754341124 C-79.97561633150794 -15.41763519493955, -79.74708409801738 -15.518799635537977, -79.20766408294936 -15.757584874882365 C-78.8631807161175 -15.884357938245827, -78.51869734928563 -16.01113100160929, -78.18496470640156 -16.133947699181363 C-77.96007614530743 -16.200693443649953, -77.7351875842133 -16.267439188118544, -77.14025292646164 -16.444012671663494 C-76.9139502465466 -16.495664781591103, -76.68764756663158 -16.54731689151871, -76.07782168792333 -16.68650566884811 C-75.78434461975708 -16.733952765280574, -75.49086755159082 -16.781399861713037, -75.00203674863661 -16.86043023499518 C-74.73100978719886 -16.88657588000747, -74.4599828257611 -16.912721525019762, -73.91731873967213 -16.965071676755716 C-73.67840724176251 -16.972733103480657, -73.43949574385292 -16.980394530205597, -72.828125 -17 C-72.828125 -17, -72.828125 -17, -72.828125 -17" stroke="none" stroke-width="0" fill="#2d2d2d" style=""></path><path d="M-72.828125 -17 C-26.746607932367702 -17, 19.334909135264596 -17, 72.828125 -17 M-72.828125 -17 C-25.53363516648958 -17, 21.760854667020837 -17, 72.828125 -17 M72.828125 -17 C72.828125 -17, 72.828125 -17, 72.828125 -17 M72.828125 -17 C72.828125 -17, 72.828125 -17, 72.828125 -17 M72.828125 -17 C73.22561040299053 -16.987253416784494, 73.62309580598104 -16.97450683356899, 73.91731873967211 -16.965071676755716 M72.828125 -17 C73.06615048547681 -16.99236698596926, 73.30417597095362 -16.98473397193852, 73.91731873967211 -16.965071676755716 M73.91731873967211 -16.965071676755716 C74.29058203747796 -16.929063415331182, 74.66384533528381 -16.893055153906648, 75.0020367486366 -16.860430234995185 M73.91731873967211 -16.965071676755716 C74.22742334842658 -16.93515625810453, 74.53752795718104 -16.905240839453345, 75.0020367486366 -16.860430234995185 M75.0020367486366 -16.860430234995185 C75.34907642317528 -16.804323551748645, 75.69611609771394 -16.748216868502105, 76.07782168792333 -16.686505668848113 M75.0020367486366 -16.860430234995185 C75.39128719353376 -16.797499241746497, 75.78053763843093 -16.73456824849781, 76.07782168792333 -16.686505668848113 M76.07782168792333 -16.686505668848113 C76.35477074483252 -16.623293853870084, 76.63171980174172 -16.56008203889205, 77.14025292646163 -16.4440126716635 M76.07782168792333 -16.686505668848113 C76.3176157630425 -16.63177423600474, 76.55740983816166 -16.577042803161373, 77.14025292646163 -16.4440126716635 M77.14025292646163 -16.4440126716635 C77.39356737181656 -16.368830273956814, 77.64688181717149 -16.29364787625013, 78.18496470640156 -16.133947699181366 M77.14025292646163 -16.4440126716635 C77.3811143553318 -16.37252626388227, 77.62197578420198 -16.301039856101045, 78.18496470640156 -16.133947699181366 M78.18496470640156 -16.133947699181366 C78.45601308669139 -16.03419938969095, 78.7270614669812 -15.934451080200535, 79.20766408294936 -15.757584874882369 M78.18496470640156 -16.133947699181366 C78.4611099656211 -16.032323691129783, 78.73725522484064 -15.930699683078196, 79.20766408294936 -15.757584874882369 M79.20766408294936 -15.757584874882369 C79.4803944841735 -15.636855216520349, 79.75312488539764 -15.516125558158329, 80.20414856499849 -15.316470754341125 M79.20766408294936 -15.757584874882369 C79.46948790564952 -15.641683235300762, 79.73131172834967 -15.525781595719154, 80.20414856499849 -15.316470754341125 M80.20414856499849 -15.316470754341125 C80.58850564938149 -15.11595190961098, 80.97286273376447 -14.915433064880833, 81.17032338406693 -14.812417970097622 M80.20414856499849 -15.316470754341125 C80.57632435501417 -15.122306883079917, 80.94850014502984 -14.92814301181871, 81.17032338406693 -14.812417970097622 M81.17032338406693 -14.812417970097622 C81.5002149637229 -14.61243575585207, 81.83010654337885 -14.412453541606517, 82.10221832057933 -14.247497783161291 M81.17032338406693 -14.812417970097622 C81.51685934965332 -14.602345831287781, 81.86339531523969 -14.392273692477943, 82.10221832057933 -14.247497783161291 M82.10221832057933 -14.247497783161291 C82.29459365534152 -14.113305077425208, 82.4869689901037 -13.979112371689126, 82.99600401835067 -13.624031571755262 M82.10221832057933 -14.247497783161291 C82.45258379816345 -14.00309799307569, 82.80294927574755 -13.758698202990086, 82.99600401835067 -13.624031571755262 M82.99600401835067 -13.624031571755262 C83.24520641531696 -13.42529929172895, 83.49440881228323 -13.226567011702635, 83.8480077202324 -12.944581292275288 M82.99600401835067 -13.624031571755262 C83.24986617787948 -13.421583255086817, 83.50372833740829 -13.219134938418373, 83.8480077202324 -12.944581292275288 M83.8480077202324 -12.944581292275288 C84.14787454018627 -12.67225018043447, 84.44774136014014 -12.399919068593649, 84.65472836025927 -12.21193895166137 M83.8480077202324 -12.944581292275288 C84.06824160853223 -12.744570701990746, 84.28847549683208 -12.544560111706204, 84.65472836025927 -12.21193895166137 M84.65472836025927 -12.21193895166137 C84.93448847900966 -11.923063660318686, 85.21424859776003 -11.634188368976004, 85.41285095028036 -11.42911513444239 M84.65472836025927 -12.21193895166137 C84.86517089844106 -11.99463975333496, 85.07561343662286 -11.777340555008548, 85.41285095028036 -11.42911513444239 M85.41285095028036 -11.42911513444239 C85.6062551405902 -11.201931567494254, 85.79965933090006 -10.974748000546118, 86.11926020195651 -10.59932663159847 M85.41285095028036 -11.42911513444239 C85.65944538912163 -11.139451274958363, 85.9060398279629 -10.849787415474335, 86.11926020195651 -10.59932663159847 M86.11926020195651 -10.59932663159847 C86.27895624056211 -10.385348488475364, 86.43865227916773 -10.171370345352255, 86.77105332814824 -9.725983222076888 M86.11926020195651 -10.59932663159847 C86.27793634142675 -10.386715060402027, 86.436612480897 -10.174103489205581, 86.77105332814824 -9.725983222076888 M86.77105332814824 -9.725983222076888 C86.94145538306074 -9.46419990637263, 87.11185743797324 -9.20241659066837, 87.36555197109088 -8.812673661278927 M86.77105332814824 -9.725983222076888 C86.92088459250502 -9.495802164696933, 87.07071585686178 -9.265621107316976, 87.36555197109088 -8.812673661278927 M87.36555197109088 -8.812673661278927 C87.50498156546335 -8.565102297693175, 87.64441115983584 -8.317530934107422, 87.900313208341 -7.863150934094199 M87.36555197109088 -8.812673661278927 C87.47972696967767 -8.609944389815794, 87.59390196826446 -8.407215118352664, 87.900313208341 -7.863150934094199 M87.900313208341 -7.863150934094199 C88.01227288496962 -7.630664270021566, 88.12423256159822 -7.398177605948933, 88.37313959126881 -6.881316833080699 M87.900313208341 -7.863150934094199 C88.04745243918877 -7.5576131729636, 88.19459167003654 -7.252075411832999, 88.37313959126881 -6.881316833080699 M88.37313959126881 -6.881316833080699 C88.4928861043798 -6.585540630555209, 88.6126326174908 -6.289764428029718, 88.78208817484592 -5.871205925162238 M88.37313959126881 -6.881316833080699 C88.49502687742404 -6.580252879746924, 88.61691416357927 -6.279188926413148, 88.78208817484592 -5.871205925162238 M88.78208817484592 -5.871205925162238 C88.8778542113366 -5.582773881498145, 88.97362024782727 -5.294341837834051, 89.12547850162323 -4.836968972727556 M88.78208817484592 -5.871205925162238 C88.88257541896665 -5.568554356338681, 88.9830626630874 -5.265902787515123, 89.12547850162323 -4.836968972727556 M89.12547850162323 -4.836968972727556 C89.21308262049216 -4.502896499615039, 89.30068673936108 -4.168824026502522, 89.401899507091 -3.7828558772573464 M89.12547850162323 -4.836968972727556 C89.18274103430343 -4.618602117879307, 89.24000356698363 -4.400235263031059, 89.401899507091 -3.7828558772573464 M89.401899507091 -3.7828558772573464 C89.44680523561411 -3.552274452120251, 89.49171096413723 -3.3216930269831555, 89.61021531804565 -2.713198215567453 M89.401899507091 -3.7828558772573464 C89.46726924793873 -3.447196073903873, 89.53263898878646 -3.1115362705504, 89.61021531804565 -2.713198215567453 M89.61021531804565 -2.713198215567453 C89.66074725677463 -2.321282477445409, 89.71127919550362 -1.9293667393233653, 89.74956992013637 -1.632391440430593 M89.61021531804565 -2.713198215567453 C89.64825133661901 -2.418198366573854, 89.68628735519238 -2.1231985175802546, 89.74956992013637 -1.632391440430593 M89.74956992013637 -1.632391440430593 C89.77352612070757 -1.2592542794370085, 89.79748232127878 -0.8861171184434241, 89.8193906754117 -0.5448768187181379 M89.74956992013637 -1.632391440430593 C89.77222783880013 -1.2794760680996569, 89.7948857574639 -0.9265606957687209, 89.8193906754117 -0.5448768187181379 M89.8193906754117 -0.5448768187181379 C89.8193906754117 -0.16320803653058047, 89.8193906754117 0.21846074565697693, 89.8193906754117 0.5448768187181336 M89.8193906754117 -0.5448768187181379 C89.8193906754117 -0.18081669721789206, 89.8193906754117 0.18324342428235374, 89.8193906754117 0.5448768187181336 M89.8193906754117 0.5448768187181336 C89.79204567943047 0.9707972036091912, 89.76470068344925 1.3967175885002487, 89.74956992013637 1.6323914404305815 M89.8193906754117 0.5448768187181336 C89.7926236377856 0.9617950357084382, 89.76585660015951 1.3787132526987427, 89.74956992013637 1.6323914404305815 M89.74956992013637 1.6323914404305815 C89.69491039555788 2.0563199193173536, 89.64025087097939 2.4802483982041252, 89.61021531804565 2.7131982155674415 M89.74956992013637 1.6323914404305815 C89.70317314625713 1.9922356565586283, 89.65677637237789 2.3520798726866756, 89.61021531804565 2.7131982155674415 M89.61021531804565 2.7131982155674415 C89.5351038699985 3.098879626479398, 89.45999242195136 3.4845610373913543, 89.401899507091 3.782855877257343 M89.61021531804565 2.7131982155674415 C89.55696882018613 2.9866077284247403, 89.50372232232662 3.260017241282039, 89.401899507091 3.782855877257343 M89.401899507091 3.782855877257343 C89.3427522475676 4.00841001240448, 89.28360498804422 4.2339641475516165, 89.12547850162323 4.836968972727545 M89.401899507091 3.782855877257343 C89.34124810713537 4.014145951771194, 89.28059670717974 4.245436026285046, 89.12547850162323 4.836968972727545 M89.12547850162323 4.836968972727545 C89.00743900508023 5.192485129275352, 88.88939950853722 5.548001285823158, 88.78208817484592 5.871205925162227 M89.12547850162323 4.836968972727545 C88.99510157692698 5.229643497170673, 88.86472465223075 5.6223180216138005, 88.78208817484592 5.871205925162227 M88.78208817484592 5.871205925162227 C88.65328665747343 6.1893481632802185, 88.52448514010094 6.5074904013982104, 88.37313959126881 6.881316833080694 M88.78208817484592 5.871205925162227 C88.66797610056969 6.153064954831408, 88.55386402629344 6.43492398450059, 88.37313959126881 6.881316833080694 M88.37313959126881 6.881316833080694 C88.187021466352 7.267795101760382, 88.00090334143519 7.6542733704400705, 87.900313208341 7.863150934094196 M88.37313959126881 6.881316833080694 C88.18679156334147 7.268272500280859, 88.00044353541415 7.655228167481024, 87.900313208341 7.863150934094196 M87.900313208341 7.863150934094196 C87.71453025760734 8.193027375685533, 87.52874730687368 8.52290381727687, 87.36555197109088 8.812673661278923 M87.900313208341 7.863150934094196 C87.77805435217604 8.080233913266708, 87.6557954960111 8.297316892439222, 87.36555197109088 8.812673661278923 M87.36555197109088 8.812673661278923 C87.21928869990816 9.03737332300322, 87.07302542872544 9.262072984727515, 86.77105332814826 9.725983222076879 M87.36555197109088 8.812673661278923 C87.13360563547921 9.169005519090462, 86.90165929986755 9.525337376902, 86.77105332814826 9.725983222076879 M86.77105332814826 9.725983222076879 C86.59503526070219 9.961831396878782, 86.41901719325612 10.197679571680684, 86.11926020195651 10.599326631598467 M86.77105332814826 9.725983222076879 C86.52125412989781 10.060691390557352, 86.27145493164737 10.395399559037825, 86.11926020195651 10.599326631598467 M86.11926020195651 10.599326631598467 C85.83982736676086 10.927564339998035, 85.56039453156521 11.255802048397602, 85.41285095028037 11.42911513444238 M86.11926020195651 10.599326631598467 C85.8748196086359 10.886460461576638, 85.6303790153153 11.173594291554808, 85.41285095028037 11.42911513444238 M85.41285095028037 11.42911513444238 C85.25681822939868 11.590231729277352, 85.10078550851699 11.751348324112325, 84.65472836025927 12.211938951661365 M85.41285095028037 11.42911513444238 C85.2328572304621 11.614973427913974, 85.05286351064382 11.800831721385567, 84.65472836025927 12.211938951661365 M84.65472836025927 12.211938951661365 C84.48674872457018 12.364493612296586, 84.3187690888811 12.51704827293181, 83.84800772023242 12.944581292275275 M84.65472836025927 12.211938951661365 C84.47110803887684 12.378698069213423, 84.28748771749439 12.54545718676548, 83.84800772023242 12.944581292275275 M83.84800772023242 12.944581292275275 C83.50934800111699 13.214653406156216, 83.17068828200156 13.484725520037157, 82.99600401835067 13.62403157175526 M83.84800772023242 12.944581292275275 C83.58810958991772 13.151843135021531, 83.32821145960304 13.359104977767787, 82.99600401835067 13.62403157175526 M82.99600401835067 13.62403157175526 C82.7767338395889 13.77698495640642, 82.55746366082714 13.929938341057579, 82.10221832057934 14.247497783161286 M82.99600401835067 13.62403157175526 C82.70911404060038 13.824153600966891, 82.42222406285009 14.024275630178522, 82.10221832057934 14.247497783161286 M82.10221832057934 14.247497783161286 C81.84778854890496 14.401734605945597, 81.59335877723058 14.555971428729908, 81.17032338406695 14.81241797009762 M82.10221832057934 14.247497783161286 C81.82870612357338 14.41330248432238, 81.55519392656743 14.579107185483474, 81.17032338406695 14.81241797009762 M81.17032338406695 14.81241797009762 C80.78950469235662 15.011090837636889, 80.40868600064627 15.209763705176156, 80.20414856499849 15.316470754341124 M81.17032338406695 14.81241797009762 C80.96648214407408 14.918761814435353, 80.76264090408121 15.025105658773084, 80.20414856499849 15.316470754341124 M80.20414856499849 15.316470754341124 C79.85415245426653 15.471403650296423, 79.50415634353456 15.626336546251721, 79.20766408294936 15.757584874882367 M80.20414856499849 15.316470754341124 C79.90365188145914 15.44949172222659, 79.60315519791978 15.582512690112058, 79.20766408294936 15.757584874882367 M79.20766408294936 15.757584874882367 C78.91156367682046 15.866552561459955, 78.61546327069155 15.97552024803754, 78.18496470640156 16.133947699181363 M79.20766408294936 15.757584874882367 C78.89262399865972 15.873522538099573, 78.57758391437007 15.98946020131678, 78.18496470640156 16.133947699181363 M78.18496470640156 16.133947699181363 C77.8666853006261 16.228411356132828, 77.54840589485065 16.32287501308429, 77.14025292646164 16.444012671663497 M78.18496470640156 16.133947699181363 C77.96855374706081 16.198177335949392, 77.75214278772005 16.26240697271742, 77.14025292646164 16.444012671663497 M77.14025292646164 16.444012671663497 C76.89604261595981 16.49975208141433, 76.651832305458 16.555491491165164, 76.07782168792333 16.68650566884811 M77.14025292646164 16.444012671663497 C76.89375114437209 16.500275094850977, 76.64724936228255 16.55653751803846, 76.07782168792333 16.68650566884811 M76.07782168792333 16.68650566884811 C75.84997406386219 16.7233423057216, 75.62212643980105 16.760178942595093, 75.00203674863661 16.86043023499518 M76.07782168792333 16.68650566884811 C75.72597310805395 16.7433898186149, 75.37412452818457 16.800273968381696, 75.00203674863661 16.86043023499518 M75.00203674863661 16.86043023499518 C74.66511398401084 16.89293276888972, 74.32819121938509 16.92543530278426, 73.91731873967211 16.965071676755716 M75.00203674863661 16.86043023499518 C74.69716741675859 16.88984061278244, 74.39229808488055 16.919250990569697, 73.91731873967211 16.965071676755716 M73.91731873967211 16.965071676755716 C73.63921568002405 16.973989900583863, 73.36111262037599 16.98290812441201, 72.828125 17 M73.91731873967211 16.965071676755716 C73.49574514518359 16.978590721387743, 73.07417155069508 16.992109766019766, 72.828125 17 M72.828125 17 C72.828125 17, 72.828125 17, 72.828125 17 M72.828125 17 C72.828125 17, 72.828125 17, 72.828125 17 M72.828125 17 C23.122377098705385 17, -26.58337080258923 17, -72.828125 17 M72.828125 17 C23.33171968847398 17, -26.164685623052037 17, -72.828125 17 M-72.828125 17 C-73.08067501104013 16.991901212704718, -73.33322502208024 16.983802425409436, -73.91731873967211 16.965071676755716 M-72.828125 17 C-73.19800611174723 16.988138632676176, -73.56788722349447 16.976277265352348, -73.91731873967211 16.965071676755716 M-73.91731873967211 16.965071676755716 C-74.23152399139214 16.93476067400939, -74.54572924311215 16.90444967126306, -75.0020367486366 16.86043023499518 M-73.91731873967211 16.965071676755716 C-74.27890516868298 16.930189868820342, -74.64049159769385 16.895308060884968, -75.0020367486366 16.86043023499518 M-75.0020367486366 16.86043023499518 C-75.28120064472925 16.81529718122327, -75.56036454082191 16.77016412745136, -76.07782168792333 16.68650566884811 M-75.0020367486366 16.86043023499518 C-75.40833216300416 16.79474354326823, -75.81462757737174 16.72905685154128, -76.07782168792333 16.68650566884811 M-76.07782168792333 16.68650566884811 C-76.39234845873104 16.614716985890244, -76.70687522953874 16.542928302932378, -77.14025292646161 16.4440126716635 M-76.07782168792333 16.68650566884811 C-76.35993604488726 16.622114907839318, -76.6420504018512 16.557724146830527, -77.14025292646161 16.4440126716635 M-77.14025292646161 16.4440126716635 C-77.4444284187367 16.353734982205992, -77.74860391101181 16.263457292748484, -78.18496470640154 16.13394769918137 M-77.14025292646161 16.4440126716635 C-77.38207413034405 16.372241407696595, -77.6238953342265 16.300470143729687, -78.18496470640154 16.13394769918137 M-78.18496470640154 16.13394769918137 C-78.4910345786181 16.021311156926796, -78.79710445083465 15.908674614672218, -79.20766408294936 15.757584874882369 M-78.18496470640154 16.13394769918137 C-78.50739230070955 16.015291363988016, -78.82981989501755 15.896635028794659, -79.20766408294936 15.757584874882369 M-79.20766408294936 15.757584874882369 C-79.53383354637329 15.613199328897961, -79.86000300979721 15.468813782913552, -80.20414856499849 15.316470754341127 M-79.20766408294936 15.757584874882369 C-79.50945848355617 15.62398944614655, -79.81125288416298 15.490394017410733, -80.20414856499849 15.316470754341127 M-80.20414856499849 15.316470754341127 C-80.39798980699044 15.215343902555173, -80.59183104898237 15.114217050769216, -81.17032338406693 14.812417970097624 M-80.20414856499849 15.316470754341127 C-80.43321009643228 15.196969500113036, -80.66227162786605 15.077468245884944, -81.17032338406693 14.812417970097624 M-81.17032338406693 14.812417970097624 C-81.41555714226214 14.663755824726154, -81.66079090045737 14.515093679354685, -82.10221832057931 14.247497783161299 M-81.17032338406693 14.812417970097624 C-81.38257356412943 14.683750663623226, -81.59482374419194 14.55508335714883, -82.10221832057931 14.247497783161299 M-82.10221832057931 14.247497783161299 C-82.41341632515413 14.030419526714404, -82.72461432972895 13.81334127026751, -82.99600401835067 13.624031571755264 M-82.10221832057931 14.247497783161299 C-82.41348810614502 14.030369455402498, -82.72475789171075 13.8132411276437, -82.99600401835067 13.624031571755264 M-82.99600401835067 13.624031571755264 C-83.26410852754825 13.410225360230818, -83.53221303674583 13.196419148706372, -83.8480077202324 12.94458129227529 M-82.99600401835067 13.624031571755264 C-83.25743750088576 13.415545326470685, -83.51887098342084 13.207059081186106, -83.8480077202324 12.94458129227529 M-83.8480077202324 12.94458129227529 C-84.10398702733998 12.71210765840151, -84.35996633444756 12.479634024527732, -84.65472836025926 12.211938951661377 M-83.8480077202324 12.94458129227529 C-84.07138688066671 12.741714249057562, -84.29476604110101 12.538847205839836, -84.65472836025926 12.211938951661377 M-84.65472836025926 12.211938951661377 C-84.89262500341654 11.966291135923834, -85.13052164657383 11.720643320186293, -85.41285095028036 11.429115134442386 M-84.65472836025926 12.211938951661377 C-84.91494554764193 11.943243341460363, -85.1751627350246 11.67454773125935, -85.41285095028036 11.429115134442386 M-85.41285095028036 11.429115134442386 C-85.69522259049727 11.09742533844212, -85.97759423071416 10.765735542441853, -86.11926020195651 10.599326631598473 M-85.41285095028036 11.429115134442386 C-85.65778769460508 11.141398497263, -85.9027244389298 10.853681860083611, -86.11926020195651 10.599326631598473 M-86.11926020195651 10.599326631598473 C-86.27363821722125 10.39247415527024, -86.42801623248599 10.185621678942008, -86.77105332814824 9.72598322207689 M-86.11926020195651 10.599326631598473 C-86.29166525383835 10.368319568500139, -86.4640703057202 10.137312505401807, -86.77105332814824 9.72598322207689 M-86.77105332814824 9.72598322207689 C-86.93886860114132 9.468173898049075, -87.10668387413439 9.210364574021263, -87.36555197109088 8.812673661278936 M-86.77105332814824 9.72598322207689 C-86.9446174240438 9.459342162295771, -87.11818151993936 9.192701102514652, -87.36555197109088 8.812673661278936 M-87.36555197109088 8.812673661278936 C-87.55324791388345 8.479400508575559, -87.74094385667601 8.146127355872181, -87.900313208341 7.863150934094201 M-87.36555197109088 8.812673661278936 C-87.48094758938949 8.607777055916314, -87.59634320768811 8.402880450553694, -87.900313208341 7.863150934094201 M-87.900313208341 7.863150934094201 C-88.00067631333171 7.654744799154565, -88.10103941832242 7.446338664214928, -88.37313959126881 6.881316833080701 M-87.900313208341 7.863150934094201 C-88.02280717493825 7.608789591504013, -88.14530114153548 7.354428248913824, -88.37313959126881 6.881316833080701 M-88.37313959126881 6.881316833080701 C-88.49979504530985 6.568475412882696, -88.62645049935091 6.255633992684692, -88.78208817484592 5.87120592516224 M-88.37313959126881 6.881316833080701 C-88.46692500163283 6.649665056264011, -88.56071041199685 6.4180132794473215, -88.78208817484592 5.87120592516224 M-88.78208817484592 5.87120592516224 C-88.8524479266031 5.659293563173645, -88.9228076783603 5.447381201185052, -89.12547850162323 4.8369689727275516 M-88.78208817484592 5.87120592516224 C-88.85932468810056 5.638581853206472, -88.9365612013552 5.405957781250703, -89.12547850162323 4.8369689727275516 M-89.12547850162323 4.8369689727275516 C-89.2004432054076 4.551096067289665, -89.27540790919194 4.265223161851778, -89.401899507091 3.782855877257349 M-89.12547850162323 4.8369689727275516 C-89.21217251525277 4.506367125334956, -89.2988665288823 4.17576527794236, -89.401899507091 3.782855877257349 M-89.401899507091 3.782855877257349 C-89.45111584200012 3.530140399375052, -89.50033217690925 3.277424921492755, -89.61021531804565 2.713198215567455 M-89.401899507091 3.782855877257349 C-89.4716716844862 3.4245904926879067, -89.5414438618814 3.066325108118464, -89.61021531804565 2.713198215567455 M-89.61021531804565 2.713198215567455 C-89.65685420623707 2.3514762086449217, -89.70349309442851 1.9897542017223884, -89.74956992013637 1.6323914404306026 M-89.61021531804565 2.713198215567455 C-89.645192295961 2.441923681841491, -89.68016927387636 2.1706491481155266, -89.74956992013637 1.6323914404306026 M-89.74956992013637 1.6323914404306026 C-89.76704297461417 1.3602345129431748, -89.78451602909196 1.088077585455747, -89.8193906754117 0.54487681871814 M-89.74956992013637 1.6323914404306026 C-89.76558647485096 1.3829206724204506, -89.78160302956557 1.1334499044102988, -89.8193906754117 0.54487681871814 M-89.8193906754117 0.54487681871814 C-89.8193906754117 0.29440973925991654, -89.8193906754117 0.043942659801693096, -89.8193906754117 -0.5448768187181317 M-89.8193906754117 0.54487681871814 C-89.8193906754117 0.280229862673955, -89.8193906754117 0.015582906629770021, -89.8193906754117 -0.5448768187181317 M-89.8193906754117 -0.5448768187181317 C-89.79659387259561 -0.8999554238266142, -89.77379706977953 -1.2550340289350967, -89.74956992013637 -1.6323914404305793 M-89.8193906754117 -0.5448768187181317 C-89.79534907271292 -0.9193441867839758, -89.77130747001414 -1.29381155484982, -89.74956992013637 -1.6323914404305793 M-89.74956992013637 -1.6323914404305793 C-89.71223653186844 -1.9219418275252274, -89.67490314360052 -2.2114922146198754, -89.61021531804565 -2.713198215567447 M-89.74956992013637 -1.6323914404305793 C-89.70679556180953 -1.9641409168611461, -89.66402120348268 -2.295890393291713, -89.61021531804565 -2.713198215567447 M-89.61021531804565 -2.713198215567447 C-89.56204108918286 -2.960562699150989, -89.51386686032008 -3.2079271827345313, -89.401899507091 -3.782855877257341 M-89.61021531804565 -2.713198215567447 C-89.55854024191984 -2.978538809942283, -89.50686516579403 -3.243879404317119, -89.401899507091 -3.782855877257341 M-89.401899507091 -3.782855877257341 C-89.3103003880327 -4.13216301753598, -89.2187012689744 -4.481470157814619, -89.12547850162323 -4.836968972727544 M-89.401899507091 -3.782855877257341 C-89.3421139112676 -4.010844265373077, -89.28232831544422 -4.238832653488814, -89.12547850162323 -4.836968972727544 M-89.12547850162323 -4.836968972727544 C-88.9916036572724 -5.240178673852469, -88.85772881292158 -5.643388374977394, -88.78208817484594 -5.871205925162218 M-89.12547850162323 -4.836968972727544 C-88.99735145805825 -5.222867213673211, -88.86922441449326 -5.608765454618878, -88.78208817484594 -5.871205925162218 M-88.78208817484594 -5.871205925162218 C-88.63556603274041 -6.233118448975773, -88.48904389063487 -6.595030972789329, -88.37313959126881 -6.881316833080692 M-88.78208817484594 -5.871205925162218 C-88.66509185655843 -6.1601890933022805, -88.54809553827093 -6.449172261442343, -88.37313959126881 -6.881316833080692 M-88.37313959126881 -6.881316833080692 C-88.23927760692673 -7.159284107754648, -88.10541562258466 -7.437251382428605, -87.900313208341 -7.863150934094194 M-88.37313959126881 -6.881316833080692 C-88.24234111351574 -7.152922670774055, -88.11154263576265 -7.424528508467419, -87.900313208341 -7.863150934094194 M-87.900313208341 -7.863150934094194 C-87.74952108062577 -8.130897626211267, -87.59872895291055 -8.39864431832834, -87.36555197109088 -8.812673661278929 M-87.900313208341 -7.863150934094194 C-87.69300950508305 -8.231239651004916, -87.48570580182509 -8.59932836791564, -87.36555197109088 -8.812673661278929 M-87.36555197109088 -8.812673661278929 C-87.23779608078982 -9.00894101604137, -87.11004019048876 -9.205208370803811, -86.77105332814826 -9.725983222076884 M-87.36555197109088 -8.812673661278929 C-87.2284805194781 -9.023252219794639, -87.09140906786533 -9.23383077831035, -86.77105332814826 -9.725983222076884 M-86.77105332814826 -9.725983222076884 C-86.5706945421085 -9.994445742309251, -86.37033575606873 -10.26290826254162, -86.11926020195651 -10.599326631598467 M-86.77105332814826 -9.725983222076884 C-86.57592288716104 -9.987440236250874, -86.38079244617383 -10.248897250424866, -86.11926020195651 -10.599326631598467 M-86.11926020195651 -10.599326631598467 C-85.9231873085745 -10.829645009028663, -85.7271144151925 -11.059963386458861, -85.41285095028037 -11.42911513444238 M-86.11926020195651 -10.599326631598467 C-85.90463341404667 -10.851439469287563, -85.69000662613684 -11.103552306976658, -85.41285095028037 -11.42911513444238 M-85.41285095028037 -11.42911513444238 C-85.12490800989094 -11.726439860949515, -84.83696506950153 -12.02376458745665, -84.65472836025927 -12.21193895166136 M-85.41285095028037 -11.42911513444238 C-85.21565933619613 -11.632731665716967, -85.01846772211188 -11.836348196991553, -84.65472836025927 -12.21193895166136 M-84.65472836025927 -12.21193895166136 C-84.43113336053155 -12.41500201441458, -84.20753836080381 -12.6180650771678, -83.84800772023242 -12.944581292275274 M-84.65472836025927 -12.21193895166136 C-84.44909224884634 -12.398692227213223, -84.24345613743341 -12.585445502765086, -83.84800772023242 -12.944581292275274 M-83.84800772023242 -12.944581292275274 C-83.64140767784747 -13.10933932821925, -83.43480763546252 -13.274097364163223, -82.99600401835067 -13.624031571755259 M-83.84800772023242 -12.944581292275274 C-83.62194950905125 -13.124856700030612, -83.39589129787008 -13.30513210778595, -82.99600401835067 -13.624031571755259 M-82.99600401835067 -13.624031571755259 C-82.70926650783669 -13.824047246423042, -82.4225289973227 -14.024062921090826, -82.10221832057934 -14.247497783161284 M-82.99600401835067 -13.624031571755259 C-82.65830244807913 -13.859597568311331, -82.32060087780758 -14.095163564867404, -82.10221832057934 -14.247497783161284 M-82.10221832057934 -14.247497783161284 C-81.80741031148119 -14.426212130760744, -81.51260230238306 -14.604926478360204, -81.17032338406695 -14.812417970097618 M-82.10221832057934 -14.247497783161284 C-81.82078482425302 -14.418104422521097, -81.53935132792672 -14.588711061880907, -81.17032338406695 -14.812417970097618 M-81.17032338406695 -14.812417970097618 C-80.86447590079499 -14.971978406215936, -80.55862841752302 -15.131538842334253, -80.20414856499849 -15.316470754341124 M-81.17032338406695 -14.812417970097618 C-80.80036582835167 -15.005424589945154, -80.43040827263638 -15.198431209792691, -80.20414856499849 -15.316470754341124 M-80.20414856499849 -15.316470754341124 C-79.8862046522959 -15.45721509302349, -79.56826073959331 -15.597959431705856, -79.20766408294936 -15.757584874882365 M-80.20414856499849 -15.316470754341124 C-79.90629011761571 -15.44832385334057, -79.60843167023293 -15.580176952340015, -79.20766408294936 -15.757584874882365 M-79.20766408294936 -15.757584874882365 C-78.88051408709637 -15.877979097497676, -78.5533640912434 -15.998373320112986, -78.18496470640156 -16.133947699181363 M-79.20766408294936 -15.757584874882365 C-78.86951191561083 -15.882027998307315, -78.5313597482723 -16.006471121732265, -78.18496470640156 -16.133947699181363 M-78.18496470640156 -16.133947699181363 C-77.78763702831137 -16.251872468422988, -77.39030935022119 -16.369797237664613, -77.14025292646164 -16.444012671663494 M-78.18496470640156 -16.133947699181363 C-77.95948878328223 -16.200867769615908, -77.73401286016289 -16.267787840050453, -77.14025292646164 -16.444012671663494 M-77.14025292646164 -16.444012671663494 C-76.7712238567318 -16.5282411486896, -76.40219478700195 -16.612469625715708, -76.07782168792333 -16.68650566884811 M-77.14025292646164 -16.444012671663494 C-76.90526245346607 -16.49764771366859, -76.67027198047049 -16.551282755673686, -76.07782168792333 -16.68650566884811 M-76.07782168792333 -16.68650566884811 C-75.82825296114416 -16.726854005159385, -75.57868423436497 -16.76720234147066, -75.00203674863661 -16.86043023499518 M-76.07782168792333 -16.68650566884811 C-75.68385452590873 -16.75019922434166, -75.28988736389412 -16.813892779835207, -75.00203674863661 -16.86043023499518 M-75.00203674863661 -16.86043023499518 C-74.57963094203238 -16.901179215140985, -74.15722513542815 -16.941928195286785, -73.91731873967213 -16.965071676755716 M-75.00203674863661 -16.86043023499518 C-74.66904475197583 -16.89255357243158, -74.33605275531504 -16.924676909867976, -73.91731873967213 -16.965071676755716 M-73.91731873967213 -16.965071676755716 C-73.48988852617545 -16.978778531760117, -73.06245831267877 -16.992485386764514, -72.828125 -17 M-73.91731873967213 -16.965071676755716 C-73.689843719888 -16.972366357886926, -73.4623687001039 -16.97966103901814, -72.828125 -17 M-72.828125 -17 C-72.828125 -17, -72.828125 -17, -72.828125 -17 M-72.828125 -17 C-72.828125 -17, -72.828125 -17, -72.828125 -17" stroke="#555555" stroke-width="1.3" fill="none" stroke-dasharray="0 0" style=""></path></g><g class="label" style="" transform="translate(0, -9.5)"><rect></rect><g><rect class="background" style="stroke: none"></rect><text y="-10.1" style=""><tspan class="text-outer-tspan row" x="0" y="-0.1em" dy="1.1em"><tspan font-style="normal" class="text-inner-tspan" font-weight="normal">Need</tspan><tspan font-style="normal" class="text-inner-tspan" font-weight="normal"> to</tspan><tspan font-style="normal" class="text-inner-tspan" font-weight="normal"> load</tspan><tspan font-style="normal" class="text-inner-tspan" font-weight="normal"> a</tspan><tspan font-style="normal" class="text-inner-tspan" font-weight="normal"> script?</tspan></tspan></text></g></g></g><g class="node default" id="g5327d270-334d-4992-aa21-f86069766f41-dark-flowchart-Q1-1" data-look="classic" transform="translate(449.6906280517578, 187.5500030517578)"><polygon points="95.54999923706055,0 191.0999984741211,-95.54999923706055 95.54999923706055,-191.0999984741211 0,-95.54999923706055" class="label-container" transform="translate(-95.04999923706055, 95.54999923706055)"></polygon><g class="label" style="" transform="translate(0, -18.299999237060547)"><rect></rect><g><rect class="background" style="stroke: none"></rect><text y="-10.1" style=""><tspan class="text-outer-tspan row" x="0" y="-0.1em" dy="1.1em"><tspan font-style="normal" class="text-inner-tspan" font-weight="normal">ES</tspan><tspan font-style="normal" class="text-inner-tspan" font-weight="normal"> module?</tspan></tspan><tspan class="text-outer-tspan row" x="0" y="1em" dy="1.1em"><tspan font-style="normal" class="text-inner-tspan" font-weight="normal">(import</tspan><tspan font-style="normal" class="text-inner-tspan" font-weight="normal"> /</tspan><tspan font-style="normal" class="text-inner-tspan" font-weight="normal"> export)</tspan></tspan></text></g></g></g><g class="node default" id="g5327d270-334d-4992-aa21-f86069766f41-dark-flowchart-Q2-3" data-look="classic" transform="translate(234.20703125, 447.07969665527344)"><polygon points="79.58124923706055,0 159.1624984741211,-79.58124923706055 79.58124923706055,-159.1624984741211 0,-79.58124923706055" class="label-container" transform="translate(-79.08124923706055, 79.58124923706055)"></polygon><g class="label" style="" transform="translate(0, -18.299999237060547)"><rect></rect><g><rect class="background" style="stroke: none"></rect><text y="-10.1" style=""><tspan class="text-outer-tspan row" x="0" y="-0.1em" dy="1.1em"><tspan font-style="normal" class="text-inner-tspan" font-weight="normal">Independent</tspan></tspan><tspan class="text-outer-tspan row" x="0" y="1em" dy="1.1em"><tspan font-style="normal" class="text-inner-tspan" font-weight="normal">of</tspan><tspan font-style="normal" class="text-inner-tspan" font-weight="normal"> app</tspan><tspan font-style="normal" class="text-inner-tspan" font-weight="normal"> state?</tspan></tspan></text></g></g></g><g class="node default good" id="g5327d270-334d-4992-aa21-f86069766f41-dark-flowchart-ModAsync-5" data-look="classic" transform="translate(106.75, 730.9609527587891)"><rect class="basic label-container" style="fill:#1f6f3a !important;stroke:#0b3d20 !important" x="-98.75" y="-24.5" width="197.5" height="49"></rect><g class="label" style="color:#ffffff !important" transform="translate(0, -9.5)"><rect></rect><g><rect class="background" style="stroke: none"></rect><text y="-10.1" style="fill:#404040 !important"><tspan class="text-outer-tspan row" x="0" y="-0.1em" dy="1.1em"><tspan font-style="normal" class="text-inner-tspan" font-weight="normal">type=module</tspan><tspan font-style="normal" class="text-inner-tspan" font-weight="normal"> async</tspan></tspan></text></g></g></g><g class="node default good" id="g5327d270-334d-4992-aa21-f86069766f41-dark-flowchart-Module-7" data-look="classic" transform="translate(361.6640625, 730.9609527587891)"><rect class="basic label-container" style="fill:#1f6f3a !important;stroke:#0b3d20 !important" x="-106.1640625" y="-33.29999923706055" width="212.328125" height="66.5999984741211"></rect><g class="label" style="color:#ffffff !important" transform="translate(0, -18.299999237060547)"><rect></rect><g><rect class="background" style="stroke: none"></rect><text y="-10.1" style="fill:#404040 !important"><tspan class="text-outer-tspan row" x="0" y="-0.1em" dy="1.1em"><tspan font-style="normal" class="text-inner-tspan" font-weight="normal">type=module</tspan></tspan><tspan class="text-outer-tspan row" x="0" y="1em" dy="1.1em"><tspan font-style="normal" class="text-inner-tspan" font-weight="normal">(deferred</tspan><tspan font-style="normal" class="text-inner-tspan" font-weight="normal"> by</tspan><tspan font-style="normal" class="text-inner-tspan" font-weight="normal"> default)</tspan></tspan></text></g></g></g><g class="node default" id="g5327d270-334d-4992-aa21-f86069766f41-dark-flowchart-Q3-9" data-look="classic" transform="translate(715.1804733276367, 447.07969665527344)"><polygon points="90.97968673706055,0 181.9593734741211,-90.97968673706055 90.97968673706055,-181.9593734741211 0,-90.97968673706055" class="label-container" transform="translate(-90.47968673706055, 90.97968673706055)"></polygon><g class="label" style="" transform="translate(0, -18.299999237060547)"><rect></rect><g><rect class="background" style="stroke: none"></rect><text y="-10.1" style=""><tspan class="text-outer-tspan row" x="0" y="-0.1em" dy="1.1em"><tspan font-style="normal" class="text-inner-tspan" font-weight="normal">Order</tspan><tspan font-style="normal" class="text-inner-tspan" font-weight="normal"> matters</tspan></tspan><tspan class="text-outer-tspan row" x="0" y="1em" dy="1.1em"><tspan font-style="normal" class="text-inner-tspan" font-weight="normal">vs</tspan><tspan font-style="normal" class="text-inner-tspan" font-weight="normal"> other</tspan><tspan font-style="normal" class="text-inner-tspan" font-weight="normal"> scripts?</tspan></tspan></text></g></g></g><g class="node default good" id="g5327d270-334d-4992-aa21-f86069766f41-dark-flowchart-Defer-11" data-look="classic" transform="translate(808.3304748535156, 1263.950023651123)"><rect class="basic label-container" style="fill:#1f6f3a !important;stroke:#0b3d20 !important" x="-49.25" y="-24.5" width="98.5" height="49"></rect><g class="label" style="color:#ffffff !important" transform="translate(0, -9.5)"><rect></rect><g><rect class="background" style="stroke: none"></rect><text y="-10.1" style="fill:#404040 !important"><tspan class="text-outer-tspan row" x="0" y="-0.1em" dy="1.1em"><tspan font-style="normal" class="text-inner-tspan" font-weight="normal">defer</tspan></tspan></text></g></g></g><g class="node default" id="g5327d270-334d-4992-aa21-f86069766f41-dark-flowchart-Q4-13" data-look="classic" transform="translate(637.7296905517578, 730.9609527587891)"><polygon points="119.90156173706055,0 239.8031234741211,-119.90156173706055 119.90156173706055,-239.8031234741211 0,-119.90156173706055" class="label-container" transform="translate(-119.40156173706055, 119.90156173706055)"></polygon><g class="label" style="" transform="translate(0, -18.299999237060547)"><rect></rect><g><rect class="background" style="stroke: none"></rect><text y="-10.1" style=""><tspan class="text-outer-tspan row" x="0" y="-0.1em" dy="1.1em"><tspan font-style="normal" class="text-inner-tspan" font-weight="normal">Independent</tspan><tspan font-style="normal" class="text-inner-tspan" font-weight="normal"> third-party</tspan></tspan><tspan class="text-outer-tspan row" x="0" y="1em" dy="1.1em"><tspan font-style="normal" class="text-inner-tspan" font-weight="normal">(analytics,</tspan><tspan font-style="normal" class="text-inner-tspan" font-weight="normal"> ads)?</tspan></tspan></text></g></g></g><g class="node default good" id="g5327d270-334d-4992-aa21-f86069766f41-dark-flowchart-Async-15" data-look="classic" transform="translate(637.7296905517578, 1040.7562713623047)"><rect class="basic label-container" style="fill:#1f6f3a !important;stroke:#0b3d20 !important" x="-49.71875" y="-24.5" width="99.4375" height="49"></rect><g class="label" style="color:#ffffff !important" transform="translate(0, -9.5)"><rect></rect><g><rect class="background" style="stroke: none"></rect><text y="-10.1" style="fill:#404040 !important"><tspan class="text-outer-tspan row" x="0" y="-0.1em" dy="1.1em"><tspan font-style="normal" class="text-inner-tspan" font-weight="normal">async</tspan></tspan></text></g></g></g><g class="node default" id="g5327d270-334d-4992-aa21-f86069766f41-dark-flowchart-Q5-17" data-look="classic" transform="translate(976.5000076293945, 1040.7562713623047)"><polygon points="116.89374923706055,0 233.7874984741211,-116.89374923706055 116.89374923706055,-233.7874984741211 0,-116.89374923706055" class="label-container" transform="translate(-116.39374923706055, 116.89374923706055)"></polygon><g class="label" style="" transform="translate(0, -18.299999237060547)"><rect></rect><g><rect class="background" style="stroke: none"></rect><text y="-10.1" style=""><tspan class="text-outer-tspan row" x="0" y="-0.1em" dy="1.1em"><tspan font-style="normal" class="text-inner-tspan" font-weight="normal">Truly</tspan><tspan font-style="normal" class="text-inner-tspan" font-weight="normal"> legacy:</tspan></tspan><tspan class="text-outer-tspan row" x="0" y="1em" dy="1.1em"><tspan font-style="normal" class="text-inner-tspan" font-weight="normal">needs</tspan><tspan font-style="normal" class="text-inner-tspan" font-weight="normal"> document.write?</tspan></tspan></text></g></g></g><g class="node default bad" id="g5327d270-334d-4992-aa21-f86069766f41-dark-flowchart-Sync-19" data-look="classic" transform="translate(998.8632888793945, 1263.950023651123)"><rect class="basic label-container" style="fill:#8a1c1c !important;stroke:#3d0b0b !important" x="-85.1953125" y="-33.29999923706055" width="170.390625" height="66.5999984741211"></rect><g class="label" style="color:#ffffff !important" transform="translate(0, -18.299999237060547)"><rect></rect><g><rect class="background" style="stroke: none"></rect><text y="-10.1" style="fill:#404040 !important"><tspan class="text-outer-tspan row" x="0" y="-0.1em" dy="1.1em"><tspan font-style="normal" class="text-inner-tspan" font-weight="normal">default</tspan></tspan><tspan class="text-outer-tspan row" x="0" y="1em" dy="1.1em"><tspan font-style="normal" class="text-inner-tspan" font-weight="normal">parser-blocking</tspan></tspan></text></g></g></g></g></g></g><defs><filter id="g5327d270-334d-4992-aa21-f86069766f41-dark-drop-shadow" height="130%" width="130%"><feDropShadow dx="4" dy="4" stdDeviation="0" flood-opacity="0.06" flood-color="#000000"></feDropShadow></filter></defs><defs><filter id="g5327d270-334d-4992-aa21-f86069766f41-dark-drop-shadow-small" height="150%" width="150%"><feDropShadow dx="2" dy="2" stdDeviation="0" flood-opacity="0.06" flood-color="#000000"></feDropShadow></filter></defs><linearGradient id="g5327d270-334d-4992-aa21-f86069766f41-dark-gradient" gradientUnits="objectBoundingBox" x1="0%" y1="0%" x2="100%" y2="0%"><stop offset="0%" stop-color="#555555" stop-opacity="1"></stop><stop offset="100%" stop-color="#555555" stop-opacity="1"></stop></linearGradient></svg>