<svg id="g9cdcbbd9-7d08-4eaa-bf73-538d313abd50-dark" width="100%" xmlns="http://www.w3.org/2000/svg" xmlns:xlink="http://www.w3.org/1999/xlink" class="flowchart" style="max-width: 1047.379638671875px;" viewBox="0 0 1047.379638671875 1053.5718994140625" role="graphics-document document" aria-roledescription="flowchart-v2"><style>#g9cdcbbd9-7d08-4eaa-bf73-538d313abd50-dark{font-family:"trebuchet ms",verdana,arial,sans-serif;font-size:16px;fill:#e5e5e5;}@keyframes edge-animation-frame{from{stroke-dashoffset:0;}}@keyframes dash{to{stroke-dashoffset:0;}}#g9cdcbbd9-7d08-4eaa-bf73-538d313abd50-dark .edge-animation-slow{stroke-dasharray:9,5!important;stroke-dashoffset:900;animation:dash 50s linear infinite;stroke-linecap:round;}#g9cdcbbd9-7d08-4eaa-bf73-538d313abd50-dark .edge-animation-fast{stroke-dasharray:9,5!important;stroke-dashoffset:900;animation:dash 20s linear infinite;stroke-linecap:round;}#g9cdcbbd9-7d08-4eaa-bf73-538d313abd50-dark .error-icon{fill:#252525;}#g9cdcbbd9-7d08-4eaa-bf73-538d313abd50-dark .error-text{fill:#cccccc;stroke:#cccccc;}#g9cdcbbd9-7d08-4eaa-bf73-538d313abd50-dark .edge-thickness-normal{stroke-width:1px;}#g9cdcbbd9-7d08-4eaa-bf73-538d313abd50-dark .edge-thickness-thick{stroke-width:3.5px;}#g9cdcbbd9-7d08-4eaa-bf73-538d313abd50-dark .edge-pattern-solid{stroke-dasharray:0;}#g9cdcbbd9-7d08-4eaa-bf73-538d313abd50-dark .edge-thickness-invisible{stroke-width:0;fill:none;}#g9cdcbbd9-7d08-4eaa-bf73-538d313abd50-dark .edge-pattern-dashed{stroke-dasharray:3;}#g9cdcbbd9-7d08-4eaa-bf73-538d313abd50-dark .edge-pattern-dotted{stroke-dasharray:2;}#g9cdcbbd9-7d08-4eaa-bf73-538d313abd50-dark .marker{fill:#cccccc;stroke:#cccccc;}#g9cdcbbd9-7d08-4eaa-bf73-538d313abd50-dark .marker.cross{stroke:#cccccc;}#g9cdcbbd9-7d08-4eaa-bf73-538d313abd50-dark svg{font-family:"trebuchet ms",verdana,arial,sans-serif;font-size:16px;}#g9cdcbbd9-7d08-4eaa-bf73-538d313abd50-dark p{margin:0;}#g9cdcbbd9-7d08-4eaa-bf73-538d313abd50-dark .label{font-family:"trebuchet ms",verdana,arial,sans-serif;color:#e5e5e5;}#g9cdcbbd9-7d08-4eaa-bf73-538d313abd50-dark .cluster-label text{fill:#e5e5e5;}#g9cdcbbd9-7d08-4eaa-bf73-538d313abd50-dark .cluster-label span{color:#e5e5e5;}#g9cdcbbd9-7d08-4eaa-bf73-538d313abd50-dark .cluster-label span p{background-color:transparent;}#g9cdcbbd9-7d08-4eaa-bf73-538d313abd50-dark .label text,#g9cdcbbd9-7d08-4eaa-bf73-538d313abd50-dark span{fill:#e5e5e5;color:#e5e5e5;}#g9cdcbbd9-7d08-4eaa-bf73-538d313abd50-dark .node rect,#g9cdcbbd9-7d08-4eaa-bf73-538d313abd50-dark .node circle,#g9cdcbbd9-7d08-4eaa-bf73-538d313abd50-dark .node ellipse,#g9cdcbbd9-7d08-4eaa-bf73-538d313abd50-dark .node polygon,#g9cdcbbd9-7d08-4eaa-bf73-538d313abd50-dark .node path{fill:#2d2d2d;stroke:#555555;stroke-width:1px;}#g9cdcbbd9-7d08-4eaa-bf73-538d313abd50-dark .rough-node .label text,#g9cdcbbd9-7d08-4eaa-bf73-538d313abd50-dark .node .label text,#g9cdcbbd9-7d08-4eaa-bf73-538d313abd50-dark .image-shape .label,#g9cdcbbd9-7d08-4eaa-bf73-538d313abd50-dark .icon-shape .label{text-anchor:middle;}#g9cdcbbd9-7d08-4eaa-bf73-538d313abd50-dark .node .katex path{fill:#000;stroke:#000;stroke-width:1px;}#g9cdcbbd9-7d08-4eaa-bf73-538d313abd50-dark .rough-node .label,#g9cdcbbd9-7d08-4eaa-bf73-538d313abd50-dark .node .label,#g9cdcbbd9-7d08-4eaa-bf73-538d313abd50-dark .image-shape .label,#g9cdcbbd9-7d08-4eaa-bf73-538d313abd50-dark .icon-shape .label{text-align:center;}#g9cdcbbd9-7d08-4eaa-bf73-538d313abd50-dark .node.clickable{cursor:pointer;}#g9cdcbbd9-7d08-4eaa-bf73-538d313abd50-dark .root .anchor path{fill:#cccccc!important;stroke-width:0;stroke:#cccccc;}#g9cdcbbd9-7d08-4eaa-bf73-538d313abd50-dark .arrowheadPath{fill:#cccccc;}#g9cdcbbd9-7d08-4eaa-bf73-538d313abd50-dark .edgePath .path{stroke:#cccccc;stroke-width:1px;}#g9cdcbbd9-7d08-4eaa-bf73-538d313abd50-dark .flowchart-link{stroke:#cccccc;fill:none;}#g9cdcbbd9-7d08-4eaa-bf73-538d313abd50-dark .edgeLabel{background-color:#1e1e1e;text-align:center;}#g9cdcbbd9-7d08-4eaa-bf73-538d313abd50-dark .edgeLabel p{background-color:#1e1e1e;}#g9cdcbbd9-7d08-4eaa-bf73-538d313abd50-dark .edgeLabel rect{opacity:0.5;background-color:#1e1e1e;fill:#1e1e1e;}#g9cdcbbd9-7d08-4eaa-bf73-538d313abd50-dark .labelBkg{background-color:rgba(30, 30, 30, 0.5);}#g9cdcbbd9-7d08-4eaa-bf73-538d313abd50-dark .cluster rect{fill:#1e1e1e;stroke:#555555;stroke-width:1px;}#g9cdcbbd9-7d08-4eaa-bf73-538d313abd50-dark .cluster text{fill:#e5e5e5;}#g9cdcbbd9-7d08-4eaa-bf73-538d313abd50-dark .cluster span{color:#e5e5e5;}#g9cdcbbd9-7d08-4eaa-bf73-538d313abd50-dark div.mermaidTooltip{position:absolute;text-align:center;max-width:200px;padding:2px;font-family:"trebuchet ms",verdana,arial,sans-serif;font-size:12px;background:#252525;border:1px solid #555555;border-radius:2px;pointer-events:none;z-index:100;}#g9cdcbbd9-7d08-4eaa-bf73-538d313abd50-dark .flowchartTitleText{text-anchor:middle;font-size:18px;fill:#e5e5e5;}#g9cdcbbd9-7d08-4eaa-bf73-538d313abd50-dark rect.text{fill:none;stroke-width:0;}#g9cdcbbd9-7d08-4eaa-bf73-538d313abd50-dark .icon-shape,#g9cdcbbd9-7d08-4eaa-bf73-538d313abd50-dark .image-shape{background-color:#1e1e1e;text-align:center;}#g9cdcbbd9-7d08-4eaa-bf73-538d313abd50-dark .icon-shape p,#g9cdcbbd9-7d08-4eaa-bf73-538d313abd50-dark .image-shape p{background-color:#1e1e1e;padding:2px;}#g9cdcbbd9-7d08-4eaa-bf73-538d313abd50-dark .icon-shape .label rect,#g9cdcbbd9-7d08-4eaa-bf73-538d313abd50-dark .image-shape .label rect{opacity:0.5;background-color:#1e1e1e;fill:#1e1e1e;}#g9cdcbbd9-7d08-4eaa-bf73-538d313abd50-dark .label-icon{display:inline-block;height:1em;overflow:visible;vertical-align:-0.125em;}#g9cdcbbd9-7d08-4eaa-bf73-538d313abd50-dark .node .label-icon path{fill:currentColor;stroke:revert;stroke-width:revert;}#g9cdcbbd9-7d08-4eaa-bf73-538d313abd50-dark .node .neo-node{stroke:#555555;}#g9cdcbbd9-7d08-4eaa-bf73-538d313abd50-dark [data-look="neo"].node rect,#g9cdcbbd9-7d08-4eaa-bf73-538d313abd50-dark [data-look="neo"].cluster rect,#g9cdcbbd9-7d08-4eaa-bf73-538d313abd50-dark [data-look="neo"].node polygon{stroke:url(#g9cdcbbd9-7d08-4eaa-bf73-538d313abd50-dark-gradient);filter:drop-shadow( 1px 2px 2px rgba(185,185,185,1));}#g9cdcbbd9-7d08-4eaa-bf73-538d313abd50-dark [data-look="neo"].node path{stroke:url(#g9cdcbbd9-7d08-4eaa-bf73-538d313abd50-dark-gradient);stroke-width:1px;}#g9cdcbbd9-7d08-4eaa-bf73-538d313abd50-dark [data-look="neo"].node .outer-path{filter:drop-shadow( 1px 2px 2px rgba(185,185,185,1));}#g9cdcbbd9-7d08-4eaa-bf73-538d313abd50-dark [data-look="neo"].node .neo-line path{stroke:#555555;filter:none;}#g9cdcbbd9-7d08-4eaa-bf73-538d313abd50-dark [data-look="neo"].node circle{stroke:url(#g9cdcbbd9-7d08-4eaa-bf73-538d313abd50-dark-gradient);filter:drop-shadow( 1px 2px 2px rgba(185,185,185,1));}#g9cdcbbd9-7d08-4eaa-bf73-538d313abd50-dark [data-look="neo"].node circle .state-start{fill:#000000;}#g9cdcbbd9-7d08-4eaa-bf73-538d313abd50-dark [data-look="neo"].icon-shape .icon{fill:url(#g9cdcbbd9-7d08-4eaa-bf73-538d313abd50-dark-gradient);filter:drop-shadow( 1px 2px 2px rgba(185,185,185,1));}#g9cdcbbd9-7d08-4eaa-bf73-538d313abd50-dark [data-look="neo"].icon-shape .icon-neo path{stroke:url(#g9cdcbbd9-7d08-4eaa-bf73-538d313abd50-dark-gradient);filter:drop-shadow( 1px 2px 2px rgba(185,185,185,1));}#g9cdcbbd9-7d08-4eaa-bf73-538d313abd50-dark :root{--mermaid-font-family:"trebuchet ms",verdana,arial,sans-serif;}#g9cdcbbd9-7d08-4eaa-bf73-538d313abd50-dark .removed rect{stroke:#c33!important;stroke-width:2px!important;stroke-dasharray:4 2!important;}#g9cdcbbd9-7d08-4eaa-bf73-538d313abd50-dark .removed polygon{stroke:#c33!important;stroke-width:2px!important;stroke-dasharray:4 2!important;}#g9cdcbbd9-7d08-4eaa-bf73-538d313abd50-dark .removed ellipse{stroke:#c33!important;stroke-width:2px!important;stroke-dasharray:4 2!important;}#g9cdcbbd9-7d08-4eaa-bf73-538d313abd50-dark .removed circle{stroke:#c33!important;stroke-width:2px!important;stroke-dasharray:4 2!important;}#g9cdcbbd9-7d08-4eaa-bf73-538d313abd50-dark .removed path{stroke:#c33!important;stroke-width:2px!important;stroke-dasharray:4 2!important;}</style><g><marker id="g9cdcbbd9-7d08-4eaa-bf73-538d313abd50-dark_flowchart-v2-pointEnd" class="marker flowchart-v2" viewBox="0 0 10 10" refX="5" refY="5" markerUnits="userSpaceOnUse" markerWidth="8" markerHeight="8" orient="auto"><path d="M 0 0 L 10 5 L 0 10 z" class="arrowMarkerPath" style="stroke-width: 1; stroke-dasharray: 1, 0;"></path></marker><marker id="g9cdcbbd9-7d08-4eaa-bf73-538d313abd50-dark_flowchart-v2-pointStart" class="marker flowchart-v2" viewBox="0 0 10 10" refX="4.5" refY="5" markerUnits="userSpaceOnUse" markerWidth="8" markerHeight="8" orient="auto"><path d="M 0 5 L 10 10 L 10 0 z" class="arrowMarkerPath" style="stroke-width: 1; stroke-dasharray: 1, 0;"></path></marker><marker id="g9cdcbbd9-7d08-4eaa-bf73-538d313abd50-dark_flowchart-v2-pointEnd-margin" class="marker flowchart-v2" viewBox="0 0 11.5 14" refX="11.5" refY="7" markerUnits="userSpaceOnUse" markerWidth="10.5" markerHeight="14" orient="auto"><path d="M 0 0 L 11.5 7 L 0 14 z" class="arrowMarkerPath" style="stroke-width: 0; stroke-dasharray: 1, 0;"></path></marker><marker id="g9cdcbbd9-7d08-4eaa-bf73-538d313abd50-dark_flowchart-v2-pointStart-margin" class="marker flowchart-v2" viewBox="0 0 11.5 14" refX="1" refY="7" markerUnits="userSpaceOnUse" markerWidth="11.5" markerHeight="14" orient="auto"><polygon points="0,7 11.5,14 11.5,0" class="arrowMarkerPath" style="stroke-width: 0; stroke-dasharray: 1, 0;"></polygon></marker><marker id="g9cdcbbd9-7d08-4eaa-bf73-538d313abd50-dark_flowchart-v2-circleEnd" class="marker flowchart-v2" viewBox="0 0 10 10" refX="11" refY="5" markerUnits="userSpaceOnUse" markerWidth="11" markerHeight="11" orient="auto"><circle cx="5" cy="5" r="5" class="arrowMarkerPath" style="stroke-width: 1; stroke-dasharray: 1, 0;"></circle></marker><marker id="g9cdcbbd9-7d08-4eaa-bf73-538d313abd50-dark_flowchart-v2-circleStart" class="marker flowchart-v2" viewBox="0 0 10 10" refX="-1" refY="5" markerUnits="userSpaceOnUse" markerWidth="11" markerHeight="11" orient="auto"><circle cx="5" cy="5" r="5" class="arrowMarkerPath" style="stroke-width: 1; stroke-dasharray: 1, 0;"></circle></marker><marker id="g9cdcbbd9-7d08-4eaa-bf73-538d313abd50-dark_flowchart-v2-circleEnd-margin" class="marker flowchart-v2" viewBox="0 0 10 10" refY="5" refX="12.25" markerUnits="userSpaceOnUse" markerWidth="14" markerHeight="14" orient="auto"><circle cx="5" cy="5" r="5" class="arrowMarkerPath" style="stroke-width: 0; stroke-dasharray: 1, 0;"></circle></marker><marker id="g9cdcbbd9-7d08-4eaa-bf73-538d313abd50-dark_flowchart-v2-circleStart-margin" class="marker flowchart-v2" viewBox="0 0 10 10" refX="-2" refY="5" markerUnits="userSpaceOnUse" markerWidth="14" markerHeight="14" orient="auto"><circle cx="5" cy="5" r="5" class="arrowMarkerPath" style="stroke-width: 0; stroke-dasharray: 1, 0;"></circle></marker><marker id="g9cdcbbd9-7d08-4eaa-bf73-538d313abd50-dark_flowchart-v2-crossEnd" class="marker cross flowchart-v2" viewBox="0 0 11 11" refX="12" refY="5.2" markerUnits="userSpaceOnUse" markerWidth="11" markerHeight="11" orient="auto"><path d="M 1,1 l 9,9 M 10,1 l -9,9" class="arrowMarkerPath" style="stroke-width: 2; stroke-dasharray: 1, 0;"></path></marker><marker id="g9cdcbbd9-7d08-4eaa-bf73-538d313abd50-dark_flowchart-v2-crossStart" class="marker cross flowchart-v2" viewBox="0 0 11 11" refX="-1" refY="5.2" markerUnits="userSpaceOnUse" markerWidth="11" markerHeight="11" orient="auto"><path d="M 1,1 l 9,9 M 10,1 l -9,9" class="arrowMarkerPath" style="stroke-width: 2; stroke-dasharray: 1, 0;"></path></marker><marker id="g9cdcbbd9-7d08-4eaa-bf73-538d313abd50-dark_flowchart-v2-crossEnd-margin" class="marker cross flowchart-v2" viewBox="0 0 15 15" refX="17.7" refY="7.5" markerUnits="userSpaceOnUse" markerWidth="12" markerHeight="12" orient="auto"><path d="M 1,1 L 14,14 M 1,14 L 14,1" class="arrowMarkerPath" style="stroke-width: 2.5;"></path></marker><marker id="g9cdcbbd9-7d08-4eaa-bf73-538d313abd50-dark_flowchart-v2-crossStart-margin" class="marker cross flowchart-v2" viewBox="0 0 15 15" refX="-3.5" refY="7.5" markerUnits="userSpaceOnUse" markerWidth="12" markerHeight="12" orient="auto"><path d="M 1,1 L 14,14 M 1,14 L 14,1" class="arrowMarkerPath" style="stroke-width: 2.5; stroke-dasharray: 1, 0;"></path></marker><g class="root"><g class="clusters"></g><g class="edgePaths"><path d="M277.271,120.051L291.877,134.015C306.484,147.978,335.696,175.905,350.303,196.751C364.909,217.598,364.909,231.365,364.909,238.248L364.909,245.131" id="g9cdcbbd9-7d08-4eaa-bf73-538d313abd50-dark-L_Start_HasUI_0" class="edge-thickness-normal edge-pattern-solid edge-thickness-normal edge-pattern-solid flowchart-link" style=";" data-edge="true" data-et="edge" data-id="L_Start_HasUI_0" data-points="W3sieCI6Mjc3LjI3MDU5MzYwMzA2ODUsInkiOjEyMC4wNTEyODI5MjI4MTA0fSx7IngiOjM2NC45MDkzNzgwNTE3NTc4LCJ5IjoyMDMuODMxMjQ5MjM3MDYwNTV9LHsieCI6MzY0LjkwOTM3ODA1MTc1NzgsInkiOjI0OS4xMzEyNDg0NzQxMjExfV0=" data-look="classic" marker-end="url(#g9cdcbbd9-7d08-4eaa-bf73-538d313abd50-dark_flowchart-v2-pointEnd)"></path><path d="M200.311,120.051L185.704,134.015C171.098,147.978,141.885,175.905,127.278,207.462C112.672,239.02,112.672,274.208,112.672,291.803L112.672,309.397" id="g9cdcbbd9-7d08-4eaa-bf73-538d313abd50-dark-L_Start_CC_0" class="edge-thickness-normal edge-pattern-solid edge-thickness-normal edge-pattern-solid flowchart-link" style=";" data-edge="true" data-et="edge" data-id="L_Start_CC_0" data-points="W3sieCI6MjAwLjMxMDY1OTQ0ODY4OTMsInkiOjEyMC4wNTEyODI5MjI4MTA0fSx7IngiOjExMi42NzE4NzUsInkiOjIwMy44MzEyNDkyMzcwNjA1NX0seyJ4IjoxMTIuNjcxODc1LCJ5IjozMTMuMzk2ODc3Mjg4ODE4MzZ9XQ==" data-look="classic" marker-end="url(#g9cdcbbd9-7d08-4eaa-bf73-538d313abd50-dark_flowchart-v2-pointEnd)"></path><path d="M403.619,405.553L412.827,419.555C422.036,433.556,440.453,461.559,470.719,483.613C500.984,505.666,543.098,521.769,564.155,529.821L585.211,537.872" id="g9cdcbbd9-7d08-4eaa-bf73-538d313abd50-dark-L_HasUI_AC_0" class="edge-thickness-normal edge-pattern-solid edge-thickness-normal edge-pattern-solid flowchart-link" style=";" data-edge="true" data-et="edge" data-id="L_HasUI_AC_0" data-points="W3sieCI6NDAzLjYxODU0MDEyNDQwODQ3LCJ5Ijo0MDUuNTUzMzQyNTA0OTg2MDZ9LHsieCI6NDU4Ljg3MDMxNTU1MTc1NzgsInkiOjQ4OS41NjI1MDM4MTQ2OTcyN30seyJ4Ijo1ODguOTQ3NjU4NTM4ODE4NCwieSI6NTM5LjMwMDg5MzQ2Nzk3N31d" data-look="classic" marker-end="url(#g9cdcbbd9-7d08-4eaa-bf73-538d313abd50-dark_flowchart-v2-pointEnd)"></path><path d="M326.2,405.553L316.992,419.555C307.783,433.556,289.366,461.559,280.157,485.378C270.948,509.196,270.948,528.829,270.948,538.646L270.948,548.463" id="g9cdcbbd9-7d08-4eaa-bf73-538d313abd50-dark-L_HasUI_DC_0" class="edge-thickness-normal edge-pattern-solid edge-thickness-normal edge-pattern-solid flowchart-link" style=";" data-edge="true" data-et="edge" data-id="L_HasUI_DC_0" data-points="W3sieCI6MzI2LjIwMDIxNTk3OTEwNzIsInkiOjQwNS41NTMzNDI1MDQ5ODYwNn0seyJ4IjoyNzAuOTQ4NDQwNTUxNzU3OCwieSI6NDg5LjU2MjUwMzgxNDY5NzI3fSx7IngiOjI3MC45NDg0NDA1NTE3NTc4LCJ5Ijo1NTIuNDYyNTA1MzQwNTc2Mn1d" data-look="classic" marker-end="url(#g9cdcbbd9-7d08-4eaa-bf73-538d313abd50-dark_flowchart-v2-pointEnd)"></path><path d="M756.336,636.663L761.82,642.746C767.303,648.829,778.27,660.996,763.113,681.538C747.955,702.08,706.674,730.997,686.034,745.455L665.393,759.914" id="g9cdcbbd9-7d08-4eaa-bf73-538d313abd50-dark-L_AC_Refresh_0" class="edge-thickness-normal edge-pattern-solid edge-thickness-normal edge-pattern-solid flowchart-link" style=";" data-edge="true" data-et="edge" data-id="L_AC_Refresh_0" data-points="W3sieCI6NzU2LjMzNjA4NTE3MTU2ODgsInkiOjYzNi42NjI1MDYxMDM1MTU2fSx7IngiOjc4OS4yMzY3MjEwMzg4MTg0LCJ5Ijo2NzMuMTYyNTA2MTAzNTE1Nn0seyJ4Ijo2NjIuMTE2NzE3MzY1MjI5LCJ5Ijo3NjIuMjA4OTEwOTY4NzQ0NX1d" data-look="classic" marker-end="url(#g9cdcbbd9-7d08-4eaa-bf73-538d313abd50-dark_flowchart-v2-pointEnd)"></path><path d="M318.935,619.063L331.928,628.079C344.922,637.096,370.909,655.129,409.418,679.246C447.928,703.362,498.96,733.561,524.476,748.661L549.992,763.761" id="g9cdcbbd9-7d08-4eaa-bf73-538d313abd50-dark-L_DC_Refresh_0" class="edge-thickness-normal edge-pattern-solid edge-thickness-normal edge-pattern-solid flowchart-link" style=";" data-edge="true" data-et="edge" data-id="L_DC_Refresh_0" data-points="W3sieCI6MzE4LjkzNTA2MTc0MTM1NDMzLCJ5Ijo2MTkuMDYyNTAzODE0Njk3M30seyJ4IjozOTYuODk1MzEzMjYyOTM5NDUsInkiOjY3My4xNjI1MDYxMDM1MTU2fSx7IngiOjU1My40MzQ4ODg4NjExNTksInkiOjc2NS43OTc5Mjk3NDIzNTY2fV0=" data-look="classic" marker-end="url(#g9cdcbbd9-7d08-4eaa-bf73-538d313abd50-dark_flowchart-v2-pointEnd)"></path><path d="M669.096,828.846L701.033,844.851C732.971,860.855,796.846,892.863,828.783,914.284C860.721,935.705,860.721,946.539,860.721,951.955L860.721,957.372" id="g9cdcbbd9-7d08-4eaa-bf73-538d313abd50-dark-L_Refresh_RT_0" class="edge-thickness-normal edge-pattern-solid edge-thickness-normal edge-pattern-solid flowchart-link" style=";" data-edge="true" data-et="edge" data-id="L_Refresh_RT_0" data-points="W3sieCI6NjY5LjA5NTkzNDQyNTM2NjcsInkiOjgyOC44NDYyNTAwMjI4NzU0fSx7IngiOjg2MC43MjA2MzQ0NjA0NDkyLCJ5Ijo5MjQuODcxODcxOTQ4MjQyMn0seyJ4Ijo4NjAuNzIwNjM0NDYwNDQ5MiwieSI6OTYxLjM3MTg3MTk0ODI0MjJ9XQ==" data-look="classic" marker-end="url(#g9cdcbbd9-7d08-4eaa-bf73-538d313abd50-dark_flowchart-v2-pointEnd)"></path><path d="M602.352,881.154L601.712,888.44C601.072,895.727,599.791,910.299,599.229,927.269C598.667,944.239,598.822,963.605,598.9,973.289L598.978,982.972" id="g9cdcbbd9-7d08-4eaa-bf73-538d313abd50-dark-L_Refresh_Done_0" class="edge-thickness-normal edge-pattern-solid edge-thickness-normal edge-pattern-solid flowchart-link" style=";" data-edge="true" data-et="edge" data-id="L_Refresh_Done_0" data-points="W3sieCI6NjAyLjM1MjQwNDkyOTA2NDgsInkiOjg4MS4xNTM5NjQzNzczMDY5fSx7IngiOjU5OC41MTA2MjAxMTcxODc1LCJ5Ijo5MjQuODcxODcxOTQ4MjQyMn0seyJ4Ijo1OTkuMDEwNjIwMTE3MTg3NSwieSI6OTg2Ljk3MTg3MDQyMjM2MzZ9XQ==" data-look="classic" marker-end="url(#g9cdcbbd9-7d08-4eaa-bf73-538d313abd50-dark_flowchart-v2-pointEnd)"></path><path d="M588.948,630.996L570.069,638.023C551.191,645.051,513.434,659.107,474.82,681.157C436.207,703.206,396.738,733.25,377.003,748.272L357.269,763.294" id="g9cdcbbd9-7d08-4eaa-bf73-538d313abd50-dark-L_AC_OIDC_0" class="edge-thickness-normal edge-pattern-dotted edge-thickness-normal edge-pattern-solid flowchart-link" style=";" data-edge="true" data-et="edge" data-id="L_AC_OIDC_0" data-points="W3sieCI6NTg4Ljk0NzY1ODUzODgxODQsInkiOjYzMC45OTU2MjY2NjA0OTM5fSx7IngiOjQ3NS42NzY1NjMyNjI5Mzk0NSwieSI6NjczLjE2MjUwNjEwMzUxNTZ9LHsieCI6MzU0LjA4NTg1Njg0OTQzNDEsInkiOjc2NS43MTcxODk3ODg4MTg0fV0=" data-look="classic" marker-end="url(#g9cdcbbd9-7d08-4eaa-bf73-538d313abd50-dark_flowchart-v2-pointEnd)"></path><path d="M255.94,619.063L251.877,628.079C247.813,637.096,239.685,655.129,244.924,679.007C250.163,702.884,268.767,732.605,278.07,747.466L287.372,762.327" id="g9cdcbbd9-7d08-4eaa-bf73-538d313abd50-dark-L_DC_OIDC_0" class="edge-thickness-normal edge-pattern-dotted edge-thickness-normal edge-pattern-solid flowchart-link" style=";" data-edge="true" data-et="edge" data-id="L_DC_OIDC_0" data-points="W3sieCI6MjU1Ljk0MDM0MjYxNjQzOTc1LCJ5Ijo2MTkuMDYyNTAzODE0Njk3M30seyJ4IjoyMzEuNTU3ODE1NTUxNzU3OCwieSI6NjczLjE2MjUwNjEwMzUxNTZ9LHsieCI6Mjg5LjQ5NDI2NjU4MjE5NTQ1LCJ5Ijo3NjUuNzE3MTg5Nzg4ODE4NH1d" data-look="classic" marker-end="url(#g9cdcbbd9-7d08-4eaa-bf73-538d313abd50-dark_flowchart-v2-pointEnd)"></path><path d="M665.466,371.197L665.466,390.924C665.466,410.652,665.466,450.107,668.714,476.781C671.963,503.455,678.46,517.347,681.708,524.293L684.957,531.239" id="g9cdcbbd9-7d08-4eaa-bf73-538d313abd50-dark-L_Implicit_AC_0" class="edge-thickness-normal edge-pattern-dotted edge-thickness-normal edge-pattern-solid flowchart-link" style=";" data-edge="true" data-et="edge" data-id="L_Implicit_AC_0" data-points="W3sieCI6NjY1LjQ2NTYyOTU3NzYzNjcsInkiOjM3MS4xOTY4NzY1MjU4Nzg5fSx7IngiOjY2NS40NjU2Mjk1Nzc2MzY3LCJ5Ijo0ODkuNTYyNTAzODE0Njk3Mjd9LHsieCI6Njg2LjY1MTA3NDE0ODM2MjIsInkiOjUzNC44NjI1MDMwNTE3NTc4fV0=" data-look="classic" marker-end="url(#g9cdcbbd9-7d08-4eaa-bf73-538d313abd50-dark_flowchart-v2-pointEnd)"></path><path d="M916.755,371.197L916.755,390.924C916.755,410.652,916.755,450.107,901.168,477.103C885.581,504.099,854.408,518.636,838.821,525.904L823.235,533.172" id="g9cdcbbd9-7d08-4eaa-bf73-538d313abd50-dark-L_ROPC_AC_0" class="edge-thickness-normal edge-pattern-dotted edge-thickness-normal edge-pattern-solid flowchart-link" style=";" data-edge="true" data-et="edge" data-id="L_ROPC_AC_0" data-points="W3sieCI6OTE2Ljc1NDY5MjA3NzYzNjcsInkiOjM3MS4xOTY4NzY1MjU4Nzg5fSx7IngiOjkxNi43NTQ2OTIwNzc2MzY3LCJ5Ijo0ODkuNTYyNTAzODE0Njk3Mjd9LHsieCI6ODE5LjYwOTYzNTA5Njg3OTMsInkiOjUzNC44NjI1MDMwNTE3NTc4fV0=" data-look="classic" marker-end="url(#g9cdcbbd9-7d08-4eaa-bf73-538d313abd50-dark_flowchart-v2-pointEnd)"></path></g><g class="edgeLabels"><g class="edgeLabel" transform="translate(364.9093780517578, 203.83124923706055)"><g class="label" data-id="L_Start_HasUI_0" transform="translate(0, -10.5)"><g><rect class="background" style="" x="-62.09375" y="-1" width="124.1875" height="23"></rect><text y="-10.1" text-anchor="middle" style=""><tspan class="text-outer-tspan row" x="0" y="-0.1em" dy="1.1em" text-anchor="middle"><tspan font-style="normal" class="text-inner-tspan" font-weight="normal">End</tspan><tspan font-style="normal" class="text-inner-tspan" font-weight="normal"> user</tspan><tspan font-style="normal" class="text-inner-tspan" font-weight="normal"> present</tspan></tspan></text></g></g></g><g class="edgeLabel" transform="translate(112.671875, 203.83124923706055)"><g class="label" data-id="L_Start_CC_0" transform="translate(0, -19.299999237060547)"><g><rect class="background" style="" x="-74.703125" y="-1" width="149.40625" height="40.599998474121094"></rect><text y="-10.1" text-anchor="middle" style=""><tspan class="text-outer-tspan row" x="0" y="-0.1em" dy="1.1em" text-anchor="middle"><tspan font-style="normal" class="text-inner-tspan" font-weight="normal">No</tspan><tspan font-style="normal" class="text-inner-tspan" font-weight="normal"> user</tspan><tspan font-style="normal" class="text-inner-tspan" font-weight="normal"> —</tspan><tspan font-style="normal" class="text-inner-tspan" font-weight="normal"> service</tspan><tspan font-style="normal" class="text-inner-tspan" font-weight="normal"> to</tspan></tspan><tspan class="text-outer-tspan row" x="0" y="1em" dy="1.1em" text-anchor="middle"><tspan font-style="normal" class="text-inner-tspan" font-weight="normal">service</tspan></tspan></text></g></g></g><g class="edgeLabel" transform="translate(476.9499, 496.47569)"><g class="label" data-id="L_HasUI_AC_0" transform="translate(0, -19.299999237060547)"><g><rect class="background" style="" x="-84.09375" y="-1" width="168.1875" height="40.599998474121094"></rect><text y="-10.1" text-anchor="middle" style=""><tspan class="text-outer-tspan row" x="0" y="-0.1em" dy="1.1em" text-anchor="middle"><tspan font-style="normal" class="text-inner-tspan" font-weight="normal">Yes</tspan><tspan font-style="normal" class="text-inner-tspan" font-weight="normal"> —</tspan><tspan font-style="normal" class="text-inner-tspan" font-weight="normal"> browser,</tspan><tspan font-style="normal" class="text-inner-tspan" font-weight="normal"> mobile,</tspan></tspan><tspan class="text-outer-tspan row" x="0" y="1em" dy="1.1em" text-anchor="middle"><tspan font-style="normal" class="text-inner-tspan" font-weight="normal">desktop,</tspan><tspan font-style="normal" class="text-inner-tspan" font-weight="normal"> SPA</tspan></tspan></text></g></g></g><g class="edgeLabel" transform="translate(270.9484405517578, 489.56250381469727)"><g class="label" data-id="L_HasUI_DC_0" transform="translate(0, -19.299999237060547)"><g><rect class="background" style="" x="-83.828125" y="-1" width="167.65625" height="40.599998474121094"></rect><text y="-10.1" text-anchor="middle" style=""><tspan class="text-outer-tspan row" x="0" y="-0.1em" dy="1.1em" text-anchor="middle"><tspan font-style="normal" class="text-inner-tspan" font-weight="normal">No</tspan><tspan font-style="normal" class="text-inner-tspan" font-weight="normal"> /</tspan><tspan font-style="normal" class="text-inner-tspan" font-weight="normal"> input-constrained</tspan></tspan><tspan class="text-outer-tspan row" x="0" y="1em" dy="1.1em" text-anchor="middle"><tspan font-style="normal" class="text-inner-tspan" font-weight="normal">TV,</tspan><tspan font-style="normal" class="text-inner-tspan" font-weight="normal"> CLI,</tspan><tspan font-style="normal" class="text-inner-tspan" font-weight="normal"> IoT</tspan></tspan></text></g></g></g><g class="edgeLabel"><g class="label" data-id="L_AC_Refresh_0" transform="translate(0, 0)"><text y="-10.1" text-anchor="middle"><tspan class="text-outer-tspan row" x="0" y="-0.1em" dy="1.1em" text-anchor="middle"></tspan></text></g></g><g><rect class="background" style="stroke: none"></rect></g><g class="edgeLabel"><g class="label" data-id="L_DC_Refresh_0" transform="translate(0, 0)"><text y="-10.1" text-anchor="middle"><tspan class="text-outer-tspan row" x="0" y="-0.1em" dy="1.1em" text-anchor="middle"></tspan></text></g></g><g><rect class="background" style="stroke: none"></rect></g><g class="edgeLabel" transform="translate(860.7206344604492, 924.8718719482422)"><g class="label" data-id="L_Refresh_RT_0" transform="translate(0, -10.5)"><g><rect class="background" style="" x="-13.328125" y="-1" width="26.65625" height="23"></rect><text y="-10.1" text-anchor="middle" style=""><tspan class="text-outer-tspan row" x="0" y="-0.1em" dy="1.1em" text-anchor="middle"><tspan font-style="normal" class="text-inner-tspan" font-weight="normal">Yes</tspan></tspan></text></g></g></g><g class="edgeLabel" transform="translate(598.5106201171875, 924.8718719482422)"><g class="label" data-id="L_Refresh_Done_0" transform="translate(0, -10.5)"><g><rect class="background" style="" x="-11.3984375" y="-1" width="22.796875" height="23"></rect><text y="-10.1" text-anchor="middle" style=""><tspan class="text-outer-tspan row" x="0" y="-0.1em" dy="1.1em" text-anchor="middle"><tspan font-style="normal" class="text-inner-tspan" font-weight="normal">No</tspan></tspan></text></g></g></g><g class="edgeLabel" transform="translate(462.96756, 682.83658)"><g class="label" data-id="L_AC_OIDC_0" transform="translate(0, -10.5)"><g><rect class="background" style="" x="-58.78125" y="-1" width="117.5625" height="23"></rect><text y="-10.1" text-anchor="middle" style=""><tspan class="text-outer-tspan row" x="0" y="-0.1em" dy="1.1em" text-anchor="middle"><tspan font-style="normal" class="text-inner-tspan" font-weight="normal">Identity</tspan><tspan font-style="normal" class="text-inner-tspan" font-weight="normal"> needed</tspan></tspan></text></g></g></g><g class="edgeLabel" transform="translate(244.78325, 694.29041)"><g class="label" data-id="L_DC_OIDC_0" transform="translate(0, -10.5)"><g><rect class="background" style="" x="-58.78125" y="-1" width="117.5625" height="23"></rect><text y="-10.1" text-anchor="middle" style=""><tspan class="text-outer-tspan row" x="0" y="-0.1em" dy="1.1em" text-anchor="middle"><tspan font-style="normal" class="text-inner-tspan" font-weight="normal">Identity</tspan><tspan font-style="normal" class="text-inner-tspan" font-weight="normal"> needed</tspan></tspan></text></g></g></g><g class="edgeLabel" transform="translate(665.4656295776367, 489.56250381469727)"><g class="label" data-id="L_Implicit_AC_0" transform="translate(0, -10.5)"><g><rect class="background" style="" x="-82.8671875" y="-1" width="165.734375" height="23"></rect><text y="-10.1" text-anchor="middle" style=""><tspan class="text-outer-tspan row" x="0" y="-0.1em" dy="1.1em" text-anchor="middle"><tspan font-style="normal" class="text-inner-tspan" font-weight="normal">Removed</tspan><tspan font-style="normal" class="text-inner-tspan" font-weight="normal"> in</tspan><tspan font-style="normal" class="text-inner-tspan" font-weight="normal"> OAuth</tspan><tspan font-style="normal" class="text-inner-tspan" font-weight="normal"> 2_1</tspan></tspan></text></g></g></g><g class="edgeLabel" transform="translate(916.7546920776367, 489.56250381469727)"><g class="label" data-id="L_ROPC_AC_0" transform="translate(0, -10.5)"><g><rect class="background" style="" x="-82.8671875" y="-1" width="165.734375" height="23"></rect><text y="-10.1" text-anchor="middle" style=""><tspan class="text-outer-tspan row" x="0" y="-0.1em" dy="1.1em" text-anchor="middle"><tspan font-style="normal" class="text-inner-tspan" font-weight="normal">Removed</tspan><tspan font-style="normal" class="text-inner-tspan" font-weight="normal"> in</tspan><tspan font-style="normal" class="text-inner-tspan" font-weight="normal"> OAuth</tspan><tspan font-style="normal" class="text-inner-tspan" font-weight="normal"> 2_1</tspan></tspan></text></g></g></g></g><g class="nodes"><g class="node default" id="g9cdcbbd9-7d08-4eaa-bf73-538d313abd50-dark-flowchart-Start-0" data-look="classic" transform="translate(238.7906265258789, 83.265625)"><polygon points="75.265625,0 150.53125,-75.265625 75.265625,-150.53125 0,-75.265625" class="label-container" transform="translate(-74.765625, 75.265625)"></polygon><g class="label" style="" transform="translate(0, -9.5)"><rect></rect><g><rect class="background" style="stroke: none"></rect><text y="-10.1" style=""><tspan class="text-outer-tspan row" x="0" y="-0.1em" dy="1.1em"><tspan font-style="normal" class="text-inner-tspan" font-weight="normal">Who</tspan><tspan font-style="normal" class="text-inner-tspan" font-weight="normal"> is</tspan><tspan font-style="normal" class="text-inner-tspan" font-weight="normal"> acting?</tspan></tspan></text></g></g></g><g class="node default" id="g9cdcbbd9-7d08-4eaa-bf73-538d313abd50-dark-flowchart-HasUI-2" data-look="classic" transform="translate(364.9093780517578, 346.6968765258789)"><polygon points="97.56562423706055,0 195.1312484741211,-97.56562423706055 97.56562423706055,-195.1312484741211 0,-97.56562423706055" class="label-container" transform="translate(-97.06562423706055, 97.56562423706055)"></polygon><g class="label" style="" transform="translate(0, -18.299999237060547)"><rect></rect><g><rect class="background" style="stroke: none"></rect><text y="-10.1" style=""><tspan class="text-outer-tspan row" x="0" y="-0.1em" dy="1.1em"><tspan font-style="normal" class="text-inner-tspan" font-weight="normal">Can</tspan><tspan font-style="normal" class="text-inner-tspan" font-weight="normal"> the</tspan><tspan font-style="normal" class="text-inner-tspan" font-weight="normal"> device</tspan></tspan><tspan class="text-outer-tspan row" x="0" y="1em" dy="1.1em"><tspan font-style="normal" class="text-inner-tspan" font-weight="normal">render</tspan><tspan font-style="normal" class="text-inner-tspan" font-weight="normal"> a</tspan><tspan font-style="normal" class="text-inner-tspan" font-weight="normal"> browser?</tspan></tspan></text></g></g></g><g class="node default" id="g9cdcbbd9-7d08-4eaa-bf73-538d313abd50-dark-flowchart-CC-4" data-look="classic" transform="translate(112.671875, 346.6968765258789)"><rect class="basic label-container" style="" x="-104.671875" y="-33.29999923706055" width="209.34375" height="66.5999984741211"></rect><g class="label" style="" transform="translate(0, -18.299999237060547)"><rect></rect><g><rect class="background" style="stroke: none"></rect><text y="-10.1" style=""><tspan class="text-outer-tspan row" x="0" y="-0.1em" dy="1.1em"><tspan font-style="normal" class="text-inner-tspan" font-weight="normal">Client</tspan><tspan font-style="normal" class="text-inner-tspan" font-weight="normal"> Credentials</tspan></tspan><tspan class="text-outer-tspan row" x="0" y="1em" dy="1.1em"><tspan font-style="normal" class="text-inner-tspan" font-weight="normal">RFC</tspan><tspan font-style="normal" class="text-inner-tspan" font-weight="normal"> 6749</tspan><tspan font-style="normal" class="text-inner-tspan" font-weight="normal"> section</tspan><tspan font-style="normal" class="text-inner-tspan" font-weight="normal"> 4.4</tspan></tspan></text></g></g></g><g class="node default" id="g9cdcbbd9-7d08-4eaa-bf73-538d313abd50-dark-flowchart-AC-6" data-look="classic" transform="translate(710.4554710388184, 585.7625045776367)"><rect class="basic label-container" style="" x="-121.5078125" y="-50.900001525878906" width="243.015625" height="101.80000305175781"></rect><g class="label" style="" transform="translate(0, -35.900001525878906)"><rect></rect><g><rect class="background" style="stroke: none"></rect><text y="-10.1" style=""><tspan class="text-outer-tspan row" x="0" y="-0.1em" dy="1.1em"><tspan font-style="normal" class="text-inner-tspan" font-weight="normal">Authorization</tspan><tspan font-style="normal" class="text-inner-tspan" font-weight="normal"> Code</tspan></tspan><tspan class="text-outer-tspan row" x="0" y="1em" dy="1.1em"><tspan font-style="normal" class="text-inner-tspan" font-weight="normal">+</tspan><tspan font-style="normal" class="text-inner-tspan" font-weight="normal"> PKCE</tspan></tspan><tspan class="text-outer-tspan row" x="0" y="2.1em" dy="1.1em"><tspan font-style="normal" class="text-inner-tspan" font-weight="normal">RFC</tspan><tspan font-style="normal" class="text-inner-tspan" font-weight="normal"> 6749</tspan><tspan font-style="normal" class="text-inner-tspan" font-weight="normal"> section</tspan><tspan font-style="normal" class="text-inner-tspan" font-weight="normal"> 4.1</tspan><tspan font-style="normal" class="text-inner-tspan" font-weight="normal"> plus</tspan></tspan><tspan class="text-outer-tspan row" x="0" y="3.2em" dy="1.1em"><tspan font-style="normal" class="text-inner-tspan" font-weight="normal">RFC</tspan><tspan font-style="normal" class="text-inner-tspan" font-weight="normal"> 7636</tspan></tspan></text></g></g></g><g class="node default" id="g9cdcbbd9-7d08-4eaa-bf73-538d313abd50-dark-flowchart-DC-8" data-look="classic" transform="translate(270.9484405517578, 585.7625045776367)"><rect class="basic label-container" style="" x="-126.8828125" y="-33.29999923706055" width="253.765625" height="66.5999984741211"></rect><g class="label" style="" transform="translate(0, -18.299999237060547)"><rect></rect><g><rect class="background" style="stroke: none"></rect><text y="-10.1" style=""><tspan class="text-outer-tspan row" x="0" y="-0.1em" dy="1.1em"><tspan font-style="normal" class="text-inner-tspan" font-weight="normal">Device</tspan><tspan font-style="normal" class="text-inner-tspan" font-weight="normal"> Authorization</tspan><tspan font-style="normal" class="text-inner-tspan" font-weight="normal"> Grant</tspan></tspan><tspan class="text-outer-tspan row" x="0" y="1em" dy="1.1em"><tspan font-style="normal" class="text-inner-tspan" font-weight="normal">RFC</tspan><tspan font-style="normal" class="text-inner-tspan" font-weight="normal"> 8628</tspan></tspan></text></g></g></g><g class="node default" id="g9cdcbbd9-7d08-4eaa-bf73-538d313abd50-dark-flowchart-Refresh-10" data-look="classic" transform="translate(609.5703125, 799.0171890258789)"><polygon points="89.35468673706055,0 178.7093734741211,-89.35468673706055 89.35468673706055,-178.7093734741211 0,-89.35468673706055" class="label-container" transform="translate(-88.85468673706055, 89.35468673706055)"></polygon><g class="label" style="" transform="translate(0, -18.299999237060547)"><rect></rect><g><rect class="background" style="stroke: none"></rect><text y="-10.1" style=""><tspan class="text-outer-tspan row" x="0" y="-0.1em" dy="1.1em"><tspan font-style="normal" class="text-inner-tspan" font-weight="normal">Need</tspan><tspan font-style="normal" class="text-inner-tspan" font-weight="normal"> long-lived</tspan></tspan><tspan class="text-outer-tspan row" x="0" y="1em" dy="1.1em"><tspan font-style="normal" class="text-inner-tspan" font-weight="normal">session?</tspan></tspan></text></g></g></g><g class="node default" id="g9cdcbbd9-7d08-4eaa-bf73-538d313abd50-dark-flowchart-RT-14" data-look="classic" transform="translate(860.7206344604492, 1003.4718704223633)"><rect class="basic label-container" style="" x="-117.625" y="-42.099998474121094" width="235.25" height="84.19999694824219"></rect><g class="label" style="" transform="translate(0, -27.099998474121094)"><rect></rect><g><rect class="background" style="stroke: none"></rect><text y="-10.1" style=""><tspan class="text-outer-tspan row" x="0" y="-0.1em" dy="1.1em"><tspan font-style="normal" class="text-inner-tspan" font-weight="normal">Refresh</tspan><tspan font-style="normal" class="text-inner-tspan" font-weight="normal"> Token</tspan><tspan font-style="normal" class="text-inner-tspan" font-weight="normal"> +</tspan><tspan font-style="normal" class="text-inner-tspan" font-weight="normal"> rotation</tspan></tspan><tspan class="text-outer-tspan row" x="0" y="1em" dy="1.1em"><tspan font-style="normal" class="text-inner-tspan" font-weight="normal">or</tspan><tspan font-style="normal" class="text-inner-tspan" font-weight="normal"> sender-constraint</tspan></tspan><tspan class="text-outer-tspan row" x="0" y="2.1em" dy="1.1em"><tspan font-style="normal" class="text-inner-tspan" font-weight="normal">OAuth</tspan><tspan font-style="normal" class="text-inner-tspan" font-weight="normal"> 2.1</tspan></tspan></text></g></g></g><g class="node default" id="g9cdcbbd9-7d08-4eaa-bf73-538d313abd50-dark-flowchart-Done-16" data-look="classic" transform="translate(598.5106201171875, 1003.4718704223633)"><g class="basic label-container outer-path"><path d="M-77.59375 -17 C-19.8455278100514 -17, 37.9026943798972 -17, 77.59375 -17 C77.59375 -17, 77.59375 -17, 77.59375 -17 C77.90820233149132 -16.989916125773405, 78.22265466298265 -16.97983225154681, 78.68294373967211 -16.965071676755716 C79.11682090520311 -16.92321606841058, 79.55069807073411 -16.881360460065437, 79.7676617486366 -16.860430234995185 C80.06124948670622 -16.812965246311002, 80.35483722477582 -16.765500257626822, 80.84344668792333 -16.686505668848113 C81.1916766608965 -16.607024449929927, 81.53990663386968 -16.527543231011744, 81.90587792646163 -16.4440126716635 C82.28124335498202 -16.332606182811986, 82.65660878350243 -16.22119969396047, 82.95058970640156 -16.133947699181366 C83.19925598895924 -16.042436208554225, 83.4479222715169 -15.950924717927082, 83.97328908294936 -15.757584874882369 C84.23391663250585 -15.642212789935277, 84.49454418206234 -15.526840704988183, 84.96977356499849 -15.316470754341125 C85.20837351146162 -15.19199331510187, 85.44697345792474 -15.067515875862615, 85.93594838406693 -14.812417970097622 C86.13623011234341 -14.691006009430346, 86.33651184061988 -14.56959404876307, 86.86784332057933 -14.247497783161291 C87.07107258074525 -14.105733848922426, 87.27430184091116 -13.96396991468356, 87.76162901835067 -13.624031571755262 C87.96480969178468 -13.462000391556435, 88.16799036521869 -13.299969211357608, 88.6136327202324 -12.944581292275288 C88.86624274786662 -12.715167548872962, 89.11885277550086 -12.485753805470637, 89.42035336025927 -12.21193895166137 C89.67416471900759 -11.949857885453635, 89.92797607775591 -11.687776819245899, 90.17847595028036 -11.42911513444239 C90.3990017877421 -11.170072937484209, 90.61952762520383 -10.911030740526028, 90.88488520195651 -10.59932663159847 C91.0898363347436 -10.324710785096078, 91.29478746753068 -10.050094938593688, 91.53667832814824 -9.725983222076888 C91.6669898604922 -9.525789714850577, 91.79730139283616 -9.325596207624265, 92.13117697109088 -8.812673661278927 C92.30373418867816 -8.50628084813969, 92.47629140626545 -8.199888035000454, 92.665938208341 -7.863150934094199 C92.79699137642112 -7.5910162264872465, 92.92804454450123 -7.318881518880294, 93.13876459126881 -6.881316833080699 C93.25245019425641 -6.600511195739719, 93.36613579724401 -6.31970555839874, 93.54771317484592 -5.871205925162238 C93.63011557414036 -5.623023027526748, 93.71251797343481 -5.374840129891258, 93.89110350162323 -4.836968972727556 C93.98892629592379 -4.463928261392314, 94.08674909022433 -4.090887550057073, 94.167524507091 -3.7828558772573464 C94.24038475985111 -3.408733878354048, 94.31324501261122 -3.0346118794507495, 94.37584031804565 -2.713198215567453 C94.41741304196636 -2.3907683783013405, 94.45898576588706 -2.068338541035228, 94.51519492013637 -1.632391440430593 C94.53338039291178 -1.3491380229040257, 94.55156586568721 -1.0658846053774584, 94.5850156754117 -0.5448768187181379 C94.5850156754117 -0.300906035339091, 94.5850156754117 -0.056935251960044064, 94.5850156754117 0.5448768187181336 C94.55858746080553 0.9565175936800241, 94.53215924619936 1.3681583686419145, 94.51519492013637 1.6323914404305815 C94.47243974003274 1.9639921743490107, 94.42968455992911 2.29559290826744, 94.37584031804565 2.7131982155674415 C94.32179952152683 2.990686284165234, 94.267758725008 3.2681743527630274, 94.167524507091 3.782855877257343 C94.09491869399241 4.059733310160714, 94.02231288089382 4.336610743064084, 93.89110350162323 4.836968972727545 C93.77191459559236 5.195946967519245, 93.6527256895615 5.554924962310945, 93.54771317484592 5.871205925162227 C93.40205116866342 6.230993896616329, 93.25638916248091 6.590781868070433, 93.13876459126881 6.881316833080694 C93.02022342783879 7.127470095317718, 92.90168226440876 7.373623357554742, 92.665938208341 7.863150934094196 C92.52206999907754 8.118603507877387, 92.37820178981407 8.374056081660576, 92.13117697109088 8.812673661278923 C91.95564745740074 9.082334130581108, 91.78011794371061 9.351994599883293, 91.53667832814826 9.725983222076879 C91.3702484701722 9.948984069692823, 91.20381861219613 10.171984917308766, 90.88488520195651 10.599326631598467 C90.72642599753324 10.785461829698203, 90.56796679310996 10.97159702779794, 90.17847595028037 11.42911513444238 C89.9572573579053 11.657541493453838, 89.73603876553025 11.885967852465296, 89.42035336025927 12.211938951661365 C89.2497739817522 12.366854629938453, 89.07919460324513 12.521770308215542, 88.61363272023242 12.944581292275275 C88.3479363832688 13.15646705052729, 88.08224004630519 13.368352808779305, 87.76162901835067 13.62403157175526 C87.507807236682 13.80108665887949, 87.25398545501334 13.978141746003717, 86.86784332057934 14.247497783161286 C86.55792693524268 14.435370917223208, 86.24801054990601 14.623244051285132, 85.93594838406695 14.81241797009762 C85.73856992991706 14.915390183200678, 85.54119147576718 15.018362396303738, 84.96977356499849 15.316470754341124 C84.61029925594778 15.475599367531364, 84.25082494689708 15.634727980721605, 83.97328908294936 15.757584874882367 C83.61992445899686 15.887626322963664, 83.26655983504436 16.017667771044962, 82.95058970640156 16.133947699181363 C82.58274952426073 16.243120734408244, 82.21490934211991 16.352293769635125, 81.90587792646164 16.444012671663497 C81.52092715397097 16.53187517344594, 81.1359763814803 16.61973767522838, 80.84344668792333 16.68650566884811 C80.61657454345335 16.723184597746258, 80.38970239898337 16.75986352664441, 79.76766174863661 16.86043023499518 C79.48856626464986 16.887354240673954, 79.20947078066311 16.91427824635273, 78.68294373967211 16.965071676755716 C78.2823083111419 16.977919275159127, 77.88167288261168 16.990766873562535, 77.59375 17 C77.59375 17, 77.59375 17, 77.59375 17 C33.64842960575432 17, -10.296890788491353 17, -77.59375 17 C-77.9314545493083 16.98917047240571, -78.2691590986166 16.978340944811425, -78.68294373967211 16.965071676755716 C-79.04739555401018 16.929913448543957, -79.41184736834826 16.894755220332197, -79.7676617486366 16.86043023499518 C-80.13064398222873 16.80174608243727, -80.49362621582087 16.743061929879357, -80.84344668792333 16.68650566884811 C-81.09916077779134 16.628140596526123, -81.35487486765933 16.569775524204132, -81.90587792646161 16.4440126716635 C-82.1731822500154 16.364678151541764, -82.44048657356919 16.285343631420027, -82.95058970640154 16.13394769918137 C-83.22381195725237 16.03339938522947, -83.49703420810319 15.932851071277566, -83.97328908294936 15.757584874882369 C-84.28466280318425 15.61974896550762, -84.59603652341913 15.481913056132873, -84.96977356499849 15.316470754341127 C-85.2986187845797 15.144912413921023, -85.62746400416091 14.97335407350092, -85.93594838406693 14.812417970097624 C-86.1535888185871 14.680483059694344, -86.37122925310724 14.548548149291065, -86.86784332057931 14.247497783161299 C-87.13568704173451 14.060661598051245, -87.40353076288972 13.873825412941192, -87.76162901835067 13.624031571755264 C-88.04117007986949 13.40110501409407, -88.3207111413883 13.178178456432875, -88.6136327202324 12.94458129227529 C-88.8649978726705 12.716298111588491, -89.1163630251086 12.488014930901691, -89.42035336025926 12.211938951661377 C-89.71519271221408 11.907493114007051, -90.01003206416888 11.603047276352726, -90.17847595028036 11.429115134442386 C-90.39890864803486 11.170182344684115, -90.61934134578938 10.911249554925844, -90.88488520195651 10.599326631598473 C-91.0326583397128 10.401324089414848, -91.18043147746907 10.203321547231225, -91.53667832814824 9.72598322207689 C-91.66298106333113 9.531948303802741, -91.78928379851402 9.337913385528593, -92.13117697109088 8.812673661278936 C-92.33421477249617 8.45215948507703, -92.53725257390145 8.091645308875123, -92.665938208341 7.863150934094201 C-92.78813235136987 7.6094121815589455, -92.91032649439873 7.355673429023691, -93.13876459126881 6.881316833080701 C-93.26991044275444 6.55738404437864, -93.40105629424008 6.233451255676579, -93.54771317484592 5.87120592516224 C-93.68010480716202 5.472463422368188, -93.81249643947811 5.073720919574136, -93.89110350162323 4.8369689727275516 C-93.98156743711722 4.491990779371339, -94.07203137261119 4.147012586015126, -94.167524507091 3.782855877257349 C-94.21296000619353 3.5495541921620197, -94.25839550529605 3.3162525070666904, -94.37584031804565 2.713198215567455 C-94.40384274230182 2.496016942740747, -94.43184516655798 2.278835669914039, -94.51519492013637 1.6323914404306026 C-94.53181544424805 1.3735133615455752, -94.54843596835973 1.114635282660548, -94.5850156754117 0.54487681871814 C-94.5850156754117 0.2709794588553868, -94.5850156754117 -0.0029179010073663303, -94.5850156754117 -0.5448768187181317 C-94.5693534286881 -0.7888289537760231, -94.55369118196452 -1.0327810888339146, -94.51519492013637 -1.6323914404305793 C-94.48276777048513 -1.8838900096606297, -94.45034062083388 -2.13538857889068, -94.37584031804565 -2.713198215567447 C-94.30049380399086 -3.1000866407473735, -94.22514728993609 -3.4869750659273, -94.167524507091 -3.782855877257341 C-94.08122830855348 -4.111940683289956, -93.99493211001595 -4.441025489322571, -93.89110350162323 -4.836968972727544 C-93.81480407472317 -5.066770689887764, -93.7385046478231 -5.296572407047984, -93.54771317484594 -5.871205925162218 C-93.41598471881109 -6.196577758364741, -93.28425626277622 -6.521949591567266, -93.13876459126881 -6.881316833080692 C-92.99643332549354 -7.1768707518642785, -92.85410205971826 -7.472424670647865, -92.665938208341 -7.863150934094194 C-92.46548187348515 -8.21908145503575, -92.26502553862929 -8.575011975977306, -92.13117697109088 -8.812673661278929 C-91.95865508726392 -9.077713603449558, -91.78613320343698 -9.34275354562019, -91.53667832814826 -9.725983222076884 C-91.33128914169848 -10.001186020579778, -91.12589995524868 -10.276388819082674, -90.88488520195651 -10.599326631598467 C-90.61340678391136 -10.9182206289939, -90.34192836586621 -11.237114626389332, -90.17847595028037 -11.42911513444238 C-89.96305967120209 -11.651550128596126, -89.74764339212382 -11.873985122749872, -89.42035336025927 -12.21193895166136 C-89.18843821911398 -12.422558146711134, -88.95652307796868 -12.63317734176091, -88.61363272023242 -12.944581292275274 C-88.3299642550729 -13.170799344505113, -88.04629578991336 -13.397017396734952, -87.76162901835067 -13.624031571755259 C-87.44330990493815 -13.846077205459508, -87.12499079152563 -14.068122839163756, -86.86784332057934 -14.247497783161284 C-86.5216398208008 -14.457368379244626, -86.17543632102227 -14.667238975327965, -85.93594838406695 -14.812417970097618 C-85.55751279451432 -15.009847574767656, -85.1790772049617 -15.207277179437694, -84.96977356499849 -15.316470754341124 C-84.66221726753238 -15.452616803895955, -84.35466097006629 -15.588762853450785, -83.97328908294936 -15.757584874882365 C-83.70321304488449 -15.856975353445765, -83.43313700681963 -15.956365832009165, -82.95058970640156 -16.133947699181363 C-82.64103720026992 -16.22582125812697, -82.33148469413828 -16.317694817072578, -81.90587792646164 -16.444012671663494 C-81.49703543137088 -16.53732830322135, -81.0881929362801 -16.630643934779208, -80.84344668792333 -16.68650566884811 C-80.53264054415783 -16.736754395834474, -80.22183440039232 -16.787003122820835, -79.76766174863661 -16.86043023499518 C-79.54860613096378 -16.881562266979156, -79.32955051329094 -16.90269429896313, -78.68294373967213 -16.965071676755716 C-78.38153871770132 -16.974737149161037, -78.08013369573052 -16.984402621566353, -77.59375 -17 C-77.59375 -17, -77.59375 -17, -77.59375 -17" stroke="none" stroke-width="0" fill="#2d2d2d" style=""></path><path d="M-77.59375 -17 C-45.528878946483516 -17, -13.464007892967032 -17, 77.59375 -17 M-77.59375 -17 C-16.221937436326805 -17, 45.14987512734639 -17, 77.59375 -17 M77.59375 -17 C77.59375 -17, 77.59375 -17, 77.59375 -17 M77.59375 -17 C77.59375 -17, 77.59375 -17, 77.59375 -17 M77.59375 -17 C77.85522816008353 -16.991614904342484, 78.11670632016707 -16.983229808684968, 78.68294373967211 -16.965071676755716 M77.59375 -17 C77.86267166288083 -16.991376205695673, 78.13159332576167 -16.98275241139135, 78.68294373967211 -16.965071676755716 M78.68294373967211 -16.965071676755716 C79.06142101995592 -16.928560428712267, 79.4398983002397 -16.892049180668813, 79.7676617486366 -16.860430234995185 M78.68294373967211 -16.965071676755716 C78.92711739417393 -16.94151653796771, 79.17129104867576 -16.917961399179703, 79.7676617486366 -16.860430234995185 M79.7676617486366 -16.860430234995185 C80.00770525347731 -16.82162186269772, 80.24774875831802 -16.782813490400258, 80.84344668792333 -16.686505668848113 M79.7676617486366 -16.860430234995185 C79.999202471694 -16.822996526516388, 80.23074319475143 -16.78556281803759, 80.84344668792333 -16.686505668848113 M80.84344668792333 -16.686505668848113 C81.2182811123234 -16.600952157502007, 81.59311553672347 -16.515398646155905, 81.90587792646163 -16.4440126716635 M80.84344668792333 -16.686505668848113 C81.1380479084528 -16.61926486271489, 81.43264912898226 -16.552024056581665, 81.90587792646163 -16.4440126716635 M81.90587792646163 -16.4440126716635 C82.13791638658248 -16.375144874694364, 82.36995484670332 -16.30627707772523, 82.95058970640156 -16.133947699181366 M81.90587792646163 -16.4440126716635 C82.21870108343312 -16.35116840071662, 82.53152424040462 -16.25832412976974, 82.95058970640156 -16.133947699181366 M82.95058970640156 -16.133947699181366 C83.26337170517935 -16.018841032306035, 83.57615370395715 -15.903734365430704, 83.97328908294936 -15.757584874882369 M82.95058970640156 -16.133947699181366 C83.26577143177711 -16.017957910735234, 83.58095315715266 -15.901968122289098, 83.97328908294936 -15.757584874882369 M83.97328908294936 -15.757584874882369 C84.25863453834043 -15.631270906252933, 84.54397999373151 -15.504956937623497, 84.96977356499849 -15.316470754341125 M83.97328908294936 -15.757584874882369 C84.28990389847552 -15.617428888093748, 84.60651871400165 -15.477272901305128, 84.96977356499849 -15.316470754341125 M84.96977356499849 -15.316470754341125 C85.16509403189477 -15.214572191870069, 85.36041449879104 -15.11267362939901, 85.93594838406693 -14.812417970097622 M84.96977356499849 -15.316470754341125 C85.25373639453612 -15.168327528058214, 85.53769922407376 -15.020184301775302, 85.93594838406693 -14.812417970097622 M85.93594838406693 -14.812417970097622 C86.13796296231338 -14.689955545595193, 86.33997754055981 -14.567493121092765, 86.86784332057933 -14.247497783161291 M85.93594838406693 -14.812417970097622 C86.1440517956093 -14.686264459069246, 86.35215520715167 -14.560110948040869, 86.86784332057933 -14.247497783161291 M86.86784332057933 -14.247497783161291 C87.19417657903564 -14.019861828801242, 87.52050983749196 -13.792225874441192, 87.76162901835067 -13.624031571755262 M86.86784332057933 -14.247497783161291 C87.08192723383168 -14.098162112819688, 87.29601114708403 -13.948826442478085, 87.76162901835067 -13.624031571755262 M87.76162901835067 -13.624031571755262 C88.0409493112629 -13.401281071182916, 88.32026960417514 -13.178530570610572, 88.6136327202324 -12.944581292275288 M87.76162901835067 -13.624031571755262 C88.03833598180739 -13.403365131880077, 88.3150429452641 -13.182698692004893, 88.6136327202324 -12.944581292275288 M88.6136327202324 -12.944581292275288 C88.91091335565677 -12.674598884797469, 89.20819399108113 -12.404616477319648, 89.42035336025927 -12.21193895166137 M88.6136327202324 -12.944581292275288 C88.89446980096422 -12.68953248609663, 89.17530688169603 -12.43448367991797, 89.42035336025927 -12.21193895166137 M89.42035336025927 -12.21193895166137 C89.69867533371708 -11.924548663407192, 89.9769973071749 -11.637158375153016, 90.17847595028036 -11.42911513444239 M89.42035336025927 -12.21193895166137 C89.65530340809542 -11.969333737512878, 89.89025345593157 -11.726728523364388, 90.17847595028036 -11.42911513444239 M90.17847595028036 -11.42911513444239 C90.32652150132657 -11.255212406153015, 90.47456705237278 -11.081309677863642, 90.88488520195651 -10.59932663159847 M90.17847595028036 -11.42911513444239 C90.32451431779778 -11.257570158137913, 90.4705526853152 -11.086025181833438, 90.88488520195651 -10.59932663159847 M90.88488520195651 -10.59932663159847 C91.03168984506327 -10.402621784013522, 91.17849448817005 -10.205916936428574, 91.53667832814824 -9.725983222076888 M90.88488520195651 -10.59932663159847 C91.02027945237236 -10.417910670711175, 91.15567370278823 -10.236494709823878, 91.53667832814824 -9.725983222076888 M91.53667832814824 -9.725983222076888 C91.72778062146588 -9.432398781390027, 91.91888291478351 -9.138814340703165, 92.13117697109088 -8.812673661278927 M91.53667832814824 -9.725983222076888 C91.7273429223347 -9.433071204794194, 91.91800751652114 -9.1401591875115, 92.13117697109088 -8.812673661278927 M92.13117697109088 -8.812673661278927 C92.33738356721929 -8.446532969170866, 92.54359016334769 -8.080392277062804, 92.665938208341 -7.863150934094199 M92.13117697109088 -8.812673661278927 C92.27760141734147 -8.552682229878037, 92.42402586359205 -8.292690798477146, 92.665938208341 -7.863150934094199 M92.665938208341 -7.863150934094199 C92.76249377402561 -7.662651235991965, 92.85904933971023 -7.46215153788973, 93.13876459126881 -6.881316833080699 M92.665938208341 -7.863150934094199 C92.84509349505254 -7.491131147928655, 93.02424878176406 -7.119111361763112, 93.13876459126881 -6.881316833080699 M93.13876459126881 -6.881316833080699 C93.30190434350504 -6.478358490964674, 93.46504409574126 -6.07540014884865, 93.54771317484592 -5.871205925162238 M93.13876459126881 -6.881316833080699 C93.25744614005426 -6.5881711130289835, 93.37612768883972 -6.295025392977269, 93.54771317484592 -5.871205925162238 M93.54771317484592 -5.871205925162238 C93.66836425681971 -5.507824089396544, 93.7890153387935 -5.14444225363085, 93.89110350162323 -4.836968972727556 M93.54771317484592 -5.871205925162238 C93.63023168902649 -5.622673307990152, 93.71275020320705 -5.3741406908180664, 93.89110350162323 -4.836968972727556 M93.89110350162323 -4.836968972727556 C93.9951028924012 -4.440374222070034, 94.09910228317919 -4.043779471412511, 94.167524507091 -3.7828558772573464 M93.89110350162323 -4.836968972727556 C93.94750052441731 -4.621902682189454, 94.00389754721138 -4.4068363916513515, 94.167524507091 -3.7828558772573464 M94.167524507091 -3.7828558772573464 C94.21111300589926 -3.559038148309369, 94.25470150470754 -3.3352204193613915, 94.37584031804565 -2.713198215567453 M94.167524507091 -3.7828558772573464 C94.23021966467576 -3.460929493685833, 94.29291482226053 -3.139003110114319, 94.37584031804565 -2.713198215567453 M94.37584031804565 -2.713198215567453 C94.41888124834114 -2.379381259588647, 94.46192217863663 -2.0455643036098405, 94.51519492013637 -1.632391440430593 M94.37584031804565 -2.713198215567453 C94.4291688642661 -2.299592541994185, 94.48249741048656 -1.8859868684209173, 94.51519492013637 -1.632391440430593 M94.51519492013637 -1.632391440430593 C94.53419577487387 -1.3364377906801839, 94.55319662961136 -1.0404841409297747, 94.5850156754117 -0.5448768187181379 M94.51519492013637 -1.632391440430593 C94.53892656248021 -1.2627519550882929, 94.56265820482406 -0.8931124697459927, 94.5850156754117 -0.5448768187181379 M94.5850156754117 -0.5448768187181379 C94.5850156754117 -0.2237835817242293, 94.5850156754117 0.09730965526967927, 94.5850156754117 0.5448768187181336 M94.5850156754117 -0.5448768187181379 C94.5850156754117 -0.23267117520596725, 94.5850156754117 0.07953446830620337, 94.5850156754117 0.5448768187181336 M94.5850156754117 0.5448768187181336 C94.5664856900822 0.8334962973598778, 94.54795570475271 1.122115776001622, 94.51519492013637 1.6323914404305815 M94.5850156754117 0.5448768187181336 C94.5661219726956 0.8391614892436615, 94.5472282699795 1.1334461597691894, 94.51519492013637 1.6323914404305815 M94.51519492013637 1.6323914404305815 C94.46793682659758 1.9989158817513237, 94.42067873305879 2.365440323072066, 94.37584031804565 2.7131982155674415 M94.51519492013637 1.6323914404305815 C94.47337039683877 1.9567741839404045, 94.43154587354118 2.2811569274502275, 94.37584031804565 2.7131982155674415 M94.37584031804565 2.7131982155674415 C94.32157689573519 2.991829420553303, 94.26731347342472 3.2704606255391644, 94.167524507091 3.782855877257343 M94.37584031804565 2.7131982155674415 C94.31310984590796 3.0353059319045013, 94.25037937377027 3.357413648241561, 94.167524507091 3.782855877257343 M94.167524507091 3.782855877257343 C94.0875771869912 4.087729658185605, 94.00762986689139 4.392603439113866, 93.89110350162323 4.836968972727545 M94.167524507091 3.782855877257343 C94.10808493873633 4.009524712665627, 94.04864537038164 4.23619354807391, 93.89110350162323 4.836968972727545 M93.89110350162323 4.836968972727545 C93.7903781459071 5.14033769573853, 93.68965279019096 5.443706418749514, 93.54771317484592 5.871205925162227 M93.89110350162323 4.836968972727545 C93.75422313579841 5.249230825667306, 93.6173427699736 5.6614926786070665, 93.54771317484592 5.871205925162227 M93.54771317484592 5.871205925162227 C93.41165671302986 6.207268016320667, 93.27560025121377 6.543330107479107, 93.13876459126881 6.881316833080694 M93.54771317484592 5.871205925162227 C93.40009028110684 6.235837326792242, 93.25246738736777 6.600468728422258, 93.13876459126881 6.881316833080694 M93.13876459126881 6.881316833080694 C92.9941760254154 7.181558083774999, 92.849587459562 7.481799334469304, 92.665938208341 7.863150934094196 M93.13876459126881 6.881316833080694 C92.98249290538298 7.205818332501042, 92.82622121949716 7.530319831921388, 92.665938208341 7.863150934094196 M92.665938208341 7.863150934094196 C92.47500966575052 8.202163895074996, 92.28408112316004 8.541176856055795, 92.13117697109088 8.812673661278923 M92.665938208341 7.863150934094196 C92.46066603128342 8.227632470521826, 92.25539385422583 8.592114006949457, 92.13117697109088 8.812673661278923 M92.13117697109088 8.812673661278923 C91.95992836111634 9.075757512890354, 91.78867975114179 9.338841364501784, 91.53667832814826 9.725983222076879 M92.13117697109088 8.812673661278923 C91.96175982400615 9.072943894074948, 91.79234267692142 9.33321412687097, 91.53667832814826 9.725983222076879 M91.53667832814826 9.725983222076879 C91.37113592003277 9.94779496772799, 91.2055935119173 10.169606713379101, 90.88488520195651 10.599326631598467 M91.53667832814826 9.725983222076879 C91.39176531586249 9.920153456692798, 91.24685230357672 10.114323691308718, 90.88488520195651 10.599326631598467 M90.88488520195651 10.599326631598467 C90.66649773499707 10.855856976887926, 90.44811026803762 11.112387322177385, 90.17847595028037 11.42911513444238 M90.88488520195651 10.599326631598467 C90.65180384059667 10.873117261356905, 90.41872247923685 11.14690789111534, 90.17847595028037 11.42911513444238 M90.17847595028037 11.42911513444238 C89.96828285452023 11.646156762988836, 89.75808975876006 11.863198391535292, 89.42035336025927 12.211938951661365 M90.17847595028037 11.42911513444238 C89.96234417948828 11.652288932533605, 89.74621240869618 11.875462730624827, 89.42035336025927 12.211938951661365 M89.42035336025927 12.211938951661365 C89.24674374469755 12.3696066110558, 89.07313412913584 12.527274270450237, 88.61363272023242 12.944581292275275 M89.42035336025927 12.211938951661365 C89.23982192344461 12.37589282597637, 89.05929048662995 12.539846700291376, 88.61363272023242 12.944581292275275 M88.61363272023242 12.944581292275275 C88.37866875759565 13.13195879982446, 88.14370479495888 13.319336307373645, 87.76162901835067 13.62403157175526 M88.61363272023242 12.944581292275275 C88.38622151638754 13.125935675675274, 88.15881031254267 13.307290059075271, 87.76162901835067 13.62403157175526 M87.76162901835067 13.62403157175526 C87.56796587634591 13.759122596075489, 87.37430273434114 13.89421362039572, 86.86784332057934 14.247497783161286 M87.76162901835067 13.62403157175526 C87.5724819254673 13.75597239570502, 87.38333483258393 13.88791321965478, 86.86784332057934 14.247497783161286 M86.86784332057934 14.247497783161286 C86.61546385636952 14.40049169751164, 86.36308439215969 14.553485611861992, 85.93594838406695 14.81241797009762 M86.86784332057934 14.247497783161286 C86.5676569303144 14.429472537030934, 86.26747054004946 14.611447290900582, 85.93594838406695 14.81241797009762 M85.93594838406695 14.81241797009762 C85.70322123535654 14.933831574510984, 85.47049408664614 15.055245178924348, 84.96977356499849 15.316470754341124 M85.93594838406695 14.81241797009762 C85.68470790950786 14.94348996474789, 85.43346743494877 15.07456195939816, 84.96977356499849 15.316470754341124 M84.96977356499849 15.316470754341124 C84.71580364301053 15.428895705055131, 84.46183372102257 15.541320655769137, 83.97328908294936 15.757584874882367 M84.96977356499849 15.316470754341124 C84.75615473245006 15.411033474732793, 84.54253589990162 15.505596195124463, 83.97328908294936 15.757584874882367 M83.97328908294936 15.757584874882367 C83.66558720097967 15.870822011812232, 83.35788531900998 15.984059148742096, 82.95058970640156 16.133947699181363 M83.97328908294936 15.757584874882367 C83.56771843500619 15.906838622379428, 83.162147787063 16.05609236987649, 82.95058970640156 16.133947699181363 M82.95058970640156 16.133947699181363 C82.65825766595354 16.220710314304142, 82.36592562550553 16.307472929426922, 81.90587792646164 16.444012671663497 M82.95058970640156 16.133947699181363 C82.54873487176567 16.25321610472222, 82.1468800371298 16.372484510263078, 81.90587792646164 16.444012671663497 M81.90587792646164 16.444012671663497 C81.51964372044458 16.532168108773153, 81.13340951442751 16.62032354588281, 80.84344668792333 16.68650566884811 M81.90587792646164 16.444012671663497 C81.68039701813957 16.495477217587574, 81.45491610981749 16.54694176351165, 80.84344668792333 16.68650566884811 M80.84344668792333 16.68650566884811 C80.44331206020105 16.751196332367865, 80.04317743247877 16.81588699588762, 79.76766174863661 16.86043023499518 M80.84344668792333 16.68650566884811 C80.43238708255208 16.752962598029683, 80.02132747718083 16.819419527211256, 79.76766174863661 16.86043023499518 M79.76766174863661 16.86043023499518 C79.54968741264317 16.881457957035977, 79.33171307664973 16.90248567907677, 78.68294373967211 16.965071676755716 M79.76766174863661 16.86043023499518 C79.39347388262203 16.89652768840286, 79.01928601660745 16.932625141810533, 78.68294373967211 16.965071676755716 M78.68294373967211 16.965071676755716 C78.261485721705 16.978587015073657, 77.8400277037379 16.992102353391594, 77.59375 17 M78.68294373967211 16.965071676755716 C78.28026862415678 16.97798468395073, 77.87759350864143 16.990897691145744, 77.59375 17 M77.59375 17 C77.59375 17, 77.59375 17, 77.59375 17 M77.59375 17 C77.59375 17, 77.59375 17, 77.59375 17 M77.59375 17 C23.341150306636663 17, -30.911449386726673 17, -77.59375 17 M77.59375 17 C37.1141934811262 17, -3.365363037747599 17, -77.59375 17 M-77.59375 17 C-77.93542826045353 16.989043043223642, -78.27710652090707 16.978086086447288, -78.68294373967211 16.965071676755716 M-77.59375 17 C-77.84270923604453 16.99201636186981, -78.09166847208905 16.984032723739617, -78.68294373967211 16.965071676755716 M-78.68294373967211 16.965071676755716 C-79.11669134476888 16.92322856694985, -79.55043894986565 16.881385457143978, -79.7676617486366 16.86043023499518 M-78.68294373967211 16.965071676755716 C-79.05560997002462 16.929121013710326, -79.42827620037713 16.893170350664935, -79.7676617486366 16.86043023499518 M-79.7676617486366 16.86043023499518 C-80.1264827829646 16.80241883286371, -80.48530381729259 16.744407430732245, -80.84344668792333 16.68650566884811 M-79.7676617486366 16.86043023499518 C-80.15916000570672 16.797135832906413, -80.55065826277686 16.73384143081764, -80.84344668792333 16.68650566884811 M-80.84344668792333 16.68650566884811 C-81.22770054560614 16.598802233322765, -81.61195440328895 16.511098797797423, -81.90587792646161 16.4440126716635 M-80.84344668792333 16.68650566884811 C-81.10450086574787 16.626921756297374, -81.36555504357239 16.567337843746643, -81.90587792646161 16.4440126716635 M-81.90587792646161 16.4440126716635 C-82.17521790168765 16.364073980810797, -82.44455787691368 16.28413528995809, -82.95058970640154 16.13394769918137 M-81.90587792646161 16.4440126716635 C-82.14611688986807 16.372711008364515, -82.38635585327454 16.301409345065533, -82.95058970640154 16.13394769918137 M-82.95058970640154 16.13394769918137 C-83.1599175656237 16.056913111982098, -83.36924542484584 15.979878524782828, -83.97328908294936 15.757584874882369 M-82.95058970640154 16.13394769918137 C-83.18462112891687 16.047821972332972, -83.41865255143222 15.961696245484575, -83.97328908294936 15.757584874882369 M-83.97328908294936 15.757584874882369 C-84.33158362204146 15.598978510856169, -84.68987816113358 15.440372146829969, -84.96977356499849 15.316470754341127 M-83.97328908294936 15.757584874882369 C-84.20463254392956 15.655175987266375, -84.43597600490978 15.552767099650382, -84.96977356499849 15.316470754341127 M-84.96977356499849 15.316470754341127 C-85.22838764921202 15.181551952257154, -85.48700173342554 15.046633150173182, -85.93594838406693 14.812417970097624 M-84.96977356499849 15.316470754341127 C-85.2762022545373 15.156607103285676, -85.58263094407609 14.996743452230225, -85.93594838406693 14.812417970097624 M-85.93594838406693 14.812417970097624 C-86.30610471474287 14.588027027161818, -86.67626104541881 14.363636084226014, -86.86784332057931 14.247497783161299 M-85.93594838406693 14.812417970097624 C-86.15185264950243 14.681535535596327, -86.36775691493793 14.550653101095032, -86.86784332057931 14.247497783161299 M-86.86784332057931 14.247497783161299 C-87.1056384654465 14.081622184087854, -87.34343361031371 13.91574658501441, -87.76162901835067 13.624031571755264 M-86.86784332057931 14.247497783161299 C-87.1386188154185 14.05861651964374, -87.40939431025767 13.869735256126182, -87.76162901835067 13.624031571755264 M-87.76162901835067 13.624031571755264 C-87.95070809260925 13.47324604163953, -88.13978716686782 13.322460511523795, -88.6136327202324 12.94458129227529 M-87.76162901835067 13.624031571755264 C-88.01153028986457 13.424741957875062, -88.26143156137846 13.225452343994858, -88.6136327202324 12.94458129227529 M-88.6136327202324 12.94458129227529 C-88.82108749274641 12.756176356830558, -89.02854226526043 12.567771421385826, -89.42035336025926 12.211938951661377 M-88.6136327202324 12.94458129227529 C-88.84200948392967 12.73717555800347, -89.07038624762696 12.529769823731652, -89.42035336025926 12.211938951661377 M-89.42035336025926 12.211938951661377 C-89.60502162020863 12.021253811717537, -89.78968988015801 11.8305686717737, -90.17847595028036 11.429115134442386 M-89.42035336025926 12.211938951661377 C-89.61586126190855 12.010060991711237, -89.81136916355784 11.808183031761095, -90.17847595028036 11.429115134442386 M-90.17847595028036 11.429115134442386 C-90.41499473492867 11.15128671169438, -90.65151351957698 10.873458288946374, -90.88488520195651 10.599326631598473 M-90.17847595028036 11.429115134442386 C-90.45417303956073 11.10526564576487, -90.72987012884111 10.781416157087357, -90.88488520195651 10.599326631598473 M-90.88488520195651 10.599326631598473 C-91.07782983124801 10.340798405965193, -91.27077446053951 10.082270180331914, -91.53667832814824 9.72598322207689 M-90.88488520195651 10.599326631598473 C-91.02313356680796 10.414086417382672, -91.16138193165939 10.22884620316687, -91.53667832814824 9.72598322207689 M-91.53667832814824 9.72598322207689 C-91.68949851912593 9.49121037076802, -91.84231871010363 9.25643751945915, -92.13117697109088 8.812673661278936 M-91.53667832814824 9.72598322207689 C-91.75325647711539 9.39326102588728, -91.96983462608253 9.06053882969767, -92.13117697109088 8.812673661278936 M-92.13117697109088 8.812673661278936 C-92.2514560165036 8.599106036574595, -92.37173506191633 8.385538411870254, -92.665938208341 7.863150934094201 M-92.13117697109088 8.812673661278936 C-92.25211337844902 8.597938823875369, -92.37304978580718 8.383203986471802, -92.665938208341 7.863150934094201 M-92.665938208341 7.863150934094201 C-92.82795850189157 7.526712327857501, -92.98997879544216 7.1902737216208, -93.13876459126881 6.881316833080701 M-92.665938208341 7.863150934094201 C-92.85109326114343 7.478672505266462, -93.03624831394588 7.094194076438722, -93.13876459126881 6.881316833080701 M-93.13876459126881 6.881316833080701 C-93.23846408812497 6.635057148287331, -93.33816358498115 6.388797463493959, -93.54771317484592 5.87120592516224 M-93.13876459126881 6.881316833080701 C-93.28241293000227 6.526502659157356, -93.42606126873574 6.171688485234011, -93.54771317484592 5.87120592516224 M-93.54771317484592 5.87120592516224 C-93.67651989016836 5.4832606211741, -93.80532660549082 5.09531531718596, -93.89110350162323 4.8369689727275516 M-93.54771317484592 5.87120592516224 C-93.66264451550998 5.525051038904429, -93.77757585617405 5.178896152646619, -93.89110350162323 4.8369689727275516 M-93.89110350162323 4.8369689727275516 C-94.0007629976307 4.418789787724861, -94.11042249363817 4.000610602722169, -94.167524507091 3.782855877257349 M-93.89110350162323 4.8369689727275516 C-93.95028894720548 4.611269217588075, -94.00947439278772 4.385569462448598, -94.167524507091 3.782855877257349 M-94.167524507091 3.782855877257349 C-94.22308612504247 3.4975587120286713, -94.27864774299394 3.212261546799994, -94.37584031804565 2.713198215567455 M-94.167524507091 3.782855877257349 C-94.2124162649569 3.5523461884923706, -94.25730802282278 3.321836499727392, -94.37584031804565 2.713198215567455 M-94.37584031804565 2.713198215567455 C-94.4189998202508 2.3784616392720066, -94.46215932245595 2.0437250629765575, -94.51519492013637 1.6323914404306026 M-94.37584031804565 2.713198215567455 C-94.41772937076342 2.3883149946174154, -94.45961842348122 2.063431773667376, -94.51519492013637 1.6323914404306026 M-94.51519492013637 1.6323914404306026 C-94.53908445449287 1.2602926595431203, -94.56297398884936 0.888193878655638, -94.5850156754117 0.54487681871814 M-94.51519492013637 1.6323914404306026 C-94.53257457687425 1.3616892581315394, -94.54995423361216 1.090987075832476, -94.5850156754117 0.54487681871814 M-94.5850156754117 0.54487681871814 C-94.5850156754117 0.27520188195614687, -94.5850156754117 0.005526945194153754, -94.5850156754117 -0.5448768187181317 M-94.5850156754117 0.54487681871814 C-94.5850156754117 0.24506953617612204, -94.5850156754117 -0.0547377463658959, -94.5850156754117 -0.5448768187181317 M-94.5850156754117 -0.5448768187181317 C-94.56149670830754 -0.9112037155337311, -94.5379777412034 -1.2775306123493306, -94.51519492013637 -1.6323914404305793 M-94.5850156754117 -0.5448768187181317 C-94.56111170208762 -0.9172004981807291, -94.53720772876352 -1.2895241776433266, -94.51519492013637 -1.6323914404305793 M-94.51519492013637 -1.6323914404305793 C-94.47971368793921 -1.9075768707899174, -94.44423245574205 -2.1827623011492556, -94.37584031804565 -2.713198215567447 M-94.51519492013637 -1.6323914404305793 C-94.46098895533594 -2.0528021992442955, -94.40678299053549 -2.4732129580580122, -94.37584031804565 -2.713198215567447 M-94.37584031804565 -2.713198215567447 C-94.32917817919241 -2.952798436532312, -94.28251604033916 -3.192398657497177, -94.167524507091 -3.782855877257341 M-94.37584031804565 -2.713198215567447 C-94.3149811883979 -3.0256969837270855, -94.25412205875013 -3.3381957518867247, -94.167524507091 -3.782855877257341 M-94.167524507091 -3.782855877257341 C-94.05803582711658 -4.200383666693881, -93.94854714714216 -4.61791145613042, -93.89110350162323 -4.836968972727544 M-94.167524507091 -3.782855877257341 C-94.10208603389552 -4.03240113676544, -94.03664756070002 -4.28194639627354, -93.89110350162323 -4.836968972727544 M-93.89110350162323 -4.836968972727544 C-93.77997843290335 -5.17165997433657, -93.66885336418348 -5.506350975945596, -93.54771317484594 -5.871205925162218 M-93.89110350162323 -4.836968972727544 C-93.7847765858232 -5.157208702223873, -93.67844967002314 -5.477448431720201, -93.54771317484594 -5.871205925162218 M-93.54771317484594 -5.871205925162218 C-93.39406341038595 -6.250723813994476, -93.24041364592597 -6.630241702826735, -93.13876459126881 -6.881316833080692 M-93.54771317484594 -5.871205925162218 C-93.41624493352019 -6.195935023002341, -93.28477669219444 -6.520664120842464, -93.13876459126881 -6.881316833080692 M-93.13876459126881 -6.881316833080692 C-93.02611221245121 -7.115241908070209, -92.91345983363361 -7.349166983059726, -92.665938208341 -7.863150934094194 M-93.13876459126881 -6.881316833080692 C-93.03841155624505 -7.0897020575185135, -92.93805852122128 -7.2980872819563345, -92.665938208341 -7.863150934094194 M-92.665938208341 -7.863150934094194 C-92.54455385267232 -8.078681149082797, -92.42316949700364 -8.294211364071401, -92.13117697109088 -8.812673661278929 M-92.665938208341 -7.863150934094194 C-92.48479907325743 -8.184781810761468, -92.30365993817387 -8.506412687428742, -92.13117697109088 -8.812673661278929 M-92.13117697109088 -8.812673661278929 C-91.91420672833624 -9.145998218818063, -91.6972364855816 -9.479322776357195, -91.53667832814826 -9.725983222076884 M-92.13117697109088 -8.812673661278929 C-91.99113067094719 -9.027822385996814, -91.85108437080349 -9.242971110714697, -91.53667832814826 -9.725983222076884 M-91.53667832814826 -9.725983222076884 C-91.35150714104898 -9.974095743347723, -91.16633595394971 -10.222208264618562, -90.88488520195651 -10.599326631598467 M-91.53667832814826 -9.725983222076884 C-91.27817128435004 -10.072359110290314, -91.01966424055183 -10.418734998503744, -90.88488520195651 -10.599326631598467 M-90.88488520195651 -10.599326631598467 C-90.7132656318814 -10.800920744038871, -90.54164606180629 -11.002514856479277, -90.17847595028037 -11.42911513444238 M-90.88488520195651 -10.599326631598467 C-90.69791393782795 -10.81895371741019, -90.51094267369939 -11.038580803221915, -90.17847595028037 -11.42911513444238 M-90.17847595028037 -11.42911513444238 C-90.0131421314808 -11.599835876511905, -89.84780831268122 -11.77055661858143, -89.42035336025927 -12.21193895166136 M-90.17847595028037 -11.42911513444238 C-89.98873148068189 -11.625041877613482, -89.79898701108341 -11.820968620784583, -89.42035336025927 -12.21193895166136 M-89.42035336025927 -12.21193895166136 C-89.25867128156011 -12.35877433766256, -89.09698920286094 -12.505609723663758, -88.61363272023242 -12.944581292275274 M-89.42035336025927 -12.21193895166136 C-89.25103671540504 -12.365707848645041, -89.0817200705508 -12.519476745628724, -88.61363272023242 -12.944581292275274 M-88.61363272023242 -12.944581292275274 C-88.27837871215668 -13.211937442231838, -87.94312470408094 -13.479293592188402, -87.76162901835067 -13.624031571755259 M-88.61363272023242 -12.944581292275274 C-88.35266246425542 -13.152698126706754, -88.09169220827843 -13.360814961138237, -87.76162901835067 -13.624031571755259 M-87.76162901835067 -13.624031571755259 C-87.49733488533234 -13.808391717840236, -87.233040752314 -13.99275186392521, -86.86784332057934 -14.247497783161284 M-87.76162901835067 -13.624031571755259 C-87.44956104124554 -13.841716683378797, -87.13749306414041 -14.059401795002335, -86.86784332057934 -14.247497783161284 M-86.86784332057934 -14.247497783161284 C-86.65569970616583 -14.376100488913009, -86.44355609175234 -14.504703194664732, -85.93594838406695 -14.812417970097618 M-86.86784332057934 -14.247497783161284 C-86.63768272872281 -14.387022486518486, -86.40752213686628 -14.526547189875687, -85.93594838406695 -14.812417970097618 M-85.93594838406695 -14.812417970097618 C-85.5623124445294 -15.007343600429115, -85.18867650499185 -15.202269230760612, -84.96977356499849 -15.316470754341124 M-85.93594838406695 -14.812417970097618 C-85.6796548320193 -14.946126152037024, -85.42336127997164 -15.07983433397643, -84.96977356499849 -15.316470754341124 M-84.96977356499849 -15.316470754341124 C-84.74770358394106 -15.414774547483313, -84.52563360288363 -15.513078340625501, -83.97328908294936 -15.757584874882365 M-84.96977356499849 -15.316470754341124 C-84.64951845611466 -15.458238191013725, -84.32926334723084 -15.600005627686327, -83.97328908294936 -15.757584874882365 M-83.97328908294936 -15.757584874882365 C-83.62495408209473 -15.885775375170319, -83.27661908124011 -16.013965875458272, -82.95058970640156 -16.133947699181363 M-83.97328908294936 -15.757584874882365 C-83.59944572379868 -15.895162686819944, -83.22560236464801 -16.032740498757523, -82.95058970640156 -16.133947699181363 M-82.95058970640156 -16.133947699181363 C-82.57461459296091 -16.245535139316903, -82.19863947952027 -16.357122579452444, -81.90587792646164 -16.444012671663494 M-82.95058970640156 -16.133947699181363 C-82.57832616726837 -16.244433563544902, -82.20606262813519 -16.354919427908438, -81.90587792646164 -16.444012671663494 M-81.90587792646164 -16.444012671663494 C-81.4932715224321 -16.538187390874825, -81.08066511840255 -16.632362110086156, -80.84344668792333 -16.68650566884811 M-81.90587792646164 -16.444012671663494 C-81.49097338269664 -16.53871192627268, -81.07606883893163 -16.633411180881865, -80.84344668792333 -16.68650566884811 M-80.84344668792333 -16.68650566884811 C-80.51589772601211 -16.739461244829776, -80.1883487641009 -16.792416820811447, -79.76766174863661 -16.86043023499518 M-80.84344668792333 -16.68650566884811 C-80.59871202943951 -16.72607247048615, -80.35397737095569 -16.765639272124194, -79.76766174863661 -16.86043023499518 M-79.76766174863661 -16.86043023499518 C-79.41782987722355 -16.89417809489602, -79.06799800581051 -16.927925954796855, -78.68294373967213 -16.965071676755716 M-79.76766174863661 -16.86043023499518 C-79.5190636340321 -16.884412196128103, -79.27046551942756 -16.90839415726103, -78.68294373967213 -16.965071676755716 M-78.68294373967213 -16.965071676755716 C-78.28120229468924 -16.977954742954033, -77.87946084970636 -16.99083780915235, -77.59375 -17 M-78.68294373967213 -16.965071676755716 C-78.27877421719808 -16.978032606673207, -77.87460469472404 -16.9909935365907, -77.59375 -17 M-77.59375 -17 C-77.59375 -17, -77.59375 -17, -77.59375 -17 M-77.59375 -17 C-77.59375 -17, -77.59375 -17, -77.59375 -17" stroke="#555555" stroke-width="1.3" fill="none" stroke-dasharray="0 0" style=""></path></g><g class="label" style="" transform="translate(0, -9.5)"><rect></rect><g><rect class="background" style="stroke: none"></rect><text y="-10.1" style=""><tspan class="text-outer-tspan row" x="0" y="-0.1em" dy="1.1em"><tspan font-style="normal" class="text-inner-tspan" font-weight="normal">Issue</tspan><tspan font-style="normal" class="text-inner-tspan" font-weight="normal"> access</tspan><tspan font-style="normal" class="text-inner-tspan" font-weight="normal"> token</tspan><tspan font-style="normal" class="text-inner-tspan" font-weight="normal"> only</tspan></tspan></text></g></g></g><g class="node default" id="g9cdcbbd9-7d08-4eaa-bf73-538d313abd50-dark-flowchart-OIDC-18" data-look="classic" transform="translate(310.3390655517578, 799.0171890258789)"><rect class="basic label-container" style="" x="-112.5390625" y="-33.29999923706055" width="225.078125" height="66.5999984741211"></rect><g class="label" style="" transform="translate(0, -18.299999237060547)"><rect></rect><g><rect class="background" style="stroke: none"></rect><text y="-10.1" style=""><tspan class="text-outer-tspan row" x="0" y="-0.1em" dy="1.1em"><tspan font-style="normal" class="text-inner-tspan" font-weight="normal">Add</tspan><tspan font-style="normal" class="text-inner-tspan" font-weight="normal"> openid</tspan><tspan font-style="normal" class="text-inner-tspan" font-weight="normal"> scope</tspan><tspan font-style="normal" class="text-inner-tspan" font-weight="normal"> —</tspan></tspan><tspan class="text-outer-tspan row" x="0" y="1em" dy="1.1em"><tspan font-style="normal" class="text-inner-tspan" font-weight="normal">OIDC</tspan><tspan font-style="normal" class="text-inner-tspan" font-weight="normal"> Core</tspan><tspan font-style="normal" class="text-inner-tspan" font-weight="normal"> 1.0</tspan><tspan font-style="normal" class="text-inner-tspan" font-weight="normal"> ID</tspan><tspan font-style="normal" class="text-inner-tspan" font-weight="normal"> Token</tspan></tspan></text></g></g></g><g class="node default removed" id="g9cdcbbd9-7d08-4eaa-bf73-538d313abd50-dark-flowchart-Implicit-21" data-look="classic" transform="translate(665.4656295776367, 346.6968765258789)"><rect class="basic label-container" style="stroke:#c33 !important;stroke-width:2px !important;stroke-dasharray:4 2 !important" x="-78.6640625" y="-24.5" width="157.328125" height="49"></rect><g class="label" style="" transform="translate(0, -9.5)"><rect></rect><g><rect class="background" style="stroke: none"></rect><text y="-10.1" style=""><tspan class="text-outer-tspan row" x="0" y="-0.1em" dy="1.1em"><tspan font-style="normal" class="text-inner-tspan" font-weight="normal">Implicit</tspan><tspan font-style="normal" class="text-inner-tspan" font-weight="normal"> grant</tspan></tspan></text></g></g></g><g class="node default removed" id="g9cdcbbd9-7d08-4eaa-bf73-538d313abd50-dark-flowchart-ROPC-22" data-look="classic" transform="translate(916.7546920776367, 346.6968765258789)"><rect class="basic label-container" style="stroke:#c33 !important;stroke-width:2px !important;stroke-dasharray:4 2 !important" x="-122.625" y="-24.5" width="245.25" height="49"></rect><g class="label" style="" transform="translate(0, -9.5)"><rect></rect><g><rect class="background" style="stroke: none"></rect><text y="-10.1" style=""><tspan class="text-outer-tspan row" x="0" y="-0.1em" dy="1.1em"><tspan font-style="normal" class="text-inner-tspan" font-weight="normal">Resource</tspan><tspan font-style="normal" class="text-inner-tspan" font-weight="normal"> Owner</tspan><tspan font-style="normal" class="text-inner-tspan" font-weight="normal"> Password</tspan></tspan></text></g></g></g></g></g></g><defs><filter id="g9cdcbbd9-7d08-4eaa-bf73-538d313abd50-dark-drop-shadow" height="130%" width="130%"><feDropShadow dx="4" dy="4" stdDeviation="0" flood-opacity="0.06" flood-color="#000000"></feDropShadow></filter></defs><defs><filter id="g9cdcbbd9-7d08-4eaa-bf73-538d313abd50-dark-drop-shadow-small" height="150%" width="150%"><feDropShadow dx="2" dy="2" stdDeviation="0" flood-opacity="0.06" flood-color="#000000"></feDropShadow></filter></defs><linearGradient id="g9cdcbbd9-7d08-4eaa-bf73-538d313abd50-dark-gradient" gradientUnits="objectBoundingBox" x1="0%" y1="0%" x2="100%" y2="0%"><stop offset="0%" stop-color="#555555" stop-opacity="1"></stop><stop offset="100%" stop-color="#555555" stop-opacity="1"></stop></linearGradient></svg>