<svg id="g2c00cbae-fc55-4a23-b525-989baf209846-light" width="100%" xmlns="http://www.w3.org/2000/svg" xmlns:xlink="http://www.w3.org/1999/xlink" class="flowchart" style="max-width: 1150.1875px;" viewBox="0 0 1150.1875 1052.7249755859375" role="graphics-document document" aria-roledescription="flowchart-v2"><style>#g2c00cbae-fc55-4a23-b525-989baf209846-light{font-family:"trebuchet ms",verdana,arial,sans-serif;font-size:16px;fill:#333;}@keyframes edge-animation-frame{from{stroke-dashoffset:0;}}@keyframes dash{to{stroke-dashoffset:0;}}#g2c00cbae-fc55-4a23-b525-989baf209846-light .edge-animation-slow{stroke-dasharray:9,5!important;stroke-dashoffset:900;animation:dash 50s linear infinite;stroke-linecap:round;}#g2c00cbae-fc55-4a23-b525-989baf209846-light .edge-animation-fast{stroke-dasharray:9,5!important;stroke-dashoffset:900;animation:dash 20s linear infinite;stroke-linecap:round;}#g2c00cbae-fc55-4a23-b525-989baf209846-light .error-icon{fill:#552222;}#g2c00cbae-fc55-4a23-b525-989baf209846-light .error-text{fill:#552222;stroke:#552222;}#g2c00cbae-fc55-4a23-b525-989baf209846-light .edge-thickness-normal{stroke-width:1px;}#g2c00cbae-fc55-4a23-b525-989baf209846-light .edge-thickness-thick{stroke-width:3.5px;}#g2c00cbae-fc55-4a23-b525-989baf209846-light .edge-pattern-solid{stroke-dasharray:0;}#g2c00cbae-fc55-4a23-b525-989baf209846-light .edge-thickness-invisible{stroke-width:0;fill:none;}#g2c00cbae-fc55-4a23-b525-989baf209846-light .edge-pattern-dashed{stroke-dasharray:3;}#g2c00cbae-fc55-4a23-b525-989baf209846-light .edge-pattern-dotted{stroke-dasharray:2;}#g2c00cbae-fc55-4a23-b525-989baf209846-light .marker{fill:#333333;stroke:#333333;}#g2c00cbae-fc55-4a23-b525-989baf209846-light .marker.cross{stroke:#333333;}#g2c00cbae-fc55-4a23-b525-989baf209846-light svg{font-family:"trebuchet ms",verdana,arial,sans-serif;font-size:16px;}#g2c00cbae-fc55-4a23-b525-989baf209846-light p{margin:0;}#g2c00cbae-fc55-4a23-b525-989baf209846-light .label{font-family:"trebuchet ms",verdana,arial,sans-serif;color:#333;}#g2c00cbae-fc55-4a23-b525-989baf209846-light .cluster-label text{fill:#333;}#g2c00cbae-fc55-4a23-b525-989baf209846-light .cluster-label span{color:#333;}#g2c00cbae-fc55-4a23-b525-989baf209846-light .cluster-label span p{background-color:transparent;}#g2c00cbae-fc55-4a23-b525-989baf209846-light .label text,#g2c00cbae-fc55-4a23-b525-989baf209846-light span{fill:#333;color:#333;}#g2c00cbae-fc55-4a23-b525-989baf209846-light .node rect,#g2c00cbae-fc55-4a23-b525-989baf209846-light .node circle,#g2c00cbae-fc55-4a23-b525-989baf209846-light .node ellipse,#g2c00cbae-fc55-4a23-b525-989baf209846-light .node polygon,#g2c00cbae-fc55-4a23-b525-989baf209846-light .node path{fill:#ECECFF;stroke:#9370DB;stroke-width:1px;}#g2c00cbae-fc55-4a23-b525-989baf209846-light .rough-node .label text,#g2c00cbae-fc55-4a23-b525-989baf209846-light .node .label text,#g2c00cbae-fc55-4a23-b525-989baf209846-light .image-shape .label,#g2c00cbae-fc55-4a23-b525-989baf209846-light .icon-shape .label{text-anchor:middle;}#g2c00cbae-fc55-4a23-b525-989baf209846-light .node .katex path{fill:#000;stroke:#000;stroke-width:1px;}#g2c00cbae-fc55-4a23-b525-989baf209846-light .rough-node .label,#g2c00cbae-fc55-4a23-b525-989baf209846-light .node .label,#g2c00cbae-fc55-4a23-b525-989baf209846-light .image-shape .label,#g2c00cbae-fc55-4a23-b525-989baf209846-light .icon-shape .label{text-align:center;}#g2c00cbae-fc55-4a23-b525-989baf209846-light .node.clickable{cursor:pointer;}#g2c00cbae-fc55-4a23-b525-989baf209846-light .root .anchor path{fill:#333333!important;stroke-width:0;stroke:#333333;}#g2c00cbae-fc55-4a23-b525-989baf209846-light .arrowheadPath{fill:#333333;}#g2c00cbae-fc55-4a23-b525-989baf209846-light .edgePath .path{stroke:#333333;stroke-width:1px;}#g2c00cbae-fc55-4a23-b525-989baf209846-light .flowchart-link{stroke:#333333;fill:none;}#g2c00cbae-fc55-4a23-b525-989baf209846-light .edgeLabel{background-color:rgba(232,232,232, 0.8);text-align:center;}#g2c00cbae-fc55-4a23-b525-989baf209846-light .edgeLabel p{background-color:rgba(232,232,232, 0.8);}#g2c00cbae-fc55-4a23-b525-989baf209846-light .edgeLabel rect{opacity:0.5;background-color:rgba(232,232,232, 0.8);fill:rgba(232,232,232, 0.8);}#g2c00cbae-fc55-4a23-b525-989baf209846-light .labelBkg{background-color:rgba(232, 232, 232, 0.5);}#g2c00cbae-fc55-4a23-b525-989baf209846-light .cluster rect{fill:#ffffde;stroke:#aaaa33;stroke-width:1px;}#g2c00cbae-fc55-4a23-b525-989baf209846-light .cluster text{fill:#333;}#g2c00cbae-fc55-4a23-b525-989baf209846-light .cluster span{color:#333;}#g2c00cbae-fc55-4a23-b525-989baf209846-light div.mermaidTooltip{position:absolute;text-align:center;max-width:200px;padding:2px;font-family:"trebuchet ms",verdana,arial,sans-serif;font-size:12px;background:hsl(80, 100%, 96.2745098039%);border:1px solid #aaaa33;border-radius:2px;pointer-events:none;z-index:100;}#g2c00cbae-fc55-4a23-b525-989baf209846-light .flowchartTitleText{text-anchor:middle;font-size:18px;fill:#333;}#g2c00cbae-fc55-4a23-b525-989baf209846-light rect.text{fill:none;stroke-width:0;}#g2c00cbae-fc55-4a23-b525-989baf209846-light .icon-shape,#g2c00cbae-fc55-4a23-b525-989baf209846-light .image-shape{background-color:rgba(232,232,232, 0.8);text-align:center;}#g2c00cbae-fc55-4a23-b525-989baf209846-light .icon-shape p,#g2c00cbae-fc55-4a23-b525-989baf209846-light .image-shape p{background-color:rgba(232,232,232, 0.8);padding:2px;}#g2c00cbae-fc55-4a23-b525-989baf209846-light .icon-shape .label rect,#g2c00cbae-fc55-4a23-b525-989baf209846-light .image-shape .label rect{opacity:0.5;background-color:rgba(232,232,232, 0.8);fill:rgba(232,232,232, 0.8);}#g2c00cbae-fc55-4a23-b525-989baf209846-light .label-icon{display:inline-block;height:1em;overflow:visible;vertical-align:-0.125em;}#g2c00cbae-fc55-4a23-b525-989baf209846-light .node .label-icon path{fill:currentColor;stroke:revert;stroke-width:revert;}#g2c00cbae-fc55-4a23-b525-989baf209846-light .node .neo-node{stroke:#9370DB;}#g2c00cbae-fc55-4a23-b525-989baf209846-light [data-look="neo"].node rect,#g2c00cbae-fc55-4a23-b525-989baf209846-light [data-look="neo"].cluster rect,#g2c00cbae-fc55-4a23-b525-989baf209846-light [data-look="neo"].node polygon{stroke:#9370DB;filter:drop-shadow(1px 2px 2px rgba(185, 185, 185, 1));}#g2c00cbae-fc55-4a23-b525-989baf209846-light [data-look="neo"].node path{stroke:#9370DB;stroke-width:1px;}#g2c00cbae-fc55-4a23-b525-989baf209846-light [data-look="neo"].node .outer-path{filter:drop-shadow(1px 2px 2px rgba(185, 185, 185, 1));}#g2c00cbae-fc55-4a23-b525-989baf209846-light [data-look="neo"].node .neo-line path{stroke:#9370DB;filter:none;}#g2c00cbae-fc55-4a23-b525-989baf209846-light [data-look="neo"].node circle{stroke:#9370DB;filter:drop-shadow(1px 2px 2px rgba(185, 185, 185, 1));}#g2c00cbae-fc55-4a23-b525-989baf209846-light [data-look="neo"].node circle .state-start{fill:#000000;}#g2c00cbae-fc55-4a23-b525-989baf209846-light [data-look="neo"].icon-shape .icon{fill:#9370DB;filter:drop-shadow(1px 2px 2px rgba(185, 185, 185, 1));}#g2c00cbae-fc55-4a23-b525-989baf209846-light [data-look="neo"].icon-shape .icon-neo path{stroke:#9370DB;filter:drop-shadow(1px 2px 2px rgba(185, 185, 185, 1));}#g2c00cbae-fc55-4a23-b525-989baf209846-light :root{--mermaid-font-family:"trebuchet ms",verdana,arial,sans-serif;}#g2c00cbae-fc55-4a23-b525-989baf209846-light .preferred rect{fill:#f4fcf4!important;stroke:#2f9e44!important;color:#1f5f2c!important;}#g2c00cbae-fc55-4a23-b525-989baf209846-light .preferred polygon{fill:#f4fcf4!important;stroke:#2f9e44!important;color:#1f5f2c!important;}#g2c00cbae-fc55-4a23-b525-989baf209846-light .preferred ellipse{fill:#f4fcf4!important;stroke:#2f9e44!important;color:#1f5f2c!important;}#g2c00cbae-fc55-4a23-b525-989baf209846-light .preferred circle{fill:#f4fcf4!important;stroke:#2f9e44!important;color:#1f5f2c!important;}#g2c00cbae-fc55-4a23-b525-989baf209846-light .preferred path{fill:#f4fcf4!important;stroke:#2f9e44!important;color:#1f5f2c!important;}#g2c00cbae-fc55-4a23-b525-989baf209846-light .preferred tspan{fill:#1f5f2c!important;}#g2c00cbae-fc55-4a23-b525-989baf209846-light .caution rect{fill:#fff8e6!important;stroke:#e67700!important;color:#704700!important;}#g2c00cbae-fc55-4a23-b525-989baf209846-light .caution polygon{fill:#fff8e6!important;stroke:#e67700!important;color:#704700!important;}#g2c00cbae-fc55-4a23-b525-989baf209846-light .caution ellipse{fill:#fff8e6!important;stroke:#e67700!important;color:#704700!important;}#g2c00cbae-fc55-4a23-b525-989baf209846-light .caution circle{fill:#fff8e6!important;stroke:#e67700!important;color:#704700!important;}#g2c00cbae-fc55-4a23-b525-989baf209846-light .caution path{fill:#fff8e6!important;stroke:#e67700!important;color:#704700!important;}#g2c00cbae-fc55-4a23-b525-989baf209846-light .caution tspan{fill:#704700!important;}#g2c00cbae-fc55-4a23-b525-989baf209846-light .bad rect{fill:#fff5f5!important;stroke:#c92a2a!important;color:#7a1f1f!important;}#g2c00cbae-fc55-4a23-b525-989baf209846-light .bad polygon{fill:#fff5f5!important;stroke:#c92a2a!important;color:#7a1f1f!important;}#g2c00cbae-fc55-4a23-b525-989baf209846-light .bad ellipse{fill:#fff5f5!important;stroke:#c92a2a!important;color:#7a1f1f!important;}#g2c00cbae-fc55-4a23-b525-989baf209846-light .bad circle{fill:#fff5f5!important;stroke:#c92a2a!important;color:#7a1f1f!important;}#g2c00cbae-fc55-4a23-b525-989baf209846-light .bad path{fill:#fff5f5!important;stroke:#c92a2a!important;color:#7a1f1f!important;}#g2c00cbae-fc55-4a23-b525-989baf209846-light .bad tspan{fill:#7a1f1f!important;}</style><g><marker id="g2c00cbae-fc55-4a23-b525-989baf209846-light_flowchart-v2-pointEnd" class="marker flowchart-v2" viewBox="0 0 10 10" refX="5" refY="5" markerUnits="userSpaceOnUse" markerWidth="8" markerHeight="8" orient="auto"><path d="M 0 0 L 10 5 L 0 10 z" class="arrowMarkerPath" style="stroke-width: 1; stroke-dasharray: 1, 0;"></path></marker><marker id="g2c00cbae-fc55-4a23-b525-989baf209846-light_flowchart-v2-pointStart" class="marker flowchart-v2" viewBox="0 0 10 10" refX="4.5" refY="5" markerUnits="userSpaceOnUse" markerWidth="8" markerHeight="8" orient="auto"><path d="M 0 5 L 10 10 L 10 0 z" class="arrowMarkerPath" style="stroke-width: 1; stroke-dasharray: 1, 0;"></path></marker><marker id="g2c00cbae-fc55-4a23-b525-989baf209846-light_flowchart-v2-pointEnd-margin" class="marker flowchart-v2" viewBox="0 0 11.5 14" refX="11.5" refY="7" markerUnits="userSpaceOnUse" markerWidth="10.5" markerHeight="14" orient="auto"><path d="M 0 0 L 11.5 7 L 0 14 z" class="arrowMarkerPath" style="stroke-width: 0; stroke-dasharray: 1, 0;"></path></marker><marker id="g2c00cbae-fc55-4a23-b525-989baf209846-light_flowchart-v2-pointStart-margin" class="marker flowchart-v2" viewBox="0 0 11.5 14" refX="1" refY="7" markerUnits="userSpaceOnUse" markerWidth="11.5" markerHeight="14" orient="auto"><polygon points="0,7 11.5,14 11.5,0" class="arrowMarkerPath" style="stroke-width: 0; stroke-dasharray: 1, 0;"></polygon></marker><marker id="g2c00cbae-fc55-4a23-b525-989baf209846-light_flowchart-v2-circleEnd" class="marker flowchart-v2" viewBox="0 0 10 10" refX="11" refY="5" markerUnits="userSpaceOnUse" markerWidth="11" markerHeight="11" orient="auto"><circle cx="5" cy="5" r="5" class="arrowMarkerPath" style="stroke-width: 1; stroke-dasharray: 1, 0;"></circle></marker><marker id="g2c00cbae-fc55-4a23-b525-989baf209846-light_flowchart-v2-circleStart" class="marker flowchart-v2" viewBox="0 0 10 10" refX="-1" refY="5" markerUnits="userSpaceOnUse" markerWidth="11" markerHeight="11" orient="auto"><circle cx="5" cy="5" r="5" class="arrowMarkerPath" style="stroke-width: 1; stroke-dasharray: 1, 0;"></circle></marker><marker id="g2c00cbae-fc55-4a23-b525-989baf209846-light_flowchart-v2-circleEnd-margin" class="marker flowchart-v2" viewBox="0 0 10 10" refY="5" refX="12.25" markerUnits="userSpaceOnUse" markerWidth="14" markerHeight="14" orient="auto"><circle cx="5" cy="5" r="5" class="arrowMarkerPath" style="stroke-width: 0; stroke-dasharray: 1, 0;"></circle></marker><marker id="g2c00cbae-fc55-4a23-b525-989baf209846-light_flowchart-v2-circleStart-margin" class="marker flowchart-v2" viewBox="0 0 10 10" refX="-2" refY="5" markerUnits="userSpaceOnUse" markerWidth="14" markerHeight="14" orient="auto"><circle cx="5" cy="5" r="5" class="arrowMarkerPath" style="stroke-width: 0; stroke-dasharray: 1, 0;"></circle></marker><marker id="g2c00cbae-fc55-4a23-b525-989baf209846-light_flowchart-v2-crossEnd" class="marker cross flowchart-v2" viewBox="0 0 11 11" refX="12" refY="5.2" markerUnits="userSpaceOnUse" markerWidth="11" markerHeight="11" orient="auto"><path d="M 1,1 l 9,9 M 10,1 l -9,9" class="arrowMarkerPath" style="stroke-width: 2; stroke-dasharray: 1, 0;"></path></marker><marker id="g2c00cbae-fc55-4a23-b525-989baf209846-light_flowchart-v2-crossStart" class="marker cross flowchart-v2" viewBox="0 0 11 11" refX="-1" refY="5.2" markerUnits="userSpaceOnUse" markerWidth="11" markerHeight="11" orient="auto"><path d="M 1,1 l 9,9 M 10,1 l -9,9" class="arrowMarkerPath" style="stroke-width: 2; stroke-dasharray: 1, 0;"></path></marker><marker id="g2c00cbae-fc55-4a23-b525-989baf209846-light_flowchart-v2-crossEnd-margin" class="marker cross flowchart-v2" viewBox="0 0 15 15" refX="17.7" refY="7.5" markerUnits="userSpaceOnUse" markerWidth="12" markerHeight="12" orient="auto"><path d="M 1,1 L 14,14 M 1,14 L 14,1" class="arrowMarkerPath" style="stroke-width: 2.5;"></path></marker><marker id="g2c00cbae-fc55-4a23-b525-989baf209846-light_flowchart-v2-crossStart-margin" class="marker cross flowchart-v2" viewBox="0 0 15 15" refX="-3.5" refY="7.5" markerUnits="userSpaceOnUse" markerWidth="12" markerHeight="12" orient="auto"><path d="M 1,1 L 14,14 M 1,14 L 14,1" class="arrowMarkerPath" style="stroke-width: 2.5; stroke-dasharray: 1, 0;"></path></marker><g class="root"><g class="clusters"></g><g class="edgePaths"><path d="M669.84,60.1L669.757,64.183C669.673,68.267,669.507,76.433,669.423,84.017C669.34,91.6,669.34,98.6,669.34,102.1L669.34,105.6" id="g2c00cbae-fc55-4a23-b525-989baf209846-light-L_Start_Q1_0" class="edge-thickness-normal edge-pattern-solid edge-thickness-normal edge-pattern-solid flowchart-link" style=";" data-edge="true" data-et="edge" data-id="L_Start_Q1_0" data-points="W3sieCI6NjY5LjgzOTg0Mzc1LCJ5Ijo2MC4wOTk5OTg0NzQxMjEwOTR9LHsieCI6NjY5LjMzOTg0Mzc1LCJ5Ijo4NC41OTk5OTg0NzQxMjExfSx7IngiOjY2OS4zMzk4NDM3NDk5OTk5LCJ5IjoxMDkuNTk5OTk4NDc0MTIxMDV9XQ==" data-look="classic" marker-end="url(#g2c00cbae-fc55-4a23-b525-989baf209846-light_flowchart-v2-pointEnd)"></path><path d="M581.594,279.71L537.473,300.418C493.352,321.126,405.109,362.541,360.988,397.859C316.867,433.178,316.867,462.399,316.867,477.01L316.867,491.62" id="g2c00cbae-fc55-4a23-b525-989baf209846-light-L_Q1_LB_0" class="edge-thickness-normal edge-pattern-solid edge-thickness-normal edge-pattern-solid flowchart-link" style=";" data-edge="true" data-et="edge" data-id="L_Q1_LB_0" data-points="W3sieCI6NTgxLjU5NDAwMTQwODk5NDEsInkiOjI3OS43MTA0MTgzNDAxNDY0fSx7IngiOjMxNi44NjcxODc1LCJ5Ijo0MDMuOTU2MjYwNjgxMTUyMzR9LHsieCI6MzE2Ljg2NzE4NzUsInkiOjQ5NS42MjAzMjY5OTU4NDk2fV0=" data-look="classic" marker-end="url(#g2c00cbae-fc55-4a23-b525-989baf209846-light_flowchart-v2-pointEnd)"></path><path d="M725.88,310.916L737.992,326.423C750.104,341.929,774.328,372.943,786.44,393.866C798.552,414.79,798.552,425.623,798.552,431.04L798.552,436.456" id="g2c00cbae-fc55-4a23-b525-989baf209846-light-L_Q1_Q2_0" class="edge-thickness-normal edge-pattern-solid edge-thickness-normal edge-pattern-solid flowchart-link" style=";" data-edge="true" data-et="edge" data-id="L_Q1_Q2_0" data-points="W3sieCI6NzI1Ljg4MDMzNTc2NjU3NzksInkiOjMxMC45MTU3Njg2NjQ1NzQ0NH0seyJ4Ijo3OTguNTUyMzQ1Mjc1ODc4OSwieSI6NDAzLjk1NjI2MDY4MTE1MjM0fSx7IngiOjc5OC41NTIzNDUyNzU4NzksInkiOjQ0MC40NTYyNjA2ODExNTIzNH1d" data-look="classic" marker-end="url(#g2c00cbae-fc55-4a23-b525-989baf209846-light_flowchart-v2-pointEnd)"></path><path d="M741.592,560.424L713.428,576C685.263,591.577,628.935,622.731,600.771,654.603C572.607,686.474,572.607,719.065,572.607,735.36L572.607,751.655" id="g2c00cbae-fc55-4a23-b525-989baf209846-light-L_Q2_TR_0" class="edge-thickness-normal edge-pattern-solid edge-thickness-normal edge-pattern-solid flowchart-link" style=";" data-edge="true" data-et="edge" data-id="L_Q2_TR_0" data-points="W3sieCI6NzQxLjU5MTY1MzQ2NjgyNjYsInkiOjU2MC40MjM2OTk5NzU2MTU3fSx7IngiOjU3Mi42MDcwMzI3NzU4Nzg5LCJ5Ijo2NTMuODg0MzkxNzg0NjY4fSx7IngiOjU3Mi42MDcwMzI3NzU4Nzg5LCJ5Ijo3NTUuNjU0NzA1MDQ3NjA3NH1d" data-look="classic" marker-end="url(#g2c00cbae-fc55-4a23-b525-989baf209846-light_flowchart-v2-pointEnd)"></path><path d="M842.252,573.685L855.3,587.052C868.349,600.418,894.445,627.151,907.494,647.447C920.542,667.743,920.542,681.601,920.542,688.53L920.542,695.459" id="g2c00cbae-fc55-4a23-b525-989baf209846-light-L_Q2_Q3_0" class="edge-thickness-normal edge-pattern-solid edge-thickness-normal edge-pattern-solid flowchart-link" style=";" data-edge="true" data-et="edge" data-id="L_Q2_Q3_0" data-points="W3sieCI6ODQyLjI1MTY2NDAzOTMxNSwieSI6NTczLjY4NTA3MzAyMTIzMTJ9LHsieCI6OTIwLjU0MjE5MDU1MTc1NzgsInkiOjY1My44ODQzOTE3ODQ2Njh9LHsieCI6OTIwLjU0MjE5MDU1MTc1NzgsInkiOjY5OS40NTkzODg3MzI5MX1d" data-look="classic" marker-end="url(#g2c00cbae-fc55-4a23-b525-989baf209846-light_flowchart-v2-pointEnd)"></path><path d="M867.558,825.466L843.72,841.892C819.882,858.319,772.207,891.172,748.369,913.015C724.531,934.858,724.531,945.692,724.531,951.108L724.531,956.525" id="g2c00cbae-fc55-4a23-b525-989baf209846-light-L_Q3_PL_0" class="edge-thickness-normal edge-pattern-solid edge-thickness-normal edge-pattern-solid flowchart-link" style=";" data-edge="true" data-et="edge" data-id="L_Q3_PL_0" data-points="W3sieCI6ODY3LjU1ODAzMzg5OTYzMiwieSI6ODI1LjQ2NTg2MzE4NDN9LHsieCI6NzI0LjUzMTI1LCJ5Ijo5MjQuMDI1MDE2Nzg0NjY4fSx7IngiOjcyNC41MzEyNSwieSI6OTYwLjUyNTAxNjc4NDY2OH1d" data-look="classic" marker-end="url(#g2c00cbae-fc55-4a23-b525-989baf209846-light_flowchart-v2-pointEnd)"></path><path d="M958.89,840.102L969.377,854.089C979.864,868.076,1000.838,896.051,1011.325,915.454C1021.813,934.858,1021.813,945.692,1021.813,951.108L1021.813,956.525" id="g2c00cbae-fc55-4a23-b525-989baf209846-light-L_Q3_AP_0" class="edge-thickness-normal edge-pattern-solid edge-thickness-normal edge-pattern-solid flowchart-link" style=";" data-edge="true" data-et="edge" data-id="L_Q3_AP_0" data-points="W3sieCI6OTU4Ljg5MDMwOTU3MzI5MiwieSI6ODQwLjEwMTkwMDgxNDg5MTd9LHsieCI6MTAyMS44MTI1LCJ5Ijo5MjQuMDI1MDE2Nzg0NjY4fSx7IngiOjEwMjEuODEyNSwieSI6OTYwLjUyNTAxNjc4NDY2OH1d" data-look="classic" marker-end="url(#g2c00cbae-fc55-4a23-b525-989baf209846-light_flowchart-v2-pointEnd)"></path><path d="M316.867,562.22L316.867,577.498C316.867,592.775,316.867,623.33,316.867,644.024C316.867,664.718,316.867,675.551,316.867,680.968L316.867,686.384" id="g2c00cbae-fc55-4a23-b525-989baf209846-light-L_LB_Q4_0" class="edge-thickness-normal edge-pattern-solid edge-thickness-normal edge-pattern-solid flowchart-link" style=";" data-edge="true" data-et="edge" data-id="L_LB_Q4_0" data-points="W3sieCI6MzE2Ljg2NzE4NzUsInkiOjU2Mi4yMjAzMjU0Njk5NzA3fSx7IngiOjMxNi44NjcxODc1LCJ5Ijo2NTMuODg0MzkxNzg0NjY4fSx7IngiOjMxNi44NjcxODc1LCJ5Ijo2OTAuMzg0MzkxNzg0NjY4fV0=" data-look="classic" marker-end="url(#g2c00cbae-fc55-4a23-b525-989baf209846-light_flowchart-v2-pointEnd)"></path><path d="M256.858,827.516L231.827,843.601C206.796,859.686,156.734,891.855,131.703,914.824C106.672,937.792,106.672,951.558,106.672,958.442L106.672,965.325" id="g2c00cbae-fc55-4a23-b525-989baf209846-light-L_Q4_DZ_0" class="edge-thickness-normal edge-pattern-solid edge-thickness-normal edge-pattern-solid flowchart-link" style=";" data-edge="true" data-et="edge" data-id="L_Q4_DZ_0" data-points="W3sieCI6MjU2Ljg1ODI2NjQyODk4MzYsInkiOjgyNy41MTYwOTU3MTM2NTE2fSx7IngiOjEwNi42NzE4NzUsInkiOjkyNC4wMjUwMTY3ODQ2Njh9LHsieCI6MTA2LjY3MTg3NSwieSI6OTY5LjMyNTAxNjAyMTcyODV9XQ==" data-look="classic" marker-end="url(#g2c00cbae-fc55-4a23-b525-989baf209846-light_flowchart-v2-pointEnd)"></path><path d="M316.867,887.525L316.867,893.608C316.867,899.692,316.867,911.858,316.867,926.292C316.867,940.725,316.867,957.425,316.867,965.775L316.867,974.125" id="g2c00cbae-fc55-4a23-b525-989baf209846-light-L_Q4_DMS_0" class="edge-thickness-normal edge-pattern-solid edge-thickness-normal edge-pattern-solid flowchart-link" style=";" data-edge="true" data-et="edge" data-id="L_Q4_DMS_0" data-points="W3sieCI6MzE2Ljg2NzE4NzUsInkiOjg4Ny41MjUwMTY3ODQ2Njh9LHsieCI6MzE2Ljg2NzE4NzUsInkiOjkyNC4wMjUwMTY3ODQ2Njh9LHsieCI6MzE2Ljg2NzE4NzUsInkiOjk3OC4xMjUwMTUyNTg3ODkxfV0=" data-look="classic" marker-end="url(#g2c00cbae-fc55-4a23-b525-989baf209846-light_flowchart-v2-pointEnd)"></path><path d="M371.958,832.434L391.3,847.699C410.641,862.965,449.325,893.495,468.666,917.11C488.008,940.725,488.008,957.425,488.008,965.775L488.008,974.125" id="g2c00cbae-fc55-4a23-b525-989baf209846-light-L_Q4_FT_0" class="edge-thickness-normal edge-pattern-solid edge-thickness-normal edge-pattern-solid flowchart-link" style=";" data-edge="true" data-et="edge" data-id="L_Q4_FT_0" data-points="W3sieCI6MzcxLjk1NzkyMDEzNDkwMjQsInkiOjgzMi40MzQyODQxNDk3NjU2fSx7IngiOjQ4OC4wMDc4MTI1LCJ5Ijo5MjQuMDI1MDE2Nzg0NjY4fSx7IngiOjQ4OC4wMDc4MTI1LCJ5Ijo5NzguMTI1MDE1MjU4Nzg5MX1d" data-look="classic" marker-end="url(#g2c00cbae-fc55-4a23-b525-989baf209846-light_flowchart-v2-pointEnd)"></path></g><g class="edgeLabels"><g class="edgeLabel"><g class="label" data-id="L_Start_Q1_0" transform="translate(0, 0)"><text y="-10.1" text-anchor="middle"><tspan class="text-outer-tspan row" x="0" y="-0.1em" dy="1.1em" text-anchor="middle"></tspan></text></g></g><g><rect class="background" style="stroke: none"></rect></g><g class="edgeLabel" transform="translate(316.8671875, 403.95626068115234)"><g class="label" data-id="L_Q1_LB_0" transform="translate(0, -10.5)"><g><rect class="background" style="" x="-13.328125" y="-1" width="26.65625" height="23"></rect><text y="-10.1" text-anchor="middle" style=""><tspan class="text-outer-tspan row" x="0" y="-0.1em" dy="1.1em" text-anchor="middle"><tspan font-style="normal" class="text-inner-tspan" font-weight="normal">Yes</tspan></tspan></text></g></g></g><g class="edgeLabel" transform="translate(798.5523452758789, 403.95626068115234)"><g class="label" data-id="L_Q1_Q2_0" transform="translate(0, -10.5)"><g><rect class="background" style="" x="-11.3984375" y="-1" width="22.796875" height="23"></rect><text y="-10.1" text-anchor="middle" style=""><tspan class="text-outer-tspan row" x="0" y="-0.1em" dy="1.1em" text-anchor="middle"><tspan font-style="normal" class="text-inner-tspan" font-weight="normal">No</tspan></tspan></text></g></g></g><g class="edgeLabel" transform="translate(572.6070327758789, 653.884391784668)"><g class="label" data-id="L_Q2_TR_0" transform="translate(0, -10.5)"><g><rect class="background" style="" x="-13.328125" y="-1" width="26.65625" height="23"></rect><text y="-10.1" text-anchor="middle" style=""><tspan class="text-outer-tspan row" x="0" y="-0.1em" dy="1.1em" text-anchor="middle"><tspan font-style="normal" class="text-inner-tspan" font-weight="normal">Yes</tspan></tspan></text></g></g></g><g class="edgeLabel" transform="translate(920.5421905517578, 653.884391784668)"><g class="label" data-id="L_Q2_Q3_0" transform="translate(0, -10.5)"><g><rect class="background" style="" x="-11.3984375" y="-1" width="22.796875" height="23"></rect><text y="-10.1" text-anchor="middle" style=""><tspan class="text-outer-tspan row" x="0" y="-0.1em" dy="1.1em" text-anchor="middle"><tspan font-style="normal" class="text-inner-tspan" font-weight="normal">No</tspan></tspan></text></g></g></g><g class="edgeLabel" transform="translate(724.53125, 924.025016784668)"><g class="label" data-id="L_Q3_PL_0" transform="translate(0, -10.5)"><g><rect class="background" style="" x="-11.3984375" y="-1" width="22.796875" height="23"></rect><text y="-10.1" text-anchor="middle" style=""><tspan class="text-outer-tspan row" x="0" y="-0.1em" dy="1.1em" text-anchor="middle"><tspan font-style="normal" class="text-inner-tspan" font-weight="normal">No</tspan></tspan></text></g></g></g><g class="edgeLabel" transform="translate(1021.8125, 924.025016784668)"><g class="label" data-id="L_Q3_AP_0" transform="translate(0, -10.5)"><g><rect class="background" style="" x="-13.328125" y="-1" width="26.65625" height="23"></rect><text y="-10.1" text-anchor="middle" style=""><tspan class="text-outer-tspan row" x="0" y="-0.1em" dy="1.1em" text-anchor="middle"><tspan font-style="normal" class="text-inner-tspan" font-weight="normal">Yes</tspan></tspan></text></g></g></g><g class="edgeLabel"><g class="label" data-id="L_LB_Q4_0" transform="translate(0, 0)"><text y="-10.1" text-anchor="middle"><tspan class="text-outer-tspan row" x="0" y="-0.1em" dy="1.1em" text-anchor="middle"></tspan></text></g></g><g><rect class="background" style="stroke: none"></rect></g><g class="edgeLabel" transform="translate(106.671875, 924.025016784668)"><g class="label" data-id="L_Q4_DZ_0" transform="translate(0, -10.5)"><g><rect class="background" style="" x="-13.328125" y="-1" width="26.65625" height="23"></rect><text y="-10.1" text-anchor="middle" style=""><tspan class="text-outer-tspan row" x="0" y="-0.1em" dy="1.1em" text-anchor="middle"><tspan font-style="normal" class="text-inner-tspan" font-weight="normal">Yes</tspan></tspan></text></g></g></g><g class="edgeLabel" transform="translate(316.8671875, 924.025016784668)"><g class="label" data-id="L_Q4_DMS_0" transform="translate(0, -10.5)"><g><rect class="background" style="" x="-75.8125" y="-1" width="151.625" height="23"></rect><text y="-10.1" text-anchor="middle" style=""><tspan class="text-outer-tspan row" x="0" y="-0.1em" dy="1.1em" text-anchor="middle"><tspan font-style="normal" class="text-inner-tspan" font-weight="normal">No,</tspan><tspan font-style="normal" class="text-inner-tspan" font-weight="normal"> AWS-native</tspan><tspan font-style="normal" class="text-inner-tspan" font-weight="normal"> sinks</tspan></tspan></text></g></g></g><g class="edgeLabel" transform="translate(488.0078125, 924.025016784668)"><g class="label" data-id="L_Q4_FT_0" transform="translate(0, -10.5)"><g><rect class="background" style="" x="-65.203125" y="-1" width="130.40625" height="23"></rect><text y="-10.1" text-anchor="middle" style=""><tspan class="text-outer-tspan row" x="0" y="-0.1em" dy="1.1em" text-anchor="middle"><tspan font-style="normal" class="text-inner-tspan" font-weight="normal">No,</tspan><tspan font-style="normal" class="text-inner-tspan" font-weight="normal"> SaaS,</tspan><tspan font-style="normal" class="text-inner-tspan" font-weight="normal"> low</tspan><tspan font-style="normal" class="text-inner-tspan" font-weight="normal"> ops</tspan></tspan></text></g></g></g></g><g class="nodes"><g class="node default" id="g2c00cbae-fc55-4a23-b525-989baf209846-light-flowchart-Start-0" data-look="classic" transform="translate(669.33984375, 33.79999923706055)"><g class="basic label-container outer-path"><path d="M-66.84531307220459 -25.799999237060547 C-13.96013929128732 -25.799999237060547, 38.92503448962995 -25.799999237060547, 66.84531307220459 -25.799999237060547 C66.84531307220459 -25.799999237060547, 66.84531307220459 -25.799999237060547, 66.84531307220459 -25.799999237060547 C67.4292430664288 -25.78127373869656, 68.01317306065302 -25.762548240332574, 68.49832469882529 -25.746990371586765 C68.83155263657711 -25.714844273197077, 69.16478057432893 -25.68269817480739, 70.14454374610231 -25.58818159996402 C70.61980123287867 -25.511345655178875, 71.09505871965501 -25.43450971039373, 71.77720554685753 -25.32422550149928 C72.26478888110164 -25.212937787236672, 72.75237221534573 -25.101650072974067, 73.38960114354678 -24.956206728419545 C73.80043870964293 -24.8342722953326, 74.2112762757391 -24.71233786224565, 74.97510485680552 -24.48563754880318 C75.55788011394785 -24.27117086705938, 76.14065537109018 -24.056704185315578, 76.52720151178644 -23.914451632345997 C76.91298281225542 -23.74367769442406, 77.2987641127244 -23.57290375650212, 78.03951321041056 -23.24499610449772 C78.4308656036297 -23.040827811628468, 78.82221799684883 -22.836659518759216, 79.5058255395184 -22.480021901620034 C80.03321036984403 -22.160318118219365, 80.56059520016964 -21.840614334818692, 80.92011310722664 -21.62267246679901 C81.41625281496711 -21.27658688422105, 81.91239252270758 -20.93050130164309, 82.27656430255584 -20.67647083276321 C82.64779620301343 -20.380423271044048, 83.019028103471 -20.084375709324885, 83.5696051765865 -19.64530514498651 C83.94898734487482 -19.300760297649173, 84.32836951316314 -18.956215450311838, 84.79392234701088 -18.533412684464313 C85.14864924975065 -18.167128033765152, 85.50337615249043 -17.800843383065995, 85.94448483196044 -17.345362455817106 C86.28269215752474 -16.948084886667292, 86.62089948308902 -16.550807317517474, 87.01656472338968 -16.086036412270357 C87.25460548991708 -15.767083471083593, 87.49264625644447 -15.44813052989683, 88.00575661506427 -14.76060939466161 C88.22695857181284 -14.420783788053477, 88.44816052856143 -14.080958181445345, 88.90799570532036 -13.374527866909407 C89.08095896554136 -13.067414083957726, 89.25392222576237 -12.760300301006044, 89.7195745002064 -11.93348753532484 C89.99037771173447 -11.37115887232632, 90.26118092326253 -10.808830209327802, 90.43715804837109 -10.443409943732584 C90.65325466144436 -9.909647131497794, 90.86935127451764 -9.375884319263001, 91.05779764509381 -8.910418140577123 C91.17245187019546 -8.565097882240943, 91.2871060952971 -8.219777623904763, 91.5789429491449 -7.340811518003323 C91.67666600729893 -6.968151143820678, 91.77438906545297 -6.595490769638032, 91.99845246268467 -5.741039926302914 C92.08821012238558 -5.280153314026828, 92.1779677820865 -4.819266701750742, 92.31460233113748 -4.117677170096137 C92.37844606791064 -3.6225177550553065, 92.4422898046838 -3.127358340014476, 92.52609342687991 -2.4773939951584394 C92.5520097140786 -2.073726902788451, 92.57792600127728 -1.670059810418462, 92.63205668763487 -0.8269306768952902 C92.63205668763487 -0.3279338913678609, 92.63205668763487 0.17106289415956843, 92.63205668763487 0.826930676895284 C92.59944316586183 1.3349126036714738, 92.56682964408877 1.8428945304476636, 92.52609342687991 2.4773939951584216 C92.45336499040125 3.041461386632647, 92.3806365539226 3.605528778106873, 92.31460233113748 4.117677170096119 C92.20721102770827 4.669108816045053, 92.09981972427907 5.220540461993988, 91.99845246268467 5.741039926302909 C91.88243644707349 6.183459275487556, 91.76642043146231 6.625878624672203, 91.5789429491449 7.340811518003306 C91.42722637141422 7.797757677374182, 91.27550979368354 8.25470383674506, 91.05779764509383 8.910418140577105 C90.84260185712493 9.441955897387801, 90.62740606915604 9.9734936541985, 90.43715804837109 10.443409943732577 C90.22679736593635 10.880228401805875, 90.01643668350161 11.317046859879172, 89.7195745002064 11.933487535324835 C89.40057156901636 12.499909542202314, 89.08156863782631 13.066331549079793, 88.90799570532037 13.374527866909402 C88.68234381705736 13.721189763297625, 88.45669192879436 14.067851659685846, 88.00575661506429 14.760609394661596 C87.69280412648817 15.179937218795358, 87.37985163791207 15.599265042929119, 87.01656472338968 16.086036412270353 C86.67086070122475 16.492120027821386, 86.32515667905984 16.89820364337242, 85.94448483196045 17.345362455817092 C85.58760027683851 17.71387505974738, 85.23071572171658 18.08238766367767, 84.79392234701088 18.533412684464306 C84.38570563912295 18.904144297745905, 83.97748893123502 19.274875911027504, 83.56960517658653 19.64530514498649 C83.27496814750513 19.880270335058274, 82.98033111842375 20.115235525130057, 82.27656430255584 20.676470832763208 C81.83991895320028 20.981055726401117, 81.40327360384474 21.285640620039025, 80.92011310722665 21.622672466799003 C80.58341728904334 21.826779450425985, 80.24672147086002 22.03088643405297, 79.50582553951841 22.48002190162003 C79.00448294713064 22.741572010943475, 78.50314035474287 23.00312212026692, 78.03951321041058 23.244996104497716 C77.65499985756813 23.415208759617716, 77.27048650472568 23.58542141473772, 76.52720151178644 23.914451632345994 C76.00585792238577 24.106310892492754, 75.48451433298509 24.298170152639514, 74.97510485680553 24.485637548803172 C74.3803873650837 24.662146578610393, 73.78566987336188 24.838655608417614, 73.38960114354681 24.95620672841954 C72.89392551381839 25.069341456319282, 72.39824988408995 25.182476184219027, 71.77720554685754 25.324225501499278 C71.3180316427696 25.39846117736541, 70.85885773868166 25.472696853231536, 70.14454374610233 25.588181599964017 C69.80220799835287 25.621206317830435, 69.45987225060342 25.65423103569685, 68.49832469882529 25.746990371586765 C68.02895756993712 25.762042061842514, 67.55959044104894 25.777093752098263, 66.84531307220459 25.799999237060547 C66.84531307220459 25.799999237060547, 66.84531307220459 25.799999237060547, 66.84531307220459 25.799999237060547 C18.29164643950874 25.799999237060547, -30.262020193187112 25.799999237060547, -66.84531307220459 25.799999237060547 C-67.29810663064004 25.785479028950718, -67.75090018907547 25.77095882084089, -68.49832469882527 25.746990371586765 C-68.92827282811182 25.70551379264277, -69.35822095739837 25.664037213698773, -70.14454374610231 25.588181599964017 C-70.63899366475121 25.508242771633252, -71.1334435834001 25.428303943302488, -71.77720554685753 25.324225501499278 C-72.22584410126491 25.22182667909596, -72.67448265567229 25.11942785669265, -73.38960114354678 24.956206728419545 C-73.87384497932716 24.812485699807695, -74.35808881510752 24.668764671195845, -74.9751048568055 24.485637548803183 C-75.34557382596259 24.349301543575766, -75.71604279511966 24.21296553834835, -76.52720151178644 23.914451632345997 C-77.02687837800259 23.6932595060597, -77.52655524421876 23.472067379773407, -78.03951321041056 23.244996104497723 C-78.47592538328419 23.017320153444892, -78.91233755615781 22.789644202392058, -79.5058255395184 22.480021901620038 C-79.80063761723056 22.301305087602845, -80.09544969494274 22.12258827358565, -80.92011310722663 21.622672466799017 C-81.27909389885858 21.372263006584582, -81.63807469049051 21.12185354637015, -82.27656430255584 20.67647083276321 C-82.65814187576218 20.372172872336822, -83.03971944896854 20.067874911910433, -83.5696051765865 19.645305144986512 C-83.94377790554222 19.30549137261683, -84.31795063449795 18.965677600247147, -84.79392234701086 18.533412684464324 C-85.22761268408715 18.085591804794184, -85.66130302116345 17.637770925124048, -85.94448483196044 17.3453624558171 C-86.24803745959797 16.988792266760235, -86.5515900872355 16.63222207770337, -87.01656472338968 16.08603641227036 C-87.36681254489221 15.616736239689919, -87.71706036639473 15.147436067109476, -88.00575661506427 14.760609394661614 C-88.25816128379299 14.372848043350643, -88.5105659525217 13.985086692039673, -88.90799570532036 13.374527866909418 C-89.10115874261163 13.031547334320242, -89.2943217799029 12.688566801731067, -89.71957450020639 11.933487535324842 C-89.8731602111957 11.614563520247797, -90.02674592218499 11.295639505170755, -90.43715804837109 10.443409943732586 C-90.62362041207656 9.982844300375511, -90.81008277578204 9.522278657018434, -91.05779764509381 8.910418140577127 C-91.16542893515536 8.58624984362896, -91.27306022521692 8.262081546680793, -91.5789429491449 7.340811518003316 C-91.72798611231839 6.7724453411072565, -91.87702927549189 6.204079164211198, -91.99845246268467 5.741039926302918 C-92.06331880244231 5.407964981153186, -92.12818514219995 5.074890036003454, -92.31460233113748 4.117677170096139 C-92.37308809796549 3.664073111899083, -92.43157386479349 3.210469053702027, -92.52609342687991 2.477393995158454 C-92.56125648474713 1.9297009857669576, -92.59641954261436 1.3820079763754611, -92.63205668763487 0.8269306768952934 C-92.63205668763487 0.18382286304970608, -92.63205668763487 -0.4592849507958813, -92.63205668763487 -0.8269306768952809 C-92.6087164839045 -1.1904731898692464, -92.58537628017412 -1.554015702843212, -92.52609342687991 -2.4773939951584185 C-92.47896176644423 -2.842937846298532, -92.43183010600855 -3.208481697438646, -92.31460233113748 -4.117677170096128 C-92.21298834109514 -4.639443532839147, -92.11137435105279 -5.161209895582167, -91.99845246268467 -5.741039926302906 C-91.84041015861948 -6.343723727671345, -91.68236785455429 -6.946407529039785, -91.5789429491449 -7.340811518003303 C-91.4699740082495 -7.669008606137333, -91.36100506735409 -7.997205694271364, -91.05779764509383 -8.910418140577093 C-90.85689706339886 -9.406646461512187, -90.65599648170388 -9.902874782447281, -90.43715804837109 -10.443409943732574 C-90.15709464480548 -11.02496759363342, -89.87703124123989 -11.606525243534264, -89.7195745002064 -11.933487535324831 C-89.40177185322308 -12.497778316051319, -89.08396920623976 -13.062069096777806, -88.90799570532036 -13.374527866909409 C-88.64404620881118 -13.780025173911525, -88.38009671230199 -14.18552248091364, -88.00575661506429 -14.760609394661605 C-87.75921053656208 -15.09095867904475, -87.51266445805987 -15.421307963427894, -87.01656472338968 -16.086036412270353 C-86.60849971503896 -16.565372790635873, -86.20043470668823 -17.04470916900139, -85.94448483196045 -17.345362455817092 C-85.55247831899945 -17.750141364782593, -85.16047180603844 -18.15492027374809, -84.79392234701089 -18.5334126844643 C-84.46442587919358 -18.832652658537167, -84.13492941137629 -19.131892632610032, -83.56960517658653 -19.645305144986487 C-83.08180854530744 -20.034309977618047, -82.59401191402836 -20.423314810249604, -82.27656430255585 -20.676470832763204 C-81.84552511564577 -20.977145110166013, -81.41448592873569 -21.277819387568822, -80.92011310722665 -21.622672466799 C-80.51591110477301 -21.867702096041025, -80.11170910231938 -22.112731725283048, -79.50582553951841 -22.480021901620027 C-79.13943142145817 -22.671169478325425, -78.77303730339791 -22.86231705503082, -78.03951321041058 -23.244996104497716 C-77.48443381041862 -23.490713289028783, -76.92935441042667 -23.736430473559853, -76.52720151178646 -23.91445163234599 C-76.13068077022662 -24.060374930637565, -75.73416002866678 -24.206298228929143, -74.97510485680553 -24.485637548803172 C-74.53849933143108 -24.615219776945136, -74.10189380605665 -24.744802005087102, -73.38960114354681 -24.956206728419538 C-72.90542980800683 -25.0667156762433, -72.42125847246685 -25.17722462406707, -71.77720554685754 -25.324225501499278 C-71.2234334190718 -25.413755084552687, -70.66966129128605 -25.503284667606096, -70.14454374610233 -25.588181599964017 C-69.68594686181692 -25.632421889847585, -69.22734997753149 -25.676662179731153, -68.49832469882529 -25.746990371586765 C-67.9727193444665 -25.763845512272294, -67.44711399010772 -25.78070065295782, -66.8453130722046 -25.799999237060547 C-66.8453130722046 -25.799999237060547, -66.84531307220459 -25.799999237060547, -66.84531307220459 -25.799999237060547" stroke="none" stroke-width="0" fill="#ECECFF" style=""></path><path d="M-66.84531307220459 -25.799999237060547 C-17.52921775749749 -25.799999237060547, 31.786877557209607 -25.799999237060547, 66.84531307220459 -25.799999237060547 M-66.84531307220459 -25.799999237060547 C-36.769200770236615 -25.799999237060547, -6.693088468268641 -25.799999237060547, 66.84531307220459 -25.799999237060547 M66.84531307220459 -25.799999237060547 C66.84531307220459 -25.799999237060547, 66.84531307220459 -25.799999237060547, 66.84531307220459 -25.799999237060547 M66.84531307220459 -25.799999237060547 C66.84531307220459 -25.799999237060547, 66.84531307220459 -25.799999237060547, 66.84531307220459 -25.799999237060547 M66.84531307220459 -25.799999237060547 C67.5033032820363 -25.77889877173149, 68.16129349186801 -25.75779830640244, 68.49832469882529 -25.746990371586765 M66.84531307220459 -25.799999237060547 C67.20671102384367 -25.78840990816992, 67.56810897548276 -25.776820579279295, 68.49832469882529 -25.746990371586765 M68.49832469882529 -25.746990371586765 C69.02362680132916 -25.696315109526427, 69.54892890383303 -25.645639847466086, 70.14454374610231 -25.58818159996402 M68.49832469882529 -25.746990371586765 C69.02116386786722 -25.696552705755387, 69.54400303690915 -25.646115039924013, 70.14454374610231 -25.58818159996402 M70.14454374610231 -25.58818159996402 C70.53109068373182 -25.525687688804354, 70.91763762136134 -25.463193777644687, 71.77720554685753 -25.32422550149928 M70.14454374610231 -25.58818159996402 C70.60351934362797 -25.513977984764992, 71.06249494115363 -25.43977436956596, 71.77720554685753 -25.32422550149928 M71.77720554685753 -25.32422550149928 C72.17516760328346 -25.233393259065178, 72.57312965970938 -25.142561016631078, 73.38960114354678 -24.956206728419545 M71.77720554685753 -25.32422550149928 C72.13666929069488 -25.24218024768855, 72.49613303453225 -25.160134993877822, 73.38960114354678 -24.956206728419545 M73.38960114354678 -24.956206728419545 C73.9008971141921 -24.80445676817933, 74.41219308483743 -24.65270680793912, 74.97510485680552 -24.48563754880318 M73.38960114354678 -24.956206728419545 C73.88055231005808 -24.810494999254253, 74.37150347656939 -24.664783270088964, 74.97510485680552 -24.48563754880318 M74.97510485680552 -24.48563754880318 C75.55244797603487 -24.273169944025486, 76.12979109526422 -24.060702339247797, 76.52720151178644 -23.914451632345997 M74.97510485680552 -24.48563754880318 C75.56836982381361 -24.267310556862963, 76.16163479082171 -24.048983564922747, 76.52720151178644 -23.914451632345997 M76.52720151178644 -23.914451632345997 C76.88098288858687 -23.75784311138812, 77.2347642653873 -23.60123459043024, 78.03951321041056 -23.24499610449772 M76.52720151178644 -23.914451632345997 C76.89431586601502 -23.751940997789397, 77.26143022024361 -23.589430363232797, 78.03951321041056 -23.24499610449772 M78.03951321041056 -23.24499610449772 C78.5092000431183 -22.999960784722866, 78.97888687582605 -22.75492546494801, 79.5058255395184 -22.480021901620034 M78.03951321041056 -23.24499610449772 C78.46400851312819 -23.023537176972148, 78.88850381584582 -22.802078249446577, 79.5058255395184 -22.480021901620034 M79.5058255395184 -22.480021901620034 C79.86238973009407 -22.26387059388929, 80.21895392066975 -22.047719286158546, 80.92011310722664 -21.62267246679901 M79.5058255395184 -22.480021901620034 C79.906672868531 -22.237025895132213, 80.30752019754362 -21.994029888644388, 80.92011310722664 -21.62267246679901 M80.92011310722664 -21.62267246679901 C81.25019540798108 -21.392421342825212, 81.58027770873552 -21.16217021885142, 82.27656430255584 -20.67647083276321 M80.92011310722664 -21.62267246679901 C81.41179196528365 -21.279698579853154, 81.90347082334068 -20.936724692907298, 82.27656430255584 -20.67647083276321 M82.27656430255584 -20.67647083276321 C82.68300964316975 -20.35234148958837, 83.08945498378367 -20.028212146413523, 83.5696051765865 -19.64530514498651 M82.27656430255584 -20.67647083276321 C82.75918008983984 -20.29159758534969, 83.24179587712383 -19.90672433793617, 83.5696051765865 -19.64530514498651 M83.5696051765865 -19.64530514498651 C84.05841663272126 -19.201379513767336, 84.54722808885602 -18.757453882548166, 84.79392234701088 -18.533412684464313 M83.5696051765865 -19.64530514498651 C83.91832247275825 -19.328609323157387, 84.26703976893 -19.011913501328266, 84.79392234701088 -18.533412684464313 M84.79392234701088 -18.533412684464313 C85.08578230337308 -18.232043317372295, 85.37764225973527 -17.930673950280273, 85.94448483196044 -17.345362455817106 M84.79392234701088 -18.533412684464313 C85.03564736957054 -18.283811752678023, 85.2773723921302 -18.034210820891733, 85.94448483196044 -17.345362455817106 M85.94448483196044 -17.345362455817106 C86.18568978110892 -17.062029397596884, 86.4268947302574 -16.778696339376662, 87.01656472338968 -16.086036412270357 M85.94448483196044 -17.345362455817106 C86.23647000974324 -17.002380051566142, 86.52845518752605 -16.659397647315178, 87.01656472338968 -16.086036412270357 M87.01656472338968 -16.086036412270357 C87.35037371910482 -15.638762768637182, 87.68418271481995 -15.191489125004008, 88.00575661506427 -14.76060939466161 M87.01656472338968 -16.086036412270357 C87.34585545576965 -15.644816829884054, 87.67514618814961 -15.203597247497749, 88.00575661506427 -14.76060939466161 M88.00575661506427 -14.76060939466161 C88.21270467298594 -14.442681604359388, 88.41965273090759 -14.124753814057167, 88.90799570532036 -13.374527866909407 M88.00575661506427 -14.76060939466161 C88.26106126966724 -14.368392886292549, 88.51636592427019 -13.976176377923487, 88.90799570532036 -13.374527866909407 M88.90799570532036 -13.374527866909407 C89.15989522786958 -12.927254757030653, 89.41179475041882 -12.479981647151899, 89.7195745002064 -11.93348753532484 M88.90799570532036 -13.374527866909407 C89.225277426104 -12.811162043399959, 89.54255914688764 -12.247796219890509, 89.7195745002064 -11.93348753532484 M89.7195745002064 -11.93348753532484 C89.9398033779091 -11.476177558632083, 90.1600322556118 -11.018867581939327, 90.43715804837109 -10.443409943732584 M89.7195745002064 -11.93348753532484 C89.9300701566747 -11.49638880078289, 90.140565813143 -11.05929006624094, 90.43715804837109 -10.443409943732584 M90.43715804837109 -10.443409943732584 C90.6504227255814 -9.916642067831093, 90.8636874027917 -9.389874191929604, 91.05779764509381 -8.910418140577123 M90.43715804837109 -10.443409943732584 C90.61137521658362 -10.013090169987803, 90.78559238479616 -9.582770396243022, 91.05779764509381 -8.910418140577123 M91.05779764509381 -8.910418140577123 C91.21239237192424 -8.444803454688609, 91.36698709875466 -7.9791887688000935, 91.5789429491449 -7.340811518003323 M91.05779764509381 -8.910418140577123 C91.24270098352467 -8.353518745569556, 91.42760432195554 -7.79661935056199, 91.5789429491449 -7.340811518003323 M91.5789429491449 -7.340811518003323 C91.68976183396222 -6.918211080986406, 91.80058071877953 -6.495610643969489, 91.99845246268467 -5.741039926302914 M91.5789429491449 -7.340811518003323 C91.74641396236717 -6.702171962190561, 91.91388497558944 -6.0635324063777984, 91.99845246268467 -5.741039926302914 M91.99845246268467 -5.741039926302914 C92.10968891085655 -5.169864274771946, 92.22092535902844 -4.598688623240978, 92.31460233113748 -4.117677170096137 M91.99845246268467 -5.741039926302914 C92.08448646486269 -5.299273508411607, 92.1705204670407 -4.8575070905203, 92.31460233113748 -4.117677170096137 M92.31460233113748 -4.117677170096137 C92.39812700194068 -3.4698763171583247, 92.48165167274388 -2.8220754642205126, 92.52609342687991 -2.4773939951584394 M92.31460233113748 -4.117677170096137 C92.38473883247157 -3.573712315767615, 92.45487533380567 -3.029747461439094, 92.52609342687991 -2.4773939951584394 M92.52609342687991 -2.4773939951584394 C92.56613751345056 -1.8536750238157274, 92.6061816000212 -1.2299560524730153, 92.63205668763487 -0.8269306768952902 M92.52609342687991 -2.4773939951584394 C92.56055219298882 -1.9406708983967067, 92.59501095909773 -1.403947801634974, 92.63205668763487 -0.8269306768952902 M92.63205668763487 -0.8269306768952902 C92.63205668763487 -0.2155986676944609, 92.63205668763487 0.3957333415063684, 92.63205668763487 0.826930676895284 M92.63205668763487 -0.8269306768952902 C92.63205668763487 -0.2793515681268728, 92.63205668763487 0.26822754064154464, 92.63205668763487 0.826930676895284 M92.63205668763487 0.826930676895284 C92.59326807281015 1.4310946623966934, 92.55447945798542 2.035258647898103, 92.52609342687991 2.4773939951584216 M92.63205668763487 0.826930676895284 C92.59585204539331 1.3908472036686552, 92.55964740315177 1.9547637304420267, 92.52609342687991 2.4773939951584216 M92.52609342687991 2.4773939951584216 C92.44996426483505 3.067836742574941, 92.37383510279018 3.6582794899914597, 92.31460233113748 4.117677170096119 M92.52609342687991 2.4773939951584216 C92.45922614398407 2.9960034368601103, 92.39235886108821 3.514612878561799, 92.31460233113748 4.117677170096119 M92.31460233113748 4.117677170096119 C92.23037616090208 4.550160753047453, 92.1461499906667 4.982644335998787, 91.99845246268467 5.741039926302909 M92.31460233113748 4.117677170096119 C92.20788095396246 4.665668886318758, 92.10115957678745 5.213660602541397, 91.99845246268467 5.741039926302909 M91.99845246268467 5.741039926302909 C91.86483691932463 6.250573902477558, 91.73122137596458 6.760107878652207, 91.5789429491449 7.340811518003306 M91.99845246268467 5.741039926302909 C91.84520629974577 6.3254339628960805, 91.69196013680687 6.909827999489252, 91.5789429491449 7.340811518003306 M91.5789429491449 7.340811518003306 C91.37869370553726 7.9439303343654055, 91.17844446192962 8.547049150727506, 91.05779764509383 8.910418140577105 M91.5789429491449 7.340811518003306 C91.45099679482958 7.72616494934978, 91.32305064051425 8.111518380696255, 91.05779764509383 8.910418140577105 M91.05779764509383 8.910418140577105 C90.89780847246604 9.305594490147957, 90.73781929983826 9.70077083971881, 90.43715804837109 10.443409943732577 M91.05779764509383 8.910418140577105 C90.90921361610286 9.277423564861564, 90.7606295871119 9.644428989146025, 90.43715804837109 10.443409943732577 M90.43715804837109 10.443409943732577 C90.22081727250944 10.892646193760347, 90.0044764966478 11.341882443788117, 89.7195745002064 11.933487535324835 M90.43715804837109 10.443409943732577 C90.25355979537359 10.824655644455186, 90.06996154237609 11.205901345177796, 89.7195745002064 11.933487535324835 M89.7195745002064 11.933487535324835 C89.4011224160588 12.498931457499143, 89.0826703319112 13.064375379673454, 88.90799570532037 13.374527866909402 M89.7195745002064 11.933487535324835 C89.50749782207048 12.310051152447523, 89.29542114393455 12.68661476957021, 88.90799570532037 13.374527866909402 M88.90799570532037 13.374527866909402 C88.58092520687806 13.876995983243082, 88.25385470843575 14.379464099576765, 88.00575661506429 14.760609394661596 M88.90799570532037 13.374527866909402 C88.55896674502799 13.910730077317412, 88.2099377847356 14.446932287725422, 88.00575661506429 14.760609394661596 M88.00575661506429 14.760609394661596 C87.79792621856095 15.039083192237447, 87.5900958220576 15.317556989813298, 87.01656472338968 16.086036412270353 M88.00575661506429 14.760609394661596 C87.66044381247953 15.223297091481685, 87.31513100989478 15.685984788301774, 87.01656472338968 16.086036412270353 M87.01656472338968 16.086036412270353 C86.66979253254198 16.493374759536703, 86.32302034169427 16.900713106803057, 85.94448483196045 17.345362455817092 M87.01656472338968 16.086036412270353 C86.7967190854498 16.344279608165714, 86.57687344750993 16.602522804061078, 85.94448483196045 17.345362455817092 M85.94448483196045 17.345362455817092 C85.49541880936654 17.80905999315143, 85.04635278677263 18.27275753048577, 84.79392234701088 18.533412684464306 M85.94448483196045 17.345362455817092 C85.621830409734 17.678529637186625, 85.29917598750754 18.01169681855616, 84.79392234701088 18.533412684464306 M84.79392234701088 18.533412684464306 C84.468788088662 18.828691015315698, 84.14365383031311 19.123969346167087, 83.56960517658653 19.64530514498649 M84.79392234701088 18.533412684464306 C84.48655736707352 18.812553426811697, 84.17919238713614 19.09169416915909, 83.56960517658653 19.64530514498649 M83.56960517658653 19.64530514498649 C83.21981058752412 19.924257021338818, 82.87001599846172 20.20320889769114, 82.27656430255584 20.676470832763208 M83.56960517658653 19.64530514498649 C83.18017042432189 19.95586899662356, 82.79073567205722 20.26643284826063, 82.27656430255584 20.676470832763208 M82.27656430255584 20.676470832763208 C81.97754153956146 20.88505616774131, 81.67851877656706 21.093641502719418, 80.92011310722665 21.622672466799003 M82.27656430255584 20.676470832763208 C81.84476836136766 20.977672989191056, 81.41297242017947 21.2788751456189, 80.92011310722665 21.622672466799003 M80.92011310722665 21.622672466799003 C80.47517251162563 21.89239807061352, 80.0302319160246 22.16212367442804, 79.50582553951841 22.48002190162003 M80.92011310722665 21.622672466799003 C80.37830433216126 21.951120130265426, 79.83649555709589 22.27956779373185, 79.50582553951841 22.48002190162003 M79.50582553951841 22.48002190162003 C79.1040667614325 22.68961919880867, 78.70230798334659 22.89921649599731, 78.03951321041058 23.244996104497716 M79.50582553951841 22.48002190162003 C79.19336379524592 22.64303299346569, 78.88090205097342 22.806044085311356, 78.03951321041058 23.244996104497716 M78.03951321041058 23.244996104497716 C77.58124522248072 23.4478577487174, 77.12297723455086 23.65071939293708, 76.52720151178644 23.914451632345994 M78.03951321041058 23.244996104497716 C77.68365218149266 23.402525225757316, 77.32779115257475 23.56005434701692, 76.52720151178644 23.914451632345994 M76.52720151178644 23.914451632345994 C76.1616213781576 24.048988500907114, 75.79604124452878 24.183525369468235, 74.97510485680553 24.485637548803172 M76.52720151178644 23.914451632345994 C76.03874443477906 24.094208351932433, 75.55028735777168 24.273965071518873, 74.97510485680553 24.485637548803172 M74.97510485680553 24.485637548803172 C74.55204615402823 24.611199151107026, 74.12898745125094 24.736760753410884, 73.38960114354681 24.95620672841954 M74.97510485680553 24.485637548803172 C74.55173361932012 24.61129190976787, 74.12836238183469 24.73694627073257, 73.38960114354681 24.95620672841954 M73.38960114354681 24.95620672841954 C72.89753344552727 25.06851796945068, 72.40546574750775 25.180829210481825, 71.77720554685754 25.324225501499278 M73.38960114354681 24.95620672841954 C72.94221921522048 25.05831873412011, 72.49483728689412 25.16043073982068, 71.77720554685754 25.324225501499278 M71.77720554685754 25.324225501499278 C71.13183181822757 25.428564520996158, 70.4864580895976 25.532903540493034, 70.14454374610233 25.588181599964017 M71.77720554685754 25.324225501499278 C71.3879083413707 25.387164054637473, 70.99861113588385 25.45010260777567, 70.14454374610233 25.588181599964017 M70.14454374610233 25.588181599964017 C69.55447410667021 25.645104908417466, 68.96440446723808 25.702028216870914, 68.49832469882529 25.746990371586765 M70.14454374610233 25.588181599964017 C69.65261812165922 25.635637073326922, 69.16069249721612 25.683092546689828, 68.49832469882529 25.746990371586765 M68.49832469882529 25.746990371586765 C68.02360933529404 25.76221356931781, 67.54889397176281 25.777436767048858, 66.84531307220459 25.799999237060547 M68.49832469882529 25.746990371586765 C68.16736105265419 25.757603731537817, 67.83639740648309 25.768217091488864, 66.84531307220459 25.799999237060547 M66.84531307220459 25.799999237060547 C66.84531307220459 25.799999237060547, 66.84531307220459 25.799999237060547, 66.84531307220459 25.799999237060547 M66.84531307220459 25.799999237060547 C66.84531307220459 25.799999237060547, 66.84531307220459 25.799999237060547, 66.84531307220459 25.799999237060547 M66.84531307220459 25.799999237060547 C34.55344175060359 25.799999237060547, 2.261570429002589 25.799999237060547, -66.84531307220459 25.799999237060547 M66.84531307220459 25.799999237060547 C32.86271221615035 25.799999237060547, -1.1198886399038912 25.799999237060547, -66.84531307220459 25.799999237060547 M-66.84531307220459 25.799999237060547 C-67.30086963527229 25.785390424770025, -67.75642619833998 25.7707816124795, -68.49832469882527 25.746990371586765 M-66.84531307220459 25.799999237060547 C-67.44978362107472 25.78061504308883, -68.05425416994484 25.761230849117112, -68.49832469882527 25.746990371586765 M-68.49832469882527 25.746990371586765 C-68.88286589855457 25.709894144527336, -69.26740709828385 25.672797917467907, -70.14454374610231 25.588181599964017 M-68.49832469882527 25.746990371586765 C-69.0004958904319 25.698546520681692, -69.50266708203853 25.65010266977662, -70.14454374610231 25.588181599964017 M-70.14454374610231 25.588181599964017 C-70.57019475718438 25.51936564546516, -70.99584576826645 25.4505496909663, -71.77720554685753 25.324225501499278 M-70.14454374610231 25.588181599964017 C-70.56894588260866 25.519567553821396, -70.993348019115 25.450953507678776, -71.77720554685753 25.324225501499278 M-71.77720554685753 25.324225501499278 C-72.1882562583455 25.230405858958722, -72.59930696983346 25.136586216418166, -73.38960114354678 24.956206728419545 M-71.77720554685753 25.324225501499278 C-72.30707311439943 25.203286686916858, -72.83694068194133 25.082347872334438, -73.38960114354678 24.956206728419545 M-73.38960114354678 24.956206728419545 C-73.89708796544421 24.805587303533073, -74.40457478734166 24.6549678786466, -74.9751048568055 24.485637548803183 M-73.38960114354678 24.956206728419545 C-73.92498259763994 24.7973083231193, -74.46036405173308 24.638409917819054, -74.9751048568055 24.485637548803183 M-74.9751048568055 24.485637548803183 C-75.54824953073394 24.27471501070623, -76.12139420466238 24.063792472609276, -76.52720151178644 23.914451632345997 M-74.9751048568055 24.485637548803183 C-75.4387409848196 24.31501516788861, -75.90237711283369 24.144392786974038, -76.52720151178644 23.914451632345997 M-76.52720151178644 23.914451632345997 C-76.92677565332744 23.737572012831574, -77.32634979486842 23.56069239331715, -78.03951321041056 23.244996104497723 M-76.52720151178644 23.914451632345997 C-76.89739660796417 23.75057724471548, -77.26759170414188 23.58670285708496, -78.03951321041056 23.244996104497723 M-78.03951321041056 23.244996104497723 C-78.60888557667074 22.947954905720195, -79.17825794293091 22.650913706942667, -79.5058255395184 22.480021901620038 M-78.03951321041056 23.244996104497723 C-78.43379016803263 23.039302068252738, -78.8280671256547 22.83360803200775, -79.5058255395184 22.480021901620038 M-79.5058255395184 22.480021901620038 C-80.02783173627844 22.16357867749518, -80.54983793303848 21.847135453370328, -80.92011310722663 21.622672466799017 M-79.5058255395184 22.480021901620038 C-79.92037260237196 22.228721035969258, -80.33491966522553 21.977420170318474, -80.92011310722663 21.622672466799017 M-80.92011310722663 21.622672466799017 C-81.23740667136823 21.401342211870848, -81.55470023550984 21.180011956942682, -82.27656430255584 20.67647083276321 M-80.92011310722663 21.622672466799017 C-81.45531739796846 21.249337122197854, -81.99052168871029 20.876001777596688, -82.27656430255584 20.67647083276321 M-82.27656430255584 20.67647083276321 C-82.65381190834485 20.375625906126874, -83.03105951413387 20.074780979490537, -83.5696051765865 19.645305144986512 M-82.27656430255584 20.67647083276321 C-82.70989378590889 20.330902101171, -83.14322326926194 19.985333369578782, -83.5696051765865 19.645305144986512 M-83.5696051765865 19.645305144986512 C-83.94430699687423 19.30501086586809, -84.31900881716196 18.96471658674967, -84.79392234701086 18.533412684464324 M-83.5696051765865 19.645305144986512 C-83.81535918046504 19.42211786095866, -84.06111318434357 19.198930576930806, -84.79392234701086 18.533412684464324 M-84.79392234701086 18.533412684464324 C-85.199038547803 18.11509694648779, -85.60415474859514 17.696781208511254, -85.94448483196044 17.3453624558171 M-84.79392234701086 18.533412684464324 C-85.0604641247679 18.25818641544324, -85.32700590252496 17.982960146422155, -85.94448483196044 17.3453624558171 M-85.94448483196044 17.3453624558171 C-86.32359249837766 16.900041019006114, -86.70270016479488 16.454719582195125, -87.01656472338968 16.08603641227036 M-85.94448483196044 17.3453624558171 C-86.18355789233512 17.064533635458503, -86.42263095270978 16.783704815099902, -87.01656472338968 16.08603641227036 M-87.01656472338968 16.08603641227036 C-87.37332955685166 15.608004037376265, -87.73009439031362 15.12997166248217, -88.00575661506427 14.760609394661614 M-87.01656472338968 16.08603641227036 C-87.40519082597459 15.56531283937287, -87.7938169285595 15.044589266475379, -88.00575661506427 14.760609394661614 M-88.00575661506427 14.760609394661614 C-88.24030897812013 14.400273978879452, -88.47486134117598 14.03993856309729, -88.90799570532036 13.374527866909418 M-88.00575661506427 14.760609394661614 C-88.21696675062937 14.43613390857097, -88.42817688619448 14.111658422480325, -88.90799570532036 13.374527866909418 M-88.90799570532036 13.374527866909418 C-89.07610273905912 13.076036805823204, -89.24420977279787 12.777545744736992, -89.71957450020639 11.933487535324842 M-88.90799570532036 13.374527866909418 C-89.20800289989687 12.841834713916189, -89.50801009447336 12.30914156092296, -89.71957450020639 11.933487535324842 M-89.71957450020639 11.933487535324842 C-89.97089391824711 11.411617386389182, -90.22221333628784 10.889747237453522, -90.43715804837109 10.443409943732586 M-89.71957450020639 11.933487535324842 C-89.97180573387378 11.409723981730673, -90.22403696754118 10.885960428136505, -90.43715804837109 10.443409943732586 M-90.43715804837109 10.443409943732586 C-90.63924175393272 9.944259283972693, -90.84132545949436 9.445108624212798, -91.05779764509381 8.910418140577127 M-90.43715804837109 10.443409943732586 C-90.56419412972636 10.129628366709499, -90.69123021108165 9.81584678968641, -91.05779764509381 8.910418140577127 M-91.05779764509381 8.910418140577127 C-91.17350691390095 8.561920258698368, -91.2892161827081 8.21342237681961, -91.5789429491449 7.340811518003316 M-91.05779764509381 8.910418140577127 C-91.23168735953571 8.386690026241622, -91.40557707397762 7.862961911906117, -91.5789429491449 7.340811518003316 M-91.5789429491449 7.340811518003316 C-91.67289868434626 6.982517579007327, -91.76685441954761 6.624223640011339, -91.99845246268467 5.741039926302918 M-91.5789429491449 7.340811518003316 C-91.725353945554 6.782482933768169, -91.87176494196311 6.2241543495330225, -91.99845246268467 5.741039926302918 M-91.99845246268467 5.741039926302918 C-92.10196338072383 5.20953323921208, -92.20547429876301 4.678026552121242, -92.31460233113748 4.117677170096139 M-91.99845246268467 5.741039926302918 C-92.09587652947056 5.240787933941222, -92.19330059625644 4.740535941579528, -92.31460233113748 4.117677170096139 M-92.31460233113748 4.117677170096139 C-92.38676806950622 3.557973954045128, -92.45893380787496 2.998270737994116, -92.52609342687991 2.477393995158454 M-92.31460233113748 4.117677170096139 C-92.38213039369624 3.5939428518145613, -92.44965845625501 3.070208533532983, -92.52609342687991 2.477393995158454 M-92.52609342687991 2.477393995158454 C-92.55325497077861 2.054331024532641, -92.5804165146773 1.6312680539068287, -92.63205668763487 0.8269306768952934 M-92.52609342687991 2.477393995158454 C-92.56340405208736 1.8962508909576572, -92.60071467729483 1.3151077867568604, -92.63205668763487 0.8269306768952934 M-92.63205668763487 0.8269306768952934 C-92.63205668763487 0.2295848849527261, -92.63205668763487 -0.3677609069898412, -92.63205668763487 -0.8269306768952809 M-92.63205668763487 0.8269306768952934 C-92.63205668763487 0.25797255207153935, -92.63205668763487 -0.3109855727522147, -92.63205668763487 -0.8269306768952809 M-92.63205668763487 -0.8269306768952809 C-92.60298148525543 -1.2798004230360414, -92.57390628287598 -1.7326701691768016, -92.52609342687991 -2.4773939951584185 M-92.63205668763487 -0.8269306768952809 C-92.59089075484145 -1.4681233086956738, -92.54972482204803 -2.1093159404960664, -92.52609342687991 -2.4773939951584185 M-92.52609342687991 -2.4773939951584185 C-92.4760162173315 -2.8657829435523388, -92.4259390077831 -3.254171891946259, -92.31460233113748 -4.117677170096128 M-92.52609342687991 -2.4773939951584185 C-92.45807157617713 -3.0049580367754376, -92.39004972547436 -3.532522078392457, -92.31460233113748 -4.117677170096128 M-92.31460233113748 -4.117677170096128 C-92.24860642572331 -4.456552196158319, -92.18261052030914 -4.7954272222205105, -91.99845246268467 -5.741039926302906 M-92.31460233113748 -4.117677170096128 C-92.2419476134718 -4.4907437897294065, -92.16929289580611 -4.863810409362685, -91.99845246268467 -5.741039926302906 M-91.99845246268467 -5.741039926302906 C-91.90503912524456 -6.097265467558576, -91.81162578780446 -6.453491008814246, -91.5789429491449 -7.340811518003303 M-91.99845246268467 -5.741039926302906 C-91.87179716670336 -6.224031462632158, -91.74514187072205 -6.707022998961408, -91.5789429491449 -7.340811518003303 M-91.5789429491449 -7.340811518003303 C-91.45349260778057 -7.718647958395156, -91.32804226641625 -8.096484398787009, -91.05779764509383 -8.910418140577093 M-91.5789429491449 -7.340811518003303 C-91.45895134173544 -7.702207121454242, -91.33895973432598 -8.06360272490518, -91.05779764509383 -8.910418140577093 M-91.05779764509383 -8.910418140577093 C-90.8274229465964 -9.47944809985753, -90.59704824809897 -10.048478059137969, -90.43715804837109 -10.443409943732574 M-91.05779764509383 -8.910418140577093 C-90.81669585031054 -9.505944235077934, -90.57559405552723 -10.101470329578772, -90.43715804837109 -10.443409943732574 M-90.43715804837109 -10.443409943732574 C-90.28666199973651 -10.755918208821862, -90.13616595110193 -11.068426473911149, -89.7195745002064 -11.933487535324831 M-90.43715804837109 -10.443409943732574 C-90.27423162102771 -10.781730156178194, -90.11130519368433 -11.120050368623815, -89.7195745002064 -11.933487535324831 M-89.7195745002064 -11.933487535324831 C-89.50592805644821 -12.312838430265856, -89.29228161269 -12.692189325206881, -88.90799570532036 -13.374527866909409 M-89.7195745002064 -11.933487535324831 C-89.4059658021263 -12.490331535090265, -89.0923571040462 -13.047175534855699, -88.90799570532036 -13.374527866909409 M-88.90799570532036 -13.374527866909409 C-88.6146853248211 -13.825131376221561, -88.32137494432185 -14.275734885533712, -88.00575661506429 -14.760609394661605 M-88.90799570532036 -13.374527866909409 C-88.64852373729862 -13.77314648777006, -88.38905176927688 -14.171765108630709, -88.00575661506429 -14.760609394661605 M-88.00575661506429 -14.760609394661605 C-87.61063260913798 -15.290039566065396, -87.21550860321167 -15.819469737469184, -87.01656472338968 -16.086036412270353 M-88.00575661506429 -14.760609394661605 C-87.6942888794352 -15.177947785110126, -87.38282114380611 -15.595286175558646, -87.01656472338968 -16.086036412270353 M-87.01656472338968 -16.086036412270353 C-86.61670627815538 -16.555732894632644, -86.21684783292109 -17.025429376994936, -85.94448483196045 -17.345362455817092 M-87.01656472338968 -16.086036412270353 C-86.71915040180208 -16.435396197761463, -86.42173608021449 -16.78475598325257, -85.94448483196045 -17.345362455817092 M-85.94448483196045 -17.345362455817092 C-85.59646437701856 -17.704722148555334, -85.24844392207667 -18.06408184129357, -84.79392234701089 -18.5334126844643 M-85.94448483196045 -17.345362455817092 C-85.63061707059067 -17.669456688453828, -85.31674930922091 -17.993550921090563, -84.79392234701089 -18.5334126844643 M-84.79392234701089 -18.5334126844643 C-84.35677306224451 -18.930420098552858, -83.91962377747815 -19.327427512641417, -83.56960517658653 -19.645305144986487 M-84.79392234701089 -18.5334126844643 C-84.34442753453854 -18.94163198017067, -83.89493272206617 -19.34985127587704, -83.56960517658653 -19.645305144986487 M-83.56960517658653 -19.645305144986487 C-83.21007306576723 -19.9320224358136, -82.85054095494793 -20.218739726640713, -82.27656430255585 -20.676470832763204 M-83.56960517658653 -19.645305144986487 C-83.10994995553344 -20.01186795183719, -82.65029473448035 -20.37843075868789, -82.27656430255585 -20.676470832763204 M-82.27656430255585 -20.676470832763204 C-81.9950154907466 -20.872867095829715, -81.71346667893734 -21.069263358896222, -80.92011310722665 -21.622672466799 M-82.27656430255585 -20.676470832763204 C-81.84146410588642 -20.979977894775857, -81.40636390921698 -21.28348495678851, -80.92011310722665 -21.622672466799 M-80.92011310722665 -21.622672466799 C-80.57723481603098 -21.830527301898318, -80.2343565248353 -22.038382136997633, -79.50582553951841 -22.480021901620027 M-80.92011310722665 -21.622672466799 C-80.39122054960369 -21.943290243347704, -79.86232799198073 -22.263908019896412, -79.50582553951841 -22.480021901620027 M-79.50582553951841 -22.480021901620027 C-79.02693693794109 -22.729857778320127, -78.54804833636378 -22.979693655020228, -78.03951321041058 -23.244996104497716 M-79.50582553951841 -22.480021901620027 C-78.9268391590259 -22.78207872546449, -78.34785277853341 -23.084135549308954, -78.03951321041058 -23.244996104497716 M-78.03951321041058 -23.244996104497716 C-77.53904623168182 -23.466537990155484, -77.03857925295307 -23.688079875813248, -76.52720151178646 -23.91445163234599 M-78.03951321041058 -23.244996104497716 C-77.56542015326818 -23.454863037423788, -77.0913270961258 -23.66472997034986, -76.52720151178646 -23.91445163234599 M-76.52720151178646 -23.91445163234599 C-75.90726187206278 -24.142595150423514, -75.2873222323391 -24.370738668501037, -74.97510485680553 -24.485637548803172 M-76.52720151178646 -23.91445163234599 C-75.94774844329909 -24.12769571795479, -75.36829537481172 -24.340939803563586, -74.97510485680553 -24.485637548803172 M-74.97510485680553 -24.485637548803172 C-74.58443976947717 -24.60158489607934, -74.1937746821488 -24.71753224335551, -73.38960114354681 -24.956206728419538 M-74.97510485680553 -24.485637548803172 C-74.3873938188573 -24.660067099908016, -73.79968278090907 -24.834496651012863, -73.38960114354681 -24.956206728419538 M-73.38960114354681 -24.956206728419538 C-72.90602993472507 -25.066578701236057, -72.42245872590334 -25.176950674052577, -71.77720554685754 -25.324225501499278 M-73.38960114354681 -24.956206728419538 C-72.79638567477095 -25.091604288074922, -72.20317020599508 -25.22700184773031, -71.77720554685754 -25.324225501499278 M-71.77720554685754 -25.324225501499278 C-71.27295841839177 -25.40574826673474, -70.76871128992597 -25.487271031970206, -70.14454374610233 -25.588181599964017 M-71.77720554685754 -25.324225501499278 C-71.14950444456878 -25.425707347822573, -70.52180334228002 -25.527189194145873, -70.14454374610233 -25.588181599964017 M-70.14454374610233 -25.588181599964017 C-69.76883517739296 -25.62442575373175, -69.39312660868357 -25.66066990749948, -68.49832469882529 -25.746990371586765 M-70.14454374610233 -25.588181599964017 C-69.7286228083263 -25.628304992613156, -69.31270187055028 -25.6684283852623, -68.49832469882529 -25.746990371586765 M-68.49832469882529 -25.746990371586765 C-67.89419563848472 -25.766363614686007, -67.29006657814413 -25.78573685778525, -66.8453130722046 -25.799999237060547 M-68.49832469882529 -25.746990371586765 C-68.01105096321513 -25.762616291866994, -67.52377722760495 -25.778242212147223, -66.8453130722046 -25.799999237060547 M-66.8453130722046 -25.799999237060547 C-66.8453130722046 -25.799999237060547, -66.84531307220459 -25.799999237060547, -66.84531307220459 -25.799999237060547 M-66.8453130722046 -25.799999237060547 C-66.8453130722046 -25.799999237060547, -66.84531307220459 -25.799999237060547, -66.84531307220459 -25.799999237060547" stroke="#9370DB" stroke-width="1.3" fill="none" stroke-dasharray="0 0" style=""></path></g><g class="label" style="" transform="translate(0, -18.299999237060547)"><rect></rect><g><rect class="background" style="stroke: none"></rect><text y="-10.1" style=""><tspan class="text-outer-tspan row" x="0" y="-0.1em" dy="1.1em"><tspan font-style="normal" class="text-inner-tspan" font-weight="normal">Need</tspan><tspan font-style="normal" class="text-inner-tspan" font-weight="normal"> to</tspan><tspan font-style="normal" class="text-inner-tspan" font-weight="normal"> propagate</tspan><tspan font-style="normal" class="text-inner-tspan" font-weight="normal"> DB</tspan></tspan><tspan class="text-outer-tspan row" x="0" y="1em" dy="1.1em"><tspan font-style="normal" class="text-inner-tspan" font-weight="normal">changes</tspan></tspan></text></g></g></g><g class="node default" id="g2c00cbae-fc55-4a23-b525-989baf209846-light-flowchart-Q1-1" data-look="classic" transform="translate(669.33984375, 238.52812957763672)"><polygon points="128.9281234741211,0 257.8562469482422,-128.9281234741211 128.9281234741211,-257.8562469482422 0,-128.9281234741211" class="label-container" transform="translate(-128.4281234741211, 128.9281234741211)"></polygon><g class="label" style="" transform="translate(0, -27.099998474121094)"><rect></rect><g><rect class="background" style="stroke: none"></rect><text y="-10.1" style=""><tspan class="text-outer-tspan row" x="0" y="-0.1em" dy="1.1em"><tspan font-style="normal" class="text-inner-tspan" font-weight="normal">DBA</tspan><tspan font-style="normal" class="text-inner-tspan" font-weight="normal"> can</tspan><tspan font-style="normal" class="text-inner-tspan" font-weight="normal"> grant</tspan></tspan><tspan class="text-outer-tspan row" x="0" y="1em" dy="1.1em"><tspan font-style="normal" class="text-inner-tspan" font-weight="normal">logical</tspan><tspan font-style="normal" class="text-inner-tspan" font-weight="normal"> replication</tspan><tspan font-style="normal" class="text-inner-tspan" font-weight="normal"> slot</tspan><tspan font-style="normal" class="text-inner-tspan" font-weight="normal"> /</tspan></tspan><tspan class="text-outer-tspan row" x="0" y="2.1em" dy="1.1em"><tspan font-style="normal" class="text-inner-tspan" font-weight="normal">binlog</tspan><tspan font-style="normal" class="text-inner-tspan" font-weight="normal"> reader?</tspan></tspan></text></g></g></g><g class="node default preferred" id="g2c00cbae-fc55-4a23-b525-989baf209846-light-flowchart-LB-3" data-look="classic" transform="translate(316.8671875, 528.9203262329102)"><rect class="basic label-container" style="fill:#f4fcf4 !important;stroke:#2f9e44 !important" x="-119.9609375" y="-33.29999923706055" width="239.921875" height="66.5999984741211"></rect><g class="label" style="color:#1f5f2c !important" transform="translate(0, -18.299999237060547)"><rect></rect><g><rect class="background" style="stroke: none"></rect><text y="-10.1" style="fill:#1f5f2c !important"><tspan class="text-outer-tspan row" x="0" y="-0.1em" dy="1.1em"><tspan font-style="normal" class="text-inner-tspan" font-weight="normal">Log-based</tspan><tspan font-style="normal" class="text-inner-tspan" font-weight="normal"> CDC</tspan></tspan><tspan class="text-outer-tspan row" x="0" y="1em" dy="1.1em"><tspan font-style="normal" class="text-inner-tspan" font-weight="normal">Debezium</tspan><tspan font-style="normal" class="text-inner-tspan" font-weight="normal"> /</tspan><tspan font-style="normal" class="text-inner-tspan" font-weight="normal"> DMS</tspan><tspan font-style="normal" class="text-inner-tspan" font-weight="normal"> /</tspan><tspan font-style="normal" class="text-inner-tspan" font-weight="normal"> native</tspan></tspan></text></g></g></g><g class="node default" id="g2c00cbae-fc55-4a23-b525-989baf209846-light-flowchart-Q2-5" data-look="classic" transform="translate(798.5523452758789, 528.9203262329102)"><polygon points="88.46406173706055,0 176.9281234741211,-88.46406173706055 88.46406173706055,-176.9281234741211 0,-88.46406173706055" class="label-container" transform="translate(-87.96406173706055, 88.46406173706055)"></polygon><g class="label" style="" transform="translate(0, -18.299999237060547)"><rect></rect><g><rect class="background" style="stroke: none"></rect><text y="-10.1" style=""><tspan class="text-outer-tspan row" x="0" y="-0.1em" dy="1.1em"><tspan font-style="normal" class="text-inner-tspan" font-weight="normal">Can</tspan><tspan font-style="normal" class="text-inner-tspan" font-weight="normal"> install</tspan></tspan><tspan class="text-outer-tspan row" x="0" y="1em" dy="1.1em"><tspan font-style="normal" class="text-inner-tspan" font-weight="normal">AFTER</tspan><tspan font-style="normal" class="text-inner-tspan" font-weight="normal"> triggers?</tspan></tspan></text></g></g></g><g class="node default caution" id="g2c00cbae-fc55-4a23-b525-989baf209846-light-flowchart-TR-7" data-look="classic" transform="translate(572.6070327758789, 788.954704284668)"><rect class="basic label-container" style="fill:#fff8e6 !important;stroke:#e67700 !important" x="-104.484375" y="-33.29999923706055" width="208.96875" height="66.5999984741211"></rect><g class="label" style="color:#704700 !important" transform="translate(0, -18.299999237060547)"><rect></rect><g><rect class="background" style="stroke: none"></rect><text y="-10.1" style="fill:#704700 !important"><tspan class="text-outer-tspan row" x="0" y="-0.1em" dy="1.1em"><tspan font-style="normal" class="text-inner-tspan" font-weight="normal">Trigger-based</tspan><tspan font-style="normal" class="text-inner-tspan" font-weight="normal"> CDC</tspan></tspan><tspan class="text-outer-tspan row" x="0" y="1em" dy="1.1em"><tspan font-style="normal" class="text-inner-tspan" font-weight="normal">shadow</tspan><tspan font-style="normal" class="text-inner-tspan" font-weight="normal"> table</tspan><tspan font-style="normal" class="text-inner-tspan" font-weight="normal"> +</tspan><tspan font-style="normal" class="text-inner-tspan" font-weight="normal"> relay</tspan></tspan></text></g></g></g><g class="node default" id="g2c00cbae-fc55-4a23-b525-989baf209846-light-flowchart-Q3-9" data-look="classic" transform="translate(920.5421905517578, 788.954704284668)"><polygon points="89.49531173706055,0 178.9906234741211,-89.49531173706055 89.49531173706055,-178.9906234741211 0,-89.49531173706055" class="label-container" transform="translate(-88.99531173706055, 89.49531173706055)"></polygon><g class="label" style="" transform="translate(0, -18.299999237060547)"><rect></rect><g><rect class="background" style="stroke: none"></rect><text y="-10.1" style=""><tspan class="text-outer-tspan row" x="0" y="-0.1em" dy="1.1em"><tspan font-style="normal" class="text-inner-tspan" font-weight="normal">Hard</tspan><tspan font-style="normal" class="text-inner-tspan" font-weight="normal"> deletes</tspan></tspan><tspan class="text-outer-tspan row" x="0" y="1em" dy="1.1em"><tspan font-style="normal" class="text-inner-tspan" font-weight="normal">used</tspan><tspan font-style="normal" class="text-inner-tspan" font-weight="normal"> on</tspan><tspan font-style="normal" class="text-inner-tspan" font-weight="normal"> source?</tspan></tspan></text></g></g></g><g class="node default caution" id="g2c00cbae-fc55-4a23-b525-989baf209846-light-flowchart-PL-11" data-look="classic" transform="translate(724.53125, 1002.6250152587891)"><rect class="basic label-container" style="fill:#fff8e6 !important;stroke:#e67700 !important" x="-126.90625" y="-42.099998474121094" width="253.8125" height="84.19999694824219"></rect><g class="label" style="color:#704700 !important" transform="translate(0, -27.099998474121094)"><rect></rect><g><rect class="background" style="stroke: none"></rect><text y="-10.1" style="fill:#704700 !important"><tspan class="text-outer-tspan row" x="0" y="-0.1em" dy="1.1em"><tspan font-style="normal" class="text-inner-tspan" font-weight="normal">Polling-based</tspan><tspan font-style="normal" class="text-inner-tspan" font-weight="normal"> CDC</tspan></tspan><tspan class="text-outer-tspan row" x="0" y="1em" dy="1.1em"><tspan font-style="normal" class="text-inner-tspan" font-weight="normal">SELECT</tspan><tspan font-style="normal" class="text-inner-tspan" font-weight="normal"> WHERE</tspan><tspan font-style="normal" class="text-inner-tspan" font-weight="normal"> updated_at</tspan></tspan><tspan class="text-outer-tspan row" x="0" y="2.1em" dy="1.1em"><tspan font-style="normal" class="text-inner-tspan" font-weight="normal">&gt;</tspan><tspan font-style="normal" class="text-inner-tspan" font-weight="normal"> hwm</tspan></tspan></text></g></g></g><g class="node default bad" id="g2c00cbae-fc55-4a23-b525-989baf209846-light-flowchart-AP-13" data-look="classic" transform="translate(1021.8125, 1002.6250152587891)"><rect class="basic label-container" style="fill:#fff5f5 !important;stroke:#c92a2a !important" x="-120.375" y="-42.099998474121094" width="240.75" height="84.19999694824219"></rect><g class="label" style="color:#7a1f1f !important" transform="translate(0, -27.099998474121094)"><rect></rect><g><rect class="background" style="stroke: none"></rect><text y="-10.1" style="fill:#7a1f1f !important"><tspan class="text-outer-tspan row" x="0" y="-0.1em" dy="1.1em"><tspan font-style="normal" class="text-inner-tspan" font-weight="normal">Application-level</tspan><tspan font-style="normal" class="text-inner-tspan" font-weight="normal"> events</tspan></tspan><tspan class="text-outer-tspan row" x="0" y="1em" dy="1.1em"><tspan font-style="normal" class="text-inner-tspan" font-weight="normal">or</tspan><tspan font-style="normal" class="text-inner-tspan" font-weight="normal"> transactional</tspan><tspan font-style="normal" class="text-inner-tspan" font-weight="normal"> outbox</tspan><tspan font-style="normal" class="text-inner-tspan" font-weight="normal"> +</tspan></tspan><tspan class="text-outer-tspan row" x="0" y="2.1em" dy="1.1em"><tspan font-style="normal" class="text-inner-tspan" font-weight="normal">log-based</tspan><tspan font-style="normal" class="text-inner-tspan" font-weight="normal"> CDC</tspan></tspan></text></g></g></g><g class="node default" id="g2c00cbae-fc55-4a23-b525-989baf209846-light-flowchart-Q4-15" data-look="classic" transform="translate(316.8671875, 788.954704284668)"><polygon points="98.5703125,0 197.140625,-98.5703125 98.5703125,-197.140625 0,-98.5703125" class="label-container" transform="translate(-98.0703125, 98.5703125)"></polygon><g class="label" style="" transform="translate(0, -9.5)"><rect></rect><g><rect class="background" style="stroke: none"></rect><text y="-10.1" style=""><tspan class="text-outer-tspan row" x="0" y="-0.1em" dy="1.1em"><tspan font-style="normal" class="text-inner-tspan" font-weight="normal">Self-managed</tspan><tspan font-style="normal" class="text-inner-tspan" font-weight="normal"> Kafka?</tspan></tspan></text></g></g></g><g class="node default preferred" id="g2c00cbae-fc55-4a23-b525-989baf209846-light-flowchart-DZ-17" data-look="classic" transform="translate(106.671875, 1002.6250152587891)"><rect class="basic label-container" style="fill:#f4fcf4 !important;stroke:#2f9e44 !important" x="-98.671875" y="-33.29999923706055" width="197.34375" height="66.5999984741211"></rect><g class="label" style="color:#1f5f2c !important" transform="translate(0, -18.299999237060547)"><rect></rect><g><rect class="background" style="stroke: none"></rect><text y="-10.1" style="fill:#1f5f2c !important"><tspan class="text-outer-tspan row" x="0" y="-0.1em" dy="1.1em"><tspan font-style="normal" class="text-inner-tspan" font-weight="normal">Debezium</tspan><tspan font-style="normal" class="text-inner-tspan" font-weight="normal"> on</tspan><tspan font-style="normal" class="text-inner-tspan" font-weight="normal"> Kafka</tspan></tspan><tspan class="text-outer-tspan row" x="0" y="1em" dy="1.1em"><tspan font-style="normal" class="text-inner-tspan" font-weight="normal">Connect</tspan></tspan></text></g></g></g><g class="node default preferred" id="g2c00cbae-fc55-4a23-b525-989baf209846-light-flowchart-DMS-19" data-look="classic" transform="translate(316.8671875, 1002.6250152587891)"><rect class="basic label-container" style="fill:#f4fcf4 !important;stroke:#2f9e44 !important" x="-61.5234375" y="-24.5" width="123.046875" height="49"></rect><g class="label" style="color:#1f5f2c !important" transform="translate(0, -9.5)"><rect></rect><g><rect class="background" style="stroke: none"></rect><text y="-10.1" style="fill:#1f5f2c !important"><tspan class="text-outer-tspan row" x="0" y="-0.1em" dy="1.1em"><tspan font-style="normal" class="text-inner-tspan" font-weight="normal">AWS</tspan><tspan font-style="normal" class="text-inner-tspan" font-weight="normal"> DMS</tspan></tspan></text></g></g></g><g class="node default preferred" id="g2c00cbae-fc55-4a23-b525-989baf209846-light-flowchart-FT-21" data-look="classic" transform="translate(488.0078125, 1002.6250152587891)"><rect class="basic label-container" style="fill:#f4fcf4 !important;stroke:#2f9e44 !important" x="-59.6171875" y="-24.5" width="119.234375" height="49"></rect><g class="label" style="color:#1f5f2c !important" transform="translate(0, -9.5)"><rect></rect><g><rect class="background" style="stroke: none"></rect><text y="-10.1" style="fill:#1f5f2c !important"><tspan class="text-outer-tspan row" x="0" y="-0.1em" dy="1.1em"><tspan font-style="normal" class="text-inner-tspan" font-weight="normal">Fivetran</tspan></tspan></text></g></g></g></g></g></g><defs><filter id="g2c00cbae-fc55-4a23-b525-989baf209846-light-drop-shadow" height="130%" width="130%"><feDropShadow dx="4" dy="4" stdDeviation="0" flood-opacity="0.06" flood-color="#000000"></feDropShadow></filter></defs><defs><filter id="g2c00cbae-fc55-4a23-b525-989baf209846-light-drop-shadow-small" height="150%" width="150%"><feDropShadow dx="2" dy="2" stdDeviation="0" flood-opacity="0.06" flood-color="#000000"></feDropShadow></filter></defs></svg>