<svg id="gc90304e4-9fd0-4005-8ad6-89ab87bc0968-light" width="100%" xmlns="http://www.w3.org/2000/svg" xmlns:xlink="http://www.w3.org/1999/xlink" class="flowchart" style="max-width: 893.2062377929688px;" viewBox="0 0 893.2062377929688 1467.168701171875" role="graphics-document document" aria-roledescription="flowchart-v2"><style>#gc90304e4-9fd0-4005-8ad6-89ab87bc0968-light{font-family:"trebuchet ms",verdana,arial,sans-serif;font-size:16px;fill:#333;}@keyframes edge-animation-frame{from{stroke-dashoffset:0;}}@keyframes dash{to{stroke-dashoffset:0;}}#gc90304e4-9fd0-4005-8ad6-89ab87bc0968-light .edge-animation-slow{stroke-dasharray:9,5!important;stroke-dashoffset:900;animation:dash 50s linear infinite;stroke-linecap:round;}#gc90304e4-9fd0-4005-8ad6-89ab87bc0968-light .edge-animation-fast{stroke-dasharray:9,5!important;stroke-dashoffset:900;animation:dash 20s linear infinite;stroke-linecap:round;}#gc90304e4-9fd0-4005-8ad6-89ab87bc0968-light .error-icon{fill:#552222;}#gc90304e4-9fd0-4005-8ad6-89ab87bc0968-light .error-text{fill:#552222;stroke:#552222;}#gc90304e4-9fd0-4005-8ad6-89ab87bc0968-light .edge-thickness-normal{stroke-width:1px;}#gc90304e4-9fd0-4005-8ad6-89ab87bc0968-light .edge-thickness-thick{stroke-width:3.5px;}#gc90304e4-9fd0-4005-8ad6-89ab87bc0968-light .edge-pattern-solid{stroke-dasharray:0;}#gc90304e4-9fd0-4005-8ad6-89ab87bc0968-light .edge-thickness-invisible{stroke-width:0;fill:none;}#gc90304e4-9fd0-4005-8ad6-89ab87bc0968-light .edge-pattern-dashed{stroke-dasharray:3;}#gc90304e4-9fd0-4005-8ad6-89ab87bc0968-light .edge-pattern-dotted{stroke-dasharray:2;}#gc90304e4-9fd0-4005-8ad6-89ab87bc0968-light .marker{fill:#333333;stroke:#333333;}#gc90304e4-9fd0-4005-8ad6-89ab87bc0968-light .marker.cross{stroke:#333333;}#gc90304e4-9fd0-4005-8ad6-89ab87bc0968-light svg{font-family:"trebuchet ms",verdana,arial,sans-serif;font-size:16px;}#gc90304e4-9fd0-4005-8ad6-89ab87bc0968-light p{margin:0;}#gc90304e4-9fd0-4005-8ad6-89ab87bc0968-light .label{font-family:"trebuchet ms",verdana,arial,sans-serif;color:#333;}#gc90304e4-9fd0-4005-8ad6-89ab87bc0968-light .cluster-label text{fill:#333;}#gc90304e4-9fd0-4005-8ad6-89ab87bc0968-light .cluster-label span{color:#333;}#gc90304e4-9fd0-4005-8ad6-89ab87bc0968-light .cluster-label span p{background-color:transparent;}#gc90304e4-9fd0-4005-8ad6-89ab87bc0968-light .label text,#gc90304e4-9fd0-4005-8ad6-89ab87bc0968-light span{fill:#333;color:#333;}#gc90304e4-9fd0-4005-8ad6-89ab87bc0968-light .node rect,#gc90304e4-9fd0-4005-8ad6-89ab87bc0968-light .node circle,#gc90304e4-9fd0-4005-8ad6-89ab87bc0968-light .node ellipse,#gc90304e4-9fd0-4005-8ad6-89ab87bc0968-light .node polygon,#gc90304e4-9fd0-4005-8ad6-89ab87bc0968-light .node path{fill:#ECECFF;stroke:#9370DB;stroke-width:1px;}#gc90304e4-9fd0-4005-8ad6-89ab87bc0968-light .rough-node .label text,#gc90304e4-9fd0-4005-8ad6-89ab87bc0968-light .node .label text,#gc90304e4-9fd0-4005-8ad6-89ab87bc0968-light .image-shape .label,#gc90304e4-9fd0-4005-8ad6-89ab87bc0968-light .icon-shape .label{text-anchor:middle;}#gc90304e4-9fd0-4005-8ad6-89ab87bc0968-light .node .katex path{fill:#000;stroke:#000;stroke-width:1px;}#gc90304e4-9fd0-4005-8ad6-89ab87bc0968-light .rough-node .label,#gc90304e4-9fd0-4005-8ad6-89ab87bc0968-light .node .label,#gc90304e4-9fd0-4005-8ad6-89ab87bc0968-light .image-shape .label,#gc90304e4-9fd0-4005-8ad6-89ab87bc0968-light .icon-shape .label{text-align:center;}#gc90304e4-9fd0-4005-8ad6-89ab87bc0968-light .node.clickable{cursor:pointer;}#gc90304e4-9fd0-4005-8ad6-89ab87bc0968-light .root .anchor path{fill:#333333!important;stroke-width:0;stroke:#333333;}#gc90304e4-9fd0-4005-8ad6-89ab87bc0968-light .arrowheadPath{fill:#333333;}#gc90304e4-9fd0-4005-8ad6-89ab87bc0968-light .edgePath .path{stroke:#333333;stroke-width:1px;}#gc90304e4-9fd0-4005-8ad6-89ab87bc0968-light .flowchart-link{stroke:#333333;fill:none;}#gc90304e4-9fd0-4005-8ad6-89ab87bc0968-light .edgeLabel{background-color:rgba(232,232,232, 0.8);text-align:center;}#gc90304e4-9fd0-4005-8ad6-89ab87bc0968-light .edgeLabel p{background-color:rgba(232,232,232, 0.8);}#gc90304e4-9fd0-4005-8ad6-89ab87bc0968-light .edgeLabel rect{opacity:0.5;background-color:rgba(232,232,232, 0.8);fill:rgba(232,232,232, 0.8);}#gc90304e4-9fd0-4005-8ad6-89ab87bc0968-light .labelBkg{background-color:rgba(232, 232, 232, 0.5);}#gc90304e4-9fd0-4005-8ad6-89ab87bc0968-light .cluster rect{fill:#ffffde;stroke:#aaaa33;stroke-width:1px;}#gc90304e4-9fd0-4005-8ad6-89ab87bc0968-light .cluster text{fill:#333;}#gc90304e4-9fd0-4005-8ad6-89ab87bc0968-light .cluster span{color:#333;}#gc90304e4-9fd0-4005-8ad6-89ab87bc0968-light div.mermaidTooltip{position:absolute;text-align:center;max-width:200px;padding:2px;font-family:"trebuchet ms",verdana,arial,sans-serif;font-size:12px;background:hsl(80, 100%, 96.2745098039%);border:1px solid #aaaa33;border-radius:2px;pointer-events:none;z-index:100;}#gc90304e4-9fd0-4005-8ad6-89ab87bc0968-light .flowchartTitleText{text-anchor:middle;font-size:18px;fill:#333;}#gc90304e4-9fd0-4005-8ad6-89ab87bc0968-light rect.text{fill:none;stroke-width:0;}#gc90304e4-9fd0-4005-8ad6-89ab87bc0968-light .icon-shape,#gc90304e4-9fd0-4005-8ad6-89ab87bc0968-light .image-shape{background-color:rgba(232,232,232, 0.8);text-align:center;}#gc90304e4-9fd0-4005-8ad6-89ab87bc0968-light .icon-shape p,#gc90304e4-9fd0-4005-8ad6-89ab87bc0968-light .image-shape p{background-color:rgba(232,232,232, 0.8);padding:2px;}#gc90304e4-9fd0-4005-8ad6-89ab87bc0968-light .icon-shape .label rect,#gc90304e4-9fd0-4005-8ad6-89ab87bc0968-light .image-shape .label rect{opacity:0.5;background-color:rgba(232,232,232, 0.8);fill:rgba(232,232,232, 0.8);}#gc90304e4-9fd0-4005-8ad6-89ab87bc0968-light .label-icon{display:inline-block;height:1em;overflow:visible;vertical-align:-0.125em;}#gc90304e4-9fd0-4005-8ad6-89ab87bc0968-light .node .label-icon path{fill:currentColor;stroke:revert;stroke-width:revert;}#gc90304e4-9fd0-4005-8ad6-89ab87bc0968-light .node .neo-node{stroke:#9370DB;}#gc90304e4-9fd0-4005-8ad6-89ab87bc0968-light [data-look="neo"].node rect,#gc90304e4-9fd0-4005-8ad6-89ab87bc0968-light [data-look="neo"].cluster rect,#gc90304e4-9fd0-4005-8ad6-89ab87bc0968-light [data-look="neo"].node polygon{stroke:#9370DB;filter:drop-shadow(1px 2px 2px rgba(185, 185, 185, 1));}#gc90304e4-9fd0-4005-8ad6-89ab87bc0968-light [data-look="neo"].node path{stroke:#9370DB;stroke-width:1px;}#gc90304e4-9fd0-4005-8ad6-89ab87bc0968-light [data-look="neo"].node .outer-path{filter:drop-shadow(1px 2px 2px rgba(185, 185, 185, 1));}#gc90304e4-9fd0-4005-8ad6-89ab87bc0968-light [data-look="neo"].node .neo-line path{stroke:#9370DB;filter:none;}#gc90304e4-9fd0-4005-8ad6-89ab87bc0968-light [data-look="neo"].node circle{stroke:#9370DB;filter:drop-shadow(1px 2px 2px rgba(185, 185, 185, 1));}#gc90304e4-9fd0-4005-8ad6-89ab87bc0968-light [data-look="neo"].node circle .state-start{fill:#000000;}#gc90304e4-9fd0-4005-8ad6-89ab87bc0968-light [data-look="neo"].icon-shape .icon{fill:#9370DB;filter:drop-shadow(1px 2px 2px rgba(185, 185, 185, 1));}#gc90304e4-9fd0-4005-8ad6-89ab87bc0968-light [data-look="neo"].icon-shape .icon-neo path{stroke:#9370DB;filter:drop-shadow(1px 2px 2px rgba(185, 185, 185, 1));}#gc90304e4-9fd0-4005-8ad6-89ab87bc0968-light :root{--mermaid-font-family:"trebuchet ms",verdana,arial,sans-serif;}#gc90304e4-9fd0-4005-8ad6-89ab87bc0968-light .question rect{fill:#5A5A5A!important;stroke:#3D3D3D!important;color:#ffffff!important;}#gc90304e4-9fd0-4005-8ad6-89ab87bc0968-light .question polygon{fill:#5A5A5A!important;stroke:#3D3D3D!important;color:#ffffff!important;}#gc90304e4-9fd0-4005-8ad6-89ab87bc0968-light .question ellipse{fill:#5A5A5A!important;stroke:#3D3D3D!important;color:#ffffff!important;}#gc90304e4-9fd0-4005-8ad6-89ab87bc0968-light .question circle{fill:#5A5A5A!important;stroke:#3D3D3D!important;color:#ffffff!important;}#gc90304e4-9fd0-4005-8ad6-89ab87bc0968-light .question path{fill:#5A5A5A!important;stroke:#3D3D3D!important;color:#ffffff!important;}#gc90304e4-9fd0-4005-8ad6-89ab87bc0968-light .question tspan{fill:#ffffff!important;}#gc90304e4-9fd0-4005-8ad6-89ab87bc0968-light .leaf rect{fill:#2D7A2D!important;stroke:#1E5A1E!important;color:#ffffff!important;}#gc90304e4-9fd0-4005-8ad6-89ab87bc0968-light .leaf polygon{fill:#2D7A2D!important;stroke:#1E5A1E!important;color:#ffffff!important;}#gc90304e4-9fd0-4005-8ad6-89ab87bc0968-light .leaf ellipse{fill:#2D7A2D!important;stroke:#1E5A1E!important;color:#ffffff!important;}#gc90304e4-9fd0-4005-8ad6-89ab87bc0968-light .leaf circle{fill:#2D7A2D!important;stroke:#1E5A1E!important;color:#ffffff!important;}#gc90304e4-9fd0-4005-8ad6-89ab87bc0968-light .leaf path{fill:#2D7A2D!important;stroke:#1E5A1E!important;color:#ffffff!important;}#gc90304e4-9fd0-4005-8ad6-89ab87bc0968-light .leaf tspan{fill:#ffffff!important;}#gc90304e4-9fd0-4005-8ad6-89ab87bc0968-light .warn rect{fill:#B43A3A!important;stroke:#8E2828!important;color:#ffffff!important;}#gc90304e4-9fd0-4005-8ad6-89ab87bc0968-light .warn polygon{fill:#B43A3A!important;stroke:#8E2828!important;color:#ffffff!important;}#gc90304e4-9fd0-4005-8ad6-89ab87bc0968-light .warn ellipse{fill:#B43A3A!important;stroke:#8E2828!important;color:#ffffff!important;}#gc90304e4-9fd0-4005-8ad6-89ab87bc0968-light .warn circle{fill:#B43A3A!important;stroke:#8E2828!important;color:#ffffff!important;}#gc90304e4-9fd0-4005-8ad6-89ab87bc0968-light .warn path{fill:#B43A3A!important;stroke:#8E2828!important;color:#ffffff!important;}#gc90304e4-9fd0-4005-8ad6-89ab87bc0968-light .warn tspan{fill:#ffffff!important;}#gc90304e4-9fd0-4005-8ad6-89ab87bc0968-light .start rect{fill:#2E5A88!important;stroke:#1F4870!important;color:#ffffff!important;}#gc90304e4-9fd0-4005-8ad6-89ab87bc0968-light .start polygon{fill:#2E5A88!important;stroke:#1F4870!important;color:#ffffff!important;}#gc90304e4-9fd0-4005-8ad6-89ab87bc0968-light .start ellipse{fill:#2E5A88!important;stroke:#1F4870!important;color:#ffffff!important;}#gc90304e4-9fd0-4005-8ad6-89ab87bc0968-light .start circle{fill:#2E5A88!important;stroke:#1F4870!important;color:#ffffff!important;}#gc90304e4-9fd0-4005-8ad6-89ab87bc0968-light .start path{fill:#2E5A88!important;stroke:#1F4870!important;color:#ffffff!important;}#gc90304e4-9fd0-4005-8ad6-89ab87bc0968-light .start tspan{fill:#ffffff!important;}</style><g><marker id="gc90304e4-9fd0-4005-8ad6-89ab87bc0968-light_flowchart-v2-pointEnd" class="marker flowchart-v2" viewBox="0 0 10 10" refX="5" refY="5" markerUnits="userSpaceOnUse" markerWidth="8" markerHeight="8" orient="auto"><path d="M 0 0 L 10 5 L 0 10 z" class="arrowMarkerPath" style="stroke-width: 1; stroke-dasharray: 1, 0;"></path></marker><marker id="gc90304e4-9fd0-4005-8ad6-89ab87bc0968-light_flowchart-v2-pointStart" class="marker flowchart-v2" viewBox="0 0 10 10" refX="4.5" refY="5" markerUnits="userSpaceOnUse" markerWidth="8" markerHeight="8" orient="auto"><path d="M 0 5 L 10 10 L 10 0 z" class="arrowMarkerPath" style="stroke-width: 1; stroke-dasharray: 1, 0;"></path></marker><marker id="gc90304e4-9fd0-4005-8ad6-89ab87bc0968-light_flowchart-v2-pointEnd-margin" class="marker flowchart-v2" viewBox="0 0 11.5 14" refX="11.5" refY="7" markerUnits="userSpaceOnUse" markerWidth="10.5" markerHeight="14" orient="auto"><path d="M 0 0 L 11.5 7 L 0 14 z" class="arrowMarkerPath" style="stroke-width: 0; stroke-dasharray: 1, 0;"></path></marker><marker id="gc90304e4-9fd0-4005-8ad6-89ab87bc0968-light_flowchart-v2-pointStart-margin" class="marker flowchart-v2" viewBox="0 0 11.5 14" refX="1" refY="7" markerUnits="userSpaceOnUse" markerWidth="11.5" markerHeight="14" orient="auto"><polygon points="0,7 11.5,14 11.5,0" class="arrowMarkerPath" style="stroke-width: 0; stroke-dasharray: 1, 0;"></polygon></marker><marker id="gc90304e4-9fd0-4005-8ad6-89ab87bc0968-light_flowchart-v2-circleEnd" class="marker flowchart-v2" viewBox="0 0 10 10" refX="11" refY="5" markerUnits="userSpaceOnUse" markerWidth="11" markerHeight="11" orient="auto"><circle cx="5" cy="5" r="5" class="arrowMarkerPath" style="stroke-width: 1; stroke-dasharray: 1, 0;"></circle></marker><marker id="gc90304e4-9fd0-4005-8ad6-89ab87bc0968-light_flowchart-v2-circleStart" class="marker flowchart-v2" viewBox="0 0 10 10" refX="-1" refY="5" markerUnits="userSpaceOnUse" markerWidth="11" markerHeight="11" orient="auto"><circle cx="5" cy="5" r="5" class="arrowMarkerPath" style="stroke-width: 1; stroke-dasharray: 1, 0;"></circle></marker><marker id="gc90304e4-9fd0-4005-8ad6-89ab87bc0968-light_flowchart-v2-circleEnd-margin" class="marker flowchart-v2" viewBox="0 0 10 10" refY="5" refX="12.25" markerUnits="userSpaceOnUse" markerWidth="14" markerHeight="14" orient="auto"><circle cx="5" cy="5" r="5" class="arrowMarkerPath" style="stroke-width: 0; stroke-dasharray: 1, 0;"></circle></marker><marker id="gc90304e4-9fd0-4005-8ad6-89ab87bc0968-light_flowchart-v2-circleStart-margin" class="marker flowchart-v2" viewBox="0 0 10 10" refX="-2" refY="5" markerUnits="userSpaceOnUse" markerWidth="14" markerHeight="14" orient="auto"><circle cx="5" cy="5" r="5" class="arrowMarkerPath" style="stroke-width: 0; stroke-dasharray: 1, 0;"></circle></marker><marker id="gc90304e4-9fd0-4005-8ad6-89ab87bc0968-light_flowchart-v2-crossEnd" class="marker cross flowchart-v2" viewBox="0 0 11 11" refX="12" refY="5.2" markerUnits="userSpaceOnUse" markerWidth="11" markerHeight="11" orient="auto"><path d="M 1,1 l 9,9 M 10,1 l -9,9" class="arrowMarkerPath" style="stroke-width: 2; stroke-dasharray: 1, 0;"></path></marker><marker id="gc90304e4-9fd0-4005-8ad6-89ab87bc0968-light_flowchart-v2-crossStart" class="marker cross flowchart-v2" viewBox="0 0 11 11" refX="-1" refY="5.2" markerUnits="userSpaceOnUse" markerWidth="11" markerHeight="11" orient="auto"><path d="M 1,1 l 9,9 M 10,1 l -9,9" class="arrowMarkerPath" style="stroke-width: 2; stroke-dasharray: 1, 0;"></path></marker><marker id="gc90304e4-9fd0-4005-8ad6-89ab87bc0968-light_flowchart-v2-crossEnd-margin" class="marker cross flowchart-v2" viewBox="0 0 15 15" refX="17.7" refY="7.5" markerUnits="userSpaceOnUse" markerWidth="12" markerHeight="12" orient="auto"><path d="M 1,1 L 14,14 M 1,14 L 14,1" class="arrowMarkerPath" style="stroke-width: 2.5;"></path></marker><marker id="gc90304e4-9fd0-4005-8ad6-89ab87bc0968-light_flowchart-v2-crossStart-margin" class="marker cross flowchart-v2" viewBox="0 0 15 15" refX="-3.5" refY="7.5" markerUnits="userSpaceOnUse" markerWidth="12" markerHeight="12" orient="auto"><path d="M 1,1 L 14,14 M 1,14 L 14,1" class="arrowMarkerPath" style="stroke-width: 2.5; stroke-dasharray: 1, 0;"></path></marker><g class="root"><g class="clusters"></g><g class="edgePaths"><path d="M271.31,60.1L271.227,64.183C271.143,68.267,270.977,76.433,270.893,84.017C270.81,91.6,270.81,98.6,270.81,102.1L270.81,105.6" id="gc90304e4-9fd0-4005-8ad6-89ab87bc0968-light-L_Start_Build_0" class="edge-thickness-normal edge-pattern-solid edge-thickness-normal edge-pattern-solid flowchart-link" style=";" data-edge="true" data-et="edge" data-id="L_Start_Build_0" data-points="W3sieCI6MjcxLjMxMDE1Nzc3NTg3ODg1LCJ5Ijo2MC4wOTk5OTg0NzQxMjEwN30seyJ4IjoyNzAuODEwMTU3Nzc1ODc4OSwieSI6ODQuNTk5OTk4NDc0MTIxMX0seyJ4IjoyNzAuODEwMTU3Nzc1ODc4OSwieSI6MTA5LjU5OTk5ODQ3NDEyMTA1fV0=" data-look="classic" marker-end="url(#gc90304e4-9fd0-4005-8ad6-89ab87bc0968-light_flowchart-v2-pointEnd)"></path><path d="M223.46,241.194L207.751,255.169C192.041,269.144,160.622,297.094,144.913,329.604C129.203,362.114,129.203,399.184,129.203,417.72L129.203,436.255" id="gc90304e4-9fd0-4005-8ad6-89ab87bc0968-light-L_Build_BEM_0" class="edge-thickness-normal edge-pattern-solid edge-thickness-normal edge-pattern-solid flowchart-link" style=";" data-edge="true" data-et="edge" data-id="L_Build_BEM_0" data-points="W3sieCI6MjIzLjQ2MDIxMTA2ODE3MjU4LCJ5IjoyNDEuMTkzODA3ODY5OTMwNH0seyJ4IjoxMjkuMjAzMTI1LCJ5IjozMjUuMDQzNzU0NTc3NjM2N30seyJ4IjoxMjkuMjAzMTI1LCJ5Ijo0NDAuMjU0Njk1ODkyMzM0fV0=" data-look="classic" marker-end="url(#gc90304e4-9fd0-4005-8ad6-89ab87bc0968-light_flowchart-v2-pointEnd)"></path><path d="M318.16,241.194L333.87,255.169C349.579,269.144,380.998,297.094,396.708,316.485C412.417,335.877,412.417,346.71,412.417,352.127L412.417,357.544" id="gc90304e4-9fd0-4005-8ad6-89ab87bc0968-light-L_Build_RSC_0" class="edge-thickness-normal edge-pattern-solid edge-thickness-normal edge-pattern-solid flowchart-link" style=";" data-edge="true" data-et="edge" data-id="L_Build_RSC_0" data-points="W3sieCI6MzE4LjE2MDEwNDQ4MzU4NTI2LCJ5IjoyNDEuMTkzODA3ODY5OTMwNH0seyJ4Ijo0MTIuNDE3MTkwNTUxNzU3OCwieSI6MzI1LjA0Mzc1NDU3NzYzNjd9LHsieCI6NDEyLjQxNzE5MDU1MTc1Nzc2LCJ5IjozNjEuNTQzNzU0NTc3NjM2N31d" data-look="classic" marker-end="url(#gc90304e4-9fd0-4005-8ad6-89ab87bc0968-light_flowchart-v2-pointEnd)"></path><path d="M470.197,527.786L486.938,543.499C503.679,559.213,537.161,590.639,553.903,611.769C570.644,632.899,570.644,643.732,570.644,649.149L570.644,654.566" id="gc90304e4-9fd0-4005-8ad6-89ab87bc0968-light-L_RSC_NoRuntime_0" class="edge-thickness-normal edge-pattern-solid edge-thickness-normal edge-pattern-solid flowchart-link" style=";" data-edge="true" data-et="edge" data-id="L_RSC_NoRuntime_0" data-points="W3sieCI6NDcwLjE5NjU4MTQzMDE3MjcsInkiOjUyNy43ODYyNDQ4MDI3Mzc0fSx7IngiOjU3MC42NDM3NTMwNTE3NTc4LCJ5Ijo2MjIuMDY1NjM1NjgxMTUyM30seyJ4Ijo1NzAuNjQzNzUzMDUxNzU3OCwieSI6NjU4LjU2NTYzNTY4MTE1MjN9XQ==" data-look="classic" marker-end="url(#gc90304e4-9fd0-4005-8ad6-89ab87bc0968-light_flowchart-v2-pointEnd)"></path><path d="M412.417,585.566L412.417,591.649C412.417,597.732,412.417,609.899,412.417,629.082C412.417,648.266,412.417,674.466,412.417,698.749C412.417,723.032,412.417,745.399,412.417,760.082C412.417,774.766,412.417,781.766,412.417,785.266L412.417,788.766" id="gc90304e4-9fd0-4005-8ad6-89ab87bc0968-light-L_RSC_Dynamic_0" class="edge-thickness-normal edge-pattern-solid edge-thickness-normal edge-pattern-solid flowchart-link" style=";" data-edge="true" data-et="edge" data-id="L_RSC_Dynamic_0" data-points="W3sieCI6NDEyLjQxNzE5MDU1MTc1Nzc2LCJ5Ijo1ODUuNTY1NjM1NjgxMTUyNX0seyJ4Ijo0MTIuNDE3MTkwNTUxNzU3OCwieSI6NjIyLjA2NTYzNTY4MTE1MjN9LHsieCI6NDEyLjQxNzE5MDU1MTc1NzgsInkiOjcwMC42NjU2MzQxNTUyNzM0fSx7IngiOjQxMi40MTcxOTA1NTE3NTc4LCJ5Ijo3NjcuNzY1NjMyNjI5Mzk0NX0seyJ4Ijo0MTIuNDE3MTkwNTUxNzU3OCwieSI6NzkyLjc2NTYzMjYyOTM5NDV9XQ==" data-look="classic" marker-end="url(#gc90304e4-9fd0-4005-8ad6-89ab87bc0968-light_flowchart-v2-pointEnd)"></path><path d="M570.644,742.766L570.644,746.932C570.644,751.099,570.644,759.432,555.494,778.044C540.344,796.657,510.045,825.547,494.895,839.993L479.745,854.438" id="gc90304e4-9fd0-4005-8ad6-89ab87bc0968-light-L_NoRuntime_Dynamic_0" class="edge-thickness-normal edge-pattern-solid edge-thickness-normal edge-pattern-solid flowchart-link" style=";" data-edge="true" data-et="edge" data-id="L_NoRuntime_Dynamic_0" data-points="W3sieCI6NTcwLjY0Mzc1MzA1MTc1NzgsInkiOjc0Mi43NjU2MzI2MjkzOTQ1fSx7IngiOjU3MC42NDM3NTMwNTE3NTc4LCJ5Ijo3NjcuNzY1NjMyNjI5Mzk0NX0seyJ4Ijo0NzYuODUwMTUyMzk4Nzg3NSwieSI6ODU3LjE5ODU5NDQ3NjQyNDJ9XQ==" data-look="classic" marker-end="url(#gc90304e4-9fd0-4005-8ad6-89ab87bc0968-light_flowchart-v2-pointEnd)"></path><path d="M404.591,1036.68L404.101,1044.067C403.611,1051.455,402.631,1066.231,402.141,1085.924C401.652,1105.617,401.652,1130.227,401.652,1142.532L401.652,1154.838" id="gc90304e4-9fd0-4005-8ad6-89ab87bc0968-light-L_Dynamic_Hybrid_0" class="edge-thickness-normal edge-pattern-solid edge-thickness-normal edge-pattern-solid flowchart-link" style=";" data-edge="true" data-et="edge" data-id="L_Dynamic_Hybrid_0" data-points="W3sieCI6NDA0LjU5MDU1MDkwOTI2OTQ0LCJ5IjoxMDM2LjY3OTYyNDA5MDQyMTZ9LHsieCI6NDAxLjY1MTU2NTU1MTc1NzgsInkiOjEwODEuMDA2MjYzNzMyOTEwMn0seyJ4Ijo0MDEuNjUxNTY1NTUxNzU3OCwieSI6MTE1OC44Mzc1MTI5Njk5NzA3fV0=" data-look="classic" marker-end="url(#gc90304e4-9fd0-4005-8ad6-89ab87bc0968-light_flowchart-v2-pointEnd)"></path><path d="M490.124,966.799L520.834,985.834C551.545,1004.868,612.965,1042.937,643.676,1067.388C674.386,1091.84,674.386,1102.673,674.386,1108.09L674.386,1113.506" id="gc90304e4-9fd0-4005-8ad6-89ab87bc0968-light-L_Dynamic_Authoring_0" class="edge-thickness-normal edge-pattern-solid edge-thickness-normal edge-pattern-solid flowchart-link" style=";" data-edge="true" data-et="edge" data-id="L_Dynamic_Authoring_0" data-points="W3sieCI6NDkwLjEyNDEyODAwODMwMzYsInkiOjk2Ni43OTkzMjYyNzYzNjQyfSx7IngiOjY3NC4zODU5NDA1NTE3NTc4LCJ5IjoxMDgxLjAwNjI2MzczMjkxMDJ9LHsieCI6Njc0LjM4NTk0MDU1MTc1NzgsInkiOjExMTcuNTA2MjYzNzMyOTEwMn1d" data-look="classic" marker-end="url(#gc90304e4-9fd0-4005-8ad6-89ab87bc0968-light_flowchart-v2-pointEnd)"></path><path d="M599.242,1244.425L545.229,1263.032C491.217,1281.639,383.192,1318.854,329.18,1342.878C275.167,1366.902,275.167,1377.735,275.167,1383.152L275.167,1388.569" id="gc90304e4-9fd0-4005-8ad6-89ab87bc0968-light-L_Authoring_Util_0" class="edge-thickness-normal edge-pattern-solid edge-thickness-normal edge-pattern-solid flowchart-link" style=";" data-edge="true" data-et="edge" data-id="L_Authoring_Util_0" data-points="W3sieCI6NTk5LjI0MTg4OTYyMzEzNjQsInkiOjEyNDQuNDI0NzEyODA0Mjg5fSx7IngiOjI3NS4xNjcxOTA1NTE3NTc4LCJ5IjoxMzU2LjA2ODc2MzczMjkxMDJ9LHsieCI6Mjc1LjE2NzE5MDU1MTc1NzgsInkiOjEzOTIuNTY4NzYzNzMyOTEwMn1d" data-look="classic" marker-end="url(#gc90304e4-9fd0-4005-8ad6-89ab87bc0968-light_flowchart-v2-pointEnd)"></path><path d="M626.161,1271.343L613.265,1285.464C600.368,1299.585,574.576,1327.827,561.68,1347.365C548.784,1366.902,548.784,1377.735,548.784,1383.152L548.784,1388.569" id="gc90304e4-9fd0-4005-8ad6-89ab87bc0968-light-L_Authoring_Zero_0" class="edge-thickness-normal edge-pattern-solid edge-thickness-normal edge-pattern-solid flowchart-link" style=";" data-edge="true" data-et="edge" data-id="L_Authoring_Zero_0" data-points="W3sieCI6NjI2LjE2MDU0OTE5NjA5NzIsInkiOjEyNzEuMzQzMzcyMzc3MjQ5Nn0seyJ4Ijo1NDguNzg0Mzc4MDUxNzU3OCwieSI6MTM1Ni4wNjg3NjM3MzI5MTAyfSx7IngiOjU0OC43ODQzNzgwNTE3NTc4LCJ5IjoxMzkyLjU2ODc2MzczMjkxMDJ9XQ==" data-look="classic" marker-end="url(#gc90304e4-9fd0-4005-8ad6-89ab87bc0968-light_flowchart-v2-pointEnd)"></path><path d="M722.611,1271.343L735.507,1285.464C748.403,1299.585,774.195,1327.827,787.091,1347.365C799.988,1366.902,799.988,1377.735,799.988,1383.152L799.988,1388.569" id="gc90304e4-9fd0-4005-8ad6-89ab87bc0968-light-L_Authoring_Modules_0" class="edge-thickness-normal edge-pattern-solid edge-thickness-normal edge-pattern-solid flowchart-link" style=";" data-edge="true" data-et="edge" data-id="L_Authoring_Modules_0" data-points="W3sieCI6NzIyLjYxMTMzMTkwNzQxODQsInkiOjEyNzEuMzQzMzcyMzc3MjQ5Nn0seyJ4Ijo3OTkuOTg3NTAzMDUxNzU3OCwieSI6MTM1Ni4wNjg3NjM3MzI5MTAyfSx7IngiOjc5OS45ODc1MDMwNTE3NTc4LCJ5IjoxMzkyLjU2ODc2MzczMjkxMDJ9XQ==" data-look="classic" marker-end="url(#gc90304e4-9fd0-4005-8ad6-89ab87bc0968-light_flowchart-v2-pointEnd)"></path></g><g class="edgeLabels"><g class="edgeLabel"><g class="label" data-id="L_Start_Build_0" transform="translate(0, 0)"><text y="-10.1" text-anchor="middle"><tspan class="text-outer-tspan row" x="0" y="-0.1em" dy="1.1em" text-anchor="middle"></tspan></text></g></g><g><rect class="background" style="stroke: none"></rect></g><g class="edgeLabel" transform="translate(129.203125, 325.0437545776367)"><g class="label" data-id="L_Build_BEM_0" transform="translate(0, -10.5)"><g><rect class="background" style="" x="-10.6640625" y="-1" width="21.328125" height="23"></rect><text y="-10.1" text-anchor="middle" style=""><tspan class="text-outer-tspan row" x="0" y="-0.1em" dy="1.1em" text-anchor="middle"><tspan font-style="normal" class="text-inner-tspan" font-weight="normal">no</tspan></tspan></text></g></g></g><g class="edgeLabel" transform="translate(412.4171905517578, 325.0437545776367)"><g class="label" data-id="L_Build_RSC_0" transform="translate(0, -10.5)"><g><rect class="background" style="" x="-13.546875" y="-1" width="27.09375" height="23"></rect><text y="-10.1" text-anchor="middle" style=""><tspan class="text-outer-tspan row" x="0" y="-0.1em" dy="1.1em" text-anchor="middle"><tspan font-style="normal" class="text-inner-tspan" font-weight="normal">yes</tspan></tspan></text></g></g></g><g class="edgeLabel" transform="translate(570.6437530517578, 622.0656356811523)"><g class="label" data-id="L_RSC_NoRuntime_0" transform="translate(0, -10.5)"><g><rect class="background" style="" x="-13.546875" y="-1" width="27.09375" height="23"></rect><text y="-10.1" text-anchor="middle" style=""><tspan class="text-outer-tspan row" x="0" y="-0.1em" dy="1.1em" text-anchor="middle"><tspan font-style="normal" class="text-inner-tspan" font-weight="normal">yes</tspan></tspan></text></g></g></g><g class="edgeLabel" transform="translate(412.4171905517578, 700.6656341552734)"><g class="label" data-id="L_RSC_Dynamic_0" transform="translate(0, -10.5)"><g><rect class="background" style="" x="-10.6640625" y="-1" width="21.328125" height="23"></rect><text y="-10.1" text-anchor="middle" style=""><tspan class="text-outer-tspan row" x="0" y="-0.1em" dy="1.1em" text-anchor="middle"><tspan font-style="normal" class="text-inner-tspan" font-weight="normal">no</tspan></tspan></text></g></g></g><g class="edgeLabel"><g class="label" data-id="L_NoRuntime_Dynamic_0" transform="translate(0, 0)"><text y="-10.1" text-anchor="middle"><tspan class="text-outer-tspan row" x="0" y="-0.1em" dy="1.1em" text-anchor="middle"></tspan></text></g></g><g><rect class="background" style="stroke: none"></rect></g><g class="edgeLabel" transform="translate(401.6515655517578, 1081.0062637329102)"><g class="label" data-id="L_Dynamic_Hybrid_0" transform="translate(0, -10.5)"><g><rect class="background" style="" x="-13.546875" y="-1" width="27.09375" height="23"></rect><text y="-10.1" text-anchor="middle" style=""><tspan class="text-outer-tspan row" x="0" y="-0.1em" dy="1.1em" text-anchor="middle"><tspan font-style="normal" class="text-inner-tspan" font-weight="normal">yes</tspan></tspan></text></g></g></g><g class="edgeLabel" transform="translate(674.3859405517578, 1081.0062637329102)"><g class="label" data-id="L_Dynamic_Authoring_0" transform="translate(0, -10.5)"><g><rect class="background" style="" x="-10.6640625" y="-1" width="21.328125" height="23"></rect><text y="-10.1" text-anchor="middle" style=""><tspan class="text-outer-tspan row" x="0" y="-0.1em" dy="1.1em" text-anchor="middle"><tspan font-style="normal" class="text-inner-tspan" font-weight="normal">no</tspan></tspan></text></g></g></g><g class="edgeLabel" transform="translate(275.1671905517578, 1356.0687637329102)"><g class="label" data-id="L_Authoring_Util_0" transform="translate(0, -10.5)"><g><rect class="background" style="" x="-47.0390625" y="-1" width="94.078125" height="23"></rect><text y="-10.1" text-anchor="middle" style=""><tspan class="text-outer-tspan row" x="0" y="-0.1em" dy="1.1em" text-anchor="middle"><tspan font-style="normal" class="text-inner-tspan" font-weight="normal">in</tspan><tspan font-style="normal" class="text-inner-tspan" font-weight="normal"> templates</tspan></tspan></text></g></g></g><g class="edgeLabel" transform="translate(548.7843780517578, 1356.0687637329102)"><g class="label" data-id="L_Authoring_Zero_0" transform="translate(0, -10.5)"><g><rect class="background" style="" x="-50.7578125" y="-1" width="101.515625" height="23"></rect><text y="-10.1" text-anchor="middle" style=""><tspan class="text-outer-tspan row" x="0" y="-0.1em" dy="1.1em" text-anchor="middle"><tspan font-style="normal" class="text-inner-tspan" font-weight="normal">co-located</tspan><tspan font-style="normal" class="text-inner-tspan" font-weight="normal"> TS</tspan></tspan></text></g></g></g><g class="edgeLabel" transform="translate(799.9875030517578, 1356.0687637329102)"><g class="label" data-id="L_Authoring_Modules_0" transform="translate(0, -10.5)"><g><rect class="background" style="" x="-52.171875" y="-1" width="104.34375" height="23"></rect><text y="-10.1" text-anchor="middle" style=""><tspan class="text-outer-tspan row" x="0" y="-0.1em" dy="1.1em" text-anchor="middle"><tspan font-style="normal" class="text-inner-tspan" font-weight="normal">plain</tspan><tspan font-style="normal" class="text-inner-tspan" font-weight="normal"> CSS</tspan><tspan font-style="normal" class="text-inner-tspan" font-weight="normal"> files</tspan></tspan></text></g></g></g></g><g class="nodes"><g class="node default start" id="gc90304e4-9fd0-4005-8ad6-89ab87bc0968-light-flowchart-Start-0" data-look="classic" transform="translate(270.8101577758789, 33.79999923706055)"><g class="basic label-container outer-path"><path d="M-41.30625057220459 -25.799999237060547 C-20.38347459266558 -25.799999237060547, 0.5393013868734329 -25.799999237060547, 41.30625057220459 -25.799999237060547 C41.30625057220459 -25.799999237060547, 41.30625057220459 -25.799999237060547, 41.30625057220459 -25.799999237060547 C41.908810170624584 -25.780676323550328, 42.51136976904458 -25.761353410040105, 42.959262198825286 -25.746990371586765 C43.56570340602356 -25.68848771768061, 44.17214461322184 -25.62998506377445, 44.60548124610231 -25.58818159996402 C45.192805921234424 -25.49322750125954, 45.78013059636655 -25.398273402555063, 46.23814304685753 -25.32422550149928 C46.82572697007006 -25.190113305369458, 47.41331089328258 -25.056001109239638, 47.850538643546784 -24.956206728419545 C48.28640008484542 -24.826845340525505, 48.72226152614405 -24.697483952631462, 49.436042356805515 -24.48563754880318 C49.763789942026555 -24.36502340777637, 50.091537527247596 -24.24440926674956, 50.98813901178644 -23.914451632345997 C51.341953127613735 -23.757828618792093, 51.69576724344104 -23.601205605238185, 52.50045071041056 -23.24499610449772 C52.90088637467925 -23.036089074940026, 53.301322038947944 -22.827182045382337, 53.9667630395184 -22.480021901620034 C54.30819089507109 -22.273046329131198, 54.64961875062379 -22.06607075664236, 55.38105060722664 -21.62267246679901 C55.79054595881272 -21.337026236300627, 56.2000413103988 -21.05138000580224, 56.73750180255584 -20.67647083276321 C57.20612988953776 -20.30275240411226, 57.674757976519686 -19.92903397546131, 58.030542676586506 -19.64530514498651 C58.27630595892461 -19.422109434507167, 58.52206924126271 -19.198913724027825, 59.25485984701088 -18.533412684464313 C59.65669520450622 -18.11848468655397, 60.05853056200156 -17.703556688643626, 60.40542233196044 -17.345362455817106 C60.66517610149404 -17.04024089771474, 60.92492987102764 -16.73511933961237, 61.47750222338968 -16.086036412270357 C61.81972251753476 -15.627492395026117, 62.16194281167983 -15.168948377781877, 62.46669411506427 -14.76060939466161 C62.73626891001538 -14.346470118648575, 63.00584370496649 -13.932330842635539, 63.36893320532037 -13.374527866909407 C63.562694355719564 -13.030485323931588, 63.75645550611876 -12.68644278095377, 64.1805120002064 -11.93348753532484 C64.45081133853725 -11.372205175801486, 64.72111067686811 -10.810922816278133, 64.89809554837109 -10.443409943732584 C65.10667968694592 -9.928203088752753, 65.31526382552076 -9.41299623377292, 65.51873514509381 -8.910418140577123 C65.6945008864455 -8.381039732093644, 65.87026662779719 -7.851661323610166, 66.0398804491449 -7.340811518003323 C66.14642227624948 -6.934521355733609, 66.25296410335406 -6.528231193463895, 66.45938996268467 -5.741039926302914 C66.56518228997248 -5.197818684896257, 66.67097461726031 -4.654597443489599, 66.77553983113748 -4.117677170096137 C66.83673694868548 -3.643044411131571, 66.89793406623347 -3.1684116521670056, 66.98703092687991 -2.4773939951584394 C67.0234748227821 -1.9097508994985146, 67.05991871868429 -1.34210780383859, 67.09299418763487 -0.8269306768952902 C67.09299418763487 -0.404393762634684, 67.09299418763487 0.01814315162592217, 67.09299418763487 0.826930676895284 C67.06718099453315 1.2289919954892006, 67.0413678014314 1.631053314083117, 66.98703092687991 2.4773939951584216 C66.9285130619222 2.9312470001109094, 66.86999519696451 3.3851000050633973, 66.77553983113748 4.117677170096119 C66.66295612565062 4.695770703196536, 66.55037242016377 5.273864236296954, 66.45938996268467 5.741039926302909 C66.31131067685807 6.3057304211281755, 66.16323139103147 6.870420915953443, 66.0398804491449 7.340811518003306 C65.87944348100169 7.8240221038912185, 65.71900651285847 8.307232689779132, 65.51873514509383 8.910418140577105 C65.29295145363444 9.468108223712482, 65.06716776217507 10.025798306847859, 64.89809554837109 10.443409943732577 C64.71343660383776 10.826858193124483, 64.52877765930444 11.21030644251639, 64.1805120002064 11.933487535324835 C63.88895252338092 12.45118091002694, 63.59739304655544 12.968874284729045, 63.368933205320374 13.374527866909402 C63.02884344848175 13.896997060300208, 62.68875369164312 14.419466253691013, 62.466694115064286 14.760609394661596 C62.17410906802716 15.152646702645214, 61.881524020990035 15.544684010628831, 61.47750222338968 16.086036412270353 C61.222806594085135 16.385216391043333, 60.96811096478059 16.684396369816312, 60.40542233196045 17.345362455817092 C60.16797529550526 17.590546015721326, 59.93052825905006 17.83572957562556, 59.25485984701088 18.533412684464306 C58.97822604347201 18.784644185508952, 58.70159223993315 19.035875686553595, 58.030542676586535 19.64530514498649 C57.51545445547136 20.05607429425262, 57.00036623435618 20.46684344351875, 56.73750180255585 20.676470832763208 C56.30312806277515 20.979471149898085, 55.86875432299446 21.282471467032966, 55.381050607226655 21.622672466799003 C54.86303147157776 21.936698711047708, 54.345012335928864 22.250724955296413, 53.966763039518405 22.48002190162003 C53.398260410188065 22.776609359198357, 52.82975778085772 23.073196816776683, 52.50045071041057 23.244996104497716 C52.07491819350176 23.433366726759626, 51.64938567659295 23.62173734902154, 50.98813901178645 23.914451632345994 C50.438691399444544 24.11665343272587, 49.889243787102636 24.31885523310574, 49.43604235680553 24.485637548803172 C48.973504922292 24.622916231458248, 48.51096748777848 24.760194914113328, 47.85053864354681 24.95620672841954 C47.3499692519725 25.070458425525825, 46.8493998603982 25.184710122632108, 46.238143046857545 25.324225501499278 C45.85283963820383 25.38651836853785, 45.46753622955012 25.44881123557642, 44.60548124610233 25.588181599964017 C44.07598674892441 25.63926129729647, 43.54649225174648 25.690340994628922, 42.959262198825286 25.746990371586765 C42.453444558939545 25.763210958783592, 41.9476269190538 25.77943154598042, 41.3062505722046 25.799999237060547 C41.3062505722046 25.799999237060547, 41.30625057220459 25.799999237060547, 41.30625057220459 25.799999237060547 C9.382569541608913 25.799999237060547, -22.541111488986765 25.799999237060547, -41.30625057220458 25.799999237060547 C-41.712339288714055 25.786976762325825, -42.118428005223535 25.7739542875911, -42.95926219882527 25.746990371586765 C-43.51955261189905 25.692939829285347, -44.07984302497283 25.63888928698393, -44.605481246102315 25.588181599964017 C-45.09548732602466 25.508961217016076, -45.585493405947 25.429740834068134, -46.23814304685753 25.324225501499278 C-46.64726391131719 25.230846333949504, -47.05638477577685 25.13746716639973, -47.850538643546784 24.956206728419545 C-48.167789503924766 24.862048338343108, -48.48504036430275 24.76788994826667, -49.4360423568055 24.485637548803183 C-49.93547364119926 24.301842219454098, -50.43490492559301 24.118046890105013, -50.988139011786444 23.914451632345997 C-51.55188492118364 23.664898041184095, -52.115630830580834 23.415344450022193, -52.50045071041056 23.244996104497723 C-52.93865260026469 23.01638645924253, -53.37685449011882 22.787776813987335, -53.9667630395184 22.480021901620038 C-54.411386348542294 22.210488638793162, -54.85600965756618 21.940955375966283, -55.381050607226626 21.622672466799017 C-55.68603902107706 21.409925752032603, -55.99102743492749 21.19717903726619, -56.73750180255584 20.67647083276321 C-56.99926186924673 20.467724145305144, -57.26102193593762 20.258977457847074, -58.030542676586506 19.645305144986512 C-58.48807605387759 19.229785437400544, -58.94560943116867 18.814265729814576, -59.25485984701086 18.533412684464324 C-59.54131840372971 18.23762070596722, -59.82777696044856 17.941828727470114, -60.40542233196044 17.3453624558171 C-60.63347143870798 17.077482998669655, -60.86152054545553 16.809603541522215, -61.47750222338967 16.08603641227036 C-61.78498505723967 15.674037427173786, -62.092467891089676 15.26203844207721, -62.46669411506427 14.760609394661614 C-62.743692118185315 14.335066077489058, -63.02069012130636 13.9095227603165, -63.36893320532036 13.374527866909418 C-63.63773144869909 12.897249367016832, -63.90652969207782 12.419970867124245, -64.18051200020639 11.933487535324842 C-64.3374048961582 11.607696079910715, -64.49429779211002 11.28190462449659, -64.89809554837109 10.443409943732586 C-65.1421779841761 9.840521608281323, -65.38626041998111 9.23763327283006, -65.51873514509381 8.910418140577127 C-65.72076257577022 8.301943708079545, -65.92279000644663 7.693469275581961, -66.0398804491449 7.340811518003316 C-66.12666813068175 7.0098524742842185, -66.2134558122186 6.678893430565122, -66.45938996268467 5.741039926302918 C-66.5855329890971 5.093322146013147, -66.71167601550954 4.445604365723376, -66.77553983113748 4.117677170096139 C-66.83174799005155 3.681737789115011, -66.88795614896563 3.245798408133883, -66.98703092687991 2.477393995158454 C-67.01135401221093 2.098542307886641, -67.03567709754196 1.719690620614828, -67.09299418763487 0.8269306768952934 C-67.09299418763487 0.4490010557011979, -67.09299418763487 0.0710714345071024, -67.09299418763487 -0.8269306768952809 C-67.06672538125598 -1.2360885400454298, -67.04045657487708 -1.6452464031955785, -66.98703092687991 -2.4773939951584185 C-66.90843812223058 -3.0869442681139083, -66.82984531758126 -3.6964945410693986, -66.77553983113748 -4.117677170096128 C-66.68110872660358 -4.602560933856658, -66.58667762206969 -5.0874446976171885, -66.45938996268467 -5.741039926302906 C-66.35030023921561 -6.157046321675619, -66.24121051574657 -6.5730527170483315, -66.0398804491449 -7.340811518003303 C-65.85216219724359 -7.906188983888342, -65.66444394534227 -8.47156644977338, -65.51873514509383 -8.910418140577093 C-65.32311761567206 -9.393597220256522, -65.12750008625028 -9.876776299935951, -64.89809554837109 -10.443409943732574 C-64.75430160304842 -10.742001147892664, -64.61050765772573 -11.040592352052755, -64.1805120002064 -11.933487535324831 C-63.91456145687866 -12.405709655415999, -63.648610913550904 -12.877931775507166, -63.36893320532037 -13.374527866909409 C-63.171507243437915 -13.677827160654603, -62.97408128155546 -13.981126454399796, -62.46669411506428 -14.760609394661605 C-62.220449955984144 -15.090554134524599, -61.97420579690401 -15.420498874387592, -61.47750222338968 -16.086036412270353 C-61.186948861043525 -16.42733692463682, -60.89639549869737 -16.76863743700329, -60.40542233196045 -17.345362455817092 C-60.08175600103355 -17.67957451599909, -59.75808967010665 -18.013786576181083, -59.25485984701089 -18.5334126844643 C-58.921048319358015 -18.836571481709605, -58.587236791705145 -19.13973027895491, -58.030542676586535 -19.645305144986487 C-57.53441275140171 -20.0409555577496, -57.038282826216886 -20.436605970512716, -56.73750180255585 -20.676470832763204 C-56.299265377219065 -20.98216559212905, -55.86102895188228 -21.2878603514949, -55.38105060722666 -21.622672466799 C-54.88564975263772 -21.92298737614939, -54.39024889804877 -22.223302285499777, -53.966763039518405 -22.480021901620027 C-53.66512273043118 -22.637387457660996, -53.36348242134395 -22.794753013701964, -52.500450710410576 -23.244996104497716 C-52.182047666975265 -23.38594368673583, -51.863644623539955 -23.52689126897394, -50.98813901178645 -23.91445163234599 C-50.42910123821422 -24.1201827007091, -49.87006346464199 -24.325913769072216, -49.43604235680553 -24.485637548803172 C-48.89029085298377 -24.64761373042937, -48.344539349162 -24.80958991205557, -47.85053864354682 -24.956206728419538 C-47.51588166458284 -25.032590000027188, -47.181224685618865 -25.108973271634838, -46.238143046857545 -25.324225501499278 C-45.78525361210331 -25.39744515310032, -45.33236417734907 -25.470664804701364, -44.60548124610233 -25.588181599964017 C-44.17296358988202 -25.629906058081005, -43.74044593366172 -25.67163051619799, -42.959262198825286 -25.746990371586765 C-42.45606387260436 -25.763126962492546, -41.95286554638344 -25.779263553398327, -41.3062505722046 -25.799999237060547 C-41.3062505722046 -25.799999237060547, -41.30625057220459 -25.799999237060547, -41.30625057220459 -25.799999237060547" stroke="none" stroke-width="0" fill="#2E5A88" style="fill:#2E5A88 !important;stroke:#1F4870 !important"></path><path d="M-41.30625057220459 -25.799999237060547 C-12.88093479665718 -25.799999237060547, 15.544380978890231 -25.799999237060547, 41.30625057220459 -25.799999237060547 M-41.30625057220459 -25.799999237060547 C-8.975704735911393 -25.799999237060547, 23.354841100381805 -25.799999237060547, 41.30625057220459 -25.799999237060547 M41.30625057220459 -25.799999237060547 C41.30625057220459 -25.799999237060547, 41.30625057220459 -25.799999237060547, 41.30625057220459 -25.799999237060547 M41.30625057220459 -25.799999237060547 C41.30625057220459 -25.799999237060547, 41.30625057220459 -25.799999237060547, 41.30625057220459 -25.799999237060547 M41.30625057220459 -25.799999237060547 C41.71789808177308 -25.786798502651955, 42.12954559134157 -25.773597768243363, 42.959262198825286 -25.746990371586765 M41.30625057220459 -25.799999237060547 C41.76682525902357 -25.785229503308507, 42.22739994584254 -25.770459769556464, 42.959262198825286 -25.746990371586765 M42.959262198825286 -25.746990371586765 C43.38020334559093 -25.70638268541408, 43.80114449235656 -25.665774999241396, 44.60548124610231 -25.58818159996402 M42.959262198825286 -25.746990371586765 C43.30491784185083 -25.713645387415824, 43.65057348487638 -25.68030040324488, 44.60548124610231 -25.58818159996402 M44.60548124610231 -25.58818159996402 C45.19035672184782 -25.49362346882254, 45.77523219759333 -25.399065337681066, 46.23814304685753 -25.32422550149928 M44.60548124610231 -25.58818159996402 C45.12921259619069 -25.503508776879013, 45.652943946279066 -25.418835953794, 46.23814304685753 -25.32422550149928 M46.23814304685753 -25.32422550149928 C46.684426407615426 -25.222364236677386, 47.13070976837332 -25.12050297185549, 47.850538643546784 -24.956206728419545 M46.23814304685753 -25.32422550149928 C46.811968278679075 -25.193253636895598, 47.385793510500626 -25.062281772291914, 47.850538643546784 -24.956206728419545 M47.850538643546784 -24.956206728419545 C48.41497177064856 -24.78868593906568, 48.97940489775034 -24.621165149711818, 49.436042356805515 -24.48563754880318 M47.850538643546784 -24.956206728419545 C48.308138796462146 -24.820393405026486, 48.76573894937751 -24.684580081633424, 49.436042356805515 -24.48563754880318 M49.436042356805515 -24.48563754880318 C49.80465795650465 -24.349983600668647, 50.17327355620378 -24.214329652534115, 50.98813901178644 -23.914451632345997 M49.436042356805515 -24.48563754880318 C50.032609019583916 -24.26609550229895, 50.62917568236231 -24.04655345579472, 50.98813901178644 -23.914451632345997 M50.98813901178644 -23.914451632345997 C51.29205136273156 -23.77991864982217, 51.59596371367668 -23.645385667298342, 52.50045071041056 -23.24499610449772 M50.98813901178644 -23.914451632345997 C51.338212466796286 -23.759484498373215, 51.68828592180614 -23.604517364400433, 52.50045071041056 -23.24499610449772 M52.50045071041056 -23.24499610449772 C52.90766539524025 -23.032552464255524, 53.31488008006994 -22.820108824013328, 53.9667630395184 -22.480021901620034 M52.50045071041056 -23.24499610449772 C52.845466206159365 -23.065001741358543, 53.19048170190816 -22.885007378219363, 53.9667630395184 -22.480021901620034 M53.9667630395184 -22.480021901620034 C54.365182385551 -22.238497752683102, 54.76360173158361 -21.99697360374617, 55.38105060722664 -21.62267246679901 M53.9667630395184 -22.480021901620034 C54.39951159392438 -22.217687184826342, 54.832260148330356 -21.95535246803265, 55.38105060722664 -21.62267246679901 M55.38105060722664 -21.62267246679901 C55.65910543310513 -21.428713457065587, 55.937160258983624 -21.234754447332165, 56.73750180255584 -20.67647083276321 M55.38105060722664 -21.62267246679901 C55.9104703377638 -21.25337218098705, 56.43989006830095 -20.88407189517509, 56.73750180255584 -20.67647083276321 M56.73750180255584 -20.67647083276321 C57.164170910386424 -20.33621357341012, 57.590840018217015 -19.995956314057032, 58.030542676586506 -19.64530514498651 M56.73750180255584 -20.67647083276321 C57.1801587827782 -20.323463670632833, 57.62281576300057 -19.97045650850245, 58.030542676586506 -19.64530514498651 M58.030542676586506 -19.64530514498651 C58.50087442008703 -19.218162299835342, 58.97120616358755 -18.791019454684175, 59.25485984701088 -18.533412684464313 M58.030542676586506 -19.64530514498651 C58.38723873561991 -19.32136322183293, 58.74393479465331 -18.99742129867935, 59.25485984701088 -18.533412684464313 M59.25485984701088 -18.533412684464313 C59.48677605890682 -18.29394015500665, 59.71869227080276 -18.054467625548984, 60.40542233196044 -17.345362455817106 M59.25485984701088 -18.533412684464313 C59.523968157863365 -18.255536259305902, 59.79307646871585 -17.977659834147488, 60.40542233196044 -17.345362455817106 M60.40542233196044 -17.345362455817106 C60.81307098704608 -16.86651514968792, 61.220719642131726 -16.387667843558738, 61.47750222338968 -16.086036412270357 M60.40542233196044 -17.345362455817106 C60.672978623424015 -17.031075611479714, 60.94053491488759 -16.716788767142322, 61.47750222338968 -16.086036412270357 M61.47750222338968 -16.086036412270357 C61.76827811506609 -15.696423207652655, 62.05905400674249 -15.306810003034954, 62.46669411506427 -14.76060939466161 M61.47750222338968 -16.086036412270357 C61.73332850403868 -15.743252502454315, 61.989154784687685 -15.400468592638271, 62.46669411506427 -14.76060939466161 M62.46669411506427 -14.76060939466161 C62.80926122654558 -14.23433431927677, 63.151828338026895 -13.708059243891933, 63.36893320532037 -13.374527866909407 M62.46669411506427 -14.76060939466161 C62.75476659914379 -14.31805270082231, 63.04283908322331 -13.875496006983012, 63.36893320532037 -13.374527866909407 M63.36893320532037 -13.374527866909407 C63.53531017523615 -13.079108709328855, 63.70168714515193 -12.783689551748303, 64.1805120002064 -11.93348753532484 M63.36893320532037 -13.374527866909407 C63.68220500848211 -12.81828205818583, 63.99547681164385 -12.262036249462252, 64.1805120002064 -11.93348753532484 M64.1805120002064 -11.93348753532484 C64.38256611127235 -11.513917850430996, 64.5846202223383 -11.09434816553715, 64.89809554837109 -10.443409943732584 M64.1805120002064 -11.93348753532484 C64.40401381392658 -11.469381236962171, 64.62751562764676 -11.005274938599502, 64.89809554837109 -10.443409943732584 M64.89809554837109 -10.443409943732584 C65.08405030354419 -9.984098103264417, 65.27000505871727 -9.52478626279625, 65.51873514509381 -8.910418140577123 M64.89809554837109 -10.443409943732584 C65.05429232596558 -10.057600883214942, 65.21048910356006 -9.671791822697301, 65.51873514509381 -8.910418140577123 M65.51873514509381 -8.910418140577123 C65.67382038904718 -8.443326095267581, 65.82890563300056 -7.976234049958038, 66.0398804491449 -7.340811518003323 M65.51873514509381 -8.910418140577123 C65.65647463733474 -8.49556873575527, 65.79421412957565 -8.080719330933418, 66.0398804491449 -7.340811518003323 M66.0398804491449 -7.340811518003323 C66.13215299367914 -6.988936314520504, 66.22442553821338 -6.637061111037684, 66.45938996268467 -5.741039926302914 M66.0398804491449 -7.340811518003323 C66.16822779689609 -6.85136745493564, 66.29657514464729 -6.361923391867958, 66.45938996268467 -5.741039926302914 M66.45938996268467 -5.741039926302914 C66.5228847951501 -5.415007381230514, 66.58637962761554 -5.088974836158114, 66.77553983113748 -4.117677170096137 M66.45938996268467 -5.741039926302914 C66.55240668372883 -5.263418722832126, 66.64542340477298 -4.785797519361339, 66.77553983113748 -4.117677170096137 M66.77553983113748 -4.117677170096137 C66.85347769610797 -3.5132064799572507, 66.93141556107845 -2.9087357898183646, 66.98703092687991 -2.4773939951584394 M66.77553983113748 -4.117677170096137 C66.8334885915953 -3.668238027262375, 66.89143735205312 -3.218798884428613, 66.98703092687991 -2.4773939951584394 M66.98703092687991 -2.4773939951584394 C67.02058800236271 -1.9547154577300263, 67.0541450778455 -1.4320369203016132, 67.09299418763487 -0.8269306768952902 M66.98703092687991 -2.4773939951584394 C67.01979339556505 -1.967092099998776, 67.05255586425017 -1.4567902048391124, 67.09299418763487 -0.8269306768952902 M67.09299418763487 -0.8269306768952902 C67.09299418763487 -0.26951886345529663, 67.09299418763487 0.28789294998469694, 67.09299418763487 0.826930676895284 M67.09299418763487 -0.8269306768952902 C67.09299418763487 -0.20325846683901938, 67.09299418763487 0.42041374321725145, 67.09299418763487 0.826930676895284 M67.09299418763487 0.826930676895284 C67.06731323456148 1.2269322503055478, 67.04163228148809 1.6269338237158115, 66.98703092687991 2.4773939951584216 M67.09299418763487 0.826930676895284 C67.05678926639334 1.3908515493186686, 67.02058434515179 1.9547724217420532, 66.98703092687991 2.4773939951584216 M66.98703092687991 2.4773939951584216 C66.92211045180319 2.980904379855585, 66.85718997672649 3.4844147645527483, 66.77553983113748 4.117677170096119 M66.98703092687991 2.4773939951584216 C66.93006949801986 2.919175589090549, 66.87310806915981 3.3609571830226765, 66.77553983113748 4.117677170096119 M66.77553983113748 4.117677170096119 C66.70990465741325 4.454699915171132, 66.64426948368903 4.791722660246146, 66.45938996268467 5.741039926302909 M66.77553983113748 4.117677170096119 C66.69009595221166 4.556413429809944, 66.60465207328586 4.995149689523768, 66.45938996268467 5.741039926302909 M66.45938996268467 5.741039926302909 C66.36861691246777 6.087196908068781, 66.27784386225086 6.433353889834653, 66.0398804491449 7.340811518003306 M66.45938996268467 5.741039926302909 C66.36679680636888 6.09413776146277, 66.27420365005311 6.4472355966226305, 66.0398804491449 7.340811518003306 M66.0398804491449 7.340811518003306 C65.86880072027493 7.856076403506558, 65.69772099140496 8.37134128900981, 65.51873514509383 8.910418140577105 M66.0398804491449 7.340811518003306 C65.85659076784131 7.892850834844902, 65.67330108653772 8.444890151686497, 65.51873514509383 8.910418140577105 M65.51873514509383 8.910418140577105 C65.37810286449741 9.257782592590456, 65.23747058390097 9.605147044603807, 64.89809554837109 10.443409943732577 M65.51873514509383 8.910418140577105 C65.29263564578231 9.46888827521298, 65.06653614647081 10.027358409848851, 64.89809554837109 10.443409943732577 M64.89809554837109 10.443409943732577 C64.68102133315975 10.894169196263077, 64.46394711794841 11.344928448793576, 64.1805120002064 11.933487535324835 M64.89809554837109 10.443409943732577 C64.6722901261489 10.912299734439017, 64.4464847039267 11.381189525145457, 64.1805120002064 11.933487535324835 M64.1805120002064 11.933487535324835 C63.95658584237002 12.331091103545612, 63.73265968453363 12.728694671766391, 63.368933205320374 13.374527866909402 M64.1805120002064 11.933487535324835 C63.953895674538266 12.335867768939917, 63.727279348870134 12.738248002554998, 63.368933205320374 13.374527866909402 M63.368933205320374 13.374527866909402 C63.018991876147666 13.912131720922938, 62.66905054697496 14.449735574936472, 62.466694115064286 14.760609394661596 M63.368933205320374 13.374527866909402 C63.057152066712554 13.853507420769324, 62.74537092810474 14.332486974629244, 62.466694115064286 14.760609394661596 M62.466694115064286 14.760609394661596 C62.191004393137554 15.130008506193072, 61.915314671210815 15.499407617724545, 61.47750222338968 16.086036412270353 M62.466694115064286 14.760609394661596 C62.09632693167467 15.256867679259162, 61.72595974828504 15.753125963856727, 61.47750222338968 16.086036412270353 M61.47750222338968 16.086036412270353 C61.18770526026476 16.426448415071228, 60.897908297139836 16.766860417872103, 60.40542233196045 17.345362455817092 M61.47750222338968 16.086036412270353 C61.237101349813926 16.368424957569655, 60.996700476238175 16.650813502868953, 60.40542233196045 17.345362455817092 M60.40542233196045 17.345362455817092 C59.94554775598876 17.820220711912718, 59.48567318001707 18.29507896800834, 59.25485984701088 18.533412684464306 M60.40542233196045 17.345362455817092 C60.05445878743123 17.707761130186395, 59.703495242902015 18.070159804555693, 59.25485984701088 18.533412684464306 M59.25485984701088 18.533412684464306 C58.916018978269676 18.84113899621696, 58.577178109528475 19.14886530796961, 58.030542676586535 19.64530514498649 M59.25485984701088 18.533412684464306 C58.827440079231465 18.92158400865422, 58.40002031145206 19.309755332844137, 58.030542676586535 19.64530514498649 M58.030542676586535 19.64530514498649 C57.72772556746315 19.886793731210687, 57.42490845833977 20.128282317434884, 56.73750180255585 20.676470832763208 M58.030542676586535 19.64530514498649 C57.76157860293484 19.859796836289124, 57.492614529283145 20.07428852759176, 56.73750180255585 20.676470832763208 M56.73750180255585 20.676470832763208 C56.44528729925938 20.880307020500855, 56.153072795962906 21.0841432082385, 55.381050607226655 21.622672466799003 M56.73750180255585 20.676470832763208 C56.44003706468591 20.883969356860316, 56.14257232681597 21.091467880957424, 55.381050607226655 21.622672466799003 M55.381050607226655 21.622672466799003 C54.842744668281796 21.94899669042421, 54.30443872933694 22.27532091404942, 53.966763039518405 22.48002190162003 M55.381050607226655 21.622672466799003 C55.06870796375665 21.812016412799633, 54.756365320286655 22.00136035880026, 53.966763039518405 22.48002190162003 M53.966763039518405 22.48002190162003 C53.58995882329466 22.676600419869338, 53.21315460707091 22.873178938118645, 52.50045071041057 23.244996104497716 M53.966763039518405 22.48002190162003 C53.54225982613199 22.70148495613644, 53.11775661274557 22.922948010652846, 52.50045071041057 23.244996104497716 M52.50045071041057 23.244996104497716 C51.94327387923767 23.491641759594504, 51.38609704806478 23.738287414691293, 50.98813901178645 23.914451632345994 M52.50045071041057 23.244996104497716 C51.92791516662304 23.498440606068982, 51.3553796228355 23.75188510764025, 50.98813901178645 23.914451632345994 M50.98813901178645 23.914451632345994 C50.64559100859108 24.04051246400092, 50.30304300539571 24.166573295655848, 49.43604235680553 24.485637548803172 M50.98813901178645 23.914451632345994 C50.60937936437113 24.053838683810632, 50.230619716955815 24.19322573527527, 49.43604235680553 24.485637548803172 M49.43604235680553 24.485637548803172 C48.96975129639034 24.62403028792268, 48.50346023597515 24.762423027042185, 47.85053864354681 24.95620672841954 M49.43604235680553 24.485637548803172 C49.08616665393059 24.589478820881414, 48.73629095105565 24.693320092959656, 47.85053864354681 24.95620672841954 M47.85053864354681 24.95620672841954 C47.31871953466828 25.07759096957705, 46.78690042578975 25.19897521073456, 46.238143046857545 25.324225501499278 M47.85053864354681 24.95620672841954 C47.35969359455619 25.068238907788363, 46.86884854556557 25.180271087157188, 46.238143046857545 25.324225501499278 M46.238143046857545 25.324225501499278 C45.74913981132961 25.403283752342706, 45.26013657580168 25.482342003186133, 44.60548124610233 25.588181599964017 M46.238143046857545 25.324225501499278 C45.79810939091316 25.395366730480397, 45.35807573496877 25.46650795946152, 44.60548124610233 25.588181599964017 M44.60548124610233 25.588181599964017 C44.093126391812625 25.63760785656048, 43.58077153752292 25.687034113156944, 42.959262198825286 25.746990371586765 M44.60548124610233 25.588181599964017 C44.08220788450353 25.63866115182916, 43.558934522904735 25.689140703694306, 42.959262198825286 25.746990371586765 M42.959262198825286 25.746990371586765 C42.321089668007076 25.76745532252263, 41.682917137188866 25.787920273458493, 41.3062505722046 25.799999237060547 M42.959262198825286 25.746990371586765 C42.33370719438698 25.767050703010153, 41.70815218994868 25.787111034433536, 41.3062505722046 25.799999237060547 M41.3062505722046 25.799999237060547 C41.3062505722046 25.799999237060547, 41.3062505722046 25.799999237060547, 41.30625057220459 25.799999237060547 M41.3062505722046 25.799999237060547 C41.3062505722046 25.799999237060547, 41.30625057220459 25.799999237060547, 41.30625057220459 25.799999237060547 M41.30625057220459 25.799999237060547 C17.573683325855598 25.799999237060547, -6.158883920493395 25.799999237060547, -41.30625057220458 25.799999237060547 M41.30625057220459 25.799999237060547 C24.748495823654054 25.799999237060547, 8.190741075103517 25.799999237060547, -41.30625057220458 25.799999237060547 M-41.30625057220458 25.799999237060547 C-41.82534635610073 25.783352845629647, -42.34444213999688 25.766706454198744, -42.95926219882527 25.746990371586765 M-41.30625057220458 25.799999237060547 C-41.682001357319656 25.787949640736443, -42.05775214243473 25.775900044412335, -42.95926219882527 25.746990371586765 M-42.95926219882527 25.746990371586765 C-43.300840111163666 25.714038761191023, -43.64241802350206 25.681087150795282, -44.605481246102315 25.588181599964017 M-42.95926219882527 25.746990371586765 C-43.581371664405374 25.68697621963835, -44.20348112998548 25.626962067689934, -44.605481246102315 25.588181599964017 M-44.605481246102315 25.588181599964017 C-45.19632437775423 25.492658664495455, -45.787167509406146 25.397135729026893, -46.23814304685753 25.324225501499278 M-44.605481246102315 25.588181599964017 C-45.18810527512467 25.493987465268507, -45.770729304147025 25.399793330573, -46.23814304685753 25.324225501499278 M-46.23814304685753 25.324225501499278 C-46.63044319147252 25.234685553488593, -47.02274333608752 25.145145605477907, -47.850538643546784 24.956206728419545 M-46.23814304685753 25.324225501499278 C-46.77372269825848 25.20198294105086, -47.30930234965943 25.07974038060244, -47.850538643546784 24.956206728419545 M-47.850538643546784 24.956206728419545 C-48.46633849924092 24.773440563648933, -49.082138354935054 24.590674398878317, -49.4360423568055 24.485637548803183 M-47.850538643546784 24.956206728419545 C-48.18418959837107 24.857180876397297, -48.517840553195356 24.758155024375053, -49.4360423568055 24.485637548803183 M-49.4360423568055 24.485637548803183 C-49.877925415233065 24.323020498579623, -50.319808473660636 24.160403448356064, -50.988139011786444 23.914451632345997 M-49.4360423568055 24.485637548803183 C-50.01948216010546 24.27092630793038, -50.602921963405414 24.056215067057575, -50.988139011786444 23.914451632345997 M-50.988139011786444 23.914451632345997 C-51.422116396349814 23.72234271768151, -51.856093780913184 23.530233803017023, -52.50045071041056 23.244996104497723 M-50.988139011786444 23.914451632345997 C-51.37298291671363 23.74409265162356, -51.75782682164082 23.573733670901124, -52.50045071041056 23.244996104497723 M-52.50045071041056 23.244996104497723 C-53.067126841543356 22.94936152985913, -53.63380297267615 22.653726955220534, -53.9667630395184 22.480021901620038 M-52.50045071041056 23.244996104497723 C-52.96467811393643 23.00280896543012, -53.428905517462304 22.760621826362517, -53.9667630395184 22.480021901620038 M-53.9667630395184 22.480021901620038 C-54.26803815920753 22.29738715357536, -54.56931327889666 22.114752405530684, -55.381050607226626 21.622672466799017 M-53.9667630395184 22.480021901620038 C-54.38469434531765 22.22666948800756, -54.802625651116905 21.973317074395084, -55.381050607226626 21.622672466799017 M-55.381050607226626 21.622672466799017 C-55.90030607404902 21.260462331350592, -56.41956154087141 20.898252195902163, -56.73750180255584 20.67647083276321 M-55.381050607226626 21.622672466799017 C-55.7939323375063 21.334664045117957, -56.20681406778596 21.046655623436898, -56.73750180255584 20.67647083276321 M-56.73750180255584 20.67647083276321 C-57.14457586581486 20.351840100009916, -57.55164992907387 20.02720936725662, -58.030542676586506 19.645305144986512 M-56.73750180255584 20.67647083276321 C-57.03260160803581 20.44113659082856, -57.32770141351578 20.205802348893908, -58.030542676586506 19.645305144986512 M-58.030542676586506 19.645305144986512 C-58.45866248863691 19.256498059111834, -58.88678230068732 18.86769097323716, -59.25485984701086 18.533412684464324 M-58.030542676586506 19.645305144986512 C-58.46335946828082 19.25223238647451, -58.89617625997513 18.859159627962512, -59.25485984701086 18.533412684464324 M-59.25485984701086 18.533412684464324 C-59.692385309456256 18.08163172298094, -60.12991077190164 17.629850761497558, -60.40542233196044 17.3453624558171 M-59.25485984701086 18.533412684464324 C-59.658535109344164 18.116584833749787, -60.062210371677466 17.69975698303525, -60.40542233196044 17.3453624558171 M-60.40542233196044 17.3453624558171 C-60.659056437634874 17.047429403102452, -60.9126905433093 16.749496350387805, -61.47750222338967 16.08603641227036 M-60.40542233196044 17.3453624558171 C-60.640024022165804 17.06978596128754, -60.87462571237117 16.79420946675798, -61.47750222338967 16.08603641227036 M-61.47750222338967 16.08603641227036 C-61.74552705498827 15.726907555492705, -62.01355188658688 15.367778698715052, -62.46669411506427 14.760609394661614 M-61.47750222338967 16.08603641227036 C-61.691292526248404 15.799576883136922, -61.90508282910714 15.513117354003485, -62.46669411506427 14.760609394661614 M-62.46669411506427 14.760609394661614 C-62.66926561884084 14.449405166795598, -62.8718371226174 14.138200938929584, -63.36893320532036 13.374527866909418 M-62.46669411506427 14.760609394661614 C-62.7864400011085 14.269393849905214, -63.106185887152726 13.778178305148813, -63.36893320532036 13.374527866909418 M-63.36893320532036 13.374527866909418 C-63.66213271833435 12.853922441882947, -63.955332231348336 12.333317016856478, -64.18051200020639 11.933487535324842 M-63.36893320532036 13.374527866909418 C-63.64533150547888 12.883754696615123, -63.92172980563739 12.392981526320828, -64.18051200020639 11.933487535324842 M-64.18051200020639 11.933487535324842 C-64.41575975125289 11.444990546781261, -64.65100750229941 10.956493558237678, -64.89809554837109 10.443409943732586 M-64.18051200020639 11.933487535324842 C-64.37292280301396 11.533942386363279, -64.56533360582152 11.134397237401718, -64.89809554837109 10.443409943732586 M-64.89809554837109 10.443409943732586 C-65.06796535234211 10.023828243714904, -65.23783515631314 9.60424654369722, -65.51873514509381 8.910418140577127 M-64.89809554837109 10.443409943732586 C-65.11139997590259 9.916543883769211, -65.3247044034341 9.389677823805837, -65.51873514509381 8.910418140577127 M-65.51873514509381 8.910418140577127 C-65.72689259024861 8.283481081155818, -65.9350500354034 7.656544021734508, -66.0398804491449 7.340811518003316 M-65.51873514509381 8.910418140577127 C-65.66549205710292 8.468409704144225, -65.81224896911202 8.026401267711321, -66.0398804491449 7.340811518003316 M-66.0398804491449 7.340811518003316 C-66.17316381788942 6.832544267603078, -66.30644718663393 6.3242770172028395, -66.45938996268467 5.741039926302918 M-66.0398804491449 7.340811518003316 C-66.18507719190575 6.78711340918986, -66.33027393466658 6.233415300376404, -66.45938996268467 5.741039926302918 M-66.45938996268467 5.741039926302918 C-66.5539942401093 5.255266956348541, -66.64859851753394 4.769493986394163, -66.77553983113748 4.117677170096139 M-66.45938996268467 5.741039926302918 C-66.55891280238444 5.23001117860424, -66.6584356420842 4.718982430905563, -66.77553983113748 4.117677170096139 M-66.77553983113748 4.117677170096139 C-66.82431680221863 3.739372614493155, -66.87309377329977 3.3610680588901705, -66.98703092687991 2.477393995158454 M-66.77553983113748 4.117677170096139 C-66.82246130861503 3.753763456473955, -66.86938278609259 3.3898497428517698, -66.98703092687991 2.477393995158454 M-66.98703092687991 2.477393995158454 C-67.02271452223215 1.9215931942676705, -67.05839811758437 1.3657923933768872, -67.09299418763487 0.8269306768952934 M-66.98703092687991 2.477393995158454 C-67.0150125431988 2.0415577346375957, -67.04299415951769 1.6057214741167376, -67.09299418763487 0.8269306768952934 M-67.09299418763487 0.8269306768952934 C-67.09299418763487 0.2476650825209007, -67.09299418763487 -0.33160051185349204, -67.09299418763487 -0.8269306768952809 M-67.09299418763487 0.8269306768952934 C-67.09299418763487 0.3774871970031373, -67.09299418763487 -0.07195628288901879, -67.09299418763487 -0.8269306768952809 M-67.09299418763487 -0.8269306768952809 C-67.06857524032729 -1.2072754918303301, -67.04415629301971 -1.5876203067653791, -66.98703092687991 -2.4773939951584185 M-67.09299418763487 -0.8269306768952809 C-67.07150585481489 -1.161628805636694, -67.05001752199489 -1.496326934378107, -66.98703092687991 -2.4773939951584185 M-66.98703092687991 -2.4773939951584185 C-66.93932391332174 -2.847400171500219, -66.89161689976356 -3.2174063478420187, -66.77553983113748 -4.117677170096128 M-66.98703092687991 -2.4773939951584185 C-66.90326090548989 -3.1270977387976857, -66.81949088409986 -3.776801482436953, -66.77553983113748 -4.117677170096128 M-66.77553983113748 -4.117677170096128 C-66.70716378481715 -4.468773716668467, -66.63878773849683 -4.819870263240806, -66.45938996268467 -5.741039926302906 M-66.77553983113748 -4.117677170096128 C-66.69279193528803 -4.542570126509062, -66.61004403943858 -4.967463082921997, -66.45938996268467 -5.741039926302906 M-66.45938996268467 -5.741039926302906 C-66.3390008022576 -6.200135972003482, -66.21861164183053 -6.659232017704057, -66.0398804491449 -7.340811518003303 M-66.45938996268467 -5.741039926302906 C-66.36836593986575 -6.088153975372465, -66.27734191704684 -6.435268024442022, -66.0398804491449 -7.340811518003303 M-66.0398804491449 -7.340811518003303 C-65.85981596330625 -7.883137059969623, -65.67975147746759 -8.425462601935942, -65.51873514509383 -8.910418140577093 M-66.0398804491449 -7.340811518003303 C-65.8887173665412 -7.7960906382391775, -65.73755428393751 -8.251369758475052, -65.51873514509383 -8.910418140577093 M-65.51873514509383 -8.910418140577093 C-65.35074285111591 -9.325362354612608, -65.182750557138 -9.740306568648123, -64.89809554837109 -10.443409943732574 M-65.51873514509383 -8.910418140577093 C-65.28397360193073 -9.490283690995621, -65.04921205876762 -10.070149241414152, -64.89809554837109 -10.443409943732574 M-64.89809554837109 -10.443409943732574 C-64.65122341971814 -10.956045201097801, -64.40435129106517 -11.468680458463028, -64.1805120002064 -11.933487535324831 M-64.89809554837109 -10.443409943732574 C-64.65562670693916 -10.946901680968066, -64.41315786550724 -11.450393418203559, -64.1805120002064 -11.933487535324831 M-64.1805120002064 -11.933487535324831 C-63.93097985678601 -12.376557123837221, -63.681447713365614 -12.819626712349613, -63.36893320532037 -13.374527866909409 M-64.1805120002064 -11.933487535324831 C-63.949356345756236 -12.343927806849297, -63.718200691306066 -12.754368078373764, -63.36893320532037 -13.374527866909409 M-63.36893320532037 -13.374527866909409 C-63.163543406336075 -13.690061753032724, -62.958153607351775 -14.005595639156038, -62.46669411506428 -14.760609394661605 M-63.36893320532037 -13.374527866909409 C-63.16079835080158 -13.69427889548433, -62.95266349628279 -14.014029924059251, -62.46669411506428 -14.760609394661605 M-62.46669411506428 -14.760609394661605 C-62.183105360189224 -15.140592490727126, -61.89951660531416 -15.52057558679265, -61.47750222338968 -16.086036412270353 M-62.46669411506428 -14.760609394661605 C-62.13290210723175 -15.207860276079703, -61.79911009939923 -15.655111157497801, -61.47750222338968 -16.086036412270353 M-61.47750222338968 -16.086036412270353 C-61.176476909703304 -16.439637874551956, -60.87545159601693 -16.79323933683356, -60.40542233196045 -17.345362455817092 M-61.47750222338968 -16.086036412270353 C-61.12475250041779 -16.500396308900985, -60.772002777445906 -16.914756205531617, -60.40542233196045 -17.345362455817092 M-60.40542233196045 -17.345362455817092 C-60.17024974279031 -17.58819746216391, -59.93507715362018 -17.83103246851073, -59.25485984701089 -18.5334126844643 M-60.40542233196045 -17.345362455817092 C-60.14867346282193 -17.610476742676795, -59.891924593683406 -17.8755910295365, -59.25485984701089 -18.5334126844643 M-59.25485984701089 -18.5334126844643 C-58.83709199774569 -18.912818391635376, -58.41932414848049 -19.292224098806454, -58.030542676586535 -19.645305144986487 M-59.25485984701089 -18.5334126844643 C-58.97915026592024 -18.783804831135058, -58.70344068482959 -19.03419697780582, -58.030542676586535 -19.645305144986487 M-58.030542676586535 -19.645305144986487 C-57.66048701841895 -19.9404146847805, -57.29043136025136 -20.23552422457451, -56.73750180255585 -20.676470832763204 M-58.030542676586535 -19.645305144986487 C-57.560790684431595 -20.019919858104547, -57.091038692276655 -20.394534571222607, -56.73750180255585 -20.676470832763204 M-56.73750180255585 -20.676470832763204 C-56.4338626199283 -20.88827638223582, -56.13022343730075 -21.10008193170843, -55.38105060722666 -21.622672466799 M-56.73750180255585 -20.676470832763204 C-56.41405795201627 -20.90209126124099, -56.09061410147669 -21.12771168971878, -55.38105060722666 -21.622672466799 M-55.38105060722666 -21.622672466799 C-55.03443937588779 -21.832790232150312, -54.68782814454892 -22.042907997501626, -53.966763039518405 -22.480021901620027 M-55.38105060722666 -21.622672466799 C-54.92188027598917 -21.90102421997955, -54.46270994475167 -22.1793759731601, -53.966763039518405 -22.480021901620027 M-53.966763039518405 -22.480021901620027 C-53.58233039265538 -22.68058016724761, -53.19789774579235 -22.881138432875186, -52.500450710410576 -23.244996104497716 M-53.966763039518405 -22.480021901620027 C-53.39153933881818 -22.78011573782697, -52.816315638117956 -23.080209574033915, -52.500450710410576 -23.244996104497716 M-52.500450710410576 -23.244996104497716 C-52.157310305036354 -23.396894183058414, -51.81416989966213 -23.548792261619113, -50.98813901178645 -23.91445163234599 M-52.500450710410576 -23.244996104497716 C-51.95712817925772 -23.485508871948834, -51.413805648104876 -23.726021639399956, -50.98813901178645 -23.91445163234599 M-50.98813901178645 -23.91445163234599 C-50.537991411003446 -24.080110110552944, -50.08784381022044 -24.245768588759898, -49.43604235680553 -24.485637548803172 M-50.98813901178645 -23.91445163234599 C-50.54956047958288 -24.075852586372413, -50.11098194737931 -24.23725354039884, -49.43604235680553 -24.485637548803172 M-49.43604235680553 -24.485637548803172 C-49.09537570355349 -24.586745623292625, -48.75470905030145 -24.687853697782078, -47.85053864354682 -24.956206728419538 M-49.43604235680553 -24.485637548803172 C-49.06198951132831 -24.59665446989736, -48.6879366658511 -24.707671390991546, -47.85053864354682 -24.956206728419538 M-47.85053864354682 -24.956206728419538 C-47.2965134673985 -25.082659359523248, -46.74248829125017 -25.209111990626955, -46.238143046857545 -25.324225501499278 M-47.85053864354682 -24.956206728419538 C-47.525907363580565 -25.030301699654757, -47.20127608361431 -25.10439667088998, -46.238143046857545 -25.324225501499278 M-46.238143046857545 -25.324225501499278 C-45.9062868863011 -25.37787743195508, -45.57443072574466 -25.431529362410885, -44.60548124610233 -25.588181599964017 M-46.238143046857545 -25.324225501499278 C-45.64706312745079 -25.419786718975725, -45.05598320804405 -25.515347936452173, -44.60548124610233 -25.588181599964017 M-44.60548124610233 -25.588181599964017 C-44.24357489352973 -25.623094270540626, -43.88166854095713 -25.658006941117236, -42.959262198825286 -25.746990371586765 M-44.60548124610233 -25.588181599964017 C-44.10219293962501 -25.636733217597136, -43.598904633147704 -25.68528483523026, -42.959262198825286 -25.746990371586765 M-42.959262198825286 -25.746990371586765 C-42.491326225269034 -25.761996167476596, -42.023390251712776 -25.777001963366427, -41.3062505722046 -25.799999237060547 M-42.959262198825286 -25.746990371586765 C-42.587272096428514 -25.75891937013582, -42.21528199403175 -25.770848368684874, -41.3062505722046 -25.799999237060547 M-41.3062505722046 -25.799999237060547 C-41.3062505722046 -25.799999237060547, -41.30625057220459 -25.799999237060547, -41.30625057220459 -25.799999237060547 M-41.3062505722046 -25.799999237060547 C-41.3062505722046 -25.799999237060547, -41.30625057220459 -25.799999237060547, -41.30625057220459 -25.799999237060547" stroke="#1F4870" stroke-width="1.3" fill="none" stroke-dasharray="0 0" style="fill:#2E5A88 !important;stroke:#1F4870 !important"></path></g><g class="label" style="color:#ffffff !important" transform="translate(0, -18.299999237060547)"><rect></rect><g><rect class="background" style="stroke: none"></rect><text y="-10.1" style="fill:#ffffff !important"><tspan class="text-outer-tspan row" x="0" y="-0.1em" dy="1.1em"><tspan font-style="normal" class="text-inner-tspan" font-weight="normal">Choosing</tspan><tspan font-style="normal" class="text-inner-tspan" font-weight="normal"> a</tspan><tspan font-style="normal" class="text-inner-tspan" font-weight="normal"> CSS</tspan></tspan><tspan class="text-outer-tspan row" x="0" y="1em" dy="1.1em"><tspan font-style="normal" class="text-inner-tspan" font-weight="normal">architecture</tspan></tspan></text></g></g></g><g class="node default question" id="gc90304e4-9fd0-4005-8ad6-89ab87bc0968-light-flowchart-Build-1" data-look="classic" transform="translate(270.8101577758789, 199.0718765258789)"><polygon points="89.47187423706055,0 178.9437484741211,-89.47187423706055 89.47187423706055,-178.9437484741211 0,-89.47187423706055" class="label-container" transform="translate(-88.97187423706055, 89.47187423706055)" style="fill:#5A5A5A !important;stroke:#3D3D3D !important"></polygon><g class="label" style="color:#ffffff !important" transform="translate(0, -18.299999237060547)"><rect></rect><g><rect class="background" style="stroke: none"></rect><text y="-10.1" style="fill:#ffffff !important"><tspan class="text-outer-tspan row" x="0" y="-0.1em" dy="1.1em"><tspan font-style="normal" class="text-inner-tspan" font-weight="normal">Modern</tspan><tspan font-style="normal" class="text-inner-tspan" font-weight="normal"> bundler</tspan></tspan><tspan class="text-outer-tspan row" x="0" y="1em" dy="1.1em"><tspan font-style="normal" class="text-inner-tspan" font-weight="normal">available?</tspan></tspan></text></g></g></g><g class="node default leaf" id="gc90304e4-9fd0-4005-8ad6-89ab87bc0968-light-flowchart-BEM-3" data-look="classic" transform="translate(129.203125, 473.55469512939453)"><rect class="basic label-container" style="fill:#2D7A2D !important;stroke:#1E5A1E !important" x="-121.203125" y="-33.29999923706055" width="242.40625" height="66.5999984741211"></rect><g class="label" style="color:#ffffff !important" transform="translate(0, -18.299999237060547)"><rect></rect><g><rect class="background" style="stroke: none"></rect><text y="-10.1" style="fill:#ffffff !important"><tspan class="text-outer-tspan row" x="0" y="-0.1em" dy="1.1em"><tspan font-style="normal" class="text-inner-tspan" font-weight="normal">BEM</tspan><tspan font-style="normal" class="text-inner-tspan" font-weight="normal"> /</tspan><tspan font-style="normal" class="text-inner-tspan" font-weight="normal"> naming</tspan><tspan font-style="normal" class="text-inner-tspan" font-weight="normal"> convention</tspan></tspan><tspan class="text-outer-tspan row" x="0" y="1em" dy="1.1em"><tspan font-style="normal" class="text-inner-tspan" font-weight="normal">(only</tspan><tspan font-style="normal" class="text-inner-tspan" font-weight="normal"> viable</tspan><tspan font-style="normal" class="text-inner-tspan" font-weight="normal"> option)</tspan></tspan></text></g></g></g><g class="node default question" id="gc90304e4-9fd0-4005-8ad6-89ab87bc0968-light-flowchart-RSC-5" data-look="classic" transform="translate(412.4171905517578, 473.55469512939453)"><polygon points="112.01093673706055,0 224.0218734741211,-112.01093673706055 112.01093673706055,-224.0218734741211 0,-112.01093673706055" class="label-container" transform="translate(-111.51093673706055, 112.01093673706055)" style="fill:#5A5A5A !important;stroke:#3D3D3D !important"></polygon><g class="label" style="color:#ffffff !important" transform="translate(0, -18.299999237060547)"><rect></rect><g><rect class="background" style="stroke: none"></rect><text y="-10.1" style="fill:#ffffff !important"><tspan class="text-outer-tspan row" x="0" y="-0.1em" dy="1.1em"><tspan font-style="normal" class="text-inner-tspan" font-weight="normal">React</tspan><tspan font-style="normal" class="text-inner-tspan" font-weight="normal"> Server</tspan></tspan><tspan class="text-outer-tspan row" x="0" y="1em" dy="1.1em"><tspan font-style="normal" class="text-inner-tspan" font-weight="normal">Components</tspan><tspan font-style="normal" class="text-inner-tspan" font-weight="normal"> in</tspan><tspan font-style="normal" class="text-inner-tspan" font-weight="normal"> scope?</tspan></tspan></text></g></g></g><g class="node default warn" id="gc90304e4-9fd0-4005-8ad6-89ab87bc0968-light-flowchart-NoRuntime-7" data-look="classic" transform="translate(570.6437530517578, 700.6656341552734)"><rect class="basic label-container" style="fill:#B43A3A !important;stroke:#8E2828 !important" x="-112.5625" y="-42.099998474121094" width="225.125" height="84.19999694824219"></rect><g class="label" style="color:#ffffff !important" transform="translate(0, -27.099998474121094)"><rect></rect><g><rect class="background" style="stroke: none"></rect><text y="-10.1" style="fill:#ffffff !important"><tspan class="text-outer-tspan row" x="0" y="-0.1em" dy="1.1em"><tspan font-style="normal" class="text-inner-tspan" font-weight="normal">Drop</tspan><tspan font-style="normal" class="text-inner-tspan" font-weight="normal"> runtime</tspan><tspan font-style="normal" class="text-inner-tspan" font-weight="normal"> CSS-in-JS</tspan></tspan><tspan class="text-outer-tspan row" x="0" y="1em" dy="1.1em"><tspan font-style="normal" class="text-inner-tspan" font-weight="normal">(styled-components,</tspan></tspan><tspan class="text-outer-tspan row" x="0" y="2.1em" dy="1.1em"><tspan font-style="normal" class="text-inner-tspan" font-weight="normal">Emotion)</tspan></tspan></text></g></g></g><g class="node default question" id="gc90304e4-9fd0-4005-8ad6-89ab87bc0968-light-flowchart-Dynamic-9" data-look="classic" transform="translate(412.4171905517578, 918.6359481811523)"><polygon points="125.87031173706055,0 251.7406234741211,-125.87031173706055 125.87031173706055,-251.7406234741211 0,-125.87031173706055" class="label-container" transform="translate(-125.37031173706055, 125.87031173706055)" style="fill:#5A5A5A !important;stroke:#3D3D3D !important"></polygon><g class="label" style="color:#ffffff !important" transform="translate(0, -18.299999237060547)"><rect></rect><g><rect class="background" style="stroke: none"></rect><text y="-10.1" style="fill:#ffffff !important"><tspan class="text-outer-tspan row" x="0" y="-0.1em" dy="1.1em"><tspan font-style="normal" class="text-inner-tspan" font-weight="normal">Heavy</tspan><tspan font-style="normal" class="text-inner-tspan" font-weight="normal"> runtime-driven</tspan></tspan><tspan class="text-outer-tspan row" x="0" y="1em" dy="1.1em"><tspan font-style="normal" class="text-inner-tspan" font-weight="normal">styles?</tspan><tspan font-style="normal" class="text-inner-tspan" font-weight="normal"> (themes,</tspan><tspan font-style="normal" class="text-inner-tspan" font-weight="normal"> viz,</tspan><tspan font-style="normal" class="text-inner-tspan" font-weight="normal"> DnD)</tspan></tspan></text></g></g></g><g class="node default leaf" id="gc90304e4-9fd0-4005-8ad6-89ab87bc0968-light-flowchart-Hybrid-13" data-look="classic" transform="translate(401.6515655517578, 1218.5375137329102)"><rect class="basic label-container" style="fill:#2D7A2D !important;stroke:#1E5A1E !important" x="-121.703125" y="-59.70000076293945" width="243.40625" height="119.4000015258789"></rect><g class="label" style="color:#ffffff !important" transform="translate(0, -44.70000076293945)"><rect></rect><g><rect class="background" style="stroke: none"></rect><text y="-10.1" style="fill:#ffffff !important"><tspan class="text-outer-tspan row" x="0" y="-0.1em" dy="1.1em"><tspan font-style="normal" class="text-inner-tspan" font-weight="normal">CSS</tspan><tspan font-style="normal" class="text-inner-tspan" font-weight="normal"> Modules</tspan><tspan font-style="normal" class="text-inner-tspan" font-weight="normal"> +</tspan><tspan font-style="normal" class="text-inner-tspan" font-weight="normal"> custom</tspan></tspan><tspan class="text-outer-tspan row" x="0" y="1em" dy="1.1em"><tspan font-style="normal" class="text-inner-tspan" font-weight="normal">properties</tspan></tspan><tspan class="text-outer-tspan row" x="0" y="2.1em" dy="1.1em"><tspan font-style="normal" class="text-inner-tspan" font-weight="normal">or</tspan><tspan font-style="normal" class="text-inner-tspan" font-weight="normal"> zero-runtime</tspan><tspan font-style="normal" class="text-inner-tspan" font-weight="normal"> CSS-in-JS</tspan></tspan><tspan class="text-outer-tspan row" x="0" y="3.2em" dy="1.1em"><tspan font-style="normal" class="text-inner-tspan" font-weight="normal">(StyleX,</tspan><tspan font-style="normal" class="text-inner-tspan" font-weight="normal"> vanilla-extract,</tspan></tspan><tspan class="text-outer-tspan row" x="0" y="4.300000000000001em" dy="1.1em"><tspan font-style="normal" class="text-inner-tspan" font-weight="normal">Panda)</tspan></tspan></text></g></g></g><g class="node default question" id="gc90304e4-9fd0-4005-8ad6-89ab87bc0968-light-flowchart-Authoring-15" data-look="classic" transform="translate(674.3859405517578, 1218.5375137329102)"><polygon points="101.03125,0 202.0625,-101.03125 101.03125,-202.0625 0,-101.03125" class="label-container" transform="translate(-100.53125, 101.03125)" style="fill:#5A5A5A !important;stroke:#3D3D3D !important"></polygon><g class="label" style="color:#ffffff !important" transform="translate(0, -9.5)"><rect></rect><g><rect class="background" style="stroke: none"></rect><text y="-10.1" style="fill:#ffffff !important"><tspan class="text-outer-tspan row" x="0" y="-0.1em" dy="1.1em"><tspan font-style="normal" class="text-inner-tspan" font-weight="normal">Authoring</tspan><tspan font-style="normal" class="text-inner-tspan" font-weight="normal"> preference</tspan></tspan></text></g></g></g><g class="node default leaf" id="gc90304e4-9fd0-4005-8ad6-89ab87bc0968-light-flowchart-Util-17" data-look="classic" transform="translate(275.1671905517578, 1425.8687629699707)"><rect class="basic label-container" style="fill:#2D7A2D !important;stroke:#1E5A1E !important" x="-107.6328125" y="-33.29999923706055" width="215.265625" height="66.5999984741211"></rect><g class="label" style="color:#ffffff !important" transform="translate(0, -18.299999237060547)"><rect></rect><g><rect class="background" style="stroke: none"></rect><text y="-10.1" style="fill:#ffffff !important"><tspan class="text-outer-tspan row" x="0" y="-0.1em" dy="1.1em"><tspan font-style="normal" class="text-inner-tspan" font-weight="normal">Utility-first</tspan></tspan><tspan class="text-outer-tspan row" x="0" y="1em" dy="1.1em"><tspan font-style="normal" class="text-inner-tspan" font-weight="normal">(Tailwind</tspan><tspan font-style="normal" class="text-inner-tspan" font-weight="normal"> v4,</tspan><tspan font-style="normal" class="text-inner-tspan" font-weight="normal"> UnoCSS)</tspan></tspan></text></g></g></g><g class="node default leaf" id="gc90304e4-9fd0-4005-8ad6-89ab87bc0968-light-flowchart-Zero-19" data-look="classic" transform="translate(548.7843780517578, 1425.8687629699707)"><rect class="basic label-container" style="fill:#2D7A2D !important;stroke:#1E5A1E !important" x="-115.984375" y="-33.29999923706055" width="231.96875" height="66.5999984741211"></rect><g class="label" style="color:#ffffff !important" transform="translate(0, -18.299999237060547)"><rect></rect><g><rect class="background" style="stroke: none"></rect><text y="-10.1" style="fill:#ffffff !important"><tspan class="text-outer-tspan row" x="0" y="-0.1em" dy="1.1em"><tspan font-style="normal" class="text-inner-tspan" font-weight="normal">Zero-runtime</tspan><tspan font-style="normal" class="text-inner-tspan" font-weight="normal"> CSS-in-JS</tspan></tspan><tspan class="text-outer-tspan row" x="0" y="1em" dy="1.1em"><tspan font-style="normal" class="text-inner-tspan" font-weight="normal">(StyleX,</tspan><tspan font-style="normal" class="text-inner-tspan" font-weight="normal"> vanilla-extract)</tspan></tspan></text></g></g></g><g class="node default leaf" id="gc90304e4-9fd0-4005-8ad6-89ab87bc0968-light-flowchart-Modules-21" data-look="classic" transform="translate(799.9875030517578, 1425.8687629699707)"><rect class="basic label-container" style="fill:#2D7A2D !important;stroke:#1E5A1E !important" x="-85.21875" y="-33.29999923706055" width="170.4375" height="66.5999984741211"></rect><g class="label" style="color:#ffffff !important" transform="translate(0, -18.299999237060547)"><rect></rect><g><rect class="background" style="stroke: none"></rect><text y="-10.1" style="fill:#ffffff !important"><tspan class="text-outer-tspan row" x="0" y="-0.1em" dy="1.1em"><tspan font-style="normal" class="text-inner-tspan" font-weight="normal">CSS</tspan><tspan font-style="normal" class="text-inner-tspan" font-weight="normal"> Modules</tspan></tspan><tspan class="text-outer-tspan row" x="0" y="1em" dy="1.1em"><tspan font-style="normal" class="text-inner-tspan" font-weight="normal">+</tspan><tspan font-style="normal" class="text-inner-tspan" font-weight="normal"> design</tspan><tspan font-style="normal" class="text-inner-tspan" font-weight="normal"> tokens</tspan></tspan></text></g></g></g></g></g></g><defs><filter id="gc90304e4-9fd0-4005-8ad6-89ab87bc0968-light-drop-shadow" height="130%" width="130%"><feDropShadow dx="4" dy="4" stdDeviation="0" flood-opacity="0.06" flood-color="#000000"></feDropShadow></filter></defs><defs><filter id="gc90304e4-9fd0-4005-8ad6-89ab87bc0968-light-drop-shadow-small" height="150%" width="150%"><feDropShadow dx="2" dy="2" stdDeviation="0" flood-opacity="0.06" flood-color="#000000"></feDropShadow></filter></defs></svg>