<svg id="g8d49821f-8fbf-4b3b-96af-c7d7ae0261af-dark" width="100%" xmlns="http://www.w3.org/2000/svg" xmlns:xlink="http://www.w3.org/1999/xlink" class="flowchart" style="max-width: 844.5726318359375px;" viewBox="0 0 844.5726318359375 1126.090576171875" role="graphics-document document" aria-roledescription="flowchart-v2"><style>#g8d49821f-8fbf-4b3b-96af-c7d7ae0261af-dark{font-family:"trebuchet ms",verdana,arial,sans-serif;font-size:16px;fill:#e5e5e5;}@keyframes edge-animation-frame{from{stroke-dashoffset:0;}}@keyframes dash{to{stroke-dashoffset:0;}}#g8d49821f-8fbf-4b3b-96af-c7d7ae0261af-dark .edge-animation-slow{stroke-dasharray:9,5!important;stroke-dashoffset:900;animation:dash 50s linear infinite;stroke-linecap:round;}#g8d49821f-8fbf-4b3b-96af-c7d7ae0261af-dark .edge-animation-fast{stroke-dasharray:9,5!important;stroke-dashoffset:900;animation:dash 20s linear infinite;stroke-linecap:round;}#g8d49821f-8fbf-4b3b-96af-c7d7ae0261af-dark .error-icon{fill:#252525;}#g8d49821f-8fbf-4b3b-96af-c7d7ae0261af-dark .error-text{fill:#cccccc;stroke:#cccccc;}#g8d49821f-8fbf-4b3b-96af-c7d7ae0261af-dark .edge-thickness-normal{stroke-width:1px;}#g8d49821f-8fbf-4b3b-96af-c7d7ae0261af-dark .edge-thickness-thick{stroke-width:3.5px;}#g8d49821f-8fbf-4b3b-96af-c7d7ae0261af-dark .edge-pattern-solid{stroke-dasharray:0;}#g8d49821f-8fbf-4b3b-96af-c7d7ae0261af-dark .edge-thickness-invisible{stroke-width:0;fill:none;}#g8d49821f-8fbf-4b3b-96af-c7d7ae0261af-dark .edge-pattern-dashed{stroke-dasharray:3;}#g8d49821f-8fbf-4b3b-96af-c7d7ae0261af-dark .edge-pattern-dotted{stroke-dasharray:2;}#g8d49821f-8fbf-4b3b-96af-c7d7ae0261af-dark .marker{fill:#cccccc;stroke:#cccccc;}#g8d49821f-8fbf-4b3b-96af-c7d7ae0261af-dark .marker.cross{stroke:#cccccc;}#g8d49821f-8fbf-4b3b-96af-c7d7ae0261af-dark svg{font-family:"trebuchet ms",verdana,arial,sans-serif;font-size:16px;}#g8d49821f-8fbf-4b3b-96af-c7d7ae0261af-dark p{margin:0;}#g8d49821f-8fbf-4b3b-96af-c7d7ae0261af-dark .label{font-family:"trebuchet ms",verdana,arial,sans-serif;color:#e5e5e5;}#g8d49821f-8fbf-4b3b-96af-c7d7ae0261af-dark .cluster-label text{fill:#e5e5e5;}#g8d49821f-8fbf-4b3b-96af-c7d7ae0261af-dark .cluster-label span{color:#e5e5e5;}#g8d49821f-8fbf-4b3b-96af-c7d7ae0261af-dark .cluster-label span p{background-color:transparent;}#g8d49821f-8fbf-4b3b-96af-c7d7ae0261af-dark .label text,#g8d49821f-8fbf-4b3b-96af-c7d7ae0261af-dark span{fill:#e5e5e5;color:#e5e5e5;}#g8d49821f-8fbf-4b3b-96af-c7d7ae0261af-dark .node rect,#g8d49821f-8fbf-4b3b-96af-c7d7ae0261af-dark .node circle,#g8d49821f-8fbf-4b3b-96af-c7d7ae0261af-dark .node ellipse,#g8d49821f-8fbf-4b3b-96af-c7d7ae0261af-dark .node polygon,#g8d49821f-8fbf-4b3b-96af-c7d7ae0261af-dark .node path{fill:#2d2d2d;stroke:#555555;stroke-width:1px;}#g8d49821f-8fbf-4b3b-96af-c7d7ae0261af-dark .rough-node .label text,#g8d49821f-8fbf-4b3b-96af-c7d7ae0261af-dark .node .label text,#g8d49821f-8fbf-4b3b-96af-c7d7ae0261af-dark .image-shape .label,#g8d49821f-8fbf-4b3b-96af-c7d7ae0261af-dark .icon-shape .label{text-anchor:middle;}#g8d49821f-8fbf-4b3b-96af-c7d7ae0261af-dark .node .katex path{fill:#000;stroke:#000;stroke-width:1px;}#g8d49821f-8fbf-4b3b-96af-c7d7ae0261af-dark .rough-node .label,#g8d49821f-8fbf-4b3b-96af-c7d7ae0261af-dark .node .label,#g8d49821f-8fbf-4b3b-96af-c7d7ae0261af-dark .image-shape .label,#g8d49821f-8fbf-4b3b-96af-c7d7ae0261af-dark .icon-shape .label{text-align:center;}#g8d49821f-8fbf-4b3b-96af-c7d7ae0261af-dark .node.clickable{cursor:pointer;}#g8d49821f-8fbf-4b3b-96af-c7d7ae0261af-dark .root .anchor path{fill:#cccccc!important;stroke-width:0;stroke:#cccccc;}#g8d49821f-8fbf-4b3b-96af-c7d7ae0261af-dark .arrowheadPath{fill:#cccccc;}#g8d49821f-8fbf-4b3b-96af-c7d7ae0261af-dark .edgePath .path{stroke:#cccccc;stroke-width:1px;}#g8d49821f-8fbf-4b3b-96af-c7d7ae0261af-dark .flowchart-link{stroke:#cccccc;fill:none;}#g8d49821f-8fbf-4b3b-96af-c7d7ae0261af-dark .edgeLabel{background-color:#1e1e1e;text-align:center;}#g8d49821f-8fbf-4b3b-96af-c7d7ae0261af-dark .edgeLabel p{background-color:#1e1e1e;}#g8d49821f-8fbf-4b3b-96af-c7d7ae0261af-dark .edgeLabel rect{opacity:0.5;background-color:#1e1e1e;fill:#1e1e1e;}#g8d49821f-8fbf-4b3b-96af-c7d7ae0261af-dark .labelBkg{background-color:rgba(30, 30, 30, 0.5);}#g8d49821f-8fbf-4b3b-96af-c7d7ae0261af-dark .cluster rect{fill:#1e1e1e;stroke:#555555;stroke-width:1px;}#g8d49821f-8fbf-4b3b-96af-c7d7ae0261af-dark .cluster text{fill:#e5e5e5;}#g8d49821f-8fbf-4b3b-96af-c7d7ae0261af-dark .cluster span{color:#e5e5e5;}#g8d49821f-8fbf-4b3b-96af-c7d7ae0261af-dark div.mermaidTooltip{position:absolute;text-align:center;max-width:200px;padding:2px;font-family:"trebuchet ms",verdana,arial,sans-serif;font-size:12px;background:#252525;border:1px solid #555555;border-radius:2px;pointer-events:none;z-index:100;}#g8d49821f-8fbf-4b3b-96af-c7d7ae0261af-dark .flowchartTitleText{text-anchor:middle;font-size:18px;fill:#e5e5e5;}#g8d49821f-8fbf-4b3b-96af-c7d7ae0261af-dark rect.text{fill:none;stroke-width:0;}#g8d49821f-8fbf-4b3b-96af-c7d7ae0261af-dark .icon-shape,#g8d49821f-8fbf-4b3b-96af-c7d7ae0261af-dark .image-shape{background-color:#1e1e1e;text-align:center;}#g8d49821f-8fbf-4b3b-96af-c7d7ae0261af-dark .icon-shape p,#g8d49821f-8fbf-4b3b-96af-c7d7ae0261af-dark .image-shape p{background-color:#1e1e1e;padding:2px;}#g8d49821f-8fbf-4b3b-96af-c7d7ae0261af-dark .icon-shape .label rect,#g8d49821f-8fbf-4b3b-96af-c7d7ae0261af-dark .image-shape .label rect{opacity:0.5;background-color:#1e1e1e;fill:#1e1e1e;}#g8d49821f-8fbf-4b3b-96af-c7d7ae0261af-dark .label-icon{display:inline-block;height:1em;overflow:visible;vertical-align:-0.125em;}#g8d49821f-8fbf-4b3b-96af-c7d7ae0261af-dark .node .label-icon path{fill:currentColor;stroke:revert;stroke-width:revert;}#g8d49821f-8fbf-4b3b-96af-c7d7ae0261af-dark .node .neo-node{stroke:#555555;}#g8d49821f-8fbf-4b3b-96af-c7d7ae0261af-dark [data-look="neo"].node rect,#g8d49821f-8fbf-4b3b-96af-c7d7ae0261af-dark [data-look="neo"].cluster rect,#g8d49821f-8fbf-4b3b-96af-c7d7ae0261af-dark [data-look="neo"].node polygon{stroke:url(#g8d49821f-8fbf-4b3b-96af-c7d7ae0261af-dark-gradient);filter:drop-shadow( 1px 2px 2px rgba(185,185,185,1));}#g8d49821f-8fbf-4b3b-96af-c7d7ae0261af-dark [data-look="neo"].node path{stroke:url(#g8d49821f-8fbf-4b3b-96af-c7d7ae0261af-dark-gradient);stroke-width:1px;}#g8d49821f-8fbf-4b3b-96af-c7d7ae0261af-dark [data-look="neo"].node .outer-path{filter:drop-shadow( 1px 2px 2px rgba(185,185,185,1));}#g8d49821f-8fbf-4b3b-96af-c7d7ae0261af-dark [data-look="neo"].node .neo-line path{stroke:#555555;filter:none;}#g8d49821f-8fbf-4b3b-96af-c7d7ae0261af-dark [data-look="neo"].node circle{stroke:url(#g8d49821f-8fbf-4b3b-96af-c7d7ae0261af-dark-gradient);filter:drop-shadow( 1px 2px 2px rgba(185,185,185,1));}#g8d49821f-8fbf-4b3b-96af-c7d7ae0261af-dark [data-look="neo"].node circle .state-start{fill:#000000;}#g8d49821f-8fbf-4b3b-96af-c7d7ae0261af-dark [data-look="neo"].icon-shape .icon{fill:url(#g8d49821f-8fbf-4b3b-96af-c7d7ae0261af-dark-gradient);filter:drop-shadow( 1px 2px 2px rgba(185,185,185,1));}#g8d49821f-8fbf-4b3b-96af-c7d7ae0261af-dark [data-look="neo"].icon-shape .icon-neo path{stroke:url(#g8d49821f-8fbf-4b3b-96af-c7d7ae0261af-dark-gradient);filter:drop-shadow( 1px 2px 2px rgba(185,185,185,1));}#g8d49821f-8fbf-4b3b-96af-c7d7ae0261af-dark :root{--mermaid-font-family:"trebuchet ms",verdana,arial,sans-serif;}#g8d49821f-8fbf-4b3b-96af-c7d7ae0261af-dark .question rect{fill:#5A5A5A!important;stroke:#3D3D3D!important;color:#ffffff!important;}#g8d49821f-8fbf-4b3b-96af-c7d7ae0261af-dark .question polygon{fill:#5A5A5A!important;stroke:#3D3D3D!important;color:#ffffff!important;}#g8d49821f-8fbf-4b3b-96af-c7d7ae0261af-dark .question ellipse{fill:#5A5A5A!important;stroke:#3D3D3D!important;color:#ffffff!important;}#g8d49821f-8fbf-4b3b-96af-c7d7ae0261af-dark .question circle{fill:#5A5A5A!important;stroke:#3D3D3D!important;color:#ffffff!important;}#g8d49821f-8fbf-4b3b-96af-c7d7ae0261af-dark .question path{fill:#5A5A5A!important;stroke:#3D3D3D!important;color:#ffffff!important;}#g8d49821f-8fbf-4b3b-96af-c7d7ae0261af-dark .question tspan{fill:#ffffff!important;}#g8d49821f-8fbf-4b3b-96af-c7d7ae0261af-dark .result rect{fill:#2D7A2D!important;stroke:#1E5A1E!important;color:#ffffff!important;}#g8d49821f-8fbf-4b3b-96af-c7d7ae0261af-dark .result polygon{fill:#2D7A2D!important;stroke:#1E5A1E!important;color:#ffffff!important;}#g8d49821f-8fbf-4b3b-96af-c7d7ae0261af-dark .result ellipse{fill:#2D7A2D!important;stroke:#1E5A1E!important;color:#ffffff!important;}#g8d49821f-8fbf-4b3b-96af-c7d7ae0261af-dark .result circle{fill:#2D7A2D!important;stroke:#1E5A1E!important;color:#ffffff!important;}#g8d49821f-8fbf-4b3b-96af-c7d7ae0261af-dark .result path{fill:#2D7A2D!important;stroke:#1E5A1E!important;color:#ffffff!important;}#g8d49821f-8fbf-4b3b-96af-c7d7ae0261af-dark .result tspan{fill:#ffffff!important;}#g8d49821f-8fbf-4b3b-96af-c7d7ae0261af-dark .start rect{fill:#2E5A88!important;stroke:#1F4870!important;color:#ffffff!important;}#g8d49821f-8fbf-4b3b-96af-c7d7ae0261af-dark .start polygon{fill:#2E5A88!important;stroke:#1F4870!important;color:#ffffff!important;}#g8d49821f-8fbf-4b3b-96af-c7d7ae0261af-dark .start ellipse{fill:#2E5A88!important;stroke:#1F4870!important;color:#ffffff!important;}#g8d49821f-8fbf-4b3b-96af-c7d7ae0261af-dark .start circle{fill:#2E5A88!important;stroke:#1F4870!important;color:#ffffff!important;}#g8d49821f-8fbf-4b3b-96af-c7d7ae0261af-dark .start path{fill:#2E5A88!important;stroke:#1F4870!important;color:#ffffff!important;}#g8d49821f-8fbf-4b3b-96af-c7d7ae0261af-dark .start tspan{fill:#ffffff!important;}</style><g><marker id="g8d49821f-8fbf-4b3b-96af-c7d7ae0261af-dark_flowchart-v2-pointEnd" class="marker flowchart-v2" viewBox="0 0 10 10" refX="5" refY="5" markerUnits="userSpaceOnUse" markerWidth="8" markerHeight="8" orient="auto"><path d="M 0 0 L 10 5 L 0 10 z" class="arrowMarkerPath" style="stroke-width: 1; stroke-dasharray: 1, 0;"></path></marker><marker id="g8d49821f-8fbf-4b3b-96af-c7d7ae0261af-dark_flowchart-v2-pointStart" class="marker flowchart-v2" viewBox="0 0 10 10" refX="4.5" refY="5" markerUnits="userSpaceOnUse" markerWidth="8" markerHeight="8" orient="auto"><path d="M 0 5 L 10 10 L 10 0 z" class="arrowMarkerPath" style="stroke-width: 1; stroke-dasharray: 1, 0;"></path></marker><marker id="g8d49821f-8fbf-4b3b-96af-c7d7ae0261af-dark_flowchart-v2-pointEnd-margin" class="marker flowchart-v2" viewBox="0 0 11.5 14" refX="11.5" refY="7" markerUnits="userSpaceOnUse" markerWidth="10.5" markerHeight="14" orient="auto"><path d="M 0 0 L 11.5 7 L 0 14 z" class="arrowMarkerPath" style="stroke-width: 0; stroke-dasharray: 1, 0;"></path></marker><marker id="g8d49821f-8fbf-4b3b-96af-c7d7ae0261af-dark_flowchart-v2-pointStart-margin" class="marker flowchart-v2" viewBox="0 0 11.5 14" refX="1" refY="7" markerUnits="userSpaceOnUse" markerWidth="11.5" markerHeight="14" orient="auto"><polygon points="0,7 11.5,14 11.5,0" class="arrowMarkerPath" style="stroke-width: 0; stroke-dasharray: 1, 0;"></polygon></marker><marker id="g8d49821f-8fbf-4b3b-96af-c7d7ae0261af-dark_flowchart-v2-circleEnd" class="marker flowchart-v2" viewBox="0 0 10 10" refX="11" refY="5" markerUnits="userSpaceOnUse" markerWidth="11" markerHeight="11" orient="auto"><circle cx="5" cy="5" r="5" class="arrowMarkerPath" style="stroke-width: 1; stroke-dasharray: 1, 0;"></circle></marker><marker id="g8d49821f-8fbf-4b3b-96af-c7d7ae0261af-dark_flowchart-v2-circleStart" class="marker flowchart-v2" viewBox="0 0 10 10" refX="-1" refY="5" markerUnits="userSpaceOnUse" markerWidth="11" markerHeight="11" orient="auto"><circle cx="5" cy="5" r="5" class="arrowMarkerPath" style="stroke-width: 1; stroke-dasharray: 1, 0;"></circle></marker><marker id="g8d49821f-8fbf-4b3b-96af-c7d7ae0261af-dark_flowchart-v2-circleEnd-margin" class="marker flowchart-v2" viewBox="0 0 10 10" refY="5" refX="12.25" markerUnits="userSpaceOnUse" markerWidth="14" markerHeight="14" orient="auto"><circle cx="5" cy="5" r="5" class="arrowMarkerPath" style="stroke-width: 0; stroke-dasharray: 1, 0;"></circle></marker><marker id="g8d49821f-8fbf-4b3b-96af-c7d7ae0261af-dark_flowchart-v2-circleStart-margin" class="marker flowchart-v2" viewBox="0 0 10 10" refX="-2" refY="5" markerUnits="userSpaceOnUse" markerWidth="14" markerHeight="14" orient="auto"><circle cx="5" cy="5" r="5" class="arrowMarkerPath" style="stroke-width: 0; stroke-dasharray: 1, 0;"></circle></marker><marker id="g8d49821f-8fbf-4b3b-96af-c7d7ae0261af-dark_flowchart-v2-crossEnd" class="marker cross flowchart-v2" viewBox="0 0 11 11" refX="12" refY="5.2" markerUnits="userSpaceOnUse" markerWidth="11" markerHeight="11" orient="auto"><path d="M 1,1 l 9,9 M 10,1 l -9,9" class="arrowMarkerPath" style="stroke-width: 2; stroke-dasharray: 1, 0;"></path></marker><marker id="g8d49821f-8fbf-4b3b-96af-c7d7ae0261af-dark_flowchart-v2-crossStart" class="marker cross flowchart-v2" viewBox="0 0 11 11" refX="-1" refY="5.2" markerUnits="userSpaceOnUse" markerWidth="11" markerHeight="11" orient="auto"><path d="M 1,1 l 9,9 M 10,1 l -9,9" class="arrowMarkerPath" style="stroke-width: 2; stroke-dasharray: 1, 0;"></path></marker><marker id="g8d49821f-8fbf-4b3b-96af-c7d7ae0261af-dark_flowchart-v2-crossEnd-margin" class="marker cross flowchart-v2" viewBox="0 0 15 15" refX="17.7" refY="7.5" markerUnits="userSpaceOnUse" markerWidth="12" markerHeight="12" orient="auto"><path d="M 1,1 L 14,14 M 1,14 L 14,1" class="arrowMarkerPath" style="stroke-width: 2.5;"></path></marker><marker id="g8d49821f-8fbf-4b3b-96af-c7d7ae0261af-dark_flowchart-v2-crossStart-margin" class="marker cross flowchart-v2" viewBox="0 0 15 15" refX="-3.5" refY="7.5" markerUnits="userSpaceOnUse" markerWidth="12" markerHeight="12" orient="auto"><path d="M 1,1 L 14,14 M 1,14 L 14,1" class="arrowMarkerPath" style="stroke-width: 2.5; stroke-dasharray: 1, 0;"></path></marker><g class="root"><g class="clusters"></g><g class="edgePaths"><path d="M226.935,60.1L226.852,64.183C226.768,68.267,226.602,76.433,226.518,84.017C226.435,91.6,226.435,98.6,226.435,102.1L226.435,105.6" id="g8d49821f-8fbf-4b3b-96af-c7d7ae0261af-dark-L_Start_Origin_0" class="edge-thickness-normal edge-pattern-solid edge-thickness-normal edge-pattern-solid flowchart-link" style=";" data-edge="true" data-et="edge" data-id="L_Start_Origin_0" data-points="W3sieCI6MjI2LjkzNTE1Mzk2MTE4MTY0LCJ5Ijo2MC4wOTk5OTg0NzQxMjEwN30seyJ4IjoyMjYuNDM1MTUzOTYxMTgxNjQsInkiOjg0LjU5OTk5ODQ3NDEyMTF9LHsieCI6MjI2LjQzNTE1Mzk2MTE4MTY3LCJ5IjoxMDkuNTk5OTk4NDc0MTIxMDd9XQ==" data-look="classic" marker-end="url(#g8d49821f-8fbf-4b3b-96af-c7d7ae0261af-dark_flowchart-v2-pointEnd)"></path><path d="M177.413,288.747L166.674,303.001C155.934,317.254,134.456,345.761,123.716,371.872C112.977,397.982,112.977,421.696,112.977,433.553L112.977,445.409" id="g8d49821f-8fbf-4b3b-96af-c7d7ae0261af-dark-L_Origin_OriginWin_0" class="edge-thickness-normal edge-pattern-solid edge-thickness-normal edge-pattern-solid flowchart-link" style=";" data-edge="true" data-et="edge" data-id="L_Origin_OriginWin_0" data-points="W3sieCI6MTc3LjQxMzM4ODQxMTQ4NTAyLCJ5IjoyODguNzQ2OTc5ODcyNjY2N30seyJ4IjoxMTIuOTc2NTYyNSwieSI6Mzc0LjI2ODc0NTQyMjM2MzN9LHsieCI6MTEyLjk3NjU2MjUsInkiOjQ0OS40MDkzNjY2MDc2NjZ9XQ==" data-look="classic" marker-end="url(#g8d49821f-8fbf-4b3b-96af-c7d7ae0261af-dark_flowchart-v2-pointEnd)"></path><path d="M275.457,288.747L286.196,303.001C296.936,317.254,318.415,345.761,329.154,365.432C339.894,385.102,339.894,395.935,339.894,401.352L339.894,406.769" id="g8d49821f-8fbf-4b3b-96af-c7d7ae0261af-dark-L_Origin_Important_0" class="edge-thickness-normal edge-pattern-solid edge-thickness-normal edge-pattern-solid flowchart-link" style=";" data-edge="true" data-et="edge" data-id="L_Origin_Important_0" data-points="W3sieCI6Mjc1LjQ1NjkxOTUxMDg3ODI3LCJ5IjoyODguNzQ2OTc5ODcyNjY2N30seyJ4IjozMzkuODkzNzQ1NDIyMzYzMywieSI6Mzc0LjI2ODc0NTQyMjM2MzN9LHsieCI6MzM5Ljg5Mzc0NTQyMjM2MzMsInkiOjQxMC43Njg3NDU0MjIzNjMyfV0=" data-look="classic" marker-end="url(#g8d49821f-8fbf-4b3b-96af-c7d7ae0261af-dark_flowchart-v2-pointEnd)"></path><path d="M303.833,518.589L291.678,530.682C279.523,542.776,255.213,566.963,243.059,589.887C230.904,612.811,230.904,634.473,230.904,645.304L230.904,656.134" id="g8d49821f-8fbf-4b3b-96af-c7d7ae0261af-dark-L_Important_ImportantOrder_0" class="edge-thickness-normal edge-pattern-solid edge-thickness-normal edge-pattern-solid flowchart-link" style=";" data-edge="true" data-et="edge" data-id="L_Important_ImportantOrder_0" data-points="W3sieCI6MzAzLjgzMjU3NDk1MjUwOTA1LCJ5Ijo1MTguNTg4ODE1Nzk3MjM1Nn0seyJ4IjoyMzAuOTAzOTAwMTQ2NDg0MzgsInkiOjU5MS4xNDk5ODYyNjcwODk4fSx7IngiOjIzMC45MDM5MDAxNDY0ODQzOCwieSI6NjYwLjEzNDM2NTA4MTc4NzF9XQ==" data-look="classic" marker-end="url(#g8d49821f-8fbf-4b3b-96af-c7d7ae0261af-dark_flowchart-v2-pointEnd)"></path><path d="M375.955,518.589L388.11,530.682C400.264,542.776,424.574,566.963,436.729,584.473C448.884,601.983,448.884,612.817,448.884,618.233L448.884,623.65" id="g8d49821f-8fbf-4b3b-96af-c7d7ae0261af-dark-L_Important_Layer_0" class="edge-thickness-normal edge-pattern-solid edge-thickness-normal edge-pattern-solid flowchart-link" style=";" data-edge="true" data-et="edge" data-id="L_Important_Layer_0" data-points="W3sieCI6Mzc1Ljk1NDkxNTg5MjIxNzU3LCJ5Ijo1MTguNTg4ODE1Nzk3MjM1Nn0seyJ4Ijo0NDguODgzNTkwNjk4MjQyMiwieSI6NTkxLjE0OTk4NjI2NzA4OTh9LHsieCI6NDQ4Ljg4MzU5MDY5ODI0MjEzLCJ5Ijo2MjcuNjQ5OTg2MjY3MDg5OH1d" data-look="classic" marker-end="url(#g8d49821f-8fbf-4b3b-96af-c7d7ae0261af-dark_flowchart-v2-pointEnd)"></path><path d="M413.04,723.376L398.606,735.433C384.172,747.49,355.305,771.604,340.871,795.718C326.437,819.831,326.437,843.943,326.437,855.999L326.437,868.055" id="g8d49821f-8fbf-4b3b-96af-c7d7ae0261af-dark-L_Layer_LayerOrder_0" class="edge-thickness-normal edge-pattern-solid edge-thickness-normal edge-pattern-solid flowchart-link" style=";" data-edge="true" data-et="edge" data-id="L_Layer_LayerOrder_0" data-points="W3sieCI6NDEzLjA0MDM3MTUwODM5NjIsInkiOjcyMy4zNzU1MjMxODA3NTk0fSx7IngiOjMyNi40MzY3MTQxNzIzNjMzLCJ5Ijo3OTUuNzE4NzQyMzcwNjA1NX0seyJ4IjozMjYuNDM2NzE0MTcyMzYzMywieSI6ODcyLjA1NDY4MzY4NTMwMjd9XQ==" data-look="classic" marker-end="url(#g8d49821f-8fbf-4b3b-96af-c7d7ae0261af-dark_flowchart-v2-pointEnd)"></path><path d="M484.727,723.376L499.161,735.433C513.595,747.49,542.463,771.604,556.897,789.078C571.33,806.552,571.33,817.385,571.33,822.802L571.33,828.219" id="g8d49821f-8fbf-4b3b-96af-c7d7ae0261af-dark-L_Layer_Specificity_0" class="edge-thickness-normal edge-pattern-solid edge-thickness-normal edge-pattern-solid flowchart-link" style=";" data-edge="true" data-et="edge" data-id="L_Layer_Specificity_0" data-points="W3sieCI6NDg0LjcyNjgwOTg4ODA4ODI3LCJ5Ijo3MjMuMzc1NTIzMTgwNzU5NH0seyJ4Ijo1NzEuMzMwNDY3MjI0MTIxMSwieSI6Nzk1LjcxODc0MjM3MDYwNTV9LHsieCI6NTcxLjMzMDQ2NzIyNDEyMTEsInkiOjgzMi4yMTg3NDIzNzA2MDU0fV0=" data-look="classic" marker-end="url(#g8d49821f-8fbf-4b3b-96af-c7d7ae0261af-dark_flowchart-v2-pointEnd)"></path><path d="M529.389,936.549L511.812,949.623C494.234,962.696,459.079,988.844,441.502,1007.334C423.924,1025.824,423.924,1036.657,423.924,1042.074L423.924,1047.491" id="g8d49821f-8fbf-4b3b-96af-c7d7ae0261af-dark-L_Specificity_SpecWin_0" class="edge-thickness-normal edge-pattern-solid edge-thickness-normal edge-pattern-solid flowchart-link" style=";" data-edge="true" data-et="edge" data-id="L_Specificity_SpecWin_0" data-points="W3sieCI6NTI5LjM4OTEyNDAwMDIwODcsInkiOjkzNi41NDkyODAyNTAyMDg1fSx7IngiOjQyMy45MjQyMTcyMjQxMjExLCJ5IjoxMDE0Ljk5MDYyMzQ3NDEyMTF9LHsieCI6NDIzLjkyNDIxNzIyNDEyMTEsInkiOjEwNTEuNDkwNjIzNDc0MTIxfV0=" data-look="classic" marker-end="url(#g8d49821f-8fbf-4b3b-96af-c7d7ae0261af-dark_flowchart-v2-pointEnd)"></path><path d="M613.272,936.549L630.849,949.623C648.427,962.696,683.582,988.844,701.159,1007.334C718.737,1025.824,718.737,1036.657,718.737,1042.074L718.737,1047.491" id="g8d49821f-8fbf-4b3b-96af-c7d7ae0261af-dark-L_Specificity_SourceOrder_0" class="edge-thickness-normal edge-pattern-solid edge-thickness-normal edge-pattern-solid flowchart-link" style=";" data-edge="true" data-et="edge" data-id="L_Specificity_SourceOrder_0" data-points="W3sieCI6NjEzLjI3MTgxMDQ0ODAzMzQsInkiOjkzNi41NDkyODAyNTAyMDk2fSx7IngiOjcxOC43MzY3MTcyMjQxMjExLCJ5IjoxMDE0Ljk5MDYyMzQ3NDEyMTF9LHsieCI6NzE4LjczNjcxNzIyNDEyMTEsInkiOjEwNTEuNDkwNjIzNDc0MTIxfV0=" data-look="classic" marker-end="url(#g8d49821f-8fbf-4b3b-96af-c7d7ae0261af-dark_flowchart-v2-pointEnd)"></path></g><g class="edgeLabels"><g class="edgeLabel"><g class="label" data-id="L_Start_Origin_0" transform="translate(0, 0)"><text y="-10.1" text-anchor="middle"><tspan class="text-outer-tspan row" x="0" y="-0.1em" dy="1.1em" text-anchor="middle"></tspan></text></g></g><g><rect class="background" style="stroke: none"></rect></g><g class="edgeLabel" transform="translate(112.9765625, 374.2687454223633)"><g class="label" data-id="L_Origin_OriginWin_0" transform="translate(0, -10.5)"><g><rect class="background" style="" x="-13.546875" y="-1" width="27.09375" height="23"></rect><text y="-10.1" text-anchor="middle" style=""><tspan class="text-outer-tspan row" x="0" y="-0.1em" dy="1.1em" text-anchor="middle"><tspan font-style="normal" class="text-inner-tspan" font-weight="normal">yes</tspan></tspan></text></g></g></g><g class="edgeLabel" transform="translate(339.8937454223633, 374.2687454223633)"><g class="label" data-id="L_Origin_Important_0" transform="translate(0, -10.5)"><g><rect class="background" style="" x="-10.6640625" y="-1" width="21.328125" height="23"></rect><text y="-10.1" text-anchor="middle" style=""><tspan class="text-outer-tspan row" x="0" y="-0.1em" dy="1.1em" text-anchor="middle"><tspan font-style="normal" class="text-inner-tspan" font-weight="normal">no</tspan></tspan></text></g></g></g><g class="edgeLabel" transform="translate(230.90390014648438, 591.1499862670898)"><g class="label" data-id="L_Important_ImportantOrder_0" transform="translate(0, -10.5)"><g><rect class="background" style="" x="-13.546875" y="-1" width="27.09375" height="23"></rect><text y="-10.1" text-anchor="middle" style=""><tspan class="text-outer-tspan row" x="0" y="-0.1em" dy="1.1em" text-anchor="middle"><tspan font-style="normal" class="text-inner-tspan" font-weight="normal">yes</tspan></tspan></text></g></g></g><g class="edgeLabel" transform="translate(448.8835906982422, 591.1499862670898)"><g class="label" data-id="L_Important_Layer_0" transform="translate(0, -10.5)"><g><rect class="background" style="" x="-10.6640625" y="-1" width="21.328125" height="23"></rect><text y="-10.1" text-anchor="middle" style=""><tspan class="text-outer-tspan row" x="0" y="-0.1em" dy="1.1em" text-anchor="middle"><tspan font-style="normal" class="text-inner-tspan" font-weight="normal">no</tspan></tspan></text></g></g></g><g class="edgeLabel" transform="translate(326.4367141723633, 795.7187423706055)"><g class="label" data-id="L_Layer_LayerOrder_0" transform="translate(0, -10.5)"><g><rect class="background" style="" x="-13.546875" y="-1" width="27.09375" height="23"></rect><text y="-10.1" text-anchor="middle" style=""><tspan class="text-outer-tspan row" x="0" y="-0.1em" dy="1.1em" text-anchor="middle"><tspan font-style="normal" class="text-inner-tspan" font-weight="normal">yes</tspan></tspan></text></g></g></g><g class="edgeLabel" transform="translate(571.3304672241211, 795.7187423706055)"><g class="label" data-id="L_Layer_Specificity_0" transform="translate(0, -10.5)"><g><rect class="background" style="" x="-10.6640625" y="-1" width="21.328125" height="23"></rect><text y="-10.1" text-anchor="middle" style=""><tspan class="text-outer-tspan row" x="0" y="-0.1em" dy="1.1em" text-anchor="middle"><tspan font-style="normal" class="text-inner-tspan" font-weight="normal">no</tspan></tspan></text></g></g></g><g class="edgeLabel" transform="translate(423.9242172241211, 1014.9906234741211)"><g class="label" data-id="L_Specificity_SpecWin_0" transform="translate(0, -10.5)"><g><rect class="background" style="" x="-13.546875" y="-1" width="27.09375" height="23"></rect><text y="-10.1" text-anchor="middle" style=""><tspan class="text-outer-tspan row" x="0" y="-0.1em" dy="1.1em" text-anchor="middle"><tspan font-style="normal" class="text-inner-tspan" font-weight="normal">yes</tspan></tspan></text></g></g></g><g class="edgeLabel" transform="translate(718.7367172241211, 1014.9906234741211)"><g class="label" data-id="L_Specificity_SourceOrder_0" transform="translate(0, -10.5)"><g><rect class="background" style="" x="-10.6640625" y="-1" width="21.328125" height="23"></rect><text y="-10.1" text-anchor="middle" style=""><tspan class="text-outer-tspan row" x="0" y="-0.1em" dy="1.1em" text-anchor="middle"><tspan font-style="normal" class="text-inner-tspan" font-weight="normal">no</tspan></tspan></text></g></g></g></g><g class="nodes"><g class="node default start" id="g8d49821f-8fbf-4b3b-96af-c7d7ae0261af-dark-flowchart-Start-0" data-look="classic" transform="translate(226.43515396118164, 33.79999923706055)"><g class="basic label-container outer-path"><path d="M-52.96250057220459 -25.799999237060547 C-15.876262482946828 -25.799999237060547, 21.209975606310934 -25.799999237060547, 52.96250057220459 -25.799999237060547 C52.96250057220459 -25.799999237060547, 52.96250057220459 -25.799999237060547, 52.96250057220459 -25.799999237060547 C53.416429912397106 -25.785442606640434, 53.870359252589616 -25.77088597622032, 54.615512198825286 -25.746990371586765 C55.10047486807811 -25.700206606136888, 55.58543753733093 -25.65342284068701, 56.26173124610231 -25.58818159996402 C56.77516428869066 -25.505173727371048, 57.288597331279014 -25.422165854778076, 57.89439304685753 -25.32422550149928 C58.235864557474834 -25.246286857510736, 58.57733606809214 -25.16834821352219, 59.506788643546784 -24.956206728419545 C59.9427682836229 -24.826810259748786, 60.37874792369901 -24.697413791078027, 61.092292356805515 -24.48563754880318 C61.53096721460398 -24.32420114606741, 61.96964207240246 -24.162764743331635, 62.64438901178644 -23.914451632345997 C63.07837472625619 -23.722339030279052, 63.512360440725956 -23.530226428212103, 64.15670071041056 -23.24499610449772 C64.61556544444656 -23.005606666668026, 65.07443017848257 -22.766217228838336, 65.6230130395184 -22.480021901620034 C66.0320839752245 -22.232040696427347, 66.44115491093058 -21.984059491234657, 67.03730060722664 -21.62267246679901 C67.41408980024246 -21.35984063669245, 67.79087899325829 -21.09700880658589, 68.39375180255584 -20.67647083276321 C68.9072291883041 -20.26698628183607, 69.42070657405236 -19.85750173090893, 69.6867926765865 -19.64530514498651 C70.0577909534415 -19.308374326023305, 70.4287892302965 -18.9714435070601, 70.91110984701088 -18.533412684464313 C71.3280635101233 -18.102873794768357, 71.74501717323572 -17.672334905072397, 72.06167233196044 -17.345362455817106 C72.37199174672305 -16.980843613562016, 72.68231116148567 -16.616324771306928, 73.13375222338968 -16.086036412270357 C73.45544016800906 -15.655003872855028, 73.77712811262845 -15.223971333439698, 74.12294411506427 -14.76060939466161 C74.32490959723879 -14.450336178715924, 74.52687507941332 -14.140062962770235, 75.02518320532036 -13.374527866909407 C75.30832415295353 -12.87178244325679, 75.59146510058669 -12.369037019604175, 75.8367620002064 -11.93348753532484 C76.0722533968179 -11.444484611552369, 76.30774479342939 -10.9554816877799, 76.55434554837109 -10.443409943732584 C76.73785945819625 -9.990127038464331, 76.92137336802142 -9.536844133196078, 77.17498514509381 -8.910418140577123 C77.31585429815301 -8.486142696014342, 77.45672345121221 -8.061867251451563, 77.6961304491449 -7.340811518003323 C77.80724056107927 -6.917100505770453, 77.91835067301363 -6.493389493537583, 78.11563996268467 -5.741039926302914 C78.18741117412144 -5.372509924426046, 78.2591823855582 -5.003979922549177, 78.43178983113748 -4.117677170096137 C78.47545307873347 -3.779033644025111, 78.51911632632945 -3.440390117954086, 78.64328092687991 -2.4773939951584394 C78.6813075246713 -1.8850990400402523, 78.7193341224627 -1.292804084922065, 78.74924418763487 -0.8269306768952902 C78.74924418763487 -0.39871127342109963, 78.74924418763487 0.029508130053090942, 78.74924418763487 0.826930676895284 C78.71763943358054 1.3192002321898517, 78.6860346795262 1.8114697874844192, 78.64328092687991 2.4773939951584216 C78.60094111095562 2.805773246524891, 78.55860129503132 3.1341524978913604, 78.43178983113748 4.117677170096119 C78.32248896704614 4.67891400645931, 78.2131881029548 5.240150842822502, 78.11563996268467 5.741039926302909 C78.00911462452022 6.147267209097529, 77.90258928635579 6.553494491892148, 77.6961304491449 7.340811518003306 C77.56445171094809 7.737406897294319, 77.4327729727513 8.134002276585331, 77.17498514509383 8.910418140577105 C77.03152730661397 9.264761775191001, 76.88806946813409 9.619105409804895, 76.55434554837109 10.443409943732577 C76.28438618938195 11.003986328878492, 76.0144268303928 11.564562714024404, 75.8367620002064 11.933487535324835 C75.56207117675199 12.421228907830228, 75.28738035329758 12.908970280335621, 75.02518320532037 13.374527866909402 C74.7300338458127 13.82795654181348, 74.43488448630502 14.28138521671756, 74.12294411506429 14.760609394661596 C73.86675834273773 15.103874990575205, 73.61057257041115 15.447140586488812, 73.13375222338968 16.086036412270353 C72.78746173006148 16.492808930220928, 72.44117123673328 16.899581448171507, 72.06167233196045 17.345362455817092 C71.66371648813879 17.75628453734536, 71.26576064431714 18.167206618873625, 70.91110984701088 18.533412684464306 C70.49406802315869 18.912159034564866, 70.0770261993065 19.290905384665425, 69.68679267658653 19.64530514498649 C69.33712817385374 19.92415328095269, 68.98746367112095 20.20300141691889, 68.39375180255584 20.676470832763208 C67.91092175503455 21.013272172538173, 67.42809170751327 21.350073512313134, 67.03730060722665 21.622672466799003 C66.58906570500231 21.89439509864807, 66.14083080277797 22.166117730497138, 65.62301303951841 22.48002190162003 C65.18716466035005 22.70740372185795, 64.7513162811817 22.93478554209587, 64.15670071041058 23.244996104497716 C63.652577584832905 23.468156457909757, 63.148454459255234 23.691316811321798, 62.64438901178645 23.914451632345994 C62.12586182293653 24.105274431055555, 61.607334634086605 24.296097229765117, 61.09229235680553 24.485637548803172 C60.51992477083667 24.655513243899964, 59.94755718486781 24.825388938996756, 59.50678864354681 24.95620672841954 C59.12235552270946 25.043951079590105, 58.73792240187211 25.131695430760672, 57.894393046857545 25.324225501499278 C57.375882010852266 25.40805434468747, 56.85737097484699 25.491883187875665, 56.26173124610233 25.588181599964017 C55.84840589243104 25.62805459973622, 55.43508053875974 25.667927599508424, 54.615512198825286 25.746990371586765 C54.01272420426436 25.76632060931668, 53.40993620970344 25.785650847046593, 52.9625005722046 25.799999237060547 C52.9625005722046 25.799999237060547, 52.96250057220459 25.799999237060547, 52.96250057220459 25.799999237060547 C31.69634604551412 25.799999237060547, 10.430191518823648 25.799999237060547, -52.96250057220458 25.799999237060547 C-53.5197134470834 25.78213050471225, -54.07692632196221 25.76426177236395, -54.61551219882527 25.746990371586765 C-54.976091472777384 25.71220572268863, -55.33667074672949 25.67742107379049, -56.261731246102315 25.588181599964017 C-56.75604940410516 25.508264073672684, -57.25036756210801 25.428346547381352, -57.89439304685753 25.324225501499278 C-58.282275744282806 25.23569380698311, -58.670158441708075 25.147162112466944, -59.506788643546784 24.956206728419545 C-60.09458004384782 24.78175332619022, -60.682371444148856 24.607299923960895, -61.0922923568055 24.485637548803183 C-61.64270027903236 24.283082345508642, -62.193108201259214 24.0805271422141, -62.644389011786444 23.914451632345997 C-63.224623036735984 23.657599241531642, -63.80485706168553 23.400746850717283, -64.15670071041056 23.244996104497723 C-64.66698884047315 22.978779113899215, -65.17727697053574 22.71256212330071, -65.6230130395184 22.480021901620038 C-66.12062571488754 22.178366173514593, -66.61823839025666 21.876710445409152, -67.03730060722663 21.622672466799017 C-67.38889704660026 21.377414011056516, -67.74049348597391 21.132155555314014, -68.39375180255584 20.67647083276321 C-68.8011078819768 20.35161519962552, -69.20846396139778 20.02675956648783, -69.6867926765865 19.645305144986512 C-70.056084836796 19.309923776019374, -70.4253769970055 18.974542407052237, -70.91110984701086 18.533412684464324 C-71.22397146387102 18.210357378639753, -71.5368330807312 17.887302072815185, -72.06167233196044 17.3453624558171 C-72.28684939756627 17.080856661618483, -72.5120264631721 16.81635086741987, -73.13375222338968 16.08603641227036 C-73.48738497728291 15.612200738660048, -73.84101773117617 15.138365065049737, -74.12294411506427 14.760609394661614 C-74.4367609395804 14.278502480588337, -74.7505777640965 13.796395566515057, -75.02518320532036 13.374527866909418 C-75.2142532608761 13.038814837851008, -75.40332331643185 12.7031018087926, -75.83676200020639 11.933487535324842 C-76.10220756798923 11.382284134198507, -76.36765313577206 10.83108073307217, -76.55434554837109 10.443409943732586 C-76.69471697213449 10.096689813140145, -76.83508839589787 9.749969682547704, -77.17498514509381 8.910418140577127 C-77.30540031009566 8.517628442426282, -77.43581547509751 8.124838744275438, -77.6961304491449 7.340811518003316 C-77.78279482093906 7.010322707775883, -77.8694591927332 6.679833897548449, -78.11563996268467 5.741039926302918 C-78.18964653951801 5.361031795559258, -78.26365311635135 4.9810236648155986, -78.43178983113748 4.117677170096139 C-78.51014329786308 3.5099831548144698, -78.58849676458867 2.9022891395328005, -78.64328092687991 2.477393995158454 C-78.67006481207666 2.060213363655958, -78.69684869727342 1.6430327321534617, -78.74924418763487 0.8269306768952934 C-78.74924418763487 0.25442140036838023, -78.74924418763487 -0.31808787615853296, -78.74924418763487 -0.8269306768952809 C-78.71334090518766 -1.3861532816184972, -78.67743762274046 -1.9453758863417134, -78.64328092687991 -2.4773939951584185 C-78.57070837122086 -3.04025240577801, -78.4981358155618 -3.603110816397602, -78.43178983113748 -4.117677170096128 C-78.34475736569664 -4.564570485816731, -78.25772490025581 -5.011463801537333, -78.11563996268467 -5.741039926302906 C-77.94941228675178 -6.374938098165455, -77.7831846108189 -7.008836270028002, -77.6961304491449 -7.340811518003303 C-77.52861895757074 -7.845329441292991, -77.36110746599657 -8.34984736458268, -77.17498514509383 -8.910418140577093 C-77.02863500319845 -9.271905820546197, -76.88228486130306 -9.6333935005153, -76.55434554837109 -10.443409943732574 C-76.38306322919831 -10.799081344349366, -76.21178091002554 -11.154752744966158, -75.8367620002064 -11.933487535324831 C-75.59934291024113 -12.355049170847975, -75.36192382027586 -12.776610806371119, -75.02518320532036 -13.374527866909409 C-74.71053817013579 -13.857907134975141, -74.39589313495122 -14.341286403040872, -74.12294411506429 -14.760609394661605 C-73.77433987600797 -15.22770731649756, -73.42573563695164 -15.694805238333513, -73.13375222338968 -16.086036412270353 C-72.80298010554331 -16.474580163359388, -72.47220798769695 -16.863123914448423, -72.06167233196045 -17.345362455817092 C-71.7478812827006 -17.66937747690215, -71.43409023344076 -17.993392497987205, -70.91110984701089 -18.5334126844643 C-70.45784543779769 -18.94505542819264, -70.0045810285845 -19.35669817192098, -69.68679267658653 -19.645305144986487 C-69.39379916175427 -19.87895967618034, -69.10080564692201 -20.112614207374193, -68.39375180255585 -20.676470832763204 C-67.99374626150852 -20.955497382237038, -67.59374072046117 -21.23452393171087, -67.03730060722665 -21.622672466799 C-66.58633682028328 -21.896049364601453, -66.13537303333989 -22.16942626240391, -65.62301303951841 -22.480021901620027 C-65.08842445823409 -22.75891642205573, -64.55383587694976 -23.037810942491436, -64.15670071041058 -23.244996104497716 C-63.68948426251226 -23.4518189664988, -63.22226781461394 -23.658641828499885, -62.64438901178645 -23.91445163234599 C-62.09084544119845 -24.118160783223054, -61.537301870610435 -24.321869934100114, -61.09229235680553 -24.485637548803172 C-60.62229035759925 -24.62513167507676, -60.152288358392966 -24.76462580135035, -59.50678864354682 -24.956206728419538 C-58.92208517785326 -25.089661478917396, -58.33738171215971 -25.223116229415258, -57.894393046857545 -25.324225501499278 C-57.30664070075347 -25.419248742729867, -56.718888354649394 -25.51427198396045, -56.26173124610233 -25.588181599964017 C-55.733626144311586 -25.63912726399446, -55.20552104252084 -25.690072928024904, -54.615512198825286 -25.746990371586765 C-54.10049015027172 -25.763506126254274, -53.585468101718156 -25.780021880921783, -52.9625005722046 -25.799999237060547 C-52.9625005722046 -25.799999237060547, -52.96250057220459 -25.799999237060547, -52.96250057220459 -25.799999237060547" stroke="none" stroke-width="0" fill="#2E5A88" style="fill:#2E5A88 !important;stroke:#1F4870 !important"></path><path d="M-52.96250057220459 -25.799999237060547 C-11.463188220780793 -25.799999237060547, 30.036124130643003 -25.799999237060547, 52.96250057220459 -25.799999237060547 M-52.96250057220459 -25.799999237060547 C-28.24342582186868 -25.799999237060547, -3.52435107153277 -25.799999237060547, 52.96250057220459 -25.799999237060547 M52.96250057220459 -25.799999237060547 C52.96250057220459 -25.799999237060547, 52.96250057220459 -25.799999237060547, 52.96250057220459 -25.799999237060547 M52.96250057220459 -25.799999237060547 C52.96250057220459 -25.799999237060547, 52.96250057220459 -25.799999237060547, 52.96250057220459 -25.799999237060547 M52.96250057220459 -25.799999237060547 C53.4530020192458 -25.784269810357085, 53.943503466287005 -25.76854038365362, 54.615512198825286 -25.746990371586765 M52.96250057220459 -25.799999237060547 C53.43591018421753 -25.784817912239202, 53.90931979623048 -25.769636587417857, 54.615512198825286 -25.746990371586765 M54.615512198825286 -25.746990371586765 C55.21863037435307 -25.688808286549328, 55.82174854988085 -25.630626201511895, 56.26173124610231 -25.58818159996402 M54.615512198825286 -25.746990371586765 C55.064832235427765 -25.70364500804213, 55.514152272030245 -25.660299644497496, 56.26173124610231 -25.58818159996402 M56.26173124610231 -25.58818159996402 C56.827133070465194 -25.496771817757665, 57.392534894828074 -25.405362035551306, 57.89439304685753 -25.32422550149928 M56.26173124610231 -25.58818159996402 C56.61135535866086 -25.531657084821042, 56.9609794712194 -25.475132569678063, 57.89439304685753 -25.32422550149928 M57.89439304685753 -25.32422550149928 C58.47924009501963 -25.19073797923994, 59.06408714318173 -25.057250456980597, 59.506788643546784 -24.956206728419545 M57.89439304685753 -25.32422550149928 C58.35093753506164 -25.2200222012979, 58.80748202326575 -25.115818901096524, 59.506788643546784 -24.956206728419545 M59.506788643546784 -24.956206728419545 C59.91421420138506 -24.83528496147354, 60.32163975922334 -24.714363194527536, 61.092292356805515 -24.48563754880318 M59.506788643546784 -24.956206728419545 C59.89314997081521 -24.841536714538268, 60.27951129808364 -24.72686670065699, 61.092292356805515 -24.48563754880318 M61.092292356805515 -24.48563754880318 C61.50939536949873 -24.33213978447409, 61.92649838219195 -24.178642020145006, 62.64438901178644 -23.914451632345997 M61.092292356805515 -24.48563754880318 C61.58470146830723 -24.304426443990618, 62.077110579808945 -24.123215339178056, 62.64438901178644 -23.914451632345997 M62.64438901178644 -23.914451632345997 C63.0335903763764 -23.742163733490298, 63.42279174096637 -23.569875834634598, 64.15670071041056 -23.24499610449772 M62.64438901178644 -23.914451632345997 C62.9587745343559 -23.77528248741967, 63.27316005692538 -23.636113342493342, 64.15670071041056 -23.24499610449772 M64.15670071041056 -23.24499610449772 C64.66490136343968 -22.97986814933048, 65.1731020164688 -22.71474019416324, 65.6230130395184 -22.480021901620034 M64.15670071041056 -23.24499610449772 C64.53680302604991 -23.046696969895827, 64.91690534168926 -22.848397835293934, 65.6230130395184 -22.480021901620034 M65.6230130395184 -22.480021901620034 C66.01792646323138 -22.240623063396352, 66.41283988694434 -22.001224225172667, 67.03730060722664 -21.62267246679901 M65.6230130395184 -22.480021901620034 C65.91976900886104 -22.30012668907288, 66.21652497820368 -22.12023147652572, 67.03730060722664 -21.62267246679901 M67.03730060722664 -21.62267246679901 C67.39585018102238 -21.37256380547999, 67.75439975481812 -21.122455144160977, 68.39375180255584 -20.67647083276321 M67.03730060722664 -21.62267246679901 C67.51256621493873 -21.291147752775622, 67.98783182265082 -20.959623038752234, 68.39375180255584 -20.67647083276321 M68.39375180255584 -20.67647083276321 C68.66563464121325 -20.45965150404012, 68.93751747987065 -20.24283217531703, 69.6867926765865 -19.64530514498651 M68.39375180255584 -20.67647083276321 C68.81099346261922 -20.343731712129543, 69.2282351226826 -20.010992591495878, 69.6867926765865 -19.64530514498651 M69.6867926765865 -19.64530514498651 C70.1033473815519 -19.267001183370482, 70.51990208651728 -18.88869722175446, 70.91110984701088 -18.533412684464313 M69.6867926765865 -19.64530514498651 C70.07924746214941 -19.288888092522896, 70.4717022477123 -18.932471040059287, 70.91110984701088 -18.533412684464313 M70.91110984701088 -18.533412684464313 C71.18436183974161 -18.251257567564007, 71.45761383247233 -17.969102450663705, 72.06167233196044 -17.345362455817106 M70.91110984701088 -18.533412684464313 C71.1485655894552 -18.288220134911526, 71.38602133189953 -18.043027585358736, 72.06167233196044 -17.345362455817106 M72.06167233196044 -17.345362455817106 C72.40283572367868 -16.944612523157932, 72.74399911539692 -16.54386259049876, 73.13375222338968 -16.086036412270357 M72.06167233196044 -17.345362455817106 C72.36584786661967 -16.988060564728137, 72.6700234012789 -16.630758673639164, 73.13375222338968 -16.086036412270357 M73.13375222338968 -16.086036412270357 C73.51166029196825 -15.579674028508363, 73.88956836054683 -15.073311644746367, 74.12294411506427 -14.76060939466161 M73.13375222338968 -16.086036412270357 C73.33832324403855 -15.811929881404248, 73.5428942646874 -15.537823350538142, 74.12294411506427 -14.76060939466161 M74.12294411506427 -14.76060939466161 C74.44485649544639 -14.266065532817027, 74.7667688758285 -13.771521670972444, 75.02518320532036 -13.374527866909407 M74.12294411506427 -14.76060939466161 C74.33716271209892 -14.43151210386872, 74.55138130913357 -14.102414813075828, 75.02518320532036 -13.374527866909407 M75.02518320532036 -13.374527866909407 C75.30276544049414 -12.881652500109094, 75.58034767566792 -12.388777133308784, 75.8367620002064 -11.93348753532484 M75.02518320532036 -13.374527866909407 C75.27505394004316 -12.930857075253519, 75.52492467476596 -12.48718628359763, 75.8367620002064 -11.93348753532484 M75.8367620002064 -11.93348753532484 C76.12102542466734 -11.343208452168803, 76.40528884912825 -10.752929369012765, 76.55434554837109 -10.443409943732584 M75.8367620002064 -11.93348753532484 C76.07420639014325 -11.440429179124928, 76.31165078008009 -10.947370822925018, 76.55434554837109 -10.443409943732584 M76.55434554837109 -10.443409943732584 C76.68153943709996 -10.129238579445738, 76.80873332582881 -9.815067215158892, 77.17498514509381 -8.910418140577123 M76.55434554837109 -10.443409943732584 C76.75914766714844 -9.937544750772929, 76.96394978592578 -9.431679557813272, 77.17498514509381 -8.910418140577123 M77.17498514509381 -8.910418140577123 C77.29576651568627 -8.546643896250682, 77.41654788627872 -8.182869651924241, 77.6961304491449 -7.340811518003323 M77.17498514509381 -8.910418140577123 C77.37081168177654 -8.320619812810229, 77.56663821845927 -7.730821485043335, 77.6961304491449 -7.340811518003323 M77.6961304491449 -7.340811518003323 C77.82096587576885 -6.864759932270092, 77.94580130239278 -6.38870834653686, 78.11563996268467 -5.741039926302914 M77.6961304491449 -7.340811518003323 C77.78206419063218 -7.0131089177931525, 77.86799793211948 -6.685406317582981, 78.11563996268467 -5.741039926302914 M78.11563996268467 -5.741039926302914 C78.23648585813245 -5.120521793967631, 78.35733175358023 -4.500003661632349, 78.43178983113748 -4.117677170096137 M78.11563996268467 -5.741039926302914 C78.21542844203077 -5.2286471751632675, 78.31521692137687 -4.716254424023621, 78.43178983113748 -4.117677170096137 M78.43178983113748 -4.117677170096137 C78.48748151998245 -3.6857434289824313, 78.54317320882741 -3.2538096878687264, 78.64328092687991 -2.4773939951584394 M78.43178983113748 -4.117677170096137 C78.5160634177106 -3.4640678743369566, 78.60033700428373 -2.8104585785777765, 78.64328092687991 -2.4773939951584394 M78.64328092687991 -2.4773939951584394 C78.66568355958549 -2.1284549076894494, 78.68808619229107 -1.7795158202204593, 78.74924418763487 -0.8269306768952902 M78.64328092687991 -2.4773939951584394 C78.67289558129653 -2.0161218481008207, 78.70251023571315 -1.5548497010432016, 78.74924418763487 -0.8269306768952902 M78.74924418763487 -0.8269306768952902 C78.74924418763487 -0.4906167484455546, 78.74924418763487 -0.15430281999581896, 78.74924418763487 0.826930676895284 M78.74924418763487 -0.8269306768952902 C78.74924418763487 -0.2516863787532041, 78.74924418763487 0.323557919388882, 78.74924418763487 0.826930676895284 M78.74924418763487 0.826930676895284 C78.72455382054876 1.2115030739670594, 78.69986345346265 1.596075471038835, 78.64328092687991 2.4773939951584216 M78.74924418763487 0.826930676895284 C78.72263719570246 1.2413560530199284, 78.69603020377005 1.6557814291445727, 78.64328092687991 2.4773939951584216 M78.64328092687991 2.4773939951584216 C78.59558707941683 2.84729805786658, 78.54789323195376 3.217202120574738, 78.43178983113748 4.117677170096119 M78.64328092687991 2.4773939951584216 C78.58257084654585 2.9482493896680233, 78.5218607662118 3.419104784177625, 78.43178983113748 4.117677170096119 M78.43178983113748 4.117677170096119 C78.35260008770163 4.524299765880954, 78.2734103442658 4.93092236166579, 78.11563996268467 5.741039926302909 M78.43178983113748 4.117677170096119 C78.36810357343377 4.444692643309287, 78.30441731573008 4.771708116522454, 78.11563996268467 5.741039926302909 M78.11563996268467 5.741039926302909 C78.02137480898556 6.100513812133671, 77.92710965528644 6.459987697964433, 77.6961304491449 7.340811518003306 M78.11563996268467 5.741039926302909 C77.95348925869058 6.359390837191999, 77.79133855469651 6.9777417480810895, 77.6961304491449 7.340811518003306 M77.6961304491449 7.340811518003306 C77.58523076074465 7.674823709999069, 77.47433107234441 8.008835901994832, 77.17498514509383 8.910418140577105 M77.6961304491449 7.340811518003306 C77.59104209381354 7.657320900705755, 77.4859537384822 7.973830283408205, 77.17498514509383 8.910418140577105 M77.17498514509383 8.910418140577105 C76.95858948514405 9.44491960437853, 76.74219382519428 9.979421068179953, 76.55434554837109 10.443409943732577 M77.17498514509383 8.910418140577105 C76.99690366285316 9.350282844682818, 76.81882218061247 9.790147548788529, 76.55434554837109 10.443409943732577 M76.55434554837109 10.443409943732577 C76.40699357100533 10.749389477559813, 76.25964159363957 11.055369011387048, 75.8367620002064 11.933487535324835 M76.55434554837109 10.443409943732577 C76.2988392140452 10.973974313920055, 76.0433328797193 11.504538684107533, 75.8367620002064 11.933487535324835 M75.8367620002064 11.933487535324835 C75.58741840447865 12.3762223383164, 75.33807480875092 12.818957141307965, 75.02518320532037 13.374527866909402 M75.8367620002064 11.933487535324835 C75.55760174650068 12.429164833820309, 75.27844149279497 12.924842132315785, 75.02518320532037 13.374527866909402 M75.02518320532037 13.374527866909402 C74.75726405611998 13.786123626446205, 74.48934490691958 14.19771938598301, 74.12294411506429 14.760609394661596 M75.02518320532037 13.374527866909402 C74.66897045400003 13.921766309454354, 74.31275770267969 14.469004751999305, 74.12294411506429 14.760609394661596 M74.12294411506429 14.760609394661596 C73.87744183246785 15.08956008762276, 73.63193954987143 15.41851078058392, 73.13375222338968 16.086036412270353 M74.12294411506429 14.760609394661596 C73.86408656721545 15.107454926371284, 73.60522901936662 15.454300458080974, 73.13375222338968 16.086036412270353 M73.13375222338968 16.086036412270353 C72.79102950808236 16.488618015145278, 72.44830679277506 16.891199618020202, 72.06167233196045 17.345362455817092 M73.13375222338968 16.086036412270353 C72.91549322789886 16.342415847662526, 72.69723423240806 16.5987952830547, 72.06167233196045 17.345362455817092 M72.06167233196045 17.345362455817092 C71.82660137904332 17.58809251438819, 71.59153042612618 17.83082257295929, 70.91110984701088 18.533412684464306 M72.06167233196045 17.345362455817092 C71.60774282859094 17.814081936351432, 71.15381332522144 18.28280141688577, 70.91110984701088 18.533412684464306 M70.91110984701088 18.533412684464306 C70.56758223795647 18.845395369765054, 70.22405462890208 19.157378055065806, 69.68679267658653 19.64530514498649 M70.91110984701088 18.533412684464306 C70.59575542669215 18.819809225177043, 70.28040100637342 19.106205765889776, 69.68679267658653 19.64530514498649 M69.68679267658653 19.64530514498649 C69.31889619436788 19.938692799419314, 68.95099971214923 20.232080453852138, 68.39375180255584 20.676470832763208 M69.68679267658653 19.64530514498649 C69.27514943208581 19.97357967818903, 68.86350618758509 20.301854211391568, 68.39375180255584 20.676470832763208 M68.39375180255584 20.676470832763208 C68.09414549848788 20.885463220733147, 67.79453919441993 21.09445560870309, 67.03730060722665 21.622672466799003 M68.39375180255584 20.676470832763208 C68.10650694937786 20.87684040771088, 67.81926209619989 21.077209982658555, 67.03730060722665 21.622672466799003 M67.03730060722665 21.622672466799003 C66.51378567888126 21.94003029287719, 65.99027075053587 22.257388118955376, 65.62301303951841 22.48002190162003 M67.03730060722665 21.622672466799003 C66.50487900270826 21.945429572314698, 65.97245739818989 22.26818667783039, 65.62301303951841 22.48002190162003 M65.62301303951841 22.48002190162003 C65.21000455751133 22.695488162138567, 64.79699607550425 22.910954422657102, 64.15670071041058 23.244996104497716 M65.62301303951841 22.48002190162003 C65.21545184190822 22.692646317357863, 64.80789064429803 22.905270733095694, 64.15670071041058 23.244996104497716 M64.15670071041058 23.244996104497716 C63.83707231386633 23.386486114208346, 63.51744391732208 23.527976123918975, 62.64438901178645 23.914451632345994 M64.15670071041058 23.244996104497716 C63.600795065640376 23.491079043082433, 63.04488942087018 23.737161981667153, 62.64438901178645 23.914451632345994 M62.64438901178645 23.914451632345994 C62.05869341972009 24.129993024337118, 61.47299782765373 24.34553441632824, 61.09229235680553 24.485637548803172 M62.64438901178645 23.914451632345994 C62.09642442398116 24.11610766598746, 61.54845983617588 24.31776369962893, 61.09229235680553 24.485637548803172 M61.09229235680553 24.485637548803172 C60.76395372135089 24.583086732321444, 60.435615085896245 24.680535915839712, 59.50678864354681 24.95620672841954 M61.09229235680553 24.485637548803172 C60.76145905767217 24.58382713540653, 60.43062575853882 24.682016722009887, 59.50678864354681 24.95620672841954 M59.50678864354681 24.95620672841954 C58.926863220610656 25.08857092183767, 58.3469377976745 25.22093511525579, 57.894393046857545 25.324225501499278 M59.50678864354681 24.95620672841954 C59.0637565836231 25.057325905042752, 58.6207245236994 25.158445081665963, 57.894393046857545 25.324225501499278 M57.894393046857545 25.324225501499278 C57.45504085723884 25.395256556289713, 57.01568866762013 25.466287611080148, 56.26173124610233 25.588181599964017 M57.894393046857545 25.324225501499278 C57.468733464549715 25.393042841727446, 57.043073882241885 25.461860181955615, 56.26173124610233 25.588181599964017 M56.26173124610233 25.588181599964017 C55.719889413292066 25.64045242991508, 55.1780475804818 25.69272325986614, 54.615512198825286 25.746990371586765 M56.26173124610233 25.588181599964017 C55.8038222797556 25.632355527231383, 55.34591331340887 25.676529454498745, 54.615512198825286 25.746990371586765 M54.615512198825286 25.746990371586765 C54.178261497243525 25.76101215052963, 53.741010795661765 25.7750339294725, 52.9625005722046 25.799999237060547 M54.615512198825286 25.746990371586765 C54.215859831424794 25.759806445133158, 53.816207464024295 25.772622518679547, 52.9625005722046 25.799999237060547 M52.9625005722046 25.799999237060547 C52.9625005722046 25.799999237060547, 52.96250057220459 25.799999237060547, 52.96250057220459 25.799999237060547 M52.9625005722046 25.799999237060547 C52.9625005722046 25.799999237060547, 52.96250057220459 25.799999237060547, 52.96250057220459 25.799999237060547 M52.96250057220459 25.799999237060547 C19.01480235991591 25.799999237060547, -14.932895852372766 25.799999237060547, -52.96250057220458 25.799999237060547 M52.96250057220459 25.799999237060547 C28.8713628845547 25.799999237060547, 4.780225196904809 25.799999237060547, -52.96250057220458 25.799999237060547 M-52.96250057220458 25.799999237060547 C-53.45957925729946 25.78405889113452, -53.95665794239434 25.76811854520849, -54.61551219882527 25.746990371586765 M-52.96250057220458 25.799999237060547 C-53.58134760926177 25.78015401709481, -54.200194646318955 25.760308797129067, -54.61551219882527 25.746990371586765 M-54.61551219882527 25.746990371586765 C-55.07783146214744 25.702390988274338, -55.5401507254696 25.65779160496191, -56.261731246102315 25.588181599964017 M-54.61551219882527 25.746990371586765 C-55.12217995657401 25.698112742353874, -55.62884771432274 25.649235113120984, -56.261731246102315 25.588181599964017 M-56.261731246102315 25.588181599964017 C-56.890309441933674 25.486557951958716, -57.51888763776503 25.384934303953415, -57.89439304685753 25.324225501499278 M-56.261731246102315 25.588181599964017 C-56.82668629862365 25.496844048364235, -57.39164135114498 25.405506496764453, -57.89439304685753 25.324225501499278 M-57.89439304685753 25.324225501499278 C-58.45953875058936 25.19523468254286, -59.02468445432119 25.06624386358644, -59.506788643546784 24.956206728419545 M-57.89439304685753 25.324225501499278 C-58.274835817437015 25.237391921735604, -58.65527858801649 25.150558341971927, -59.506788643546784 24.956206728419545 M-59.506788643546784 24.956206728419545 C-60.14036727584433 24.76816391607574, -60.77394590814189 24.580121103731933, -61.0922923568055 24.485637548803183 M-59.506788643546784 24.956206728419545 C-59.90608662231036 24.837697184280376, -60.30538460107394 24.71918764014121, -61.0922923568055 24.485637548803183 M-61.0922923568055 24.485637548803183 C-61.43340613955124 24.36010452353151, -61.774519922296975 24.234571498259836, -62.644389011786444 23.914451632345997 M-61.0922923568055 24.485637548803183 C-61.656064963280095 24.278164018163686, -62.21983756975469 24.070690487524192, -62.644389011786444 23.914451632345997 M-62.644389011786444 23.914451632345997 C-63.048468141664785 23.73557778813036, -63.452547271543125 23.556703943914723, -64.15670071041056 23.244996104497723 M-62.644389011786444 23.914451632345997 C-63.160251057017035 23.68609480742629, -63.67611310224762 23.457737982506583, -64.15670071041056 23.244996104497723 M-64.15670071041056 23.244996104497723 C-64.53886570284396 23.045620872733576, -64.92103069527738 22.84624564096943, -65.6230130395184 22.480021901620038 M-64.15670071041056 23.244996104497723 C-64.47180065222233 23.08060866668567, -64.7869005940341 22.916221228873617, -65.6230130395184 22.480021901620038 M-65.6230130395184 22.480021901620038 C-66.16326321400939 22.152519070981167, -66.70351338850038 21.825016240342297, -67.03730060722663 21.622672466799017 M-65.6230130395184 22.480021901620038 C-66.09757410110069 22.1923401972585, -66.57213516268297 21.90465849289696, -67.03730060722663 21.622672466799017 M-67.03730060722663 21.622672466799017 C-67.5446465832794 21.268769876557926, -68.05199255933219 20.914867286316838, -68.39375180255584 20.67647083276321 M-67.03730060722663 21.622672466799017 C-67.47284018037809 21.318858914772804, -67.90837975352954 21.015045362746594, -68.39375180255584 20.67647083276321 M-68.39375180255584 20.67647083276321 C-68.69974101400483 20.43245257934753, -69.00573022545382 20.188434325931848, -69.6867926765865 19.645305144986512 M-68.39375180255584 20.67647083276321 C-68.68591959163489 20.443474795884068, -68.97808738071393 20.210478759004925, -69.6867926765865 19.645305144986512 M-69.6867926765865 19.645305144986512 C-69.96987461358022 19.388217619746438, -70.25295655057393 19.131130094506364, -70.91110984701086 18.533412684464324 M-69.6867926765865 19.645305144986512 C-70.10304545608204 19.267275384093697, -70.51929823557758 18.88924562320088, -70.91110984701086 18.533412684464324 M-70.91110984701086 18.533412684464324 C-71.21960870301352 18.214862287414455, -71.52810755901619 17.896311890364583, -72.06167233196044 17.3453624558171 M-70.91110984701086 18.533412684464324 C-71.24477192658587 18.188879193136934, -71.57843400616088 17.844345701809544, -72.06167233196044 17.3453624558171 M-72.06167233196044 17.3453624558171 C-72.48541249194429 16.847613152401927, -72.90915265192812 16.349863848986754, -73.13375222338968 16.08603641227036 M-72.06167233196044 17.3453624558171 C-72.43760110347944 16.9037751298378, -72.81352987499845 16.462187803858498, -73.13375222338968 16.08603641227036 M-73.13375222338968 16.08603641227036 C-73.34217263978265 15.806772041794323, -73.55059305617561 15.527507671318286, -74.12294411506427 14.760609394661614 M-73.13375222338968 16.08603641227036 C-73.39463492375474 15.73647736068411, -73.6555176241198 15.386918309097863, -74.12294411506427 14.760609394661614 M-74.12294411506427 14.760609394661614 C-74.38242305536045 14.36198006251512, -74.64190199565662 13.963350730368623, -75.02518320532036 13.374527866909418 M-74.12294411506427 14.760609394661614 C-74.30881946655983 14.475054940243883, -74.49469481805536 14.18950048582615, -75.02518320532036 13.374527866909418 M-75.02518320532036 13.374527866909418 C-75.27561573024715 12.929859559858892, -75.52604825517396 12.485191252808368, -75.83676200020639 11.933487535324842 M-75.02518320532036 13.374527866909418 C-75.23965012133392 12.993720140397153, -75.4541170373475 12.612912413884889, -75.83676200020639 11.933487535324842 M-75.83676200020639 11.933487535324842 C-76.10149232406232 11.383769353516495, -76.36622264791825 10.834051171708147, -76.55434554837109 10.443409943732586 M-75.83676200020639 11.933487535324842 C-76.05991590281367 11.470103681832219, -76.28306980542095 11.006719828339596, -76.55434554837109 10.443409943732586 M-76.55434554837109 10.443409943732586 C-76.68828281288566 10.112582310880734, -76.82222007740023 9.781754678028882, -77.17498514509381 8.910418140577127 M-76.55434554837109 10.443409943732586 C-76.70040664954806 10.082636199926199, -76.84646775072501 9.72186245611981, -77.17498514509381 8.910418140577127 M-77.17498514509381 8.910418140577127 C-77.37466876092597 8.309002904954259, -77.57435237675813 7.707587669331389, -77.6961304491449 7.340811518003316 M-77.17498514509381 8.910418140577127 C-77.30919082974572 8.506212001177593, -77.44339651439763 8.102005861778059, -77.6961304491449 7.340811518003316 M-77.6961304491449 7.340811518003316 C-77.80147638938857 6.9390817906349165, -77.90682232963223 6.537352063266517, -78.11563996268467 5.741039926302918 M-77.6961304491449 7.340811518003316 C-77.79289312960572 6.97181348019527, -77.88965581006651 6.602815442387225, -78.11563996268467 5.741039926302918 M-78.11563996268467 5.741039926302918 C-78.22643279364716 5.172142155383638, -78.33722562460966 4.603244384464359, -78.43178983113748 4.117677170096139 M-78.11563996268467 5.741039926302918 C-78.2286036782736 5.1609951216435235, -78.34156739386253 4.580950316984129, -78.43178983113748 4.117677170096139 M-78.43178983113748 4.117677170096139 C-78.50120602766837 3.5792988575809486, -78.57062222419927 3.0409205450657577, -78.64328092687991 2.477393995158454 M-78.43178983113748 4.117677170096139 C-78.4828588083478 3.7215962675630885, -78.53392778555812 3.3255153650300375, -78.64328092687991 2.477393995158454 M-78.64328092687991 2.477393995158454 C-78.66453855716759 2.1462892445774524, -78.68579618745528 1.8151844939964505, -78.74924418763487 0.8269306768952934 M-78.64328092687991 2.477393995158454 C-78.66489430552689 2.1407481767265013, -78.68650768417388 1.8041023582945483, -78.74924418763487 0.8269306768952934 M-78.74924418763487 0.8269306768952934 C-78.74924418763487 0.39594562511417575, -78.74924418763487 -0.03503942666694193, -78.74924418763487 -0.8269306768952809 M-78.74924418763487 0.8269306768952934 C-78.74924418763487 0.44965096839384044, -78.74924418763487 0.07237125989238746, -78.74924418763487 -0.8269306768952809 M-78.74924418763487 -0.8269306768952809 C-78.71221234571578 -1.4037315063498288, -78.6751805037967 -1.9805323358043767, -78.64328092687991 -2.4773939951584185 M-78.74924418763487 -0.8269306768952809 C-78.70857491140367 -1.4603874818451648, -78.66790563517247 -2.093844286795049, -78.64328092687991 -2.4773939951584185 M-78.64328092687991 -2.4773939951584185 C-78.59445951735513 -2.8560432065548427, -78.54563810783036 -3.2346924179512664, -78.43178983113748 -4.117677170096128 M-78.64328092687991 -2.4773939951584185 C-78.56097079127522 -3.115775152933635, -78.47866065567054 -3.7541563107088516, -78.43178983113748 -4.117677170096128 M-78.43178983113748 -4.117677170096128 C-78.3533543823762 -4.520426622147354, -78.27491893361491 -4.9231760741985795, -78.11563996268467 -5.741039926302906 M-78.43178983113748 -4.117677170096128 C-78.36853066198445 -4.442499633866757, -78.30527149283144 -4.767322097637386, -78.11563996268467 -5.741039926302906 M-78.11563996268467 -5.741039926302906 C-77.97606547359567 -6.273297945165493, -77.83649098450667 -6.805555964028079, -77.6961304491449 -7.340811518003303 M-78.11563996268467 -5.741039926302906 C-77.98183318798914 -6.251303150439972, -77.8480264132936 -6.761566374577037, -77.6961304491449 -7.340811518003303 M-77.6961304491449 -7.340811518003303 C-77.5006192876558 -7.929659985935237, -77.30510812616669 -8.51850845386717, -77.17498514509383 -8.910418140577093 M-77.6961304491449 -7.340811518003303 C-77.57070697393442 -7.718567041820301, -77.44528349872395 -8.0963225656373, -77.17498514509383 -8.910418140577093 M-77.17498514509383 -8.910418140577093 C-76.94929132519901 -9.467886239210468, -76.72359750530418 -10.025354337843845, -76.55434554837109 -10.443409943732574 M-77.17498514509383 -8.910418140577093 C-77.03240973576305 -9.262582158132135, -76.88983432643226 -9.614746175687179, -76.55434554837109 -10.443409943732574 M-76.55434554837109 -10.443409943732574 C-76.30905979601728 -10.9527510567696, -76.06377404366347 -11.462092169806628, -75.8367620002064 -11.933487535324831 M-76.55434554837109 -10.443409943732574 C-76.4077595640551 -10.747798876602333, -76.26117357973912 -11.052187809472091, -75.8367620002064 -11.933487535324831 M-75.8367620002064 -11.933487535324831 C-75.54553991714232 -12.450581833238754, -75.25431783407822 -12.967676131152677, -75.02518320532036 -13.374527866909409 M-75.8367620002064 -11.933487535324831 C-75.56908645706217 -12.408772567265336, -75.30141091391793 -12.884057599205839, -75.02518320532036 -13.374527866909409 M-75.02518320532036 -13.374527866909409 C-74.8413520640648 -13.656941865451223, -74.65752092280923 -13.939355863993036, -74.12294411506429 -14.760609394661605 M-75.02518320532036 -13.374527866909409 C-74.79555606933624 -13.727296811300732, -74.56592893335213 -14.080065755692058, -74.12294411506429 -14.760609394661605 M-74.12294411506429 -14.760609394661605 C-73.79855896774333 -15.195255939976823, -73.47417382042237 -15.629902485292043, -73.13375222338968 -16.086036412270353 M-74.12294411506429 -14.760609394661605 C-73.82307629793014 -15.162404951101209, -73.52320848079601 -15.564200507540813, -73.13375222338968 -16.086036412270353 M-73.13375222338968 -16.086036412270353 C-72.78627717051582 -16.494200381266612, -72.43880211764196 -16.90236435026287, -72.06167233196045 -17.345362455817092 M-73.13375222338968 -16.086036412270353 C-72.8682894361536 -16.397864107418354, -72.60282664891753 -16.709691802566354, -72.06167233196045 -17.345362455817092 M-72.06167233196045 -17.345362455817092 C-71.77158107823487 -17.644905492223625, -71.48148982450928 -17.944448528630154, -70.91110984701089 -18.5334126844643 M-72.06167233196045 -17.345362455817092 C-71.66630207903376 -17.753614702465363, -71.27093182610705 -18.16186694911363, -70.91110984701089 -18.5334126844643 M-70.91110984701089 -18.5334126844643 C-70.58834762671424 -18.826536793117334, -70.2655854064176 -19.119660901770366, -69.68679267658653 -19.645305144986487 M-70.91110984701089 -18.5334126844643 C-70.6014505114547 -18.814637099879388, -70.2917911758985 -19.095861515294477, -69.68679267658653 -19.645305144986487 M-69.68679267658653 -19.645305144986487 C-69.31212147182728 -19.944095460362508, -68.93745026706802 -20.24288577573853, -68.39375180255585 -20.676470832763204 M-69.68679267658653 -19.645305144986487 C-69.39288672690645 -19.87968731869056, -69.09898077722639 -20.114069492394634, -68.39375180255585 -20.676470832763204 M-68.39375180255585 -20.676470832763204 C-67.97510850571224 -20.96849827386507, -67.55646520886864 -21.260525714966935, -67.03730060722665 -21.622672466799 M-68.39375180255585 -20.676470832763204 C-68.00391011407943 -20.94840751866965, -67.61406842560302 -21.220344204576097, -67.03730060722665 -21.622672466799 M-67.03730060722665 -21.622672466799 C-66.5625486455592 -21.910469895914012, -66.08779668389177 -22.198267325029025, -65.62301303951841 -22.480021901620027 M-67.03730060722665 -21.622672466799 C-66.58346501471645 -21.89779027001266, -66.12962942220626 -22.172908073226324, -65.62301303951841 -22.480021901620027 M-65.62301303951841 -22.480021901620027 C-65.11918457731366 -22.742868887634714, -64.61535611510891 -23.0057158736494, -64.15670071041058 -23.244996104497716 M-65.62301303951841 -22.480021901620027 C-65.04566436617174 -22.781224334695516, -64.46831569282504 -23.082426767771008, -64.15670071041058 -23.244996104497716 M-64.15670071041058 -23.244996104497716 C-63.6858982072774 -23.453406406774725, -63.215095704144225 -23.66181670905173, -62.64438901178645 -23.91445163234599 M-64.15670071041058 -23.244996104497716 C-63.684913842546784 -23.453842155840825, -63.21312697468299 -23.662688207183933, -62.64438901178645 -23.91445163234599 M-62.64438901178645 -23.91445163234599 C-62.26827943703729 -24.05286343257248, -61.892169862288135 -24.191275232798965, -61.09229235680553 -24.485637548803172 M-62.64438901178645 -23.91445163234599 C-62.06860472432751 -24.12634557262249, -61.49282043686857 -24.338239512898987, -61.09229235680553 -24.485637548803172 M-61.09229235680553 -24.485637548803172 C-60.63903529943255 -24.62016186423663, -60.18577824205957 -24.754686179670085, -59.50678864354682 -24.956206728419538 M-61.09229235680553 -24.485637548803172 C-60.75786962309379 -24.584892460748065, -60.42344688938205 -24.68414737269296, -59.50678864354682 -24.956206728419538 M-59.50678864354682 -24.956206728419538 C-59.11403795874202 -25.045849509288498, -58.721287273937214 -25.13549229015746, -57.894393046857545 -25.324225501499278 M-59.50678864354682 -24.956206728419538 C-59.170801700925544 -25.03289355555314, -58.83481475830427 -25.109580382686747, -57.894393046857545 -25.324225501499278 M-57.894393046857545 -25.324225501499278 C-57.25408250685324 -25.427745943924773, -56.61377196684894 -25.531266386350268, -56.26173124610233 -25.588181599964017 M-57.894393046857545 -25.324225501499278 C-57.445394646029584 -25.39681608091054, -56.99639624520162 -25.469406660321802, -56.26173124610233 -25.588181599964017 M-56.26173124610233 -25.588181599964017 C-55.91735021450746 -25.621403623903188, -55.57296918291259 -25.65462564784236, -54.615512198825286 -25.746990371586765 M-56.26173124610233 -25.588181599964017 C-55.72265007996382 -25.64018611172144, -55.18356891382532 -25.692190623478865, -54.615512198825286 -25.746990371586765 M-54.615512198825286 -25.746990371586765 C-54.203928947931075 -25.760189045344745, -53.792345697036865 -25.773387719102722, -52.9625005722046 -25.799999237060547 M-54.615512198825286 -25.746990371586765 C-54.20344023313784 -25.760204717476938, -53.791368267450395 -25.77341906336711, -52.9625005722046 -25.799999237060547 M-52.9625005722046 -25.799999237060547 C-52.9625005722046 -25.799999237060547, -52.96250057220459 -25.799999237060547, -52.96250057220459 -25.799999237060547 M-52.9625005722046 -25.799999237060547 C-52.9625005722046 -25.799999237060547, -52.96250057220459 -25.799999237060547, -52.96250057220459 -25.799999237060547" stroke="#1F4870" stroke-width="1.3" fill="none" stroke-dasharray="0 0" style="fill:#2E5A88 !important;stroke:#1F4870 !important"></path></g><g class="label" style="color:#ffffff !important" transform="translate(0, -18.299999237060547)"><rect></rect><g><rect class="background" style="stroke: none"></rect><text y="-10.1" style="fill:#404040 !important"><tspan class="text-outer-tspan row" x="0" y="-0.1em" dy="1.1em"><tspan font-style="normal" class="text-inner-tspan" font-weight="normal">Two</tspan><tspan font-style="normal" class="text-inner-tspan" font-weight="normal"> rules</tspan><tspan font-style="normal" class="text-inner-tspan" font-weight="normal"> match</tspan></tspan><tspan class="text-outer-tspan row" x="0" y="1em" dy="1.1em"><tspan font-style="normal" class="text-inner-tspan" font-weight="normal">the</tspan><tspan font-style="normal" class="text-inner-tspan" font-weight="normal"> same</tspan><tspan font-style="normal" class="text-inner-tspan" font-weight="normal"> element</tspan></tspan></text></g></g></g><g class="node default question" id="g8d49821f-8fbf-4b3b-96af-c7d7ae0261af-dark-flowchart-Origin-1" data-look="classic" transform="translate(226.43515396118164, 223.6843719482422)"><polygon points="114.0843734741211,0 228.1687469482422,-114.0843734741211 114.0843734741211,-228.1687469482422 0,-114.0843734741211" class="label-container" transform="translate(-113.5843734741211, 114.0843734741211)" style="fill:#5A5A5A !important;stroke:#3D3D3D !important"></polygon><g class="label" style="color:#ffffff !important" transform="translate(0, -27.099998474121094)"><rect></rect><g><rect class="background" style="stroke: none"></rect><text y="-10.1" style="fill:#404040 !important"><tspan class="text-outer-tspan row" x="0" y="-0.1em" dy="1.1em"><tspan font-style="normal" class="text-inner-tspan" font-weight="normal">Different</tspan></tspan><tspan class="text-outer-tspan row" x="0" y="1em" dy="1.1em"><tspan font-style="normal" class="text-inner-tspan" font-weight="normal">origin?</tspan></tspan><tspan class="text-outer-tspan row" x="0" y="2.1em" dy="1.1em"><tspan font-style="normal" class="text-inner-tspan" font-weight="normal">(UA</tspan><tspan font-style="normal" class="text-inner-tspan" font-weight="normal"> /</tspan><tspan font-style="normal" class="text-inner-tspan" font-weight="normal"> user</tspan><tspan font-style="normal" class="text-inner-tspan" font-weight="normal"> /</tspan><tspan font-style="normal" class="text-inner-tspan" font-weight="normal"> author)</tspan></tspan></text></g></g></g><g class="node default result" id="g8d49821f-8fbf-4b3b-96af-c7d7ae0261af-dark-flowchart-OriginWin-3" data-look="classic" transform="translate(112.9765625, 482.70936584472656)"><rect class="basic label-container" style="fill:#2D7A2D !important;stroke:#1E5A1E !important" x="-104.9765625" y="-33.29999923706055" width="209.953125" height="66.5999984741211"></rect><g class="label" style="color:#ffffff !important" transform="translate(0, -18.299999237060547)"><rect></rect><g><rect class="background" style="stroke: none"></rect><text y="-10.1" style="fill:#404040 !important"><tspan class="text-outer-tspan row" x="0" y="-0.1em" dy="1.1em"><tspan font-style="normal" class="text-inner-tspan" font-weight="normal">Higher</tspan><tspan font-style="normal" class="text-inner-tspan" font-weight="normal"> origin</tspan><tspan font-style="normal" class="text-inner-tspan" font-weight="normal"> wins</tspan></tspan><tspan class="text-outer-tspan row" x="0" y="1em" dy="1.1em"><tspan font-style="normal" class="text-inner-tspan" font-weight="normal">(per</tspan><tspan font-style="normal" class="text-inner-tspan" font-weight="normal"> CSS</tspan><tspan font-style="normal" class="text-inner-tspan" font-weight="normal"> Cascade</tspan><tspan font-style="normal" class="text-inner-tspan" font-weight="normal"> L5)</tspan></tspan></text></g></g></g><g class="node default question" id="g8d49821f-8fbf-4b3b-96af-c7d7ae0261af-dark-flowchart-Important-5" data-look="classic" transform="translate(339.8937454223633, 482.70936584472656)"><polygon points="71.94062423706055,0 143.8812484741211,-71.94062423706055 71.94062423706055,-143.8812484741211 0,-71.94062423706055" class="label-container" transform="translate(-71.44062423706055, 71.94062423706055)" style="fill:#5A5A5A !important;stroke:#3D3D3D !important"></polygon><g class="label" style="color:#ffffff !important" transform="translate(0, -18.299999237060547)"><rect></rect><g><rect class="background" style="stroke: none"></rect><text y="-10.1" style="fill:#404040 !important"><tspan class="text-outer-tspan row" x="0" y="-0.1em" dy="1.1em"><tspan font-style="normal" class="text-inner-tspan" font-weight="normal">!important</tspan></tspan><tspan class="text-outer-tspan row" x="0" y="1em" dy="1.1em"><tspan font-style="normal" class="text-inner-tspan" font-weight="normal">flag?</tspan></tspan></text></g></g></g><g class="node default result" id="g8d49821f-8fbf-4b3b-96af-c7d7ae0261af-dark-flowchart-ImportantOrder-7" data-look="classic" transform="translate(230.90390014648438, 693.4343643188477)"><rect class="basic label-container" style="fill:#2D7A2D !important;stroke:#1E5A1E !important" x="-102.1953125" y="-33.29999923706055" width="204.390625" height="66.5999984741211"></rect><g class="label" style="color:#ffffff !important" transform="translate(0, -18.299999237060547)"><rect></rect><g><rect class="background" style="stroke: none"></rect><text y="-10.1" style="fill:#404040 !important"><tspan class="text-outer-tspan row" x="0" y="-0.1em" dy="1.1em"><tspan font-style="normal" class="text-inner-tspan" font-weight="normal">Reverse</tspan><tspan font-style="normal" class="text-inner-tspan" font-weight="normal"> origin</tspan><tspan font-style="normal" class="text-inner-tspan" font-weight="normal"> order</tspan></tspan><tspan class="text-outer-tspan row" x="0" y="1em" dy="1.1em"><tspan font-style="normal" class="text-inner-tspan" font-weight="normal">for</tspan><tspan font-style="normal" class="text-inner-tspan" font-weight="normal"> important</tspan><tspan font-style="normal" class="text-inner-tspan" font-weight="normal"> rules</tspan></tspan></text></g></g></g><g class="node default question" id="g8d49821f-8fbf-4b3b-96af-c7d7ae0261af-dark-flowchart-Layer-9" data-look="classic" transform="translate(448.8835906982422, 693.4343643188477)"><polygon points="65.78437423706055,0 131.5687484741211,-65.78437423706055 65.78437423706055,-131.5687484741211 0,-65.78437423706055" class="label-container" transform="translate(-65.28437423706055, 65.78437423706055)" style="fill:#5A5A5A !important;stroke:#3D3D3D !important"></polygon><g class="label" style="color:#ffffff !important" transform="translate(0, -18.299999237060547)"><rect></rect><g><rect class="background" style="stroke: none"></rect><text y="-10.1" style="fill:#404040 !important"><tspan class="text-outer-tspan row" x="0" y="-0.1em" dy="1.1em"><tspan font-style="normal" class="text-inner-tspan" font-weight="normal">Different</tspan></tspan><tspan class="text-outer-tspan row" x="0" y="1em" dy="1.1em"><tspan font-style="normal" class="text-inner-tspan" font-weight="normal">@layer?</tspan></tspan></text></g></g></g><g class="node default result" id="g8d49821f-8fbf-4b3b-96af-c7d7ae0261af-dark-flowchart-LayerOrder-11" data-look="classic" transform="translate(326.4367141723633, 905.3546829223633)"><rect class="basic label-container" style="fill:#2D7A2D !important;stroke:#1E5A1E !important" x="-121.7578125" y="-33.29999923706055" width="243.515625" height="66.5999984741211"></rect><g class="label" style="color:#ffffff !important" transform="translate(0, -18.299999237060547)"><rect></rect><g><rect class="background" style="stroke: none"></rect><text y="-10.1" style="fill:#404040 !important"><tspan class="text-outer-tspan row" x="0" y="-0.1em" dy="1.1em"><tspan font-style="normal" class="text-inner-tspan" font-weight="normal">Later-declared</tspan><tspan font-style="normal" class="text-inner-tspan" font-weight="normal"> layer</tspan><tspan font-style="normal" class="text-inner-tspan" font-weight="normal"> wins</tspan></tspan><tspan class="text-outer-tspan row" x="0" y="1em" dy="1.1em"><tspan font-style="normal" class="text-inner-tspan" font-weight="normal">(unlayered</tspan><tspan font-style="normal" class="text-inner-tspan" font-weight="normal"> =</tspan><tspan font-style="normal" class="text-inner-tspan" font-weight="normal"> highest)</tspan></tspan></text></g></g></g><g class="node default question" id="g8d49821f-8fbf-4b3b-96af-c7d7ae0261af-dark-flowchart-Specificity-13" data-look="classic" transform="translate(571.3304672241211, 905.3546829223633)"><polygon points="73.13593673706055,0 146.2718734741211,-73.13593673706055 73.13593673706055,-146.2718734741211 0,-73.13593673706055" class="label-container" transform="translate(-72.63593673706055, 73.13593673706055)" style="fill:#5A5A5A !important;stroke:#3D3D3D !important"></polygon><g class="label" style="color:#ffffff !important" transform="translate(0, -18.299999237060547)"><rect></rect><g><rect class="background" style="stroke: none"></rect><text y="-10.1" style="fill:#404040 !important"><tspan class="text-outer-tspan row" x="0" y="-0.1em" dy="1.1em"><tspan font-style="normal" class="text-inner-tspan" font-weight="normal">Different</tspan></tspan><tspan class="text-outer-tspan row" x="0" y="1em" dy="1.1em"><tspan font-style="normal" class="text-inner-tspan" font-weight="normal">specificity?</tspan></tspan></text></g></g></g><g class="node default result" id="g8d49821f-8fbf-4b3b-96af-c7d7ae0261af-dark-flowchart-SpecWin-15" data-look="classic" transform="translate(423.9242172241211, 1084.7906227111816)"><rect class="basic label-container" style="fill:#2D7A2D !important;stroke:#1E5A1E !important" x="-126.9765625" y="-33.29999923706055" width="253.953125" height="66.5999984741211"></rect><g class="label" style="color:#ffffff !important" transform="translate(0, -18.299999237060547)"><rect></rect><g><rect class="background" style="stroke: none"></rect><text y="-10.1" style="fill:#404040 !important"><tspan class="text-outer-tspan row" x="0" y="-0.1em" dy="1.1em"><tspan font-style="normal" class="text-inner-tspan" font-weight="normal">Higher</tspan><tspan font-style="normal" class="text-inner-tspan" font-weight="normal"> specificity</tspan><tspan font-style="normal" class="text-inner-tspan" font-weight="normal"> wins</tspan></tspan><tspan class="text-outer-tspan row" x="0" y="1em" dy="1.1em"><tspan font-style="normal" class="text-inner-tspan" font-weight="normal">(0,0,1)</tspan><tspan font-style="normal" class="text-inner-tspan" font-weight="normal"> vs</tspan><tspan font-style="normal" class="text-inner-tspan" font-weight="normal"> (0,1,0)</tspan><tspan font-style="normal" class="text-inner-tspan" font-weight="normal"> vs</tspan><tspan font-style="normal" class="text-inner-tspan" font-weight="normal"> (1,0,0)</tspan></tspan></text></g></g></g><g class="node default result" id="g8d49821f-8fbf-4b3b-96af-c7d7ae0261af-dark-flowchart-SourceOrder-17" data-look="classic" transform="translate(718.7367172241211, 1084.7906227111816)"><rect class="basic label-container" style="fill:#2D7A2D !important;stroke:#1E5A1E !important" x="-117.8359375" y="-33.29999923706055" width="235.671875" height="66.5999984741211"></rect><g class="label" style="color:#ffffff !important" transform="translate(0, -18.299999237060547)"><rect></rect><g><rect class="background" style="stroke: none"></rect><text y="-10.1" style="fill:#404040 !important"><tspan class="text-outer-tspan row" x="0" y="-0.1em" dy="1.1em"><tspan font-style="normal" class="text-inner-tspan" font-weight="normal">Last</tspan><tspan font-style="normal" class="text-inner-tspan" font-weight="normal"> rule</tspan><tspan font-style="normal" class="text-inner-tspan" font-weight="normal"> in</tspan><tspan font-style="normal" class="text-inner-tspan" font-weight="normal"> source</tspan><tspan font-style="normal" class="text-inner-tspan" font-weight="normal"> order</tspan></tspan><tspan class="text-outer-tspan row" x="0" y="1em" dy="1.1em"><tspan font-style="normal" class="text-inner-tspan" font-weight="normal">wins</tspan></tspan></text></g></g></g></g></g></g><defs><filter id="g8d49821f-8fbf-4b3b-96af-c7d7ae0261af-dark-drop-shadow" height="130%" width="130%"><feDropShadow dx="4" dy="4" stdDeviation="0" flood-opacity="0.06" flood-color="#000000"></feDropShadow></filter></defs><defs><filter id="g8d49821f-8fbf-4b3b-96af-c7d7ae0261af-dark-drop-shadow-small" height="150%" width="150%"><feDropShadow dx="2" dy="2" stdDeviation="0" flood-opacity="0.06" flood-color="#000000"></feDropShadow></filter></defs><linearGradient id="g8d49821f-8fbf-4b3b-96af-c7d7ae0261af-dark-gradient" gradientUnits="objectBoundingBox" x1="0%" y1="0%" x2="100%" y2="0%"><stop offset="0%" stop-color="#555555" stop-opacity="1"></stop><stop offset="100%" stop-color="#555555" stop-opacity="1"></stop></linearGradient></svg>