<svg id="gb92f6c7e-08f3-47a9-83e5-cb323fa625dc-dark" width="100%" xmlns="http://www.w3.org/2000/svg" xmlns:xlink="http://www.w3.org/1999/xlink" style="max-width: 987px;" viewBox="-50 -10 987 907" role="graphics-document document" aria-roledescription="sequence"><g><rect x="737" y="821" fill="#404040" stroke="#666" width="150" height="65" name="Server" rx="3" ry="3" class="actor actor-bottom"></rect><text x="812" y="853.5" dominant-baseline="central" alignment-baseline="central" class="actor actor-box" style="text-anchor: middle; font-size: 16px; font-weight: 400;"><tspan x="812" dy="0">License Server</tspan></text></g><g><rect x="537" y="821" fill="#404040" stroke="#666" width="150" height="65" name="CDM" rx="3" ry="3" class="actor actor-bottom"></rect><text x="612" y="853.5" dominant-baseline="central" alignment-baseline="central" class="actor actor-box" style="text-anchor: middle; font-size: 16px; font-weight: 400;"><tspan x="612" dy="0">CDM</tspan></text></g><g><rect x="244" y="821" fill="#404040" stroke="#666" width="160" height="65" name="Video" rx="3" ry="3" class="actor actor-bottom"></rect><text x="324" y="853.5" dominant-baseline="central" alignment-baseline="central" class="actor actor-box" style="text-anchor: middle; font-size: 16px; font-weight: 400;"><tspan x="324" dy="0">HTMLMediaElement</tspan></text></g><g><rect x="0" y="821" fill="#404040" stroke="#666" width="150" height="65" name="App" rx="3" ry="3" class="actor actor-bottom"></rect><text x="75" y="853.5" dominant-baseline="central" alignment-baseline="central" class="actor actor-box" style="text-anchor: middle; font-size: 16px; font-weight: 400;"><tspan x="75" dy="0">Application (JS)</tspan></text></g><g><line id="actor3" x1="812" y1="65" x2="812" y2="821" class="actor-line 200" stroke-width="0.5px" stroke="#999" name="Server" data-et="life-line" data-id="Server"></line><g id="root-3" data-et="participant" data-type="participant" data-id="Server"><rect x="737" y="0" fill="#404040" stroke="#666" width="150" height="65" name="Server" rx="3" ry="3" class="actor actor-top"></rect><text x="812" y="32.5" dominant-baseline="central" alignment-baseline="central" class="actor actor-box" style="text-anchor: middle; font-size: 16px; font-weight: 400;"><tspan x="812" dy="0">License Server</tspan></text></g></g><g><line id="actor2" x1="612" y1="65" x2="612" y2="821" class="actor-line 200" stroke-width="0.5px" stroke="#999" name="CDM" data-et="life-line" data-id="CDM"></line><g id="root-2" data-et="participant" data-type="participant" data-id="CDM"><rect x="537" y="0" fill="#404040" stroke="#666" width="150" height="65" name="CDM" rx="3" ry="3" class="actor actor-top"></rect><text x="612" y="32.5" dominant-baseline="central" alignment-baseline="central" class="actor actor-box" style="text-anchor: middle; font-size: 16px; font-weight: 400;"><tspan x="612" dy="0">CDM</tspan></text></g></g><g><line id="actor1" x1="324" y1="65" x2="324" y2="821" class="actor-line 200" stroke-width="0.5px" stroke="#999" name="Video" data-et="life-line" data-id="Video"></line><g id="root-1" data-et="participant" data-type="participant" data-id="Video"><rect x="244" y="0" fill="#404040" stroke="#666" width="160" height="65" name="Video" rx="3" ry="3" class="actor actor-top"></rect><text x="324" y="32.5" dominant-baseline="central" alignment-baseline="central" class="actor actor-box" style="text-anchor: middle; font-size: 16px; font-weight: 400;"><tspan x="324" dy="0">HTMLMediaElement</tspan></text></g></g><g><line id="actor0" x1="75" y1="65" x2="75" y2="821" class="actor-line 200" stroke-width="0.5px" stroke="#999" name="App" data-et="life-line" data-id="App"></line><g id="root-0" data-et="participant" data-type="participant" data-id="App"><rect x="0" y="0" fill="#404040" stroke="#666" width="150" height="65" name="App" rx="3" ry="3" class="actor actor-top"></rect><text x="75" y="32.5" dominant-baseline="central" alignment-baseline="central" class="actor actor-box" style="text-anchor: middle; font-size: 16px; font-weight: 400;"><tspan x="75" dy="0">Application (JS)</tspan></text></g></g><style>#gb92f6c7e-08f3-47a9-83e5-cb323fa625dc-dark{font-family:"trebuchet ms",verdana,arial,sans-serif;font-size:16px;fill:#e5e5e5;}@keyframes edge-animation-frame{from{stroke-dashoffset:0;}}@keyframes dash{to{stroke-dashoffset:0;}}#gb92f6c7e-08f3-47a9-83e5-cb323fa625dc-dark .edge-animation-slow{stroke-dasharray:9,5!important;stroke-dashoffset:900;animation:dash 50s linear infinite;stroke-linecap:round;}#gb92f6c7e-08f3-47a9-83e5-cb323fa625dc-dark .edge-animation-fast{stroke-dasharray:9,5!important;stroke-dashoffset:900;animation:dash 20s linear infinite;stroke-linecap:round;}#gb92f6c7e-08f3-47a9-83e5-cb323fa625dc-dark .error-icon{fill:#252525;}#gb92f6c7e-08f3-47a9-83e5-cb323fa625dc-dark .error-text{fill:#cccccc;stroke:#cccccc;}#gb92f6c7e-08f3-47a9-83e5-cb323fa625dc-dark .edge-thickness-normal{stroke-width:1px;}#gb92f6c7e-08f3-47a9-83e5-cb323fa625dc-dark .edge-thickness-thick{stroke-width:3.5px;}#gb92f6c7e-08f3-47a9-83e5-cb323fa625dc-dark .edge-pattern-solid{stroke-dasharray:0;}#gb92f6c7e-08f3-47a9-83e5-cb323fa625dc-dark .edge-thickness-invisible{stroke-width:0;fill:none;}#gb92f6c7e-08f3-47a9-83e5-cb323fa625dc-dark .edge-pattern-dashed{stroke-dasharray:3;}#gb92f6c7e-08f3-47a9-83e5-cb323fa625dc-dark .edge-pattern-dotted{stroke-dasharray:2;}#gb92f6c7e-08f3-47a9-83e5-cb323fa625dc-dark .marker{fill:#cccccc;stroke:#cccccc;}#gb92f6c7e-08f3-47a9-83e5-cb323fa625dc-dark .marker.cross{stroke:#cccccc;}#gb92f6c7e-08f3-47a9-83e5-cb323fa625dc-dark svg{font-family:"trebuchet ms",verdana,arial,sans-serif;font-size:16px;}#gb92f6c7e-08f3-47a9-83e5-cb323fa625dc-dark p{margin:0;}#gb92f6c7e-08f3-47a9-83e5-cb323fa625dc-dark .actor{stroke:#555555;fill:#2d2d2d;stroke-width:1;}#gb92f6c7e-08f3-47a9-83e5-cb323fa625dc-dark rect.actor.outer-path[data-look="neo"]{filter:drop-shadow( 1px 2px 2px rgba(185,185,185,1));}#gb92f6c7e-08f3-47a9-83e5-cb323fa625dc-dark rect.note[data-look="neo"]{stroke:#555555;fill:#333333;filter:drop-shadow( 1px 2px 2px rgba(185,185,185,1));}#gb92f6c7e-08f3-47a9-83e5-cb323fa625dc-dark text.actor&gt;tspan{fill:#e5e5e5;stroke:none;}#gb92f6c7e-08f3-47a9-83e5-cb323fa625dc-dark .actor-line{stroke:#888888;}#gb92f6c7e-08f3-47a9-83e5-cb323fa625dc-dark .innerArc{stroke-width:1.5;stroke-dasharray:none;}#gb92f6c7e-08f3-47a9-83e5-cb323fa625dc-dark .messageLine0{stroke-width:1.5;stroke-dasharray:none;stroke:#cccccc;}#gb92f6c7e-08f3-47a9-83e5-cb323fa625dc-dark .messageLine1{stroke-width:1.5;stroke-dasharray:2,2;stroke:#cccccc;}#gb92f6c7e-08f3-47a9-83e5-cb323fa625dc-dark [id$="-arrowhead"] path{fill:#cccccc;stroke:#cccccc;}#gb92f6c7e-08f3-47a9-83e5-cb323fa625dc-dark .sequenceNumber{fill:#333333;}#gb92f6c7e-08f3-47a9-83e5-cb323fa625dc-dark [id$="-sequencenumber"]{fill:#cccccc;}#gb92f6c7e-08f3-47a9-83e5-cb323fa625dc-dark [id$="-crosshead"] path{fill:#cccccc;stroke:#cccccc;}#gb92f6c7e-08f3-47a9-83e5-cb323fa625dc-dark .messageText{fill:#e5e5e5;stroke:none;}#gb92f6c7e-08f3-47a9-83e5-cb323fa625dc-dark .labelBox{stroke:#555555;fill:#2d2d2d;filter:none;}#gb92f6c7e-08f3-47a9-83e5-cb323fa625dc-dark .labelText,#gb92f6c7e-08f3-47a9-83e5-cb323fa625dc-dark .labelText&gt;tspan{fill:#e5e5e5;stroke:none;}#gb92f6c7e-08f3-47a9-83e5-cb323fa625dc-dark .loopText,#gb92f6c7e-08f3-47a9-83e5-cb323fa625dc-dark .loopText&gt;tspan{fill:#e5e5e5;stroke:none;}#gb92f6c7e-08f3-47a9-83e5-cb323fa625dc-dark .loopLine{stroke-width:2px;stroke-dasharray:2,2;stroke:#555555;fill:#555555;}#gb92f6c7e-08f3-47a9-83e5-cb323fa625dc-dark .note{stroke:#555555;fill:#333333;}#gb92f6c7e-08f3-47a9-83e5-cb323fa625dc-dark .noteText,#gb92f6c7e-08f3-47a9-83e5-cb323fa625dc-dark .noteText&gt;tspan{fill:#e5e5e5;stroke:none;font-weight:normal;}#gb92f6c7e-08f3-47a9-83e5-cb323fa625dc-dark .activation0{fill:#333333;stroke:#555555;}#gb92f6c7e-08f3-47a9-83e5-cb323fa625dc-dark .activation1{fill:#333333;stroke:#555555;}#gb92f6c7e-08f3-47a9-83e5-cb323fa625dc-dark .activation2{fill:#333333;stroke:#555555;}#gb92f6c7e-08f3-47a9-83e5-cb323fa625dc-dark .actorPopupMenu{position:absolute;}#gb92f6c7e-08f3-47a9-83e5-cb323fa625dc-dark .actorPopupMenuPanel{position:absolute;fill:#2d2d2d;box-shadow:0px 8px 16px 0px rgba(0,0,0,0.2);filter:drop-shadow(3px 5px 2px rgb(0 0 0 / 0.4));}#gb92f6c7e-08f3-47a9-83e5-cb323fa625dc-dark .actor-man circle,#gb92f6c7e-08f3-47a9-83e5-cb323fa625dc-dark line{fill:#2d2d2d;stroke-width:2px;}#gb92f6c7e-08f3-47a9-83e5-cb323fa625dc-dark g rect.rect{filter:drop-shadow( 1px 2px 2px rgba(185,185,185,1));stroke:#555555;}#gb92f6c7e-08f3-47a9-83e5-cb323fa625dc-dark .node .neo-node{stroke:#555555;}#gb92f6c7e-08f3-47a9-83e5-cb323fa625dc-dark [data-look="neo"].node rect,#gb92f6c7e-08f3-47a9-83e5-cb323fa625dc-dark [data-look="neo"].cluster rect,#gb92f6c7e-08f3-47a9-83e5-cb323fa625dc-dark [data-look="neo"].node polygon{stroke:url(#gb92f6c7e-08f3-47a9-83e5-cb323fa625dc-dark-gradient);filter:drop-shadow( 1px 2px 2px rgba(185,185,185,1));}#gb92f6c7e-08f3-47a9-83e5-cb323fa625dc-dark [data-look="neo"].node path{stroke:url(#gb92f6c7e-08f3-47a9-83e5-cb323fa625dc-dark-gradient);stroke-width:1px;}#gb92f6c7e-08f3-47a9-83e5-cb323fa625dc-dark [data-look="neo"].node .outer-path{filter:drop-shadow( 1px 2px 2px rgba(185,185,185,1));}#gb92f6c7e-08f3-47a9-83e5-cb323fa625dc-dark [data-look="neo"].node .neo-line path{stroke:#555555;filter:none;}#gb92f6c7e-08f3-47a9-83e5-cb323fa625dc-dark [data-look="neo"].node circle{stroke:url(#gb92f6c7e-08f3-47a9-83e5-cb323fa625dc-dark-gradient);filter:drop-shadow( 1px 2px 2px rgba(185,185,185,1));}#gb92f6c7e-08f3-47a9-83e5-cb323fa625dc-dark [data-look="neo"].node circle .state-start{fill:#000000;}#gb92f6c7e-08f3-47a9-83e5-cb323fa625dc-dark [data-look="neo"].icon-shape .icon{fill:url(#gb92f6c7e-08f3-47a9-83e5-cb323fa625dc-dark-gradient);filter:drop-shadow( 1px 2px 2px rgba(185,185,185,1));}#gb92f6c7e-08f3-47a9-83e5-cb323fa625dc-dark [data-look="neo"].icon-shape .icon-neo path{stroke:url(#gb92f6c7e-08f3-47a9-83e5-cb323fa625dc-dark-gradient);filter:drop-shadow( 1px 2px 2px rgba(185,185,185,1));}#gb92f6c7e-08f3-47a9-83e5-cb323fa625dc-dark :root{--mermaid-font-family:"trebuchet ms",verdana,arial,sans-serif;}</style><g></g><defs><symbol id="gb92f6c7e-08f3-47a9-83e5-cb323fa625dc-dark-computer" width="24" height="24"><path transform="scale(.5)" d="M2 2v13h20v-13h-20zm18 11h-16v-9h16v9zm-10.228 6l.466-1h3.524l.467 1h-4.457zm14.228 3h-24l2-6h2.104l-1.33 4h18.45l-1.297-4h2.073l2 6zm-5-10h-14v-7h14v7z"></path></symbol></defs><defs><symbol id="gb92f6c7e-08f3-47a9-83e5-cb323fa625dc-dark-database" fill-rule="evenodd" clip-rule="evenodd"><path transform="scale(.5)" d="M12.258.001l.256.004.255.005.253.008.251.01.249.012.247.015.246.016.242.019.241.02.239.023.236.024.233.027.231.028.229.031.225.032.223.034.22.036.217.038.214.04.211.041.208.043.205.045.201.046.198.048.194.05.191.051.187.053.183.054.18.056.175.057.172.059.168.06.163.061.16.063.155.064.15.066.074.033.073.033.071.034.07.034.069.035.068.035.067.035.066.035.064.036.064.036.062.036.06.036.06.037.058.037.058.037.055.038.055.038.053.038.052.038.051.039.05.039.048.039.047.039.045.04.044.04.043.04.041.04.04.041.039.041.037.041.036.041.034.041.033.042.032.042.03.042.029.042.027.042.026.043.024.043.023.043.021.043.02.043.018.044.017.043.015.044.013.044.012.044.011.045.009.044.007.045.006.045.004.045.002.045.001.045v17l-.001.045-.002.045-.004.045-.006.045-.007.045-.009.044-.011.045-.012.044-.013.044-.015.044-.017.043-.018.044-.02.043-.021.043-.023.043-.024.043-.026.043-.027.042-.029.042-.03.042-.032.042-.033.042-.034.041-.036.041-.037.041-.039.041-.04.041-.041.04-.043.04-.044.04-.045.04-.047.039-.048.039-.05.039-.051.039-.052.038-.053.038-.055.038-.055.038-.058.037-.058.037-.06.037-.06.036-.062.036-.064.036-.064.036-.066.035-.067.035-.068.035-.069.035-.07.034-.071.034-.073.033-.074.033-.15.066-.155.064-.16.063-.163.061-.168.06-.172.059-.175.057-.18.056-.183.054-.187.053-.191.051-.194.05-.198.048-.201.046-.205.045-.208.043-.211.041-.214.04-.217.038-.22.036-.223.034-.225.032-.229.031-.231.028-.233.027-.236.024-.239.023-.241.02-.242.019-.246.016-.247.015-.249.012-.251.01-.253.008-.255.005-.256.004-.258.001-.258-.001-.256-.004-.255-.005-.253-.008-.251-.01-.249-.012-.247-.015-.245-.016-.243-.019-.241-.02-.238-.023-.236-.024-.234-.027-.231-.028-.228-.031-.226-.032-.223-.034-.22-.036-.217-.038-.214-.04-.211-.041-.208-.043-.204-.045-.201-.046-.198-.048-.195-.05-.19-.051-.187-.053-.184-.054-.179-.056-.176-.057-.172-.059-.167-.06-.164-.061-.159-.063-.155-.064-.151-.066-.074-.033-.072-.033-.072-.034-.07-.034-.069-.035-.068-.035-.067-.035-.066-.035-.064-.036-.063-.036-.062-.036-.061-.036-.06-.037-.058-.037-.057-.037-.056-.038-.055-.038-.053-.038-.052-.038-.051-.039-.049-.039-.049-.039-.046-.039-.046-.04-.044-.04-.043-.04-.041-.04-.04-.041-.039-.041-.037-.041-.036-.041-.034-.041-.033-.042-.032-.042-.03-.042-.029-.042-.027-.042-.026-.043-.024-.043-.023-.043-.021-.043-.02-.043-.018-.044-.017-.043-.015-.044-.013-.044-.012-.044-.011-.045-.009-.044-.007-.045-.006-.045-.004-.045-.002-.045-.001-.045v-17l.001-.045.002-.045.004-.045.006-.045.007-.045.009-.044.011-.045.012-.044.013-.044.015-.044.017-.043.018-.044.02-.043.021-.043.023-.043.024-.043.026-.043.027-.042.029-.042.03-.042.032-.042.033-.042.034-.041.036-.041.037-.041.039-.041.04-.041.041-.04.043-.04.044-.04.046-.04.046-.039.049-.039.049-.039.051-.039.052-.038.053-.038.055-.038.056-.038.057-.037.058-.037.06-.037.061-.036.062-.036.063-.036.064-.036.066-.035.067-.035.068-.035.069-.035.07-.034.072-.034.072-.033.074-.033.151-.066.155-.064.159-.063.164-.061.167-.06.172-.059.176-.057.179-.056.184-.054.187-.053.19-.051.195-.05.198-.048.201-.046.204-.045.208-.043.211-.041.214-.04.217-.038.22-.036.223-.034.226-.032.228-.031.231-.028.234-.027.236-.024.238-.023.241-.02.243-.019.245-.016.247-.015.249-.012.251-.01.253-.008.255-.005.256-.004.258-.001.258.001zm-9.258 20.499v.01l.001.021.003.021.004.022.005.021.006.022.007.022.009.023.01.022.011.023.012.023.013.023.015.023.016.024.017.023.018.024.019.024.021.024.022.025.023.024.024.025.052.049.056.05.061.051.066.051.07.051.075.051.079.052.084.052.088.052.092.052.097.052.102.051.105.052.11.052.114.051.119.051.123.051.127.05.131.05.135.05.139.048.144.049.147.047.152.047.155.047.16.045.163.045.167.043.171.043.176.041.178.041.183.039.187.039.19.037.194.035.197.035.202.033.204.031.209.03.212.029.216.027.219.025.222.024.226.021.23.02.233.018.236.016.24.015.243.012.246.01.249.008.253.005.256.004.259.001.26-.001.257-.004.254-.005.25-.008.247-.011.244-.012.241-.014.237-.016.233-.018.231-.021.226-.021.224-.024.22-.026.216-.027.212-.028.21-.031.205-.031.202-.034.198-.034.194-.036.191-.037.187-.039.183-.04.179-.04.175-.042.172-.043.168-.044.163-.045.16-.046.155-.046.152-.047.148-.048.143-.049.139-.049.136-.05.131-.05.126-.05.123-.051.118-.052.114-.051.11-.052.106-.052.101-.052.096-.052.092-.052.088-.053.083-.051.079-.052.074-.052.07-.051.065-.051.06-.051.056-.05.051-.05.023-.024.023-.025.021-.024.02-.024.019-.024.018-.024.017-.024.015-.023.014-.024.013-.023.012-.023.01-.023.01-.022.008-.022.006-.022.006-.022.004-.022.004-.021.001-.021.001-.021v-4.127l-.077.055-.08.053-.083.054-.085.053-.087.052-.09.052-.093.051-.095.05-.097.05-.1.049-.102.049-.105.048-.106.047-.109.047-.111.046-.114.045-.115.045-.118.044-.12.043-.122.042-.124.042-.126.041-.128.04-.13.04-.132.038-.134.038-.135.037-.138.037-.139.035-.142.035-.143.034-.144.033-.147.032-.148.031-.15.03-.151.03-.153.029-.154.027-.156.027-.158.026-.159.025-.161.024-.162.023-.163.022-.165.021-.166.02-.167.019-.169.018-.169.017-.171.016-.173.015-.173.014-.175.013-.175.012-.177.011-.178.01-.179.008-.179.008-.181.006-.182.005-.182.004-.184.003-.184.002h-.37l-.184-.002-.184-.003-.182-.004-.182-.005-.181-.006-.179-.008-.179-.008-.178-.01-.176-.011-.176-.012-.175-.013-.173-.014-.172-.015-.171-.016-.17-.017-.169-.018-.167-.019-.166-.02-.165-.021-.163-.022-.162-.023-.161-.024-.159-.025-.157-.026-.156-.027-.155-.027-.153-.029-.151-.03-.15-.03-.148-.031-.146-.032-.145-.033-.143-.034-.141-.035-.14-.035-.137-.037-.136-.037-.134-.038-.132-.038-.13-.04-.128-.04-.126-.041-.124-.042-.122-.042-.12-.044-.117-.043-.116-.045-.113-.045-.112-.046-.109-.047-.106-.047-.105-.048-.102-.049-.1-.049-.097-.05-.095-.05-.093-.052-.09-.051-.087-.052-.085-.053-.083-.054-.08-.054-.077-.054v4.127zm0-5.654v.011l.001.021.003.021.004.021.005.022.006.022.007.022.009.022.01.022.011.023.012.023.013.023.015.024.016.023.017.024.018.024.019.024.021.024.022.024.023.025.024.024.052.05.056.05.061.05.066.051.07.051.075.052.079.051.084.052.088.052.092.052.097.052.102.052.105.052.11.051.114.051.119.052.123.05.127.051.131.05.135.049.139.049.144.048.147.048.152.047.155.046.16.045.163.045.167.044.171.042.176.042.178.04.183.04.187.038.19.037.194.036.197.034.202.033.204.032.209.03.212.028.216.027.219.025.222.024.226.022.23.02.233.018.236.016.24.014.243.012.246.01.249.008.253.006.256.003.259.001.26-.001.257-.003.254-.006.25-.008.247-.01.244-.012.241-.015.237-.016.233-.018.231-.02.226-.022.224-.024.22-.025.216-.027.212-.029.21-.03.205-.032.202-.033.198-.035.194-.036.191-.037.187-.039.183-.039.179-.041.175-.042.172-.043.168-.044.163-.045.16-.045.155-.047.152-.047.148-.048.143-.048.139-.05.136-.049.131-.05.126-.051.123-.051.118-.051.114-.052.11-.052.106-.052.101-.052.096-.052.092-.052.088-.052.083-.052.079-.052.074-.051.07-.052.065-.051.06-.05.056-.051.051-.049.023-.025.023-.024.021-.025.02-.024.019-.024.018-.024.017-.024.015-.023.014-.023.013-.024.012-.022.01-.023.01-.023.008-.022.006-.022.006-.022.004-.021.004-.022.001-.021.001-.021v-4.139l-.077.054-.08.054-.083.054-.085.052-.087.053-.09.051-.093.051-.095.051-.097.05-.1.049-.102.049-.105.048-.106.047-.109.047-.111.046-.114.045-.115.044-.118.044-.12.044-.122.042-.124.042-.126.041-.128.04-.13.039-.132.039-.134.038-.135.037-.138.036-.139.036-.142.035-.143.033-.144.033-.147.033-.148.031-.15.03-.151.03-.153.028-.154.028-.156.027-.158.026-.159.025-.161.024-.162.023-.163.022-.165.021-.166.02-.167.019-.169.018-.169.017-.171.016-.173.015-.173.014-.175.013-.175.012-.177.011-.178.009-.179.009-.179.007-.181.007-.182.005-.182.004-.184.003-.184.002h-.37l-.184-.002-.184-.003-.182-.004-.182-.005-.181-.007-.179-.007-.179-.009-.178-.009-.176-.011-.176-.012-.175-.013-.173-.014-.172-.015-.171-.016-.17-.017-.169-.018-.167-.019-.166-.02-.165-.021-.163-.022-.162-.023-.161-.024-.159-.025-.157-.026-.156-.027-.155-.028-.153-.028-.151-.03-.15-.03-.148-.031-.146-.033-.145-.033-.143-.033-.141-.035-.14-.036-.137-.036-.136-.037-.134-.038-.132-.039-.13-.039-.128-.04-.126-.041-.124-.042-.122-.043-.12-.043-.117-.044-.116-.044-.113-.046-.112-.046-.109-.046-.106-.047-.105-.048-.102-.049-.1-.049-.097-.05-.095-.051-.093-.051-.09-.051-.087-.053-.085-.052-.083-.054-.08-.054-.077-.054v4.139zm0-5.666v.011l.001.02.003.022.004.021.005.022.006.021.007.022.009.023.01.022.011.023.012.023.013.023.015.023.016.024.017.024.018.023.019.024.021.025.022.024.023.024.024.025.052.05.056.05.061.05.066.051.07.051.075.052.079.051.084.052.088.052.092.052.097.052.102.052.105.051.11.052.114.051.119.051.123.051.127.05.131.05.135.05.139.049.144.048.147.048.152.047.155.046.16.045.163.045.167.043.171.043.176.042.178.04.183.04.187.038.19.037.194.036.197.034.202.033.204.032.209.03.212.028.216.027.219.025.222.024.226.021.23.02.233.018.236.017.24.014.243.012.246.01.249.008.253.006.256.003.259.001.26-.001.257-.003.254-.006.25-.008.247-.01.244-.013.241-.014.237-.016.233-.018.231-.02.226-.022.224-.024.22-.025.216-.027.212-.029.21-.03.205-.032.202-.033.198-.035.194-.036.191-.037.187-.039.183-.039.179-.041.175-.042.172-.043.168-.044.163-.045.16-.045.155-.047.152-.047.148-.048.143-.049.139-.049.136-.049.131-.051.126-.05.123-.051.118-.052.114-.051.11-.052.106-.052.101-.052.096-.052.092-.052.088-.052.083-.052.079-.052.074-.052.07-.051.065-.051.06-.051.056-.05.051-.049.023-.025.023-.025.021-.024.02-.024.019-.024.018-.024.017-.024.015-.023.014-.024.013-.023.012-.023.01-.022.01-.023.008-.022.006-.022.006-.022.004-.022.004-.021.001-.021.001-.021v-4.153l-.077.054-.08.054-.083.053-.085.053-.087.053-.09.051-.093.051-.095.051-.097.05-.1.049-.102.048-.105.048-.106.048-.109.046-.111.046-.114.046-.115.044-.118.044-.12.043-.122.043-.124.042-.126.041-.128.04-.13.039-.132.039-.134.038-.135.037-.138.036-.139.036-.142.034-.143.034-.144.033-.147.032-.148.032-.15.03-.151.03-.153.028-.154.028-.156.027-.158.026-.159.024-.161.024-.162.023-.163.023-.165.021-.166.02-.167.019-.169.018-.169.017-.171.016-.173.015-.173.014-.175.013-.175.012-.177.01-.178.01-.179.009-.179.007-.181.006-.182.006-.182.004-.184.003-.184.001-.185.001-.185-.001-.184-.001-.184-.003-.182-.004-.182-.006-.181-.006-.179-.007-.179-.009-.178-.01-.176-.01-.176-.012-.175-.013-.173-.014-.172-.015-.171-.016-.17-.017-.169-.018-.167-.019-.166-.02-.165-.021-.163-.023-.162-.023-.161-.024-.159-.024-.157-.026-.156-.027-.155-.028-.153-.028-.151-.03-.15-.03-.148-.032-.146-.032-.145-.033-.143-.034-.141-.034-.14-.036-.137-.036-.136-.037-.134-.038-.132-.039-.13-.039-.128-.041-.126-.041-.124-.041-.122-.043-.12-.043-.117-.044-.116-.044-.113-.046-.112-.046-.109-.046-.106-.048-.105-.048-.102-.048-.1-.05-.097-.049-.095-.051-.093-.051-.09-.052-.087-.052-.085-.053-.083-.053-.08-.054-.077-.054v4.153zm8.74-8.179l-.257.004-.254.005-.25.008-.247.011-.244.012-.241.014-.237.016-.233.018-.231.021-.226.022-.224.023-.22.026-.216.027-.212.028-.21.031-.205.032-.202.033-.198.034-.194.036-.191.038-.187.038-.183.04-.179.041-.175.042-.172.043-.168.043-.163.045-.16.046-.155.046-.152.048-.148.048-.143.048-.139.049-.136.05-.131.05-.126.051-.123.051-.118.051-.114.052-.11.052-.106.052-.101.052-.096.052-.092.052-.088.052-.083.052-.079.052-.074.051-.07.052-.065.051-.06.05-.056.05-.051.05-.023.025-.023.024-.021.024-.02.025-.019.024-.018.024-.017.023-.015.024-.014.023-.013.023-.012.023-.01.023-.01.022-.008.022-.006.023-.006.021-.004.022-.004.021-.001.021-.001.021.001.021.001.021.004.021.004.022.006.021.006.023.008.022.01.022.01.023.012.023.013.023.014.023.015.024.017.023.018.024.019.024.02.025.021.024.023.024.023.025.051.05.056.05.06.05.065.051.07.052.074.051.079.052.083.052.088.052.092.052.096.052.101.052.106.052.11.052.114.052.118.051.123.051.126.051.131.05.136.05.139.049.143.048.148.048.152.048.155.046.16.046.163.045.168.043.172.043.175.042.179.041.183.04.187.038.191.038.194.036.198.034.202.033.205.032.21.031.212.028.216.027.22.026.224.023.226.022.231.021.233.018.237.016.241.014.244.012.247.011.25.008.254.005.257.004.26.001.26-.001.257-.004.254-.005.25-.008.247-.011.244-.012.241-.014.237-.016.233-.018.231-.021.226-.022.224-.023.22-.026.216-.027.212-.028.21-.031.205-.032.202-.033.198-.034.194-.036.191-.038.187-.038.183-.04.179-.041.175-.042.172-.043.168-.043.163-.045.16-.046.155-.046.152-.048.148-.048.143-.048.139-.049.136-.05.131-.05.126-.051.123-.051.118-.051.114-.052.11-.052.106-.052.101-.052.096-.052.092-.052.088-.052.083-.052.079-.052.074-.051.07-.052.065-.051.06-.05.056-.05.051-.05.023-.025.023-.024.021-.024.02-.025.019-.024.018-.024.017-.023.015-.024.014-.023.013-.023.012-.023.01-.023.01-.022.008-.022.006-.023.006-.021.004-.022.004-.021.001-.021.001-.021-.001-.021-.001-.021-.004-.021-.004-.022-.006-.021-.006-.023-.008-.022-.01-.022-.01-.023-.012-.023-.013-.023-.014-.023-.015-.024-.017-.023-.018-.024-.019-.024-.02-.025-.021-.024-.023-.024-.023-.025-.051-.05-.056-.05-.06-.05-.065-.051-.07-.052-.074-.051-.079-.052-.083-.052-.088-.052-.092-.052-.096-.052-.101-.052-.106-.052-.11-.052-.114-.052-.118-.051-.123-.051-.126-.051-.131-.05-.136-.05-.139-.049-.143-.048-.148-.048-.152-.048-.155-.046-.16-.046-.163-.045-.168-.043-.172-.043-.175-.042-.179-.041-.183-.04-.187-.038-.191-.038-.194-.036-.198-.034-.202-.033-.205-.032-.21-.031-.212-.028-.216-.027-.22-.026-.224-.023-.226-.022-.231-.021-.233-.018-.237-.016-.241-.014-.244-.012-.247-.011-.25-.008-.254-.005-.257-.004-.26-.001-.26.001z"></path></symbol></defs><defs><symbol id="gb92f6c7e-08f3-47a9-83e5-cb323fa625dc-dark-clock" width="24" height="24"><path transform="scale(.5)" d="M12 2c5.514 0 10 4.486 10 10s-4.486 10-10 10-10-4.486-10-10 4.486-10 10-10zm0-2c-6.627 0-12 5.373-12 12s5.373 12 12 12 12-5.373 12-12-5.373-12-12-12zm5.848 12.459c.202.038.202.333.001.372-1.907.361-6.045 1.111-6.547 1.111-.719 0-1.301-.582-1.301-1.301 0-.512.77-5.447 1.125-7.445.034-.192.312-.181.343.014l.985 6.238 5.394 1.011z"></path></symbol></defs><defs><marker id="gb92f6c7e-08f3-47a9-83e5-cb323fa625dc-dark-arrowhead" refX="7.9" refY="5" markerUnits="userSpaceOnUse" markerWidth="12" markerHeight="12" orient="auto-start-reverse"><path d="M -1 0 L 10 5 L 0 10 z"></path></marker></defs><defs><marker id="gb92f6c7e-08f3-47a9-83e5-cb323fa625dc-dark-crosshead" markerWidth="15" markerHeight="8" orient="auto" refX="4" refY="4.5"><path fill="none" stroke="#000000" stroke-width="1pt" d="M 1,2 L 6,7 M 6,2 L 1,7" style="stroke-dasharray: 0, 0;"></path></marker></defs><defs><marker id="gb92f6c7e-08f3-47a9-83e5-cb323fa625dc-dark-filled-head" refX="15.5" refY="7" markerWidth="20" markerHeight="28" orient="auto"><path d="M 18,7 L9,13 L14,7 L9,1 Z"></path></marker></defs><defs><marker id="gb92f6c7e-08f3-47a9-83e5-cb323fa625dc-dark-sequencenumber" refX="15" refY="15" markerWidth="60" markerHeight="40" orient="auto"><circle cx="15" cy="15" r="6"></circle></marker></defs><defs><marker id="gb92f6c7e-08f3-47a9-83e5-cb323fa625dc-dark-solidTopArrowHead" refX="7.9" refY="7.25" markerUnits="userSpaceOnUse" markerWidth="12" markerHeight="12" orient="auto-start-reverse"><path d="M 0 0 L 10 8 L 0 8 z"></path></marker></defs><defs><marker id="gb92f6c7e-08f3-47a9-83e5-cb323fa625dc-dark-solidBottomArrowHead" refX="7.9" refY="0.75" markerUnits="userSpaceOnUse" markerWidth="12" markerHeight="12" orient="auto-start-reverse"><path d="M 0 0 L 10 0 L 0 8 z"></path></marker></defs><defs><marker id="gb92f6c7e-08f3-47a9-83e5-cb323fa625dc-dark-stickTopArrowHead" refX="7.5" refY="7" markerUnits="userSpaceOnUse" markerWidth="12" markerHeight="12" orient="auto-start-reverse"><path d="M 0 0 L 7 7" stroke="black" stroke-width="1.5" fill="none"></path></marker></defs><defs><marker id="gb92f6c7e-08f3-47a9-83e5-cb323fa625dc-dark-stickBottomArrowHead" refX="7.5" refY="0" markerUnits="userSpaceOnUse" markerWidth="12" markerHeight="12" orient="auto-start-reverse"><path d="M 0 7 L 7 0" stroke="black" stroke-width="1.5" fill="none"></path></marker></defs><text x="198" y="80" text-anchor="middle" dominant-baseline="middle" alignment-baseline="middle" class="messageText" dy="1em" style="font-size: 16px; font-weight: 400;">src = encrypted MSE buffer</text><line x1="76" y1="111" x2="320" y2="111" class="messageLine0" data-et="message" data-id="i0" data-from="App" data-to="Video" stroke-width="2" stroke="none" marker-end="url(#gb92f6c7e-08f3-47a9-83e5-cb323fa625dc-dark-arrowhead)" style="fill: none;"></line><text x="201" y="126" text-anchor="middle" dominant-baseline="middle" alignment-baseline="middle" class="messageText" dy="1em" style="font-size: 16px; font-weight: 400;">encrypted event (initData)</text><line x1="323" y1="157" x2="79" y2="157" class="messageLine1" data-et="message" data-id="i1" data-from="Video" data-to="App" stroke-width="2" stroke="none" marker-end="url(#gb92f6c7e-08f3-47a9-83e5-cb323fa625dc-dark-arrowhead)" style="stroke-dasharray: 3, 3; fill: none;"></line><text x="342" y="172" text-anchor="middle" dominant-baseline="middle" alignment-baseline="middle" class="messageText" dy="1em" style="font-size: 16px; font-weight: 400;">requestMediaKeySystemAccess(keySystem, config)</text><line x1="76" y1="203" x2="608" y2="203" class="messageLine0" data-et="message" data-id="i2" data-from="App" data-to="CDM" stroke-width="2" stroke="none" marker-end="url(#gb92f6c7e-08f3-47a9-83e5-cb323fa625dc-dark-arrowhead)" style="fill: none;"></line><text x="345" y="218" text-anchor="middle" dominant-baseline="middle" alignment-baseline="middle" class="messageText" dy="1em" style="font-size: 16px; font-weight: 400;">MediaKeySystemAccess</text><line x1="611" y1="249" x2="79" y2="249" class="messageLine1" data-et="message" data-id="i3" data-from="CDM" data-to="App" stroke-width="2" stroke="none" marker-end="url(#gb92f6c7e-08f3-47a9-83e5-cb323fa625dc-dark-arrowhead)" style="stroke-dasharray: 3, 3; fill: none;"></line><text x="342" y="264" text-anchor="middle" dominant-baseline="middle" alignment-baseline="middle" class="messageText" dy="1em" style="font-size: 16px; font-weight: 400;">createMediaKeys()</text><line x1="76" y1="295" x2="608" y2="295" class="messageLine0" data-et="message" data-id="i4" data-from="App" data-to="CDM" stroke-width="2" stroke="none" marker-end="url(#gb92f6c7e-08f3-47a9-83e5-cb323fa625dc-dark-arrowhead)" style="fill: none;"></line><text x="345" y="310" text-anchor="middle" dominant-baseline="middle" alignment-baseline="middle" class="messageText" dy="1em" style="font-size: 16px; font-weight: 400;">MediaKeys</text><line x1="611" y1="341" x2="79" y2="341" class="messageLine1" data-et="message" data-id="i5" data-from="CDM" data-to="App" stroke-width="2" stroke="none" marker-end="url(#gb92f6c7e-08f3-47a9-83e5-cb323fa625dc-dark-arrowhead)" style="stroke-dasharray: 3, 3; fill: none;"></line><text x="198" y="356" text-anchor="middle" dominant-baseline="middle" alignment-baseline="middle" class="messageText" dy="1em" style="font-size: 16px; font-weight: 400;">setMediaKeys(mediaKeys)</text><line x1="76" y1="387" x2="320" y2="387" class="messageLine0" data-et="message" data-id="i6" data-from="App" data-to="Video" stroke-width="2" stroke="none" marker-end="url(#gb92f6c7e-08f3-47a9-83e5-cb323fa625dc-dark-arrowhead)" style="fill: none;"></line><text x="342" y="402" text-anchor="middle" dominant-baseline="middle" alignment-baseline="middle" class="messageText" dy="1em" style="font-size: 16px; font-weight: 400;">mediaKeys.createSession(sessionType)</text><line x1="76" y1="433" x2="608" y2="433" class="messageLine0" data-et="message" data-id="i7" data-from="App" data-to="CDM" stroke-width="2" stroke="none" marker-end="url(#gb92f6c7e-08f3-47a9-83e5-cb323fa625dc-dark-arrowhead)" style="fill: none;"></line><text x="345" y="448" text-anchor="middle" dominant-baseline="middle" alignment-baseline="middle" class="messageText" dy="1em" style="font-size: 16px; font-weight: 400;">MediaKeySession</text><line x1="611" y1="479" x2="79" y2="479" class="messageLine1" data-et="message" data-id="i8" data-from="CDM" data-to="App" stroke-width="2" stroke="none" marker-end="url(#gb92f6c7e-08f3-47a9-83e5-cb323fa625dc-dark-arrowhead)" style="stroke-dasharray: 3, 3; fill: none;"></line><text x="342" y="494" text-anchor="middle" dominant-baseline="middle" alignment-baseline="middle" class="messageText" dy="1em" style="font-size: 16px; font-weight: 400;">session.generateRequest(initDataType, initData)</text><line x1="76" y1="525" x2="608" y2="525" class="messageLine0" data-et="message" data-id="i9" data-from="App" data-to="CDM" stroke-width="2" stroke="none" marker-end="url(#gb92f6c7e-08f3-47a9-83e5-cb323fa625dc-dark-arrowhead)" style="fill: none;"></line><text x="345" y="540" text-anchor="middle" dominant-baseline="middle" alignment-baseline="middle" class="messageText" dy="1em" style="font-size: 16px; font-weight: 400;">message event (license request blob)</text><line x1="611" y1="571" x2="79" y2="571" class="messageLine1" data-et="message" data-id="i10" data-from="CDM" data-to="App" stroke-width="2" stroke="none" marker-end="url(#gb92f6c7e-08f3-47a9-83e5-cb323fa625dc-dark-arrowhead)" style="stroke-dasharray: 3, 3; fill: none;"></line><text x="442" y="586" text-anchor="middle" dominant-baseline="middle" alignment-baseline="middle" class="messageText" dy="1em" style="font-size: 16px; font-weight: 400;">POST license request (+ entitlement token)</text><line x1="76" y1="617" x2="808" y2="617" class="messageLine0" data-et="message" data-id="i11" data-from="App" data-to="Server" stroke-width="2" stroke="none" marker-end="url(#gb92f6c7e-08f3-47a9-83e5-cb323fa625dc-dark-arrowhead)" style="fill: none;"></line><text x="445" y="632" text-anchor="middle" dominant-baseline="middle" alignment-baseline="middle" class="messageText" dy="1em" style="font-size: 16px; font-weight: 400;">License response (signed)</text><line x1="811" y1="663" x2="79" y2="663" class="messageLine1" data-et="message" data-id="i12" data-from="Server" data-to="App" stroke-width="2" stroke="none" marker-end="url(#gb92f6c7e-08f3-47a9-83e5-cb323fa625dc-dark-arrowhead)" style="stroke-dasharray: 3, 3; fill: none;"></line><text x="342" y="678" text-anchor="middle" dominant-baseline="middle" alignment-baseline="middle" class="messageText" dy="1em" style="font-size: 16px; font-weight: 400;">session.update(licenseResponse)</text><line x1="76" y1="709" x2="608" y2="709" class="messageLine0" data-et="message" data-id="i13" data-from="App" data-to="CDM" stroke-width="2" stroke="none" marker-end="url(#gb92f6c7e-08f3-47a9-83e5-cb323fa625dc-dark-arrowhead)" style="fill: none;"></line><text x="470" y="724" text-anchor="middle" dominant-baseline="middle" alignment-baseline="middle" class="messageText" dy="1em" style="font-size: 16px; font-weight: 400;">keys installed, decryption enabled</text><line x1="611" y1="755" x2="328" y2="755" class="messageLine1" data-et="message" data-id="i14" data-from="CDM" data-to="Video" stroke-width="2" stroke="none" marker-end="url(#gb92f6c7e-08f3-47a9-83e5-cb323fa625dc-dark-arrowhead)" style="stroke-dasharray: 3, 3; fill: none;"></line><text x="201" y="770" text-anchor="middle" dominant-baseline="middle" alignment-baseline="middle" class="messageText" dy="1em" style="font-size: 16px; font-weight: 400;">playing</text><line x1="323" y1="801" x2="79" y2="801" class="messageLine1" data-et="message" data-id="i15" data-from="Video" data-to="App" stroke-width="2" stroke="none" marker-end="url(#gb92f6c7e-08f3-47a9-83e5-cb323fa625dc-dark-arrowhead)" style="stroke-dasharray: 3, 3; fill: none;"></line></svg>