<svg id="gb7a6c334-2025-4098-ac18-843d4e56df6b-dark" width="100%" xmlns="http://www.w3.org/2000/svg" xmlns:xlink="http://www.w3.org/1999/xlink" class="flowchart" style="max-width: 429.34765625px;" viewBox="0 0 429.34765625 1111.54052734375" role="graphics-document document" aria-roledescription="flowchart-v2"><style>#gb7a6c334-2025-4098-ac18-843d4e56df6b-dark{font-family:"trebuchet ms",verdana,arial,sans-serif;font-size:16px;fill:#e5e5e5;}@keyframes edge-animation-frame{from{stroke-dashoffset:0;}}@keyframes dash{to{stroke-dashoffset:0;}}#gb7a6c334-2025-4098-ac18-843d4e56df6b-dark .edge-animation-slow{stroke-dasharray:9,5!important;stroke-dashoffset:900;animation:dash 50s linear infinite;stroke-linecap:round;}#gb7a6c334-2025-4098-ac18-843d4e56df6b-dark .edge-animation-fast{stroke-dasharray:9,5!important;stroke-dashoffset:900;animation:dash 20s linear infinite;stroke-linecap:round;}#gb7a6c334-2025-4098-ac18-843d4e56df6b-dark .error-icon{fill:#252525;}#gb7a6c334-2025-4098-ac18-843d4e56df6b-dark .error-text{fill:#cccccc;stroke:#cccccc;}#gb7a6c334-2025-4098-ac18-843d4e56df6b-dark .edge-thickness-normal{stroke-width:1px;}#gb7a6c334-2025-4098-ac18-843d4e56df6b-dark .edge-thickness-thick{stroke-width:3.5px;}#gb7a6c334-2025-4098-ac18-843d4e56df6b-dark .edge-pattern-solid{stroke-dasharray:0;}#gb7a6c334-2025-4098-ac18-843d4e56df6b-dark .edge-thickness-invisible{stroke-width:0;fill:none;}#gb7a6c334-2025-4098-ac18-843d4e56df6b-dark .edge-pattern-dashed{stroke-dasharray:3;}#gb7a6c334-2025-4098-ac18-843d4e56df6b-dark .edge-pattern-dotted{stroke-dasharray:2;}#gb7a6c334-2025-4098-ac18-843d4e56df6b-dark .marker{fill:#cccccc;stroke:#cccccc;}#gb7a6c334-2025-4098-ac18-843d4e56df6b-dark .marker.cross{stroke:#cccccc;}#gb7a6c334-2025-4098-ac18-843d4e56df6b-dark svg{font-family:"trebuchet ms",verdana,arial,sans-serif;font-size:16px;}#gb7a6c334-2025-4098-ac18-843d4e56df6b-dark p{margin:0;}#gb7a6c334-2025-4098-ac18-843d4e56df6b-dark .label{font-family:"trebuchet ms",verdana,arial,sans-serif;color:#e5e5e5;}#gb7a6c334-2025-4098-ac18-843d4e56df6b-dark .cluster-label text{fill:#e5e5e5;}#gb7a6c334-2025-4098-ac18-843d4e56df6b-dark .cluster-label span{color:#e5e5e5;}#gb7a6c334-2025-4098-ac18-843d4e56df6b-dark .cluster-label span p{background-color:transparent;}#gb7a6c334-2025-4098-ac18-843d4e56df6b-dark .label text,#gb7a6c334-2025-4098-ac18-843d4e56df6b-dark span{fill:#e5e5e5;color:#e5e5e5;}#gb7a6c334-2025-4098-ac18-843d4e56df6b-dark .node rect,#gb7a6c334-2025-4098-ac18-843d4e56df6b-dark .node circle,#gb7a6c334-2025-4098-ac18-843d4e56df6b-dark .node ellipse,#gb7a6c334-2025-4098-ac18-843d4e56df6b-dark .node polygon,#gb7a6c334-2025-4098-ac18-843d4e56df6b-dark .node path{fill:#2d2d2d;stroke:#555555;stroke-width:1px;}#gb7a6c334-2025-4098-ac18-843d4e56df6b-dark .rough-node .label text,#gb7a6c334-2025-4098-ac18-843d4e56df6b-dark .node .label text,#gb7a6c334-2025-4098-ac18-843d4e56df6b-dark .image-shape .label,#gb7a6c334-2025-4098-ac18-843d4e56df6b-dark .icon-shape .label{text-anchor:middle;}#gb7a6c334-2025-4098-ac18-843d4e56df6b-dark .node .katex path{fill:#000;stroke:#000;stroke-width:1px;}#gb7a6c334-2025-4098-ac18-843d4e56df6b-dark .rough-node .label,#gb7a6c334-2025-4098-ac18-843d4e56df6b-dark .node .label,#gb7a6c334-2025-4098-ac18-843d4e56df6b-dark .image-shape .label,#gb7a6c334-2025-4098-ac18-843d4e56df6b-dark .icon-shape .label{text-align:center;}#gb7a6c334-2025-4098-ac18-843d4e56df6b-dark .node.clickable{cursor:pointer;}#gb7a6c334-2025-4098-ac18-843d4e56df6b-dark .root .anchor path{fill:#cccccc!important;stroke-width:0;stroke:#cccccc;}#gb7a6c334-2025-4098-ac18-843d4e56df6b-dark .arrowheadPath{fill:#cccccc;}#gb7a6c334-2025-4098-ac18-843d4e56df6b-dark .edgePath .path{stroke:#cccccc;stroke-width:1px;}#gb7a6c334-2025-4098-ac18-843d4e56df6b-dark .flowchart-link{stroke:#cccccc;fill:none;}#gb7a6c334-2025-4098-ac18-843d4e56df6b-dark .edgeLabel{background-color:#1e1e1e;text-align:center;}#gb7a6c334-2025-4098-ac18-843d4e56df6b-dark .edgeLabel p{background-color:#1e1e1e;}#gb7a6c334-2025-4098-ac18-843d4e56df6b-dark .edgeLabel rect{opacity:0.5;background-color:#1e1e1e;fill:#1e1e1e;}#gb7a6c334-2025-4098-ac18-843d4e56df6b-dark .labelBkg{background-color:rgba(30, 30, 30, 0.5);}#gb7a6c334-2025-4098-ac18-843d4e56df6b-dark .cluster rect{fill:#1e1e1e;stroke:#555555;stroke-width:1px;}#gb7a6c334-2025-4098-ac18-843d4e56df6b-dark .cluster text{fill:#e5e5e5;}#gb7a6c334-2025-4098-ac18-843d4e56df6b-dark .cluster span{color:#e5e5e5;}#gb7a6c334-2025-4098-ac18-843d4e56df6b-dark div.mermaidTooltip{position:absolute;text-align:center;max-width:200px;padding:2px;font-family:"trebuchet ms",verdana,arial,sans-serif;font-size:12px;background:#252525;border:1px solid #555555;border-radius:2px;pointer-events:none;z-index:100;}#gb7a6c334-2025-4098-ac18-843d4e56df6b-dark .flowchartTitleText{text-anchor:middle;font-size:18px;fill:#e5e5e5;}#gb7a6c334-2025-4098-ac18-843d4e56df6b-dark rect.text{fill:none;stroke-width:0;}#gb7a6c334-2025-4098-ac18-843d4e56df6b-dark .icon-shape,#gb7a6c334-2025-4098-ac18-843d4e56df6b-dark .image-shape{background-color:#1e1e1e;text-align:center;}#gb7a6c334-2025-4098-ac18-843d4e56df6b-dark .icon-shape p,#gb7a6c334-2025-4098-ac18-843d4e56df6b-dark .image-shape p{background-color:#1e1e1e;padding:2px;}#gb7a6c334-2025-4098-ac18-843d4e56df6b-dark .icon-shape .label rect,#gb7a6c334-2025-4098-ac18-843d4e56df6b-dark .image-shape .label rect{opacity:0.5;background-color:#1e1e1e;fill:#1e1e1e;}#gb7a6c334-2025-4098-ac18-843d4e56df6b-dark .label-icon{display:inline-block;height:1em;overflow:visible;vertical-align:-0.125em;}#gb7a6c334-2025-4098-ac18-843d4e56df6b-dark .node .label-icon path{fill:currentColor;stroke:revert;stroke-width:revert;}#gb7a6c334-2025-4098-ac18-843d4e56df6b-dark .node .neo-node{stroke:#555555;}#gb7a6c334-2025-4098-ac18-843d4e56df6b-dark [data-look="neo"].node rect,#gb7a6c334-2025-4098-ac18-843d4e56df6b-dark [data-look="neo"].cluster rect,#gb7a6c334-2025-4098-ac18-843d4e56df6b-dark [data-look="neo"].node polygon{stroke:url(#gb7a6c334-2025-4098-ac18-843d4e56df6b-dark-gradient);filter:drop-shadow( 1px 2px 2px rgba(185,185,185,1));}#gb7a6c334-2025-4098-ac18-843d4e56df6b-dark [data-look="neo"].node path{stroke:url(#gb7a6c334-2025-4098-ac18-843d4e56df6b-dark-gradient);stroke-width:1px;}#gb7a6c334-2025-4098-ac18-843d4e56df6b-dark [data-look="neo"].node .outer-path{filter:drop-shadow( 1px 2px 2px rgba(185,185,185,1));}#gb7a6c334-2025-4098-ac18-843d4e56df6b-dark [data-look="neo"].node .neo-line path{stroke:#555555;filter:none;}#gb7a6c334-2025-4098-ac18-843d4e56df6b-dark [data-look="neo"].node circle{stroke:url(#gb7a6c334-2025-4098-ac18-843d4e56df6b-dark-gradient);filter:drop-shadow( 1px 2px 2px rgba(185,185,185,1));}#gb7a6c334-2025-4098-ac18-843d4e56df6b-dark [data-look="neo"].node circle .state-start{fill:#000000;}#gb7a6c334-2025-4098-ac18-843d4e56df6b-dark [data-look="neo"].icon-shape .icon{fill:url(#gb7a6c334-2025-4098-ac18-843d4e56df6b-dark-gradient);filter:drop-shadow( 1px 2px 2px rgba(185,185,185,1));}#gb7a6c334-2025-4098-ac18-843d4e56df6b-dark [data-look="neo"].icon-shape .icon-neo path{stroke:url(#gb7a6c334-2025-4098-ac18-843d4e56df6b-dark-gradient);filter:drop-shadow( 1px 2px 2px rgba(185,185,185,1));}#gb7a6c334-2025-4098-ac18-843d4e56df6b-dark :root{--mermaid-font-family:"trebuchet ms",verdana,arial,sans-serif;}#gb7a6c334-2025-4098-ac18-843d4e56df6b-dark .pri rect{fill:#2E5A88!important;stroke:#1F4870!important;color:#ffffff!important;}#gb7a6c334-2025-4098-ac18-843d4e56df6b-dark .pri polygon{fill:#2E5A88!important;stroke:#1F4870!important;color:#ffffff!important;}#gb7a6c334-2025-4098-ac18-843d4e56df6b-dark .pri ellipse{fill:#2E5A88!important;stroke:#1F4870!important;color:#ffffff!important;}#gb7a6c334-2025-4098-ac18-843d4e56df6b-dark .pri circle{fill:#2E5A88!important;stroke:#1F4870!important;color:#ffffff!important;}#gb7a6c334-2025-4098-ac18-843d4e56df6b-dark .pri path{fill:#2E5A88!important;stroke:#1F4870!important;color:#ffffff!important;}#gb7a6c334-2025-4098-ac18-843d4e56df6b-dark .pri tspan{fill:#ffffff!important;}#gb7a6c334-2025-4098-ac18-843d4e56df6b-dark .sec rect{fill:#1F6E68!important;stroke:#155752!important;color:#ffffff!important;}#gb7a6c334-2025-4098-ac18-843d4e56df6b-dark .sec polygon{fill:#1F6E68!important;stroke:#155752!important;color:#ffffff!important;}#gb7a6c334-2025-4098-ac18-843d4e56df6b-dark .sec ellipse{fill:#1F6E68!important;stroke:#155752!important;color:#ffffff!important;}#gb7a6c334-2025-4098-ac18-843d4e56df6b-dark .sec circle{fill:#1F6E68!important;stroke:#155752!important;color:#ffffff!important;}#gb7a6c334-2025-4098-ac18-843d4e56df6b-dark .sec path{fill:#1F6E68!important;stroke:#155752!important;color:#ffffff!important;}#gb7a6c334-2025-4098-ac18-843d4e56df6b-dark .sec tspan{fill:#ffffff!important;}#gb7a6c334-2025-4098-ac18-843d4e56df6b-dark .warn rect{fill:#B43A3A!important;stroke:#8E2828!important;color:#ffffff!important;}#gb7a6c334-2025-4098-ac18-843d4e56df6b-dark .warn polygon{fill:#B43A3A!important;stroke:#8E2828!important;color:#ffffff!important;}#gb7a6c334-2025-4098-ac18-843d4e56df6b-dark .warn ellipse{fill:#B43A3A!important;stroke:#8E2828!important;color:#ffffff!important;}#gb7a6c334-2025-4098-ac18-843d4e56df6b-dark .warn circle{fill:#B43A3A!important;stroke:#8E2828!important;color:#ffffff!important;}#gb7a6c334-2025-4098-ac18-843d4e56df6b-dark .warn path{fill:#B43A3A!important;stroke:#8E2828!important;color:#ffffff!important;}#gb7a6c334-2025-4098-ac18-843d4e56df6b-dark .warn tspan{fill:#ffffff!important;}#gb7a6c334-2025-4098-ac18-843d4e56df6b-dark .ok rect{fill:#2D7A2D!important;stroke:#1E5A1E!important;color:#ffffff!important;}#gb7a6c334-2025-4098-ac18-843d4e56df6b-dark .ok polygon{fill:#2D7A2D!important;stroke:#1E5A1E!important;color:#ffffff!important;}#gb7a6c334-2025-4098-ac18-843d4e56df6b-dark .ok ellipse{fill:#2D7A2D!important;stroke:#1E5A1E!important;color:#ffffff!important;}#gb7a6c334-2025-4098-ac18-843d4e56df6b-dark .ok circle{fill:#2D7A2D!important;stroke:#1E5A1E!important;color:#ffffff!important;}#gb7a6c334-2025-4098-ac18-843d4e56df6b-dark .ok path{fill:#2D7A2D!important;stroke:#1E5A1E!important;color:#ffffff!important;}#gb7a6c334-2025-4098-ac18-843d4e56df6b-dark .ok tspan{fill:#ffffff!important;}</style><g><marker id="gb7a6c334-2025-4098-ac18-843d4e56df6b-dark_flowchart-v2-pointEnd" class="marker flowchart-v2" viewBox="0 0 10 10" refX="5" refY="5" markerUnits="userSpaceOnUse" markerWidth="8" markerHeight="8" orient="auto"><path d="M 0 0 L 10 5 L 0 10 z" class="arrowMarkerPath" style="stroke-width: 1; stroke-dasharray: 1, 0;"></path></marker><marker id="gb7a6c334-2025-4098-ac18-843d4e56df6b-dark_flowchart-v2-pointStart" class="marker flowchart-v2" viewBox="0 0 10 10" refX="4.5" refY="5" markerUnits="userSpaceOnUse" markerWidth="8" markerHeight="8" orient="auto"><path d="M 0 5 L 10 10 L 10 0 z" class="arrowMarkerPath" style="stroke-width: 1; stroke-dasharray: 1, 0;"></path></marker><marker id="gb7a6c334-2025-4098-ac18-843d4e56df6b-dark_flowchart-v2-pointEnd-margin" class="marker flowchart-v2" viewBox="0 0 11.5 14" refX="11.5" refY="7" markerUnits="userSpaceOnUse" markerWidth="10.5" markerHeight="14" orient="auto"><path d="M 0 0 L 11.5 7 L 0 14 z" class="arrowMarkerPath" style="stroke-width: 0; stroke-dasharray: 1, 0;"></path></marker><marker id="gb7a6c334-2025-4098-ac18-843d4e56df6b-dark_flowchart-v2-pointStart-margin" class="marker flowchart-v2" viewBox="0 0 11.5 14" refX="1" refY="7" markerUnits="userSpaceOnUse" markerWidth="11.5" markerHeight="14" orient="auto"><polygon points="0,7 11.5,14 11.5,0" class="arrowMarkerPath" style="stroke-width: 0; stroke-dasharray: 1, 0;"></polygon></marker><marker id="gb7a6c334-2025-4098-ac18-843d4e56df6b-dark_flowchart-v2-circleEnd" class="marker flowchart-v2" viewBox="0 0 10 10" refX="11" refY="5" markerUnits="userSpaceOnUse" markerWidth="11" markerHeight="11" orient="auto"><circle cx="5" cy="5" r="5" class="arrowMarkerPath" style="stroke-width: 1; stroke-dasharray: 1, 0;"></circle></marker><marker id="gb7a6c334-2025-4098-ac18-843d4e56df6b-dark_flowchart-v2-circleStart" class="marker flowchart-v2" viewBox="0 0 10 10" refX="-1" refY="5" markerUnits="userSpaceOnUse" markerWidth="11" markerHeight="11" orient="auto"><circle cx="5" cy="5" r="5" class="arrowMarkerPath" style="stroke-width: 1; stroke-dasharray: 1, 0;"></circle></marker><marker id="gb7a6c334-2025-4098-ac18-843d4e56df6b-dark_flowchart-v2-circleEnd-margin" class="marker flowchart-v2" viewBox="0 0 10 10" refY="5" refX="12.25" markerUnits="userSpaceOnUse" markerWidth="14" markerHeight="14" orient="auto"><circle cx="5" cy="5" r="5" class="arrowMarkerPath" style="stroke-width: 0; stroke-dasharray: 1, 0;"></circle></marker><marker id="gb7a6c334-2025-4098-ac18-843d4e56df6b-dark_flowchart-v2-circleStart-margin" class="marker flowchart-v2" viewBox="0 0 10 10" refX="-2" refY="5" markerUnits="userSpaceOnUse" markerWidth="14" markerHeight="14" orient="auto"><circle cx="5" cy="5" r="5" class="arrowMarkerPath" style="stroke-width: 0; stroke-dasharray: 1, 0;"></circle></marker><marker id="gb7a6c334-2025-4098-ac18-843d4e56df6b-dark_flowchart-v2-crossEnd" class="marker cross flowchart-v2" viewBox="0 0 11 11" refX="12" refY="5.2" markerUnits="userSpaceOnUse" markerWidth="11" markerHeight="11" orient="auto"><path d="M 1,1 l 9,9 M 10,1 l -9,9" class="arrowMarkerPath" style="stroke-width: 2; stroke-dasharray: 1, 0;"></path></marker><marker id="gb7a6c334-2025-4098-ac18-843d4e56df6b-dark_flowchart-v2-crossStart" class="marker cross flowchart-v2" viewBox="0 0 11 11" refX="-1" refY="5.2" markerUnits="userSpaceOnUse" markerWidth="11" markerHeight="11" orient="auto"><path d="M 1,1 l 9,9 M 10,1 l -9,9" class="arrowMarkerPath" style="stroke-width: 2; stroke-dasharray: 1, 0;"></path></marker><marker id="gb7a6c334-2025-4098-ac18-843d4e56df6b-dark_flowchart-v2-crossEnd-margin" class="marker cross flowchart-v2" viewBox="0 0 15 15" refX="17.7" refY="7.5" markerUnits="userSpaceOnUse" markerWidth="12" markerHeight="12" orient="auto"><path d="M 1,1 L 14,14 M 1,14 L 14,1" class="arrowMarkerPath" style="stroke-width: 2.5;"></path></marker><marker id="gb7a6c334-2025-4098-ac18-843d4e56df6b-dark_flowchart-v2-crossStart-margin" class="marker cross flowchart-v2" viewBox="0 0 15 15" refX="-3.5" refY="7.5" markerUnits="userSpaceOnUse" markerWidth="12" markerHeight="12" orient="auto"><path d="M 1,1 L 14,14 M 1,14 L 14,1" class="arrowMarkerPath" style="stroke-width: 2.5; stroke-dasharray: 1, 0;"></path></marker><g class="root"><g class="clusters"></g><g class="edgePaths"><path d="M244.8,130.833L253.48,142.475C262.16,154.118,279.519,177.403,288.199,194.462C296.879,211.521,296.879,222.354,296.879,227.771L296.879,233.188" id="gb7a6c334-2025-4098-ac18-843d4e56df6b-dark-L_q1_internal_0" class="edge-thickness-normal edge-pattern-solid edge-thickness-normal edge-pattern-solid flowchart-link" style=";" data-edge="true" data-et="edge" data-id="L_q1_internal_0" data-points="W3sieCI6MjQ0Ljc5OTkwMDg2MTk0MjcyLCJ5IjoxMzAuODMyOTExNjM4MDU3Mjh9LHsieCI6Mjk2Ljg3ODkwNjI1LCJ5IjoyMDAuNjg3NX0seyJ4IjoyOTYuODc4OTA2MjUsInkiOjIzNy4xODc1fV0=" data-look="classic" marker-end="url(#gb7a6c334-2025-4098-ac18-843d4e56df6b-dark_flowchart-v2-pointEnd)"></path><path d="M178.091,130.833L169.411,142.475C160.731,154.118,143.371,177.403,134.692,200.678C126.012,223.954,126.012,247.221,126.012,268.571C126.012,289.921,126.012,309.354,133.492,329.063C140.971,348.773,155.931,368.758,163.411,378.75L170.891,388.743" id="gb7a6c334-2025-4098-ac18-843d4e56df6b-dark-L_q1_q2_0" class="edge-thickness-normal edge-pattern-solid edge-thickness-normal edge-pattern-solid flowchart-link" style=";" data-edge="true" data-et="edge" data-id="L_q1_q2_0" data-points="W3sieCI6MTc4LjA5MDcyNDEzODA1NzI4LCJ5IjoxMzAuODMyOTExNjM4MDU3Mjh9LHsieCI6MTI2LjAxMTcxODc1LCJ5IjoyMDAuNjg3NX0seyJ4IjoxMjYuMDExNzE4NzUsInkiOjI3MC40ODc0OTkyMzcwNjA1NX0seyJ4IjoxMjYuMDExNzE4NzUsInkiOjMyOC43ODc0OTg0NzQxMjExfSx7IngiOjE3My4yODc5MDU5NzA0NjMzLCJ5IjozOTEuOTQ0OTA1MDAzNjU3OH1d" data-look="classic" marker-end="url(#gb7a6c334-2025-4098-ac18-843d4e56df6b-dark_flowchart-v2-pointEnd)"></path><path d="M296.879,303.787L296.879,307.954C296.879,312.121,296.879,320.454,289.399,334.613C281.919,348.773,266.959,368.758,259.48,378.75L252,388.743" id="gb7a6c334-2025-4098-ac18-843d4e56df6b-dark-L_internal_q2_0" class="edge-thickness-normal edge-pattern-solid edge-thickness-normal edge-pattern-solid flowchart-link" style=";" data-edge="true" data-et="edge" data-id="L_internal_q2_0" data-points="W3sieCI6Mjk2Ljg3ODkwNjI1LCJ5IjozMDMuNzg3NDk4NDc0MTIxMX0seyJ4IjoyOTYuODc4OTA2MjUsInkiOjMyOC43ODc0OTg0NzQxMjExfSx7IngiOjI0OS42MDI3MTkwMjk1MzY3LCJ5IjozOTEuOTQ0OTA1MDAzNjU3Nzd9XQ==" data-look="classic" marker-end="url(#gb7a6c334-2025-4098-ac18-843d4e56df6b-dark_flowchart-v2-pointEnd)"></path><path d="M168.711,489.319L156.548,502.525C144.386,515.73,120.06,542.142,107.897,560.764C95.734,579.386,95.734,590.22,95.734,595.636L95.734,601.053" id="gb7a6c334-2025-4098-ac18-843d4e56df6b-dark-L_q2_policy_0" class="edge-thickness-normal edge-pattern-solid edge-thickness-normal edge-pattern-solid flowchart-link" style=";" data-edge="true" data-et="edge" data-id="L_q2_policy_0" data-points="W3sieCI6MTY4LjcxMTA3NDMxNzM3OTg4LCJ5Ijo0ODkuMzE4ODg1MjkxNTAxfSx7IngiOjk1LjczNDM3NSwieSI6NTY4LjU1MzEyMzQ3NDEyMTF9LHsieCI6OTUuNzM0Mzc1LCJ5Ijo2MDUuMDUzMTIzNDc0MTIxMX1d" data-look="classic" marker-end="url(#gb7a6c334-2025-4098-ac18-843d4e56df6b-dark_flowchart-v2-pointEnd)"></path><path d="M254.18,489.319L266.342,502.525C278.505,515.73,302.831,542.142,314.993,560.764C327.156,579.386,327.156,590.22,327.156,595.636L327.156,601.053" id="gb7a6c334-2025-4098-ac18-843d4e56df6b-dark-L_q2_canary_0" class="edge-thickness-normal edge-pattern-solid edge-thickness-normal edge-pattern-solid flowchart-link" style=";" data-edge="true" data-et="edge" data-id="L_q2_canary_0" data-points="W3sieCI6MjU0LjE3OTU1MDY4MjYyMDEsInkiOjQ4OS4zMTg4ODUyOTE1MDF9LHsieCI6MzI3LjE1NjI1LCJ5Ijo1NjguNTUzMTIzNDc0MTIxMX0seyJ4IjozMjcuMTU2MjUsInkiOjYwNS4wNTMxMjM0NzQxMjExfV0=" data-look="classic" marker-end="url(#gb7a6c334-2025-4098-ac18-843d4e56df6b-dark_flowchart-v2-pointEnd)"></path><path d="M95.734,671.653L95.734,675.82C95.734,679.986,95.734,688.32,108.077,702.657C120.42,716.994,145.106,737.335,157.449,747.505L169.792,757.675" id="gb7a6c334-2025-4098-ac18-843d4e56df6b-dark-L_policy_q3_0" class="edge-thickness-normal edge-pattern-solid edge-thickness-normal edge-pattern-solid flowchart-link" style=";" data-edge="true" data-et="edge" data-id="L_policy_q3_0" data-points="W3sieCI6OTUuNzM0Mzc1LCJ5Ijo2NzEuNjUzMTIxOTQ4MjQyMn0seyJ4Ijo5NS43MzQzNzUsInkiOjY5Ni42NTMxMjE5NDgyNDIyfSx7IngiOjE3Mi44NzkyODMyMTA3MTYyNywieSI6NzYwLjIxOTE1MTIzNzUyNTl9XQ==" data-look="classic" marker-end="url(#gb7a6c334-2025-4098-ac18-843d4e56df6b-dark_flowchart-v2-pointEnd)"></path><path d="M327.156,671.653L327.156,675.82C327.156,679.986,327.156,688.32,314.813,702.657C302.47,716.994,277.784,737.335,265.441,747.505L253.098,757.675" id="gb7a6c334-2025-4098-ac18-843d4e56df6b-dark-L_canary_q3_0" class="edge-thickness-normal edge-pattern-solid edge-thickness-normal edge-pattern-solid flowchart-link" style=";" data-edge="true" data-et="edge" data-id="L_canary_q3_0" data-points="W3sieCI6MzI3LjE1NjI1LCJ5Ijo2NzEuNjUzMTIxOTQ4MjQyMn0seyJ4IjozMjcuMTU2MjUsInkiOjY5Ni42NTMxMjE5NDgyNDIyfSx7IngiOjI1MC4wMTEzNDE3ODkyODM3MywieSI6NzYwLjIxOTE1MTIzNzUyNTl9XQ==" data-look="classic" marker-end="url(#gb7a6c334-2025-4098-ac18-843d4e56df6b-dark_flowchart-v2-pointEnd)"></path><path d="M175.997,826.892L163.815,838.883C151.633,850.875,127.27,874.858,115.088,892.266C102.906,909.674,102.906,920.507,102.906,925.924L102.906,931.341" id="gb7a6c334-2025-4098-ac18-843d4e56df6b-dark-L_q3_block_0" class="edge-thickness-normal edge-pattern-solid edge-thickness-normal edge-pattern-solid flowchart-link" style=";" data-edge="true" data-et="edge" data-id="L_q3_block_0" data-points="W3sieCI6MTc1Ljk5NjU5NDA1NzE4Mzc4LCJ5Ijo4MjYuODkxOTAzNTA1NDI2fSx7IngiOjEwMi45MDYyNSwieSI6ODk4Ljg0MDYyMTk0ODI0MjJ9LHsieCI6MTAyLjkwNjI1LCJ5Ijo5MzUuMzQwNjIxOTQ4MjQyMn1d" data-look="classic" marker-end="url(#gb7a6c334-2025-4098-ac18-843d4e56df6b-dark_flowchart-v2-pointEnd)"></path><path d="M246.894,826.892L259.076,838.883C271.257,850.875,295.621,874.858,307.803,892.266C319.984,909.674,319.984,920.507,319.984,925.924L319.984,931.341" id="gb7a6c334-2025-4098-ac18-843d4e56df6b-dark-L_q3_allow_0" class="edge-thickness-normal edge-pattern-solid edge-thickness-normal edge-pattern-solid flowchart-link" style=";" data-edge="true" data-et="edge" data-id="L_q3_allow_0" data-points="W3sieCI6MjQ2Ljg5NDAzMDk0MjgxNjIyLCJ5Ijo4MjYuODkxOTAzNTA1NDI2fSx7IngiOjMxOS45ODQzNzUsInkiOjg5OC44NDA2MjE5NDgyNDIyfSx7IngiOjMxOS45ODQzNzUsInkiOjkzNS4zNDA2MjE5NDgyNDIyfV0=" data-look="classic" marker-end="url(#gb7a6c334-2025-4098-ac18-843d4e56df6b-dark_flowchart-v2-pointEnd)"></path><path d="M102.906,1001.941L102.906,1006.107C102.906,1010.274,102.906,1018.607,111.289,1026.739C119.673,1034.871,136.439,1042.8,144.822,1046.765L153.205,1050.73" id="gb7a6c334-2025-4098-ac18-843d4e56df6b-dark-L_block_done_0" class="edge-thickness-normal edge-pattern-solid edge-thickness-normal edge-pattern-solid flowchart-link" style=";" data-edge="true" data-et="edge" data-id="L_block_done_0" data-points="W3sieCI6MTAyLjkwNjI1LCJ5IjoxMDAxLjk0MDYyMDQyMjM2MzN9LHsieCI6MTAyLjkwNjI1LCJ5IjoxMDI2Ljk0MDYyMDQyMjM2MzN9LHsieCI6MTU2LjgyMTE0Mzc2NDgwOTgyLCJ5IjoxMDUyLjQ0MDYyMDQyMjM2MzV9XQ==" data-look="classic" marker-end="url(#gb7a6c334-2025-4098-ac18-843d4e56df6b-dark_flowchart-v2-pointEnd)"></path><path d="M319.984,1001.941L319.984,1006.107C319.984,1010.274,319.984,1018.607,311.766,1026.735C303.547,1034.862,287.11,1042.783,278.891,1046.744L270.673,1050.704" id="gb7a6c334-2025-4098-ac18-843d4e56df6b-dark-L_allow_done_0" class="edge-thickness-normal edge-pattern-solid edge-thickness-normal edge-pattern-solid flowchart-link" style=";" data-edge="true" data-et="edge" data-id="L_allow_done_0" data-points="W3sieCI6MzE5Ljk4NDM3NSwieSI6MTAwMS45NDA2MjA0MjIzNjMzfSx7IngiOjMxOS45ODQzNzUsInkiOjEwMjYuOTQwNjIwNDIyMzYzM30seyJ4IjoyNjcuMDY5NDgxMjM1MTkwMDQsInkiOjEwNTIuNDQwNjIwNDIyMzYzNX1d" data-look="classic" marker-end="url(#gb7a6c334-2025-4098-ac18-843d4e56df6b-dark_flowchart-v2-pointEnd)"></path></g><g class="edgeLabels"><g class="edgeLabel" transform="translate(296.87890625, 200.6875)"><g class="label" data-id="L_q1_internal_0" transform="translate(0, -10.5)"><g><rect class="background" style="" x="-13.328125" y="-1" width="26.65625" height="23"></rect><text y="-10.1" text-anchor="middle" style=""><tspan class="text-outer-tspan row" x="0" y="-0.1em" dy="1.1em" text-anchor="middle"><tspan font-style="normal" class="text-inner-tspan" font-weight="normal">Yes</tspan></tspan></text></g></g></g><g class="edgeLabel" transform="translate(126.01171875, 270.48749923706055)"><g class="label" data-id="L_q1_q2_0" transform="translate(0, -10.5)"><g><rect class="background" style="" x="-11.3984375" y="-1" width="22.796875" height="23"></rect><text y="-10.1" text-anchor="middle" style=""><tspan class="text-outer-tspan row" x="0" y="-0.1em" dy="1.1em" text-anchor="middle"><tspan font-style="normal" class="text-inner-tspan" font-weight="normal">No</tspan></tspan></text></g></g></g><g class="edgeLabel"><g class="label" data-id="L_internal_q2_0" transform="translate(0, 0)"><text y="-10.1" text-anchor="middle"><tspan class="text-outer-tspan row" x="0" y="-0.1em" dy="1.1em" text-anchor="middle"></tspan></text></g></g><g><rect class="background" style="stroke: none"></rect></g><g class="edgeLabel" transform="translate(95.734375, 568.5531234741211)"><g class="label" data-id="L_q2_policy_0" transform="translate(0, -10.5)"><g><rect class="background" style="" x="-13.328125" y="-1" width="26.65625" height="23"></rect><text y="-10.1" text-anchor="middle" style=""><tspan class="text-outer-tspan row" x="0" y="-0.1em" dy="1.1em" text-anchor="middle"><tspan font-style="normal" class="text-inner-tspan" font-weight="normal">Yes</tspan></tspan></text></g></g></g><g class="edgeLabel" transform="translate(327.15625, 568.5531234741211)"><g class="label" data-id="L_q2_canary_0" transform="translate(0, -10.5)"><g><rect class="background" style="" x="-11.3984375" y="-1" width="22.796875" height="23"></rect><text y="-10.1" text-anchor="middle" style=""><tspan class="text-outer-tspan row" x="0" y="-0.1em" dy="1.1em" text-anchor="middle"><tspan font-style="normal" class="text-inner-tspan" font-weight="normal">No</tspan></tspan></text></g></g></g><g class="edgeLabel"><g class="label" data-id="L_policy_q3_0" transform="translate(0, 0)"><text y="-10.1" text-anchor="middle"><tspan class="text-outer-tspan row" x="0" y="-0.1em" dy="1.1em" text-anchor="middle"></tspan></text></g></g><g><rect class="background" style="stroke: none"></rect></g><g class="edgeLabel"><g class="label" data-id="L_canary_q3_0" transform="translate(0, 0)"><text y="-10.1" text-anchor="middle"><tspan class="text-outer-tspan row" x="0" y="-0.1em" dy="1.1em" text-anchor="middle"></tspan></text></g></g><g><rect class="background" style="stroke: none"></rect></g><g class="edgeLabel" transform="translate(102.90625, 898.8406219482422)"><g class="label" data-id="L_q3_block_0" transform="translate(0, -10.5)"><g><rect class="background" style="" x="-13.328125" y="-1" width="26.65625" height="23"></rect><text y="-10.1" text-anchor="middle" style=""><tspan class="text-outer-tspan row" x="0" y="-0.1em" dy="1.1em" text-anchor="middle"><tspan font-style="normal" class="text-inner-tspan" font-weight="normal">Yes</tspan></tspan></text></g></g></g><g class="edgeLabel" transform="translate(319.984375, 898.8406219482422)"><g class="label" data-id="L_q3_allow_0" transform="translate(0, -10.5)"><g><rect class="background" style="" x="-11.3984375" y="-1" width="22.796875" height="23"></rect><text y="-10.1" text-anchor="middle" style=""><tspan class="text-outer-tspan row" x="0" y="-0.1em" dy="1.1em" text-anchor="middle"><tspan font-style="normal" class="text-inner-tspan" font-weight="normal">No</tspan></tspan></text></g></g></g><g class="edgeLabel"><g class="label" data-id="L_block_done_0" transform="translate(0, 0)"><text y="-10.1" text-anchor="middle"><tspan class="text-outer-tspan row" x="0" y="-0.1em" dy="1.1em" text-anchor="middle"></tspan></text></g></g><g><rect class="background" style="stroke: none"></rect></g><g class="edgeLabel"><g class="label" data-id="L_allow_done_0" transform="translate(0, 0)"><text y="-10.1" text-anchor="middle"><tspan class="text-outer-tspan row" x="0" y="-0.1em" dy="1.1em" text-anchor="middle"></tspan></text></g></g><g><rect class="background" style="stroke: none"></rect></g></g><g class="nodes"><g class="node default" id="gb7a6c334-2025-4098-ac18-843d4e56df6b-dark-flowchart-q1-0" data-look="classic" transform="translate(211.4453125, 86.09375)"><polygon points="78.09375,0 156.1875,-78.09375 78.09375,-156.1875 0,-78.09375" class="label-container" transform="translate(-77.59375, 78.09375)"></polygon><g class="label" style="" transform="translate(0, -9.5)"><rect></rect><g><rect class="background" style="stroke: none"></rect><text y="-10.1" style=""><tspan class="text-outer-tspan row" x="0" y="-0.1em" dy="1.1em"><tspan font-style="normal" class="text-inner-tspan" font-weight="normal">Internal</tspan><tspan font-style="normal" class="text-inner-tspan" font-weight="normal"> zones?</tspan></tspan></text></g></g></g><g class="node default pri" id="gb7a6c334-2025-4098-ac18-843d4e56df6b-dark-flowchart-internal-1" data-look="classic" transform="translate(296.87890625, 270.48749923706055)"><rect class="basic label-container" style="fill:#2E5A88 !important;stroke:#1F4870 !important" x="-124.46875" y="-33.29999923706055" width="248.9375" height="66.5999984741211"></rect><g class="label" style="color:#ffffff !important" transform="translate(0, -18.299999237060547)"><rect></rect><g><rect class="background" style="stroke: none"></rect><text y="-10.1" style="fill:#404040 !important"><tspan class="text-outer-tspan row" x="0" y="-0.1em" dy="1.1em"><tspan font-style="normal" class="text-inner-tspan" font-weight="normal">Internal</tspan><tspan font-style="normal" class="text-inner-tspan" font-weight="normal"> recursive</tspan><tspan font-style="normal" class="text-inner-tspan" font-weight="normal"> resolver</tspan></tspan><tspan class="text-outer-tspan row" x="0" y="1em" dy="1.1em"><tspan font-style="normal" class="text-inner-tspan" font-weight="normal">with</tspan><tspan font-style="normal" class="text-inner-tspan" font-weight="normal"> DoH/DoT</tspan></tspan></text></g></g></g><g class="node default" id="gb7a6c334-2025-4098-ac18-843d4e56df6b-dark-flowchart-q2-3" data-look="classic" transform="translate(211.4453125, 442.9203109741211)"><polygon points="89.1328125,0 178.265625,-89.1328125 89.1328125,-178.265625 0,-89.1328125" class="label-container" transform="translate(-88.6328125, 89.1328125)"></polygon><g class="label" style="" transform="translate(0, -9.5)"><rect></rect><g><rect class="background" style="stroke: none"></rect><text y="-10.1" style=""><tspan class="text-outer-tspan row" x="0" y="-0.1em" dy="1.1em"><tspan font-style="normal" class="text-inner-tspan" font-weight="normal">Devices</tspan><tspan font-style="normal" class="text-inner-tspan" font-weight="normal"> managed?</tspan></tspan></text></g></g></g><g class="node default pri" id="gb7a6c334-2025-4098-ac18-843d4e56df6b-dark-flowchart-policy-7" data-look="classic" transform="translate(95.734375, 638.3531227111816)"><rect class="basic label-container" style="fill:#2E5A88 !important;stroke:#1F4870 !important" x="-87.734375" y="-33.29999923706055" width="175.46875" height="66.5999984741211"></rect><g class="label" style="color:#ffffff !important" transform="translate(0, -18.299999237060547)"><rect></rect><g><rect class="background" style="stroke: none"></rect><text y="-10.1" style="fill:#404040 !important"><tspan class="text-outer-tspan row" x="0" y="-0.1em" dy="1.1em"><tspan font-style="normal" class="text-inner-tspan" font-weight="normal">Pin</tspan><tspan font-style="normal" class="text-inner-tspan" font-weight="normal"> endpoint</tspan><tspan font-style="normal" class="text-inner-tspan" font-weight="normal"> via</tspan></tspan><tspan class="text-outer-tspan row" x="0" y="1em" dy="1.1em"><tspan font-style="normal" class="text-inner-tspan" font-weight="normal">MDM</tspan><tspan font-style="normal" class="text-inner-tspan" font-weight="normal"> /</tspan><tspan font-style="normal" class="text-inner-tspan" font-weight="normal"> GPO</tspan></tspan></text></g></g></g><g class="node default sec" id="gb7a6c334-2025-4098-ac18-843d4e56df6b-dark-flowchart-canary-9" data-look="classic" transform="translate(327.15625, 638.3531227111816)"><rect class="basic label-container" style="fill:#1F6E68 !important;stroke:#155752 !important" x="-93.6875" y="-33.29999923706055" width="187.375" height="66.5999984741211"></rect><g class="label" style="color:#ffffff !important" transform="translate(0, -18.299999237060547)"><rect></rect><g><rect class="background" style="stroke: none"></rect><text y="-10.1" style="fill:#404040 !important"><tspan class="text-outer-tspan row" x="0" y="-0.1em" dy="1.1em"><tspan font-style="normal" class="text-inner-tspan" font-weight="normal">Canary</tspan><tspan font-style="normal" class="text-inner-tspan" font-weight="normal"> domain</tspan><tspan font-style="normal" class="text-inner-tspan" font-weight="normal"> →</tspan></tspan><tspan class="text-outer-tspan row" x="0" y="1em" dy="1.1em"><tspan font-style="normal" class="text-inner-tspan" font-weight="normal">NXDOMAIN</tspan></tspan></text></g></g></g><g class="node default" id="gb7a6c334-2025-4098-ac18-843d4e56df6b-dark-flowchart-q3-11" data-look="classic" transform="translate(211.4453125, 791.9968719482422)"><polygon points="70.34375,0 140.6875,-70.34375 70.34375,-140.6875 0,-70.34375" class="label-container" transform="translate(-69.84375, 70.34375)"></polygon><g class="label" style="" transform="translate(0, -9.5)"><rect></rect><g><rect class="background" style="stroke: none"></rect><text y="-10.1" style=""><tspan class="text-outer-tspan row" x="0" y="-0.1em" dy="1.1em"><tspan font-style="normal" class="text-inner-tspan" font-weight="normal">Egress</tspan><tspan font-style="normal" class="text-inner-tspan" font-weight="normal"> filter?</tspan></tspan></text></g></g></g><g class="node default pri" id="gb7a6c334-2025-4098-ac18-843d4e56df6b-dark-flowchart-block-15" data-look="classic" transform="translate(102.90625, 968.6406211853027)"><rect class="basic label-container" style="fill:#2E5A88 !important;stroke:#1F4870 !important" x="-93.84375" y="-33.29999923706055" width="187.6875" height="66.5999984741211"></rect><g class="label" style="color:#ffffff !important" transform="translate(0, -18.299999237060547)"><rect></rect><g><rect class="background" style="stroke: none"></rect><text y="-10.1" style="fill:#404040 !important"><tspan class="text-outer-tspan row" x="0" y="-0.1em" dy="1.1em"><tspan font-style="normal" class="text-inner-tspan" font-weight="normal">Block</tspan><tspan font-style="normal" class="text-inner-tspan" font-weight="normal"> 853,</tspan></tspan><tspan class="text-outer-tspan row" x="0" y="1em" dy="1.1em"><tspan font-style="normal" class="text-inner-tspan" font-weight="normal">allowlist</tspan><tspan font-style="normal" class="text-inner-tspan" font-weight="normal"> DoH/443</tspan></tspan></text></g></g></g><g class="node default warn" id="gb7a6c334-2025-4098-ac18-843d4e56df6b-dark-flowchart-allow-17" data-look="classic" transform="translate(319.984375, 968.6406211853027)"><rect class="basic label-container" style="fill:#B43A3A !important;stroke:#8E2828 !important" x="-73.234375" y="-33.29999923706055" width="146.46875" height="66.5999984741211"></rect><g class="label" style="color:#ffffff !important" transform="translate(0, -18.299999237060547)"><rect></rect><g><rect class="background" style="stroke: none"></rect><text y="-10.1" style="fill:#404040 !important"><tspan class="text-outer-tspan row" x="0" y="-0.1em" dy="1.1em"><tspan font-style="normal" class="text-inner-tspan" font-weight="normal">DoH/443</tspan></tspan><tspan class="text-outer-tspan row" x="0" y="1em" dy="1.1em"><tspan font-style="normal" class="text-inner-tspan" font-weight="normal">unblockable</tspan></tspan></text></g></g></g><g class="node default ok" id="gb7a6c334-2025-4098-ac18-843d4e56df6b-dark-flowchart-done-19" data-look="classic" transform="translate(211.4453125, 1077.7406196594238)"><g class="basic label-container outer-path"><path d="M-61.09531307220459 -25.799999237060547 C-13.045465582877526 -25.799999237060547, 35.00438190644954 -25.799999237060547, 61.09531307220459 -25.799999237060547 C61.09531307220459 -25.799999237060547, 61.09531307220459 -25.799999237060547, 61.09531307220459 -25.799999237060547 C61.66869194254616 -25.78161209270296, 62.24207081288773 -25.76322494834537, 62.748324698825286 -25.746990371586765 C63.35548989600647 -25.688417875237683, 63.96265509318765 -25.6298453788886, 64.39454374610231 -25.58818159996402 C64.77014674041901 -25.52745702068762, 65.1457497347357 -25.466732441411224, 66.02720554685753 -25.32422550149928 C66.62441687423448 -25.18791591319361, 67.22162820161145 -25.05160632488794, 67.63960114354678 -24.956206728419545 C68.24524696648163 -24.776454227272282, 68.85089278941648 -24.596701726125023, 69.22510485680552 -24.48563754880318 C69.68994478698414 -24.314572157564236, 70.15478471716276 -24.14350676632529, 70.77720151178644 -23.914451632345997 C71.22009247269015 -23.718396941847487, 71.66298343359388 -23.522342251348974, 72.28951321041056 -23.24499610449772 C72.65756649896049 -23.052982939610605, 73.02561978751042 -22.86096977472349, 73.7558255395184 -22.480021901620034 C74.17806034526565 -22.224060681048908, 74.6002951510129 -21.96809946047778, 75.17011310722664 -21.62267246679901 C75.58695232046824 -21.331903476320377, 76.00379153370986 -21.041134485841745, 76.52656430255584 -20.67647083276321 C76.85599524378168 -20.413758423661122, 77.18542618500751 -20.151046014559032, 77.8196051765865 -19.64530514498651 C78.27134617131189 -19.235045925988665, 78.72308716603727 -18.824786706990825, 79.04392234701088 -18.533412684464313 C79.34162648102749 -18.226008724128206, 79.63933061504409 -17.918604763792096, 80.19448483196044 -17.345362455817106 C80.54223336313827 -16.93687724364365, 80.8899818943161 -16.528392031470194, 81.26656472338968 -16.086036412270357 C81.63270553298128 -15.595441083531561, 81.99884634257288 -15.104845754792768, 82.25575661506427 -14.76060939466161 C82.43625282260766 -14.483318749856808, 82.61674903015104 -14.206028105052006, 83.15799570532036 -13.374527866909407 C83.44340475311526 -12.867755201749596, 83.72881380091015 -12.360982536589782, 83.9695745002064 -11.93348753532484 C84.2060384307467 -11.442465124040313, 84.44250236128701 -10.951442712755785, 84.68715804837109 -10.443409943732584 C84.93115132055307 -9.84074184415406, 85.17514459273507 -9.238073744575537, 85.30779764509381 -8.910418140577123 C85.42025677565566 -8.571709157253988, 85.53271590621752 -8.233000173930854, 85.8289429491449 -7.340811518003323 C85.93282395879518 -6.944668205892429, 86.03670496844546 -6.548524893781535, 86.24845246268467 -5.741039926302914 C86.32752995551343 -5.334993713661303, 86.40660744834217 -4.9289475010196915, 86.56460233113748 -4.117677170096137 C86.64642188569408 -3.483100862053606, 86.7282414402507 -2.8485245540110755, 86.77609342687991 -2.4773939951584394 C86.80206142675006 -2.0729214361887176, 86.8280294266202 -1.6684488772189958, 86.88205668763487 -0.8269306768952902 C86.88205668763487 -0.4586344349778112, 86.88205668763487 -0.0903381930603322, 86.88205668763487 0.826930676895284 C86.8572843363322 1.2127800443165588, 86.83251198502951 1.5986294117378337, 86.77609342687991 2.4773939951584216 C86.70906350914508 2.9972648005553424, 86.64203359141025 3.5171356059522627, 86.56460233113748 4.117677170096119 C86.46099983099876 4.649654111912276, 86.35739733086004 5.181631053728433, 86.24845246268467 5.741039926302909 C86.09764008115616 6.316152899570752, 85.94682769962763 6.891265872838595, 85.8289429491449 7.340811518003306 C85.67810081653548 7.795123987992898, 85.52725868392604 8.249436457982492, 85.30779764509383 8.910418140577105 C85.08819813553968 9.452833174843532, 84.86859862598554 9.99524820910996, 84.68715804837109 10.443409943732577 C84.45918408964978 10.916802746878677, 84.23121013092846 11.390195550024776, 83.9695745002064 11.933487535324835 C83.78601338207352 12.25941888814856, 83.60245226394063 12.585350240972284, 83.15799570532037 13.374527866909402 C82.95419208653237 13.687624954302194, 82.75038846774436 14.000722041694987, 82.25575661506429 14.760609394661596 C82.04054198304752 15.048977395107752, 81.82532735103074 15.337345395553907, 81.26656472338968 16.086036412270353 C80.88646985208487 16.532517476115853, 80.50637498078007 16.978998539961356, 80.19448483196045 17.345362455817092 C79.86259185478389 17.688069203672086, 79.5306988776073 18.03077595152708, 79.04392234701088 18.533412684464306 C78.78816676750606 18.765683134848768, 78.53241118800123 18.99795358523323, 77.81960517658653 19.64530514498649 C77.48777081360429 19.90993421898158, 77.15593645062204 20.174563292976664, 76.52656430255584 20.676470832763208 C75.9970841999613 21.045813231508944, 75.46760409736675 21.41515563025468, 75.17011310722665 21.622672466799003 C74.7852373691815 21.855986400982868, 74.40036163113635 22.08930033516673, 73.75582553951841 22.48002190162003 C73.22622058809263 22.756316465550704, 72.69661563666683 23.032611029481373, 72.28951321041058 23.244996104497716 C71.8912062721766 23.42131477069837, 71.49289933394263 23.597633436899024, 70.77720151178644 23.914451632345994 C70.4540204663874 24.033385244505673, 70.13083942098838 24.152318856665353, 69.22510485680553 24.485637548803172 C68.65971072043891 24.653443560662403, 68.09431658407229 24.821249572521634, 67.63960114354681 24.95620672841954 C67.24708028226 25.045797053570258, 66.85455942097319 25.135387378720974, 66.02720554685754 25.324225501499278 C65.66954878496308 25.38204867309276, 65.31189202306861 25.439871844686245, 64.39454374610233 25.588181599964017 C63.898543469568885 25.63603015011359, 63.40254319303544 25.683878700263165, 62.748324698825286 25.746990371586765 C62.22434843142054 25.7637932706245, 61.70037216401579 25.78059616966224, 61.0953130722046 25.799999237060547 C61.0953130722046 25.799999237060547, 61.0953130722046 25.799999237060547, 61.09531307220459 25.799999237060547 C32.99622710402804 25.799999237060547, 4.897141135851484 25.799999237060547, -61.09531307220458 25.799999237060547 C-61.751140730015514 25.778968120565647, -62.40696838782644 25.757937004070747, -62.74832469882527 25.746990371586765 C-63.23184736861162 25.700345521153565, -63.715370038397964 25.65370067072037, -64.39454374610231 25.588181599964017 C-64.7781574602417 25.526161909630748, -65.16177117438107 25.464142219297475, -66.02720554685753 25.324225501499278 C-66.50418837459013 25.21535728367315, -66.98117120232273 25.106489065847025, -67.63960114354678 24.956206728419545 C-68.09987971517846 24.81959846441079, -68.56015828681012 24.68299020040204, -69.2251048568055 24.485637548803183 C-69.83416382481725 24.261498218495475, -70.443222792829 24.037358888187768, -70.77720151178644 23.914451632345997 C-71.08520408069543 23.778108031661567, -71.39320664960444 23.64176443097714, -72.28951321041056 23.244996104497723 C-72.77874175081675 22.989765888333647, -73.26797029122295 22.734535672169574, -73.7558255395184 22.480021901620038 C-74.21248779393156 22.20319055934949, -74.66915004834472 21.926359217078947, -75.17011310722663 21.622672466799017 C-75.48480749155905 21.40315528718905, -75.79950187589148 21.18363810757909, -76.52656430255584 20.67647083276321 C-76.96517547098834 20.326690097871676, -77.40378663942084 19.97690936298014, -77.8196051765865 19.645305144986512 C-78.22642769282336 19.275839699674133, -78.63325020906022 18.906374254361754, -79.04392234701086 18.533412684464324 C-79.33309699980154 18.234816113777423, -79.6222716525922 17.936219543090527, -80.19448483196044 17.3453624558171 C-80.58028168968706 16.89218351426832, -80.96607854741369 16.43900457271954, -81.26656472338968 16.08603641227036 C-81.55932222414124 15.693768032020243, -81.85207972489282 15.301499651770124, -82.25575661506427 14.760609394661614 C-82.49185095340358 14.397905090765729, -82.72794529174288 14.035200786869842, -83.15799570532036 13.374527866909418 C-83.33412066443685 13.061800167412043, -83.51024562355336 12.749072467914669, -83.96957450020639 11.933487535324842 C-84.18557889278274 11.48494979238645, -84.4015832853591 11.036412049448058, -84.68715804837109 10.443409943732586 C-84.85678256211904 10.024434115308257, -85.026407075867 9.605458286883927, -85.30779764509381 8.910418140577127 C-85.46819797919427 8.427317890589162, -85.62859831329473 7.944217640601196, -85.8289429491449 7.340811518003316 C-85.95527638729642 6.859047365073121, -86.08160982544794 6.377283212142927, -86.24845246268467 5.741039926302918 C-86.3356633166251 5.293230623339284, -86.42287417056555 4.84542132037565, -86.56460233113748 4.117677170096139 C-86.6281756444344 3.624615106135845, -86.69174895773133 3.1315530421755504, -86.77609342687991 2.477393995158454 C-86.81571084618412 1.860320710890115, -86.85532826548832 1.243247426621776, -86.88205668763487 0.8269306768952934 C-86.88205668763487 0.2960207922239715, -86.88205668763487 -0.23488909244735046, -86.88205668763487 -0.8269306768952809 C-86.8443256423428 -1.4146221632709266, -86.80659459705072 -2.002313649646572, -86.77609342687991 -2.4773939951584185 C-86.72662174746284 -2.861086571429105, -86.67715006804578 -3.2447791476997923, -86.56460233113748 -4.117677170096128 C-86.48307147852545 -4.5363208667071255, -86.4015406259134 -4.954964563318124, -86.24845246268467 -5.741039926302906 C-86.13068415658914 -6.1901415185518935, -86.01291585049361 -6.63924311080088, -85.8289429491449 -7.340811518003303 C-85.66502044295673 -7.834519989137554, -85.50109793676856 -8.328228460271806, -85.30779764509383 -8.910418140577093 C-85.14476193801882 -9.313119489133335, -84.9817262309438 -9.715820837689577, -84.68715804837109 -10.443409943732574 C-84.52844049291846 -10.7729903436416, -84.36972293746584 -11.102570743550627, -83.9695745002064 -11.933487535324831 C-83.66412903333894 -12.475836891455435, -83.35868356647147 -13.01818624758604, -83.15799570532036 -13.374527866909409 C-82.84312838414479 -13.858248625949459, -82.52826106296922 -14.34196938498951, -82.25575661506429 -14.760609394661605 C-81.90194194013623 -15.23468882588521, -81.54812726520818 -15.708768257108812, -81.26656472338968 -16.086036412270353 C-81.01247446147741 -16.384505292057995, -80.75838419956513 -16.682974171845633, -80.19448483196045 -17.345362455817092 C-79.7431574677907 -17.81139501398809, -79.29183010362092 -18.27742757215909, -79.04392234701089 -18.5334126844643 C-78.66267434820146 -18.87965202971374, -78.28142634939204 -19.225891374963183, -77.81960517658653 -19.645305144986487 C-77.33710256567731 -20.03008813725287, -76.85459995476809 -20.414871129519256, -76.52656430255585 -20.676470832763204 C-76.10698049501592 -20.969154333412774, -75.687396687476 -21.26183783406234, -75.17011310722665 -21.622672466799 C-74.85530188297335 -21.813512880977463, -74.54049065872003 -22.004353295155923, -73.75582553951841 -22.480021901620027 C-73.358012485713 -22.687560716978886, -72.9601994319076 -22.895099532337746, -72.28951321041058 -23.244996104497716 C-71.81321166527292 -23.455840669546824, -71.33691012013526 -23.666685234595928, -70.77720151178646 -23.91445163234599 C-70.20920952125628 -24.123477935321496, -69.64121753072612 -24.332504238297002, -69.22510485680553 -24.485637548803172 C-68.70047473662505 -24.641345014633043, -68.17584461644458 -24.79705248046291, -67.63960114354681 -24.956206728419538 C-67.17507175921524 -25.062232529055695, -66.71054237488366 -25.168258329691852, -66.02720554685754 -25.324225501499278 C-65.66044865920155 -25.383519910853355, -65.29369177154555 -25.442814320207436, -64.39454374610233 -25.588181599964017 C-63.90623768138848 -25.635287898753, -63.41793161667464 -25.682394197541978, -62.748324698825286 -25.746990371586765 C-62.37905177192798 -25.758832235606214, -62.00977884503069 -25.770674099625662, -61.0953130722046 -25.799999237060547 C-61.0953130722046 -25.799999237060547, -61.09531307220459 -25.799999237060547, -61.09531307220459 -25.799999237060547" stroke="none" stroke-width="0" fill="#2D7A2D" style="fill:#2D7A2D !important;stroke:#1E5A1E !important"></path><path d="M-61.09531307220459 -25.799999237060547 C-28.466033948887592 -25.799999237060547, 4.163245174429406 -25.799999237060547, 61.09531307220459 -25.799999237060547 M-61.09531307220459 -25.799999237060547 C-14.629398057493525 -25.799999237060547, 31.83651695721754 -25.799999237060547, 61.09531307220459 -25.799999237060547 M61.09531307220459 -25.799999237060547 C61.09531307220459 -25.799999237060547, 61.09531307220459 -25.799999237060547, 61.09531307220459 -25.799999237060547 M61.09531307220459 -25.799999237060547 C61.09531307220459 -25.799999237060547, 61.09531307220459 -25.799999237060547, 61.09531307220459 -25.799999237060547 M61.09531307220459 -25.799999237060547 C61.75304929336619 -25.778906916653785, 62.41078551452779 -25.75781459624702, 62.748324698825286 -25.746990371586765 M61.09531307220459 -25.799999237060547 C61.71008362044459 -25.78028474215677, 62.324854168684595 -25.760570247252993, 62.748324698825286 -25.746990371586765 M62.748324698825286 -25.746990371586765 C63.10420069337639 -25.71265944239592, 63.4600766879275 -25.67832851320508, 64.39454374610231 -25.58818159996402 M62.748324698825286 -25.746990371586765 C63.37700593643244 -25.68634224869461, 64.0056871740396 -25.62569412580246, 64.39454374610231 -25.58818159996402 M64.39454374610231 -25.58818159996402 C64.94439605965529 -25.499285742077152, 65.49424837320825 -25.410389884190288, 66.02720554685753 -25.32422550149928 M64.39454374610231 -25.58818159996402 C64.85865587790047 -25.513147549738232, 65.32276800969863 -25.43811349951244, 66.02720554685753 -25.32422550149928 M66.02720554685753 -25.32422550149928 C66.36199159309926 -25.247812771127727, 66.69677763934098 -25.171400040756176, 67.63960114354678 -24.956206728419545 M66.02720554685753 -25.32422550149928 C66.63485863290498 -25.185532649915913, 67.24251171895241 -25.04683979833255, 67.63960114354678 -24.956206728419545 M67.63960114354678 -24.956206728419545 C68.16138466239232 -24.801344118923772, 68.68316818123786 -24.646481509428, 69.22510485680552 -24.48563754880318 M67.63960114354678 -24.956206728419545 C67.99721523013325 -24.85006874467533, 68.3548293167197 -24.743930760931118, 69.22510485680552 -24.48563754880318 M69.22510485680552 -24.48563754880318 C69.53674264762716 -24.370951961032652, 69.84838043844883 -24.25626637326212, 70.77720151178644 -23.914451632345997 M69.22510485680552 -24.48563754880318 C69.63171445818037 -24.336001456839284, 70.03832405955521 -24.186365364875385, 70.77720151178644 -23.914451632345997 M70.77720151178644 -23.914451632345997 C71.17795986176036 -23.737047798886614, 71.57871821173427 -23.55964396542723, 72.28951321041056 -23.24499610449772 M70.77720151178644 -23.914451632345997 C71.25370477588086 -23.703517772298515, 71.73020803997527 -23.492583912251032, 72.28951321041056 -23.24499610449772 M72.28951321041056 -23.24499610449772 C72.85376611836918 -22.950625723836943, 73.4180190263278 -22.65625534317617, 73.7558255395184 -22.480021901620034 M72.28951321041056 -23.24499610449772 C72.71846930849172 -23.021209982888273, 73.14742540657288 -22.79742386127883, 73.7558255395184 -22.480021901620034 M73.7558255395184 -22.480021901620034 C74.19830772261619 -22.21178660191221, 74.640789905714 -21.943551302204384, 75.17011310722664 -21.62267246679901 M73.7558255395184 -22.480021901620034 C74.10895915138892 -22.26595023086067, 74.46209276325945 -22.051878560101308, 75.17011310722664 -21.62267246679901 M75.17011310722664 -21.62267246679901 C75.61430827393126 -21.312821147404726, 76.05850344063586 -21.002969828010443, 76.52656430255584 -20.67647083276321 M75.17011310722664 -21.62267246679901 C75.4795620839486 -21.406814256468078, 75.78901106067055 -21.190956046137142, 76.52656430255584 -20.67647083276321 M76.52656430255584 -20.67647083276321 C76.95471306479081 -20.33503358839788, 77.38286182702579 -19.993596344032547, 77.8196051765865 -19.64530514498651 M76.52656430255584 -20.67647083276321 C76.80247143850067 -20.45644223404444, 77.07837857444552 -20.236413635325672, 77.8196051765865 -19.64530514498651 M77.8196051765865 -19.64530514498651 C78.1964601516921 -19.30305542763186, 78.57331512679768 -18.960805710277214, 79.04392234701088 -18.533412684464313 M77.8196051765865 -19.64530514498651 C78.2006851575049 -19.299218389140197, 78.5817651384233 -18.953131633293882, 79.04392234701088 -18.533412684464313 M79.04392234701088 -18.533412684464313 C79.33977001003244 -18.227925682849694, 79.635617673054 -17.92243868123507, 80.19448483196044 -17.345362455817106 M79.04392234701088 -18.533412684464313 C79.43663301470593 -18.127906677923725, 79.82934368240099 -17.722400671383138, 80.19448483196044 -17.345362455817106 M80.19448483196044 -17.345362455817106 C80.47849650841542 -17.011746179930885, 80.7625081848704 -16.678129904044667, 81.26656472338968 -16.086036412270357 M80.19448483196044 -17.345362455817106 C80.45361286940374 -17.040975918233173, 80.71274090684703 -16.736589380649242, 81.26656472338968 -16.086036412270357 M81.26656472338968 -16.086036412270357 C81.6031718735936 -15.635013496539338, 81.93977902379751 -15.18399058080832, 82.25575661506427 -14.76060939466161 M81.26656472338968 -16.086036412270357 C81.51628583431231 -15.751432873695238, 81.76600694523495 -15.41682933512012, 82.25575661506427 -14.76060939466161 M82.25575661506427 -14.76060939466161 C82.61375094106 -14.210633974995481, 82.97174526705572 -13.660658555329354, 83.15799570532036 -13.374527866909407 M82.25575661506427 -14.76060939466161 C82.44213146958607 -14.474287569460206, 82.62850632410789 -14.1879657442588, 83.15799570532036 -13.374527866909407 M83.15799570532036 -13.374527866909407 C83.37587828055509 -12.987655291576987, 83.59376085578981 -12.600782716244565, 83.9695745002064 -11.93348753532484 M83.15799570532036 -13.374527866909407 C83.40552582401007 -12.935013076033341, 83.65305594269978 -12.495498285157277, 83.9695745002064 -11.93348753532484 M83.9695745002064 -11.93348753532484 C84.25644601398409 -11.33779269889839, 84.54331752776177 -10.74209786247194, 84.68715804837109 -10.443409943732584 M83.9695745002064 -11.93348753532484 C84.14373614484069 -11.57183715377952, 84.31789778947498 -11.210186772234199, 84.68715804837109 -10.443409943732584 M84.68715804837109 -10.443409943732584 C84.84164605445696 -10.061821581878075, 84.99613406054283 -9.680233220023565, 85.30779764509381 -8.910418140577123 M84.68715804837109 -10.443409943732584 C84.82396842748204 -10.10548566227977, 84.96077880659301 -9.767561380826956, 85.30779764509381 -8.910418140577123 M85.30779764509381 -8.910418140577123 C85.46091759372531 -8.449245251649788, 85.6140375423568 -7.988072362722455, 85.8289429491449 -7.340811518003323 M85.30779764509381 -8.910418140577123 C85.5074740743357 -8.309024549819094, 85.70715050357761 -7.707630959061064, 85.8289429491449 -7.340811518003323 M85.8289429491449 -7.340811518003323 C85.9849975977265 -6.745707508449145, 86.1410522463081 -6.150603498894967, 86.24845246268467 -5.741039926302914 M85.8289429491449 -7.340811518003323 C85.98045447829631 -6.763032391836889, 86.13196600744772 -6.185253265670455, 86.24845246268467 -5.741039926302914 M86.24845246268467 -5.741039926302914 C86.34733220357023 -5.233313355096167, 86.44621194445581 -4.72558678388942, 86.56460233113748 -4.117677170096137 M86.24845246268467 -5.741039926302914 C86.31876388681621 -5.380005623712207, 86.38907531094775 -5.0189713211215, 86.56460233113748 -4.117677170096137 M86.56460233113748 -4.117677170096137 C86.6128970816445 -3.7431126220408157, 86.66119183215153 -3.3685480739854947, 86.77609342687991 -2.4773939951584394 M86.56460233113748 -4.117677170096137 C86.64250945662258 -3.5134448893357644, 86.72041658210766 -2.909212608575392, 86.77609342687991 -2.4773939951584394 M86.77609342687991 -2.4773939951584394 C86.81471396925001 -1.87584787380357, 86.85333451162009 -1.2743017524487006, 86.88205668763487 -0.8269306768952902 M86.77609342687991 -2.4773939951584394 C86.80988319716911 -1.9510910482924921, 86.8436729674583 -1.4247881014265447, 86.88205668763487 -0.8269306768952902 M86.88205668763487 -0.8269306768952902 C86.88205668763487 -0.36792006611565775, 86.88205668763487 0.0910905446639747, 86.88205668763487 0.826930676895284 M86.88205668763487 -0.8269306768952902 C86.88205668763487 -0.3954747653677108, 86.88205668763487 0.03598114615986858, 86.88205668763487 0.826930676895284 M86.88205668763487 0.826930676895284 C86.84860859378307 1.3479117374525171, 86.81516049993127 1.8688927980097503, 86.77609342687991 2.4773939951584216 M86.88205668763487 0.826930676895284 C86.85275200012148 1.2833748392343416, 86.8234473126081 1.7398190015733992, 86.77609342687991 2.4773939951584216 M86.77609342687991 2.4773939951584216 C86.72762914991928 2.8532733569110804, 86.67916487295867 3.2291527186637388, 86.56460233113748 4.117677170096119 M86.77609342687991 2.4773939951584216 C86.72547570932223 2.8699750169369134, 86.67485799176454 3.262556038715405, 86.56460233113748 4.117677170096119 M86.56460233113748 4.117677170096119 C86.45569556911074 4.676890375651072, 86.34678880708401 5.2361035812060255, 86.24845246268467 5.741039926302909 M86.56460233113748 4.117677170096119 C86.44613622228145 4.725975601250827, 86.32767011342543 5.334274032405535, 86.24845246268467 5.741039926302909 M86.24845246268467 5.741039926302909 C86.10810450770524 6.276247505827947, 85.9677565527258 6.811455085352986, 85.8289429491449 7.340811518003306 M86.24845246268467 5.741039926302909 C86.08674267698586 6.357709424636881, 85.92503289128707 6.974378922970853, 85.8289429491449 7.340811518003306 M85.8289429491449 7.340811518003306 C85.69647046059318 7.739797546896402, 85.56399797204145 8.138783575789498, 85.30779764509383 8.910418140577105 M85.8289429491449 7.340811518003306 C85.70832834991751 7.704083473549586, 85.58771375069013 8.067355429095866, 85.30779764509383 8.910418140577105 M85.30779764509383 8.910418140577105 C85.12818859895435 9.354055957046286, 84.94857955281488 9.797693773515467, 84.68715804837109 10.443409943732577 M85.30779764509383 8.910418140577105 C85.12509636918666 9.361693824356657, 84.94239509327952 9.812969508136206, 84.68715804837109 10.443409943732577 M84.68715804837109 10.443409943732577 C84.49105975002823 10.85061225607294, 84.29496145168538 11.257814568413302, 83.9695745002064 11.933487535324835 M84.68715804837109 10.443409943732577 C84.40927812548354 11.020433549286459, 84.13139820259597 11.597457154840338, 83.9695745002064 11.933487535324835 M83.9695745002064 11.933487535324835 C83.79730981866162 12.239360921098152, 83.62504513711681 12.54523430687147, 83.15799570532037 13.374527866909402 M83.9695745002064 11.933487535324835 C83.66655159068878 12.47153539557026, 83.36352868117116 13.009583255815688, 83.15799570532037 13.374527866909402 M83.15799570532037 13.374527866909402 C82.8778141702759 13.804961944014359, 82.59763263523143 14.235396021119316, 82.25575661506429 14.760609394661596 M83.15799570532037 13.374527866909402 C82.89037479869373 13.785665445763586, 82.62275389206708 14.196803024617768, 82.25575661506429 14.760609394661596 M82.25575661506429 14.760609394661596 C81.952466542364 15.166990461785955, 81.6491764696637 15.573371528910315, 81.26656472338968 16.086036412270353 M82.25575661506429 14.760609394661596 C82.00181599633919 15.10086668928693, 81.74787537761411 15.441123983912263, 81.26656472338968 16.086036412270353 M81.26656472338968 16.086036412270353 C80.9063000789975 16.509223763212404, 80.54603543460532 16.93241111415446, 80.19448483196045 17.345362455817092 M81.26656472338968 16.086036412270353 C80.92345627278499 16.489071121774536, 80.5803478221803 16.892105831278723, 80.19448483196045 17.345362455817092 M80.19448483196045 17.345362455817092 C79.8549190855637 17.695991967837998, 79.51535333916694 18.0466214798589, 79.04392234701088 18.533412684464306 M80.19448483196045 17.345362455817092 C79.78680602527797 17.766324294769266, 79.37912721859547 18.187286133721436, 79.04392234701088 18.533412684464306 M79.04392234701088 18.533412684464306 C78.68039197780169 18.8635613472936, 78.3168616085925 19.193710010122892, 77.81960517658653 19.64530514498649 M79.04392234701088 18.533412684464306 C78.78813423080243 18.76571268382213, 78.53234611459398 18.99801268317995, 77.81960517658653 19.64530514498649 M77.81960517658653 19.64530514498649 C77.36494101199794 20.007887717124337, 76.91027684740935 20.370470289262187, 76.52656430255584 20.676470832763208 M77.81960517658653 19.64530514498649 C77.51244900401723 19.890254018841482, 77.20529283144792 20.135202892696473, 76.52656430255584 20.676470832763208 M76.52656430255584 20.676470832763208 C76.18529455801598 20.914525833225074, 75.84402481347612 21.152580833686944, 75.17011310722665 21.622672466799003 M76.52656430255584 20.676470832763208 C76.22098966254559 20.88962647352139, 75.91541502253534 21.102782114279574, 75.17011310722665 21.622672466799003 M75.17011310722665 21.622672466799003 C74.7607393318866 21.870837255157483, 74.35136555654655 22.119002043515962, 73.75582553951841 22.48002190162003 M75.17011310722665 21.622672466799003 C74.85933122858623 21.81107026798787, 74.54854934994582 21.999468069176736, 73.75582553951841 22.48002190162003 M73.75582553951841 22.48002190162003 C73.18466894852129 22.77799392929997, 72.61351235752417 23.075965956979914, 72.28951321041058 23.244996104497716 M73.75582553951841 22.48002190162003 C73.22466651065584 22.75712722675404, 72.69350748179326 23.034232551888046, 72.28951321041058 23.244996104497716 M72.28951321041058 23.244996104497716 C71.93904260481833 23.40013904525227, 71.58857199922609 23.555281986006825, 70.77720151178644 23.914451632345994 M72.28951321041058 23.244996104497716 C71.946454100452 23.396858195989452, 71.60339499049343 23.54872028748119, 70.77720151178644 23.914451632345994 M70.77720151178644 23.914451632345994 C70.43358944771138 24.040904048240716, 70.08997738363632 24.16735646413544, 69.22510485680553 24.485637548803172 M70.77720151178644 23.914451632345994 C70.34659076713392 24.072920366900213, 69.91598002248139 24.23138910145443, 69.22510485680553 24.485637548803172 M69.22510485680553 24.485637548803172 C68.68872235783634 24.644833058968036, 68.15233985886715 24.8040285691329, 67.63960114354681 24.95620672841954 M69.22510485680553 24.485637548803172 C68.60963603532585 24.668305464356575, 67.99416721384617 24.850973379909977, 67.63960114354681 24.95620672841954 M67.63960114354681 24.95620672841954 C67.02483239623426 25.096523683252638, 66.41006364892172 25.236840638085734, 66.02720554685754 25.324225501499278 M67.63960114354681 24.95620672841954 C67.10564538821532 25.078078645187016, 66.57168963288383 25.19995056195449, 66.02720554685754 25.324225501499278 M66.02720554685754 25.324225501499278 C65.64230006242147 25.38645403523629, 65.25739457798538 25.448682568973304, 64.39454374610233 25.588181599964017 M66.02720554685754 25.324225501499278 C65.592034155456 25.394580637256535, 65.15686276405445 25.464935773013796, 64.39454374610233 25.588181599964017 M64.39454374610233 25.588181599964017 C63.947483678807096 25.631308946987595, 63.50042361151187 25.67443629401117, 62.748324698825286 25.746990371586765 M64.39454374610233 25.588181599964017 C63.84141905927071 25.641540873272902, 63.288294372439104 25.694900146581784, 62.748324698825286 25.746990371586765 M62.748324698825286 25.746990371586765 C62.10460761953512 25.767633125400316, 61.46089054024496 25.788275879213867, 61.0953130722046 25.799999237060547 M62.748324698825286 25.746990371586765 C62.11690237194752 25.767238856620732, 61.48548004506975 25.787487341654703, 61.0953130722046 25.799999237060547 M61.0953130722046 25.799999237060547 C61.0953130722046 25.799999237060547, 61.09531307220459 25.799999237060547, 61.09531307220459 25.799999237060547 M61.0953130722046 25.799999237060547 C61.0953130722046 25.799999237060547, 61.09531307220459 25.799999237060547, 61.09531307220459 25.799999237060547 M61.09531307220459 25.799999237060547 C34.65617972175858 25.799999237060547, 8.217046371312577 25.799999237060547, -61.09531307220458 25.799999237060547 M61.09531307220459 25.799999237060547 C13.74379284251588 25.799999237060547, -33.60772738717283 25.799999237060547, -61.09531307220458 25.799999237060547 M-61.09531307220458 25.799999237060547 C-61.51292022125084 25.78660738861364, -61.93052737029709 25.773215540166728, -62.74832469882527 25.746990371586765 M-61.09531307220458 25.799999237060547 C-61.44876582141698 25.788664695347347, -61.80221857062937 25.777330153634146, -62.74832469882527 25.746990371586765 M-62.74832469882527 25.746990371586765 C-63.311005372832035 25.69270924368785, -63.873686046838806 25.638428115788937, -64.39454374610231 25.588181599964017 M-62.74832469882527 25.746990371586765 C-63.20844385860153 25.7026032296174, -63.66856301837778 25.658216087648036, -64.39454374610231 25.588181599964017 M-64.39454374610231 25.588181599964017 C-64.87187443259509 25.511010476326625, -65.34920511908788 25.43383935268923, -66.02720554685753 25.324225501499278 M-64.39454374610231 25.588181599964017 C-65.03722302624618 25.48427819800261, -65.67990230639005 25.380374796041206, -66.02720554685753 25.324225501499278 M-66.02720554685753 25.324225501499278 C-66.61619329572078 25.189792891325496, -67.20518104458402 25.055360281151717, -67.63960114354678 24.956206728419545 M-66.02720554685753 25.324225501499278 C-66.45591081116758 25.226376322483805, -66.88461607547764 25.128527143468332, -67.63960114354678 24.956206728419545 M-67.63960114354678 24.956206728419545 C-68.10581045621016 24.817838251603675, -68.57201976887355 24.679469774787805, -69.2251048568055 24.485637548803183 M-67.63960114354678 24.956206728419545 C-68.26585465808868 24.770337972575287, -68.8921081726306 24.58446921673103, -69.2251048568055 24.485637548803183 M-69.2251048568055 24.485637548803183 C-69.7540040218537 24.29099776697516, -70.2829031869019 24.096357985147137, -70.77720151178644 23.914451632345997 M-69.2251048568055 24.485637548803183 C-69.72320420615573 24.30233238386239, -70.22130355550595 24.119027218921595, -70.77720151178644 23.914451632345997 M-70.77720151178644 23.914451632345997 C-71.28110926723568 23.691386616901088, -71.78501702268491 23.46832160145618, -72.28951321041056 23.244996104497723 M-70.77720151178644 23.914451632345997 C-71.3545565946625 23.658873663786792, -71.93191167753855 23.40329569522759, -72.28951321041056 23.244996104497723 M-72.28951321041056 23.244996104497723 C-72.84417959558438 22.95562700663332, -73.39884598075818 22.66625790876892, -73.7558255395184 22.480021901620038 M-72.28951321041056 23.244996104497723 C-72.60859676668841 23.078530417570345, -72.92768032296625 22.912064730642964, -73.7558255395184 22.480021901620038 M-73.7558255395184 22.480021901620038 C-74.13714146331348 22.248865947754357, -74.51845738710855 22.01770999388868, -75.17011310722663 21.622672466799017 M-73.7558255395184 22.480021901620038 C-74.11371952748198 22.26306446289799, -74.47161351544555 22.04610702417594, -75.17011310722663 21.622672466799017 M-75.17011310722663 21.622672466799017 C-75.53776230251083 21.366216303445917, -75.90541149779503 21.109760140092813, -76.52656430255584 20.67647083276321 M-75.17011310722663 21.622672466799017 C-75.49809611435225 21.393885719183732, -75.82607912147786 21.165098971568444, -76.52656430255584 20.67647083276321 M-76.52656430255584 20.67647083276321 C-76.8894248230659 20.38709922378043, -77.25228534357593 20.097727614797652, -77.8196051765865 19.645305144986512 M-76.52656430255584 20.67647083276321 C-76.81956341273602 20.442811839428302, -77.11256252291618 20.209152846093392, -77.8196051765865 19.645305144986512 M-77.8196051765865 19.645305144986512 C-78.25876666098334 19.24647030443345, -78.69792814538017 18.84763546388039, -79.04392234701086 18.533412684464324 M-77.8196051765865 19.645305144986512 C-78.1108113659593 19.380839388691697, -78.4020175553321 19.116373632396883, -79.04392234701086 18.533412684464324 M-79.04392234701086 18.533412684464324 C-79.3518578105248 18.215444036414443, -79.65979327403875 17.897475388364562, -80.19448483196044 17.3453624558171 M-79.04392234701086 18.533412684464324 C-79.31204627813916 18.25655271219021, -79.58017020926748 17.979692739916093, -80.19448483196044 17.3453624558171 M-80.19448483196044 17.3453624558171 C-80.55028078957248 16.927424278642473, -80.90607674718454 16.509486101467846, -81.26656472338968 16.08603641227036 M-80.19448483196044 17.3453624558171 C-80.52103811272517 16.96177439082279, -80.84759139348989 16.578186325828476, -81.26656472338968 16.08603641227036 M-81.26656472338968 16.08603641227036 C-81.57833432889416 15.668293543689709, -81.89010393439865 15.250550675109057, -82.25575661506427 14.760609394661614 M-81.26656472338968 16.08603641227036 C-81.51802762199742 15.749099036877316, -81.76949052060517 15.412161661484275, -82.25575661506427 14.760609394661614 M-82.25575661506427 14.760609394661614 C-82.61307001899802 14.211680054135872, -82.97038342293176 13.662750713610128, -83.15799570532036 13.374527866909418 M-82.25575661506427 14.760609394661614 C-82.4842763953988 14.409541645914699, -82.71279617573332 14.058473897167783, -83.15799570532036 13.374527866909418 M-83.15799570532036 13.374527866909418 C-83.4399633471712 12.8738657664834, -83.72193098902204 12.373203666057382, -83.96957450020639 11.933487535324842 M-83.15799570532036 13.374527866909418 C-83.45543557648898 12.846393256596564, -83.75287544765762 12.31825864628371, -83.96957450020639 11.933487535324842 M-83.96957450020639 11.933487535324842 C-84.13252909637471 11.595108829711524, -84.29548369254303 11.256730124098208, -84.68715804837109 10.443409943732586 M-83.96957450020639 11.933487535324842 C-84.16876493676979 11.519864331808368, -84.36795537333319 11.106241128291893, -84.68715804837109 10.443409943732586 M-84.68715804837109 10.443409943732586 C-84.91172111254112 9.888734833601108, -85.13628417671116 9.334059723469629, -85.30779764509381 8.910418140577127 M-84.68715804837109 10.443409943732586 C-84.87200207533871 9.986841623406393, -85.05684610230635 9.530273303080198, -85.30779764509381 8.910418140577127 M-85.30779764509381 8.910418140577127 C-85.48285199492648 8.383182330004123, -85.65790634475913 7.855946519431118, -85.8289429491449 7.340811518003316 M-85.30779764509381 8.910418140577127 C-85.50275334229026 8.323242642593463, -85.69770903948672 7.7360671446098, -85.8289429491449 7.340811518003316 M-85.8289429491449 7.340811518003316 C-85.94836632816815 6.885398415367818, -86.0677897071914 6.429985312732319, -86.24845246268467 5.741039926302918 M-85.8289429491449 7.340811518003316 C-85.95559869472018 6.857818267177416, -86.08225444029546 6.374825016351517, -86.24845246268467 5.741039926302918 M-86.24845246268467 5.741039926302918 C-86.33438668819659 5.299785840504192, -86.42032091370852 4.858531754705468, -86.56460233113748 4.117677170096139 M-86.24845246268467 5.741039926302918 C-86.36672498978643 5.133735496542834, -86.4849975168882 4.5264310667827505, -86.56460233113748 4.117677170096139 M-86.56460233113748 4.117677170096139 C-86.61128928776796 3.755582353852505, -86.65797624439844 3.3934875376088707, -86.77609342687991 2.477393995158454 M-86.56460233113748 4.117677170096139 C-86.62703997529734 3.6334231316997525, -86.68947761945718 3.1491690933033656, -86.77609342687991 2.477393995158454 M-86.77609342687991 2.477393995158454 C-86.80316783975094 2.055688160619497, -86.83024225262196 1.6339823260805402, -86.88205668763487 0.8269306768952934 M-86.77609342687991 2.477393995158454 C-86.81270347663279 1.9071629191570754, -86.84931352638567 1.3369318431556967, -86.88205668763487 0.8269306768952934 M-86.88205668763487 0.8269306768952934 C-86.88205668763487 0.22702803677366945, -86.88205668763487 -0.3728746033479545, -86.88205668763487 -0.8269306768952809 M-86.88205668763487 0.8269306768952934 C-86.88205668763487 0.45976389545529117, -86.88205668763487 0.09259711401528892, -86.88205668763487 -0.8269306768952809 M-86.88205668763487 -0.8269306768952809 C-86.84330568400348 -1.4305088377014004, -86.80455468037208 -2.03408699850752, -86.77609342687991 -2.4773939951584185 M-86.88205668763487 -0.8269306768952809 C-86.84978786494973 -1.3295436371412506, -86.81751904226458 -1.8321565973872205, -86.77609342687991 -2.4773939951584185 M-86.77609342687991 -2.4773939951584185 C-86.71924032617095 -2.918335417342551, -86.66238722546198 -3.3592768395266837, -86.56460233113748 -4.117677170096128 M-86.77609342687991 -2.4773939951584185 C-86.7280795486184 -2.849780153542082, -86.68006567035687 -3.222166311925746, -86.56460233113748 -4.117677170096128 M-86.56460233113748 -4.117677170096128 C-86.44734413549101 -4.719773222212313, -86.33008593984454 -5.321869274328499, -86.24845246268467 -5.741039926302906 M-86.56460233113748 -4.117677170096128 C-86.47603326722371 -4.57246059421503, -86.38746420330995 -5.027244018333931, -86.24845246268467 -5.741039926302906 M-86.24845246268467 -5.741039926302906 C-86.1638915802369 -6.063507219994518, -86.07933069778913 -6.385974513686129, -85.8289429491449 -7.340811518003303 M-86.24845246268467 -5.741039926302906 C-86.15572640937914 -6.094644555282595, -86.06300035607362 -6.448249184262284, -85.8289429491449 -7.340811518003303 M-85.8289429491449 -7.340811518003303 C-85.6275391773535 -7.947407589305826, -85.42613540556208 -8.554003660608348, -85.30779764509383 -8.910418140577093 M-85.8289429491449 -7.340811518003303 C-85.70362682130904 -7.718243728631435, -85.57831069347318 -8.095675939259568, -85.30779764509383 -8.910418140577093 M-85.30779764509383 -8.910418140577093 C-85.17760335665339 -9.232000550160311, -85.04740906821294 -9.553582959743531, -84.68715804837109 -10.443409943732574 M-85.30779764509383 -8.910418140577093 C-85.08954618137753 -9.44950347556136, -84.87129471766123 -9.988588810545627, -84.68715804837109 -10.443409943732574 M-84.68715804837109 -10.443409943732574 C-84.44173092268431 -10.953044621520405, -84.19630379699754 -11.462679299308235, -83.9695745002064 -11.933487535324831 M-84.68715804837109 -10.443409943732574 C-84.46547514442304 -10.903739237034976, -84.243792240475 -11.36406853033738, -83.9695745002064 -11.933487535324831 M-83.9695745002064 -11.933487535324831 C-83.75045816203082 -12.322550781690786, -83.53134182385524 -12.711614028056742, -83.15799570532036 -13.374527866909409 M-83.9695745002064 -11.933487535324831 C-83.6925775558781 -12.42532365896187, -83.4155806115498 -12.91715978259891, -83.15799570532036 -13.374527866909409 M-83.15799570532036 -13.374527866909409 C-82.88587116827154 -13.792584231486172, -82.6137466312227 -14.210640596062936, -82.25575661506429 -14.760609394661605 M-83.15799570532036 -13.374527866909409 C-82.93503846286723 -13.717050063719958, -82.71208122041408 -14.059572260530508, -82.25575661506429 -14.760609394661605 M-82.25575661506429 -14.760609394661605 C-81.86049859975546 -15.290219126429458, -81.46524058444665 -15.81982885819731, -81.26656472338968 -16.086036412270353 M-82.25575661506429 -14.760609394661605 C-81.91229683693021 -15.220814207531777, -81.56883705879615 -15.681019020401948, -81.26656472338968 -16.086036412270353 M-81.26656472338968 -16.086036412270353 C-81.03615044944236 -16.356694129392476, -80.80573617549504 -16.627351846514596, -80.19448483196045 -17.345362455817092 M-81.26656472338968 -16.086036412270353 C-80.88202354556866 -16.5377403607518, -80.49748236774764 -16.989444309233253, -80.19448483196045 -17.345362455817092 M-80.19448483196045 -17.345362455817092 C-79.92330550462417 -17.625377375528643, -79.65212617728788 -17.90539229524019, -79.04392234701089 -18.5334126844643 M-80.19448483196045 -17.345362455817092 C-79.9413061273621 -17.60679025467312, -79.68812742276373 -17.868218053529148, -79.04392234701089 -18.5334126844643 M-79.04392234701089 -18.5334126844643 C-78.67147697770315 -18.871657714505123, -78.2990316083954 -19.209902744545946, -77.81960517658653 -19.645305144986487 M-79.04392234701089 -18.5334126844643 C-78.79335232408359 -18.760973749567363, -78.5427823011563 -18.98853481467043, -77.81960517658653 -19.645305144986487 M-77.81960517658653 -19.645305144986487 C-77.43392526271192 -19.952874612927946, -77.04824534883731 -20.260444080869405, -76.52656430255585 -20.676470832763204 M-77.81960517658653 -19.645305144986487 C-77.36953516568131 -20.004224001817416, -76.91946515477609 -20.363142858648345, -76.52656430255585 -20.676470832763204 M-76.52656430255585 -20.676470832763204 C-76.16434672171908 -20.929138137008575, -75.80212914088233 -21.181805441253946, -75.17011310722665 -21.622672466799 M-76.52656430255585 -20.676470832763204 C-76.19913035616884 -20.9048745793757, -75.87169640978182 -21.133278325988197, -75.17011310722665 -21.622672466799 M-75.17011310722665 -21.622672466799 C-74.78971342727424 -21.853272988262805, -74.40931374732183 -22.083873509726615, -73.75582553951841 -22.480021901620027 M-75.17011310722665 -21.622672466799 C-74.73874339616114 -21.884171320656716, -74.30737368509564 -22.145670174514432, -73.75582553951841 -22.480021901620027 M-73.75582553951841 -22.480021901620027 C-73.42374993727528 -22.653265530605697, -73.09167433503214 -22.826509159591367, -72.28951321041058 -23.244996104497716 M-73.75582553951841 -22.480021901620027 C-73.19575407524053 -22.772210825790907, -72.63568261096263 -23.06439974996179, -72.28951321041058 -23.244996104497716 M-72.28951321041058 -23.244996104497716 C-71.83805282343594 -23.444844225714828, -71.38659243646131 -23.64469234693194, -70.77720151178646 -23.91445163234599 M-72.28951321041058 -23.244996104497716 C-71.7142834464796 -23.499633257405282, -71.13905368254862 -23.75427041031285, -70.77720151178646 -23.91445163234599 M-70.77720151178646 -23.91445163234599 C-70.21976807682304 -24.119592289270717, -69.66233464185962 -24.32473294619544, -69.22510485680553 -24.485637548803172 M-70.77720151178646 -23.91445163234599 C-70.39049709220498 -24.056762433408444, -70.0037926726235 -24.199073234470895, -69.22510485680553 -24.485637548803172 M-69.22510485680553 -24.485637548803172 C-68.8351000584241 -24.601388925785816, -68.44509526004269 -24.71714030276846, -67.63960114354681 -24.956206728419538 M-69.22510485680553 -24.485637548803172 C-68.84540597054841 -24.59833018516416, -68.46570708429131 -24.71102282152514, -67.63960114354681 -24.956206728419538 M-67.63960114354681 -24.956206728419538 C-67.04733446324725 -25.09138773329663, -66.4550677829477 -25.226568738173725, -66.02720554685754 -25.324225501499278 M-67.63960114354681 -24.956206728419538 C-67.24329281755801 -25.046661517672966, -66.8469844915692 -25.137116306926398, -66.02720554685754 -25.324225501499278 M-66.02720554685754 -25.324225501499278 C-65.43493364020759 -25.41997943022921, -64.84266173355763 -25.51573335895914, -64.39454374610233 -25.588181599964017 M-66.02720554685754 -25.324225501499278 C-65.50948551271918 -25.40792646163994, -64.99176547858083 -25.4916274217806, -64.39454374610233 -25.588181599964017 M-64.39454374610233 -25.588181599964017 C-63.74138969118417 -25.651190586109294, -63.088235636266 -25.71419957225457, -62.748324698825286 -25.746990371586765 M-64.39454374610233 -25.588181599964017 C-63.8446116961769 -25.64123288343027, -63.29467964625147 -25.69428416689652, -62.748324698825286 -25.746990371586765 M-62.748324698825286 -25.746990371586765 C-62.274118389250276 -25.762197244948247, -61.799912079675266 -25.777404118309732, -61.0953130722046 -25.799999237060547 M-62.748324698825286 -25.746990371586765 C-62.282950942645456 -25.761914002152388, -61.817577186465634 -25.77683763271801, -61.0953130722046 -25.799999237060547 M-61.0953130722046 -25.799999237060547 C-61.0953130722046 -25.799999237060547, -61.09531307220459 -25.799999237060547, -61.09531307220459 -25.799999237060547 M-61.0953130722046 -25.799999237060547 C-61.0953130722046 -25.799999237060547, -61.09531307220459 -25.799999237060547, -61.09531307220459 -25.799999237060547" stroke="#1E5A1E" stroke-width="1.3" fill="none" stroke-dasharray="0 0" style="fill:#2D7A2D !important;stroke:#1E5A1E !important"></path></g><g class="label" style="color:#ffffff !important" transform="translate(0, -18.299999237060547)"><rect></rect><g><rect class="background" style="stroke: none"></rect><text y="-10.1" style="fill:#404040 !important"><tspan class="text-outer-tspan row" x="0" y="-0.1em" dy="1.1em"><tspan font-style="normal" class="text-inner-tspan" font-weight="normal">Log</tspan><tspan font-style="normal" class="text-inner-tspan" font-weight="normal"> EDE,</tspan><tspan font-style="normal" class="text-inner-tspan" font-weight="normal"> RRSIG</tspan><tspan font-style="normal" class="text-inner-tspan" font-weight="normal"> TTL,</tspan></tspan><tspan class="text-outer-tspan row" x="0" y="1em" dy="1.1em"><tspan font-style="normal" class="text-inner-tspan" font-weight="normal">AD-flag</tspan><tspan font-style="normal" class="text-inner-tspan" font-weight="normal"> rate</tspan></tspan></text></g></g></g></g></g></g><defs><filter id="gb7a6c334-2025-4098-ac18-843d4e56df6b-dark-drop-shadow" height="130%" width="130%"><feDropShadow dx="4" dy="4" stdDeviation="0" flood-opacity="0.06" flood-color="#000000"></feDropShadow></filter></defs><defs><filter id="gb7a6c334-2025-4098-ac18-843d4e56df6b-dark-drop-shadow-small" height="150%" width="150%"><feDropShadow dx="2" dy="2" stdDeviation="0" flood-opacity="0.06" flood-color="#000000"></feDropShadow></filter></defs><linearGradient id="gb7a6c334-2025-4098-ac18-843d4e56df6b-dark-gradient" gradientUnits="objectBoundingBox" x1="0%" y1="0%" x2="100%" y2="0%"><stop offset="0%" stop-color="#555555" stop-opacity="1"></stop><stop offset="100%" stop-color="#555555" stop-opacity="1"></stop></linearGradient></svg>