<svg id="gb7a6c334-2025-4098-ac18-843d4e56df6b-light" width="100%" xmlns="http://www.w3.org/2000/svg" xmlns:xlink="http://www.w3.org/1999/xlink" class="flowchart" style="max-width: 429.34765625px;" viewBox="0 0 429.34765625 1111.54052734375" role="graphics-document document" aria-roledescription="flowchart-v2"><style>#gb7a6c334-2025-4098-ac18-843d4e56df6b-light{font-family:"trebuchet ms",verdana,arial,sans-serif;font-size:16px;fill:#333;}@keyframes edge-animation-frame{from{stroke-dashoffset:0;}}@keyframes dash{to{stroke-dashoffset:0;}}#gb7a6c334-2025-4098-ac18-843d4e56df6b-light .edge-animation-slow{stroke-dasharray:9,5!important;stroke-dashoffset:900;animation:dash 50s linear infinite;stroke-linecap:round;}#gb7a6c334-2025-4098-ac18-843d4e56df6b-light .edge-animation-fast{stroke-dasharray:9,5!important;stroke-dashoffset:900;animation:dash 20s linear infinite;stroke-linecap:round;}#gb7a6c334-2025-4098-ac18-843d4e56df6b-light .error-icon{fill:#552222;}#gb7a6c334-2025-4098-ac18-843d4e56df6b-light .error-text{fill:#552222;stroke:#552222;}#gb7a6c334-2025-4098-ac18-843d4e56df6b-light .edge-thickness-normal{stroke-width:1px;}#gb7a6c334-2025-4098-ac18-843d4e56df6b-light .edge-thickness-thick{stroke-width:3.5px;}#gb7a6c334-2025-4098-ac18-843d4e56df6b-light .edge-pattern-solid{stroke-dasharray:0;}#gb7a6c334-2025-4098-ac18-843d4e56df6b-light .edge-thickness-invisible{stroke-width:0;fill:none;}#gb7a6c334-2025-4098-ac18-843d4e56df6b-light .edge-pattern-dashed{stroke-dasharray:3;}#gb7a6c334-2025-4098-ac18-843d4e56df6b-light .edge-pattern-dotted{stroke-dasharray:2;}#gb7a6c334-2025-4098-ac18-843d4e56df6b-light .marker{fill:#333333;stroke:#333333;}#gb7a6c334-2025-4098-ac18-843d4e56df6b-light .marker.cross{stroke:#333333;}#gb7a6c334-2025-4098-ac18-843d4e56df6b-light svg{font-family:"trebuchet ms",verdana,arial,sans-serif;font-size:16px;}#gb7a6c334-2025-4098-ac18-843d4e56df6b-light p{margin:0;}#gb7a6c334-2025-4098-ac18-843d4e56df6b-light .label{font-family:"trebuchet ms",verdana,arial,sans-serif;color:#333;}#gb7a6c334-2025-4098-ac18-843d4e56df6b-light .cluster-label text{fill:#333;}#gb7a6c334-2025-4098-ac18-843d4e56df6b-light .cluster-label span{color:#333;}#gb7a6c334-2025-4098-ac18-843d4e56df6b-light .cluster-label span p{background-color:transparent;}#gb7a6c334-2025-4098-ac18-843d4e56df6b-light .label text,#gb7a6c334-2025-4098-ac18-843d4e56df6b-light span{fill:#333;color:#333;}#gb7a6c334-2025-4098-ac18-843d4e56df6b-light .node rect,#gb7a6c334-2025-4098-ac18-843d4e56df6b-light .node circle,#gb7a6c334-2025-4098-ac18-843d4e56df6b-light .node ellipse,#gb7a6c334-2025-4098-ac18-843d4e56df6b-light .node polygon,#gb7a6c334-2025-4098-ac18-843d4e56df6b-light .node path{fill:#ECECFF;stroke:#9370DB;stroke-width:1px;}#gb7a6c334-2025-4098-ac18-843d4e56df6b-light .rough-node .label text,#gb7a6c334-2025-4098-ac18-843d4e56df6b-light .node .label text,#gb7a6c334-2025-4098-ac18-843d4e56df6b-light .image-shape .label,#gb7a6c334-2025-4098-ac18-843d4e56df6b-light .icon-shape .label{text-anchor:middle;}#gb7a6c334-2025-4098-ac18-843d4e56df6b-light .node .katex path{fill:#000;stroke:#000;stroke-width:1px;}#gb7a6c334-2025-4098-ac18-843d4e56df6b-light .rough-node .label,#gb7a6c334-2025-4098-ac18-843d4e56df6b-light .node .label,#gb7a6c334-2025-4098-ac18-843d4e56df6b-light .image-shape .label,#gb7a6c334-2025-4098-ac18-843d4e56df6b-light .icon-shape .label{text-align:center;}#gb7a6c334-2025-4098-ac18-843d4e56df6b-light .node.clickable{cursor:pointer;}#gb7a6c334-2025-4098-ac18-843d4e56df6b-light .root .anchor path{fill:#333333!important;stroke-width:0;stroke:#333333;}#gb7a6c334-2025-4098-ac18-843d4e56df6b-light .arrowheadPath{fill:#333333;}#gb7a6c334-2025-4098-ac18-843d4e56df6b-light .edgePath .path{stroke:#333333;stroke-width:1px;}#gb7a6c334-2025-4098-ac18-843d4e56df6b-light .flowchart-link{stroke:#333333;fill:none;}#gb7a6c334-2025-4098-ac18-843d4e56df6b-light .edgeLabel{background-color:rgba(232,232,232, 0.8);text-align:center;}#gb7a6c334-2025-4098-ac18-843d4e56df6b-light .edgeLabel p{background-color:rgba(232,232,232, 0.8);}#gb7a6c334-2025-4098-ac18-843d4e56df6b-light .edgeLabel rect{opacity:0.5;background-color:rgba(232,232,232, 0.8);fill:rgba(232,232,232, 0.8);}#gb7a6c334-2025-4098-ac18-843d4e56df6b-light .labelBkg{background-color:rgba(232, 232, 232, 0.5);}#gb7a6c334-2025-4098-ac18-843d4e56df6b-light .cluster rect{fill:#ffffde;stroke:#aaaa33;stroke-width:1px;}#gb7a6c334-2025-4098-ac18-843d4e56df6b-light .cluster text{fill:#333;}#gb7a6c334-2025-4098-ac18-843d4e56df6b-light .cluster span{color:#333;}#gb7a6c334-2025-4098-ac18-843d4e56df6b-light div.mermaidTooltip{position:absolute;text-align:center;max-width:200px;padding:2px;font-family:"trebuchet ms",verdana,arial,sans-serif;font-size:12px;background:hsl(80, 100%, 96.2745098039%);border:1px solid #aaaa33;border-radius:2px;pointer-events:none;z-index:100;}#gb7a6c334-2025-4098-ac18-843d4e56df6b-light .flowchartTitleText{text-anchor:middle;font-size:18px;fill:#333;}#gb7a6c334-2025-4098-ac18-843d4e56df6b-light rect.text{fill:none;stroke-width:0;}#gb7a6c334-2025-4098-ac18-843d4e56df6b-light .icon-shape,#gb7a6c334-2025-4098-ac18-843d4e56df6b-light .image-shape{background-color:rgba(232,232,232, 0.8);text-align:center;}#gb7a6c334-2025-4098-ac18-843d4e56df6b-light .icon-shape p,#gb7a6c334-2025-4098-ac18-843d4e56df6b-light .image-shape p{background-color:rgba(232,232,232, 0.8);padding:2px;}#gb7a6c334-2025-4098-ac18-843d4e56df6b-light .icon-shape .label rect,#gb7a6c334-2025-4098-ac18-843d4e56df6b-light .image-shape .label rect{opacity:0.5;background-color:rgba(232,232,232, 0.8);fill:rgba(232,232,232, 0.8);}#gb7a6c334-2025-4098-ac18-843d4e56df6b-light .label-icon{display:inline-block;height:1em;overflow:visible;vertical-align:-0.125em;}#gb7a6c334-2025-4098-ac18-843d4e56df6b-light .node .label-icon path{fill:currentColor;stroke:revert;stroke-width:revert;}#gb7a6c334-2025-4098-ac18-843d4e56df6b-light .node .neo-node{stroke:#9370DB;}#gb7a6c334-2025-4098-ac18-843d4e56df6b-light [data-look="neo"].node rect,#gb7a6c334-2025-4098-ac18-843d4e56df6b-light [data-look="neo"].cluster rect,#gb7a6c334-2025-4098-ac18-843d4e56df6b-light [data-look="neo"].node polygon{stroke:#9370DB;filter:drop-shadow(1px 2px 2px rgba(185, 185, 185, 1));}#gb7a6c334-2025-4098-ac18-843d4e56df6b-light [data-look="neo"].node path{stroke:#9370DB;stroke-width:1px;}#gb7a6c334-2025-4098-ac18-843d4e56df6b-light [data-look="neo"].node .outer-path{filter:drop-shadow(1px 2px 2px rgba(185, 185, 185, 1));}#gb7a6c334-2025-4098-ac18-843d4e56df6b-light [data-look="neo"].node .neo-line path{stroke:#9370DB;filter:none;}#gb7a6c334-2025-4098-ac18-843d4e56df6b-light [data-look="neo"].node circle{stroke:#9370DB;filter:drop-shadow(1px 2px 2px rgba(185, 185, 185, 1));}#gb7a6c334-2025-4098-ac18-843d4e56df6b-light [data-look="neo"].node circle .state-start{fill:#000000;}#gb7a6c334-2025-4098-ac18-843d4e56df6b-light [data-look="neo"].icon-shape .icon{fill:#9370DB;filter:drop-shadow(1px 2px 2px rgba(185, 185, 185, 1));}#gb7a6c334-2025-4098-ac18-843d4e56df6b-light [data-look="neo"].icon-shape .icon-neo path{stroke:#9370DB;filter:drop-shadow(1px 2px 2px rgba(185, 185, 185, 1));}#gb7a6c334-2025-4098-ac18-843d4e56df6b-light :root{--mermaid-font-family:"trebuchet ms",verdana,arial,sans-serif;}#gb7a6c334-2025-4098-ac18-843d4e56df6b-light .pri rect{fill:#2E5A88!important;stroke:#1F4870!important;color:#ffffff!important;}#gb7a6c334-2025-4098-ac18-843d4e56df6b-light .pri polygon{fill:#2E5A88!important;stroke:#1F4870!important;color:#ffffff!important;}#gb7a6c334-2025-4098-ac18-843d4e56df6b-light .pri ellipse{fill:#2E5A88!important;stroke:#1F4870!important;color:#ffffff!important;}#gb7a6c334-2025-4098-ac18-843d4e56df6b-light .pri circle{fill:#2E5A88!important;stroke:#1F4870!important;color:#ffffff!important;}#gb7a6c334-2025-4098-ac18-843d4e56df6b-light .pri path{fill:#2E5A88!important;stroke:#1F4870!important;color:#ffffff!important;}#gb7a6c334-2025-4098-ac18-843d4e56df6b-light .pri tspan{fill:#ffffff!important;}#gb7a6c334-2025-4098-ac18-843d4e56df6b-light .sec rect{fill:#1F6E68!important;stroke:#155752!important;color:#ffffff!important;}#gb7a6c334-2025-4098-ac18-843d4e56df6b-light .sec polygon{fill:#1F6E68!important;stroke:#155752!important;color:#ffffff!important;}#gb7a6c334-2025-4098-ac18-843d4e56df6b-light .sec ellipse{fill:#1F6E68!important;stroke:#155752!important;color:#ffffff!important;}#gb7a6c334-2025-4098-ac18-843d4e56df6b-light .sec circle{fill:#1F6E68!important;stroke:#155752!important;color:#ffffff!important;}#gb7a6c334-2025-4098-ac18-843d4e56df6b-light .sec path{fill:#1F6E68!important;stroke:#155752!important;color:#ffffff!important;}#gb7a6c334-2025-4098-ac18-843d4e56df6b-light .sec tspan{fill:#ffffff!important;}#gb7a6c334-2025-4098-ac18-843d4e56df6b-light .warn rect{fill:#B43A3A!important;stroke:#8E2828!important;color:#ffffff!important;}#gb7a6c334-2025-4098-ac18-843d4e56df6b-light .warn polygon{fill:#B43A3A!important;stroke:#8E2828!important;color:#ffffff!important;}#gb7a6c334-2025-4098-ac18-843d4e56df6b-light .warn ellipse{fill:#B43A3A!important;stroke:#8E2828!important;color:#ffffff!important;}#gb7a6c334-2025-4098-ac18-843d4e56df6b-light .warn circle{fill:#B43A3A!important;stroke:#8E2828!important;color:#ffffff!important;}#gb7a6c334-2025-4098-ac18-843d4e56df6b-light .warn path{fill:#B43A3A!important;stroke:#8E2828!important;color:#ffffff!important;}#gb7a6c334-2025-4098-ac18-843d4e56df6b-light .warn tspan{fill:#ffffff!important;}#gb7a6c334-2025-4098-ac18-843d4e56df6b-light .ok rect{fill:#2D7A2D!important;stroke:#1E5A1E!important;color:#ffffff!important;}#gb7a6c334-2025-4098-ac18-843d4e56df6b-light .ok polygon{fill:#2D7A2D!important;stroke:#1E5A1E!important;color:#ffffff!important;}#gb7a6c334-2025-4098-ac18-843d4e56df6b-light .ok ellipse{fill:#2D7A2D!important;stroke:#1E5A1E!important;color:#ffffff!important;}#gb7a6c334-2025-4098-ac18-843d4e56df6b-light .ok circle{fill:#2D7A2D!important;stroke:#1E5A1E!important;color:#ffffff!important;}#gb7a6c334-2025-4098-ac18-843d4e56df6b-light .ok path{fill:#2D7A2D!important;stroke:#1E5A1E!important;color:#ffffff!important;}#gb7a6c334-2025-4098-ac18-843d4e56df6b-light .ok tspan{fill:#ffffff!important;}</style><g><marker id="gb7a6c334-2025-4098-ac18-843d4e56df6b-light_flowchart-v2-pointEnd" class="marker flowchart-v2" viewBox="0 0 10 10" refX="5" refY="5" markerUnits="userSpaceOnUse" markerWidth="8" markerHeight="8" orient="auto"><path d="M 0 0 L 10 5 L 0 10 z" class="arrowMarkerPath" style="stroke-width: 1; stroke-dasharray: 1, 0;"></path></marker><marker id="gb7a6c334-2025-4098-ac18-843d4e56df6b-light_flowchart-v2-pointStart" class="marker flowchart-v2" viewBox="0 0 10 10" refX="4.5" refY="5" markerUnits="userSpaceOnUse" markerWidth="8" markerHeight="8" orient="auto"><path d="M 0 5 L 10 10 L 10 0 z" class="arrowMarkerPath" style="stroke-width: 1; stroke-dasharray: 1, 0;"></path></marker><marker id="gb7a6c334-2025-4098-ac18-843d4e56df6b-light_flowchart-v2-pointEnd-margin" class="marker flowchart-v2" viewBox="0 0 11.5 14" refX="11.5" refY="7" markerUnits="userSpaceOnUse" markerWidth="10.5" markerHeight="14" orient="auto"><path d="M 0 0 L 11.5 7 L 0 14 z" class="arrowMarkerPath" style="stroke-width: 0; stroke-dasharray: 1, 0;"></path></marker><marker id="gb7a6c334-2025-4098-ac18-843d4e56df6b-light_flowchart-v2-pointStart-margin" class="marker flowchart-v2" viewBox="0 0 11.5 14" refX="1" refY="7" markerUnits="userSpaceOnUse" markerWidth="11.5" markerHeight="14" orient="auto"><polygon points="0,7 11.5,14 11.5,0" class="arrowMarkerPath" style="stroke-width: 0; stroke-dasharray: 1, 0;"></polygon></marker><marker id="gb7a6c334-2025-4098-ac18-843d4e56df6b-light_flowchart-v2-circleEnd" class="marker flowchart-v2" viewBox="0 0 10 10" refX="11" refY="5" markerUnits="userSpaceOnUse" markerWidth="11" markerHeight="11" orient="auto"><circle cx="5" cy="5" r="5" class="arrowMarkerPath" style="stroke-width: 1; stroke-dasharray: 1, 0;"></circle></marker><marker id="gb7a6c334-2025-4098-ac18-843d4e56df6b-light_flowchart-v2-circleStart" class="marker flowchart-v2" viewBox="0 0 10 10" refX="-1" refY="5" markerUnits="userSpaceOnUse" markerWidth="11" markerHeight="11" orient="auto"><circle cx="5" cy="5" r="5" class="arrowMarkerPath" style="stroke-width: 1; stroke-dasharray: 1, 0;"></circle></marker><marker id="gb7a6c334-2025-4098-ac18-843d4e56df6b-light_flowchart-v2-circleEnd-margin" class="marker flowchart-v2" viewBox="0 0 10 10" refY="5" refX="12.25" markerUnits="userSpaceOnUse" markerWidth="14" markerHeight="14" orient="auto"><circle cx="5" cy="5" r="5" class="arrowMarkerPath" style="stroke-width: 0; stroke-dasharray: 1, 0;"></circle></marker><marker id="gb7a6c334-2025-4098-ac18-843d4e56df6b-light_flowchart-v2-circleStart-margin" class="marker flowchart-v2" viewBox="0 0 10 10" refX="-2" refY="5" markerUnits="userSpaceOnUse" markerWidth="14" markerHeight="14" orient="auto"><circle cx="5" cy="5" r="5" class="arrowMarkerPath" style="stroke-width: 0; stroke-dasharray: 1, 0;"></circle></marker><marker id="gb7a6c334-2025-4098-ac18-843d4e56df6b-light_flowchart-v2-crossEnd" class="marker cross flowchart-v2" viewBox="0 0 11 11" refX="12" refY="5.2" markerUnits="userSpaceOnUse" markerWidth="11" markerHeight="11" orient="auto"><path d="M 1,1 l 9,9 M 10,1 l -9,9" class="arrowMarkerPath" style="stroke-width: 2; stroke-dasharray: 1, 0;"></path></marker><marker id="gb7a6c334-2025-4098-ac18-843d4e56df6b-light_flowchart-v2-crossStart" class="marker cross flowchart-v2" viewBox="0 0 11 11" refX="-1" refY="5.2" markerUnits="userSpaceOnUse" markerWidth="11" markerHeight="11" orient="auto"><path d="M 1,1 l 9,9 M 10,1 l -9,9" class="arrowMarkerPath" style="stroke-width: 2; stroke-dasharray: 1, 0;"></path></marker><marker id="gb7a6c334-2025-4098-ac18-843d4e56df6b-light_flowchart-v2-crossEnd-margin" class="marker cross flowchart-v2" viewBox="0 0 15 15" refX="17.7" refY="7.5" markerUnits="userSpaceOnUse" markerWidth="12" markerHeight="12" orient="auto"><path d="M 1,1 L 14,14 M 1,14 L 14,1" class="arrowMarkerPath" style="stroke-width: 2.5;"></path></marker><marker id="gb7a6c334-2025-4098-ac18-843d4e56df6b-light_flowchart-v2-crossStart-margin" class="marker cross flowchart-v2" viewBox="0 0 15 15" refX="-3.5" refY="7.5" markerUnits="userSpaceOnUse" markerWidth="12" markerHeight="12" orient="auto"><path d="M 1,1 L 14,14 M 1,14 L 14,1" class="arrowMarkerPath" style="stroke-width: 2.5; stroke-dasharray: 1, 0;"></path></marker><g class="root"><g class="clusters"></g><g class="edgePaths"><path d="M244.8,130.833L253.48,142.475C262.16,154.118,279.519,177.403,288.199,194.462C296.879,211.521,296.879,222.354,296.879,227.771L296.879,233.188" id="gb7a6c334-2025-4098-ac18-843d4e56df6b-light-L_q1_internal_0" class="edge-thickness-normal edge-pattern-solid edge-thickness-normal edge-pattern-solid flowchart-link" style=";" data-edge="true" data-et="edge" data-id="L_q1_internal_0" data-points="W3sieCI6MjQ0Ljc5OTkwMDg2MTk0MjcyLCJ5IjoxMzAuODMyOTExNjM4MDU3Mjh9LHsieCI6Mjk2Ljg3ODkwNjI1LCJ5IjoyMDAuNjg3NX0seyJ4IjoyOTYuODc4OTA2MjUsInkiOjIzNy4xODc1fV0=" data-look="classic" marker-end="url(#gb7a6c334-2025-4098-ac18-843d4e56df6b-light_flowchart-v2-pointEnd)"></path><path d="M178.091,130.833L169.411,142.475C160.731,154.118,143.371,177.403,134.692,200.678C126.012,223.954,126.012,247.221,126.012,268.571C126.012,289.921,126.012,309.354,133.492,329.063C140.971,348.773,155.931,368.758,163.411,378.75L170.891,388.743" id="gb7a6c334-2025-4098-ac18-843d4e56df6b-light-L_q1_q2_0" class="edge-thickness-normal edge-pattern-solid edge-thickness-normal edge-pattern-solid flowchart-link" style=";" data-edge="true" data-et="edge" data-id="L_q1_q2_0" data-points="W3sieCI6MTc4LjA5MDcyNDEzODA1NzI4LCJ5IjoxMzAuODMyOTExNjM4MDU3Mjh9LHsieCI6MTI2LjAxMTcxODc1LCJ5IjoyMDAuNjg3NX0seyJ4IjoxMjYuMDExNzE4NzUsInkiOjI3MC40ODc0OTkyMzcwNjA1NX0seyJ4IjoxMjYuMDExNzE4NzUsInkiOjMyOC43ODc0OTg0NzQxMjExfSx7IngiOjE3My4yODc5MDU5NzA0NjMzLCJ5IjozOTEuOTQ0OTA1MDAzNjU3OH1d" data-look="classic" marker-end="url(#gb7a6c334-2025-4098-ac18-843d4e56df6b-light_flowchart-v2-pointEnd)"></path><path d="M296.879,303.787L296.879,307.954C296.879,312.121,296.879,320.454,289.399,334.613C281.919,348.773,266.959,368.758,259.48,378.75L252,388.743" id="gb7a6c334-2025-4098-ac18-843d4e56df6b-light-L_internal_q2_0" class="edge-thickness-normal edge-pattern-solid edge-thickness-normal edge-pattern-solid flowchart-link" style=";" data-edge="true" data-et="edge" data-id="L_internal_q2_0" data-points="W3sieCI6Mjk2Ljg3ODkwNjI1LCJ5IjozMDMuNzg3NDk4NDc0MTIxMX0seyJ4IjoyOTYuODc4OTA2MjUsInkiOjMyOC43ODc0OTg0NzQxMjExfSx7IngiOjI0OS42MDI3MTkwMjk1MzY3LCJ5IjozOTEuOTQ0OTA1MDAzNjU3Nzd9XQ==" data-look="classic" marker-end="url(#gb7a6c334-2025-4098-ac18-843d4e56df6b-light_flowchart-v2-pointEnd)"></path><path d="M168.711,489.319L156.548,502.525C144.386,515.73,120.06,542.142,107.897,560.764C95.734,579.386,95.734,590.22,95.734,595.636L95.734,601.053" id="gb7a6c334-2025-4098-ac18-843d4e56df6b-light-L_q2_policy_0" class="edge-thickness-normal edge-pattern-solid edge-thickness-normal edge-pattern-solid flowchart-link" style=";" data-edge="true" data-et="edge" data-id="L_q2_policy_0" data-points="W3sieCI6MTY4LjcxMTA3NDMxNzM3OTg4LCJ5Ijo0ODkuMzE4ODg1MjkxNTAxfSx7IngiOjk1LjczNDM3NSwieSI6NTY4LjU1MzEyMzQ3NDEyMTF9LHsieCI6OTUuNzM0Mzc1LCJ5Ijo2MDUuMDUzMTIzNDc0MTIxMX1d" data-look="classic" marker-end="url(#gb7a6c334-2025-4098-ac18-843d4e56df6b-light_flowchart-v2-pointEnd)"></path><path d="M254.18,489.319L266.342,502.525C278.505,515.73,302.831,542.142,314.993,560.764C327.156,579.386,327.156,590.22,327.156,595.636L327.156,601.053" id="gb7a6c334-2025-4098-ac18-843d4e56df6b-light-L_q2_canary_0" class="edge-thickness-normal edge-pattern-solid edge-thickness-normal edge-pattern-solid flowchart-link" style=";" data-edge="true" data-et="edge" data-id="L_q2_canary_0" data-points="W3sieCI6MjU0LjE3OTU1MDY4MjYyMDEsInkiOjQ4OS4zMTg4ODUyOTE1MDF9LHsieCI6MzI3LjE1NjI1LCJ5Ijo1NjguNTUzMTIzNDc0MTIxMX0seyJ4IjozMjcuMTU2MjUsInkiOjYwNS4wNTMxMjM0NzQxMjExfV0=" data-look="classic" marker-end="url(#gb7a6c334-2025-4098-ac18-843d4e56df6b-light_flowchart-v2-pointEnd)"></path><path d="M95.734,671.653L95.734,675.82C95.734,679.986,95.734,688.32,108.077,702.657C120.42,716.994,145.106,737.335,157.449,747.505L169.792,757.675" id="gb7a6c334-2025-4098-ac18-843d4e56df6b-light-L_policy_q3_0" class="edge-thickness-normal edge-pattern-solid edge-thickness-normal edge-pattern-solid flowchart-link" style=";" data-edge="true" data-et="edge" data-id="L_policy_q3_0" data-points="W3sieCI6OTUuNzM0Mzc1LCJ5Ijo2NzEuNjUzMTIxOTQ4MjQyMn0seyJ4Ijo5NS43MzQzNzUsInkiOjY5Ni42NTMxMjE5NDgyNDIyfSx7IngiOjE3Mi44NzkyODMyMTA3MTYyNywieSI6NzYwLjIxOTE1MTIzNzUyNTl9XQ==" data-look="classic" marker-end="url(#gb7a6c334-2025-4098-ac18-843d4e56df6b-light_flowchart-v2-pointEnd)"></path><path d="M327.156,671.653L327.156,675.82C327.156,679.986,327.156,688.32,314.813,702.657C302.47,716.994,277.784,737.335,265.441,747.505L253.098,757.675" id="gb7a6c334-2025-4098-ac18-843d4e56df6b-light-L_canary_q3_0" class="edge-thickness-normal edge-pattern-solid edge-thickness-normal edge-pattern-solid flowchart-link" style=";" data-edge="true" data-et="edge" data-id="L_canary_q3_0" data-points="W3sieCI6MzI3LjE1NjI1LCJ5Ijo2NzEuNjUzMTIxOTQ4MjQyMn0seyJ4IjozMjcuMTU2MjUsInkiOjY5Ni42NTMxMjE5NDgyNDIyfSx7IngiOjI1MC4wMTEzNDE3ODkyODM3MywieSI6NzYwLjIxOTE1MTIzNzUyNTl9XQ==" data-look="classic" marker-end="url(#gb7a6c334-2025-4098-ac18-843d4e56df6b-light_flowchart-v2-pointEnd)"></path><path d="M175.997,826.892L163.815,838.883C151.633,850.875,127.27,874.858,115.088,892.266C102.906,909.674,102.906,920.507,102.906,925.924L102.906,931.341" id="gb7a6c334-2025-4098-ac18-843d4e56df6b-light-L_q3_block_0" class="edge-thickness-normal edge-pattern-solid edge-thickness-normal edge-pattern-solid flowchart-link" style=";" data-edge="true" data-et="edge" data-id="L_q3_block_0" data-points="W3sieCI6MTc1Ljk5NjU5NDA1NzE4Mzc4LCJ5Ijo4MjYuODkxOTAzNTA1NDI2fSx7IngiOjEwMi45MDYyNSwieSI6ODk4Ljg0MDYyMTk0ODI0MjJ9LHsieCI6MTAyLjkwNjI1LCJ5Ijo5MzUuMzQwNjIxOTQ4MjQyMn1d" data-look="classic" marker-end="url(#gb7a6c334-2025-4098-ac18-843d4e56df6b-light_flowchart-v2-pointEnd)"></path><path d="M246.894,826.892L259.076,838.883C271.257,850.875,295.621,874.858,307.803,892.266C319.984,909.674,319.984,920.507,319.984,925.924L319.984,931.341" id="gb7a6c334-2025-4098-ac18-843d4e56df6b-light-L_q3_allow_0" class="edge-thickness-normal edge-pattern-solid edge-thickness-normal edge-pattern-solid flowchart-link" style=";" data-edge="true" data-et="edge" data-id="L_q3_allow_0" data-points="W3sieCI6MjQ2Ljg5NDAzMDk0MjgxNjIyLCJ5Ijo4MjYuODkxOTAzNTA1NDI2fSx7IngiOjMxOS45ODQzNzUsInkiOjg5OC44NDA2MjE5NDgyNDIyfSx7IngiOjMxOS45ODQzNzUsInkiOjkzNS4zNDA2MjE5NDgyNDIyfV0=" data-look="classic" marker-end="url(#gb7a6c334-2025-4098-ac18-843d4e56df6b-light_flowchart-v2-pointEnd)"></path><path d="M102.906,1001.941L102.906,1006.107C102.906,1010.274,102.906,1018.607,111.289,1026.739C119.673,1034.871,136.439,1042.8,144.822,1046.765L153.205,1050.73" id="gb7a6c334-2025-4098-ac18-843d4e56df6b-light-L_block_done_0" class="edge-thickness-normal edge-pattern-solid edge-thickness-normal edge-pattern-solid flowchart-link" style=";" data-edge="true" data-et="edge" data-id="L_block_done_0" data-points="W3sieCI6MTAyLjkwNjI1LCJ5IjoxMDAxLjk0MDYyMDQyMjM2MzN9LHsieCI6MTAyLjkwNjI1LCJ5IjoxMDI2Ljk0MDYyMDQyMjM2MzN9LHsieCI6MTU2LjgyMTE0Mzc2NDgwOTgyLCJ5IjoxMDUyLjQ0MDYyMDQyMjM2MzV9XQ==" data-look="classic" marker-end="url(#gb7a6c334-2025-4098-ac18-843d4e56df6b-light_flowchart-v2-pointEnd)"></path><path d="M319.984,1001.941L319.984,1006.107C319.984,1010.274,319.984,1018.607,311.766,1026.735C303.547,1034.862,287.11,1042.783,278.891,1046.744L270.673,1050.704" id="gb7a6c334-2025-4098-ac18-843d4e56df6b-light-L_allow_done_0" class="edge-thickness-normal edge-pattern-solid edge-thickness-normal edge-pattern-solid flowchart-link" style=";" data-edge="true" data-et="edge" data-id="L_allow_done_0" data-points="W3sieCI6MzE5Ljk4NDM3NSwieSI6MTAwMS45NDA2MjA0MjIzNjMzfSx7IngiOjMxOS45ODQzNzUsInkiOjEwMjYuOTQwNjIwNDIyMzYzM30seyJ4IjoyNjcuMDY5NDgxMjM1MTkwMDQsInkiOjEwNTIuNDQwNjIwNDIyMzYzNX1d" data-look="classic" marker-end="url(#gb7a6c334-2025-4098-ac18-843d4e56df6b-light_flowchart-v2-pointEnd)"></path></g><g class="edgeLabels"><g class="edgeLabel" transform="translate(296.87890625, 200.6875)"><g class="label" data-id="L_q1_internal_0" transform="translate(0, -10.5)"><g><rect class="background" style="" x="-13.328125" y="-1" width="26.65625" height="23"></rect><text y="-10.1" text-anchor="middle" style=""><tspan class="text-outer-tspan row" x="0" y="-0.1em" dy="1.1em" text-anchor="middle"><tspan font-style="normal" class="text-inner-tspan" font-weight="normal">Yes</tspan></tspan></text></g></g></g><g class="edgeLabel" transform="translate(126.01171875, 270.48749923706055)"><g class="label" data-id="L_q1_q2_0" transform="translate(0, -10.5)"><g><rect class="background" style="" x="-11.3984375" y="-1" width="22.796875" height="23"></rect><text y="-10.1" text-anchor="middle" style=""><tspan class="text-outer-tspan row" x="0" y="-0.1em" dy="1.1em" text-anchor="middle"><tspan font-style="normal" class="text-inner-tspan" font-weight="normal">No</tspan></tspan></text></g></g></g><g class="edgeLabel"><g class="label" data-id="L_internal_q2_0" transform="translate(0, 0)"><text y="-10.1" text-anchor="middle"><tspan class="text-outer-tspan row" x="0" y="-0.1em" dy="1.1em" text-anchor="middle"></tspan></text></g></g><g><rect class="background" style="stroke: none"></rect></g><g class="edgeLabel" transform="translate(95.734375, 568.5531234741211)"><g class="label" data-id="L_q2_policy_0" transform="translate(0, -10.5)"><g><rect class="background" style="" x="-13.328125" y="-1" width="26.65625" height="23"></rect><text y="-10.1" text-anchor="middle" style=""><tspan class="text-outer-tspan row" x="0" y="-0.1em" dy="1.1em" text-anchor="middle"><tspan font-style="normal" class="text-inner-tspan" font-weight="normal">Yes</tspan></tspan></text></g></g></g><g class="edgeLabel" transform="translate(327.15625, 568.5531234741211)"><g class="label" data-id="L_q2_canary_0" transform="translate(0, -10.5)"><g><rect class="background" style="" x="-11.3984375" y="-1" width="22.796875" height="23"></rect><text y="-10.1" text-anchor="middle" style=""><tspan class="text-outer-tspan row" x="0" y="-0.1em" dy="1.1em" text-anchor="middle"><tspan font-style="normal" class="text-inner-tspan" font-weight="normal">No</tspan></tspan></text></g></g></g><g class="edgeLabel"><g class="label" data-id="L_policy_q3_0" transform="translate(0, 0)"><text y="-10.1" text-anchor="middle"><tspan class="text-outer-tspan row" x="0" y="-0.1em" dy="1.1em" text-anchor="middle"></tspan></text></g></g><g><rect class="background" style="stroke: none"></rect></g><g class="edgeLabel"><g class="label" data-id="L_canary_q3_0" transform="translate(0, 0)"><text y="-10.1" text-anchor="middle"><tspan class="text-outer-tspan row" x="0" y="-0.1em" dy="1.1em" text-anchor="middle"></tspan></text></g></g><g><rect class="background" style="stroke: none"></rect></g><g class="edgeLabel" transform="translate(102.90625, 898.8406219482422)"><g class="label" data-id="L_q3_block_0" transform="translate(0, -10.5)"><g><rect class="background" style="" x="-13.328125" y="-1" width="26.65625" height="23"></rect><text y="-10.1" text-anchor="middle" style=""><tspan class="text-outer-tspan row" x="0" y="-0.1em" dy="1.1em" text-anchor="middle"><tspan font-style="normal" class="text-inner-tspan" font-weight="normal">Yes</tspan></tspan></text></g></g></g><g class="edgeLabel" transform="translate(319.984375, 898.8406219482422)"><g class="label" data-id="L_q3_allow_0" transform="translate(0, -10.5)"><g><rect class="background" style="" x="-11.3984375" y="-1" width="22.796875" height="23"></rect><text y="-10.1" text-anchor="middle" style=""><tspan class="text-outer-tspan row" x="0" y="-0.1em" dy="1.1em" text-anchor="middle"><tspan font-style="normal" class="text-inner-tspan" font-weight="normal">No</tspan></tspan></text></g></g></g><g class="edgeLabel"><g class="label" data-id="L_block_done_0" transform="translate(0, 0)"><text y="-10.1" text-anchor="middle"><tspan class="text-outer-tspan row" x="0" y="-0.1em" dy="1.1em" text-anchor="middle"></tspan></text></g></g><g><rect class="background" style="stroke: none"></rect></g><g class="edgeLabel"><g class="label" data-id="L_allow_done_0" transform="translate(0, 0)"><text y="-10.1" text-anchor="middle"><tspan class="text-outer-tspan row" x="0" y="-0.1em" dy="1.1em" text-anchor="middle"></tspan></text></g></g><g><rect class="background" style="stroke: none"></rect></g></g><g class="nodes"><g class="node default" id="gb7a6c334-2025-4098-ac18-843d4e56df6b-light-flowchart-q1-0" data-look="classic" transform="translate(211.4453125, 86.09375)"><polygon points="78.09375,0 156.1875,-78.09375 78.09375,-156.1875 0,-78.09375" class="label-container" transform="translate(-77.59375, 78.09375)"></polygon><g class="label" style="" transform="translate(0, -9.5)"><rect></rect><g><rect class="background" style="stroke: none"></rect><text y="-10.1" style=""><tspan class="text-outer-tspan row" x="0" y="-0.1em" dy="1.1em"><tspan font-style="normal" class="text-inner-tspan" font-weight="normal">Internal</tspan><tspan font-style="normal" class="text-inner-tspan" font-weight="normal"> zones?</tspan></tspan></text></g></g></g><g class="node default pri" id="gb7a6c334-2025-4098-ac18-843d4e56df6b-light-flowchart-internal-1" data-look="classic" transform="translate(296.87890625, 270.48749923706055)"><rect class="basic label-container" style="fill:#2E5A88 !important;stroke:#1F4870 !important" x="-124.46875" y="-33.29999923706055" width="248.9375" height="66.5999984741211"></rect><g class="label" style="color:#ffffff !important" transform="translate(0, -18.299999237060547)"><rect></rect><g><rect class="background" style="stroke: none"></rect><text y="-10.1" style="fill:#ffffff !important"><tspan class="text-outer-tspan row" x="0" y="-0.1em" dy="1.1em"><tspan font-style="normal" class="text-inner-tspan" font-weight="normal">Internal</tspan><tspan font-style="normal" class="text-inner-tspan" font-weight="normal"> recursive</tspan><tspan font-style="normal" class="text-inner-tspan" font-weight="normal"> resolver</tspan></tspan><tspan class="text-outer-tspan row" x="0" y="1em" dy="1.1em"><tspan font-style="normal" class="text-inner-tspan" font-weight="normal">with</tspan><tspan font-style="normal" class="text-inner-tspan" font-weight="normal"> DoH/DoT</tspan></tspan></text></g></g></g><g class="node default" id="gb7a6c334-2025-4098-ac18-843d4e56df6b-light-flowchart-q2-3" data-look="classic" transform="translate(211.4453125, 442.9203109741211)"><polygon points="89.1328125,0 178.265625,-89.1328125 89.1328125,-178.265625 0,-89.1328125" class="label-container" transform="translate(-88.6328125, 89.1328125)"></polygon><g class="label" style="" transform="translate(0, -9.5)"><rect></rect><g><rect class="background" style="stroke: none"></rect><text y="-10.1" style=""><tspan class="text-outer-tspan row" x="0" y="-0.1em" dy="1.1em"><tspan font-style="normal" class="text-inner-tspan" font-weight="normal">Devices</tspan><tspan font-style="normal" class="text-inner-tspan" font-weight="normal"> managed?</tspan></tspan></text></g></g></g><g class="node default pri" id="gb7a6c334-2025-4098-ac18-843d4e56df6b-light-flowchart-policy-7" data-look="classic" transform="translate(95.734375, 638.3531227111816)"><rect class="basic label-container" style="fill:#2E5A88 !important;stroke:#1F4870 !important" x="-87.734375" y="-33.29999923706055" width="175.46875" height="66.5999984741211"></rect><g class="label" style="color:#ffffff !important" transform="translate(0, -18.299999237060547)"><rect></rect><g><rect class="background" style="stroke: none"></rect><text y="-10.1" style="fill:#ffffff !important"><tspan class="text-outer-tspan row" x="0" y="-0.1em" dy="1.1em"><tspan font-style="normal" class="text-inner-tspan" font-weight="normal">Pin</tspan><tspan font-style="normal" class="text-inner-tspan" font-weight="normal"> endpoint</tspan><tspan font-style="normal" class="text-inner-tspan" font-weight="normal"> via</tspan></tspan><tspan class="text-outer-tspan row" x="0" y="1em" dy="1.1em"><tspan font-style="normal" class="text-inner-tspan" font-weight="normal">MDM</tspan><tspan font-style="normal" class="text-inner-tspan" font-weight="normal"> /</tspan><tspan font-style="normal" class="text-inner-tspan" font-weight="normal"> GPO</tspan></tspan></text></g></g></g><g class="node default sec" id="gb7a6c334-2025-4098-ac18-843d4e56df6b-light-flowchart-canary-9" data-look="classic" transform="translate(327.15625, 638.3531227111816)"><rect class="basic label-container" style="fill:#1F6E68 !important;stroke:#155752 !important" x="-93.6875" y="-33.29999923706055" width="187.375" height="66.5999984741211"></rect><g class="label" style="color:#ffffff !important" transform="translate(0, -18.299999237060547)"><rect></rect><g><rect class="background" style="stroke: none"></rect><text y="-10.1" style="fill:#ffffff !important"><tspan class="text-outer-tspan row" x="0" y="-0.1em" dy="1.1em"><tspan font-style="normal" class="text-inner-tspan" font-weight="normal">Canary</tspan><tspan font-style="normal" class="text-inner-tspan" font-weight="normal"> domain</tspan><tspan font-style="normal" class="text-inner-tspan" font-weight="normal"> →</tspan></tspan><tspan class="text-outer-tspan row" x="0" y="1em" dy="1.1em"><tspan font-style="normal" class="text-inner-tspan" font-weight="normal">NXDOMAIN</tspan></tspan></text></g></g></g><g class="node default" id="gb7a6c334-2025-4098-ac18-843d4e56df6b-light-flowchart-q3-11" data-look="classic" transform="translate(211.4453125, 791.9968719482422)"><polygon points="70.34375,0 140.6875,-70.34375 70.34375,-140.6875 0,-70.34375" class="label-container" transform="translate(-69.84375, 70.34375)"></polygon><g class="label" style="" transform="translate(0, -9.5)"><rect></rect><g><rect class="background" style="stroke: none"></rect><text y="-10.1" style=""><tspan class="text-outer-tspan row" x="0" y="-0.1em" dy="1.1em"><tspan font-style="normal" class="text-inner-tspan" font-weight="normal">Egress</tspan><tspan font-style="normal" class="text-inner-tspan" font-weight="normal"> filter?</tspan></tspan></text></g></g></g><g class="node default pri" id="gb7a6c334-2025-4098-ac18-843d4e56df6b-light-flowchart-block-15" data-look="classic" transform="translate(102.90625, 968.6406211853027)"><rect class="basic label-container" style="fill:#2E5A88 !important;stroke:#1F4870 !important" x="-93.84375" y="-33.29999923706055" width="187.6875" height="66.5999984741211"></rect><g class="label" style="color:#ffffff !important" transform="translate(0, -18.299999237060547)"><rect></rect><g><rect class="background" style="stroke: none"></rect><text y="-10.1" style="fill:#ffffff !important"><tspan class="text-outer-tspan row" x="0" y="-0.1em" dy="1.1em"><tspan font-style="normal" class="text-inner-tspan" font-weight="normal">Block</tspan><tspan font-style="normal" class="text-inner-tspan" font-weight="normal"> 853,</tspan></tspan><tspan class="text-outer-tspan row" x="0" y="1em" dy="1.1em"><tspan font-style="normal" class="text-inner-tspan" font-weight="normal">allowlist</tspan><tspan font-style="normal" class="text-inner-tspan" font-weight="normal"> DoH/443</tspan></tspan></text></g></g></g><g class="node default warn" id="gb7a6c334-2025-4098-ac18-843d4e56df6b-light-flowchart-allow-17" data-look="classic" transform="translate(319.984375, 968.6406211853027)"><rect class="basic label-container" style="fill:#B43A3A !important;stroke:#8E2828 !important" x="-73.234375" y="-33.29999923706055" width="146.46875" height="66.5999984741211"></rect><g class="label" style="color:#ffffff !important" transform="translate(0, -18.299999237060547)"><rect></rect><g><rect class="background" style="stroke: none"></rect><text y="-10.1" style="fill:#ffffff !important"><tspan class="text-outer-tspan row" x="0" y="-0.1em" dy="1.1em"><tspan font-style="normal" class="text-inner-tspan" font-weight="normal">DoH/443</tspan></tspan><tspan class="text-outer-tspan row" x="0" y="1em" dy="1.1em"><tspan font-style="normal" class="text-inner-tspan" font-weight="normal">unblockable</tspan></tspan></text></g></g></g><g class="node default ok" id="gb7a6c334-2025-4098-ac18-843d4e56df6b-light-flowchart-done-19" data-look="classic" transform="translate(211.4453125, 1077.7406196594238)"><g class="basic label-container outer-path"><path d="M-61.09531307220459 -25.799999237060547 C-32.45714216730073 -25.799999237060547, -3.8189712623968646 -25.799999237060547, 61.09531307220459 -25.799999237060547 C61.09531307220459 -25.799999237060547, 61.09531307220459 -25.799999237060547, 61.09531307220459 -25.799999237060547 C61.55855267838625 -25.785144044531496, 62.0217922845679 -25.770288852002444, 62.748324698825286 -25.746990371586765 C63.10276447272542 -25.712797992874815, 63.45720424662556 -25.678605614162862, 64.39454374610231 -25.58818159996402 C64.85307997032595 -25.51404901923307, 65.31161619454957 -25.439916438502124, 66.02720554685753 -25.32422550149928 C66.56204234885409 -25.202152491579866, 67.09687915085067 -25.080079481660455, 67.63960114354678 -24.956206728419545 C68.05059418249544 -24.83422615180607, 68.46158722144409 -24.712245575192597, 69.22510485680552 -24.48563754880318 C69.84555228065813 -24.257307161472305, 70.46599970451074 -24.02897677414143, 70.77720151178644 -23.914451632345997 C71.27523234979084 -23.693988153921353, 71.77326318779525 -23.473524675496705, 72.28951321041056 -23.24499610449772 C72.86898432612097 -22.942686394600567, 73.44845544183137 -22.640376684703416, 73.7558255395184 -22.480021901620034 C74.26571785045947 -22.17092218626774, 74.77561016140052 -21.861822470915445, 75.17011310722664 -21.62267246679901 C75.48476071300189 -21.403187917885518, 75.79940831877715 -21.183703368972026, 76.52656430255584 -20.67647083276321 C76.80172708249414 -20.457035838151512, 77.07688986243244 -20.23760084353981, 77.8196051765865 -19.64530514498651 C78.11249856597846 -19.379307118275165, 78.4053919553704 -19.113309091563817, 79.04392234701088 -18.533412684464313 C79.36199446036836 -18.204977113216543, 79.68006657372585 -17.876541541968773, 80.19448483196044 -17.345362455817106 C80.43518612632892 -17.062621019160243, 80.67588742069739 -16.779879582503384, 81.26656472338968 -16.086036412270357 C81.53200413278894 -15.730371785703015, 81.79744354218819 -15.374707159135676, 82.25575661506427 -14.76060939466161 C82.46294158336687 -14.442317646394914, 82.67012655166948 -14.124025898128219, 83.15799570532036 -13.374527866909407 C83.3768996112343 -12.985841815535114, 83.59580351714821 -12.59715576416082, 83.9695745002064 -11.93348753532484 C84.18336428158297 -11.489548479927883, 84.39715406295953 -11.045609424530925, 84.68715804837109 -10.443409943732584 C84.90954116160817 -9.894119354551968, 85.13192427484526 -9.344828765371352, 85.30779764509381 -8.910418140577123 C85.46459160012088 -8.43817972975974, 85.62138555514795 -7.965941318942359, 85.8289429491449 -7.340811518003323 C85.95893293476973 -6.8451033647996695, 86.08892292039458 -6.349395211596017, 86.24845246268467 -5.741039926302914 C86.35506401245212 -5.193612150606064, 86.46167556221958 -4.646184374909214, 86.56460233113748 -4.117677170096137 C86.6135827218055 -3.737794932347142, 86.6625631124735 -3.3579126945981477, 86.77609342687991 -2.4773939951584394 C86.81271088308182 -1.9070475577349462, 86.84932833928374 -1.3367011203114527, 86.88205668763487 -0.8269306768952902 C86.88205668763487 -0.3389065158008921, 86.88205668763487 0.14911764529350602, 86.88205668763487 0.826930676895284 C86.84833464228923 1.3521787530987854, 86.81461259694358 1.8774268293022867, 86.77609342687991 2.4773939951584216 C86.704678509387 3.0312739927629107, 86.63326359189408 3.5851539903673997, 86.56460233113748 4.117677170096119 C86.46389860688072 4.634769510414879, 86.36319488262397 5.151861850733639, 86.24845246268467 5.741039926302909 C86.14537957413222 6.134101522425893, 86.04230668557976 6.527163118548877, 85.8289429491449 7.340811518003306 C85.66518151725042 7.834034859028677, 85.50142008535593 8.327258200054048, 85.30779764509383 8.910418140577105 C85.17266801989601 9.244190927369287, 85.03753839469819 9.577963714161466, 84.68715804837109 10.443409943732577 C84.40415631719492 11.031069093786915, 84.12115458601875 11.618728243841252, 83.9695745002064 11.933487535324835 C83.79930835393922 12.2358123193391, 83.62904220767206 12.538137103353366, 83.15799570532037 13.374527866909402 C82.89856478722011 13.773083424067218, 82.63913386911983 14.171638981225035, 82.25575661506429 14.760609394661596 C81.9539308187471 15.16502846483092, 81.65210502242991 15.569447535000243, 81.26656472338968 16.086036412270353 C80.88340165898808 16.536121550312487, 80.50023859458646 16.98620668835462, 80.19448483196045 17.345362455817092 C79.93124082286016 17.61718350794823, 79.66799681375987 17.889004560079364, 79.04392234701088 18.533412684464306 C78.66828569309703 18.874555954747624, 78.2926490391832 19.215699225030942, 77.81960517658653 19.64530514498649 C77.41988677227532 19.964069935471223, 77.0201683679641 20.282834725955954, 76.52656430255584 20.676470832763208 C76.09757972308444 20.975711904959322, 75.66859514361302 21.274952977155436, 75.17011310722665 21.622672466799003 C74.62181666620266 21.95505299149529, 74.07352022517867 22.287433516191577, 73.75582553951841 22.48002190162003 C73.38628598498383 22.672810450519343, 73.01674643044925 22.86559899941865, 72.28951321041058 23.244996104497716 C71.79650749299178 23.463235111104016, 71.30350177557298 23.681474117710316, 70.77720151178644 23.914451632345994 C70.19506884791211 24.128681833827105, 69.61293618403778 24.342912035308213, 69.22510485680553 24.485637548803172 C68.86243634600154 24.593275659123936, 68.49976783519756 24.7009137694447, 67.63960114354681 24.95620672841954 C67.24197911505658 25.04696136169621, 66.84435708656636 25.13771599497288, 66.02720554685754 25.324225501499278 C65.56231801263633 25.399384912775492, 65.09743047841512 25.474544324051706, 64.39454374610233 25.588181599964017 C63.9358115001449 25.63243494802529, 63.47707925418747 25.676688296086557, 62.748324698825286 25.746990371586765 C62.328271678941626 25.76046065435083, 61.908218659057965 25.773930937114898, 61.0953130722046 25.799999237060547 C61.0953130722046 25.799999237060547, 61.09531307220459 25.799999237060547, 61.09531307220459 25.799999237060547 C22.4156854533842 25.799999237060547, -16.26394216543619 25.799999237060547, -61.09531307220458 25.799999237060547 C-61.47637411361399 25.787779351152867, -61.85743515502341 25.77555946524519, -62.74832469882527 25.746990371586765 C-63.1865261875089 25.70471760098785, -63.62472767619253 25.662444830388935, -64.39454374610231 25.588181599964017 C-64.98777137282896 25.492273157823806, -65.5809989995556 25.3963647156836, -66.02720554685753 25.324225501499278 C-66.51972037929731 25.21181220495454, -67.01223521173708 25.099398908409807, -67.63960114354678 24.956206728419545 C-68.08388975780638 24.824344199825823, -68.52817837206598 24.692481671232102, -69.2251048568055 24.485637548803183 C-69.82254408614475 24.265774389738645, -70.41998331548399 24.045911230674108, -70.77720151178644 23.914451632345997 C-71.24630381266566 23.70679395917211, -71.71540611354487 23.499136285998222, -72.28951321041056 23.244996104497723 C-72.73198548044681 23.01415860463683, -73.17445775048306 22.783321104775933, -73.7558255395184 22.480021901620038 C-74.22886426769317 22.193263044716364, -74.70190299586793 21.90650418781269, -75.17011310722663 21.622672466799017 C-75.51360803868732 21.383065272267967, -75.857102970148 21.143458077736913, -76.52656430255584 20.67647083276321 C-77.02948266984772 20.27540681806775, -77.5324010371396 19.87434280337229, -77.8196051765865 19.645305144986512 C-78.13305862858341 19.360635013406785, -78.44651208058033 19.07596488182706, -79.04392234701086 18.533412684464324 C-79.4893944480792 18.073426166171593, -79.93486654914751 17.613439647878863, -80.19448483196044 17.3453624558171 C-80.40970535837255 17.092552179098554, -80.62492588478467 16.839741902380005, -81.26656472338968 16.08603641227036 C-81.56951045721924 15.680116727862869, -81.87245619104878 15.274197043455377, -82.25575661506427 14.760609394661614 C-82.47472436264947 14.424216133297595, -82.69369211023466 14.087822871933577, -83.15799570532036 13.374527866909418 C-83.3437732377704 13.044661046029299, -83.52955077022044 12.714794225149179, -83.96957450020639 11.933487535324842 C-84.23456537147823 11.383228321232535, -84.49955624275007 10.832969107140228, -84.68715804837109 10.443409943732586 C-84.8958122403044 9.928030055602955, -85.10446643223769 9.412650167473323, -85.30779764509381 8.910418140577127 C-85.43987114210509 8.512633810633215, -85.57194463911637 8.114849480689305, -85.8289429491449 7.340811518003316 C-85.92266918653344 6.983392753632586, -86.01639542392198 6.625973989261855, -86.24845246268467 5.741039926302918 C-86.33631412715444 5.2898888488199916, -86.42417579162422 4.838737771337066, -86.56460233113748 4.117677170096139 C-86.62354149484199 3.6605566552582727, -86.6824806585465 3.2034361404204064, -86.77609342687991 2.477393995158454 C-86.80374306817335 2.0467285136245095, -86.83139270946677 1.616063032090565, -86.88205668763487 0.8269306768952934 C-86.88205668763487 0.2581870523606775, -86.88205668763487 -0.3105565721739384, -86.88205668763487 -0.8269306768952809 C-86.85202549014136 -1.2946908186031398, -86.82199429264783 -1.7624509603109986, -86.77609342687991 -2.4773939951584185 C-86.71118884312523 -2.9807811298999662, -86.64628425937056 -3.4841682646415135, -86.56460233113748 -4.117677170096128 C-86.49720650483714 -4.463740494035428, -86.4298106785368 -4.8098038179747284, -86.24845246268467 -5.741039926302906 C-86.08306947179878 -6.371716947992454, -85.91768648091289 -7.002393969682, -85.8289429491449 -7.340811518003303 C-85.6979849753629 -7.735236069715149, -85.5670270015809 -8.129660621426995, -85.30779764509383 -8.910418140577093 C-85.06501079563272 -9.510106352710453, -84.8222239461716 -10.109794564843813, -84.68715804837109 -10.443409943732574 C-84.51061518173158 -10.810004983721722, -84.33407231509207 -11.17660002371087, -83.9695745002064 -11.933487535324831 C-83.67722452727962 -12.452584515901206, -83.38487455435283 -12.971681496477583, -83.15799570532036 -13.374527866909409 C-82.920222495852 -13.739811367699554, -82.68244928638363 -14.105094868489699, -82.25575661506429 -14.760609394661605 C-81.99947759561893 -15.103999933219406, -81.74319857617357 -15.447390471777208, -81.26656472338968 -16.086036412270353 C-81.04348042256348 -16.348083925877123, -80.82039612173729 -16.610131439483894, -80.19448483196045 -17.345362455817092 C-79.8730954634337 -17.67722336537884, -79.55170609490695 -18.009084274940587, -79.04392234701089 -18.5334126844643 C-78.60158748147215 -18.93512950580737, -78.15925261593343 -19.336846327150443, -77.81960517658653 -19.645305144986487 C-77.44705689412693 -19.942402486321868, -77.07450861166733 -20.23949982765725, -76.52656430255585 -20.676470832763204 C-76.23164049191362 -20.88219691602123, -75.93671668127139 -21.087922999279257, -75.17011310722665 -21.622672466799 C-74.71308089061338 -21.89972808232939, -74.25604867400013 -22.17678369785978, -73.75582553951841 -22.480021901620027 C-73.3441421998004 -22.694796836255147, -72.9324588600824 -22.909571770890267, -72.28951321041058 -23.244996104497716 C-71.68684900315664 -23.51177767165051, -71.0841847959027 -23.778559238803304, -70.77720151178646 -23.91445163234599 C-70.35989772080137 -24.068023284942463, -69.94259392981627 -24.22159493753893, -69.22510485680553 -24.485637548803172 C-68.69309437155296 -24.64353546824611, -68.1610838863004 -24.80143338768905, -67.63960114354681 -24.956206728419538 C-67.30571578186702 -25.032413883417345, -66.97183042018725 -25.10862103841515, -66.02720554685754 -25.324225501499278 C-65.49776388755336 -25.409821523094188, -64.96832222824918 -25.4954175446891, -64.39454374610233 -25.588181599964017 C-63.89050259216243 -25.63680584388642, -63.38646143822252 -25.68543008780883, -62.748324698825286 -25.746990371586765 C-62.41365277268167 -25.757722648858806, -62.07898084653806 -25.768454926130843, -61.0953130722046 -25.799999237060547 C-61.0953130722046 -25.799999237060547, -61.09531307220459 -25.799999237060547, -61.09531307220459 -25.799999237060547" stroke="none" stroke-width="0" fill="#2D7A2D" style="fill:#2D7A2D !important;stroke:#1E5A1E !important"></path><path d="M-61.09531307220459 -25.799999237060547 C-18.68246444983692 -25.799999237060547, 23.730384172530748 -25.799999237060547, 61.09531307220459 -25.799999237060547 M-61.09531307220459 -25.799999237060547 C-22.14872688406909 -25.799999237060547, 16.797859304066407 -25.799999237060547, 61.09531307220459 -25.799999237060547 M61.09531307220459 -25.799999237060547 C61.09531307220459 -25.799999237060547, 61.09531307220459 -25.799999237060547, 61.09531307220459 -25.799999237060547 M61.09531307220459 -25.799999237060547 C61.09531307220459 -25.799999237060547, 61.09531307220459 -25.799999237060547, 61.09531307220459 -25.799999237060547 M61.09531307220459 -25.799999237060547 C61.571827000953434 -25.784718362843666, 62.04834092970227 -25.76943748862679, 62.748324698825286 -25.746990371586765 M61.09531307220459 -25.799999237060547 C61.54528996599054 -25.78556935390372, 61.99526685977649 -25.771139470746895, 62.748324698825286 -25.746990371586765 M62.748324698825286 -25.746990371586765 C63.098409901585754 -25.71321807311552, 63.44849510434622 -25.679445774644275, 64.39454374610231 -25.58818159996402 M62.748324698825286 -25.746990371586765 C63.31240192552542 -25.69257451992912, 63.876479152225556 -25.63815866827148, 64.39454374610231 -25.58818159996402 M64.39454374610231 -25.58818159996402 C64.93729940548873 -25.50043307408743, 65.48005506487513 -25.412684548210834, 66.02720554685753 -25.32422550149928 M64.39454374610231 -25.58818159996402 C64.87994324778472 -25.509705972861365, 65.36534274946715 -25.431230345758706, 66.02720554685753 -25.32422550149928 M66.02720554685753 -25.32422550149928 C66.46235227142748 -25.224906101213943, 66.89749899599742 -25.125586700928604, 67.63960114354678 -24.956206728419545 M66.02720554685753 -25.32422550149928 C66.42782277761331 -25.23278723285102, 66.8284400083691 -25.14134896420276, 67.63960114354678 -24.956206728419545 M67.63960114354678 -24.956206728419545 C68.07335831296062 -24.82746987737536, 68.50711548237447 -24.69873302633118, 69.22510485680552 -24.48563754880318 M67.63960114354678 -24.956206728419545 C67.97965037798657 -24.855281900592672, 68.31969961242636 -24.7543570727658, 69.22510485680552 -24.48563754880318 M69.22510485680552 -24.48563754880318 C69.57413342210073 -24.357191810389853, 69.92316198739594 -24.228746071976524, 70.77720151178644 -23.914451632345997 M69.22510485680552 -24.48563754880318 C69.55016447027506 -24.36601260622826, 69.8752240837446 -24.24638766365334, 70.77720151178644 -23.914451632345997 M70.77720151178644 -23.914451632345997 C71.14696063984739 -23.75077023486824, 71.51671976790833 -23.587088837390482, 72.28951321041056 -23.24499610449772 M70.77720151178644 -23.914451632345997 C71.22231236207408 -23.7174142626679, 71.66742321236173 -23.52037689298981, 72.28951321041056 -23.24499610449772 M72.28951321041056 -23.24499610449772 C72.70900302103233 -23.026148538992388, 73.1284928316541 -22.80730097348706, 73.7558255395184 -22.480021901620034 M72.28951321041056 -23.24499610449772 C72.63367957745373 -23.065444731260374, 72.9778459444969 -22.885893358023033, 73.7558255395184 -22.480021901620034 M73.7558255395184 -22.480021901620034 C74.1417706522761 -22.246059706201088, 74.52771576503378 -22.01209751078214, 75.17011310722664 -21.62267246679901 M73.7558255395184 -22.480021901620034 C74.05040711336525 -22.301444820400587, 74.34498868721211 -22.12286773918114, 75.17011310722664 -21.62267246679901 M75.17011310722664 -21.62267246679901 C75.48375560180725 -21.40388903994434, 75.79739809638785 -21.18510561308967, 76.52656430255584 -20.67647083276321 M75.17011310722664 -21.62267246679901 C75.48946440399361 -21.3999068266692, 75.80881570076058 -21.177141186539387, 76.52656430255584 -20.67647083276321 M76.52656430255584 -20.67647083276321 C76.82821902695427 -20.4359092174248, 77.12987375135272 -20.19534760208639, 77.8196051765865 -19.64530514498651 M76.52656430255584 -20.67647083276321 C76.9563786255742 -20.333705347995565, 77.38619294859255 -19.99093986322792, 77.8196051765865 -19.64530514498651 M77.8196051765865 -19.64530514498651 C78.0772987716524 -19.411274640146576, 78.33499236671827 -19.177244135306644, 79.04392234701088 -18.533412684464313 M77.8196051765865 -19.64530514498651 C78.18722826816919 -19.3114395799851, 78.5548513597519 -18.977574014983695, 79.04392234701088 -18.533412684464313 M79.04392234701088 -18.533412684464313 C79.27773361543409 -18.29198335355521, 79.5115448838573 -18.05055402264611, 80.19448483196044 -17.345362455817106 M79.04392234701088 -18.533412684464313 C79.46820781557513 -18.095303103686927, 79.89249328413938 -17.65719352290954, 80.19448483196044 -17.345362455817106 M80.19448483196044 -17.345362455817106 C80.41256477443123 -17.089193346290653, 80.63064471690203 -16.8330242367642, 81.26656472338968 -16.086036412270357 M80.19448483196044 -17.345362455817106 C80.58415041358516 -16.88763909104099, 80.97381599520988 -16.42991572626488, 81.26656472338968 -16.086036412270357 M81.26656472338968 -16.086036412270357 C81.61314521965265 -15.621650121410713, 81.95972571591564 -15.15726383055107, 82.25575661506427 -14.76060939466161 M81.26656472338968 -16.086036412270357 C81.52903395261643 -15.734351556545183, 81.7915031818432 -15.38266670082001, 82.25575661506427 -14.76060939466161 M82.25575661506427 -14.76060939466161 C82.49156234992589 -14.39834846320835, 82.7273680847875 -14.03608753175509, 83.15799570532036 -13.374527866909407 M82.25575661506427 -14.76060939466161 C82.59129727786443 -14.24512883131668, 82.92683794066458 -13.729648267971752, 83.15799570532036 -13.374527866909407 M83.15799570532036 -13.374527866909407 C83.41298743300653 -12.921764233690276, 83.66797916069271 -12.469000600471146, 83.9695745002064 -11.93348753532484 M83.15799570532036 -13.374527866909407 C83.39094907027145 -12.960895578352648, 83.62390243522253 -12.54726328979589, 83.9695745002064 -11.93348753532484 M83.9695745002064 -11.93348753532484 C84.20480804039133 -11.445020055939384, 84.44004158057626 -10.956552576553927, 84.68715804837109 -10.443409943732584 M83.9695745002064 -11.93348753532484 C84.19230605017366 -11.470980706126126, 84.4150376001409 -11.008473876927411, 84.68715804837109 -10.443409943732584 M84.68715804837109 -10.443409943732584 C84.92749020161742 -9.849784878708075, 85.16782235486373 -9.256159813683565, 85.30779764509381 -8.910418140577123 M84.68715804837109 -10.443409943732584 C84.88797143070595 -9.947397006902845, 85.0887848130408 -9.451384070073107, 85.30779764509381 -8.910418140577123 M85.30779764509381 -8.910418140577123 C85.4650049890214 -8.436934668255962, 85.62221233294899 -7.963451195934798, 85.8289429491449 -7.340811518003323 M85.30779764509381 -8.910418140577123 C85.4843463212221 -8.378681657290217, 85.66089499735041 -7.846945174003311, 85.8289429491449 -7.340811518003323 M85.8289429491449 -7.340811518003323 C85.96867566169598 -6.8079501245053535, 86.10840837424706 -6.275088731007384, 86.24845246268467 -5.741039926302914 M85.8289429491449 -7.340811518003323 C85.9644458386738 -6.824080272905829, 86.09994872820269 -6.3073490278083355, 86.24845246268467 -5.741039926302914 M86.24845246268467 -5.741039926302914 C86.34555594699593 -5.242434057193265, 86.44265943130719 -4.743828188083615, 86.56460233113748 -4.117677170096137 M86.24845246268467 -5.741039926302914 C86.3704548539925 -5.114583432151773, 86.49245724530033 -4.488126938000632, 86.56460233113748 -4.117677170096137 M86.56460233113748 -4.117677170096137 C86.64386491539575 -3.5029322187565395, 86.72312749965404 -2.888187267416942, 86.77609342687991 -2.4773939951584394 M86.56460233113748 -4.117677170096137 C86.63219050913025 -3.593476608379567, 86.69977868712301 -3.069276046662998, 86.77609342687991 -2.4773939951584394 M86.77609342687991 -2.4773939951584394 C86.81586854773253 -1.8578643819791072, 86.85564366858516 -1.2383347687997752, 86.88205668763487 -0.8269306768952902 M86.77609342687991 -2.4773939951584394 C86.81102054255474 -1.9333759758625804, 86.84594765822958 -1.3893579565667216, 86.88205668763487 -0.8269306768952902 M86.88205668763487 -0.8269306768952902 C86.88205668763487 -0.33976757302219984, 86.88205668763487 0.14739553085089052, 86.88205668763487 0.826930676895284 M86.88205668763487 -0.8269306768952902 C86.88205668763487 -0.25399149208890104, 86.88205668763487 0.31894769271748813, 86.88205668763487 0.826930676895284 M86.88205668763487 0.826930676895284 C86.85409504550897 1.2624558232374874, 86.82613340338307 1.697980969579691, 86.77609342687991 2.4773939951584216 M86.88205668763487 0.826930676895284 C86.84852963323277 1.3491416117591193, 86.81500257883069 1.8713525466229546, 86.77609342687991 2.4773939951584216 M86.77609342687991 2.4773939951584216 C86.70386824431182 3.0375582486810635, 86.63164306174373 3.5977225022037054, 86.56460233113748 4.117677170096119 M86.77609342687991 2.4773939951584216 C86.71540187564807 2.948105681610208, 86.65471032441623 3.4188173680619944, 86.56460233113748 4.117677170096119 M86.56460233113748 4.117677170096119 C86.44299367057154 4.742111940102698, 86.3213850100056 5.366546710109278, 86.24845246268467 5.741039926302909 M86.56460233113748 4.117677170096119 C86.44063476586949 4.75422441719304, 86.3166672006015 5.390771664289961, 86.24845246268467 5.741039926302909 M86.24845246268467 5.741039926302909 C86.12499388331966 6.211840996708451, 86.00153530395465 6.682642067113994, 85.8289429491449 7.340811518003306 M86.24845246268467 5.741039926302909 C86.15706985665177 6.089521408578336, 86.06568725061886 6.438002890853763, 85.8289429491449 7.340811518003306 M85.8289429491449 7.340811518003306 C85.67975222165785 7.790150218879971, 85.5305614941708 8.239488919756635, 85.30779764509383 8.910418140577105 M85.8289429491449 7.340811518003306 C85.63073722513681 7.937775578922183, 85.43253150112872 8.534739639841062, 85.30779764509383 8.910418140577105 M85.30779764509383 8.910418140577105 C85.08595494448518 9.458373900117316, 84.86411224387652 10.006329659657524, 84.68715804837109 10.443409943732577 M85.30779764509383 8.910418140577105 C85.15606749109092 9.285194554467228, 85.00433733708803 9.659970968357353, 84.68715804837109 10.443409943732577 M84.68715804837109 10.443409943732577 C84.42033495933332 10.997473797219033, 84.15351187029555 11.551537650705491, 83.9695745002064 11.933487535324835 M84.68715804837109 10.443409943732577 C84.53709007536942 10.755029300610795, 84.38702210236774 11.066648657489013, 83.9695745002064 11.933487535324835 M83.9695745002064 11.933487535324835 C83.684286260184 12.440045694051497, 83.39899802016159 12.946603852778157, 83.15799570532037 13.374527866909402 M83.9695745002064 11.933487535324835 C83.6911775905653 12.427809439136603, 83.41278068092421 12.92213134294837, 83.15799570532037 13.374527866909402 M83.15799570532037 13.374527866909402 C82.84982669854986 13.84795821627401, 82.54165769177935 14.32138856563862, 82.25575661506429 14.760609394661596 M83.15799570532037 13.374527866909402 C82.88794640161198 13.789396115797059, 82.61789709790361 14.204264364684715, 82.25575661506429 14.760609394661596 M82.25575661506429 14.760609394661596 C81.87569562885673 15.269856491911584, 81.49563464264918 15.779103589161574, 81.26656472338968 16.086036412270353 M82.25575661506429 14.760609394661596 C81.92536083778992 15.203309636534723, 81.59496506051556 15.646009878407847, 81.26656472338968 16.086036412270353 M81.26656472338968 16.086036412270353 C81.0194609129762 16.376298608587156, 80.77235710256272 16.66656080490396, 80.19448483196045 17.345362455817092 M81.26656472338968 16.086036412270353 C81.03894595773507 16.353410366282944, 80.81132719208044 16.62078432029553, 80.19448483196045 17.345362455817092 M80.19448483196045 17.345362455817092 C79.7852989851329 17.76788043744934, 79.37611313830534 18.19039841908159, 79.04392234701088 18.533412684464306 M80.19448483196045 17.345362455817092 C79.93663914318675 17.611609299000683, 79.67879345441305 17.877856142184278, 79.04392234701088 18.533412684464306 M79.04392234701088 18.533412684464306 C78.64627223792041 18.894547992294928, 78.24862212882995 19.25568330012555, 77.81960517658653 19.64530514498649 M79.04392234701088 18.533412684464306 C78.76573569871204 18.786054438033936, 78.48754905041321 19.038696191603567, 77.81960517658653 19.64530514498649 M77.81960517658653 19.64530514498649 C77.37278110357731 20.001635452723388, 76.9259570305681 20.35796576046029, 76.52656430255584 20.676470832763208 M77.81960517658653 19.64530514498649 C77.44048973455111 19.947639621324132, 77.06137429251568 20.249974097661774, 76.52656430255584 20.676470832763208 M76.52656430255584 20.676470832763208 C76.10322646160263 20.971772984612397, 75.67988862064942 21.26707513646158, 75.17011310722665 21.622672466799003 M76.52656430255584 20.676470832763208 C76.17474485782162 20.921884847391503, 75.8229254130874 21.1672988620198, 75.17011310722665 21.622672466799003 M75.17011310722665 21.622672466799003 C74.69457675235208 21.910945399685783, 74.21904039747751 22.199218332572563, 73.75582553951841 22.48002190162003 M75.17011310722665 21.622672466799003 C74.6488061099891 21.938691832064375, 74.12749911275155 22.254711197329744, 73.75582553951841 22.48002190162003 M73.75582553951841 22.48002190162003 C73.39587690970423 22.66780687123599, 73.03592827989006 22.855591840851943, 72.28951321041058 23.244996104497716 M73.75582553951841 22.48002190162003 C73.44933659708923 22.639916986569798, 73.14284765466005 22.79981207151957, 72.28951321041058 23.244996104497716 M72.28951321041058 23.244996104497716 C71.69823441831448 23.506737686096475, 71.10695562621838 23.76847926769523, 70.77720151178644 23.914451632345994 M72.28951321041058 23.244996104497716 C71.84998525733049 23.439562091192787, 71.4104573042504 23.63412807788786, 70.77720151178644 23.914451632345994 M70.77720151178644 23.914451632345994 C70.28989960032554 24.0937832403331, 69.80259768886462 24.273114848320205, 69.22510485680553 24.485637548803172 M70.77720151178644 23.914451632345994 C70.21267721808437 24.122201790833724, 69.6481529243823 24.329951949321455, 69.22510485680553 24.485637548803172 M69.22510485680553 24.485637548803172 C68.64107131896976 24.65897563717823, 68.057037781134 24.832313725553288, 67.63960114354681 24.95620672841954 M69.22510485680553 24.485637548803172 C68.69202957719278 24.643851493622993, 68.15895429758005 24.802065438442813, 67.63960114354681 24.95620672841954 M67.63960114354681 24.95620672841954 C67.29996754059313 25.033725881977336, 66.96033393763945 25.111245035535127, 66.02720554685754 25.324225501499278 M67.63960114354681 24.95620672841954 C67.04581321188597 25.09173494899275, 66.45202528022513 25.227263169565965, 66.02720554685754 25.324225501499278 M66.02720554685754 25.324225501499278 C65.65881238280991 25.383784451330843, 65.29041921876228 25.44334340116241, 64.39454374610233 25.588181599964017 M66.02720554685754 25.324225501499278 C65.67199104500455 25.381653827429265, 65.31677654315156 25.439082153359255, 64.39454374610233 25.588181599964017 M64.39454374610233 25.588181599964017 C63.785226165145296 25.646961734187336, 63.17590858418827 25.705741868410655, 62.748324698825286 25.746990371586765 M64.39454374610233 25.588181599964017 C63.74189450889257 25.651141886952097, 63.08924527168281 25.714102173940176, 62.748324698825286 25.746990371586765 M62.748324698825286 25.746990371586765 C62.410294955863165 25.75783032750858, 62.072265212901044 25.768670283430396, 61.0953130722046 25.799999237060547 M62.748324698825286 25.746990371586765 C62.28590063368176 25.761819411302078, 61.82347656853824 25.77664845101739, 61.0953130722046 25.799999237060547 M61.0953130722046 25.799999237060547 C61.0953130722046 25.799999237060547, 61.09531307220459 25.799999237060547, 61.09531307220459 25.799999237060547 M61.0953130722046 25.799999237060547 C61.0953130722046 25.799999237060547, 61.09531307220459 25.799999237060547, 61.09531307220459 25.799999237060547 M61.09531307220459 25.799999237060547 C15.975238893823551 25.799999237060547, -29.144835284557487 25.799999237060547, -61.09531307220458 25.799999237060547 M61.09531307220459 25.799999237060547 C29.792352709523033 25.799999237060547, -1.510607653158523 25.799999237060547, -61.09531307220458 25.799999237060547 M-61.09531307220458 25.799999237060547 C-61.56394914258006 25.78497099042838, -62.03258521295553 25.769942743796214, -62.74832469882527 25.746990371586765 M-61.09531307220458 25.799999237060547 C-61.45453025111736 25.788479841306636, -61.81374743003013 25.776960445552728, -62.74832469882527 25.746990371586765 M-62.74832469882527 25.746990371586765 C-63.22587710621305 25.700921465186866, -63.703429513600824 25.654852558786963, -64.39454374610231 25.588181599964017 M-62.74832469882527 25.746990371586765 C-63.26249237623131 25.697389234124508, -63.77666005363735 25.64778809666225, -64.39454374610231 25.588181599964017 M-64.39454374610231 25.588181599964017 C-64.78574308992805 25.524935523850495, -65.17694243375377 25.461689447736973, -66.02720554685753 25.324225501499278 M-64.39454374610231 25.588181599964017 C-65.01952359800583 25.487139704299395, -65.64450344990935 25.386097808634773, -66.02720554685753 25.324225501499278 M-66.02720554685753 25.324225501499278 C-66.3835982565689 25.242881191187433, -66.73999096628029 25.161536880875587, -67.63960114354678 24.956206728419545 M-66.02720554685753 25.324225501499278 C-66.5264894457742 25.210267209703474, -67.02577334469089 25.096308917907674, -67.63960114354678 24.956206728419545 M-67.63960114354678 24.956206728419545 C-68.16003776520726 24.80174387093829, -68.68047438686774 24.647281013457036, -69.2251048568055 24.485637548803183 M-67.63960114354678 24.956206728419545 C-68.02864162972598 24.840741554236747, -68.41768211590517 24.72527638005395, -69.2251048568055 24.485637548803183 M-69.2251048568055 24.485637548803183 C-69.56804824152418 24.359431213092815, -69.91099162624285 24.233224877382447, -70.77720151178644 23.914451632345997 M-69.2251048568055 24.485637548803183 C-69.58519309297863 24.353121749272308, -69.94528132915174 24.220605949741433, -70.77720151178644 23.914451632345997 M-70.77720151178644 23.914451632345997 C-71.2302150382122 23.71391598236612, -71.68322856463794 23.513380332386244, -72.28951321041056 23.244996104497723 M-70.77720151178644 23.914451632345997 C-71.18111559558069 23.73565084913587, -71.58502967937494 23.55685006592574, -72.28951321041056 23.244996104497723 M-72.28951321041056 23.244996104497723 C-72.61013636654604 23.077727209310773, -72.93075952268153 22.910458314123826, -73.7558255395184 22.480021901620038 M-72.28951321041056 23.244996104497723 C-72.77286462638747 22.992831980383922, -73.2562160423644 22.74066785627012, -73.7558255395184 22.480021901620038 M-73.7558255395184 22.480021901620038 C-74.19292105724203 22.21505203011759, -74.63001657496567 21.950082158615142, -75.17011310722663 21.622672466799017 M-73.7558255395184 22.480021901620038 C-74.29062192186629 22.155825191828352, -74.82541830421418 21.83162848203667, -75.17011310722663 21.622672466799017 M-75.17011310722663 21.622672466799017 C-75.70920301164944 21.246626686299507, -76.24829291607224 20.870580905799994, -76.52656430255584 20.67647083276321 M-75.17011310722663 21.622672466799017 C-75.49076422613659 21.39900012701065, -75.81141534504656 21.175327787222276, -76.52656430255584 20.67647083276321 M-76.52656430255584 20.67647083276321 C-76.78982975880925 20.466523637189134, -77.05309521506265 20.256576441615056, -77.8196051765865 19.645305144986512 M-76.52656430255584 20.67647083276321 C-76.99078003228881 20.30627114160054, -77.45499576202178 19.93607145043787, -77.8196051765865 19.645305144986512 M-77.8196051765865 19.645305144986512 C-78.3048866114577 19.204585385679657, -78.7901680463289 18.7638656263728, -79.04392234701086 18.533412684464324 M-77.8196051765865 19.645305144986512 C-78.2434572172561 19.26037393616086, -78.66730925792567 18.875442727335205, -79.04392234701086 18.533412684464324 M-79.04392234701086 18.533412684464324 C-79.312104004552 18.256493104929532, -79.58028566209313 17.97957352539474, -80.19448483196044 17.3453624558171 M-79.04392234701086 18.533412684464324 C-79.34888426148717 18.21851446992871, -79.6538461759635 17.903616255393093, -80.19448483196044 17.3453624558171 M-80.19448483196044 17.3453624558171 C-80.51371469715936 16.97037689146053, -80.83294456235829 16.59539132710396, -81.26656472338968 16.08603641227036 M-80.19448483196044 17.3453624558171 C-80.55718451579024 16.91931476899396, -80.91988419962003 16.493267082170817, -81.26656472338968 16.08603641227036 M-81.26656472338968 16.08603641227036 C-81.48744569194753 15.790076037073037, -81.70832666050538 15.494115661875714, -82.25575661506427 14.760609394661614 M-81.26656472338968 16.08603641227036 C-81.60128742711268 15.637538483147154, -81.9360101308357 15.189040554023947, -82.25575661506427 14.760609394661614 M-82.25575661506427 14.760609394661614 C-82.54679506510817 14.31349618062765, -82.83783351515207 13.866382966593687, -83.15799570532036 13.374527866909418 M-82.25575661506427 14.760609394661614 C-82.49285184757365 14.396367448542788, -82.72994708008302 14.032125502423963, -83.15799570532036 13.374527866909418 M-83.15799570532036 13.374527866909418 C-83.33671325071205 13.0571967679526, -83.51543079610376 12.739865668995783, -83.96957450020639 11.933487535324842 M-83.15799570532036 13.374527866909418 C-83.418769767473 12.911497113320216, -83.67954382962564 12.448466359731016, -83.96957450020639 11.933487535324842 M-83.96957450020639 11.933487535324842 C-84.21185115377938 11.43039488029059, -84.45412780735238 10.927302225256337, -84.68715804837109 10.443409943732586 M-83.96957450020639 11.933487535324842 C-84.20423879391673 11.44620210842381, -84.43890308762705 10.95891668152278, -84.68715804837109 10.443409943732586 M-84.68715804837109 10.443409943732586 C-84.81961702001692 10.116233722847392, -84.95207599166274 9.789057501962196, -85.30779764509381 8.910418140577127 M-84.68715804837109 10.443409943732586 C-84.83097216276663 10.08818630071885, -84.97478627716217 9.732962657705112, -85.30779764509381 8.910418140577127 M-85.30779764509381 8.910418140577127 C-85.47227375199367 8.415042312303608, -85.63674985889351 7.919666484030091, -85.8289429491449 7.340811518003316 M-85.30779764509381 8.910418140577127 C-85.45483226434206 8.467573294186582, -85.60186688359029 8.024728447796036, -85.8289429491449 7.340811518003316 M-85.8289429491449 7.340811518003316 C-85.97984605180605 6.76535258573794, -86.13074915446721 6.189893653472565, -86.24845246268467 5.741039926302918 M-85.8289429491449 7.340811518003316 C-85.9254407246986 6.972823677416591, -86.02193850025229 6.604835836829867, -86.24845246268467 5.741039926302918 M-86.24845246268467 5.741039926302918 C-86.34304691902341 5.255317385548901, -86.43764137536216 4.769594844794884, -86.56460233113748 4.117677170096139 M-86.24845246268467 5.741039926302918 C-86.31932470535176 5.377125939061172, -86.39019694801887 5.013211951819428, -86.56460233113748 4.117677170096139 M-86.56460233113748 4.117677170096139 C-86.62531813574581 3.64677737924565, -86.68603394035415 3.175877588395161, -86.77609342687991 2.477393995158454 M-86.56460233113748 4.117677170096139 C-86.60936972843179 3.7704700770040294, -86.65413712572608 3.4232629839119197, -86.77609342687991 2.477393995158454 M-86.77609342687991 2.477393995158454 C-86.80348572724327 2.0507368063321287, -86.83087802760664 1.6240796175058032, -86.88205668763487 0.8269306768952934 M-86.77609342687991 2.477393995158454 C-86.80577866336812 2.015022475363079, -86.83546389985632 1.5526509555677048, -86.88205668763487 0.8269306768952934 M-86.88205668763487 0.8269306768952934 C-86.88205668763487 0.36278353197587476, -86.88205668763487 -0.1013636129435439, -86.88205668763487 -0.8269306768952809 M-86.88205668763487 0.8269306768952934 C-86.88205668763487 0.25268540552456276, -86.88205668763487 -0.3215598658461679, -86.88205668763487 -0.8269306768952809 M-86.88205668763487 -0.8269306768952809 C-86.85959192276577 -1.1768375229633383, -86.83712715789667 -1.5267443690313955, -86.77609342687991 -2.4773939951584185 M-86.88205668763487 -0.8269306768952809 C-86.86032648779468 -1.1653960797078529, -86.83859628795449 -1.503861482520425, -86.77609342687991 -2.4773939951584185 M-86.77609342687991 -2.4773939951584185 C-86.70696557173181 -3.0135359888480444, -86.63783771658372 -3.5496779825376708, -86.56460233113748 -4.117677170096128 M-86.77609342687991 -2.4773939951584185 C-86.71068950840235 -2.9846538714057735, -86.64528558992481 -3.4919137476531286, -86.56460233113748 -4.117677170096128 M-86.56460233113748 -4.117677170096128 C-86.48660022339557 -4.518201507599544, -86.40859811565365 -4.91872584510296, -86.24845246268467 -5.741039926302906 M-86.56460233113748 -4.117677170096128 C-86.444263720716 -4.735590501036147, -86.3239251102945 -5.353503831976166, -86.24845246268467 -5.741039926302906 M-86.24845246268467 -5.741039926302906 C-86.08764083515834 -6.354284358261016, -85.92682920763203 -6.967528790219127, -85.8289429491449 -7.340811518003303 M-86.24845246268467 -5.741039926302906 C-86.10563254508563 -6.285674170651893, -85.96281262748658 -6.8303084150008795, -85.8289429491449 -7.340811518003303 M-85.8289429491449 -7.340811518003303 C-85.65697038114887 -7.858765492699657, -85.48499781315284 -8.376719467396011, -85.30779764509383 -8.910418140577093 M-85.8289429491449 -7.340811518003303 C-85.64447555817483 -7.896397908717779, -85.46000816720476 -8.451984299432254, -85.30779764509383 -8.910418140577093 M-85.30779764509383 -8.910418140577093 C-85.0693997940787 -9.499265441693339, -84.83100194306358 -10.088112742809585, -84.68715804837109 -10.443409943732574 M-85.30779764509383 -8.910418140577093 C-85.16022270860073 -9.274931086882367, -85.01264777210761 -9.639444033187642, -84.68715804837109 -10.443409943732574 M-84.68715804837109 -10.443409943732574 C-84.51492388598669 -10.801057867144497, -84.34268972360229 -11.158705790556422, -83.9695745002064 -11.933487535324831 M-84.68715804837109 -10.443409943732574 C-84.50965394983565 -10.812001002320699, -84.33214985130022 -11.180592060908824, -83.9695745002064 -11.933487535324831 M-83.9695745002064 -11.933487535324831 C-83.7231763925281 -12.370992326021598, -83.4767782848498 -12.808497116718364, -83.15799570532036 -13.374527866909409 M-83.9695745002064 -11.933487535324831 C-83.7335497701795 -12.352573343583176, -83.49752504015257 -12.771659151841522, -83.15799570532036 -13.374527866909409 M-83.15799570532036 -13.374527866909409 C-82.81202544407434 -13.906031094206512, -82.46605518282833 -14.437534321503616, -82.25575661506429 -14.760609394661605 M-83.15799570532036 -13.374527866909409 C-82.95084370507762 -13.692768967383005, -82.74369170483487 -14.011010067856601, -82.25575661506429 -14.760609394661605 M-82.25575661506429 -14.760609394661605 C-82.01472665643132 -15.083567580948818, -81.77369669779836 -15.40652576723603, -81.26656472338968 -16.086036412270353 M-82.25575661506429 -14.760609394661605 C-82.04195396245423 -15.047085471336736, -81.82815130984416 -15.333561548011865, -81.26656472338968 -16.086036412270353 M-81.26656472338968 -16.086036412270353 C-80.86555346129839 -16.557087058910014, -80.46454219920709 -17.028137705549675, -80.19448483196045 -17.345362455817092 M-81.26656472338968 -16.086036412270353 C-81.03655726263106 -16.356216263472696, -80.80654980187245 -16.62639611467504, -80.19448483196045 -17.345362455817092 M-80.19448483196045 -17.345362455817092 C-79.73458508065518 -17.820246707511576, -79.27468532934991 -18.295130959206062, -79.04392234701089 -18.5334126844643 M-80.19448483196045 -17.345362455817092 C-79.81827435727392 -17.73383065838534, -79.44206388258738 -18.122298860953588, -79.04392234701089 -18.5334126844643 M-79.04392234701089 -18.5334126844643 C-78.72674488144112 -18.821464866638895, -78.40956741587135 -19.10951704881349, -77.81960517658653 -19.645305144986487 M-79.04392234701089 -18.5334126844643 C-78.58902873452695 -18.946535027496772, -78.134135122043 -19.35965737052925, -77.81960517658653 -19.645305144986487 M-77.81960517658653 -19.645305144986487 C-77.46585866519412 -19.92740857423193, -77.11211215380169 -20.20951200347737, -76.52656430255585 -20.676470832763204 M-77.81960517658653 -19.645305144986487 C-77.47399345888921 -19.92092129273604, -77.12838174119189 -20.196537440485592, -76.52656430255585 -20.676470832763204 M-76.52656430255585 -20.676470832763204 C-75.9932847573132 -21.048463558225034, -75.46000521207054 -21.420456283686864, -75.17011310722665 -21.622672466799 M-76.52656430255585 -20.676470832763204 C-76.22548952594319 -20.886487563611173, -75.92441474933054 -21.096504294459145, -75.17011310722665 -21.622672466799 M-75.17011310722665 -21.622672466799 C-74.8530221541092 -21.814894866012086, -74.53593120099173 -22.007117265225173, -73.75582553951841 -22.480021901620027 M-75.17011310722665 -21.622672466799 C-74.73088938295345 -21.888932469618528, -74.29166565868024 -22.155192472438056, -73.75582553951841 -22.480021901620027 M-73.75582553951841 -22.480021901620027 C-73.2007610971421 -22.769598665672, -72.64569665476581 -23.05917542972397, -72.28951321041058 -23.244996104497716 M-73.75582553951841 -22.480021901620027 C-73.24413367256983 -22.74697122085282, -72.73244180562125 -23.013920540085614, -72.28951321041058 -23.244996104497716 M-72.28951321041058 -23.244996104497716 C-71.93875021826607 -23.40026847610562, -71.58798722612156 -23.555540847713523, -70.77720151178646 -23.91445163234599 M-72.28951321041058 -23.244996104497716 C-71.87172111198073 -23.429940273110347, -71.45392901355088 -23.614884441722975, -70.77720151178646 -23.91445163234599 M-70.77720151178646 -23.91445163234599 C-70.36434020950591 -24.066388408033276, -69.95147890722535 -24.218325183720562, -69.22510485680553 -24.485637548803172 M-70.77720151178646 -23.91445163234599 C-70.38822410069471 -24.05759891529552, -69.99924668960297 -24.200746198245056, -69.22510485680553 -24.485637548803172 M-69.22510485680553 -24.485637548803172 C-68.62377548729063 -24.664108949232922, -68.02244611777573 -24.842580349662672, -67.63960114354681 -24.956206728419538 M-69.22510485680553 -24.485637548803172 C-68.76892808317095 -24.62102842069717, -68.31275130953635 -24.75641929259117, -67.63960114354681 -24.956206728419538 M-67.63960114354681 -24.956206728419538 C-67.26358969279231 -25.042028888350227, -66.88757824203779 -25.12785104828092, -66.02720554685754 -25.324225501499278 M-67.63960114354681 -24.956206728419538 C-67.05823751503658 -25.08889918287478, -66.47687388652633 -25.22159163733002, -66.02720554685754 -25.324225501499278 M-66.02720554685754 -25.324225501499278 C-65.40051068999757 -25.425544665865196, -64.7738158331376 -25.526863830231115, -64.39454374610233 -25.588181599964017 M-66.02720554685754 -25.324225501499278 C-65.57444573279967 -25.397424197031356, -65.12168591874179 -25.470622892563437, -64.39454374610233 -25.588181599964017 M-64.39454374610233 -25.588181599964017 C-63.958020773113645 -25.63029244617255, -63.52149780012496 -25.672403292381084, -62.748324698825286 -25.746990371586765 M-64.39454374610233 -25.588181599964017 C-63.74351033380649 -25.650986010265964, -63.09247692151065 -25.71379042056791, -62.748324698825286 -25.746990371586765 M-62.748324698825286 -25.746990371586765 C-62.29619384690304 -25.761489327988595, -61.84406299498078 -25.775988284390426, -61.0953130722046 -25.799999237060547 M-62.748324698825286 -25.746990371586765 C-62.161404425075254 -25.765811762394918, -61.57448415132522 -25.784633153203075, -61.0953130722046 -25.799999237060547 M-61.0953130722046 -25.799999237060547 C-61.0953130722046 -25.799999237060547, -61.0953130722046 -25.799999237060547, -61.09531307220459 -25.799999237060547 M-61.0953130722046 -25.799999237060547 C-61.0953130722046 -25.799999237060547, -61.09531307220459 -25.799999237060547, -61.09531307220459 -25.799999237060547" stroke="#1E5A1E" stroke-width="1.3" fill="none" stroke-dasharray="0 0" style="fill:#2D7A2D !important;stroke:#1E5A1E !important"></path></g><g class="label" style="color:#ffffff !important" transform="translate(0, -18.299999237060547)"><rect></rect><g><rect class="background" style="stroke: none"></rect><text y="-10.1" style="fill:#ffffff !important"><tspan class="text-outer-tspan row" x="0" y="-0.1em" dy="1.1em"><tspan font-style="normal" class="text-inner-tspan" font-weight="normal">Log</tspan><tspan font-style="normal" class="text-inner-tspan" font-weight="normal"> EDE,</tspan><tspan font-style="normal" class="text-inner-tspan" font-weight="normal"> RRSIG</tspan><tspan font-style="normal" class="text-inner-tspan" font-weight="normal"> TTL,</tspan></tspan><tspan class="text-outer-tspan row" x="0" y="1em" dy="1.1em"><tspan font-style="normal" class="text-inner-tspan" font-weight="normal">AD-flag</tspan><tspan font-style="normal" class="text-inner-tspan" font-weight="normal"> rate</tspan></tspan></text></g></g></g></g></g></g><defs><filter id="gb7a6c334-2025-4098-ac18-843d4e56df6b-light-drop-shadow" height="130%" width="130%"><feDropShadow dx="4" dy="4" stdDeviation="0" flood-opacity="0.06" flood-color="#000000"></feDropShadow></filter></defs><defs><filter id="gb7a6c334-2025-4098-ac18-843d4e56df6b-light-drop-shadow-small" height="150%" width="150%"><feDropShadow dx="2" dy="2" stdDeviation="0" flood-opacity="0.06" flood-color="#000000"></feDropShadow></filter></defs></svg>