<svg id="g3ec343a2-6537-4386-b7ae-6a8c28c3456c-light" width="100%" xmlns="http://www.w3.org/2000/svg" xmlns:xlink="http://www.w3.org/1999/xlink" class="erDiagram" style="max-width: 881.3125px;" viewBox="0 0 881.3125 1090.25" role="graphics-document document" aria-roledescription="er"><style>#g3ec343a2-6537-4386-b7ae-6a8c28c3456c-light{font-family:"trebuchet ms",verdana,arial,sans-serif;font-size:16px;fill:#333;}@keyframes edge-animation-frame{from{stroke-dashoffset:0;}}@keyframes dash{to{stroke-dashoffset:0;}}#g3ec343a2-6537-4386-b7ae-6a8c28c3456c-light .edge-animation-slow{stroke-dasharray:9,5!important;stroke-dashoffset:900;animation:dash 50s linear infinite;stroke-linecap:round;}#g3ec343a2-6537-4386-b7ae-6a8c28c3456c-light .edge-animation-fast{stroke-dasharray:9,5!important;stroke-dashoffset:900;animation:dash 20s linear infinite;stroke-linecap:round;}#g3ec343a2-6537-4386-b7ae-6a8c28c3456c-light .error-icon{fill:#552222;}#g3ec343a2-6537-4386-b7ae-6a8c28c3456c-light .error-text{fill:#552222;stroke:#552222;}#g3ec343a2-6537-4386-b7ae-6a8c28c3456c-light .edge-thickness-normal{stroke-width:1px;}#g3ec343a2-6537-4386-b7ae-6a8c28c3456c-light .edge-thickness-thick{stroke-width:3.5px;}#g3ec343a2-6537-4386-b7ae-6a8c28c3456c-light .edge-pattern-solid{stroke-dasharray:0;}#g3ec343a2-6537-4386-b7ae-6a8c28c3456c-light .edge-thickness-invisible{stroke-width:0;fill:none;}#g3ec343a2-6537-4386-b7ae-6a8c28c3456c-light .edge-pattern-dashed{stroke-dasharray:3;}#g3ec343a2-6537-4386-b7ae-6a8c28c3456c-light .edge-pattern-dotted{stroke-dasharray:2;}#g3ec343a2-6537-4386-b7ae-6a8c28c3456c-light .marker{fill:#333333;stroke:#333333;}#g3ec343a2-6537-4386-b7ae-6a8c28c3456c-light .marker.cross{stroke:#333333;}#g3ec343a2-6537-4386-b7ae-6a8c28c3456c-light svg{font-family:"trebuchet ms",verdana,arial,sans-serif;font-size:16px;}#g3ec343a2-6537-4386-b7ae-6a8c28c3456c-light p{margin:0;}#g3ec343a2-6537-4386-b7ae-6a8c28c3456c-light .entityBox{fill:#ECECFF;stroke:#9370DB;}#g3ec343a2-6537-4386-b7ae-6a8c28c3456c-light .relationshipLabelBox{fill:hsl(80, 100%, 96.2745098039%);opacity:0.7;background-color:hsl(80, 100%, 96.2745098039%);}#g3ec343a2-6537-4386-b7ae-6a8c28c3456c-light .relationshipLabelBox rect{opacity:0.5;}#g3ec343a2-6537-4386-b7ae-6a8c28c3456c-light .labelBkg{background-color:rgba(248.6666666666, 255, 235.9999999999, 0.5);}#g3ec343a2-6537-4386-b7ae-6a8c28c3456c-light .edgeLabel{background-color:rgba(232,232,232, 0.8);}#g3ec343a2-6537-4386-b7ae-6a8c28c3456c-light .edgeLabel .label rect{fill:rgba(232,232,232, 0.8);}#g3ec343a2-6537-4386-b7ae-6a8c28c3456c-light .edgeLabel .label text{fill:#333;}#g3ec343a2-6537-4386-b7ae-6a8c28c3456c-light .edgeLabel .label{fill:#9370DB;font-size:14px;}#g3ec343a2-6537-4386-b7ae-6a8c28c3456c-light .label{font-family:"trebuchet ms",verdana,arial,sans-serif;color:#333;}#g3ec343a2-6537-4386-b7ae-6a8c28c3456c-light .edge-pattern-dashed{stroke-dasharray:8,8;}#g3ec343a2-6537-4386-b7ae-6a8c28c3456c-light .node rect,#g3ec343a2-6537-4386-b7ae-6a8c28c3456c-light .node circle,#g3ec343a2-6537-4386-b7ae-6a8c28c3456c-light .node ellipse,#g3ec343a2-6537-4386-b7ae-6a8c28c3456c-light .node polygon{fill:#ECECFF;stroke:#9370DB;stroke-width:1px;}#g3ec343a2-6537-4386-b7ae-6a8c28c3456c-light .relationshipLine{stroke:#333333;stroke-width:1px;fill:none;}#g3ec343a2-6537-4386-b7ae-6a8c28c3456c-light .marker{fill:none!important;stroke:#333333!important;stroke-width:1;}#g3ec343a2-6537-4386-b7ae-6a8c28c3456c-light [data-look=neo].labelBkg{background-color:rgba(248.6666666666, 255, 235.9999999999, 0.5);}#g3ec343a2-6537-4386-b7ae-6a8c28c3456c-light .node .neo-node{stroke:#9370DB;}#g3ec343a2-6537-4386-b7ae-6a8c28c3456c-light [data-look="neo"].node rect,#g3ec343a2-6537-4386-b7ae-6a8c28c3456c-light [data-look="neo"].cluster rect,#g3ec343a2-6537-4386-b7ae-6a8c28c3456c-light [data-look="neo"].node polygon{stroke:#9370DB;filter:drop-shadow(1px 2px 2px rgba(185, 185, 185, 1));}#g3ec343a2-6537-4386-b7ae-6a8c28c3456c-light [data-look="neo"].node path{stroke:#9370DB;stroke-width:1px;}#g3ec343a2-6537-4386-b7ae-6a8c28c3456c-light [data-look="neo"].node .outer-path{filter:drop-shadow(1px 2px 2px rgba(185, 185, 185, 1));}#g3ec343a2-6537-4386-b7ae-6a8c28c3456c-light [data-look="neo"].node .neo-line path{stroke:#9370DB;filter:none;}#g3ec343a2-6537-4386-b7ae-6a8c28c3456c-light [data-look="neo"].node circle{stroke:#9370DB;filter:drop-shadow(1px 2px 2px rgba(185, 185, 185, 1));}#g3ec343a2-6537-4386-b7ae-6a8c28c3456c-light [data-look="neo"].node circle .state-start{fill:#000000;}#g3ec343a2-6537-4386-b7ae-6a8c28c3456c-light [data-look="neo"].icon-shape .icon{fill:#9370DB;filter:drop-shadow(1px 2px 2px rgba(185, 185, 185, 1));}#g3ec343a2-6537-4386-b7ae-6a8c28c3456c-light [data-look="neo"].icon-shape .icon-neo path{stroke:#9370DB;filter:drop-shadow(1px 2px 2px rgba(185, 185, 185, 1));}#g3ec343a2-6537-4386-b7ae-6a8c28c3456c-light :root{--mermaid-font-family:"trebuchet ms",verdana,arial,sans-serif;}</style><g><defs><marker id="g3ec343a2-6537-4386-b7ae-6a8c28c3456c-light_er-onlyOneStart" class="marker onlyOne er" refX="0" refY="9" markerWidth="18" markerHeight="18" orient="auto"><path d="M9,0 L9,18 M15,0 L15,18"></path></marker></defs><defs><marker id="g3ec343a2-6537-4386-b7ae-6a8c28c3456c-light_er-onlyOneEnd" class="marker onlyOne er" refX="18" refY="9" markerWidth="18" markerHeight="18" orient="auto"><path d="M3,0 L3,18 M9,0 L9,18"></path></marker></defs><defs><marker id="g3ec343a2-6537-4386-b7ae-6a8c28c3456c-light_er-zeroOrOneStart" class="marker zeroOrOne er" refX="0" refY="9" markerWidth="30" markerHeight="18" orient="auto"><circle fill="white" cx="21" cy="9" r="6"></circle><path d="M9,0 L9,18"></path></marker></defs><defs><marker id="g3ec343a2-6537-4386-b7ae-6a8c28c3456c-light_er-zeroOrOneEnd" class="marker zeroOrOne er" refX="30" refY="9" markerWidth="30" markerHeight="18" orient="auto"><circle fill="white" cx="9" cy="9" r="6"></circle><path d="M21,0 L21,18"></path></marker></defs><defs><marker id="g3ec343a2-6537-4386-b7ae-6a8c28c3456c-light_er-oneOrMoreStart" class="marker oneOrMore er" refX="18" refY="18" markerWidth="45" markerHeight="36" orient="auto"><path d="M0,18 Q 18,0 36,18 Q 18,36 0,18 M42,9 L42,27"></path></marker></defs><defs><marker id="g3ec343a2-6537-4386-b7ae-6a8c28c3456c-light_er-oneOrMoreEnd" class="marker oneOrMore er" refX="27" refY="18" markerWidth="45" markerHeight="36" orient="auto"><path d="M3,9 L3,27 M9,18 Q27,0 45,18 Q27,36 9,18"></path></marker></defs><defs><marker id="g3ec343a2-6537-4386-b7ae-6a8c28c3456c-light_er-zeroOrMoreStart" class="marker zeroOrMore er" refX="18" refY="18" markerWidth="57" markerHeight="36" orient="auto"><circle fill="white" cx="48" cy="18" r="6"></circle><path d="M0,18 Q18,0 36,18 Q18,36 0,18"></path></marker></defs><defs><marker id="g3ec343a2-6537-4386-b7ae-6a8c28c3456c-light_er-zeroOrMoreEnd" class="marker zeroOrMore er" refX="39" refY="18" markerWidth="57" markerHeight="36" orient="auto"><circle fill="white" cx="9" cy="18" r="6"></circle><path d="M21,18 Q39,0 57,18 Q39,36 21,18"></path></marker></defs><g class="root"><g class="clusters"></g><g class="edgePaths"><path d="M455.504,196.75L455.504,205.333C455.504,213.917,455.504,231.083,455.504,248.25C455.504,265.417,455.504,282.583,455.504,291.167L455.504,299.75" id="g3ec343a2-6537-4386-b7ae-6a8c28c3456c-light-id_entity-CALENDARS-0_entity-EVENTS-1_0" class="edge-thickness-normal edge-pattern-solid relationshipLine" style="undefined;;;undefined" data-edge="true" data-et="edge" data-id="id_entity-CALENDARS-0_entity-EVENTS-1_0" data-points="W3sieCI6NDU1LjUwMzkwNjI1LCJ5IjoxOTYuNzV9LHsieCI6NDU1LjUwMzkwNjI1LCJ5IjoyNDguMjV9LHsieCI6NDU1LjUwMzkwNjI1LCJ5IjoyOTkuNzV9XQ==" data-look="classic" marker-start="url(#g3ec343a2-6537-4386-b7ae-6a8c28c3456c-light_er-onlyOneStart)" marker-end="url(#g3ec343a2-6537-4386-b7ae-6a8c28c3456c-light_er-zeroOrMoreEnd)"></path><path d="M287.457,646.283L272.818,660.027C258.18,673.772,228.902,701.261,217.099,723.589C205.296,745.917,210.967,763.083,213.803,771.667L216.639,780.25" id="g3ec343a2-6537-4386-b7ae-6a8c28c3456c-light-id_entity-EVENTS-1_entity-EVENT_INSTANCES-2_1" class="edge-thickness-normal edge-pattern-solid relationshipLine" style="undefined;;;undefined" data-edge="true" data-et="edge" data-id="id_entity-EVENTS-1_entity-EVENT_INSTANCES-2_1" data-points="W3sieCI6Mjg3LjQ1NzAzMTI1LCJ5Ijo2NDYuMjgyNjg4MzQ0NDAxMn0seyJ4IjoxOTkuNjI1LCJ5Ijo3MjguNzV9LHsieCI6MjE2LjYzODY3NjY5NzUzMDg1LCJ5Ijo3ODAuMjV9XQ==" data-look="classic" marker-start="url(#g3ec343a2-6537-4386-b7ae-6a8c28c3456c-light_er-onlyOneStart)" marker-end="url(#g3ec343a2-6537-4386-b7ae-6a8c28c3456c-light_er-zeroOrMoreEnd)"></path><path d="M623.551,619.827L646.781,637.981C670.01,656.135,716.47,692.442,739.7,728.617C762.93,764.792,762.93,800.833,762.93,818.854L762.93,836.875" id="g3ec343a2-6537-4386-b7ae-6a8c28c3456c-light-id_entity-EVENTS-1_entity-EVENT_ATTENDEES-3_2" class="edge-thickness-normal edge-pattern-solid relationshipLine" style="undefined;;;undefined" data-edge="true" data-et="edge" data-id="id_entity-EVENTS-1_entity-EVENT_ATTENDEES-3_2" data-points="W3sieCI6NjIzLjU1MDc4MTI1LCJ5Ijo2MTkuODI2ODU3MzQ2MTU4Mn0seyJ4Ijo3NjIuOTI5Njg3NSwieSI6NzI4Ljc1fSx7IngiOjc2Mi45Mjk2ODc1LCJ5Ijo4MzYuODc1fV0=" data-look="classic" marker-start="url(#g3ec343a2-6537-4386-b7ae-6a8c28c3456c-light_er-onlyOneStart)" marker-end="url(#g3ec343a2-6537-4386-b7ae-6a8c28c3456c-light_er-zeroOrMoreEnd)"></path><path d="M407.442,780.25L415.452,771.667C423.463,763.083,439.483,745.917,447.494,728.75C455.504,711.583,455.504,694.417,455.504,685.833L455.504,677.25" id="g3ec343a2-6537-4386-b7ae-6a8c28c3456c-light-id_entity-EVENT_INSTANCES-2_entity-EVENTS-1_3" class="edge-thickness-normal edge-pattern-solid relationshipLine" style="undefined;;;undefined" data-edge="true" data-et="edge" data-id="id_entity-EVENT_INSTANCES-2_entity-EVENTS-1_3" data-points="W3sieCI6NDA3LjQ0MjIwNjc5MDEyMzQ2LCJ5Ijo3ODAuMjV9LHsieCI6NDU1LjUwMzkwNjI1LCJ5Ijo3MjguNzV9LHsieCI6NDU1LjUwMzkwNjI1LCJ5Ijo2NzcuMjV9XQ==" data-look="classic" marker-start="url(#g3ec343a2-6537-4386-b7ae-6a8c28c3456c-light_er-zeroOrMoreStart)" marker-end="url(#g3ec343a2-6537-4386-b7ae-6a8c28c3456c-light_er-onlyOneEnd)"></path></g><g class="edgeLabels"><g class="edgeLabel" transform="translate(455.50390625, 248.25)"><g class="label" data-id="id_entity-CALENDARS-0_entity-EVENTS-1_0" transform="translate(0, -9.000000476837158)"><g><rect class="background" style="" x="-19.859375" y="-1" width="39.71875" height="23"></rect><text y="-10.1" text-anchor="middle" style=""><tspan class="text-outer-tspan row" x="0" y="-0.1em" dy="1.1em" text-anchor="middle"><tspan font-style="normal" class="text-inner-tspan" font-weight="normal">owns</tspan></tspan></text></g></g></g><g class="edgeLabel" transform="translate(223.77087, 706.07894)"><g class="label" data-id="id_entity-EVENTS-1_entity-EVENT_INSTANCES-2_1" transform="translate(0, -9.000000476837158)"><g><rect class="background" style="" x="-40.9765625" y="-1" width="81.953125" height="23"></rect><text y="-10.1" text-anchor="middle" style=""><tspan class="text-outer-tspan row" x="0" y="-0.1em" dy="1.1em" text-anchor="middle"><tspan font-style="normal" class="text-inner-tspan" font-weight="normal">expands</tspan><tspan font-style="normal" class="text-inner-tspan" font-weight="normal"> to</tspan></tspan></text></g></g></g><g class="edgeLabel" transform="translate(762.9296875, 728.75)"><g class="label" data-id="id_entity-EVENTS-1_entity-EVENT_ATTENDEES-3_2" transform="translate(0, -9.000000476837158)"><g><rect class="background" style="" x="-25.625" y="-1" width="51.25" height="23"></rect><text y="-10.1" text-anchor="middle" style=""><tspan class="text-outer-tspan row" x="0" y="-0.1em" dy="1.1em" text-anchor="middle"><tspan font-style="normal" class="text-inner-tspan" font-weight="normal">invites</tspan></tspan></text></g></g></g><g class="edgeLabel" transform="translate(455.50390625, 728.75)"><g class="label" data-id="id_entity-EVENT_INSTANCES-2_entity-EVENTS-1_3" transform="translate(0, -9.000000476837158)"><g><rect class="background" style="" x="-72.8203125" y="-1" width="145.640625" height="23"></rect><text y="-10.1" text-anchor="middle" style=""><tspan class="text-outer-tspan row" x="0" y="-0.1em" dy="1.1em" text-anchor="middle"><tspan font-style="normal" class="text-inner-tspan" font-weight="normal">exception</tspan><tspan font-style="normal" class="text-inner-tspan" font-weight="normal"> overrides</tspan></tspan></text></g></g></g></g><g class="nodes"><g class="node default" id="g3ec343a2-6537-4386-b7ae-6a8c28c3456c-light-entity-CALENDARS-0" data-look="classic" transform="translate(455.50390625, 102.375)"><g class="outer-path" style=""><path d="M-107.09375 -94.375 L107.09375 -94.375 L107.09375 94.375 L-107.09375 94.375" stroke="none" stroke-width="0" fill="#ECECFF"></path><path d="M-107.09375 -94.375 C-60.9919575717839 -94.375, -14.890165143567799 -94.375, 107.09375 -94.375 M-107.09375 -94.375 C-23.183990081319976 -94.375, 60.72576983736005 -94.375, 107.09375 -94.375 M107.09375 -94.375 C107.09375 -40.90225790291637, 107.09375 12.570484194167264, 107.09375 94.375 M107.09375 -94.375 C107.09375 -39.7566990768713, 107.09375 14.8616018462574, 107.09375 94.375 M107.09375 94.375 C33.15785962351471 94.375, -40.77803075297058 94.375, -107.09375 94.375 M107.09375 94.375 C45.2454957662794 94.375, -16.602758467441205 94.375, -107.09375 94.375 M-107.09375 94.375 C-107.09375 32.94424702527446, -107.09375 -28.486505949451086, -107.09375 -94.375 M-107.09375 94.375 C-107.09375 29.457859702743704, -107.09375 -35.45928059451259, -107.09375 -94.375" stroke="#9370DB" stroke-width="1.3" fill="none" stroke-dasharray="0 0"></path></g><g style="" class="row-rect-odd"><path d="M-107.09375 -56.625 L107.09375 -56.625 L107.09375 -18.875 L-107.09375 -18.875" stroke="none" stroke-width="0" fill="hsl(240, 100%, 100%)"></path><path d="M-107.09375 -56.625 C-23.67668596115621 -56.625, 59.74037807768758 -56.625, 107.09375 -56.625 M-107.09375 -56.625 C-31.92407873431469 -56.625, 43.24559253137062 -56.625, 107.09375 -56.625 M107.09375 -56.625 C107.09375 -44.8126334925013, 107.09375 -33.0002669850026, 107.09375 -18.875 M107.09375 -56.625 C107.09375 -44.27325972939372, 107.09375 -31.921519458787444, 107.09375 -18.875 M107.09375 -18.875 C29.970936937163287 -18.875, -47.151876125673425 -18.875, -107.09375 -18.875 M107.09375 -18.875 C49.029559423688696 -18.875, -9.034631152622609 -18.875, -107.09375 -18.875 M-107.09375 -18.875 C-107.09375 -29.616471155687798, -107.09375 -40.357942311375595, -107.09375 -56.625 M-107.09375 -18.875 C-107.09375 -26.496337620244226, -107.09375 -34.11767524048845, -107.09375 -56.625" stroke="#9370DB" stroke-width="1.3" fill="none" stroke-dasharray="0 0"></path></g><g style="" class="row-rect-even"><path d="M-107.09375 -18.875 L107.09375 -18.875 L107.09375 18.875 L-107.09375 18.875" stroke="none" stroke-width="0" fill="hsl(240, 100%, 97.2745098039%)"></path><path d="M-107.09375 -18.875 C-61.64831692632755 -18.875, -16.202883852655106 -18.875, 107.09375 -18.875 M-107.09375 -18.875 C-44.77087121070146 -18.875, 17.552007578597085 -18.875, 107.09375 -18.875 M107.09375 -18.875 C107.09375 -8.893418419412285, 107.09375 1.08816316117543, 107.09375 18.875 M107.09375 -18.875 C107.09375 -10.899068054740987, 107.09375 -2.923136109481973, 107.09375 18.875 M107.09375 18.875 C35.41903614777338 18.875, -36.255677704453234 18.875, -107.09375 18.875 M107.09375 18.875 C38.286782086677704 18.875, -30.520185826644592 18.875, -107.09375 18.875 M-107.09375 18.875 C-107.09375 6.785148478478947, -107.09375 -5.304703043042107, -107.09375 -18.875 M-107.09375 18.875 C-107.09375 9.244000544919679, -107.09375 -0.38699891016064214, -107.09375 -18.875" stroke="#9370DB" stroke-width="1.3" fill="none" stroke-dasharray="0 0"></path></g><g style="" class="row-rect-odd"><path d="M-107.09375 18.875 L107.09375 18.875 L107.09375 56.625 L-107.09375 56.625" stroke="none" stroke-width="0" fill="hsl(240, 100%, 100%)"></path><path d="M-107.09375 18.875 C-21.502471822223413 18.875, 64.08880635555317 18.875, 107.09375 18.875 M-107.09375 18.875 C-23.655644328896685 18.875, 59.78246134220663 18.875, 107.09375 18.875 M107.09375 18.875 C107.09375 29.08749540729094, 107.09375 39.29999081458188, 107.09375 56.625 M107.09375 18.875 C107.09375 31.00758248514439, 107.09375 43.14016497028878, 107.09375 56.625 M107.09375 56.625 C38.80776004512762 56.625, -29.478229909744755 56.625, -107.09375 56.625 M107.09375 56.625 C23.955483544040433 56.625, -59.18278291191913 56.625, -107.09375 56.625 M-107.09375 56.625 C-107.09375 44.73890587753209, -107.09375 32.85281175506418, -107.09375 18.875 M-107.09375 56.625 C-107.09375 43.637567625896196, -107.09375 30.65013525179239, -107.09375 18.875" stroke="#9370DB" stroke-width="1.3" fill="none" stroke-dasharray="0 0"></path></g><g style="" class="row-rect-even"><path d="M-107.09375 56.625 L107.09375 56.625 L107.09375 94.375 L-107.09375 94.375" stroke="none" stroke-width="0" fill="hsl(240, 100%, 97.2745098039%)"></path><path d="M-107.09375 56.625 C-47.4296623455587 56.625, 12.234425308882606 56.625, 107.09375 56.625 M-107.09375 56.625 C-58.68374755940929 56.625, -10.273745118818582 56.625, 107.09375 56.625 M107.09375 56.625 C107.09375 67.19059106846385, 107.09375 77.75618213692769, 107.09375 94.375 M107.09375 56.625 C107.09375 65.15046827934461, 107.09375 73.6759365586892, 107.09375 94.375 M107.09375 94.375 C53.43557361871286 94.375, -0.22260276257428302 94.375, -107.09375 94.375 M107.09375 94.375 C39.273908740981724 94.375, -28.54593251803655 94.375, -107.09375 94.375 M-107.09375 94.375 C-107.09375 83.98308030356098, -107.09375 73.59116060712198, -107.09375 56.625 M-107.09375 94.375 C-107.09375 83.46138437106546, -107.09375 72.54776874213091, -107.09375 56.625" stroke="#9370DB" stroke-width="1.3" fill="none" stroke-dasharray="0 0"></path></g><g class="label name" transform="translate(-41.078125, -85)" style=""><g><rect class="background" style="stroke: none"></rect></g><text y="-10.1" style=""><tspan class="text-outer-tspan row" x="0" y="-0.1em" dy="1.1em"><tspan font-style="normal" class="text-inner-tspan" font-weight="normal">CALENDARS</tspan></tspan></text></g><g class="label attribute-type" transform="translate(-94.59375, -47.25)" style=""><g><rect class="background" style="stroke: none"></rect></g><text y="-10.1" style=""><tspan class="text-outer-tspan row" x="0" y="-0.1em" dy="1.1em"><tspan font-style="normal" class="text-inner-tspan" font-weight="normal">uuid</tspan></tspan></text></g><g class="label attribute-name" transform="translate(-28.4375, -47.25)" style=""><g><rect class="background" style="stroke: none"></rect></g><text y="-10.1" style=""><tspan class="text-outer-tspan row" x="0" y="-0.1em" dy="1.1em"><tspan font-style="normal" class="text-inner-tspan" font-weight="normal">id</tspan></tspan></text></g><g class="label attribute-keys" transform="translate(76.453125, -47.25)" style=""><g><rect class="background" style="stroke: none"></rect></g><text y="-10.1" style=""><tspan class="text-outer-tspan row" x="0" y="-0.1em" dy="1.1em"><tspan font-style="normal" class="text-inner-tspan" font-weight="normal">PK</tspan></tspan></text></g><g class="label attribute-comment" transform="translate(119.59375, -47.25)" style=""><g><rect class="background" style="stroke: none"></rect></g><text y="-10.1" style=""><tspan class="text-outer-tspan row" x="0" y="-0.1em" dy="1.1em"></tspan></text></g><g class="label attribute-type" transform="translate(-94.59375, -9.5)" style=""><g><rect class="background" style="stroke: none"></rect></g><text y="-10.1" style=""><tspan class="text-outer-tspan row" x="0" y="-0.1em" dy="1.1em"><tspan font-style="normal" class="text-inner-tspan" font-weight="normal">uuid</tspan></tspan></text></g><g class="label attribute-name" transform="translate(-28.4375, -9.5)" style=""><g><rect class="background" style="stroke: none"></rect></g><text y="-10.1" style=""><tspan class="text-outer-tspan row" x="0" y="-0.1em" dy="1.1em"><tspan font-style="normal" class="text-inner-tspan" font-weight="normal">owner_id</tspan></tspan></text></g><g class="label attribute-keys" transform="translate(76.453125, -9.5)" style=""><g><rect class="background" style="stroke: none"></rect></g><text y="-10.1" style=""><tspan class="text-outer-tspan row" x="0" y="-0.1em" dy="1.1em"><tspan font-style="normal" class="text-inner-tspan" font-weight="normal">FK</tspan></tspan></text></g><g class="label attribute-comment" transform="translate(119.59375, -9.5)" style=""><g><rect class="background" style="stroke: none"></rect></g><text y="-10.1" style=""><tspan class="text-outer-tspan row" x="0" y="-0.1em" dy="1.1em"></tspan></text></g><g class="label attribute-type" transform="translate(-94.59375, 28.25)" style=""><g><rect class="background" style="stroke: none"></rect></g><text y="-10.1" style=""><tspan class="text-outer-tspan row" x="0" y="-0.1em" dy="1.1em"><tspan font-style="normal" class="text-inner-tspan" font-weight="normal">string</tspan></tspan></text></g><g class="label attribute-name" transform="translate(-28.4375, 28.25)" style=""><g><rect class="background" style="stroke: none"></rect></g><text y="-10.1" style=""><tspan class="text-outer-tspan row" x="0" y="-0.1em" dy="1.1em"><tspan font-style="normal" class="text-inner-tspan" font-weight="normal">tzid</tspan></tspan></text></g><g class="label attribute-keys" transform="translate(76.453125, 28.25)" style=""><g><rect class="background" style="stroke: none"></rect></g><text y="-10.1" style=""><tspan class="text-outer-tspan row" x="0" y="-0.1em" dy="1.1em"></tspan></text></g><g class="label attribute-comment" transform="translate(119.59375, 28.25)" style=""><g><rect class="background" style="stroke: none"></rect></g><text y="-10.1" style=""><tspan class="text-outer-tspan row" x="0" y="-0.1em" dy="1.1em"></tspan></text></g><g class="label attribute-type" transform="translate(-94.59375, 66)" style=""><g><rect class="background" style="stroke: none"></rect></g><text y="-10.1" style=""><tspan class="text-outer-tspan row" x="0" y="-0.1em" dy="1.1em"><tspan font-style="normal" class="text-inner-tspan" font-weight="normal">bigint</tspan></tspan></text></g><g class="label attribute-name" transform="translate(-28.4375, 66)" style=""><g><rect class="background" style="stroke: none"></rect></g><text y="-10.1" style=""><tspan class="text-outer-tspan row" x="0" y="-0.1em" dy="1.1em"><tspan font-style="normal" class="text-inner-tspan" font-weight="normal">sync_token</tspan></tspan></text></g><g class="label attribute-keys" transform="translate(76.453125, 66)" style=""><g><rect class="background" style="stroke: none"></rect></g><text y="-10.1" style=""><tspan class="text-outer-tspan row" x="0" y="-0.1em" dy="1.1em"></tspan></text></g><g class="label attribute-comment" transform="translate(119.59375, 66)" style=""><g><rect class="background" style="stroke: none"></rect></g><text y="-10.1" style=""><tspan class="text-outer-tspan row" x="0" y="-0.1em" dy="1.1em"></tspan></text></g><g class="divider"><path d="M-107.09375 -56.62505 L-107.09375 -56.62495 L107.09375 -56.62495 L107.09375 -56.62505" stroke="none" stroke-width="0" fill="#ECECFF" fill-rule="evenodd"></path><path d="M-107.09375 -56.62505 C-107.09375 -56.6250231240427, -107.09375 -56.624996248085395, -107.09375 -56.62495 M-107.09375 -56.62505 C-107.09375 -56.62501302423872, -107.09375 -56.62497604847743, -107.09375 -56.62495 M-107.09375 -56.62495 C-39.143240510523526 -56.62495, 28.807268978952948 -56.62495, 107.09375 -56.62495 M-107.09375 -56.62495 C-53.882829407154496 -56.62495, -0.671908814308992 -56.62495, 107.09375 -56.62495 M107.09375 -56.62495 C107.09375 -56.62497531284665, 107.09375 -56.6250006256933, 107.09375 -56.62505 M107.09375 -56.62495 C107.09375 -56.62498024253366, 107.09375 -56.625010485067314, 107.09375 -56.62505 M107.09375 -56.62505 C52.798324765089276 -56.62505, -1.4971004698214472 -56.62505, -107.09375 -56.62505 M107.09375 -56.62505 C26.323604093325883 -56.62505, -54.44654181334823 -56.62505, -107.09375 -56.62505" stroke="#9370DB" stroke-width="1.3" fill="none" stroke-dasharray="0 0"></path></g><g class="divider"><path d="M-40.93755 -56.625 L-40.93745 -56.625 L-40.93745 94.375 L-40.93755 94.375" stroke="none" stroke-width="0" fill="#ECECFF" fill-rule="evenodd"></path><path d="M-40.93755 -56.625 C-40.93752606459641 -56.625, -40.93750212919282 -56.625, -40.93745 -56.625 M-40.93755 -56.625 C-40.93752689416267 -56.625, -40.937503788325344 -56.625, -40.93745 -56.625 M-40.93745 -56.625 C-40.93745 -10.70009321243252, -40.93745 35.22481357513496, -40.93745 94.375 M-40.93745 -56.625 C-40.93745 -3.180746216383092, -40.93745 50.263507567233816, -40.93745 94.375 M-40.93745 94.375 C-40.937475693846096 94.375, -40.9375013876922 94.375, -40.93755 94.375 M-40.93745 94.375 C-40.937486180743164 94.375, -40.93752236148632 94.375, -40.93755 94.375 M-40.93755 94.375 C-40.93755 40.11197028478821, -40.93755 -14.151059430423587, -40.93755 -56.625 M-40.93755 94.375 C-40.93755 57.88372783213233, -40.93755 21.39245566426466, -40.93755 -56.625" stroke="#9370DB" stroke-width="1.3" fill="none" stroke-dasharray="0 0"></path></g><g class="divider"><path d="M63.953075 -56.625 L63.953175 -56.625 L63.953175 94.375 L63.953075 94.375" stroke="none" stroke-width="0" fill="#ECECFF" fill-rule="evenodd"></path><path d="M63.953075 -56.625 C63.953112752925556 -56.625, 63.95315050585112 -56.625, 63.953175 -56.625 M63.953075 -56.625 C63.953103225944524 -56.625, 63.95313145188904 -56.625, 63.953175 -56.625 M63.953175 -56.625 C63.953175 -3.6932702549425045, 63.953175 49.23845949011499, 63.953175 94.375 M63.953175 -56.625 C63.953175 3.7459916453863045, 63.953175 64.11698329077261, 63.953175 94.375 M63.953175 94.375 C63.9531528862338 94.375, 63.953130772467595 94.375, 63.953075 94.375 M63.953175 94.375 C63.953147257036086 94.375, 63.953119514072164 94.375, 63.953075 94.375 M63.953075 94.375 C63.953075 50.53893463634591, 63.953075 6.702869272691814, 63.953075 -56.625 M63.953075 94.375 C63.953075 62.81485888506215, 63.953075 31.25471777012431, 63.953075 -56.625" stroke="#9370DB" stroke-width="1.3" fill="none" stroke-dasharray="0 0"></path></g><g class="divider"><path d="M-107.09375 -56.62505 L-107.09375 -56.62495 L107.09375 -56.62495 L107.09375 -56.62505" stroke="none" stroke-width="0" fill="#ECECFF" fill-rule="evenodd"></path><path d="M-107.09375 -56.62505 C-107.09375 -56.62501150087832, -107.09375 -56.62497300175665, -107.09375 -56.62495 M-107.09375 -56.62505 C-107.09375 -56.62501014508671, -107.09375 -56.62497029017342, -107.09375 -56.62495 M-107.09375 -56.62495 C-35.72003214305147 -56.62495, 35.65368571389706 -56.62495, 107.09375 -56.62495 M-107.09375 -56.62495 C-32.17039010106464 -56.62495, 42.75296979787072 -56.62495, 107.09375 -56.62495 M107.09375 -56.62495 C107.09375 -56.62497451657811, 107.09375 -56.62499903315622, 107.09375 -56.62505 M107.09375 -56.62495 C107.09375 -56.62497966588146, 107.09375 -56.62500933176293, 107.09375 -56.62505 M107.09375 -56.62505 C30.501568524403865 -56.62505, -46.09061295119227 -56.62505, -107.09375 -56.62505 M107.09375 -56.62505 C45.43939423006445 -56.62505, -16.214961539871098 -56.62505, -107.09375 -56.62505" stroke="#9370DB" stroke-width="1.3" fill="none" stroke-dasharray="0 0"></path></g></g><g class="node default" id="g3ec343a2-6537-4386-b7ae-6a8c28c3456c-light-entity-EVENTS-1" data-look="classic" transform="translate(455.50390625, 488.5)"><g class="outer-path" style=""><path d="M-168.046875 -188.75 L168.046875 -188.75 L168.046875 188.75 L-168.046875 188.75" stroke="none" stroke-width="0" fill="#ECECFF"></path><path d="M-168.046875 -188.75 C-90.37646813731628 -188.75, -12.70606127463256 -188.75, 168.046875 -188.75 M-168.046875 -188.75 C-40.401134176882664 -188.75, 87.24460664623467 -188.75, 168.046875 -188.75 M168.046875 -188.75 C168.046875 -89.73056896200012, 168.046875 9.28886207599976, 168.046875 188.75 M168.046875 -188.75 C168.046875 -61.94863972987706, 168.046875 64.85272054024588, 168.046875 188.75 M168.046875 188.75 C80.2199518109389 188.75, -7.606971378122211 188.75, -168.046875 188.75 M168.046875 188.75 C80.26485726835313 188.75, -7.517160463293749 188.75, -168.046875 188.75 M-168.046875 188.75 C-168.046875 110.5916951740681, -168.046875 32.433390348136186, -168.046875 -188.75 M-168.046875 188.75 C-168.046875 51.853562521504955, -168.046875 -85.04287495699009, -168.046875 -188.75" stroke="#9370DB" stroke-width="1.3" fill="none" stroke-dasharray="0 0"></path></g><g style="" class="row-rect-odd"><path d="M-168.046875 -151 L168.046875 -151 L168.046875 -113.25 L-168.046875 -113.25" stroke="none" stroke-width="0" fill="hsl(240, 100%, 100%)"></path><path d="M-168.046875 -151 C-51.024405905552655 -151, 65.99806318889469 -151, 168.046875 -151 M-168.046875 -151 C-48.72936940797443 -151, 70.58813618405114 -151, 168.046875 -151 M168.046875 -151 C168.046875 -136.32669820109965, 168.046875 -121.65339640219926, 168.046875 -113.25 M168.046875 -151 C168.046875 -140.17673702398423, 168.046875 -129.35347404796843, 168.046875 -113.25 M168.046875 -113.25 C77.08775790756098 -113.25, -13.871359184878031 -113.25, -168.046875 -113.25 M168.046875 -113.25 C64.75527143440466 -113.25, -38.536332131190676 -113.25, -168.046875 -113.25 M-168.046875 -113.25 C-168.046875 -121.35741543083194, -168.046875 -129.46483086166387, -168.046875 -151 M-168.046875 -113.25 C-168.046875 -127.63214895491765, -168.046875 -142.0142979098353, -168.046875 -151" stroke="#9370DB" stroke-width="1.3" fill="none" stroke-dasharray="0 0"></path></g><g style="" class="row-rect-even"><path d="M-168.046875 -113.25 L168.046875 -113.25 L168.046875 -75.5 L-168.046875 -75.5" stroke="none" stroke-width="0" fill="hsl(240, 100%, 97.2745098039%)"></path><path d="M-168.046875 -113.25 C-36.39469230452565 -113.25, 95.2574903909487 -113.25, 168.046875 -113.25 M-168.046875 -113.25 C-98.88891709684376 -113.25, -29.73095919368751 -113.25, 168.046875 -113.25 M168.046875 -113.25 C168.046875 -100.61293607979421, 168.046875 -87.97587215958842, 168.046875 -75.5 M168.046875 -113.25 C168.046875 -101.03560557045863, 168.046875 -88.82121114091727, 168.046875 -75.5 M168.046875 -75.5 C56.81920027062779 -75.5, -54.40847445874442 -75.5, -168.046875 -75.5 M168.046875 -75.5 C76.75595496209363 -75.5, -14.53496507581275 -75.5, -168.046875 -75.5 M-168.046875 -75.5 C-168.046875 -83.9404267860812, -168.046875 -92.38085357216241, -168.046875 -113.25 M-168.046875 -75.5 C-168.046875 -85.00732915915555, -168.046875 -94.5146583183111, -168.046875 -113.25" stroke="#9370DB" stroke-width="1.3" fill="none" stroke-dasharray="0 0"></path></g><g style="" class="row-rect-odd"><path d="M-168.046875 -75.5 L168.046875 -75.5 L168.046875 -37.75 L-168.046875 -37.75" stroke="none" stroke-width="0" fill="hsl(240, 100%, 100%)"></path><path d="M-168.046875 -75.5 C-96.10037764667658 -75.5, -24.153880293353154 -75.5, 168.046875 -75.5 M-168.046875 -75.5 C-67.06495204422365 -75.5, 33.91697091155271 -75.5, 168.046875 -75.5 M168.046875 -75.5 C168.046875 -65.59240346253996, 168.046875 -55.68480692507992, 168.046875 -37.75 M168.046875 -75.5 C168.046875 -62.3140510609936, 168.046875 -49.1281021219872, 168.046875 -37.75 M168.046875 -37.75 C54.60649419770843 -37.75, -58.83388660458314 -37.75, -168.046875 -37.75 M168.046875 -37.75 C46.4036804782523 -37.75, -75.2395140434954 -37.75, -168.046875 -37.75 M-168.046875 -37.75 C-168.046875 -51.76429613024139, -168.046875 -65.77859226048278, -168.046875 -75.5 M-168.046875 -37.75 C-168.046875 -50.41667686705537, -168.046875 -63.083353734110744, -168.046875 -75.5" stroke="#9370DB" stroke-width="1.3" fill="none" stroke-dasharray="0 0"></path></g><g style="" class="row-rect-even"><path d="M-168.046875 -37.75 L168.046875 -37.75 L168.046875 0 L-168.046875 0" stroke="none" stroke-width="0" fill="hsl(240, 100%, 97.2745098039%)"></path><path d="M-168.046875 -37.75 C-75.15989700635085 -37.75, 17.727080987298308 -37.75, 168.046875 -37.75 M-168.046875 -37.75 C-91.04164750460458 -37.75, -14.036420009209166 -37.75, 168.046875 -37.75 M168.046875 -37.75 C168.046875 -24.246284793086787, 168.046875 -10.74256958617357, 168.046875 0 M168.046875 -37.75 C168.046875 -25.622993794127446, 168.046875 -13.495987588254888, 168.046875 0 M168.046875 0 C77.04595334674096 0, -13.954968306518083 0, -168.046875 0 M168.046875 0 C94.9948106249905 0, 21.942746249981013 0, -168.046875 0 M-168.046875 0 C-168.046875 -14.007144615465076, -168.046875 -28.014289230930153, -168.046875 -37.75 M-168.046875 0 C-168.046875 -9.721155920081653, -168.046875 -19.442311840163306, -168.046875 -37.75" stroke="#9370DB" stroke-width="1.3" fill="none" stroke-dasharray="0 0"></path></g><g style="" class="row-rect-odd"><path d="M-168.046875 0 L168.046875 0 L168.046875 37.75 L-168.046875 37.75" stroke="none" stroke-width="0" fill="hsl(240, 100%, 100%)"></path><path d="M-168.046875 0 C-38.18912668309355 0, 91.6686216338129 0, 168.046875 0 M-168.046875 0 C-66.25943693664493 0, 35.52800112671014 0, 168.046875 0 M168.046875 0 C168.046875 9.911080106417907, 168.046875 19.822160212835815, 168.046875 37.75 M168.046875 0 C168.046875 7.785654490765062, 168.046875 15.571308981530125, 168.046875 37.75 M168.046875 37.75 C41.80404855535464 37.75, -84.43877788929072 37.75, -168.046875 37.75 M168.046875 37.75 C49.54392964472326 37.75, -68.95901571055347 37.75, -168.046875 37.75 M-168.046875 37.75 C-168.046875 23.48500940087427, -168.046875 9.220018801748537, -168.046875 0 M-168.046875 37.75 C-168.046875 26.973976664860743, -168.046875 16.197953329721482, -168.046875 0" stroke="#9370DB" stroke-width="1.3" fill="none" stroke-dasharray="0 0"></path></g><g style="" class="row-rect-even"><path d="M-168.046875 37.75 L168.046875 37.75 L168.046875 75.5 L-168.046875 75.5" stroke="none" stroke-width="0" fill="hsl(240, 100%, 97.2745098039%)"></path><path d="M-168.046875 37.75 C-93.44812256523716 37.75, -18.849370130474313 37.75, 168.046875 37.75 M-168.046875 37.75 C-59.91863640699823 37.75, 48.209602186003536 37.75, 168.046875 37.75 M168.046875 37.75 C168.046875 50.43194648958453, 168.046875 63.11389297916906, 168.046875 75.5 M168.046875 37.75 C168.046875 51.685158539284096, 168.046875 65.62031707856819, 168.046875 75.5 M168.046875 75.5 C86.46159694158551 75.5, 4.876318883171024 75.5, -168.046875 75.5 M168.046875 75.5 C56.35591108644701 75.5, -55.33505282710598 75.5, -168.046875 75.5 M-168.046875 75.5 C-168.046875 61.77452813171561, -168.046875 48.049056263431225, -168.046875 37.75 M-168.046875 75.5 C-168.046875 67.66900388197121, -168.046875 59.83800776394242, -168.046875 37.75" stroke="#9370DB" stroke-width="1.3" fill="none" stroke-dasharray="0 0"></path></g><g style="" class="row-rect-odd"><path d="M-168.046875 75.5 L168.046875 75.5 L168.046875 113.25 L-168.046875 113.25" stroke="none" stroke-width="0" fill="hsl(240, 100%, 100%)"></path><path d="M-168.046875 75.5 C-85.08826186515957 75.5, -2.1296487303191327 75.5, 168.046875 75.5 M-168.046875 75.5 C-57.94270498096819 75.5, 52.161465038063625 75.5, 168.046875 75.5 M168.046875 75.5 C168.046875 84.25570254008983, 168.046875 93.01140508017966, 168.046875 113.25 M168.046875 75.5 C168.046875 88.42527439560968, 168.046875 101.35054879121935, 168.046875 113.25 M168.046875 113.25 C99.61024116141564 113.25, 31.173607322831288 113.25, -168.046875 113.25 M168.046875 113.25 C36.55271951640839 113.25, -94.94143596718322 113.25, -168.046875 113.25 M-168.046875 113.25 C-168.046875 100.65475765124532, -168.046875 88.05951530249062, -168.046875 75.5 M-168.046875 113.25 C-168.046875 100.4449833577892, -168.046875 87.6399667155784, -168.046875 75.5" stroke="#9370DB" stroke-width="1.3" fill="none" stroke-dasharray="0 0"></path></g><g style="" class="row-rect-even"><path d="M-168.046875 113.25 L168.046875 113.25 L168.046875 151 L-168.046875 151" stroke="none" stroke-width="0" fill="hsl(240, 100%, 97.2745098039%)"></path><path d="M-168.046875 113.25 C-98.71122230075127 113.25, -29.375569601502548 113.25, 168.046875 113.25 M-168.046875 113.25 C-79.8250526696728 113.25, 8.3967696606544 113.25, 168.046875 113.25 M168.046875 113.25 C168.046875 126.14695270585177, 168.046875 139.04390541170355, 168.046875 151 M168.046875 113.25 C168.046875 127.39480627630408, 168.046875 141.53961255260816, 168.046875 151 M168.046875 151 C50.03425104780244 151, -67.97837290439512 151, -168.046875 151 M168.046875 151 C57.37921413947619 151, -53.28844672104762 151, -168.046875 151 M-168.046875 151 C-168.046875 143.09086524895994, -168.046875 135.1817304979199, -168.046875 113.25 M-168.046875 151 C-168.046875 143.21293897429936, -168.046875 135.42587794859872, -168.046875 113.25" stroke="#9370DB" stroke-width="1.3" fill="none" stroke-dasharray="0 0"></path></g><g style="" class="row-rect-odd"><path d="M-168.046875 151 L168.046875 151 L168.046875 188.75 L-168.046875 188.75" stroke="none" stroke-width="0" fill="hsl(240, 100%, 100%)"></path><path d="M-168.046875 151 C-65.53921239062247 151, 36.968450218755066 151, 168.046875 151 M-168.046875 151 C-77.69026583824642 151, 12.666343323507164 151, 168.046875 151 M168.046875 151 C168.046875 163.99097922403197, 168.046875 176.98195844806395, 168.046875 188.75 M168.046875 151 C168.046875 159.53634079103364, 168.046875 168.07268158206725, 168.046875 188.75 M168.046875 188.75 C75.52444936254574 188.75, -16.997976274908524 188.75, -168.046875 188.75 M168.046875 188.75 C40.2629374395937 188.75, -87.5210001208126 188.75, -168.046875 188.75 M-168.046875 188.75 C-168.046875 180.44422775507007, -168.046875 172.13845551014015, -168.046875 151 M-168.046875 188.75 C-168.046875 178.72948273518844, -168.046875 168.70896547037685, -168.046875 151" stroke="#9370DB" stroke-width="1.3" fill="none" stroke-dasharray="0 0"></path></g><g class="label name" transform="translate(-26.8671875, -179.375)" style=""><g><rect class="background" style="stroke: none"></rect></g><text y="-10.1" style=""><tspan class="text-outer-tspan row" x="0" y="-0.1em" dy="1.1em"><tspan font-style="normal" class="text-inner-tspan" font-weight="normal">EVENTS</tspan></tspan></text></g><g class="label attribute-type" transform="translate(-155.546875, -141.625)" style=""><g><rect class="background" style="stroke: none"></rect></g><text y="-10.1" style=""><tspan class="text-outer-tspan row" x="0" y="-0.1em" dy="1.1em"><tspan font-style="normal" class="text-inner-tspan" font-weight="normal">uuid</tspan></tspan></text></g><g class="label attribute-name" transform="translate(-54.203125, -141.625)" style=""><g><rect class="background" style="stroke: none"></rect></g><text y="-10.1" style=""><tspan class="text-outer-tspan row" x="0" y="-0.1em" dy="1.1em"><tspan font-style="normal" class="text-inner-tspan" font-weight="normal">id</tspan></tspan></text></g><g class="label attribute-keys" transform="translate(54.71875, -141.625)" style=""><g><rect class="background" style="stroke: none"></rect></g><text y="-10.1" style=""><tspan class="text-outer-tspan row" x="0" y="-0.1em" dy="1.1em"><tspan font-style="normal" class="text-inner-tspan" font-weight="normal">PK</tspan></tspan></text></g><g class="label attribute-comment" transform="translate(97.859375, -141.625)" style=""><g><rect class="background" style="stroke: none"></rect></g><text y="-10.1" style=""><tspan class="text-outer-tspan row" x="0" y="-0.1em" dy="1.1em"></tspan></text></g><g class="label attribute-type" transform="translate(-155.546875, -103.875)" style=""><g><rect class="background" style="stroke: none"></rect></g><text y="-10.1" style=""><tspan class="text-outer-tspan row" x="0" y="-0.1em" dy="1.1em"><tspan font-style="normal" class="text-inner-tspan" font-weight="normal">uuid</tspan></tspan></text></g><g class="label attribute-name" transform="translate(-54.203125, -103.875)" style=""><g><rect class="background" style="stroke: none"></rect></g><text y="-10.1" style=""><tspan class="text-outer-tspan row" x="0" y="-0.1em" dy="1.1em"><tspan font-style="normal" class="text-inner-tspan" font-weight="normal">calendar_id</tspan></tspan></text></g><g class="label attribute-keys" transform="translate(54.71875, -103.875)" style=""><g><rect class="background" style="stroke: none"></rect></g><text y="-10.1" style=""><tspan class="text-outer-tspan row" x="0" y="-0.1em" dy="1.1em"><tspan font-style="normal" class="text-inner-tspan" font-weight="normal">FK</tspan></tspan></text></g><g class="label attribute-comment" transform="translate(97.859375, -103.875)" style=""><g><rect class="background" style="stroke: none"></rect></g><text y="-10.1" style=""><tspan class="text-outer-tspan row" x="0" y="-0.1em" dy="1.1em"></tspan></text></g><g class="label attribute-type" transform="translate(-155.546875, -66.125)" style=""><g><rect class="background" style="stroke: none"></rect></g><text y="-10.1" style=""><tspan class="text-outer-tspan row" x="0" y="-0.1em" dy="1.1em"><tspan font-style="normal" class="text-inner-tspan" font-weight="normal">string</tspan></tspan></text></g><g class="label attribute-name" transform="translate(-54.203125, -66.125)" style=""><g><rect class="background" style="stroke: none"></rect></g><text y="-10.1" style=""><tspan class="text-outer-tspan row" x="0" y="-0.1em" dy="1.1em"><tspan font-style="normal" class="text-inner-tspan" font-weight="normal">ical_uid</tspan></tspan></text></g><g class="label attribute-keys" transform="translate(54.71875, -66.125)" style=""><g><rect class="background" style="stroke: none"></rect></g><text y="-10.1" style=""><tspan class="text-outer-tspan row" x="0" y="-0.1em" dy="1.1em"></tspan></text></g><g class="label attribute-comment" transform="translate(97.859375, -66.125)" style=""><g><rect class="background" style="stroke: none"></rect></g><text y="-10.1" style=""><tspan class="text-outer-tspan row" x="0" y="-0.1em" dy="1.1em"></tspan></text></g><g class="label attribute-type" transform="translate(-155.546875, -28.375)" style=""><g><rect class="background" style="stroke: none"></rect></g><text y="-10.1" style=""><tspan class="text-outer-tspan row" x="0" y="-0.1em" dy="1.1em"><tspan font-style="normal" class="text-inner-tspan" font-weight="normal">timestamp</tspan></tspan></text></g><g class="label attribute-name" transform="translate(-54.203125, -28.375)" style=""><g><rect class="background" style="stroke: none"></rect></g><text y="-10.1" style=""><tspan class="text-outer-tspan row" x="0" y="-0.1em" dy="1.1em"><tspan font-style="normal" class="text-inner-tspan" font-weight="normal">start_local</tspan></tspan></text></g><g class="label attribute-keys" transform="translate(54.71875, -28.375)" style=""><g><rect class="background" style="stroke: none"></rect></g><text y="-10.1" style=""><tspan class="text-outer-tspan row" x="0" y="-0.1em" dy="1.1em"></tspan></text></g><g class="label attribute-comment" transform="translate(97.859375, -28.375)" style=""><g><rect class="background" style="stroke: none"></rect></g><text y="-10.1" style=""><tspan class="text-outer-tspan row" x="0" y="-0.1em" dy="1.1em"></tspan></text></g><g class="label attribute-type" transform="translate(-155.546875, 9.375)" style=""><g><rect class="background" style="stroke: none"></rect></g><text y="-10.1" style=""><tspan class="text-outer-tspan row" x="0" y="-0.1em" dy="1.1em"><tspan font-style="normal" class="text-inner-tspan" font-weight="normal">string</tspan></tspan></text></g><g class="label attribute-name" transform="translate(-54.203125, 9.375)" style=""><g><rect class="background" style="stroke: none"></rect></g><text y="-10.1" style=""><tspan class="text-outer-tspan row" x="0" y="-0.1em" dy="1.1em"><tspan font-style="normal" class="text-inner-tspan" font-weight="normal">tzid</tspan></tspan></text></g><g class="label attribute-keys" transform="translate(54.71875, 9.375)" style=""><g><rect class="background" style="stroke: none"></rect></g><text y="-10.1" style=""><tspan class="text-outer-tspan row" x="0" y="-0.1em" dy="1.1em"></tspan></text></g><g class="label attribute-comment" transform="translate(97.859375, 9.375)" style=""><g><rect class="background" style="stroke: none"></rect></g><text y="-10.1" style=""><tspan class="text-outer-tspan row" x="0" y="-0.1em" dy="1.1em"></tspan></text></g><g class="label attribute-type" transform="translate(-155.546875, 47.125)" style=""><g><rect class="background" style="stroke: none"></rect></g><text y="-10.1" style=""><tspan class="text-outer-tspan row" x="0" y="-0.1em" dy="1.1em"><tspan font-style="normal" class="text-inner-tspan" font-weight="normal">string</tspan></tspan></text></g><g class="label attribute-name" transform="translate(-54.203125, 47.125)" style=""><g><rect class="background" style="stroke: none"></rect></g><text y="-10.1" style=""><tspan class="text-outer-tspan row" x="0" y="-0.1em" dy="1.1em"><tspan font-style="normal" class="text-inner-tspan" font-weight="normal">rrule</tspan></tspan></text></g><g class="label attribute-keys" transform="translate(54.71875, 47.125)" style=""><g><rect class="background" style="stroke: none"></rect></g><text y="-10.1" style=""><tspan class="text-outer-tspan row" x="0" y="-0.1em" dy="1.1em"></tspan></text></g><g class="label attribute-comment" transform="translate(97.859375, 47.125)" style=""><g><rect class="background" style="stroke: none"></rect></g><text y="-10.1" style=""><tspan class="text-outer-tspan row" x="0" y="-0.1em" dy="1.1em"><tspan font-style="normal" class="text-inner-tspan" font-weight="normal">nullable</tspan></tspan></text></g><g class="label attribute-type" transform="translate(-155.546875, 84.875)" style=""><g><rect class="background" style="stroke: none"></rect></g><text y="-10.1" style=""><tspan class="text-outer-tspan row" x="0" y="-0.1em" dy="1.1em"><tspan font-style="normal" class="text-inner-tspan" font-weight="normal">text_array</tspan></tspan></text></g><g class="label attribute-name" transform="translate(-54.203125, 84.875)" style=""><g><rect class="background" style="stroke: none"></rect></g><text y="-10.1" style=""><tspan class="text-outer-tspan row" x="0" y="-0.1em" dy="1.1em"><tspan font-style="normal" class="text-inner-tspan" font-weight="normal">exdate</tspan></tspan></text></g><g class="label attribute-keys" transform="translate(54.71875, 84.875)" style=""><g><rect class="background" style="stroke: none"></rect></g><text y="-10.1" style=""><tspan class="text-outer-tspan row" x="0" y="-0.1em" dy="1.1em"></tspan></text></g><g class="label attribute-comment" transform="translate(97.859375, 84.875)" style=""><g><rect class="background" style="stroke: none"></rect></g><text y="-10.1" style=""><tspan class="text-outer-tspan row" x="0" y="-0.1em" dy="1.1em"></tspan></text></g><g class="label attribute-type" transform="translate(-155.546875, 122.625)" style=""><g><rect class="background" style="stroke: none"></rect></g><text y="-10.1" style=""><tspan class="text-outer-tspan row" x="0" y="-0.1em" dy="1.1em"><tspan font-style="normal" class="text-inner-tspan" font-weight="normal">text_array</tspan></tspan></text></g><g class="label attribute-name" transform="translate(-54.203125, 122.625)" style=""><g><rect class="background" style="stroke: none"></rect></g><text y="-10.1" style=""><tspan class="text-outer-tspan row" x="0" y="-0.1em" dy="1.1em"><tspan font-style="normal" class="text-inner-tspan" font-weight="normal">rdate</tspan></tspan></text></g><g class="label attribute-keys" transform="translate(54.71875, 122.625)" style=""><g><rect class="background" style="stroke: none"></rect></g><text y="-10.1" style=""><tspan class="text-outer-tspan row" x="0" y="-0.1em" dy="1.1em"></tspan></text></g><g class="label attribute-comment" transform="translate(97.859375, 122.625)" style=""><g><rect class="background" style="stroke: none"></rect></g><text y="-10.1" style=""><tspan class="text-outer-tspan row" x="0" y="-0.1em" dy="1.1em"></tspan></text></g><g class="label attribute-type" transform="translate(-155.546875, 160.375)" style=""><g><rect class="background" style="stroke: none"></rect></g><text y="-10.1" style=""><tspan class="text-outer-tspan row" x="0" y="-0.1em" dy="1.1em"><tspan font-style="normal" class="text-inner-tspan" font-weight="normal">int</tspan></tspan></text></g><g class="label attribute-name" transform="translate(-54.203125, 160.375)" style=""><g><rect class="background" style="stroke: none"></rect></g><text y="-10.1" style=""><tspan class="text-outer-tspan row" x="0" y="-0.1em" dy="1.1em"><tspan font-style="normal" class="text-inner-tspan" font-weight="normal">sequence</tspan></tspan></text></g><g class="label attribute-keys" transform="translate(54.71875, 160.375)" style=""><g><rect class="background" style="stroke: none"></rect></g><text y="-10.1" style=""><tspan class="text-outer-tspan row" x="0" y="-0.1em" dy="1.1em"></tspan></text></g><g class="label attribute-comment" transform="translate(97.859375, 160.375)" style=""><g><rect class="background" style="stroke: none"></rect></g><text y="-10.1" style=""><tspan class="text-outer-tspan row" x="0" y="-0.1em" dy="1.1em"></tspan></text></g><g class="divider"><path d="M-168.046875 -151.00005 L-168.046875 -150.99995 L168.046875 -150.99995 L168.046875 -151.00005" stroke="none" stroke-width="0" fill="#ECECFF" fill-rule="evenodd"></path><path d="M-168.046875 -151.00005 C-168.046875 -151.000018828743, -168.046875 -150.99998765748606, -168.046875 -150.99995 M-168.046875 -151.00005 C-168.046875 -151.00001327362205, -168.046875 -150.99997654724413, -168.046875 -150.99995 M-168.046875 -150.99995 C-88.31397350752546 -150.99995, -8.581072015050921 -150.99995, 168.046875 -150.99995 M-168.046875 -150.99995 C-78.58703916408544 -150.99995, 10.872796671829121 -150.99995, 168.046875 -150.99995 M168.046875 -150.99995 C168.046875 -150.9999873641082, 168.046875 -151.00002472821635, 168.046875 -151.00005 M168.046875 -150.99995 C168.046875 -150.99998973089436, 168.046875 -151.0000294617887, 168.046875 -151.00005 M168.046875 -151.00005 C85.58744764801293 -151.00005, 3.128020296025852 -151.00005, -168.046875 -151.00005 M168.046875 -151.00005 C67.06618083493433 -151.00005, -33.91451333013134 -151.00005, -168.046875 -151.00005" stroke="#9370DB" stroke-width="1.3" fill="none" stroke-dasharray="0 0"></path></g><g class="divider"><path d="M-66.703175 -151 L-66.703075 -151 L-66.703075 188.75 L-66.703175 188.75" stroke="none" stroke-width="0" fill="#ECECFF" fill-rule="evenodd"></path><path d="M-66.703175 -151 C-66.70314467713227 -151, -66.70311435426454 -151, -66.703075 -151 M-66.703175 -151 C-66.70315014940724 -151, -66.70312529881446 -151, -66.703075 -151 M-66.703075 -151 C-66.703075 -50.50544339426678, -66.703075 49.989113211466446, -66.703075 188.75 M-66.703075 -151 C-66.703075 -52.89807366701095, -66.703075 45.203852665978104, -66.703075 188.75 M-66.703075 188.75 C-66.70309729690966 188.75, -66.70311959381932 188.75, -66.703175 188.75 M-66.703075 188.75 C-66.7031069669954 188.75, -66.70313893399081 188.75, -66.703175 188.75 M-66.703175 188.75 C-66.703175 75.50254023330312, -66.703175 -37.744919533393755, -66.703175 -151 M-66.703175 188.75 C-66.703175 55.35412615321323, -66.703175 -78.04174769357354, -66.703175 -151" stroke="#9370DB" stroke-width="1.3" fill="none" stroke-dasharray="0 0"></path></g><g class="divider"><path d="M42.2187 -151 L42.2188 -151 L42.2188 188.75 L42.2187 188.75" stroke="none" stroke-width="0" fill="#ECECFF" fill-rule="evenodd"></path><path d="M42.2187 -151 C42.218733474779405 -151, 42.21876694955881 -151, 42.2188 -151 M42.2187 -151 C42.218735384993956 -151, 42.21877076998792 -151, 42.2188 -151 M42.2188 -151 C42.2188 -26.49914252099336, 42.2188 98.00171495801328, 42.2188 188.75 M42.2188 -151 C42.2188 -18.998676937144353, 42.2188 113.0026461257113, 42.2188 188.75 M42.2188 188.75 C42.21876482301977 188.75, 42.21872964603954 188.75, 42.2187 188.75 M42.2188 188.75 C42.21877168709892 188.75, 42.21874337419784 188.75, 42.2187 188.75 M42.2187 188.75 C42.2187 75.67244760904687, 42.2187 -37.40510478190626, 42.2187 -151 M42.2187 188.75 C42.2187 93.90715856443234, 42.2187 -0.9356828711353273, 42.2187 -151" stroke="#9370DB" stroke-width="1.3" fill="none" stroke-dasharray="0 0"></path></g><g class="divider"><path d="M85.359325 -151 L85.359425 -151 L85.359425 188.75 L85.359325 188.75" stroke="none" stroke-width="0" fill="#ECECFF" fill-rule="evenodd"></path><path d="M85.359325 -151 C85.35936422448526 -151, 85.35940344897051 -151, 85.359425 -151 M85.359325 -151 C85.3593507536013 -151, 85.3593765072026 -151, 85.359425 -151 M85.359425 -151 C85.359425 -31.218572588404356, 85.359425 88.56285482319129, 85.359425 188.75 M85.359425 -151 C85.359425 -21.308063782332567, 85.359425 108.38387243533487, 85.359425 188.75 M85.359425 188.75 C85.35939008971928 188.75, 85.35935517943857 188.75, 85.359325 188.75 M85.359425 188.75 C85.35939840435849 188.75, 85.35937180871697 188.75, 85.359325 188.75 M85.359325 188.75 C85.359325 78.22191143102695, 85.359325 -32.306177137946094, 85.359325 -151 M85.359325 188.75 C85.359325 109.57368722678434, 85.359325 30.397374453568688, 85.359325 -151" stroke="#9370DB" stroke-width="1.3" fill="none" stroke-dasharray="0 0"></path></g><g class="divider"><path d="M-168.046875 -151.00005 L-168.046875 -150.99995 L168.046875 -150.99995 L168.046875 -151.00005" stroke="none" stroke-width="0" fill="#ECECFF" fill-rule="evenodd"></path><path d="M-168.046875 -151.00005 C-168.046875 -151.00002945009524, -168.046875 -151.00000890019052, -168.046875 -150.99995 M-168.046875 -151.00005 C-168.046875 -151.00001016488258, -168.046875 -150.99997032976515, -168.046875 -150.99995 M-168.046875 -150.99995 C-42.54679043857816 -150.99995, 82.95329412284369 -150.99995, 168.046875 -150.99995 M-168.046875 -150.99995 C-73.53613821293841 -150.99995, 20.974598574123178 -150.99995, 168.046875 -150.99995 M168.046875 -150.99995 C168.046875 -150.99998867570866, 168.046875 -151.0000273514173, 168.046875 -151.00005 M168.046875 -150.99995 C168.046875 -150.99998375605398, 168.046875 -151.00001751210795, 168.046875 -151.00005 M168.046875 -151.00005 C97.3047216273612 -151.00005, 26.562568254722407 -151.00005, -168.046875 -151.00005 M168.046875 -151.00005 C77.49322030537404 -151.00005, -13.060434389251924 -151.00005, -168.046875 -151.00005" stroke="#9370DB" stroke-width="1.3" fill="none" stroke-dasharray="0 0"></path></g></g><g class="node default" id="g3ec343a2-6537-4386-b7ae-6a8c28c3456c-light-entity-EVENT_INSTANCES-2" data-look="classic" transform="translate(266.5234375, 931.25)"><g class="outer-path" style=""><path d="M-258.5234375 -151 L258.5234375 -151 L258.5234375 151 L-258.5234375 151" stroke="none" stroke-width="0" fill="#ECECFF"></path><path d="M-258.5234375 -151 C-117.94081561127771 -151, 22.641806277444573 -151, 258.5234375 -151 M-258.5234375 -151 C-147.52857472480645 -151, -36.53371194961292 -151, 258.5234375 -151 M258.5234375 -151 C258.5234375 -73.00435817222221, 258.5234375 4.991283655555577, 258.5234375 151 M258.5234375 -151 C258.5234375 -75.23569363574481, 258.5234375 0.5286127285103817, 258.5234375 151 M258.5234375 151 C56.893282555749664 151, -144.73687238850067 151, -258.5234375 151 M258.5234375 151 C88.08805840757776 151, -82.34732068484448 151, -258.5234375 151 M-258.5234375 151 C-258.5234375 34.59839792841406, -258.5234375 -81.80320414317188, -258.5234375 -151 M-258.5234375 151 C-258.5234375 40.563057778214656, -258.5234375 -69.87388444357069, -258.5234375 -151" stroke="#9370DB" stroke-width="1.3" fill="none" stroke-dasharray="0 0"></path></g><g style="" class="row-rect-odd"><path d="M-258.5234375 -113.25 L258.5234375 -113.25 L258.5234375 -75.5 L-258.5234375 -75.5" stroke="none" stroke-width="0" fill="hsl(240, 100%, 100%)"></path><path d="M-258.5234375 -113.25 C-141.31619005091935 -113.25, -24.10894260183869 -113.25, 258.5234375 -113.25 M-258.5234375 -113.25 C-91.68720111310108 -113.25, 75.14903527379784 -113.25, 258.5234375 -113.25 M258.5234375 -113.25 C258.5234375 -102.87143128667981, 258.5234375 -92.4928625733596, 258.5234375 -75.5 M258.5234375 -113.25 C258.5234375 -98.83025715209202, 258.5234375 -84.41051430418403, 258.5234375 -75.5 M258.5234375 -75.5 C103.47837567381308 -75.5, -51.56668615237385 -75.5, -258.5234375 -75.5 M258.5234375 -75.5 C53.19776415024202 -75.5, -152.12790919951595 -75.5, -258.5234375 -75.5 M-258.5234375 -75.5 C-258.5234375 -89.17968571006189, -258.5234375 -102.85937142012376, -258.5234375 -113.25 M-258.5234375 -75.5 C-258.5234375 -85.38046094896617, -258.5234375 -95.26092189793235, -258.5234375 -113.25" stroke="#9370DB" stroke-width="1.3" fill="none" stroke-dasharray="0 0"></path></g><g style="" class="row-rect-even"><path d="M-258.5234375 -75.5 L258.5234375 -75.5 L258.5234375 -37.75 L-258.5234375 -37.75" stroke="none" stroke-width="0" fill="hsl(240, 100%, 97.2745098039%)"></path><path d="M-258.5234375 -75.5 C-140.97936507650195 -75.5, -23.43529265300387 -75.5, 258.5234375 -75.5 M-258.5234375 -75.5 C-98.13321906598821 -75.5, 62.25699936802357 -75.5, 258.5234375 -75.5 M258.5234375 -75.5 C258.5234375 -61.07886153015395, 258.5234375 -46.6577230603079, 258.5234375 -37.75 M258.5234375 -75.5 C258.5234375 -64.81844536658159, 258.5234375 -54.136890733163185, 258.5234375 -37.75 M258.5234375 -37.75 C72.56962468208945 -37.75, -113.38418813582109 -37.75, -258.5234375 -37.75 M258.5234375 -37.75 C143.87033570399845 -37.75, 29.2172339079969 -37.75, -258.5234375 -37.75 M-258.5234375 -37.75 C-258.5234375 -50.41711238615803, -258.5234375 -63.08422477231606, -258.5234375 -75.5 M-258.5234375 -37.75 C-258.5234375 -52.40048850031334, -258.5234375 -67.05097700062667, -258.5234375 -75.5" stroke="#9370DB" stroke-width="1.3" fill="none" stroke-dasharray="0 0"></path></g><g style="" class="row-rect-odd"><path d="M-258.5234375 -37.75 L258.5234375 -37.75 L258.5234375 0 L-258.5234375 0" stroke="none" stroke-width="0" fill="hsl(240, 100%, 100%)"></path><path d="M-258.5234375 -37.75 C-153.38708308531454 -37.75, -48.25072867062906 -37.75, 258.5234375 -37.75 M-258.5234375 -37.75 C-116.54396004728835 -37.75, 25.435517405423298 -37.75, 258.5234375 -37.75 M258.5234375 -37.75 C258.5234375 -25.37937395872221, 258.5234375 -13.008747917444417, 258.5234375 0 M258.5234375 -37.75 C258.5234375 -27.63857438338152, 258.5234375 -17.52714876676304, 258.5234375 0 M258.5234375 0 C52.842172536276365 0, -152.83909242744727 0, -258.5234375 0 M258.5234375 0 C57.59749468175997 0, -143.32844813648006 0, -258.5234375 0 M-258.5234375 0 C-258.5234375 -11.427483167108226, -258.5234375 -22.854966334216453, -258.5234375 -37.75 M-258.5234375 0 C-258.5234375 -13.212096977943979, -258.5234375 -26.424193955887958, -258.5234375 -37.75" stroke="#9370DB" stroke-width="1.3" fill="none" stroke-dasharray="0 0"></path></g><g style="" class="row-rect-even"><path d="M-258.5234375 0 L258.5234375 0 L258.5234375 37.75 L-258.5234375 37.75" stroke="none" stroke-width="0" fill="hsl(240, 100%, 97.2745098039%)"></path><path d="M-258.5234375 0 C-133.0021421746307 0, -7.480846849261411 0, 258.5234375 0 M-258.5234375 0 C-63.40259933293456 0, 131.7182388341309 0, 258.5234375 0 M258.5234375 0 C258.5234375 13.774793341820425, 258.5234375 27.54958668364085, 258.5234375 37.75 M258.5234375 0 C258.5234375 15.043336085812088, 258.5234375 30.086672171624176, 258.5234375 37.75 M258.5234375 37.75 C54.12810836003584 37.75, -150.26722077992832 37.75, -258.5234375 37.75 M258.5234375 37.75 C131.82074589196404 37.75, 5.118054283928075 37.75, -258.5234375 37.75 M-258.5234375 37.75 C-258.5234375 27.499505738911452, -258.5234375 17.249011477822904, -258.5234375 0 M-258.5234375 37.75 C-258.5234375 23.290731614559878, -258.5234375 8.831463229119755, -258.5234375 0" stroke="#9370DB" stroke-width="1.3" fill="none" stroke-dasharray="0 0"></path></g><g style="" class="row-rect-odd"><path d="M-258.5234375 37.75 L258.5234375 37.75 L258.5234375 75.5 L-258.5234375 75.5" stroke="none" stroke-width="0" fill="hsl(240, 100%, 100%)"></path><path d="M-258.5234375 37.75 C-83.33070051864252 37.75, 91.86203646271497 37.75, 258.5234375 37.75 M-258.5234375 37.75 C-113.19844056321372 37.75, 32.126556373572555 37.75, 258.5234375 37.75 M258.5234375 37.75 C258.5234375 47.99710057692882, 258.5234375 58.244201153857645, 258.5234375 75.5 M258.5234375 37.75 C258.5234375 52.189282826240586, 258.5234375 66.62856565248117, 258.5234375 75.5 M258.5234375 75.5 C92.02862356564259 75.5, -74.46619036871482 75.5, -258.5234375 75.5 M258.5234375 75.5 C140.15654823897427 75.5, 21.789658977948505 75.5, -258.5234375 75.5 M-258.5234375 75.5 C-258.5234375 66.36285992193191, -258.5234375 57.22571984386384, -258.5234375 37.75 M-258.5234375 75.5 C-258.5234375 61.68116433810117, -258.5234375 47.862328676202345, -258.5234375 37.75" stroke="#9370DB" stroke-width="1.3" fill="none" stroke-dasharray="0 0"></path></g><g style="" class="row-rect-even"><path d="M-258.5234375 75.5 L258.5234375 75.5 L258.5234375 113.25 L-258.5234375 113.25" stroke="none" stroke-width="0" fill="hsl(240, 100%, 97.2745098039%)"></path><path d="M-258.5234375 75.5 C-101.9111894017534 75.5, 54.70105869649319 75.5, 258.5234375 75.5 M-258.5234375 75.5 C-140.78153458151715 75.5, -23.0396316630343 75.5, 258.5234375 75.5 M258.5234375 75.5 C258.5234375 89.14701381642845, 258.5234375 102.79402763285691, 258.5234375 113.25 M258.5234375 75.5 C258.5234375 87.00496809529542, 258.5234375 98.50993619059085, 258.5234375 113.25 M258.5234375 113.25 C125.84867841805885 113.25, -6.826080663882294 113.25, -258.5234375 113.25 M258.5234375 113.25 C87.95323993931771 113.25, -82.61695762136458 113.25, -258.5234375 113.25 M-258.5234375 113.25 C-258.5234375 100.42280095097601, -258.5234375 87.59560190195204, -258.5234375 75.5 M-258.5234375 113.25 C-258.5234375 101.97576330315498, -258.5234375 90.70152660630995, -258.5234375 75.5" stroke="#9370DB" stroke-width="1.3" fill="none" stroke-dasharray="0 0"></path></g><g style="" class="row-rect-odd"><path d="M-258.5234375 113.25 L258.5234375 113.25 L258.5234375 151 L-258.5234375 151" stroke="none" stroke-width="0" fill="hsl(240, 100%, 100%)"></path><path d="M-258.5234375 113.25 C-148.17607675580626 113.25, -37.82871601161253 113.25, 258.5234375 113.25 M-258.5234375 113.25 C-64.68184531338412 113.25, 129.15974687323177 113.25, 258.5234375 113.25 M258.5234375 113.25 C258.5234375 127.49849464887276, 258.5234375 141.74698929774553, 258.5234375 151 M258.5234375 113.25 C258.5234375 124.16425193015053, 258.5234375 135.07850386030105, 258.5234375 151 M258.5234375 151 C152.44343787177735 151, 46.3634382435547 151, -258.5234375 151 M258.5234375 151 C106.2184337325522 151, -46.0865700348956 151, -258.5234375 151 M-258.5234375 151 C-258.5234375 140.45895191521504, -258.5234375 129.91790383043008, -258.5234375 113.25 M-258.5234375 151 C-258.5234375 138.5335751872239, -258.5234375 126.06715037444779, -258.5234375 113.25" stroke="#9370DB" stroke-width="1.3" fill="none" stroke-dasharray="0 0"></path></g><g class="label name" transform="translate(-65.0078125, -141.625)" style=""><g><rect class="background" style="stroke: none"></rect></g><text y="-10.1" style=""><tspan class="text-outer-tspan row" x="0" y="-0.1em" dy="1.1em"><tspan font-style="normal" class="text-inner-tspan" font-weight="normal">EVENT_INSTANCES</tspan></tspan></text></g><g class="label attribute-type" transform="translate(-246.0234375, -103.875)" style=""><g><rect class="background" style="stroke: none"></rect></g><text y="-10.1" style=""><tspan class="text-outer-tspan row" x="0" y="-0.1em" dy="1.1em"><tspan font-style="normal" class="text-inner-tspan" font-weight="normal">uuid</tspan></tspan></text></g><g class="label attribute-name" transform="translate(-130.7421875, -103.875)" style=""><g><rect class="background" style="stroke: none"></rect></g><text y="-10.1" style=""><tspan class="text-outer-tspan row" x="0" y="-0.1em" dy="1.1em"><tspan font-style="normal" class="text-inner-tspan" font-weight="normal">id</tspan></tspan></text></g><g class="label attribute-keys" transform="translate(27.7578125, -103.875)" style=""><g><rect class="background" style="stroke: none"></rect></g><text y="-10.1" style=""><tspan class="text-outer-tspan row" x="0" y="-0.1em" dy="1.1em"><tspan font-style="normal" class="text-inner-tspan" font-weight="normal">PK</tspan></tspan></text></g><g class="label attribute-comment" transform="translate(70.8984375, -103.875)" style=""><g><rect class="background" style="stroke: none"></rect></g><text y="-10.1" style=""><tspan class="text-outer-tspan row" x="0" y="-0.1em" dy="1.1em"></tspan></text></g><g class="label attribute-type" transform="translate(-246.0234375, -66.125)" style=""><g><rect class="background" style="stroke: none"></rect></g><text y="-10.1" style=""><tspan class="text-outer-tspan row" x="0" y="-0.1em" dy="1.1em"><tspan font-style="normal" class="text-inner-tspan" font-weight="normal">uuid</tspan></tspan></text></g><g class="label attribute-name" transform="translate(-130.7421875, -66.125)" style=""><g><rect class="background" style="stroke: none"></rect></g><text y="-10.1" style=""><tspan class="text-outer-tspan row" x="0" y="-0.1em" dy="1.1em"><tspan font-style="normal" class="text-inner-tspan" font-weight="normal">event_id</tspan></tspan></text></g><g class="label attribute-keys" transform="translate(27.7578125, -66.125)" style=""><g><rect class="background" style="stroke: none"></rect></g><text y="-10.1" style=""><tspan class="text-outer-tspan row" x="0" y="-0.1em" dy="1.1em"><tspan font-style="normal" class="text-inner-tspan" font-weight="normal">FK</tspan></tspan></text></g><g class="label attribute-comment" transform="translate(70.8984375, -66.125)" style=""><g><rect class="background" style="stroke: none"></rect></g><text y="-10.1" style=""><tspan class="text-outer-tspan row" x="0" y="-0.1em" dy="1.1em"></tspan></text></g><g class="label attribute-type" transform="translate(-246.0234375, -28.375)" style=""><g><rect class="background" style="stroke: none"></rect></g><text y="-10.1" style=""><tspan class="text-outer-tspan row" x="0" y="-0.1em" dy="1.1em"><tspan font-style="normal" class="text-inner-tspan" font-weight="normal">timestamptz</tspan></tspan></text></g><g class="label attribute-name" transform="translate(-130.7421875, -28.375)" style=""><g><rect class="background" style="stroke: none"></rect></g><text y="-10.1" style=""><tspan class="text-outer-tspan row" x="0" y="-0.1em" dy="1.1em"><tspan font-style="normal" class="text-inner-tspan" font-weight="normal">instance_start_utc</tspan></tspan></text></g><g class="label attribute-keys" transform="translate(27.7578125, -28.375)" style=""><g><rect class="background" style="stroke: none"></rect></g><text y="-10.1" style=""><tspan class="text-outer-tspan row" x="0" y="-0.1em" dy="1.1em"></tspan></text></g><g class="label attribute-comment" transform="translate(70.8984375, -28.375)" style=""><g><rect class="background" style="stroke: none"></rect></g><text y="-10.1" style=""><tspan class="text-outer-tspan row" x="0" y="-0.1em" dy="1.1em"></tspan></text></g><g class="label attribute-type" transform="translate(-246.0234375, 9.375)" style=""><g><rect class="background" style="stroke: none"></rect></g><text y="-10.1" style=""><tspan class="text-outer-tspan row" x="0" y="-0.1em" dy="1.1em"><tspan font-style="normal" class="text-inner-tspan" font-weight="normal">timestamptz</tspan></tspan></text></g><g class="label attribute-name" transform="translate(-130.7421875, 9.375)" style=""><g><rect class="background" style="stroke: none"></rect></g><text y="-10.1" style=""><tspan class="text-outer-tspan row" x="0" y="-0.1em" dy="1.1em"><tspan font-style="normal" class="text-inner-tspan" font-weight="normal">original_start_utc</tspan></tspan></text></g><g class="label attribute-keys" transform="translate(27.7578125, 9.375)" style=""><g><rect class="background" style="stroke: none"></rect></g><text y="-10.1" style=""><tspan class="text-outer-tspan row" x="0" y="-0.1em" dy="1.1em"></tspan></text></g><g class="label attribute-comment" transform="translate(70.8984375, 9.375)" style=""><g><rect class="background" style="stroke: none"></rect></g><text y="-10.1" style=""><tspan class="text-outer-tspan row" x="0" y="-0.1em" dy="1.1em"><tspan font-style="normal" class="text-inner-tspan" font-weight="normal">match</tspan><tspan font-style="normal" class="text-inner-tspan" font-weight="normal"> key</tspan><tspan font-style="normal" class="text-inner-tspan" font-weight="normal"> for</tspan><tspan font-style="normal" class="text-inner-tspan" font-weight="normal"> exception</tspan></tspan></text></g><g class="label attribute-type" transform="translate(-246.0234375, 47.125)" style=""><g><rect class="background" style="stroke: none"></rect></g><text y="-10.1" style=""><tspan class="text-outer-tspan row" x="0" y="-0.1em" dy="1.1em"><tspan font-style="normal" class="text-inner-tspan" font-weight="normal">bool</tspan></tspan></text></g><g class="label attribute-name" transform="translate(-130.7421875, 47.125)" style=""><g><rect class="background" style="stroke: none"></rect></g><text y="-10.1" style=""><tspan class="text-outer-tspan row" x="0" y="-0.1em" dy="1.1em"><tspan font-style="normal" class="text-inner-tspan" font-weight="normal">is_exception</tspan></tspan></text></g><g class="label attribute-keys" transform="translate(27.7578125, 47.125)" style=""><g><rect class="background" style="stroke: none"></rect></g><text y="-10.1" style=""><tspan class="text-outer-tspan row" x="0" y="-0.1em" dy="1.1em"></tspan></text></g><g class="label attribute-comment" transform="translate(70.8984375, 47.125)" style=""><g><rect class="background" style="stroke: none"></rect></g><text y="-10.1" style=""><tspan class="text-outer-tspan row" x="0" y="-0.1em" dy="1.1em"></tspan></text></g><g class="label attribute-type" transform="translate(-246.0234375, 84.875)" style=""><g><rect class="background" style="stroke: none"></rect></g><text y="-10.1" style=""><tspan class="text-outer-tspan row" x="0" y="-0.1em" dy="1.1em"><tspan font-style="normal" class="text-inner-tspan" font-weight="normal">string</tspan></tspan></text></g><g class="label attribute-name" transform="translate(-130.7421875, 84.875)" style=""><g><rect class="background" style="stroke: none"></rect></g><text y="-10.1" style=""><tspan class="text-outer-tspan row" x="0" y="-0.1em" dy="1.1em"><tspan font-style="normal" class="text-inner-tspan" font-weight="normal">status</tspan></tspan></text></g><g class="label attribute-keys" transform="translate(27.7578125, 84.875)" style=""><g><rect class="background" style="stroke: none"></rect></g><text y="-10.1" style=""><tspan class="text-outer-tspan row" x="0" y="-0.1em" dy="1.1em"></tspan></text></g><g class="label attribute-comment" transform="translate(70.8984375, 84.875)" style=""><g><rect class="background" style="stroke: none"></rect></g><text y="-10.1" style=""><tspan class="text-outer-tspan row" x="0" y="-0.1em" dy="1.1em"><tspan font-style="normal" class="text-inner-tspan" font-weight="normal">confirmed</tspan><tspan font-style="normal" class="text-inner-tspan" font-weight="normal"> |</tspan><tspan font-style="normal" class="text-inner-tspan" font-weight="normal"> cancelled</tspan></tspan></text></g><g class="label attribute-type" transform="translate(-246.0234375, 122.625)" style=""><g><rect class="background" style="stroke: none"></rect></g><text y="-10.1" style=""><tspan class="text-outer-tspan row" x="0" y="-0.1em" dy="1.1em"><tspan font-style="normal" class="text-inner-tspan" font-weight="normal">string</tspan></tspan></text></g><g class="label attribute-name" transform="translate(-130.7421875, 122.625)" style=""><g><rect class="background" style="stroke: none"></rect></g><text y="-10.1" style=""><tspan class="text-outer-tspan row" x="0" y="-0.1em" dy="1.1em"><tspan font-style="normal" class="text-inner-tspan" font-weight="normal">summary_override</tspan></tspan></text></g><g class="label attribute-keys" transform="translate(27.7578125, 122.625)" style=""><g><rect class="background" style="stroke: none"></rect></g><text y="-10.1" style=""><tspan class="text-outer-tspan row" x="0" y="-0.1em" dy="1.1em"></tspan></text></g><g class="label attribute-comment" transform="translate(70.8984375, 122.625)" style=""><g><rect class="background" style="stroke: none"></rect></g><text y="-10.1" style=""><tspan class="text-outer-tspan row" x="0" y="-0.1em" dy="1.1em"><tspan font-style="normal" class="text-inner-tspan" font-weight="normal">nullable</tspan></tspan></text></g><g class="divider"><path d="M-258.5234375 -113.25005 L-258.5234375 -113.24995 L258.5234375 -113.24995 L258.5234375 -113.25005" stroke="none" stroke-width="0" fill="#ECECFF" fill-rule="evenodd"></path><path d="M-258.5234375 -113.25005 C-258.5234375 -113.2500204876838, -258.5234375 -113.24999097536758, -258.5234375 -113.24995 M-258.5234375 -113.25005 C-258.5234375 -113.25002320883974, -258.5234375 -113.24999641767947, -258.5234375 -113.24995 M-258.5234375 -113.24995 C-128.63198095335582 -113.24995, 1.2594755932883572 -113.24995, 258.5234375 -113.24995 M-258.5234375 -113.24995 C-135.248272087931 -113.24995, -11.973106675862027 -113.24995, 258.5234375 -113.24995 M258.5234375 -113.24995 C258.5234375 -113.24997236042938, 258.5234375 -113.24999472085877, 258.5234375 -113.25005 M258.5234375 -113.24995 C258.5234375 -113.24997367015376, 258.5234375 -113.24999734030753, 258.5234375 -113.25005 M258.5234375 -113.25005 C126.71686744511024 -113.25005, -5.089702609779522 -113.25005, -258.5234375 -113.25005 M258.5234375 -113.25005 C101.04842244907303 -113.25005, -56.42659260185394 -113.25005, -258.5234375 -113.25005" stroke="#9370DB" stroke-width="1.3" fill="none" stroke-dasharray="0 0"></path></g><g class="divider"><path d="M-143.2422375 -113.25 L-143.2421375 -113.25 L-143.2421375 151 L-143.2422375 151" stroke="none" stroke-width="0" fill="#ECECFF" fill-rule="evenodd"></path><path d="M-143.2422375 -113.25 C-143.24220970464552 -113.25, -143.24218190929105 -113.25, -143.2421375 -113.25 M-143.2422375 -113.25 C-143.24220873041875 -113.25, -143.2421799608375 -113.25, -143.2421375 -113.25 M-143.2421375 -113.25 C-143.2421375 -23.125096817782847, -143.2421375 66.9998063644343, -143.2421375 151 M-143.2421375 -113.25 C-143.2421375 -34.52998264349351, -143.2421375 44.19003471301298, -143.2421375 151 M-143.2421375 151 C-143.2421676546044 151, -143.24219780920882 151, -143.2422375 151 M-143.2421375 151 C-143.2421716526133 151, -143.24220580522663 151, -143.2422375 151 M-143.2422375 151 C-143.2422375 70.11672120931142, -143.2422375 -10.766557581377157, -143.2422375 -113.25 M-143.2422375 151 C-143.2422375 84.54123661796845, -143.2422375 18.082473235936902, -143.2422375 -113.25" stroke="#9370DB" stroke-width="1.3" fill="none" stroke-dasharray="0 0"></path></g><g class="divider"><path d="M15.2577625 -113.25 L15.2578625 -113.25 L15.2578625 151 L15.2577625 151" stroke="none" stroke-width="0" fill="#ECECFF" fill-rule="evenodd"></path><path d="M15.2577625 -113.25 C15.257802421913684 -113.25, 15.257842343827368 -113.25, 15.2578625 -113.25 M15.2577625 -113.25 C15.257794732800983 -113.25, 15.257826965601966 -113.25, 15.2578625 -113.25 M15.2578625 -113.25 C15.2578625 -44.65235688580212, 15.2578625 23.94528622839576, 15.2578625 151 M15.2578625 -113.25 C15.2578625 -15.818074869637854, 15.2578625 81.61385026072429, 15.2578625 151 M15.2578625 151 C15.257836214822959 151, 15.257809929645916 151, 15.2577625 151 M15.2578625 151 C15.25782650050459 151, 15.25779050100918 151, 15.2577625 151 M15.2577625 151 C15.2577625 95.6469046038822, 15.2577625 40.2938092077644, 15.2577625 -113.25 M15.2577625 151 C15.2577625 68.58921201428, 15.2577625 -13.821575971440012, 15.2577625 -113.25" stroke="#9370DB" stroke-width="1.3" fill="none" stroke-dasharray="0 0"></path></g><g class="divider"><path d="M58.3983875 -113.25 L58.3984875 -113.25 L58.3984875 151 L58.3983875 151" stroke="none" stroke-width="0" fill="#ECECFF" fill-rule="evenodd"></path><path d="M58.3983875 -113.25 C58.39842131494597 -113.25, 58.39845512989195 -113.25, 58.3984875 -113.25 M58.3983875 -113.25 C58.39841516491157 -113.25, 58.39844282982314 -113.25, 58.3984875 -113.25 M58.3984875 -113.25 C58.3984875 -40.00544525392068, 58.3984875 33.23910949215863, 58.3984875 151 M58.3984875 -113.25 C58.3984875 -32.88155501996505, 58.3984875 47.4868899600699, 58.3984875 151 M58.3984875 151 C58.39845832476223 151, 58.39842914952447 151, 58.3983875 151 M58.3984875 151 C58.39845924040514 151, 58.39843098081027 151, 58.3983875 151 M58.3983875 151 C58.3983875 59.48023979266863, 58.3983875 -32.039520414662746, 58.3983875 -113.25 M58.3983875 151 C58.3983875 85.21744061575087, 58.3983875 19.43488123150175, 58.3983875 -113.25" stroke="#9370DB" stroke-width="1.3" fill="none" stroke-dasharray="0 0"></path></g><g class="divider"><path d="M-258.5234375 -113.25005 L-258.5234375 -113.24995 L258.5234375 -113.24995 L258.5234375 -113.25005" stroke="none" stroke-width="0" fill="#ECECFF" fill-rule="evenodd"></path><path d="M-258.5234375 -113.25005 C-258.5234375 -113.25002735167358, -258.5234375 -113.25000470334717, -258.5234375 -113.24995 M-258.5234375 -113.25005 C-258.5234375 -113.25001937360531, -258.5234375 -113.24998874721061, -258.5234375 -113.24995 M-258.5234375 -113.24995 C-77.14941633806328 -113.24995, 104.22460482387345 -113.24995, 258.5234375 -113.24995 M-258.5234375 -113.24995 C-122.43885076739062 -113.24995, 13.645735965218762 -113.24995, 258.5234375 -113.24995 M258.5234375 -113.24995 C258.5234375 -113.24997715623279, 258.5234375 -113.25000431246559, 258.5234375 -113.25005 M258.5234375 -113.24995 C258.5234375 -113.24998367036449, 258.5234375 -113.25001734072897, 258.5234375 -113.25005 M258.5234375 -113.25005 C70.36428644023698 -113.25005, -117.79486461952604 -113.25005, -258.5234375 -113.25005 M258.5234375 -113.25005 C135.85345101827963 -113.25005, 13.183464536559256 -113.25005, -258.5234375 -113.25005" stroke="#9370DB" stroke-width="1.3" fill="none" stroke-dasharray="0 0"></path></g></g><g class="node default" id="g3ec343a2-6537-4386-b7ae-6a8c28c3456c-light-entity-EVENT_ATTENDEES-3" data-look="classic" transform="translate(762.9296875, 931.25)"><g class="outer-path" style=""><path d="M-97.8828125 -94.375 L97.8828125 -94.375 L97.8828125 94.375 L-97.8828125 94.375" stroke="none" stroke-width="0" fill="#ECECFF"></path><path d="M-97.8828125 -94.375 C-32.30274997615507 -94.375, 33.27731254768986 -94.375, 97.8828125 -94.375 M-97.8828125 -94.375 C-39.883671179336346 -94.375, 18.115470141327307 -94.375, 97.8828125 -94.375 M97.8828125 -94.375 C97.8828125 -39.12456875607987, 97.8828125 16.125862487840266, 97.8828125 94.375 M97.8828125 -94.375 C97.8828125 -34.93345380031252, 97.8828125 24.50809239937496, 97.8828125 94.375 M97.8828125 94.375 C38.86690906986489 94.375, -20.148994360270223 94.375, -97.8828125 94.375 M97.8828125 94.375 C24.19641662199487 94.375, -49.48997925601026 94.375, -97.8828125 94.375 M-97.8828125 94.375 C-97.8828125 24.870002331786736, -97.8828125 -44.63499533642653, -97.8828125 -94.375 M-97.8828125 94.375 C-97.8828125 37.66864071135741, -97.8828125 -19.037718577285176, -97.8828125 -94.375" stroke="#9370DB" stroke-width="1.3" fill="none" stroke-dasharray="0 0"></path></g><g style="" class="row-rect-odd"><path d="M-97.8828125 -56.625 L97.8828125 -56.625 L97.8828125 -18.875 L-97.8828125 -18.875" stroke="none" stroke-width="0" fill="hsl(240, 100%, 100%)"></path><path d="M-97.8828125 -56.625 C-44.59193467188689 -56.625, 8.698943156226221 -56.625, 97.8828125 -56.625 M-97.8828125 -56.625 C-50.83487193993225 -56.625, -3.786931379864498 -56.625, 97.8828125 -56.625 M97.8828125 -56.625 C97.8828125 -47.430982526240825, 97.8828125 -38.23696505248165, 97.8828125 -18.875 M97.8828125 -56.625 C97.8828125 -42.90591037208008, 97.8828125 -29.186820744160155, 97.8828125 -18.875 M97.8828125 -18.875 C37.208501283178116 -18.875, -23.46580993364377 -18.875, -97.8828125 -18.875 M97.8828125 -18.875 C35.536552073179664 -18.875, -26.809708353640673 -18.875, -97.8828125 -18.875 M-97.8828125 -18.875 C-97.8828125 -31.322880363769116, -97.8828125 -43.77076072753823, -97.8828125 -56.625 M-97.8828125 -18.875 C-97.8828125 -32.094789035400424, -97.8828125 -45.31457807080085, -97.8828125 -56.625" stroke="#9370DB" stroke-width="1.3" fill="none" stroke-dasharray="0 0"></path></g><g style="" class="row-rect-even"><path d="M-97.8828125 -18.875 L97.8828125 -18.875 L97.8828125 18.875 L-97.8828125 18.875" stroke="none" stroke-width="0" fill="hsl(240, 100%, 97.2745098039%)"></path><path d="M-97.8828125 -18.875 C-46.308857331560624 -18.875, 5.265097836878752 -18.875, 97.8828125 -18.875 M-97.8828125 -18.875 C-45.28464339368004 -18.875, 7.313525712639915 -18.875, 97.8828125 -18.875 M97.8828125 -18.875 C97.8828125 -9.499475813995755, 97.8828125 -0.12395162799150938, 97.8828125 18.875 M97.8828125 -18.875 C97.8828125 -10.103555854824698, 97.8828125 -1.3321117096493964, 97.8828125 18.875 M97.8828125 18.875 C26.481606750080758 18.875, -44.919598999838485 18.875, -97.8828125 18.875 M97.8828125 18.875 C40.08614150778013 18.875, -17.710529484439746 18.875, -97.8828125 18.875 M-97.8828125 18.875 C-97.8828125 7.878504847569154, -97.8828125 -3.117990304861692, -97.8828125 -18.875 M-97.8828125 18.875 C-97.8828125 8.120827164069897, -97.8828125 -2.633345671860205, -97.8828125 -18.875" stroke="#9370DB" stroke-width="1.3" fill="none" stroke-dasharray="0 0"></path></g><g style="" class="row-rect-odd"><path d="M-97.8828125 18.875 L97.8828125 18.875 L97.8828125 56.625 L-97.8828125 56.625" stroke="none" stroke-width="0" fill="hsl(240, 100%, 100%)"></path><path d="M-97.8828125 18.875 C-37.42575600335261 18.875, 23.03130049329478 18.875, 97.8828125 18.875 M-97.8828125 18.875 C-47.885407218025605 18.875, 2.111998063948789 18.875, 97.8828125 18.875 M97.8828125 18.875 C97.8828125 30.864199231984713, 97.8828125 42.85339846396943, 97.8828125 56.625 M97.8828125 18.875 C97.8828125 33.11498867527835, 97.8828125 47.354977350556695, 97.8828125 56.625 M97.8828125 56.625 C26.54908510486777 56.625, -44.78464229026446 56.625, -97.8828125 56.625 M97.8828125 56.625 C37.62943569928531 56.625, -22.62394110142938 56.625, -97.8828125 56.625 M-97.8828125 56.625 C-97.8828125 44.79787620480914, -97.8828125 32.97075240961828, -97.8828125 18.875 M-97.8828125 56.625 C-97.8828125 44.80148130436001, -97.8828125 32.97796260872002, -97.8828125 18.875" stroke="#9370DB" stroke-width="1.3" fill="none" stroke-dasharray="0 0"></path></g><g style="" class="row-rect-even"><path d="M-97.8828125 56.625 L97.8828125 56.625 L97.8828125 94.375 L-97.8828125 94.375" stroke="none" stroke-width="0" fill="hsl(240, 100%, 97.2745098039%)"></path><path d="M-97.8828125 56.625 C-23.986932940450743 56.625, 49.908946619098515 56.625, 97.8828125 56.625 M-97.8828125 56.625 C-40.94351170088636 56.625, 15.995789098227277 56.625, 97.8828125 56.625 M97.8828125 56.625 C97.8828125 66.78851128317464, 97.8828125 76.95202256634929, 97.8828125 94.375 M97.8828125 56.625 C97.8828125 67.2817193820689, 97.8828125 77.93843876413779, 97.8828125 94.375 M97.8828125 94.375 C20.457963967668775 94.375, -56.96688456466245 94.375, -97.8828125 94.375 M97.8828125 94.375 C29.808292907727463 94.375, -38.266226684545074 94.375, -97.8828125 94.375 M-97.8828125 94.375 C-97.8828125 82.44941409981422, -97.8828125 70.52382819962843, -97.8828125 56.625 M-97.8828125 94.375 C-97.8828125 79.57360576944578, -97.8828125 64.77221153889154, -97.8828125 56.625" stroke="#9370DB" stroke-width="1.3" fill="none" stroke-dasharray="0 0"></path></g><g class="label name" transform="translate(-67.1640625, -85)" style=""><g><rect class="background" style="stroke: none"></rect></g><text y="-10.1" style=""><tspan class="text-outer-tspan row" x="0" y="-0.1em" dy="1.1em"><tspan font-style="normal" class="text-inner-tspan" font-weight="normal">EVENT_ATTENDEES</tspan></tspan></text></g><g class="label attribute-type" transform="translate(-85.3828125, -47.25)" style=""><g><rect class="background" style="stroke: none"></rect></g><text y="-10.1" style=""><tspan class="text-outer-tspan row" x="0" y="-0.1em" dy="1.1em"><tspan font-style="normal" class="text-inner-tspan" font-weight="normal">uuid</tspan></tspan></text></g><g class="label attribute-name" transform="translate(-20.0078125, -47.25)" style=""><g><rect class="background" style="stroke: none"></rect></g><text y="-10.1" style=""><tspan class="text-outer-tspan row" x="0" y="-0.1em" dy="1.1em"><tspan font-style="normal" class="text-inner-tspan" font-weight="normal">id</tspan></tspan></text></g><g class="label attribute-keys" transform="translate(67.2421875, -47.25)" style=""><g><rect class="background" style="stroke: none"></rect></g><text y="-10.1" style=""><tspan class="text-outer-tspan row" x="0" y="-0.1em" dy="1.1em"><tspan font-style="normal" class="text-inner-tspan" font-weight="normal">PK</tspan></tspan></text></g><g class="label attribute-comment" transform="translate(110.3828125, -47.25)" style=""><g><rect class="background" style="stroke: none"></rect></g><text y="-10.1" style=""><tspan class="text-outer-tspan row" x="0" y="-0.1em" dy="1.1em"></tspan></text></g><g class="label attribute-type" transform="translate(-85.3828125, -9.5)" style=""><g><rect class="background" style="stroke: none"></rect></g><text y="-10.1" style=""><tspan class="text-outer-tspan row" x="0" y="-0.1em" dy="1.1em"><tspan font-style="normal" class="text-inner-tspan" font-weight="normal">uuid</tspan></tspan></text></g><g class="label attribute-name" transform="translate(-20.0078125, -9.5)" style=""><g><rect class="background" style="stroke: none"></rect></g><text y="-10.1" style=""><tspan class="text-outer-tspan row" x="0" y="-0.1em" dy="1.1em"><tspan font-style="normal" class="text-inner-tspan" font-weight="normal">event_id</tspan></tspan></text></g><g class="label attribute-keys" transform="translate(67.2421875, -9.5)" style=""><g><rect class="background" style="stroke: none"></rect></g><text y="-10.1" style=""><tspan class="text-outer-tspan row" x="0" y="-0.1em" dy="1.1em"><tspan font-style="normal" class="text-inner-tspan" font-weight="normal">FK</tspan></tspan></text></g><g class="label attribute-comment" transform="translate(110.3828125, -9.5)" style=""><g><rect class="background" style="stroke: none"></rect></g><text y="-10.1" style=""><tspan class="text-outer-tspan row" x="0" y="-0.1em" dy="1.1em"></tspan></text></g><g class="label attribute-type" transform="translate(-85.3828125, 28.25)" style=""><g><rect class="background" style="stroke: none"></rect></g><text y="-10.1" style=""><tspan class="text-outer-tspan row" x="0" y="-0.1em" dy="1.1em"><tspan font-style="normal" class="text-inner-tspan" font-weight="normal">string</tspan></tspan></text></g><g class="label attribute-name" transform="translate(-20.0078125, 28.25)" style=""><g><rect class="background" style="stroke: none"></rect></g><text y="-10.1" style=""><tspan class="text-outer-tspan row" x="0" y="-0.1em" dy="1.1em"><tspan font-style="normal" class="text-inner-tspan" font-weight="normal">email</tspan></tspan></text></g><g class="label attribute-keys" transform="translate(67.2421875, 28.25)" style=""><g><rect class="background" style="stroke: none"></rect></g><text y="-10.1" style=""><tspan class="text-outer-tspan row" x="0" y="-0.1em" dy="1.1em"></tspan></text></g><g class="label attribute-comment" transform="translate(110.3828125, 28.25)" style=""><g><rect class="background" style="stroke: none"></rect></g><text y="-10.1" style=""><tspan class="text-outer-tspan row" x="0" y="-0.1em" dy="1.1em"></tspan></text></g><g class="label attribute-type" transform="translate(-85.3828125, 66)" style=""><g><rect class="background" style="stroke: none"></rect></g><text y="-10.1" style=""><tspan class="text-outer-tspan row" x="0" y="-0.1em" dy="1.1em"><tspan font-style="normal" class="text-inner-tspan" font-weight="normal">string</tspan></tspan></text></g><g class="label attribute-name" transform="translate(-20.0078125, 66)" style=""><g><rect class="background" style="stroke: none"></rect></g><text y="-10.1" style=""><tspan class="text-outer-tspan row" x="0" y="-0.1em" dy="1.1em"><tspan font-style="normal" class="text-inner-tspan" font-weight="normal">partstat</tspan></tspan></text></g><g class="label attribute-keys" transform="translate(67.2421875, 66)" style=""><g><rect class="background" style="stroke: none"></rect></g><text y="-10.1" style=""><tspan class="text-outer-tspan row" x="0" y="-0.1em" dy="1.1em"></tspan></text></g><g class="label attribute-comment" transform="translate(110.3828125, 66)" style=""><g><rect class="background" style="stroke: none"></rect></g><text y="-10.1" style=""><tspan class="text-outer-tspan row" x="0" y="-0.1em" dy="1.1em"></tspan></text></g><g class="divider"><path d="M-97.8828125 -56.62505 L-97.8828125 -56.62495 L97.8828125 -56.62495 L97.8828125 -56.62505" stroke="none" stroke-width="0" fill="#ECECFF" fill-rule="evenodd"></path><path d="M-97.8828125 -56.62505 C-97.8828125 -56.62502352328859, -97.8828125 -56.62499704657718, -97.8828125 -56.62495 M-97.8828125 -56.62505 C-97.8828125 -56.625024854267146, -97.8828125 -56.62499970853429, -97.8828125 -56.62495 M-97.8828125 -56.62495 C-46.793376962660936 -56.62495, 4.296058574678128 -56.62495, 97.8828125 -56.62495 M-97.8828125 -56.62495 C-27.101416736730513 -56.62495, 43.67997902653897 -56.62495, 97.8828125 -56.62495 M97.8828125 -56.62495 C97.8828125 -56.624989535697416, 97.8828125 -56.62502907139483, 97.8828125 -56.62505 M97.8828125 -56.62495 C97.8828125 -56.624971205831464, 97.8828125 -56.62499241166292, 97.8828125 -56.62505 M97.8828125 -56.62505 C28.608076103001565 -56.62505, -40.66666029399687 -56.62505, -97.8828125 -56.62505 M97.8828125 -56.62505 C55.7004010570099 -56.62505, 13.517989614019797 -56.62505, -97.8828125 -56.62505" stroke="#9370DB" stroke-width="1.3" fill="none" stroke-dasharray="0 0"></path></g><g class="divider"><path d="M-32.5078625 -56.625 L-32.5077625 -56.625 L-32.5077625 94.375 L-32.5078625 94.375" stroke="none" stroke-width="0" fill="#ECECFF" fill-rule="evenodd"></path><path d="M-32.5078625 -56.625 C-32.507835760690085 -56.625, -32.50780902138016 -56.625, -32.5077625 -56.625 M-32.5078625 -56.625 C-32.5078238887261 -56.625, -32.5077852774522 -56.625, -32.5077625 -56.625 M-32.5077625 -56.625 C-32.5077625 -15.05384506135951, -32.5077625 26.51730987728098, -32.5077625 94.375 M-32.5077625 -56.625 C-32.5077625 -15.88452341468868, -32.5077625 24.85595317062264, -32.5077625 94.375 M-32.5077625 94.375 C-32.50778576790776 94.375, -32.50780903581552 94.375, -32.5078625 94.375 M-32.5077625 94.375 C-32.50779342324182 94.375, -32.507824346483645 94.375, -32.5078625 94.375 M-32.5078625 94.375 C-32.5078625 61.35605853865076, -32.5078625 28.337117077301514, -32.5078625 -56.625 M-32.5078625 94.375 C-32.5078625 56.94813540497901, -32.5078625 19.521270809958025, -32.5078625 -56.625" stroke="#9370DB" stroke-width="1.3" fill="none" stroke-dasharray="0 0"></path></g><g class="divider"><path d="M54.7421375 -56.625 L54.7422375 -56.625 L54.7422375 94.375 L54.7421375 94.375" stroke="none" stroke-width="0" fill="#ECECFF" fill-rule="evenodd"></path><path d="M54.7421375 -56.625 C54.74217373666658 -56.625, 54.74220997333316 -56.625, 54.7422375 -56.625 M54.7421375 -56.625 C54.74217736133246 -56.625, 54.74221722266493 -56.625, 54.7422375 -56.625 M54.7422375 -56.625 C54.7422375 -10.066593266037358, 54.7422375 36.49181346792528, 54.7422375 94.375 M54.7422375 -56.625 C54.7422375 -21.639634253571025, 54.7422375 13.34573149285795, 54.7422375 94.375 M54.7422375 94.375 C54.74220023190743 94.375, 54.74216296381486 94.375, 54.7421375 94.375 M54.7422375 94.375 C54.742214993039354 94.375, 54.74219248607871 94.375, 54.7421375 94.375 M54.7421375 94.375 C54.7421375 56.36441024450966, 54.7421375 18.353820489019327, 54.7421375 -56.625 M54.7421375 94.375 C54.7421375 43.47754082334065, 54.7421375 -7.419918353318707, 54.7421375 -56.625" stroke="#9370DB" stroke-width="1.3" fill="none" stroke-dasharray="0 0"></path></g><g class="divider"><path d="M-97.8828125 -56.62505 L-97.8828125 -56.62495 L97.8828125 -56.62495 L97.8828125 -56.62505" stroke="none" stroke-width="0" fill="#ECECFF" fill-rule="evenodd"></path><path d="M-97.8828125 -56.62505 C-97.8828125 -56.62501443733515, -97.8828125 -56.624978874670305, -97.8828125 -56.62495 M-97.8828125 -56.62505 C-97.8828125 -56.6250249691773, -97.8828125 -56.6249999383546, -97.8828125 -56.62495 M-97.8828125 -56.62495 C-23.98118335061382 -56.62495, 49.92044579877236 -56.62495, 97.8828125 -56.62495 M-97.8828125 -56.62495 C-50.61436931577287 -56.62495, -3.3459261315457383 -56.62495, 97.8828125 -56.62495 M97.8828125 -56.62495 C97.8828125 -56.62497280445755, 97.8828125 -56.62499560891509, 97.8828125 -56.62505 M97.8828125 -56.62495 C97.8828125 -56.624982093211685, 97.8828125 -56.62501418642337, 97.8828125 -56.62505 M97.8828125 -56.62505 C33.95824275545825 -56.62505, -29.9663269890835 -56.62505, -97.8828125 -56.62505 M97.8828125 -56.62505 C23.33144933271302 -56.62505, -51.21991383457396 -56.62505, -97.8828125 -56.62505" stroke="#9370DB" stroke-width="1.3" fill="none" stroke-dasharray="0 0"></path></g></g></g></g></g><defs><filter id="g3ec343a2-6537-4386-b7ae-6a8c28c3456c-light-drop-shadow" height="130%" width="130%"><feDropShadow dx="4" dy="4" stdDeviation="0" flood-opacity="0.06" flood-color="#000000"></feDropShadow></filter></defs><defs><filter id="g3ec343a2-6537-4386-b7ae-6a8c28c3456c-light-drop-shadow-small" height="150%" width="150%"><feDropShadow dx="2" dy="2" stdDeviation="0" flood-opacity="0.06" flood-color="#000000"></feDropShadow></filter></defs></svg>