<svg id="gaa0f4348-5002-44df-ab71-8fc62dc23078-dark" width="100%" xmlns="http://www.w3.org/2000/svg" xmlns:xlink="http://www.w3.org/1999/xlink" class="flowchart" style="max-width: 890.7265625px;" viewBox="0 0 890.7265625 1059.8499755859375" role="graphics-document document" aria-roledescription="flowchart-v2"><style>#gaa0f4348-5002-44df-ab71-8fc62dc23078-dark{font-family:"trebuchet ms",verdana,arial,sans-serif;font-size:16px;fill:#e5e5e5;}@keyframes edge-animation-frame{from{stroke-dashoffset:0;}}@keyframes dash{to{stroke-dashoffset:0;}}#gaa0f4348-5002-44df-ab71-8fc62dc23078-dark .edge-animation-slow{stroke-dasharray:9,5!important;stroke-dashoffset:900;animation:dash 50s linear infinite;stroke-linecap:round;}#gaa0f4348-5002-44df-ab71-8fc62dc23078-dark .edge-animation-fast{stroke-dasharray:9,5!important;stroke-dashoffset:900;animation:dash 20s linear infinite;stroke-linecap:round;}#gaa0f4348-5002-44df-ab71-8fc62dc23078-dark .error-icon{fill:#252525;}#gaa0f4348-5002-44df-ab71-8fc62dc23078-dark .error-text{fill:#cccccc;stroke:#cccccc;}#gaa0f4348-5002-44df-ab71-8fc62dc23078-dark .edge-thickness-normal{stroke-width:1px;}#gaa0f4348-5002-44df-ab71-8fc62dc23078-dark .edge-thickness-thick{stroke-width:3.5px;}#gaa0f4348-5002-44df-ab71-8fc62dc23078-dark .edge-pattern-solid{stroke-dasharray:0;}#gaa0f4348-5002-44df-ab71-8fc62dc23078-dark .edge-thickness-invisible{stroke-width:0;fill:none;}#gaa0f4348-5002-44df-ab71-8fc62dc23078-dark .edge-pattern-dashed{stroke-dasharray:3;}#gaa0f4348-5002-44df-ab71-8fc62dc23078-dark .edge-pattern-dotted{stroke-dasharray:2;}#gaa0f4348-5002-44df-ab71-8fc62dc23078-dark .marker{fill:#cccccc;stroke:#cccccc;}#gaa0f4348-5002-44df-ab71-8fc62dc23078-dark .marker.cross{stroke:#cccccc;}#gaa0f4348-5002-44df-ab71-8fc62dc23078-dark svg{font-family:"trebuchet ms",verdana,arial,sans-serif;font-size:16px;}#gaa0f4348-5002-44df-ab71-8fc62dc23078-dark p{margin:0;}#gaa0f4348-5002-44df-ab71-8fc62dc23078-dark .label{font-family:"trebuchet ms",verdana,arial,sans-serif;color:#e5e5e5;}#gaa0f4348-5002-44df-ab71-8fc62dc23078-dark .cluster-label text{fill:#e5e5e5;}#gaa0f4348-5002-44df-ab71-8fc62dc23078-dark .cluster-label span{color:#e5e5e5;}#gaa0f4348-5002-44df-ab71-8fc62dc23078-dark .cluster-label span p{background-color:transparent;}#gaa0f4348-5002-44df-ab71-8fc62dc23078-dark .label text,#gaa0f4348-5002-44df-ab71-8fc62dc23078-dark span{fill:#e5e5e5;color:#e5e5e5;}#gaa0f4348-5002-44df-ab71-8fc62dc23078-dark .node rect,#gaa0f4348-5002-44df-ab71-8fc62dc23078-dark .node circle,#gaa0f4348-5002-44df-ab71-8fc62dc23078-dark .node ellipse,#gaa0f4348-5002-44df-ab71-8fc62dc23078-dark .node polygon,#gaa0f4348-5002-44df-ab71-8fc62dc23078-dark .node path{fill:#2d2d2d;stroke:#555555;stroke-width:1px;}#gaa0f4348-5002-44df-ab71-8fc62dc23078-dark .rough-node .label text,#gaa0f4348-5002-44df-ab71-8fc62dc23078-dark .node .label text,#gaa0f4348-5002-44df-ab71-8fc62dc23078-dark .image-shape .label,#gaa0f4348-5002-44df-ab71-8fc62dc23078-dark .icon-shape .label{text-anchor:middle;}#gaa0f4348-5002-44df-ab71-8fc62dc23078-dark .node .katex path{fill:#000;stroke:#000;stroke-width:1px;}#gaa0f4348-5002-44df-ab71-8fc62dc23078-dark .rough-node .label,#gaa0f4348-5002-44df-ab71-8fc62dc23078-dark .node .label,#gaa0f4348-5002-44df-ab71-8fc62dc23078-dark .image-shape .label,#gaa0f4348-5002-44df-ab71-8fc62dc23078-dark .icon-shape .label{text-align:center;}#gaa0f4348-5002-44df-ab71-8fc62dc23078-dark .node.clickable{cursor:pointer;}#gaa0f4348-5002-44df-ab71-8fc62dc23078-dark .root .anchor path{fill:#cccccc!important;stroke-width:0;stroke:#cccccc;}#gaa0f4348-5002-44df-ab71-8fc62dc23078-dark .arrowheadPath{fill:#cccccc;}#gaa0f4348-5002-44df-ab71-8fc62dc23078-dark .edgePath .path{stroke:#cccccc;stroke-width:1px;}#gaa0f4348-5002-44df-ab71-8fc62dc23078-dark .flowchart-link{stroke:#cccccc;fill:none;}#gaa0f4348-5002-44df-ab71-8fc62dc23078-dark .edgeLabel{background-color:#1e1e1e;text-align:center;}#gaa0f4348-5002-44df-ab71-8fc62dc23078-dark .edgeLabel p{background-color:#1e1e1e;}#gaa0f4348-5002-44df-ab71-8fc62dc23078-dark .edgeLabel rect{opacity:0.5;background-color:#1e1e1e;fill:#1e1e1e;}#gaa0f4348-5002-44df-ab71-8fc62dc23078-dark .labelBkg{background-color:rgba(30, 30, 30, 0.5);}#gaa0f4348-5002-44df-ab71-8fc62dc23078-dark .cluster rect{fill:#1e1e1e;stroke:#555555;stroke-width:1px;}#gaa0f4348-5002-44df-ab71-8fc62dc23078-dark .cluster text{fill:#e5e5e5;}#gaa0f4348-5002-44df-ab71-8fc62dc23078-dark .cluster span{color:#e5e5e5;}#gaa0f4348-5002-44df-ab71-8fc62dc23078-dark div.mermaidTooltip{position:absolute;text-align:center;max-width:200px;padding:2px;font-family:"trebuchet ms",verdana,arial,sans-serif;font-size:12px;background:#252525;border:1px solid #555555;border-radius:2px;pointer-events:none;z-index:100;}#gaa0f4348-5002-44df-ab71-8fc62dc23078-dark .flowchartTitleText{text-anchor:middle;font-size:18px;fill:#e5e5e5;}#gaa0f4348-5002-44df-ab71-8fc62dc23078-dark rect.text{fill:none;stroke-width:0;}#gaa0f4348-5002-44df-ab71-8fc62dc23078-dark .icon-shape,#gaa0f4348-5002-44df-ab71-8fc62dc23078-dark .image-shape{background-color:#1e1e1e;text-align:center;}#gaa0f4348-5002-44df-ab71-8fc62dc23078-dark .icon-shape p,#gaa0f4348-5002-44df-ab71-8fc62dc23078-dark .image-shape p{background-color:#1e1e1e;padding:2px;}#gaa0f4348-5002-44df-ab71-8fc62dc23078-dark .icon-shape .label rect,#gaa0f4348-5002-44df-ab71-8fc62dc23078-dark .image-shape .label rect{opacity:0.5;background-color:#1e1e1e;fill:#1e1e1e;}#gaa0f4348-5002-44df-ab71-8fc62dc23078-dark .label-icon{display:inline-block;height:1em;overflow:visible;vertical-align:-0.125em;}#gaa0f4348-5002-44df-ab71-8fc62dc23078-dark .node .label-icon path{fill:currentColor;stroke:revert;stroke-width:revert;}#gaa0f4348-5002-44df-ab71-8fc62dc23078-dark .node .neo-node{stroke:#555555;}#gaa0f4348-5002-44df-ab71-8fc62dc23078-dark [data-look="neo"].node rect,#gaa0f4348-5002-44df-ab71-8fc62dc23078-dark [data-look="neo"].cluster rect,#gaa0f4348-5002-44df-ab71-8fc62dc23078-dark [data-look="neo"].node polygon{stroke:url(#gaa0f4348-5002-44df-ab71-8fc62dc23078-dark-gradient);filter:drop-shadow( 1px 2px 2px rgba(185,185,185,1));}#gaa0f4348-5002-44df-ab71-8fc62dc23078-dark [data-look="neo"].node path{stroke:url(#gaa0f4348-5002-44df-ab71-8fc62dc23078-dark-gradient);stroke-width:1px;}#gaa0f4348-5002-44df-ab71-8fc62dc23078-dark [data-look="neo"].node .outer-path{filter:drop-shadow( 1px 2px 2px rgba(185,185,185,1));}#gaa0f4348-5002-44df-ab71-8fc62dc23078-dark [data-look="neo"].node .neo-line path{stroke:#555555;filter:none;}#gaa0f4348-5002-44df-ab71-8fc62dc23078-dark [data-look="neo"].node circle{stroke:url(#gaa0f4348-5002-44df-ab71-8fc62dc23078-dark-gradient);filter:drop-shadow( 1px 2px 2px rgba(185,185,185,1));}#gaa0f4348-5002-44df-ab71-8fc62dc23078-dark [data-look="neo"].node circle .state-start{fill:#000000;}#gaa0f4348-5002-44df-ab71-8fc62dc23078-dark [data-look="neo"].icon-shape .icon{fill:url(#gaa0f4348-5002-44df-ab71-8fc62dc23078-dark-gradient);filter:drop-shadow( 1px 2px 2px rgba(185,185,185,1));}#gaa0f4348-5002-44df-ab71-8fc62dc23078-dark [data-look="neo"].icon-shape .icon-neo path{stroke:url(#gaa0f4348-5002-44df-ab71-8fc62dc23078-dark-gradient);filter:drop-shadow( 1px 2px 2px rgba(185,185,185,1));}#gaa0f4348-5002-44df-ab71-8fc62dc23078-dark :root{--mermaid-font-family:"trebuchet ms",verdana,arial,sans-serif;}</style><g><marker id="gaa0f4348-5002-44df-ab71-8fc62dc23078-dark_flowchart-v2-pointEnd" class="marker flowchart-v2" viewBox="0 0 10 10" refX="5" refY="5" markerUnits="userSpaceOnUse" markerWidth="8" markerHeight="8" orient="auto"><path d="M 0 0 L 10 5 L 0 10 z" class="arrowMarkerPath" style="stroke-width: 1; stroke-dasharray: 1, 0;"></path></marker><marker id="gaa0f4348-5002-44df-ab71-8fc62dc23078-dark_flowchart-v2-pointStart" class="marker flowchart-v2" viewBox="0 0 10 10" refX="4.5" refY="5" markerUnits="userSpaceOnUse" markerWidth="8" markerHeight="8" orient="auto"><path d="M 0 5 L 10 10 L 10 0 z" class="arrowMarkerPath" style="stroke-width: 1; stroke-dasharray: 1, 0;"></path></marker><marker id="gaa0f4348-5002-44df-ab71-8fc62dc23078-dark_flowchart-v2-pointEnd-margin" class="marker flowchart-v2" viewBox="0 0 11.5 14" refX="11.5" refY="7" markerUnits="userSpaceOnUse" markerWidth="10.5" markerHeight="14" orient="auto"><path d="M 0 0 L 11.5 7 L 0 14 z" class="arrowMarkerPath" style="stroke-width: 0; stroke-dasharray: 1, 0;"></path></marker><marker id="gaa0f4348-5002-44df-ab71-8fc62dc23078-dark_flowchart-v2-pointStart-margin" class="marker flowchart-v2" viewBox="0 0 11.5 14" refX="1" refY="7" markerUnits="userSpaceOnUse" markerWidth="11.5" markerHeight="14" orient="auto"><polygon points="0,7 11.5,14 11.5,0" class="arrowMarkerPath" style="stroke-width: 0; stroke-dasharray: 1, 0;"></polygon></marker><marker id="gaa0f4348-5002-44df-ab71-8fc62dc23078-dark_flowchart-v2-circleEnd" class="marker flowchart-v2" viewBox="0 0 10 10" refX="11" refY="5" markerUnits="userSpaceOnUse" markerWidth="11" markerHeight="11" orient="auto"><circle cx="5" cy="5" r="5" class="arrowMarkerPath" style="stroke-width: 1; stroke-dasharray: 1, 0;"></circle></marker><marker id="gaa0f4348-5002-44df-ab71-8fc62dc23078-dark_flowchart-v2-circleStart" class="marker flowchart-v2" viewBox="0 0 10 10" refX="-1" refY="5" markerUnits="userSpaceOnUse" markerWidth="11" markerHeight="11" orient="auto"><circle cx="5" cy="5" r="5" class="arrowMarkerPath" style="stroke-width: 1; stroke-dasharray: 1, 0;"></circle></marker><marker id="gaa0f4348-5002-44df-ab71-8fc62dc23078-dark_flowchart-v2-circleEnd-margin" class="marker flowchart-v2" viewBox="0 0 10 10" refY="5" refX="12.25" markerUnits="userSpaceOnUse" markerWidth="14" markerHeight="14" orient="auto"><circle cx="5" cy="5" r="5" class="arrowMarkerPath" style="stroke-width: 0; stroke-dasharray: 1, 0;"></circle></marker><marker id="gaa0f4348-5002-44df-ab71-8fc62dc23078-dark_flowchart-v2-circleStart-margin" class="marker flowchart-v2" viewBox="0 0 10 10" refX="-2" refY="5" markerUnits="userSpaceOnUse" markerWidth="14" markerHeight="14" orient="auto"><circle cx="5" cy="5" r="5" class="arrowMarkerPath" style="stroke-width: 0; stroke-dasharray: 1, 0;"></circle></marker><marker id="gaa0f4348-5002-44df-ab71-8fc62dc23078-dark_flowchart-v2-crossEnd" class="marker cross flowchart-v2" viewBox="0 0 11 11" refX="12" refY="5.2" markerUnits="userSpaceOnUse" markerWidth="11" markerHeight="11" orient="auto"><path d="M 1,1 l 9,9 M 10,1 l -9,9" class="arrowMarkerPath" style="stroke-width: 2; stroke-dasharray: 1, 0;"></path></marker><marker id="gaa0f4348-5002-44df-ab71-8fc62dc23078-dark_flowchart-v2-crossStart" class="marker cross flowchart-v2" viewBox="0 0 11 11" refX="-1" refY="5.2" markerUnits="userSpaceOnUse" markerWidth="11" markerHeight="11" orient="auto"><path d="M 1,1 l 9,9 M 10,1 l -9,9" class="arrowMarkerPath" style="stroke-width: 2; stroke-dasharray: 1, 0;"></path></marker><marker id="gaa0f4348-5002-44df-ab71-8fc62dc23078-dark_flowchart-v2-crossEnd-margin" class="marker cross flowchart-v2" viewBox="0 0 15 15" refX="17.7" refY="7.5" markerUnits="userSpaceOnUse" markerWidth="12" markerHeight="12" orient="auto"><path d="M 1,1 L 14,14 M 1,14 L 14,1" class="arrowMarkerPath" style="stroke-width: 2.5;"></path></marker><marker id="gaa0f4348-5002-44df-ab71-8fc62dc23078-dark_flowchart-v2-crossStart-margin" class="marker cross flowchart-v2" viewBox="0 0 15 15" refX="-3.5" refY="7.5" markerUnits="userSpaceOnUse" markerWidth="12" markerHeight="12" orient="auto"><path d="M 1,1 L 14,14 M 1,14 L 14,1" class="arrowMarkerPath" style="stroke-width: 2.5; stroke-dasharray: 1, 0;"></path></marker><g class="root"><g class="clusters"><g class="cluster" id="gaa0f4348-5002-44df-ab71-8fc62dc23078-dark-Distributed" data-look="classic"><rect style="" x="8" y="768" width="452.2109375" height="283.8499984741211"></rect><g class="cluster-label" transform="translate(145.97265625, 768)"><g><rect class="background" style="stroke: none"></rect><text y="-10.1" style=""><tspan class="text-outer-tspan row" x="0" y="-0.1em" dy="1.1em"><tspan font-style="normal" class="text-inner-tspan" font-weight="normal">Distributed</tspan><tspan font-style="normal" class="text-inner-tspan" font-weight="normal"> Coordination</tspan></tspan></text></g></g></g></g><g class="edgePaths"><path d="M138.266,886.047L138.266,892.331C138.266,898.615,138.266,911.182,138.266,922.883C138.266,934.583,138.266,945.417,138.266,950.833L138.266,956.25" id="gaa0f4348-5002-44df-ab71-8fc62dc23078-dark-L_Redis_Lua_0" class="edge-thickness-normal edge-pattern-solid edge-thickness-normal edge-pattern-solid flowchart-link" style=";" data-edge="true" data-et="edge" data-id="L_Redis_Lua_0" data-points="W3sieCI6MTM4LjI2NTYyNSwieSI6ODg2LjA0Njc5MTA3NjY2MDJ9LHsieCI6MTM4LjI2NTYyNSwieSI6OTIzLjc1fSx7IngiOjEzOC4yNjU2MjUsInkiOjk2MC4yNX1d" data-look="classic" marker-end="url(#gaa0f4348-5002-44df-ab71-8fc62dc23078-dark_flowchart-v2-pointEnd)"></path><path d="M666.063,860.543L652.284,871.078C638.505,881.612,610.948,902.681,597.169,920.099C583.391,937.517,583.391,951.283,583.391,958.167L583.391,965.05" id="gaa0f4348-5002-44df-ab71-8fc62dc23078-dark-L_Decision_Backend_0" class="edge-thickness-normal edge-pattern-solid edge-thickness-normal edge-pattern-solid flowchart-link" style=";" data-edge="true" data-et="edge" data-id="L_Decision_Backend_0" data-points="W3sieCI6NjY2LjA2MjkxNjU2NDQxNjQsInkiOjg2MC41NDMzODUzMTQ0MTY0fSx7IngiOjU4My4zOTA2MjUsInkiOjkyMy43NX0seyJ4Ijo1ODMuMzkwNjI1LCJ5Ijo5NjkuMDQ5OTk5MjM3MDYwNX1d" data-look="classic" marker-end="url(#gaa0f4348-5002-44df-ab71-8fc62dc23078-dark_flowchart-v2-pointEnd)"></path><path d="M719.476,860.543L733.255,871.078C747.034,881.612,774.591,902.681,788.37,920.099C802.148,937.517,802.148,951.283,802.148,958.167L802.148,965.05" id="gaa0f4348-5002-44df-ab71-8fc62dc23078-dark-L_Decision_Response_0" class="edge-thickness-normal edge-pattern-solid edge-thickness-normal edge-pattern-solid flowchart-link" style=";" data-edge="true" data-et="edge" data-id="L_Decision_Response_0" data-points="W3sieCI6NzE5LjQ3NjE0NTkzNTU4MzYsInkiOjg2MC41NDMzODUzMTQ0MTY0fSx7IngiOjgwMi4xNDg0Mzc1LCJ5Ijo5MjMuNzV9LHsieCI6ODAyLjE0ODQzNzUsInkiOjk2OS4wNDk5OTkyMzcwNjA1fV0=" data-look="classic" marker-end="url(#gaa0f4348-5002-44df-ab71-8fc62dc23078-dark_flowchart-v2-pointEnd)"></path><path d="M342.922,42L342.922,46.167C342.922,50.333,342.922,58.667,342.922,66.333C342.922,74,342.922,81,342.922,84.5L342.922,88" id="gaa0f4348-5002-44df-ab71-8fc62dc23078-dark-L_Client_Algorithms_0" class="edge-thickness-normal edge-pattern-solid edge-thickness-normal edge-pattern-solid flowchart-link" style=";" data-edge="true" data-et="edge" data-id="L_Client_Algorithms_0" data-points="W3sieCI6MzQyLjkyMTg3NSwieSI6NDJ9LHsieCI6MzQyLjkyMTg3NSwieSI6Njd9LHsieCI6MzQyLjkyMTg3NSwieSI6OTJ9XQ==" data-look="classic" marker-end="url(#gaa0f4348-5002-44df-ab71-8fc62dc23078-dark_flowchart-v2-pointEnd)"></path><path d="M190.453,645.31L181.755,659.675C173.057,674.04,155.661,702.77,146.964,723.218C138.266,743.667,138.266,755.833,138.266,765.617C138.266,775.401,138.266,782.802,138.266,786.503L138.266,790.203" id="gaa0f4348-5002-44df-ab71-8fc62dc23078-dark-L_Algorithms_Redis_0" class="edge-thickness-normal edge-pattern-solid edge-thickness-normal edge-pattern-solid flowchart-link" style=";" data-edge="true" data-et="edge" data-id="L_Algorithms_Redis_0" data-points="W3sieCI6MTkwLjQ1MzEyNSwieSI6NjQ1LjMwOTc0MTk0NTMzNTJ9LHsieCI6MTM4LjI2NTYyNSwieSI6NzMxLjV9LHsieCI6MTM4LjI2NTYyNSwieSI6NzY4fSx7IngiOjEzOC4yNjU2MjUsInkiOjc5NC4yMDMyMDg5MjMzMzk4fV0=" data-look="classic" marker-end="url(#gaa0f4348-5002-44df-ab71-8fc62dc23078-dark_flowchart-v2-pointEnd)"></path><path d="M342.922,695L342.922,701.083C342.922,707.167,342.922,719.333,342.922,731.5C342.922,743.667,342.922,755.833,342.922,767.721C342.922,779.608,342.922,791.217,342.922,797.021L342.922,802.825" id="gaa0f4348-5002-44df-ab71-8fc62dc23078-dark-L_Algorithms_Local_0" class="edge-thickness-normal edge-pattern-solid edge-thickness-normal edge-pattern-solid flowchart-link" style=";" data-edge="true" data-et="edge" data-id="L_Algorithms_Local_0" data-points="W3sieCI6MzQyLjkyMTg3NSwieSI6Njk1fSx7IngiOjM0Mi45MjE4NzUsInkiOjczMS41fSx7IngiOjM0Mi45MjE4NzUsInkiOjc2OH0seyJ4IjozNDIuOTIxODc1LCJ5Ijo4MDYuODI1MDAwNzYyOTM5NX1d" data-look="classic" marker-end="url(#gaa0f4348-5002-44df-ab71-8fc62dc23078-dark_flowchart-v2-pointEnd)"></path><path d="M495.391,540.805L528.287,572.588C561.184,604.37,626.977,667.935,659.873,705.801C692.77,743.667,692.77,755.833,692.77,765.417C692.77,775,692.77,782,692.77,785.5L692.77,789" id="gaa0f4348-5002-44df-ab71-8fc62dc23078-dark-L_Algorithms_Decision_0" class="edge-thickness-normal edge-pattern-solid edge-thickness-normal edge-pattern-solid flowchart-link" style=";" data-edge="true" data-et="edge" data-id="L_Algorithms_Decision_0" data-points="W3sieCI6NDk1LjM5MDYyNSwieSI6NTQwLjgwNTM2NzI5MTU2Njd9LHsieCI6NjkyLjc2OTUzMTI1LCJ5Ijo3MzEuNX0seyJ4Ijo2OTIuNzY5NTMxMjUsInkiOjc2OH0seyJ4Ijo2OTIuNzY5NTMxMjUsInkiOjc5M31d" data-look="classic" marker-end="url(#gaa0f4348-5002-44df-ab71-8fc62dc23078-dark_flowchart-v2-pointEnd)"></path></g><g class="edgeLabels"><g class="edgeLabel"><g class="label" data-id="L_Redis_Lua_0" transform="translate(0, 0)"><text y="-10.1" text-anchor="middle"><tspan class="text-outer-tspan row" x="0" y="-0.1em" dy="1.1em" text-anchor="middle"></tspan></text></g></g><g><rect class="background" style="stroke: none"></rect></g><g class="edgeLabel" transform="translate(583.390625, 923.75)"><g class="label" data-id="L_Decision_Backend_0" transform="translate(0, -10.5)"><g><rect class="background" style="" x="-13.328125" y="-1" width="26.65625" height="23"></rect><text y="-10.1" text-anchor="middle" style=""><tspan class="text-outer-tspan row" x="0" y="-0.1em" dy="1.1em" text-anchor="middle"><tspan font-style="normal" class="text-inner-tspan" font-weight="normal">Yes</tspan></tspan></text></g></g></g><g class="edgeLabel" transform="translate(802.1484375, 923.75)"><g class="label" data-id="L_Decision_Response_0" transform="translate(0, -10.5)"><g><rect class="background" style="" x="-11.3984375" y="-1" width="22.796875" height="23"></rect><text y="-10.1" text-anchor="middle" style=""><tspan class="text-outer-tspan row" x="0" y="-0.1em" dy="1.1em" text-anchor="middle"><tspan font-style="normal" class="text-inner-tspan" font-weight="normal">No</tspan></tspan></text></g></g></g><g class="edgeLabel"><g class="label" data-id="L_Client_Algorithms_0" transform="translate(0, 0)"><text y="-10.1" text-anchor="middle"><tspan class="text-outer-tspan row" x="0" y="-0.1em" dy="1.1em" text-anchor="middle"></tspan></text></g></g><g><rect class="background" style="stroke: none"></rect></g><g class="edgeLabel" transform="translate(138.265625, 731.5)"><g class="label" data-id="L_Algorithms_Redis_0" transform="translate(0, -10.5)"><g><rect class="background" style="" x="-43.265625" y="-1" width="86.53125" height="23"></rect><text y="-10.1" text-anchor="middle" style=""><tspan class="text-outer-tspan row" x="0" y="-0.1em" dy="1.1em" text-anchor="middle"><tspan font-style="normal" class="text-inner-tspan" font-weight="normal">Centralized</tspan></tspan></text></g></g></g><g class="edgeLabel" transform="translate(342.921875, 731.5)"><g class="label" data-id="L_Algorithms_Local_0" transform="translate(0, -10.5)"><g><rect class="background" style="" x="-25.484375" y="-1" width="50.96875" height="23"></rect><text y="-10.1" text-anchor="middle" style=""><tspan class="text-outer-tspan row" x="0" y="-0.1em" dy="1.1em" text-anchor="middle"><tspan font-style="normal" class="text-inner-tspan" font-weight="normal">Hybrid</tspan></tspan></text></g></g></g><g class="edgeLabel"><g class="label" data-id="L_Algorithms_Decision_0" transform="translate(0, 0)"><text y="-10.1" text-anchor="middle"><tspan class="text-outer-tspan row" x="0" y="-0.1em" dy="1.1em" text-anchor="middle"></tspan></text></g></g><g><rect class="background" style="stroke: none"></rect></g></g><g class="nodes"><g class="root" transform="translate(182.453125, 84)"><g class="clusters"><g class="cluster" id="gaa0f4348-5002-44df-ab71-8fc62dc23078-dark-Algorithms" data-look="classic"><rect style="" x="8" y="8" width="304.9375" height="602.9999923706055"></rect><g class="cluster-label" transform="translate(72.390625, 8)"><g><rect class="background" style="stroke: none"></rect><text y="-10.1" style=""><tspan class="text-outer-tspan row" x="0" y="-0.1em" dy="1.1em"><tspan font-style="normal" class="text-inner-tspan" font-weight="normal">Rate</tspan><tspan font-style="normal" class="text-inner-tspan" font-weight="normal"> Limiting</tspan><tspan font-style="normal" class="text-inner-tspan" font-weight="normal"> Algorithms</tspan></tspan></text></g></g></g></g><g class="edgePaths"></g><g class="edgeLabels"></g><g class="nodes"><g class="node default" id="gaa0f4348-5002-44df-ab71-8fc62dc23078-dark-flowchart-TB-0" data-look="classic" transform="translate(160.46875, 76.29999923706055)"><rect class="basic label-container" style="" x="-79.203125" y="-33.29999923706055" width="158.40625" height="66.5999984741211"></rect><g class="label" style="" transform="translate(0, -18.299999237060547)"><rect></rect><g><rect class="background" style="stroke: none"></rect><text y="-10.1" style=""><tspan class="text-outer-tspan row" x="0" y="-0.1em" dy="1.1em"><tspan font-style="normal" class="text-inner-tspan" font-weight="normal">Token</tspan><tspan font-style="normal" class="text-inner-tspan" font-weight="normal"> Bucket</tspan></tspan><tspan class="text-outer-tspan row" x="0" y="1em" dy="1.1em"><tspan font-style="normal" class="text-inner-tspan" font-weight="normal">Burst-friendly</tspan></tspan></text></g></g></g><g class="node default" id="gaa0f4348-5002-44df-ab71-8fc62dc23078-dark-flowchart-LB-1" data-look="classic" transform="translate(160.46875, 192.89999771118164)"><rect class="basic label-container" style="" x="-82.8671875" y="-33.29999923706055" width="165.734375" height="66.5999984741211"></rect><g class="label" style="" transform="translate(0, -18.299999237060547)"><rect></rect><g><rect class="background" style="stroke: none"></rect><text y="-10.1" style=""><tspan class="text-outer-tspan row" x="0" y="-0.1em" dy="1.1em"><tspan font-style="normal" class="text-inner-tspan" font-weight="normal">Leaky</tspan><tspan font-style="normal" class="text-inner-tspan" font-weight="normal"> Bucket</tspan></tspan><tspan class="text-outer-tspan row" x="0" y="1em" dy="1.1em"><tspan font-style="normal" class="text-inner-tspan" font-weight="normal">Smooth</tspan><tspan font-style="normal" class="text-inner-tspan" font-weight="normal"> output</tspan></tspan></text></g></g></g><g class="node default" id="gaa0f4348-5002-44df-ab71-8fc62dc23078-dark-flowchart-FW-2" data-look="classic" transform="translate(160.46875, 309.49999618530273)"><rect class="basic label-container" style="" x="-97.9140625" y="-33.29999923706055" width="195.828125" height="66.5999984741211"></rect><g class="label" style="" transform="translate(0, -18.299999237060547)"><rect></rect><g><rect class="background" style="stroke: none"></rect><text y="-10.1" style=""><tspan class="text-outer-tspan row" x="0" y="-0.1em" dy="1.1em"><tspan font-style="normal" class="text-inner-tspan" font-weight="normal">Fixed</tspan><tspan font-style="normal" class="text-inner-tspan" font-weight="normal"> Window</tspan></tspan><tspan class="text-outer-tspan row" x="0" y="1em" dy="1.1em"><tspan font-style="normal" class="text-inner-tspan" font-weight="normal">Simple,</tspan><tspan font-style="normal" class="text-inner-tspan" font-weight="normal"> edge</tspan><tspan font-style="normal" class="text-inner-tspan" font-weight="normal"> cases</tspan></tspan></text></g></g></g><g class="node default" id="gaa0f4348-5002-44df-ab71-8fc62dc23078-dark-flowchart-SWL-3" data-look="classic" transform="translate(160.46875, 426.0999946594238)"><rect class="basic label-container" style="" x="-113.484375" y="-33.29999923706055" width="226.96875" height="66.5999984741211"></rect><g class="label" style="" transform="translate(0, -18.299999237060547)"><rect></rect><g><rect class="background" style="stroke: none"></rect><text y="-10.1" style=""><tspan class="text-outer-tspan row" x="0" y="-0.1em" dy="1.1em"><tspan font-style="normal" class="text-inner-tspan" font-weight="normal">Sliding</tspan><tspan font-style="normal" class="text-inner-tspan" font-weight="normal"> Window</tspan><tspan font-style="normal" class="text-inner-tspan" font-weight="normal"> Log</tspan></tspan><tspan class="text-outer-tspan row" x="0" y="1em" dy="1.1em"><tspan font-style="normal" class="text-inner-tspan" font-weight="normal">Precise,</tspan><tspan font-style="normal" class="text-inner-tspan" font-weight="normal"> memory-heavy</tspan></tspan></text></g></g></g><g class="node default" id="gaa0f4348-5002-44df-ab71-8fc62dc23078-dark-flowchart-SWC-4" data-look="classic" transform="translate(160.46875, 542.6999931335449)"><rect class="basic label-container" style="" x="-114.96875" y="-33.29999923706055" width="229.9375" height="66.5999984741211"></rect><g class="label" style="" transform="translate(0, -18.299999237060547)"><rect></rect><g><rect class="background" style="stroke: none"></rect><text y="-10.1" style=""><tspan class="text-outer-tspan row" x="0" y="-0.1em" dy="1.1em"><tspan font-style="normal" class="text-inner-tspan" font-weight="normal">Sliding</tspan><tspan font-style="normal" class="text-inner-tspan" font-weight="normal"> Window</tspan><tspan font-style="normal" class="text-inner-tspan" font-weight="normal"> Counter</tspan></tspan><tspan class="text-outer-tspan row" x="0" y="1em" dy="1.1em"><tspan font-style="normal" class="text-inner-tspan" font-weight="normal">Best</tspan><tspan font-style="normal" class="text-inner-tspan" font-weight="normal"> balance</tspan></tspan></text></g></g></g></g></g><g class="node default" id="gaa0f4348-5002-44df-ab71-8fc62dc23078-dark-flowchart-Redis-5" data-look="classic" transform="translate(138.265625, 840.125)"><path d="M0,13.414528181660199 a72.3671875,13.414528181660199 0,0,0 144.734375,0 a72.3671875,13.414528181660199 0,0,0 -144.734375,0 l0,65.0145266557813 a72.3671875,13.414528181660199 0,0,0 144.734375,0 l0,-65.0145266557813" class="basic label-container outer-path" style="" transform="translate(-72.3671875, -45.92179150955084)"></path><g class="label" style="" transform="translate(0, -9.299999237060547)"><rect></rect><g><rect class="background" style="stroke: none"></rect><text y="-10.1" style=""><tspan class="text-outer-tspan row" x="0" y="-0.1em" dy="1.1em"><tspan font-style="normal" class="text-inner-tspan" font-weight="normal">Redis/Memcached</tspan></tspan><tspan class="text-outer-tspan row" x="0" y="1em" dy="1.1em"><tspan font-style="normal" class="text-inner-tspan" font-weight="normal">Shared</tspan><tspan font-style="normal" class="text-inner-tspan" font-weight="normal"> state</tspan></tspan></text></g></g></g><g class="node default" id="gaa0f4348-5002-44df-ab71-8fc62dc23078-dark-flowchart-Local-6" data-look="classic" transform="translate(342.921875, 840.125)"><rect class="basic label-container" style="" x="-82.2890625" y="-33.29999923706055" width="164.578125" height="66.5999984741211"></rect><g class="label" style="" transform="translate(0, -18.299999237060547)"><rect></rect><g><rect class="background" style="stroke: none"></rect><text y="-10.1" style=""><tspan class="text-outer-tspan row" x="0" y="-0.1em" dy="1.1em"><tspan font-style="normal" class="text-inner-tspan" font-weight="normal">Local</tspan><tspan font-style="normal" class="text-inner-tspan" font-weight="normal"> +</tspan><tspan font-style="normal" class="text-inner-tspan" font-weight="normal"> Sync</tspan></tspan><tspan class="text-outer-tspan row" x="0" y="1em" dy="1.1em"><tspan font-style="normal" class="text-inner-tspan" font-weight="normal">Approximation</tspan></tspan></text></g></g></g><g class="node default" id="gaa0f4348-5002-44df-ab71-8fc62dc23078-dark-flowchart-Lua-7" data-look="classic" transform="translate(138.265625, 993.5499992370605)"><rect class="basic label-container" style="" x="-95.265625" y="-33.29999923706055" width="190.53125" height="66.5999984741211"></rect><g class="label" style="" transform="translate(0, -18.299999237060547)"><rect></rect><g><rect class="background" style="stroke: none"></rect><text y="-10.1" style=""><tspan class="text-outer-tspan row" x="0" y="-0.1em" dy="1.1em"><tspan font-style="normal" class="text-inner-tspan" font-weight="normal">Lua</tspan><tspan font-style="normal" class="text-inner-tspan" font-weight="normal"> Scripts</tspan></tspan><tspan class="text-outer-tspan row" x="0" y="1em" dy="1.1em"><tspan font-style="normal" class="text-inner-tspan" font-weight="normal">Atomic</tspan><tspan font-style="normal" class="text-inner-tspan" font-weight="normal"> operations</tspan></tspan></text></g></g></g><g class="node default" id="gaa0f4348-5002-44df-ab71-8fc62dc23078-dark-flowchart-Client-8" data-look="classic" transform="translate(342.921875, 25)"><g class="basic label-container outer-path"><path d="M-23.046875 -17 C-11.766636347893515 -17, -0.48639769578702996 -17, 23.046875 -17 C23.046875 -17, 23.046875 -17, 23.046875 -17 C23.420079486162326 -16.98803205852724, 23.793283972324648 -16.976064117054477, 24.13606873967212 -16.965071676755716 C24.422445422612807 -16.93744526257078, 24.708822105553494 -16.909818848385843, 25.2207867486366 -16.860430234995185 C25.63411358324816 -16.793606757772665, 26.04744041785972 -16.726783280550144, 26.296571687923326 -16.686505668848113 C26.694154641965984 -16.595759954059115, 27.09173759600864 -16.50501423927012, 27.35900292646162 -16.4440126716635 C27.589167204258423 -16.37570112217036, 27.819331482055222 -16.307389572677216, 28.40371470640155 -16.133947699181366 C28.678701764507355 -16.03274991984593, 28.95368882261316 -15.931552140510496, 29.42641408294936 -15.757584874882369 C29.784999833667854 -15.598849600107652, 30.143585584386347 -15.440114325332933, 30.422898564998487 -15.316470754341125 C30.71396319442939 -15.164622523602818, 31.005027823860292 -15.012774292864508, 31.38907338406694 -14.812417970097622 C31.58399112079322 -14.694257692630387, 31.778908857519497 -14.57609741516315, 32.320968320579325 -14.247497783161291 C32.513787305935175 -14.112995605976398, 32.706606291291024 -13.978493428791502, 33.214754018350675 -13.624031571755262 C33.478243350983504 -13.413905840726198, 33.741732683616334 -13.203780109697131, 34.0667577202324 -12.944581292275288 C34.36852956981552 -12.670520082929507, 34.67030141939864 -12.396458873583725, 34.87347836025927 -12.21193895166137 C35.11122053376267 -11.966450638523664, 35.34896270726606 -11.720962325385958, 35.63160095028036 -11.42911513444239 C35.82921475922167 -11.19698670991565, 36.02682856816298 -10.96485828538891, 36.33801020195651 -10.59932663159847 C36.53142039925164 -10.340174587254445, 36.724830596546774 -10.081022542910418, 36.98980332814825 -9.725983222076888 C37.20339626922638 -9.397847106845354, 37.416989210304514 -9.069710991613821, 37.58430197109088 -8.812673661278927 C37.73496305489719 -8.545159650891776, 37.885624138703506 -8.277645640504625, 38.119063208341004 -7.863150934094199 C38.253401753889534 -7.58419406987826, 38.38774029943807 -7.305237205662321, 38.59188959126881 -6.881316833080699 C38.7541533317777 -6.48052225686774, 38.916417072286585 -6.0797276806547815, 39.000838174845924 -5.871205925162238 C39.118922886982254 -5.515553586451482, 39.23700759911858 -5.159901247740726, 39.344228501623235 -4.836968972727556 C39.44876973236471 -4.438307951454285, 39.55331096310619 -4.039646930181015, 39.620649507091 -3.7828558772573464 C39.67778358964194 -3.489484438650905, 39.73491767219287 -3.1961130000444635, 39.82896531804565 -2.713198215567453 C39.8575463571329 -2.4915293203712876, 39.88612739622015 -2.2698604251751227, 39.968319920136366 -1.632391440430593 C39.9891233163404 -1.3083617523536673, 40.00992671254443 -0.9843320642767415, 40.0381406754117 -0.5448768187181379 C40.0381406754117 -0.2749650444013955, 40.0381406754117 -0.005053270084653172, 40.0381406754117 0.5448768187181336 C40.02001171104767 0.8272500721244647, 40.00188274668364 1.1096233255307957, 39.968319920136366 1.6323914404305815 C39.92179915972632 1.9931972716077113, 39.87527839931627 2.354003102784841, 39.828965318045654 2.7131982155674415 C39.75694324614488 3.0830163329076377, 39.6849211742441 3.452834450247834, 39.620649507091 3.782855877257343 C39.52614654151235 4.143236642853125, 39.43164357593369 4.503617408448908, 39.344228501623235 4.836968972727545 C39.26808400785811 5.066304055970575, 39.19193951409298 5.295639139213605, 39.000838174845924 5.871205925162227 C38.89404254889217 6.134993186020965, 38.787246922938415 6.398780446879703, 38.59188959126881 6.881316833080694 C38.42940110668324 7.21872764801925, 38.26691262209767 7.556138462957805, 38.119063208341004 7.863150934094196 C37.96094487604568 8.143906044301882, 37.802826543750356 8.424661154509568, 37.58430197109089 8.812673661278923 C37.35633818000235 9.162887261239987, 37.12837438891382 9.513100861201051, 36.989803328148255 9.725983222076879 C36.776640476983175 10.011602023102846, 36.563477625818095 10.297220824128813, 36.33801020195651 10.599326631598467 C36.11858041482865 10.857081345467446, 35.8991506277008 11.114836059336426, 35.63160095028037 11.42911513444238 C35.39656305488582 11.671811058407341, 35.16152515949127 11.914506982372302, 34.87347836025927 12.211938951661365 C34.67609562839824 12.391196726276652, 34.4787128965372 12.570454500891941, 34.06675772023242 12.944581292275275 C33.80349773646704 13.154524123685778, 33.54023775270166 13.364466955096281, 33.214754018350675 13.62403157175526 C32.86286683610549 13.869492837138898, 32.5109796538603 14.114954102522534, 32.32096832057934 14.247497783161286 C31.9907717356054 14.44766489342301, 31.660575150631455 14.647832003684732, 31.389073384066943 14.81241797009762 C31.072265284879293 14.977696552518545, 30.75545718569164 15.142975134939471, 30.42289856499849 15.316470754341124 C30.20357188694773 15.413560168619453, 29.984245208896972 15.51064958289778, 29.426414082949368 15.757584874882367 C29.1806061284784 15.848044474351507, 28.93479817400743 15.938504073820646, 28.403714706401562 16.133947699181363 C28.039555305361276 16.24202829789842, 27.67539590432099 16.350108896615474, 27.359002926461642 16.444012671663497 C27.13020550819409 16.496234189340377, 26.901408089926544 16.54845570701726, 26.296571687923333 16.68650566884811 C26.009794498722705 16.73286958080775, 25.723017309522074 16.77923349276739, 25.220786748636613 16.86043023499518 C24.851913204058164 16.896015022205322, 24.483039659479715 16.93159980941546, 24.13606873967212 16.965071676755716 C23.760458988435246 16.977116750397855, 23.384849237198374 16.989161824039993, 23.046875000000004 17 C23.046875000000004 17, 23.046875 17, 23.046875 17 C5.3269707841764955 17, -12.392933431647009 17, -23.046874999999996 17 C-23.45744018142811 16.986833973748247, -23.868005362856227 16.97366794749649, -24.136068739672112 16.965071676755716 C-24.354312601256808 16.944017953905284, -24.572556462841504 16.922964231054856, -25.220786748636606 16.86043023499518 C-25.54095880751321 16.808667299487414, -25.86113086638981 16.756904363979643, -26.29657168792333 16.68650566884811 C-26.599152659430178 16.61744353662704, -26.901733630937024 16.54838140440597, -27.35900292646162 16.4440126716635 C-27.56912248357002 16.38165029005379, -27.779242040678422 16.31928790844408, -28.403714706401544 16.13394769918137 C-28.75092089051991 16.006172613887028, -29.098127074638278 15.878397528592686, -29.42641408294936 15.757584874882369 C-29.76021977015365 15.609818999150923, -30.09402545735794 15.462053123419478, -30.422898564998484 15.316470754341127 C-30.628314453735307 15.209305416762282, -30.833730342472133 15.102140079183437, -31.389073384066936 14.812417970097624 C-31.735013580528598 14.602706990032315, -32.080953776990256 14.392996009967007, -32.32096832057932 14.247497783161299 C-32.53405362566552 14.09885869864735, -32.747138930751724 13.950219614133403, -33.21475401835067 13.624031571755264 C-33.507351776541526 13.390692645951408, -33.799949534732384 13.157353720147551, -34.0667577202324 12.94458129227529 C-34.296950108087664 12.735526656181971, -34.527142495942925 12.526472020088653, -34.87347836025926 12.211938951661377 C-35.139804606401384 11.936935236728182, -35.4061308525435 11.661931521794989, -35.631600950280365 11.429115134442386 C-35.892624128242524 11.122502456968455, -36.153647306204675 10.815889779494526, -36.33801020195651 10.599326631598473 C-36.499933412280555 10.382364281272173, -36.66185662260461 10.165401930945873, -36.98980332814825 9.72598322207689 C-37.112031247880346 9.538208314576316, -37.23425916761244 9.350433407075743, -37.58430197109088 8.812673661278936 C-37.788691591778324 8.449759193055014, -37.99308121246577 8.086844724831092, -38.119063208341004 7.863150934094201 C-38.28498578733912 7.5186091486301505, -38.45090836633723 7.1740673631661, -38.59188959126881 6.881316833080701 C-38.68557002431937 6.649924352257869, -38.779250457369926 6.418531871435036, -39.000838174845924 5.87120592516224 C-39.100691864890464 5.570462520273036, -39.200545554935005 5.2697191153838325, -39.344228501623235 4.8369689727275516 C-39.40587291724454 4.601892099104806, -39.46751733286583 4.3668152254820605, -39.620649507091 3.782855877257349 C-39.673934420954694 3.5092491063378035, -39.72721933481839 3.2356423354182584, -39.82896531804565 2.713198215567455 C-39.8581883829367 2.4865498950193183, -39.88741144782776 2.2599015744711815, -39.968319920136366 1.6323914404306026 C-39.987107641318275 1.3397575178467904, -40.00589536250018 1.0471235952629783, -40.0381406754117 0.54487681871814 C-40.0381406754117 0.1579307846521223, -40.0381406754117 -0.2290152494138954, -40.0381406754117 -0.5448768187181317 C-40.01231553284649 -0.9471242598510708, -39.98649039028128 -1.34937170098401, -39.968319920136366 -1.6323914404305793 C-39.937890223046224 -1.8683981620384014, -39.907460525956076 -2.1044048836462235, -39.828965318045654 -2.713198215567447 C-39.781353548883985 -2.9576745874616592, -39.73374177972231 -3.2021509593558717, -39.620649507091 -3.782855877257341 C-39.534383988761 -4.111823686361792, -39.448118470431 -4.440791495466241, -39.344228501623235 -4.836968972727544 C-39.275368500830886 -5.044364323762906, -39.20650850003854 -5.251759674798269, -39.00083817484593 -5.871205925162218 C-38.8757577398689 -6.180157017821182, -38.750677304891866 -6.489108110480146, -38.59188959126881 -6.881316833080692 C-38.447955360964514 -7.180199342006739, -38.30402113066022 -7.479081850932786, -38.119063208341004 -7.863150934094194 C-37.94190656064012 -8.177710501142938, -37.76474991293924 -8.492270068191683, -37.58430197109088 -8.812673661278929 C-37.36726772306802 -9.146096548097866, -37.15023347504516 -9.479519434916805, -36.98980332814825 -9.725983222076884 C-36.755895967282676 -10.039397776237804, -36.521988606417096 -10.352812330398724, -36.33801020195651 -10.599326631598467 C-36.0609778786203 -10.924744562174938, -35.78394555528409 -11.250162492751409, -35.63160095028037 -11.42911513444238 C-35.44776529236517 -11.618940544428039, -35.26392963444996 -11.808765954413698, -34.87347836025928 -12.21193895166136 C-34.67886463062509 -12.38868199171801, -34.4842509009909 -12.56542503177466, -34.06675772023242 -12.944581292275274 C-33.769427209581316 -13.181694462222339, -33.47209669893022 -13.418807632169406, -33.214754018350675 -13.624031571755259 C-32.967133963964685 -13.796760602395537, -32.719513909578694 -13.969489633035817, -32.32096832057934 -14.247497783161284 C-31.967129881106413 -14.461996724555252, -31.613291441633482 -14.67649566594922, -31.389073384066947 -14.812417970097618 C-31.010926284218858 -15.009697069873589, -30.632779184370772 -15.206976169649558, -30.42289856499849 -15.316470754341124 C-30.208501504353592 -15.411377973225783, -29.994104443708693 -15.506285192110441, -29.426414082949368 -15.757584874882365 C-29.105671444095176 -15.87562113089316, -28.784928805240984 -15.993657386903955, -28.403714706401566 -16.133947699181363 C-28.16449015656741 -16.20494828985685, -27.925265606733255 -16.275948880532344, -27.359002926461642 -16.444012671663494 C-26.96738631826911 -16.533396606946244, -26.575769710076578 -16.622780542228995, -26.296571687923336 -16.68650566884811 C-25.89819043799316 -16.750912859844085, -25.499809188062983 -16.81532005084006, -25.220786748636613 -16.86043023499518 C-24.860295253339594 -16.895206415992032, -24.499803758042574 -16.92998259698888, -24.13606873967212 -16.965071676755716 C-23.768131002750916 -16.97687072383142, -23.400193265829714 -16.988669770907126, -23.046875000000004 -17 C-23.046875000000004 -17, -23.046875 -17, -23.046875 -17" stroke="none" stroke-width="0" fill="#2d2d2d" style=""></path><path d="M-23.046875 -17 C-8.793553602078422 -17, 5.459767795843156 -17, 23.046875 -17 M-23.046875 -17 C-4.943991114154247 -17, 13.158892771691505 -17, 23.046875 -17 M23.046875 -17 C23.046875 -17, 23.046875 -17, 23.046875 -17 M23.046875 -17 C23.046875 -17, 23.046875 -17, 23.046875 -17 M23.046875 -17 C23.450455438321036 -16.987057960864714, 23.854035876642076 -16.974115921729425, 24.13606873967212 -16.965071676755716 M23.046875 -17 C23.478952437157798 -16.98614411757806, 23.91102987431559 -16.97228823515612, 24.13606873967212 -16.965071676755716 M24.13606873967212 -16.965071676755716 C24.473963192697347 -16.932475405249907, 24.811857645722576 -16.8998791337441, 25.2207867486366 -16.860430234995185 M24.13606873967212 -16.965071676755716 C24.474841182894675 -16.93239070659151, 24.813613626117235 -16.8997097364273, 25.2207867486366 -16.860430234995185 M25.2207867486366 -16.860430234995185 C25.45475251230848 -16.82260446475631, 25.688718275980367 -16.78477869451744, 26.296571687923326 -16.686505668848113 M25.2207867486366 -16.860430234995185 C25.51616177658725 -16.812676291143678, 25.811536804537905 -16.76492234729217, 26.296571687923326 -16.686505668848113 M26.296571687923326 -16.686505668848113 C26.71329933127121 -16.591390303655974, 27.130026974619092 -16.49627493846383, 27.35900292646162 -16.4440126716635 M26.296571687923326 -16.686505668848113 C26.703678312265513 -16.593586238461008, 27.1107849366077 -16.5006668080739, 27.35900292646162 -16.4440126716635 M27.35900292646162 -16.4440126716635 C27.74197058383138 -16.33034988119441, 28.124938241201146 -16.21668709072532, 28.40371470640155 -16.133947699181366 M27.35900292646162 -16.4440126716635 C27.696213773100435 -16.343930262436956, 28.033424619739247 -16.243847853210408, 28.40371470640155 -16.133947699181366 M28.40371470640155 -16.133947699181366 C28.773029850173266 -15.99803631236161, 29.142344993944985 -15.862124925541853, 29.42641408294936 -15.757584874882369 M28.40371470640155 -16.133947699181366 C28.656961818704115 -16.04075042086338, 28.910208931006682 -15.94755314254539, 29.42641408294936 -15.757584874882369 M29.42641408294936 -15.757584874882369 C29.75897995922269 -15.610367826672375, 30.091545835496017 -15.463150778462381, 30.422898564998487 -15.316470754341125 M29.42641408294936 -15.757584874882369 C29.816354353117195 -15.584969884446203, 30.206294623285025 -15.412354894010036, 30.422898564998487 -15.316470754341125 M30.422898564998487 -15.316470754341125 C30.769114121563675 -15.135850320242715, 31.11532967812886 -14.955229886144306, 31.38907338406694 -14.812417970097622 M30.422898564998487 -15.316470754341125 C30.687276687480104 -15.178544857184736, 30.951654809961717 -15.040618960028347, 31.38907338406694 -14.812417970097622 M31.38907338406694 -14.812417970097622 C31.65237773766315 -14.652801323599462, 31.915682091259363 -14.493184677101304, 32.320968320579325 -14.247497783161291 M31.38907338406694 -14.812417970097622 C31.66004081523013 -14.648155920945118, 31.93100824639332 -14.483893871792615, 32.320968320579325 -14.247497783161291 M32.320968320579325 -14.247497783161291 C32.637004212065186 -14.027044826234002, 32.95304010355104 -13.806591869306713, 33.214754018350675 -13.624031571755262 M32.320968320579325 -14.247497783161291 C32.63086524383431 -14.031327104720212, 32.94076216708928 -13.815156426279131, 33.214754018350675 -13.624031571755262 M33.214754018350675 -13.624031571755262 C33.474595779037195 -13.416814682287411, 33.73443753972372 -13.20959779281956, 34.0667577202324 -12.944581292275288 M33.214754018350675 -13.624031571755262 C33.52134307618198 -13.379534956812272, 33.82793213401328 -13.13503834186928, 34.0667577202324 -12.944581292275288 M34.0667577202324 -12.944581292275288 C34.34820988596172 -12.68897388217615, 34.62966205169105 -12.433366472077012, 34.87347836025927 -12.21193895166137 M34.0667577202324 -12.944581292275288 C34.2426994064874 -12.784795707980427, 34.41864109274239 -12.625010123685566, 34.87347836025927 -12.21193895166137 M34.87347836025927 -12.21193895166137 C35.0760717918074 -12.002744600357861, 35.278665223355524 -11.79355024905435, 35.63160095028036 -11.42911513444239 M34.87347836025927 -12.21193895166137 C35.14952638325158 -11.926896703957622, 35.4255744062439 -11.641854456253876, 35.63160095028036 -11.42911513444239 M35.63160095028036 -11.42911513444239 C35.827147573642776 -11.199414943722813, 36.022694197005194 -10.969714753003238, 36.33801020195651 -10.59932663159847 M35.63160095028036 -11.42911513444239 C35.841210459033064 -11.182895878342537, 36.05081996778576 -10.936676622242684, 36.33801020195651 -10.59932663159847 M36.33801020195651 -10.59932663159847 C36.59538708655701 -10.254465053750348, 36.85276397115751 -9.909603475902227, 36.98980332814825 -9.725983222076888 M36.33801020195651 -10.59932663159847 C36.47715067869493 -10.41289106872718, 36.61629115543336 -10.226455505855892, 36.98980332814825 -9.725983222076888 M36.98980332814825 -9.725983222076888 C37.14081379173351 -9.493990598022645, 37.291824255318765 -9.261997973968404, 37.58430197109088 -8.812673661278927 M36.98980332814825 -9.725983222076888 C37.13739330270318 -9.499245387703137, 37.28498327725811 -9.272507553329389, 37.58430197109088 -8.812673661278927 M37.58430197109088 -8.812673661278927 C37.779554080200604 -8.465983770134626, 37.97480618931033 -8.119293878990327, 38.119063208341004 -7.863150934094199 M37.58430197109088 -8.812673661278927 C37.72741425464422 -8.558563310139835, 37.870526538197566 -8.304452959000743, 38.119063208341004 -7.863150934094199 M38.119063208341004 -7.863150934094199 C38.23988404831786 -7.612263874730416, 38.36070488829471 -7.361376815366631, 38.59188959126881 -6.881316833080699 M38.119063208341004 -7.863150934094199 C38.23132843704035 -7.630029784608921, 38.3435936657397 -7.396908635123644, 38.59188959126881 -6.881316833080699 M38.59188959126881 -6.881316833080699 C38.742626492255766 -6.508993773343197, 38.89336339324272 -6.136670713605695, 39.000838174845924 -5.871205925162238 M38.59188959126881 -6.881316833080699 C38.74033350534026 -6.514657495356382, 38.88877741941171 -6.147998157632066, 39.000838174845924 -5.871205925162238 M39.000838174845924 -5.871205925162238 C39.110599868478054 -5.5406211920932185, 39.22036156211018 -5.2100364590242, 39.344228501623235 -4.836968972727556 M39.000838174845924 -5.871205925162238 C39.08979634132577 -5.603278101283963, 39.17875450780562 -5.335350277405689, 39.344228501623235 -4.836968972727556 M39.344228501623235 -4.836968972727556 C39.42087400422104 -4.544686452951174, 39.49751950681884 -4.252403933174791, 39.620649507091 -3.7828558772573464 M39.344228501623235 -4.836968972727556 C39.43489913974064 -4.491202532682768, 39.52556977785803 -4.145436092637979, 39.620649507091 -3.7828558772573464 M39.620649507091 -3.7828558772573464 C39.669560890281566 -3.531706261998308, 39.71847227347212 -3.2805566467392695, 39.82896531804565 -2.713198215567453 M39.620649507091 -3.7828558772573464 C39.70108156212924 -3.3698542739568538, 39.78151361716747 -2.956852670656361, 39.82896531804565 -2.713198215567453 M39.82896531804565 -2.713198215567453 C39.86143477673807 -2.4613715057688488, 39.8939042354305 -2.209544795970245, 39.968319920136366 -1.632391440430593 M39.82896531804565 -2.713198215567453 C39.86934256690289 -2.4000402468203514, 39.90971981576013 -2.08688227807325, 39.968319920136366 -1.632391440430593 M39.968319920136366 -1.632391440430593 C39.98560201629035 -1.363208842975324, 40.00288411244434 -1.094026245520055, 40.0381406754117 -0.5448768187181379 M39.968319920136366 -1.632391440430593 C39.99213668460415 -1.2614261092986332, 40.01595344907194 -0.8904607781666735, 40.0381406754117 -0.5448768187181379 M40.0381406754117 -0.5448768187181379 C40.0381406754117 -0.13340096635495485, 40.0381406754117 0.27807488600822816, 40.0381406754117 0.5448768187181336 M40.0381406754117 -0.5448768187181379 C40.0381406754117 -0.19272638886868593, 40.0381406754117 0.159424040980766, 40.0381406754117 0.5448768187181336 M40.0381406754117 0.5448768187181336 C40.012218504611226 0.9486355529350847, 39.986296333810756 1.3523942871520358, 39.968319920136366 1.6323914404305815 M40.0381406754117 0.5448768187181336 C40.02062911533169 0.8176335020411334, 40.00311755525168 1.0903901853641331, 39.968319920136366 1.6323914404305815 M39.968319920136366 1.6323914404305815 C39.932627894737976 1.9092117412328975, 39.896935869339586 2.1860320420352135, 39.828965318045654 2.7131982155674415 M39.968319920136366 1.6323914404305815 C39.93921457835443 1.8581267237914754, 39.910109236572495 2.0838620071523692, 39.828965318045654 2.7131982155674415 M39.828965318045654 2.7131982155674415 C39.77899762862513 2.969771740066952, 39.7290299392046 3.2263452645664623, 39.620649507091 3.782855877257343 M39.828965318045654 2.7131982155674415 C39.7841424338292 2.943354252698973, 39.73931954961276 3.1735102898305048, 39.620649507091 3.782855877257343 M39.620649507091 3.782855877257343 C39.542479209265494 4.080953102087398, 39.464308911439986 4.379050326917453, 39.344228501623235 4.836968972727545 M39.620649507091 3.782855877257343 C39.513691598355436 4.190732739116934, 39.40673368961987 4.598609600976524, 39.344228501623235 4.836968972727545 M39.344228501623235 4.836968972727545 C39.21199507307243 5.235234990986893, 39.07976164452162 5.63350100924624, 39.000838174845924 5.871205925162227 M39.344228501623235 4.836968972727545 C39.251116668149045 5.1174069797958275, 39.15800483467485 5.397844986864109, 39.000838174845924 5.871205925162227 M39.000838174845924 5.871205925162227 C38.88084959726596 6.167580031606085, 38.76086101968598 6.463954138049943, 38.59188959126881 6.881316833080694 M39.000838174845924 5.871205925162227 C38.87376531280281 6.185078351195378, 38.746692450759696 6.498950777228531, 38.59188959126881 6.881316833080694 M38.59188959126881 6.881316833080694 C38.44526446874982 7.185787037266417, 38.298639346230836 7.49025724145214, 38.119063208341004 7.863150934094196 M38.59188959126881 6.881316833080694 C38.46299045216732 7.1489786534247, 38.33409131306583 7.416640473768705, 38.119063208341004 7.863150934094196 M38.119063208341004 7.863150934094196 C37.962018862739725 8.141999072173663, 37.80497451713845 8.420847210253129, 37.58430197109089 8.812673661278923 M38.119063208341004 7.863150934094196 C37.91493087281487 8.22560856646127, 37.71079853728873 8.588066198828345, 37.58430197109089 8.812673661278923 M37.58430197109089 8.812673661278923 C37.44636475841369 9.024582261278985, 37.308427545736485 9.236490861279048, 36.989803328148255 9.725983222076879 M37.58430197109089 8.812673661278923 C37.38529771244974 9.118397642677493, 37.186293453808595 9.424121624076063, 36.989803328148255 9.725983222076879 M36.989803328148255 9.725983222076879 C36.74989046968479 10.047444595906878, 36.50997761122134 10.368905969736876, 36.33801020195651 10.599326631598467 M36.989803328148255 9.725983222076879 C36.83360613853514 9.935273226301744, 36.67740894892202 10.144563230526607, 36.33801020195651 10.599326631598467 M36.33801020195651 10.599326631598467 C36.15105549404927 10.818934269530555, 35.964100786142026 11.03854190746264, 35.63160095028037 11.42911513444238 M36.33801020195651 10.599326631598467 C36.18687643227763 10.776856957218394, 36.03574266259875 10.954387282838322, 35.63160095028037 11.42911513444238 M35.63160095028037 11.42911513444238 C35.461364054560555 11.60489870598216, 35.29112715884074 11.78068227752194, 34.87347836025927 12.211938951661365 M35.63160095028037 11.42911513444238 C35.47281244998341 11.593077297777318, 35.31402394968645 11.757039461112255, 34.87347836025927 12.211938951661365 M34.87347836025927 12.211938951661365 C34.59154070631379 12.4679872693131, 34.309603052368324 12.724035586964836, 34.06675772023242 12.944581292275275 M34.87347836025927 12.211938951661365 C34.568120837090135 12.489256574886243, 34.262763313921006 12.76657419811112, 34.06675772023242 12.944581292275275 M34.06675772023242 12.944581292275275 C33.76811616467064 13.18273998565024, 33.46947460910886 13.420898679025203, 33.214754018350675 13.62403157175526 M34.06675772023242 12.944581292275275 C33.778061088462266 13.174809173571951, 33.489364456692115 13.405037054868627, 33.214754018350675 13.62403157175526 M33.214754018350675 13.62403157175526 C33.03325321627343 13.75063867424126, 32.85175241419618 13.87724577672726, 32.32096832057934 14.247497783161286 M33.214754018350675 13.62403157175526 C32.95783358284745 13.80324814565591, 32.700913147344224 13.982464719556562, 32.32096832057934 14.247497783161286 M32.32096832057934 14.247497783161286 C32.03853007624918 14.418713506665586, 31.75609183191902 14.589929230169886, 31.389073384066943 14.81241797009762 M32.32096832057934 14.247497783161286 C32.090777976793184 14.387040522313068, 31.860587633007025 14.526583261464848, 31.389073384066943 14.81241797009762 M31.389073384066943 14.81241797009762 C31.074695541989865 14.976428688940613, 30.760317699912783 15.140439407783608, 30.42289856499849 15.316470754341124 M31.389073384066943 14.81241797009762 C31.125251098459437 14.950053887512817, 30.86142881285193 15.087689804928013, 30.42289856499849 15.316470754341124 M30.42289856499849 15.316470754341124 C30.1629185626775 15.431556189335865, 29.902938560356514 15.546641624330608, 29.426414082949368 15.757584874882367 M30.42289856499849 15.316470754341124 C30.19818287113282 15.41594572606124, 29.973467177267146 15.515420697781357, 29.426414082949368 15.757584874882367 M29.426414082949368 15.757584874882367 C29.186623678825335 15.845829960198207, 28.946833274701305 15.934075045514048, 28.403714706401562 16.133947699181363 M29.426414082949368 15.757584874882367 C29.11360562959457 15.872701277286577, 28.800797176239772 15.987817679690787, 28.403714706401562 16.133947699181363 M28.403714706401562 16.133947699181363 C28.130413239664566 16.21506213992023, 27.85711177292757 16.296176580659097, 27.359002926461642 16.444012671663497 M28.403714706401562 16.133947699181363 C28.09538076097491 16.225459595706088, 27.787046815548255 16.316971492230813, 27.359002926461642 16.444012671663497 M27.359002926461642 16.444012671663497 C27.130737308337988 16.496112809427856, 26.902471690214334 16.548212947192212, 26.296571687923333 16.68650566884811 M27.359002926461642 16.444012671663497 C26.99769069112295 16.52647983159687, 26.636378455784264 16.608946991530242, 26.296571687923333 16.68650566884811 M26.296571687923333 16.68650566884811 C25.96219052605416 16.740565821934478, 25.62780936418499 16.794625975020846, 25.220786748636613 16.86043023499518 M26.296571687923333 16.68650566884811 C26.043247811211224 16.72746110867892, 25.789923934499114 16.768416548509727, 25.220786748636613 16.86043023499518 M25.220786748636613 16.86043023499518 C24.98497535232657 16.883178676792514, 24.749163956016528 16.905927118589847, 24.13606873967212 16.965071676755716 M25.220786748636613 16.86043023499518 C24.880197907858427 16.89328643084704, 24.53960906708024 16.926142626698905, 24.13606873967212 16.965071676755716 M24.13606873967212 16.965071676755716 C23.862475417069366 16.97384528209449, 23.588882094466612 16.982618887433265, 23.046875000000004 17 M24.13606873967212 16.965071676755716 C23.87031212184572 16.973593974225533, 23.604555504019324 16.98211627169535, 23.046875000000004 17 M23.046875000000004 17 C23.046875000000004 17, 23.046875 17, 23.046875 17 M23.046875000000004 17 C23.046875000000004 17, 23.046875 17, 23.046875 17 M23.046875 17 C12.544715848143584 17, 2.0425566962871677 17, -23.046874999999996 17 M23.046875 17 C5.433214453190118 17, -12.180446093619764 17, -23.046874999999996 17 M-23.046874999999996 17 C-23.310730618111698 16.99153866389096, -23.5745862362234 16.983077327781924, -24.136068739672112 16.965071676755716 M-23.046874999999996 17 C-23.451045256219423 16.98703904655272, -23.855215512438853 16.974078093105444, -24.136068739672112 16.965071676755716 M-24.136068739672112 16.965071676755716 C-24.508338991107102 16.929159213320265, -24.88060924254209 16.893246749884813, -25.220786748636606 16.86043023499518 M-24.136068739672112 16.965071676755716 C-24.370465878828877 16.942459666645068, -24.604863017985647 16.91984765653442, -25.220786748636606 16.86043023499518 M-25.220786748636606 16.86043023499518 C-25.554802986305116 16.80642908002355, -25.888819223973623 16.75242792505191, -26.29657168792333 16.68650566884811 M-25.220786748636606 16.86043023499518 C-25.454513934333264 16.822643036193142, -25.688241120029925 16.784855837391103, -26.29657168792333 16.68650566884811 M-26.29657168792333 16.68650566884811 C-26.54093805054978 16.630730641218165, -26.78530441317623 16.57495561358822, -27.35900292646162 16.4440126716635 M-26.29657168792333 16.68650566884811 C-26.643748246136425 16.60726488497474, -26.990924804349525 16.528024101101366, -27.35900292646162 16.4440126716635 M-27.35900292646162 16.4440126716635 C-27.60344328826119 16.371464055375032, -27.84788365006076 16.298915439086564, -28.403714706401544 16.13394769918137 M-27.35900292646162 16.4440126716635 C-27.587402036593115 16.376225014667867, -27.81580114672461 16.308437357672233, -28.403714706401544 16.13394769918137 M-28.403714706401544 16.13394769918137 C-28.707406811519228 16.022186197199016, -29.01109891663691 15.910424695216664, -29.42641408294936 15.757584874882369 M-28.403714706401544 16.13394769918137 C-28.80739169924255 15.985390834266664, -29.211068692083558 15.836833969351957, -29.42641408294936 15.757584874882369 M-29.42641408294936 15.757584874882369 C-29.822845032474813 15.582096653233746, -30.219275982000266 15.406608431585123, -30.422898564998484 15.316470754341127 M-29.42641408294936 15.757584874882369 C-29.63766730867331 15.664069338458663, -29.848920534397266 15.570553802034958, -30.422898564998484 15.316470754341127 M-30.422898564998484 15.316470754341127 C-30.766740376925522 15.137088701299982, -31.11058218885256 14.957706648258839, -31.389073384066936 14.812417970097624 M-30.422898564998484 15.316470754341127 C-30.711312461179052 15.166005409441642, -30.999726357359624 15.015540064542156, -31.389073384066936 14.812417970097624 M-31.389073384066936 14.812417970097624 C-31.649872435796844 14.654320052313606, -31.910671487526752 14.49622213452959, -32.32096832057932 14.247497783161299 M-31.389073384066936 14.812417970097624 C-31.605899676762636 14.680976597252759, -31.82272596945834 14.549535224407894, -32.32096832057932 14.247497783161299 M-32.32096832057932 14.247497783161299 C-32.65072855710287 14.017471317253033, -32.98048879362642 13.787444851344768, -33.21475401835067 13.624031571755264 M-32.32096832057932 14.247497783161299 C-32.63416806902313 14.029023196845484, -32.94736781746694 13.81054861052967, -33.21475401835067 13.624031571755264 M-33.21475401835067 13.624031571755264 C-33.411858614243584 13.466845901704243, -33.6089632101365 13.309660231653222, -34.0667577202324 12.94458129227529 M-33.21475401835067 13.624031571755264 C-33.50756416837995 13.39052326911225, -33.800374318409226 13.157014966469237, -34.0667577202324 12.94458129227529 M-34.0667577202324 12.94458129227529 C-34.3275790665236 12.707710246528286, -34.5884004128148 12.470839200781281, -34.87347836025926 12.211938951661377 M-34.0667577202324 12.94458129227529 C-34.31610477594245 12.718130893640993, -34.5654518316525 12.491680495006696, -34.87347836025926 12.211938951661377 M-34.87347836025926 12.211938951661377 C-35.12894461075171 11.948149073858696, -35.384410861244156 11.684359196056013, -35.631600950280365 11.429115134442386 M-34.87347836025926 12.211938951661377 C-35.080656074248935 11.998010952360389, -35.2878337882386 11.784082953059398, -35.631600950280365 11.429115134442386 M-35.631600950280365 11.429115134442386 C-35.80554951380937 11.22478525376756, -35.97949807733836 11.020455373092735, -36.33801020195651 10.599326631598473 M-35.631600950280365 11.429115134442386 C-35.80802561985422 11.221876678712846, -35.98445028942808 11.014638222983308, -36.33801020195651 10.599326631598473 M-36.33801020195651 10.599326631598473 C-36.492900933719575 10.391787161871916, -36.647791665482636 10.184247692145357, -36.98980332814825 9.72598322207689 M-36.33801020195651 10.599326631598473 C-36.54272832087868 10.325023002447066, -36.747446439800854 10.050719373295662, -36.98980332814825 9.72598322207689 M-36.98980332814825 9.72598322207689 C-37.15366714280286 9.474244399172084, -37.31753095745748 9.222505576267277, -37.58430197109088 8.812673661278936 M-36.98980332814825 9.72598322207689 C-37.15961768831861 9.465102763314686, -37.329432048488975 9.204222304552482, -37.58430197109088 8.812673661278936 M-37.58430197109088 8.812673661278936 C-37.742742775187835 8.531345969733641, -37.90118357928479 8.250018278188344, -38.119063208341004 7.863150934094201 M-37.58430197109088 8.812673661278936 C-37.7785182674782 8.467822960510684, -37.97273456386551 8.122972259742433, -38.119063208341004 7.863150934094201 M-38.119063208341004 7.863150934094201 C-38.21753430920121 7.65867358621394, -38.31600541006142 7.454196238333679, -38.59188959126881 6.881316833080701 M-38.119063208341004 7.863150934094201 C-38.22748496567701 7.638010835132019, -38.335906723013004 7.412870736169837, -38.59188959126881 6.881316833080701 M-38.59188959126881 6.881316833080701 C-38.72428518280589 6.554297162289486, -38.85668077434297 6.227277491498271, -39.000838174845924 5.87120592516224 M-38.59188959126881 6.881316833080701 C-38.682669048783694 6.657089817917521, -38.77344850629858 6.432862802754341, -39.000838174845924 5.87120592516224 M-39.000838174845924 5.87120592516224 C-39.135377504595965 5.465994899886258, -39.269916834346006 5.0607838746102765, -39.344228501623235 4.8369689727275516 M-39.000838174845924 5.87120592516224 C-39.0830833143213 5.623496669045823, -39.16532845379668 5.375787412929404, -39.344228501623235 4.8369689727275516 M-39.344228501623235 4.8369689727275516 C-39.44894005007604 4.437658456204842, -39.55365159852884 4.038347939682131, -39.620649507091 3.782855877257349 M-39.344228501623235 4.8369689727275516 C-39.44072701932816 4.468978301996542, -39.53722553703308 4.100987631265532, -39.620649507091 3.782855877257349 M-39.620649507091 3.782855877257349 C-39.689833881265535 3.427608737993774, -39.75901825544007 3.072361598730199, -39.82896531804565 2.713198215567455 M-39.620649507091 3.782855877257349 C-39.68661847015338 3.444119194477332, -39.75258743321575 3.1053825116973153, -39.82896531804565 2.713198215567455 M-39.82896531804565 2.713198215567455 C-39.88002017683316 2.3172268127336846, -39.93107503562068 1.9212554098999135, -39.968319920136366 1.6323914404306026 M-39.82896531804565 2.713198215567455 C-39.882172710902935 2.300532183554492, -39.93538010376022 1.8878661515415285, -39.968319920136366 1.6323914404306026 M-39.968319920136366 1.6323914404306026 C-39.98808073562706 1.3246007885198856, -40.00784155111776 1.0168101366091686, -40.0381406754117 0.54487681871814 M-39.968319920136366 1.6323914404306026 C-39.98720763800466 1.3381999887404714, -40.00609535587296 1.0440085370503405, -40.0381406754117 0.54487681871814 M-40.0381406754117 0.54487681871814 C-40.0381406754117 0.2665712980207089, -40.0381406754117 -0.011734222676722195, -40.0381406754117 -0.5448768187181317 M-40.0381406754117 0.54487681871814 C-40.0381406754117 0.19102873612218685, -40.0381406754117 -0.16281934647376628, -40.0381406754117 -0.5448768187181317 M-40.0381406754117 -0.5448768187181317 C-40.018984286633255 -0.8432530367010158, -39.999827897854814 -1.1416292546839, -39.968319920136366 -1.6323914404305793 M-40.0381406754117 -0.5448768187181317 C-40.011418179444064 -0.9611012634245213, -39.984695683476424 -1.3773257081309107, -39.968319920136366 -1.6323914404305793 M-39.968319920136366 -1.6323914404305793 C-39.912947236899726 -2.061851037040905, -39.857574553663085 -2.4913106336512305, -39.828965318045654 -2.713198215567447 M-39.968319920136366 -1.6323914404305793 C-39.91834143172927 -2.0200147271472337, -39.86836294332217 -2.4076380138638878, -39.828965318045654 -2.713198215567447 M-39.828965318045654 -2.713198215567447 C-39.759958153291606 -3.067535421910062, -39.69095098853755 -3.421872628252677, -39.620649507091 -3.782855877257341 M-39.828965318045654 -2.713198215567447 C-39.75593272895308 -3.088205125114642, -39.68290013986051 -3.463212034661838, -39.620649507091 -3.782855877257341 M-39.620649507091 -3.782855877257341 C-39.56415868213684 -3.9982798760859732, -39.507667857182675 -4.213703874914605, -39.344228501623235 -4.836968972727544 M-39.620649507091 -3.782855877257341 C-39.5589342936276 -4.01820273373599, -39.49721908016421 -4.2535495902146385, -39.344228501623235 -4.836968972727544 M-39.344228501623235 -4.836968972727544 C-39.237078343523386 -5.159688176865015, -39.129928185423545 -5.482407381002487, -39.00083817484593 -5.871205925162218 M-39.344228501623235 -4.836968972727544 C-39.21913823018562 -5.213720939869483, -39.09404795874801 -5.590472907011422, -39.00083817484593 -5.871205925162218 M-39.00083817484593 -5.871205925162218 C-38.90034551731125 -6.11942473216623, -38.79985285977658 -6.367643539170242, -38.59188959126881 -6.881316833080692 M-39.00083817484593 -5.871205925162218 C-38.87231264515859 -6.188666468362026, -38.74378711547124 -6.506127011561834, -38.59188959126881 -6.881316833080692 M-38.59188959126881 -6.881316833080692 C-38.44768727495417 -7.180756028343339, -38.30348495863953 -7.480195223605985, -38.119063208341004 -7.863150934094194 M-38.59188959126881 -6.881316833080692 C-38.402779870586606 -7.274007214377109, -38.2136701499044 -7.666697595673525, -38.119063208341004 -7.863150934094194 M-38.119063208341004 -7.863150934094194 C-37.988191657090134 -8.095526625521687, -37.85732010583927 -8.327902316949181, -37.58430197109088 -8.812673661278929 M-38.119063208341004 -7.863150934094194 C-38.00860354327673 -8.059283254669795, -37.898143878212444 -8.255415575245395, -37.58430197109088 -8.812673661278929 M-37.58430197109088 -8.812673661278929 C-37.432658153875146 -9.045639286588846, -37.28101433665941 -9.278604911898764, -36.98980332814825 -9.725983222076884 M-37.58430197109088 -8.812673661278929 C-37.4208709863 -9.063747541281948, -37.25744000150912 -9.314821421284968, -36.98980332814825 -9.725983222076884 M-36.98980332814825 -9.725983222076884 C-36.78406808782627 -10.001649701242362, -36.57833284750429 -10.277316180407842, -36.33801020195651 -10.599326631598467 M-36.98980332814825 -9.725983222076884 C-36.7976774320387 -9.983414419834473, -36.60555153592915 -10.24084561759206, -36.33801020195651 -10.599326631598467 M-36.33801020195651 -10.599326631598467 C-36.16399770289437 -10.803731614588555, -35.98998520383223 -11.008136597578641, -35.63160095028037 -11.42911513444238 M-36.33801020195651 -10.599326631598467 C-36.16650366456248 -10.80078796941994, -35.99499712716844 -11.00224930724141, -35.63160095028037 -11.42911513444238 M-35.63160095028037 -11.42911513444238 C-35.4229577309449 -11.64455638833313, -35.21431451160944 -11.859997642223881, -34.87347836025928 -12.21193895166136 M-35.63160095028037 -11.42911513444238 C-35.37757636868782 -11.691416370742706, -35.12355178709526 -11.953717607043032, -34.87347836025928 -12.21193895166136 M-34.87347836025928 -12.21193895166136 C-34.693597826198506 -12.375301693317224, -34.51371729213774 -12.538664434973091, -34.06675772023242 -12.944581292275274 M-34.87347836025928 -12.21193895166136 C-34.67006510009769 -12.39667349252018, -34.46665183993609 -12.581408033378999, -34.06675772023242 -12.944581292275274 M-34.06675772023242 -12.944581292275274 C-33.80925122900238 -13.149935866495712, -33.55174473777234 -13.355290440716148, -33.214754018350675 -13.624031571755259 M-34.06675772023242 -12.944581292275274 C-33.75396374813439 -13.194026161226278, -33.441169776036354 -13.443471030177284, -33.214754018350675 -13.624031571755259 M-33.214754018350675 -13.624031571755259 C-32.9453081484216 -13.811985346494064, -32.67586227849253 -13.999939121232869, -32.32096832057934 -14.247497783161284 M-33.214754018350675 -13.624031571755259 C-32.87122263406097 -13.863664194201816, -32.527691249771266 -14.103296816648372, -32.32096832057934 -14.247497783161284 M-32.32096832057934 -14.247497783161284 C-32.02234200029788 -14.428526813438957, -31.723715680016422 -14.60955584371663, -31.389073384066947 -14.812417970097618 M-32.32096832057934 -14.247497783161284 C-32.05249439038431 -14.41024825737345, -31.784020460189282 -14.572998731585615, -31.389073384066947 -14.812417970097618 M-31.389073384066947 -14.812417970097618 C-31.182862489453996 -14.919998061732812, -30.976651594841044 -15.027578153368008, -30.42289856499849 -15.316470754341124 M-31.389073384066947 -14.812417970097618 C-31.128929959812606 -14.948134627901291, -30.868786535558268 -15.083851285704965, -30.42289856499849 -15.316470754341124 M-30.42289856499849 -15.316470754341124 C-30.074888880167716 -15.470524318475196, -29.72687919533694 -15.624577882609268, -29.426414082949368 -15.757584874882365 M-30.42289856499849 -15.316470754341124 C-30.204867376193462 -15.41298669395969, -29.986836187388437 -15.509502633578256, -29.426414082949368 -15.757584874882365 M-29.426414082949368 -15.757584874882365 C-29.083257802685463 -15.883869558121365, -28.74010152242156 -16.010154241360365, -28.403714706401566 -16.133947699181363 M-29.426414082949368 -15.757584874882365 C-29.09254264056684 -15.880452651952918, -28.758671198184313 -16.00332042902347, -28.403714706401566 -16.133947699181363 M-28.403714706401566 -16.133947699181363 C-28.184881638862183 -16.198896204948838, -27.966048571322798 -16.263844710716317, -27.359002926461642 -16.444012671663494 M-28.403714706401566 -16.133947699181363 C-28.014827086314597 -16.249367503510403, -27.625939466227628 -16.36478730783944, -27.359002926461642 -16.444012671663494 M-27.359002926461642 -16.444012671663494 C-27.13351072056001 -16.49547979618638, -26.90801851465838 -16.54694692070927, -26.296571687923336 -16.68650566884811 M-27.359002926461642 -16.444012671663494 C-26.994502805240256 -16.527207445746694, -26.630002684018866 -16.610402219829897, -26.296571687923336 -16.68650566884811 M-26.296571687923336 -16.68650566884811 C-25.971767802521462 -16.739017442148132, -25.64696391711959 -16.791529215448158, -25.220786748636613 -16.86043023499518 M-26.296571687923336 -16.68650566884811 C-26.007490299590064 -16.733242105854185, -25.71840891125679 -16.77997854286026, -25.220786748636613 -16.86043023499518 M-25.220786748636613 -16.86043023499518 C-24.828153236619265 -16.89830711768861, -24.43551972460192 -16.93618400038204, -24.13606873967212 -16.965071676755716 M-25.220786748636613 -16.86043023499518 C-24.913373070204493 -16.890086062834488, -24.605959391772373 -16.919741890673794, -24.13606873967212 -16.965071676755716 M-24.13606873967212 -16.965071676755716 C-23.81263156960886 -16.975443677267386, -23.489194399545607 -16.985815677779055, -23.046875000000004 -17 M-24.13606873967212 -16.965071676755716 C-23.71280420453535 -16.978644946563115, -23.289539669398582 -16.992218216370514, -23.046875000000004 -17 M-23.046875000000004 -17 C-23.046875000000004 -17, -23.046875 -17, -23.046875 -17 M-23.046875000000004 -17 C-23.046875000000004 -17, -23.046875 -17, -23.046875 -17" stroke="#555555" stroke-width="1.3" fill="none" stroke-dasharray="0 0" style=""></path></g><g class="label" style="" transform="translate(0, -9.5)"><rect></rect><g><rect class="background" style="stroke: none"></rect><text y="-10.1" style=""><tspan class="text-outer-tspan row" x="0" y="-0.1em" dy="1.1em"><tspan font-style="normal" class="text-inner-tspan" font-weight="normal">Request</tspan></tspan></text></g></g></g><g class="node default" id="gaa0f4348-5002-44df-ab71-8fc62dc23078-dark-flowchart-Decision-17" data-look="classic" transform="translate(692.76953125, 840.125)"><polygon points="47.125,0 94.25,-47.125 47.125,-94.25 0,-47.125" class="label-container" transform="translate(-46.625, 47.125)"></polygon><g class="label" style="" transform="translate(0, -9.5)"><rect></rect><g><rect class="background" style="stroke: none"></rect><text y="-10.1" style=""><tspan class="text-outer-tspan row" x="0" y="-0.1em" dy="1.1em"><tspan font-style="normal" class="text-inner-tspan" font-weight="normal">Allow?</tspan></tspan></text></g></g></g><g class="node default" id="gaa0f4348-5002-44df-ab71-8fc62dc23078-dark-flowchart-Backend-19" data-look="classic" transform="translate(583.390625, 993.5499992370605)"><rect class="basic label-container" style="" x="-88.1796875" y="-24.5" width="176.359375" height="49"></rect><g class="label" style="" transform="translate(0, -9.5)"><rect></rect><g><rect class="background" style="stroke: none"></rect><text y="-10.1" style=""><tspan class="text-outer-tspan row" x="0" y="-0.1em" dy="1.1em"><tspan font-style="normal" class="text-inner-tspan" font-weight="normal">Backend</tspan><tspan font-style="normal" class="text-inner-tspan" font-weight="normal"> Service</tspan></tspan></text></g></g></g><g class="node default" id="gaa0f4348-5002-44df-ab71-8fc62dc23078-dark-flowchart-Response-21" data-look="classic" transform="translate(802.1484375, 993.5499992370605)"><rect class="basic label-container" style="" x="-80.578125" y="-24.5" width="161.15625" height="49"></rect><g class="label" style="" transform="translate(0, -9.5)"><rect></rect><g><rect class="background" style="stroke: none"></rect><text y="-10.1" style=""><tspan class="text-outer-tspan row" x="0" y="-0.1em" dy="1.1em"><tspan font-style="normal" class="text-inner-tspan" font-weight="normal">429</tspan><tspan font-style="normal" class="text-inner-tspan" font-weight="normal"> +</tspan><tspan font-style="normal" class="text-inner-tspan" font-weight="normal"> Headers</tspan></tspan></text></g></g></g></g></g></g><defs><filter id="gaa0f4348-5002-44df-ab71-8fc62dc23078-dark-drop-shadow" height="130%" width="130%"><feDropShadow dx="4" dy="4" stdDeviation="0" flood-opacity="0.06" flood-color="#000000"></feDropShadow></filter></defs><defs><filter id="gaa0f4348-5002-44df-ab71-8fc62dc23078-dark-drop-shadow-small" height="150%" width="150%"><feDropShadow dx="2" dy="2" stdDeviation="0" flood-opacity="0.06" flood-color="#000000"></feDropShadow></filter></defs><linearGradient id="gaa0f4348-5002-44df-ab71-8fc62dc23078-dark-gradient" gradientUnits="objectBoundingBox" x1="0%" y1="0%" x2="100%" y2="0%"><stop offset="0%" stop-color="#555555" stop-opacity="1"></stop><stop offset="100%" stop-color="#555555" stop-opacity="1"></stop></linearGradient></svg>