<svg id="g9f446e3c-1ccb-4e73-88e4-44b20a4b951e-light" width="100%" xmlns="http://www.w3.org/2000/svg" xmlns:xlink="http://www.w3.org/1999/xlink" class="statediagram" style="max-width: 966.6909790039062px;" viewBox="0 0 966.6909790039062 481.79998779296875" role="graphics-document document" aria-roledescription="stateDiagram"><style>#g9f446e3c-1ccb-4e73-88e4-44b20a4b951e-light{font-family:"trebuchet ms",verdana,arial,sans-serif;font-size:16px;fill:#333;}@keyframes edge-animation-frame{from{stroke-dashoffset:0;}}@keyframes dash{to{stroke-dashoffset:0;}}#g9f446e3c-1ccb-4e73-88e4-44b20a4b951e-light .edge-animation-slow{stroke-dasharray:9,5!important;stroke-dashoffset:900;animation:dash 50s linear infinite;stroke-linecap:round;}#g9f446e3c-1ccb-4e73-88e4-44b20a4b951e-light .edge-animation-fast{stroke-dasharray:9,5!important;stroke-dashoffset:900;animation:dash 20s linear infinite;stroke-linecap:round;}#g9f446e3c-1ccb-4e73-88e4-44b20a4b951e-light .error-icon{fill:#552222;}#g9f446e3c-1ccb-4e73-88e4-44b20a4b951e-light .error-text{fill:#552222;stroke:#552222;}#g9f446e3c-1ccb-4e73-88e4-44b20a4b951e-light .edge-thickness-normal{stroke-width:1px;}#g9f446e3c-1ccb-4e73-88e4-44b20a4b951e-light .edge-thickness-thick{stroke-width:3.5px;}#g9f446e3c-1ccb-4e73-88e4-44b20a4b951e-light .edge-pattern-solid{stroke-dasharray:0;}#g9f446e3c-1ccb-4e73-88e4-44b20a4b951e-light .edge-thickness-invisible{stroke-width:0;fill:none;}#g9f446e3c-1ccb-4e73-88e4-44b20a4b951e-light .edge-pattern-dashed{stroke-dasharray:3;}#g9f446e3c-1ccb-4e73-88e4-44b20a4b951e-light .edge-pattern-dotted{stroke-dasharray:2;}#g9f446e3c-1ccb-4e73-88e4-44b20a4b951e-light .marker{fill:#333333;stroke:#333333;}#g9f446e3c-1ccb-4e73-88e4-44b20a4b951e-light .marker.cross{stroke:#333333;}#g9f446e3c-1ccb-4e73-88e4-44b20a4b951e-light svg{font-family:"trebuchet ms",verdana,arial,sans-serif;font-size:16px;}#g9f446e3c-1ccb-4e73-88e4-44b20a4b951e-light p{margin:0;}#g9f446e3c-1ccb-4e73-88e4-44b20a4b951e-light defs [id$="-barbEnd"]{fill:#333333;stroke:#333333;}#g9f446e3c-1ccb-4e73-88e4-44b20a4b951e-light g.stateGroup text{fill:#9370DB;stroke:none;font-size:10px;}#g9f446e3c-1ccb-4e73-88e4-44b20a4b951e-light g.stateGroup text{fill:#333;stroke:none;font-size:10px;}#g9f446e3c-1ccb-4e73-88e4-44b20a4b951e-light g.stateGroup .state-title{font-weight:bolder;fill:#131300;}#g9f446e3c-1ccb-4e73-88e4-44b20a4b951e-light g.stateGroup rect{fill:#ECECFF;stroke:#9370DB;}#g9f446e3c-1ccb-4e73-88e4-44b20a4b951e-light g.stateGroup line{stroke:#333333;stroke-width:1;}#g9f446e3c-1ccb-4e73-88e4-44b20a4b951e-light .transition{stroke:#333333;stroke-width:1;fill:none;}#g9f446e3c-1ccb-4e73-88e4-44b20a4b951e-light .stateGroup .composit{fill:white;border-bottom:1px;}#g9f446e3c-1ccb-4e73-88e4-44b20a4b951e-light .stateGroup .alt-composit{fill:#e0e0e0;border-bottom:1px;}#g9f446e3c-1ccb-4e73-88e4-44b20a4b951e-light .state-note{stroke:#aaaa33;fill:#fff5ad;}#g9f446e3c-1ccb-4e73-88e4-44b20a4b951e-light .state-note text{fill:black;stroke:none;font-size:10px;}#g9f446e3c-1ccb-4e73-88e4-44b20a4b951e-light .stateLabel .box{stroke:none;stroke-width:0;fill:#ECECFF;opacity:0.5;}#g9f446e3c-1ccb-4e73-88e4-44b20a4b951e-light .edgeLabel .label rect{fill:#ECECFF;opacity:0.5;}#g9f446e3c-1ccb-4e73-88e4-44b20a4b951e-light .edgeLabel{background-color:rgba(232,232,232, 0.8);text-align:center;}#g9f446e3c-1ccb-4e73-88e4-44b20a4b951e-light .edgeLabel p{background-color:rgba(232,232,232, 0.8);}#g9f446e3c-1ccb-4e73-88e4-44b20a4b951e-light .edgeLabel rect{opacity:0.5;background-color:rgba(232,232,232, 0.8);fill:rgba(232,232,232, 0.8);}#g9f446e3c-1ccb-4e73-88e4-44b20a4b951e-light .edgeLabel .label text{fill:#333;}#g9f446e3c-1ccb-4e73-88e4-44b20a4b951e-light .label div .edgeLabel{color:#333;}#g9f446e3c-1ccb-4e73-88e4-44b20a4b951e-light .stateLabel text{fill:#131300;font-size:10px;font-weight:bold;}#g9f446e3c-1ccb-4e73-88e4-44b20a4b951e-light .node circle.state-start{fill:#333333;stroke:#333333;}#g9f446e3c-1ccb-4e73-88e4-44b20a4b951e-light .node .fork-join{fill:#333333;stroke:#333333;}#g9f446e3c-1ccb-4e73-88e4-44b20a4b951e-light .node circle.state-end{fill:#9370DB;stroke:white;stroke-width:1.5;}#g9f446e3c-1ccb-4e73-88e4-44b20a4b951e-light .end-state-inner{fill:white;stroke-width:1.5;}#g9f446e3c-1ccb-4e73-88e4-44b20a4b951e-light .node rect{fill:#ECECFF;stroke:#9370DB;stroke-width:1px;}#g9f446e3c-1ccb-4e73-88e4-44b20a4b951e-light .node polygon{fill:#ECECFF;stroke:#9370DB;stroke-width:1px;}#g9f446e3c-1ccb-4e73-88e4-44b20a4b951e-light [id$="-barbEnd"]{fill:#333333;}#g9f446e3c-1ccb-4e73-88e4-44b20a4b951e-light .statediagram-cluster rect{fill:#ECECFF;stroke:#9370DB;stroke-width:1px;}#g9f446e3c-1ccb-4e73-88e4-44b20a4b951e-light .cluster-label,#g9f446e3c-1ccb-4e73-88e4-44b20a4b951e-light .nodeLabel{color:#131300;}#g9f446e3c-1ccb-4e73-88e4-44b20a4b951e-light .statediagram-cluster rect.outer{rx:5px;ry:5px;}#g9f446e3c-1ccb-4e73-88e4-44b20a4b951e-light .statediagram-state .divider{stroke:#9370DB;}#g9f446e3c-1ccb-4e73-88e4-44b20a4b951e-light .statediagram-state .title-state{rx:5px;ry:5px;}#g9f446e3c-1ccb-4e73-88e4-44b20a4b951e-light .statediagram-cluster.statediagram-cluster .inner{fill:white;}#g9f446e3c-1ccb-4e73-88e4-44b20a4b951e-light .statediagram-cluster.statediagram-cluster-alt .inner{fill:#f0f0f0;}#g9f446e3c-1ccb-4e73-88e4-44b20a4b951e-light .statediagram-cluster .inner{rx:0;ry:0;}#g9f446e3c-1ccb-4e73-88e4-44b20a4b951e-light .statediagram-state rect.basic{rx:5px;ry:5px;}#g9f446e3c-1ccb-4e73-88e4-44b20a4b951e-light .statediagram-state rect.divider{stroke-dasharray:10,10;fill:#f0f0f0;}#g9f446e3c-1ccb-4e73-88e4-44b20a4b951e-light .note-edge{stroke-dasharray:5;}#g9f446e3c-1ccb-4e73-88e4-44b20a4b951e-light .statediagram-note rect{fill:#fff5ad;stroke:#aaaa33;stroke-width:1px;rx:0;ry:0;}#g9f446e3c-1ccb-4e73-88e4-44b20a4b951e-light .statediagram-note rect{fill:#fff5ad;stroke:#aaaa33;stroke-width:1px;rx:0;ry:0;}#g9f446e3c-1ccb-4e73-88e4-44b20a4b951e-light .statediagram-note text{fill:black;}#g9f446e3c-1ccb-4e73-88e4-44b20a4b951e-light .statediagram-note .nodeLabel{color:black;}#g9f446e3c-1ccb-4e73-88e4-44b20a4b951e-light .statediagram .edgeLabel{color:red;}#g9f446e3c-1ccb-4e73-88e4-44b20a4b951e-light [id$="-dependencyStart"],#g9f446e3c-1ccb-4e73-88e4-44b20a4b951e-light [id$="-dependencyEnd"]{fill:#333333;stroke:#333333;stroke-width:1;}#g9f446e3c-1ccb-4e73-88e4-44b20a4b951e-light .statediagramTitleText{text-anchor:middle;font-size:18px;fill:#333;}#g9f446e3c-1ccb-4e73-88e4-44b20a4b951e-light [data-look="neo"].statediagram-cluster rect{fill:#ECECFF;stroke:#9370DB;stroke-width:1;}#g9f446e3c-1ccb-4e73-88e4-44b20a4b951e-light [data-look="neo"].statediagram-cluster rect.outer{rx:5px;ry:5px;filter:drop-shadow(1px 2px 2px rgba(185, 185, 185, 1));}#g9f446e3c-1ccb-4e73-88e4-44b20a4b951e-light .node .neo-node{stroke:#9370DB;}#g9f446e3c-1ccb-4e73-88e4-44b20a4b951e-light [data-look="neo"].node rect,#g9f446e3c-1ccb-4e73-88e4-44b20a4b951e-light [data-look="neo"].cluster rect,#g9f446e3c-1ccb-4e73-88e4-44b20a4b951e-light [data-look="neo"].node polygon{stroke:#9370DB;filter:drop-shadow(1px 2px 2px rgba(185, 185, 185, 1));}#g9f446e3c-1ccb-4e73-88e4-44b20a4b951e-light [data-look="neo"].node path{stroke:#9370DB;stroke-width:1px;}#g9f446e3c-1ccb-4e73-88e4-44b20a4b951e-light [data-look="neo"].node .outer-path{filter:drop-shadow(1px 2px 2px rgba(185, 185, 185, 1));}#g9f446e3c-1ccb-4e73-88e4-44b20a4b951e-light [data-look="neo"].node .neo-line path{stroke:#9370DB;filter:none;}#g9f446e3c-1ccb-4e73-88e4-44b20a4b951e-light [data-look="neo"].node circle{stroke:#9370DB;filter:drop-shadow(1px 2px 2px rgba(185, 185, 185, 1));}#g9f446e3c-1ccb-4e73-88e4-44b20a4b951e-light [data-look="neo"].node circle .state-start{fill:#000000;}#g9f446e3c-1ccb-4e73-88e4-44b20a4b951e-light [data-look="neo"].icon-shape .icon{fill:#9370DB;filter:drop-shadow(1px 2px 2px rgba(185, 185, 185, 1));}#g9f446e3c-1ccb-4e73-88e4-44b20a4b951e-light [data-look="neo"].icon-shape .icon-neo path{stroke:#9370DB;filter:drop-shadow(1px 2px 2px rgba(185, 185, 185, 1));}#g9f446e3c-1ccb-4e73-88e4-44b20a4b951e-light :root{--mermaid-font-family:"trebuchet ms",verdana,arial,sans-serif;}</style><g><defs><marker id="g9f446e3c-1ccb-4e73-88e4-44b20a4b951e-light_stateDiagram-barbEnd" refX="19" refY="7" markerWidth="20" markerHeight="14" markerUnits="userSpaceOnUse" orient="auto"><path d="M 19,7 L9,13 L14,7 L9,1 Z"></path></marker></defs><g class="root"><g class="clusters"></g><g class="edgePaths"><path d="M476.75,22L476.75,28.083C476.75,34.167,476.75,46.333,476.75,58.5C476.75,70.667,476.75,82.833,476.75,88.917L476.75,95" id="g9f446e3c-1ccb-4e73-88e4-44b20a4b951e-light-edge0" class="edge-thickness-normal edge-pattern-solid transition" style="fill:none;;;fill:none" data-edge="true" data-et="edge" data-id="edge0" data-points="W3sieCI6NDc2Ljc1LCJ5IjoyMn0seyJ4Ijo0NzYuNzUsInkiOjU4LjV9LHsieCI6NDc2Ljc1LCJ5Ijo5NX1d" data-look="classic" marker-end="url(#g9f446e3c-1ccb-4e73-88e4-44b20a4b951e-light_stateDiagram-barbEnd)"></path><path d="M507.164,117.535L565.321,127.162C623.478,136.79,739.792,156.045,797.949,176.597C856.105,197.15,856.105,219,856.105,229.925L856.105,240.85" id="g9f446e3c-1ccb-4e73-88e4-44b20a4b951e-light-Active-cyclic-special-1" class="edge-thickness-normal edge-pattern-solid transition" style="fill:none;;;fill:none" data-edge="true" data-et="edge" data-id="Active-cyclic-special-1" data-points="W3sieCI6NTA3LjE2NDA2MjUsInkiOjExNy41MzQ4NjM3NjAwNzU3Mn0seyJ4Ijo4NTYuMTA1NDY4NzUsInkiOjE3NS4yOTk5OTkyMzcwNjA1NX0seyJ4Ijo4NTYuMTA1NDY4NzUsInkiOjI0MC44NDk5OTc3MTA0MzY1OH1d" data-look="classic"></path><path d="M856.105,240.95L856.105,251.875C856.105,262.8,856.105,284.65,864.647,306.033C873.19,327.417,890.274,348.333,898.816,358.792L907.358,369.25" id="g9f446e3c-1ccb-4e73-88e4-44b20a4b951e-light-Active-cyclic-special-mid" class="edge-thickness-normal edge-pattern-solid transition" style="fill:none;;;fill:none" data-edge="true" data-et="edge" data-id="Active-cyclic-special-mid" data-points="W3sieCI6ODU2LjEwNTQ2ODc1LCJ5IjoyNDAuOTQ5OTk3NzExOTI2N30seyJ4Ijo4NTYuMTA1NDY4NzUsInkiOjMwNi40OTk5OTYxODUzMDI3M30seyJ4Ijo5MDcuMzU3NTk5MTQ3OTc5NywieSI6MzY5LjI0OTk5NTQyMTYxODJ9XQ==" data-look="classic"></path><path d="M907.439,369.25L915.981,358.792C924.523,348.333,941.607,327.417,950.149,306.025C958.691,284.633,958.691,262.767,958.691,240.9C958.691,219.033,958.691,197.167,883.437,176.427C808.182,155.688,657.673,136.075,582.419,126.269L507.164,116.463" id="g9f446e3c-1ccb-4e73-88e4-44b20a4b951e-light-Active-cyclic-special-2" class="edge-thickness-normal edge-pattern-solid transition" style="fill:none;;;fill:none" data-edge="true" data-et="edge" data-id="Active-cyclic-special-2" data-points="W3sieCI6OTA3LjQzOTI3NTg1MjAyMDMsInkiOjM2OS4yNDk5OTU0MjE2MTgyfSx7IngiOjk1OC42OTE0MDYyNSwieSI6MzA2LjQ5OTk5NjE4NTMwMjczfSx7IngiOjk1OC42OTE0MDYyNSwieSI6MjQwLjg5OTk5NzcxMTE4MTY0fSx7IngiOjk1OC42OTE0MDYyNSwieSI6MTc1LjI5OTk5OTIzNzA2MDU1fSx7IngiOjUwNy4xNjQwNjI1LCJ5IjoxMTYuNDYzMTQzODExNzI5NTJ9XQ==" data-look="classic" marker-end="url(#g9f446e3c-1ccb-4e73-88e4-44b20a4b951e-light_stateDiagram-barbEnd)"></path><path d="M446.336,120.206L410.096,129.389C373.857,138.571,301.378,156.935,275.315,174.134C249.252,191.333,269.606,207.367,279.783,215.383L289.96,223.4" id="g9f446e3c-1ccb-4e73-88e4-44b20a4b951e-light-edge3" class="edge-thickness-normal edge-pattern-solid transition" style="fill:none;;;fill:none" data-edge="true" data-et="edge" data-id="edge3" data-points="W3sieCI6NDQ2LjMzNTkzNzUsInkiOjEyMC4yMDYyMzc4ODkwNDI2MX0seyJ4IjoyMjguODk4NDM3NSwieSI6MTc1LjI5OTk5OTIzNzA2MDU1fSx7IngiOjI4OS45NjAwMjU5MjE4OTcwNiwieSI6MjIzLjM5OTk5NzcxMTE4MTY0fV0=" data-look="classic" marker-end="url(#g9f446e3c-1ccb-4e73-88e4-44b20a4b951e-light_stateDiagram-barbEnd)"></path><path d="M334.392,223.4L344.568,215.383C354.745,207.367,375.099,191.333,395.05,175.767C415.001,160.2,434.548,145.1,444.322,137.55L454.096,130" id="g9f446e3c-1ccb-4e73-88e4-44b20a4b951e-light-edge4" class="edge-thickness-normal edge-pattern-solid transition" style="fill:none;;;fill:none" data-edge="true" data-et="edge" data-id="edge4" data-points="W3sieCI6MzM0LjM5MTUzNjU3ODEwMjk0LCJ5IjoyMjMuMzk5OTk3NzExMTgxNjR9LHsieCI6Mzk1LjQ1MzEyNSwieSI6MTc1LjI5OTk5OTIzNzA2MDU1fSx7IngiOjQ1NC4wOTU2MTU3Njc3NzE5LCJ5IjoxMzB9XQ==" data-look="classic" marker-end="url(#g9f446e3c-1ccb-4e73-88e4-44b20a4b951e-light_stateDiagram-barbEnd)"></path><path d="M446.336,117.685L390.016,127.288C333.695,136.89,221.055,156.095,164.734,176.631C108.414,197.167,108.414,219.033,108.414,240.9C108.414,262.767,108.414,284.633,123.624,303.327C138.835,322.021,169.255,337.543,184.465,345.304L199.676,353.064" id="g9f446e3c-1ccb-4e73-88e4-44b20a4b951e-light-edge5" class="edge-thickness-normal edge-pattern-solid transition" style="fill:none;;;fill:none" data-edge="true" data-et="edge" data-id="edge5" data-points="W3sieCI6NDQ2LjMzNTkzNzUsInkiOjExNy42ODU0OTIxMjEwMjMxMn0seyJ4IjoxMDguNDE0MDYyNSwieSI6MTc1LjI5OTk5OTIzNzA2MDU1fSx7IngiOjEwOC40MTQwNjI1LCJ5IjoyNDAuODk5OTk3NzExMTgxNjR9LHsieCI6MTA4LjQxNDA2MjUsInkiOjMwNi40OTk5OTYxODUzMDI3M30seyJ4IjoxOTkuNjc1NzgxMjUsInkiOjM1My4wNjQzNTUwMDg5ODYzfV0=" data-look="classic" marker-end="url(#g9f446e3c-1ccb-4e73-88e4-44b20a4b951e-light_stateDiagram-barbEnd)"></path><path d="M312.176,258.4L312.176,266.417C312.176,274.433,312.176,290.467,302.476,306.033C292.777,321.6,273.378,336.7,263.678,344.25L253.978,351.8" id="g9f446e3c-1ccb-4e73-88e4-44b20a4b951e-light-edge6" class="edge-thickness-normal edge-pattern-solid transition" style="fill:none;;;fill:none" data-edge="true" data-et="edge" data-id="edge6" data-points="W3sieCI6MzEyLjE3NTc4MTI1LCJ5IjoyNTguMzk5OTk3NzExMTgxNjR9LHsieCI6MzEyLjE3NTc4MTI1LCJ5IjozMDYuNDk5OTk2MTg1MzAyNzN9LHsieCI6MjUzLjk3ODQ5MTAxNzU1OTA0LCJ5IjozNTEuNzk5OTk1NDIyMzYzM31d" data-look="classic" marker-end="url(#g9f446e3c-1ccb-4e73-88e4-44b20a4b951e-light_stateDiagram-barbEnd)"></path><path d="M491.651,130L498.079,137.55C504.508,145.1,517.365,160.2,523.794,178.683C530.223,197.167,530.223,219.033,530.223,240.9C530.223,262.767,530.223,284.633,537.535,303.117C544.848,321.6,559.473,336.7,566.785,344.25L574.097,351.8" id="g9f446e3c-1ccb-4e73-88e4-44b20a4b951e-light-edge7" class="edge-thickness-normal edge-pattern-solid transition" style="fill:none;;;fill:none" data-edge="true" data-et="edge" data-id="edge7" data-points="W3sieCI6NDkxLjY1MDgxOTk5NTkxNDQsInkiOjEzMH0seyJ4Ijo1MzAuMjIyNjU2MjUsInkiOjE3NS4yOTk5OTkyMzcwNjA1NX0seyJ4Ijo1MzAuMjIyNjU2MjUsInkiOjI0MC44OTk5OTc3MTExODE2NH0seyJ4Ijo1MzAuMjIyNjU2MjUsInkiOjMwNi40OTk5OTYxODUzMDI3M30seyJ4Ijo1NzQuMDk3NDUwNzc5MzU2OSwieSI6MzUxLjc5OTk5NTQyMjM2MzN9XQ==" data-look="classic" marker-end="url(#g9f446e3c-1ccb-4e73-88e4-44b20a4b951e-light_stateDiagram-barbEnd)"></path><path d="M338.121,245.91L390.413,256.009C442.704,266.107,547.288,286.303,592.267,303.952C637.246,321.6,622.621,336.7,615.309,344.25L607.996,351.8" id="g9f446e3c-1ccb-4e73-88e4-44b20a4b951e-light-edge8" class="edge-thickness-normal edge-pattern-solid transition" style="fill:none;;;fill:none" data-edge="true" data-et="edge" data-id="edge8" data-points="W3sieCI6MzM4LjEyMTA5Mzc1LCJ5IjoyNDUuOTEwNDA2NzM4ODYxN30seyJ4Ijo2NTEuODcxMDkzNzUsInkiOjMwNi40OTk5OTYxODUzMDI3M30seyJ4Ijo2MDcuOTk2Mjk5MjIwNjQzMSwieSI6MzUxLjc5OTk5NTQyMjM2MzN9XQ==" data-look="classic" marker-end="url(#g9f446e3c-1ccb-4e73-88e4-44b20a4b951e-light_stateDiagram-barbEnd)"></path><path d="M231.496,386.8L231.496,392.883C231.496,398.967,231.496,411.133,254.066,424.125C276.637,437.116,321.777,450.933,344.347,457.841L366.917,464.749" id="g9f446e3c-1ccb-4e73-88e4-44b20a4b951e-light-edge9" class="edge-thickness-normal edge-pattern-solid transition" style="fill:none;;;fill:none" data-edge="true" data-et="edge" data-id="edge9" data-points="W3sieCI6MjMxLjQ5NjA5Mzc1LCJ5IjozODYuNzk5OTk1NDIyMzYzM30seyJ4IjoyMzEuNDk2MDkzNzUsInkiOjQyMy4yOTk5OTU0MjIzNjMzfSx7IngiOjM2Ni45MTczNDcxMDUzNTY0LCJ5Ijo0NjQuNzQ5MzI4MjgwMTYwODV9XQ==" data-look="classic" marker-end="url(#g9f446e3c-1ccb-4e73-88e4-44b20a4b951e-light_stateDiagram-barbEnd)"></path><path d="M591.047,386.8L591.047,392.883C591.047,398.967,591.047,411.133,555.954,424.238C520.86,437.342,450.674,451.384,415.581,458.405L380.488,465.425" id="g9f446e3c-1ccb-4e73-88e4-44b20a4b951e-light-edge10" class="edge-thickness-normal edge-pattern-solid transition" style="fill:none;;;fill:none" data-edge="true" data-et="edge" data-id="edge10" data-points="W3sieCI6NTkxLjA0Njg3NSwieSI6Mzg2Ljc5OTk5NTQyMjM2MzN9LHsieCI6NTkxLjA0Njg3NSwieSI6NDIzLjI5OTk5NTQyMjM2MzN9LHsieCI6MzgwLjQ4NzY4NDMyMzM0MjYsInkiOjQ2NS40MjU0NTE3MDA4ODgyM31d" data-look="classic" marker-end="url(#g9f446e3c-1ccb-4e73-88e4-44b20a4b951e-light_stateDiagram-barbEnd)"></path></g><g class="edgeLabels"><g class="edgeLabel" transform="translate(476.75, 58.5)"><g class="label" data-id="edge0" transform="translate(0, -10.5)"><g><rect class="background" style="" x="-99.3515625" y="-1" width="198.703125" height="23"></rect><text y="-10.1" text-anchor="middle" style=""><tspan class="text-outer-tspan row" x="0" y="-0.1em" dy="1.1em" text-anchor="middle"><tspan font-style="normal" class="text-inner-tspan" font-weight="normal">App</tspan><tspan font-style="normal" class="text-inner-tspan" font-weight="normal"> install</tspan><tspan font-style="normal" class="text-inner-tspan" font-weight="normal"> /</tspan><tspan font-style="normal" class="text-inner-tspan" font-weight="normal"> token</tspan><tspan font-style="normal" class="text-inner-tspan" font-weight="normal"> register</tspan></tspan></text></g></g></g><g class="edgeLabel"><g class="label" data-id="Active-cyclic-special-1" transform="translate(0, 0)"><text y="-10.1" text-anchor="middle"><tspan class="text-outer-tspan row" x="0" y="-0.1em" dy="1.1em" text-anchor="middle"></tspan></text></g></g><g><rect class="background" style="stroke: none"></rect></g><g class="edgeLabel" transform="translate(856.10546875, 306.49999618530273)"><g class="label" data-id="Active-cyclic-special-mid" transform="translate(0, -10.5)"><g><rect class="background" style="" x="-82.5859375" y="-1" width="165.171875" height="23"></rect><text y="-10.1" text-anchor="middle" style=""><tspan class="text-outer-tspan row" x="0" y="-0.1em" dy="1.1em" text-anchor="middle"><tspan font-style="normal" class="text-inner-tspan" font-weight="normal">Token</tspan><tspan font-style="normal" class="text-inner-tspan" font-weight="normal"> refresh</tspan><tspan font-style="normal" class="text-inner-tspan" font-weight="normal"> callback</tspan></tspan></text></g></g></g><g class="edgeLabel"><g class="label" data-id="Active-cyclic-special-2" transform="translate(0, 0)"><text y="-10.1" text-anchor="middle"><tspan class="text-outer-tspan row" x="0" y="-0.1em" dy="1.1em" text-anchor="middle"></tspan></text></g></g><g><rect class="background" style="stroke: none"></rect></g><g class="edgeLabel" transform="translate(299.94219, 157.29911)"><g class="label" data-id="edge3" transform="translate(0, -10.5)"><g><rect class="background" style="" x="-59.609375" y="-1" width="119.21875" height="23"></rect><text y="-10.1" text-anchor="middle" style=""><tspan class="text-outer-tspan row" x="0" y="-0.1em" dy="1.1em" text-anchor="middle"><tspan font-style="normal" class="text-inner-tspan" font-weight="normal">30</tspan><tspan font-style="normal" class="text-inner-tspan" font-weight="normal"> days</tspan><tspan font-style="normal" class="text-inner-tspan" font-weight="normal"> inactive</tspan></tspan></text></g></g></g><g class="edgeLabel" transform="translate(395.453125, 175.29999923706055)"><g class="label" data-id="edge4" transform="translate(0, -19.299999237060547)"><g><rect class="background" style="" x="-86.9453125" y="-1" width="173.890625" height="40.599998474121094"></rect><text y="-10.1" text-anchor="middle" style=""><tspan class="text-outer-tspan row" x="0" y="-0.1em" dy="1.1em" text-anchor="middle"><tspan font-style="normal" class="text-inner-tspan" font-weight="normal">User</tspan><tspan font-style="normal" class="text-inner-tspan" font-weight="normal"> opens</tspan><tspan font-style="normal" class="text-inner-tspan" font-weight="normal"> app\n(token</tspan></tspan><tspan class="text-outer-tspan row" x="0" y="1em" dy="1.1em" text-anchor="middle"><tspan font-style="normal" class="text-inner-tspan" font-weight="normal">re-validated)</tspan></tspan></text></g></g></g><g class="edgeLabel" transform="translate(108.4140625, 240.89999771118164)"><g class="label" data-id="edge5" transform="translate(0, -10.5)"><g><rect class="background" style="" x="-100.4140625" y="-1" width="200.828125" height="23"></rect><text y="-10.1" text-anchor="middle" style=""><tspan class="text-outer-tspan row" x="0" y="-0.1em" dy="1.1em" text-anchor="middle"><tspan font-style="normal" class="text-inner-tspan" font-weight="normal">404</tspan><tspan font-style="normal" class="text-inner-tspan" font-weight="normal"> UNREGISTERED</tspan><tspan font-style="normal" class="text-inner-tspan" font-weight="normal"> on</tspan><tspan font-style="normal" class="text-inner-tspan" font-weight="normal"> send</tspan></tspan></text></g></g></g><g class="edgeLabel" transform="translate(312.17578125, 306.49999618530273)"><g class="label" data-id="edge6" transform="translate(0, -10.5)"><g><rect class="background" style="" x="-100.4140625" y="-1" width="200.828125" height="23"></rect><text y="-10.1" text-anchor="middle" style=""><tspan class="text-outer-tspan row" x="0" y="-0.1em" dy="1.1em" text-anchor="middle"><tspan font-style="normal" class="text-inner-tspan" font-weight="normal">404</tspan><tspan font-style="normal" class="text-inner-tspan" font-weight="normal"> UNREGISTERED</tspan><tspan font-style="normal" class="text-inner-tspan" font-weight="normal"> on</tspan><tspan font-style="normal" class="text-inner-tspan" font-weight="normal"> send</tspan></tspan></text></g></g></g><g class="edgeLabel" transform="translate(530.22265625, 240.89999771118164)"><g class="label" data-id="edge7" transform="translate(0, -19.299999237060547)"><g><rect class="background" style="" x="-101.6484375" y="-1" width="203.296875" height="40.599998474121094"></rect><text y="-10.1" text-anchor="middle" style=""><tspan class="text-outer-tspan row" x="0" y="-0.1em" dy="1.1em" text-anchor="middle"><tspan font-style="normal" class="text-inner-tspan" font-weight="normal">270</tspan><tspan font-style="normal" class="text-inner-tspan" font-weight="normal"> days</tspan><tspan font-style="normal" class="text-inner-tspan" font-weight="normal"> inactive\n(Android</tspan></tspan><tspan class="text-outer-tspan row" x="0" y="1em" dy="1.1em" text-anchor="middle"><tspan font-style="normal" class="text-inner-tspan" font-weight="normal">FCM)</tspan></tspan></text></g></g></g><g class="edgeLabel" transform="translate(525.95616, 282.18403)"><g class="label" data-id="edge8" transform="translate(0, -19.299999237060547)"><g><rect class="background" style="" x="-101.6484375" y="-1" width="203.296875" height="40.599998474121094"></rect><text y="-10.1" text-anchor="middle" style=""><tspan class="text-outer-tspan row" x="0" y="-0.1em" dy="1.1em" text-anchor="middle"><tspan font-style="normal" class="text-inner-tspan" font-weight="normal">270</tspan><tspan font-style="normal" class="text-inner-tspan" font-weight="normal"> days</tspan><tspan font-style="normal" class="text-inner-tspan" font-weight="normal"> inactive\n(Android</tspan></tspan><tspan class="text-outer-tspan row" x="0" y="1em" dy="1.1em" text-anchor="middle"><tspan font-style="normal" class="text-inner-tspan" font-weight="normal">FCM)</tspan></tspan></text></g></g></g><g class="edgeLabel" transform="translate(231.49609375, 423.2999954223633)"><g class="label" data-id="edge9" transform="translate(0, -10.5)"><g><rect class="background" style="" x="-71.3828125" y="-1" width="142.765625" height="23"></rect><text y="-10.1" text-anchor="middle" style=""><tspan class="text-outer-tspan row" x="0" y="-0.1em" dy="1.1em" text-anchor="middle"><tspan font-style="normal" class="text-inner-tspan" font-weight="normal">Purge</tspan><tspan font-style="normal" class="text-inner-tspan" font-weight="normal"> from</tspan><tspan font-style="normal" class="text-inner-tspan" font-weight="normal"> registry</tspan></tspan></text></g></g></g><g class="edgeLabel" transform="translate(591.046875, 423.2999954223633)"><g class="label" data-id="edge10" transform="translate(0, -10.5)"><g><rect class="background" style="" x="-71.3828125" y="-1" width="142.765625" height="23"></rect><text y="-10.1" text-anchor="middle" style=""><tspan class="text-outer-tspan row" x="0" y="-0.1em" dy="1.1em" text-anchor="middle"><tspan font-style="normal" class="text-inner-tspan" font-weight="normal">Purge</tspan><tspan font-style="normal" class="text-inner-tspan" font-weight="normal"> from</tspan><tspan font-style="normal" class="text-inner-tspan" font-weight="normal"> registry</tspan></tspan></text></g></g></g></g><g class="nodes"><g class="node default" id="g9f446e3c-1ccb-4e73-88e4-44b20a4b951e-light-state-root_start-0" data-look="classic" transform="translate(476.75, 15)"><circle class="state-start" r="7" width="14" height="14"></circle></g><g class="node  statediagram-state" id="g9f446e3c-1ccb-4e73-88e4-44b20a4b951e-light-state-Active-7" data-look="classic" transform="translate(476.75, 112.5)"><rect class="basic label-container" style="" rx="5" ry="5" x="-30.4140625" y="-17.5" width="60.828125" height="35"></rect><g class="label" style="" transform="translate(-22.4140625, -9.5)"><rect></rect><g><rect class="background" style="stroke: none"></rect><text y="-10.1" style=""><tspan class="text-outer-tspan row" x="0" y="-0.1em" dy="1.1em"><tspan font-style="normal" class="text-inner-tspan" font-weight="normal">Active</tspan></tspan></text></g></g></g><g class="node  statediagram-state" id="g9f446e3c-1ccb-4e73-88e4-44b20a4b951e-light-state-Stale-8" data-look="classic" transform="translate(312.17578125, 240.89999771118164)"><rect class="basic label-container" style="" rx="5" ry="5" x="-25.9453125" y="-17.5" width="51.890625" height="35"></rect><g class="label" style="" transform="translate(-17.9453125, -9.5)"><rect></rect><g><rect class="background" style="stroke: none"></rect><text y="-10.1" style=""><tspan class="text-outer-tspan row" x="0" y="-0.1em" dy="1.1em"><tspan font-style="normal" class="text-inner-tspan" font-weight="normal">Stale</tspan></tspan></text></g></g></g><g class="node  statediagram-state" id="g9f446e3c-1ccb-4e73-88e4-44b20a4b951e-light-state-Invalid-9" data-look="classic" transform="translate(231.49609375, 369.2999954223633)"><rect class="basic label-container" style="" rx="5" ry="5" x="-31.8203125" y="-17.5" width="63.640625" height="35"></rect><g class="label" style="" transform="translate(-23.8203125, -9.5)"><rect></rect><g><rect class="background" style="stroke: none"></rect><text y="-10.1" style=""><tspan class="text-outer-tspan row" x="0" y="-0.1em" dy="1.1em"><tspan font-style="normal" class="text-inner-tspan" font-weight="normal">Invalid</tspan></tspan></text></g></g></g><g class="node  statediagram-state" id="g9f446e3c-1ccb-4e73-88e4-44b20a4b951e-light-state-Expired-10" data-look="classic" transform="translate(591.046875, 369.2999954223633)"><rect class="basic label-container" style="" rx="5" ry="5" x="-34.9609375" y="-17.5" width="69.921875" height="35"></rect><g class="label" style="" transform="translate(-26.9609375, -9.5)"><rect></rect><g><rect class="background" style="stroke: none"></rect><text y="-10.1" style=""><tspan class="text-outer-tspan row" x="0" y="-0.1em" dy="1.1em"><tspan font-style="normal" class="text-inner-tspan" font-weight="normal">Expired</tspan></tspan></text></g></g></g><g class="node default" id="g9f446e3c-1ccb-4e73-88e4-44b20a4b951e-light-state-root_end-10" data-look="classic" transform="translate(373.6171875, 466.7999954223633)"><g class="outer-path"><path d="M7 0 C7 0.40517908122283747, 6.964012880168563 0.816513743121899, 6.893654271085456 1.2155372436685123 C6.823295662002349 1.6145607442151257, 6.716427752933756 2.013397210557766, 6.5778483455013586 2.394141003279681 C6.439268938068961 2.7748847960015954, 6.26476736710249 3.149104622578984, 6.062177826491071 3.4999999999999996 C5.859588285879653 3.8508953774210153, 5.622755194947063 4.189128084166967, 5.362311101832846 4.499513267805774 C5.10186700871863 4.809898451444582, 4.809898451444583 5.10186700871863, 4.499513267805775 5.362311101832846 C4.189128084166968 5.622755194947063, 3.8508953774210166 5.859588285879652, 3.500000000000001 6.06217782649107 C3.149104622578985 6.264767367102489, 2.7748847960015963 6.439268938068961, 2.3941410032796817 6.5778483455013586 C2.013397210557767 6.716427752933756, 1.6145607442151264 6.823295662002349, 1.2155372436685128 6.893654271085456 C0.8165137431218992 6.964012880168563, 0.4051790812228379 7, 4.286263797015736e-16 7 C-0.405179081222837 7, -0.8165137431218985 6.964012880168563, -1.2155372436685121 6.893654271085456 C-1.6145607442151257 6.823295662002349, -2.0133972105577667 6.716427752933756, -2.394141003279681 6.5778483455013586 C-2.774884796001595 6.439268938068961, -3.149104622578983 6.26476736710249, -3.4999999999999982 6.062177826491071 C-3.8508953774210135 5.859588285879653, -4.189128084166966 5.6227551949470636, -4.499513267805773 5.362311101832848 C-4.809898451444581 5.101867008718632, -5.101867008718628 4.809898451444586, -5.3623111018328435 4.499513267805779 C-5.622755194947059 4.189128084166971, -5.859588285879649 3.8508953774210206, -6.062177826491068 3.5000000000000053 C-6.264767367102486 3.14910462257899, -6.439268938068958 2.774884796001602, -6.577848345501356 2.394141003279688 C-6.716427752933754 2.0133972105577738, -6.823295662002347 1.614560744215134, -6.893654271085454 1.215537243668521 C-6.9640128801685615 0.816513743121908, -6.999999999999999 0.4051790812228472, -7 1.0183126166254463e-14 C-7.000000000000001 -0.40517908122282686, -6.964012880168565 -0.8165137431218878, -6.893654271085459 -1.215537243668501 C-6.823295662002352 -1.6145607442151142, -6.716427752933759 -2.0133972105577542, -6.577848345501363 -2.394141003279669 C-6.439268938068967 -2.7748847960015834, -6.264767367102496 -3.149104622578972, -6.062177826491078 -3.4999999999999876 C-5.859588285879661 -3.8508953774210033, -5.6227551949470715 -4.1891280841669545, -5.362311101832856 -4.499513267805763 C-5.10186700871864 -4.809898451444571, -4.809898451444594 -5.10186700871862, -4.499513267805787 -5.362311101832836 C-4.189128084166979 -5.622755194947053, -3.850895377421028 -5.859588285879643, -3.5000000000000133 -6.062177826491062 C-3.1491046225789985 -6.264767367102482, -2.774884796001611 -6.439268938068954, -2.3941410032796973 -6.577848345501353 C-2.0133972105577835 -6.716427752933752, -1.6145607442151435 -6.823295662002345, -1.2155372436685306 -6.893654271085453 C-0.8165137431219176 -6.9640128801685615, -0.40517908122285695 -6.999999999999999, -1.9937625952807352e-14 -7 C0.4051790812228171 -7.000000000000001, 0.8165137431218781 -6.964012880168565, 1.2155372436684913 -6.89365427108546 C1.6145607442151044 -6.823295662002354, 2.013397210557745 -6.716427752933763, 2.3941410032796595 -6.5778483455013665 C2.774884796001574 -6.43926893806897, 3.149104622578963 -6.2647673671025, 3.499999999999979 -6.062177826491083 C3.8508953774209953 -5.859588285879665, 4.189128084166947 -5.622755194947077, 4.499513267805756 -5.362311101832862 C4.809898451444564 -5.1018670087186475, 5.101867008718613 -4.809898451444602, 5.362311101832829 -4.499513267805796 C5.622755194947046 -4.189128084166989, 5.859588285879637 -3.8508953774210393, 6.062177826491056 -3.500000000000025 C6.2647673671024755 -3.1491046225790105, 6.439268938068949 -2.774884796001623, 6.577848345501348 -2.3941410032797092 C6.716427752933747 -2.0133972105577955, 6.823295662002342 -1.6145607442151562, 6.893654271085451 -1.2155372436685434 C6.96401288016856 -0.8165137431219307, 6.982275711847575 -0.2025895406114567, 7 -3.2800750208310675e-14 C7.017724288152425 0.2025895406113911, 7.017724288152424 -0.2025895406114242, 7 0" stroke="none" stroke-width="0" fill="#ECECFF" style=""></path><path d="M7 0 C7 0.40517908122283747, 6.964012880168563 0.816513743121899, 6.893654271085456 1.2155372436685123 C6.823295662002349 1.6145607442151257, 6.716427752933756 2.013397210557766, 6.5778483455013586 2.394141003279681 C6.439268938068961 2.7748847960015954, 6.26476736710249 3.149104622578984, 6.062177826491071 3.4999999999999996 C5.859588285879653 3.8508953774210153, 5.622755194947063 4.189128084166967, 5.362311101832846 4.499513267805774 C5.10186700871863 4.809898451444582, 4.809898451444583 5.10186700871863, 4.499513267805775 5.362311101832846 C4.189128084166968 5.622755194947063, 3.8508953774210166 5.859588285879652, 3.500000000000001 6.06217782649107 C3.149104622578985 6.264767367102489, 2.7748847960015963 6.439268938068961, 2.3941410032796817 6.5778483455013586 C2.013397210557767 6.716427752933756, 1.6145607442151264 6.823295662002349, 1.2155372436685128 6.893654271085456 C0.8165137431218992 6.964012880168563, 0.4051790812228379 7, 4.286263797015736e-16 7 C-0.405179081222837 7, -0.8165137431218985 6.964012880168563, -1.2155372436685121 6.893654271085456 C-1.6145607442151257 6.823295662002349, -2.0133972105577667 6.716427752933756, -2.394141003279681 6.5778483455013586 C-2.774884796001595 6.439268938068961, -3.149104622578983 6.26476736710249, -3.4999999999999982 6.062177826491071 C-3.8508953774210135 5.859588285879653, -4.189128084166966 5.6227551949470636, -4.499513267805773 5.362311101832848 C-4.809898451444581 5.101867008718632, -5.101867008718628 4.809898451444586, -5.3623111018328435 4.499513267805779 C-5.622755194947059 4.189128084166971, -5.859588285879649 3.8508953774210206, -6.062177826491068 3.5000000000000053 C-6.264767367102486 3.14910462257899, -6.439268938068958 2.774884796001602, -6.577848345501356 2.394141003279688 C-6.716427752933754 2.0133972105577738, -6.823295662002347 1.614560744215134, -6.893654271085454 1.215537243668521 C-6.9640128801685615 0.816513743121908, -6.999999999999999 0.4051790812228472, -7 1.0183126166254463e-14 C-7.000000000000001 -0.40517908122282686, -6.964012880168565 -0.8165137431218878, -6.893654271085459 -1.215537243668501 C-6.823295662002352 -1.6145607442151142, -6.716427752933759 -2.0133972105577542, -6.577848345501363 -2.394141003279669 C-6.439268938068967 -2.7748847960015834, -6.264767367102496 -3.149104622578972, -6.062177826491078 -3.4999999999999876 C-5.859588285879661 -3.8508953774210033, -5.6227551949470715 -4.1891280841669545, -5.362311101832856 -4.499513267805763 C-5.10186700871864 -4.809898451444571, -4.809898451444594 -5.10186700871862, -4.499513267805787 -5.362311101832836 C-4.189128084166979 -5.622755194947053, -3.850895377421028 -5.859588285879643, -3.5000000000000133 -6.062177826491062 C-3.1491046225789985 -6.264767367102482, -2.774884796001611 -6.439268938068954, -2.3941410032796973 -6.577848345501353 C-2.0133972105577835 -6.716427752933752, -1.6145607442151435 -6.823295662002345, -1.2155372436685306 -6.893654271085453 C-0.8165137431219176 -6.9640128801685615, -0.40517908122285695 -6.999999999999999, -1.9937625952807352e-14 -7 C0.4051790812228171 -7.000000000000001, 0.8165137431218781 -6.964012880168565, 1.2155372436684913 -6.89365427108546 C1.6145607442151044 -6.823295662002354, 2.013397210557745 -6.716427752933763, 2.3941410032796595 -6.5778483455013665 C2.774884796001574 -6.43926893806897, 3.149104622578963 -6.2647673671025, 3.499999999999979 -6.062177826491083 C3.8508953774209953 -5.859588285879665, 4.189128084166947 -5.622755194947077, 4.499513267805756 -5.362311101832862 C4.809898451444564 -5.1018670087186475, 5.101867008718613 -4.809898451444602, 5.362311101832829 -4.499513267805796 C5.622755194947046 -4.189128084166989, 5.859588285879637 -3.8508953774210393, 6.062177826491056 -3.500000000000025 C6.2647673671024755 -3.1491046225790105, 6.439268938068949 -2.774884796001623, 6.577848345501348 -2.3941410032797092 C6.716427752933747 -2.0133972105577955, 6.823295662002342 -1.6145607442151562, 6.893654271085451 -1.2155372436685434 C6.96401288016856 -0.8165137431219307, 6.982275711847575 -0.2025895406114567, 7 -3.2800750208310675e-14 C7.017724288152425 0.2025895406113911, 7.017724288152424 -0.2025895406114242, 7 0" stroke="#333333" stroke-width="2" fill="none" stroke-dasharray="0 0" style=""></path><g><path d="M2.5 0 C2.5 0.14470681472244193, 2.487147457203058 0.29161205111496386, 2.46201938253052 0.4341204441673258 C2.436891307857982 0.5766288372196877, 2.3987241974763416 0.7190704323420595, 2.3492315519647713 0.8550503583141718 C2.299738906453201 0.991030284286284, 2.2374169168223177 1.124680222349637, 2.165063509461097 1.2499999999999998 C2.092710102099876 1.3753197776503625, 2.0081268553382365 1.496117172916774, 1.915111107797445 1.6069690242163481 C1.8220953602566536 1.7178208755159223, 1.7178208755159226 1.8220953602566536, 1.6069690242163484 1.915111107797445 C1.4961171729167742 2.0081268553382365, 1.375319777650363 2.0927101020998755, 1.2500000000000002 2.1650635094610964 C1.1246802223496375 2.2374169168223172, 0.9910302842862845 2.2997389064532, 0.8550503583141721 2.349231551964771 C0.7190704323420597 2.3987241974763416, 0.576628837219688 2.436891307857982, 0.43412044416732604 2.46201938253052 C0.291612051114964 2.487147457203058, 0.14470681472244212 2.5, 1.5308084989341916e-16 2.5 C-0.1447068147224418 2.5, -0.2916120511149638 2.487147457203058, -0.43412044416732576 2.46201938253052 C-0.5766288372196877 2.436891307857982, -0.7190704323420595 2.3987241974763416, -0.8550503583141718 2.3492315519647713 C-0.991030284286284 2.299738906453201, -1.124680222349637 2.2374169168223177, -1.2499999999999996 2.165063509461097 C-1.375319777650362 2.092710102099876, -1.4961171729167733 2.008126855338237, -1.6069690242163475 1.9151111077974459 C-1.7178208755159217 1.8220953602566548, -1.822095360256653 1.7178208755159234, -1.9151111077974443 1.6069690242163495 C-2.0081268553382357 1.4961171729167755, -2.0927101020998746 1.3753197776503645, -2.1650635094610955 1.250000000000002 C-2.2374169168223164 1.1246802223496395, -2.2997389064531992 0.9910302842862865, -2.34923155196477 0.8550503583141743 C-2.3987241974763407 0.7190704323420621, -2.436891307857981 0.5766288372196907, -2.4620193825305194 0.434120444167329 C-2.487147457203058 0.29161205111496724, -2.5 0.14470681472244545, -2.5 3.636830773662308e-15 C-2.5 -0.14470681472243818, -2.4871474572030587 -0.2916120511149599, -2.4620193825305208 -0.4341204441673218 C-2.436891307857983 -0.5766288372196837, -2.398724197476343 -0.7190704323420553, -2.3492315519647726 -0.8550503583141675 C-2.2997389064532023 -0.9910302842862798, -2.23741691682232 -1.1246802223496328, -2.165063509461099 -1.2499999999999956 C-2.092710102099878 -1.3753197776503583, -2.00812685533824 -1.4961171729167695, -1.9151111077974488 -1.606969024216344 C-1.8220953602566576 -1.7178208755159183, -1.7178208755159263 -1.82209536025665, -1.6069690242163523 -1.9151111077974416 C-1.4961171729167784 -2.0081268553382334, -1.3753197776503672 -2.0927101020998724, -1.2500000000000047 -2.1650635094610937 C-1.1246802223496422 -2.237416916822315, -0.9910302842862897 -2.299738906453198, -0.8550503583141776 -2.3492315519647686 C-0.7190704323420656 -2.3987241974763394, -0.5766288372196942 -2.4368913078579806, -0.43412044416733236 -2.462019382530519 C-0.29161205111497057 -2.4871474572030574, -0.1447068147224489 -2.4999999999999996, -7.120580697431198e-15 -2.5 C0.14470681472243463 -2.5000000000000004, 0.29161205111495647 -2.487147457203059, 0.4341204441673183 -2.4620193825305217 C0.5766288372196802 -2.436891307857984, 0.7190704323420518 -2.3987241974763442, 0.8550503583141642 -2.349231551964774 C0.9910302842862766 -2.2997389064532037, 1.1246802223496295 -2.2374169168223212, 1.2499999999999925 -2.165063509461101 C1.3753197776503554 -2.0927101020998804, 1.4961171729167668 -2.008126855338242, 1.6069690242163412 -1.915111107797451 C1.7178208755159157 -1.82209536025666, 1.8220953602566472 -1.7178208755159294, 1.915111107797439 -1.6069690242163557 C2.0081268553382308 -1.496117172916782, 2.09271010209987 -1.3753197776503712, 2.1650635094610915 -1.2500000000000089 C2.237416916822313 -1.1246802223496466, 2.299738906453196 -0.9910302842862939, 2.3492315519647673 -0.855050358314182 C2.3987241974763385 -0.71907043234207, 2.4368913078579792 -0.5766288372196986, 2.462019382530518 -0.4341204441673369 C2.487147457203057 -0.29161205111497523, 2.4936698970884197 -0.07235340736123454, 2.5 -1.1714553645825241e-14 C2.5063301029115803 0.07235340736121111, 2.50633010291158 -0.07235340736122292, 2.5 0" stroke="none" stroke-width="0" fill="#9370DB" style=""></path><path d="M2.5 0 C2.5 0.14470681472244193, 2.487147457203058 0.29161205111496386, 2.46201938253052 0.4341204441673258 C2.436891307857982 0.5766288372196877, 2.3987241974763416 0.7190704323420595, 2.3492315519647713 0.8550503583141718 C2.299738906453201 0.991030284286284, 2.2374169168223177 1.124680222349637, 2.165063509461097 1.2499999999999998 C2.092710102099876 1.3753197776503625, 2.0081268553382365 1.496117172916774, 1.915111107797445 1.6069690242163481 C1.8220953602566536 1.7178208755159223, 1.7178208755159226 1.8220953602566536, 1.6069690242163484 1.915111107797445 C1.4961171729167742 2.0081268553382365, 1.375319777650363 2.0927101020998755, 1.2500000000000002 2.1650635094610964 C1.1246802223496375 2.2374169168223172, 0.9910302842862845 2.2997389064532, 0.8550503583141721 2.349231551964771 C0.7190704323420597 2.3987241974763416, 0.576628837219688 2.436891307857982, 0.43412044416732604 2.46201938253052 C0.291612051114964 2.487147457203058, 0.14470681472244212 2.5, 1.5308084989341916e-16 2.5 C-0.1447068147224418 2.5, -0.2916120511149638 2.487147457203058, -0.43412044416732576 2.46201938253052 C-0.5766288372196877 2.436891307857982, -0.7190704323420595 2.3987241974763416, -0.8550503583141718 2.3492315519647713 C-0.991030284286284 2.299738906453201, -1.124680222349637 2.2374169168223177, -1.2499999999999996 2.165063509461097 C-1.375319777650362 2.092710102099876, -1.4961171729167733 2.008126855338237, -1.6069690242163475 1.9151111077974459 C-1.7178208755159217 1.8220953602566548, -1.822095360256653 1.7178208755159234, -1.9151111077974443 1.6069690242163495 C-2.0081268553382357 1.4961171729167755, -2.0927101020998746 1.3753197776503645, -2.1650635094610955 1.250000000000002 C-2.2374169168223164 1.1246802223496395, -2.2997389064531992 0.9910302842862865, -2.34923155196477 0.8550503583141743 C-2.3987241974763407 0.7190704323420621, -2.436891307857981 0.5766288372196907, -2.4620193825305194 0.434120444167329 C-2.487147457203058 0.29161205111496724, -2.5 0.14470681472244545, -2.5 3.636830773662308e-15 C-2.5 -0.14470681472243818, -2.4871474572030587 -0.2916120511149599, -2.4620193825305208 -0.4341204441673218 C-2.436891307857983 -0.5766288372196837, -2.398724197476343 -0.7190704323420553, -2.3492315519647726 -0.8550503583141675 C-2.2997389064532023 -0.9910302842862798, -2.23741691682232 -1.1246802223496328, -2.165063509461099 -1.2499999999999956 C-2.092710102099878 -1.3753197776503583, -2.00812685533824 -1.4961171729167695, -1.9151111077974488 -1.606969024216344 C-1.8220953602566576 -1.7178208755159183, -1.7178208755159263 -1.82209536025665, -1.6069690242163523 -1.9151111077974416 C-1.4961171729167784 -2.0081268553382334, -1.3753197776503672 -2.0927101020998724, -1.2500000000000047 -2.1650635094610937 C-1.1246802223496422 -2.237416916822315, -0.9910302842862897 -2.299738906453198, -0.8550503583141776 -2.3492315519647686 C-0.7190704323420656 -2.3987241974763394, -0.5766288372196942 -2.4368913078579806, -0.43412044416733236 -2.462019382530519 C-0.29161205111497057 -2.4871474572030574, -0.1447068147224489 -2.4999999999999996, -7.120580697431198e-15 -2.5 C0.14470681472243463 -2.5000000000000004, 0.29161205111495647 -2.487147457203059, 0.4341204441673183 -2.4620193825305217 C0.5766288372196802 -2.436891307857984, 0.7190704323420518 -2.3987241974763442, 0.8550503583141642 -2.349231551964774 C0.9910302842862766 -2.2997389064532037, 1.1246802223496295 -2.2374169168223212, 1.2499999999999925 -2.165063509461101 C1.3753197776503554 -2.0927101020998804, 1.4961171729167668 -2.008126855338242, 1.6069690242163412 -1.915111107797451 C1.7178208755159157 -1.82209536025666, 1.8220953602566472 -1.7178208755159294, 1.915111107797439 -1.6069690242163557 C2.0081268553382308 -1.496117172916782, 2.09271010209987 -1.3753197776503712, 2.1650635094610915 -1.2500000000000089 C2.237416916822313 -1.1246802223496466, 2.299738906453196 -0.9910302842862939, 2.3492315519647673 -0.855050358314182 C2.3987241974763385 -0.71907043234207, 2.4368913078579792 -0.5766288372196986, 2.462019382530518 -0.4341204441673369 C2.487147457203057 -0.29161205111497523, 2.4936698970884197 -0.07235340736123454, 2.5 -1.1714553645825241e-14 C2.5063301029115803 0.07235340736121111, 2.50633010291158 -0.07235340736122292, 2.5 0" stroke="#9370DB" stroke-width="2" fill="none" stroke-dasharray="0 0" style=""></path></g></g></g><g class="label edgeLabel" id="Active---Active---1" transform="translate(856.10546875, 240.89999771118164)"><rect width="0.1" height="0.1"></rect><g class="label" style="" transform="translate(0, 0)"><rect></rect><g><rect class="background" style="stroke: none"></rect><text y="-10.1" style=""><tspan class="text-outer-tspan row" x="0" y="-0.1em" dy="1.1em"></tspan></text></g></g></g><g class="label edgeLabel" id="Active---Active---2" transform="translate(907.3984375, 369.2999954223633)"><rect width="0.1" height="0.1"></rect><g class="label" style="" transform="translate(0, 0)"><rect></rect><g><rect class="background" style="stroke: none"></rect><text y="-10.1" style=""><tspan class="text-outer-tspan row" x="0" y="-0.1em" dy="1.1em"></tspan></text></g></g></g></g></g></g><defs><filter id="g9f446e3c-1ccb-4e73-88e4-44b20a4b951e-light-drop-shadow" height="130%" width="130%"><feDropShadow dx="4" dy="4" stdDeviation="0" flood-opacity="0.06" flood-color="#000000"></feDropShadow></filter></defs><defs><filter id="g9f446e3c-1ccb-4e73-88e4-44b20a4b951e-light-drop-shadow-small" height="150%" width="150%"><feDropShadow dx="2" dy="2" stdDeviation="0" flood-opacity="0.06" flood-color="#000000"></feDropShadow></filter></defs></svg>