<svg id="g5650d4fc-1491-4d1b-a5db-b57abe34ad0e-dark" width="100%" xmlns="http://www.w3.org/2000/svg" xmlns:xlink="http://www.w3.org/1999/xlink" class="flowchart" style="max-width: 979.0570068359375px;" viewBox="0 0 979.0570068359375 1367.9000244140625" role="graphics-document document" aria-roledescription="flowchart-v2"><style>#g5650d4fc-1491-4d1b-a5db-b57abe34ad0e-dark{font-family:"trebuchet ms",verdana,arial,sans-serif;font-size:16px;fill:#e5e5e5;}@keyframes edge-animation-frame{from{stroke-dashoffset:0;}}@keyframes dash{to{stroke-dashoffset:0;}}#g5650d4fc-1491-4d1b-a5db-b57abe34ad0e-dark .edge-animation-slow{stroke-dasharray:9,5!important;stroke-dashoffset:900;animation:dash 50s linear infinite;stroke-linecap:round;}#g5650d4fc-1491-4d1b-a5db-b57abe34ad0e-dark .edge-animation-fast{stroke-dasharray:9,5!important;stroke-dashoffset:900;animation:dash 20s linear infinite;stroke-linecap:round;}#g5650d4fc-1491-4d1b-a5db-b57abe34ad0e-dark .error-icon{fill:#252525;}#g5650d4fc-1491-4d1b-a5db-b57abe34ad0e-dark .error-text{fill:#cccccc;stroke:#cccccc;}#g5650d4fc-1491-4d1b-a5db-b57abe34ad0e-dark .edge-thickness-normal{stroke-width:1px;}#g5650d4fc-1491-4d1b-a5db-b57abe34ad0e-dark .edge-thickness-thick{stroke-width:3.5px;}#g5650d4fc-1491-4d1b-a5db-b57abe34ad0e-dark .edge-pattern-solid{stroke-dasharray:0;}#g5650d4fc-1491-4d1b-a5db-b57abe34ad0e-dark .edge-thickness-invisible{stroke-width:0;fill:none;}#g5650d4fc-1491-4d1b-a5db-b57abe34ad0e-dark .edge-pattern-dashed{stroke-dasharray:3;}#g5650d4fc-1491-4d1b-a5db-b57abe34ad0e-dark .edge-pattern-dotted{stroke-dasharray:2;}#g5650d4fc-1491-4d1b-a5db-b57abe34ad0e-dark .marker{fill:#cccccc;stroke:#cccccc;}#g5650d4fc-1491-4d1b-a5db-b57abe34ad0e-dark .marker.cross{stroke:#cccccc;}#g5650d4fc-1491-4d1b-a5db-b57abe34ad0e-dark svg{font-family:"trebuchet ms",verdana,arial,sans-serif;font-size:16px;}#g5650d4fc-1491-4d1b-a5db-b57abe34ad0e-dark p{margin:0;}#g5650d4fc-1491-4d1b-a5db-b57abe34ad0e-dark .label{font-family:"trebuchet ms",verdana,arial,sans-serif;color:#e5e5e5;}#g5650d4fc-1491-4d1b-a5db-b57abe34ad0e-dark .cluster-label text{fill:#e5e5e5;}#g5650d4fc-1491-4d1b-a5db-b57abe34ad0e-dark .cluster-label span{color:#e5e5e5;}#g5650d4fc-1491-4d1b-a5db-b57abe34ad0e-dark .cluster-label span p{background-color:transparent;}#g5650d4fc-1491-4d1b-a5db-b57abe34ad0e-dark .label text,#g5650d4fc-1491-4d1b-a5db-b57abe34ad0e-dark span{fill:#e5e5e5;color:#e5e5e5;}#g5650d4fc-1491-4d1b-a5db-b57abe34ad0e-dark .node rect,#g5650d4fc-1491-4d1b-a5db-b57abe34ad0e-dark .node circle,#g5650d4fc-1491-4d1b-a5db-b57abe34ad0e-dark .node ellipse,#g5650d4fc-1491-4d1b-a5db-b57abe34ad0e-dark .node polygon,#g5650d4fc-1491-4d1b-a5db-b57abe34ad0e-dark .node path{fill:#2d2d2d;stroke:#555555;stroke-width:1px;}#g5650d4fc-1491-4d1b-a5db-b57abe34ad0e-dark .rough-node .label text,#g5650d4fc-1491-4d1b-a5db-b57abe34ad0e-dark .node .label text,#g5650d4fc-1491-4d1b-a5db-b57abe34ad0e-dark .image-shape .label,#g5650d4fc-1491-4d1b-a5db-b57abe34ad0e-dark .icon-shape .label{text-anchor:middle;}#g5650d4fc-1491-4d1b-a5db-b57abe34ad0e-dark .node .katex path{fill:#000;stroke:#000;stroke-width:1px;}#g5650d4fc-1491-4d1b-a5db-b57abe34ad0e-dark .rough-node .label,#g5650d4fc-1491-4d1b-a5db-b57abe34ad0e-dark .node .label,#g5650d4fc-1491-4d1b-a5db-b57abe34ad0e-dark .image-shape .label,#g5650d4fc-1491-4d1b-a5db-b57abe34ad0e-dark .icon-shape .label{text-align:center;}#g5650d4fc-1491-4d1b-a5db-b57abe34ad0e-dark .node.clickable{cursor:pointer;}#g5650d4fc-1491-4d1b-a5db-b57abe34ad0e-dark .root .anchor path{fill:#cccccc!important;stroke-width:0;stroke:#cccccc;}#g5650d4fc-1491-4d1b-a5db-b57abe34ad0e-dark .arrowheadPath{fill:#cccccc;}#g5650d4fc-1491-4d1b-a5db-b57abe34ad0e-dark .edgePath .path{stroke:#cccccc;stroke-width:1px;}#g5650d4fc-1491-4d1b-a5db-b57abe34ad0e-dark .flowchart-link{stroke:#cccccc;fill:none;}#g5650d4fc-1491-4d1b-a5db-b57abe34ad0e-dark .edgeLabel{background-color:#1e1e1e;text-align:center;}#g5650d4fc-1491-4d1b-a5db-b57abe34ad0e-dark .edgeLabel p{background-color:#1e1e1e;}#g5650d4fc-1491-4d1b-a5db-b57abe34ad0e-dark .edgeLabel rect{opacity:0.5;background-color:#1e1e1e;fill:#1e1e1e;}#g5650d4fc-1491-4d1b-a5db-b57abe34ad0e-dark .labelBkg{background-color:rgba(30, 30, 30, 0.5);}#g5650d4fc-1491-4d1b-a5db-b57abe34ad0e-dark .cluster rect{fill:#1e1e1e;stroke:#555555;stroke-width:1px;}#g5650d4fc-1491-4d1b-a5db-b57abe34ad0e-dark .cluster text{fill:#e5e5e5;}#g5650d4fc-1491-4d1b-a5db-b57abe34ad0e-dark .cluster span{color:#e5e5e5;}#g5650d4fc-1491-4d1b-a5db-b57abe34ad0e-dark div.mermaidTooltip{position:absolute;text-align:center;max-width:200px;padding:2px;font-family:"trebuchet ms",verdana,arial,sans-serif;font-size:12px;background:#252525;border:1px solid #555555;border-radius:2px;pointer-events:none;z-index:100;}#g5650d4fc-1491-4d1b-a5db-b57abe34ad0e-dark .flowchartTitleText{text-anchor:middle;font-size:18px;fill:#e5e5e5;}#g5650d4fc-1491-4d1b-a5db-b57abe34ad0e-dark rect.text{fill:none;stroke-width:0;}#g5650d4fc-1491-4d1b-a5db-b57abe34ad0e-dark .icon-shape,#g5650d4fc-1491-4d1b-a5db-b57abe34ad0e-dark .image-shape{background-color:#1e1e1e;text-align:center;}#g5650d4fc-1491-4d1b-a5db-b57abe34ad0e-dark .icon-shape p,#g5650d4fc-1491-4d1b-a5db-b57abe34ad0e-dark .image-shape p{background-color:#1e1e1e;padding:2px;}#g5650d4fc-1491-4d1b-a5db-b57abe34ad0e-dark .icon-shape .label rect,#g5650d4fc-1491-4d1b-a5db-b57abe34ad0e-dark .image-shape .label rect{opacity:0.5;background-color:#1e1e1e;fill:#1e1e1e;}#g5650d4fc-1491-4d1b-a5db-b57abe34ad0e-dark .label-icon{display:inline-block;height:1em;overflow:visible;vertical-align:-0.125em;}#g5650d4fc-1491-4d1b-a5db-b57abe34ad0e-dark .node .label-icon path{fill:currentColor;stroke:revert;stroke-width:revert;}#g5650d4fc-1491-4d1b-a5db-b57abe34ad0e-dark .node .neo-node{stroke:#555555;}#g5650d4fc-1491-4d1b-a5db-b57abe34ad0e-dark [data-look="neo"].node rect,#g5650d4fc-1491-4d1b-a5db-b57abe34ad0e-dark [data-look="neo"].cluster rect,#g5650d4fc-1491-4d1b-a5db-b57abe34ad0e-dark [data-look="neo"].node polygon{stroke:url(#g5650d4fc-1491-4d1b-a5db-b57abe34ad0e-dark-gradient);filter:drop-shadow( 1px 2px 2px rgba(185,185,185,1));}#g5650d4fc-1491-4d1b-a5db-b57abe34ad0e-dark [data-look="neo"].node path{stroke:url(#g5650d4fc-1491-4d1b-a5db-b57abe34ad0e-dark-gradient);stroke-width:1px;}#g5650d4fc-1491-4d1b-a5db-b57abe34ad0e-dark [data-look="neo"].node .outer-path{filter:drop-shadow( 1px 2px 2px rgba(185,185,185,1));}#g5650d4fc-1491-4d1b-a5db-b57abe34ad0e-dark [data-look="neo"].node .neo-line path{stroke:#555555;filter:none;}#g5650d4fc-1491-4d1b-a5db-b57abe34ad0e-dark [data-look="neo"].node circle{stroke:url(#g5650d4fc-1491-4d1b-a5db-b57abe34ad0e-dark-gradient);filter:drop-shadow( 1px 2px 2px rgba(185,185,185,1));}#g5650d4fc-1491-4d1b-a5db-b57abe34ad0e-dark [data-look="neo"].node circle .state-start{fill:#000000;}#g5650d4fc-1491-4d1b-a5db-b57abe34ad0e-dark [data-look="neo"].icon-shape .icon{fill:url(#g5650d4fc-1491-4d1b-a5db-b57abe34ad0e-dark-gradient);filter:drop-shadow( 1px 2px 2px rgba(185,185,185,1));}#g5650d4fc-1491-4d1b-a5db-b57abe34ad0e-dark [data-look="neo"].icon-shape .icon-neo path{stroke:url(#g5650d4fc-1491-4d1b-a5db-b57abe34ad0e-dark-gradient);filter:drop-shadow( 1px 2px 2px rgba(185,185,185,1));}#g5650d4fc-1491-4d1b-a5db-b57abe34ad0e-dark :root{--mermaid-font-family:"trebuchet ms",verdana,arial,sans-serif;}#g5650d4fc-1491-4d1b-a5db-b57abe34ad0e-dark .note rect{fill:#fff8e1!important;stroke:#b08900!important;color:#5f4b00!important;}#g5650d4fc-1491-4d1b-a5db-b57abe34ad0e-dark .note polygon{fill:#fff8e1!important;stroke:#b08900!important;color:#5f4b00!important;}#g5650d4fc-1491-4d1b-a5db-b57abe34ad0e-dark .note ellipse{fill:#fff8e1!important;stroke:#b08900!important;color:#5f4b00!important;}#g5650d4fc-1491-4d1b-a5db-b57abe34ad0e-dark .note circle{fill:#fff8e1!important;stroke:#b08900!important;color:#5f4b00!important;}#g5650d4fc-1491-4d1b-a5db-b57abe34ad0e-dark .note path{fill:#fff8e1!important;stroke:#b08900!important;color:#5f4b00!important;}#g5650d4fc-1491-4d1b-a5db-b57abe34ad0e-dark .note tspan{fill:#5f4b00!important;}</style><g><marker id="g5650d4fc-1491-4d1b-a5db-b57abe34ad0e-dark_flowchart-v2-pointEnd" class="marker flowchart-v2" viewBox="0 0 10 10" refX="5" refY="5" markerUnits="userSpaceOnUse" markerWidth="8" markerHeight="8" orient="auto"><path d="M 0 0 L 10 5 L 0 10 z" class="arrowMarkerPath" style="stroke-width: 1; stroke-dasharray: 1, 0;"></path></marker><marker id="g5650d4fc-1491-4d1b-a5db-b57abe34ad0e-dark_flowchart-v2-pointStart" class="marker flowchart-v2" viewBox="0 0 10 10" refX="4.5" refY="5" markerUnits="userSpaceOnUse" markerWidth="8" markerHeight="8" orient="auto"><path d="M 0 5 L 10 10 L 10 0 z" class="arrowMarkerPath" style="stroke-width: 1; stroke-dasharray: 1, 0;"></path></marker><marker id="g5650d4fc-1491-4d1b-a5db-b57abe34ad0e-dark_flowchart-v2-pointEnd-margin" class="marker flowchart-v2" viewBox="0 0 11.5 14" refX="11.5" refY="7" markerUnits="userSpaceOnUse" markerWidth="10.5" markerHeight="14" orient="auto"><path d="M 0 0 L 11.5 7 L 0 14 z" class="arrowMarkerPath" style="stroke-width: 0; stroke-dasharray: 1, 0;"></path></marker><marker id="g5650d4fc-1491-4d1b-a5db-b57abe34ad0e-dark_flowchart-v2-pointStart-margin" class="marker flowchart-v2" viewBox="0 0 11.5 14" refX="1" refY="7" markerUnits="userSpaceOnUse" markerWidth="11.5" markerHeight="14" orient="auto"><polygon points="0,7 11.5,14 11.5,0" class="arrowMarkerPath" style="stroke-width: 0; stroke-dasharray: 1, 0;"></polygon></marker><marker id="g5650d4fc-1491-4d1b-a5db-b57abe34ad0e-dark_flowchart-v2-circleEnd" class="marker flowchart-v2" viewBox="0 0 10 10" refX="11" refY="5" markerUnits="userSpaceOnUse" markerWidth="11" markerHeight="11" orient="auto"><circle cx="5" cy="5" r="5" class="arrowMarkerPath" style="stroke-width: 1; stroke-dasharray: 1, 0;"></circle></marker><marker id="g5650d4fc-1491-4d1b-a5db-b57abe34ad0e-dark_flowchart-v2-circleStart" class="marker flowchart-v2" viewBox="0 0 10 10" refX="-1" refY="5" markerUnits="userSpaceOnUse" markerWidth="11" markerHeight="11" orient="auto"><circle cx="5" cy="5" r="5" class="arrowMarkerPath" style="stroke-width: 1; stroke-dasharray: 1, 0;"></circle></marker><marker id="g5650d4fc-1491-4d1b-a5db-b57abe34ad0e-dark_flowchart-v2-circleEnd-margin" class="marker flowchart-v2" viewBox="0 0 10 10" refY="5" refX="12.25" markerUnits="userSpaceOnUse" markerWidth="14" markerHeight="14" orient="auto"><circle cx="5" cy="5" r="5" class="arrowMarkerPath" style="stroke-width: 0; stroke-dasharray: 1, 0;"></circle></marker><marker id="g5650d4fc-1491-4d1b-a5db-b57abe34ad0e-dark_flowchart-v2-circleStart-margin" class="marker flowchart-v2" viewBox="0 0 10 10" refX="-2" refY="5" markerUnits="userSpaceOnUse" markerWidth="14" markerHeight="14" orient="auto"><circle cx="5" cy="5" r="5" class="arrowMarkerPath" style="stroke-width: 0; stroke-dasharray: 1, 0;"></circle></marker><marker id="g5650d4fc-1491-4d1b-a5db-b57abe34ad0e-dark_flowchart-v2-crossEnd" class="marker cross flowchart-v2" viewBox="0 0 11 11" refX="12" refY="5.2" markerUnits="userSpaceOnUse" markerWidth="11" markerHeight="11" orient="auto"><path d="M 1,1 l 9,9 M 10,1 l -9,9" class="arrowMarkerPath" style="stroke-width: 2; stroke-dasharray: 1, 0;"></path></marker><marker id="g5650d4fc-1491-4d1b-a5db-b57abe34ad0e-dark_flowchart-v2-crossStart" class="marker cross flowchart-v2" viewBox="0 0 11 11" refX="-1" refY="5.2" markerUnits="userSpaceOnUse" markerWidth="11" markerHeight="11" orient="auto"><path d="M 1,1 l 9,9 M 10,1 l -9,9" class="arrowMarkerPath" style="stroke-width: 2; stroke-dasharray: 1, 0;"></path></marker><marker id="g5650d4fc-1491-4d1b-a5db-b57abe34ad0e-dark_flowchart-v2-crossEnd-margin" class="marker cross flowchart-v2" viewBox="0 0 15 15" refX="17.7" refY="7.5" markerUnits="userSpaceOnUse" markerWidth="12" markerHeight="12" orient="auto"><path d="M 1,1 L 14,14 M 1,14 L 14,1" class="arrowMarkerPath" style="stroke-width: 2.5;"></path></marker><marker id="g5650d4fc-1491-4d1b-a5db-b57abe34ad0e-dark_flowchart-v2-crossStart-margin" class="marker cross flowchart-v2" viewBox="0 0 15 15" refX="-3.5" refY="7.5" markerUnits="userSpaceOnUse" markerWidth="12" markerHeight="12" orient="auto"><path d="M 1,1 L 14,14 M 1,14 L 14,1" class="arrowMarkerPath" style="stroke-width: 2.5; stroke-dasharray: 1, 0;"></path></marker><g class="root"><g class="clusters"></g><g class="edgePaths"><path d="M469.066,60.1L468.983,64.183C468.9,68.267,468.733,76.433,468.65,84.017C468.566,91.6,468.566,98.6,468.566,102.1L468.566,105.6" id="g5650d4fc-1491-4d1b-a5db-b57abe34ad0e-dark-L_start_qCoupling_0" class="edge-thickness-normal edge-pattern-solid edge-thickness-normal edge-pattern-solid flowchart-link" style=";" data-edge="true" data-et="edge" data-id="L_start_qCoupling_0" data-points="W3sieCI6NDY5LjA2NjQwNjI1LCJ5Ijo2MC4wOTk5OTg0NzQxMjEwOTR9LHsieCI6NDY4LjU2NjQwNjI1LCJ5Ijo4NC41OTk5OTg0NzQxMjExfSx7IngiOjQ2OC41NjY0MDYyNSwieSI6MTA5LjU5OTk5ODQ3NDEyMTExfV0=" data-look="classic" marker-end="url(#g5650d4fc-1491-4d1b-a5db-b57abe34ad0e-dark_flowchart-v2-pointEnd)"></path><path d="M380.165,286.368L338.515,307.185C296.865,328.001,213.566,369.635,171.916,410.027C130.266,450.42,130.266,489.571,130.266,509.146L130.266,528.722" id="g5650d4fc-1491-4d1b-a5db-b57abe34ad0e-dark-L_qCoupling_trainRel_0" class="edge-thickness-normal edge-pattern-solid edge-thickness-normal edge-pattern-solid flowchart-link" style=";" data-edge="true" data-et="edge" data-id="L_qCoupling_trainRel_0" data-points="W3sieCI6MzgwLjE2NTMxOTU4NjczNjY0LCJ5IjoyODYuMzY3Njc0MDE3ODg5fSx7IngiOjEzMC4yNjU2MjUsInkiOjQxMS4yNjg3NjA2ODExNTIzNH0seyJ4IjoxMzAuMjY1NjI1LCJ5Ijo1MzIuNzIxODg1NjgxMTUyM31d" data-look="classic" marker-end="url(#g5650d4fc-1491-4d1b-a5db-b57abe34ad0e-dark_flowchart-v2-pointEnd)"></path><path d="M528.895,314.44L542.37,330.578C555.844,346.716,582.793,378.992,596.267,400.547C609.741,422.102,609.741,432.935,609.741,438.352L609.741,443.769" id="g5650d4fc-1491-4d1b-a5db-b57abe34ad0e-dark-L_qCoupling_qOrg_0" class="edge-thickness-normal edge-pattern-solid edge-thickness-normal edge-pattern-solid flowchart-link" style=";" data-edge="true" data-et="edge" data-id="L_qCoupling_qOrg_0" data-points="W3sieCI6NTI4Ljg5NTI4Mjk0ODU0OTQsInkiOjMxNC40Mzk4ODM5ODI2MDI5Nn0seyJ4Ijo2MDkuNzQxNDA1NDg3MDYwNSwieSI6NDExLjI2ODc2MDY4MTE1MjM0fSx7IngiOjYwOS43NDE0MDU0ODcwNjA1LCJ5Ijo0NDcuNzY4NzYwNjgxMTUyMzR9XQ==" data-look="classic" marker-end="url(#g5650d4fc-1491-4d1b-a5db-b57abe34ad0e-dark_flowchart-v2-pointEnd)"></path><path d="M539.916,632.05L516.505,651.237C493.094,670.425,446.271,708.8,422.86,755.606C399.448,802.413,399.448,857.65,399.448,912.888C399.448,968.125,399.448,1023.363,404.162,1057.978C408.875,1092.594,418.301,1106.588,423.014,1113.585L427.727,1120.582" id="g5650d4fc-1491-4d1b-a5db-b57abe34ad0e-dark-L_qOrg_trunkRel_0" class="edge-thickness-normal edge-pattern-solid edge-thickness-normal edge-pattern-solid flowchart-link" style=";" data-edge="true" data-et="edge" data-id="L_qOrg_trunkRel_0" data-points="W3sieCI6NTM5LjkxNjEwNDQ1Njc5MDMsInkiOjYzMi4wNDk3MDY1OTkxMjQ2fSx7IngiOjM5OS40NDg0MzY3MzcwNjA1NSwieSI6NzQ3LjE3NTAwNjg2NjQ1NTF9LHsieCI6Mzk5LjQ0ODQzNjczNzA2MDU1LCJ5Ijo5MTIuODg3NTA0NTc3NjM2N30seyJ4IjozOTkuNDQ4NDM2NzM3MDYwNTUsInkiOjEwNzguNjAwMDAyMjg4ODE4NH0seyJ4Ijo0MjkuOTYxNzE1NTkwNTk5MSwieSI6MTEyMy45MDAwMDE1MjU4Nzl9XQ==" data-look="classic" marker-end="url(#g5650d4fc-1491-4d1b-a5db-b57abe34ad0e-dark_flowchart-v2-pointEnd)"></path><path d="M663.663,647.953L675.857,664.49C688.05,681.027,712.436,714.101,724.629,737.521C736.823,760.942,736.823,774.708,736.823,781.592L736.823,788.475" id="g5650d4fc-1491-4d1b-a5db-b57abe34ad0e-dark-L_qOrg_qSkew_0" class="edge-thickness-normal edge-pattern-solid edge-thickness-normal edge-pattern-solid flowchart-link" style=";" data-edge="true" data-et="edge" data-id="L_qOrg_qSkew_0" data-points="W3sieCI6NjYzLjY2MzMwMzQ0OTIzOCwieSI6NjQ3Ljk1MzEwOTY2NzIxN30seyJ4Ijo3MzYuODIyNjU0NzI0MTIxMSwieSI6NzQ3LjE3NTAwNjg2NjQ1NTF9LHsieCI6NzM2LjgyMjY1NDcyNDEyMDUsInkiOjc5Mi40NzUwMDYxMDM1MTU3fV0=" data-look="classic" marker-end="url(#g5650d4fc-1491-4d1b-a5db-b57abe34ad0e-dark_flowchart-v2-pointEnd)"></path><path d="M679.329,975.807L663.675,992.939C648.02,1010.071,616.71,1044.336,590.627,1068.64C564.544,1092.944,543.687,1107.289,533.258,1114.461L522.83,1121.633" id="g5650d4fc-1491-4d1b-a5db-b57abe34ad0e-dark-L_qSkew_trunkRel_0" class="edge-thickness-normal edge-pattern-solid edge-thickness-normal edge-pattern-solid flowchart-link" style=";" data-edge="true" data-et="edge" data-id="L_qSkew_trunkRel_0" data-points="W3sieCI6Njc5LjMyOTQwMzA4OTEzOTYsInkiOjk3NS44MDY3NTE0MTY3NzZ9LHsieCI6NTg1LjQwMDc3OTcyNDEyMTEsInkiOjEwNzguNjAwMDAyMjg4ODE4NH0seyJ4Ijo1MTkuNTMzNzI0Mjk4MDE5NiwieSI6MTEyMy45MDAwMDE1MjU4Nzl9XQ==" data-look="classic" marker-end="url(#g5650d4fc-1491-4d1b-a5db-b57abe34ad0e-dark_flowchart-v2-pointEnd)"></path><path d="M784.107,986.016L794.084,1001.447C804.062,1016.877,824.016,1047.739,833.994,1070.053C843.971,1092.367,843.971,1106.133,843.971,1113.017L843.971,1119.9" id="g5650d4fc-1491-4d1b-a5db-b57abe34ad0e-dark-L_qSkew_indepRel_0" class="edge-thickness-normal edge-pattern-solid edge-thickness-normal edge-pattern-solid flowchart-link" style=";" data-edge="true" data-et="edge" data-id="L_qSkew_indepRel_0" data-points="W3sieCI6Nzg0LjEwNjg1NDg0OTY4MjEsInkiOjk4Ni4wMTU4MDI5MjYxOTcyfSx7IngiOjg0My45NzEwOTIyMjQxMjExLCJ5IjoxMDc4LjYwMDAwMjI4ODgxODR9LHsieCI6ODQzLjk3MTA5MjIyNDEyMTEsInkiOjExMjMuOTAwMDAxNTI1ODc5fV0=" data-look="classic" marker-end="url(#g5650d4fc-1491-4d1b-a5db-b57abe34ad0e-dark_flowchart-v2-pointEnd)"></path><path d="M130.266,616.922L130.266,638.631C130.266,660.34,130.266,703.757,130.266,743.135C130.266,782.513,130.266,817.85,130.266,835.519L130.266,853.188" id="g5650d4fc-1491-4d1b-a5db-b57abe34ad0e-dark-L_trainRel_trainNote_0" class="edge-thickness-normal edge-pattern-solid edge-thickness-normal edge-pattern-solid flowchart-link" style=";" data-edge="true" data-et="edge" data-id="L_trainRel_trainNote_0" data-points="W3sieCI6MTMwLjI2NTYyNSwieSI6NjE2LjkyMTg4MjYyOTM5NDV9LHsieCI6MTMwLjI2NTYyNSwieSI6NzQ3LjE3NTAwNjg2NjQ1NTF9LHsieCI6MTMwLjI2NTYyNSwieSI6ODUzLjE4NzUwMzgxNDY5NzN9XQ==" data-look="classic"></path><path d="M458.32,1208.1L458.32,1212.267C458.32,1216.433,458.32,1224.767,458.32,1233.1C458.32,1241.433,458.32,1249.767,458.32,1253.933L458.32,1258.1" id="g5650d4fc-1491-4d1b-a5db-b57abe34ad0e-dark-L_trunkRel_trunkNote_0" class="edge-thickness-normal edge-pattern-solid edge-thickness-normal edge-pattern-solid flowchart-link" style=";" data-edge="true" data-et="edge" data-id="L_trunkRel_trunkNote_0" data-points="W3sieCI6NDU4LjMxOTUzMDQ4NzA2MDU1LCJ5IjoxMjA4LjA5OTk5ODQ3NDEyMX0seyJ4Ijo0NTguMzE5NTMwNDg3MDYwNTUsInkiOjEyMzMuMDk5OTk4NDc0MTIxfSx7IngiOjQ1OC4zMTk1MzA0ODcwNjA1NSwieSI6MTI1OC4wOTk5OTg0NzQxMjF9XQ==" data-look="classic"></path><path d="M843.971,1208.1L843.971,1212.267C843.971,1216.433,843.971,1224.767,843.971,1233.1C843.971,1241.433,843.971,1249.767,843.971,1253.933L843.971,1258.1" id="g5650d4fc-1491-4d1b-a5db-b57abe34ad0e-dark-L_indepRel_indepNote_0" class="edge-thickness-normal edge-pattern-solid edge-thickness-normal edge-pattern-solid flowchart-link" style=";" data-edge="true" data-et="edge" data-id="L_indepRel_indepNote_0" data-points="W3sieCI6ODQzLjk3MTA5MjIyNDEyMTEsInkiOjEyMDguMDk5OTk4NDc0MTIxfSx7IngiOjg0My45NzEwOTIyMjQxMjExLCJ5IjoxMjMzLjA5OTk5ODQ3NDEyMX0seyJ4Ijo4NDMuOTcxMDkyMjI0MTIxMSwieSI6MTI1OC4wOTk5OTg0NzQxMjF9XQ==" data-look="classic"></path></g><g class="edgeLabels"><g class="edgeLabel"><g class="label" data-id="L_start_qCoupling_0" transform="translate(0, 0)"><text y="-10.1" text-anchor="middle"><tspan class="text-outer-tspan row" x="0" y="-0.1em" dy="1.1em" text-anchor="middle"></tspan></text></g></g><g><rect class="background" style="stroke: none"></rect></g><g class="edgeLabel" transform="translate(130.265625, 411.26876068115234)"><g class="label" data-id="L_qCoupling_trainRel_0" transform="translate(0, -10.5)"><g><rect class="background" style="" x="-75.8515625" y="-1" width="151.703125" height="23"></rect><text y="-10.1" text-anchor="middle" style=""><tspan class="text-outer-tspan row" x="0" y="-0.1em" dy="1.1em" text-anchor="middle"><tspan font-style="normal" class="text-inner-tspan" font-weight="normal">no</tspan><tspan font-style="normal" class="text-inner-tspan" font-weight="normal"> —</tspan><tspan font-style="normal" class="text-inner-tspan" font-weight="normal"> coupling</tspan><tspan font-style="normal" class="text-inner-tspan" font-weight="normal"> is</tspan><tspan font-style="normal" class="text-inner-tspan" font-weight="normal"> real</tspan></tspan></text></g></g></g><g class="edgeLabel" transform="translate(609.7414054870605, 411.26876068115234)"><g class="label" data-id="L_qCoupling_qOrg_0" transform="translate(0, -10.5)"><g><rect class="background" style="" x="-13.546875" y="-1" width="27.09375" height="23"></rect><text y="-10.1" text-anchor="middle" style=""><tspan class="text-outer-tspan row" x="0" y="-0.1em" dy="1.1em" text-anchor="middle"><tspan font-style="normal" class="text-inner-tspan" font-weight="normal">yes</tspan></tspan></text></g></g></g><g class="edgeLabel" transform="translate(399.44843673706055, 912.8875045776367)"><g class="label" data-id="L_qOrg_trunkRel_0" transform="translate(0, -19.299999237060547)"><g><rect class="background" style="" x="-98.75" y="-1" width="197.5" height="40.599998474121094"></rect><text y="-10.1" text-anchor="middle" style=""><tspan class="text-outer-tspan row" x="0" y="-0.1em" dy="1.1em" text-anchor="middle"><tspan font-style="normal" class="text-inner-tspan" font-weight="normal">no</tspan><tspan font-style="normal" class="text-inner-tspan" font-weight="normal"> —</tspan><tspan font-style="normal" class="text-inner-tspan" font-weight="normal"> single</tspan><tspan font-style="normal" class="text-inner-tspan" font-weight="normal"> team</tspan><tspan font-style="normal" class="text-inner-tspan" font-weight="normal"> or</tspan><tspan font-style="normal" class="text-inner-tspan" font-weight="normal"> shared</tspan></tspan><tspan class="text-outer-tspan row" x="0" y="1em" dy="1.1em" text-anchor="middle"><tspan font-style="normal" class="text-inner-tspan" font-weight="normal">cadence</tspan></tspan></text></g></g></g><g class="edgeLabel" transform="translate(736.8226547241211, 747.1750068664551)"><g class="label" data-id="L_qOrg_qSkew_0" transform="translate(0, -19.299999237060547)"><g><rect class="background" style="" x="-69.2734375" y="-1" width="138.546875" height="40.599998474121094"></rect><text y="-10.1" text-anchor="middle" style=""><tspan class="text-outer-tspan row" x="0" y="-0.1em" dy="1.1em" text-anchor="middle"><tspan font-style="normal" class="text-inner-tspan" font-weight="normal">yes</tspan><tspan font-style="normal" class="text-inner-tspan" font-weight="normal"> —</tspan><tspan font-style="normal" class="text-inner-tspan" font-weight="normal"> independent</tspan></tspan><tspan class="text-outer-tspan row" x="0" y="1em" dy="1.1em" text-anchor="middle"><tspan font-style="normal" class="text-inner-tspan" font-weight="normal">cadences</tspan></tspan></text></g></g></g><g class="edgeLabel" transform="translate(605.40265, 1056.71043)"><g class="label" data-id="L_qSkew_trunkRel_0" transform="translate(0, -10.5)"><g><rect class="background" style="" x="-97.7421875" y="-1" width="195.484375" height="23"></rect><text y="-10.1" text-anchor="middle" style=""><tspan class="text-outer-tspan row" x="0" y="-0.1em" dy="1.1em" text-anchor="middle"><tspan font-style="normal" class="text-inner-tspan" font-weight="normal">no</tspan><tspan font-style="normal" class="text-inner-tspan" font-weight="normal"> —</tspan><tspan font-style="normal" class="text-inner-tspan" font-weight="normal"> keep</tspan><tspan font-style="normal" class="text-inner-tspan" font-weight="normal"> it</tspan><tspan font-style="normal" class="text-inner-tspan" font-weight="normal"> in</tspan><tspan font-style="normal" class="text-inner-tspan" font-weight="normal"> one</tspan><tspan font-style="normal" class="text-inner-tspan" font-weight="normal"> bundle</tspan></tspan></text></g></g></g><g class="edgeLabel" transform="translate(843.9710922241211, 1078.6000022888184)"><g class="label" data-id="L_qSkew_indepRel_0" transform="translate(0, -19.299999237060547)"><g><rect class="background" style="" x="-96.5546875" y="-1" width="193.109375" height="40.599998474121094"></rect><text y="-10.1" text-anchor="middle" style=""><tspan class="text-outer-tspan row" x="0" y="-0.1em" dy="1.1em" text-anchor="middle"><tspan font-style="normal" class="text-inner-tspan" font-weight="normal">yes</tspan><tspan font-style="normal" class="text-inner-tspan" font-weight="normal"> —</tspan><tspan font-style="normal" class="text-inner-tspan" font-weight="normal"> platform</tspan><tspan font-style="normal" class="text-inner-tspan" font-weight="normal"> can</tspan><tspan font-style="normal" class="text-inner-tspan" font-weight="normal"> absorb</tspan></tspan><tspan class="text-outer-tspan row" x="0" y="1em" dy="1.1em" text-anchor="middle"><tspan font-style="normal" class="text-inner-tspan" font-weight="normal">the</tspan><tspan font-style="normal" class="text-inner-tspan" font-weight="normal"> cost</tspan></tspan></text></g></g></g><g class="edgeLabel"><g class="label" data-id="L_trainRel_trainNote_0" transform="translate(0, 0)"><text y="-10.1" text-anchor="middle"><tspan class="text-outer-tspan row" x="0" y="-0.1em" dy="1.1em" text-anchor="middle"></tspan></text></g></g><g><rect class="background" style="stroke: none"></rect></g><g class="edgeLabel"><g class="label" data-id="L_trunkRel_trunkNote_0" transform="translate(0, 0)"><text y="-10.1" text-anchor="middle"><tspan class="text-outer-tspan row" x="0" y="-0.1em" dy="1.1em" text-anchor="middle"></tspan></text></g></g><g><rect class="background" style="stroke: none"></rect></g><g class="edgeLabel"><g class="label" data-id="L_indepRel_indepNote_0" transform="translate(0, 0)"><text y="-10.1" text-anchor="middle"><tspan class="text-outer-tspan row" x="0" y="-0.1em" dy="1.1em" text-anchor="middle"></tspan></text></g></g><g><rect class="background" style="stroke: none"></rect></g></g><g class="nodes"><g class="node default" id="g5650d4fc-1491-4d1b-a5db-b57abe34ad0e-dark-flowchart-start-0" data-look="classic" transform="translate(468.56640625, 33.79999923706055)"><g class="basic label-container outer-path"><path d="M-65.84531307220459 -25.799999237060547 C-21.17367662858169 -25.799999237060547, 23.497959815041213 -25.799999237060547, 65.84531307220459 -25.799999237060547 C65.84531307220459 -25.799999237060547, 65.84531307220459 -25.799999237060547, 65.84531307220459 -25.799999237060547 C66.48929277640106 -25.77934806137742, 67.13327248059753 -25.75869688569429, 67.49832469882529 -25.746990371586765 C67.91374022133586 -25.70691573574043, 68.32915574384643 -25.6668410998941, 69.14454374610231 -25.58818159996402 C69.6678929973639 -25.503570551654107, 70.19124224862547 -25.418959503344194, 70.77720554685753 -25.32422550149928 C71.40385819194242 -25.18119612454933, 72.0305108370273 -25.038166747599377, 72.38960114354678 -24.956206728419545 C72.91373532613137 -24.800646454264903, 73.43786950871598 -24.645086180110265, 73.97510485680552 -24.48563754880318 C74.47776589494696 -24.30065364021943, 74.9804269330884 -24.115669731635677, 75.52720151178644 -23.914451632345997 C75.85224377547195 -23.770565064248594, 76.17728603915745 -23.626678496151193, 77.03951321041056 -23.24499610449772 C77.36386689013815 -23.075780997542278, 77.68822056986576 -22.90656589058684, 78.5058255395184 -22.480021901620034 C78.97763224083565 -22.19400990663758, 79.44943894215291 -21.907997911655123, 79.92011310722664 -21.62267246679901 C80.2007402010534 -21.426919154296556, 80.48136729488017 -21.231165841794105, 81.27656430255584 -20.67647083276321 C81.66979836178581 -20.36287713492511, 82.06303242101576 -20.04928343708701, 82.5696051765865 -19.64530514498651 C82.85988783823886 -19.381678112132192, 83.15017049989122 -19.118051079277876, 83.79392234701088 -18.533412684464313 C84.15206377389674 -18.16360225724667, 84.51020520078261 -17.793791830029026, 84.94448483196044 -17.345362455817106 C85.26168321150166 -16.972763190108882, 85.57888159104289 -16.60016392440066, 86.01656472338968 -16.086036412270357 C86.28813729482738 -15.722153907314063, 86.55970986626508 -15.358271402357767, 87.00575661506427 -14.76060939466161 C87.28572155480641 -14.330508066105004, 87.56568649454856 -13.9004067375484, 87.90799570532036 -13.374527866909407 C88.175819861614 -12.89897895727341, 88.44364401790766 -12.423430047637412, 88.7195745002064 -11.93348753532484 C88.91424781371934 -11.529244234473607, 89.10892112723226 -11.125000933622372, 89.43715804837109 -10.443409943732584 C89.61487788902119 -10.004438501347476, 89.79259772967127 -9.565467058962367, 90.05779764509381 -8.910418140577123 C90.19687257399823 -8.49154661329773, 90.33594750290266 -8.072675086018336, 90.5789429491449 -7.340811518003323 C90.72949736335373 -6.766682285929219, 90.88005177756254 -6.192553053855114, 90.99845246268467 -5.741039926302914 C91.10152958003792 -5.211760714050446, 91.20460669739117 -4.682481501797978, 91.31460233113748 -4.117677170096137 C91.37352846426785 -3.6606577178180895, 91.43245459739822 -3.203638265540042, 91.52609342687991 -2.4773939951584394 C91.55622510460213 -2.008068792782346, 91.58635678232436 -1.538743590406253, 91.63205668763487 -0.8269306768952902 C91.63205668763487 -0.32836634592177516, 91.63205668763487 0.1701979850517399, 91.63205668763487 0.826930676895284 C91.5987638647506 1.3454932668009456, 91.5654710418663 1.864055856706607, 91.52609342687991 2.4773939951584216 C91.44232711993082 3.1270689303273147, 91.35856081298172 3.7767438654962078, 91.31460233113748 4.117677170096119 C91.20381089220757 4.686567793222259, 91.09301945327766 5.255458416348398, 90.99845246268467 5.741039926302909 C90.87356461483427 6.2172914168921345, 90.74867676698386 6.69354290748136, 90.5789429491449 7.340811518003306 C90.43563981469445 7.772417726714253, 90.29233668024402 8.2040239354252, 90.05779764509383 8.910418140577105 C89.88824284091214 9.329221785025018, 89.71868803673044 9.74802542947293, 89.43715804837109 10.443409943732577 C89.28015488557723 10.769430370603533, 89.12315172278339 11.095450797474491, 88.7195745002064 11.933487535324835 C88.44380362616378 12.423146647016575, 88.16803275212116 12.912805758708314, 87.90799570532037 13.374527866909402 C87.58442994125893 13.871611770081119, 87.26086417719748 14.368695673252834, 87.00575661506429 14.760609394661596 C86.79748019732706 15.039680820057482, 86.58920377958984 15.318752245453368, 86.01656472338968 16.086036412270353 C85.62750706663273 16.543045673904874, 85.23844940987578 17.000054935539396, 84.94448483196045 17.345362455817092 C84.67729864526306 17.621254129976037, 84.41011245856566 17.897145804134986, 83.79392234701088 18.533412684464306 C83.35796436149155 18.929338192096743, 82.92200637597224 19.325263699729184, 82.56960517658653 19.64530514498649 C82.17552947375391 19.959570031200638, 81.78145377092129 20.273834917414785, 81.27656430255584 20.676470832763208 C80.89565977956849 20.94217333890814, 80.51475525658114 21.207875845053078, 79.92011310722665 21.622672466799003 C79.42825575495515 21.920839284220634, 78.93639840268364 22.21900610164226, 78.50582553951841 22.48002190162003 C77.99877757606517 22.74454849937387, 77.49172961261192 23.009075097127706, 77.03951321041058 23.244996104497716 C76.72453414643678 23.384427992596954, 76.409555082463 23.523859880696193, 75.52720151178644 23.914451632345994 C75.06557061973261 24.084336067890995, 74.60393972767878 24.25422050343599, 73.97510485680553 24.485637548803172 C73.54037345919242 24.614663545663074, 73.1056420615793 24.743689542522972, 72.38960114354681 24.95620672841954 C71.76197747198007 25.099457735827436, 71.13435380041335 25.242708743235326, 70.77720554685754 25.324225501499278 C70.16093776951531 25.423858896511977, 69.54466999217308 25.52349229152468, 69.14454374610233 25.588181599964017 C68.76134759276968 25.625148072015214, 68.37815143943705 25.662114544066416, 67.49832469882529 25.746990371586765 C66.97019908506405 25.76392633208594, 66.44207347130282 25.78086229258512, 65.84531307220459 25.799999237060547 C65.84531307220459 25.799999237060547, 65.84531307220459 25.799999237060547, 65.84531307220459 25.799999237060547 C36.542233694556685 25.799999237060547, 7.239154316908774 25.799999237060547, -65.84531307220459 25.799999237060547 C-66.45282319984086 25.78051756971398, -67.06033332747712 25.761035902367414, -67.49832469882527 25.746990371586765 C-67.95175399408824 25.70324859280126, -68.40518328935119 25.659506814015753, -69.14454374610231 25.588181599964017 C-69.53453639345251 25.525130613178586, -69.92452904080271 25.46207962639316, -70.77720554685753 25.324225501499278 C-71.14681940838817 25.239863549560766, -71.5164332699188 25.155501597622255, -72.38960114354678 24.956206728419545 C-72.92476233139125 24.797373696985705, -73.45992351923573 24.63854066555187, -73.9751048568055 24.485637548803183 C-74.5352065357686 24.2795149534216, -75.0953082147317 24.073392358040017, -75.52720151178644 23.914451632345997 C-75.82973417517029 23.780529396578572, -76.13226683855413 23.646607160811147, -77.03951321041056 23.244996104497723 C-77.5190464454635 22.994823922926297, -77.99857968051646 22.744651741354875, -78.5058255395184 22.480021901620038 C-79.0692169625176 22.13849071014242, -79.63260838551679 21.796959518664803, -79.92011310722663 21.622672466799017 C-80.24923058080019 21.393094364499913, -80.57834805437373 21.163516262200808, -81.27656430255584 20.67647083276321 C-81.66954886895394 20.36307609881924, -82.06253343535204 20.049681364875266, -82.5696051765865 19.645305144986512 C-82.94089863164537 19.30810625298854, -83.31219208670423 18.970907360990573, -83.79392234701086 18.533412684464324 C-84.2176658645686 18.095862712596162, -84.64140938212634 17.658312740728004, -84.94448483196044 17.3453624558171 C-85.25137999467543 16.984865934862615, -85.55827515739043 16.62436941390813, -86.01656472338968 16.08603641227036 C-86.31215385326976 15.689973906954755, -86.60774298314985 15.29391140163915, -87.00575661506427 14.760609394661614 C-87.29207870840119 14.320741771048665, -87.57840080173813 13.880874147435716, -87.90799570532036 13.374527866909418 C-88.07142491836863 13.084342750139871, -88.23485413141691 12.794157633370324, -88.71957450020639 11.933487535324842 C-88.86712229627177 11.627101379777983, -89.01467009233717 11.320715224231126, -89.43715804837109 10.443409943732586 C-89.586937929423 10.07345074173735, -89.73671781047491 9.703491539742114, -90.05779764509381 8.910418140577127 C-90.26414193941706 8.288942002574114, -90.47048623374029 7.667465864571099, -90.5789429491449 7.340811518003316 C-90.73183550318612 6.757765945392091, -90.88472805722732 6.174720372780866, -90.99845246268467 5.741039926302918 C-91.08045694888101 5.31996422133899, -91.16246143507736 4.898888516375064, -91.31460233113748 4.117677170096139 C-91.39717026317302 3.477296594110818, -91.47973819520857 2.836916018125496, -91.52609342687991 2.477393995158454 C-91.55273579102861 2.062417668213079, -91.57937815517732 1.647441341267704, -91.63205668763487 0.8269306768952934 C-91.63205668763487 0.4762746647372056, -91.63205668763487 0.12561865257911775, -91.63205668763487 -0.8269306768952809 C-91.59329296104741 -1.4307070080118838, -91.55452923445995 -2.034483339128487, -91.52609342687991 -2.4773939951584185 C-91.4588454854197 -2.998955749515765, -91.39159754395949 -3.520517503873112, -91.31460233113748 -4.117677170096128 C-91.1910039445415 -4.752328762738151, -91.06740555794555 -5.386980355380175, -90.99845246268467 -5.741039926302906 C-90.86126423907467 -6.264198080680063, -90.72407601546466 -6.78735623505722, -90.5789429491449 -7.340811518003303 C-90.40057267920328 -7.878034351624391, -90.22220240926166 -8.41525718524548, -90.05779764509383 -8.910418140577093 C-89.85784151875755 -9.404313638516417, -89.65788539242126 -9.89820913645574, -89.43715804837109 -10.443409943732574 C-89.26761959003937 -10.795460180000271, -89.09808113170766 -11.147510416267968, -88.7195745002064 -11.933487535324831 C-88.40260488088889 -12.49629919107747, -88.08563526157138 -13.05911084683011, -87.90799570532036 -13.374527866909409 C-87.7128151292027 -13.674377645149395, -87.51763455308502 -13.974227423389381, -87.00575661506429 -14.760609394661605 C-86.78846708540338 -15.05175756892383, -86.57117755574248 -15.342905743186051, -86.01656472338968 -16.086036412270353 C-85.7023474729091 -16.455133874152903, -85.38813022242852 -16.824231336035453, -84.94448483196045 -17.345362455817092 C-84.68959084842496 -17.60856142100273, -84.43469686488946 -17.87176038618837, -83.79392234701089 -18.5334126844643 C-83.52472953950024 -18.777886469794087, -83.25553673198958 -19.02236025512387, -82.56960517658653 -19.645305144986487 C-82.17403811160204 -19.960759352829932, -81.77847104661757 -20.27621356067338, -81.27656430255585 -20.676470832763204 C-80.95009704889279 -20.90420025637892, -80.62362979522973 -21.131929679994638, -79.92011310722665 -21.622672466799 C-79.48575352256516 -21.88598379960105, -79.05139393790367 -22.149295132403097, -78.50582553951841 -22.480021901620027 C-78.05710761135964 -22.714117757322906, -77.60838968320088 -22.948213613025786, -77.03951321041058 -23.244996104497716 C-76.65807541366047 -23.41384730216877, -76.27663761691035 -23.582698499839825, -75.52720151178646 -23.91445163234599 C-74.9480428180902 -24.127587385310488, -74.36888412439394 -24.34072313827499, -73.97510485680553 -24.485637548803172 C-73.57970923494011 -24.602988893898857, -73.18431361307469 -24.72034023899454, -72.38960114354681 -24.956206728419538 C-72.021254534275 -25.040279438299567, -71.65290792500319 -25.124352148179597, -70.77720554685754 -25.324225501499278 C-70.31929325589088 -25.398257209539914, -69.86138096492424 -25.47228891758055, -69.14454374610233 -25.588181599964017 C-68.70645156799974 -25.630443825502645, -68.26835938989713 -25.672706051041274, -67.49832469882529 -25.746990371586765 C-66.85820487799438 -25.767517768323167, -66.21808505716346 -25.788045165059568, -65.8453130722046 -25.799999237060547 C-65.8453130722046 -25.799999237060547, -65.84531307220459 -25.799999237060547, -65.84531307220459 -25.799999237060547" stroke="none" stroke-width="0" fill="#2d2d2d" style=""></path><path d="M-65.84531307220459 -25.799999237060547 C-24.759533962202035 -25.799999237060547, 16.32624514780052 -25.799999237060547, 65.84531307220459 -25.799999237060547 M-65.84531307220459 -25.799999237060547 C-20.056278823961527 -25.799999237060547, 25.732755424281535 -25.799999237060547, 65.84531307220459 -25.799999237060547 M65.84531307220459 -25.799999237060547 C65.84531307220459 -25.799999237060547, 65.84531307220459 -25.799999237060547, 65.84531307220459 -25.799999237060547 M65.84531307220459 -25.799999237060547 C65.84531307220459 -25.799999237060547, 65.84531307220459 -25.799999237060547, 65.84531307220459 -25.799999237060547 M65.84531307220459 -25.799999237060547 C66.41696994575341 -25.78166731378844, 66.98862681930223 -25.763335390516332, 67.49832469882529 -25.746990371586765 M65.84531307220459 -25.799999237060547 C66.44974004231803 -25.780616440574736, 67.05416701243145 -25.761233644088925, 67.49832469882529 -25.746990371586765 M67.49832469882529 -25.746990371586765 C68.05508404197033 -25.69328046735464, 68.61184338511536 -25.639570563122515, 69.14454374610231 -25.58818159996402 M67.49832469882529 -25.746990371586765 C67.99078549416835 -25.699483270930777, 68.48324628951141 -25.651976170274793, 69.14454374610231 -25.58818159996402 M69.14454374610231 -25.58818159996402 C69.53809781467518 -25.524554830214544, 69.93165188324807 -25.460928060465065, 70.77720554685753 -25.32422550149928 M69.14454374610231 -25.58818159996402 C69.64946481843873 -25.506549876710064, 70.15438589077516 -25.424918153456108, 70.77720554685753 -25.32422550149928 M70.77720554685753 -25.32422550149928 C71.30750998703088 -25.20318697358959, 71.83781442720424 -25.082148445679902, 72.38960114354678 -24.956206728419545 M70.77720554685753 -25.32422550149928 C71.29219373371693 -25.206682808460606, 71.80718192057634 -25.089140115421934, 72.38960114354678 -24.956206728419545 M72.38960114354678 -24.956206728419545 C72.74173650260661 -24.851694802246808, 73.09387186166644 -24.747182876074067, 73.97510485680552 -24.48563754880318 M72.38960114354678 -24.956206728419545 C72.72112373221286 -24.85781256430103, 73.05264632087895 -24.75941840018252, 73.97510485680552 -24.48563754880318 M73.97510485680552 -24.48563754880318 C74.5840746634848 -24.26153103069002, 75.19304447016408 -24.03742451257686, 75.52720151178644 -23.914451632345997 M73.97510485680552 -24.48563754880318 C74.36336011037824 -24.342756026496197, 74.75161536395095 -24.199874504189218, 75.52720151178644 -23.914451632345997 M75.52720151178644 -23.914451632345997 C76.09643382650943 -23.6624693722948, 76.6656661412324 -23.4104871122436, 77.03951321041056 -23.24499610449772 M75.52720151178644 -23.914451632345997 C76.1069054501694 -23.657833895130207, 76.68660938855237 -23.401216157914416, 77.03951321041056 -23.24499610449772 M77.03951321041056 -23.24499610449772 C77.54806257534781 -22.97968622655137, 78.05661194028507 -22.71437634860502, 78.5058255395184 -22.480021901620034 M77.03951321041056 -23.24499610449772 C77.50300630646835 -23.00319205316587, 77.96649940252614 -22.761388001834018, 78.5058255395184 -22.480021901620034 M78.5058255395184 -22.480021901620034 C78.93791169647274 -22.218088734054202, 79.3699978534271 -21.956155566488366, 79.92011310722664 -21.62267246679901 M78.5058255395184 -22.480021901620034 C78.79647650485242 -22.303827578379884, 79.08712747018645 -22.127633255139735, 79.92011310722664 -21.62267246679901 M79.92011310722664 -21.62267246679901 C80.29086559105856 -21.36405158369421, 80.6616180748905 -21.10543070058941, 81.27656430255584 -20.67647083276321 M79.92011310722664 -21.62267246679901 C80.25425386280888 -21.389590340425016, 80.58839461839112 -21.156508214051023, 81.27656430255584 -20.67647083276321 M81.27656430255584 -20.67647083276321 C81.62974382056606 -20.39481956565175, 81.98292333857627 -20.11316829854029, 82.5696051765865 -19.64530514498651 M81.27656430255584 -20.67647083276321 C81.76750953251802 -20.284955076469615, 82.25845476248021 -19.893439320176018, 82.5696051765865 -19.64530514498651 M82.5696051765865 -19.64530514498651 C83.02531673463291 -19.23143996543587, 83.4810282926793 -18.817574785885235, 83.79392234701088 -18.533412684464313 M82.5696051765865 -19.64530514498651 C83.05776432006483 -19.201971926862658, 83.54592346354316 -18.758638708738808, 83.79392234701088 -18.533412684464313 M83.79392234701088 -18.533412684464313 C84.13902472440421 -18.17706614637359, 84.48412710179753 -17.820719608282868, 84.94448483196044 -17.345362455817106 M83.79392234701088 -18.533412684464313 C84.16757893142268 -18.147581583283014, 84.54123551583449 -17.761750482101714, 84.94448483196044 -17.345362455817106 M84.94448483196044 -17.345362455817106 C85.20437460838912 -17.040081136276775, 85.4642643848178 -16.73479981673644, 86.01656472338968 -16.086036412270357 M84.94448483196044 -17.345362455817106 C85.18090611265893 -17.06764856675669, 85.41732739335741 -16.789934677696273, 86.01656472338968 -16.086036412270357 M86.01656472338968 -16.086036412270357 C86.25316826899562 -15.769009216184825, 86.48977181460157 -15.451982020099296, 87.00575661506427 -14.76060939466161 M86.01656472338968 -16.086036412270357 C86.3031198229378 -15.702078684582473, 86.58967492248594 -15.318120956894589, 87.00575661506427 -14.76060939466161 M87.00575661506427 -14.76060939466161 C87.26845297763235 -14.357037237906624, 87.53114934020043 -13.953465081151636, 87.90799570532036 -13.374527866909407 M87.00575661506427 -14.76060939466161 C87.21959099485049 -14.432102364739077, 87.43342537463673 -14.103595334816543, 87.90799570532036 -13.374527866909407 M87.90799570532036 -13.374527866909407 C88.22423530970342 -12.813012426594929, 88.54047491408647 -12.251496986280452, 88.7195745002064 -11.93348753532484 M87.90799570532036 -13.374527866909407 C88.20134624083032 -12.853654286148664, 88.49469677634028 -12.332780705387924, 88.7195745002064 -11.93348753532484 M88.7195745002064 -11.93348753532484 C88.9450282853379 -11.465327926561072, 89.17048207046939 -10.997168317797305, 89.43715804837109 -10.443409943732584 M88.7195745002064 -11.93348753532484 C88.91572788532457 -11.526170834116886, 89.11188127044272 -11.118854132908933, 89.43715804837109 -10.443409943732584 M89.43715804837109 -10.443409943732584 C89.6556348819938 -9.903767940722233, 89.87411171561652 -9.364125937711881, 90.05779764509381 -8.910418140577123 M89.43715804837109 -10.443409943732584 C89.66023658892466 -9.892401635635078, 89.88331512947823 -9.341393327537574, 90.05779764509381 -8.910418140577123 M90.05779764509381 -8.910418140577123 C90.26220757639906 -8.294767995785394, 90.46661750770433 -7.679117850993666, 90.5789429491449 -7.340811518003323 M90.05779764509381 -8.910418140577123 C90.19907808644474 -8.484903961209541, 90.34035852779567 -8.05938978184196, 90.5789429491449 -7.340811518003323 M90.5789429491449 -7.340811518003323 C90.73169990405047 -6.7582830436653385, 90.88445685895604 -6.175754569327354, 90.99845246268467 -5.741039926302914 M90.5789429491449 -7.340811518003323 C90.7233147474385 -6.7902592799766595, 90.8676865457321 -6.239707041949995, 90.99845246268467 -5.741039926302914 M90.99845246268467 -5.741039926302914 C91.12214816111101 -5.1058886579787846, 91.24584385953736 -4.470737389654654, 91.31460233113748 -4.117677170096137 M90.99845246268467 -5.741039926302914 C91.07477793803831 -5.349124741756881, 91.15110341339197 -4.957209557210847, 91.31460233113748 -4.117677170096137 M91.31460233113748 -4.117677170096137 C91.38563040751121 -3.566797435821609, 91.45665848388494 -3.015917701547081, 91.52609342687991 -2.4773939951584394 M91.31460233113748 -4.117677170096137 C91.3702229911758 -3.686294314380623, 91.42584365121411 -3.25491145866511, 91.52609342687991 -2.4773939951584394 M91.52609342687991 -2.4773939951584394 C91.56667250434425 -1.8453421088094348, 91.60725158180861 -1.2132902224604305, 91.63205668763487 -0.8269306768952902 M91.52609342687991 -2.4773939951584394 C91.5475568831139 -2.143083339323955, 91.5690203393479 -1.8087726834894706, 91.63205668763487 -0.8269306768952902 M91.63205668763487 -0.8269306768952902 C91.63205668763487 -0.370706964125871, 91.63205668763487 0.08551674864354819, 91.63205668763487 0.826930676895284 M91.63205668763487 -0.8269306768952902 C91.63205668763487 -0.24208028951023497, 91.63205668763487 0.34277009787482027, 91.63205668763487 0.826930676895284 M91.63205668763487 0.826930676895284 C91.59914402693184 1.3395719339665475, 91.5662313662288 1.8522131910378108, 91.52609342687991 2.4773939951584216 M91.63205668763487 0.826930676895284 C91.59877587836483 1.3453061450618922, 91.5654950690948 1.8636816132285001, 91.52609342687991 2.4773939951584216 M91.52609342687991 2.4773939951584216 C91.47402087316526 2.881258438880412, 91.42194831945062 3.285122882602402, 91.31460233113748 4.117677170096119 M91.52609342687991 2.4773939951584216 C91.44200322879458 3.1295809660204776, 91.35791303070924 3.7817679368825337, 91.31460233113748 4.117677170096119 M91.31460233113748 4.117677170096119 C91.24051600918678 4.498094775163309, 91.16642968723606 4.878512380230499, 90.99845246268467 5.741039926302909 M91.31460233113748 4.117677170096119 C91.24096034551319 4.4958132020376755, 91.1673183598889 4.873949233979231, 90.99845246268467 5.741039926302909 M90.99845246268467 5.741039926302909 C90.88191033253574 6.1854655782395085, 90.7653682023868 6.629891230176107, 90.5789429491449 7.340811518003306 M90.99845246268467 5.741039926302909 C90.85115025111942 6.302767100183533, 90.70384803955417 6.864494274064158, 90.5789429491449 7.340811518003306 M90.5789429491449 7.340811518003306 C90.45927087767603 7.701244730112322, 90.33959880620716 8.061677942221339, 90.05779764509383 8.910418140577105 M90.5789429491449 7.340811518003306 C90.44978647370277 7.729810243745227, 90.32062999826064 8.11880896948715, 90.05779764509383 8.910418140577105 M90.05779764509383 8.910418140577105 C89.84665607010363 9.431941912947531, 89.63551449511344 9.953465685317957, 89.43715804837109 10.443409943732577 M90.05779764509383 8.910418140577105 C89.8572209195384 9.405846530586173, 89.65664419398298 9.90127492059524, 89.43715804837109 10.443409943732577 M89.43715804837109 10.443409943732577 C89.28029688968098 10.769135496043718, 89.12343573099086 11.094861048354858, 88.7195745002064 11.933487535324835 M89.43715804837109 10.443409943732577 C89.18862380673696 10.959496614266723, 88.94008956510284 11.475583284800868, 88.7195745002064 11.933487535324835 M88.7195745002064 11.933487535324835 C88.42510611123012 12.456345978109983, 88.13063772225384 12.97920442089513, 87.90799570532037 13.374527866909402 M88.7195745002064 11.933487535324835 C88.48251257958087 12.354414980517962, 88.24545065895533 12.77534242571109, 87.90799570532037 13.374527866909402 M87.90799570532037 13.374527866909402 C87.7063975209492 13.684236814795883, 87.50479933657802 13.993945762682364, 87.00575661506429 14.760609394661596 M87.90799570532037 13.374527866909402 C87.62365045463245 13.811358529356896, 87.33930520394453 14.248189191804393, 87.00575661506429 14.760609394661596 M87.00575661506429 14.760609394661596 C86.61163630617324 15.288694703476827, 86.21751599728218 15.816780012292059, 86.01656472338968 16.086036412270353 M87.00575661506429 14.760609394661596 C86.65055911192728 15.236541689706966, 86.29536160879026 15.712473984752334, 86.01656472338968 16.086036412270353 M86.01656472338968 16.086036412270353 C85.61801599728486 16.55419442401804, 85.21946727118002 17.02235243576573, 84.94448483196045 17.345362455817092 M86.01656472338968 16.086036412270353 C85.60898174356517 16.56480657250079, 85.20139876374064 17.043576732731225, 84.94448483196045 17.345362455817092 M84.94448483196045 17.345362455817092 C84.70786858324196 17.589688159174237, 84.47125233452347 17.83401386253138, 83.79392234701088 18.533412684464306 M84.94448483196045 17.345362455817092 C84.7070021961536 17.59058277497467, 84.46951956034675 17.83580309413225, 83.79392234701088 18.533412684464306 M83.79392234701088 18.533412684464306 C83.3833632889743 18.906271558175725, 82.9728042309377 19.279130431887147, 82.56960517658653 19.64530514498649 M83.79392234701088 18.533412684464306 C83.51425404583664 18.787400035972993, 83.23458574466238 19.04138738748168, 82.56960517658653 19.64530514498649 M82.56960517658653 19.64530514498649 C82.27556824789993 19.879791770962775, 81.98153131921332 20.114278396939056, 81.27656430255584 20.676470832763208 M82.56960517658653 19.64530514498649 C82.28811339064627 19.869787353462833, 82.00662160470601 20.09426956193917, 81.27656430255584 20.676470832763208 M81.27656430255584 20.676470832763208 C80.74342958956726 21.048362529514286, 80.21029487657867 21.420254226265367, 79.92011310722665 21.622672466799003 M81.27656430255584 20.676470832763208 C80.78948378725455 21.01623711486172, 80.30240327195325 21.356003396960233, 79.92011310722665 21.622672466799003 M79.92011310722665 21.622672466799003 C79.55080423664248 21.846549674446955, 79.18149536605831 22.070426882094903, 78.50582553951841 22.48002190162003 M79.92011310722665 21.622672466799003 C79.55973513974367 21.841135708503206, 79.19935717226066 22.05959895020741, 78.50582553951841 22.48002190162003 M78.50582553951841 22.48002190162003 C78.13597419883068 22.67297310915573, 77.76612285814294 22.865924316691434, 77.03951321041058 23.244996104497716 M78.50582553951841 22.48002190162003 C78.07184473213886 22.70642941085197, 77.6378639247593 22.93283692008391, 77.03951321041058 23.244996104497716 M77.03951321041058 23.244996104497716 C76.66724300648244 23.409789080773464, 76.29497280255428 23.57458205704921, 75.52720151178644 23.914451632345994 M77.03951321041058 23.244996104497716 C76.70406481699486 23.393489157539815, 76.36861642357913 23.541982210581914, 75.52720151178644 23.914451632345994 M75.52720151178644 23.914451632345994 C75.08567098409299 24.07693894800064, 74.64414045639953 24.239426263655293, 73.97510485680553 24.485637548803172 M75.52720151178644 23.914451632345994 C75.05502440951544 24.08821717073901, 74.58284730724442 24.26198270913203, 73.97510485680553 24.485637548803172 M73.97510485680553 24.485637548803172 C73.41147487876901 24.652919967730284, 72.8478449007325 24.820202386657396, 72.38960114354681 24.95620672841954 M73.97510485680553 24.485637548803172 C73.36404661250997 24.66699642819992, 72.7529883682144 24.848355307596666, 72.38960114354681 24.95620672841954 M72.38960114354681 24.95620672841954 C71.81849351369023 25.086558318108732, 71.24738588383364 25.216909907797923, 70.77720554685754 25.324225501499278 M72.38960114354681 24.95620672841954 C71.75189853618083 25.101758187152413, 71.11419592881484 25.24730964588528, 70.77720554685754 25.324225501499278 M70.77720554685754 25.324225501499278 C70.36647366526053 25.390629446842567, 69.95574178366353 25.45703339218586, 69.14454374610233 25.588181599964017 M70.77720554685754 25.324225501499278 C70.14203697291897 25.426914630727808, 69.5068683989804 25.529603759956338, 69.14454374610233 25.588181599964017 M69.14454374610233 25.588181599964017 C68.64681356799662 25.636197031637757, 68.14908338989089 25.684212463311496, 67.49832469882529 25.746990371586765 M69.14454374610233 25.588181599964017 C68.70088384472157 25.630980937071122, 68.25722394334083 25.673780274178224, 67.49832469882529 25.746990371586765 M67.49832469882529 25.746990371586765 C67.0590879868907 25.76107583801611, 66.61985127495612 25.77516130444546, 65.84531307220459 25.799999237060547 M67.49832469882529 25.746990371586765 C67.01754294189102 25.76240810674673, 66.53676118495676 25.77782584190669, 65.84531307220459 25.799999237060547 M65.84531307220459 25.799999237060547 C65.84531307220459 25.799999237060547, 65.84531307220459 25.799999237060547, 65.84531307220459 25.799999237060547 M65.84531307220459 25.799999237060547 C65.84531307220459 25.799999237060547, 65.84531307220459 25.799999237060547, 65.84531307220459 25.799999237060547 M65.84531307220459 25.799999237060547 C31.744649876272582 25.799999237060547, -2.356013319659425 25.799999237060547, -65.84531307220459 25.799999237060547 M65.84531307220459 25.799999237060547 C16.815733301823236 25.799999237060547, -32.21384646855812 25.799999237060547, -65.84531307220459 25.799999237060547 M-65.84531307220459 25.799999237060547 C-66.47446250742371 25.779823639238156, -67.10361194264281 25.759648041415765, -67.49832469882527 25.746990371586765 M-65.84531307220459 25.799999237060547 C-66.3874737497566 25.782613199383196, -66.9296344273086 25.76522716170584, -67.49832469882527 25.746990371586765 M-67.49832469882527 25.746990371586765 C-67.86300427788291 25.711810171186436, -68.22768385694054 25.67662997078611, -69.14454374610231 25.588181599964017 M-67.49832469882527 25.746990371586765 C-67.95099024709162 25.703322270555482, -68.40365579535798 25.6596541695242, -69.14454374610231 25.588181599964017 M-69.14454374610231 25.588181599964017 C-69.5380888733996 25.524556275770635, -69.93163400069689 25.460930951577254, -70.77720554685753 25.324225501499278 M-69.14454374610231 25.588181599964017 C-69.78684848454262 25.484338751000628, -70.42915322298292 25.380495902037243, -70.77720554685753 25.324225501499278 M-70.77720554685753 25.324225501499278 C-71.10491004858301 25.24942908745216, -71.4326145503085 25.174632673405043, -72.38960114354678 24.956206728419545 M-70.77720554685753 25.324225501499278 C-71.1371895606113 25.242061499475206, -71.49717357436508 25.159897497451134, -72.38960114354678 24.956206728419545 M-72.38960114354678 24.956206728419545 C-72.84324259695205 24.821568326261445, -73.2968840503573 24.686929924103346, -73.9751048568055 24.485637548803183 M-72.38960114354678 24.956206728419545 C-72.74781362762064 24.84989114344212, -73.1060261116945 24.743575558464702, -73.9751048568055 24.485637548803183 M-73.9751048568055 24.485637548803183 C-74.29885311652644 24.36649519652977, -74.62260137624739 24.24735284425636, -75.52720151178644 23.914451632345997 M-73.9751048568055 24.485637548803183 C-74.35192127057663 24.346965625282664, -74.72873768434776 24.208293701762145, -75.52720151178644 23.914451632345997 M-75.52720151178644 23.914451632345997 C-76.11461703134233 23.654420206900877, -76.70203255089824 23.394388781455756, -77.03951321041056 23.244996104497723 M-75.52720151178644 23.914451632345997 C-76.02050552905824 23.69608057724352, -76.51380954633004 23.477709522141044, -77.03951321041056 23.244996104497723 M-77.03951321041056 23.244996104497723 C-77.43359437738803 23.039404212106614, -77.82767554436549 22.833812319715506, -78.5058255395184 22.480021901620038 M-77.03951321041056 23.244996104497723 C-77.54484166790016 22.98136657190373, -78.05017012538974 22.717737039309736, -78.5058255395184 22.480021901620038 M-78.5058255395184 22.480021901620038 C-79.07017530680073 22.13790975620612, -79.63452507408309 21.795797610792206, -79.92011310722663 21.622672466799017 M-78.5058255395184 22.480021901620038 C-78.80313250104876 22.29979267437069, -79.10043946257913 22.11956344712134, -79.92011310722663 21.622672466799017 M-79.92011310722663 21.622672466799017 C-80.29030445787404 21.36444300591267, -80.66049580852146 21.10621354502632, -81.27656430255584 20.67647083276321 M-79.92011310722663 21.622672466799017 C-80.24411152252894 21.39666519794947, -80.56810993783125 21.170657929099924, -81.27656430255584 20.67647083276321 M-81.27656430255584 20.67647083276321 C-81.594258967427 20.42311779173855, -81.91195363229815 20.16976475071389, -82.5696051765865 19.645305144986512 M-81.27656430255584 20.67647083276321 C-81.71659445754726 20.32555849385175, -82.15662461253869 19.97464615494029, -82.5696051765865 19.645305144986512 M-82.5696051765865 19.645305144986512 C-82.94296927780303 19.30622574693445, -83.31633337901955 18.96714634888239, -83.79392234701086 18.533412684464324 M-82.5696051765865 19.645305144986512 C-82.89301064470885 19.351596855677588, -83.2164161128312 19.05788856636866, -83.79392234701086 18.533412684464324 M-83.79392234701086 18.533412684464324 C-84.06887082250576 18.24950580982619, -84.34381929800065 17.965598935188055, -84.94448483196044 17.3453624558171 M-83.79392234701086 18.533412684464324 C-84.07910004633379 18.23894329638885, -84.36427774565672 17.944473908313373, -84.94448483196044 17.3453624558171 M-84.94448483196044 17.3453624558171 C-85.25501644514685 16.980594353218994, -85.56554805833326 16.615826250620884, -86.01656472338968 16.08603641227036 M-84.94448483196044 17.3453624558171 C-85.24153039688548 16.996435832884686, -85.53857596181051 16.647509209952275, -86.01656472338968 16.08603641227036 M-86.01656472338968 16.08603641227036 C-86.32955604637353 15.666656553568114, -86.64254736935737 15.247276694865866, -87.00575661506427 14.760609394661614 M-86.01656472338968 16.08603641227036 C-86.35166376012488 15.637034231195454, -86.68676279686008 15.188032050120546, -87.00575661506427 14.760609394661614 M-87.00575661506427 14.760609394661614 C-87.36403793431684 14.210193076284506, -87.7223192535694 13.659776757907398, -87.90799570532036 13.374527866909418 M-87.00575661506427 14.760609394661614 C-87.2401650662887 14.400495066098275, -87.47457351751311 14.040380737534937, -87.90799570532036 13.374527866909418 M-87.90799570532036 13.374527866909418 C-88.08565721662303 13.059071863412703, -88.26331872792572 12.74361585991599, -88.71957450020639 11.933487535324842 M-87.90799570532036 13.374527866909418 C-88.18170171205745 12.888535136209148, -88.45540771879453 12.402542405508877, -88.71957450020639 11.933487535324842 M-88.71957450020639 11.933487535324842 C-88.98638194806142 11.37945616108902, -89.25318939591646 10.825424786853198, -89.43715804837109 10.443409943732586 M-88.71957450020639 11.933487535324842 C-88.90578266270082 11.546822301688763, -89.09199082519524 11.160157068052683, -89.43715804837109 10.443409943732586 M-89.43715804837109 10.443409943732586 C-89.5995027924584 10.04241528711482, -89.76184753654572 9.64142063049705, -90.05779764509381 8.910418140577127 M-89.43715804837109 10.443409943732586 C-89.5638300139115 10.130527739811908, -89.69050197945192 9.817645535891229, -90.05779764509381 8.910418140577127 M-90.05779764509381 8.910418140577127 C-90.22534283015658 8.405798737868109, -90.39288801521934 7.90117933515909, -90.5789429491449 7.340811518003316 M-90.05779764509381 8.910418140577127 C-90.23343102224628 8.381438391972345, -90.40906439939873 7.852458643367566, -90.5789429491449 7.340811518003316 M-90.5789429491449 7.340811518003316 C-90.6954749362317 6.8964245459586415, -90.81200692331852 6.452037573913968, -90.99845246268467 5.741039926302918 M-90.5789429491449 7.340811518003316 C-90.69607726445923 6.894127607376384, -90.81321157977357 6.447443696749453, -90.99845246268467 5.741039926302918 M-90.99845246268467 5.741039926302918 C-91.11622890956588 5.1362827636287856, -91.23400535644708 4.531525600954654, -91.31460233113748 4.117677170096139 M-90.99845246268467 5.741039926302918 C-91.09392149842685 5.250826605154646, -91.18939053416905 4.760613284006374, -91.31460233113748 4.117677170096139 M-91.31460233113748 4.117677170096139 C-91.38505372074366 3.5712701045110915, -91.45550511034983 3.024863038926044, -91.52609342687991 2.477393995158454 M-91.31460233113748 4.117677170096139 C-91.39611521368319 3.4854793496108574, -91.47762809622891 2.8532815291255753, -91.52609342687991 2.477393995158454 M-91.52609342687991 2.477393995158454 C-91.5516970204938 2.0785973577733587, -91.57730061410768 1.6798007203882637, -91.63205668763487 0.8269306768952934 M-91.52609342687991 2.477393995158454 C-91.55996412987444 1.9498304560791615, -91.59383483286898 1.422266916999869, -91.63205668763487 0.8269306768952934 M-91.63205668763487 0.8269306768952934 C-91.63205668763487 0.23263537445365767, -91.63205668763487 -0.3616599279879781, -91.63205668763487 -0.8269306768952809 M-91.63205668763487 0.8269306768952934 C-91.63205668763487 0.3624759178166763, -91.63205668763487 -0.10197884126194079, -91.63205668763487 -0.8269306768952809 M-91.63205668763487 -0.8269306768952809 C-91.59328913383244 -1.4307666199743974, -91.55452158003 -2.0346025630535136, -91.52609342687991 -2.4773939951584185 M-91.63205668763487 -0.8269306768952809 C-91.59063375742467 -1.4721262509067095, -91.54921082721445 -2.117321824918138, -91.52609342687991 -2.4773939951584185 M-91.52609342687991 -2.4773939951584185 C-91.47841516193985 -2.8471772028951836, -91.43073689699979 -3.2169604106319487, -91.31460233113748 -4.117677170096128 M-91.52609342687991 -2.4773939951584185 C-91.44726091914987 -3.0888033578732617, -91.36842841141981 -3.7002127205881044, -91.31460233113748 -4.117677170096128 M-91.31460233113748 -4.117677170096128 C-91.24514514118063 -4.474325160742241, -91.17568795122378 -4.830973151388355, -90.99845246268467 -5.741039926302906 M-91.31460233113748 -4.117677170096128 C-91.20392125213648 -4.686001118311927, -91.09324017313547 -5.254325066527725, -90.99845246268467 -5.741039926302906 M-90.99845246268467 -5.741039926302906 C-90.84551900167179 -6.32424149492629, -90.69258554065891 -6.907443063549674, -90.5789429491449 -7.340811518003303 M-90.99845246268467 -5.741039926302906 C-90.85231192009215 -6.298337152920009, -90.70617137749962 -6.855634379537113, -90.5789429491449 -7.340811518003303 M-90.5789429491449 -7.340811518003303 C-90.42533068486603 -7.803467183220697, -90.27171842058716 -8.26612284843809, -90.05779764509383 -8.910418140577093 M-90.5789429491449 -7.340811518003303 C-90.44512149384809 -7.743860419803936, -90.31130003855127 -8.14690932160457, -90.05779764509383 -8.910418140577093 M-90.05779764509383 -8.910418140577093 C-89.84684114674018 -9.431484770077054, -89.63588464838652 -9.952551399577013, -89.43715804837109 -10.443409943732574 M-90.05779764509383 -8.910418140577093 C-89.85513246094037 -9.411005063700916, -89.65246727678691 -9.91159198682474, -89.43715804837109 -10.443409943732574 M-89.43715804837109 -10.443409943732574 C-89.19769395604307 -10.940662255162481, -88.95822986371505 -11.437914566592388, -88.7195745002064 -11.933487535324831 M-89.43715804837109 -10.443409943732574 C-89.18423613201095 -10.968607714716477, -88.93131421565081 -11.49380548570038, -88.7195745002064 -11.933487535324831 M-88.7195745002064 -11.933487535324831 C-88.52741280109828 -12.274690090573355, -88.33525110199014 -12.615892645821878, -87.90799570532036 -13.374527866909409 M-88.7195745002064 -11.933487535324831 C-88.46046347180992 -12.393565404079563, -88.20135244341341 -12.853643272834296, -87.90799570532036 -13.374527866909409 M-87.90799570532036 -13.374527866909409 C-87.61752576362024 -13.820767699461472, -87.32705582192011 -14.267007532013537, -87.00575661506429 -14.760609394661605 M-87.90799570532036 -13.374527866909409 C-87.64752113501173 -13.77468675411913, -87.3870465647031 -14.174845641328854, -87.00575661506429 -14.760609394661605 M-87.00575661506429 -14.760609394661605 C-86.78676692476294 -15.054035629294198, -86.5677772344616 -15.347461863926792, -86.01656472338968 -16.086036412270353 M-87.00575661506429 -14.760609394661605 C-86.67449499497408 -15.204469787028055, -86.34323337488388 -15.648330179394504, -86.01656472338968 -16.086036412270353 M-86.01656472338968 -16.086036412270353 C-85.71822889070212 -16.436478657134938, -85.41989305801457 -16.786920901999522, -84.94448483196045 -17.345362455817092 M-86.01656472338968 -16.086036412270353 C-85.669687253034 -16.493498426837352, -85.32280978267832 -16.90096044140435, -84.94448483196045 -17.345362455817092 M-84.94448483196045 -17.345362455817092 C-84.57636795478345 -17.725473354460036, -84.20825107760645 -18.10558425310298, -83.79392234701089 -18.5334126844643 M-84.94448483196045 -17.345362455817092 C-84.48718556266073 -17.8175614963373, -84.02988629336102 -18.289760536857514, -83.79392234701089 -18.5334126844643 M-83.79392234701089 -18.5334126844643 C-83.32574438227135 -18.958599524730605, -82.85756641753181 -19.38378636499691, -82.56960517658653 -19.645305144986487 M-83.79392234701089 -18.5334126844643 C-83.43181025450939 -18.86227330591322, -83.06969816200788 -19.191133927362138, -82.56960517658653 -19.645305144986487 M-82.56960517658653 -19.645305144986487 C-82.16763907377707 -19.96586241520981, -81.7656729709676 -20.28641968543313, -81.27656430255585 -20.676470832763204 M-82.56960517658653 -19.645305144986487 C-82.23202516108755 -19.914516223965435, -81.89444514558858 -20.18372730294438, -81.27656430255585 -20.676470832763204 M-81.27656430255585 -20.676470832763204 C-80.7705724813026 -21.029428823236568, -80.26458066004932 -21.38238681370993, -79.92011310722665 -21.622672466799 M-81.27656430255585 -20.676470832763204 C-80.89668381713798 -20.94145901462954, -80.51680333172011 -21.206447196495876, -79.92011310722665 -21.622672466799 M-79.92011310722665 -21.622672466799 C-79.3836470097861 -21.947881367692187, -78.84718091234555 -22.273090268585378, -78.50582553951841 -22.480021901620027 M-79.92011310722665 -21.622672466799 C-79.6137958169372 -21.80836380829268, -79.30747852664773 -21.99405514978636, -78.50582553951841 -22.480021901620027 M-78.50582553951841 -22.480021901620027 C-78.1115946424609 -22.685691908097994, -77.71736374540339 -22.891361914575956, -77.03951321041058 -23.244996104497716 M-78.50582553951841 -22.480021901620027 C-77.99829981267241 -22.74479774822984, -77.49077408582642 -23.009573594839654, -77.03951321041058 -23.244996104497716 M-77.03951321041058 -23.244996104497716 C-76.4852876550896 -23.490335317321343, -75.93106209976864 -23.73567453014497, -75.52720151178646 -23.91445163234599 M-77.03951321041058 -23.244996104497716 C-76.65223021914686 -23.416434796388412, -76.26494722788313 -23.587873488279104, -75.52720151178646 -23.91445163234599 M-75.52720151178646 -23.91445163234599 C-75.05621332289242 -24.087779639626092, -74.58522513399836 -24.26110764690619, -73.97510485680553 -24.485637548803172 M-75.52720151178646 -23.91445163234599 C-75.02141981147162 -24.10058397345664, -74.51563811115676 -24.28671631456729, -73.97510485680553 -24.485637548803172 M-73.97510485680553 -24.485637548803172 C-73.58735916571578 -24.600718434599944, -73.19961347462602 -24.71579932039672, -72.38960114354681 -24.956206728419538 M-73.97510485680553 -24.485637548803172 C-73.60770009017887 -24.594681354990993, -73.24029532355219 -24.703725161178813, -72.38960114354681 -24.956206728419538 M-72.38960114354681 -24.956206728419538 C-71.9617126787803 -25.053869478269313, -71.5338242140138 -25.151532228119088, -70.77720554685754 -25.324225501499278 M-72.38960114354681 -24.956206728419538 C-71.77996028934123 -25.0953532751136, -71.17031943513567 -25.234499821807656, -70.77720554685754 -25.324225501499278 M-70.77720554685754 -25.324225501499278 C-70.406130426874 -25.384218049167682, -70.03505530689047 -25.444210596836086, -69.14454374610233 -25.588181599964017 M-70.77720554685754 -25.324225501499278 C-70.15109462367107 -25.42545025999734, -69.52498370048461 -25.5266750184954, -69.14454374610233 -25.588181599964017 M-69.14454374610233 -25.588181599964017 C-68.67368392077584 -25.633604881021473, -68.20282409544937 -25.679028162078925, -67.49832469882529 -25.746990371586765 M-69.14454374610233 -25.588181599964017 C-68.79129295224551 -25.622259279201145, -68.4380421583887 -25.656336958438278, -67.49832469882529 -25.746990371586765 M-67.49832469882529 -25.746990371586765 C-67.15080148185132 -25.758134764742213, -66.80327826487736 -25.769279157897664, -65.8453130722046 -25.799999237060547 M-67.49832469882529 -25.746990371586765 C-66.92433781804152 -25.765397013655814, -66.35035093725777 -25.78380365572486, -65.8453130722046 -25.799999237060547 M-65.8453130722046 -25.799999237060547 C-65.8453130722046 -25.799999237060547, -65.84531307220459 -25.799999237060547, -65.84531307220459 -25.799999237060547 M-65.8453130722046 -25.799999237060547 C-65.8453130722046 -25.799999237060547, -65.8453130722046 -25.799999237060547, -65.84531307220459 -25.799999237060547" stroke="#555555" stroke-width="1.3" fill="none" stroke-dasharray="0 0" style=""></path></g><g class="label" style="" transform="translate(0, -18.299999237060547)"><rect></rect><g><rect class="background" style="stroke: none"></rect><text y="-10.1" style=""><tspan class="text-outer-tspan row" x="0" y="-0.1em" dy="1.1em"><tspan font-style="normal" class="text-inner-tspan" font-weight="normal">Pick</tspan><tspan font-style="normal" class="text-inner-tspan" font-weight="normal"> a</tspan><tspan font-style="normal" class="text-inner-tspan" font-weight="normal"> default</tspan><tspan font-style="normal" class="text-inner-tspan" font-weight="normal"> release</tspan></tspan><tspan class="text-outer-tspan row" x="0" y="1em" dy="1.1em"><tspan font-style="normal" class="text-inner-tspan" font-weight="normal">model</tspan></tspan></text></g></g></g><g class="node default" id="g5650d4fc-1491-4d1b-a5db-b57abe34ad0e-dark-flowchart-qCoupling-1" data-look="classic" transform="translate(468.56640625, 242.18437957763672)"><polygon points="132.5843734741211,0 265.1687469482422,-132.5843734741211 132.5843734741211,-265.1687469482422 0,-132.5843734741211" class="label-container" transform="translate(-132.0843734741211, 132.5843734741211)"></polygon><g class="label" style="" transform="translate(0, -27.099998474121094)"><rect></rect><g><rect class="background" style="stroke: none"></rect><text y="-10.1" style=""><tspan class="text-outer-tspan row" x="0" y="-0.1em" dy="1.1em"><tspan font-style="normal" class="text-inner-tspan" font-weight="normal">Are</tspan><tspan font-style="normal" class="text-inner-tspan" font-weight="normal"> domain</tspan></tspan><tspan class="text-outer-tspan row" x="0" y="1em" dy="1.1em"><tspan font-style="normal" class="text-inner-tspan" font-weight="normal">boundaries</tspan><tspan font-style="normal" class="text-inner-tspan" font-weight="normal"> and</tspan><tspan font-style="normal" class="text-inner-tspan" font-weight="normal"> contracts</tspan></tspan><tspan class="text-outer-tspan row" x="0" y="2.1em" dy="1.1em"><tspan font-style="normal" class="text-inner-tspan" font-weight="normal">actually</tspan><tspan font-style="normal" class="text-inner-tspan" font-weight="normal"> stable?</tspan></tspan></text></g></g></g><g class="node default" id="g5650d4fc-1491-4d1b-a5db-b57abe34ad0e-dark-flowchart-qOrg-2" data-look="classic" transform="translate(609.7414054870605, 574.8218841552734)"><polygon points="127.0531234741211,0 254.1062469482422,-127.0531234741211 127.0531234741211,-254.1062469482422 0,-127.0531234741211" class="label-container" transform="translate(-126.5531234741211, 127.0531234741211)"></polygon><g class="label" style="" transform="translate(0, -27.099998474121094)"><rect></rect><g><rect class="background" style="stroke: none"></rect><text y="-10.1" style=""><tspan class="text-outer-tspan row" x="0" y="-0.1em" dy="1.1em"><tspan font-style="normal" class="text-inner-tspan" font-weight="normal">Multiple</tspan><tspan font-style="normal" class="text-inner-tspan" font-weight="normal"> teams</tspan><tspan font-style="normal" class="text-inner-tspan" font-weight="normal"> shipping</tspan></tspan><tspan class="text-outer-tspan row" x="0" y="1em" dy="1.1em"><tspan font-style="normal" class="text-inner-tspan" font-weight="normal">different</tspan><tspan font-style="normal" class="text-inner-tspan" font-weight="normal"> cadences</tspan></tspan><tspan class="text-outer-tspan row" x="0" y="2.1em" dy="1.1em"><tspan font-style="normal" class="text-inner-tspan" font-weight="normal">into</tspan><tspan font-style="normal" class="text-inner-tspan" font-weight="normal"> the</tspan><tspan font-style="normal" class="text-inner-tspan" font-weight="normal"> same</tspan><tspan font-style="normal" class="text-inner-tspan" font-weight="normal"> UI?</tspan></tspan></text></g></g></g><g class="node default" id="g5650d4fc-1491-4d1b-a5db-b57abe34ad0e-dark-flowchart-qSkew-3" data-look="classic" transform="translate(736.8226547241211, 912.8875045776367)"><polygon points="120.4124984741211,0 240.8249969482422,-120.4124984741211 120.4124984741211,-240.8249969482422 0,-120.4124984741211" class="label-container" transform="translate(-119.9124984741211, 120.4124984741211)"></polygon><g class="label" style="" transform="translate(0, -27.099998474121094)"><rect></rect><g><rect class="background" style="stroke: none"></rect><text y="-10.1" style=""><tspan class="text-outer-tspan row" x="0" y="-0.1em" dy="1.1em"><tspan font-style="normal" class="text-inner-tspan" font-weight="normal">Can</tspan><tspan font-style="normal" class="text-inner-tspan" font-weight="normal"> the</tspan><tspan font-style="normal" class="text-inner-tspan" font-weight="normal"> platform</tspan><tspan font-style="normal" class="text-inner-tspan" font-weight="normal"> own</tspan></tspan><tspan class="text-outer-tspan row" x="0" y="1em" dy="1.1em"><tspan font-style="normal" class="text-inner-tspan" font-weight="normal">routing,</tspan><tspan font-style="normal" class="text-inner-tspan" font-weight="normal"> caching,</tspan></tspan><tspan class="text-outer-tspan row" x="0" y="2.1em" dy="1.1em"><tspan font-style="normal" class="text-inner-tspan" font-weight="normal">and</tspan><tspan font-style="normal" class="text-inner-tspan" font-weight="normal"> version</tspan><tspan font-style="normal" class="text-inner-tspan" font-weight="normal"> skew?</tspan></tspan></text></g></g></g><g class="node default" id="g5650d4fc-1491-4d1b-a5db-b57abe34ad0e-dark-flowchart-trainRel-4" data-look="classic" transform="translate(130.265625, 574.8218841552734)"><rect class="basic label-container" style="" x="-105.296875" y="-42.099998474121094" width="210.59375" height="84.19999694824219"></rect><g class="label" style="" transform="translate(0, -27.099998474121094)"><rect></rect><g><rect class="background" style="stroke: none"></rect><text y="-10.1" style=""><tspan class="text-outer-tspan row" x="0" y="-0.1em" dy="1.1em"><tspan font-style="normal" class="text-inner-tspan" font-weight="normal">Single</tspan><tspan font-style="normal" class="text-inner-tspan" font-weight="normal"> release</tspan><tspan font-style="normal" class="text-inner-tspan" font-weight="normal"> train</tspan></tspan><tspan class="text-outer-tspan row" x="0" y="1em" dy="1.1em"><tspan font-style="normal" class="text-inner-tspan" font-weight="normal">(batched,</tspan><tspan font-style="normal" class="text-inner-tspan" font-weight="normal"> monolithic</tspan></tspan><tspan class="text-outer-tspan row" x="0" y="2.1em" dy="1.1em"><tspan font-style="normal" class="text-inner-tspan" font-weight="normal">deploy)</tspan></tspan></text></g></g></g><g class="node default" id="g5650d4fc-1491-4d1b-a5db-b57abe34ad0e-dark-flowchart-trunkRel-5" data-look="classic" transform="translate(458.31953048706055, 1166)"><rect class="basic label-container" style="" x="-114.4453125" y="-42.099998474121094" width="228.890625" height="84.19999694824219"></rect><g class="label" style="" transform="translate(0, -27.099998474121094)"><rect></rect><g><rect class="background" style="stroke: none"></rect><text y="-10.1" style=""><tspan class="text-outer-tspan row" x="0" y="-0.1em" dy="1.1em"><tspan font-style="normal" class="text-inner-tspan" font-weight="normal">Trunk-based</tspan><tspan font-style="normal" class="text-inner-tspan" font-weight="normal"> continuous</tspan></tspan><tspan class="text-outer-tspan row" x="0" y="1em" dy="1.1em"><tspan font-style="normal" class="text-inner-tspan" font-weight="normal">delivery</tspan></tspan><tspan class="text-outer-tspan row" x="0" y="2.1em" dy="1.1em"><tspan font-style="normal" class="text-inner-tspan" font-weight="normal">on</tspan><tspan font-style="normal" class="text-inner-tspan" font-weight="normal"> one</tspan><tspan font-style="normal" class="text-inner-tspan" font-weight="normal"> deployable</tspan></tspan></text></g></g></g><g class="node default" id="g5650d4fc-1491-4d1b-a5db-b57abe34ad0e-dark-flowchart-indepRel-6" data-look="classic" transform="translate(843.9710922241211, 1166)"><rect class="basic label-container" style="" x="-127.0859375" y="-42.099998474121094" width="254.171875" height="84.19999694824219"></rect><g class="label" style="" transform="translate(0, -27.099998474121094)"><rect></rect><g><rect class="background" style="stroke: none"></rect><text y="-10.1" style=""><tspan class="text-outer-tspan row" x="0" y="-0.1em" dy="1.1em"><tspan font-style="normal" class="text-inner-tspan" font-weight="normal">Independent</tspan><tspan font-style="normal" class="text-inner-tspan" font-weight="normal"> deployables</tspan></tspan><tspan class="text-outer-tspan row" x="0" y="1em" dy="1.1em"><tspan font-style="normal" class="text-inner-tspan" font-weight="normal">(module</tspan><tspan font-style="normal" class="text-inner-tspan" font-weight="normal"> federation,</tspan></tspan><tspan class="text-outer-tspan row" x="0" y="2.1em" dy="1.1em"><tspan font-style="normal" class="text-inner-tspan" font-weight="normal">server-included</tspan><tspan font-style="normal" class="text-inner-tspan" font-weight="normal"> fragments)</tspan></tspan></text></g></g></g><g class="node default note" id="g5650d4fc-1491-4d1b-a5db-b57abe34ad0e-dark-flowchart-trainNote-7" data-look="classic" transform="translate(130.265625, 912.8875045776367)"><rect class="basic label-container" style="fill:#665419 !important;stroke:#b08900 !important" x="-122.265625" y="-59.70000076293945" width="244.53125" height="119.4000015258789"></rect><g class="label" style="color:#5f4b00 !important" transform="translate(0, -44.70000076293945)"><rect></rect><g><rect class="background" style="stroke: none"></rect><text y="-10.1" style="fill:#5f4b00 !important"><tspan class="text-outer-tspan row" x="0" y="-0.1em" dy="1.1em"><tspan font-style="normal" class="text-inner-tspan" font-weight="normal">Best</tspan><tspan font-style="normal" class="text-inner-tspan" font-weight="normal"> when:</tspan></tspan><tspan class="text-outer-tspan row" x="0" y="1em" dy="1.1em"><tspan font-style="normal" class="text-inner-tspan" font-weight="normal">tight</tspan><tspan font-style="normal" class="text-inner-tspan" font-weight="normal"> regulatory</tspan><tspan font-style="normal" class="text-inner-tspan" font-weight="normal"> windows,</tspan></tspan><tspan class="text-outer-tspan row" x="0" y="2.1em" dy="1.1em"><tspan font-style="normal" class="text-inner-tspan" font-weight="normal">early</tspan><tspan font-style="normal" class="text-inner-tspan" font-weight="normal"> product,</tspan><tspan font-style="normal" class="text-inner-tspan" font-weight="normal"> or</tspan></tspan><tspan class="text-outer-tspan row" x="0" y="3.2em" dy="1.1em"><tspan font-style="normal" class="text-inner-tspan" font-weight="normal">genuinely</tspan><tspan font-style="normal" class="text-inner-tspan" font-weight="normal"> monolithic</tspan></tspan><tspan class="text-outer-tspan row" x="0" y="4.300000000000001em" dy="1.1em"><tspan font-style="normal" class="text-inner-tspan" font-weight="normal">runtime</tspan></tspan></text></g></g></g><g class="node default note" id="g5650d4fc-1491-4d1b-a5db-b57abe34ad0e-dark-flowchart-trunkNote-8" data-look="classic" transform="translate(458.31953048706055, 1309)"><rect class="basic label-container" style="fill:#665419 !important;stroke:#b08900 !important" x="-127.0703125" y="-50.900001525878906" width="254.140625" height="101.80000305175781"></rect><g class="label" style="color:#5f4b00 !important" transform="translate(0, -35.900001525878906)"><rect></rect><g><rect class="background" style="stroke: none"></rect><text y="-10.1" style="fill:#5f4b00 !important"><tspan class="text-outer-tspan row" x="0" y="-0.1em" dy="1.1em"><tspan font-style="normal" class="text-inner-tspan" font-weight="normal">Best</tspan><tspan font-style="normal" class="text-inner-tspan" font-weight="normal"> when:</tspan></tspan><tspan class="text-outer-tspan row" x="0" y="1em" dy="1.1em"><tspan font-style="normal" class="text-inner-tspan" font-weight="normal">contracts</tspan><tspan font-style="normal" class="text-inner-tspan" font-weight="normal"> and</tspan><tspan font-style="normal" class="text-inner-tspan" font-weight="normal"> feature</tspan><tspan font-style="normal" class="text-inner-tspan" font-weight="normal"> flags</tspan></tspan><tspan class="text-outer-tspan row" x="0" y="2.1em" dy="1.1em"><tspan font-style="normal" class="text-inner-tspan" font-weight="normal">are</tspan><tspan font-style="normal" class="text-inner-tspan" font-weight="normal"> mature,</tspan><tspan font-style="normal" class="text-inner-tspan" font-weight="normal"> observability</tspan></tspan><tspan class="text-outer-tspan row" x="0" y="3.2em" dy="1.1em"><tspan font-style="normal" class="text-inner-tspan" font-weight="normal">is</tspan><tspan font-style="normal" class="text-inner-tspan" font-weight="normal"> strong</tspan></tspan></text></g></g></g><g class="node default note" id="g5650d4fc-1491-4d1b-a5db-b57abe34ad0e-dark-flowchart-indepNote-9" data-look="classic" transform="translate(843.9710922241211, 1309)"><rect class="basic label-container" style="fill:#665419 !important;stroke:#b08900 !important" x="-125.7734375" y="-50.900001525878906" width="251.546875" height="101.80000305175781"></rect><g class="label" style="color:#5f4b00 !important" transform="translate(0, -35.900001525878906)"><rect></rect><g><rect class="background" style="stroke: none"></rect><text y="-10.1" style="fill:#5f4b00 !important"><tspan class="text-outer-tspan row" x="0" y="-0.1em" dy="1.1em"><tspan font-style="normal" class="text-inner-tspan" font-weight="normal">Best</tspan><tspan font-style="normal" class="text-inner-tspan" font-weight="normal"> when:</tspan></tspan><tspan class="text-outer-tspan row" x="0" y="1em" dy="1.1em"><tspan font-style="normal" class="text-inner-tspan" font-weight="normal">org</tspan><tspan font-style="normal" class="text-inner-tspan" font-weight="normal"> parallelism</tspan><tspan font-style="normal" class="text-inner-tspan" font-weight="normal"> dominates,</tspan></tspan><tspan class="text-outer-tspan row" x="0" y="2.1em" dy="1.1em"><tspan font-style="normal" class="text-inner-tspan" font-weight="normal">and</tspan><tspan font-style="normal" class="text-inner-tspan" font-weight="normal"> platform</tspan><tspan font-style="normal" class="text-inner-tspan" font-weight="normal"> owns</tspan><tspan font-style="normal" class="text-inner-tspan" font-weight="normal"> the</tspan></tspan><tspan class="text-outer-tspan row" x="0" y="3.2em" dy="1.1em"><tspan font-style="normal" class="text-inner-tspan" font-weight="normal">seams</tspan></tspan></text></g></g></g></g></g></g><defs><filter id="g5650d4fc-1491-4d1b-a5db-b57abe34ad0e-dark-drop-shadow" height="130%" width="130%"><feDropShadow dx="4" dy="4" stdDeviation="0" flood-opacity="0.06" flood-color="#000000"></feDropShadow></filter></defs><defs><filter id="g5650d4fc-1491-4d1b-a5db-b57abe34ad0e-dark-drop-shadow-small" height="150%" width="150%"><feDropShadow dx="2" dy="2" stdDeviation="0" flood-opacity="0.06" flood-color="#000000"></feDropShadow></filter></defs><linearGradient id="g5650d4fc-1491-4d1b-a5db-b57abe34ad0e-dark-gradient" gradientUnits="objectBoundingBox" x1="0%" y1="0%" x2="100%" y2="0%"><stop offset="0%" stop-color="#555555" stop-opacity="1"></stop><stop offset="100%" stop-color="#555555" stop-opacity="1"></stop></linearGradient></svg>