<svg id="gb52d95fd-193f-47c8-b1ab-376ac5098532-light" width="100%" xmlns="http://www.w3.org/2000/svg" xmlns:xlink="http://www.w3.org/1999/xlink" class="flowchart" style="max-width: 856.1038818359375px;" viewBox="0 0 856.1038818359375 1121.4593505859375" role="graphics-document document" aria-roledescription="flowchart-v2"><style>#gb52d95fd-193f-47c8-b1ab-376ac5098532-light{font-family:"trebuchet ms",verdana,arial,sans-serif;font-size:16px;fill:#333;}@keyframes edge-animation-frame{from{stroke-dashoffset:0;}}@keyframes dash{to{stroke-dashoffset:0;}}#gb52d95fd-193f-47c8-b1ab-376ac5098532-light .edge-animation-slow{stroke-dasharray:9,5!important;stroke-dashoffset:900;animation:dash 50s linear infinite;stroke-linecap:round;}#gb52d95fd-193f-47c8-b1ab-376ac5098532-light .edge-animation-fast{stroke-dasharray:9,5!important;stroke-dashoffset:900;animation:dash 20s linear infinite;stroke-linecap:round;}#gb52d95fd-193f-47c8-b1ab-376ac5098532-light .error-icon{fill:#552222;}#gb52d95fd-193f-47c8-b1ab-376ac5098532-light .error-text{fill:#552222;stroke:#552222;}#gb52d95fd-193f-47c8-b1ab-376ac5098532-light .edge-thickness-normal{stroke-width:1px;}#gb52d95fd-193f-47c8-b1ab-376ac5098532-light .edge-thickness-thick{stroke-width:3.5px;}#gb52d95fd-193f-47c8-b1ab-376ac5098532-light .edge-pattern-solid{stroke-dasharray:0;}#gb52d95fd-193f-47c8-b1ab-376ac5098532-light .edge-thickness-invisible{stroke-width:0;fill:none;}#gb52d95fd-193f-47c8-b1ab-376ac5098532-light .edge-pattern-dashed{stroke-dasharray:3;}#gb52d95fd-193f-47c8-b1ab-376ac5098532-light .edge-pattern-dotted{stroke-dasharray:2;}#gb52d95fd-193f-47c8-b1ab-376ac5098532-light .marker{fill:#333333;stroke:#333333;}#gb52d95fd-193f-47c8-b1ab-376ac5098532-light .marker.cross{stroke:#333333;}#gb52d95fd-193f-47c8-b1ab-376ac5098532-light svg{font-family:"trebuchet ms",verdana,arial,sans-serif;font-size:16px;}#gb52d95fd-193f-47c8-b1ab-376ac5098532-light p{margin:0;}#gb52d95fd-193f-47c8-b1ab-376ac5098532-light .label{font-family:"trebuchet ms",verdana,arial,sans-serif;color:#333;}#gb52d95fd-193f-47c8-b1ab-376ac5098532-light .cluster-label text{fill:#333;}#gb52d95fd-193f-47c8-b1ab-376ac5098532-light .cluster-label span{color:#333;}#gb52d95fd-193f-47c8-b1ab-376ac5098532-light .cluster-label span p{background-color:transparent;}#gb52d95fd-193f-47c8-b1ab-376ac5098532-light .label text,#gb52d95fd-193f-47c8-b1ab-376ac5098532-light span{fill:#333;color:#333;}#gb52d95fd-193f-47c8-b1ab-376ac5098532-light .node rect,#gb52d95fd-193f-47c8-b1ab-376ac5098532-light .node circle,#gb52d95fd-193f-47c8-b1ab-376ac5098532-light .node ellipse,#gb52d95fd-193f-47c8-b1ab-376ac5098532-light .node polygon,#gb52d95fd-193f-47c8-b1ab-376ac5098532-light .node path{fill:#ECECFF;stroke:#9370DB;stroke-width:1px;}#gb52d95fd-193f-47c8-b1ab-376ac5098532-light .rough-node .label text,#gb52d95fd-193f-47c8-b1ab-376ac5098532-light .node .label text,#gb52d95fd-193f-47c8-b1ab-376ac5098532-light .image-shape .label,#gb52d95fd-193f-47c8-b1ab-376ac5098532-light .icon-shape .label{text-anchor:middle;}#gb52d95fd-193f-47c8-b1ab-376ac5098532-light .node .katex path{fill:#000;stroke:#000;stroke-width:1px;}#gb52d95fd-193f-47c8-b1ab-376ac5098532-light .rough-node .label,#gb52d95fd-193f-47c8-b1ab-376ac5098532-light .node .label,#gb52d95fd-193f-47c8-b1ab-376ac5098532-light .image-shape .label,#gb52d95fd-193f-47c8-b1ab-376ac5098532-light .icon-shape .label{text-align:center;}#gb52d95fd-193f-47c8-b1ab-376ac5098532-light .node.clickable{cursor:pointer;}#gb52d95fd-193f-47c8-b1ab-376ac5098532-light .root .anchor path{fill:#333333!important;stroke-width:0;stroke:#333333;}#gb52d95fd-193f-47c8-b1ab-376ac5098532-light .arrowheadPath{fill:#333333;}#gb52d95fd-193f-47c8-b1ab-376ac5098532-light .edgePath .path{stroke:#333333;stroke-width:1px;}#gb52d95fd-193f-47c8-b1ab-376ac5098532-light .flowchart-link{stroke:#333333;fill:none;}#gb52d95fd-193f-47c8-b1ab-376ac5098532-light .edgeLabel{background-color:rgba(232,232,232, 0.8);text-align:center;}#gb52d95fd-193f-47c8-b1ab-376ac5098532-light .edgeLabel p{background-color:rgba(232,232,232, 0.8);}#gb52d95fd-193f-47c8-b1ab-376ac5098532-light .edgeLabel rect{opacity:0.5;background-color:rgba(232,232,232, 0.8);fill:rgba(232,232,232, 0.8);}#gb52d95fd-193f-47c8-b1ab-376ac5098532-light .labelBkg{background-color:rgba(232, 232, 232, 0.5);}#gb52d95fd-193f-47c8-b1ab-376ac5098532-light .cluster rect{fill:#ffffde;stroke:#aaaa33;stroke-width:1px;}#gb52d95fd-193f-47c8-b1ab-376ac5098532-light .cluster text{fill:#333;}#gb52d95fd-193f-47c8-b1ab-376ac5098532-light .cluster span{color:#333;}#gb52d95fd-193f-47c8-b1ab-376ac5098532-light div.mermaidTooltip{position:absolute;text-align:center;max-width:200px;padding:2px;font-family:"trebuchet ms",verdana,arial,sans-serif;font-size:12px;background:hsl(80, 100%, 96.2745098039%);border:1px solid #aaaa33;border-radius:2px;pointer-events:none;z-index:100;}#gb52d95fd-193f-47c8-b1ab-376ac5098532-light .flowchartTitleText{text-anchor:middle;font-size:18px;fill:#333;}#gb52d95fd-193f-47c8-b1ab-376ac5098532-light rect.text{fill:none;stroke-width:0;}#gb52d95fd-193f-47c8-b1ab-376ac5098532-light .icon-shape,#gb52d95fd-193f-47c8-b1ab-376ac5098532-light .image-shape{background-color:rgba(232,232,232, 0.8);text-align:center;}#gb52d95fd-193f-47c8-b1ab-376ac5098532-light .icon-shape p,#gb52d95fd-193f-47c8-b1ab-376ac5098532-light .image-shape p{background-color:rgba(232,232,232, 0.8);padding:2px;}#gb52d95fd-193f-47c8-b1ab-376ac5098532-light .icon-shape .label rect,#gb52d95fd-193f-47c8-b1ab-376ac5098532-light .image-shape .label rect{opacity:0.5;background-color:rgba(232,232,232, 0.8);fill:rgba(232,232,232, 0.8);}#gb52d95fd-193f-47c8-b1ab-376ac5098532-light .label-icon{display:inline-block;height:1em;overflow:visible;vertical-align:-0.125em;}#gb52d95fd-193f-47c8-b1ab-376ac5098532-light .node .label-icon path{fill:currentColor;stroke:revert;stroke-width:revert;}#gb52d95fd-193f-47c8-b1ab-376ac5098532-light .node .neo-node{stroke:#9370DB;}#gb52d95fd-193f-47c8-b1ab-376ac5098532-light [data-look="neo"].node rect,#gb52d95fd-193f-47c8-b1ab-376ac5098532-light [data-look="neo"].cluster rect,#gb52d95fd-193f-47c8-b1ab-376ac5098532-light [data-look="neo"].node polygon{stroke:#9370DB;filter:drop-shadow(1px 2px 2px rgba(185, 185, 185, 1));}#gb52d95fd-193f-47c8-b1ab-376ac5098532-light [data-look="neo"].node path{stroke:#9370DB;stroke-width:1px;}#gb52d95fd-193f-47c8-b1ab-376ac5098532-light [data-look="neo"].node .outer-path{filter:drop-shadow(1px 2px 2px rgba(185, 185, 185, 1));}#gb52d95fd-193f-47c8-b1ab-376ac5098532-light [data-look="neo"].node .neo-line path{stroke:#9370DB;filter:none;}#gb52d95fd-193f-47c8-b1ab-376ac5098532-light [data-look="neo"].node circle{stroke:#9370DB;filter:drop-shadow(1px 2px 2px rgba(185, 185, 185, 1));}#gb52d95fd-193f-47c8-b1ab-376ac5098532-light [data-look="neo"].node circle .state-start{fill:#000000;}#gb52d95fd-193f-47c8-b1ab-376ac5098532-light [data-look="neo"].icon-shape .icon{fill:#9370DB;filter:drop-shadow(1px 2px 2px rgba(185, 185, 185, 1));}#gb52d95fd-193f-47c8-b1ab-376ac5098532-light [data-look="neo"].icon-shape .icon-neo path{stroke:#9370DB;filter:drop-shadow(1px 2px 2px rgba(185, 185, 185, 1));}#gb52d95fd-193f-47c8-b1ab-376ac5098532-light :root{--mermaid-font-family:"trebuchet ms",verdana,arial,sans-serif;}</style><g><marker id="gb52d95fd-193f-47c8-b1ab-376ac5098532-light_flowchart-v2-pointEnd" class="marker flowchart-v2" viewBox="0 0 10 10" refX="5" refY="5" markerUnits="userSpaceOnUse" markerWidth="8" markerHeight="8" orient="auto"><path d="M 0 0 L 10 5 L 0 10 z" class="arrowMarkerPath" style="stroke-width: 1; stroke-dasharray: 1, 0;"></path></marker><marker id="gb52d95fd-193f-47c8-b1ab-376ac5098532-light_flowchart-v2-pointStart" class="marker flowchart-v2" viewBox="0 0 10 10" refX="4.5" refY="5" markerUnits="userSpaceOnUse" markerWidth="8" markerHeight="8" orient="auto"><path d="M 0 5 L 10 10 L 10 0 z" class="arrowMarkerPath" style="stroke-width: 1; stroke-dasharray: 1, 0;"></path></marker><marker id="gb52d95fd-193f-47c8-b1ab-376ac5098532-light_flowchart-v2-pointEnd-margin" class="marker flowchart-v2" viewBox="0 0 11.5 14" refX="11.5" refY="7" markerUnits="userSpaceOnUse" markerWidth="10.5" markerHeight="14" orient="auto"><path d="M 0 0 L 11.5 7 L 0 14 z" class="arrowMarkerPath" style="stroke-width: 0; stroke-dasharray: 1, 0;"></path></marker><marker id="gb52d95fd-193f-47c8-b1ab-376ac5098532-light_flowchart-v2-pointStart-margin" class="marker flowchart-v2" viewBox="0 0 11.5 14" refX="1" refY="7" markerUnits="userSpaceOnUse" markerWidth="11.5" markerHeight="14" orient="auto"><polygon points="0,7 11.5,14 11.5,0" class="arrowMarkerPath" style="stroke-width: 0; stroke-dasharray: 1, 0;"></polygon></marker><marker id="gb52d95fd-193f-47c8-b1ab-376ac5098532-light_flowchart-v2-circleEnd" class="marker flowchart-v2" viewBox="0 0 10 10" refX="11" refY="5" markerUnits="userSpaceOnUse" markerWidth="11" markerHeight="11" orient="auto"><circle cx="5" cy="5" r="5" class="arrowMarkerPath" style="stroke-width: 1; stroke-dasharray: 1, 0;"></circle></marker><marker id="gb52d95fd-193f-47c8-b1ab-376ac5098532-light_flowchart-v2-circleStart" class="marker flowchart-v2" viewBox="0 0 10 10" refX="-1" refY="5" markerUnits="userSpaceOnUse" markerWidth="11" markerHeight="11" orient="auto"><circle cx="5" cy="5" r="5" class="arrowMarkerPath" style="stroke-width: 1; stroke-dasharray: 1, 0;"></circle></marker><marker id="gb52d95fd-193f-47c8-b1ab-376ac5098532-light_flowchart-v2-circleEnd-margin" class="marker flowchart-v2" viewBox="0 0 10 10" refY="5" refX="12.25" markerUnits="userSpaceOnUse" markerWidth="14" markerHeight="14" orient="auto"><circle cx="5" cy="5" r="5" class="arrowMarkerPath" style="stroke-width: 0; stroke-dasharray: 1, 0;"></circle></marker><marker id="gb52d95fd-193f-47c8-b1ab-376ac5098532-light_flowchart-v2-circleStart-margin" class="marker flowchart-v2" viewBox="0 0 10 10" refX="-2" refY="5" markerUnits="userSpaceOnUse" markerWidth="14" markerHeight="14" orient="auto"><circle cx="5" cy="5" r="5" class="arrowMarkerPath" style="stroke-width: 0; stroke-dasharray: 1, 0;"></circle></marker><marker id="gb52d95fd-193f-47c8-b1ab-376ac5098532-light_flowchart-v2-crossEnd" class="marker cross flowchart-v2" viewBox="0 0 11 11" refX="12" refY="5.2" markerUnits="userSpaceOnUse" markerWidth="11" markerHeight="11" orient="auto"><path d="M 1,1 l 9,9 M 10,1 l -9,9" class="arrowMarkerPath" style="stroke-width: 2; stroke-dasharray: 1, 0;"></path></marker><marker id="gb52d95fd-193f-47c8-b1ab-376ac5098532-light_flowchart-v2-crossStart" class="marker cross flowchart-v2" viewBox="0 0 11 11" refX="-1" refY="5.2" markerUnits="userSpaceOnUse" markerWidth="11" markerHeight="11" orient="auto"><path d="M 1,1 l 9,9 M 10,1 l -9,9" class="arrowMarkerPath" style="stroke-width: 2; stroke-dasharray: 1, 0;"></path></marker><marker id="gb52d95fd-193f-47c8-b1ab-376ac5098532-light_flowchart-v2-crossEnd-margin" class="marker cross flowchart-v2" viewBox="0 0 15 15" refX="17.7" refY="7.5" markerUnits="userSpaceOnUse" markerWidth="12" markerHeight="12" orient="auto"><path d="M 1,1 L 14,14 M 1,14 L 14,1" class="arrowMarkerPath" style="stroke-width: 2.5;"></path></marker><marker id="gb52d95fd-193f-47c8-b1ab-376ac5098532-light_flowchart-v2-crossStart-margin" class="marker cross flowchart-v2" viewBox="0 0 15 15" refX="-3.5" refY="7.5" markerUnits="userSpaceOnUse" markerWidth="12" markerHeight="12" orient="auto"><path d="M 1,1 L 14,14 M 1,14 L 14,1" class="arrowMarkerPath" style="stroke-width: 2.5; stroke-dasharray: 1, 0;"></path></marker><g class="root"><g class="clusters"></g><g class="edgePaths"><path d="M174.24,60.1L174.157,64.183C174.073,68.267,173.907,76.433,173.823,84.017C173.74,91.6,173.74,98.6,173.74,102.1L173.74,105.6" id="gb52d95fd-193f-47c8-b1ab-376ac5098532-light-L_START_Q1_0" class="edge-thickness-normal edge-pattern-solid edge-thickness-normal edge-pattern-solid flowchart-link" style=";" data-edge="true" data-et="edge" data-id="L_START_Q1_0" data-points="W3sieCI6MTc0LjIzOTg0NTI3NTg3ODksInkiOjYwLjA5OTk5ODQ3NDEyMTExfSx7IngiOjE3My43Mzk4NDUyNzU4Nzg5LCJ5Ijo4NC41OTk5OTg0NzQxMjExfSx7IngiOjE3My43Mzk4NDUyNzU4Nzg5MywieSI6MTA5LjU5OTk5ODQ3NDEyMTA3fV0=" data-look="classic" marker-end="url(#gb52d95fd-193f-47c8-b1ab-376ac5098532-light_flowchart-v2-pointEnd)"></path><path d="M143.967,320.496L140.336,331.542C136.705,342.587,129.442,364.678,125.811,400.302C122.18,435.926,122.18,485.083,122.18,534.241C122.18,583.398,122.18,632.555,122.18,676.838C122.18,721.12,122.18,760.528,122.18,780.232L122.18,799.936" id="gb52d95fd-193f-47c8-b1ab-376ac5098532-light-L_Q1_BND_0" class="edge-thickness-normal edge-pattern-solid edge-thickness-normal edge-pattern-solid flowchart-link" style=";" data-edge="true" data-et="edge" data-id="L_Q1_BND_0" data-points="W3sieCI6MTQzLjk2NzE4NjQzOTkxMzMyLCJ5IjozMjAuNDk2MDg2NTg2Mzk3Njd9LHsieCI6MTIyLjE3OTY4NzUsInkiOjM4Ni43Njg3NDU0MjIzNjMzfSx7IngiOjEyMi4xNzk2ODc1LCJ5Ijo1MzQuMjQwNjIzNDc0MTIxMX0seyJ4IjoxMjIuMTc5Njg3NSwieSI6NjgxLjcxMjUwMTUyNTg3ODl9LHsieCI6MTIyLjE3OTY4NzUsInkiOjgwMy45MzU5NDM2MDM1MTU2fV0=" data-look="classic" marker-end="url(#gb52d95fd-193f-47c8-b1ab-376ac5098532-light_flowchart-v2-pointEnd)"></path><path d="M246.569,277.439L274.505,295.661C302.441,313.882,358.312,350.326,386.247,373.964C414.183,397.602,414.183,408.435,414.183,413.852L414.183,419.269" id="gb52d95fd-193f-47c8-b1ab-376ac5098532-light-L_Q1_Q2_0" class="edge-thickness-normal edge-pattern-solid edge-thickness-normal edge-pattern-solid flowchart-link" style=";" data-edge="true" data-et="edge" data-id="L_Q1_Q2_0" data-points="W3sieCI6MjQ2LjU2OTQ1NTcyMjA1NjMsInkiOjI3Ny40MzkxMzQ5NzYxODU4N30seyJ4Ijo0MTQuMTgyODE1NTUxNzU3OCwieSI6Mzg2Ljc2ODc0NTQyMjM2MzN9LHsieCI6NDE0LjE4MjgxNTU1MTc1NzgsInkiOjQyMy4yNjg3NDU0MjIzNjMyfV0=" data-look="classic" marker-end="url(#gb52d95fd-193f-47c8-b1ab-376ac5098532-light_flowchart-v2-pointEnd)"></path><path d="M414.183,645.213L414.183,651.296C414.183,657.379,414.183,669.546,414.183,681.046C414.183,692.546,414.183,703.379,414.183,708.796L414.183,714.213" id="gb52d95fd-193f-47c8-b1ab-376ac5098532-light-L_Q2_Q3_0" class="edge-thickness-normal edge-pattern-solid edge-thickness-normal edge-pattern-solid flowchart-link" style=";" data-edge="true" data-et="edge" data-id="L_Q2_Q3_0" data-points="W3sieCI6NDE0LjE4MjgxNTU1MTc1NzgsInkiOjY0NS4yMTI1MDE1MjU4Nzg5fSx7IngiOjQxNC4xODI4MTU1NTE3NTc4LCJ5Ijo2ODEuNzEyNTAxNTI1ODc4OX0seyJ4Ijo0MTQuMTgyODE1NTUxNzU3ODcsInkiOjcxOC4yMTI1MDE1MjU4Nzg5fV0=" data-look="classic" marker-end="url(#gb52d95fd-193f-47c8-b1ab-376ac5098532-light_flowchart-v2-pointEnd)"></path><path d="M490.23,569.165L531.074,587.923C571.919,606.681,653.607,644.197,694.452,670.957C735.296,697.718,735.296,713.723,735.296,721.726L735.296,729.728" id="gb52d95fd-193f-47c8-b1ab-376ac5098532-light-L_Q2_Q4_0" class="edge-thickness-normal edge-pattern-solid edge-thickness-normal edge-pattern-solid flowchart-link" style=";" data-edge="true" data-et="edge" data-id="L_Q2_Q4_0" data-points="W3sieCI6NDkwLjIyOTkxODU4MTU5NzksInkiOjU2OS4xNjUzOTg0OTYwMzg3fSx7IngiOjczNS4yOTYwOTY4MDE3NTc4LCJ5Ijo2ODEuNzEyNTAxNTI1ODc4OX0seyJ4Ijo3MzUuMjk2MDk2ODAxNzU3OSwieSI6NzMzLjcyODEyNjUyNTg3ODh9XQ==" data-look="classic" marker-end="url(#gb52d95fd-193f-47c8-b1ab-376ac5098532-light_flowchart-v2-pointEnd)"></path><path d="M361.074,920.751L350.458,935.685C339.842,950.62,318.61,980.49,300.299,1001.112C281.989,1021.734,266.599,1033.108,258.904,1038.795L251.209,1044.482" id="gb52d95fd-193f-47c8-b1ab-376ac5098532-light-L_Q3_RES_0" class="edge-thickness-normal edge-pattern-solid edge-thickness-normal edge-pattern-solid flowchart-link" style=";" data-edge="true" data-et="edge" data-id="L_Q3_RES_0" data-points="W3sieCI6MzYxLjA3NDAxNzMyNDA4OTU0LCJ5Ijo5MjAuNzUwNTg0NDAxNzI2M30seyJ4IjoyOTcuMzc4MTI4MDUxNzU3OCwieSI6MTAxMC4zNTkzODI2MjkzOTQ1fSx7IngiOjI0Ny45OTI1NzgzOTg0MTcwNywieSI6MTA0Ni44NTkzODI2MjkzOTQ1fV0=" data-look="classic" marker-end="url(#gb52d95fd-193f-47c8-b1ab-376ac5098532-light_flowchart-v2-pointEnd)"></path><path d="M441.531,946.511L444.427,957.153C447.324,967.794,453.117,989.077,457.759,1005.167C462.401,1021.256,465.892,1032.153,467.638,1037.602L469.383,1043.05" id="gb52d95fd-193f-47c8-b1ab-376ac5098532-light-L_Q3_TUPLE_0" class="edge-thickness-normal edge-pattern-solid edge-thickness-normal edge-pattern-solid flowchart-link" style=";" data-edge="true" data-et="edge" data-id="L_Q3_TUPLE_0" data-points="W3sieCI6NDQxLjUzMDgzMjg2NTA0OTksInkiOjk0Ni41MTEzNjUzMTYxMDI2fSx7IngiOjQ1OC45MDkzNzgwNTE3NTc4LCJ5IjoxMDEwLjM1OTM4MjYyOTM5NDV9LHsieCI6NDcwLjYwMzY0NDE2Mjc0NjYsInkiOjEwNDYuODU5MzgyNjI5Mzk0NX1d" data-look="classic" marker-end="url(#gb52d95fd-193f-47c8-b1ab-376ac5098532-light_flowchart-v2-pointEnd)"></path><path d="M721.843,944.89L720.358,955.802C718.873,966.713,715.903,988.536,716.163,1004.896C716.424,1021.256,719.915,1032.153,721.661,1037.602L723.407,1043.05" id="gb52d95fd-193f-47c8-b1ab-376ac5098532-light-L_Q4_THROW_0" class="edge-thickness-normal edge-pattern-solid edge-thickness-normal edge-pattern-solid flowchart-link" style=";" data-edge="true" data-et="edge" data-id="L_Q4_THROW_0" data-points="W3sieCI6NzIxLjg0MjY5NjE0NDY3MTQsInkiOjk0NC44OTAzNTY5NzIzMDh9LHsieCI6NzEyLjkzMjgxNTU1MTc1NzgsInkiOjEwMTAuMzU5MzgyNjI5Mzk0NX0seyJ4Ijo3MjQuNjI3MDgxNjYyNzQ2NiwieSI6MTA0Ni44NTkzODI2MjkzOTQ1fV0=" data-look="classic" marker-end="url(#gb52d95fd-193f-47c8-b1ab-376ac5098532-light_flowchart-v2-pointEnd)"></path><path d="M748.749,944.89L750.234,955.802C751.719,966.713,754.689,988.536,685.24,1008.373C615.791,1028.211,473.922,1046.062,402.988,1054.987L332.054,1063.913" id="gb52d95fd-193f-47c8-b1ab-376ac5098532-light-L_Q4_RES_0" class="edge-thickness-normal edge-pattern-solid edge-thickness-normal edge-pattern-solid flowchart-link" style=";" data-edge="true" data-et="edge" data-id="L_Q4_RES_0" data-points="W3sieCI6NzQ4Ljc0OTQ5NzQ1ODg0NDMsInkiOjk0NC44OTAzNTY5NzIzMDgzfSx7IngiOjc1Ny42NTkzNzgwNTE3NTc4LCJ5IjoxMDEwLjM1OTM4MjYyOTM5NDV9LHsieCI6MzI4LjA4NTE1OTMwMTc1NzgsInkiOjEwNjQuNDEyMTIzNzY2MjE1Mn1d" data-look="classic" marker-end="url(#gb52d95fd-193f-47c8-b1ab-376ac5098532-light_flowchart-v2-pointEnd)"></path><path d="M122.18,888.136L122.18,908.507C122.18,928.877,122.18,969.618,128.714,995.636C135.247,1021.654,148.315,1032.949,154.849,1038.596L161.383,1044.244" id="gb52d95fd-193f-47c8-b1ab-376ac5098532-light-L_BND_RES_0" class="edge-thickness-normal edge-pattern-solid edge-thickness-normal edge-pattern-solid flowchart-link" style=";" data-edge="true" data-et="edge" data-id="L_BND_RES_0" data-points="W3sieCI6MTIyLjE3OTY4NzUsInkiOjg4OC4xMzU5NDA1NTE3NTc4fSx7IngiOjEyMi4xNzk2ODc1LCJ5IjoxMDEwLjM1OTM4MjYyOTM5NDV9LHsieCI6MTY0LjQwOTM2OTIyMjUzMzY4LCJ5IjoxMDQ2Ljg1OTM4MjYyOTM5NDV9XQ==" data-look="classic" marker-end="url(#gb52d95fd-193f-47c8-b1ab-376ac5098532-light_flowchart-v2-pointEnd)"></path></g><g class="edgeLabels"><g class="edgeLabel"><g class="label" data-id="L_START_Q1_0" transform="translate(0, 0)"><text y="-10.1" text-anchor="middle"><tspan class="text-outer-tspan row" x="0" y="-0.1em" dy="1.1em" text-anchor="middle"></tspan></text></g></g><g><rect class="background" style="stroke: none"></rect></g><g class="edgeLabel" transform="translate(122.1796875, 534.2406234741211)"><g class="label" data-id="L_Q1_BND_0" transform="translate(0, -10.5)"><g><rect class="background" style="" x="-13.328125" y="-1" width="26.65625" height="23"></rect><text y="-10.1" text-anchor="middle" style=""><tspan class="text-outer-tspan row" x="0" y="-0.1em" dy="1.1em" text-anchor="middle"><tspan font-style="normal" class="text-inner-tspan" font-weight="normal">Yes</tspan></tspan></text></g></g></g><g class="edgeLabel" transform="translate(414.1828155517578, 386.7687454223633)"><g class="label" data-id="L_Q1_Q2_0" transform="translate(0, -10.5)"><g><rect class="background" style="" x="-11.3984375" y="-1" width="22.796875" height="23"></rect><text y="-10.1" text-anchor="middle" style=""><tspan class="text-outer-tspan row" x="0" y="-0.1em" dy="1.1em" text-anchor="middle"><tspan font-style="normal" class="text-inner-tspan" font-weight="normal">No</tspan></tspan></text></g></g></g><g class="edgeLabel" transform="translate(414.1828155517578, 681.7125015258789)"><g class="label" data-id="L_Q2_Q3_0" transform="translate(0, -10.5)"><g><rect class="background" style="" x="-13.328125" y="-1" width="26.65625" height="23"></rect><text y="-10.1" text-anchor="middle" style=""><tspan class="text-outer-tspan row" x="0" y="-0.1em" dy="1.1em" text-anchor="middle"><tspan font-style="normal" class="text-inner-tspan" font-weight="normal">Yes</tspan></tspan></text></g></g></g><g class="edgeLabel" transform="translate(735.2960968017578, 681.7125015258789)"><g class="label" data-id="L_Q2_Q4_0" transform="translate(0, -10.5)"><g><rect class="background" style="" x="-11.3984375" y="-1" width="22.796875" height="23"></rect><text y="-10.1" text-anchor="middle" style=""><tspan class="text-outer-tspan row" x="0" y="-0.1em" dy="1.1em" text-anchor="middle"><tspan font-style="normal" class="text-inner-tspan" font-weight="normal">No</tspan></tspan></text></g></g></g><g class="edgeLabel" transform="translate(311.43662, 990.58159)"><g class="label" data-id="L_Q3_RES_0" transform="translate(0, -10.5)"><g><rect class="background" style="" x="-13.328125" y="-1" width="26.65625" height="23"></rect><text y="-10.1" text-anchor="middle" style=""><tspan class="text-outer-tspan row" x="0" y="-0.1em" dy="1.1em" text-anchor="middle"><tspan font-style="normal" class="text-inner-tspan" font-weight="normal">Yes</tspan></tspan></text></g></g></g><g class="edgeLabel" transform="translate(455.25312, 996.92646)"><g class="label" data-id="L_Q3_TUPLE_0" transform="translate(0, -10.5)"><g><rect class="background" style="" x="-11.3984375" y="-1" width="22.796875" height="23"></rect><text y="-10.1" text-anchor="middle" style=""><tspan class="text-outer-tspan row" x="0" y="-0.1em" dy="1.1em" text-anchor="middle"><tspan font-style="normal" class="text-inner-tspan" font-weight="normal">No</tspan></tspan></text></g></g></g><g class="edgeLabel" transform="translate(714.80352, 996.61363)"><g class="label" data-id="L_Q4_THROW_0" transform="translate(0, -10.5)"><g><rect class="background" style="" x="-13.328125" y="-1" width="26.65625" height="23"></rect><text y="-10.1" text-anchor="middle" style=""><tspan class="text-outer-tspan row" x="0" y="-0.1em" dy="1.1em" text-anchor="middle"><tspan font-style="normal" class="text-inner-tspan" font-weight="normal">Yes</tspan></tspan></text></g></g></g><g class="edgeLabel" transform="translate(575.65007, 1033.26137)"><g class="label" data-id="L_Q4_RES_0" transform="translate(0, -10.5)"><g><rect class="background" style="" x="-11.3984375" y="-1" width="22.796875" height="23"></rect><text y="-10.1" text-anchor="middle" style=""><tspan class="text-outer-tspan row" x="0" y="-0.1em" dy="1.1em" text-anchor="middle"><tspan font-style="normal" class="text-inner-tspan" font-weight="normal">No</tspan></tspan></text></g></g></g><g class="edgeLabel"><g class="label" data-id="L_BND_RES_0" transform="translate(0, 0)"><text y="-10.1" text-anchor="middle"><tspan class="text-outer-tspan row" x="0" y="-0.1em" dy="1.1em" text-anchor="middle"></tspan></text></g></g><g><rect class="background" style="stroke: none"></rect></g></g><g class="nodes"><g class="node default" id="gb52d95fd-193f-47c8-b1ab-376ac5098532-light-flowchart-START-0" data-look="classic" transform="translate(173.7398452758789, 33.79999923706055)"><g class="basic label-container outer-path"><path d="M-41.67343807220459 -25.799999237060547 C-8.540557815699195 -25.799999237060547, 24.5923224408062 -25.799999237060547, 41.67343807220459 -25.799999237060547 C41.67343807220459 -25.799999237060547, 41.67343807220459 -25.799999237060547, 41.67343807220459 -25.799999237060547 C42.21246013277057 -25.782713848720988, 42.75148219333656 -25.765428460381433, 43.326449698825286 -25.746990371586765 C43.68058295121736 -25.71282756263605, 44.034716203609435 -25.678664753685336, 44.97266874610231 -25.58818159996402 C45.36546124257172 -25.52467795528615, 45.75825373904113 -25.461174310608282, 46.60533054685753 -25.32422550149928 C47.13596521868854 -25.203111600368693, 47.66659989051954 -25.08199769923811, 48.217726143546784 -24.956206728419545 C48.826433667290225 -24.77554553054349, 49.43514119103366 -24.59488433266743, 49.803229856805515 -24.48563754880318 C50.41382336352338 -24.260933494066503, 51.02441687024123 -24.036229439329826, 51.35532651178644 -23.914451632345997 C51.675244477594134 -23.772833438912205, 51.99516244340183 -23.631215245478412, 52.86763821041056 -23.24499610449772 C53.264528122764844 -23.03793889144261, 53.66141803511913 -22.830881678387506, 54.3339505395184 -22.480021901620034 C54.8702008061316 -22.154943838642748, 55.4064510727448 -21.829865775665464, 55.74823810722664 -21.62267246679901 C56.09306288995787 -21.382137625589962, 56.43788767268911 -21.141602784380915, 57.10468930255584 -20.67647083276321 C57.44295271360193 -20.406714764021363, 57.78121612464802 -20.136958695279517, 58.397730176586506 -19.64530514498651 C58.84628799086194 -19.23793680625097, 59.29484580513738 -18.83056846751543, 59.62204734701088 -18.533412684464313 C60.046913687510994 -18.094703305722664, 60.47178002801112 -17.65599392698102, 60.77260983196044 -17.345362455817106 C61.11391153347274 -16.94445005660378, 61.45521323498504 -16.54353765739046, 61.84468972338968 -16.086036412270357 C62.20055691297618 -15.609206798392359, 62.55642410256268 -15.132377184514361, 62.83388161506427 -14.76060939466161 C63.13044625184637 -14.305006473808852, 63.42701088862847 -13.849403552956092, 63.73612070532037 -13.374527866909407 C63.93140027250608 -13.027789221170757, 64.12667983969179 -12.681050575432106, 64.5476995002064 -11.93348753532484 C64.71992650376188 -11.575854477374346, 64.89215350731736 -11.218221419423852, 65.26528304837109 -10.443409943732584 C65.50572716133507 -9.84950833604085, 65.74617127429906 -9.255606728349116, 65.88592264509381 -8.910418140577123 C66.0290889197446 -8.479224131777114, 66.17225519439538 -8.048030122977105, 66.4070679491449 -7.340811518003323 C66.49206064374009 -7.016697537445045, 66.57705333833526 -6.692583556886766, 66.82657746268467 -5.741039926302914 C66.91944557181523 -5.264181813599326, 67.01231368094578 -4.7873237008957386, 67.14272733113748 -4.117677170096137 C67.20006790301268 -3.672955017808734, 67.25740847488788 -3.2282328655213317, 67.35421842687991 -2.4773939951584394 C67.37972384349008 -2.0801265438531544, 67.40522926010027 -1.6828590925478695, 67.46018168763487 -0.8269306768952902 C67.46018168763487 -0.2918926758636292, 67.46018168763487 0.24314532516803178, 67.46018168763487 0.826930676895284 C67.43562973184947 1.209347206234777, 67.41107777606409 1.5917637355742702, 67.35421842687991 2.4773939951584216 C67.29562795497185 2.9318101252800006, 67.23703748306379 3.3862262554015796, 67.14272733113748 4.117677170096119 C67.05561905396354 4.564959763043405, 66.9685107767896 5.012242355990692, 66.82657746268467 5.741039926302909 C66.69964900432112 6.225073149184968, 66.57272054595757 6.709106372067025, 66.4070679491449 7.340811518003306 C66.21137812049436 7.930198102958722, 66.01568829184383 8.519584687914138, 65.88592264509383 8.910418140577105 C65.70987662225868 9.345255220598244, 65.53383059942352 9.780092300619382, 65.26528304837109 10.443409943732577 C65.05009197211383 10.890258817932207, 64.83490089585656 11.337107692131836, 64.5476995002064 11.933487535324835 C64.28804875910556 12.394523718637966, 64.02839801800474 12.855559901951098, 63.736120705320374 13.374527866909402 C63.496093730618504 13.743273756318908, 63.256066755916635 14.112019645728417, 62.833881615064286 14.760609394661596 C62.60710764111528 15.064465860219233, 62.38033366716627 15.36832232577687, 61.84468972338968 16.086036412270353 C61.57015632672415 16.408518961386488, 61.29562293005862 16.731001510502622, 60.77260983196045 17.345362455817092 C60.46201760538484 17.66607442985245, 60.15142537880922 17.986786403887812, 59.62204734701088 18.533412684464306 C59.136222807333255 18.974625677186598, 58.65039826765563 19.415838669908887, 58.397730176586535 19.64530514498649 C57.952842476564676 20.000091246795023, 57.50795477654281 20.354877348603555, 57.10468930255585 20.676470832763208 C56.73822679847158 20.93209921170627, 56.37176429438731 21.187727590649335, 55.748238107226655 21.622672466799003 C55.35785321227556 21.85932608427465, 54.96746831732445 22.0959797017503, 54.333950539518405 22.48002190162003 C53.967795603035974 22.671044697449485, 53.60164066655354 22.86206749327894, 52.86763821041057 23.244996104497716 C52.284947583882406 23.50293595995843, 51.702256957354244 23.760875815419148, 51.35532651178645 23.914451632345994 C50.78362685269817 24.124842391624195, 50.211927193609895 24.3352331509024, 49.80322985680553 24.485637548803172 C49.480673418268786 24.58137060662758, 49.15811697973205 24.67710366445199, 48.21772614354681 24.95620672841954 C47.6882526805881 25.077055591202623, 47.15877921762939 25.197904453985704, 46.605330546857545 25.324225501499278 C46.25019520423992 25.38164102957798, 45.89505986162231 25.43905655765668, 44.97266874610233 25.588181599964017 C44.57729786266979 25.626322553585698, 44.181926979237254 25.66446350720738, 43.326449698825286 25.746990371586765 C42.73911406758565 25.765825082101166, 42.151778436346014 25.784659792615567, 41.6734380722046 25.799999237060547 C41.6734380722046 25.799999237060547, 41.67343807220459 25.799999237060547, 41.67343807220459 25.799999237060547 C21.783435333099924 25.799999237060547, 1.8934325939952572 25.799999237060547, -41.67343807220458 25.799999237060547 C-42.01423390270808 25.789070578095142, -42.35502973321158 25.778141919129737, -43.32644969882527 25.746990371586765 C-43.9597066870245 25.685900831538138, -44.592963675223736 25.624811291489515, -44.972668746102315 25.588181599964017 C-45.321061379889066 25.531856180758602, -45.66945401367582 25.475530761553188, -46.60533054685753 25.324225501499278 C-46.99134808500986 25.236119517415858, -47.37736562316219 25.14801353333244, -48.217726143546784 24.956206728419545 C-48.80439616999289 24.782086144064152, -49.391066196439 24.60796555970876, -49.8032298568055 24.485637548803183 C-50.334266040448 24.290211324378074, -50.8653022240905 24.094785099952965, -51.355326511786444 23.914451632345997 C-51.789531760079235 23.722241849167833, -52.22373700837203 23.530032065989673, -52.86763821041056 23.244996104497723 C-53.20196792664117 23.07057650568862, -53.536297642871766 22.89615690687952, -54.3339505395184 22.480021901620038 C-54.782538207022796 22.20808542138512, -55.231125874527194 21.936148941150208, -55.748238107226626 21.622672466799017 C-56.20233532097429 21.305913908040207, -56.65643253472196 20.989155349281397, -57.10468930255584 20.67647083276321 C-57.465369349893884 20.388838093110273, -57.826049397231934 20.10120535345734, -58.397730176586506 19.645305144986512 C-58.643976327425314 19.42167090611083, -58.89022247826412 19.19803666723515, -59.62204734701086 18.533412684464324 C-59.877175768277226 18.26997164307387, -60.13230418954358 18.006530601683416, -60.77260983196044 17.3453624558171 C-61.191343846164386 16.853493656092756, -61.610077860368335 16.361624856368408, -61.84468972338967 16.08603641227036 C-62.186728255177435 15.627735940026032, -62.5287667869652 15.169435467781703, -62.83388161506427 14.760609394661614 C-63.03100657865053 14.457772515128733, -63.228131542236795 14.154935635595852, -63.73612070532036 13.374527866909418 C-63.9326200686617 13.02562334957869, -64.12911943200304 12.676718832247964, -64.54769950020639 11.933487535324842 C-64.77874338745812 11.453719959899383, -65.00978727470985 10.973952384473924, -65.26528304837109 10.443409943732586 C-65.43827563717255 10.01611490480879, -65.61126822597402 9.588819865884991, -65.88592264509381 8.910418140577127 C-66.07493646235824 8.341138638238741, -66.26395027962266 7.771859135900353, -66.4070679491449 7.340811518003316 C-66.55040105431634 6.794220267023878, -66.69373415948779 6.24762901604444, -66.82657746268467 5.741039926302918 C-66.93851876193322 5.166245013463563, -67.05046006118178 4.591450100624208, -67.14272733113748 4.117677170096139 C-67.1854719160129 3.786158610675394, -67.22821650088832 3.454640051254649, -67.35421842687991 2.477393995158454 C-67.38772270884427 1.9555377593939438, -67.42122699080862 1.4336815236294334, -67.46018168763487 0.8269306768952934 C-67.46018168763487 0.3478077218858557, -67.46018168763487 -0.13131523312358206, -67.46018168763487 -0.8269306768952809 C-67.42548656304345 -1.3673352478070862, -67.39079143845204 -1.9077398187188914, -67.35421842687991 -2.4773939951584185 C-67.29234588151182 -2.9572652389173046, -67.23047333614373 -3.4371364826761908, -67.14272733113748 -4.117677170096128 C-67.02629913887874 -4.715511330237593, -66.90987094662 -5.313345490379058, -66.82657746268467 -5.741039926302906 C-66.66321616503005 -6.364007355494208, -66.49985486737545 -6.986974784685511, -66.4070679491449 -7.340811518003303 C-66.23914135784854 -7.846579655519101, -66.07121476655217 -8.3523477930349, -65.88592264509383 -8.910418140577093 C-65.64986833252686 -9.49347685641715, -65.41381401995991 -10.076535572257205, -65.26528304837109 -10.443409943732574 C-65.01211867014693 -10.969111191964952, -64.75895429192279 -11.494812440197332, -64.5476995002064 -11.933487535324831 C-64.3022678960694 -12.369276201114946, -64.05683629193238 -12.80506486690506, -63.73612070532037 -13.374527866909409 C-63.53495831232715 -13.683567322212973, -63.33379591933393 -13.992606777516539, -62.83388161506428 -14.760609394661605 C-62.5128154577577 -15.190808795723765, -62.19174930045112 -15.621008196785924, -61.84468972338968 -16.086036412270353 C-61.527077273609905 -16.459122068442046, -61.20946482383013 -16.832207724613742, -60.77260983196045 -17.345362455817092 C-60.42485659959365 -17.70444621930717, -60.07710336722685 -18.063529982797245, -59.62204734701089 -18.5334126844643 C-59.2462482144988 -18.874703513511598, -58.870449081986706 -19.2159943425589, -58.397730176586535 -19.645305144986487 C-58.11965973797069 -19.867058920017477, -57.84158929935486 -20.088812695048468, -57.10468930255585 -20.676470832763204 C-56.734890521772854 -20.93442645390621, -56.36509174098986 -21.192382075049213, -55.74823810722666 -21.622672466799 C-55.24876196255613 -21.925457840945906, -54.74928581788561 -22.228243215092814, -54.333950539518405 -22.480021901620027 C-53.96900625966202 -22.67041309866314, -53.60406197980563 -22.860804295706252, -52.867638210410576 -23.244996104497716 C-52.4066295885547 -23.44907094605843, -51.94562096669882 -23.65314578761914, -51.35532651178645 -23.91445163234599 C-50.77466360632441 -24.12814094914508, -50.19400070086236 -24.34183026594417, -49.80322985680553 -24.485637548803172 C-49.48339179213427 -24.58056380753334, -49.16355372746301 -24.675490066263514, -48.21772614354682 -24.956206728419538 C-47.584246596035854 -25.100794301298542, -46.95076704852489 -25.245381874177543, -46.605330546857545 -25.324225501499278 C-46.21603927771337 -25.387163094895627, -45.826748008569204 -25.450100688291975, -44.97266874610233 -25.588181599964017 C-44.31727055405563 -25.651407075319113, -43.66187236200893 -25.71463255067421, -43.326449698825286 -25.746990371586765 C-42.913745897202595 -25.760224979225587, -42.501042095579905 -25.77345958686441, -41.6734380722046 -25.799999237060547 C-41.6734380722046 -25.799999237060547, -41.6734380722046 -25.799999237060547, -41.67343807220459 -25.799999237060547" stroke="none" stroke-width="0" fill="#ECECFF" style=""></path><path d="M-41.67343807220459 -25.799999237060547 C-14.356517119120177 -25.799999237060547, 12.960403833964236 -25.799999237060547, 41.67343807220459 -25.799999237060547 M-41.67343807220459 -25.799999237060547 C-21.10185337484331 -25.799999237060547, -0.5302686774820273 -25.799999237060547, 41.67343807220459 -25.799999237060547 M41.67343807220459 -25.799999237060547 C41.67343807220459 -25.799999237060547, 41.67343807220459 -25.799999237060547, 41.67343807220459 -25.799999237060547 M41.67343807220459 -25.799999237060547 C41.67343807220459 -25.799999237060547, 41.67343807220459 -25.799999237060547, 41.67343807220459 -25.799999237060547 M41.67343807220459 -25.799999237060547 C42.27115695084316 -25.780831556011826, 42.86887582948172 -25.761663874963105, 43.326449698825286 -25.746990371586765 M41.67343807220459 -25.799999237060547 C42.221539092404775 -25.782422704156644, 42.76964011260496 -25.76484617125274, 43.326449698825286 -25.746990371586765 M43.326449698825286 -25.746990371586765 C43.978217661671984 -25.684115100076603, 44.62998562451868 -25.62123982856644, 44.97266874610231 -25.58818159996402 M43.326449698825286 -25.746990371586765 C43.979291486536205 -25.684011509483415, 44.63213327424712 -25.621032647380066, 44.97266874610231 -25.58818159996402 M44.97266874610231 -25.58818159996402 C45.483545187686204 -25.505587058794713, 45.9944216292701 -25.422992517625403, 46.60533054685753 -25.32422550149928 M44.97266874610231 -25.58818159996402 C45.34395212000358 -25.528155383417232, 45.71523549390484 -25.46812916687044, 46.60533054685753 -25.32422550149928 M46.60533054685753 -25.32422550149928 C47.08777569702507 -25.21411054422236, 47.57022084719262 -25.103995586945445, 48.217726143546784 -24.956206728419545 M46.60533054685753 -25.32422550149928 C47.19336500689553 -25.19001047327907, 47.781399466933536 -25.055795445058862, 48.217726143546784 -24.956206728419545 M48.217726143546784 -24.956206728419545 C48.80005231335959 -24.783375377911547, 49.3823784831724 -24.610544027403545, 49.803229856805515 -24.48563754880318 M48.217726143546784 -24.956206728419545 C48.78744113724289 -24.78711830878557, 49.357156130938996 -24.618029889151593, 49.803229856805515 -24.48563754880318 M49.803229856805515 -24.48563754880318 C50.35232737823819 -24.283564585114107, 50.90142489967088 -24.08149162142503, 51.35532651178644 -23.914451632345997 M49.803229856805515 -24.48563754880318 C50.321300246383515 -24.294982856448293, 50.839370635961515 -24.104328164093403, 51.35532651178644 -23.914451632345997 M51.35532651178644 -23.914451632345997 C51.79365583718494 -23.720416242569534, 52.23198516258345 -23.52638085279307, 52.86763821041056 -23.24499610449772 M51.35532651178644 -23.914451632345997 C51.94000827912797 -23.655630357912298, 52.5246900464695 -23.396809083478598, 52.86763821041056 -23.24499610449772 M52.86763821041056 -23.24499610449772 C53.26868965778245 -23.035767821289515, 53.669741105154344 -22.826539538081313, 54.3339505395184 -22.480021901620034 M52.86763821041056 -23.24499610449772 C53.45251714025381 -22.93986514143133, 54.03739607009706 -22.63473417836494, 54.3339505395184 -22.480021901620034 M54.3339505395184 -22.480021901620034 C54.77614676931616 -22.21195994848314, 55.21834299911392 -21.943897995346244, 55.74823810722664 -21.62267246679901 M54.3339505395184 -22.480021901620034 C54.658001719149574 -22.283580172191506, 54.98205289878074 -22.087138442762978, 55.74823810722664 -21.62267246679901 M55.74823810722664 -21.62267246679901 C56.17879641365919 -21.322333630800347, 56.60935472009174 -21.02199479480169, 57.10468930255584 -20.67647083276321 M55.74823810722664 -21.62267246679901 C56.11540492285385 -21.366552790612747, 56.48257173848105 -21.11043311442649, 57.10468930255584 -20.67647083276321 M57.10468930255584 -20.67647083276321 C57.36968452774776 -20.465144192491756, 57.63467975293968 -20.253817552220298, 58.397730176586506 -19.64530514498651 M57.10468930255584 -20.67647083276321 C57.535889341355436 -20.332600276535473, 57.96708938015503 -19.988729720307735, 58.397730176586506 -19.64530514498651 M58.397730176586506 -19.64530514498651 C58.67930612256755 -19.3895853209378, 58.96088206854861 -19.13386549688909, 59.62204734701088 -18.533412684464313 M58.397730176586506 -19.64530514498651 C58.758506782816845 -19.31765737683403, 59.11928338904719 -18.990009608681554, 59.62204734701088 -18.533412684464313 M59.62204734701088 -18.533412684464313 C59.908125036867524 -18.23801398227218, 60.19420272672417 -17.942615280080048, 60.77260983196044 -17.345362455817106 M59.62204734701088 -18.533412684464313 C60.071994812721634 -18.068804984744006, 60.52194227843239 -17.6041972850237, 60.77260983196044 -17.345362455817106 M60.77260983196044 -17.345362455817106 C61.07671010097641 -16.98814897603544, 61.38081036999239 -16.630935496253773, 61.84468972338968 -16.086036412270357 M60.77260983196044 -17.345362455817106 C61.101036794132355 -16.95957345802642, 61.429463756304266 -16.57378446023573, 61.84468972338968 -16.086036412270357 M61.84468972338968 -16.086036412270357 C62.092248794322884 -15.754329810315179, 62.33980786525609 -15.42262320836, 62.83388161506427 -14.76060939466161 M61.84468972338968 -16.086036412270357 C62.166360519235745 -15.655026850648985, 62.488031315081805 -15.224017289027612, 62.83388161506427 -14.76060939466161 M62.83388161506427 -14.76060939466161 C63.15844456306153 -14.261993549183106, 63.48300751105879 -13.763377703704602, 63.73612070532037 -13.374527866909407 M62.83388161506427 -14.76060939466161 C63.14777406263957 -14.278386303261804, 63.46166651021486 -13.796163211861996, 63.73612070532037 -13.374527866909407 M63.73612070532037 -13.374527866909407 C64.0170932502258 -12.875632661874473, 64.29806579513122 -12.376737456839537, 64.5476995002064 -11.93348753532484 M63.73612070532037 -13.374527866909407 C63.951915755498604 -12.991361903699612, 64.16771080567683 -12.608195940489818, 64.5476995002064 -11.93348753532484 M64.5476995002064 -11.93348753532484 C64.78862709557629 -11.433196228514545, 65.02955469094618 -10.93290492170425, 65.26528304837109 -10.443409943732584 M64.5476995002064 -11.93348753532484 C64.72821167308 -11.558650146011058, 64.90872384595359 -11.183812756697277, 65.26528304837109 -10.443409943732584 M65.26528304837109 -10.443409943732584 C65.44080638562248 -10.00986390720876, 65.61632972287389 -9.576317870684935, 65.88592264509381 -8.910418140577123 M65.26528304837109 -10.443409943732584 C65.41292619684589 -10.07872851251373, 65.56056934532069 -9.714047081294874, 65.88592264509381 -8.910418140577123 M65.88592264509381 -8.910418140577123 C65.99107862540106 -8.593705082221872, 66.09623460570832 -8.27699202386662, 66.4070679491449 -7.340811518003323 M65.88592264509381 -8.910418140577123 C66.09018845947047 -8.29520205301244, 66.29445427384711 -7.679985965447757, 66.4070679491449 -7.340811518003323 M66.4070679491449 -7.340811518003323 C66.50830319677799 -6.9547576431445055, 66.60953844441107 -6.568703768285689, 66.82657746268467 -5.741039926302914 M66.4070679491449 -7.340811518003323 C66.50578885467623 -6.964345919301258, 66.60450976020756 -6.587880320599192, 66.82657746268467 -5.741039926302914 M66.82657746268467 -5.741039926302914 C66.9470784816596 -5.122292661766006, 67.06757950063454 -4.503545397229098, 67.14272733113748 -4.117677170096137 M66.82657746268467 -5.741039926302914 C66.91714323430328 -5.2760038301239796, 67.00770900592188 -4.810967733945045, 67.14272733113748 -4.117677170096137 M67.14272733113748 -4.117677170096137 C67.21273820300276 -3.574686673119374, 67.28274907486805 -3.031696176142611, 67.35421842687991 -2.4773939951584394 M67.14272733113748 -4.117677170096137 C67.21538744739655 -3.5541396567536645, 67.28804756365561 -2.9906021434111922, 67.35421842687991 -2.4773939951584394 M67.35421842687991 -2.4773939951584394 C67.3839671560302 -2.0140335259007234, 67.4137158851805 -1.5506730566430074, 67.46018168763487 -0.8269306768952902 M67.35421842687991 -2.4773939951584394 C67.38564674165144 -1.9878726241128577, 67.41707505642296 -1.4983512530672762, 67.46018168763487 -0.8269306768952902 M67.46018168763487 -0.8269306768952902 C67.46018168763487 -0.489422800834526, 67.46018168763487 -0.15191492477376178, 67.46018168763487 0.826930676895284 M67.46018168763487 -0.8269306768952902 C67.46018168763487 -0.2901435899488276, 67.46018168763487 0.246643496997635, 67.46018168763487 0.826930676895284 M67.46018168763487 0.826930676895284 C67.43459605185616 1.225447606502284, 67.40901041607744 1.6239645361092836, 67.35421842687991 2.4773939951584216 M67.46018168763487 0.826930676895284 C67.42538414346626 1.3689305153934639, 67.39058659929765 1.9109303538916438, 67.35421842687991 2.4773939951584216 M67.35421842687991 2.4773939951584216 C67.27373865983961 3.101579175795428, 67.1932588927993 3.7257643564324345, 67.14272733113748 4.117677170096119 M67.35421842687991 2.4773939951584216 C67.29888759609177 2.906528992442868, 67.24355676530362 3.3356639897273146, 67.14272733113748 4.117677170096119 M67.14272733113748 4.117677170096119 C67.06303416694594 4.526884725063483, 66.98334100275439 4.936092280030847, 66.82657746268467 5.741039926302909 M67.14272733113748 4.117677170096119 C67.04678391720921 4.61032632297008, 66.95084050328093 5.10297547584404, 66.82657746268467 5.741039926302909 M66.82657746268467 5.741039926302909 C66.72092922832277 6.143922432159209, 66.61528099396088 6.546804938015508, 66.4070679491449 7.340811518003306 M66.82657746268467 5.741039926302909 C66.69636350250616 6.2376021915509146, 66.56614954232764 6.73416445679892, 66.4070679491449 7.340811518003306 M66.4070679491449 7.340811518003306 C66.29331551877377 7.683415714292686, 66.17956308840263 8.026019910582068, 65.88592264509383 8.910418140577105 M66.4070679491449 7.340811518003306 C66.30127665603356 7.659438037301114, 66.19548536292224 7.978064556598921, 65.88592264509383 8.910418140577105 M65.88592264509383 8.910418140577105 C65.76030884061935 9.220686666206756, 65.63469503614488 9.530955191836409, 65.26528304837109 10.443409943732577 M65.88592264509383 8.910418140577105 C65.71267910754636 9.338333027755285, 65.5394355699989 9.766247914933466, 65.26528304837109 10.443409943732577 M65.26528304837109 10.443409943732577 C65.09048766070235 10.806376306248858, 64.91569227303363 11.16934266876514, 64.5476995002064 11.933487535324835 M65.26528304837109 10.443409943732577 C65.08550905740837 10.816714482513843, 64.90573506644567 11.190019021295111, 64.5476995002064 11.933487535324835 M64.5476995002064 11.933487535324835 C64.23881284570831 12.481947068551673, 63.9299261912102 13.03040660177851, 63.736120705320374 13.374527866909402 M64.5476995002064 11.933487535324835 C64.37057992478765 12.247981276782689, 64.19346034936889 12.562475018240542, 63.736120705320374 13.374527866909402 M63.736120705320374 13.374527866909402 C63.377757915192966 13.92506934642826, 63.01939512506556 14.475610825947122, 62.833881615064286 14.760609394661596 M63.736120705320374 13.374527866909402 C63.47040985911077 13.782731080039978, 63.20469901290116 14.190934293170555, 62.833881615064286 14.760609394661596 M62.833881615064286 14.760609394661596 C62.62712187819392 15.037648605868364, 62.42036214132355 15.314687817075132, 61.84468972338968 16.086036412270353 M62.833881615064286 14.760609394661596 C62.497479624844324 15.21135741470457, 62.16107763462436 15.662105434747543, 61.84468972338968 16.086036412270353 M61.84468972338968 16.086036412270353 C61.626933488487005 16.341825276467812, 61.40917725358433 16.597614140665275, 60.77260983196045 17.345362455817092 M61.84468972338968 16.086036412270353 C61.578388651049536 16.398848804801364, 61.312087578709395 16.711661197332376, 60.77260983196045 17.345362455817092 M60.77260983196045 17.345362455817092 C60.40524924973455 17.72469241783005, 60.037888667508646 18.10402237984301, 59.62204734701088 18.533412684464306 M60.77260983196045 17.345362455817092 C60.32979117849083 17.802609071612057, 59.88697252502121 18.25985568740702, 59.62204734701088 18.533412684464306 M59.62204734701088 18.533412684464306 C59.211399442203756 18.906352246461967, 58.800751537396636 19.27929180845963, 58.397730176586535 19.64530514498649 M59.62204734701088 18.533412684464306 C59.35897475728133 18.77232824993738, 59.095902167551785 19.01124381541046, 58.397730176586535 19.64530514498649 M58.397730176586535 19.64530514498649 C58.00373250248272 19.959507805365845, 57.6097348283789 20.273710465745204, 57.10468930255585 20.676470832763208 M58.397730176586535 19.64530514498649 C57.96433302026919 19.99092784396688, 57.530935863951846 20.336550542947272, 57.10468930255585 20.676470832763208 M57.10468930255585 20.676470832763208 C56.56382647031307 21.053753330961122, 56.022963638070294 21.431035829159036, 55.748238107226655 21.622672466799003 M57.10468930255585 20.676470832763208 C56.58194102861033 21.04111739925954, 56.05919275466482 21.405763965755874, 55.748238107226655 21.622672466799003 M55.748238107226655 21.622672466799003 C55.248062847389406 21.925881648668437, 54.74788758755215 22.22909083053787, 54.333950539518405 22.48002190162003 M55.748238107226655 21.622672466799003 C55.406340701731104 21.829932683222584, 55.064443296235545 22.03719289964616, 54.333950539518405 22.48002190162003 M54.333950539518405 22.48002190162003 C53.994650719954336 22.657034400154696, 53.655350900390275 22.834046898689362, 52.86763821041057 23.244996104497716 M54.333950539518405 22.48002190162003 C53.88496626980547 22.714256707541118, 53.43598200009253 22.94849151346221, 52.86763821041057 23.244996104497716 M52.86763821041057 23.244996104497716 C52.54063981080295 23.38974859594113, 52.21364141119534 23.534501087384537, 51.35532651178645 23.914451632345994 M52.86763821041057 23.244996104497716 C52.430314418719774 23.438586374329873, 51.99299062702898 23.63217664416203, 51.35532651178645 23.914451632345994 M51.35532651178645 23.914451632345994 C50.8843718022006 24.087767318931203, 50.413417092614736 24.261083005516408, 49.80322985680553 24.485637548803172 M51.35532651178645 23.914451632345994 C51.00822773232826 24.042187191732552, 50.661128952870065 24.169922751119113, 49.80322985680553 24.485637548803172 M49.80322985680553 24.485637548803172 C49.27976812348566 24.640998243545802, 48.75630639016578 24.796358938288435, 48.21772614354681 24.95620672841954 M49.80322985680553 24.485637548803172 C49.364859576130364 24.615743547055004, 48.926489295455205 24.745849545306832, 48.21772614354681 24.95620672841954 M48.21772614354681 24.95620672841954 C47.704125470220674 25.073432730548618, 47.190524796894536 25.190658732677697, 46.605330546857545 25.324225501499278 M48.21772614354681 24.95620672841954 C47.71034052780991 25.072014184210918, 47.20295491207302 25.18782164000229, 46.605330546857545 25.324225501499278 M46.605330546857545 25.324225501499278 C46.2205184645405 25.38643893470603, 45.83570638222344 25.448652367912782, 44.97266874610233 25.588181599964017 M46.605330546857545 25.324225501499278 C46.15453900569498 25.397105981933827, 45.70374746453242 25.469986462368375, 44.97266874610233 25.588181599964017 M44.97266874610233 25.588181599964017 C44.61167538034369 25.62300619580071, 44.25068201458506 25.657830791637405, 43.326449698825286 25.746990371586765 M44.97266874610233 25.588181599964017 C44.3695170140021 25.64636692216364, 43.76636528190187 25.704552244363263, 43.326449698825286 25.746990371586765 M43.326449698825286 25.746990371586765 C42.708841764192066 25.766795855949535, 42.091233829558846 25.786601340312306, 41.6734380722046 25.799999237060547 M43.326449698825286 25.746990371586765 C42.772542580073335 25.764753094770338, 42.21863546132139 25.78251581795391, 41.6734380722046 25.799999237060547 M41.6734380722046 25.799999237060547 C41.6734380722046 25.799999237060547, 41.6734380722046 25.799999237060547, 41.67343807220459 25.799999237060547 M41.6734380722046 25.799999237060547 C41.6734380722046 25.799999237060547, 41.67343807220459 25.799999237060547, 41.67343807220459 25.799999237060547 M41.67343807220459 25.799999237060547 C13.178818353695082 25.799999237060547, -15.315801364814426 25.799999237060547, -41.67343807220458 25.799999237060547 M41.67343807220459 25.799999237060547 C8.444216087820116 25.799999237060547, -24.785005896564357 25.799999237060547, -41.67343807220458 25.799999237060547 M-41.67343807220458 25.799999237060547 C-42.18478413221128 25.783601364190858, -42.69613019221797 25.76720349132117, -43.32644969882527 25.746990371586765 M-41.67343807220458 25.799999237060547 C-42.149204571942974 25.78474233143725, -42.624971071681365 25.769485425813954, -43.32644969882527 25.746990371586765 M-43.32644969882527 25.746990371586765 C-43.707804840379424 25.710201499727695, -44.08915998193358 25.673412627868625, -44.972668746102315 25.588181599964017 M-43.32644969882527 25.746990371586765 C-43.866611753599436 25.694881587802616, -44.4067738083736 25.64277280401847, -44.972668746102315 25.588181599964017 M-44.972668746102315 25.588181599964017 C-45.375244878669484 25.523096212875092, -45.777821011236654 25.458010825786168, -46.60533054685753 25.324225501499278 M-44.972668746102315 25.588181599964017 C-45.60440268728912 25.48604775552282, -46.236136628475926 25.383913911081617, -46.60533054685753 25.324225501499278 M-46.60533054685753 25.324225501499278 C-47.066882006978986 25.21887939263131, -47.52843346710044 25.113533283763342, -48.217726143546784 24.956206728419545 M-46.60533054685753 25.324225501499278 C-46.94353735140064 25.247032005367966, -47.28174415594376 25.169838509236655, -48.217726143546784 24.956206728419545 M-48.217726143546784 24.956206728419545 C-48.63060258595807 24.833667167544547, -49.04347902836936 24.71112760666955, -49.8032298568055 24.485637548803183 M-48.217726143546784 24.956206728419545 C-48.74925213864197 24.798452603112178, -49.28077813373716 24.64069847780481, -49.8032298568055 24.485637548803183 M-49.8032298568055 24.485637548803183 C-50.21788640863269 24.333040104687633, -50.632542960459865 24.180442660572083, -51.355326511786444 23.914451632345997 M-49.8032298568055 24.485637548803183 C-50.27091140683386 24.31352641519189, -50.73859295686223 24.141415281580596, -51.355326511786444 23.914451632345997 M-51.355326511786444 23.914451632345997 C-51.95074340282195 23.650878237099107, -52.546160293857454 23.387304841852213, -52.86763821041056 23.244996104497723 M-51.355326511786444 23.914451632345997 C-51.84837447970131 23.6961939226984, -52.34142244761618 23.4779362130508, -52.86763821041056 23.244996104497723 M-52.86763821041056 23.244996104497723 C-53.23549601029199 23.05308492592375, -53.603353810173424 22.86117374734977, -54.3339505395184 22.480021901620038 M-52.86763821041056 23.244996104497723 C-53.32376105058956 23.007037110936963, -53.77988389076855 22.769078117376207, -54.3339505395184 22.480021901620038 M-54.3339505395184 22.480021901620038 C-54.874904516329536 22.15209242187869, -55.415858493140675 21.824162942137345, -55.748238107226626 21.622672466799017 M-54.3339505395184 22.480021901620038 C-54.79071569289656 22.203128181392206, -55.247480846274726 21.92623446116437, -55.748238107226626 21.622672466799017 M-55.748238107226626 21.622672466799017 C-56.26167972766046 21.264517818913898, -56.775121348094295 20.906363171028776, -57.10468930255584 20.67647083276321 M-55.748238107226626 21.622672466799017 C-56.11906260734639 21.364001348249356, -56.48988710746616 21.105330229699693, -57.10468930255584 20.67647083276321 M-57.10468930255584 20.67647083276321 C-57.614296059663005 20.270073005175593, -58.12390281677016 19.863675177587975, -58.397730176586506 19.645305144986512 M-57.10468930255584 20.67647083276321 C-57.38604697893019 20.45209557309688, -57.667404655304544 20.22772031343055, -58.397730176586506 19.645305144986512 M-58.397730176586506 19.645305144986512 C-58.674255848848226 19.394171845906776, -58.950781521109946 19.143038546827043, -59.62204734701086 18.533412684464324 M-58.397730176586506 19.645305144986512 C-58.68973207465326 19.380116747109142, -58.981733972720015 19.11492834923177, -59.62204734701086 18.533412684464324 M-59.62204734701086 18.533412684464324 C-59.98501063116375 18.158623293736632, -60.34797391531665 17.783833903008937, -60.77260983196044 17.3453624558171 M-59.62204734701086 18.533412684464324 C-60.00857955075167 18.134286449217825, -60.395111754492476 17.735160213971326, -60.77260983196044 17.3453624558171 M-60.77260983196044 17.3453624558171 C-61.07990321064211 16.984398167729022, -61.38719658932378 16.623433879640945, -61.84468972338967 16.08603641227036 M-60.77260983196044 17.3453624558171 C-61.04020448781385 17.03103054648441, -61.30779914366727 16.71669863715172, -61.84468972338967 16.08603641227036 M-61.84468972338967 16.08603641227036 C-62.087037322512074 15.76131270776681, -62.32938492163448 15.436589003263263, -62.83388161506427 14.760609394661614 M-61.84468972338967 16.08603641227036 C-62.206115610251246 15.601758650451503, -62.56754149711283 15.117480888632643, -62.83388161506427 14.760609394661614 M-62.83388161506427 14.760609394661614 C-63.15300630956195 14.270348166933994, -63.47213100405964 13.780086939206374, -63.73612070532036 13.374527866909418 M-62.83388161506427 14.760609394661614 C-63.17802370551352 14.23191472864096, -63.522165795962756 13.703220062620307, -63.73612070532036 13.374527866909418 M-63.73612070532036 13.374527866909418 C-64.01050430225605 12.887332006198065, -64.28488789919174 12.400136145486714, -64.54769950020639 11.933487535324842 M-63.73612070532036 13.374527866909418 C-63.95067851059059 12.993558757318405, -64.16523631586082 12.612589647727393, -64.54769950020639 11.933487535324842 M-64.54769950020639 11.933487535324842 C-64.73981190523418 11.534562015737688, -64.93192431026196 11.135636496150534, -65.26528304837109 10.443409943732586 M-64.54769950020639 11.933487535324842 C-64.74755214685275 11.518489238402081, -64.9474047934991 11.10349094147932, -65.26528304837109 10.443409943732586 M-65.26528304837109 10.443409943732586 C-65.39907993845765 10.112929038431886, -65.5328768285442 9.782448133131187, -65.88592264509381 8.910418140577127 M-65.26528304837109 10.443409943732586 C-65.4255422024783 10.047566734687795, -65.58580135658552 9.651723525643003, -65.88592264509381 8.910418140577127 M-65.88592264509381 8.910418140577127 C-65.9952177858475 8.581238590442853, -66.10451292660119 8.252059040308579, -66.4070679491449 7.340811518003316 M-65.88592264509381 8.910418140577127 C-66.083911839081 8.314106233581846, -66.2819010330682 7.717794326586564, -66.4070679491449 7.340811518003316 M-66.4070679491449 7.340811518003316 C-66.50968237633997 6.949498233734455, -66.61229680353503 6.558184949465594, -66.82657746268467 5.741039926302918 M-66.4070679491449 7.340811518003316 C-66.54241360599083 6.824679869271084, -66.67775926283674 6.308548220538852, -66.82657746268467 5.741039926302918 M-66.82657746268467 5.741039926302918 C-66.9028176457414 5.3495626996750145, -66.97905782879813 4.958085473047111, -67.14272733113748 4.117677170096139 M-66.82657746268467 5.741039926302918 C-66.89933619895699 5.367439193108911, -66.97209493522931 4.993838459914904, -67.14272733113748 4.117677170096139 M-67.14272733113748 4.117677170096139 C-67.22595669701424 3.4721666438532064, -67.30918606289102 2.8266561176102734, -67.35421842687991 2.477393995158454 M-67.14272733113748 4.117677170096139 C-67.21349005289463 3.5688554738276377, -67.28425277465178 3.020033777559136, -67.35421842687991 2.477393995158454 M-67.35421842687991 2.477393995158454 C-67.38789146301455 1.9529092769758274, -67.4215644991492 1.4284245587932007, -67.46018168763487 0.8269306768952934 M-67.35421842687991 2.477393995158454 C-67.38282808129951 2.0317755342759267, -67.41143773571909 1.5861570733933992, -67.46018168763487 0.8269306768952934 M-67.46018168763487 0.8269306768952934 C-67.46018168763487 0.3192399492467455, -67.46018168763487 -0.18845077840180247, -67.46018168763487 -0.8269306768952809 M-67.46018168763487 0.8269306768952934 C-67.46018168763487 0.37581257253628875, -67.46018168763487 -0.07530553182271593, -67.46018168763487 -0.8269306768952809 M-67.46018168763487 -0.8269306768952809 C-67.42577875326407 -1.3627841492693915, -67.39137581889327 -1.8986376216435021, -67.35421842687991 -2.4773939951584185 M-67.46018168763487 -0.8269306768952809 C-67.42050565114693 -1.4449169711153558, -67.38082961465896 -2.0629032653354304, -67.35421842687991 -2.4773939951584185 M-67.35421842687991 -2.4773939951584185 C-67.29608972887404 -2.9282286980822123, -67.23796103086816 -3.3790634010060057, -67.14272733113748 -4.117677170096128 M-67.35421842687991 -2.4773939951584185 C-67.31121248500193 -2.8109395878802705, -67.26820654312395 -3.144485180602122, -67.14272733113748 -4.117677170096128 M-67.14272733113748 -4.117677170096128 C-67.0474080687526 -4.6071214367092175, -66.95208880636773 -5.096565703322307, -66.82657746268467 -5.741039926302906 M-67.14272733113748 -4.117677170096128 C-67.04341609732563 -4.627619366283269, -66.94410486351377 -5.13756156247041, -66.82657746268467 -5.741039926302906 M-66.82657746268467 -5.741039926302906 C-66.6804776045857 -6.298182005313311, -66.53437774648673 -6.8553240843237155, -66.4070679491449 -7.340811518003303 M-66.82657746268467 -5.741039926302906 C-66.67158366558496 -6.33209844938065, -66.51658986848527 -6.923156972458394, -66.4070679491449 -7.340811518003303 M-66.4070679491449 -7.340811518003303 C-66.25834612232522 -7.7887379647790205, -66.10962429550554 -8.236664411554738, -65.88592264509383 -8.910418140577093 M-66.4070679491449 -7.340811518003303 C-66.30128839835605 -7.6594026712966805, -66.1955088475672 -7.977993824590058, -65.88592264509383 -8.910418140577093 M-65.88592264509383 -8.910418140577093 C-65.68181924679583 -9.414557480443916, -65.47771584849782 -9.918696820310739, -65.26528304837109 -10.443409943732574 M-65.88592264509383 -8.910418140577093 C-65.66682049618717 -9.451604684428423, -65.44771834728051 -9.992791228279751, -65.26528304837109 -10.443409943732574 M-65.26528304837109 -10.443409943732574 C-64.98341647378513 -11.028711916838887, -64.70154989919915 -11.6140138899452, -64.5476995002064 -11.933487535324831 M-65.26528304837109 -10.443409943732574 C-65.0037093271742 -10.98657337257894, -64.74213560597732 -11.529736801425305, -64.5476995002064 -11.933487535324831 M-64.5476995002064 -11.933487535324831 C-64.3163937008732 -12.344194404292931, -64.08508790154 -12.754901273261032, -63.73612070532037 -13.374527866909409 M-64.5476995002064 -11.933487535324831 C-64.28071430795286 -12.407546779353318, -64.0137291156993 -12.881606023381806, -63.73612070532037 -13.374527866909409 M-63.73612070532037 -13.374527866909409 C-63.401082681492106 -13.88923624181605, -63.06604465766384 -14.403944616722692, -62.83388161506428 -14.760609394661605 M-63.73612070532037 -13.374527866909409 C-63.41111421777619 -13.873825108239027, -63.086107730232015 -14.373122349568645, -62.83388161506428 -14.760609394661605 M-62.83388161506428 -14.760609394661605 C-62.51192153383235 -15.192006572345589, -62.18996145260042 -15.623403750029572, -61.84468972338968 -16.086036412270353 M-62.83388161506428 -14.760609394661605 C-62.60854859940847 -15.062535107380356, -62.383215583752666 -15.364460820099104, -61.84468972338968 -16.086036412270353 M-61.84468972338968 -16.086036412270353 C-61.450702906823985 -16.548835745493367, -61.0567160902583 -17.011635078716377, -60.77260983196045 -17.345362455817092 M-61.84468972338968 -16.086036412270353 C-61.509062717339454 -16.480282991294608, -61.17343571128923 -16.87452957031886, -60.77260983196045 -17.345362455817092 M-60.77260983196045 -17.345362455817092 C-60.31517855157268 -17.817697808624033, -59.857747271184905 -18.290033161430973, -59.62204734701089 -18.5334126844643 M-60.77260983196045 -17.345362455817092 C-60.50978631113866 -17.61674931927795, -60.24696279031687 -17.88813618273881, -59.62204734701089 -18.5334126844643 M-59.62204734701089 -18.5334126844643 C-59.306733670358625 -18.81977222285717, -58.99141999370636 -19.106131761250044, -58.397730176586535 -19.645305144986487 M-59.62204734701089 -18.5334126844643 C-59.178394792462086 -18.936326196102176, -58.73474223791328 -19.33923970774005, -58.397730176586535 -19.645305144986487 M-58.397730176586535 -19.645305144986487 C-58.110448691838315 -19.87440448419182, -57.82316720709009 -20.103503823397155, -57.10468930255585 -20.676470832763204 M-58.397730176586535 -19.645305144986487 C-58.12801244426581 -19.86039785902197, -57.85829471194509 -20.07549057305745, -57.10468930255585 -20.676470832763204 M-57.10468930255585 -20.676470832763204 C-56.702020895095025 -20.957354882573455, -56.29935248763421 -21.23823893238371, -55.74823810722666 -21.622672466799 M-57.10468930255585 -20.676470832763204 C-56.57676626069521 -21.04472709334504, -56.04884321883456 -21.412983353926876, -55.74823810722666 -21.622672466799 M-55.74823810722666 -21.622672466799 C-55.244371113622016 -21.92811959937326, -54.74050412001736 -22.233566731947526, -54.333950539518405 -22.480021901620027 M-55.74823810722666 -21.622672466799 C-55.26271148582143 -21.917001557965985, -54.7771848644162 -22.21133064913297, -54.333950539518405 -22.480021901620027 M-54.333950539518405 -22.480021901620027 C-53.79337753119728 -22.762038493807623, -53.25280452287616 -23.044055085995215, -52.867638210410576 -23.244996104497716 M-54.333950539518405 -22.480021901620027 C-54.02137978464863 -22.643089864224464, -53.70880902977886 -22.806157826828905, -52.867638210410576 -23.244996104497716 M-52.867638210410576 -23.244996104497716 C-52.51493642626144 -23.401126721813842, -52.16223464211231 -23.55725733912997, -51.35532651178645 -23.91445163234599 M-52.867638210410576 -23.244996104497716 C-52.41917533817153 -23.443517314859502, -51.97071246593247 -23.642038525221285, -51.35532651178645 -23.91445163234599 M-51.35532651178645 -23.91445163234599 C-50.84721400234175 -24.10144173276219, -50.33910149289704 -24.28843183317839, -49.80322985680553 -24.485637548803172 M-51.35532651178645 -23.91445163234599 C-50.806965275627995 -24.116253636248004, -50.25860403946954 -24.318055640150018, -49.80322985680553 -24.485637548803172 M-49.80322985680553 -24.485637548803172 C-49.444031121906605 -24.592245847848538, -49.08483238700769 -24.698854146893904, -48.21772614354682 -24.956206728419538 M-49.80322985680553 -24.485637548803172 C-49.26488560389261 -24.64541529724108, -48.72654135097968 -24.80519304567899, -48.21772614354682 -24.956206728419538 M-48.21772614354682 -24.956206728419538 C-47.81883404513082 -25.047251246868782, -47.41994194671482 -25.138295765318027, -46.605330546857545 -25.324225501499278 M-48.21772614354682 -24.956206728419538 C-47.65716746828767 -25.084150588060226, -47.096608793028516 -25.212094447700917, -46.605330546857545 -25.324225501499278 M-46.605330546857545 -25.324225501499278 C-46.11949017507865 -25.402772405060134, -45.63364980329976 -25.481319308620993, -44.97266874610233 -25.588181599964017 M-46.605330546857545 -25.324225501499278 C-46.26004246580148 -25.38004900069536, -45.914754384745414 -25.435872499891445, -44.97266874610233 -25.588181599964017 M-44.97266874610233 -25.588181599964017 C-44.31812282888801 -25.651324857391046, -43.663576911673694 -25.71446811481807, -43.326449698825286 -25.746990371586765 M-44.97266874610233 -25.588181599964017 C-44.57261292540188 -25.62677450384947, -44.17255710470142 -25.66536740773493, -43.326449698825286 -25.746990371586765 M-43.326449698825286 -25.746990371586765 C-42.93205723741601 -25.759637770185805, -42.537664776006736 -25.772285168784844, -41.6734380722046 -25.799999237060547 M-43.326449698825286 -25.746990371586765 C-42.93634937151828 -25.759500129799278, -42.54624904421129 -25.772009888011787, -41.6734380722046 -25.799999237060547 M-41.6734380722046 -25.799999237060547 C-41.6734380722046 -25.799999237060547, -41.67343807220459 -25.799999237060547, -41.67343807220459 -25.799999237060547 M-41.6734380722046 -25.799999237060547 C-41.6734380722046 -25.799999237060547, -41.6734380722046 -25.799999237060547, -41.67343807220459 -25.799999237060547" stroke="#9370DB" stroke-width="1.3" fill="none" stroke-dasharray="0 0" style=""></path></g><g class="label" style="" transform="translate(0, -18.299999237060547)"><rect></rect><g><rect class="background" style="stroke: none"></rect><text y="-10.1" style=""><tspan class="text-outer-tspan row" x="0" y="-0.1em" dy="1.1em"><tspan font-style="normal" class="text-inner-tspan" font-weight="normal">New</tspan><tspan font-style="normal" class="text-inner-tspan" font-weight="normal"> code</tspan><tspan font-style="normal" class="text-inner-tspan" font-weight="normal"> path</tspan></tspan><tspan class="text-outer-tspan row" x="0" y="1em" dy="1.1em"><tspan font-style="normal" class="text-inner-tspan" font-weight="normal">that</tspan><tspan font-style="normal" class="text-inner-tspan" font-weight="normal"> can</tspan><tspan font-style="normal" class="text-inner-tspan" font-weight="normal"> fail</tspan></tspan></text></g></g></g><g class="node default" id="gb52d95fd-193f-47c8-b1ab-376ac5098532-light-flowchart-Q1-1" data-look="classic" transform="translate(173.7398452758789, 229.9343719482422)"><polygon points="120.3343734741211,0 240.6687469482422,-120.3343734741211 120.3343734741211,-240.6687469482422 0,-120.3343734741211" class="label-container" transform="translate(-119.8343734741211, 120.3343734741211)"></polygon><g class="label" style="" transform="translate(0, -27.099998474121094)"><rect></rect><g><rect class="background" style="stroke: none"></rect><text y="-10.1" style=""><tspan class="text-outer-tspan row" x="0" y="-0.1em" dy="1.1em"><tspan font-style="normal" class="text-inner-tspan" font-weight="normal">Boundary</tspan><tspan font-style="normal" class="text-inner-tspan" font-weight="normal"> with</tspan></tspan><tspan class="text-outer-tspan row" x="0" y="1em" dy="1.1em"><tspan font-style="normal" class="text-inner-tspan" font-weight="normal">throwing</tspan><tspan font-style="normal" class="text-inner-tspan" font-weight="normal"> API?</tspan></tspan><tspan class="text-outer-tspan row" x="0" y="2.1em" dy="1.1em"><tspan font-style="normal" class="text-inner-tspan" font-weight="normal">(parse,</tspan><tspan font-style="normal" class="text-inner-tspan" font-weight="normal"> fetch,</tspan><tspan font-style="normal" class="text-inner-tspan" font-weight="normal"> library)</tspan></tspan></text></g></g></g><g class="node default" id="gb52d95fd-193f-47c8-b1ab-376ac5098532-light-flowchart-BND-3" data-look="classic" transform="translate(122.1796875, 846.0359420776367)"><rect class="basic label-container" style="" x="-114.1796875" y="-42.099998474121094" width="228.359375" height="84.19999694824219"></rect><g class="label" style="" transform="translate(0, -27.099998474121094)"><rect></rect><g><rect class="background" style="stroke: none"></rect><text y="-10.1" style=""><tspan class="text-outer-tspan row" x="0" y="-0.1em" dy="1.1em"><tspan font-style="normal" class="text-inner-tspan" font-weight="normal">try</tspan><tspan font-style="normal" class="text-inner-tspan" font-weight="normal"> /</tspan><tspan font-style="normal" class="text-inner-tspan" font-weight="normal"> catch</tspan><tspan font-style="normal" class="text-inner-tspan" font-weight="normal"> at</tspan><tspan font-style="normal" class="text-inner-tspan" font-weight="normal"> the</tspan><tspan font-style="normal" class="text-inner-tspan" font-weight="normal"> seam</tspan></tspan><tspan class="text-outer-tspan row" x="0" y="1em" dy="1.1em"><tspan font-style="normal" class="text-inner-tspan" font-weight="normal">convert</tspan><tspan font-style="normal" class="text-inner-tspan" font-weight="normal"> immediately</tspan><tspan font-style="normal" class="text-inner-tspan" font-weight="normal"> to</tspan></tspan><tspan class="text-outer-tspan row" x="0" y="2.1em" dy="1.1em"><tspan font-style="normal" class="text-inner-tspan" font-weight="normal">Result</tspan></tspan></text></g></g></g><g class="node default" id="gb52d95fd-193f-47c8-b1ab-376ac5098532-light-flowchart-Q2-5" data-look="classic" transform="translate(414.1828155517578, 534.2406234741211)"><polygon points="110.97187423706055,0 221.9437484741211,-110.97187423706055 110.97187423706055,-221.9437484741211 0,-110.97187423706055" class="label-container" transform="translate(-110.47187423706055, 110.97187423706055)"></polygon><g class="label" style="" transform="translate(0, -18.299999237060547)"><rect></rect><g><rect class="background" style="stroke: none"></rect><text y="-10.1" style=""><tspan class="text-outer-tspan row" x="0" y="-0.1em" dy="1.1em"><tspan font-style="normal" class="text-inner-tspan" font-weight="normal">Multiple</tspan><tspan font-style="normal" class="text-inner-tspan" font-weight="normal"> fallible</tspan><tspan font-style="normal" class="text-inner-tspan" font-weight="normal"> steps</tspan></tspan><tspan class="text-outer-tspan row" x="0" y="1em" dy="1.1em"><tspan font-style="normal" class="text-inner-tspan" font-weight="normal">chained</tspan><tspan font-style="normal" class="text-inner-tspan" font-weight="normal"> together?</tspan></tspan></text></g></g></g><g class="node default" id="gb52d95fd-193f-47c8-b1ab-376ac5098532-light-flowchart-Q3-7" data-look="classic" transform="translate(414.1828155517578, 846.0359420776367)"><polygon points="127.82343673706055,0 255.6468734741211,-127.82343673706055 127.82343673706055,-255.6468734741211 0,-127.82343673706055" class="label-container" transform="translate(-127.32343673706055, 127.82343673706055)"></polygon><g class="label" style="" transform="translate(0, -18.299999237060547)"><rect></rect><g><rect class="background" style="stroke: none"></rect><text y="-10.1" style=""><tspan class="text-outer-tspan row" x="0" y="-0.1em" dy="1.1em"><tspan font-style="normal" class="text-inner-tspan" font-weight="normal">Type</tspan><tspan font-style="normal" class="text-inner-tspan" font-weight="normal"> safety</tspan><tspan font-style="normal" class="text-inner-tspan" font-weight="normal"> +</tspan><tspan font-style="normal" class="text-inner-tspan" font-weight="normal"> lint</tspan></tspan><tspan class="text-outer-tspan row" x="0" y="1em" dy="1.1em"><tspan font-style="normal" class="text-inner-tspan" font-weight="normal">enforcement</tspan><tspan font-style="normal" class="text-inner-tspan" font-weight="normal"> worth</tspan><tspan font-style="normal" class="text-inner-tspan" font-weight="normal"> a</tspan><tspan font-style="normal" class="text-inner-tspan" font-weight="normal"> dep?</tspan></tspan></text></g></g></g><g class="node default" id="gb52d95fd-193f-47c8-b1ab-376ac5098532-light-flowchart-Q4-9" data-look="classic" transform="translate(735.2960968017578, 846.0359420776367)"><polygon points="112.30781173706055,0 224.6156234741211,-112.30781173706055 112.30781173706055,-224.6156234741211 0,-112.30781173706055" class="label-container" transform="translate(-111.80781173706055, 112.30781173706055)"></polygon><g class="label" style="" transform="translate(0, -18.299999237060547)"><rect></rect><g><rect class="background" style="stroke: none"></rect><text y="-10.1" style=""><tspan class="text-outer-tspan row" x="0" y="-0.1em" dy="1.1em"><tspan font-style="normal" class="text-inner-tspan" font-weight="normal">Single</tspan><tspan font-style="normal" class="text-inner-tspan" font-weight="normal"> call,</tspan><tspan font-style="normal" class="text-inner-tspan" font-weight="normal"> no</tspan></tspan><tspan class="text-outer-tspan row" x="0" y="1em" dy="1.1em"><tspan font-style="normal" class="text-inner-tspan" font-weight="normal">downstream</tspan><tspan font-style="normal" class="text-inner-tspan" font-weight="normal"> chaining?</tspan></tspan></text></g></g></g><g class="node default" id="gb52d95fd-193f-47c8-b1ab-376ac5098532-light-flowchart-RES-11" data-look="classic" transform="translate(202.9367218017578, 1080.159381866455)"><rect class="basic label-container" style="" x="-125.1484375" y="-33.29999923706055" width="250.296875" height="66.5999984741211"></rect><g class="label" style="" transform="translate(0, -18.299999237060547)"><rect></rect><g><rect class="background" style="stroke: none"></rect><text y="-10.1" style=""><tspan class="text-outer-tspan row" x="0" y="-0.1em" dy="1.1em"><tspan font-style="normal" class="text-inner-tspan" font-weight="normal">Result&lt;T,</tspan><tspan font-style="normal" class="text-inner-tspan" font-weight="normal"> E&gt;</tspan><tspan font-style="normal" class="text-inner-tspan" font-weight="normal"> (neverthrow)</tspan></tspan><tspan class="text-outer-tspan row" x="0" y="1em" dy="1.1em"><tspan font-style="normal" class="text-inner-tspan" font-weight="normal">+</tspan><tspan font-style="normal" class="text-inner-tspan" font-weight="normal"> eslint-plugin-neverthrow</tspan></tspan></text></g></g></g><g class="node default" id="gb52d95fd-193f-47c8-b1ab-376ac5098532-light-flowchart-TUPLE-13" data-look="classic" transform="translate(481.2726593017578, 1080.159381866455)"><rect class="basic label-container" style="" x="-103.1875" y="-33.29999923706055" width="206.375" height="66.5999984741211"></rect><g class="label" style="" transform="translate(0, -18.299999237060547)"><rect></rect><g><rect class="background" style="stroke: none"></rect><text y="-10.1" style=""><tspan class="text-outer-tspan row" x="0" y="-0.1em" dy="1.1em"><tspan font-style="normal" class="text-inner-tspan" font-weight="normal">[data,</tspan><tspan font-style="normal" class="text-inner-tspan" font-weight="normal"> error]</tspan><tspan font-style="normal" class="text-inner-tspan" font-weight="normal"> helper</tspan></tspan><tspan class="text-outer-tspan row" x="0" y="1em" dy="1.1em"><tspan font-style="normal" class="text-inner-tspan" font-weight="normal">(scripts,</tspan><tspan font-style="normal" class="text-inner-tspan" font-weight="normal"> prototypes)</tspan></tspan></text></g></g></g><g class="node default" id="gb52d95fd-193f-47c8-b1ab-376ac5098532-light-flowchart-THROW-15" data-look="classic" transform="translate(735.2960968017578, 1080.159381866455)"><rect class="basic label-container" style="" x="-100.8359375" y="-33.29999923706055" width="201.671875" height="66.5999984741211"></rect><g class="label" style="" transform="translate(0, -18.299999237060547)"><rect></rect><g><rect class="background" style="stroke: none"></rect><text y="-10.1" style=""><tspan class="text-outer-tspan row" x="0" y="-0.1em" dy="1.1em"><tspan font-style="normal" class="text-inner-tspan" font-weight="normal">Let</tspan><tspan font-style="normal" class="text-inner-tspan" font-weight="normal"> it</tspan><tspan font-style="normal" class="text-inner-tspan" font-weight="normal"> throw</tspan><tspan font-style="normal" class="text-inner-tspan" font-weight="normal"> to</tspan><tspan font-style="normal" class="text-inner-tspan" font-weight="normal"> a</tspan></tspan><tspan class="text-outer-tspan row" x="0" y="1em" dy="1.1em"><tspan font-style="normal" class="text-inner-tspan" font-weight="normal">top-level</tspan><tspan font-style="normal" class="text-inner-tspan" font-weight="normal"> safety</tspan><tspan font-style="normal" class="text-inner-tspan" font-weight="normal"> net</tspan></tspan></text></g></g></g></g></g></g><defs><filter id="gb52d95fd-193f-47c8-b1ab-376ac5098532-light-drop-shadow" height="130%" width="130%"><feDropShadow dx="4" dy="4" stdDeviation="0" flood-opacity="0.06" flood-color="#000000"></feDropShadow></filter></defs><defs><filter id="gb52d95fd-193f-47c8-b1ab-376ac5098532-light-drop-shadow-small" height="150%" width="150%"><feDropShadow dx="2" dy="2" stdDeviation="0" flood-opacity="0.06" flood-color="#000000"></feDropShadow></filter></defs></svg>