<svg id="gc83a883b-1890-485e-8092-54e045a829a6-light" width="100%" xmlns="http://www.w3.org/2000/svg" xmlns:xlink="http://www.w3.org/1999/xlink" class="flowchart" style="max-width: 680.703125px;" viewBox="0 0 680.703125 965.3999633789062" role="graphics-document document" aria-roledescription="flowchart-v2"><style>#gc83a883b-1890-485e-8092-54e045a829a6-light{font-family:"trebuchet ms",verdana,arial,sans-serif;font-size:16px;fill:#333;}@keyframes edge-animation-frame{from{stroke-dashoffset:0;}}@keyframes dash{to{stroke-dashoffset:0;}}#gc83a883b-1890-485e-8092-54e045a829a6-light .edge-animation-slow{stroke-dasharray:9,5!important;stroke-dashoffset:900;animation:dash 50s linear infinite;stroke-linecap:round;}#gc83a883b-1890-485e-8092-54e045a829a6-light .edge-animation-fast{stroke-dasharray:9,5!important;stroke-dashoffset:900;animation:dash 20s linear infinite;stroke-linecap:round;}#gc83a883b-1890-485e-8092-54e045a829a6-light .error-icon{fill:#552222;}#gc83a883b-1890-485e-8092-54e045a829a6-light .error-text{fill:#552222;stroke:#552222;}#gc83a883b-1890-485e-8092-54e045a829a6-light .edge-thickness-normal{stroke-width:1px;}#gc83a883b-1890-485e-8092-54e045a829a6-light .edge-thickness-thick{stroke-width:3.5px;}#gc83a883b-1890-485e-8092-54e045a829a6-light .edge-pattern-solid{stroke-dasharray:0;}#gc83a883b-1890-485e-8092-54e045a829a6-light .edge-thickness-invisible{stroke-width:0;fill:none;}#gc83a883b-1890-485e-8092-54e045a829a6-light .edge-pattern-dashed{stroke-dasharray:3;}#gc83a883b-1890-485e-8092-54e045a829a6-light .edge-pattern-dotted{stroke-dasharray:2;}#gc83a883b-1890-485e-8092-54e045a829a6-light .marker{fill:#333333;stroke:#333333;}#gc83a883b-1890-485e-8092-54e045a829a6-light .marker.cross{stroke:#333333;}#gc83a883b-1890-485e-8092-54e045a829a6-light svg{font-family:"trebuchet ms",verdana,arial,sans-serif;font-size:16px;}#gc83a883b-1890-485e-8092-54e045a829a6-light p{margin:0;}#gc83a883b-1890-485e-8092-54e045a829a6-light .label{font-family:"trebuchet ms",verdana,arial,sans-serif;color:#333;}#gc83a883b-1890-485e-8092-54e045a829a6-light .cluster-label text{fill:#333;}#gc83a883b-1890-485e-8092-54e045a829a6-light .cluster-label span{color:#333;}#gc83a883b-1890-485e-8092-54e045a829a6-light .cluster-label span p{background-color:transparent;}#gc83a883b-1890-485e-8092-54e045a829a6-light .label text,#gc83a883b-1890-485e-8092-54e045a829a6-light span{fill:#333;color:#333;}#gc83a883b-1890-485e-8092-54e045a829a6-light .node rect,#gc83a883b-1890-485e-8092-54e045a829a6-light .node circle,#gc83a883b-1890-485e-8092-54e045a829a6-light .node ellipse,#gc83a883b-1890-485e-8092-54e045a829a6-light .node polygon,#gc83a883b-1890-485e-8092-54e045a829a6-light .node path{fill:#ECECFF;stroke:#9370DB;stroke-width:1px;}#gc83a883b-1890-485e-8092-54e045a829a6-light .rough-node .label text,#gc83a883b-1890-485e-8092-54e045a829a6-light .node .label text,#gc83a883b-1890-485e-8092-54e045a829a6-light .image-shape .label,#gc83a883b-1890-485e-8092-54e045a829a6-light .icon-shape .label{text-anchor:middle;}#gc83a883b-1890-485e-8092-54e045a829a6-light .node .katex path{fill:#000;stroke:#000;stroke-width:1px;}#gc83a883b-1890-485e-8092-54e045a829a6-light .rough-node .label,#gc83a883b-1890-485e-8092-54e045a829a6-light .node .label,#gc83a883b-1890-485e-8092-54e045a829a6-light .image-shape .label,#gc83a883b-1890-485e-8092-54e045a829a6-light .icon-shape .label{text-align:center;}#gc83a883b-1890-485e-8092-54e045a829a6-light .node.clickable{cursor:pointer;}#gc83a883b-1890-485e-8092-54e045a829a6-light .root .anchor path{fill:#333333!important;stroke-width:0;stroke:#333333;}#gc83a883b-1890-485e-8092-54e045a829a6-light .arrowheadPath{fill:#333333;}#gc83a883b-1890-485e-8092-54e045a829a6-light .edgePath .path{stroke:#333333;stroke-width:1px;}#gc83a883b-1890-485e-8092-54e045a829a6-light .flowchart-link{stroke:#333333;fill:none;}#gc83a883b-1890-485e-8092-54e045a829a6-light .edgeLabel{background-color:rgba(232,232,232, 0.8);text-align:center;}#gc83a883b-1890-485e-8092-54e045a829a6-light .edgeLabel p{background-color:rgba(232,232,232, 0.8);}#gc83a883b-1890-485e-8092-54e045a829a6-light .edgeLabel rect{opacity:0.5;background-color:rgba(232,232,232, 0.8);fill:rgba(232,232,232, 0.8);}#gc83a883b-1890-485e-8092-54e045a829a6-light .labelBkg{background-color:rgba(232, 232, 232, 0.5);}#gc83a883b-1890-485e-8092-54e045a829a6-light .cluster rect{fill:#ffffde;stroke:#aaaa33;stroke-width:1px;}#gc83a883b-1890-485e-8092-54e045a829a6-light .cluster text{fill:#333;}#gc83a883b-1890-485e-8092-54e045a829a6-light .cluster span{color:#333;}#gc83a883b-1890-485e-8092-54e045a829a6-light div.mermaidTooltip{position:absolute;text-align:center;max-width:200px;padding:2px;font-family:"trebuchet ms",verdana,arial,sans-serif;font-size:12px;background:hsl(80, 100%, 96.2745098039%);border:1px solid #aaaa33;border-radius:2px;pointer-events:none;z-index:100;}#gc83a883b-1890-485e-8092-54e045a829a6-light .flowchartTitleText{text-anchor:middle;font-size:18px;fill:#333;}#gc83a883b-1890-485e-8092-54e045a829a6-light rect.text{fill:none;stroke-width:0;}#gc83a883b-1890-485e-8092-54e045a829a6-light .icon-shape,#gc83a883b-1890-485e-8092-54e045a829a6-light .image-shape{background-color:rgba(232,232,232, 0.8);text-align:center;}#gc83a883b-1890-485e-8092-54e045a829a6-light .icon-shape p,#gc83a883b-1890-485e-8092-54e045a829a6-light .image-shape p{background-color:rgba(232,232,232, 0.8);padding:2px;}#gc83a883b-1890-485e-8092-54e045a829a6-light .icon-shape .label rect,#gc83a883b-1890-485e-8092-54e045a829a6-light .image-shape .label rect{opacity:0.5;background-color:rgba(232,232,232, 0.8);fill:rgba(232,232,232, 0.8);}#gc83a883b-1890-485e-8092-54e045a829a6-light .label-icon{display:inline-block;height:1em;overflow:visible;vertical-align:-0.125em;}#gc83a883b-1890-485e-8092-54e045a829a6-light .node .label-icon path{fill:currentColor;stroke:revert;stroke-width:revert;}#gc83a883b-1890-485e-8092-54e045a829a6-light .node .neo-node{stroke:#9370DB;}#gc83a883b-1890-485e-8092-54e045a829a6-light [data-look="neo"].node rect,#gc83a883b-1890-485e-8092-54e045a829a6-light [data-look="neo"].cluster rect,#gc83a883b-1890-485e-8092-54e045a829a6-light [data-look="neo"].node polygon{stroke:#9370DB;filter:drop-shadow(1px 2px 2px rgba(185, 185, 185, 1));}#gc83a883b-1890-485e-8092-54e045a829a6-light [data-look="neo"].node path{stroke:#9370DB;stroke-width:1px;}#gc83a883b-1890-485e-8092-54e045a829a6-light [data-look="neo"].node .outer-path{filter:drop-shadow(1px 2px 2px rgba(185, 185, 185, 1));}#gc83a883b-1890-485e-8092-54e045a829a6-light [data-look="neo"].node .neo-line path{stroke:#9370DB;filter:none;}#gc83a883b-1890-485e-8092-54e045a829a6-light [data-look="neo"].node circle{stroke:#9370DB;filter:drop-shadow(1px 2px 2px rgba(185, 185, 185, 1));}#gc83a883b-1890-485e-8092-54e045a829a6-light [data-look="neo"].node circle .state-start{fill:#000000;}#gc83a883b-1890-485e-8092-54e045a829a6-light [data-look="neo"].icon-shape .icon{fill:#9370DB;filter:drop-shadow(1px 2px 2px rgba(185, 185, 185, 1));}#gc83a883b-1890-485e-8092-54e045a829a6-light [data-look="neo"].icon-shape .icon-neo path{stroke:#9370DB;filter:drop-shadow(1px 2px 2px rgba(185, 185, 185, 1));}#gc83a883b-1890-485e-8092-54e045a829a6-light :root{--mermaid-font-family:"trebuchet ms",verdana,arial,sans-serif;}</style><g><marker id="gc83a883b-1890-485e-8092-54e045a829a6-light_flowchart-v2-pointEnd" class="marker flowchart-v2" viewBox="0 0 10 10" refX="5" refY="5" markerUnits="userSpaceOnUse" markerWidth="8" markerHeight="8" orient="auto"><path d="M 0 0 L 10 5 L 0 10 z" class="arrowMarkerPath" style="stroke-width: 1; stroke-dasharray: 1, 0;"></path></marker><marker id="gc83a883b-1890-485e-8092-54e045a829a6-light_flowchart-v2-pointStart" class="marker flowchart-v2" viewBox="0 0 10 10" refX="4.5" refY="5" markerUnits="userSpaceOnUse" markerWidth="8" markerHeight="8" orient="auto"><path d="M 0 5 L 10 10 L 10 0 z" class="arrowMarkerPath" style="stroke-width: 1; stroke-dasharray: 1, 0;"></path></marker><marker id="gc83a883b-1890-485e-8092-54e045a829a6-light_flowchart-v2-pointEnd-margin" class="marker flowchart-v2" viewBox="0 0 11.5 14" refX="11.5" refY="7" markerUnits="userSpaceOnUse" markerWidth="10.5" markerHeight="14" orient="auto"><path d="M 0 0 L 11.5 7 L 0 14 z" class="arrowMarkerPath" style="stroke-width: 0; stroke-dasharray: 1, 0;"></path></marker><marker id="gc83a883b-1890-485e-8092-54e045a829a6-light_flowchart-v2-pointStart-margin" class="marker flowchart-v2" viewBox="0 0 11.5 14" refX="1" refY="7" markerUnits="userSpaceOnUse" markerWidth="11.5" markerHeight="14" orient="auto"><polygon points="0,7 11.5,14 11.5,0" class="arrowMarkerPath" style="stroke-width: 0; stroke-dasharray: 1, 0;"></polygon></marker><marker id="gc83a883b-1890-485e-8092-54e045a829a6-light_flowchart-v2-circleEnd" class="marker flowchart-v2" viewBox="0 0 10 10" refX="11" refY="5" markerUnits="userSpaceOnUse" markerWidth="11" markerHeight="11" orient="auto"><circle cx="5" cy="5" r="5" class="arrowMarkerPath" style="stroke-width: 1; stroke-dasharray: 1, 0;"></circle></marker><marker id="gc83a883b-1890-485e-8092-54e045a829a6-light_flowchart-v2-circleStart" class="marker flowchart-v2" viewBox="0 0 10 10" refX="-1" refY="5" markerUnits="userSpaceOnUse" markerWidth="11" markerHeight="11" orient="auto"><circle cx="5" cy="5" r="5" class="arrowMarkerPath" style="stroke-width: 1; stroke-dasharray: 1, 0;"></circle></marker><marker id="gc83a883b-1890-485e-8092-54e045a829a6-light_flowchart-v2-circleEnd-margin" class="marker flowchart-v2" viewBox="0 0 10 10" refY="5" refX="12.25" markerUnits="userSpaceOnUse" markerWidth="14" markerHeight="14" orient="auto"><circle cx="5" cy="5" r="5" class="arrowMarkerPath" style="stroke-width: 0; stroke-dasharray: 1, 0;"></circle></marker><marker id="gc83a883b-1890-485e-8092-54e045a829a6-light_flowchart-v2-circleStart-margin" class="marker flowchart-v2" viewBox="0 0 10 10" refX="-2" refY="5" markerUnits="userSpaceOnUse" markerWidth="14" markerHeight="14" orient="auto"><circle cx="5" cy="5" r="5" class="arrowMarkerPath" style="stroke-width: 0; stroke-dasharray: 1, 0;"></circle></marker><marker id="gc83a883b-1890-485e-8092-54e045a829a6-light_flowchart-v2-crossEnd" class="marker cross flowchart-v2" viewBox="0 0 11 11" refX="12" refY="5.2" markerUnits="userSpaceOnUse" markerWidth="11" markerHeight="11" orient="auto"><path d="M 1,1 l 9,9 M 10,1 l -9,9" class="arrowMarkerPath" style="stroke-width: 2; stroke-dasharray: 1, 0;"></path></marker><marker id="gc83a883b-1890-485e-8092-54e045a829a6-light_flowchart-v2-crossStart" class="marker cross flowchart-v2" viewBox="0 0 11 11" refX="-1" refY="5.2" markerUnits="userSpaceOnUse" markerWidth="11" markerHeight="11" orient="auto"><path d="M 1,1 l 9,9 M 10,1 l -9,9" class="arrowMarkerPath" style="stroke-width: 2; stroke-dasharray: 1, 0;"></path></marker><marker id="gc83a883b-1890-485e-8092-54e045a829a6-light_flowchart-v2-crossEnd-margin" class="marker cross flowchart-v2" viewBox="0 0 15 15" refX="17.7" refY="7.5" markerUnits="userSpaceOnUse" markerWidth="12" markerHeight="12" orient="auto"><path d="M 1,1 L 14,14 M 1,14 L 14,1" class="arrowMarkerPath" style="stroke-width: 2.5;"></path></marker><marker id="gc83a883b-1890-485e-8092-54e045a829a6-light_flowchart-v2-crossStart-margin" class="marker cross flowchart-v2" viewBox="0 0 15 15" refX="-3.5" refY="7.5" markerUnits="userSpaceOnUse" markerWidth="12" markerHeight="12" orient="auto"><path d="M 1,1 L 14,14 M 1,14 L 14,1" class="arrowMarkerPath" style="stroke-width: 2.5; stroke-dasharray: 1, 0;"></path></marker><g class="root"><g class="clusters"></g><g class="edgePaths"><path d="M340.352,42L340.352,46.167C340.352,50.333,340.352,58.667,340.352,66.333C340.352,74,340.352,81,340.352,84.5L340.352,88" id="gc83a883b-1890-485e-8092-54e045a829a6-light-L_Start_Background_0" class="edge-thickness-normal edge-pattern-solid edge-thickness-normal edge-pattern-solid flowchart-link" style=";" data-edge="true" data-et="edge" data-id="L_Start_Background_0" data-points="W3sieCI6MzQwLjM1MTU2MjUsInkiOjQyfSx7IngiOjM0MC4zNTE1NjI1LCJ5Ijo2N30seyJ4IjozNDAuMzUxNTYyNSwieSI6OTJ9XQ==" data-look="classic" marker-end="url(#gc83a883b-1890-485e-8092-54e045a829a6-light_flowchart-v2-pointEnd)"></path><path d="M340.352,228.6L340.352,232.767C340.352,236.933,340.352,245.267,340.352,252.933C340.352,260.6,340.352,267.6,340.352,271.1L340.352,274.6" id="gc83a883b-1890-485e-8092-54e045a829a6-light-L_Background_BehindFlow_0" class="edge-thickness-normal edge-pattern-solid edge-thickness-normal edge-pattern-solid flowchart-link" style=";" data-edge="true" data-et="edge" data-id="L_Background_BehindFlow_0" data-points="W3sieCI6MzQwLjM1MTU2MjUsInkiOjIyOC41OTk5OTA4NDQ3MjY1Nn0seyJ4IjozNDAuMzUxNTYyNSwieSI6MjUzLjU5OTk5MDg0NDcyNjU2fSx7IngiOjM0MC4zNTE1NjI1LCJ5IjoyNzguNTk5OTkwODQ0NzI2NTZ9XQ==" data-look="classic" marker-end="url(#gc83a883b-1890-485e-8092-54e045a829a6-light_flowchart-v2-pointEnd)"></path><path d="M340.352,415.2L340.352,419.367C340.352,423.533,340.352,431.867,340.352,439.533C340.352,447.2,340.352,454.2,340.352,457.7L340.352,461.2" id="gc83a883b-1890-485e-8092-54e045a829a6-light-L_BehindFlow_InFlow_0" class="edge-thickness-normal edge-pattern-solid edge-thickness-normal edge-pattern-solid flowchart-link" style=";" data-edge="true" data-et="edge" data-id="L_BehindFlow_InFlow_0" data-points="W3sieCI6MzQwLjM1MTU2MjUsInkiOjQxNS4xOTk5ODE2ODk0NTMxfSx7IngiOjM0MC4zNTE1NjI1LCJ5Ijo0NDAuMTk5OTgxNjg5NDUzMX0seyJ4IjozNDAuMzUxNTYyNSwieSI6NDY1LjE5OTk4MTY4OTQ1MzF9XQ==" data-look="classic" marker-end="url(#gc83a883b-1890-485e-8092-54e045a829a6-light_flowchart-v2-pointEnd)"></path><path d="M340.352,601.8L340.352,605.967C340.352,610.133,340.352,618.467,340.352,626.133C340.352,633.8,340.352,640.8,340.352,644.3L340.352,647.8" id="gc83a883b-1890-485e-8092-54e045a829a6-light-L_InFlow_Above_0" class="edge-thickness-normal edge-pattern-solid edge-thickness-normal edge-pattern-solid flowchart-link" style=";" data-edge="true" data-et="edge" data-id="L_InFlow_Above_0" data-points="W3sieCI6MzQwLjM1MTU2MjUsInkiOjYwMS43OTk5NzI1MzQxNzk3fSx7IngiOjM0MC4zNTE1NjI1LCJ5Ijo2MjYuNzk5OTcyNTM0MTc5N30seyJ4IjozNDAuMzUxNTYyNSwieSI6NjUxLjc5OTk3MjUzNDE3OTd9XQ==" data-look="classic" marker-end="url(#gc83a883b-1890-485e-8092-54e045a829a6-light_flowchart-v2-pointEnd)"></path><path d="M340.352,788.4L340.352,792.567C340.352,796.733,340.352,805.067,340.352,812.733C340.352,820.4,340.352,827.4,340.352,830.9L340.352,834.4" id="gc83a883b-1890-485e-8092-54e045a829a6-light-L_Above_Final_0" class="edge-thickness-normal edge-pattern-solid edge-thickness-normal edge-pattern-solid flowchart-link" style=";" data-edge="true" data-et="edge" data-id="L_Above_Final_0" data-points="W3sieCI6MzQwLjM1MTU2MjUsInkiOjc4OC4zOTk5NjMzNzg5MDYyfSx7IngiOjM0MC4zNTE1NjI1LCJ5Ijo4MTMuMzk5OTYzMzc4OTA2Mn0seyJ4IjozNDAuMzUxNTYyNSwieSI6ODM4LjM5OTk2MzM3ODkwNjJ9XQ==" data-look="classic" marker-end="url(#gc83a883b-1890-485e-8092-54e045a829a6-light_flowchart-v2-pointEnd)"></path></g><g class="edgeLabels"><g class="edgeLabel"><g class="label" data-id="L_Start_Background_0" transform="translate(0, 0)"><text y="-10.1" text-anchor="middle"><tspan class="text-outer-tspan row" x="0" y="-0.1em" dy="1.1em" text-anchor="middle"></tspan></text></g></g><g><rect class="background" style="stroke: none"></rect></g><g class="edgeLabel"><g class="label" data-id="L_Background_BehindFlow_0" transform="translate(0, 0)"><text y="-10.1" text-anchor="middle"><tspan class="text-outer-tspan row" x="0" y="-0.1em" dy="1.1em" text-anchor="middle"></tspan></text></g></g><g><rect class="background" style="stroke: none"></rect></g><g class="edgeLabel"><g class="label" data-id="L_BehindFlow_InFlow_0" transform="translate(0, 0)"><text y="-10.1" text-anchor="middle"><tspan class="text-outer-tspan row" x="0" y="-0.1em" dy="1.1em" text-anchor="middle"></tspan></text></g></g><g><rect class="background" style="stroke: none"></rect></g><g class="edgeLabel"><g class="label" data-id="L_InFlow_Above_0" transform="translate(0, 0)"><text y="-10.1" text-anchor="middle"><tspan class="text-outer-tspan row" x="0" y="-0.1em" dy="1.1em" text-anchor="middle"></tspan></text></g></g><g><rect class="background" style="stroke: none"></rect></g><g class="edgeLabel"><g class="label" data-id="L_Above_Final_0" transform="translate(0, 0)"><text y="-10.1" text-anchor="middle"><tspan class="text-outer-tspan row" x="0" y="-0.1em" dy="1.1em" text-anchor="middle"></tspan></text></g></g><g><rect class="background" style="stroke: none"></rect></g></g><g class="nodes"><g class="root" transform="translate(225.7578125, 830.3999633789062)"><g class="clusters"><g class="cluster" id="gc83a883b-1890-485e-8092-54e045a829a6-light-Final" data-look="classic"><rect style="" x="8" y="8" width="213.1875" height="119"></rect><g class="cluster-label" transform="translate(58.09375, 8)"><g><rect class="background" style="stroke: none"></rect><text y="-10.1" style=""><tspan class="text-outer-tspan row" x="0" y="-0.1em" dy="1.1em"><tspan font-style="normal" class="text-inner-tspan" font-weight="normal">Decoration</tspan><tspan font-style="normal" class="text-inner-tspan" font-weight="normal"> pass</tspan></tspan></text></g></g></g></g><g class="edgePaths"></g><g class="edgeLabels"></g><g class="nodes"><g class="node default" id="gc83a883b-1890-485e-8092-54e045a829a6-light-flowchart-S8-8" data-look="classic" transform="translate(114.59375, 67.5)"><rect class="basic label-container" style="" x="-69.09375" y="-24.5" width="138.1875" height="49"></rect><g class="label" style="" transform="translate(0, -9.5)"><rect></rect><g><rect class="background" style="stroke: none"></rect><text y="-10.1" style=""><tspan class="text-outer-tspan row" x="0" y="-0.1em" dy="1.1em"><tspan font-style="normal" class="text-inner-tspan" font-weight="normal">8.</tspan><tspan font-style="normal" class="text-inner-tspan" font-weight="normal"> Outlines</tspan></tspan></text></g></g></g></g></g><g class="root" transform="translate(66.9765625, 643.7999725341797)"><g class="clusters"><g class="cluster" id="gc83a883b-1890-485e-8092-54e045a829a6-light-Above" data-look="classic"><rect style="fill:#fff8e1 !important;stroke:#ef6c00 !important" x="8" y="8" width="530.75" height="136.5999984741211"></rect><g class="cluster-label" transform="translate(197.4453125, 8)"><g><rect class="background" style="stroke: none"></rect><text y="-10.1" style=""><tspan class="text-outer-tspan row" x="0" y="-0.1em" dy="1.1em"><tspan font-style="normal" class="text-inner-tspan" font-weight="normal">Positioned</tspan><tspan font-style="normal" class="text-inner-tspan" font-weight="normal"> and</tspan><tspan font-style="normal" class="text-inner-tspan" font-weight="normal"> above</tspan></tspan></text></g></g></g></g><g class="edgePaths"><path d="M234.641,76.3L240.891,76.3C247.141,76.3,259.641,76.3,271.474,76.3C283.307,76.3,294.474,76.3,300.057,76.3L305.641,76.3" id="gc83a883b-1890-485e-8092-54e045a829a6-light-L_S6_S7_0" class="edge-thickness-normal edge-pattern-solid edge-thickness-normal edge-pattern-solid flowchart-link" style=";" data-edge="true" data-et="edge" data-id="L_S6_S7_0" data-points="W3sieCI6MjM0LjY0MDYyNSwieSI6NzYuMjk5OTk5MjM3MDYwNTV9LHsieCI6MjcyLjE0MDYyNSwieSI6NzYuMjk5OTk5MjM3MDYwNTV9LHsieCI6MzA5LjY0MDYyNSwieSI6NzYuMjk5OTk5MjM3MDYwNTV9XQ==" data-look="classic" marker-end="url(#gc83a883b-1890-485e-8092-54e045a829a6-light_flowchart-v2-pointEnd)"></path></g><g class="edgeLabels"><g class="edgeLabel"><g class="label" data-id="L_S6_S7_0" transform="translate(0, 0)"><text y="-10.1" text-anchor="middle"><tspan class="text-outer-tspan row" x="0" y="-0.1em" dy="1.1em" text-anchor="middle"></tspan></text></g></g><g><rect class="background" style="stroke: none"></rect></g></g><g class="nodes"><g class="node default" id="gc83a883b-1890-485e-8092-54e045a829a6-light-flowchart-S6-6" data-look="classic" transform="translate(140.0703125, 76.29999923706055)"><rect class="basic label-container" style="" x="-94.5703125" y="-33.29999923706055" width="189.140625" height="66.5999984741211"></rect><g class="label" style="" transform="translate(0, -18.299999237060547)"><rect></rect><g><rect class="background" style="stroke: none"></rect><text y="-10.1" style=""><tspan class="text-outer-tspan row" x="0" y="-0.1em" dy="1.1em"><tspan font-style="normal" class="text-inner-tspan" font-weight="normal">6.</tspan><tspan font-style="normal" class="text-inner-tspan" font-weight="normal"> Positioned</tspan><tspan font-style="normal" class="text-inner-tspan" font-weight="normal"> with</tspan></tspan><tspan class="text-outer-tspan row" x="0" y="1em" dy="1.1em"><tspan font-style="normal" class="text-inner-tspan" font-weight="normal">z-index</tspan><tspan font-style="normal" class="text-inner-tspan" font-weight="normal"> auto</tspan><tspan font-style="normal" class="text-inner-tspan" font-weight="normal"> /</tspan><tspan font-style="normal" class="text-inner-tspan" font-weight="normal"> 0</tspan></tspan></text></g></g></g><g class="node default" id="gc83a883b-1890-485e-8092-54e045a829a6-light-flowchart-S7-7" data-look="classic" transform="translate(405.4453125, 76.29999923706055)"><rect class="basic label-container" style="" x="-95.8046875" y="-33.29999923706055" width="191.609375" height="66.5999984741211"></rect><g class="label" style="" transform="translate(0, -18.299999237060547)"><rect></rect><g><rect class="background" style="stroke: none"></rect><text y="-10.1" style=""><tspan class="text-outer-tspan row" x="0" y="-0.1em" dy="1.1em"><tspan font-style="normal" class="text-inner-tspan" font-weight="normal">7.</tspan><tspan font-style="normal" class="text-inner-tspan" font-weight="normal"> Positive</tspan><tspan font-style="normal" class="text-inner-tspan" font-weight="normal"> z-index</tspan></tspan><tspan class="text-outer-tspan row" x="0" y="1em" dy="1.1em"><tspan font-style="normal" class="text-inner-tspan" font-weight="normal">child</tspan><tspan font-style="normal" class="text-inner-tspan" font-weight="normal"> contexts</tspan></tspan></text></g></g></g></g></g><g class="root" transform="translate(0, 457.1999816894531)"><g class="clusters"><g class="cluster" id="gc83a883b-1890-485e-8092-54e045a829a6-light-InFlow" data-look="classic"><rect style="" x="8" y="8" width="664.703125" height="136.5999984741211"></rect><g class="cluster-label" transform="translate(285.1328125, 8)"><g><rect class="background" style="stroke: none"></rect><text y="-10.1" style=""><tspan class="text-outer-tspan row" x="0" y="-0.1em" dy="1.1em"><tspan font-style="normal" class="text-inner-tspan" font-weight="normal">In-flow</tspan><tspan font-style="normal" class="text-inner-tspan" font-weight="normal"> content</tspan></tspan></text></g></g></g></g><g class="edgePaths"><path d="M203.547,76.3L209.797,76.3C216.047,76.3,228.547,76.3,240.38,76.3C252.214,76.3,263.38,76.3,268.964,76.3L274.547,76.3" id="gc83a883b-1890-485e-8092-54e045a829a6-light-L_S3_S4_0" class="edge-thickness-normal edge-pattern-solid edge-thickness-normal edge-pattern-solid flowchart-link" style=";" data-edge="true" data-et="edge" data-id="L_S3_S4_0" data-points="W3sieCI6MjAzLjU0Njg3NSwieSI6NzYuMjk5OTk5MjM3MDYwNTV9LHsieCI6MjQxLjA0Njg3NSwieSI6NzYuMjk5OTk5MjM3MDYwNTV9LHsieCI6Mjc4LjU0Njg3NSwieSI6NzYuMjk5OTk5MjM3MDYwNTV9XQ==" data-look="classic" marker-end="url(#gc83a883b-1890-485e-8092-54e045a829a6-light_flowchart-v2-pointEnd)"></path><path d="M400.563,76.3L406.813,76.3C413.063,76.3,425.563,76.3,437.396,76.3C449.229,76.3,460.396,76.3,465.979,76.3L471.563,76.3" id="gc83a883b-1890-485e-8092-54e045a829a6-light-L_S4_S5_0" class="edge-thickness-normal edge-pattern-solid edge-thickness-normal edge-pattern-solid flowchart-link" style=";" data-edge="true" data-et="edge" data-id="L_S4_S5_0" data-points="W3sieCI6NDAwLjU2MjUsInkiOjc2LjI5OTk5OTIzNzA2MDU1fSx7IngiOjQzOC4wNjI1LCJ5Ijo3Ni4yOTk5OTkyMzcwNjA1NX0seyJ4Ijo0NzUuNTYyNSwieSI6NzYuMjk5OTk5MjM3MDYwNTV9XQ==" data-look="classic" marker-end="url(#gc83a883b-1890-485e-8092-54e045a829a6-light_flowchart-v2-pointEnd)"></path></g><g class="edgeLabels"><g class="edgeLabel"><g class="label" data-id="L_S3_S4_0" transform="translate(0, 0)"><text y="-10.1" text-anchor="middle"><tspan class="text-outer-tspan row" x="0" y="-0.1em" dy="1.1em" text-anchor="middle"></tspan></text></g></g><g><rect class="background" style="stroke: none"></rect></g><g class="edgeLabel"><g class="label" data-id="L_S4_S5_0" transform="translate(0, 0)"><text y="-10.1" text-anchor="middle"><tspan class="text-outer-tspan row" x="0" y="-0.1em" dy="1.1em" text-anchor="middle"></tspan></text></g></g><g><rect class="background" style="stroke: none"></rect></g></g><g class="nodes"><g class="node default" id="gc83a883b-1890-485e-8092-54e045a829a6-light-flowchart-S3-3" data-look="classic" transform="translate(124.5234375, 76.29999923706055)"><rect class="basic label-container" style="" x="-79.0234375" y="-33.29999923706055" width="158.046875" height="66.5999984741211"></rect><g class="label" style="" transform="translate(0, -18.299999237060547)"><rect></rect><g><rect class="background" style="stroke: none"></rect><text y="-10.1" style=""><tspan class="text-outer-tspan row" x="0" y="-0.1em" dy="1.1em"><tspan font-style="normal" class="text-inner-tspan" font-weight="normal">3.</tspan><tspan font-style="normal" class="text-inner-tspan" font-weight="normal"> Block-level</tspan></tspan><tspan class="text-outer-tspan row" x="0" y="1em" dy="1.1em"><tspan font-style="normal" class="text-inner-tspan" font-weight="normal">descendants</tspan></tspan></text></g></g></g><g class="node default" id="gc83a883b-1890-485e-8092-54e045a829a6-light-flowchart-S4-4" data-look="classic" transform="translate(339.5546875, 76.29999923706055)"><rect class="basic label-container" style="" x="-61.0078125" y="-24.5" width="122.015625" height="49"></rect><g class="label" style="" transform="translate(0, -9.5)"><rect></rect><g><rect class="background" style="stroke: none"></rect><text y="-10.1" style=""><tspan class="text-outer-tspan row" x="0" y="-0.1em" dy="1.1em"><tspan font-style="normal" class="text-inner-tspan" font-weight="normal">4.</tspan><tspan font-style="normal" class="text-inner-tspan" font-weight="normal"> Floats</tspan></tspan></text></g></g></g><g class="node default" id="gc83a883b-1890-485e-8092-54e045a829a6-light-flowchart-S5-5" data-look="classic" transform="translate(555.3828125, 76.29999923706055)"><rect class="basic label-container" style="" x="-79.8203125" y="-33.29999923706055" width="159.640625" height="66.5999984741211"></rect><g class="label" style="" transform="translate(0, -18.299999237060547)"><rect></rect><g><rect class="background" style="stroke: none"></rect><text y="-10.1" style=""><tspan class="text-outer-tspan row" x="0" y="-0.1em" dy="1.1em"><tspan font-style="normal" class="text-inner-tspan" font-weight="normal">5.</tspan><tspan font-style="normal" class="text-inner-tspan" font-weight="normal"> Inline-level</tspan></tspan><tspan class="text-outer-tspan row" x="0" y="1em" dy="1.1em"><tspan font-style="normal" class="text-inner-tspan" font-weight="normal">descendants</tspan></tspan></text></g></g></g></g></g><g class="root" transform="translate(195.2578125, 270.59999084472656)"><g class="clusters"><g class="cluster" id="gc83a883b-1890-485e-8092-54e045a829a6-light-BehindFlow" data-look="classic"><rect style="" x="8" y="8" width="274.1875" height="136.5999984741211"></rect><g class="cluster-label" transform="translate(63.0390625, 8)"><g><rect class="background" style="stroke: none"></rect><text y="-10.1" style=""><tspan class="text-outer-tspan row" x="0" y="-0.1em" dy="1.1em"><tspan font-style="normal" class="text-inner-tspan" font-weight="normal">Behind</tspan><tspan font-style="normal" class="text-inner-tspan" font-weight="normal"> in-flow</tspan><tspan font-style="normal" class="text-inner-tspan" font-weight="normal"> content</tspan></tspan></text></g></g></g></g><g class="edgePaths"></g><g class="edgeLabels"></g><g class="nodes"><g class="node default" id="gc83a883b-1890-485e-8092-54e045a829a6-light-flowchart-S2-2" data-look="classic" transform="translate(145.09375, 76.29999923706055)"><rect class="basic label-container" style="" x="-99.59375" y="-33.29999923706055" width="199.1875" height="66.5999984741211"></rect><g class="label" style="" transform="translate(0, -18.299999237060547)"><rect></rect><g><rect class="background" style="stroke: none"></rect><text y="-10.1" style=""><tspan class="text-outer-tspan row" x="0" y="-0.1em" dy="1.1em"><tspan font-style="normal" class="text-inner-tspan" font-weight="normal">2.</tspan><tspan font-style="normal" class="text-inner-tspan" font-weight="normal"> Negative</tspan><tspan font-style="normal" class="text-inner-tspan" font-weight="normal"> z-index</tspan></tspan><tspan class="text-outer-tspan row" x="0" y="1em" dy="1.1em"><tspan font-style="normal" class="text-inner-tspan" font-weight="normal">child</tspan><tspan font-style="normal" class="text-inner-tspan" font-weight="normal"> contexts</tspan></tspan></text></g></g></g></g></g><g class="root" transform="translate(182.0625, 84)"><g class="clusters"><g class="cluster" id="gc83a883b-1890-485e-8092-54e045a829a6-light-Background" data-look="classic"><rect style="fill:#e3f2fd !important;stroke:#1565c0 !important" x="8" y="8" width="300.578125" height="136.5999984741211"></rect><g class="cluster-label" transform="translate(99.3984375, 8)"><g><rect class="background" style="stroke: none"></rect><text y="-10.1" style=""><tspan class="text-outer-tspan row" x="0" y="-0.1em" dy="1.1em"><tspan font-style="normal" class="text-inner-tspan" font-weight="normal">Background</tspan><tspan font-style="normal" class="text-inner-tspan" font-weight="normal"> pass</tspan></tspan></text></g></g></g></g><g class="edgePaths"></g><g class="edgeLabels"></g><g class="nodes"><g class="node default" id="gc83a883b-1890-485e-8092-54e045a829a6-light-flowchart-S1-1" data-look="classic" transform="translate(158.2890625, 76.29999923706055)"><rect class="basic label-container" style="" x="-112.7890625" y="-33.29999923706055" width="225.578125" height="66.5999984741211"></rect><g class="label" style="" transform="translate(0, -18.299999237060547)"><rect></rect><g><rect class="background" style="stroke: none"></rect><text y="-10.1" style=""><tspan class="text-outer-tspan row" x="0" y="-0.1em" dy="1.1em"><tspan font-style="normal" class="text-inner-tspan" font-weight="normal">1.</tspan><tspan font-style="normal" class="text-inner-tspan" font-weight="normal"> Element</tspan><tspan font-style="normal" class="text-inner-tspan" font-weight="normal"> background</tspan></tspan><tspan class="text-outer-tspan row" x="0" y="1em" dy="1.1em"><tspan font-style="normal" class="text-inner-tspan" font-weight="normal">and</tspan><tspan font-style="normal" class="text-inner-tspan" font-weight="normal"> borders</tspan></tspan></text></g></g></g></g></g><g class="node default" id="gc83a883b-1890-485e-8092-54e045a829a6-light-flowchart-Start-0" data-look="classic" transform="translate(340.3515625, 25)"><g class="basic label-container outer-path"><path d="M-71.671875 -17 C-27.96676763131363 -17, 15.73833973737274 -17, 71.671875 -17 C71.671875 -17, 71.671875 -17, 71.671875 -17 C71.96058441347711 -16.99074165104857, 72.24929382695422 -16.981483302097143, 72.76106873967211 -16.965071676755716 C73.04123607212561 -16.93804427114444, 73.3214034045791 -16.91101686553317, 73.8457867486366 -16.860430234995185 C74.06872707530033 -16.824386971908247, 74.29166740196406 -16.788343708821312, 74.92157168792333 -16.686505668848113 C75.31557485058504 -16.596577018081497, 75.70957801324674 -16.506648367314884, 75.98400292646163 -16.4440126716635 C76.34460279785337 -16.336988522661784, 76.7052026692451 -16.229964373660067, 77.02871470640156 -16.133947699181366 C77.33140123820495 -16.02255625747409, 77.63408777000834 -15.911164815766814, 78.05141408294936 -15.757584874882369 C78.42712647565835 -15.591268143742239, 78.80283886836736 -15.424951412602109, 79.04789856499849 -15.316470754341125 C79.29338068324101 -15.188402890492805, 79.53886280148352 -15.060335026644486, 80.01407338406693 -14.812417970097622 C80.3387962641644 -14.615569051899076, 80.66351914426188 -14.41872013370053, 80.94596832057933 -14.247497783161291 C81.1802551290602 -14.084069447677512, 81.41454193754107 -13.920641112193733, 81.83975401835067 -13.624031571755262 C82.17651353992332 -13.355474814848307, 82.51327306149597 -13.086918057941352, 82.6917577202324 -12.944581292275288 C82.97533132400054 -12.687047248279478, 83.25890492776867 -12.42951320428367, 83.49847836025927 -12.21193895166137 C83.72142399258108 -11.981729282112271, 83.94436962490289 -11.751519612563174, 84.25660095028036 -11.42911513444239 C84.44979413080186 -11.202179431598443, 84.64298731132337 -10.9752437287545, 84.96301020195651 -10.59932663159847 C85.1069256930223 -10.406492984541257, 85.2508411840881 -10.213659337484046, 85.61480332814824 -9.725983222076888 C85.81237414774172 -9.42246138798781, 86.00994496733522 -9.118939553898732, 86.20930197109088 -8.812673661278927 C86.34712178581015 -8.567960624475315, 86.48494160052942 -8.323247587671705, 86.744063208341 -7.863150934094199 C86.85587446489778 -7.630972467476406, 86.96768572145456 -7.3987940008586115, 87.21688959126881 -6.881316833080699 C87.32812873378897 -6.606554000393383, 87.43936787630913 -6.331791167706068, 87.62583817484592 -5.871205925162238 C87.74686788801415 -5.5066837125655885, 87.86789760118238 -5.142161499968939, 87.96922850162323 -4.836968972727556 C88.05734906022795 -4.500927091076108, 88.14546961883265 -4.164885209424661, 88.245649507091 -3.7828558772573464 C88.30144355025634 -3.4963652576785265, 88.35723759342167 -3.209874638099706, 88.45396531804565 -2.713198215567453 C88.48584334405513 -2.4659585408661786, 88.5177213700646 -2.2187188661649038, 88.59331992013637 -1.632391440430593 C88.61474676130901 -1.2986510937317348, 88.63617360248166 -0.9649107470328765, 88.6631406754117 -0.5448768187181379 C88.6631406754117 -0.29288353052785365, 88.6631406754117 -0.04089024233756944, 88.6631406754117 0.5448768187181336 C88.6402174195495 0.9019250320907928, 88.61729416368732 1.258973245463452, 88.59331992013637 1.6323914404305815 C88.53925097995382 2.051739463366489, 88.48518203977127 2.4710874863023973, 88.45396531804565 2.7131982155674415 C88.39127760896433 3.035086352648025, 88.32858989988301 3.356974489728609, 88.245649507091 3.782855877257343 C88.16410771381408 4.093810075458999, 88.08256592053716 4.404764273660656, 87.96922850162323 4.836968972727545 C87.84969989675712 5.196970086287351, 87.73017129189101 5.556971199847157, 87.62583817484592 5.871205925162227 C87.47034884386056 6.255267578877789, 87.31485951287519 6.639329232593351, 87.21688959126881 6.881316833080694 C87.06127967098008 7.204444162079152, 86.90566975069136 7.527571491077611, 86.744063208341 7.863150934094196 C86.54908103126995 8.209361533570258, 86.3540988541989 8.55557213304632, 86.20930197109088 8.812673661278923 C86.01291689560652 9.114373873999517, 85.81653182012217 9.416074086720112, 85.61480332814826 9.725983222076879 C85.36664292004998 10.058495561050295, 85.11848251195171 10.39100790002371, 84.96301020195651 10.599326631598467 C84.72605585014033 10.87766669632633, 84.48910149832415 11.156006761054194, 84.25660095028037 11.42911513444238 C84.09593877006519 11.595012026124863, 83.93527658985 11.760908917807347, 83.49847836025927 12.211938951661365 C83.33040474677041 12.364578960447819, 83.16233113328155 12.517218969234273, 82.69175772023242 12.944581292275275 C82.39137948003273 13.184124945433856, 82.09100123983303 13.423668598592439, 81.83975401835067 13.62403157175526 C81.49582261604321 13.863943229454499, 81.15189121373577 14.103854887153737, 80.94596832057934 14.247497783161286 C80.73629939781814 14.374600316290483, 80.52663047505693 14.50170284941968, 80.01407338406695 14.81241797009762 C79.65437894827946 15.000070326852667, 79.29468451249198 15.187722683607715, 79.04789856499849 15.316470754341124 C78.74631826094428 15.449971408884059, 78.44473795689005 15.583472063426996, 78.05141408294936 15.757584874882367 C77.8081362174651 15.847113378216513, 77.56485835198083 15.936641881550658, 77.02871470640156 16.133947699181363 C76.6155795836078 16.256564035036043, 76.20244446081402 16.379180370890722, 75.98400292646164 16.444012671663497 C75.68012155003825 16.513371612820833, 75.37624017361486 16.58273055397817, 74.92157168792333 16.68650566884811 C74.57551732434462 16.742453054659844, 74.22946296076591 16.798400440471582, 73.84578674863661 16.86043023499518 C73.53767418646585 16.890153483308225, 73.22956162429509 16.919876731621265, 72.76106873967211 16.965071676755716 C72.47184426963271 16.9743465425686, 72.18261979959331 16.983621408381484, 71.671875 17 C71.671875 17, 71.671875 17, 71.671875 17 C18.99669065080792 17, -33.67849369838416 17, -71.671875 17 C-72.10403566808877 16.986141448524105, -72.53619633617753 16.972282897048206, -72.76106873967211 16.965071676755716 C-73.14527009960668 16.928008233632568, -73.52947145954124 16.89094479050942, -73.8457867486366 16.86043023499518 C-74.16914483415059 16.808152207408686, -74.49250291966457 16.75587417982219, -74.92157168792333 16.68650566884811 C-75.165295123655 16.63087738508641, -75.40901855938665 16.57524910132471, -75.98400292646161 16.4440126716635 C-76.33366439040695 16.340234984575005, -76.68332585435229 16.236457297486506, -77.02871470640154 16.13394769918137 C-77.399757872078 15.997400384327008, -77.77080103775445 15.860853069472649, -78.05141408294936 15.757584874882369 C-78.41445523091706 15.596877327910095, -78.77749637888475 15.43616978093782, -79.04789856499849 15.316470754341127 C-79.32787457797382 15.170407447705093, -79.60785059094914 15.02434414106906, -80.01407338406693 14.812417970097624 C-80.38621673692033 14.586822482640802, -80.75836008977373 14.36122699518398, -80.94596832057931 14.247497783161299 C-81.2781241630993 14.01580024621403, -81.6102800056193 13.784102709266762, -81.83975401835067 13.624031571755264 C-82.17849279962822 13.353896407903969, -82.51723158090576 13.083761244052674, -82.6917577202324 12.94458129227529 C-82.87082347229817 12.78195851406934, -83.04988922436392 12.619335735863388, -83.49847836025926 12.211938951661377 C-83.74219313677351 11.960283435555143, -83.98590791328775 11.708627919448908, -84.25660095028036 11.429115134442386 C-84.45633337899062 11.194498058582168, -84.65606580770087 10.959880982721948, -84.96301020195651 10.599326631598473 C-85.21780212859116 10.257928661930073, -85.4725940552258 9.916530692261674, -85.61480332814824 9.72598322207689 C-85.77609125941704 9.478201647774242, -85.93737919068583 9.230420073471596, -86.20930197109088 8.812673661278936 C-86.32909008527749 8.599977734678736, -86.44887819946409 8.387281808078535, -86.744063208341 7.863150934094201 C-86.92914157024032 7.478831755567708, -87.11421993213963 7.094512577041216, -87.21688959126881 6.881316833080701 C-87.3204980832072 6.625401854858958, -87.42410657514559 6.369486876637214, -87.62583817484592 5.87120592516224 C-87.74159124165664 5.522576130674993, -87.85734430846735 5.173946336187747, -87.96922850162323 4.8369689727275516 C-88.05831355410633 4.497249057903495, -88.14739860658945 4.15752914307944, -88.245649507091 3.782855877257349 C-88.30992229945431 3.4528286725312296, -88.37419509181761 3.1228014678051106, -88.45396531804565 2.713198215567455 C-88.48294599475166 2.4884298099175406, -88.51192667145767 2.263661404267626, -88.59331992013637 1.6323914404306026 C-88.6126865613813 1.3307403705694028, -88.63205320262622 1.0290893007082031, -88.6631406754117 0.54487681871814 C-88.6631406754117 0.30445407598618723, -88.6631406754117 0.06403133325423443, -88.6631406754117 -0.5448768187181317 C-88.63958634838426 -0.9117544748810753, -88.61603202135682 -1.2786321310440187, -88.59331992013637 -1.6323914404305793 C-88.55631560538829 -1.91938959828816, -88.51931129064022 -2.2063877561457406, -88.45396531804565 -2.713198215567447 C-88.3956739602088 -3.012512018176852, -88.33738260237195 -3.3118258207862574, -88.245649507091 -3.782855877257341 C-88.1578195233097 -4.1177896711712165, -88.0699895395284 -4.452723465085093, -87.96922850162323 -4.836968972727544 C-87.87138018487538 -5.131672512759994, -87.77353186812752 -5.426376052792444, -87.62583817484594 -5.871205925162218 C-87.46418320868233 -6.270496816972486, -87.30252824251872 -6.669787708782753, -87.21688959126881 -6.881316833080692 C-87.05444500536625 -7.218636491464709, -86.89200041946367 -7.555956149848726, -86.744063208341 -7.863150934094194 C-86.53999499467974 -8.225494711597138, -86.33592678101849 -8.587838489100081, -86.20930197109088 -8.812673661278929 C-86.00219938676422 -9.13083884563539, -85.79509680243756 -9.449004029991853, -85.61480332814826 -9.725983222076884 C-85.41079468989035 -9.999336211773185, -85.20678605163245 -10.272689201469488, -84.96301020195651 -10.599326631598467 C-84.70934251403149 -10.897299131935538, -84.45567482610647 -11.19527163227261, -84.25660095028037 -11.42911513444238 C-84.08280357978215 -11.608575188511274, -83.90900620928393 -11.788035242580168, -83.49847836025927 -12.21193895166136 C-83.3022014349255 -12.390192462046638, -83.1059245095917 -12.568445972431919, -82.69175772023242 -12.944581292275274 C-82.43811131333746 -13.146857551959645, -82.18446490644249 -13.349133811644014, -81.83975401835067 -13.624031571755259 C-81.50433592912988 -13.858004710780625, -81.16891783990908 -14.091977849805989, -80.94596832057934 -14.247497783161284 C-80.7406860803034 -14.371941083588908, -80.53540384002746 -14.496384384016533, -80.01407338406695 -14.812417970097618 C-79.71730411842591 -14.967242305892759, -79.42053485278488 -15.1220666416879, -79.04789856499849 -15.316470754341124 C-78.80113006938903 -15.42570784722009, -78.55436157377957 -15.534944940099058, -78.05141408294936 -15.757584874882365 C-77.73504238001364 -15.874012586070679, -77.4186706770779 -15.99044029725899, -77.02871470640156 -16.133947699181363 C-76.7091230322938 -16.228800830485618, -76.38953135818603 -16.32365396178987, -75.98400292646164 -16.444012671663494 C-75.69209792940497 -16.510638082383558, -75.40019293234828 -16.577263493103622, -74.92157168792333 -16.68650566884811 C-74.69273762740455 -16.723501785118142, -74.46390356688578 -16.760497901388174, -73.84578674863661 -16.86043023499518 C-73.53324311808898 -16.8905809431454, -73.22069948754134 -16.920731651295622, -72.76106873967213 -16.965071676755716 C-72.44864650561365 -16.975090449708983, -72.13622427155516 -16.985109222662253, -71.671875 -17 C-71.671875 -17, -71.671875 -17, -71.671875 -17" stroke="none" stroke-width="0" fill="#ECECFF" style=""></path><path d="M-71.671875 -17 C-19.186797313657344 -17, 33.29828037268531 -17, 71.671875 -17 M-71.671875 -17 C-28.250220280318302 -17, 15.171434439363395 -17, 71.671875 -17 M71.671875 -17 C71.671875 -17, 71.671875 -17, 71.671875 -17 M71.671875 -17 C71.671875 -17, 71.671875 -17, 71.671875 -17 M71.671875 -17 C71.96478821776303 -16.99060684322733, 72.25770143552606 -16.981213686454662, 72.76106873967211 -16.965071676755716 M71.671875 -17 C71.90205482827963 -16.99261858092493, 72.13223465655926 -16.985237161849856, 72.76106873967211 -16.965071676755716 M72.76106873967211 -16.965071676755716 C73.02739335879066 -16.939379661051568, 73.2937179779092 -16.91368764534742, 73.8457867486366 -16.860430234995185 M72.76106873967211 -16.965071676755716 C73.0499499409256 -16.937203654701268, 73.33883114217909 -16.90933563264682, 73.8457867486366 -16.860430234995185 M73.8457867486366 -16.860430234995185 C74.12484166343458 -16.815314800473832, 74.40389657823256 -16.770199365952482, 74.92157168792333 -16.686505668848113 M73.8457867486366 -16.860430234995185 C74.06904140174116 -16.824336154046932, 74.29229605484572 -16.788242073098683, 74.92157168792333 -16.686505668848113 M74.92157168792333 -16.686505668848113 C75.25964606979868 -16.60934239732658, 75.59772045167404 -16.532179125805047, 75.98400292646163 -16.4440126716635 M74.92157168792333 -16.686505668848113 C75.26783672775926 -16.607472933096115, 75.6141017675952 -16.528440197344118, 75.98400292646163 -16.4440126716635 M75.98400292646163 -16.4440126716635 C76.34772208227236 -16.336062735419684, 76.7114412380831 -16.228112799175868, 77.02871470640156 -16.133947699181366 M75.98400292646163 -16.4440126716635 C76.20675769772677 -16.37790022481566, 76.42951246899192 -16.311787777967822, 77.02871470640156 -16.133947699181366 M77.02871470640156 -16.133947699181366 C77.29488053899891 -16.035996212375558, 77.56104637159625 -15.938044725569748, 78.05141408294936 -15.757584874882369 M77.02871470640156 -16.133947699181366 C77.36907103974625 -16.008693422291064, 77.70942737309095 -15.883439145400759, 78.05141408294936 -15.757584874882369 M78.05141408294936 -15.757584874882369 C78.39306345564958 -15.606346832256536, 78.73471282834981 -15.455108789630703, 79.04789856499849 -15.316470754341125 M78.05141408294936 -15.757584874882369 C78.4084049620879 -15.599555602445916, 78.76539584122642 -15.441526330009463, 79.04789856499849 -15.316470754341125 M79.04789856499849 -15.316470754341125 C79.25181542052063 -15.2100874614302, 79.45573227604278 -15.103704168519277, 80.01407338406693 -14.812417970097622 M79.04789856499849 -15.316470754341125 C79.26835165943515 -15.20146051618046, 79.48880475387183 -15.086450278019795, 80.01407338406693 -14.812417970097622 M80.01407338406693 -14.812417970097622 C80.27419407752262 -14.654731277085913, 80.53431477097831 -14.497044584074205, 80.94596832057933 -14.247497783161291 M80.01407338406693 -14.812417970097622 C80.21180461421034 -14.692552136387004, 80.40953584435374 -14.572686302676386, 80.94596832057933 -14.247497783161291 M80.94596832057933 -14.247497783161291 C81.29764605112224 -14.002182622218147, 81.64932378166515 -13.756867461275004, 81.83975401835067 -13.624031571755262 M80.94596832057933 -14.247497783161291 C81.1978836416683 -14.071772560408109, 81.44979896275728 -13.896047337654926, 81.83975401835067 -13.624031571755262 M81.83975401835067 -13.624031571755262 C82.09115619026068 -13.423545029749798, 82.34255836217068 -13.223058487744334, 82.6917577202324 -12.944581292275288 M81.83975401835067 -13.624031571755262 C82.17680670105267 -13.355241026649, 82.51385938375465 -13.086450481542741, 82.6917577202324 -12.944581292275288 M82.6917577202324 -12.944581292275288 C82.97045531131252 -12.6914755139905, 83.24915290239265 -12.438369735705715, 83.49847836025927 -12.21193895166137 M82.6917577202324 -12.944581292275288 C82.99676881826164 -12.667578283196555, 83.30177991629088 -12.390575274117822, 83.49847836025927 -12.21193895166137 M83.49847836025927 -12.21193895166137 C83.66285786058064 -12.042203621771593, 83.827237360902 -11.872468291881816, 84.25660095028036 -11.42911513444239 M83.49847836025927 -12.21193895166137 C83.69406851367978 -12.009976060004455, 83.88965866710029 -11.808013168347538, 84.25660095028036 -11.42911513444239 M84.25660095028036 -11.42911513444239 C84.49881202530467 -11.144600223518221, 84.741023100329 -10.860085312594052, 84.96301020195651 -10.59932663159847 M84.25660095028036 -11.42911513444239 C84.4764033187939 -11.170922765277307, 84.69620568730744 -10.912730396112227, 84.96301020195651 -10.59932663159847 M84.96301020195651 -10.59932663159847 C85.10447597237612 -10.409775387033003, 85.24594174279572 -10.220224142467535, 85.61480332814824 -9.725983222076888 M84.96301020195651 -10.59932663159847 C85.11647957630022 -10.393691651325522, 85.26994895064394 -10.188056671052573, 85.61480332814824 -9.725983222076888 M85.61480332814824 -9.725983222076888 C85.8516739069315 -9.362086404409352, 86.08854448571475 -8.998189586741818, 86.20930197109088 -8.812673661278927 M85.61480332814824 -9.725983222076888 C85.81175288562754 -9.423415813427427, 86.00870244310684 -9.120848404777966, 86.20930197109088 -8.812673661278927 M86.20930197109088 -8.812673661278927 C86.32709124507264 -8.603526877866958, 86.4448805190544 -8.394380094454991, 86.744063208341 -7.863150934094199 M86.20930197109088 -8.812673661278927 C86.32342287866521 -8.610040433885723, 86.43754378623954 -8.407407206492518, 86.744063208341 -7.863150934094199 M86.744063208341 -7.863150934094199 C86.92529589513562 -7.48681738220688, 87.10652858193023 -7.110483830319561, 87.21688959126881 -6.881316833080699 M86.744063208341 -7.863150934094199 C86.85098393343756 -7.641127760694169, 86.95790465853412 -7.4191045872941395, 87.21688959126881 -6.881316833080699 M87.21688959126881 -6.881316833080699 C87.35809168912469 -6.532544921419843, 87.49929378698056 -6.183773009758989, 87.62583817484592 -5.871205925162238 M87.21688959126881 -6.881316833080699 C87.3537140483654 -6.5433577787312025, 87.49053850546198 -6.205398724381707, 87.62583817484592 -5.871205925162238 M87.62583817484592 -5.871205925162238 C87.71180352238444 -5.612291995094308, 87.79776886992296 -5.353378065026378, 87.96922850162323 -4.836968972727556 M87.62583817484592 -5.871205925162238 C87.73175258666103 -5.552208591944989, 87.83766699847612 -5.23321125872774, 87.96922850162323 -4.836968972727556 M87.96922850162323 -4.836968972727556 C88.06130698092267 -4.485833824093476, 88.15338546022208 -4.134698675459396, 88.245649507091 -3.7828558772573464 M87.96922850162323 -4.836968972727556 C88.02619813265311 -4.619719078816387, 88.08316776368298 -4.402469184905218, 88.245649507091 -3.7828558772573464 M88.245649507091 -3.7828558772573464 C88.29774284664342 -3.51536758858688, 88.34983618619584 -3.2478792999164137, 88.45396531804565 -2.713198215567453 M88.245649507091 -3.7828558772573464 C88.31633811286915 -3.419884826628717, 88.38702671864728 -3.0569137760000875, 88.45396531804565 -2.713198215567453 M88.45396531804565 -2.713198215567453 C88.50234006944999 -2.338013196350601, 88.55071482085431 -1.962828177133749, 88.59331992013637 -1.632391440430593 M88.45396531804565 -2.713198215567453 C88.48809426962215 -2.44850080666381, 88.52222322119867 -2.183803397760167, 88.59331992013637 -1.632391440430593 M88.59331992013637 -1.632391440430593 C88.62113480345204 -1.199152181019433, 88.6489496867677 -0.7659129216082728, 88.6631406754117 -0.5448768187181379 M88.59331992013637 -1.632391440430593 C88.61226516154136 -1.3373040132242617, 88.63121040294635 -1.0422165860179302, 88.6631406754117 -0.5448768187181379 M88.6631406754117 -0.5448768187181379 C88.6631406754117 -0.238429343950384, 88.6631406754117 0.06801813081736985, 88.6631406754117 0.5448768187181336 M88.6631406754117 -0.5448768187181379 C88.6631406754117 -0.17202216145270915, 88.6631406754117 0.20083249581271956, 88.6631406754117 0.5448768187181336 M88.6631406754117 0.5448768187181336 C88.64625040703976 0.8079563821903973, 88.6293601386678 1.071035945662661, 88.59331992013637 1.6323914404305815 M88.6631406754117 0.5448768187181336 C88.64905308523564 0.7643024070084107, 88.63496549505957 0.9837279952986877, 88.59331992013637 1.6323914404305815 M88.59331992013637 1.6323914404305815 C88.54045903832407 2.0423700012049646, 88.48759815651177 2.452348561979348, 88.45396531804565 2.7131982155674415 M88.59331992013637 1.6323914404305815 C88.5597033949087 1.8931145717626954, 88.52608686968101 2.1538377030948093, 88.45396531804565 2.7131982155674415 M88.45396531804565 2.7131982155674415 C88.38105458643737 3.0875794126873988, 88.30814385482908 3.461960609807356, 88.245649507091 3.782855877257343 M88.45396531804565 2.7131982155674415 C88.37322586102424 3.1277782630821096, 88.29248640400283 3.5423583105967777, 88.245649507091 3.782855877257343 M88.245649507091 3.782855877257343 C88.16288816148432 4.098460757049707, 88.08012681587763 4.4140656368420705, 87.96922850162323 4.836968972727545 M88.245649507091 3.782855877257343 C88.18631975324637 4.009105942344915, 88.12698999940173 4.235356007432486, 87.96922850162323 4.836968972727545 M87.96922850162323 4.836968972727545 C87.86981929764912 5.136373656391892, 87.77041009367498 5.435778340056238, 87.62583817484592 5.871205925162227 M87.96922850162323 4.836968972727545 C87.85721083574413 5.174348334764098, 87.74519316986502 5.511727696800652, 87.62583817484592 5.871205925162227 M87.62583817484592 5.871205925162227 C87.5342046933176 6.097542396150024, 87.44257121178929 6.323878867137821, 87.21688959126881 6.881316833080694 M87.62583817484592 5.871205925162227 C87.47644053166263 6.240220992231886, 87.32704288847934 6.609236059301545, 87.21688959126881 6.881316833080694 M87.21688959126881 6.881316833080694 C87.02845600958781 7.272603197274051, 86.84002242790682 7.663889561467407, 86.744063208341 7.863150934094196 M87.21688959126881 6.881316833080694 C87.06111489098353 7.204786331267721, 86.90534019069825 7.528255829454748, 86.744063208341 7.863150934094196 M86.744063208341 7.863150934094196 C86.63190822011477 8.062293472613929, 86.51975323188854 8.261436011133663, 86.20930197109088 8.812673661278923 M86.744063208341 7.863150934094196 C86.63538701176854 8.0561165257668, 86.52671081519608 8.249082117439404, 86.20930197109088 8.812673661278923 M86.20930197109088 8.812673661278923 C86.02144503434317 9.101272362774127, 85.83358809759545 9.38987106426933, 85.61480332814826 9.725983222076879 M86.20930197109088 8.812673661278923 C86.00748666550471 9.122716165656843, 85.80567135991855 9.432758670034765, 85.61480332814826 9.725983222076879 M85.61480332814826 9.725983222076879 C85.40982873010469 10.000630509885218, 85.20485413206113 10.275277797693557, 84.96301020195651 10.599326631598467 M85.61480332814826 9.725983222076879 C85.40032542512604 10.013364072787724, 85.18584752210381 10.300744923498566, 84.96301020195651 10.599326631598467 M84.96301020195651 10.599326631598467 C84.79650583423994 10.794912136285276, 84.63000146652335 10.990497640972087, 84.25660095028037 11.42911513444238 M84.96301020195651 10.599326631598467 C84.7391182919297 10.862322808926539, 84.51522638190289 11.125318986254609, 84.25660095028037 11.42911513444238 M84.25660095028037 11.42911513444238 C84.07837158349915 11.613151588547147, 83.90014221671791 11.797188042651914, 83.49847836025927 12.211938951661365 M84.25660095028037 11.42911513444238 C84.02579283674886 11.667443461362195, 83.79498472321735 11.905771788282012, 83.49847836025927 12.211938951661365 M83.49847836025927 12.211938951661365 C83.32763476883136 12.367094581122473, 83.15679117740343 12.522250210583582, 82.69175772023242 12.944581292275275 M83.49847836025927 12.211938951661365 C83.31301433134222 12.380372475614534, 83.12755030242515 12.548805999567703, 82.69175772023242 12.944581292275275 M82.69175772023242 12.944581292275275 C82.47835042356422 13.114767932361497, 82.26494312689601 13.284954572447718, 81.83975401835067 13.62403157175526 M82.69175772023242 12.944581292275275 C82.39328910249579 13.18260207233675, 82.09482048475917 13.420622852398223, 81.83975401835067 13.62403157175526 M81.83975401835067 13.62403157175526 C81.53828637037212 13.834322352660958, 81.23681872239355 14.044613133566655, 80.94596832057934 14.247497783161286 M81.83975401835067 13.62403157175526 C81.55756214205677 13.820876408768452, 81.27537026576286 14.017721245781644, 80.94596832057934 14.247497783161286 M80.94596832057934 14.247497783161286 C80.68447338040829 14.406017552607818, 80.42297844023724 14.564537322054347, 80.01407338406695 14.81241797009762 M80.94596832057934 14.247497783161286 C80.6451788746288 14.429838112931494, 80.34438942867826 14.612178442701701, 80.01407338406695 14.81241797009762 M80.01407338406695 14.81241797009762 C79.71129500623199 14.970377255875311, 79.40851662839702 15.128336541653, 79.04789856499849 15.316470754341124 M80.01407338406695 14.81241797009762 C79.8102473170104 14.918753898724196, 79.60642124995384 15.02508982735077, 79.04789856499849 15.316470754341124 M79.04789856499849 15.316470754341124 C78.65745651117767 15.489307869515587, 78.26701445735684 15.662144984690048, 78.05141408294936 15.757584874882367 M79.04789856499849 15.316470754341124 C78.69566745178206 15.472393019597302, 78.34343633856562 15.62831528485348, 78.05141408294936 15.757584874882367 M78.05141408294936 15.757584874882367 C77.77856703351223 15.85799511124571, 77.50571998407509 15.958405347609053, 77.02871470640156 16.133947699181363 M78.05141408294936 15.757584874882367 C77.81621884168491 15.844138897788662, 77.58102360042047 15.930692920694957, 77.02871470640156 16.133947699181363 M77.02871470640156 16.133947699181363 C76.67155573969674 16.23995060573368, 76.31439677299193 16.345953512286, 75.98400292646164 16.444012671663497 M77.02871470640156 16.133947699181363 C76.76567179753313 16.21201745379311, 76.5026288886647 16.290087208404856, 75.98400292646164 16.444012671663497 M75.98400292646164 16.444012671663497 C75.5712070626508 16.538230633833564, 75.15841119883997 16.632448596003634, 74.92157168792333 16.68650566884811 M75.98400292646164 16.444012671663497 C75.74479456455084 16.498610419289193, 75.50558620264005 16.55320816691489, 74.92157168792333 16.68650566884811 M74.92157168792333 16.68650566884811 C74.53694539669151 16.748689064793034, 74.15231910545967 16.81087246073796, 73.84578674863661 16.86043023499518 M74.92157168792333 16.68650566884811 C74.4999777346669 16.754665709700674, 74.07838378141045 16.822825750553235, 73.84578674863661 16.86043023499518 M73.84578674863661 16.86043023499518 C73.53818147758035 16.890104545544514, 73.23057620652409 16.91977885609385, 72.76106873967211 16.965071676755716 M73.84578674863661 16.86043023499518 C73.59572753451572 16.88455314664122, 73.34566832039481 16.90867605828726, 72.76106873967211 16.965071676755716 M72.76106873967211 16.965071676755716 C72.4688090373234 16.97444387656104, 72.17654933497468 16.983816076366363, 71.671875 17 M72.76106873967211 16.965071676755716 C72.45307602015757 16.974948403799086, 72.14508330064304 16.98482513084246, 71.671875 17 M71.671875 17 C71.671875 17, 71.671875 17, 71.671875 17 M71.671875 17 C71.671875 17, 71.671875 17, 71.671875 17 M71.671875 17 C42.896159369521925 17, 14.12044373904385 17, -71.671875 17 M71.671875 17 C34.75388167398704 17, -2.164111652025923 17, -71.671875 17 M-71.671875 17 C-72.03285942100197 16.988423932232017, -72.39384384200395 16.976847864464034, -72.76106873967211 16.965071676755716 M-71.671875 17 C-72.03328182745467 16.98841038647924, -72.39468865490934 16.976820772958487, -72.76106873967211 16.965071676755716 M-72.76106873967211 16.965071676755716 C-73.00036584487005 16.941986972814146, -73.23966295006798 16.91890226887258, -73.8457867486366 16.86043023499518 M-72.76106873967211 16.965071676755716 C-73.00244004466519 16.9417868772545, -73.24381134965826 16.91850207775328, -73.8457867486366 16.86043023499518 M-73.8457867486366 16.86043023499518 C-74.23263463621409 16.797887668581826, -74.61948252379159 16.735345102168473, -74.92157168792333 16.68650566884811 M-73.8457867486366 16.86043023499518 C-74.14853350996816 16.811484486459296, -74.45128027129972 16.762538737923407, -74.92157168792333 16.68650566884811 M-74.92157168792333 16.68650566884811 C-75.17862254537815 16.627835488047655, -75.43567340283298 16.569165307247196, -75.98400292646161 16.4440126716635 M-74.92157168792333 16.68650566884811 C-75.25655135625477 16.61004874549808, -75.59153102458623 16.53359182214805, -75.98400292646161 16.4440126716635 M-75.98400292646161 16.4440126716635 C-76.32668847996953 16.34230539817553, -76.66937403347745 16.24059812468756, -77.02871470640154 16.13394769918137 M-75.98400292646161 16.4440126716635 C-76.23695385475973 16.368938163911135, -76.48990478305785 16.293863656158774, -77.02871470640154 16.13394769918137 M-77.02871470640154 16.13394769918137 C-77.25945229187134 16.049034134813624, -77.49018987734115 15.964120570445878, -78.05141408294936 15.757584874882369 M-77.02871470640154 16.13394769918137 C-77.24516485581222 16.05429204335499, -77.46161500522291 15.974636387528612, -78.05141408294936 15.757584874882369 M-78.05141408294936 15.757584874882369 C-78.42211769010858 15.593485384524786, -78.79282129726778 15.429385894167206, -79.04789856499849 15.316470754341127 M-78.05141408294936 15.757584874882369 C-78.35501607382339 15.62318927955551, -78.65861806469744 15.48879368422865, -79.04789856499849 15.316470754341127 M-79.04789856499849 15.316470754341127 C-79.31657713833927 15.176301314726082, -79.58525571168005 15.036131875111037, -80.01407338406693 14.812417970097624 M-79.04789856499849 15.316470754341127 C-79.3038339556381 15.182949424978881, -79.55976934627772 15.049428095616635, -80.01407338406693 14.812417970097624 M-80.01407338406693 14.812417970097624 C-80.37248163728898 14.595148780753727, -80.73088989051105 14.37787959140983, -80.94596832057931 14.247497783161299 M-80.01407338406693 14.812417970097624 C-80.23838608788377 14.67643829083609, -80.4626987917006 14.540458611574557, -80.94596832057931 14.247497783161299 M-80.94596832057931 14.247497783161299 C-81.25066975341309 14.03495125392889, -81.55537118624687 13.822404724696481, -81.83975401835067 13.624031571755264 M-80.94596832057931 14.247497783161299 C-81.14321260951813 14.109908705765232, -81.34045689845695 13.972319628369164, -81.83975401835067 13.624031571755264 M-81.83975401835067 13.624031571755264 C-82.10139205230651 13.415382202155978, -82.36303008626234 13.206732832556694, -82.6917577202324 12.94458129227529 M-81.83975401835067 13.624031571755264 C-82.03308917768895 13.469851927047648, -82.22642433702723 13.315672282340032, -82.6917577202324 12.94458129227529 M-82.6917577202324 12.94458129227529 C-82.9859320633874 12.677419937248517, -83.2801064065424 12.410258582221747, -83.49847836025926 12.211938951661377 M-82.6917577202324 12.94458129227529 C-82.89530335236357 12.759726534696068, -83.09884898449474 12.574871777116847, -83.49847836025926 12.211938951661377 M-83.49847836025926 12.211938951661377 C-83.66074193697726 12.04438848661263, -83.82300551369526 11.876838021563882, -84.25660095028036 11.429115134442386 M-83.49847836025926 12.211938951661377 C-83.73293142398244 11.969846914412681, -83.96738448770562 11.727754877163985, -84.25660095028036 11.429115134442386 M-84.25660095028036 11.429115134442386 C-84.48831153563016 11.1569346961847, -84.72002212097996 10.884754257927018, -84.96301020195651 10.599326631598473 M-84.25660095028036 11.429115134442386 C-84.50217527089292 11.140649563876172, -84.7477495915055 10.852183993309959, -84.96301020195651 10.599326631598473 M-84.96301020195651 10.599326631598473 C-85.15937069018875 10.336221466175752, -85.35573117842098 10.073116300753034, -85.61480332814824 9.72598322207689 M-84.96301020195651 10.599326631598473 C-85.14633836821332 10.35368359035386, -85.32966653447015 10.108040549109248, -85.61480332814824 9.72598322207689 M-85.61480332814824 9.72598322207689 C-85.79811442674855 9.444368148704566, -85.98142552534885 9.162753075332242, -86.20930197109088 8.812673661278936 M-85.61480332814824 9.72598322207689 C-85.8489767602611 9.366229945980391, -86.08315019237394 9.006476669883895, -86.20930197109088 8.812673661278936 M-86.20930197109088 8.812673661278936 C-86.41288344680801 8.451194136283364, -86.61646492252514 8.089714611287793, -86.744063208341 7.863150934094201 M-86.20930197109088 8.812673661278936 C-86.34336727826316 8.574627132810125, -86.47743258543544 8.336580604341316, -86.744063208341 7.863150934094201 M-86.744063208341 7.863150934094201 C-86.89760199383683 7.5443243608084005, -87.05114077933264 7.2254977875226, -87.21688959126881 6.881316833080701 M-86.744063208341 7.863150934094201 C-86.88061628306187 7.579595552668575, -87.01716935778273 7.296040171242949, -87.21688959126881 6.881316833080701 M-87.21688959126881 6.881316833080701 C-87.36432377526341 6.517151548167998, -87.51175795925802 6.152986263255295, -87.62583817484592 5.87120592516224 M-87.21688959126881 6.881316833080701 C-87.36391055547078 6.5181722090448595, -87.51093151967275 6.155027585009018, -87.62583817484592 5.87120592516224 M-87.62583817484592 5.87120592516224 C-87.7443349244875 5.514312595134902, -87.8628316741291 5.157419265107563, -87.96922850162323 4.8369689727275516 M-87.62583817484592 5.87120592516224 C-87.69579605559424 5.660503934622925, -87.76575393634255 5.449801944083609, -87.96922850162323 4.8369689727275516 M-87.96922850162323 4.8369689727275516 C-88.05218619587505 4.52061533045326, -88.13514389012687 4.204261688178968, -88.245649507091 3.782855877257349 M-87.96922850162323 4.8369689727275516 C-88.04883756253655 4.533385120679849, -88.12844662344985 4.229801268632147, -88.245649507091 3.782855877257349 M-88.245649507091 3.782855877257349 C-88.31189982606378 3.442674491342035, -88.37815014503654 3.1024931054267206, -88.45396531804565 2.713198215567455 M-88.245649507091 3.782855877257349 C-88.31848289491212 3.4088718241378646, -88.39131628273324 3.03488777101838, -88.45396531804565 2.713198215567455 M-88.45396531804565 2.713198215567455 C-88.50762870429647 2.2969955888402884, -88.5612920905473 1.880792962113122, -88.59331992013637 1.6323914404306026 M-88.45396531804565 2.713198215567455 C-88.48916542506359 2.4401931365836718, -88.52436553208152 2.167188057599888, -88.59331992013637 1.6323914404306026 M-88.59331992013637 1.6323914404306026 C-88.61085901709704 1.3592058479637992, -88.62839811405772 1.086020255496996, -88.6631406754117 0.54487681871814 M-88.59331992013637 1.6323914404306026 C-88.60743484129428 1.41254015003681, -88.62154976245219 1.1926888596430174, -88.6631406754117 0.54487681871814 M-88.6631406754117 0.54487681871814 C-88.6631406754117 0.30238156725001397, -88.6631406754117 0.05988631578188791, -88.6631406754117 -0.5448768187181317 M-88.6631406754117 0.54487681871814 C-88.6631406754117 0.2491801412045787, -88.6631406754117 -0.04651653630898256, -88.6631406754117 -0.5448768187181317 M-88.6631406754117 -0.5448768187181317 C-88.63521895509383 -0.9797801506758006, -88.60729723477597 -1.4146834826334698, -88.59331992013637 -1.6323914404305793 M-88.6631406754117 -0.5448768187181317 C-88.63983447009166 -0.9078897790081009, -88.61652826477162 -1.27090273929807, -88.59331992013637 -1.6323914404305793 M-88.59331992013637 -1.6323914404305793 C-88.54604335519167 -1.999059142327976, -88.49876679024696 -2.3657268442253727, -88.45396531804565 -2.713198215567447 M-88.59331992013637 -1.6323914404305793 C-88.55708627910309 -1.9134124051429613, -88.52085263806981 -2.1944333698553433, -88.45396531804565 -2.713198215567447 M-88.45396531804565 -2.713198215567447 C-88.38281133924413 -3.078558858314537, -88.3116573604426 -3.4439195010616275, -88.245649507091 -3.782855877257341 M-88.45396531804565 -2.713198215567447 C-88.37607892942115 -3.113128359860172, -88.29819254079666 -3.5130585041528968, -88.245649507091 -3.782855877257341 M-88.245649507091 -3.782855877257341 C-88.15653088650623 -4.122703801801576, -88.06741226592145 -4.46255172634581, -87.96922850162323 -4.836968972727544 M-88.245649507091 -3.782855877257341 C-88.17818014711189 -4.040145788263269, -88.11071078713279 -4.297435699269196, -87.96922850162323 -4.836968972727544 M-87.96922850162323 -4.836968972727544 C-87.8386774969108 -5.230167798443536, -87.70812649219839 -5.6233666241595275, -87.62583817484594 -5.871205925162218 M-87.96922850162323 -4.836968972727544 C-87.86333462256245 -5.1559044645602405, -87.75744074350168 -5.474839956392937, -87.62583817484594 -5.871205925162218 M-87.62583817484594 -5.871205925162218 C-87.51996104233943 -6.13272448944838, -87.41408390983293 -6.394243053734543, -87.21688959126881 -6.881316833080692 M-87.62583817484594 -5.871205925162218 C-87.51975440137294 -6.13323489663076, -87.41367062789993 -6.395263868099301, -87.21688959126881 -6.881316833080692 M-87.21688959126881 -6.881316833080692 C-87.03659560598238 -7.25570115120126, -86.85630162069596 -7.630085469321827, -86.744063208341 -7.863150934094194 M-87.21688959126881 -6.881316833080692 C-87.11083124500915 -7.101549258373943, -87.00477289874951 -7.321781683667194, -86.744063208341 -7.863150934094194 M-86.744063208341 -7.863150934094194 C-86.62045606585116 -8.082627932165336, -86.49684892336133 -8.302104930236476, -86.20930197109088 -8.812673661278929 M-86.744063208341 -7.863150934094194 C-86.58281889426424 -8.149456541494814, -86.42157458018747 -8.435762148895435, -86.20930197109088 -8.812673661278929 M-86.20930197109088 -8.812673661278929 C-86.03656742618142 -9.078040307979794, -85.86383288127195 -9.343406954680662, -85.61480332814826 -9.725983222076884 M-86.20930197109088 -8.812673661278929 C-85.97426157590122 -9.173758825473598, -85.73922118071157 -9.53484398966827, -85.61480332814826 -9.725983222076884 M-85.61480332814826 -9.725983222076884 C-85.42890696455255 -9.975067413787999, -85.24301060095685 -10.224151605499113, -84.96301020195651 -10.599326631598467 M-85.61480332814826 -9.725983222076884 C-85.38023344628317 -10.040285494020237, -85.14566356441809 -10.35458776596359, -84.96301020195651 -10.599326631598467 M-84.96301020195651 -10.599326631598467 C-84.71508440839105 -10.890554376097755, -84.46715861482559 -11.181782120597045, -84.25660095028037 -11.42911513444238 M-84.96301020195651 -10.599326631598467 C-84.74624124205106 -10.853955786406647, -84.52947228214562 -11.108584941214827, -84.25660095028037 -11.42911513444238 M-84.25660095028037 -11.42911513444238 C-84.0144920541481 -11.679112447208988, -83.77238315801584 -11.929109759975594, -83.49847836025927 -12.21193895166136 M-84.25660095028037 -11.42911513444238 C-83.96609015425084 -11.729091382722805, -83.6755793582213 -12.02906763100323, -83.49847836025927 -12.21193895166136 M-83.49847836025927 -12.21193895166136 C-83.26043065898209 -12.428127575564268, -83.02238295770489 -12.644316199467179, -82.69175772023242 -12.944581292275274 M-83.49847836025927 -12.21193895166136 C-83.31920906971341 -12.374746578129608, -83.13993977916753 -12.537554204597855, -82.69175772023242 -12.944581292275274 M-82.69175772023242 -12.944581292275274 C-82.4323042871996 -13.151488500773127, -82.17285085416678 -13.35839570927098, -81.83975401835067 -13.624031571755259 M-82.69175772023242 -12.944581292275274 C-82.42257821039522 -13.15924478820285, -82.15339870055801 -13.373908284130428, -81.83975401835067 -13.624031571755259 M-81.83975401835067 -13.624031571755259 C-81.53009770899583 -13.840034408355613, -81.22044139964099 -14.056037244955968, -80.94596832057934 -14.247497783161284 M-81.83975401835067 -13.624031571755259 C-81.64692299173649 -13.758542148400712, -81.4540919651223 -13.893052725046166, -80.94596832057934 -14.247497783161284 M-80.94596832057934 -14.247497783161284 C-80.61783207297144 -14.446415904803827, -80.28969582536354 -14.64533402644637, -80.01407338406695 -14.812417970097618 M-80.94596832057934 -14.247497783161284 C-80.64134243422846 -14.432163785647598, -80.3367165478776 -14.616829788133911, -80.01407338406695 -14.812417970097618 M-80.01407338406695 -14.812417970097618 C-79.77990123184046 -14.934585431919759, -79.54572907961396 -15.056752893741898, -79.04789856499849 -15.316470754341124 M-80.01407338406695 -14.812417970097618 C-79.75416952445406 -14.948009647181292, -79.49426566484118 -15.083601324264967, -79.04789856499849 -15.316470754341124 M-79.04789856499849 -15.316470754341124 C-78.69166270818981 -15.474165800789093, -78.33542685138113 -15.63186084723706, -78.05141408294936 -15.757584874882365 M-79.04789856499849 -15.316470754341124 C-78.67618623080902 -15.481016778232178, -78.30447389661956 -15.645562802123234, -78.05141408294936 -15.757584874882365 M-78.05141408294936 -15.757584874882365 C-77.83690316215173 -15.836526876653112, -77.62239224135408 -15.91546887842386, -77.02871470640156 -16.133947699181363 M-78.05141408294936 -15.757584874882365 C-77.75257744790193 -15.867559518995394, -77.45374081285449 -15.977534163108423, -77.02871470640156 -16.133947699181363 M-77.02871470640156 -16.133947699181363 C-76.65796952108866 -16.24398292410104, -76.28722433577578 -16.354018149020717, -75.98400292646164 -16.444012671663494 M-77.02871470640156 -16.133947699181363 C-76.77919352922757 -16.208004274803216, -76.5296723520536 -16.28206085042507, -75.98400292646164 -16.444012671663494 M-75.98400292646164 -16.444012671663494 C-75.74533558481782 -16.49848693494374, -75.50666824317399 -16.55296119822399, -74.92157168792333 -16.68650566884811 M-75.98400292646164 -16.444012671663494 C-75.64496349547541 -16.521396209347053, -75.30592406448918 -16.59877974703061, -74.92157168792333 -16.68650566884811 M-74.92157168792333 -16.68650566884811 C-74.53029232166502 -16.74976468236795, -74.1390129554067 -16.81302369588779, -73.84578674863661 -16.86043023499518 M-74.92157168792333 -16.68650566884811 C-74.60457971841461 -16.73775447216884, -74.28758774890589 -16.789003275489573, -73.84578674863661 -16.86043023499518 M-73.84578674863661 -16.86043023499518 C-73.5504380961986 -16.888922164287152, -73.25508944376061 -16.917414093579122, -72.76106873967213 -16.965071676755716 M-73.84578674863661 -16.86043023499518 C-73.55806242114264 -16.888186654829394, -73.27033809364866 -16.91594307466361, -72.76106873967213 -16.965071676755716 M-72.76106873967213 -16.965071676755716 C-72.52209827453785 -16.97273499444478, -72.28312780940358 -16.980398312133843, -71.671875 -17 M-72.76106873967213 -16.965071676755716 C-72.41712955429114 -16.976101136993872, -72.07319036891015 -16.987130597232028, -71.671875 -17 M-71.671875 -17 C-71.671875 -17, -71.671875 -17, -71.671875 -17 M-71.671875 -17 C-71.671875 -17, -71.671875 -17, -71.671875 -17" stroke="#9370DB" stroke-width="1.3" fill="none" stroke-dasharray="0 0" style=""></path></g><g class="label" style="" transform="translate(0, -9.5)"><rect></rect><g><rect class="background" style="stroke: none"></rect><text y="-10.1" style=""><tspan class="text-outer-tspan row" x="0" y="-0.1em" dy="1.1em"><tspan font-style="normal" class="text-inner-tspan" font-weight="normal">Stacking</tspan><tspan font-style="normal" class="text-inner-tspan" font-weight="normal"> context</tspan><tspan font-style="normal" class="text-inner-tspan" font-weight="normal"> root</tspan></tspan></text></g></g></g></g></g></g><defs><filter id="gc83a883b-1890-485e-8092-54e045a829a6-light-drop-shadow" height="130%" width="130%"><feDropShadow dx="4" dy="4" stdDeviation="0" flood-opacity="0.06" flood-color="#000000"></feDropShadow></filter></defs><defs><filter id="gc83a883b-1890-485e-8092-54e045a829a6-light-drop-shadow-small" height="150%" width="150%"><feDropShadow dx="2" dy="2" stdDeviation="0" flood-opacity="0.06" flood-color="#000000"></feDropShadow></filter></defs></svg>