<svg id="g9309903e-11d5-4a90-9fe0-c0361d27c938-light" width="100%" xmlns="http://www.w3.org/2000/svg" xmlns:xlink="http://www.w3.org/1999/xlink" class="flowchart" style="max-width: 1080.9508056640625px;" viewBox="0.5 0 1080.9508056640625 1320.1468505859375" role="graphics-document document" aria-roledescription="flowchart-v2"><style>#g9309903e-11d5-4a90-9fe0-c0361d27c938-light{font-family:"trebuchet ms",verdana,arial,sans-serif;font-size:16px;fill:#333;}@keyframes edge-animation-frame{from{stroke-dashoffset:0;}}@keyframes dash{to{stroke-dashoffset:0;}}#g9309903e-11d5-4a90-9fe0-c0361d27c938-light .edge-animation-slow{stroke-dasharray:9,5!important;stroke-dashoffset:900;animation:dash 50s linear infinite;stroke-linecap:round;}#g9309903e-11d5-4a90-9fe0-c0361d27c938-light .edge-animation-fast{stroke-dasharray:9,5!important;stroke-dashoffset:900;animation:dash 20s linear infinite;stroke-linecap:round;}#g9309903e-11d5-4a90-9fe0-c0361d27c938-light .error-icon{fill:#552222;}#g9309903e-11d5-4a90-9fe0-c0361d27c938-light .error-text{fill:#552222;stroke:#552222;}#g9309903e-11d5-4a90-9fe0-c0361d27c938-light .edge-thickness-normal{stroke-width:1px;}#g9309903e-11d5-4a90-9fe0-c0361d27c938-light .edge-thickness-thick{stroke-width:3.5px;}#g9309903e-11d5-4a90-9fe0-c0361d27c938-light .edge-pattern-solid{stroke-dasharray:0;}#g9309903e-11d5-4a90-9fe0-c0361d27c938-light .edge-thickness-invisible{stroke-width:0;fill:none;}#g9309903e-11d5-4a90-9fe0-c0361d27c938-light .edge-pattern-dashed{stroke-dasharray:3;}#g9309903e-11d5-4a90-9fe0-c0361d27c938-light .edge-pattern-dotted{stroke-dasharray:2;}#g9309903e-11d5-4a90-9fe0-c0361d27c938-light .marker{fill:#333333;stroke:#333333;}#g9309903e-11d5-4a90-9fe0-c0361d27c938-light .marker.cross{stroke:#333333;}#g9309903e-11d5-4a90-9fe0-c0361d27c938-light svg{font-family:"trebuchet ms",verdana,arial,sans-serif;font-size:16px;}#g9309903e-11d5-4a90-9fe0-c0361d27c938-light p{margin:0;}#g9309903e-11d5-4a90-9fe0-c0361d27c938-light .label{font-family:"trebuchet ms",verdana,arial,sans-serif;color:#333;}#g9309903e-11d5-4a90-9fe0-c0361d27c938-light .cluster-label text{fill:#333;}#g9309903e-11d5-4a90-9fe0-c0361d27c938-light .cluster-label span{color:#333;}#g9309903e-11d5-4a90-9fe0-c0361d27c938-light .cluster-label span p{background-color:transparent;}#g9309903e-11d5-4a90-9fe0-c0361d27c938-light .label text,#g9309903e-11d5-4a90-9fe0-c0361d27c938-light span{fill:#333;color:#333;}#g9309903e-11d5-4a90-9fe0-c0361d27c938-light .node rect,#g9309903e-11d5-4a90-9fe0-c0361d27c938-light .node circle,#g9309903e-11d5-4a90-9fe0-c0361d27c938-light .node ellipse,#g9309903e-11d5-4a90-9fe0-c0361d27c938-light .node polygon,#g9309903e-11d5-4a90-9fe0-c0361d27c938-light .node path{fill:#ECECFF;stroke:#9370DB;stroke-width:1px;}#g9309903e-11d5-4a90-9fe0-c0361d27c938-light .rough-node .label text,#g9309903e-11d5-4a90-9fe0-c0361d27c938-light .node .label text,#g9309903e-11d5-4a90-9fe0-c0361d27c938-light .image-shape .label,#g9309903e-11d5-4a90-9fe0-c0361d27c938-light .icon-shape .label{text-anchor:middle;}#g9309903e-11d5-4a90-9fe0-c0361d27c938-light .node .katex path{fill:#000;stroke:#000;stroke-width:1px;}#g9309903e-11d5-4a90-9fe0-c0361d27c938-light .rough-node .label,#g9309903e-11d5-4a90-9fe0-c0361d27c938-light .node .label,#g9309903e-11d5-4a90-9fe0-c0361d27c938-light .image-shape .label,#g9309903e-11d5-4a90-9fe0-c0361d27c938-light .icon-shape .label{text-align:center;}#g9309903e-11d5-4a90-9fe0-c0361d27c938-light .node.clickable{cursor:pointer;}#g9309903e-11d5-4a90-9fe0-c0361d27c938-light .root .anchor path{fill:#333333!important;stroke-width:0;stroke:#333333;}#g9309903e-11d5-4a90-9fe0-c0361d27c938-light .arrowheadPath{fill:#333333;}#g9309903e-11d5-4a90-9fe0-c0361d27c938-light .edgePath .path{stroke:#333333;stroke-width:1px;}#g9309903e-11d5-4a90-9fe0-c0361d27c938-light .flowchart-link{stroke:#333333;fill:none;}#g9309903e-11d5-4a90-9fe0-c0361d27c938-light .edgeLabel{background-color:rgba(232,232,232, 0.8);text-align:center;}#g9309903e-11d5-4a90-9fe0-c0361d27c938-light .edgeLabel p{background-color:rgba(232,232,232, 0.8);}#g9309903e-11d5-4a90-9fe0-c0361d27c938-light .edgeLabel rect{opacity:0.5;background-color:rgba(232,232,232, 0.8);fill:rgba(232,232,232, 0.8);}#g9309903e-11d5-4a90-9fe0-c0361d27c938-light .labelBkg{background-color:rgba(232, 232, 232, 0.5);}#g9309903e-11d5-4a90-9fe0-c0361d27c938-light .cluster rect{fill:#ffffde;stroke:#aaaa33;stroke-width:1px;}#g9309903e-11d5-4a90-9fe0-c0361d27c938-light .cluster text{fill:#333;}#g9309903e-11d5-4a90-9fe0-c0361d27c938-light .cluster span{color:#333;}#g9309903e-11d5-4a90-9fe0-c0361d27c938-light div.mermaidTooltip{position:absolute;text-align:center;max-width:200px;padding:2px;font-family:"trebuchet ms",verdana,arial,sans-serif;font-size:12px;background:hsl(80, 100%, 96.2745098039%);border:1px solid #aaaa33;border-radius:2px;pointer-events:none;z-index:100;}#g9309903e-11d5-4a90-9fe0-c0361d27c938-light .flowchartTitleText{text-anchor:middle;font-size:18px;fill:#333;}#g9309903e-11d5-4a90-9fe0-c0361d27c938-light rect.text{fill:none;stroke-width:0;}#g9309903e-11d5-4a90-9fe0-c0361d27c938-light .icon-shape,#g9309903e-11d5-4a90-9fe0-c0361d27c938-light .image-shape{background-color:rgba(232,232,232, 0.8);text-align:center;}#g9309903e-11d5-4a90-9fe0-c0361d27c938-light .icon-shape p,#g9309903e-11d5-4a90-9fe0-c0361d27c938-light .image-shape p{background-color:rgba(232,232,232, 0.8);padding:2px;}#g9309903e-11d5-4a90-9fe0-c0361d27c938-light .icon-shape .label rect,#g9309903e-11d5-4a90-9fe0-c0361d27c938-light .image-shape .label rect{opacity:0.5;background-color:rgba(232,232,232, 0.8);fill:rgba(232,232,232, 0.8);}#g9309903e-11d5-4a90-9fe0-c0361d27c938-light .label-icon{display:inline-block;height:1em;overflow:visible;vertical-align:-0.125em;}#g9309903e-11d5-4a90-9fe0-c0361d27c938-light .node .label-icon path{fill:currentColor;stroke:revert;stroke-width:revert;}#g9309903e-11d5-4a90-9fe0-c0361d27c938-light .node .neo-node{stroke:#9370DB;}#g9309903e-11d5-4a90-9fe0-c0361d27c938-light [data-look="neo"].node rect,#g9309903e-11d5-4a90-9fe0-c0361d27c938-light [data-look="neo"].cluster rect,#g9309903e-11d5-4a90-9fe0-c0361d27c938-light [data-look="neo"].node polygon{stroke:#9370DB;filter:drop-shadow(1px 2px 2px rgba(185, 185, 185, 1));}#g9309903e-11d5-4a90-9fe0-c0361d27c938-light [data-look="neo"].node path{stroke:#9370DB;stroke-width:1px;}#g9309903e-11d5-4a90-9fe0-c0361d27c938-light [data-look="neo"].node .outer-path{filter:drop-shadow(1px 2px 2px rgba(185, 185, 185, 1));}#g9309903e-11d5-4a90-9fe0-c0361d27c938-light [data-look="neo"].node .neo-line path{stroke:#9370DB;filter:none;}#g9309903e-11d5-4a90-9fe0-c0361d27c938-light [data-look="neo"].node circle{stroke:#9370DB;filter:drop-shadow(1px 2px 2px rgba(185, 185, 185, 1));}#g9309903e-11d5-4a90-9fe0-c0361d27c938-light [data-look="neo"].node circle .state-start{fill:#000000;}#g9309903e-11d5-4a90-9fe0-c0361d27c938-light [data-look="neo"].icon-shape .icon{fill:#9370DB;filter:drop-shadow(1px 2px 2px rgba(185, 185, 185, 1));}#g9309903e-11d5-4a90-9fe0-c0361d27c938-light [data-look="neo"].icon-shape .icon-neo path{stroke:#9370DB;filter:drop-shadow(1px 2px 2px rgba(185, 185, 185, 1));}#g9309903e-11d5-4a90-9fe0-c0361d27c938-light :root{--mermaid-font-family:"trebuchet ms",verdana,arial,sans-serif;}</style><g><marker id="g9309903e-11d5-4a90-9fe0-c0361d27c938-light_flowchart-v2-pointEnd" class="marker flowchart-v2" viewBox="0 0 10 10" refX="5" refY="5" markerUnits="userSpaceOnUse" markerWidth="8" markerHeight="8" orient="auto"><path d="M 0 0 L 10 5 L 0 10 z" class="arrowMarkerPath" style="stroke-width: 1; stroke-dasharray: 1, 0;"></path></marker><marker id="g9309903e-11d5-4a90-9fe0-c0361d27c938-light_flowchart-v2-pointStart" class="marker flowchart-v2" viewBox="0 0 10 10" refX="4.5" refY="5" markerUnits="userSpaceOnUse" markerWidth="8" markerHeight="8" orient="auto"><path d="M 0 5 L 10 10 L 10 0 z" class="arrowMarkerPath" style="stroke-width: 1; stroke-dasharray: 1, 0;"></path></marker><marker id="g9309903e-11d5-4a90-9fe0-c0361d27c938-light_flowchart-v2-pointEnd-margin" class="marker flowchart-v2" viewBox="0 0 11.5 14" refX="11.5" refY="7" markerUnits="userSpaceOnUse" markerWidth="10.5" markerHeight="14" orient="auto"><path d="M 0 0 L 11.5 7 L 0 14 z" class="arrowMarkerPath" style="stroke-width: 0; stroke-dasharray: 1, 0;"></path></marker><marker id="g9309903e-11d5-4a90-9fe0-c0361d27c938-light_flowchart-v2-pointStart-margin" class="marker flowchart-v2" viewBox="0 0 11.5 14" refX="1" refY="7" markerUnits="userSpaceOnUse" markerWidth="11.5" markerHeight="14" orient="auto"><polygon points="0,7 11.5,14 11.5,0" class="arrowMarkerPath" style="stroke-width: 0; stroke-dasharray: 1, 0;"></polygon></marker><marker id="g9309903e-11d5-4a90-9fe0-c0361d27c938-light_flowchart-v2-circleEnd" class="marker flowchart-v2" viewBox="0 0 10 10" refX="11" refY="5" markerUnits="userSpaceOnUse" markerWidth="11" markerHeight="11" orient="auto"><circle cx="5" cy="5" r="5" class="arrowMarkerPath" style="stroke-width: 1; stroke-dasharray: 1, 0;"></circle></marker><marker id="g9309903e-11d5-4a90-9fe0-c0361d27c938-light_flowchart-v2-circleStart" class="marker flowchart-v2" viewBox="0 0 10 10" refX="-1" refY="5" markerUnits="userSpaceOnUse" markerWidth="11" markerHeight="11" orient="auto"><circle cx="5" cy="5" r="5" class="arrowMarkerPath" style="stroke-width: 1; stroke-dasharray: 1, 0;"></circle></marker><marker id="g9309903e-11d5-4a90-9fe0-c0361d27c938-light_flowchart-v2-circleEnd-margin" class="marker flowchart-v2" viewBox="0 0 10 10" refY="5" refX="12.25" markerUnits="userSpaceOnUse" markerWidth="14" markerHeight="14" orient="auto"><circle cx="5" cy="5" r="5" class="arrowMarkerPath" style="stroke-width: 0; stroke-dasharray: 1, 0;"></circle></marker><marker id="g9309903e-11d5-4a90-9fe0-c0361d27c938-light_flowchart-v2-circleStart-margin" class="marker flowchart-v2" viewBox="0 0 10 10" refX="-2" refY="5" markerUnits="userSpaceOnUse" markerWidth="14" markerHeight="14" orient="auto"><circle cx="5" cy="5" r="5" class="arrowMarkerPath" style="stroke-width: 0; stroke-dasharray: 1, 0;"></circle></marker><marker id="g9309903e-11d5-4a90-9fe0-c0361d27c938-light_flowchart-v2-crossEnd" class="marker cross flowchart-v2" viewBox="0 0 11 11" refX="12" refY="5.2" markerUnits="userSpaceOnUse" markerWidth="11" markerHeight="11" orient="auto"><path d="M 1,1 l 9,9 M 10,1 l -9,9" class="arrowMarkerPath" style="stroke-width: 2; stroke-dasharray: 1, 0;"></path></marker><marker id="g9309903e-11d5-4a90-9fe0-c0361d27c938-light_flowchart-v2-crossStart" class="marker cross flowchart-v2" viewBox="0 0 11 11" refX="-1" refY="5.2" markerUnits="userSpaceOnUse" markerWidth="11" markerHeight="11" orient="auto"><path d="M 1,1 l 9,9 M 10,1 l -9,9" class="arrowMarkerPath" style="stroke-width: 2; stroke-dasharray: 1, 0;"></path></marker><marker id="g9309903e-11d5-4a90-9fe0-c0361d27c938-light_flowchart-v2-crossEnd-margin" class="marker cross flowchart-v2" viewBox="0 0 15 15" refX="17.7" refY="7.5" markerUnits="userSpaceOnUse" markerWidth="12" markerHeight="12" orient="auto"><path d="M 1,1 L 14,14 M 1,14 L 14,1" class="arrowMarkerPath" style="stroke-width: 2.5;"></path></marker><marker id="g9309903e-11d5-4a90-9fe0-c0361d27c938-light_flowchart-v2-crossStart-margin" class="marker cross flowchart-v2" viewBox="0 0 15 15" refX="-3.5" refY="7.5" markerUnits="userSpaceOnUse" markerWidth="12" markerHeight="12" orient="auto"><path d="M 1,1 L 14,14 M 1,14 L 14,1" class="arrowMarkerPath" style="stroke-width: 2.5; stroke-dasharray: 1, 0;"></path></marker><g class="root"><g class="clusters"></g><g class="edgePaths"><path d="M402.35,42.5L402.267,46.583C402.183,50.667,402.017,58.833,401.933,66.417C401.85,74,401.85,81,401.85,84.5L401.85,88" id="g9309903e-11d5-4a90-9fe0-c0361d27c938-light-L_Start_Q1_0" class="edge-thickness-normal edge-pattern-solid edge-thickness-normal edge-pattern-solid flowchart-link" style=";" data-edge="true" data-et="edge" data-id="L_Start_Q1_0" data-points="W3sieCI6NDAyLjM1MDAwMjI4ODgxODM2LCJ5Ijo0Mi41fSx7IngiOjQwMS44NTAwMDIyODg4MTgzNiwieSI6Njd9LHsieCI6NDAxLjg1MDAwMjI4ODgxODM2LCJ5Ijo5MS45OTk5OTk5OTk5OTk5N31d" data-look="classic" marker-end="url(#g9309903e-11d5-4a90-9fe0-c0361d27c938-light_flowchart-v2-pointEnd)"></path><path d="M350.321,228.18L332.459,242.852C314.597,257.523,278.873,286.866,261.011,306.954C243.149,327.043,243.149,337.876,243.149,343.293L243.149,348.709" id="g9309903e-11d5-4a90-9fe0-c0361d27c938-light-L_Q1_Q2_0" class="edge-thickness-normal edge-pattern-solid edge-thickness-normal edge-pattern-solid flowchart-link" style=";" data-edge="true" data-et="edge" data-id="L_Q1_Q2_0" data-points="W3sieCI6MzUwLjMyMDc1MTg0MDIxNTUsInkiOjIyOC4xODAxMTUzOTYxMjM2OH0seyJ4IjoyNDMuMTQ5MjIzMzI3NjM2NzIsInkiOjMxNi4yMDkzNjU4NDQ3MjY1Nn0seyJ4IjoyNDMuMTQ5MjIzMzI3NjM2NzIsInkiOjM1Mi43MDkzNjU4NDQ3MjY1Nn1d" data-look="classic" marker-end="url(#g9309903e-11d5-4a90-9fe0-c0361d27c938-light_flowchart-v2-pointEnd)"></path><path d="M464.074,217.485L496.442,233.939C528.81,250.393,593.547,283.301,625.915,323.704C658.283,364.106,658.283,412.003,658.283,459.9C658.283,507.797,658.283,555.694,658.283,587.397C658.283,619.101,658.283,634.611,658.283,642.367L658.283,650.122" id="g9309903e-11d5-4a90-9fe0-c0361d27c938-light-L_Q1_Q3_0" class="edge-thickness-normal edge-pattern-solid edge-thickness-normal edge-pattern-solid flowchart-link" style=";" data-edge="true" data-et="edge" data-id="L_Q1_Q3_0" data-points="W3sieCI6NDY0LjA3Mzg4NjY5NDE5NjYzLCJ5IjoyMTcuNDg1NDgxNDM5MzQ4NH0seyJ4Ijo2NTguMjgyODE3ODQwNTc2MiwieSI6MzE2LjIwOTM2NTg0NDcyNjU2fSx7IngiOjY1OC4yODI4MTc4NDA1NzYyLCJ5Ijo0NTkuODk5OTg2MjY3MDg5ODR9LHsieCI6NjU4LjI4MjgxNzg0MDU3NjIsInkiOjYwMy41OTA2MDY2ODk0NTMxfSx7IngiOjY1OC4yODI4MTc4NDA1NzYyLCJ5Ijo2NTQuMTIxODU2Njg5NDUzMX1d" data-look="classic" marker-end="url(#g9309903e-11d5-4a90-9fe0-c0361d27c938-light_flowchart-v2-pointEnd)"></path><path d="M294.416,515.824L307.825,530.452C321.235,545.079,348.054,574.335,361.464,603.134C374.873,631.932,374.873,660.274,374.873,674.445L374.873,688.616" id="g9309903e-11d5-4a90-9fe0-c0361d27c938-light-L_Q2_GQL_0" class="edge-thickness-normal edge-pattern-solid edge-thickness-normal edge-pattern-solid flowchart-link" style=";" data-edge="true" data-et="edge" data-id="L_Q2_GQL_0" data-points="W3sieCI6Mjk0LjQxNTg5MDIyMjY2MywieSI6NTE1LjgyMzkzOTc5NDQyNjl9LHsieCI6Mzc0Ljg3MzQ0MzYwMzUxNTYsInkiOjYwMy41OTA2MDY2ODk0NTMxfSx7IngiOjM3NC44NzM0NDM2MDM1MTU2LCJ5Ijo2OTIuNjE1NjA4MjE1MzMyfV0=" data-look="classic" marker-end="url(#g9309903e-11d5-4a90-9fe0-c0361d27c938-light_flowchart-v2-pointEnd)"></path><path d="M191.883,515.824L178.473,530.452C165.063,545.079,138.244,574.335,124.835,594.379C111.425,614.424,111.425,625.257,111.425,630.674L111.425,636.091" id="g9309903e-11d5-4a90-9fe0-c0361d27c938-light-L_Q2_Q4_0" class="edge-thickness-normal edge-pattern-solid edge-thickness-normal edge-pattern-solid flowchart-link" style=";" data-edge="true" data-et="edge" data-id="L_Q2_Q4_0" data-points="W3sieCI6MTkxLjg4MjU1NjQzMjYxMDQ0LCJ5Ijo1MTUuODIzOTM5Nzk0NDI2OH0seyJ4IjoxMTEuNDI1MDAzMDUxNzU3ODEsInkiOjYwMy41OTA2MDY2ODk0NTMxfSx7IngiOjExMS40MjUwMDMwNTE3NTc4MywieSI6NjQwLjA5MDYwNjY4OTQ1MzF9XQ==" data-look="classic" marker-end="url(#g9309903e-11d5-4a90-9fe0-c0361d27c938-light_flowchart-v2-pointEnd)"></path><path d="M105.007,840.522L104.534,847.675C104.06,854.828,103.114,869.135,102.64,901.955C102.167,934.775,102.167,986.109,102.167,1037.444C102.167,1088.778,102.167,1140.112,111.944,1171.525C121.722,1202.938,141.276,1214.429,151.053,1220.175L160.831,1225.92" id="g9309903e-11d5-4a90-9fe0-c0361d27c938-light-L_Q4_REST_0" class="edge-thickness-normal edge-pattern-solid edge-thickness-normal edge-pattern-solid flowchart-link" style=";" data-edge="true" data-et="edge" data-id="L_Q4_REST_0" data-points="W3sieCI6MTA1LjAwNjc3MjgyNDgwMjYxLCJ5Ijo4NDAuNTIyMzgyNTY2MDEzN30seyJ4IjoxMDIuMTY3MTg2NzM3MDYwNTUsInkiOjg4My40NDA2MTI3OTI5Njg4fSx7IngiOjEwMi4xNjcxODY3MzcwNjA1NSwieSI6MTAzNy40NDM3NDA4NDQ3MjY2fSx7IngiOjEwMi4xNjcxODY3MzcwNjA1NSwieSI6MTE5MS40NDY4Njg4OTY0ODQ0fSx7IngiOjE2NC4yNzkzNzI2NDIxMTMsInkiOjEyMjcuOTQ2ODY4ODk2NDg0NH1d" data-look="classic" marker-end="url(#g9309903e-11d5-4a90-9fe0-c0361d27c938-light_flowchart-v2-pointEnd)"></path><path d="M175.393,782.972L202.541,799.717C229.688,816.462,283.982,849.951,311.129,872.113C338.277,894.274,338.277,905.107,338.277,910.524L338.277,915.941" id="g9309903e-11d5-4a90-9fe0-c0361d27c938-light-L_Q4_Q5_0" class="edge-thickness-normal edge-pattern-solid edge-thickness-normal edge-pattern-solid flowchart-link" style=";" data-edge="true" data-et="edge" data-id="L_Q4_Q5_0" data-points="W3sieCI6MTc1LjM5MzQ0MDIzNjYwOTg1LCJ5Ijo3ODIuOTcyMTc1NjA4MTE2OH0seyJ4IjozMzguMjc2NTY5MzY2NDU1MSwieSI6ODgzLjQ0MDYxMjc5Mjk2ODh9LHsieCI6MzM4LjI3NjU2OTM2NjQ1NTEsInkiOjkxOS45NDA2MTI3OTI5Njg4fV0=" data-look="classic" marker-end="url(#g9309903e-11d5-4a90-9fe0-c0361d27c938-light_flowchart-v2-pointEnd)"></path><path d="M417.722,1075.501L458.062,1094.826C498.401,1114.15,579.08,1152.798,619.42,1179.006C659.759,1205.214,659.759,1218.98,659.759,1225.864L659.759,1232.747" id="g9309903e-11d5-4a90-9fe0-c0361d27c938-light-L_Q5_gRPCWeb_0" class="edge-thickness-normal edge-pattern-solid edge-thickness-normal edge-pattern-solid flowchart-link" style=";" data-edge="true" data-et="edge" data-id="L_Q5_gRPCWeb_0" data-points="W3sieCI6NDE3LjcyMjEwNjY2NjA4NzMsInkiOjEwNzUuNTAxMzMxNTk2ODUyMn0seyJ4Ijo2NTkuNzU5MzgwMzQwNTc2MiwieSI6MTE5MS40NDY4Njg4OTY0ODQ0fSx7IngiOjY1OS43NTkzODAzNDA1NzYyLCJ5IjoxMjM2Ljc0Njg2ODEzMzU0NX1d" data-look="classic" marker-end="url(#g9309903e-11d5-4a90-9fe0-c0361d27c938-light_flowchart-v2-pointEnd)"></path><path d="M291.361,1108.032L282.121,1121.934C272.881,1135.837,254.401,1163.642,245.161,1182.961C235.921,1202.28,235.921,1213.114,235.921,1218.53L235.921,1223.947" id="g9309903e-11d5-4a90-9fe0-c0361d27c938-light-L_Q5_REST_0" class="edge-thickness-normal edge-pattern-solid edge-thickness-normal edge-pattern-solid flowchart-link" style=";" data-edge="true" data-et="edge" data-id="L_Q5_REST_0" data-points="W3sieCI6MjkxLjM2MTQ3Mzk4NTgxNzQ0LCJ5IjoxMTA4LjAzMTc3MzUxNTg0Njd9LHsieCI6MjM1LjkyMTA5NjgwMTc1NzgsInkiOjExOTEuNDQ2ODY4ODk2NDg0NH0seyJ4IjoyMzUuOTIxMDk2ODAxNzU3OCwieSI6MTIyNy45NDY4Njg4OTY0ODQ0fV0=" data-look="classic" marker-end="url(#g9309903e-11d5-4a90-9fe0-c0361d27c938-light_flowchart-v2-pointEnd)"></path><path d="M717.263,773.929L752.659,792.181C788.055,810.433,858.847,846.937,894.242,890.856C929.638,934.775,929.638,986.109,929.638,1037.444C929.638,1088.778,929.638,1140.112,930.79,1171.211C931.941,1202.309,934.244,1213.172,935.396,1218.603L936.547,1224.034" id="g9309903e-11d5-4a90-9fe0-c0361d27c938-light-L_Q3_gRPC_0" class="edge-thickness-normal edge-pattern-solid edge-thickness-normal edge-pattern-solid flowchart-link" style=";" data-edge="true" data-et="edge" data-id="L_Q3_gRPC_0" data-points="W3sieCI6NzE3LjI2MzIxMDYwMzcyNjYsInkiOjc3My45Mjg5NzAwMjk4MTgzfSx7IngiOjkyOS42MzgyODY1OTA1NzYyLCJ5Ijo4ODMuNDQwNjEyNzkyOTY4OH0seyJ4Ijo5MjkuNjM4Mjg2NTkwNTc2MiwieSI6MTAzNy40NDM3NDA4NDQ3MjY2fSx7IngiOjkyOS42MzgyODY1OTA1NzYyLCJ5IjoxMTkxLjQ0Njg2ODg5NjQ4NDR9LHsieCI6OTM3LjM3NjY4NzI2NTYxMjYsInkiOjEyMjcuOTQ2ODY4ODk2NDg0NH1d" data-look="classic" marker-end="url(#g9309903e-11d5-4a90-9fe0-c0361d27c938-light_flowchart-v2-pointEnd)"></path><path d="M637.176,811.802L633.485,823.742C629.795,835.682,622.414,859.561,618.723,878.293C615.033,897.024,615.033,910.607,615.033,917.399L615.033,924.191" id="g9309903e-11d5-4a90-9fe0-c0361d27c938-light-L_Q3_Q6_0" class="edge-thickness-normal edge-pattern-solid edge-thickness-normal edge-pattern-solid flowchart-link" style=";" data-edge="true" data-et="edge" data-id="L_Q3_Q6_0" data-points="W3sieCI6NjM3LjE3NTc5MDM4MDA4NzcsInkiOjgxMS44MDIzMzUzMzI0ODAzfSx7IngiOjYxNS4wMzI4MTc4NDA1NzYyLCJ5Ijo4ODMuNDQwNjEyNzkyOTY4OH0seyJ4Ijo2MTUuMDMyODE3ODQwNTc2NiwieSI6OTI4LjE5MDYyMDQyMjM2Mjl9XQ==" data-look="classic" marker-end="url(#g9309903e-11d5-4a90-9fe0-c0361d27c938-light_flowchart-v2-pointEnd)"></path><path d="M690.765,1070.965L736.132,1091.045C781.499,1111.125,872.233,1151.286,916.448,1176.798C960.663,1202.309,958.361,1213.172,957.209,1218.603L956.058,1224.034" id="g9309903e-11d5-4a90-9fe0-c0361d27c938-light-L_Q6_gRPC_0" class="edge-thickness-normal edge-pattern-solid edge-thickness-normal edge-pattern-solid flowchart-link" style=";" data-edge="true" data-et="edge" data-id="L_Q6_gRPC_0" data-points="W3sieCI6NjkwLjc2NTEzNDYxNjQ4OTYsInkiOjEwNzAuOTY0NTQ0NDkxMTc2Mn0seyJ4Ijo5NjIuOTY2NDExNTkwNTc2MiwieSI6MTE5MS40NDY4Njg4OTY0ODQ0fSx7IngiOjk1NS4yMjgwMTA5MTU1Mzk3LCJ5IjoxMjI3Ljk0Njg2ODg5NjQ4NDR9XQ==" data-look="classic" marker-end="url(#g9309903e-11d5-4a90-9fe0-c0361d27c938-light_flowchart-v2-pointEnd)"></path><path d="M569.803,1101.467L559.208,1116.464C548.614,1131.46,527.425,1161.454,491.684,1183.762C455.943,1206.071,405.649,1220.695,380.502,1228.007L355.356,1235.319" id="g9309903e-11d5-4a90-9fe0-c0361d27c938-light-L_Q6_REST_0" class="edge-thickness-normal edge-pattern-solid edge-thickness-normal edge-pattern-solid flowchart-link" style=";" data-edge="true" data-et="edge" data-id="L_Q6_REST_0" data-points="W3sieCI6NTY5LjgwMjk5MzA3Njc5NTksInkiOjExMDEuNDY3MDM2NTAzMzA5OH0seyJ4Ijo1MDYuMjM1OTQyODQwNTc2MiwieSI6MTE5MS40NDY4Njg4OTY0ODQ0fSx7IngiOjM1MS41MTQ4NDY4MDE3NTc4LCJ5IjoxMjM2LjQzNTQzNzE5Mjk0OH1d" data-look="classic" marker-end="url(#g9309903e-11d5-4a90-9fe0-c0361d27c938-light_flowchart-v2-pointEnd)"></path></g><g class="edgeLabels"><g class="edgeLabel"><g class="label" data-id="L_Start_Q1_0" transform="translate(0, 0)"><text y="-10.1" text-anchor="middle"><tspan class="text-outer-tspan row" x="0" y="-0.1em" dy="1.1em" text-anchor="middle"></tspan></text></g></g><g><rect class="background" style="stroke: none"></rect></g><g class="edgeLabel" transform="translate(243.14922332763672, 316.20936584472656)"><g class="label" data-id="L_Q1_Q2_0" transform="translate(0, -10.5)"><g><rect class="background" style="" x="-13.328125" y="-1" width="26.65625" height="23"></rect><text y="-10.1" text-anchor="middle" style=""><tspan class="text-outer-tspan row" x="0" y="-0.1em" dy="1.1em" text-anchor="middle"><tspan font-style="normal" class="text-inner-tspan" font-weight="normal">Yes</tspan></tspan></text></g></g></g><g class="edgeLabel" transform="translate(658.2828178405762, 459.89998626708984)"><g class="label" data-id="L_Q1_Q3_0" transform="translate(0, -10.5)"><g><rect class="background" style="" x="-11.3984375" y="-1" width="22.796875" height="23"></rect><text y="-10.1" text-anchor="middle" style=""><tspan class="text-outer-tspan row" x="0" y="-0.1em" dy="1.1em" text-anchor="middle"><tspan font-style="normal" class="text-inner-tspan" font-weight="normal">No</tspan></tspan></text></g></g></g><g class="edgeLabel" transform="translate(374.8734436035156, 603.5906066894531)"><g class="label" data-id="L_Q2_GQL_0" transform="translate(0, -10.5)"><g><rect class="background" style="" x="-13.328125" y="-1" width="26.65625" height="23"></rect><text y="-10.1" text-anchor="middle" style=""><tspan class="text-outer-tspan row" x="0" y="-0.1em" dy="1.1em" text-anchor="middle"><tspan font-style="normal" class="text-inner-tspan" font-weight="normal">Yes</tspan></tspan></text></g></g></g><g class="edgeLabel" transform="translate(111.42500305175781, 603.5906066894531)"><g class="label" data-id="L_Q2_Q4_0" transform="translate(0, -10.5)"><g><rect class="background" style="" x="-11.3984375" y="-1" width="22.796875" height="23"></rect><text y="-10.1" text-anchor="middle" style=""><tspan class="text-outer-tspan row" x="0" y="-0.1em" dy="1.1em" text-anchor="middle"><tspan font-style="normal" class="text-inner-tspan" font-weight="normal">No</tspan></tspan></text></g></g></g><g class="edgeLabel" transform="translate(102.16718673706055, 1037.4437408447266)"><g class="label" data-id="L_Q4_REST_0" transform="translate(0, -10.5)"><g><rect class="background" style="" x="-13.328125" y="-1" width="26.65625" height="23"></rect><text y="-10.1" text-anchor="middle" style=""><tspan class="text-outer-tspan row" x="0" y="-0.1em" dy="1.1em" text-anchor="middle"><tspan font-style="normal" class="text-inner-tspan" font-weight="normal">Yes</tspan></tspan></text></g></g></g><g class="edgeLabel" transform="translate(338.2765693664551, 883.4406127929688)"><g class="label" data-id="L_Q4_Q5_0" transform="translate(0, -10.5)"><g><rect class="background" style="" x="-11.3984375" y="-1" width="22.796875" height="23"></rect><text y="-10.1" text-anchor="middle" style=""><tspan class="text-outer-tspan row" x="0" y="-0.1em" dy="1.1em" text-anchor="middle"><tspan font-style="normal" class="text-inner-tspan" font-weight="normal">No</tspan></tspan></text></g></g></g><g class="edgeLabel" transform="translate(659.7593803405762, 1191.4468688964844)"><g class="label" data-id="L_Q5_gRPCWeb_0" transform="translate(0, -10.5)"><g><rect class="background" style="" x="-13.328125" y="-1" width="26.65625" height="23"></rect><text y="-10.1" text-anchor="middle" style=""><tspan class="text-outer-tspan row" x="0" y="-0.1em" dy="1.1em" text-anchor="middle"><tspan font-style="normal" class="text-inner-tspan" font-weight="normal">Yes</tspan></tspan></text></g></g></g><g class="edgeLabel" transform="translate(235.9210968017578, 1191.4468688964844)"><g class="label" data-id="L_Q5_REST_0" transform="translate(0, -10.5)"><g><rect class="background" style="" x="-11.3984375" y="-1" width="22.796875" height="23"></rect><text y="-10.1" text-anchor="middle" style=""><tspan class="text-outer-tspan row" x="0" y="-0.1em" dy="1.1em" text-anchor="middle"><tspan font-style="normal" class="text-inner-tspan" font-weight="normal">No</tspan></tspan></text></g></g></g><g class="edgeLabel" transform="translate(929.6382865905762, 1037.4437408447266)"><g class="label" data-id="L_Q3_gRPC_0" transform="translate(0, -10.5)"><g><rect class="background" style="" x="-13.328125" y="-1" width="26.65625" height="23"></rect><text y="-10.1" text-anchor="middle" style=""><tspan class="text-outer-tspan row" x="0" y="-0.1em" dy="1.1em" text-anchor="middle"><tspan font-style="normal" class="text-inner-tspan" font-weight="normal">Yes</tspan></tspan></text></g></g></g><g class="edgeLabel" transform="translate(615.0328178405762, 883.4406127929688)"><g class="label" data-id="L_Q3_Q6_0" transform="translate(0, -10.5)"><g><rect class="background" style="" x="-11.3984375" y="-1" width="22.796875" height="23"></rect><text y="-10.1" text-anchor="middle" style=""><tspan class="text-outer-tspan row" x="0" y="-0.1em" dy="1.1em" text-anchor="middle"><tspan font-style="normal" class="text-inner-tspan" font-weight="normal">No</tspan></tspan></text></g></g></g><g class="edgeLabel" transform="translate(843.92504, 1138.75652)"><g class="label" data-id="L_Q6_gRPC_0" transform="translate(0, -10.5)"><g><rect class="background" style="" x="-13.328125" y="-1" width="26.65625" height="23"></rect><text y="-10.1" text-anchor="middle" style=""><tspan class="text-outer-tspan row" x="0" y="-0.1em" dy="1.1em" text-anchor="middle"><tspan font-style="normal" class="text-inner-tspan" font-weight="normal">Yes</tspan></tspan></text></g></g></g><g class="edgeLabel" transform="translate(481.76907, 1198.56115)"><g class="label" data-id="L_Q6_REST_0" transform="translate(0, -10.5)"><g><rect class="background" style="" x="-11.3984375" y="-1" width="22.796875" height="23"></rect><text y="-10.1" text-anchor="middle" style=""><tspan class="text-outer-tspan row" x="0" y="-0.1em" dy="1.1em" text-anchor="middle"><tspan font-style="normal" class="text-inner-tspan" font-weight="normal">No</tspan></tspan></text></g></g></g></g><g class="nodes"><g class="node default" id="g9309903e-11d5-4a90-9fe0-c0361d27c938-light-flowchart-Start-0" data-look="classic" transform="translate(401.85000228881836, 25)"><g class="basic label-container outer-path"><path d="M-52.1640625 -17 C-22.6741383633494 -17, 6.815785773301201 -17, 52.1640625 -17 C52.1640625 -17, 52.1640625 -17, 52.1640625 -17 C52.392930637485996 -16.99266064429563, 52.62179877497199 -16.98532128859126, 53.25325623967212 -16.965071676755716 C53.60262477715193 -16.93136851412218, 53.951993314631736 -16.897665351488644, 54.3379742486366 -16.860430234995185 C54.67872692586766 -16.805339984716948, 55.019479603098716 -16.750249734438707, 55.413759187923326 -16.686505668848113 C55.733066874728024 -16.613625773012327, 56.05237456153272 -16.54074587717654, 56.47619042646162 -16.4440126716635 C56.733339502707544 -16.36769217563676, 56.99048857895347 -16.291371679610013, 57.52090220640155 -16.133947699181366 C57.75863371787 -16.046460305394977, 57.996365229338444 -15.958972911608587, 58.54360158294936 -15.757584874882369 C58.902865543206744 -15.598549376863156, 59.26212950346413 -15.439513878843945, 59.54008606499849 -15.316470754341125 C59.81585962007793 -15.172599867297576, 60.09163317515736 -15.028728980254025, 60.50626088406694 -14.812417970097622 C60.694502469309946 -14.698304814892968, 60.88274405455295 -14.584191659688313, 61.438155820579325 -14.247497783161291 C61.73419504409193 -14.040993636170336, 62.03023426760454 -13.834489489179381, 62.331941518350675 -13.624031571755262 C62.54857135256746 -13.451275043729373, 62.76520118678423 -13.278518515703485, 63.1839452202324 -12.944581292275288 C63.489998271718676 -12.666632008635455, 63.79605132320495 -12.388682724995622, 63.99066586025927 -12.21193895166137 C64.15556523570035 -12.04166680802795, 64.32046461114143 -11.87139466439453, 64.74878845028036 -11.42911513444239 C65.02798956371383 -11.101149619610014, 65.30719067714732 -10.77318410477764, 65.45519770195651 -10.59932663159847 C65.66067621110382 -10.324004148818343, 65.86615472025115 -10.048681666038213, 66.10699082814824 -9.725983222076888 C66.2660632094367 -9.481605327502516, 66.42513559072515 -9.237227432928142, 66.70148947109088 -8.812673661278927 C66.86876644386051 -8.515656457496192, 67.03604341663015 -8.218639253713457, 67.236250708341 -7.863150934094199 C67.36940346247174 -7.5866563911291935, 67.50255621660247 -7.310161848164189, 67.70907709126881 -6.881316833080699 C67.86790108535791 -6.489018497027586, 68.02672507944702 -6.096720160974473, 68.11802567484592 -5.871205925162238 C68.1963999429966 -5.635155116736236, 68.27477421114727 -5.399104308310234, 68.46141600162323 -4.836968972727556 C68.52821254328752 -4.582244809557362, 68.5950090849518 -4.327520646387168, 68.737837007091 -3.7828558772573464 C68.79274209439198 -3.5009298581610913, 68.84764718169298 -3.2190038390648357, 68.94615281804565 -2.713198215567453 C68.99441604331423 -2.3388781710361832, 69.0426792685828 -1.9645581265049135, 69.08550742013637 -1.632391440430593 C69.10779040614908 -1.2853159467801194, 69.13007339216178 -0.9382404531296455, 69.1553281754117 -0.5448768187181379 C69.1553281754117 -0.23996529316900933, 69.1553281754117 0.0649462323801192, 69.1553281754117 0.5448768187181336 C69.13384267190388 0.8795308786386046, 69.11235716839607 1.2141849385590755, 69.08550742013637 1.6323914404305815 C69.05743499090676 1.8501156580072826, 69.02936256167715 2.0678398755839837, 68.94615281804565 2.7131982155674415 C68.88215275242457 3.041825026113011, 68.8181526868035 3.3704518366585803, 68.737837007091 3.782855877257343 C68.64479856922264 4.1376517639634125, 68.5517601313543 4.492447650669482, 68.46141600162323 4.836968972727545 C68.37779609108989 5.088818820230543, 68.29417618055653 5.340668667733541, 68.11802567484592 5.871205925162227 C67.97118686676068 6.233900620068007, 67.82434805867544 6.596595314973786, 67.70907709126881 6.881316833080694 C67.56220911797503 7.186291322096441, 67.41534114468125 7.4912658111121875, 67.236250708341 7.863150934094196 C67.11291357869234 8.082148497024045, 66.9895764490437 8.301146059953894, 66.70148947109088 8.812673661278923 C66.51486275134008 9.099382419107355, 66.32823603158927 9.386091176935789, 66.10699082814826 9.725983222076879 C65.85027012484805 10.069965576761941, 65.59354942154786 10.413947931447005, 65.45519770195651 10.599326631598467 C65.22680341519973 10.867611556826068, 64.99840912844293 11.135896482053669, 64.74878845028037 11.42911513444238 C64.56201320945223 11.621975905129892, 64.37523796862409 11.814836675817403, 63.99066586025927 12.211938951661365 C63.70502329440526 12.471351972281838, 63.419380728551246 12.730764992902312, 63.18394522023242 12.944581292275275 C62.85818808656083 13.204363937616971, 62.53243095288925 13.464146582958668, 62.331941518350675 13.62403157175526 C62.01426600199104 13.845628260016282, 61.696590485631404 14.067224948277303, 61.43815582057934 14.247497783161286 C61.100097154935554 14.452430932927781, 60.762038489291776 14.657364082694277, 60.50626088406695 14.81241797009762 C60.202846636356945 14.970708988781828, 59.899432388646936 15.129000007466034, 59.54008606499849 15.316470754341124 C59.19412725404022 15.469616457448849, 58.84816844308195 15.622762160556576, 58.543601582949364 15.757584874882367 C58.20464381735224 15.882324465913346, 57.86568605175512 16.007064056944323, 57.52090220640156 16.133947699181363 C57.25723209763388 16.212203603430968, 56.9935619888662 16.29045950768057, 56.47619042646164 16.444012671663497 C56.23723245647989 16.49855326896535, 55.99827448649814 16.5530938662672, 55.41375918792333 16.68650566884811 C55.08642266192774 16.739426899838403, 54.75908613593216 16.7923481308287, 54.33797424863661 16.86043023499518 C53.994776635385264 16.89353809599002, 53.65157902213392 16.92664595698486, 53.25325623967212 16.965071676755716 C52.95191952363829 16.974734958722586, 52.65058280760446 16.984398240689455, 52.1640625 17 C52.1640625 17, 52.1640625 17, 52.1640625 17 C16.545871928179068 17, -19.072318643641864 17, -52.1640625 17 C-52.418099726108586 16.99185352061216, -52.67213695221717 16.983707041224324, -53.25325623967211 16.965071676755716 C-53.490252174995234 16.94220896390441, -53.72724811031835 16.9193462510531, -54.337974248636606 16.86043023499518 C-54.646756666334895 16.810508688345138, -54.95553908403318 16.76058714169509, -55.413759187923326 16.68650566884811 C-55.75812058871477 16.607907426285614, -56.1024819895062 16.529309183723118, -56.47619042646162 16.4440126716635 C-56.75860170823397 16.360194485640537, -57.041012990006315 16.276376299617574, -57.520902206401544 16.13394769918137 C-57.74375395994373 16.05193619385882, -57.96660571348591 15.969924688536267, -58.543601582949364 15.757584874882369 C-58.81415081804534 15.63782075406329, -59.084700053141326 15.518056633244209, -59.54008606499848 15.316470754341127 C-59.815644197005604 15.172712253376421, -60.091202329012724 15.028953752411713, -60.50626088406693 14.812417970097624 C-60.74900686895118 14.665263927527047, -60.991752853835415 14.51810988495647, -61.43815582057932 14.247497783161299 C-61.685090571554476 14.075246790514113, -61.932025322529626 13.902995797866927, -62.33194151835067 13.624031571755264 C-62.61767839776348 13.396164014201252, -62.90341527717628 13.16829645664724, -63.1839452202324 12.94458129227529 C-63.44585676896353 12.70672015351752, -63.70776831769465 12.46885901475975, -63.99066586025926 12.211938951661377 C-64.2266550573599 11.968260730581546, -64.46264425446056 11.724582509501717, -64.74878845028036 11.429115134442386 C-64.91294359174752 11.236289164582898, -65.07709873321468 11.043463194723408, -65.45519770195651 10.599326631598473 C-65.70138108722387 10.269463323107985, -65.94756447249124 9.939600014617497, -66.10699082814824 9.72598322207689 C-66.25948803046141 9.491706568091336, -66.41198523277457 9.257429914105781, -66.70148947109088 8.812673661278936 C-66.87960341074682 8.496414325427665, -67.05771735040277 8.180154989576396, -67.236250708341 7.863150934094201 C-67.38971520415066 7.544478624931262, -67.54317969996032 7.225806315768323, -67.70907709126881 6.881316833080701 C-67.84224509516845 6.552389288820389, -67.97541309906809 6.223461744560076, -68.11802567484592 5.87120592516224 C-68.24738696066935 5.481590343183966, -68.37674824649277 5.091974761205694, -68.46141600162323 4.8369689727275516 C-68.56613748481905 4.437620570723964, -68.67085896801488 4.0382721687203755, -68.737837007091 3.782855877257349 C-68.80152830482281 3.4558145245650764, -68.8652196025546 3.1287731718728042, -68.94615281804565 2.713198215567455 C-68.99349561743927 2.3460168123637617, -69.04083841683287 1.9788354091600682, -69.08550742013637 1.6323914404306026 C-69.10430091689446 1.3396675585857767, -69.12309441365255 1.0469436767409508, -69.1553281754117 0.54487681871814 C-69.1553281754117 0.17481871457972076, -69.1553281754117 -0.19523938955869846, -69.1553281754117 -0.5448768187181317 C-69.13503606169945 -0.8609428692856669, -69.11474394798721 -1.177008919853202, -69.08550742013637 -1.6323914404305793 C-69.04317664361947 -1.960700583938319, -69.00084586710257 -2.2890097274460586, -68.94615281804565 -2.713198215567447 C-68.87903069873207 -3.0578561119777605, -68.81190857941849 -3.4025140083880747, -68.737837007091 -3.782855877257341 C-68.65267319437692 -4.107622405366079, -68.56750938166283 -4.432388933474817, -68.46141600162323 -4.836968972727544 C-68.34715609785509 -5.181101598033781, -68.23289619408696 -5.525234223340019, -68.11802567484594 -5.871205925162218 C-67.97823889480276 -6.216481974462412, -67.83845211475958 -6.561758023762606, -67.70907709126881 -6.881316833080692 C-67.56993414462399 -7.170250138970796, -67.43079119797916 -7.4591834448609, -67.236250708341 -7.863150934094194 C-67.03373172155862 -8.22274390239746, -66.83121273477623 -8.582336870700725, -66.70148947109088 -8.812673661278929 C-66.50823370531081 -9.10956641395641, -66.31497793953075 -9.406459166633889, -66.10699082814826 -9.725983222076884 C-65.88129990293027 -10.028388501002722, -65.65560897771228 -10.330793779928557, -65.45519770195651 -10.599326631598467 C-65.2871845146407 -10.79668448164081, -65.11917132732488 -10.994042331683154, -64.74878845028037 -11.42911513444238 C-64.55315193114019 -11.631125902511554, -64.357515412 -11.833136670580727, -63.99066586025928 -12.21193895166136 C-63.773536091484246 -12.409130462723974, -63.556406322709215 -12.606321973786589, -63.18394522023242 -12.944581292275274 C-62.99835427214296 -13.092585134594067, -62.81276332405351 -13.240588976912862, -62.331941518350675 -13.624031571755259 C-62.09304381447522 -13.790676268263855, -61.854146110599764 -13.957320964772451, -61.43815582057934 -14.247497783161284 C-61.08624938816254 -14.460825530524092, -60.734342955745745 -14.674153277886898, -60.50626088406695 -14.812417970097618 C-60.20297206278765 -14.970643553893265, -59.899683241508356 -15.128869137688913, -59.54008606499849 -15.316470754341124 C-59.14476595725966 -15.491467239282759, -58.74944584952083 -15.666463724224396, -58.54360158294937 -15.757584874882365 C-58.2325844373043 -15.872042059490731, -57.92156729165922 -15.986499244099095, -57.520902206401566 -16.133947699181363 C-57.31032337976685 -16.19644638957573, -57.099744553132126 -16.258945079970097, -56.47619042646164 -16.444012671663494 C-56.191652659243296 -16.508956560248624, -55.90711489202495 -16.573900448833758, -55.41375918792333 -16.68650566884811 C-55.00132506438756 -16.753184819466977, -54.58889094085178 -16.819863970085844, -54.33797424863661 -16.86043023499518 C-54.005390203481255 -16.892514217840485, -53.6728061583259 -16.924598200685786, -53.25325623967212 -16.965071676755716 C-53.00924435379538 -16.97289666299546, -52.76523246791864 -16.980721649235203, -52.16406250000001 -17 C-52.16406250000001 -17, -52.1640625 -17, -52.1640625 -17" stroke="none" stroke-width="0" fill="#ECECFF" style=""></path><path d="M-52.1640625 -17 C-25.387812903288822 -17, 1.3884366934223564 -17, 52.1640625 -17 M-52.1640625 -17 C-29.54331507958993 -17, -6.922567659179862 -17, 52.1640625 -17 M52.1640625 -17 C52.1640625 -17, 52.1640625 -17, 52.1640625 -17 M52.1640625 -17 C52.1640625 -17, 52.1640625 -17, 52.1640625 -17 M52.1640625 -17 C52.50384628250811 -16.989103795443977, 52.84363006501621 -16.97820759088795, 53.25325623967212 -16.965071676755716 M52.1640625 -17 C52.429515725128915 -16.991487431743472, 52.69496895025783 -16.982974863486948, 53.25325623967212 -16.965071676755716 M53.25325623967212 -16.965071676755716 C53.643518073581184 -16.927423586997033, 54.033779907490256 -16.88977549723835, 54.3379742486366 -16.860430234995185 M53.25325623967212 -16.965071676755716 C53.66343426904745 -16.925502295573132, 54.07361229842278 -16.88593291439055, 54.3379742486366 -16.860430234995185 M54.3379742486366 -16.860430234995185 C54.68867180404207 -16.80373217393739, 55.03936935944755 -16.747034112879593, 55.413759187923326 -16.686505668848113 M54.3379742486366 -16.860430234995185 C54.71551456917378 -16.799392443839647, 55.093054889710956 -16.738354652684112, 55.413759187923326 -16.686505668848113 M55.413759187923326 -16.686505668848113 C55.74062319560946 -16.61190109208074, 56.06748720329559 -16.53729651531337, 56.47619042646162 -16.4440126716635 M55.413759187923326 -16.686505668848113 C55.71080266450832 -16.618707433707424, 56.007846141093324 -16.550909198566735, 56.47619042646162 -16.4440126716635 M56.47619042646162 -16.4440126716635 C56.76155240477571 -16.35931873439547, 57.046914383089806 -16.274624797127437, 57.52090220640155 -16.133947699181366 M56.47619042646162 -16.4440126716635 C56.82774041049162 -16.33967448172692, 57.17929039452162 -16.235336291790336, 57.52090220640155 -16.133947699181366 M57.52090220640155 -16.133947699181366 C57.84815449516213 -16.013515831830478, 58.17540678392271 -15.893083964479588, 58.54360158294936 -15.757584874882369 M57.52090220640155 -16.133947699181366 C57.79091147338978 -16.034581792991396, 58.06092074037801 -15.935215886801425, 58.54360158294936 -15.757584874882369 M58.54360158294936 -15.757584874882369 C58.7618634147611 -15.66096683644651, 58.980125246572854 -15.564348798010652, 59.54008606499849 -15.316470754341125 M58.54360158294936 -15.757584874882369 C58.83203395850224 -15.629904418267534, 59.120466334055116 -15.5022239616527, 59.54008606499849 -15.316470754341125 M59.54008606499849 -15.316470754341125 C59.76522302401172 -15.199016947031028, 59.990359983024945 -15.081563139720933, 60.50626088406694 -14.812417970097622 M59.54008606499849 -15.316470754341125 C59.880989917074245 -15.138621433072544, 60.22189376914999 -14.960772111803962, 60.50626088406694 -14.812417970097622 M60.50626088406694 -14.812417970097622 C60.81870487517599 -14.623012586562618, 61.13114886628504 -14.433607203027613, 61.438155820579325 -14.247497783161291 M60.50626088406694 -14.812417970097622 C60.793521981945986 -14.638278604429752, 61.08078307982503 -14.464139238761883, 61.438155820579325 -14.247497783161291 M61.438155820579325 -14.247497783161291 C61.68557715647566 -14.074907369937012, 61.932998492372 -13.902316956712733, 62.331941518350675 -13.624031571755262 M61.438155820579325 -14.247497783161291 C61.64081862533342 -14.106128983696259, 61.8434814300875 -13.964760184231228, 62.331941518350675 -13.624031571755262 M62.331941518350675 -13.624031571755262 C62.54764243124867 -13.452015833761473, 62.763343344146655 -13.280000095767685, 63.1839452202324 -12.944581292275288 M62.331941518350675 -13.624031571755262 C62.66982131133807 -13.354581428206718, 63.00770110432547 -13.085131284658173, 63.1839452202324 -12.944581292275288 M63.1839452202324 -12.944581292275288 C63.50271832875423 -12.655079989390032, 63.82149143727606 -12.365578686504774, 63.99066586025927 -12.21193895166137 M63.1839452202324 -12.944581292275288 C63.44041858455492 -12.711658968710942, 63.696891948877436 -12.478736645146597, 63.99066586025927 -12.21193895166137 M63.99066586025927 -12.21193895166137 C64.28897530223409 -11.9039099611617, 64.5872847442089 -11.59588097066203, 64.74878845028036 -11.42911513444239 M63.99066586025927 -12.21193895166137 C64.19324733319763 -12.00275694860427, 64.39582880613598 -11.793574945547173, 64.74878845028036 -11.42911513444239 M64.74878845028036 -11.42911513444239 C64.9804096898685 -11.157039646800268, 65.21203092945663 -10.884964159158146, 65.45519770195651 -10.59932663159847 M64.74878845028036 -11.42911513444239 C64.9108457947029 -11.238753356359558, 65.07290313912543 -11.048391578276725, 65.45519770195651 -10.59932663159847 M65.45519770195651 -10.59932663159847 C65.61650671785443 -10.383187245848912, 65.77781573375236 -10.167047860099352, 66.10699082814824 -9.725983222076888 M65.45519770195651 -10.59932663159847 C65.70819947294605 -10.260327307407984, 65.96120124393559 -9.921327983217495, 66.10699082814824 -9.725983222076888 M66.10699082814824 -9.725983222076888 C66.29906450998733 -9.430906467766732, 66.49113819182642 -9.135829713456577, 66.70148947109088 -8.812673661278927 M66.10699082814824 -9.725983222076888 C66.29483090122444 -9.437410427709661, 66.48267097430065 -9.148837633342435, 66.70148947109088 -8.812673661278927 M66.70148947109088 -8.812673661278927 C66.86996409923599 -8.513529899101275, 67.0384387273811 -8.214386136923622, 67.236250708341 -7.863150934094199 M66.70148947109088 -8.812673661278927 C66.82901205947383 -8.586244392542685, 66.95653464785678 -8.359815123806442, 67.236250708341 -7.863150934094199 M67.236250708341 -7.863150934094199 C67.36572510278842 -7.594294583715889, 67.49519949723584 -7.325438233337577, 67.70907709126881 -6.881316833080699 M67.236250708341 -7.863150934094199 C67.33282607029129 -7.662610128622715, 67.42940143224158 -7.462069323151231, 67.70907709126881 -6.881316833080699 M67.70907709126881 -6.881316833080699 C67.80609026082088 -6.641692428665054, 67.90310343037295 -6.402068024249408, 68.11802567484592 -5.871205925162238 M67.70907709126881 -6.881316833080699 C67.8583656388112 -6.512571234353299, 68.00765418635358 -6.143825635625898, 68.11802567484592 -5.871205925162238 M68.11802567484592 -5.871205925162238 C68.22621913162742 -5.54534447162271, 68.33441258840891 -5.2194830180831815, 68.46141600162323 -4.836968972727556 M68.11802567484592 -5.871205925162238 C68.21820274533664 -5.569488549892821, 68.31837981582737 -5.2677711746234035, 68.46141600162323 -4.836968972727556 M68.46141600162323 -4.836968972727556 C68.56431725525691 -4.444561894936893, 68.6672185088906 -4.0521548171462305, 68.737837007091 -3.7828558772573464 M68.46141600162323 -4.836968972727556 C68.53248192291701 -4.565963814669228, 68.60354784421081 -4.294958656610899, 68.737837007091 -3.7828558772573464 M68.737837007091 -3.7828558772573464 C68.80099426005427 -3.458556731581092, 68.86415151301755 -3.134257585904837, 68.94615281804565 -2.713198215567453 M68.737837007091 -3.7828558772573464 C68.79832186076807 -3.4722789371039413, 68.85880671444514 -3.161701996950536, 68.94615281804565 -2.713198215567453 M68.94615281804565 -2.713198215567453 C68.97608977676774 -2.4810130754401056, 69.00602673548983 -2.248827935312758, 69.08550742013637 -1.632391440430593 M68.94615281804565 -2.713198215567453 C68.9854823663507 -2.408166005411252, 69.02481191465574 -2.103133795255051, 69.08550742013637 -1.632391440430593 M69.08550742013637 -1.632391440430593 C69.10131573169996 -1.386164227588345, 69.11712404326354 -1.139937014746097, 69.1553281754117 -0.5448768187181379 M69.08550742013637 -1.632391440430593 C69.10026739907156 -1.4024928544744104, 69.11502737800676 -1.1725942685182278, 69.1553281754117 -0.5448768187181379 M69.1553281754117 -0.5448768187181379 C69.1553281754117 -0.3179298129028408, 69.1553281754117 -0.0909828070875437, 69.1553281754117 0.5448768187181336 M69.1553281754117 -0.5448768187181379 C69.1553281754117 -0.11852775508861907, 69.1553281754117 0.30782130854089973, 69.1553281754117 0.5448768187181336 M69.1553281754117 0.5448768187181336 C69.13987839196106 0.7855196668023744, 69.12442860851044 1.0261625148866151, 69.08550742013637 1.6323914404305815 M69.1553281754117 0.5448768187181336 C69.13668774056161 0.8352166377964741, 69.11804730571151 1.1255564568748146, 69.08550742013637 1.6323914404305815 M69.08550742013637 1.6323914404305815 C69.03297930536118 2.0397891257774017, 68.980451190586 2.4471868111242223, 68.94615281804565 2.7131982155674415 M69.08550742013637 1.6323914404305815 C69.03523028284947 2.022330988884001, 68.98495314556259 2.412270537337421, 68.94615281804565 2.7131982155674415 M68.94615281804565 2.7131982155674415 C68.88973124522593 3.0029110672930686, 68.83330967240622 3.2926239190186957, 68.737837007091 3.782855877257343 M68.94615281804565 2.7131982155674415 C68.90353722924328 2.932020257259695, 68.86092164044092 3.1508422989519485, 68.737837007091 3.782855877257343 M68.737837007091 3.782855877257343 C68.65743086407122 4.089479348834623, 68.57702472105143 4.396102820411904, 68.46141600162323 4.836968972727545 M68.737837007091 3.782855877257343 C68.67684999787203 4.015425775346281, 68.61586298865306 4.247995673435218, 68.46141600162323 4.836968972727545 M68.46141600162323 4.836968972727545 C68.33497054699859 5.217802535709685, 68.20852509237396 5.598636098691825, 68.11802567484592 5.871205925162227 M68.46141600162323 4.836968972727545 C68.35870318574652 5.146323609083427, 68.25599036986979 5.455678245439309, 68.11802567484592 5.871205925162227 M68.11802567484592 5.871205925162227 C67.97225932038488 6.2312516388817585, 67.82649296592383 6.5912973526012895, 67.70907709126881 6.881316833080694 M68.11802567484592 5.871205925162227 C68.02222436776738 6.107837005838493, 67.92642306068885 6.344468086514761, 67.70907709126881 6.881316833080694 M67.70907709126881 6.881316833080694 C67.54678545407576 7.21831889019683, 67.3844938168827 7.555320947312965, 67.236250708341 7.863150934094196 M67.70907709126881 6.881316833080694 C67.56735174001308 7.175612557399958, 67.42562638875734 7.469908281719222, 67.236250708341 7.863150934094196 M67.236250708341 7.863150934094196 C67.02795220560625 8.233006018210334, 66.8196537028715 8.602861102326472, 66.70148947109088 8.812673661278923 M67.236250708341 7.863150934094196 C67.04462664686437 8.203398859286265, 66.85300258538776 8.543646784478335, 66.70148947109088 8.812673661278923 M66.70148947109088 8.812673661278923 C66.47953871084742 9.153649631137096, 66.25758795060396 9.494625600995269, 66.10699082814826 9.725983222076879 M66.70148947109088 8.812673661278923 C66.52675212722994 9.081117144996071, 66.352014783369 9.34956062871322, 66.10699082814826 9.725983222076879 M66.10699082814826 9.725983222076879 C65.87893899093253 10.031551907996185, 65.6508871537168 10.337120593915492, 65.45519770195651 10.599326631598467 M66.10699082814826 9.725983222076879 C65.94914060712138 9.937488137801925, 65.7912903860945 10.148993053526969, 65.45519770195651 10.599326631598467 M65.45519770195651 10.599326631598467 C65.27421293197592 10.811921640742806, 65.09322816199536 11.024516649887145, 64.74878845028037 11.42911513444238 M65.45519770195651 10.599326631598467 C65.17862728854303 10.92420197649629, 64.90205687512953 11.249077321394113, 64.74878845028037 11.42911513444238 M64.74878845028037 11.42911513444238 C64.59001210464717 11.593064747089068, 64.43123575901397 11.757014359735756, 63.99066586025927 12.211938951661365 M64.74878845028037 11.42911513444238 C64.47590250370818 11.71089227863104, 64.203016557136 11.9926694228197, 63.99066586025927 12.211938951661365 M63.99066586025927 12.211938951661365 C63.70142146898215 12.47462305483203, 63.41217707770502 12.737307158002695, 63.18394522023242 12.944581292275275 M63.99066586025927 12.211938951661365 C63.78081839901889 12.40251686370031, 63.57097093777851 12.593094775739255, 63.18394522023242 12.944581292275275 M63.18394522023242 12.944581292275275 C62.94936195089757 13.131655207046853, 62.71477868156271 13.31872912181843, 62.331941518350675 13.62403157175526 M63.18394522023242 12.944581292275275 C62.88993580930955 13.179045973567256, 62.59592639838667 13.413510654859238, 62.331941518350675 13.62403157175526 M62.331941518350675 13.62403157175526 C62.14074282178894 13.757403505618552, 61.94954412522721 13.890775439481843, 61.43815582057934 14.247497783161286 M62.331941518350675 13.62403157175526 C62.09952180590532 13.786157501869951, 61.86710209345996 13.94828343198464, 61.43815582057934 14.247497783161286 M61.43815582057934 14.247497783161286 C61.14040810163118 14.427994200147475, 60.84266038268302 14.608490617133667, 60.50626088406695 14.81241797009762 M61.43815582057934 14.247497783161286 C61.23245418285168 14.372195324788793, 61.02675254512403 14.4968928664163, 60.50626088406695 14.81241797009762 M60.50626088406695 14.81241797009762 C60.15170924702399 14.99738733204177, 59.79715760998103 15.18235669398592, 59.54008606499849 15.316470754341124 M60.50626088406695 14.81241797009762 C60.17491279171359 14.985282057639784, 59.84356469936023 15.158146145181947, 59.54008606499849 15.316470754341124 M59.54008606499849 15.316470754341124 C59.33593432022796 15.406842675804697, 59.131782575457436 15.497214597268268, 58.543601582949364 15.757584874882367 M59.54008606499849 15.316470754341124 C59.17506241508565 15.478055896115686, 58.8100387651728 15.639641037890248, 58.543601582949364 15.757584874882367 M58.543601582949364 15.757584874882367 C58.30045920016413 15.84706351933088, 58.0573168173789 15.936542163779396, 57.52090220640156 16.133947699181363 M58.543601582949364 15.757584874882367 C58.27621566398439 15.855985364749817, 58.00882974501942 15.954385854617268, 57.52090220640156 16.133947699181363 M57.52090220640156 16.133947699181363 C57.11131079070986 16.255512281369448, 56.70171937501815 16.377076863557534, 56.47619042646164 16.444012671663497 M57.52090220640156 16.133947699181363 C57.234766142808795 16.218871380896847, 56.94863007921604 16.303795062612334, 56.47619042646164 16.444012671663497 M56.47619042646164 16.444012671663497 C56.22342410314156 16.501704935506897, 55.97065777982149 16.559397199350293, 55.41375918792333 16.68650566884811 M56.47619042646164 16.444012671663497 C56.073532429204 16.53591673194856, 55.67087443194636 16.62782079223362, 55.41375918792333 16.68650566884811 M55.41375918792333 16.68650566884811 C55.143450778576394 16.7302070361983, 54.87314236922946 16.77390840354849, 54.33797424863661 16.86043023499518 M55.41375918792333 16.68650566884811 C55.010858649556 16.751643503351, 54.60795811118866 16.81678133785389, 54.33797424863661 16.86043023499518 M54.33797424863661 16.86043023499518 C54.08276365755794 16.8850500937809, 53.82755306647926 16.909669952566617, 53.25325623967212 16.965071676755716 M54.33797424863661 16.86043023499518 C53.964328448705025 16.896475395939763, 53.59068264877343 16.93252055688434, 53.25325623967212 16.965071676755716 M53.25325623967212 16.965071676755716 C52.839986679094324 16.978324427183047, 52.42671711851652 16.991577177610374, 52.1640625 17 M53.25325623967212 16.965071676755716 C52.98402620237174 16.973705360027463, 52.714796165071355 16.98233904329921, 52.1640625 17 M52.1640625 17 C52.1640625 17, 52.1640625 17, 52.1640625 17 M52.1640625 17 C52.1640625 17, 52.1640625 17, 52.1640625 17 M52.1640625 17 C14.459521796764513 17, -23.245018906470975 17, -52.1640625 17 M52.1640625 17 C18.46820613568729 17, -15.227650228625421 17, -52.1640625 17 M-52.1640625 17 C-52.567048561762874 16.987077021364048, -52.970034623525756 16.9741540427281, -53.25325623967211 16.965071676755716 M-52.1640625 17 C-52.49326578987235 16.989443091249125, -52.82246907974471 16.97888618249825, -53.25325623967211 16.965071676755716 M-53.25325623967211 16.965071676755716 C-53.47879212875198 16.943314500782773, -53.70432801783184 16.92155732480983, -54.337974248636606 16.86043023499518 M-53.25325623967211 16.965071676755716 C-53.502703054501886 16.941007842532777, -53.75214986933165 16.916944008309834, -54.337974248636606 16.86043023499518 M-54.337974248636606 16.86043023499518 C-54.6238799026778 16.814207226081262, -54.909785556719 16.767984217167342, -55.413759187923326 16.68650566884811 M-54.337974248636606 16.86043023499518 C-54.592225923252236 16.81932479599451, -54.84647759786786 16.77821935699384, -55.413759187923326 16.68650566884811 M-55.413759187923326 16.68650566884811 C-55.78157478535538 16.60255415895533, -56.14939038278743 16.51860264906255, -56.47619042646162 16.4440126716635 M-55.413759187923326 16.68650566884811 C-55.7249146248002 16.615486470859945, -56.03607006167707 16.544467272871785, -56.47619042646162 16.4440126716635 M-56.47619042646162 16.4440126716635 C-56.76014635123263 16.35973604370653, -57.044102276003635 16.275459415749562, -57.520902206401544 16.13394769918137 M-56.47619042646162 16.4440126716635 C-56.805515879459506 16.346270605878306, -57.13484133245739 16.248528540093112, -57.520902206401544 16.13394769918137 M-57.520902206401544 16.13394769918137 C-57.81371200996817 16.0261909847647, -58.10652181353479 15.91843427034803, -58.543601582949364 15.757584874882369 M-57.520902206401544 16.13394769918137 C-57.7925235330559 16.033988540132547, -58.06414485971025 15.934029381083729, -58.543601582949364 15.757584874882369 M-58.543601582949364 15.757584874882369 C-58.747822990937976 15.667182115578637, -58.95204439892659 15.576779356274903, -59.54008606499848 15.316470754341127 M-58.543601582949364 15.757584874882369 C-58.85104708102713 15.621487872930004, -59.1584925791049 15.48539087097764, -59.54008606499848 15.316470754341127 M-59.54008606499848 15.316470754341127 C-59.90580537725052 15.125675223393635, -60.27152468950256 14.934879692446145, -60.50626088406693 14.812417970097624 M-59.54008606499848 15.316470754341127 C-59.75668077023425 15.203473435355159, -59.97327547547001 15.09047611636919, -60.50626088406693 14.812417970097624 M-60.50626088406693 14.812417970097624 C-60.757825262755695 14.65991816538011, -61.009389641444464 14.507418360662598, -61.43815582057932 14.247497783161299 M-60.50626088406693 14.812417970097624 C-60.87470930730851 14.589062370685312, -61.243157730550074 14.365706771273, -61.43815582057932 14.247497783161299 M-61.43815582057932 14.247497783161299 C-61.64315572558959 14.104498723728993, -61.848155630599855 13.961499664296689, -62.33194151835067 13.624031571755264 M-61.43815582057932 14.247497783161299 C-61.64223301339905 14.105142367809545, -61.84631020621878 13.962786952457792, -62.33194151835067 13.624031571755264 M-62.33194151835067 13.624031571755264 C-62.59855638737555 13.411413308627555, -62.86517125640043 13.198795045499846, -63.1839452202324 12.94458129227529 M-62.33194151835067 13.624031571755264 C-62.525759203819256 13.469467125299289, -62.719576889287836 13.314902678843314, -63.1839452202324 12.94458129227529 M-63.1839452202324 12.94458129227529 C-63.39421203212039 12.753622537073598, -63.604478844008376 12.562663781871906, -63.99066586025926 12.211938951661377 M-63.1839452202324 12.94458129227529 C-63.407662635374045 12.741407055082089, -63.63138005051569 12.538232817888888, -63.99066586025926 12.211938951661377 M-63.99066586025926 12.211938951661377 C-64.25315485031308 11.940897518683936, -64.51564384036689 11.669856085706495, -64.74878845028036 11.429115134442386 M-63.99066586025926 12.211938951661377 C-64.28017736777879 11.912994550810652, -64.56968887529831 11.614050149959924, -64.74878845028036 11.429115134442386 M-64.74878845028036 11.429115134442386 C-64.9097145353879 11.240082197921407, -65.07064062049547 11.051049261400427, -65.45519770195651 10.599326631598473 M-64.74878845028036 11.429115134442386 C-65.00318279151617 11.130289065778726, -65.25757713275196 10.831462997115068, -65.45519770195651 10.599326631598473 M-65.45519770195651 10.599326631598473 C-65.62222850234467 10.375520575897296, -65.78925930273282 10.151714520196117, -66.10699082814824 9.72598322207689 M-65.45519770195651 10.599326631598473 C-65.65283252990365 10.33451396705252, -65.85046735785079 10.069701302506566, -66.10699082814824 9.72598322207689 M-66.10699082814824 9.72598322207689 C-66.30535300640716 9.421245648568144, -66.50371518466609 9.116508075059397, -66.70148947109088 8.812673661278936 M-66.10699082814824 9.72598322207689 C-66.24755535100483 9.510038368109724, -66.38811987386143 9.294093514142556, -66.70148947109088 8.812673661278936 M-66.70148947109088 8.812673661278936 C-66.90270306952218 8.45539854217793, -67.10391666795347 8.098123423076924, -67.236250708341 7.863150934094201 M-66.70148947109088 8.812673661278936 C-66.87242038827316 8.509168509189557, -67.04335130545543 8.205663357100178, -67.236250708341 7.863150934094201 M-67.236250708341 7.863150934094201 C-67.331393130901 7.665585657926618, -67.42653555346102 7.468020381759034, -67.70907709126881 6.881316833080701 M-67.236250708341 7.863150934094201 C-67.38341585488567 7.557559358464509, -67.53058100143032 7.251967782834818, -67.70907709126881 6.881316833080701 M-67.70907709126881 6.881316833080701 C-67.86556515706106 6.494788285082913, -68.02205322285332 6.108259737085124, -68.11802567484592 5.87120592516224 M-67.70907709126881 6.881316833080701 C-67.79424064193911 6.670961216399827, -67.8794041926094 6.460605599718953, -68.11802567484592 5.87120592516224 M-68.11802567484592 5.87120592516224 C-68.19310818159465 5.64506937760794, -68.26819068834338 5.418932830053639, -68.46141600162323 4.8369689727275516 M-68.11802567484592 5.87120592516224 C-68.25444245415807 5.4603403209361545, -68.39085923347022 5.049474716710069, -68.46141600162323 4.8369689727275516 M-68.46141600162323 4.8369689727275516 C-68.52078253093336 4.610578666851497, -68.58014906024347 4.3841883609754415, -68.737837007091 3.782855877257349 M-68.46141600162323 4.8369689727275516 C-68.52545654050984 4.592754642607817, -68.58949707939644 4.3485403124880815, -68.737837007091 3.782855877257349 M-68.737837007091 3.782855877257349 C-68.82090834301137 3.356302124439327, -68.90397967893173 2.929748371621305, -68.94615281804565 2.713198215567455 M-68.737837007091 3.782855877257349 C-68.8071712605149 3.4268391397252596, -68.87650551393881 3.07082240219317, -68.94615281804565 2.713198215567455 M-68.94615281804565 2.713198215567455 C-68.98542152858555 2.408637851103971, -69.02469023912545 2.104077486640487, -69.08550742013637 1.6323914404306026 M-68.94615281804565 2.713198215567455 C-68.98459141829889 2.415076022563432, -69.02303001855215 2.1169538295594093, -69.08550742013637 1.6323914404306026 M-69.08550742013637 1.6323914404306026 C-69.10568760774761 1.3180687292312137, -69.12586779535886 1.0037460180318247, -69.1553281754117 0.54487681871814 M-69.08550742013637 1.6323914404306026 C-69.11053880913062 1.2425073518715912, -69.13557019812488 0.85262326331258, -69.1553281754117 0.54487681871814 M-69.1553281754117 0.54487681871814 C-69.1553281754117 0.2630367617768849, -69.1553281754117 -0.018803295164370182, -69.1553281754117 -0.5448768187181317 M-69.1553281754117 0.54487681871814 C-69.1553281754117 0.3219479310275011, -69.1553281754117 0.09901904333686212, -69.1553281754117 -0.5448768187181317 M-69.1553281754117 -0.5448768187181317 C-69.13735084198436 -0.8248882978913001, -69.11937350855702 -1.1048997770644686, -69.08550742013637 -1.6323914404305793 M-69.1553281754117 -0.5448768187181317 C-69.13936865502437 -0.793459231043776, -69.12340913463703 -1.0420416433694204, -69.08550742013637 -1.6323914404305793 M-69.08550742013637 -1.6323914404305793 C-69.03996292910347 -1.9856255191047274, -68.99441843807057 -2.3388595977788755, -68.94615281804565 -2.713198215567447 M-69.08550742013637 -1.6323914404305793 C-69.03988720706269 -1.9862128042999987, -68.99426699398902 -2.340034168169418, -68.94615281804565 -2.713198215567447 M-68.94615281804565 -2.713198215567447 C-68.8645250528952 -3.132339537580748, -68.78289728774475 -3.551480859594049, -68.737837007091 -3.782855877257341 M-68.94615281804565 -2.713198215567447 C-68.89707362571268 -2.9652094953062496, -68.84799443337972 -3.2172207750450523, -68.737837007091 -3.782855877257341 M-68.737837007091 -3.782855877257341 C-68.66024885317606 -4.07873313505364, -68.58266069926111 -4.374610392849939, -68.46141600162323 -4.836968972727544 M-68.737837007091 -3.782855877257341 C-68.64839152098868 -4.123950281684403, -68.55894603488636 -4.465044686111464, -68.46141600162323 -4.836968972727544 M-68.46141600162323 -4.836968972727544 C-68.36181969241348 -5.136937187550451, -68.26222338320372 -5.43690540237336, -68.11802567484594 -5.871205925162218 M-68.46141600162323 -4.836968972727544 C-68.35517067929716 -5.156962955680423, -68.24892535697109 -5.476956938633302, -68.11802567484594 -5.871205925162218 M-68.11802567484594 -5.871205925162218 C-68.00576499797472 -6.1484919674466525, -67.8935043211035 -6.425778009731087, -67.70907709126881 -6.881316833080692 M-68.11802567484594 -5.871205925162218 C-68.0214501732605 -6.109749281238524, -67.92487467167508 -6.34829263731483, -67.70907709126881 -6.881316833080692 M-67.70907709126881 -6.881316833080692 C-67.53837301981757 -7.235787489931205, -67.36766894836633 -7.590258146781719, -67.236250708341 -7.863150934094194 M-67.70907709126881 -6.881316833080692 C-67.56920398127623 -7.171766338785399, -67.42933087128365 -7.462215844490106, -67.236250708341 -7.863150934094194 M-67.236250708341 -7.863150934094194 C-67.08843824025102 -8.125606938823378, -66.94062577216104 -8.38806294355256, -66.70148947109088 -8.812673661278929 M-67.236250708341 -7.863150934094194 C-67.05415716651618 -8.186476456574734, -66.87206362469135 -8.509801979055275, -66.70148947109088 -8.812673661278929 M-66.70148947109088 -8.812673661278929 C-66.55887449999557 -9.031768554363216, -66.41625952890027 -9.250863447447504, -66.10699082814826 -9.725983222076884 M-66.70148947109088 -8.812673661278929 C-66.5476612620789 -9.048995098979207, -66.39383305306693 -9.285316536679487, -66.10699082814826 -9.725983222076884 M-66.10699082814826 -9.725983222076884 C-65.8554005595554 -10.06309126164631, -65.60381029096256 -10.400199301215734, -65.45519770195651 -10.599326631598467 M-66.10699082814826 -9.725983222076884 C-65.85420254818764 -10.064696487738042, -65.60141426822702 -10.4034097533992, -65.45519770195651 -10.599326631598467 M-65.45519770195651 -10.599326631598467 C-65.18309435217486 -10.918954709371217, -64.9109910023932 -11.238582787143967, -64.74878845028037 -11.42911513444238 M-65.45519770195651 -10.599326631598467 C-65.2976484859539 -10.784392905519478, -65.1400992699513 -10.96945917944049, -64.74878845028037 -11.42911513444238 M-64.74878845028037 -11.42911513444238 C-64.53679543158124 -11.648015331199755, -64.32480241288211 -11.866915527957131, -63.99066586025928 -12.21193895166136 M-64.74878845028037 -11.42911513444238 C-64.51108731886418 -11.674561068255425, -64.273386187448 -11.920007002068468, -63.99066586025928 -12.21193895166136 M-63.99066586025928 -12.21193895166136 C-63.76625051572038 -12.415747029866944, -63.54183517118149 -12.61955510807253, -63.18394522023242 -12.944581292275274 M-63.99066586025928 -12.21193895166136 C-63.708547024773175 -12.468151813594492, -63.42642818928707 -12.724364675527625, -63.18394522023242 -12.944581292275274 M-63.18394522023242 -12.944581292275274 C-62.94584185293149 -13.134462391501058, -62.70773848563056 -13.324343490726843, -62.331941518350675 -13.624031571755259 M-63.18394522023242 -12.944581292275274 C-62.857354018923814 -13.205029084362021, -62.530762817615205 -13.46547687644877, -62.331941518350675 -13.624031571755259 M-62.331941518350675 -13.624031571755259 C-62.1074350479905 -13.780637566750055, -61.882928577630324 -13.93724356174485, -61.43815582057934 -14.247497783161284 M-62.331941518350675 -13.624031571755259 C-62.04636179780035 -13.82323962226431, -61.760782077250035 -14.022447672773362, -61.43815582057934 -14.247497783161284 M-61.43815582057934 -14.247497783161284 C-61.181308218799956 -14.403200308764, -60.924460617020564 -14.558902834366712, -60.50626088406695 -14.812417970097618 M-61.43815582057934 -14.247497783161284 C-61.192962448278834 -14.396135446366046, -60.94776907597833 -14.544773109570807, -60.50626088406695 -14.812417970097618 M-60.50626088406695 -14.812417970097618 C-60.1293033933133 -15.009076451571, -59.75234590255965 -15.205734933044381, -59.54008606499849 -15.316470754341124 M-60.50626088406695 -14.812417970097618 C-60.256692620267074 -14.942617573465908, -60.0071243564672 -15.0728171768342, -59.54008606499849 -15.316470754341124 M-59.54008606499849 -15.316470754341124 C-59.32593513559296 -15.411269018227339, -59.11178420618743 -15.506067282113554, -58.54360158294937 -15.757584874882365 M-59.54008606499849 -15.316470754341124 C-59.23620853653511 -15.450988321985257, -58.93233100807173 -15.58550588962939, -58.54360158294937 -15.757584874882365 M-58.54360158294937 -15.757584874882365 C-58.139973023366466 -15.90612391591038, -57.73634446378355 -16.054662956938394, -57.520902206401566 -16.133947699181363 M-58.54360158294937 -15.757584874882365 C-58.24880567386557 -15.866072494488716, -57.954009764781766 -15.974560114095068, -57.520902206401566 -16.133947699181363 M-57.520902206401566 -16.133947699181363 C-57.194186656012086 -16.23091515957204, -56.867471105622606 -16.32788261996272, -56.47619042646164 -16.444012671663494 M-57.520902206401566 -16.133947699181363 C-57.28346117532977 -16.204418950850066, -57.046020144257966 -16.274890202518772, -56.47619042646164 -16.444012671663494 M-56.47619042646164 -16.444012671663494 C-56.12591582672501 -16.523960563298, -55.77564122698839 -16.603908454932508, -55.41375918792333 -16.68650566884811 M-56.47619042646164 -16.444012671663494 C-56.19800041225408 -16.50750772704687, -55.91981039804653 -16.571002782430252, -55.41375918792333 -16.68650566884811 M-55.41375918792333 -16.68650566884811 C-55.191215452616945 -16.722484814120005, -54.96867171731056 -16.758463959391896, -54.33797424863661 -16.86043023499518 M-55.41375918792333 -16.68650566884811 C-55.194437072664385 -16.72196396757477, -54.97511495740544 -16.75742226630143, -54.33797424863661 -16.86043023499518 M-54.33797424863661 -16.86043023499518 C-54.07464663711324 -16.885833132981055, -53.81131902558986 -16.911236030966926, -53.25325623967212 -16.965071676755716 M-54.33797424863661 -16.86043023499518 C-53.950401227476526 -16.89781893822174, -53.56282820631644 -16.9352076414483, -53.25325623967212 -16.965071676755716 M-53.25325623967212 -16.965071676755716 C-52.90121212715723 -16.976361046231773, -52.54916801464234 -16.98765041570783, -52.16406250000001 -17 M-53.25325623967212 -16.965071676755716 C-53.02219791282505 -16.972481267569954, -52.79113958597797 -16.979890858384188, -52.16406250000001 -17 M-52.16406250000001 -17 C-52.16406250000001 -17, -52.1640625 -17, -52.1640625 -17 M-52.16406250000001 -17 C-52.16406250000001 -17, -52.1640625 -17, -52.1640625 -17" stroke="#9370DB" stroke-width="1.3" fill="none" stroke-dasharray="0 0" style=""></path></g><g class="label" style="" transform="translate(0, -9.5)"><rect></rect><g><rect class="background" style="stroke: none"></rect><text y="-10.1" style=""><tspan class="text-outer-tspan row" x="0" y="-0.1em" dy="1.1em"><tspan font-style="normal" class="text-inner-tspan" font-weight="normal">New</tspan><tspan font-style="normal" class="text-inner-tspan" font-weight="normal"> API</tspan><tspan font-style="normal" class="text-inner-tspan" font-weight="normal"> surface</tspan></tspan></text></g></g></g><g class="node default" id="g9309903e-11d5-4a90-9fe0-c0361d27c938-light-flowchart-Q1-2" data-look="classic" transform="translate(401.85000228881836, 185.85468292236328)"><polygon points="93.85468673706055,0 187.7093734741211,-93.85468673706055 93.85468673706055,-187.7093734741211 0,-93.85468673706055" class="label-container" transform="translate(-93.35468673706055, 93.85468673706055)"></polygon><g class="label" style="" transform="translate(0, -18.299999237060547)"><rect></rect><g><rect class="background" style="stroke: none"></rect><text y="-10.1" style=""><tspan class="text-outer-tspan row" x="0" y="-0.1em" dy="1.1em"><tspan font-style="normal" class="text-inner-tspan" font-weight="normal">Browser</tspan><tspan font-style="normal" class="text-inner-tspan" font-weight="normal"> is</tspan><tspan font-style="normal" class="text-inner-tspan" font-weight="normal"> a</tspan></tspan><tspan class="text-outer-tspan row" x="0" y="1em" dy="1.1em"><tspan font-style="normal" class="text-inner-tspan" font-weight="normal">first-class</tspan><tspan font-style="normal" class="text-inner-tspan" font-weight="normal"> client?</tspan></tspan></text></g></g></g><g class="node default" id="g9309903e-11d5-4a90-9fe0-c0361d27c938-light-flowchart-Q2-4" data-look="classic" transform="translate(243.14922332763672, 459.89998626708984)"><polygon points="107.19062423706055,0 214.3812484741211,-107.19062423706055 107.19062423706055,-214.3812484741211 0,-107.19062423706055" class="label-container" transform="translate(-106.69062423706055, 107.19062423706055)"></polygon><g class="label" style="" transform="translate(0, -18.299999237060547)"><rect></rect><g><rect class="background" style="stroke: none"></rect><text y="-10.1" style=""><tspan class="text-outer-tspan row" x="0" y="-0.1em" dy="1.1em"><tspan font-style="normal" class="text-inner-tspan" font-weight="normal">Clients</tspan><tspan font-style="normal" class="text-inner-tspan" font-weight="normal"> fetch</tspan></tspan><tspan class="text-outer-tspan row" x="0" y="1em" dy="1.1em"><tspan font-style="normal" class="text-inner-tspan" font-weight="normal">varying</tspan><tspan font-style="normal" class="text-inner-tspan" font-weight="normal"> field</tspan><tspan font-style="normal" class="text-inner-tspan" font-weight="normal"> shapes?</tspan></tspan></text></g></g></g><g class="node default" id="g9309903e-11d5-4a90-9fe0-c0361d27c938-light-flowchart-Q3-6" data-look="classic" transform="translate(658.2828178405762, 743.5156097412109)"><polygon points="89.39374923706055,0 178.7874984741211,-89.39374923706055 89.39374923706055,-178.7874984741211 0,-89.39374923706055" class="label-container" transform="translate(-88.89374923706055, 89.39374923706055)"></polygon><g class="label" style="" transform="translate(0, -18.299999237060547)"><rect></rect><g><rect class="background" style="stroke: none"></rect><text y="-10.1" style=""><tspan class="text-outer-tspan row" x="0" y="-0.1em" dy="1.1em"><tspan font-style="normal" class="text-inner-tspan" font-weight="normal">Need</tspan><tspan font-style="normal" class="text-inner-tspan" font-weight="normal"> streaming</tspan></tspan><tspan class="text-outer-tspan row" x="0" y="1em" dy="1.1em"><tspan font-style="normal" class="text-inner-tspan" font-weight="normal">or</tspan><tspan font-style="normal" class="text-inner-tspan" font-weight="normal"> sub-ms</tspan><tspan font-style="normal" class="text-inner-tspan" font-weight="normal"> RPC?</tspan></tspan></text></g></g></g><g class="node default" id="g9309903e-11d5-4a90-9fe0-c0361d27c938-light-flowchart-GQL-8" data-look="classic" transform="translate(374.8734436035156, 743.5156097412109)"><rect class="basic label-container" style="" x="-110.0234375" y="-50.900001525878906" width="220.046875" height="101.80000305175781"></rect><g class="label" style="" transform="translate(0, -35.900001525878906)"><rect></rect><g><rect class="background" style="stroke: none"></rect><text y="-10.1" style=""><tspan class="text-outer-tspan row" x="0" y="-0.1em" dy="1.1em"><tspan font-style="normal" class="text-inner-tspan" font-weight="normal">Use</tspan><tspan font-style="normal" class="text-inner-tspan" font-weight="normal"> GraphQL</tspan></tspan><tspan class="text-outer-tspan row" x="0" y="1em" dy="1.1em"><tspan font-style="normal" class="text-inner-tspan" font-weight="normal">add</tspan><tspan font-style="normal" class="text-inner-tspan" font-weight="normal"> depth/complexity</tspan></tspan><tspan class="text-outer-tspan row" x="0" y="2.1em" dy="1.1em"><tspan font-style="normal" class="text-inner-tspan" font-weight="normal">limits</tspan></tspan><tspan class="text-outer-tspan row" x="0" y="3.2em" dy="1.1em"><tspan font-style="normal" class="text-inner-tspan" font-weight="normal">+</tspan><tspan font-style="normal" class="text-inner-tspan" font-weight="normal"> persisted</tspan><tspan font-style="normal" class="text-inner-tspan" font-weight="normal"> operations</tspan></tspan></text></g></g></g><g class="node default" id="g9309903e-11d5-4a90-9fe0-c0361d27c938-light-flowchart-Q4-10" data-look="classic" transform="translate(111.42500305175781, 743.5156097412109)"><polygon points="103.42499923706055,0 206.8499984741211,-103.42499923706055 103.42499923706055,-206.8499984741211 0,-103.42499923706055" class="label-container" transform="translate(-102.92499923706055, 103.42499923706055)"></polygon><g class="label" style="" transform="translate(0, -18.299999237060547)"><rect></rect><g><rect class="background" style="stroke: none"></rect><text y="-10.1" style=""><tspan class="text-outer-tspan row" x="0" y="-0.1em" dy="1.1em"><tspan font-style="normal" class="text-inner-tspan" font-weight="normal">Public</tspan><tspan font-style="normal" class="text-inner-tspan" font-weight="normal"> /</tspan><tspan font-style="normal" class="text-inner-tspan" font-weight="normal"> third-party</tspan></tspan><tspan class="text-outer-tspan row" x="0" y="1em" dy="1.1em"><tspan font-style="normal" class="text-inner-tspan" font-weight="normal">integrators?</tspan></tspan></text></g></g></g><g class="node default" id="g9309903e-11d5-4a90-9fe0-c0361d27c938-light-flowchart-REST-12" data-look="classic" transform="translate(235.9210968017578, 1270.0468673706055)"><rect class="basic label-container" style="" x="-115.59375" y="-42.099998474121094" width="231.1875" height="84.19999694824219"></rect><g class="label" style="" transform="translate(0, -27.099998474121094)"><rect></rect><g><rect class="background" style="stroke: none"></rect><text y="-10.1" style=""><tspan class="text-outer-tspan row" x="0" y="-0.1em" dy="1.1em"><tspan font-style="normal" class="text-inner-tspan" font-weight="normal">Use</tspan><tspan font-style="normal" class="text-inner-tspan" font-weight="normal"> REST</tspan></tspan><tspan class="text-outer-tspan row" x="0" y="1em" dy="1.1em"><tspan font-style="normal" class="text-inner-tspan" font-weight="normal">cacheable,</tspan><tspan font-style="normal" class="text-inner-tspan" font-weight="normal"> debuggable,</tspan></tspan><tspan class="text-outer-tspan row" x="0" y="2.1em" dy="1.1em"><tspan font-style="normal" class="text-inner-tspan" font-weight="normal">tooling-rich</tspan></tspan></text></g></g></g><g class="node default" id="g9309903e-11d5-4a90-9fe0-c0361d27c938-light-flowchart-Q5-14" data-look="classic" transform="translate(338.2765693664551, 1037.4437408447266)"><polygon points="117.50312423706055,0 235.0062484741211,-117.50312423706055 117.50312423706055,-235.0062484741211 0,-117.50312423706055" class="label-container" transform="translate(-117.00312423706055, 117.50312423706055)"></polygon><g class="label" style="" transform="translate(0, -18.299999237060547)"><rect></rect><g><rect class="background" style="stroke: none"></rect><text y="-10.1" style=""><tspan class="text-outer-tspan row" x="0" y="-0.1em" dy="1.1em"><tspan font-style="normal" class="text-inner-tspan" font-weight="normal">Server-to-server</tspan></tspan><tspan class="text-outer-tspan row" x="0" y="1em" dy="1.1em"><tspan font-style="normal" class="text-inner-tspan" font-weight="normal">but</tspan><tspan font-style="normal" class="text-inner-tspan" font-weight="normal"> browser-reachable?</tspan></tspan></text></g></g></g><g class="node default" id="g9309903e-11d5-4a90-9fe0-c0361d27c938-light-flowchart-gRPCWeb-16" data-look="classic" transform="translate(659.7593803405762, 1270.0468673706055)"><rect class="basic label-container" style="" x="-105.171875" y="-33.29999923706055" width="210.34375" height="66.5999984741211"></rect><g class="label" style="" transform="translate(0, -18.299999237060547)"><rect></rect><g><rect class="background" style="stroke: none"></rect><text y="-10.1" style=""><tspan class="text-outer-tspan row" x="0" y="-0.1em" dy="1.1em"><tspan font-style="normal" class="text-inner-tspan" font-weight="normal">Use</tspan><tspan font-style="normal" class="text-inner-tspan" font-weight="normal"> gRPC-Web</tspan></tspan><tspan class="text-outer-tspan row" x="0" y="1em" dy="1.1em"><tspan font-style="normal" class="text-inner-tspan" font-weight="normal">via</tspan><tspan font-style="normal" class="text-inner-tspan" font-weight="normal"> Envoy</tspan><tspan font-style="normal" class="text-inner-tspan" font-weight="normal"> or</tspan><tspan font-style="normal" class="text-inner-tspan" font-weight="normal"> Connect</tspan></tspan></text></g></g></g><g class="node default" id="g9309903e-11d5-4a90-9fe0-c0361d27c938-light-flowchart-gRPC-20" data-look="classic" transform="translate(946.3023490905762, 1270.0468673706055)"><rect class="basic label-container" style="" x="-127.1484375" y="-42.099998474121094" width="254.296875" height="84.19999694824219"></rect><g class="label" style="" transform="translate(0, -27.099998474121094)"><rect></rect><g><rect class="background" style="stroke: none"></rect><text y="-10.1" style=""><tspan class="text-outer-tspan row" x="0" y="-0.1em" dy="1.1em"><tspan font-style="normal" class="text-inner-tspan" font-weight="normal">Use</tspan><tspan font-style="normal" class="text-inner-tspan" font-weight="normal"> gRPC</tspan></tspan><tspan class="text-outer-tspan row" x="0" y="1em" dy="1.1em"><tspan font-style="normal" class="text-inner-tspan" font-weight="normal">HTTP/2</tspan><tspan font-style="normal" class="text-inner-tspan" font-weight="normal"> streams,</tspan><tspan font-style="normal" class="text-inner-tspan" font-weight="normal"> protobuf,</tspan></tspan><tspan class="text-outer-tspan row" x="0" y="2.1em" dy="1.1em"><tspan font-style="normal" class="text-inner-tspan" font-weight="normal">code-gen</tspan><tspan font-style="normal" class="text-inner-tspan" font-weight="normal"> contracts</tspan></tspan></text></g></g></g><g class="node default" id="g9309903e-11d5-4a90-9fe0-c0361d27c938-light-flowchart-Q6-22" data-look="classic" transform="translate(615.0328178405762, 1037.4437408447266)"><polygon points="109.25312423706055,0 218.5062484741211,-109.25312423706055 109.25312423706055,-218.5062484741211 0,-109.25312423706055" class="label-container" transform="translate(-108.75312423706055, 109.25312423706055)"></polygon><g class="label" style="" transform="translate(0, -18.299999237060547)"><rect></rect><g><rect class="background" style="stroke: none"></rect><text y="-10.1" style=""><tspan class="text-outer-tspan row" x="0" y="-0.1em" dy="1.1em"><tspan font-style="normal" class="text-inner-tspan" font-weight="normal">Multilingual</tspan><tspan font-style="normal" class="text-inner-tspan" font-weight="normal"> fleet</tspan></tspan><tspan class="text-outer-tspan row" x="0" y="1em" dy="1.1em"><tspan font-style="normal" class="text-inner-tspan" font-weight="normal">with</tspan><tspan font-style="normal" class="text-inner-tspan" font-weight="normal"> strict</tspan><tspan font-style="normal" class="text-inner-tspan" font-weight="normal"> contracts?</tspan></tspan></text></g></g></g></g></g></g><defs><filter id="g9309903e-11d5-4a90-9fe0-c0361d27c938-light-drop-shadow" height="130%" width="130%"><feDropShadow dx="4" dy="4" stdDeviation="0" flood-opacity="0.06" flood-color="#000000"></feDropShadow></filter></defs><defs><filter id="g9309903e-11d5-4a90-9fe0-c0361d27c938-light-drop-shadow-small" height="150%" width="150%"><feDropShadow dx="2" dy="2" stdDeviation="0" flood-opacity="0.06" flood-color="#000000"></feDropShadow></filter></defs></svg>