<svg id="g5c9350c1-0583-4e78-9c90-3d9787defc02-dark" width="100%" xmlns="http://www.w3.org/2000/svg" xmlns:xlink="http://www.w3.org/1999/xlink" class="flowchart" style="max-width: 837.359375px;" viewBox="0 0 837.359375 821.9400634765625" role="graphics-document document" aria-roledescription="flowchart-v2"><style>#g5c9350c1-0583-4e78-9c90-3d9787defc02-dark{font-family:"trebuchet ms",verdana,arial,sans-serif;font-size:16px;fill:#e5e5e5;}@keyframes edge-animation-frame{from{stroke-dashoffset:0;}}@keyframes dash{to{stroke-dashoffset:0;}}#g5c9350c1-0583-4e78-9c90-3d9787defc02-dark .edge-animation-slow{stroke-dasharray:9,5!important;stroke-dashoffset:900;animation:dash 50s linear infinite;stroke-linecap:round;}#g5c9350c1-0583-4e78-9c90-3d9787defc02-dark .edge-animation-fast{stroke-dasharray:9,5!important;stroke-dashoffset:900;animation:dash 20s linear infinite;stroke-linecap:round;}#g5c9350c1-0583-4e78-9c90-3d9787defc02-dark .error-icon{fill:#252525;}#g5c9350c1-0583-4e78-9c90-3d9787defc02-dark .error-text{fill:#cccccc;stroke:#cccccc;}#g5c9350c1-0583-4e78-9c90-3d9787defc02-dark .edge-thickness-normal{stroke-width:1px;}#g5c9350c1-0583-4e78-9c90-3d9787defc02-dark .edge-thickness-thick{stroke-width:3.5px;}#g5c9350c1-0583-4e78-9c90-3d9787defc02-dark .edge-pattern-solid{stroke-dasharray:0;}#g5c9350c1-0583-4e78-9c90-3d9787defc02-dark .edge-thickness-invisible{stroke-width:0;fill:none;}#g5c9350c1-0583-4e78-9c90-3d9787defc02-dark .edge-pattern-dashed{stroke-dasharray:3;}#g5c9350c1-0583-4e78-9c90-3d9787defc02-dark .edge-pattern-dotted{stroke-dasharray:2;}#g5c9350c1-0583-4e78-9c90-3d9787defc02-dark .marker{fill:#cccccc;stroke:#cccccc;}#g5c9350c1-0583-4e78-9c90-3d9787defc02-dark .marker.cross{stroke:#cccccc;}#g5c9350c1-0583-4e78-9c90-3d9787defc02-dark svg{font-family:"trebuchet ms",verdana,arial,sans-serif;font-size:16px;}#g5c9350c1-0583-4e78-9c90-3d9787defc02-dark p{margin:0;}#g5c9350c1-0583-4e78-9c90-3d9787defc02-dark .label{font-family:"trebuchet ms",verdana,arial,sans-serif;color:#e5e5e5;}#g5c9350c1-0583-4e78-9c90-3d9787defc02-dark .cluster-label text{fill:#e5e5e5;}#g5c9350c1-0583-4e78-9c90-3d9787defc02-dark .cluster-label span{color:#e5e5e5;}#g5c9350c1-0583-4e78-9c90-3d9787defc02-dark .cluster-label span p{background-color:transparent;}#g5c9350c1-0583-4e78-9c90-3d9787defc02-dark .label text,#g5c9350c1-0583-4e78-9c90-3d9787defc02-dark span{fill:#e5e5e5;color:#e5e5e5;}#g5c9350c1-0583-4e78-9c90-3d9787defc02-dark .node rect,#g5c9350c1-0583-4e78-9c90-3d9787defc02-dark .node circle,#g5c9350c1-0583-4e78-9c90-3d9787defc02-dark .node ellipse,#g5c9350c1-0583-4e78-9c90-3d9787defc02-dark .node polygon,#g5c9350c1-0583-4e78-9c90-3d9787defc02-dark .node path{fill:#2d2d2d;stroke:#555555;stroke-width:1px;}#g5c9350c1-0583-4e78-9c90-3d9787defc02-dark .rough-node .label text,#g5c9350c1-0583-4e78-9c90-3d9787defc02-dark .node .label text,#g5c9350c1-0583-4e78-9c90-3d9787defc02-dark .image-shape .label,#g5c9350c1-0583-4e78-9c90-3d9787defc02-dark .icon-shape .label{text-anchor:middle;}#g5c9350c1-0583-4e78-9c90-3d9787defc02-dark .node .katex path{fill:#000;stroke:#000;stroke-width:1px;}#g5c9350c1-0583-4e78-9c90-3d9787defc02-dark .rough-node .label,#g5c9350c1-0583-4e78-9c90-3d9787defc02-dark .node .label,#g5c9350c1-0583-4e78-9c90-3d9787defc02-dark .image-shape .label,#g5c9350c1-0583-4e78-9c90-3d9787defc02-dark .icon-shape .label{text-align:center;}#g5c9350c1-0583-4e78-9c90-3d9787defc02-dark .node.clickable{cursor:pointer;}#g5c9350c1-0583-4e78-9c90-3d9787defc02-dark .root .anchor path{fill:#cccccc!important;stroke-width:0;stroke:#cccccc;}#g5c9350c1-0583-4e78-9c90-3d9787defc02-dark .arrowheadPath{fill:#cccccc;}#g5c9350c1-0583-4e78-9c90-3d9787defc02-dark .edgePath .path{stroke:#cccccc;stroke-width:1px;}#g5c9350c1-0583-4e78-9c90-3d9787defc02-dark .flowchart-link{stroke:#cccccc;fill:none;}#g5c9350c1-0583-4e78-9c90-3d9787defc02-dark .edgeLabel{background-color:#1e1e1e;text-align:center;}#g5c9350c1-0583-4e78-9c90-3d9787defc02-dark .edgeLabel p{background-color:#1e1e1e;}#g5c9350c1-0583-4e78-9c90-3d9787defc02-dark .edgeLabel rect{opacity:0.5;background-color:#1e1e1e;fill:#1e1e1e;}#g5c9350c1-0583-4e78-9c90-3d9787defc02-dark .labelBkg{background-color:rgba(30, 30, 30, 0.5);}#g5c9350c1-0583-4e78-9c90-3d9787defc02-dark .cluster rect{fill:#1e1e1e;stroke:#555555;stroke-width:1px;}#g5c9350c1-0583-4e78-9c90-3d9787defc02-dark .cluster text{fill:#e5e5e5;}#g5c9350c1-0583-4e78-9c90-3d9787defc02-dark .cluster span{color:#e5e5e5;}#g5c9350c1-0583-4e78-9c90-3d9787defc02-dark div.mermaidTooltip{position:absolute;text-align:center;max-width:200px;padding:2px;font-family:"trebuchet ms",verdana,arial,sans-serif;font-size:12px;background:#252525;border:1px solid #555555;border-radius:2px;pointer-events:none;z-index:100;}#g5c9350c1-0583-4e78-9c90-3d9787defc02-dark .flowchartTitleText{text-anchor:middle;font-size:18px;fill:#e5e5e5;}#g5c9350c1-0583-4e78-9c90-3d9787defc02-dark rect.text{fill:none;stroke-width:0;}#g5c9350c1-0583-4e78-9c90-3d9787defc02-dark .icon-shape,#g5c9350c1-0583-4e78-9c90-3d9787defc02-dark .image-shape{background-color:#1e1e1e;text-align:center;}#g5c9350c1-0583-4e78-9c90-3d9787defc02-dark .icon-shape p,#g5c9350c1-0583-4e78-9c90-3d9787defc02-dark .image-shape p{background-color:#1e1e1e;padding:2px;}#g5c9350c1-0583-4e78-9c90-3d9787defc02-dark .icon-shape .label rect,#g5c9350c1-0583-4e78-9c90-3d9787defc02-dark .image-shape .label rect{opacity:0.5;background-color:#1e1e1e;fill:#1e1e1e;}#g5c9350c1-0583-4e78-9c90-3d9787defc02-dark .label-icon{display:inline-block;height:1em;overflow:visible;vertical-align:-0.125em;}#g5c9350c1-0583-4e78-9c90-3d9787defc02-dark .node .label-icon path{fill:currentColor;stroke:revert;stroke-width:revert;}#g5c9350c1-0583-4e78-9c90-3d9787defc02-dark .node .neo-node{stroke:#555555;}#g5c9350c1-0583-4e78-9c90-3d9787defc02-dark [data-look="neo"].node rect,#g5c9350c1-0583-4e78-9c90-3d9787defc02-dark [data-look="neo"].cluster rect,#g5c9350c1-0583-4e78-9c90-3d9787defc02-dark [data-look="neo"].node polygon{stroke:url(#g5c9350c1-0583-4e78-9c90-3d9787defc02-dark-gradient);filter:drop-shadow( 1px 2px 2px rgba(185,185,185,1));}#g5c9350c1-0583-4e78-9c90-3d9787defc02-dark [data-look="neo"].node path{stroke:url(#g5c9350c1-0583-4e78-9c90-3d9787defc02-dark-gradient);stroke-width:1px;}#g5c9350c1-0583-4e78-9c90-3d9787defc02-dark [data-look="neo"].node .outer-path{filter:drop-shadow( 1px 2px 2px rgba(185,185,185,1));}#g5c9350c1-0583-4e78-9c90-3d9787defc02-dark [data-look="neo"].node .neo-line path{stroke:#555555;filter:none;}#g5c9350c1-0583-4e78-9c90-3d9787defc02-dark [data-look="neo"].node circle{stroke:url(#g5c9350c1-0583-4e78-9c90-3d9787defc02-dark-gradient);filter:drop-shadow( 1px 2px 2px rgba(185,185,185,1));}#g5c9350c1-0583-4e78-9c90-3d9787defc02-dark [data-look="neo"].node circle .state-start{fill:#000000;}#g5c9350c1-0583-4e78-9c90-3d9787defc02-dark [data-look="neo"].icon-shape .icon{fill:url(#g5c9350c1-0583-4e78-9c90-3d9787defc02-dark-gradient);filter:drop-shadow( 1px 2px 2px rgba(185,185,185,1));}#g5c9350c1-0583-4e78-9c90-3d9787defc02-dark [data-look="neo"].icon-shape .icon-neo path{stroke:url(#g5c9350c1-0583-4e78-9c90-3d9787defc02-dark-gradient);filter:drop-shadow( 1px 2px 2px rgba(185,185,185,1));}#g5c9350c1-0583-4e78-9c90-3d9787defc02-dark :root{--mermaid-font-family:"trebuchet ms",verdana,arial,sans-serif;}#g5c9350c1-0583-4e78-9c90-3d9787defc02-dark .pass rect{fill:#2D7A2D!important;stroke:#1E5A1E!important;color:#ffffff!important;}#g5c9350c1-0583-4e78-9c90-3d9787defc02-dark .pass polygon{fill:#2D7A2D!important;stroke:#1E5A1E!important;color:#ffffff!important;}#g5c9350c1-0583-4e78-9c90-3d9787defc02-dark .pass ellipse{fill:#2D7A2D!important;stroke:#1E5A1E!important;color:#ffffff!important;}#g5c9350c1-0583-4e78-9c90-3d9787defc02-dark .pass circle{fill:#2D7A2D!important;stroke:#1E5A1E!important;color:#ffffff!important;}#g5c9350c1-0583-4e78-9c90-3d9787defc02-dark .pass path{fill:#2D7A2D!important;stroke:#1E5A1E!important;color:#ffffff!important;}#g5c9350c1-0583-4e78-9c90-3d9787defc02-dark .pass tspan{fill:#ffffff!important;}#g5c9350c1-0583-4e78-9c90-3d9787defc02-dark .drop rect{fill:#B43A3A!important;stroke:#8E2828!important;color:#ffffff!important;}#g5c9350c1-0583-4e78-9c90-3d9787defc02-dark .drop polygon{fill:#B43A3A!important;stroke:#8E2828!important;color:#ffffff!important;}#g5c9350c1-0583-4e78-9c90-3d9787defc02-dark .drop ellipse{fill:#B43A3A!important;stroke:#8E2828!important;color:#ffffff!important;}#g5c9350c1-0583-4e78-9c90-3d9787defc02-dark .drop circle{fill:#B43A3A!important;stroke:#8E2828!important;color:#ffffff!important;}#g5c9350c1-0583-4e78-9c90-3d9787defc02-dark .drop path{fill:#B43A3A!important;stroke:#8E2828!important;color:#ffffff!important;}#g5c9350c1-0583-4e78-9c90-3d9787defc02-dark .drop tspan{fill:#ffffff!important;}</style><g><marker id="g5c9350c1-0583-4e78-9c90-3d9787defc02-dark_flowchart-v2-pointEnd" class="marker flowchart-v2" viewBox="0 0 10 10" refX="5" refY="5" markerUnits="userSpaceOnUse" markerWidth="8" markerHeight="8" orient="auto"><path d="M 0 0 L 10 5 L 0 10 z" class="arrowMarkerPath" style="stroke-width: 1; stroke-dasharray: 1, 0;"></path></marker><marker id="g5c9350c1-0583-4e78-9c90-3d9787defc02-dark_flowchart-v2-pointStart" class="marker flowchart-v2" viewBox="0 0 10 10" refX="4.5" refY="5" markerUnits="userSpaceOnUse" markerWidth="8" markerHeight="8" orient="auto"><path d="M 0 5 L 10 10 L 10 0 z" class="arrowMarkerPath" style="stroke-width: 1; stroke-dasharray: 1, 0;"></path></marker><marker id="g5c9350c1-0583-4e78-9c90-3d9787defc02-dark_flowchart-v2-pointEnd-margin" class="marker flowchart-v2" viewBox="0 0 11.5 14" refX="11.5" refY="7" markerUnits="userSpaceOnUse" markerWidth="10.5" markerHeight="14" orient="auto"><path d="M 0 0 L 11.5 7 L 0 14 z" class="arrowMarkerPath" style="stroke-width: 0; stroke-dasharray: 1, 0;"></path></marker><marker id="g5c9350c1-0583-4e78-9c90-3d9787defc02-dark_flowchart-v2-pointStart-margin" class="marker flowchart-v2" viewBox="0 0 11.5 14" refX="1" refY="7" markerUnits="userSpaceOnUse" markerWidth="11.5" markerHeight="14" orient="auto"><polygon points="0,7 11.5,14 11.5,0" class="arrowMarkerPath" style="stroke-width: 0; stroke-dasharray: 1, 0;"></polygon></marker><marker id="g5c9350c1-0583-4e78-9c90-3d9787defc02-dark_flowchart-v2-circleEnd" class="marker flowchart-v2" viewBox="0 0 10 10" refX="11" refY="5" markerUnits="userSpaceOnUse" markerWidth="11" markerHeight="11" orient="auto"><circle cx="5" cy="5" r="5" class="arrowMarkerPath" style="stroke-width: 1; stroke-dasharray: 1, 0;"></circle></marker><marker id="g5c9350c1-0583-4e78-9c90-3d9787defc02-dark_flowchart-v2-circleStart" class="marker flowchart-v2" viewBox="0 0 10 10" refX="-1" refY="5" markerUnits="userSpaceOnUse" markerWidth="11" markerHeight="11" orient="auto"><circle cx="5" cy="5" r="5" class="arrowMarkerPath" style="stroke-width: 1; stroke-dasharray: 1, 0;"></circle></marker><marker id="g5c9350c1-0583-4e78-9c90-3d9787defc02-dark_flowchart-v2-circleEnd-margin" class="marker flowchart-v2" viewBox="0 0 10 10" refY="5" refX="12.25" markerUnits="userSpaceOnUse" markerWidth="14" markerHeight="14" orient="auto"><circle cx="5" cy="5" r="5" class="arrowMarkerPath" style="stroke-width: 0; stroke-dasharray: 1, 0;"></circle></marker><marker id="g5c9350c1-0583-4e78-9c90-3d9787defc02-dark_flowchart-v2-circleStart-margin" class="marker flowchart-v2" viewBox="0 0 10 10" refX="-2" refY="5" markerUnits="userSpaceOnUse" markerWidth="14" markerHeight="14" orient="auto"><circle cx="5" cy="5" r="5" class="arrowMarkerPath" style="stroke-width: 0; stroke-dasharray: 1, 0;"></circle></marker><marker id="g5c9350c1-0583-4e78-9c90-3d9787defc02-dark_flowchart-v2-crossEnd" class="marker cross flowchart-v2" viewBox="0 0 11 11" refX="12" refY="5.2" markerUnits="userSpaceOnUse" markerWidth="11" markerHeight="11" orient="auto"><path d="M 1,1 l 9,9 M 10,1 l -9,9" class="arrowMarkerPath" style="stroke-width: 2; stroke-dasharray: 1, 0;"></path></marker><marker id="g5c9350c1-0583-4e78-9c90-3d9787defc02-dark_flowchart-v2-crossStart" class="marker cross flowchart-v2" viewBox="0 0 11 11" refX="-1" refY="5.2" markerUnits="userSpaceOnUse" markerWidth="11" markerHeight="11" orient="auto"><path d="M 1,1 l 9,9 M 10,1 l -9,9" class="arrowMarkerPath" style="stroke-width: 2; stroke-dasharray: 1, 0;"></path></marker><marker id="g5c9350c1-0583-4e78-9c90-3d9787defc02-dark_flowchart-v2-crossEnd-margin" class="marker cross flowchart-v2" viewBox="0 0 15 15" refX="17.7" refY="7.5" markerUnits="userSpaceOnUse" markerWidth="12" markerHeight="12" orient="auto"><path d="M 1,1 L 14,14 M 1,14 L 14,1" class="arrowMarkerPath" style="stroke-width: 2.5;"></path></marker><marker id="g5c9350c1-0583-4e78-9c90-3d9787defc02-dark_flowchart-v2-crossStart-margin" class="marker cross flowchart-v2" viewBox="0 0 15 15" refX="-3.5" refY="7.5" markerUnits="userSpaceOnUse" markerWidth="12" markerHeight="12" orient="auto"><path d="M 1,1 L 14,14 M 1,14 L 14,1" class="arrowMarkerPath" style="stroke-width: 2.5; stroke-dasharray: 1, 0;"></path></marker><g class="root"><g class="clusters"></g><g class="edgePaths"><path d="M569.848,58.8L569.764,65.6C569.681,72.4,569.514,86,569.431,96.3C569.348,106.6,569.348,113.6,569.348,117.1L569.348,120.6" id="g5c9350c1-0583-4e78-9c90-3d9787defc02-dark-L_Req_Mode_0" class="edge-thickness-normal edge-pattern-solid edge-thickness-normal edge-pattern-solid flowchart-link" style=";" data-edge="true" data-et="edge" data-id="L_Req_Mode_0" data-points="W3sieCI6NTY5Ljg0NzY1NjI1LCJ5Ijo1OC43OTk5OTkyMzcwNjA1NX0seyJ4Ijo1NjkuMzQ3NjU2MjUsInkiOjk5LjU5OTk5ODQ3NDEyMTF9LHsieCI6NTY5LjM0NzY1NjI1LCJ5IjoxMjQuNTk5OTk4NDc0MTIxMX1d" data-look="classic" marker-end="url(#g5c9350c1-0583-4e78-9c90-3d9787defc02-dark_flowchart-v2-pointEnd)"></path><path d="M528.551,202.725L500.391,215.608C472.23,228.491,415.91,254.256,368.615,279.747C321.32,305.237,283.05,330.452,263.915,343.06L244.78,355.668" id="g5c9350c1-0583-4e78-9c90-3d9787defc02-dark-L_Mode_TBCheck_0" class="edge-thickness-normal edge-pattern-solid edge-thickness-normal edge-pattern-solid flowchart-link" style=";" data-edge="true" data-et="edge" data-id="L_Mode_TBCheck_0" data-points="W3sieCI6NTI4LjU1MDY5NDQwNDUxNTUsInkiOjIwMi43MjQ5MTE2Mjg2MzY1Nn0seyJ4IjozNTkuNTg5ODQzNzUsInkiOjI4MC4wMjE4NzM0NzQxMjExfSx7IngiOjI0MS40NDAzMTcwNDk4NjAxNywieSI6MzU3Ljg2ODQ0MDUyMzk4MTIzfV0=" data-look="classic" marker-end="url(#g5c9350c1-0583-4e78-9c90-3d9787defc02-dark_flowchart-v2-pointEnd)"></path><path d="M165.59,74.6L165.59,78.767C165.59,82.933,165.59,91.267,165.59,101.356C165.59,111.445,165.59,123.29,165.59,129.213L165.59,135.135" id="g5c9350c1-0583-4e78-9c90-3d9787defc02-dark-L_Refill_Bucket_0" class="edge-thickness-normal edge-pattern-solid edge-thickness-normal edge-pattern-solid flowchart-link" style=";" data-edge="true" data-et="edge" data-id="L_Refill_Bucket_0" data-points="W3sieCI6MTY1LjU4OTg0Mzc1LCJ5Ijo3NC41OTk5OTg0NzQxMjExfSx7IngiOjE2NS41ODk4NDM3NSwieSI6OTkuNTk5OTk4NDc0MTIxMX0seyJ4IjoxNjUuNTg5ODQzNzUsInkiOjEzOS4xMzU0MTAzMDg4Mzc5fV0=" data-look="classic" marker-end="url(#g5c9350c1-0583-4e78-9c90-3d9787defc02-dark_flowchart-v2-pointEnd)"></path><path d="M165.59,228.986L165.59,237.492C165.59,245.998,165.59,263.01,168.307,279.791C171.024,296.573,176.458,313.124,179.175,321.399L181.892,329.675" id="g5c9350c1-0583-4e78-9c90-3d9787defc02-dark-L_Bucket_TBCheck_0" class="edge-thickness-normal edge-pattern-solid edge-thickness-normal edge-pattern-solid flowchart-link" style=";" data-edge="true" data-et="edge" data-id="L_Bucket_TBCheck_0" data-points="W3sieCI6MTY1LjU4OTg0Mzc1LCJ5IjoyMjguOTg2NDYxNjM5NDA0M30seyJ4IjoxNjUuNTg5ODQzNzUsInkiOjI4MC4wMjE4NzM0NzQxMjExfSx7IngiOjE4My4xNDAyNDExMTYwODY3NCwieSI6MzMzLjQ3NTM4MjM1ODAzNDR9XQ==" data-look="classic" marker-end="url(#g5c9350c1-0583-4e78-9c90-3d9787defc02-dark_flowchart-v2-pointEnd)"></path><path d="M164.561,418.167L151.656,430.173C138.752,442.178,112.942,466.189,100.038,484.031C87.133,501.873,87.133,513.547,87.133,519.383L87.133,525.22" id="g5c9350c1-0583-4e78-9c90-3d9787defc02-dark-L_TBCheck_TBPass_0" class="edge-thickness-normal edge-pattern-solid edge-thickness-normal edge-pattern-solid flowchart-link" style=";" data-edge="true" data-et="edge" data-id="L_TBCheck_TBPass_0" data-points="W3sieCI6MTY0LjU2MTE0MjYyMzA3NDUsInkiOjQxOC4xNjczOTcyMDA3MTEyfSx7IngiOjg3LjEzMjgxMjUsInkiOjQ5MC4yMDAwMDQ1Nzc2MzY3fSx7IngiOjg3LjEzMjgxMjUsInkiOjUyOS4yMjAwNTQ2MjY0NjQ4fV0=" data-look="classic" marker-end="url(#g5c9350c1-0583-4e78-9c90-3d9787defc02-dark_flowchart-v2-pointEnd)"></path><path d="M235.626,418.167L248.531,430.173C261.436,442.178,287.245,466.189,300.15,484.031C313.055,501.873,313.055,513.547,313.055,519.383L313.055,525.22" id="g5c9350c1-0583-4e78-9c90-3d9787defc02-dark-L_TBCheck_TBDrop_0" class="edge-thickness-normal edge-pattern-solid edge-thickness-normal edge-pattern-solid flowchart-link" style=";" data-edge="true" data-et="edge" data-id="L_TBCheck_TBDrop_0" data-points="W3sieCI6MjM1LjYyNjM1NzM3NjkyNTQ4LCJ5Ijo0MTguMTY3Mzk3MjAwNzExMn0seyJ4IjozMTMuMDU0Njg3NSwieSI6NDkwLjIwMDAwNDU3NzYzNjd9LHsieCI6MzEzLjA1NDY4NzUsInkiOjUyOS4yMjAwNTQ2MjY0NjQ4fV0=" data-look="classic" marker-end="url(#g5c9350c1-0583-4e78-9c90-3d9787defc02-dark_flowchart-v2-pointEnd)"></path><path d="M591.83,221.039L597.807,230.87C603.784,240.7,615.738,260.361,621.715,277.677C627.691,294.993,627.691,309.965,627.691,317.45L627.691,324.936" id="g5c9350c1-0583-4e78-9c90-3d9787defc02-dark-L_Mode_LBQ_0" class="edge-thickness-normal edge-pattern-solid edge-thickness-normal edge-pattern-solid flowchart-link" style=";" data-edge="true" data-et="edge" data-id="L_Mode_LBQ_0" data-points="W3sieCI6NTkxLjgzMDI3ODk2NTMwNTUsInkiOjIyMS4wMzkyNTA3NTg4MTU2fSx7IngiOjYyNy42OTE0MDYyNSwieSI6MjgwLjAyMTg3MzQ3NDEyMTF9LHsieCI6NjI3LjY5MTQwNjI0OTk5OTksInkiOjMyOC45MzU5Mzk3ODg4MTgxfV0=" data-look="classic" marker-end="url(#g5c9350c1-0583-4e78-9c90-3d9787defc02-dark_flowchart-v2-pointEnd)"></path><path d="M599.632,413.227L586.829,426.055C574.026,438.884,548.419,464.542,535.616,482.788C522.813,501.033,522.813,511.867,522.813,517.283L522.813,522.7" id="g5c9350c1-0583-4e78-9c90-3d9787defc02-dark-L_LBQ_Queue_0" class="edge-thickness-normal edge-pattern-solid edge-thickness-normal edge-pattern-solid flowchart-link" style=";" data-edge="true" data-et="edge" data-id="L_LBQ_Queue_0" data-points="W3sieCI6NTk5LjYzMjAxOTcyNTM3MywieSI6NDEzLjIyNjU1MTczODMxMjd9LHsieCI6NTIyLjgxMjUsInkiOjQ5MC4yMDAwMDQ1Nzc2MzY3fSx7IngiOjUyMi44MTI1LCJ5Ijo1MjYuNzAwMDA0NTc3NjM2N31d" data-look="classic" marker-end="url(#g5c9350c1-0583-4e78-9c90-3d9787defc02-dark_flowchart-v2-pointEnd)"></path><path d="M655.751,413.227L668.554,426.055C681.357,438.884,706.964,464.542,719.767,483.208C732.57,501.873,732.57,513.547,732.57,519.383L732.57,525.22" id="g5c9350c1-0583-4e78-9c90-3d9787defc02-dark-L_LBQ_LBDrop_0" class="edge-thickness-normal edge-pattern-solid edge-thickness-normal edge-pattern-solid flowchart-link" style=";" data-edge="true" data-et="edge" data-id="L_LBQ_LBDrop_0" data-points="W3sieCI6NjU1Ljc1MDc5Mjc3NDYyNzEsInkiOjQxMy4yMjY1NTE3MzgzMTI2fSx7IngiOjczMi41NzAzMTI1LCJ5Ijo0OTAuMjAwMDA0NTc3NjM2N30seyJ4Ijo3MzIuNTcwMzEyNSwieSI6NTI5LjIyMDA1NDYyNjQ2NDh9XQ==" data-look="classic" marker-end="url(#g5c9350c1-0583-4e78-9c90-3d9787defc02-dark_flowchart-v2-pointEnd)"></path><path d="M522.813,598.34L522.813,602.507C522.813,606.673,522.813,615.007,522.813,622.673C522.813,630.34,522.813,637.34,522.813,640.84L522.813,644.34" id="g5c9350c1-0583-4e78-9c90-3d9787defc02-dark-L_Queue_Leak_0" class="edge-thickness-normal edge-pattern-solid edge-thickness-normal edge-pattern-solid flowchart-link" style=";" data-edge="true" data-et="edge" data-id="L_Queue_Leak_0" data-points="W3sieCI6NTIyLjgxMjUsInkiOjU5OC4zNDAxMDMxNDk0MTQxfSx7IngiOjUyMi44MTI1LCJ5Ijo2MjMuMzQwMTAzMTQ5NDE0MX0seyJ4Ijo1MjIuODEyNSwieSI6NjQ4LjM0MDEwMzE0OTQxNDF9XQ==" data-look="classic" marker-end="url(#g5c9350c1-0583-4e78-9c90-3d9787defc02-dark_flowchart-v2-pointEnd)"></path><path d="M522.813,697.34L522.813,701.507C522.813,705.673,522.813,714.007,522.813,721.673C522.813,729.34,522.813,736.34,522.813,739.84L522.813,743.34" id="g5c9350c1-0583-4e78-9c90-3d9787defc02-dark-L_Leak_LBPass_0" class="edge-thickness-normal edge-pattern-solid edge-thickness-normal edge-pattern-solid flowchart-link" style=";" data-edge="true" data-et="edge" data-id="L_Leak_LBPass_0" data-points="W3sieCI6NTIyLjgxMjUsInkiOjY5Ny4zNDAxMDMxNDk0MTQxfSx7IngiOjUyMi44MTI1LCJ5Ijo3MjIuMzQwMTAzMTQ5NDE0MX0seyJ4Ijo1MjIuODEyNSwieSI6NzQ3LjM0MDEwMzE0OTQxNDF9XQ==" data-look="classic" marker-end="url(#g5c9350c1-0583-4e78-9c90-3d9787defc02-dark_flowchart-v2-pointEnd)"></path></g><g class="edgeLabels"><g class="edgeLabel"><g class="label" data-id="L_Req_Mode_0" transform="translate(0, 0)"><text y="-10.1" text-anchor="middle"><tspan class="text-outer-tspan row" x="0" y="-0.1em" dy="1.1em" text-anchor="middle"></tspan></text></g></g><g><rect class="background" style="stroke: none"></rect></g><g class="edgeLabel" transform="translate(359.58984375, 280.0218734741211)"><g class="label" data-id="L_Mode_TBCheck_0" transform="translate(0, -10.5)"><g><rect class="background" style="" x="-49.0078125" y="-1" width="98.015625" height="23"></rect><text y="-10.1" text-anchor="middle" style=""><tspan class="text-outer-tspan row" x="0" y="-0.1em" dy="1.1em" text-anchor="middle"><tspan font-style="normal" class="text-inner-tspan" font-weight="normal">token</tspan><tspan font-style="normal" class="text-inner-tspan" font-weight="normal"> bucket</tspan></tspan></text></g></g></g><g class="edgeLabel"><g class="label" data-id="L_Refill_Bucket_0" transform="translate(0, 0)"><text y="-10.1" text-anchor="middle"><tspan class="text-outer-tspan row" x="0" y="-0.1em" dy="1.1em" text-anchor="middle"></tspan></text></g></g><g><rect class="background" style="stroke: none"></rect></g><g class="edgeLabel"><g class="label" data-id="L_Bucket_TBCheck_0" transform="translate(0, 0)"><text y="-10.1" text-anchor="middle"><tspan class="text-outer-tspan row" x="0" y="-0.1em" dy="1.1em" text-anchor="middle"></tspan></text></g></g><g><rect class="background" style="stroke: none"></rect></g><g class="edgeLabel" transform="translate(87.1328125, 490.2000045776367)"><g class="label" data-id="L_TBCheck_TBPass_0" transform="translate(0, -10.5)"><g><rect class="background" style="" x="-13.546875" y="-1" width="27.09375" height="23"></rect><text y="-10.1" text-anchor="middle" style=""><tspan class="text-outer-tspan row" x="0" y="-0.1em" dy="1.1em" text-anchor="middle"><tspan font-style="normal" class="text-inner-tspan" font-weight="normal">yes</tspan></tspan></text></g></g></g><g class="edgeLabel" transform="translate(313.0546875, 490.2000045776367)"><g class="label" data-id="L_TBCheck_TBDrop_0" transform="translate(0, -10.5)"><g><rect class="background" style="" x="-10.6640625" y="-1" width="21.328125" height="23"></rect><text y="-10.1" text-anchor="middle" style=""><tspan class="text-outer-tspan row" x="0" y="-0.1em" dy="1.1em" text-anchor="middle"><tspan font-style="normal" class="text-inner-tspan" font-weight="normal">no</tspan></tspan></text></g></g></g><g class="edgeLabel" transform="translate(627.69140625, 280.0218734741211)"><g class="label" data-id="L_Mode_LBQ_0" transform="translate(0, -10.5)"><g><rect class="background" style="" x="-47.6796875" y="-1" width="95.359375" height="23"></rect><text y="-10.1" text-anchor="middle" style=""><tspan class="text-outer-tspan row" x="0" y="-0.1em" dy="1.1em" text-anchor="middle"><tspan font-style="normal" class="text-inner-tspan" font-weight="normal">leaky</tspan><tspan font-style="normal" class="text-inner-tspan" font-weight="normal"> bucket</tspan></tspan></text></g></g></g><g class="edgeLabel" transform="translate(522.8125, 490.2000045776367)"><g class="label" data-id="L_LBQ_Queue_0" transform="translate(0, -10.5)"><g><rect class="background" style="" x="-10.6640625" y="-1" width="21.328125" height="23"></rect><text y="-10.1" text-anchor="middle" style=""><tspan class="text-outer-tspan row" x="0" y="-0.1em" dy="1.1em" text-anchor="middle"><tspan font-style="normal" class="text-inner-tspan" font-weight="normal">no</tspan></tspan></text></g></g></g><g class="edgeLabel" transform="translate(732.5703125, 490.2000045776367)"><g class="label" data-id="L_LBQ_LBDrop_0" transform="translate(0, -10.5)"><g><rect class="background" style="" x="-13.546875" y="-1" width="27.09375" height="23"></rect><text y="-10.1" text-anchor="middle" style=""><tspan class="text-outer-tspan row" x="0" y="-0.1em" dy="1.1em" text-anchor="middle"><tspan font-style="normal" class="text-inner-tspan" font-weight="normal">yes</tspan></tspan></text></g></g></g><g class="edgeLabel"><g class="label" data-id="L_Queue_Leak_0" transform="translate(0, 0)"><text y="-10.1" text-anchor="middle"><tspan class="text-outer-tspan row" x="0" y="-0.1em" dy="1.1em" text-anchor="middle"></tspan></text></g></g><g><rect class="background" style="stroke: none"></rect></g><g class="edgeLabel"><g class="label" data-id="L_Leak_LBPass_0" transform="translate(0, 0)"><text y="-10.1" text-anchor="middle"><tspan class="text-outer-tspan row" x="0" y="-0.1em" dy="1.1em" text-anchor="middle"></tspan></text></g></g><g><rect class="background" style="stroke: none"></rect></g></g><g class="nodes"><g class="node default" id="g5c9350c1-0583-4e78-9c90-3d9787defc02-dark-flowchart-Req-0" data-look="classic" transform="translate(569.34765625, 41.29999923706055)"><g class="basic label-container outer-path"><path d="M-23.046875 -17 C-5.717071696767096 -17, 11.612731606465807 -17, 23.046875 -17 C23.046875 -17, 23.046875 -17, 23.046875 -17 C23.39928672798971 -16.988698841811186, 23.751698455979422 -16.97739768362237, 24.13606873967212 -16.965071676755716 C24.485133654772746 -16.93139780420794, 24.83419856987337 -16.897723931660167, 25.2207867486366 -16.860430234995185 C25.64872182545948 -16.791245010460546, 26.076656902282362 -16.72205978592591, 26.296571687923326 -16.686505668848113 C26.514405540835874 -16.636786513419562, 26.732239393748422 -16.587067357991007, 27.35900292646162 -16.4440126716635 C27.701947183658074 -16.342228616278735, 28.044891440854528 -16.240444560893966, 28.40371470640155 -16.133947699181366 C28.693199322511028 -16.027414684486622, 28.982683938620504 -15.920881669791878, 29.42641408294936 -15.757584874882369 C29.780488006324756 -15.60084685223384, 30.134561929700148 -15.444108829585309, 30.422898564998487 -15.316470754341125 C30.682560004310155 -15.181005547773319, 30.94222144362182 -15.045540341205513, 31.38907338406694 -14.812417970097622 C31.69799955107044 -14.62514511220843, 32.00692571807394 -14.43787225431924, 32.320968320579325 -14.247497783161291 C32.57814402807151 -14.068103142571687, 32.83531973556371 -13.88870850198208, 33.214754018350675 -13.624031571755262 C33.448026063097714 -13.438003323699313, 33.68129810784475 -13.251975075643363, 34.0667577202324 -12.944581292275288 C34.37375086879141 -12.6657782373476, 34.68074401735043 -12.386975182419912, 34.87347836025927 -12.21193895166137 C35.16642861972772 -11.909443757096591, 35.45937887919617 -11.606948562531812, 35.63160095028036 -11.42911513444239 C35.854328712231656 -11.167486431685717, 36.07705647418295 -10.905857728929044, 36.33801020195651 -10.59932663159847 C36.55270594771227 -10.311653891470556, 36.76740169346803 -10.023981151342642, 36.98980332814825 -9.725983222076888 C37.13011455850275 -9.510427493411495, 37.27042578885724 -9.2948717647461, 37.58430197109088 -8.812673661278927 C37.758382516194054 -8.50357602588159, 37.93246306129723 -8.194478390484253, 38.119063208341004 -7.863150934094199 C38.23974532668435 -7.61255193317057, 38.36042744502769 -7.3619529322469415, 38.59188959126881 -6.881316833080699 C38.74139583592903 -6.512033518263344, 38.89090208058926 -6.142750203445989, 39.000838174845924 -5.871205925162238 C39.1136461150688 -5.531446382715355, 39.22645405529168 -5.191686840268472, 39.344228501623235 -4.836968972727556 C39.453212122334904 -4.421367193153954, 39.56219574304657 -4.005765413580353, 39.620649507091 -3.7828558772573464 C39.70098628886689 -3.370343482022976, 39.781323070642785 -2.9578310867886057, 39.82896531804565 -2.713198215567453 C39.86043268559861 -2.469143526761262, 39.891900053151566 -2.225088837955071, 39.968319920136366 -1.632391440430593 C39.98826790810639 -1.3216854260714814, 40.00821589607641 -1.0109794117123698, 40.0381406754117 -0.5448768187181379 C40.0381406754117 -0.18729620893151105, 40.0381406754117 0.17028440085511576, 40.0381406754117 0.5448768187181336 C40.02218345797526 0.7934233607247014, 40.00622624053882 1.0419699027312692, 39.968319920136366 1.6323914404305815 C39.93424775917597 1.8966483925302502, 39.90017559821557 2.160905344629919, 39.828965318045654 2.7131982155674415 C39.77073392522188 3.012204110508261, 39.71250253239812 3.3112100054490803, 39.620649507091 3.782855877257343 C39.5108992528614 4.201381162695896, 39.4011489986318 4.619906448134449, 39.344228501623235 4.836968972727545 C39.216994860937575 5.220176426545079, 39.089761220251916 5.603383880362613, 39.000838174845924 5.871205925162227 C38.846529442661755 6.252351477013513, 38.69222071047758 6.6334970288648, 38.59188959126881 6.881316833080694 C38.49656151316322 7.0792676269610695, 38.401233435057634 7.277218420841444, 38.119063208341004 7.863150934094196 C37.99293975706465 8.087095893219686, 37.8668163057883 8.311040852345178, 37.58430197109089 8.812673661278923 C37.41448089431468 9.073564438551367, 37.24465981753847 9.33445521582381, 36.989803328148255 9.725983222076879 C36.838026985571204 9.92934969402087, 36.68625064299415 10.132716165964858, 36.33801020195651 10.599326631598467 C36.06005183888929 10.925832341136145, 35.78209347582206 11.252338050673822, 35.63160095028037 11.42911513444238 C35.453537956375605 11.612979794892732, 35.27547496247084 11.796844455343084, 34.87347836025927 12.211938951661365 C34.62743397064298 12.435389956333063, 34.3813895810267 12.658840961004762, 34.06675772023242 12.944581292275275 C33.889496601017726 13.085942317732504, 33.71223548180303 13.227303343189734, 33.214754018350675 13.62403157175526 C32.8866150349277 13.85292712168348, 32.55847605150472 14.081822671611702, 32.32096832057934 14.247497783161286 C32.07763433235703 14.395008276810893, 31.834300344134714 14.5425187704605, 31.389073384066943 14.81241797009762 C31.065884994370485 14.98102514599022, 30.742696604674027 15.149632321882818, 30.42289856499849 15.316470754341124 C30.10512973423332 15.457137589443416, 29.78736090346815 15.597804424545709, 29.426414082949368 15.757584874882367 C29.129990288803153 15.86667157123969, 28.833566494656935 15.975758267597014, 28.403714706401562 16.133947699181363 C28.129633164377225 16.215293662170815, 27.855551622352884 16.296639625160267, 27.359002926461642 16.444012671663497 C26.98394755213184 16.52961661338923, 26.60889217780204 16.61522055511496, 26.296571687923333 16.68650566884811 C25.95481023465394 16.741759010213052, 25.613048781384553 16.79701235157799, 25.220786748636613 16.86043023499518 C24.90913621208902 16.89049478744132, 24.597485675541428 16.920559339887458, 24.13606873967212 16.965071676755716 C23.796978143676156 16.975945652169504, 23.457887547680194 16.986819627583287, 23.046875000000004 17 C23.046875000000004 17, 23.046875000000004 17, 23.046875 17 C10.296732639576156 17, -2.453409720847688 17, -23.046874999999996 17 C-23.365365827136362 16.989786619078526, -23.683856654272724 16.979573238157048, -24.136068739672112 16.965071676755716 C-24.410229612207743 16.938623707108892, -24.68439048474338 16.91217573746207, -25.220786748636606 16.86043023499518 C-25.535478264977606 16.809553351102327, -25.850169781318606 16.758676467209472, -26.29657168792333 16.68650566884811 C-26.64626832032776 16.60668969448559, -26.99596495273219 16.526873720123064, -27.35900292646162 16.4440126716635 C-27.63380748873107 16.36245212006051, -27.908612051000517 16.280891568457523, -28.403714706401544 16.13394769918137 C-28.725202736693614 16.015637132231113, -29.046690766985684 15.897326565280856, -29.42641408294936 15.757584874882369 C-29.66885033065935 15.650265539636926, -29.91128657836934 15.542946204391486, -30.422898564998484 15.316470754341127 C-30.72479525050256 15.158971446887707, -31.02669193600664 15.001472139434286, -31.389073384066936 14.812417970097624 C-31.595346279729014 14.687374128553186, -31.801619175391092 14.562330287008749, -32.32096832057932 14.247497783161299 C-32.64115750732217 14.024147667255981, -32.96134669406503 13.800797551350662, -33.21475401835067 13.624031571755264 C-33.50145344344948 13.39539640963108, -33.788152868548295 13.166761247506894, -34.0667577202324 12.94458129227529 C-34.24143927409334 12.785940126879437, -34.41612082795427 12.627298961483582, -34.87347836025926 12.211938951661377 C-35.045284285094375 12.034535228740367, -35.21709020992949 11.857131505819357, -35.631600950280365 11.429115134442386 C-35.87381314160763 11.144598912245263, -36.11602533293489 10.860082690048142, -36.33801020195651 10.599326631598473 C-36.58770442411824 10.26475912151335, -36.83739864627997 9.93019161142823, -36.98980332814825 9.72598322207689 C-37.18043331973838 9.433124363674251, -37.371063311328506 9.140265505271612, -37.58430197109088 8.812673661278936 C-37.73824433200106 8.539333411128535, -37.89218669291123 8.265993160978132, -38.119063208341004 7.863150934094201 C-38.29390518743635 7.500087823483656, -38.4687471665317 7.137024712873112, -38.59188959126881 6.881316833080701 C-38.67732485196253 6.670290087388818, -38.76276011265625 6.459263341696933, -39.000838174845924 5.87120592516224 C-39.0696413696767 5.663981664632317, -39.13844456450749 5.456757404102394, -39.344228501623235 4.8369689727275516 C-39.44626247905069 4.447869194991113, -39.54829645647814 4.058769417254673, -39.620649507091 3.782855877257349 C-39.68011131245281 3.477532073981463, -39.73957311781462 3.1722082707055765, -39.82896531804565 2.713198215567455 C-39.87645792463668 2.3448549373233174, -39.923950531227725 1.9765116590791796, -39.968319920136366 1.6323914404306026 C-39.984516757964876 1.3801126173994056, -40.000713595793385 1.1278337943682086, -40.0381406754117 0.54487681871814 C-40.0381406754117 0.1898175497099327, -40.0381406754117 -0.16524171929827458, -40.0381406754117 -0.5448768187181317 C-40.018534860150375 -0.8502532169424852, -39.998929044889046 -1.1556296151668386, -39.968319920136366 -1.6323914404305793 C-39.93427407990872 -1.8964442541246436, -39.90022823968107 -2.160497067818708, -39.828965318045654 -2.713198215567447 C-39.76153255105276 -3.0594512221556, -39.694099784059865 -3.405704228743753, -39.620649507091 -3.782855877257341 C-39.517682221856276 -4.175514762161065, -39.41471493662155 -4.568173647064789, -39.344228501623235 -4.836968972727544 C-39.240795621603645 -5.148492327555124, -39.13736274158405 -5.460015682382704, -39.00083817484593 -5.871205925162218 C-38.8392095650854 -6.2704317161473275, -38.677580955324856 -6.669657507132437, -38.59188959126881 -6.881316833080692 C-38.41829913020534 -7.241781139719847, -38.24470866914187 -7.602245446359, -38.119063208341004 -7.863150934094194 C-37.94859243442058 -8.165839055227593, -37.77812166050016 -8.468527176360993, -37.58430197109088 -8.812673661278929 C-37.390005332400584 -9.11116547426004, -37.19570869371028 -9.409657287241151, -36.98980332814825 -9.725983222076884 C-36.85406169862542 -9.907864639320625, -36.718320069102596 -10.089746056564364, -36.33801020195651 -10.599326631598467 C-36.083088241367534 -10.89877247197676, -35.828166280778554 -11.198218312355053, -35.63160095028037 -11.42911513444238 C-35.434209510244976 -11.632938002417543, -35.23681807020959 -11.836760870392705, -34.87347836025928 -12.21193895166136 C-34.59497201254992 -12.464871047776844, -34.31646566484056 -12.71780314389233, -34.06675772023242 -12.944581292275274 C-33.82568941050511 -13.136826854185658, -33.58462110077781 -13.329072416096043, -33.214754018350675 -13.624031571755259 C-32.91376972365232 -13.83398518633671, -32.61278542895397 -14.04393880091816, -32.32096832057934 -14.247497783161284 C-32.04528713231926 -14.414617339567032, -31.769605944059183 -14.58173689597278, -31.389073384066947 -14.812417970097618 C-31.17353248108905 -14.924865521120648, -30.95799157811116 -15.037313072143679, -30.42289856499849 -15.316470754341124 C-30.134752882730353 -15.444024300343257, -29.84660720046222 -15.57157784634539, -29.426414082949368 -15.757584874882365 C-29.044044090738943 -15.898300566605263, -28.661674098528522 -16.03901625832816, -28.403714706401566 -16.133947699181363 C-28.025288474352962 -16.24626261845356, -27.64686224230436 -16.358577537725758, -27.359002926461642 -16.444012671663494 C-27.074880617933978 -16.508861734513598, -26.790758309406318 -16.573710797363702, -26.296571687923336 -16.68650566884811 C-25.947776020494327 -16.74289624740723, -25.59898035306532 -16.799286825966355, -25.220786748636613 -16.86043023499518 C-24.971021147545947 -16.884524822145316, -24.721255546455286 -16.908619409295447, -24.13606873967212 -16.965071676755716 C-23.714003057797886 -16.97860650167241, -23.291937375923652 -16.992141326589106, -23.046875000000004 -17 C-23.046875000000004 -17, -23.046875 -17, -23.046875 -17" stroke="none" stroke-width="0" fill="#2d2d2d" style=""></path><path d="M-23.046875 -17 C-10.750599696661823 -17, 1.5456756066763546 -17, 23.046875 -17 M-23.046875 -17 C-9.556058429411022 -17, 3.934758141177955 -17, 23.046875 -17 M23.046875 -17 C23.046875 -17, 23.046875 -17, 23.046875 -17 M23.046875 -17 C23.046875 -17, 23.046875 -17, 23.046875 -17 M23.046875 -17 C23.43998345519245 -16.98739377698117, 23.8330919103849 -16.974787553962337, 24.13606873967212 -16.965071676755716 M23.046875 -17 C23.482516843424722 -16.986029814006777, 23.918158686849445 -16.972059628013554, 24.13606873967212 -16.965071676755716 M24.13606873967212 -16.965071676755716 C24.532107092574044 -16.926866333157072, 24.92814544547597 -16.88866098955843, 25.2207867486366 -16.860430234995185 M24.13606873967212 -16.965071676755716 C24.464626997513633 -16.933376056770864, 24.793185255355148 -16.90168043678601, 25.2207867486366 -16.860430234995185 M25.2207867486366 -16.860430234995185 C25.57603356168403 -16.802996685241858, 25.93128037473146 -16.74556313548853, 26.296571687923326 -16.686505668848113 M25.2207867486366 -16.860430234995185 C25.454105352184982 -16.822709092586276, 25.687423955733365 -16.784987950177367, 26.296571687923326 -16.686505668848113 M26.296571687923326 -16.686505668848113 C26.581990862918826 -16.62136060468957, 26.86741003791433 -16.556215540531024, 27.35900292646162 -16.4440126716635 M26.296571687923326 -16.686505668848113 C26.566049622024504 -16.62499908889738, 26.835527556125683 -16.563492508946645, 27.35900292646162 -16.4440126716635 M27.35900292646162 -16.4440126716635 C27.64485184982307 -16.35917421166144, 27.93070077318452 -16.27433575165938, 28.40371470640155 -16.133947699181366 M27.35900292646162 -16.4440126716635 C27.649690448831358 -16.357738140874105, 27.940377971201098 -16.27146361008471, 28.40371470640155 -16.133947699181366 M28.40371470640155 -16.133947699181366 C28.79555208439083 -15.989747921976294, 29.187389462380114 -15.845548144771223, 29.42641408294936 -15.757584874882369 M28.40371470640155 -16.133947699181366 C28.644800595558763 -16.045225863397985, 28.885886484715975 -15.9565040276146, 29.42641408294936 -15.757584874882369 M29.42641408294936 -15.757584874882369 C29.813021888662668 -15.586445067606176, 30.19962969437597 -15.415305260329982, 30.422898564998487 -15.316470754341125 M29.42641408294936 -15.757584874882369 C29.758553037948655 -15.61055681205622, 30.09069199294795 -15.463528749230072, 30.422898564998487 -15.316470754341125 M30.422898564998487 -15.316470754341125 C30.655719658382285 -15.195008139051826, 30.888540751766083 -15.073545523762526, 31.38907338406694 -14.812417970097622 M30.422898564998487 -15.316470754341125 C30.777116943287545 -15.131675253275425, 31.1313353215766 -14.946879752209723, 31.38907338406694 -14.812417970097622 M31.38907338406694 -14.812417970097622 C31.702253923680804 -14.622566086530558, 32.01543446329467 -14.432714202963494, 32.320968320579325 -14.247497783161291 M31.38907338406694 -14.812417970097622 C31.687333576837105 -14.6316108884689, 31.98559376960727 -14.450803806840177, 32.320968320579325 -14.247497783161291 M32.320968320579325 -14.247497783161291 C32.585761216093324 -14.062789721950427, 32.85055411160732 -13.878081660739563, 33.214754018350675 -13.624031571755262 M32.320968320579325 -14.247497783161291 C32.61315165059199 -14.04368334055696, 32.90533498060464 -13.83986889795263, 33.214754018350675 -13.624031571755262 M33.214754018350675 -13.624031571755262 C33.55306615072757 -13.35423664904863, 33.89137828310446 -13.084441726341998, 34.0667577202324 -12.944581292275288 M33.214754018350675 -13.624031571755262 C33.496666051722016 -13.399214227135891, 33.77857808509335 -13.17439688251652, 34.0667577202324 -12.944581292275288 M34.0667577202324 -12.944581292275288 C34.26865752332306 -12.761221233084417, 34.470557326413704 -12.577861173893545, 34.87347836025927 -12.21193895166137 M34.0667577202324 -12.944581292275288 C34.32850218894566 -12.706871891169046, 34.59024665765893 -12.469162490062804, 34.87347836025927 -12.21193895166137 M34.87347836025927 -12.21193895166137 C35.03081482925541 -12.049476129858517, 35.18815129825155 -11.887013308055662, 35.63160095028036 -11.42911513444239 M34.87347836025927 -12.21193895166137 C35.04372444954098 -12.03614588701413, 35.213970538822686 -11.860352822366888, 35.63160095028036 -11.42911513444239 M35.63160095028036 -11.42911513444239 C35.885040972199654 -11.131410063550206, 36.13848099411895 -10.833704992658022, 36.33801020195651 -10.59932663159847 M35.63160095028036 -11.42911513444239 C35.79241134154877 -11.240218098488032, 35.953221732817184 -11.051321062533674, 36.33801020195651 -10.59932663159847 M36.33801020195651 -10.59932663159847 C36.59264695020241 -10.258136586833958, 36.8472836984483 -9.916946542069445, 36.98980332814825 -9.725983222076888 M36.33801020195651 -10.59932663159847 C36.4965013779946 -10.386962894550603, 36.65499255403269 -10.174599157502735, 36.98980332814825 -9.725983222076888 M36.98980332814825 -9.725983222076888 C37.137235900675016 -9.499487199486754, 37.28466847320179 -9.272991176896621, 37.58430197109088 -8.812673661278927 M36.98980332814825 -9.725983222076888 C37.12888231507887 -9.512320550214257, 37.26796130200949 -9.298657878351628, 37.58430197109088 -8.812673661278927 M37.58430197109088 -8.812673661278927 C37.767675833343 -8.487074800233229, 37.95104969559512 -8.161475939187529, 38.119063208341004 -7.863150934094199 M37.58430197109088 -8.812673661278927 C37.760342071017824 -8.500096637865541, 37.93638217094477 -8.187519614452157, 38.119063208341004 -7.863150934094199 M38.119063208341004 -7.863150934094199 C38.22086292845101 -7.651761637120694, 38.32266264856102 -7.440372340147188, 38.59188959126881 -6.881316833080699 M38.119063208341004 -7.863150934094199 C38.29221575981561 -7.503595956086085, 38.46536831129021 -7.144040978077971, 38.59188959126881 -6.881316833080699 M38.59188959126881 -6.881316833080699 C38.710910802149904 -6.587332141085831, 38.829932013031 -6.293347449090964, 39.000838174845924 -5.871205925162238 M38.59188959126881 -6.881316833080699 C38.68544857437598 -6.650224335966103, 38.779007557483155 -6.419131838851507, 39.000838174845924 -5.871205925162238 M39.000838174845924 -5.871205925162238 C39.12026343728044 -5.511516062541023, 39.239688699714954 -5.151826199919809, 39.344228501623235 -4.836968972727556 M39.000838174845924 -5.871205925162238 C39.09364220522381 -5.5916949719782805, 39.186446235601686 -5.312184018794323, 39.344228501623235 -4.836968972727556 M39.344228501623235 -4.836968972727556 C39.4533817148047 -4.42072046356477, 39.56253492798617 -4.004471954401985, 39.620649507091 -3.7828558772573464 M39.344228501623235 -4.836968972727556 C39.44662444232726 -4.446488872141675, 39.549020383031284 -4.056008771555794, 39.620649507091 -3.7828558772573464 M39.620649507091 -3.7828558772573464 C39.69933740607444 -3.378810146670726, 39.778025305057874 -2.9747644160841054, 39.82896531804565 -2.713198215567453 M39.620649507091 -3.7828558772573464 C39.66484620098653 -3.5559151950783496, 39.70904289488207 -3.3289745128993533, 39.82896531804565 -2.713198215567453 M39.82896531804565 -2.713198215567453 C39.866064391521896 -2.4254651277263375, 39.90316346499815 -2.1377320398852215, 39.968319920136366 -1.632391440430593 M39.82896531804565 -2.713198215567453 C39.86329608484545 -2.4469355676448723, 39.897626851645256 -2.1806729197222916, 39.968319920136366 -1.632391440430593 M39.968319920136366 -1.632391440430593 C39.98550315154523 -1.3647487411827695, 40.0026863829541 -1.097106041934946, 40.0381406754117 -0.5448768187181379 M39.968319920136366 -1.632391440430593 C39.984621337444906 -1.3784837075828733, 40.00092275475345 -1.1245759747351536, 40.0381406754117 -0.5448768187181379 M40.0381406754117 -0.5448768187181379 C40.0381406754117 -0.2166312536920451, 40.0381406754117 0.11161431133404764, 40.0381406754117 0.5448768187181336 M40.0381406754117 -0.5448768187181379 C40.0381406754117 -0.2837921082300317, 40.0381406754117 -0.02270739774192554, 40.0381406754117 0.5448768187181336 M40.0381406754117 0.5448768187181336 C40.02073204589325 0.8160302754607575, 40.003323416374805 1.0871837322033813, 39.968319920136366 1.6323914404305815 M40.0381406754117 0.5448768187181336 C40.01642787790723 0.883071166104779, 39.99471508040278 1.2212655134914243, 39.968319920136366 1.6323914404305815 M39.968319920136366 1.6323914404305815 C39.92284709857518 1.9850696648348556, 39.877374277014 2.3377478892391297, 39.828965318045654 2.7131982155674415 M39.968319920136366 1.6323914404305815 C39.929631298785 1.9324527476994158, 39.89094267743362 2.23251405496825, 39.828965318045654 2.7131982155674415 M39.828965318045654 2.7131982155674415 C39.75591891373248 3.088276063352584, 39.682872509419305 3.4633539111377267, 39.620649507091 3.782855877257343 M39.828965318045654 2.7131982155674415 C39.75341704788772 3.1011226156958824, 39.677868777729785 3.4890470158243234, 39.620649507091 3.782855877257343 M39.620649507091 3.782855877257343 C39.533411362053904 4.115532733535037, 39.4461732170168 4.448209589812731, 39.344228501623235 4.836968972727545 M39.620649507091 3.782855877257343 C39.51841095590043 4.172735783415396, 39.41617240470985 4.562615689573449, 39.344228501623235 4.836968972727545 M39.344228501623235 4.836968972727545 C39.209716139748416 5.242098775060099, 39.0752037778736 5.647228577392654, 39.000838174845924 5.871205925162227 M39.344228501623235 4.836968972727545 C39.270810448875324 5.058092450026097, 39.19739239612742 5.279215927324648, 39.000838174845924 5.871205925162227 M39.000838174845924 5.871205925162227 C38.91275857505973 6.088764239537326, 38.82467897527355 6.306322553912426, 38.59188959126881 6.881316833080694 M39.000838174845924 5.871205925162227 C38.91560912292128 6.08172333120771, 38.83038007099665 6.292240737253194, 38.59188959126881 6.881316833080694 M38.59188959126881 6.881316833080694 C38.48765790209793 7.097756165844908, 38.38342621292705 7.314195498609122, 38.119063208341004 7.863150934094196 M38.59188959126881 6.881316833080694 C38.4257836402788 7.226239394409443, 38.25967768928879 7.571161955738193, 38.119063208341004 7.863150934094196 M38.119063208341004 7.863150934094196 C37.97983691458074 8.110361316856546, 37.84061062082047 8.357571699618896, 37.58430197109089 8.812673661278923 M38.119063208341004 7.863150934094196 C37.92030740085409 8.216061996495128, 37.72155159336718 8.56897305889606, 37.58430197109089 8.812673661278923 M37.58430197109089 8.812673661278923 C37.44797462980604 9.022109066509334, 37.311647288521186 9.231544471739742, 36.989803328148255 9.725983222076879 M37.58430197109089 8.812673661278923 C37.39728854984455 9.099976496448381, 37.21027512859822 9.38727933161784, 36.989803328148255 9.725983222076879 M36.989803328148255 9.725983222076879 C36.852771311647054 9.909593640314966, 36.71573929514585 10.093204058553052, 36.33801020195651 10.599326631598467 M36.989803328148255 9.725983222076879 C36.76246434193038 10.030596752601115, 36.53512535571251 10.335210283125353, 36.33801020195651 10.599326631598467 M36.33801020195651 10.599326631598467 C36.1266223941591 10.847634778944316, 35.91523458636169 11.095942926290164, 35.63160095028037 11.42911513444238 M36.33801020195651 10.599326631598467 C36.19223805892752 10.77055888547023, 36.04646591589854 10.941791139341992, 35.63160095028037 11.42911513444238 M35.63160095028037 11.42911513444238 C35.423964023507374 11.643517308644222, 35.216327096734375 11.857919482846066, 34.87347836025927 12.211938951661365 M35.63160095028037 11.42911513444238 C35.477350246069605 11.588391650758336, 35.32309954185883 11.747668167074291, 34.87347836025927 12.211938951661365 M34.87347836025927 12.211938951661365 C34.69247619319272 12.376320330736302, 34.51147402612616 12.54070170981124, 34.06675772023242 12.944581292275275 M34.87347836025927 12.211938951661365 C34.55234558384751 12.503583242490869, 34.23121280743575 12.795227533320372, 34.06675772023242 12.944581292275275 M34.06675772023242 12.944581292275275 C33.75538415525243 13.192893424348263, 33.444010590272434 13.44120555642125, 33.214754018350675 13.62403157175526 M34.06675772023242 12.944581292275275 C33.79851334093331 13.158499046483591, 33.53026896163421 13.372416800691905, 33.214754018350675 13.62403157175526 M33.214754018350675 13.62403157175526 C32.86590572510457 13.867373039724523, 32.51705743185846 14.110714507693785, 32.32096832057934 14.247497783161286 M33.214754018350675 13.62403157175526 C33.01670181558229 13.762184214864813, 32.81864961281389 13.900336857974366, 32.32096832057934 14.247497783161286 M32.32096832057934 14.247497783161286 C32.00297959228864 14.440264418960298, 31.68499086399794 14.63303105475931, 31.389073384066943 14.81241797009762 M32.32096832057934 14.247497783161286 C32.00658672767715 14.438077752289901, 31.692205134774966 14.628657721418517, 31.389073384066943 14.81241797009762 M31.389073384066943 14.81241797009762 C31.12282724676686 14.951318409388284, 30.856581109466777 15.090218848678946, 30.42289856499849 15.316470754341124 M31.389073384066943 14.81241797009762 C31.10019669406037 14.963124754239699, 30.811320004053794 15.113831538381778, 30.42289856499849 15.316470754341124 M30.42289856499849 15.316470754341124 C30.04713718169225 15.482809172165398, 29.67137579838601 15.649147589989674, 29.426414082949368 15.757584874882367 M30.42289856499849 15.316470754341124 C30.038600360154234 15.486588169824465, 29.654302155309974 15.656705585307808, 29.426414082949368 15.757584874882367 M29.426414082949368 15.757584874882367 C29.21865837300032 15.834040896616347, 29.010902663051272 15.910496918350326, 28.403714706401562 16.133947699181363 M29.426414082949368 15.757584874882367 C29.035102456148902 15.901591170789963, 28.64379082934844 16.045597466697558, 28.403714706401562 16.133947699181363 M28.403714706401562 16.133947699181363 C28.001665506856003 16.25327379120717, 27.59961630731045 16.37259988323298, 27.359002926461642 16.444012671663497 M28.403714706401562 16.133947699181363 C28.02332793727842 16.246844495566215, 27.642941168155275 16.35974129195107, 27.359002926461642 16.444012671663497 M27.359002926461642 16.444012671663497 C27.069105504511086 16.51017986646624, 26.77920808256053 16.576347061268983, 26.296571687923333 16.68650566884811 M27.359002926461642 16.444012671663497 C26.9850765500518 16.5293589269814, 26.611150173641963 16.614705182299296, 26.296571687923333 16.68650566884811 M26.296571687923333 16.68650566884811 C25.98752460016555 16.736470005300827, 25.678477512407763 16.786434341753544, 25.220786748636613 16.86043023499518 M26.296571687923333 16.68650566884811 C25.941463190181974 16.743916856855403, 25.586354692440615 16.801328044862696, 25.220786748636613 16.86043023499518 M25.220786748636613 16.86043023499518 C24.80823540584911 16.90022856686831, 24.39568406306161 16.94002689874144, 24.13606873967212 16.965071676755716 M25.220786748636613 16.86043023499518 C24.861791272265172 16.895062096845507, 24.502795795893732 16.929693958695832, 24.13606873967212 16.965071676755716 M24.13606873967212 16.965071676755716 C23.749609119240148 16.97746468458495, 23.363149498808177 16.989857692414187, 23.046875000000004 17 M24.13606873967212 16.965071676755716 C23.824304671047745 16.975069343624554, 23.512540602423375 16.985067010493392, 23.046875000000004 17 M23.046875000000004 17 C23.046875000000004 17, 23.046875 17, 23.046875 17 M23.046875000000004 17 C23.046875000000004 17, 23.046875 17, 23.046875 17 M23.046875 17 C5.654973741906481 17, -11.736927516187038 17, -23.046874999999996 17 M23.046875 17 C13.394109209826961 17, 3.741343419653923 17, -23.046874999999996 17 M-23.046874999999996 17 C-23.421064672981533 16.988000465503497, -23.79525434596307 16.976000931006993, -24.136068739672112 16.965071676755716 M-23.046874999999996 17 C-23.449246998355623 16.987096713182318, -23.85161899671125 16.974193426364636, -24.136068739672112 16.965071676755716 M-24.136068739672112 16.965071676755716 C-24.473541986692993 16.932516038486572, -24.81101523371387 16.899960400217427, -25.220786748636606 16.86043023499518 M-24.136068739672112 16.965071676755716 C-24.36841390199656 16.942657618382217, -24.60075906432101 16.920243560008718, -25.220786748636606 16.86043023499518 M-25.220786748636606 16.86043023499518 C-25.62259160789856 16.79546954139293, -26.024396467160514 16.73050884779068, -26.29657168792333 16.68650566884811 M-25.220786748636606 16.86043023499518 C-25.619237093784047 16.79601187322032, -26.017687438931485 16.731593511445457, -26.29657168792333 16.68650566884811 M-26.29657168792333 16.68650566884811 C-26.62465941525364 16.611621786057473, -26.95274714258395 16.536737903266832, -27.35900292646162 16.4440126716635 M-26.29657168792333 16.68650566884811 C-26.519957089956616 16.635519408559993, -26.7433424919899 16.584533148271873, -27.35900292646162 16.4440126716635 M-27.35900292646162 16.4440126716635 C-27.744362441157485 16.32963999049514, -28.129721955853345 16.21526730932678, -28.403714706401544 16.13394769918137 M-27.35900292646162 16.4440126716635 C-27.737170852148193 16.331774416363675, -28.115338777834765 16.21953616106385, -28.403714706401544 16.13394769918137 M-28.403714706401544 16.13394769918137 C-28.669234434997737 16.036233984620505, -28.934754163593926 15.938520270059643, -29.42641408294936 15.757584874882369 M-28.403714706401544 16.13394769918137 C-28.68193457597893 16.031560215340612, -28.960154445556313 15.929172731499852, -29.42641408294936 15.757584874882369 M-29.42641408294936 15.757584874882369 C-29.705618313788253 15.633989444189227, -29.98482254462715 15.510394013496088, -30.422898564998484 15.316470754341127 M-29.42641408294936 15.757584874882369 C-29.81491633706197 15.585606451496618, -30.20341859117458 15.41362802811087, -30.422898564998484 15.316470754341127 M-30.422898564998484 15.316470754341127 C-30.635486879026182 15.20556356708219, -30.84807519305388 15.094656379823254, -31.389073384066936 14.812417970097624 M-30.422898564998484 15.316470754341127 C-30.675605593253024 15.184633659567309, -30.92831262150757 15.052796564793493, -31.389073384066936 14.812417970097624 M-31.389073384066936 14.812417970097624 C-31.714318877730403 14.615252240484152, -32.03956437139387 14.41808651087068, -32.32096832057932 14.247497783161299 M-31.389073384066936 14.812417970097624 C-31.64516356436795 14.657174597846202, -31.901253744668967 14.501931225594781, -32.32096832057932 14.247497783161299 M-32.32096832057932 14.247497783161299 C-32.55417944228823 14.08481980020391, -32.787390563997135 13.922141817246521, -33.21475401835067 13.624031571755264 M-32.32096832057932 14.247497783161299 C-32.63031193055526 14.031713072111131, -32.93965554053119 13.815928361060962, -33.21475401835067 13.624031571755264 M-33.21475401835067 13.624031571755264 C-33.431583128716596 13.45111612630339, -33.64841223908253 13.278200680851516, -34.0667577202324 12.94458129227529 M-33.21475401835067 13.624031571755264 C-33.49948837012861 13.396963503311678, -33.784222721906545 13.169895434868092, -34.0667577202324 12.94458129227529 M-34.0667577202324 12.94458129227529 C-34.37052642985023 12.668706587480006, -34.67429513946806 12.392831882684723, -34.87347836025926 12.211938951661377 M-34.0667577202324 12.94458129227529 C-34.36574818526389 12.673046062787899, -34.66473865029537 12.401510833300506, -34.87347836025926 12.211938951661377 M-34.87347836025926 12.211938951661377 C-35.030152703706406 12.050159828849377, -35.18682704715356 11.88838070603738, -35.631600950280365 11.429115134442386 M-34.87347836025926 12.211938951661377 C-35.12049905108842 11.95686980760438, -35.36751974191759 11.701800663547381, -35.631600950280365 11.429115134442386 M-35.631600950280365 11.429115134442386 C-35.845636373823034 11.177696946988558, -36.059671797365695 10.926278759534728, -36.33801020195651 10.599326631598473 M-35.631600950280365 11.429115134442386 C-35.86890234251753 11.150367416288875, -36.10620373475469 10.871619698135364, -36.33801020195651 10.599326631598473 M-36.33801020195651 10.599326631598473 C-36.551495280032675 10.31327607586712, -36.76498035810884 10.027225520135767, -36.98980332814825 9.72598322207689 M-36.33801020195651 10.599326631598473 C-36.59546142057388 10.254365452939709, -36.85291263919125 9.909404274280945, -36.98980332814825 9.72598322207689 M-36.98980332814825 9.72598322207689 C-37.180476697491585 9.433057723796761, -37.37115006683493 9.14013222551663, -37.58430197109088 8.812673661278936 M-36.98980332814825 9.72598322207689 C-37.1954967391071 9.40998290642942, -37.40119015006596 9.093982590781952, -37.58430197109088 8.812673661278936 M-37.58430197109088 8.812673661278936 C-37.730498612719515 8.55308672005204, -37.87669525434815 8.293499778825144, -38.119063208341004 7.863150934094201 M-37.58430197109088 8.812673661278936 C-37.71189321632203 8.586122485356452, -37.839484461553184 8.359571309433965, -38.119063208341004 7.863150934094201 M-38.119063208341004 7.863150934094201 C-38.239849812655486 7.612334965815861, -38.36063641696997 7.361518997537521, -38.59188959126881 6.881316833080701 M-38.119063208341004 7.863150934094201 C-38.21478198512459 7.664388846049359, -38.310500761908166 7.465626758004516, -38.59188959126881 6.881316833080701 M-38.59188959126881 6.881316833080701 C-38.700305608898965 6.613527173453117, -38.80872162652911 6.345737513825533, -39.000838174845924 5.87120592516224 M-38.59188959126881 6.881316833080701 C-38.7235637142153 6.556079203656881, -38.855237837161795 6.230841574233061, -39.000838174845924 5.87120592516224 M-39.000838174845924 5.87120592516224 C-39.0770563599194 5.641648895439575, -39.153274544992875 5.412091865716911, -39.344228501623235 4.8369689727275516 M-39.000838174845924 5.87120592516224 C-39.08581803609849 5.615260122771691, -39.170797897351044 5.3593143203811415, -39.344228501623235 4.8369689727275516 M-39.344228501623235 4.8369689727275516 C-39.419483177513406 4.549990277975465, -39.494737853403585 4.2630115832233795, -39.620649507091 3.782855877257349 M-39.344228501623235 4.8369689727275516 C-39.41935378195138 4.550483719333887, -39.49447906227952 4.263998465940222, -39.620649507091 3.782855877257349 M-39.620649507091 3.782855877257349 C-39.688889097383026 3.4324600035503305, -39.75712868767504 3.082064129843312, -39.82896531804565 2.713198215567455 M-39.620649507091 3.782855877257349 C-39.689832413997344 3.427616272105823, -39.759015320903686 3.0723766669542973, -39.82896531804565 2.713198215567455 M-39.82896531804565 2.713198215567455 C-39.87402364108676 2.363734759832886, -39.91908196412787 2.014271304098317, -39.968319920136366 1.6323914404306026 M-39.82896531804565 2.713198215567455 C-39.86865264984356 2.4053911072929255, -39.90833998164148 2.097583999018396, -39.968319920136366 1.6323914404306026 M-39.968319920136366 1.6323914404306026 C-39.98979044166433 1.297970736939543, -40.01126096319229 0.9635500334484837, -40.0381406754117 0.54487681871814 M-39.968319920136366 1.6323914404306026 C-39.98568749950286 1.3618773729397475, -40.00305507886935 1.0913633054488923, -40.0381406754117 0.54487681871814 M-40.0381406754117 0.54487681871814 C-40.0381406754117 0.13984796141349087, -40.0381406754117 -0.26518089589115823, -40.0381406754117 -0.5448768187181317 M-40.0381406754117 0.54487681871814 C-40.0381406754117 0.19179662343433518, -40.0381406754117 -0.16128357184946962, -40.0381406754117 -0.5448768187181317 M-40.0381406754117 -0.5448768187181317 C-40.01021314621878 -0.9798706285935677, -39.982285617025866 -1.4148644384690034, -39.968319920136366 -1.6323914404305793 M-40.0381406754117 -0.5448768187181317 C-40.02332632415774 -0.7756222974275695, -40.00851197290378 -1.0063677761370071, -39.968319920136366 -1.6323914404305793 M-39.968319920136366 -1.6323914404305793 C-39.914792197412105 -2.0475418876355582, -39.86126447468784 -2.4626923348405376, -39.828965318045654 -2.713198215567447 M-39.968319920136366 -1.6323914404305793 C-39.92213543294571 -1.9905892029227872, -39.87595094575505 -2.348786965414995, -39.828965318045654 -2.713198215567447 M-39.828965318045654 -2.713198215567447 C-39.77221146006102 -3.0046172813864067, -39.715457602076384 -3.2960363472053666, -39.620649507091 -3.782855877257341 M-39.828965318045654 -2.713198215567447 C-39.78097107713557 -2.959638499054311, -39.73297683622549 -3.2060787825411756, -39.620649507091 -3.782855877257341 M-39.620649507091 -3.782855877257341 C-39.55960589496604 -4.015641626758682, -39.49856228284107 -4.248427376260023, -39.344228501623235 -4.836968972727544 M-39.620649507091 -3.782855877257341 C-39.52580505176524 -4.144538891261438, -39.430960596439476 -4.506221905265534, -39.344228501623235 -4.836968972727544 M-39.344228501623235 -4.836968972727544 C-39.27162087211583 -5.0556515843491, -39.19901324260843 -5.274334195970656, -39.00083817484593 -5.871205925162218 M-39.344228501623235 -4.836968972727544 C-39.22905210855719 -5.183861917776335, -39.11387571549114 -5.530754862825127, -39.00083817484593 -5.871205925162218 M-39.00083817484593 -5.871205925162218 C-38.851276665959986 -6.240625743685565, -38.70171515707404 -6.610045562208912, -38.59188959126881 -6.881316833080692 M-39.00083817484593 -5.871205925162218 C-38.91202505370693 -6.0905760514604435, -38.82321193256792 -6.309946177758669, -38.59188959126881 -6.881316833080692 M-38.59188959126881 -6.881316833080692 C-38.416097768740904 -7.2463523139023325, -38.240305946213006 -7.611387794723973, -38.119063208341004 -7.863150934094194 M-38.59188959126881 -6.881316833080692 C-38.45569933115896 -7.1641188222035534, -38.319509071049104 -7.4469208113264145, -38.119063208341004 -7.863150934094194 M-38.119063208341004 -7.863150934094194 C-37.962197541867795 -8.14168180928855, -37.805331875394586 -8.420212684482903, -37.58430197109088 -8.812673661278929 M-38.119063208341004 -7.863150934094194 C-37.92631473673555 -8.20539536332888, -37.733566265130094 -8.547639792563565, -37.58430197109088 -8.812673661278929 M-37.58430197109088 -8.812673661278929 C-37.413001766970844 -9.075836775352792, -37.24170156285081 -9.338999889426658, -36.98980332814825 -9.725983222076884 M-37.58430197109088 -8.812673661278929 C-37.39164031876883 -9.108653696143103, -37.19897866644677 -9.404633731007277, -36.98980332814825 -9.725983222076884 M-36.98980332814825 -9.725983222076884 C-36.736679834463565 -10.065145643589696, -36.48355634077888 -10.40430806510251, -36.33801020195651 -10.599326631598467 M-36.98980332814825 -9.725983222076884 C-36.744153655102195 -10.055131404813, -36.498503982056135 -10.384279587549116, -36.33801020195651 -10.599326631598467 M-36.33801020195651 -10.599326631598467 C-36.12601278237379 -10.848350863635229, -35.91401536279108 -11.097375095671989, -35.63160095028037 -11.42911513444238 M-36.33801020195651 -10.599326631598467 C-36.175690095272536 -10.789997065185185, -36.013369988588565 -10.980667498771902, -35.63160095028037 -11.42911513444238 M-35.63160095028037 -11.42911513444238 C-35.38256748936396 -11.68626262886596, -35.13353402844755 -11.943410123289539, -34.87347836025928 -12.21193895166136 M-35.63160095028037 -11.42911513444238 C-35.40768047042981 -11.660331414101378, -35.183759990579254 -11.891547693760376, -34.87347836025928 -12.21193895166136 M-34.87347836025928 -12.21193895166136 C-34.590007212741234 -12.469379947601684, -34.30653606522319 -12.726820943542007, -34.06675772023242 -12.944581292275274 M-34.87347836025928 -12.21193895166136 C-34.64142411519514 -12.422684477209737, -34.409369870131 -12.633430002758114, -34.06675772023242 -12.944581292275274 M-34.06675772023242 -12.944581292275274 C-33.830240360068814 -13.133197593014463, -33.59372299990521 -13.321813893753651, -33.214754018350675 -13.624031571755259 M-34.06675772023242 -12.944581292275274 C-33.75997732679033 -13.189230492276216, -33.45319693334823 -13.43387969227716, -33.214754018350675 -13.624031571755259 M-33.214754018350675 -13.624031571755259 C-33.006605003548714 -13.769227313855481, -32.79845598874676 -13.914423055955702, -32.32096832057934 -14.247497783161284 M-33.214754018350675 -13.624031571755259 C-32.8918670384297 -13.849263551396051, -32.56898005850872 -14.074495531036842, -32.32096832057934 -14.247497783161284 M-32.32096832057934 -14.247497783161284 C-31.995902478588498 -14.44455460687506, -31.670836636597652 -14.641611430588839, -31.389073384066947 -14.812417970097618 M-32.32096832057934 -14.247497783161284 C-32.09023964742432 -14.387366860740046, -31.859510974269295 -14.527235938318809, -31.389073384066947 -14.812417970097618 M-31.389073384066947 -14.812417970097618 C-31.09521115574578 -14.96572570638503, -30.801348927424616 -15.11903344267244, -30.42289856499849 -15.316470754341124 M-31.389073384066947 -14.812417970097618 C-31.17487415006298 -14.92416557327633, -30.960674916059013 -15.035913176455043, -30.42289856499849 -15.316470754341124 M-30.42289856499849 -15.316470754341124 C-30.04245163316272 -15.484883325507562, -29.662004701326953 -15.653295896673999, -29.426414082949368 -15.757584874882365 M-30.42289856499849 -15.316470754341124 C-30.10231338247988 -15.458384304820557, -29.781728199961268 -15.60029785529999, -29.426414082949368 -15.757584874882365 M-29.426414082949368 -15.757584874882365 C-29.023790553712256 -15.905754055452729, -28.62116702447514 -16.053923236023092, -28.403714706401566 -16.133947699181363 M-29.426414082949368 -15.757584874882365 C-29.090283047308684 -15.88128420315937, -28.754152011668 -16.004983531436373, -28.403714706401566 -16.133947699181363 M-28.403714706401566 -16.133947699181363 C-28.114072134610286 -16.21991209412413, -27.824429562819006 -16.305876489066897, -27.359002926461642 -16.444012671663494 M-28.403714706401566 -16.133947699181363 C-28.045142649538533 -16.240370003475174, -27.686570592675498 -16.34679230776899, -27.359002926461642 -16.444012671663494 M-27.359002926461642 -16.444012671663494 C-26.978409675228836 -16.530880597654313, -26.59781642399603 -16.617748523645133, -26.296571687923336 -16.68650566884811 M-27.359002926461642 -16.444012671663494 C-27.112538934988912 -16.500266469389295, -26.866074943516182 -16.556520267115094, -26.296571687923336 -16.68650566884811 M-26.296571687923336 -16.68650566884811 C-25.883785758429294 -16.75324169672601, -25.470999828935252 -16.819977724603916, -25.220786748636613 -16.86043023499518 M-26.296571687923336 -16.68650566884811 C-25.900302521812176 -16.75057139451168, -25.504033355701015 -16.814637120175252, -25.220786748636613 -16.86043023499518 M-25.220786748636613 -16.86043023499518 C-24.80558083469375 -16.90048465015508, -24.390374920750883 -16.94053906531498, -24.13606873967212 -16.965071676755716 M-25.220786748636613 -16.86043023499518 C-24.80437880352652 -16.900600608656127, -24.38797085841643 -16.940770982317076, -24.13606873967212 -16.965071676755716 M-24.13606873967212 -16.965071676755716 C-23.778201781704833 -16.97654777355195, -23.42033482373755 -16.988023870348187, -23.046875000000004 -17 M-24.13606873967212 -16.965071676755716 C-23.908070790771728 -16.972383127205866, -23.680072841871336 -16.979694577656016, -23.046875000000004 -17 M-23.046875000000004 -17 C-23.046875000000004 -17, -23.046875 -17, -23.046875 -17 M-23.046875000000004 -17 C-23.046875000000004 -17, -23.046875 -17, -23.046875 -17" stroke="#555555" stroke-width="1.3" fill="none" stroke-dasharray="0 0" style=""></path></g><g class="label" style="" transform="translate(0, -9.5)"><rect></rect><g><rect class="background" style="stroke: none"></rect><text y="-10.1" style=""><tspan class="text-outer-tspan row" x="0" y="-0.1em" dy="1.1em"><tspan font-style="normal" class="text-inner-tspan" font-weight="normal">Request</tspan></tspan></text></g></g></g><g class="node default" id="g5c9350c1-0583-4e78-9c90-3d9787defc02-dark-flowchart-Mode-1" data-look="classic" transform="translate(569.34765625, 184.0609359741211)"><polygon points="59.4609375,0 118.921875,-59.4609375 59.4609375,-118.921875 0,-59.4609375" class="label-container" transform="translate(-58.9609375, 59.4609375)"></polygon><g class="label" style="" transform="translate(0, -9.5)"><rect></rect><g><rect class="background" style="stroke: none"></rect><text y="-10.1" style=""><tspan class="text-outer-tspan row" x="0" y="-0.1em" dy="1.1em"><tspan font-style="normal" class="text-inner-tspan" font-weight="normal">Algorithm</tspan></tspan></text></g></g></g><g class="node default" id="g5c9350c1-0583-4e78-9c90-3d9787defc02-dark-flowchart-TBCheck-3" data-look="classic" transform="translate(200.09375, 385.1109390258789)"><polygon points="68.58906173706055,0 137.1781234741211,-68.58906173706055 68.58906173706055,-137.1781234741211 0,-68.58906173706055" class="label-container" transform="translate(-68.08906173706055, 68.58906173706055)"></polygon><g class="label" style="" transform="translate(0, -18.299999237060547)"><rect></rect><g><rect class="background" style="stroke: none"></rect><text y="-10.1" style=""><tspan class="text-outer-tspan row" x="0" y="-0.1em" dy="1.1em"><tspan font-style="normal" class="text-inner-tspan" font-weight="normal">Token</tspan></tspan><tspan class="text-outer-tspan row" x="0" y="1em" dy="1.1em"><tspan font-style="normal" class="text-inner-tspan" font-weight="normal">available?</tspan></tspan></text></g></g></g><g class="node default" id="g5c9350c1-0583-4e78-9c90-3d9787defc02-dark-flowchart-Refill-4" data-look="classic" transform="translate(165.58984375, 41.29999923706055)"><rect class="basic label-container" style="" x="-78.9453125" y="-33.29999923706055" width="157.890625" height="66.5999984741211"></rect><g class="label" style="" transform="translate(0, -18.299999237060547)"><rect></rect><g><rect class="background" style="stroke: none"></rect><text y="-10.1" style=""><tspan class="text-outer-tspan row" x="0" y="-0.1em" dy="1.1em"><tspan font-style="normal" class="text-inner-tspan" font-weight="normal">Refiller</tspan></tspan><tspan class="text-outer-tspan row" x="0" y="1em" dy="1.1em"><tspan font-style="normal" class="text-inner-tspan" font-weight="normal">+r</tspan><tspan font-style="normal" class="text-inner-tspan" font-weight="normal"> tokens/sec</tspan></tspan></text></g></g></g><g class="node default" id="g5c9350c1-0583-4e78-9c90-3d9787defc02-dark-flowchart-Bucket-5" data-look="classic" transform="translate(165.58984375, 184.0609359741211)"><path d="M0,12.750352177374902 a65.0546875,12.750352177374902 0,0,0 130.109375,0 a65.0546875,12.750352177374902 0,0,0 -130.109375,0 l0,64.350350651496 a65.0546875,12.750352177374902 0,0,0 130.109375,0 l0,-64.350350651496" class="basic label-container outer-path" style="" transform="translate(-65.0546875, -44.9255275031229)"></path><g class="label" style="" transform="translate(0, -9.299999237060547)"><rect></rect><g><rect class="background" style="stroke: none"></rect><text y="-10.1" style=""><tspan class="text-outer-tspan row" x="0" y="-0.1em" dy="1.1em"><tspan font-style="normal" class="text-inner-tspan" font-weight="normal">Bucket</tspan></tspan><tspan class="text-outer-tspan row" x="0" y="1em" dy="1.1em"><tspan font-style="normal" class="text-inner-tspan" font-weight="normal">capacity</tspan><tspan font-style="normal" class="text-inner-tspan" font-weight="normal"> =</tspan><tspan font-style="normal" class="text-inner-tspan" font-weight="normal"> burst</tspan></tspan></text></g></g></g><g class="node default pass" id="g5c9350c1-0583-4e78-9c90-3d9787defc02-dark-flowchart-TBPass-9" data-look="classic" transform="translate(87.1328125, 562.5200538635254)"><rect class="basic label-container" style="fill:#2D7A2D !important;stroke:#1E5A1E !important" x="-79.1328125" y="-33.29999923706055" width="158.265625" height="66.5999984741211"></rect><g class="label" style="color:#ffffff !important" transform="translate(0, -18.299999237060547)"><rect></rect><g><rect class="background" style="stroke: none"></rect><text y="-10.1" style="fill:#404040 !important"><tspan class="text-outer-tspan row" x="0" y="-0.1em" dy="1.1em"><tspan font-style="normal" class="text-inner-tspan" font-weight="normal">Pass</tspan></tspan><tspan class="text-outer-tspan row" x="0" y="1em" dy="1.1em"><tspan font-style="normal" class="text-inner-tspan" font-weight="normal">burst-friendly</tspan></tspan></text></g></g></g><g class="node default drop" id="g5c9350c1-0583-4e78-9c90-3d9787defc02-dark-flowchart-TBDrop-11" data-look="classic" transform="translate(313.0546875, 562.5200538635254)"><rect class="basic label-container" style="fill:#B43A3A !important;stroke:#8E2828 !important" x="-96.7890625" y="-33.29999923706055" width="193.578125" height="66.5999984741211"></rect><g class="label" style="color:#ffffff !important" transform="translate(0, -18.299999237060547)"><rect></rect><g><rect class="background" style="stroke: none"></rect><text y="-10.1" style="fill:#404040 !important"><tspan class="text-outer-tspan row" x="0" y="-0.1em" dy="1.1em"><tspan font-style="normal" class="text-inner-tspan" font-weight="normal">429</tspan></tspan><tspan class="text-outer-tspan row" x="0" y="1em" dy="1.1em"><tspan font-style="normal" class="text-inner-tspan" font-weight="normal">Too</tspan><tspan font-style="normal" class="text-inner-tspan" font-weight="normal"> Many</tspan><tspan font-style="normal" class="text-inner-tspan" font-weight="normal"> Requests</tspan></tspan></text></g></g></g><g class="node default" id="g5c9350c1-0583-4e78-9c90-3d9787defc02-dark-flowchart-LBQ-13" data-look="classic" transform="translate(627.69140625, 385.1109390258789)"><polygon points="56.17499923706055,0 112.3499984741211,-56.17499923706055 56.17499923706055,-112.3499984741211 0,-56.17499923706055" class="label-container" transform="translate(-55.67499923706055, 56.17499923706055)"></polygon><g class="label" style="" transform="translate(0, -18.299999237060547)"><rect></rect><g><rect class="background" style="stroke: none"></rect><text y="-10.1" style=""><tspan class="text-outer-tspan row" x="0" y="-0.1em" dy="1.1em"><tspan font-style="normal" class="text-inner-tspan" font-weight="normal">Queue</tspan></tspan><tspan class="text-outer-tspan row" x="0" y="1em" dy="1.1em"><tspan font-style="normal" class="text-inner-tspan" font-weight="normal">full?</tspan></tspan></text></g></g></g><g class="node default" id="g5c9350c1-0583-4e78-9c90-3d9787defc02-dark-flowchart-Queue-15" data-look="classic" transform="translate(522.8125, 562.5200538635254)"><path d="M0,12.546699875466999 a62.96875,12.546699875466999 0,0,0 125.9375,0 a62.96875,12.546699875466999 0,0,0 -125.9375,0 l0,46.546699875467 a62.96875,12.546699875466999 0,0,0 125.9375,0 l0,-46.546699875467" class="basic label-container outer-path" style="" transform="translate(-62.96875, -35.8200498132005)"></path><g class="label" style="" transform="translate(0, -0.5)"><rect></rect><g><rect class="background" style="stroke: none"></rect><text y="-10.1" style=""><tspan class="text-outer-tspan row" x="0" y="-0.1em" dy="1.1em"><tspan font-style="normal" class="text-inner-tspan" font-weight="normal">Queue</tspan><tspan font-style="normal" class="text-inner-tspan" font-weight="normal"> capacity</tspan></tspan></text></g></g></g><g class="node default drop" id="g5c9350c1-0583-4e78-9c90-3d9787defc02-dark-flowchart-LBDrop-17" data-look="classic" transform="translate(732.5703125, 562.5200538635254)"><rect class="basic label-container" style="fill:#B43A3A !important;stroke:#8E2828 !important" x="-96.7890625" y="-33.29999923706055" width="193.578125" height="66.5999984741211"></rect><g class="label" style="color:#ffffff !important" transform="translate(0, -18.299999237060547)"><rect></rect><g><rect class="background" style="stroke: none"></rect><text y="-10.1" style="fill:#404040 !important"><tspan class="text-outer-tspan row" x="0" y="-0.1em" dy="1.1em"><tspan font-style="normal" class="text-inner-tspan" font-weight="normal">429</tspan></tspan><tspan class="text-outer-tspan row" x="0" y="1em" dy="1.1em"><tspan font-style="normal" class="text-inner-tspan" font-weight="normal">Too</tspan><tspan font-style="normal" class="text-inner-tspan" font-weight="normal"> Many</tspan><tspan font-style="normal" class="text-inner-tspan" font-weight="normal"> Requests</tspan></tspan></text></g></g></g><g class="node default" id="g5c9350c1-0583-4e78-9c90-3d9787defc02-dark-flowchart-Leak-19" data-look="classic" transform="translate(522.8125, 672.8401031494141)"><rect class="basic label-container" style="" x="-101.921875" y="-24.5" width="203.84375" height="49"></rect><g class="label" style="" transform="translate(0, -9.5)"><rect></rect><g><rect class="background" style="stroke: none"></rect><text y="-10.1" style=""><tspan class="text-outer-tspan row" x="0" y="-0.1em" dy="1.1em"><tspan font-style="normal" class="text-inner-tspan" font-weight="normal">Drain</tspan><tspan font-style="normal" class="text-inner-tspan" font-weight="normal"> at</tspan><tspan font-style="normal" class="text-inner-tspan" font-weight="normal"> fixed</tspan><tspan font-style="normal" class="text-inner-tspan" font-weight="normal"> rate</tspan><tspan font-style="normal" class="text-inner-tspan" font-weight="normal"> r</tspan></tspan></text></g></g></g><g class="node default pass" id="g5c9350c1-0583-4e78-9c90-3d9787defc02-dark-flowchart-LBPass-21" data-look="classic" transform="translate(522.8125, 780.6401023864746)"><rect class="basic label-container" style="fill:#2D7A2D !important;stroke:#1E5A1E !important" x="-91.078125" y="-33.29999923706055" width="182.15625" height="66.5999984741211"></rect><g class="label" style="color:#ffffff !important" transform="translate(0, -18.299999237060547)"><rect></rect><g><rect class="background" style="stroke: none"></rect><text y="-10.1" style="fill:#404040 !important"><tspan class="text-outer-tspan row" x="0" y="-0.1em" dy="1.1em"><tspan font-style="normal" class="text-inner-tspan" font-weight="normal">Pass</tspan></tspan><tspan class="text-outer-tspan row" x="0" y="1em" dy="1.1em"><tspan font-style="normal" class="text-inner-tspan" font-weight="normal">smoothed</tspan><tspan font-style="normal" class="text-inner-tspan" font-weight="normal"> output</tspan></tspan></text></g></g></g></g></g></g><defs><filter id="g5c9350c1-0583-4e78-9c90-3d9787defc02-dark-drop-shadow" height="130%" width="130%"><feDropShadow dx="4" dy="4" stdDeviation="0" flood-opacity="0.06" flood-color="#000000"></feDropShadow></filter></defs><defs><filter id="g5c9350c1-0583-4e78-9c90-3d9787defc02-dark-drop-shadow-small" height="150%" width="150%"><feDropShadow dx="2" dy="2" stdDeviation="0" flood-opacity="0.06" flood-color="#000000"></feDropShadow></filter></defs><linearGradient id="g5c9350c1-0583-4e78-9c90-3d9787defc02-dark-gradient" gradientUnits="objectBoundingBox" x1="0%" y1="0%" x2="100%" y2="0%"><stop offset="0%" stop-color="#555555" stop-opacity="1"></stop><stop offset="100%" stop-color="#555555" stop-opacity="1"></stop></linearGradient></svg>