<svg id="g8e518be6-fdc0-4aa2-8c70-d0839d456245-dark" width="100%" xmlns="http://www.w3.org/2000/svg" xmlns:xlink="http://www.w3.org/1999/xlink" class="flowchart" style="max-width: 896.765625px;" viewBox="0 0 896.765625 821.9400634765625" role="graphics-document document" aria-roledescription="flowchart-v2"><style>#g8e518be6-fdc0-4aa2-8c70-d0839d456245-dark{font-family:"trebuchet ms",verdana,arial,sans-serif;font-size:16px;fill:#e5e5e5;}@keyframes edge-animation-frame{from{stroke-dashoffset:0;}}@keyframes dash{to{stroke-dashoffset:0;}}#g8e518be6-fdc0-4aa2-8c70-d0839d456245-dark .edge-animation-slow{stroke-dasharray:9,5!important;stroke-dashoffset:900;animation:dash 50s linear infinite;stroke-linecap:round;}#g8e518be6-fdc0-4aa2-8c70-d0839d456245-dark .edge-animation-fast{stroke-dasharray:9,5!important;stroke-dashoffset:900;animation:dash 20s linear infinite;stroke-linecap:round;}#g8e518be6-fdc0-4aa2-8c70-d0839d456245-dark .error-icon{fill:#252525;}#g8e518be6-fdc0-4aa2-8c70-d0839d456245-dark .error-text{fill:#cccccc;stroke:#cccccc;}#g8e518be6-fdc0-4aa2-8c70-d0839d456245-dark .edge-thickness-normal{stroke-width:1px;}#g8e518be6-fdc0-4aa2-8c70-d0839d456245-dark .edge-thickness-thick{stroke-width:3.5px;}#g8e518be6-fdc0-4aa2-8c70-d0839d456245-dark .edge-pattern-solid{stroke-dasharray:0;}#g8e518be6-fdc0-4aa2-8c70-d0839d456245-dark .edge-thickness-invisible{stroke-width:0;fill:none;}#g8e518be6-fdc0-4aa2-8c70-d0839d456245-dark .edge-pattern-dashed{stroke-dasharray:3;}#g8e518be6-fdc0-4aa2-8c70-d0839d456245-dark .edge-pattern-dotted{stroke-dasharray:2;}#g8e518be6-fdc0-4aa2-8c70-d0839d456245-dark .marker{fill:#cccccc;stroke:#cccccc;}#g8e518be6-fdc0-4aa2-8c70-d0839d456245-dark .marker.cross{stroke:#cccccc;}#g8e518be6-fdc0-4aa2-8c70-d0839d456245-dark svg{font-family:"trebuchet ms",verdana,arial,sans-serif;font-size:16px;}#g8e518be6-fdc0-4aa2-8c70-d0839d456245-dark p{margin:0;}#g8e518be6-fdc0-4aa2-8c70-d0839d456245-dark .label{font-family:"trebuchet ms",verdana,arial,sans-serif;color:#e5e5e5;}#g8e518be6-fdc0-4aa2-8c70-d0839d456245-dark .cluster-label text{fill:#e5e5e5;}#g8e518be6-fdc0-4aa2-8c70-d0839d456245-dark .cluster-label span{color:#e5e5e5;}#g8e518be6-fdc0-4aa2-8c70-d0839d456245-dark .cluster-label span p{background-color:transparent;}#g8e518be6-fdc0-4aa2-8c70-d0839d456245-dark .label text,#g8e518be6-fdc0-4aa2-8c70-d0839d456245-dark span{fill:#e5e5e5;color:#e5e5e5;}#g8e518be6-fdc0-4aa2-8c70-d0839d456245-dark .node rect,#g8e518be6-fdc0-4aa2-8c70-d0839d456245-dark .node circle,#g8e518be6-fdc0-4aa2-8c70-d0839d456245-dark .node ellipse,#g8e518be6-fdc0-4aa2-8c70-d0839d456245-dark .node polygon,#g8e518be6-fdc0-4aa2-8c70-d0839d456245-dark .node path{fill:#2d2d2d;stroke:#555555;stroke-width:1px;}#g8e518be6-fdc0-4aa2-8c70-d0839d456245-dark .rough-node .label text,#g8e518be6-fdc0-4aa2-8c70-d0839d456245-dark .node .label text,#g8e518be6-fdc0-4aa2-8c70-d0839d456245-dark .image-shape .label,#g8e518be6-fdc0-4aa2-8c70-d0839d456245-dark .icon-shape .label{text-anchor:middle;}#g8e518be6-fdc0-4aa2-8c70-d0839d456245-dark .node .katex path{fill:#000;stroke:#000;stroke-width:1px;}#g8e518be6-fdc0-4aa2-8c70-d0839d456245-dark .rough-node .label,#g8e518be6-fdc0-4aa2-8c70-d0839d456245-dark .node .label,#g8e518be6-fdc0-4aa2-8c70-d0839d456245-dark .image-shape .label,#g8e518be6-fdc0-4aa2-8c70-d0839d456245-dark .icon-shape .label{text-align:center;}#g8e518be6-fdc0-4aa2-8c70-d0839d456245-dark .node.clickable{cursor:pointer;}#g8e518be6-fdc0-4aa2-8c70-d0839d456245-dark .root .anchor path{fill:#cccccc!important;stroke-width:0;stroke:#cccccc;}#g8e518be6-fdc0-4aa2-8c70-d0839d456245-dark .arrowheadPath{fill:#cccccc;}#g8e518be6-fdc0-4aa2-8c70-d0839d456245-dark .edgePath .path{stroke:#cccccc;stroke-width:1px;}#g8e518be6-fdc0-4aa2-8c70-d0839d456245-dark .flowchart-link{stroke:#cccccc;fill:none;}#g8e518be6-fdc0-4aa2-8c70-d0839d456245-dark .edgeLabel{background-color:#1e1e1e;text-align:center;}#g8e518be6-fdc0-4aa2-8c70-d0839d456245-dark .edgeLabel p{background-color:#1e1e1e;}#g8e518be6-fdc0-4aa2-8c70-d0839d456245-dark .edgeLabel rect{opacity:0.5;background-color:#1e1e1e;fill:#1e1e1e;}#g8e518be6-fdc0-4aa2-8c70-d0839d456245-dark .labelBkg{background-color:rgba(30, 30, 30, 0.5);}#g8e518be6-fdc0-4aa2-8c70-d0839d456245-dark .cluster rect{fill:#1e1e1e;stroke:#555555;stroke-width:1px;}#g8e518be6-fdc0-4aa2-8c70-d0839d456245-dark .cluster text{fill:#e5e5e5;}#g8e518be6-fdc0-4aa2-8c70-d0839d456245-dark .cluster span{color:#e5e5e5;}#g8e518be6-fdc0-4aa2-8c70-d0839d456245-dark div.mermaidTooltip{position:absolute;text-align:center;max-width:200px;padding:2px;font-family:"trebuchet ms",verdana,arial,sans-serif;font-size:12px;background:#252525;border:1px solid #555555;border-radius:2px;pointer-events:none;z-index:100;}#g8e518be6-fdc0-4aa2-8c70-d0839d456245-dark .flowchartTitleText{text-anchor:middle;font-size:18px;fill:#e5e5e5;}#g8e518be6-fdc0-4aa2-8c70-d0839d456245-dark rect.text{fill:none;stroke-width:0;}#g8e518be6-fdc0-4aa2-8c70-d0839d456245-dark .icon-shape,#g8e518be6-fdc0-4aa2-8c70-d0839d456245-dark .image-shape{background-color:#1e1e1e;text-align:center;}#g8e518be6-fdc0-4aa2-8c70-d0839d456245-dark .icon-shape p,#g8e518be6-fdc0-4aa2-8c70-d0839d456245-dark .image-shape p{background-color:#1e1e1e;padding:2px;}#g8e518be6-fdc0-4aa2-8c70-d0839d456245-dark .icon-shape .label rect,#g8e518be6-fdc0-4aa2-8c70-d0839d456245-dark .image-shape .label rect{opacity:0.5;background-color:#1e1e1e;fill:#1e1e1e;}#g8e518be6-fdc0-4aa2-8c70-d0839d456245-dark .label-icon{display:inline-block;height:1em;overflow:visible;vertical-align:-0.125em;}#g8e518be6-fdc0-4aa2-8c70-d0839d456245-dark .node .label-icon path{fill:currentColor;stroke:revert;stroke-width:revert;}#g8e518be6-fdc0-4aa2-8c70-d0839d456245-dark .node .neo-node{stroke:#555555;}#g8e518be6-fdc0-4aa2-8c70-d0839d456245-dark [data-look="neo"].node rect,#g8e518be6-fdc0-4aa2-8c70-d0839d456245-dark [data-look="neo"].cluster rect,#g8e518be6-fdc0-4aa2-8c70-d0839d456245-dark [data-look="neo"].node polygon{stroke:url(#g8e518be6-fdc0-4aa2-8c70-d0839d456245-dark-gradient);filter:drop-shadow( 1px 2px 2px rgba(185,185,185,1));}#g8e518be6-fdc0-4aa2-8c70-d0839d456245-dark [data-look="neo"].node path{stroke:url(#g8e518be6-fdc0-4aa2-8c70-d0839d456245-dark-gradient);stroke-width:1px;}#g8e518be6-fdc0-4aa2-8c70-d0839d456245-dark [data-look="neo"].node .outer-path{filter:drop-shadow( 1px 2px 2px rgba(185,185,185,1));}#g8e518be6-fdc0-4aa2-8c70-d0839d456245-dark [data-look="neo"].node .neo-line path{stroke:#555555;filter:none;}#g8e518be6-fdc0-4aa2-8c70-d0839d456245-dark [data-look="neo"].node circle{stroke:url(#g8e518be6-fdc0-4aa2-8c70-d0839d456245-dark-gradient);filter:drop-shadow( 1px 2px 2px rgba(185,185,185,1));}#g8e518be6-fdc0-4aa2-8c70-d0839d456245-dark [data-look="neo"].node circle .state-start{fill:#000000;}#g8e518be6-fdc0-4aa2-8c70-d0839d456245-dark [data-look="neo"].icon-shape .icon{fill:url(#g8e518be6-fdc0-4aa2-8c70-d0839d456245-dark-gradient);filter:drop-shadow( 1px 2px 2px rgba(185,185,185,1));}#g8e518be6-fdc0-4aa2-8c70-d0839d456245-dark [data-look="neo"].icon-shape .icon-neo path{stroke:url(#g8e518be6-fdc0-4aa2-8c70-d0839d456245-dark-gradient);filter:drop-shadow( 1px 2px 2px rgba(185,185,185,1));}#g8e518be6-fdc0-4aa2-8c70-d0839d456245-dark :root{--mermaid-font-family:"trebuchet ms",verdana,arial,sans-serif;}</style><g><marker id="g8e518be6-fdc0-4aa2-8c70-d0839d456245-dark_flowchart-v2-pointEnd" class="marker flowchart-v2" viewBox="0 0 10 10" refX="5" refY="5" markerUnits="userSpaceOnUse" markerWidth="8" markerHeight="8" orient="auto"><path d="M 0 0 L 10 5 L 0 10 z" class="arrowMarkerPath" style="stroke-width: 1; stroke-dasharray: 1, 0;"></path></marker><marker id="g8e518be6-fdc0-4aa2-8c70-d0839d456245-dark_flowchart-v2-pointStart" class="marker flowchart-v2" viewBox="0 0 10 10" refX="4.5" refY="5" markerUnits="userSpaceOnUse" markerWidth="8" markerHeight="8" orient="auto"><path d="M 0 5 L 10 10 L 10 0 z" class="arrowMarkerPath" style="stroke-width: 1; stroke-dasharray: 1, 0;"></path></marker><marker id="g8e518be6-fdc0-4aa2-8c70-d0839d456245-dark_flowchart-v2-pointEnd-margin" class="marker flowchart-v2" viewBox="0 0 11.5 14" refX="11.5" refY="7" markerUnits="userSpaceOnUse" markerWidth="10.5" markerHeight="14" orient="auto"><path d="M 0 0 L 11.5 7 L 0 14 z" class="arrowMarkerPath" style="stroke-width: 0; stroke-dasharray: 1, 0;"></path></marker><marker id="g8e518be6-fdc0-4aa2-8c70-d0839d456245-dark_flowchart-v2-pointStart-margin" class="marker flowchart-v2" viewBox="0 0 11.5 14" refX="1" refY="7" markerUnits="userSpaceOnUse" markerWidth="11.5" markerHeight="14" orient="auto"><polygon points="0,7 11.5,14 11.5,0" class="arrowMarkerPath" style="stroke-width: 0; stroke-dasharray: 1, 0;"></polygon></marker><marker id="g8e518be6-fdc0-4aa2-8c70-d0839d456245-dark_flowchart-v2-circleEnd" class="marker flowchart-v2" viewBox="0 0 10 10" refX="11" refY="5" markerUnits="userSpaceOnUse" markerWidth="11" markerHeight="11" orient="auto"><circle cx="5" cy="5" r="5" class="arrowMarkerPath" style="stroke-width: 1; stroke-dasharray: 1, 0;"></circle></marker><marker id="g8e518be6-fdc0-4aa2-8c70-d0839d456245-dark_flowchart-v2-circleStart" class="marker flowchart-v2" viewBox="0 0 10 10" refX="-1" refY="5" markerUnits="userSpaceOnUse" markerWidth="11" markerHeight="11" orient="auto"><circle cx="5" cy="5" r="5" class="arrowMarkerPath" style="stroke-width: 1; stroke-dasharray: 1, 0;"></circle></marker><marker id="g8e518be6-fdc0-4aa2-8c70-d0839d456245-dark_flowchart-v2-circleEnd-margin" class="marker flowchart-v2" viewBox="0 0 10 10" refY="5" refX="12.25" markerUnits="userSpaceOnUse" markerWidth="14" markerHeight="14" orient="auto"><circle cx="5" cy="5" r="5" class="arrowMarkerPath" style="stroke-width: 0; stroke-dasharray: 1, 0;"></circle></marker><marker id="g8e518be6-fdc0-4aa2-8c70-d0839d456245-dark_flowchart-v2-circleStart-margin" class="marker flowchart-v2" viewBox="0 0 10 10" refX="-2" refY="5" markerUnits="userSpaceOnUse" markerWidth="14" markerHeight="14" orient="auto"><circle cx="5" cy="5" r="5" class="arrowMarkerPath" style="stroke-width: 0; stroke-dasharray: 1, 0;"></circle></marker><marker id="g8e518be6-fdc0-4aa2-8c70-d0839d456245-dark_flowchart-v2-crossEnd" class="marker cross flowchart-v2" viewBox="0 0 11 11" refX="12" refY="5.2" markerUnits="userSpaceOnUse" markerWidth="11" markerHeight="11" orient="auto"><path d="M 1,1 l 9,9 M 10,1 l -9,9" class="arrowMarkerPath" style="stroke-width: 2; stroke-dasharray: 1, 0;"></path></marker><marker id="g8e518be6-fdc0-4aa2-8c70-d0839d456245-dark_flowchart-v2-crossStart" class="marker cross flowchart-v2" viewBox="0 0 11 11" refX="-1" refY="5.2" markerUnits="userSpaceOnUse" markerWidth="11" markerHeight="11" orient="auto"><path d="M 1,1 l 9,9 M 10,1 l -9,9" class="arrowMarkerPath" style="stroke-width: 2; stroke-dasharray: 1, 0;"></path></marker><marker id="g8e518be6-fdc0-4aa2-8c70-d0839d456245-dark_flowchart-v2-crossEnd-margin" class="marker cross flowchart-v2" viewBox="0 0 15 15" refX="17.7" refY="7.5" markerUnits="userSpaceOnUse" markerWidth="12" markerHeight="12" orient="auto"><path d="M 1,1 L 14,14 M 1,14 L 14,1" class="arrowMarkerPath" style="stroke-width: 2.5;"></path></marker><marker id="g8e518be6-fdc0-4aa2-8c70-d0839d456245-dark_flowchart-v2-crossStart-margin" class="marker cross flowchart-v2" viewBox="0 0 15 15" refX="-3.5" refY="7.5" markerUnits="userSpaceOnUse" markerWidth="12" markerHeight="12" orient="auto"><path d="M 1,1 L 14,14 M 1,14 L 14,1" class="arrowMarkerPath" style="stroke-width: 2.5; stroke-dasharray: 1, 0;"></path></marker><g class="root"><g class="clusters"></g><g class="edgePaths"><path d="M606.977,58.8L606.893,65.6C606.81,72.4,606.643,86,606.56,96.3C606.477,106.6,606.477,113.6,606.477,117.1L606.477,120.6" id="g8e518be6-fdc0-4aa2-8c70-d0839d456245-dark-L_Req_Mode_0" class="edge-thickness-normal edge-pattern-solid edge-thickness-normal edge-pattern-solid flowchart-link" style=";" data-edge="true" data-et="edge" data-id="L_Req_Mode_0" data-points="W3sieCI6NjA2Ljk3NjU2MjUsInkiOjU4Ljc5OTk5OTIzNzA2MDU1fSx7IngiOjYwNi40NzY1NjI1LCJ5Ijo5OS41OTk5OTg0NzQxMjExfSx7IngiOjYwNi40NzY1NjI1LCJ5IjoxMjQuNTk5OTk4NDc0MTIxMX1d" data-look="classic" marker-end="url(#g8e518be6-fdc0-4aa2-8c70-d0839d456245-dark_flowchart-v2-pointEnd)"></path><path d="M564.815,201.86L534.324,214.887C503.832,227.914,442.85,253.968,391.004,279.867C339.158,305.765,296.449,331.508,275.094,344.38L253.74,357.251" id="g8e518be6-fdc0-4aa2-8c70-d0839d456245-dark-L_Mode_TBCheck_0" class="edge-thickness-normal edge-pattern-solid edge-thickness-normal edge-pattern-solid flowchart-link" style=";" data-edge="true" data-et="edge" data-id="L_Mode_TBCheck_0" data-points="W3sieCI6NTY0LjgxNDkyNTQ0ODcyNDIsInkiOjIwMS44NjAyMzY0MjI4NDUzfSx7IngiOjM4MS44NjcxODc1LCJ5IjoyODAuMDIxODczNDc0MTIxMX0seyJ4IjoyNTAuMzEzOTg4NDIxNjMyMDUsInkiOjM1OS4zMTYzMzA2NDU3NTMxN31d" data-look="classic" marker-end="url(#g8e518be6-fdc0-4aa2-8c70-d0839d456245-dark_flowchart-v2-pointEnd)"></path><path d="M173.016,74.6L173.016,78.767C173.016,82.933,173.016,91.267,173.016,101.356C173.016,111.445,173.016,123.29,173.016,129.213L173.016,135.135" id="g8e518be6-fdc0-4aa2-8c70-d0839d456245-dark-L_Refill_Bucket_0" class="edge-thickness-normal edge-pattern-solid edge-thickness-normal edge-pattern-solid flowchart-link" style=";" data-edge="true" data-et="edge" data-id="L_Refill_Bucket_0" data-points="W3sieCI6MTczLjAxNTYyNSwieSI6NzQuNTk5OTk4NDc0MTIxMX0seyJ4IjoxNzMuMDE1NjI1LCJ5Ijo5OS41OTk5OTg0NzQxMjExfSx7IngiOjE3My4wMTU2MjUsInkiOjEzOS4xMzU0MTAzMDg4Mzc5fV0=" data-look="classic" marker-end="url(#g8e518be6-fdc0-4aa2-8c70-d0839d456245-dark_flowchart-v2-pointEnd)"></path><path d="M173.016,228.986L173.016,237.492C173.016,245.998,173.016,263.01,175.733,279.791C178.45,296.573,183.884,313.124,186.601,321.399L189.318,329.675" id="g8e518be6-fdc0-4aa2-8c70-d0839d456245-dark-L_Bucket_TBCheck_0" class="edge-thickness-normal edge-pattern-solid edge-thickness-normal edge-pattern-solid flowchart-link" style=";" data-edge="true" data-et="edge" data-id="L_Bucket_TBCheck_0" data-points="W3sieCI6MTczLjAxNTYyNSwieSI6MjI4Ljk4NjQ2MTYzOTQwNDN9LHsieCI6MTczLjAxNTYyNSwieSI6MjgwLjAyMTg3MzQ3NDEyMTF9LHsieCI6MTkwLjU2NjAyMjM2NjA4Njc0LCJ5IjozMzMuNDc1MzgyMzU4MDM0NH1d" data-look="classic" marker-end="url(#g8e518be6-fdc0-4aa2-8c70-d0839d456245-dark_flowchart-v2-pointEnd)"></path><path d="M170.898,417.079L156.937,429.266C142.976,441.452,115.055,465.826,101.094,483.85C87.133,501.873,87.133,513.547,87.133,519.383L87.133,525.22" id="g8e518be6-fdc0-4aa2-8c70-d0839d456245-dark-L_TBCheck_TBPass_0" class="edge-thickness-normal edge-pattern-solid edge-thickness-normal edge-pattern-solid flowchart-link" style=";" data-edge="true" data-et="edge" data-id="L_TBCheck_TBPass_0" data-points="W3sieCI6MTcwLjg5ODI0ODA4NDM4MDY3LCJ5Ijo0MTcuMDc4NzIxNDEyMDE3NH0seyJ4Ijo4Ny4xMzI4MTI1LCJ5Ijo0OTAuMjAwMDA0NTc3NjM2N30seyJ4Ijo4Ny4xMzI4MTI1LCJ5Ijo1MjkuMjIwMDU0NjI2NDY0OH1d" data-look="classic" marker-end="url(#g8e518be6-fdc0-4aa2-8c70-d0839d456245-dark_flowchart-v2-pointEnd)"></path><path d="M244.141,417.079L258.102,429.266C272.063,441.452,299.984,465.826,313.945,485.316C327.906,504.807,327.906,519.413,327.906,526.717L327.906,534.02" id="g8e518be6-fdc0-4aa2-8c70-d0839d456245-dark-L_TBCheck_TBDrop_0" class="edge-thickness-normal edge-pattern-solid edge-thickness-normal edge-pattern-solid flowchart-link" style=";" data-edge="true" data-et="edge" data-id="L_TBCheck_TBDrop_0" data-points="W3sieCI6MjQ0LjE0MDgxNDQxNTYxOTI3LCJ5Ijo0MTcuMDc4NzIxNDEyMDE3NH0seyJ4IjozMjcuOTA2MjUsInkiOjQ5MC4yMDAwMDQ1Nzc2MzY3fSx7IngiOjMyNy45MDYyNSwieSI6NTM4LjAyMDA1Mzg2MzUyNTR9XQ==" data-look="classic" marker-end="url(#g8e518be6-fdc0-4aa2-8c70-d0839d456245-dark_flowchart-v2-pointEnd)"></path><path d="M628.959,221.039L634.936,230.87C640.913,240.7,652.867,260.361,658.843,277.677C664.82,294.993,664.82,309.965,664.82,317.45L664.82,324.936" id="g8e518be6-fdc0-4aa2-8c70-d0839d456245-dark-L_Mode_LBQ_0" class="edge-thickness-normal edge-pattern-solid edge-thickness-normal edge-pattern-solid flowchart-link" style=";" data-edge="true" data-et="edge" data-id="L_Mode_LBQ_0" data-points="W3sieCI6NjI4Ljk1OTE4NTIxNTMwNTUsInkiOjIyMS4wMzkyNTA3NTg4MTU2fSx7IngiOjY2NC44MjAzMTI1LCJ5IjoyODAuMDIxODczNDc0MTIxMX0seyJ4Ijo2NjQuODIwMzEyNDk5OTk5OSwieSI6MzI4LjkzNTkzOTc4ODgxODF9XQ==" data-look="classic" marker-end="url(#g8e518be6-fdc0-4aa2-8c70-d0839d456245-dark_flowchart-v2-pointEnd)"></path><path d="M635.801,412.266L621.92,425.255C608.039,438.244,580.277,464.222,566.396,482.628C552.516,501.033,552.516,511.867,552.516,517.283L552.516,522.7" id="g8e518be6-fdc0-4aa2-8c70-d0839d456245-dark-L_LBQ_Queue_0" class="edge-thickness-normal edge-pattern-solid edge-thickness-normal edge-pattern-solid flowchart-link" style=";" data-edge="true" data-et="edge" data-id="L_LBQ_Queue_0" data-points="W3sieCI6NjM1LjgwMDU0NzAwMDQ0MiwieSI6NDEyLjI2NjE3Mjc2MzM4MTYzfSx7IngiOjU1Mi41MTU2MjUsInkiOjQ5MC4yMDAwMDQ1Nzc2MzY3fSx7IngiOjU1Mi41MTU2MjUsInkiOjUyNi43MDAwMDQ1Nzc2MzY3fV0=" data-look="classic" marker-end="url(#g8e518be6-fdc0-4aa2-8c70-d0839d456245-dark_flowchart-v2-pointEnd)"></path><path d="M693.84,412.266L707.721,425.255C721.602,438.244,749.363,464.222,763.244,484.514C777.125,504.807,777.125,519.413,777.125,526.717L777.125,534.02" id="g8e518be6-fdc0-4aa2-8c70-d0839d456245-dark-L_LBQ_LBDrop_0" class="edge-thickness-normal edge-pattern-solid edge-thickness-normal edge-pattern-solid flowchart-link" style=";" data-edge="true" data-et="edge" data-id="L_LBQ_LBDrop_0" data-points="W3sieCI6NjkzLjg0MDA3Nzk5OTU1OCwieSI6NDEyLjI2NjE3Mjc2MzM4MTYzfSx7IngiOjc3Ny4xMjUsInkiOjQ5MC4yMDAwMDQ1Nzc2MzY3fSx7IngiOjc3Ny4xMjUsInkiOjUzOC4wMjAwNTM4NjM1MjU0fV0=" data-look="classic" marker-end="url(#g8e518be6-fdc0-4aa2-8c70-d0839d456245-dark_flowchart-v2-pointEnd)"></path><path d="M552.516,598.34L552.516,602.507C552.516,606.673,552.516,615.007,552.516,622.673C552.516,630.34,552.516,637.34,552.516,640.84L552.516,644.34" id="g8e518be6-fdc0-4aa2-8c70-d0839d456245-dark-L_Queue_Leak_0" class="edge-thickness-normal edge-pattern-solid edge-thickness-normal edge-pattern-solid flowchart-link" style=";" data-edge="true" data-et="edge" data-id="L_Queue_Leak_0" data-points="W3sieCI6NTUyLjUxNTYyNSwieSI6NTk4LjM0MDEwMzE0OTQxNDF9LHsieCI6NTUyLjUxNTYyNSwieSI6NjIzLjM0MDEwMzE0OTQxNDF9LHsieCI6NTUyLjUxNTYyNSwieSI6NjQ4LjM0MDEwMzE0OTQxNDF9XQ==" data-look="classic" marker-end="url(#g8e518be6-fdc0-4aa2-8c70-d0839d456245-dark_flowchart-v2-pointEnd)"></path><path d="M552.516,697.34L552.516,701.507C552.516,705.673,552.516,714.007,552.516,721.673C552.516,729.34,552.516,736.34,552.516,739.84L552.516,743.34" id="g8e518be6-fdc0-4aa2-8c70-d0839d456245-dark-L_Leak_LBPass_0" class="edge-thickness-normal edge-pattern-solid edge-thickness-normal edge-pattern-solid flowchart-link" style=";" data-edge="true" data-et="edge" data-id="L_Leak_LBPass_0" data-points="W3sieCI6NTUyLjUxNTYyNSwieSI6Njk3LjM0MDEwMzE0OTQxNDF9LHsieCI6NTUyLjUxNTYyNSwieSI6NzIyLjM0MDEwMzE0OTQxNDF9LHsieCI6NTUyLjUxNTYyNSwieSI6NzQ3LjM0MDEwMzE0OTQxNDF9XQ==" data-look="classic" marker-end="url(#g8e518be6-fdc0-4aa2-8c70-d0839d456245-dark_flowchart-v2-pointEnd)"></path></g><g class="edgeLabels"><g class="edgeLabel"><g class="label" data-id="L_Req_Mode_0" transform="translate(0, 0)"><text y="-10.1" text-anchor="middle"><tspan class="text-outer-tspan row" x="0" y="-0.1em" dy="1.1em" text-anchor="middle"></tspan></text></g></g><g><rect class="background" style="stroke: none"></rect></g><g class="edgeLabel" transform="translate(381.8671875, 280.0218734741211)"><g class="label" data-id="L_Mode_TBCheck_0" transform="translate(0, -10.5)"><g><rect class="background" style="" x="-49.0078125" y="-1" width="98.015625" height="23"></rect><text y="-10.1" text-anchor="middle" style=""><tspan class="text-outer-tspan row" x="0" y="-0.1em" dy="1.1em" text-anchor="middle"><tspan font-style="normal" class="text-inner-tspan" font-weight="normal">token</tspan><tspan font-style="normal" class="text-inner-tspan" font-weight="normal"> bucket</tspan></tspan></text></g></g></g><g class="edgeLabel"><g class="label" data-id="L_Refill_Bucket_0" transform="translate(0, 0)"><text y="-10.1" text-anchor="middle"><tspan class="text-outer-tspan row" x="0" y="-0.1em" dy="1.1em" text-anchor="middle"></tspan></text></g></g><g><rect class="background" style="stroke: none"></rect></g><g class="edgeLabel"><g class="label" data-id="L_Bucket_TBCheck_0" transform="translate(0, 0)"><text y="-10.1" text-anchor="middle"><tspan class="text-outer-tspan row" x="0" y="-0.1em" dy="1.1em" text-anchor="middle"></tspan></text></g></g><g><rect class="background" style="stroke: none"></rect></g><g class="edgeLabel" transform="translate(87.1328125, 490.2000045776367)"><g class="label" data-id="L_TBCheck_TBPass_0" transform="translate(0, -10.5)"><g><rect class="background" style="" x="-13.546875" y="-1" width="27.09375" height="23"></rect><text y="-10.1" text-anchor="middle" style=""><tspan class="text-outer-tspan row" x="0" y="-0.1em" dy="1.1em" text-anchor="middle"><tspan font-style="normal" class="text-inner-tspan" font-weight="normal">yes</tspan></tspan></text></g></g></g><g class="edgeLabel" transform="translate(327.90625, 490.2000045776367)"><g class="label" data-id="L_TBCheck_TBDrop_0" transform="translate(0, -10.5)"><g><rect class="background" style="" x="-10.6640625" y="-1" width="21.328125" height="23"></rect><text y="-10.1" text-anchor="middle" style=""><tspan class="text-outer-tspan row" x="0" y="-0.1em" dy="1.1em" text-anchor="middle"><tspan font-style="normal" class="text-inner-tspan" font-weight="normal">no</tspan></tspan></text></g></g></g><g class="edgeLabel" transform="translate(664.8203125, 280.0218734741211)"><g class="label" data-id="L_Mode_LBQ_0" transform="translate(0, -10.5)"><g><rect class="background" style="" x="-47.6796875" y="-1" width="95.359375" height="23"></rect><text y="-10.1" text-anchor="middle" style=""><tspan class="text-outer-tspan row" x="0" y="-0.1em" dy="1.1em" text-anchor="middle"><tspan font-style="normal" class="text-inner-tspan" font-weight="normal">leaky</tspan><tspan font-style="normal" class="text-inner-tspan" font-weight="normal"> bucket</tspan></tspan></text></g></g></g><g class="edgeLabel" transform="translate(552.515625, 490.2000045776367)"><g class="label" data-id="L_LBQ_Queue_0" transform="translate(0, -10.5)"><g><rect class="background" style="" x="-10.6640625" y="-1" width="21.328125" height="23"></rect><text y="-10.1" text-anchor="middle" style=""><tspan class="text-outer-tspan row" x="0" y="-0.1em" dy="1.1em" text-anchor="middle"><tspan font-style="normal" class="text-inner-tspan" font-weight="normal">no</tspan></tspan></text></g></g></g><g class="edgeLabel" transform="translate(777.125, 490.2000045776367)"><g class="label" data-id="L_LBQ_LBDrop_0" transform="translate(0, -10.5)"><g><rect class="background" style="" x="-13.546875" y="-1" width="27.09375" height="23"></rect><text y="-10.1" text-anchor="middle" style=""><tspan class="text-outer-tspan row" x="0" y="-0.1em" dy="1.1em" text-anchor="middle"><tspan font-style="normal" class="text-inner-tspan" font-weight="normal">yes</tspan></tspan></text></g></g></g><g class="edgeLabel"><g class="label" data-id="L_Queue_Leak_0" transform="translate(0, 0)"><text y="-10.1" text-anchor="middle"><tspan class="text-outer-tspan row" x="0" y="-0.1em" dy="1.1em" text-anchor="middle"></tspan></text></g></g><g><rect class="background" style="stroke: none"></rect></g><g class="edgeLabel"><g class="label" data-id="L_Leak_LBPass_0" transform="translate(0, 0)"><text y="-10.1" text-anchor="middle"><tspan class="text-outer-tspan row" x="0" y="-0.1em" dy="1.1em" text-anchor="middle"></tspan></text></g></g><g><rect class="background" style="stroke: none"></rect></g></g><g class="nodes"><g class="node default" id="g8e518be6-fdc0-4aa2-8c70-d0839d456245-dark-flowchart-Req-0" data-look="classic" transform="translate(606.4765625, 41.29999923706055)"><g class="basic label-container outer-path"><path d="M-23.046875 -17 C-7.774932834665481 -17, 7.497009330669037 -17, 23.046875 -17 C23.046875 -17, 23.046875 -17, 23.046875 -17 C23.436576736557218 -16.987503023817023, 23.82627847311443 -16.975006047634047, 24.13606873967212 -16.965071676755716 C24.54747007257956 -16.925384284952628, 24.958871405487006 -16.88569689314954, 25.2207867486366 -16.860430234995185 C25.533949751750693 -16.80980046926706, 25.84711275486479 -16.759170703538935, 26.296571687923326 -16.686505668848113 C26.584430814286616 -16.620803701712042, 26.872289940649903 -16.55510173457597, 27.35900292646162 -16.4440126716635 C27.720429971217705 -16.336743021949168, 28.081857015973785 -16.229473372234835, 28.40371470640155 -16.133947699181366 C28.623505832424982 -16.053062533077846, 28.84329695844841 -15.972177366974329, 29.42641408294936 -15.757584874882369 C29.753259431997122 -15.612900134381722, 30.080104781044884 -15.468215393881076, 30.422898564998487 -15.316470754341125 C30.653227686424888 -15.196308199225816, 30.883556807851285 -15.076145644110508, 31.38907338406694 -14.812417970097622 C31.586503901261413 -14.69273443034383, 31.783934418455882 -14.57305089059004, 32.320968320579325 -14.247497783161291 C32.67844525886476 -13.998137345940618, 33.0359221971502 -13.748776908719945, 33.214754018350675 -13.624031571755262 C33.39017385359253 -13.484138921267744, 33.56559368883439 -13.344246270780229, 34.0667577202324 -12.944581292275288 C34.3124164272194 -12.72148055436291, 34.55807513420639 -12.498379816450534, 34.87347836025927 -12.21193895166137 C35.143291540296495 -11.93333469119888, 35.41310472033372 -11.65473043073639, 35.63160095028036 -11.42911513444239 C35.87017211918798 -11.148875864359427, 36.10874328809559 -10.868636594276467, 36.33801020195651 -10.59932663159847 C36.57726258825114 -10.278750230304448, 36.816514974545775 -9.958173829010423, 36.98980332814825 -9.725983222076888 C37.21054223591496 -9.38686898305097, 37.43128114368166 -9.047754744025053, 37.58430197109088 -8.812673661278927 C37.69777888615949 -8.611183907790947, 37.8112558012281 -8.409694154302967, 38.119063208341004 -7.863150934094199 C38.228989926192234 -7.634885752421153, 38.33891664404346 -7.406620570748106, 38.59188959126881 -6.881316833080699 C38.71698969254263 -6.572317164288446, 38.84208979381645 -6.263317495496193, 39.000838174845924 -5.871205925162238 C39.08262195409305 -5.624886212545546, 39.164405733340175 -5.378566499928852, 39.344228501623235 -4.836968972727556 C39.43575473147031 -4.487939790601715, 39.52728096131738 -4.138910608475873, 39.620649507091 -3.7828558772573464 C39.668306289115215 -3.5381483738274673, 39.71596307113942 -3.2934408703975877, 39.82896531804565 -2.713198215567453 C39.883602901784975 -2.289439905496489, 39.938240485524304 -1.8656815954255255, 39.968319920136366 -1.632391440430593 C39.990406356689626 -1.2883773632629303, 40.012492793242885 -0.9443632860952675, 40.0381406754117 -0.5448768187181379 C40.0381406754117 -0.2863192184540935, 40.0381406754117 -0.027761618190049187, 40.0381406754117 0.5448768187181336 C40.01419726544405 0.9178147557369145, 39.990253855476396 1.2907526927556954, 39.968319920136366 1.6323914404305815 C39.939210982400446 1.8581546133004583, 39.91010204466453 2.083917786170335, 39.828965318045654 2.7131982155674415 C39.78552323569653 2.9362641269428362, 39.74208115334741 3.159330038318231, 39.620649507091 3.782855877257343 C39.52331562778887 4.154032143806512, 39.42598174848674 4.525208410355682, 39.344228501623235 4.836968972727545 C39.21711552675979 5.219813000314066, 39.09000255189634 5.602657027900587, 39.000838174845924 5.871205925162227 C38.83736995037676 6.27497560004417, 38.673901725907605 6.678745274926114, 38.59188959126881 6.881316833080694 C38.491385797930434 7.090015110384518, 38.39088200459206 7.298713387688341, 38.119063208341004 7.863150934094196 C37.98618774795557 8.099084769107924, 37.853312287570134 8.33501860412165, 37.58430197109089 8.812673661278923 C37.38964353224265 9.111721296459567, 37.19498509339442 9.410768931640213, 36.989803328148255 9.725983222076879 C36.73554899537961 10.066660864940637, 36.48129466261096 10.407338507804393, 36.33801020195651 10.599326631598467 C36.15257292537986 10.817151808345356, 35.96713564880321 11.034976985092246, 35.63160095028037 11.42911513444238 C35.44294094098117 11.623922083318636, 35.254280931681954 11.818729032194891, 34.87347836025927 12.211938951661365 C34.588044986562466 12.471161989499581, 34.30261161286566 12.730385027337798, 34.06675772023242 12.944581292275275 C33.80750159154833 13.151331155805508, 33.548245462864244 13.358081019335739, 33.214754018350675 13.62403157175526 C32.91839061177517 13.830761854817235, 32.62202720519967 14.037492137879209, 32.32096832057934 14.247497783161286 C32.09885818151298 14.382142254727373, 31.876748042446614 14.51678672629346, 31.389073384066943 14.81241797009762 C31.11231716233292 14.956801513705438, 30.835560940598903 15.101185057313256, 30.42289856499849 15.316470754341124 C30.13305219992185 15.44477714217362, 29.843205834845207 15.573083530006116, 29.426414082949368 15.757584874882367 C29.063474444193353 15.891150016921824, 28.70053480543734 16.02471515896128, 28.403714706401562 16.133947699181363 C28.173308475277885 16.202331059151884, 27.942902244154208 16.270714419122406, 27.359002926461642 16.444012671663497 C27.01340961528818 16.522892089731723, 26.66781630411472 16.60177150779995, 26.296571687923333 16.68650566884811 C25.897844441328303 16.750968797901614, 25.49911719473327 16.81543192695512, 25.220786748636613 16.86043023499518 C24.897602831207145 16.891607398824075, 24.574418913777677 16.922784562652968, 24.13606873967212 16.965071676755716 C23.84291800078503 16.974472450368527, 23.54976726189794 16.983873223981337, 23.046875000000004 17 C23.046875000000004 17, 23.046875000000004 17, 23.046875 17 C7.578794433914826 17, -7.889286132170348 17, -23.046874999999996 17 C-23.320059538787135 16.991239503562543, -23.593244077574273 16.982479007125086, -24.136068739672112 16.965071676755716 C-24.40076568353887 16.939536680925542, -24.66546262740563 16.914001685095364, -25.220786748636606 16.86043023499518 C-25.507875283151524 16.814015987139648, -25.794963817666442 16.76760173928411, -26.29657168792333 16.68650566884811 C-26.62384940587987 16.61180666541123, -26.951127123836407 16.53710766197435, -27.35900292646162 16.4440126716635 C-27.6807957321128 16.348506256071136, -28.002588537763977 16.252999840478775, -28.403714706401544 16.13394769918137 C-28.624214900720787 16.052801589390437, -28.844715095040026 15.971655479599503, -29.42641408294936 15.757584874882369 C-29.745525016624473 15.616323930633914, -30.064635950299586 15.475062986385458, -30.422898564998484 15.316470754341127 C-30.756796651934835 15.142276336258366, -31.090694738871182 14.968081918175605, -31.389073384066936 14.812417970097624 C-31.66534354159963 14.644941377057648, -31.941613699132326 14.477464784017673, -32.32096832057932 14.247497783161299 C-32.615386598832835 14.042124337413494, -32.90980487708635 13.836750891665691, -33.21475401835067 13.624031571755264 C-33.47312962781714 13.417983898869483, -33.731505237283606 13.211936225983704, -34.0667577202324 12.94458129227529 C-34.24485289417824 12.782839967437768, -34.42294806812407 12.621098642600248, -34.87347836025926 12.211938951661377 C-35.07165000555332 12.007310457700594, -35.26982165084739 11.802681963739813, -35.631600950280365 11.429115134442386 C-35.842438213930436 11.18145368757885, -36.05327547758051 10.933792240715313, -36.33801020195651 10.599326631598473 C-36.533263959910066 10.33770438392399, -36.72851771786362 10.076082136249509, -36.98980332814825 9.72598322207689 C-37.11674917277658 9.530960314995479, -37.24369501740491 9.335937407914068, -37.58430197109088 8.812673661278936 C-37.75760902728034 8.504949433772145, -37.93091608346979 8.197225206265355, -38.119063208341004 7.863150934094201 C-38.275073058200434 7.53919314278506, -38.43108290805986 7.215235351475919, -38.59188959126881 6.881316833080701 C-38.74265489284608 6.508923623336026, -38.893420194423356 6.13653041359135, -39.000838174845924 5.87120592516224 C-39.08256882052135 5.625046242397827, -39.16429946619677 5.378886559633414, -39.344228501623235 4.8369689727275516 C-39.44734494576156 4.443741280278523, -39.55046138989989 4.050513587829496, -39.620649507091 3.782855877257349 C-39.674267309523096 3.5075397938950896, -39.727885111955196 3.23222371053283, -39.82896531804565 2.713198215567455 C-39.87758628366943 2.336103607485043, -39.92620724929321 1.9590089994026316, -39.968319920136366 1.6323914404306026 C-39.986305540381935 1.3522508873745536, -40.0042911606275 1.0721103343185046, -40.0381406754117 0.54487681871814 C-40.0381406754117 0.21635726504441438, -40.0381406754117 -0.11216228862931121, -40.0381406754117 -0.5448768187181317 C-40.01645423012161 -0.8826607090947292, -39.99476778483153 -1.2204445994713264, -39.968319920136366 -1.6323914404305793 C-39.91803586997859 -2.0223846037455013, -39.86775181982081 -2.4123777670604234, -39.828965318045654 -2.713198215567447 C-39.75386889381711 -3.0988024823461338, -39.678772469588566 -3.4844067491248203, -39.620649507091 -3.782855877257341 C-39.52087281691728 -4.163347640380797, -39.421096126743564 -4.543839403504252, -39.344228501623235 -4.836968972727544 C-39.25497252964041 -5.105793739331912, -39.165716557657596 -5.37461850593628, -39.00083817484593 -5.871205925162218 C-38.8678373330682 -6.199720575749553, -38.73483649129047 -6.528235226336888, -38.59188959126881 -6.881316833080692 C-38.40939718587954 -7.26026621758347, -38.226904780490266 -7.639215602086248, -38.119063208341004 -7.863150934094194 C-37.91049951605462 -8.23347688911261, -37.701935823768245 -8.603802844131026, -37.58430197109088 -8.812673661278929 C-37.43962165218266 -9.034941483227398, -37.29494133327443 -9.257209305175866, -36.98980332814825 -9.725983222076884 C-36.79453848799451 -9.98762031889, -36.599273647840775 -10.249257415703115, -36.33801020195651 -10.599326631598467 C-36.09016726578939 -10.890457047082949, -35.842324329622265 -11.181587462567428, -35.63160095028037 -11.42911513444238 C-35.329723324101394 -11.74082856808621, -35.02784569792242 -12.05254200173004, -34.87347836025928 -12.21193895166136 C-34.59701045756199 -12.463019785951175, -34.32054255486471 -12.714100620240991, -34.06675772023242 -12.944581292275274 C-33.7602369151052 -13.189023477503037, -33.45371610997799 -13.433465662730798, -33.214754018350675 -13.624031571755259 C-32.90267752889102 -13.841722621228826, -32.590601039431355 -14.05941367070239, -32.32096832057934 -14.247497783161284 C-31.99170572588472 -14.447098703026946, -31.662443131190106 -14.646699622892607, -31.389073384066947 -14.812417970097618 C-31.12447980965205 -14.950456268389596, -30.859886235237155 -15.088494566681574, -30.42289856499849 -15.316470754341124 C-30.20652542193231 -15.412252726295282, -29.990152278866127 -15.50803469824944, -29.426414082949368 -15.757584874882365 C-29.06569902867691 -15.89033134926804, -28.704983974404453 -16.023077823653715, -28.403714706401566 -16.133947699181363 C-28.17508069620917 -16.201805073282056, -27.946446686016774 -16.26966244738275, -27.359002926461642 -16.444012671663494 C-27.073241596798482 -16.509235830392164, -26.787480267135322 -16.57445898912083, -26.296571687923336 -16.68650566884811 C-26.015274241183615 -16.731983658542706, -25.733976794443894 -16.777461648237306, -25.220786748636613 -16.86043023499518 C-24.990923361508447 -16.882604879500267, -24.761059974380277 -16.904779524005352, -24.13606873967212 -16.965071676755716 C-23.863113675957514 -16.973824814374243, -23.59015861224291 -16.98257795199277, -23.046875000000004 -17 C-23.046875000000004 -17, -23.046875000000004 -17, -23.046875 -17" stroke="none" stroke-width="0" fill="#2d2d2d" style=""></path><path d="M-23.046875 -17 C-10.745471599849271 -17, 1.5559318003014582 -17, 23.046875 -17 M-23.046875 -17 C-12.255755466194687 -17, -1.464635932389374 -17, 23.046875 -17 M23.046875 -17 C23.046875 -17, 23.046875 -17, 23.046875 -17 M23.046875 -17 C23.046875 -17, 23.046875 -17, 23.046875 -17 M23.046875 -17 C23.35489246244722 -16.990122479498936, 23.66290992489444 -16.980244958997876, 24.13606873967212 -16.965071676755716 M23.046875 -17 C23.4569045371688 -16.986851150817074, 23.866934074337603 -16.973702301634148, 24.13606873967212 -16.965071676755716 M24.13606873967212 -16.965071676755716 C24.547267481036368 -16.925403828715147, 24.95846622240062 -16.88573598067458, 25.2207867486366 -16.860430234995185 M24.13606873967212 -16.965071676755716 C24.430664782423346 -16.936652350815084, 24.725260825174576 -16.908233024874452, 25.2207867486366 -16.860430234995185 M25.2207867486366 -16.860430234995185 C25.44220724897551 -16.824632685642015, 25.663627749314426 -16.788835136288846, 26.296571687923326 -16.686505668848113 M25.2207867486366 -16.860430234995185 C25.49641931989546 -16.815868098436567, 25.772051891154316 -16.77130596187795, 26.296571687923326 -16.686505668848113 M26.296571687923326 -16.686505668848113 C26.60134317860005 -16.61694356492099, 26.906114669276775 -16.54738146099387, 27.35900292646162 -16.4440126716635 M26.296571687923326 -16.686505668848113 C26.60477994565559 -16.616159145267567, 26.91298820338785 -16.54581262168702, 27.35900292646162 -16.4440126716635 M27.35900292646162 -16.4440126716635 C27.619820237795917 -16.366603462717485, 27.880637549130213 -16.289194253771473, 28.40371470640155 -16.133947699181366 M27.35900292646162 -16.4440126716635 C27.713058178137118 -16.338930931440153, 28.06711342981261 -16.23384919121681, 28.40371470640155 -16.133947699181366 M28.40371470640155 -16.133947699181366 C28.795272412978107 -15.989850843641431, 29.186830119554664 -15.845753988101498, 29.42641408294936 -15.757584874882369 M28.40371470640155 -16.133947699181366 C28.725017915475085 -16.015705148147998, 29.046321124548623 -15.897462597114632, 29.42641408294936 -15.757584874882369 M29.42641408294936 -15.757584874882369 C29.631418476953506 -15.666835510896016, 29.83642287095765 -15.576086146909661, 30.422898564998487 -15.316470754341125 M29.42641408294936 -15.757584874882369 C29.822095954895058 -15.582428247657706, 30.21777782684076 -15.407271620433043, 30.422898564998487 -15.316470754341125 M30.422898564998487 -15.316470754341125 C30.716307594696605 -15.16339945148507, 31.009716624394724 -15.010328148629016, 31.38907338406694 -14.812417970097622 M30.422898564998487 -15.316470754341125 C30.692941111870574 -15.175589730608463, 30.96298365874266 -15.034708706875803, 31.38907338406694 -14.812417970097622 M31.38907338406694 -14.812417970097622 C31.71091224411624 -14.617317361800659, 32.03275110416554 -14.422216753503696, 32.320968320579325 -14.247497783161291 M31.38907338406694 -14.812417970097622 C31.630741207754678 -14.665917515180343, 31.872409031442416 -14.519417060263065, 32.320968320579325 -14.247497783161291 M32.320968320579325 -14.247497783161291 C32.574993674065084 -14.070300693149946, 32.82901902755084 -13.8931036031386, 33.214754018350675 -13.624031571755262 M32.320968320579325 -14.247497783161291 C32.5020844478568 -14.12115901316331, 32.68320057513428 -13.994820243165325, 33.214754018350675 -13.624031571755262 M33.214754018350675 -13.624031571755262 C33.39246745556091 -13.482309834733273, 33.57018089277115 -13.340588097711287, 34.0667577202324 -12.944581292275288 M33.214754018350675 -13.624031571755262 C33.485344490215155 -13.408242871158206, 33.755934962079635 -13.192454170561149, 34.0667577202324 -12.944581292275288 M34.0667577202324 -12.944581292275288 C34.27057527562452 -12.75947958118517, 34.47439283101664 -12.574377870095052, 34.87347836025927 -12.21193895166137 M34.0667577202324 -12.944581292275288 C34.28585856042274 -12.745599706304985, 34.504959400613075 -12.546618120334681, 34.87347836025927 -12.21193895166137 M34.87347836025927 -12.21193895166137 C35.07359529689165 -12.005301784682391, 35.273712233524016 -11.798664617703414, 35.63160095028036 -11.42911513444239 M34.87347836025927 -12.21193895166137 C35.0700230282788 -12.008990445313865, 35.26656769629832 -11.806041938966361, 35.63160095028036 -11.42911513444239 M35.63160095028036 -11.42911513444239 C35.86912747067063 -11.15010296795009, 36.106653991060895 -10.87109080145779, 36.33801020195651 -10.59932663159847 M35.63160095028036 -11.42911513444239 C35.85892344059812 -11.162089202299018, 36.08624593091588 -10.895063270155646, 36.33801020195651 -10.59932663159847 M36.33801020195651 -10.59932663159847 C36.58849165883323 -10.263704298713826, 36.83897311570995 -9.928081965829183, 36.98980332814825 -9.725983222076888 M36.33801020195651 -10.59932663159847 C36.490003388408205 -10.39566960861734, 36.6419965748599 -10.192012585636208, 36.98980332814825 -9.725983222076888 M36.98980332814825 -9.725983222076888 C37.19514174014998 -9.410528280158129, 37.40048015215171 -9.09507333823937, 37.58430197109088 -8.812673661278927 M36.98980332814825 -9.725983222076888 C37.19678553589052 -9.408002968479693, 37.40376774363279 -9.090022714882497, 37.58430197109088 -8.812673661278927 M37.58430197109088 -8.812673661278927 C37.71937523377971 -8.57283740572392, 37.85444849646853 -8.333001150168911, 38.119063208341004 -7.863150934094199 M37.58430197109088 -8.812673661278927 C37.777971793624054 -8.468793280175179, 37.971641616157235 -8.12491289907143, 38.119063208341004 -7.863150934094199 M38.119063208341004 -7.863150934094199 C38.275588793101726 -7.538122208227561, 38.43211437786245 -7.213093482360922, 38.59188959126881 -6.881316833080699 M38.119063208341004 -7.863150934094199 C38.281199085062546 -7.5264723169298975, 38.44333496178409 -7.1897936997655965, 38.59188959126881 -6.881316833080699 M38.59188959126881 -6.881316833080699 C38.703508298648494 -6.605616467851986, 38.81512700602817 -6.329916102623274, 39.000838174845924 -5.871205925162238 M38.59188959126881 -6.881316833080699 C38.72342129064414 -6.556430992631233, 38.85495299001946 -6.231545152181766, 39.000838174845924 -5.871205925162238 M39.000838174845924 -5.871205925162238 C39.13005415836118 -5.482027970585392, 39.259270141876435 -5.092850016008546, 39.344228501623235 -4.836968972727556 M39.000838174845924 -5.871205925162238 C39.12611817249301 -5.493882532906145, 39.25139817014009 -5.116559140650051, 39.344228501623235 -4.836968972727556 M39.344228501623235 -4.836968972727556 C39.421134905046095 -4.543691525030083, 39.49804130846896 -4.250414077332611, 39.620649507091 -3.7828558772573464 M39.344228501623235 -4.836968972727556 C39.446264826218155 -4.447860244224302, 39.548301150813074 -4.058751515721047, 39.620649507091 -3.7828558772573464 M39.620649507091 -3.7828558772573464 C39.68861402214007 -3.433872456785689, 39.75657853718915 -3.0848890363140313, 39.82896531804565 -2.713198215567453 M39.620649507091 -3.7828558772573464 C39.67358501824443 -3.5110432154087423, 39.72652052939785 -3.2392305535601382, 39.82896531804565 -2.713198215567453 M39.82896531804565 -2.713198215567453 C39.871155046344086 -2.385983014188973, 39.91334477464252 -2.0587678128104936, 39.968319920136366 -1.632391440430593 M39.82896531804565 -2.713198215567453 C39.883903358534226 -2.287109622281222, 39.9388413990228 -1.8610210289949913, 39.968319920136366 -1.632391440430593 M39.968319920136366 -1.632391440430593 C39.991957612412655 -1.2642153032255885, 40.01559530468895 -0.8960391660205841, 40.0381406754117 -0.5448768187181379 M39.968319920136366 -1.632391440430593 C39.993220660621965 -1.2445423078514881, 40.018121401107564 -0.8566931752723832, 40.0381406754117 -0.5448768187181379 M40.0381406754117 -0.5448768187181379 C40.0381406754117 -0.18111164310227484, 40.0381406754117 0.18265353251358818, 40.0381406754117 0.5448768187181336 M40.0381406754117 -0.5448768187181379 C40.0381406754117 -0.2977010173686035, 40.0381406754117 -0.05052521601906912, 40.0381406754117 0.5448768187181336 M40.0381406754117 0.5448768187181336 C40.017999760557984 0.858587825018583, 39.997858845704265 1.1722988313190323, 39.968319920136366 1.6323914404305815 M40.0381406754117 0.5448768187181336 C40.014667741957325 0.9104867042807736, 39.991194808502954 1.2760965898434136, 39.968319920136366 1.6323914404305815 M39.968319920136366 1.6323914404305815 C39.933079779993754 1.9057070084239376, 39.897839639851135 2.179022576417294, 39.828965318045654 2.7131982155674415 M39.968319920136366 1.6323914404305815 C39.92958685750838 1.9327974254648776, 39.8908537948804 2.233203410499174, 39.828965318045654 2.7131982155674415 M39.828965318045654 2.7131982155674415 C39.765138572425364 3.0409350645401565, 39.701311826805075 3.3686719135128715, 39.620649507091 3.782855877257343 M39.828965318045654 2.7131982155674415 C39.77125088270139 3.00954964311001, 39.71353644735713 3.3059010706525784, 39.620649507091 3.782855877257343 M39.620649507091 3.782855877257343 C39.53713085448207 4.1013486968682145, 39.45361220187314 4.419841516479087, 39.344228501623235 4.836968972727545 M39.620649507091 3.782855877257343 C39.54862086591152 4.057532303485251, 39.476592224732045 4.332208729713161, 39.344228501623235 4.836968972727545 M39.344228501623235 4.836968972727545 C39.23903749730228 5.153787517831766, 39.13384649298132 5.470606062935986, 39.000838174845924 5.871205925162227 M39.344228501623235 4.836968972727545 C39.26247068609579 5.083210486757307, 39.18071287056835 5.329452000787068, 39.000838174845924 5.871205925162227 M39.000838174845924 5.871205925162227 C38.86071956986052 6.21730158848511, 38.72060096487512 6.563397251807994, 38.59188959126881 6.881316833080694 M39.000838174845924 5.871205925162227 C38.885234474361226 6.15674930040493, 38.76963077387653 6.442292675647634, 38.59188959126881 6.881316833080694 M38.59188959126881 6.881316833080694 C38.43744307383683 7.202028331154283, 38.28299655640485 7.522739829227872, 38.119063208341004 7.863150934094196 M38.59188959126881 6.881316833080694 C38.44154988897205 7.1935004416542405, 38.291210186675286 7.505684050227786, 38.119063208341004 7.863150934094196 M38.119063208341004 7.863150934094196 C37.913666473490665 8.227853635495709, 37.708269738640325 8.592556336897221, 37.58430197109089 8.812673661278923 M38.119063208341004 7.863150934094196 C37.9808357287469 8.108587821163635, 37.84260824915278 8.354024708233075, 37.58430197109089 8.812673661278923 M37.58430197109089 8.812673661278923 C37.399560097960844 9.09648678854568, 37.2148182248308 9.38029991581244, 36.989803328148255 9.725983222076879 M37.58430197109089 8.812673661278923 C37.35073329663425 9.171497867215315, 37.11716462217761 9.530322073151707, 36.989803328148255 9.725983222076879 M36.989803328148255 9.725983222076879 C36.844014597658074 9.921326839307149, 36.698225867167885 10.11667045653742, 36.33801020195651 10.599326631598467 M36.989803328148255 9.725983222076879 C36.75516793068756 10.040373278949753, 36.52053253322688 10.354763335822627, 36.33801020195651 10.599326631598467 M36.33801020195651 10.599326631598467 C36.13994027012181 10.8319908440299, 35.941870338287124 11.064655056461332, 35.63160095028037 11.42911513444238 M36.33801020195651 10.599326631598467 C36.061603941696355 10.924009152861808, 35.7851976814362 11.24869167412515, 35.63160095028037 11.42911513444238 M35.63160095028037 11.42911513444238 C35.35518458148852 11.714537729425894, 35.07876821269667 11.999960324409408, 34.87347836025927 12.211938951661365 M35.63160095028037 11.42911513444238 C35.44095848518884 11.625969131686858, 35.25031602009731 11.822823128931338, 34.87347836025927 12.211938951661365 M34.87347836025927 12.211938951661365 C34.686524210653545 12.381725763797547, 34.49957006104782 12.55151257593373, 34.06675772023242 12.944581292275275 M34.87347836025927 12.211938951661365 C34.70384892053518 12.365991920669753, 34.53421948081109 12.520044889678143, 34.06675772023242 12.944581292275275 M34.06675772023242 12.944581292275275 C33.774671228560706 13.177512496635485, 33.482584736889 13.410443700995694, 33.214754018350675 13.62403157175526 M34.06675772023242 12.944581292275275 C33.86696877147791 13.103907662299788, 33.66717982272339 13.263234032324302, 33.214754018350675 13.62403157175526 M33.214754018350675 13.62403157175526 C32.99252250498619 13.779050655231162, 32.770290991621714 13.934069738707063, 32.32096832057934 14.247497783161286 M33.214754018350675 13.62403157175526 C32.94201537089593 13.814282245553935, 32.66927672344118 14.00453291935261, 32.32096832057934 14.247497783161286 M32.32096832057934 14.247497783161286 C31.976235262570942 14.456476988802294, 31.631502204562548 14.665456194443301, 31.389073384066943 14.81241797009762 M32.32096832057934 14.247497783161286 C32.102029268180715 14.380219923354018, 31.88309021578209 14.512942063546749, 31.389073384066943 14.81241797009762 M31.389073384066943 14.81241797009762 C31.054693842439743 14.986863562784212, 30.720314300812543 15.161309155470803, 30.42289856499849 15.316470754341124 M31.389073384066943 14.81241797009762 C31.082349902767486 14.97243541382578, 30.77562642146803 15.13245285755394, 30.42289856499849 15.316470754341124 M30.42289856499849 15.316470754341124 C30.057831852560437 15.478074958618192, 29.692765140122383 15.639679162895261, 29.426414082949368 15.757584874882367 M30.42289856499849 15.316470754341124 C30.164524078339902 15.430845475178051, 29.906149591681313 15.545220196014979, 29.426414082949368 15.757584874882367 M29.426414082949368 15.757584874882367 C29.14304815448525 15.86186615596309, 28.859682226021132 15.966147437043814, 28.403714706401562 16.133947699181363 M29.426414082949368 15.757584874882367 C29.212759035957852 15.836211907180848, 28.999103988966336 15.914838939479331, 28.403714706401562 16.133947699181363 M28.403714706401562 16.133947699181363 C28.11521573038108 16.219572680902214, 27.8267167543606 16.305197662623065, 27.359002926461642 16.444012671663497 M28.403714706401562 16.133947699181363 C28.18665345700871 16.198370338623413, 27.96959220761586 16.262792978065463, 27.359002926461642 16.444012671663497 M27.359002926461642 16.444012671663497 C27.11613760239075 16.499445097038326, 26.873272278319863 16.554877522413157, 26.296571687923333 16.68650566884811 M27.359002926461642 16.444012671663497 C27.07477853669445 16.50888503389038, 26.790554146927256 16.573757396117266, 26.296571687923333 16.68650566884811 M26.296571687923333 16.68650566884811 C25.976775727385057 16.738207799693225, 25.656979766846778 16.78990993053834, 25.220786748636613 16.86043023499518 M26.296571687923333 16.68650566884811 C25.935952756614512 16.74480774102054, 25.57533382530569 16.803109813192968, 25.220786748636613 16.86043023499518 M25.220786748636613 16.86043023499518 C24.90601393302407 16.890795989947627, 24.591241117411524 16.921161744900072, 24.13606873967212 16.965071676755716 M25.220786748636613 16.86043023499518 C24.88230576373654 16.89308308852555, 24.543824778836466 16.925735942055915, 24.13606873967212 16.965071676755716 M24.13606873967212 16.965071676755716 C23.788251914001254 16.976225485370602, 23.440435088330393 16.987379293985484, 23.046875000000004 17 M24.13606873967212 16.965071676755716 C23.726961244860803 16.978190957834883, 23.317853750049487 16.991310238914053, 23.046875000000004 17 M23.046875000000004 17 C23.046875000000004 17, 23.046875 17, 23.046875 17 M23.046875000000004 17 C23.046875000000004 17, 23.046875 17, 23.046875 17 M23.046875 17 C11.034377536873459 17, -0.9781199262530826 17, -23.046874999999996 17 M23.046875 17 C4.762623107600046 17, -13.521628784799908 17, -23.046874999999996 17 M-23.046874999999996 17 C-23.32426888599349 16.99110451799063, -23.60166277198698 16.982209035981267, -24.136068739672112 16.965071676755716 M-23.046874999999996 17 C-23.28239398013368 16.992447364717, -23.51791296026736 16.984894729433993, -24.136068739672112 16.965071676755716 M-24.136068739672112 16.965071676755716 C-24.48540953119803 16.931371190740983, -24.83475032272395 16.89767070472625, -25.220786748636606 16.86043023499518 M-24.136068739672112 16.965071676755716 C-24.485209073007688 16.931390528701517, -24.834349406343268 16.89770938064732, -25.220786748636606 16.86043023499518 M-25.220786748636606 16.86043023499518 C-25.52375242356391 16.811449094206836, -25.826718098491213 16.76246795341849, -26.29657168792333 16.68650566884811 M-25.220786748636606 16.86043023499518 C-25.488110531101995 16.817211398973072, -25.755434313567385 16.773992562950966, -26.29657168792333 16.68650566884811 M-26.29657168792333 16.68650566884811 C-26.646712491994904 16.60658831520105, -26.99685329606648 16.526670961553997, -27.35900292646162 16.4440126716635 M-26.29657168792333 16.68650566884811 C-26.66863569269168 16.60158448770427, -27.040699697460035 16.516663306560428, -27.35900292646162 16.4440126716635 M-27.35900292646162 16.4440126716635 C-27.588331471058094 16.37594916339736, -27.817660015654567 16.307885655131226, -28.403714706401544 16.13394769918137 M-27.35900292646162 16.4440126716635 C-27.752685609371735 16.32716971785835, -28.14636829228185 16.210326764053203, -28.403714706401544 16.13394769918137 M-28.403714706401544 16.13394769918137 C-28.698215534877885 16.02556867196626, -28.992716363354226 15.91718964475115, -29.42641408294936 15.757584874882369 M-28.403714706401544 16.13394769918137 C-28.7424680870095 16.009283323715717, -29.081221467617453 15.884618948250068, -29.42641408294936 15.757584874882369 M-29.42641408294936 15.757584874882369 C-29.72826953673433 15.623962419715657, -30.030124990519298 15.490339964548943, -30.422898564998484 15.316470754341127 M-29.42641408294936 15.757584874882369 C-29.68967049542906 15.641049070301621, -29.952926907908754 15.524513265720874, -30.422898564998484 15.316470754341127 M-30.422898564998484 15.316470754341127 C-30.67986890485267 15.182409492636557, -30.936839244706853 15.048348230931987, -31.389073384066936 14.812417970097624 M-30.422898564998484 15.316470754341127 C-30.734983006318625 15.153656501204035, -31.047067447638767 14.990842248066942, -31.389073384066936 14.812417970097624 M-31.389073384066936 14.812417970097624 C-31.697197787788898 14.625631145821385, -32.00532219151086 14.43884432154515, -32.32096832057932 14.247497783161299 M-31.389073384066936 14.812417970097624 C-31.694059185306813 14.6275337850905, -31.999044986546693 14.442649600083378, -32.32096832057932 14.247497783161299 M-32.32096832057932 14.247497783161299 C-32.55992531393264 14.080811728879544, -32.79888230728596 13.914125674597788, -33.21475401835067 13.624031571755264 M-32.32096832057932 14.247497783161299 C-32.574381450268795 14.070727753967498, -32.82779457995827 13.893957724773696, -33.21475401835067 13.624031571755264 M-33.21475401835067 13.624031571755264 C-33.45925605003592 13.429047707958595, -33.70375808172117 13.234063844161925, -34.0667577202324 12.94458129227529 M-33.21475401835067 13.624031571755264 C-33.456779325564256 13.431022829816344, -33.698804632777836 13.238014087877424, -34.0667577202324 12.94458129227529 M-34.0667577202324 12.94458129227529 C-34.23605822487221 12.790827053407304, -34.40535872951202 12.63707281453932, -34.87347836025926 12.211938951661377 M-34.0667577202324 12.94458129227529 C-34.29881041643087 12.733837173365732, -34.53086311262934 12.523093054456174, -34.87347836025926 12.211938951661377 M-34.87347836025926 12.211938951661377 C-35.05270399894937 12.026873765015246, -35.23192963763948 11.841808578369116, -35.631600950280365 11.429115134442386 M-34.87347836025926 12.211938951661377 C-35.04380837164798 12.036059230548519, -35.2141383830367 11.86017950943566, -35.631600950280365 11.429115134442386 M-35.631600950280365 11.429115134442386 C-35.802248023381 11.228663372284853, -35.97289509648162 11.028211610127322, -36.33801020195651 10.599326631598473 M-35.631600950280365 11.429115134442386 C-35.78363556924962 11.250526619986209, -35.93567018821887 11.071938105530032, -36.33801020195651 10.599326631598473 M-36.33801020195651 10.599326631598473 C-36.53847520371028 10.330721791985779, -36.738940205464054 10.062116952373083, -36.98980332814825 9.72598322207689 M-36.33801020195651 10.599326631598473 C-36.57379049871901 10.283402513963635, -36.80957079548152 9.967478396328799, -36.98980332814825 9.72598322207689 M-36.98980332814825 9.72598322207689 C-37.135900986443914 9.501537986220395, -37.28199864473958 9.277092750363899, -37.58430197109088 8.812673661278936 M-36.98980332814825 9.72598322207689 C-37.14931682955136 9.480927648549063, -37.30883033095448 9.235872075021234, -37.58430197109088 8.812673661278936 M-37.58430197109088 8.812673661278936 C-37.75722735607099 8.505627129652742, -37.930152741051096 8.198580598026547, -38.119063208341004 7.863150934094201 M-37.58430197109088 8.812673661278936 C-37.734390761405436 8.546175815937392, -37.88447955172 8.279677970595847, -38.119063208341004 7.863150934094201 M-38.119063208341004 7.863150934094201 C-38.24442759974677 7.602829092971854, -38.36979199115254 7.342507251849507, -38.59188959126881 6.881316833080701 M-38.119063208341004 7.863150934094201 C-38.25953789717805 7.571452237047234, -38.400012586015094 7.279753540000267, -38.59188959126881 6.881316833080701 M-38.59188959126881 6.881316833080701 C-38.701534967059125 6.610490635029487, -38.81118034284945 6.339664436978273, -39.000838174845924 5.87120592516224 M-38.59188959126881 6.881316833080701 C-38.71741582160671 6.57126461726153, -38.842942051944604 6.26121240144236, -39.000838174845924 5.87120592516224 M-39.000838174845924 5.87120592516224 C-39.0715541465133 5.658220685560096, -39.142270118180676 5.445235445957951, -39.344228501623235 4.8369689727275516 M-39.000838174845924 5.87120592516224 C-39.10249903835111 5.5650196017435665, -39.20415990185629 5.258833278324892, -39.344228501623235 4.8369689727275516 M-39.344228501623235 4.8369689727275516 C-39.402963732666954 4.612986080747695, -39.46169896371067 4.3890031887678385, -39.620649507091 3.782855877257349 M-39.344228501623235 4.8369689727275516 C-39.417962630730116 4.5557887818693015, -39.491696759837 4.274608591011051, -39.620649507091 3.782855877257349 M-39.620649507091 3.782855877257349 C-39.663660122098754 3.5620054594892463, -39.7066707371065 3.341155041721143, -39.82896531804565 2.713198215567455 M-39.620649507091 3.782855877257349 C-39.66691223652417 3.5453065392493532, -39.713174965957336 3.3077572012413574, -39.82896531804565 2.713198215567455 M-39.82896531804565 2.713198215567455 C-39.883033539951235 2.2938557634458023, -39.937101761856816 1.8745133113241494, -39.968319920136366 1.6323914404306026 M-39.82896531804565 2.713198215567455 C-39.86956978120719 2.39827801754472, -39.91017424436873 2.083357819521985, -39.968319920136366 1.6323914404306026 M-39.968319920136366 1.6323914404306026 C-39.99324694472128 1.2441329117885203, -40.01817396930619 0.8558743831464378, -40.0381406754117 0.54487681871814 M-39.968319920136366 1.6323914404306026 C-39.99027400250363 1.29043888654415, -40.0122280848709 0.9484863326576976, -40.0381406754117 0.54487681871814 M-40.0381406754117 0.54487681871814 C-40.0381406754117 0.16681824618492497, -40.0381406754117 -0.21124032634829004, -40.0381406754117 -0.5448768187181317 M-40.0381406754117 0.54487681871814 C-40.0381406754117 0.28368401696298606, -40.0381406754117 0.02249121520783215, -40.0381406754117 -0.5448768187181317 M-40.0381406754117 -0.5448768187181317 C-40.013244696210286 -0.9326517904527333, -39.98834871700888 -1.320426762187335, -39.968319920136366 -1.6323914404305793 M-40.0381406754117 -0.5448768187181317 C-40.01237062360413 -0.946266176832452, -39.98660057179655 -1.3476555349467723, -39.968319920136366 -1.6323914404305793 M-39.968319920136366 -1.6323914404305793 C-39.92191211305684 -1.9923212278813465, -39.875504305977316 -2.3522510153321137, -39.828965318045654 -2.713198215567447 M-39.968319920136366 -1.6323914404305793 C-39.91835088973546 -2.019941372718936, -39.86838185933454 -2.4074913050072926, -39.828965318045654 -2.713198215567447 M-39.828965318045654 -2.713198215567447 C-39.77713503162637 -2.9793357819955464, -39.72530474520709 -3.245473348423646, -39.620649507091 -3.782855877257341 M-39.828965318045654 -2.713198215567447 C-39.74708125710787 -3.1336555622805493, -39.66519719617009 -3.5541129089936523, -39.620649507091 -3.782855877257341 M-39.620649507091 -3.782855877257341 C-39.54235518959199 -4.081426042852947, -39.46406087209297 -4.379996208448554, -39.344228501623235 -4.836968972727544 M-39.620649507091 -3.782855877257341 C-39.52979342752584 -4.129329485913272, -39.43893734796068 -4.475803094569202, -39.344228501623235 -4.836968972727544 M-39.344228501623235 -4.836968972727544 C-39.25407932577571 -5.108483927059681, -39.16393014992819 -5.379998881391819, -39.00083817484593 -5.871205925162218 M-39.344228501623235 -4.836968972727544 C-39.27346603067349 -5.050094260759527, -39.202703559723744 -5.263219548791512, -39.00083817484593 -5.871205925162218 M-39.00083817484593 -5.871205925162218 C-38.898808051602174 -6.123222302192529, -38.79677792835842 -6.375238679222839, -38.59188959126881 -6.881316833080692 M-39.00083817484593 -5.871205925162218 C-38.87616197914621 -6.179158538990792, -38.75148578344649 -6.487111152819365, -38.59188959126881 -6.881316833080692 M-38.59188959126881 -6.881316833080692 C-38.49275754074471 -7.0871666570800755, -38.393625490220614 -7.293016481079458, -38.119063208341004 -7.863150934094194 M-38.59188959126881 -6.881316833080692 C-38.41608329666969 -7.246382365467866, -38.24027700207057 -7.61144789785504, -38.119063208341004 -7.863150934094194 M-38.119063208341004 -7.863150934094194 C-37.95523411836533 -8.154046072840256, -37.79140502838967 -8.444941211586316, -37.58430197109088 -8.812673661278929 M-38.119063208341004 -7.863150934094194 C-37.99242271729186 -8.088013949692227, -37.865782226242715 -8.312876965290261, -37.58430197109088 -8.812673661278929 M-37.58430197109088 -8.812673661278929 C-37.38942899649971 -9.11205088097164, -37.19455602190853 -9.41142810066435, -36.98980332814825 -9.725983222076884 M-37.58430197109088 -8.812673661278929 C-37.38280074586314 -9.12223365388391, -37.181299520635406 -9.431793646488893, -36.98980332814825 -9.725983222076884 M-36.98980332814825 -9.725983222076884 C-36.85017708410601 -9.913069668880974, -36.71055084006377 -10.100156115685063, -36.33801020195651 -10.599326631598467 M-36.98980332814825 -9.725983222076884 C-36.74319389094977 -10.056417401340937, -36.49658445375129 -10.38685158060499, -36.33801020195651 -10.599326631598467 M-36.33801020195651 -10.599326631598467 C-36.19427000832783 -10.768172042083439, -36.05052981469914 -10.93701745256841, -35.63160095028037 -11.42911513444238 M-36.33801020195651 -10.599326631598467 C-36.1794266406942 -10.78560790631744, -36.02084307943189 -10.971889181036412, -35.63160095028037 -11.42911513444238 M-35.63160095028037 -11.42911513444238 C-35.45451225295311 -11.611973753685225, -35.277423555625845 -11.794832372928068, -34.87347836025928 -12.21193895166136 M-35.63160095028037 -11.42911513444238 C-35.43274341099032 -11.634451870266966, -35.23388587170027 -11.839788606091552, -34.87347836025928 -12.21193895166136 M-34.87347836025928 -12.21193895166136 C-34.63037776355531 -12.43271648149858, -34.38727716685135 -12.653494011335802, -34.06675772023242 -12.944581292275274 M-34.87347836025928 -12.21193895166136 C-34.55417622761966 -12.501920700253187, -34.234874094980036 -12.791902448845015, -34.06675772023242 -12.944581292275274 M-34.06675772023242 -12.944581292275274 C-33.80764211353155 -13.151219093263332, -33.54852650683069 -13.357856894251391, -33.214754018350675 -13.624031571755259 M-34.06675772023242 -12.944581292275274 C-33.86439235653081 -13.105962284658819, -33.66202699282919 -13.267343277042364, -33.214754018350675 -13.624031571755259 M-33.214754018350675 -13.624031571755259 C-32.88314833617914 -13.855345340659502, -32.551542654007605 -14.086659109563746, -32.32096832057934 -14.247497783161284 M-33.214754018350675 -13.624031571755259 C-32.95101104696372 -13.80800725134558, -32.68726807557677 -13.991982930935903, -32.32096832057934 -14.247497783161284 M-32.32096832057934 -14.247497783161284 C-32.13060328741139 -14.362898184976808, -31.940238254243432 -14.47829858679233, -31.389073384066947 -14.812417970097618 M-32.32096832057934 -14.247497783161284 C-32.02417569808485 -14.42741521506449, -31.727383075590364 -14.607332646967695, -31.389073384066947 -14.812417970097618 M-31.389073384066947 -14.812417970097618 C-31.074074215654782 -14.976752834491647, -30.75907504724262 -15.141087698885675, -30.42289856499849 -15.316470754341124 M-31.389073384066947 -14.812417970097618 C-31.141278241611307 -14.941692537196362, -30.893483099155667 -15.070967104295105, -30.42289856499849 -15.316470754341124 M-30.42289856499849 -15.316470754341124 C-30.19139105561155 -15.418952261320456, -29.959883546224606 -15.521433768299788, -29.426414082949368 -15.757584874882365 M-30.42289856499849 -15.316470754341124 C-30.126310384073097 -15.447761544061, -29.8297222031477 -15.57905233378088, -29.426414082949368 -15.757584874882365 M-29.426414082949368 -15.757584874882365 C-29.15560684509548 -15.85724444172726, -28.884799607241597 -15.956904008572156, -28.403714706401566 -16.133947699181363 M-29.426414082949368 -15.757584874882365 C-29.09570820492014 -15.879287695008747, -28.76500232689091 -16.00099051513513, -28.403714706401566 -16.133947699181363 M-28.403714706401566 -16.133947699181363 C-28.026195837221326 -16.245993317917076, -27.648676968041087 -16.358038936652786, -27.359002926461642 -16.444012671663494 M-28.403714706401566 -16.133947699181363 C-28.02550681542525 -16.246197815969403, -27.647298924448936 -16.35844793275744, -27.359002926461642 -16.444012671663494 M-27.359002926461642 -16.444012671663494 C-26.95583163969173 -16.536033886930205, -26.552660352921816 -16.62805510219692, -26.296571687923336 -16.68650566884811 M-27.359002926461642 -16.444012671663494 C-26.97109161460595 -16.53255089723668, -26.583180302750257 -16.621089122809863, -26.296571687923336 -16.68650566884811 M-26.296571687923336 -16.68650566884811 C-25.898641930851266 -16.750839865980165, -25.500712173779196 -16.815174063112224, -25.220786748636613 -16.86043023499518 M-26.296571687923336 -16.68650566884811 C-25.931316857659148 -16.74555723721171, -25.566062027394956 -16.80460880557531, -25.220786748636613 -16.86043023499518 M-25.220786748636613 -16.86043023499518 C-24.958657832909793 -16.885717496239202, -24.696528917182977 -16.911004757483223, -24.13606873967212 -16.965071676755716 M-25.220786748636613 -16.86043023499518 C-24.979585494684624 -16.88369862987698, -24.738384240732632 -16.90696702475878, -24.13606873967212 -16.965071676755716 M-24.13606873967212 -16.965071676755716 C-23.86456580237345 -16.973778247506477, -23.593062865074774 -16.982484818257237, -23.046875000000004 -17 M-24.13606873967212 -16.965071676755716 C-23.86347492322325 -16.973813229877557, -23.590881106774383 -16.982554782999397, -23.046875000000004 -17 M-23.046875000000004 -17 C-23.046875000000004 -17, -23.046875 -17, -23.046875 -17 M-23.046875000000004 -17 C-23.046875000000004 -17, -23.046875 -17, -23.046875 -17" stroke="#555555" stroke-width="1.3" fill="none" stroke-dasharray="0 0" style=""></path></g><g class="label" style="" transform="translate(0, -9.5)"><rect></rect><g><rect class="background" style="stroke: none"></rect><text y="-10.1" style=""><tspan class="text-outer-tspan row" x="0" y="-0.1em" dy="1.1em"><tspan font-style="normal" class="text-inner-tspan" font-weight="normal">Request</tspan></tspan></text></g></g></g><g class="node default" id="g8e518be6-fdc0-4aa2-8c70-d0839d456245-dark-flowchart-Mode-1" data-look="classic" transform="translate(606.4765625, 184.0609359741211)"><polygon points="59.4609375,0 118.921875,-59.4609375 59.4609375,-118.921875 0,-59.4609375" class="label-container" transform="translate(-58.9609375, 59.4609375)"></polygon><g class="label" style="" transform="translate(0, -9.5)"><rect></rect><g><rect class="background" style="stroke: none"></rect><text y="-10.1" style=""><tspan class="text-outer-tspan row" x="0" y="-0.1em" dy="1.1em"><tspan font-style="normal" class="text-inner-tspan" font-weight="normal">Algorithm</tspan></tspan></text></g></g></g><g class="node default" id="g8e518be6-fdc0-4aa2-8c70-d0839d456245-dark-flowchart-TBCheck-3" data-look="classic" transform="translate(207.51953125, 385.1109390258789)"><polygon points="68.58906173706055,0 137.1781234741211,-68.58906173706055 68.58906173706055,-137.1781234741211 0,-68.58906173706055" class="label-container" transform="translate(-68.08906173706055, 68.58906173706055)"></polygon><g class="label" style="" transform="translate(0, -18.299999237060547)"><rect></rect><g><rect class="background" style="stroke: none"></rect><text y="-10.1" style=""><tspan class="text-outer-tspan row" x="0" y="-0.1em" dy="1.1em"><tspan font-style="normal" class="text-inner-tspan" font-weight="normal">Token</tspan></tspan><tspan class="text-outer-tspan row" x="0" y="1em" dy="1.1em"><tspan font-style="normal" class="text-inner-tspan" font-weight="normal">available?</tspan></tspan></text></g></g></g><g class="node default" id="g8e518be6-fdc0-4aa2-8c70-d0839d456245-dark-flowchart-Refill-4" data-look="classic" transform="translate(173.015625, 41.29999923706055)"><rect class="basic label-container" style="" x="-78.9453125" y="-33.29999923706055" width="157.890625" height="66.5999984741211"></rect><g class="label" style="" transform="translate(0, -18.299999237060547)"><rect></rect><g><rect class="background" style="stroke: none"></rect><text y="-10.1" style=""><tspan class="text-outer-tspan row" x="0" y="-0.1em" dy="1.1em"><tspan font-style="normal" class="text-inner-tspan" font-weight="normal">Refiller</tspan></tspan><tspan class="text-outer-tspan row" x="0" y="1em" dy="1.1em"><tspan font-style="normal" class="text-inner-tspan" font-weight="normal">+r</tspan><tspan font-style="normal" class="text-inner-tspan" font-weight="normal"> tokens/sec</tspan></tspan></text></g></g></g><g class="node default" id="g8e518be6-fdc0-4aa2-8c70-d0839d456245-dark-flowchart-Bucket-5" data-look="classic" transform="translate(173.015625, 184.0609359741211)"><path d="M0,12.750352177374902 a65.0546875,12.750352177374902 0,0,0 130.109375,0 a65.0546875,12.750352177374902 0,0,0 -130.109375,0 l0,64.350350651496 a65.0546875,12.750352177374902 0,0,0 130.109375,0 l0,-64.350350651496" class="basic label-container outer-path" style="" transform="translate(-65.0546875, -44.9255275031229)"></path><g class="label" style="" transform="translate(0, -9.299999237060547)"><rect></rect><g><rect class="background" style="stroke: none"></rect><text y="-10.1" style=""><tspan class="text-outer-tspan row" x="0" y="-0.1em" dy="1.1em"><tspan font-style="normal" class="text-inner-tspan" font-weight="normal">Bucket</tspan></tspan><tspan class="text-outer-tspan row" x="0" y="1em" dy="1.1em"><tspan font-style="normal" class="text-inner-tspan" font-weight="normal">capacity</tspan><tspan font-style="normal" class="text-inner-tspan" font-weight="normal"> =</tspan><tspan font-style="normal" class="text-inner-tspan" font-weight="normal"> burst</tspan></tspan></text></g></g></g><g class="node default" id="g8e518be6-fdc0-4aa2-8c70-d0839d456245-dark-flowchart-TBPass-9" data-look="classic" transform="translate(87.1328125, 562.5200538635254)"><rect class="basic label-container" style="fill:#196619 !important;stroke:#3a3 !important" x="-79.1328125" y="-33.29999923706055" width="158.265625" height="66.5999984741211"></rect><g class="label" style="" transform="translate(0, -18.299999237060547)"><rect></rect><g><rect class="background" style="stroke: none"></rect><text y="-10.1" style=""><tspan class="text-outer-tspan row" x="0" y="-0.1em" dy="1.1em"><tspan font-style="normal" class="text-inner-tspan" font-weight="normal">Pass</tspan></tspan><tspan class="text-outer-tspan row" x="0" y="1em" dy="1.1em"><tspan font-style="normal" class="text-inner-tspan" font-weight="normal">burst-friendly</tspan></tspan></text></g></g></g><g class="node default" id="g8e518be6-fdc0-4aa2-8c70-d0839d456245-dark-flowchart-TBDrop-11" data-look="classic" transform="translate(327.90625, 562.5200538635254)"><rect class="basic label-container" style="fill:#661919 !important;stroke:#a33 !important" x="-111.640625" y="-24.5" width="223.28125" height="49"></rect><g class="label" style="" transform="translate(0, -9.5)"><rect></rect><g><rect class="background" style="stroke: none"></rect><text y="-10.1" style=""><tspan class="text-outer-tspan row" x="0" y="-0.1em" dy="1.1em"><tspan font-style="normal" class="text-inner-tspan" font-weight="normal">429</tspan><tspan font-style="normal" class="text-inner-tspan" font-weight="normal"> Too</tspan><tspan font-style="normal" class="text-inner-tspan" font-weight="normal"> Many</tspan><tspan font-style="normal" class="text-inner-tspan" font-weight="normal"> Requests</tspan></tspan></text></g></g></g><g class="node default" id="g8e518be6-fdc0-4aa2-8c70-d0839d456245-dark-flowchart-LBQ-13" data-look="classic" transform="translate(664.8203125, 385.1109390258789)"><polygon points="56.17499923706055,0 112.3499984741211,-56.17499923706055 56.17499923706055,-112.3499984741211 0,-56.17499923706055" class="label-container" transform="translate(-55.67499923706055, 56.17499923706055)"></polygon><g class="label" style="" transform="translate(0, -18.299999237060547)"><rect></rect><g><rect class="background" style="stroke: none"></rect><text y="-10.1" style=""><tspan class="text-outer-tspan row" x="0" y="-0.1em" dy="1.1em"><tspan font-style="normal" class="text-inner-tspan" font-weight="normal">Queue</tspan></tspan><tspan class="text-outer-tspan row" x="0" y="1em" dy="1.1em"><tspan font-style="normal" class="text-inner-tspan" font-weight="normal">full?</tspan></tspan></text></g></g></g><g class="node default" id="g8e518be6-fdc0-4aa2-8c70-d0839d456245-dark-flowchart-Queue-15" data-look="classic" transform="translate(552.515625, 562.5200538635254)"><path d="M0,12.546699875466999 a62.96875,12.546699875466999 0,0,0 125.9375,0 a62.96875,12.546699875466999 0,0,0 -125.9375,0 l0,46.546699875467 a62.96875,12.546699875466999 0,0,0 125.9375,0 l0,-46.546699875467" class="basic label-container outer-path" style="" transform="translate(-62.96875, -35.8200498132005)"></path><g class="label" style="" transform="translate(0, -0.5)"><rect></rect><g><rect class="background" style="stroke: none"></rect><text y="-10.1" style=""><tspan class="text-outer-tspan row" x="0" y="-0.1em" dy="1.1em"><tspan font-style="normal" class="text-inner-tspan" font-weight="normal">Queue</tspan><tspan font-style="normal" class="text-inner-tspan" font-weight="normal"> capacity</tspan></tspan></text></g></g></g><g class="node default" id="g8e518be6-fdc0-4aa2-8c70-d0839d456245-dark-flowchart-LBDrop-17" data-look="classic" transform="translate(777.125, 562.5200538635254)"><rect class="basic label-container" style="fill:#661919 !important;stroke:#a33 !important" x="-111.640625" y="-24.5" width="223.28125" height="49"></rect><g class="label" style="" transform="translate(0, -9.5)"><rect></rect><g><rect class="background" style="stroke: none"></rect><text y="-10.1" style=""><tspan class="text-outer-tspan row" x="0" y="-0.1em" dy="1.1em"><tspan font-style="normal" class="text-inner-tspan" font-weight="normal">429</tspan><tspan font-style="normal" class="text-inner-tspan" font-weight="normal"> Too</tspan><tspan font-style="normal" class="text-inner-tspan" font-weight="normal"> Many</tspan><tspan font-style="normal" class="text-inner-tspan" font-weight="normal"> Requests</tspan></tspan></text></g></g></g><g class="node default" id="g8e518be6-fdc0-4aa2-8c70-d0839d456245-dark-flowchart-Leak-19" data-look="classic" transform="translate(552.515625, 672.8401031494141)"><rect class="basic label-container" style="" x="-101.921875" y="-24.5" width="203.84375" height="49"></rect><g class="label" style="" transform="translate(0, -9.5)"><rect></rect><g><rect class="background" style="stroke: none"></rect><text y="-10.1" style=""><tspan class="text-outer-tspan row" x="0" y="-0.1em" dy="1.1em"><tspan font-style="normal" class="text-inner-tspan" font-weight="normal">Drain</tspan><tspan font-style="normal" class="text-inner-tspan" font-weight="normal"> at</tspan><tspan font-style="normal" class="text-inner-tspan" font-weight="normal"> fixed</tspan><tspan font-style="normal" class="text-inner-tspan" font-weight="normal"> rate</tspan><tspan font-style="normal" class="text-inner-tspan" font-weight="normal"> r</tspan></tspan></text></g></g></g><g class="node default" id="g8e518be6-fdc0-4aa2-8c70-d0839d456245-dark-flowchart-LBPass-21" data-look="classic" transform="translate(552.515625, 780.6401023864746)"><rect class="basic label-container" style="fill:#196619 !important;stroke:#3a3 !important" x="-91.078125" y="-33.29999923706055" width="182.15625" height="66.5999984741211"></rect><g class="label" style="" transform="translate(0, -18.299999237060547)"><rect></rect><g><rect class="background" style="stroke: none"></rect><text y="-10.1" style=""><tspan class="text-outer-tspan row" x="0" y="-0.1em" dy="1.1em"><tspan font-style="normal" class="text-inner-tspan" font-weight="normal">Pass</tspan></tspan><tspan class="text-outer-tspan row" x="0" y="1em" dy="1.1em"><tspan font-style="normal" class="text-inner-tspan" font-weight="normal">smoothed</tspan><tspan font-style="normal" class="text-inner-tspan" font-weight="normal"> output</tspan></tspan></text></g></g></g></g></g></g><defs><filter id="g8e518be6-fdc0-4aa2-8c70-d0839d456245-dark-drop-shadow" height="130%" width="130%"><feDropShadow dx="4" dy="4" stdDeviation="0" flood-opacity="0.06" flood-color="#000000"></feDropShadow></filter></defs><defs><filter id="g8e518be6-fdc0-4aa2-8c70-d0839d456245-dark-drop-shadow-small" height="150%" width="150%"><feDropShadow dx="2" dy="2" stdDeviation="0" flood-opacity="0.06" flood-color="#000000"></feDropShadow></filter></defs><linearGradient id="g8e518be6-fdc0-4aa2-8c70-d0839d456245-dark-gradient" gradientUnits="objectBoundingBox" x1="0%" y1="0%" x2="100%" y2="0%"><stop offset="0%" stop-color="#555555" stop-opacity="1"></stop><stop offset="100%" stop-color="#555555" stop-opacity="1"></stop></linearGradient></svg>