<svg id="g7c93f8a1-e327-42dc-bbc2-73bdafcfa9f1-dark" width="100%" xmlns="http://www.w3.org/2000/svg" xmlns:xlink="http://www.w3.org/1999/xlink" class="flowchart" style="max-width: 873.7421875px;" viewBox="0 0 873.7421875 990.3999633789062" role="graphics-document document" aria-roledescription="flowchart-v2"><style>#g7c93f8a1-e327-42dc-bbc2-73bdafcfa9f1-dark{font-family:"trebuchet ms",verdana,arial,sans-serif;font-size:16px;fill:#e5e5e5;}@keyframes edge-animation-frame{from{stroke-dashoffset:0;}}@keyframes dash{to{stroke-dashoffset:0;}}#g7c93f8a1-e327-42dc-bbc2-73bdafcfa9f1-dark .edge-animation-slow{stroke-dasharray:9,5!important;stroke-dashoffset:900;animation:dash 50s linear infinite;stroke-linecap:round;}#g7c93f8a1-e327-42dc-bbc2-73bdafcfa9f1-dark .edge-animation-fast{stroke-dasharray:9,5!important;stroke-dashoffset:900;animation:dash 20s linear infinite;stroke-linecap:round;}#g7c93f8a1-e327-42dc-bbc2-73bdafcfa9f1-dark .error-icon{fill:#252525;}#g7c93f8a1-e327-42dc-bbc2-73bdafcfa9f1-dark .error-text{fill:#cccccc;stroke:#cccccc;}#g7c93f8a1-e327-42dc-bbc2-73bdafcfa9f1-dark .edge-thickness-normal{stroke-width:1px;}#g7c93f8a1-e327-42dc-bbc2-73bdafcfa9f1-dark .edge-thickness-thick{stroke-width:3.5px;}#g7c93f8a1-e327-42dc-bbc2-73bdafcfa9f1-dark .edge-pattern-solid{stroke-dasharray:0;}#g7c93f8a1-e327-42dc-bbc2-73bdafcfa9f1-dark .edge-thickness-invisible{stroke-width:0;fill:none;}#g7c93f8a1-e327-42dc-bbc2-73bdafcfa9f1-dark .edge-pattern-dashed{stroke-dasharray:3;}#g7c93f8a1-e327-42dc-bbc2-73bdafcfa9f1-dark .edge-pattern-dotted{stroke-dasharray:2;}#g7c93f8a1-e327-42dc-bbc2-73bdafcfa9f1-dark .marker{fill:#cccccc;stroke:#cccccc;}#g7c93f8a1-e327-42dc-bbc2-73bdafcfa9f1-dark .marker.cross{stroke:#cccccc;}#g7c93f8a1-e327-42dc-bbc2-73bdafcfa9f1-dark svg{font-family:"trebuchet ms",verdana,arial,sans-serif;font-size:16px;}#g7c93f8a1-e327-42dc-bbc2-73bdafcfa9f1-dark p{margin:0;}#g7c93f8a1-e327-42dc-bbc2-73bdafcfa9f1-dark .label{font-family:"trebuchet ms",verdana,arial,sans-serif;color:#e5e5e5;}#g7c93f8a1-e327-42dc-bbc2-73bdafcfa9f1-dark .cluster-label text{fill:#e5e5e5;}#g7c93f8a1-e327-42dc-bbc2-73bdafcfa9f1-dark .cluster-label span{color:#e5e5e5;}#g7c93f8a1-e327-42dc-bbc2-73bdafcfa9f1-dark .cluster-label span p{background-color:transparent;}#g7c93f8a1-e327-42dc-bbc2-73bdafcfa9f1-dark .label text,#g7c93f8a1-e327-42dc-bbc2-73bdafcfa9f1-dark span{fill:#e5e5e5;color:#e5e5e5;}#g7c93f8a1-e327-42dc-bbc2-73bdafcfa9f1-dark .node rect,#g7c93f8a1-e327-42dc-bbc2-73bdafcfa9f1-dark .node circle,#g7c93f8a1-e327-42dc-bbc2-73bdafcfa9f1-dark .node ellipse,#g7c93f8a1-e327-42dc-bbc2-73bdafcfa9f1-dark .node polygon,#g7c93f8a1-e327-42dc-bbc2-73bdafcfa9f1-dark .node path{fill:#2d2d2d;stroke:#555555;stroke-width:1px;}#g7c93f8a1-e327-42dc-bbc2-73bdafcfa9f1-dark .rough-node .label text,#g7c93f8a1-e327-42dc-bbc2-73bdafcfa9f1-dark .node .label text,#g7c93f8a1-e327-42dc-bbc2-73bdafcfa9f1-dark .image-shape .label,#g7c93f8a1-e327-42dc-bbc2-73bdafcfa9f1-dark .icon-shape .label{text-anchor:middle;}#g7c93f8a1-e327-42dc-bbc2-73bdafcfa9f1-dark .node .katex path{fill:#000;stroke:#000;stroke-width:1px;}#g7c93f8a1-e327-42dc-bbc2-73bdafcfa9f1-dark .rough-node .label,#g7c93f8a1-e327-42dc-bbc2-73bdafcfa9f1-dark .node .label,#g7c93f8a1-e327-42dc-bbc2-73bdafcfa9f1-dark .image-shape .label,#g7c93f8a1-e327-42dc-bbc2-73bdafcfa9f1-dark .icon-shape .label{text-align:center;}#g7c93f8a1-e327-42dc-bbc2-73bdafcfa9f1-dark .node.clickable{cursor:pointer;}#g7c93f8a1-e327-42dc-bbc2-73bdafcfa9f1-dark .root .anchor path{fill:#cccccc!important;stroke-width:0;stroke:#cccccc;}#g7c93f8a1-e327-42dc-bbc2-73bdafcfa9f1-dark .arrowheadPath{fill:#cccccc;}#g7c93f8a1-e327-42dc-bbc2-73bdafcfa9f1-dark .edgePath .path{stroke:#cccccc;stroke-width:1px;}#g7c93f8a1-e327-42dc-bbc2-73bdafcfa9f1-dark .flowchart-link{stroke:#cccccc;fill:none;}#g7c93f8a1-e327-42dc-bbc2-73bdafcfa9f1-dark .edgeLabel{background-color:#1e1e1e;text-align:center;}#g7c93f8a1-e327-42dc-bbc2-73bdafcfa9f1-dark .edgeLabel p{background-color:#1e1e1e;}#g7c93f8a1-e327-42dc-bbc2-73bdafcfa9f1-dark .edgeLabel rect{opacity:0.5;background-color:#1e1e1e;fill:#1e1e1e;}#g7c93f8a1-e327-42dc-bbc2-73bdafcfa9f1-dark .labelBkg{background-color:rgba(30, 30, 30, 0.5);}#g7c93f8a1-e327-42dc-bbc2-73bdafcfa9f1-dark .cluster rect{fill:#1e1e1e;stroke:#555555;stroke-width:1px;}#g7c93f8a1-e327-42dc-bbc2-73bdafcfa9f1-dark .cluster text{fill:#e5e5e5;}#g7c93f8a1-e327-42dc-bbc2-73bdafcfa9f1-dark .cluster span{color:#e5e5e5;}#g7c93f8a1-e327-42dc-bbc2-73bdafcfa9f1-dark div.mermaidTooltip{position:absolute;text-align:center;max-width:200px;padding:2px;font-family:"trebuchet ms",verdana,arial,sans-serif;font-size:12px;background:#252525;border:1px solid #555555;border-radius:2px;pointer-events:none;z-index:100;}#g7c93f8a1-e327-42dc-bbc2-73bdafcfa9f1-dark .flowchartTitleText{text-anchor:middle;font-size:18px;fill:#e5e5e5;}#g7c93f8a1-e327-42dc-bbc2-73bdafcfa9f1-dark rect.text{fill:none;stroke-width:0;}#g7c93f8a1-e327-42dc-bbc2-73bdafcfa9f1-dark .icon-shape,#g7c93f8a1-e327-42dc-bbc2-73bdafcfa9f1-dark .image-shape{background-color:#1e1e1e;text-align:center;}#g7c93f8a1-e327-42dc-bbc2-73bdafcfa9f1-dark .icon-shape p,#g7c93f8a1-e327-42dc-bbc2-73bdafcfa9f1-dark .image-shape p{background-color:#1e1e1e;padding:2px;}#g7c93f8a1-e327-42dc-bbc2-73bdafcfa9f1-dark .icon-shape .label rect,#g7c93f8a1-e327-42dc-bbc2-73bdafcfa9f1-dark .image-shape .label rect{opacity:0.5;background-color:#1e1e1e;fill:#1e1e1e;}#g7c93f8a1-e327-42dc-bbc2-73bdafcfa9f1-dark .label-icon{display:inline-block;height:1em;overflow:visible;vertical-align:-0.125em;}#g7c93f8a1-e327-42dc-bbc2-73bdafcfa9f1-dark .node .label-icon path{fill:currentColor;stroke:revert;stroke-width:revert;}#g7c93f8a1-e327-42dc-bbc2-73bdafcfa9f1-dark .node .neo-node{stroke:#555555;}#g7c93f8a1-e327-42dc-bbc2-73bdafcfa9f1-dark [data-look="neo"].node rect,#g7c93f8a1-e327-42dc-bbc2-73bdafcfa9f1-dark [data-look="neo"].cluster rect,#g7c93f8a1-e327-42dc-bbc2-73bdafcfa9f1-dark [data-look="neo"].node polygon{stroke:url(#g7c93f8a1-e327-42dc-bbc2-73bdafcfa9f1-dark-gradient);filter:drop-shadow( 1px 2px 2px rgba(185,185,185,1));}#g7c93f8a1-e327-42dc-bbc2-73bdafcfa9f1-dark [data-look="neo"].node path{stroke:url(#g7c93f8a1-e327-42dc-bbc2-73bdafcfa9f1-dark-gradient);stroke-width:1px;}#g7c93f8a1-e327-42dc-bbc2-73bdafcfa9f1-dark [data-look="neo"].node .outer-path{filter:drop-shadow( 1px 2px 2px rgba(185,185,185,1));}#g7c93f8a1-e327-42dc-bbc2-73bdafcfa9f1-dark [data-look="neo"].node .neo-line path{stroke:#555555;filter:none;}#g7c93f8a1-e327-42dc-bbc2-73bdafcfa9f1-dark [data-look="neo"].node circle{stroke:url(#g7c93f8a1-e327-42dc-bbc2-73bdafcfa9f1-dark-gradient);filter:drop-shadow( 1px 2px 2px rgba(185,185,185,1));}#g7c93f8a1-e327-42dc-bbc2-73bdafcfa9f1-dark [data-look="neo"].node circle .state-start{fill:#000000;}#g7c93f8a1-e327-42dc-bbc2-73bdafcfa9f1-dark [data-look="neo"].icon-shape .icon{fill:url(#g7c93f8a1-e327-42dc-bbc2-73bdafcfa9f1-dark-gradient);filter:drop-shadow( 1px 2px 2px rgba(185,185,185,1));}#g7c93f8a1-e327-42dc-bbc2-73bdafcfa9f1-dark [data-look="neo"].icon-shape .icon-neo path{stroke:url(#g7c93f8a1-e327-42dc-bbc2-73bdafcfa9f1-dark-gradient);filter:drop-shadow( 1px 2px 2px rgba(185,185,185,1));}#g7c93f8a1-e327-42dc-bbc2-73bdafcfa9f1-dark :root{--mermaid-font-family:"trebuchet ms",verdana,arial,sans-serif;}</style><g><marker id="g7c93f8a1-e327-42dc-bbc2-73bdafcfa9f1-dark_flowchart-v2-pointEnd" class="marker flowchart-v2" viewBox="0 0 10 10" refX="5" refY="5" markerUnits="userSpaceOnUse" markerWidth="8" markerHeight="8" orient="auto"><path d="M 0 0 L 10 5 L 0 10 z" class="arrowMarkerPath" style="stroke-width: 1; stroke-dasharray: 1, 0;"></path></marker><marker id="g7c93f8a1-e327-42dc-bbc2-73bdafcfa9f1-dark_flowchart-v2-pointStart" class="marker flowchart-v2" viewBox="0 0 10 10" refX="4.5" refY="5" markerUnits="userSpaceOnUse" markerWidth="8" markerHeight="8" orient="auto"><path d="M 0 5 L 10 10 L 10 0 z" class="arrowMarkerPath" style="stroke-width: 1; stroke-dasharray: 1, 0;"></path></marker><marker id="g7c93f8a1-e327-42dc-bbc2-73bdafcfa9f1-dark_flowchart-v2-pointEnd-margin" class="marker flowchart-v2" viewBox="0 0 11.5 14" refX="11.5" refY="7" markerUnits="userSpaceOnUse" markerWidth="10.5" markerHeight="14" orient="auto"><path d="M 0 0 L 11.5 7 L 0 14 z" class="arrowMarkerPath" style="stroke-width: 0; stroke-dasharray: 1, 0;"></path></marker><marker id="g7c93f8a1-e327-42dc-bbc2-73bdafcfa9f1-dark_flowchart-v2-pointStart-margin" class="marker flowchart-v2" viewBox="0 0 11.5 14" refX="1" refY="7" markerUnits="userSpaceOnUse" markerWidth="11.5" markerHeight="14" orient="auto"><polygon points="0,7 11.5,14 11.5,0" class="arrowMarkerPath" style="stroke-width: 0; stroke-dasharray: 1, 0;"></polygon></marker><marker id="g7c93f8a1-e327-42dc-bbc2-73bdafcfa9f1-dark_flowchart-v2-circleEnd" class="marker flowchart-v2" viewBox="0 0 10 10" refX="11" refY="5" markerUnits="userSpaceOnUse" markerWidth="11" markerHeight="11" orient="auto"><circle cx="5" cy="5" r="5" class="arrowMarkerPath" style="stroke-width: 1; stroke-dasharray: 1, 0;"></circle></marker><marker id="g7c93f8a1-e327-42dc-bbc2-73bdafcfa9f1-dark_flowchart-v2-circleStart" class="marker flowchart-v2" viewBox="0 0 10 10" refX="-1" refY="5" markerUnits="userSpaceOnUse" markerWidth="11" markerHeight="11" orient="auto"><circle cx="5" cy="5" r="5" class="arrowMarkerPath" style="stroke-width: 1; stroke-dasharray: 1, 0;"></circle></marker><marker id="g7c93f8a1-e327-42dc-bbc2-73bdafcfa9f1-dark_flowchart-v2-circleEnd-margin" class="marker flowchart-v2" viewBox="0 0 10 10" refY="5" refX="12.25" markerUnits="userSpaceOnUse" markerWidth="14" markerHeight="14" orient="auto"><circle cx="5" cy="5" r="5" class="arrowMarkerPath" style="stroke-width: 0; stroke-dasharray: 1, 0;"></circle></marker><marker id="g7c93f8a1-e327-42dc-bbc2-73bdafcfa9f1-dark_flowchart-v2-circleStart-margin" class="marker flowchart-v2" viewBox="0 0 10 10" refX="-2" refY="5" markerUnits="userSpaceOnUse" markerWidth="14" markerHeight="14" orient="auto"><circle cx="5" cy="5" r="5" class="arrowMarkerPath" style="stroke-width: 0; stroke-dasharray: 1, 0;"></circle></marker><marker id="g7c93f8a1-e327-42dc-bbc2-73bdafcfa9f1-dark_flowchart-v2-crossEnd" class="marker cross flowchart-v2" viewBox="0 0 11 11" refX="12" refY="5.2" markerUnits="userSpaceOnUse" markerWidth="11" markerHeight="11" orient="auto"><path d="M 1,1 l 9,9 M 10,1 l -9,9" class="arrowMarkerPath" style="stroke-width: 2; stroke-dasharray: 1, 0;"></path></marker><marker id="g7c93f8a1-e327-42dc-bbc2-73bdafcfa9f1-dark_flowchart-v2-crossStart" class="marker cross flowchart-v2" viewBox="0 0 11 11" refX="-1" refY="5.2" markerUnits="userSpaceOnUse" markerWidth="11" markerHeight="11" orient="auto"><path d="M 1,1 l 9,9 M 10,1 l -9,9" class="arrowMarkerPath" style="stroke-width: 2; stroke-dasharray: 1, 0;"></path></marker><marker id="g7c93f8a1-e327-42dc-bbc2-73bdafcfa9f1-dark_flowchart-v2-crossEnd-margin" class="marker cross flowchart-v2" viewBox="0 0 15 15" refX="17.7" refY="7.5" markerUnits="userSpaceOnUse" markerWidth="12" markerHeight="12" orient="auto"><path d="M 1,1 L 14,14 M 1,14 L 14,1" class="arrowMarkerPath" style="stroke-width: 2.5;"></path></marker><marker id="g7c93f8a1-e327-42dc-bbc2-73bdafcfa9f1-dark_flowchart-v2-crossStart-margin" class="marker cross flowchart-v2" viewBox="0 0 15 15" refX="-3.5" refY="7.5" markerUnits="userSpaceOnUse" markerWidth="12" markerHeight="12" orient="auto"><path d="M 1,1 L 14,14 M 1,14 L 14,1" class="arrowMarkerPath" style="stroke-width: 2.5; stroke-dasharray: 1, 0;"></path></marker><g class="root"><g class="clusters"></g><g class="edgePaths"><path d="M414.227,42L414.227,46.167C414.227,50.333,414.227,58.667,414.227,66.333C414.227,74,414.227,81,414.227,84.5L414.227,88" id="g7c93f8a1-e327-42dc-bbc2-73bdafcfa9f1-dark-L_Attacker_Edge_0" class="edge-thickness-normal edge-pattern-solid edge-thickness-normal edge-pattern-solid flowchart-link" style=";" data-edge="true" data-et="edge" data-id="L_Attacker_Edge_0" data-points="W3sieCI6NDE0LjIyNjU2MjUsInkiOjQyfSx7IngiOjQxNC4yMjY1NjI1LCJ5Ijo2N30seyJ4Ijo0MTQuMjI2NTYyNSwieSI6OTJ9XQ==" data-look="classic" marker-end="url(#g7c93f8a1-e327-42dc-bbc2-73bdafcfa9f1-dark_flowchart-v2-pointEnd)"></path><path d="M414.227,216L414.227,220.167C414.227,224.333,414.227,232.667,414.227,240.333C414.227,248,414.227,255,414.227,258.5L414.227,262" id="g7c93f8a1-e327-42dc-bbc2-73bdafcfa9f1-dark-L_Edge_Browser_0" class="edge-thickness-normal edge-pattern-solid edge-thickness-normal edge-pattern-solid flowchart-link" style=";" data-edge="true" data-et="edge" data-id="L_Edge_Browser_0" data-points="W3sieCI6NDE0LjIyNjU2MjUsInkiOjIxNn0seyJ4Ijo0MTQuMjI2NTYyNSwieSI6MjQxfSx7IngiOjQxNC4yMjY1NjI1LCJ5IjoyNjZ9XQ==" data-look="classic" marker-end="url(#g7c93f8a1-e327-42dc-bbc2-73bdafcfa9f1-dark_flowchart-v2-pointEnd)"></path><path d="M414.227,425.2L414.227,429.367C414.227,433.533,414.227,441.867,414.227,449.533C414.227,457.2,414.227,464.2,414.227,467.7L414.227,471.2" id="g7c93f8a1-e327-42dc-bbc2-73bdafcfa9f1-dark-L_Browser_App_0" class="edge-thickness-normal edge-pattern-solid edge-thickness-normal edge-pattern-solid flowchart-link" style=";" data-edge="true" data-et="edge" data-id="L_Browser_App_0" data-points="W3sieCI6NDE0LjIyNjU2MjUsInkiOjQyNS4xOTk5OTY5NDgyNDIyfSx7IngiOjQxNC4yMjY1NjI1LCJ5Ijo0NTAuMTk5OTk2OTQ4MjQyMn0seyJ4Ijo0MTQuMjI2NTYyNSwieSI6NDc1LjE5OTk5Njk0ODI0MjJ9XQ==" data-look="classic" marker-end="url(#g7c93f8a1-e327-42dc-bbc2-73bdafcfa9f1-dark_flowchart-v2-pointEnd)"></path><path d="M534.078,616.8L541.131,620.967C548.185,625.133,562.292,633.467,569.345,641.133C576.398,648.8,576.398,655.8,576.398,659.3L576.398,662.8" id="g7c93f8a1-e327-42dc-bbc2-73bdafcfa9f1-dark-L_App_Data_0" class="edge-thickness-normal edge-pattern-solid edge-thickness-normal edge-pattern-solid flowchart-link" style=";" data-edge="true" data-et="edge" data-id="L_App_Data_0" data-points="W3sieCI6NTM0LjA3ODAwODgwNzY0NTYsInkiOjYxNi43OTk5ODc3OTI5Njg4fSx7IngiOjU3Ni4zOTg0Mzc1LCJ5Ijo2NDEuNzk5OTg3NzkyOTY4OH0seyJ4Ijo1NzYuMzk4NDM3NSwieSI6NjY2Ljc5OTk4Nzc5Mjk2ODh9XQ==" data-look="classic" marker-end="url(#g7c93f8a1-e327-42dc-bbc2-73bdafcfa9f1-dark_flowchart-v2-pointEnd)"></path><path d="M294.375,616.8L287.322,620.967C280.268,625.133,266.161,633.467,259.108,652.133C252.055,670.8,252.055,699.8,252.055,728.8C252.055,757.8,252.055,786.8,258.534,805.128C265.014,823.455,277.972,831.11,284.452,834.938L290.931,838.766" id="g7c93f8a1-e327-42dc-bbc2-73bdafcfa9f1-dark-L_App_Ops_0" class="edge-thickness-normal edge-pattern-dotted edge-thickness-normal edge-pattern-solid flowchart-link" style=";" data-edge="true" data-et="edge" data-id="L_App_Ops_0" data-points="W3sieCI6Mjk0LjM3NTExNjE5MjM1NDM3LCJ5Ijo2MTYuNzk5OTg3NzkyOTY4OH0seyJ4IjoyNTIuMDU0Njg3NSwieSI6NjQxLjc5OTk4Nzc5Mjk2ODh9LHsieCI6MjUyLjA1NDY4NzUsInkiOjcyOC43OTk5ODc3OTI5Njg4fSx7IngiOjI1Mi4wNTQ2ODc1LCJ5Ijo4MTUuNzk5OTg3NzkyOTY4OH0seyJ4IjoyOTQuMzc1MTE2MTkyMzU0MzcsInkiOjg0MC43OTk5ODc3OTI5Njg4fV0=" data-look="classic" marker-end="url(#g7c93f8a1-e327-42dc-bbc2-73bdafcfa9f1-dark_flowchart-v2-pointEnd)"></path><path d="M576.398,790.8L576.398,794.967C576.398,799.133,576.398,807.467,569.919,815.461C563.44,823.455,550.481,831.11,544.001,834.938L537.522,838.766" id="g7c93f8a1-e327-42dc-bbc2-73bdafcfa9f1-dark-L_Data_Ops_0" class="edge-thickness-normal edge-pattern-dotted edge-thickness-normal edge-pattern-solid flowchart-link" style=";" data-edge="true" data-et="edge" data-id="L_Data_Ops_0" data-points="W3sieCI6NTc2LjM5ODQzNzUsInkiOjc5MC43OTk5ODc3OTI5Njg4fSx7IngiOjU3Ni4zOTg0Mzc1LCJ5Ijo4MTUuNzk5OTg3NzkyOTY4OH0seyJ4Ijo1MzQuMDc4MDA4ODA3NjQ1NiwieSI6ODQwLjc5OTk4Nzc5Mjk2ODh9XQ==" data-look="classic" marker-end="url(#g7c93f8a1-e327-42dc-bbc2-73bdafcfa9f1-dark_flowchart-v2-pointEnd)"></path></g><g class="edgeLabels"><g class="edgeLabel"><g class="label" data-id="L_Attacker_Edge_0" transform="translate(0, 0)"><text y="-10.1" text-anchor="middle"><tspan class="text-outer-tspan row" x="0" y="-0.1em" dy="1.1em" text-anchor="middle"></tspan></text></g></g><g><rect class="background" style="stroke: none"></rect></g><g class="edgeLabel"><g class="label" data-id="L_Edge_Browser_0" transform="translate(0, 0)"><text y="-10.1" text-anchor="middle"><tspan class="text-outer-tspan row" x="0" y="-0.1em" dy="1.1em" text-anchor="middle"></tspan></text></g></g><g><rect class="background" style="stroke: none"></rect></g><g class="edgeLabel"><g class="label" data-id="L_Browser_App_0" transform="translate(0, 0)"><text y="-10.1" text-anchor="middle"><tspan class="text-outer-tspan row" x="0" y="-0.1em" dy="1.1em" text-anchor="middle"></tspan></text></g></g><g><rect class="background" style="stroke: none"></rect></g><g class="edgeLabel"><g class="label" data-id="L_App_Data_0" transform="translate(0, 0)"><text y="-10.1" text-anchor="middle"><tspan class="text-outer-tspan row" x="0" y="-0.1em" dy="1.1em" text-anchor="middle"></tspan></text></g></g><g><rect class="background" style="stroke: none"></rect></g><g class="edgeLabel"><g class="label" data-id="L_App_Ops_0" transform="translate(0, 0)"><text y="-10.1" text-anchor="middle"><tspan class="text-outer-tspan row" x="0" y="-0.1em" dy="1.1em" text-anchor="middle"></tspan></text></g></g><g><rect class="background" style="stroke: none"></rect></g><g class="edgeLabel"><g class="label" data-id="L_Data_Ops_0" transform="translate(0, 0)"><text y="-10.1" text-anchor="middle"><tspan class="text-outer-tspan row" x="0" y="-0.1em" dy="1.1em" text-anchor="middle"></tspan></text></g></g><g><rect class="background" style="stroke: none"></rect></g></g><g class="nodes"><g class="root" transform="translate(153.8359375, 832.7999877929688)"><g class="clusters"><g class="cluster" id="g7c93f8a1-e327-42dc-bbc2-73bdafcfa9f1-dark-Ops" data-look="classic"><rect style="" x="8" y="8" width="504.78125" height="141.5999984741211"></rect><g class="cluster-label" transform="translate(197.6875, 8)"><g><rect class="background" style="stroke: none"></rect><text y="-10.1" style=""><tspan class="text-outer-tspan row" x="0" y="-0.1em" dy="1.1em"><tspan font-style="normal" class="text-inner-tspan" font-weight="normal">Detect</tspan><tspan font-style="normal" class="text-inner-tspan" font-weight="normal"> &amp;</tspan><tspan font-style="normal" class="text-inner-tspan" font-weight="normal"> respond</tspan></tspan></text></g></g></g></g><g class="edgePaths"></g><g class="edgeLabels"></g><g class="nodes"><g class="node default" id="g7c93f8a1-e327-42dc-bbc2-73bdafcfa9f1-dark-flowchart-Logs-10" data-look="classic" transform="translate(140.4453125, 78.79999923706055)"><rect class="basic label-container" style="" x="-97.4453125" y="-33.29999923706055" width="194.890625" height="66.5999984741211"></rect><g class="label" style="" transform="translate(0, -18.299999237060547)"><rect></rect><g><rect class="background" style="stroke: none"></rect><text y="-10.1" style=""><tspan class="text-outer-tspan row" x="0" y="-0.1em" dy="1.1em"><tspan font-style="normal" class="text-inner-tspan" font-weight="normal">Audit</tspan><tspan font-style="normal" class="text-inner-tspan" font-weight="normal"> log,</tspan><tspan font-style="normal" class="text-inner-tspan" font-weight="normal"> anomaly</tspan></tspan><tspan class="text-outer-tspan row" x="0" y="1em" dy="1.1em"><tspan font-style="normal" class="text-inner-tspan" font-weight="normal">detection</tspan></tspan></text></g></g></g><g class="node default" id="g7c93f8a1-e327-42dc-bbc2-73bdafcfa9f1-dark-flowchart-Alert-11" data-look="classic" transform="translate(382.8359375, 78.79999923706055)"><rect class="basic label-container" style="" x="-94.9453125" y="-24.5" width="189.890625" height="49"></rect><g class="label" style="" transform="translate(0, -9.5)"><rect></rect><g><rect class="background" style="stroke: none"></rect><text y="-10.1" style=""><tspan class="text-outer-tspan row" x="0" y="-0.1em" dy="1.1em"><tspan font-style="normal" class="text-inner-tspan" font-weight="normal">Real-time</tspan><tspan font-style="normal" class="text-inner-tspan" font-weight="normal"> alerting</tspan></tspan></text></g></g></g></g></g><g class="root" transform="translate(279.0546875, 658.7999877929688)"><g class="clusters"><g class="cluster" id="g7c93f8a1-e327-42dc-bbc2-73bdafcfa9f1-dark-Data" data-look="classic"><rect style="" x="8" y="8" width="578.6875" height="124"></rect><g class="cluster-label" transform="translate(280.859375, 8)"><g><rect class="background" style="stroke: none"></rect><text y="-10.1" style=""><tspan class="text-outer-tspan row" x="0" y="-0.1em" dy="1.1em"><tspan font-style="normal" class="text-inner-tspan" font-weight="normal">Data</tspan></tspan></text></g></g></g></g><g class="edgePaths"></g><g class="edgeLabels"></g><g class="nodes"><g class="node default" id="g7c93f8a1-e327-42dc-bbc2-73bdafcfa9f1-dark-flowchart-Hash-8" data-look="classic" transform="translate(169.0703125, 70)"><rect class="basic label-container" style="" x="-126.0703125" y="-24.5" width="252.140625" height="49"></rect><g class="label" style="" transform="translate(0, -9.5)"><rect></rect><g><rect class="background" style="stroke: none"></rect><text y="-10.1" style=""><tspan class="text-outer-tspan row" x="0" y="-0.1em" dy="1.1em"><tspan font-style="normal" class="text-inner-tspan" font-weight="normal">Argon2id</tspan><tspan font-style="normal" class="text-inner-tspan" font-weight="normal"> password</tspan><tspan font-style="normal" class="text-inner-tspan" font-weight="normal"> hashing</tspan></tspan></text></g></g></g><g class="node default" id="g7c93f8a1-e327-42dc-bbc2-73bdafcfa9f1-dark-flowchart-Crypto-9" data-look="classic" transform="translate(448.4140625, 70)"><rect class="basic label-container" style="" x="-103.2734375" y="-24.5" width="206.546875" height="49"></rect><g class="label" style="" transform="translate(0, -9.5)"><rect></rect><g><rect class="background" style="stroke: none"></rect><text y="-10.1" style=""><tspan class="text-outer-tspan row" x="0" y="-0.1em" dy="1.1em"><tspan font-style="normal" class="text-inner-tspan" font-weight="normal">AES-256-GCM</tspan><tspan font-style="normal" class="text-inner-tspan" font-weight="normal"> at</tspan><tspan font-style="normal" class="text-inner-tspan" font-weight="normal"> rest</tspan></tspan></text></g></g></g></g></g><g class="root" transform="translate(0, 467.1999969482422)"><g class="clusters"><g class="cluster" id="g7c93f8a1-e327-42dc-bbc2-73bdafcfa9f1-dark-App" data-look="classic"><rect style="" x="8" y="8" width="812.453125" height="141.5999984741211"></rect><g class="cluster-label" transform="translate(373.671875, 8)"><g><rect class="background" style="stroke: none"></rect><text y="-10.1" style=""><tspan class="text-outer-tspan row" x="0" y="-0.1em" dy="1.1em"><tspan font-style="normal" class="text-inner-tspan" font-weight="normal">Application</tspan></tspan></text></g></g></g></g><g class="edgePaths"></g><g class="edgeLabels"></g><g class="nodes"><g class="node default" id="g7c93f8a1-e327-42dc-bbc2-73bdafcfa9f1-dark-flowchart-AuthN-5" data-look="classic" transform="translate(149.90625, 78.79999923706055)"><rect class="basic label-container" style="" x="-106.90625" y="-24.5" width="213.8125" height="49"></rect><g class="label" style="" transform="translate(0, -9.5)"><rect></rect><g><rect class="background" style="stroke: none"></rect><text y="-10.1" style=""><tspan class="text-outer-tspan row" x="0" y="-0.1em" dy="1.1em"><tspan font-style="normal" class="text-inner-tspan" font-weight="normal">AuthN:</tspan><tspan font-style="normal" class="text-inner-tspan" font-weight="normal"> passkeys,</tspan><tspan font-style="normal" class="text-inner-tspan" font-weight="normal"> MFA</tspan></tspan></text></g></g></g><g class="node default" id="g7c93f8a1-e327-42dc-bbc2-73bdafcfa9f1-dark-flowchart-AuthZ-6" data-look="classic" transform="translate(405.390625, 78.79999923706055)"><rect class="basic label-container" style="" x="-98.578125" y="-33.29999923706055" width="197.15625" height="66.5999984741211"></rect><g class="label" style="" transform="translate(0, -18.299999237060547)"><rect></rect><g><rect class="background" style="stroke: none"></rect><text y="-10.1" style=""><tspan class="text-outer-tspan row" x="0" y="-0.1em" dy="1.1em"><tspan font-style="normal" class="text-inner-tspan" font-weight="normal">AuthZ</tspan><tspan font-style="normal" class="text-inner-tspan" font-weight="normal"> middleware:</tspan></tspan><tspan class="text-outer-tspan row" x="0" y="1em" dy="1.1em"><tspan font-style="normal" class="text-inner-tspan" font-weight="normal">ownership</tspan><tspan font-style="normal" class="text-inner-tspan" font-weight="normal"> +</tspan><tspan font-style="normal" class="text-inner-tspan" font-weight="normal"> role</tspan></tspan></text></g></g></g><g class="node default" id="g7c93f8a1-e327-42dc-bbc2-73bdafcfa9f1-dark-flowchart-IV-7" data-look="classic" transform="translate(669.7109375, 78.79999923706055)"><rect class="basic label-container" style="" x="-115.7421875" y="-33.29999923706055" width="231.484375" height="66.5999984741211"></rect><g class="label" style="" transform="translate(0, -18.299999237060547)"><rect></rect><g><rect class="background" style="stroke: none"></rect><text y="-10.1" style=""><tspan class="text-outer-tspan row" x="0" y="-0.1em" dy="1.1em"><tspan font-style="normal" class="text-inner-tspan" font-weight="normal">Input</tspan><tspan font-style="normal" class="text-inner-tspan" font-weight="normal"> validation,</tspan><tspan font-style="normal" class="text-inner-tspan" font-weight="normal"> output</tspan></tspan><tspan class="text-outer-tspan row" x="0" y="1em" dy="1.1em"><tspan font-style="normal" class="text-inner-tspan" font-weight="normal">encoding</tspan></tspan></text></g></g></g></g></g><g class="root" transform="translate(128.9609375, 258)"><g class="clusters"><g class="cluster" id="g7c93f8a1-e327-42dc-bbc2-73bdafcfa9f1-dark-Browser" data-look="classic"><rect style="" x="8" y="8" width="554.53125" height="159.1999969482422"></rect><g class="cluster-label" transform="translate(232.9609375, 8)"><g><rect class="background" style="stroke: none"></rect><text y="-10.1" style=""><tspan class="text-outer-tspan row" x="0" y="-0.1em" dy="1.1em"><tspan font-style="normal" class="text-inner-tspan" font-weight="normal">Browser</tspan><tspan font-style="normal" class="text-inner-tspan" font-weight="normal"> policy</tspan></tspan></text></g></g></g></g><g class="edgePaths"></g><g class="edgeLabels"></g><g class="nodes"><g class="node default" id="g7c93f8a1-e327-42dc-bbc2-73bdafcfa9f1-dark-flowchart-CSP-3" data-look="classic" transform="translate(165.2578125, 87.5999984741211)"><rect class="basic label-container" style="" x="-122.2578125" y="-24.5" width="244.515625" height="49"></rect><g class="label" style="" transform="translate(0, -9.5)"><rect></rect><g><rect class="background" style="stroke: none"></rect><text y="-10.1" style=""><tspan class="text-outer-tspan row" x="0" y="-0.1em" dy="1.1em"><tspan font-style="normal" class="text-inner-tspan" font-weight="normal">Strict</tspan><tspan font-style="normal" class="text-inner-tspan" font-weight="normal"> CSP</tspan><tspan font-style="normal" class="text-inner-tspan" font-weight="normal"> +</tspan><tspan font-style="normal" class="text-inner-tspan" font-weight="normal"> Trusted</tspan><tspan font-style="normal" class="text-inner-tspan" font-weight="normal"> Types</tspan></tspan></text></g></g></g><g class="node default" id="g7c93f8a1-e327-42dc-bbc2-73bdafcfa9f1-dark-flowchart-SH-4" data-look="classic" transform="translate(432.5234375, 87.5999984741211)"><rect class="basic label-container" style="" x="-95.0078125" y="-42.099998474121094" width="190.015625" height="84.19999694824219"></rect><g class="label" style="" transform="translate(0, -27.099998474121094)"><rect></rect><g><rect class="background" style="stroke: none"></rect><text y="-10.1" style=""><tspan class="text-outer-tspan row" x="0" y="-0.1em" dy="1.1em"><tspan font-style="normal" class="text-inner-tspan" font-weight="normal">X-Frame-Options,</tspan></tspan><tspan class="text-outer-tspan row" x="0" y="1em" dy="1.1em"><tspan font-style="normal" class="text-inner-tspan" font-weight="normal">COOP/COEP,</tspan></tspan><tspan class="text-outer-tspan row" x="0" y="2.1em" dy="1.1em"><tspan font-style="normal" class="text-inner-tspan" font-weight="normal">Permissions-Policy</tspan></tspan></text></g></g></g></g></g><g class="root" transform="translate(198.4609375, 84)"><g class="clusters"><g class="cluster" id="g7c93f8a1-e327-42dc-bbc2-73bdafcfa9f1-dark-Edge" data-look="classic"><rect style="" x="8" y="8" width="415.53125" height="124"></rect><g class="cluster-label" transform="translate(156.046875, 8)"><g><rect class="background" style="stroke: none"></rect><text y="-10.1" style=""><tspan class="text-outer-tspan row" x="0" y="-0.1em" dy="1.1em"><tspan font-style="normal" class="text-inner-tspan" font-weight="normal">Edge</tspan><tspan font-style="normal" class="text-inner-tspan" font-weight="normal"> /</tspan><tspan font-style="normal" class="text-inner-tspan" font-weight="normal"> Transport</tspan></tspan></text></g></g></g></g><g class="edgePaths"></g><g class="edgeLabels"></g><g class="nodes"><g class="node default" id="g7c93f8a1-e327-42dc-bbc2-73bdafcfa9f1-dark-flowchart-WAF-1" data-look="classic" transform="translate(107.8828125, 70)"><rect class="basic label-container" style="" x="-64.8828125" y="-24.5" width="129.765625" height="49"></rect><g class="label" style="" transform="translate(0, -9.5)"><rect></rect><g><rect class="background" style="stroke: none"></rect><text y="-10.1" style=""><tspan class="text-outer-tspan row" x="0" y="-0.1em" dy="1.1em"><tspan font-style="normal" class="text-inner-tspan" font-weight="normal">WAF</tspan><tspan font-style="normal" class="text-inner-tspan" font-weight="normal"> rules</tspan></tspan></text></g></g></g><g class="node default" id="g7c93f8a1-e327-42dc-bbc2-73bdafcfa9f1-dark-flowchart-TLS-2" data-look="classic" transform="translate(305.6484375, 70)"><rect class="basic label-container" style="" x="-82.8828125" y="-24.5" width="165.765625" height="49"></rect><g class="label" style="" transform="translate(0, -9.5)"><rect></rect><g><rect class="background" style="stroke: none"></rect><text y="-10.1" style=""><tspan class="text-outer-tspan row" x="0" y="-0.1em" dy="1.1em"><tspan font-style="normal" class="text-inner-tspan" font-weight="normal">TLS</tspan><tspan font-style="normal" class="text-inner-tspan" font-weight="normal"> 1.3</tspan><tspan font-style="normal" class="text-inner-tspan" font-weight="normal"> +</tspan><tspan font-style="normal" class="text-inner-tspan" font-weight="normal"> HSTS</tspan></tspan></text></g></g></g></g></g><g class="node default" id="g7c93f8a1-e327-42dc-bbc2-73bdafcfa9f1-dark-flowchart-Attacker-0" data-look="classic" transform="translate(414.2265625, 25)"><g class="basic label-container outer-path"><path d="M-25.484375 -17 C-10.364910384702107 -17, 4.754554230595787 -17, 25.484375 -17 C25.484375 -17, 25.484375 -17, 25.484375 -17 C25.768729123004814 -16.99088131673696, 26.05308324600963 -16.981762633473917, 26.57356873967212 -16.965071676755716 C26.831583600724823 -16.94018129341823, 27.08959846177753 -16.91529091008075, 27.6582867486366 -16.860430234995185 C27.957052239198475 -16.812128147442124, 28.255817729760352 -16.763826059889062, 28.734071687923326 -16.686505668848113 C29.01407287681768 -16.622597224661494, 29.294074065712035 -16.55868878047487, 29.79650292646162 -16.4440126716635 C30.066251166040303 -16.363952810093952, 30.33599940561899 -16.2838929485244, 30.84121470640155 -16.133947699181366 C31.166700450730783 -16.01416593651097, 31.492186195060015 -15.894384173840576, 31.86391408294936 -15.757584874882369 C32.190830322945914 -15.6128687530616, 32.51774656294246 -15.46815263124083, 32.86039856499849 -15.316470754341125 C33.194365199074824 -15.142240575259342, 33.52833183315115 -14.96801039617756, 33.82657338406694 -14.812417970097622 C34.177397524599 -14.599746314435594, 34.52822166513106 -14.387074658773566, 34.758468320579325 -14.247497783161291 C34.94028227361867 -14.120672240120221, 35.12209622665801 -13.993846697079153, 35.652254018350675 -13.624031571755262 C35.870505784585795 -13.449981596106172, 36.088757550820915 -13.275931620457081, 36.5042577202324 -12.944581292275288 C36.68544391264474 -12.780032786250352, 36.866630105057084 -12.615484280225415, 37.31097836025927 -12.21193895166137 C37.581199680937665 -11.932913252477903, 37.85142100161606 -11.653887553294435, 38.06910095028036 -11.42911513444239 C38.342034730656586 -11.108511585640413, 38.614968511032814 -10.787908036838436, 38.77551020195651 -10.59932663159847 C38.97693065257401 -10.329441577551558, 39.17835110319152 -10.059556523504646, 39.42730332814825 -9.725983222076888 C39.57221721301724 -9.50335658009144, 39.71713109788623 -9.280729938105992, 40.02180197109088 -8.812673661278927 C40.2318380093972 -8.439733406810912, 40.441874047703514 -8.0667931523429, 40.556563208341004 -7.863150934094199 C40.72499671484687 -7.513395153935062, 40.89343022135274 -7.163639373775925, 41.02938959126881 -6.881316833080699 C41.17907787889369 -6.511583868621067, 41.328766166518584 -6.141850904161436, 41.438338174845924 -5.871205925162238 C41.550301945180166 -5.533988887919729, 41.66226571551441 -5.19677185067722, 41.781728501623235 -4.836968972727556 C41.87148722251534 -4.494680068290239, 41.96124594340745 -4.152391163852923, 42.058149507091 -3.7828558772573464 C42.137116669039656 -3.3773761903665855, 42.21608383098831 -2.971896503475825, 42.26646531804565 -2.713198215567453 C42.30698026697684 -2.398972272238694, 42.34749521590804 -2.0847463289099344, 42.405819920136366 -1.632391440430593 C42.430201482648584 -1.2526289238597457, 42.45458304516081 -0.8728664072888981, 42.4756406754117 -0.5448768187181379 C42.4756406754117 -0.24810609984507803, 42.4756406754117 0.048664619027981804, 42.4756406754117 0.5448768187181336 C42.45820676549145 0.8164240381248514, 42.44077285557119 1.0879712575315692, 42.405819920136366 1.6323914404305815 C42.372483362991254 1.8909431946002728, 42.33914680584614 2.149494948769964, 42.266465318045654 2.7131982155674415 C42.18839092332972 3.1140937314045813, 42.110316528613794 3.5149892472417212, 42.058149507091 3.782855877257343 C41.95460022821462 4.177734156154327, 41.851050949338244 4.572612435051311, 41.781728501623235 4.836968972727545 C41.66290275400959 5.194853192228007, 41.54407700639595 5.552737411728469, 41.438338174845924 5.871205925162227 C41.29979706832654 6.213405136775191, 41.16125596180715 6.5556043483881545, 41.02938959126881 6.881316833080694 C40.887761065080475 7.175411498075783, 40.746132538892134 7.4695061630708715, 40.556563208341004 7.863150934094196 C40.42246647336472 8.101253265811428, 40.28836973838845 8.339355597528659, 40.02180197109089 8.812673661278923 C39.85300369157872 9.07199314729427, 39.68420541206656 9.331312633309617, 39.427303328148255 9.725983222076879 C39.235856073616596 9.982505101945616, 39.044408819084936 10.239026981814353, 38.77551020195651 10.599326631598467 C38.56977865338571 10.840990615006467, 38.36404710481492 11.082654598414468, 38.06910095028037 11.42911513444238 C37.89429187505093 11.609619856708763, 37.71948279982149 11.790124578975146, 37.31097836025927 12.211938951661365 C37.11559705906297 12.389379079901898, 36.920215757866664 12.566819208142432, 36.50425772023242 12.944581292275275 C36.287327755664016 13.117577166269779, 36.07039779109561 13.290573040264285, 35.652254018350675 13.62403157175526 C35.43582907723717 13.77500024179134, 35.21940413612367 13.92596891182742, 34.75846832057934 14.247497783161286 C34.536016201606905 14.382349564956131, 34.31356408263447 14.517201346750978, 33.82657338406695 14.81241797009762 C33.607401677209204 14.926759709179127, 33.38822997035146 15.041101448260632, 32.86039856499849 15.316470754341124 C32.48913011153608 15.480820285401565, 32.117861658073664 15.645169816462007, 31.863914082949368 15.757584874882367 C31.645992054730062 15.837782195716217, 31.428070026510753 15.91797951655007, 30.841214706401562 16.133947699181363 C30.501573103516165 16.234751544102597, 30.161931500630768 16.335555389023828, 29.796502926461642 16.444012671663497 C29.552857957122157 16.49962304598322, 29.309212987782676 16.555233420302947, 28.734071687923333 16.68650566884811 C28.37697361069481 16.744238516637466, 28.019875533466294 16.801971364426826, 27.658286748636613 16.86043023499518 C27.285458735687996 16.896396505013048, 26.91263072273938 16.932362775030914, 26.57356873967212 16.965071676755716 C26.15943810235945 16.97835204023795, 25.745307465046782 16.991632403720182, 25.484375000000004 17 C25.484375000000004 17, 25.484375000000004 17, 25.484375 17 C12.86733985144818 17, 0.2503047028963614 17, -25.484374999999996 17 C-25.839348546743974 16.988616689270014, -26.194322093487948 16.977233378540028, -26.573568739672112 16.965071676755716 C-26.975879629592526 16.926261229054727, -27.37819051951294 16.887450781353742, -27.658286748636606 16.86043023499518 C-27.93848262395665 16.815130338824904, -28.218678499276688 16.769830442654627, -28.73407168792333 16.68650566884811 C-28.948270966662157 16.637616081256898, -29.162470245400982 16.588726493665682, -29.79650292646162 16.4440126716635 C-30.14205319092574 16.341455167000902, -30.48760345538986 16.238897662338303, -30.841214706401544 16.13394769918137 C-31.08175639250731 16.045426135151477, -31.32229807861307 15.956904571121585, -31.86391408294936 15.757584874882369 C-32.17048634486445 15.621874428675591, -32.47705860677954 15.486163982468815, -32.86039856499848 15.316470754341127 C-33.102227123424605 15.190308950308802, -33.34405568185073 15.064147146276479, -33.82657338406693 14.812417970097624 C-34.04561295432906 14.67963489538533, -34.264652524591185 14.546851820673036, -34.75846832057932 14.247497783161299 C-35.0357105587606 14.054105599429095, -35.31295279694188 13.860713415696893, -35.65225401835067 13.624031571755264 C-35.95945589705038 13.379046248477563, -36.2666577757501 13.134060925199861, -36.5042577202324 12.94458129227529 C-36.69243310729931 12.773685384589037, -36.880608494366214 12.602789476902782, -37.31097836025926 12.211938951661377 C-37.52343823556391 11.99255668712917, -37.73589811086855 11.773174422596961, -38.069100950280365 11.429115134442386 C-38.21833732474263 11.253813597208742, -38.3675736992049 11.078512059975097, -38.77551020195651 10.599326631598473 C-38.993978709740425 10.30659873405852, -39.21244721752435 10.013870836518567, -39.42730332814825 9.72598322207689 C-39.566479867063975 9.512170684168762, -39.7056564059797 9.298358146260634, -40.02180197109088 8.812673661278936 C-40.19768556088426 8.500374537456054, -40.373569150677646 8.188075413633172, -40.556563208341004 7.863150934094201 C-40.70789434768281 7.5489085852832725, -40.85922548702462 7.234666236472343, -41.02938959126881 6.881316833080701 C-41.13868536620659 6.611354155894328, -41.24798114114437 6.341391478707955, -41.438338174845924 5.87120592516224 C-41.55152676703151 5.530299919652336, -41.6647153592171 5.189393914142433, -41.781728501623235 4.8369689727275516 C-41.86499566489899 4.519435190940248, -41.94826282817475 4.201901409152945, -42.058149507091 3.782855877257349 C-42.13902099061901 3.3675979015351327, -42.21989247414701 2.9523399258129164, -42.26646531804565 2.713198215567455 C-42.2984209479816 2.465356660137114, -42.33037657791755 2.2175151047067736, -42.405819920136366 1.6323914404306026 C-42.43306224912536 1.2080701768148363, -42.46030457811436 0.78374891319907, -42.4756406754117 0.54487681871814 C-42.4756406754117 0.15037565859247298, -42.4756406754117 -0.244125501533194, -42.4756406754117 -0.5448768187181317 C-42.45571156438875 -0.8552888093893978, -42.4357824533658 -1.165700800060664, -42.405819920136366 -1.6323914404305793 C-42.37052620236251 -1.9061225459517124, -42.33523248458866 -2.1798536514728455, -42.266465318045654 -2.713198215567447 C-42.21070354573742 -2.9995231311155086, -42.15494177342917 -3.2858480466635704, -42.058149507091 -3.782855877257341 C-41.96574906094001 -4.135218825037756, -41.87334861478902 -4.487581772818172, -41.781728501623235 -4.836968972727544 C-41.66181811525442 -5.198119951344873, -41.541907728885604 -5.559270929962203, -41.43833817484593 -5.871205925162218 C-41.332887147943104 -6.1316720003691065, -41.22743612104028 -6.392138075575996, -41.02938959126881 -6.881316833080692 C-40.8416152177785 -7.271234337361297, -40.65384084428818 -7.661151841641901, -40.556563208341004 -7.863150934094194 C-40.37587683077954 -8.183977893934303, -40.195190453218075 -8.504804853774411, -40.02180197109088 -8.812673661278929 C-39.88141330833347 -9.02834834690871, -39.74102464557606 -9.24402303253849, -39.42730332814825 -9.725983222076884 C-39.24641433822484 -9.96835798924826, -39.06552534830143 -10.210732756419633, -38.77551020195651 -10.599326631598467 C-38.61926319929722 -10.782863251628376, -38.463016196637945 -10.966399871658286, -38.06910095028037 -11.42911513444238 C-37.8378194131285 -11.667932310119024, -37.606537875976635 -11.906749485795668, -37.31097836025928 -12.21193895166136 C-37.099394464253876 -12.404093847810346, -36.88781056824848 -12.596248743959332, -36.50425772023242 -12.944581292275274 C-36.316762342270025 -13.094103866738728, -36.12926696430764 -13.243626441202181, -35.652254018350675 -13.624031571755259 C-35.310205821218474 -13.862629587046877, -34.968157624086274 -14.101227602338495, -34.75846832057934 -14.247497783161284 C-34.419111097642975 -14.453218125989714, -34.079753874706604 -14.658938468818146, -33.82657338406695 -14.812417970097618 C-33.47844724498136 -14.994035153873133, -33.13032110589578 -15.175652337648646, -32.86039856499849 -15.316470754341124 C-32.58046320002492 -15.44038983642736, -32.30052783505136 -15.564308918513596, -31.863914082949368 -15.757584874882365 C-31.46658661643567 -15.903805055414246, -31.069259149921972 -16.050025235946126, -30.841214706401566 -16.133947699181363 C-30.542443672147222 -16.22262137386689, -30.243672637892878 -16.311295048552417, -29.796502926461642 -16.444012671663494 C-29.484627538137264 -16.51519619387143, -29.172752149812883 -16.586379716079364, -28.734071687923336 -16.68650566884811 C-28.37435693900976 -16.744661559822916, -28.014642190096186 -16.802817450797722, -27.658286748636613 -16.86043023499518 C-27.36620001906252 -16.888607490511507, -27.074113289488427 -16.916784746027833, -26.57356873967212 -16.965071676755716 C-26.207636667416512 -16.976806406069386, -25.841704595160905 -16.988541135383052, -25.484375000000004 -17 C-25.484375000000004 -17, -25.484375 -17, -25.484375 -17" stroke="none" stroke-width="0" fill="#2d2d2d" style=""></path><path d="M-25.484375 -17 C-5.565767563490095 -17, 14.35283987301981 -17, 25.484375 -17 M-25.484375 -17 C-7.302252118520997 -17, 10.879870762958006 -17, 25.484375 -17 M25.484375 -17 C25.484375 -17, 25.484375 -17, 25.484375 -17 M25.484375 -17 C25.484375 -17, 25.484375 -17, 25.484375 -17 M25.484375 -17 C25.806726627489176 -16.9896628107258, 26.129078254978353 -16.979325621451604, 26.57356873967212 -16.965071676755716 M25.484375 -17 C25.727533866121274 -16.99220236844351, 25.970692732242547 -16.984404736887022, 26.57356873967212 -16.965071676755716 M26.57356873967212 -16.965071676755716 C26.83186352800055 -16.940154289170604, 27.090158316328985 -16.915236901585494, 27.6582867486366 -16.860430234995185 M26.57356873967212 -16.965071676755716 C27.00529154891311 -16.92342389657088, 27.437014358154105 -16.881776116386046, 27.6582867486366 -16.860430234995185 M27.6582867486366 -16.860430234995185 C27.953976970245485 -16.812625333077378, 28.249667191854375 -16.764820431159567, 28.734071687923326 -16.686505668848113 M27.6582867486366 -16.860430234995185 C28.06368760716022 -16.794888168119698, 28.469088465683843 -16.729346101244214, 28.734071687923326 -16.686505668848113 M28.734071687923326 -16.686505668848113 C28.956932260211314 -16.635639197524526, 29.179792832499302 -16.58477272620094, 29.79650292646162 -16.4440126716635 M28.734071687923326 -16.686505668848113 C28.94738214617602 -16.63781894873276, 29.160692604428718 -16.589132228617412, 29.79650292646162 -16.4440126716635 M29.79650292646162 -16.4440126716635 C30.11613261342398 -16.349148258343536, 30.435762300386333 -16.254283845023576, 30.84121470640155 -16.133947699181366 M29.79650292646162 -16.4440126716635 C30.10679895334375 -16.35191843966197, 30.41709498022588 -16.259824207660433, 30.84121470640155 -16.133947699181366 M30.84121470640155 -16.133947699181366 C31.090524077903826 -16.042199545877963, 31.339833449406097 -15.950451392574559, 31.86391408294936 -15.757584874882369 M30.84121470640155 -16.133947699181366 C31.11729600277922 -16.032347230046856, 31.39337729915689 -15.930746760912347, 31.86391408294936 -15.757584874882369 M31.86391408294936 -15.757584874882369 C32.23272937561781 -15.59432128533499, 32.60154466828625 -15.43105769578761, 32.86039856499849 -15.316470754341125 M31.86391408294936 -15.757584874882369 C32.156339899618814 -15.62813664034645, 32.448765716288264 -15.498688405810531, 32.86039856499849 -15.316470754341125 M32.86039856499849 -15.316470754341125 C33.11369631526919 -15.184325480269855, 33.36699406553988 -15.052180206198587, 33.82657338406694 -14.812417970097622 M32.86039856499849 -15.316470754341125 C33.1078586596698 -15.187370981456857, 33.35531875434112 -15.058271208572586, 33.82657338406694 -14.812417970097622 M33.82657338406694 -14.812417970097622 C34.180403267642596 -14.59792421533886, 34.53423315121825 -14.383430460580099, 34.758468320579325 -14.247497783161291 M33.82657338406694 -14.812417970097622 C34.1037641374612 -14.644383306436344, 34.380954890855456 -14.476348642775065, 34.758468320579325 -14.247497783161291 M34.758468320579325 -14.247497783161291 C35.05475664530392 -14.040819873948276, 35.351044970028504 -13.83414196473526, 35.652254018350675 -13.624031571755262 M34.758468320579325 -14.247497783161291 C34.95970073528867 -14.107126761870884, 35.16093314999802 -13.966755740580478, 35.652254018350675 -13.624031571755262 M35.652254018350675 -13.624031571755262 C35.85519665362244 -13.462190220656359, 36.05813928889422 -13.300348869557453, 36.5042577202324 -12.944581292275288 M35.652254018350675 -13.624031571755262 C35.92399782759081 -13.407323115292716, 36.19574163683095 -13.190614658830171, 36.5042577202324 -12.944581292275288 M36.5042577202324 -12.944581292275288 C36.71363159668865 -12.754433477406927, 36.9230054731449 -12.564285662538566, 37.31097836025927 -12.21193895166137 M36.5042577202324 -12.944581292275288 C36.73378459582848 -12.736131056807272, 36.963311471424554 -12.527680821339255, 37.31097836025927 -12.21193895166137 M37.31097836025927 -12.21193895166137 C37.564560616719945 -11.95009445237528, 37.81814287318061 -11.68824995308919, 38.06910095028036 -11.42911513444239 M37.31097836025927 -12.21193895166137 C37.56267989772618 -11.95203644914624, 37.81438143519309 -11.69213394663111, 38.06910095028036 -11.42911513444239 M38.06910095028036 -11.42911513444239 C38.22318621908738 -11.248117810001487, 38.377271487894404 -11.067120485560583, 38.77551020195651 -10.59932663159847 M38.06910095028036 -11.42911513444239 C38.25938037313225 -11.205602097154673, 38.44965979598415 -10.982089059866954, 38.77551020195651 -10.59932663159847 M38.77551020195651 -10.59932663159847 C39.011620028989384 -10.28296097342216, 39.24772985602227 -9.966595315245847, 39.42730332814825 -9.725983222076888 M38.77551020195651 -10.59932663159847 C39.02589979006427 -10.263827394494806, 39.27628937817204 -9.928328157391142, 39.42730332814825 -9.725983222076888 M39.42730332814825 -9.725983222076888 C39.61208571510929 -9.442107854686235, 39.79686810207033 -9.158232487295582, 40.02180197109088 -8.812673661278927 M39.42730332814825 -9.725983222076888 C39.63943297720099 -9.400095116345282, 39.85156262625373 -9.074207010613677, 40.02180197109088 -8.812673661278927 M40.02180197109088 -8.812673661278927 C40.22236349897751 -8.456556359459288, 40.422925026864135 -8.100439057639651, 40.556563208341004 -7.863150934094199 M40.02180197109088 -8.812673661278927 C40.20254142346853 -8.491752461728275, 40.38328087584618 -8.170831262177623, 40.556563208341004 -7.863150934094199 M40.556563208341004 -7.863150934094199 C40.67324274615761 -7.620863377275839, 40.78992228397422 -7.3785758204574785, 41.02938959126881 -6.881316833080699 M40.556563208341004 -7.863150934094199 C40.71999816712648 -7.523774745228239, 40.88343312591196 -7.184398556362279, 41.02938959126881 -6.881316833080699 M41.02938959126881 -6.881316833080699 C41.13869542690238 -6.611329305781213, 41.24800126253595 -6.341341778481727, 41.438338174845924 -5.871205925162238 M41.02938959126881 -6.881316833080699 C41.11832427971858 -6.661646433174538, 41.20725896816835 -6.441976033268379, 41.438338174845924 -5.871205925162238 M41.438338174845924 -5.871205925162238 C41.55458608614493 -5.5210857379190195, 41.670833997443935 -5.1709655506758, 41.781728501623235 -4.836968972727556 M41.438338174845924 -5.871205925162238 C41.56370828163486 -5.493611138527818, 41.6890783884238 -5.116016351893398, 41.781728501623235 -4.836968972727556 M41.781728501623235 -4.836968972727556 C41.86642400848904 -4.513988297783356, 41.95111951535485 -4.191007622839156, 42.058149507091 -3.7828558772573464 M41.781728501623235 -4.836968972727556 C41.84025682625775 -4.613775104559777, 41.89878515089227 -4.3905812363919985, 42.058149507091 -3.7828558772573464 M42.058149507091 -3.7828558772573464 C42.13999461886925 -3.3625985262465306, 42.221839730647496 -2.9423411752357143, 42.26646531804565 -2.713198215567453 M42.058149507091 -3.7828558772573464 C42.12727803903757 -3.4278954760321296, 42.19640657098413 -3.072935074806913, 42.26646531804565 -2.713198215567453 M42.26646531804565 -2.713198215567453 C42.31617424370457 -2.3276656042944928, 42.36588316936349 -1.9421329930215325, 42.405819920136366 -1.632391440430593 M42.26646531804565 -2.713198215567453 C42.295069524914624 -2.491349635631226, 42.32367373178359 -2.269501055694999, 42.405819920136366 -1.632391440430593 M42.405819920136366 -1.632391440430593 C42.42094573095209 -1.396794727640963, 42.43607154176782 -1.1611980148513328, 42.4756406754117 -0.5448768187181379 M42.405819920136366 -1.632391440430593 C42.42743522116878 -1.295715679293813, 42.4490505222012 -0.9590399181570327, 42.4756406754117 -0.5448768187181379 M42.4756406754117 -0.5448768187181379 C42.4756406754117 -0.12291599616423221, 42.4756406754117 0.29904482638967345, 42.4756406754117 0.5448768187181336 M42.4756406754117 -0.5448768187181379 C42.4756406754117 -0.2127307899478852, 42.4756406754117 0.11941523882236749, 42.4756406754117 0.5448768187181336 M42.4756406754117 0.5448768187181336 C42.4566149277516 0.8412181958312155, 42.4375891800915 1.1375595729442973, 42.405819920136366 1.6323914404305815 M42.4756406754117 0.5448768187181336 C42.46071493459148 0.7773572798341981, 42.445789193771255 1.0098377409502626, 42.405819920136366 1.6323914404305815 M42.405819920136366 1.6323914404305815 C42.36021378794808 1.9861035957335418, 42.31460765575979 2.339815751036502, 42.266465318045654 2.7131982155674415 M42.405819920136366 1.6323914404305815 C42.351034886928915 2.0572933394591395, 42.29624985372146 2.482195238487698, 42.266465318045654 2.7131982155674415 M42.266465318045654 2.7131982155674415 C42.214035076379766 2.9824164253862624, 42.161604834713884 3.251634635205084, 42.058149507091 3.782855877257343 M42.266465318045654 2.7131982155674415 C42.205561055124996 3.02592873354451, 42.14465679220433 3.338659251521579, 42.058149507091 3.782855877257343 M42.058149507091 3.782855877257343 C41.95771054682827 4.16587316325989, 41.85727158656553 4.548890449262438, 41.781728501623235 4.836968972727545 M42.058149507091 3.782855877257343 C41.97303985622231 4.107415862775687, 41.88793020535362 4.431975848294031, 41.781728501623235 4.836968972727545 M41.781728501623235 4.836968972727545 C41.645949781367776 5.245912844735787, 41.51017106111232 5.654856716744028, 41.438338174845924 5.871205925162227 M41.781728501623235 4.836968972727545 C41.65621618049177 5.214992086302885, 41.5307038593603 5.593015199878225, 41.438338174845924 5.871205925162227 M41.438338174845924 5.871205925162227 C41.33784265529064 6.119431801412468, 41.23734713573536 6.3676576776627085, 41.02938959126881 6.881316833080694 M41.438338174845924 5.871205925162227 C41.315004455789456 6.175842595726941, 41.191670736732995 6.480479266291655, 41.02938959126881 6.881316833080694 M41.02938959126881 6.881316833080694 C40.89622945237283 7.15782671066875, 40.76306931347684 7.434336588256805, 40.556563208341004 7.863150934094196 M41.02938959126881 6.881316833080694 C40.9271059547655 7.09371099279905, 40.824822318262186 7.306105152517405, 40.556563208341004 7.863150934094196 M40.556563208341004 7.863150934094196 C40.35372656504492 8.223307933703742, 40.15088992174884 8.583464933313287, 40.02180197109089 8.812673661278923 M40.556563208341004 7.863150934094196 C40.40646779490318 8.129660539461772, 40.25637238146535 8.39617014482935, 40.02180197109089 8.812673661278923 M40.02180197109089 8.812673661278923 C39.85797126843015 9.064361615269325, 39.69414056576941 9.316049569259725, 39.427303328148255 9.725983222076879 M40.02180197109089 8.812673661278923 C39.84075682195484 9.090807627781512, 39.6597116728188 9.3689415942841, 39.427303328148255 9.725983222076879 M39.427303328148255 9.725983222076879 C39.28840248229141 9.912097701397672, 39.149501636434564 10.098212180718463, 38.77551020195651 10.599326631598467 M39.427303328148255 9.725983222076879 C39.24758362661704 9.966791249327068, 39.06786392508584 10.207599276577257, 38.77551020195651 10.599326631598467 M38.77551020195651 10.599326631598467 C38.5782344662697 10.831057936043559, 38.38095873058288 11.062789240488648, 38.06910095028037 11.42911513444238 M38.77551020195651 10.599326631598467 C38.59628652284986 10.809852963193377, 38.41706284374322 11.020379294788286, 38.06910095028037 11.42911513444238 M38.06910095028037 11.42911513444238 C37.82136690673231 11.68492087374899, 37.573632863184244 11.940726613055599, 37.31097836025927 12.211938951661365 M38.06910095028037 11.42911513444238 C37.90325300543014 11.600366753869748, 37.7374050605799 11.771618373297116, 37.31097836025927 12.211938951661365 M37.31097836025927 12.211938951661365 C37.09722494729556 12.40606414570962, 36.883471534331846 12.600189339757875, 36.50425772023242 12.944581292275275 M37.31097836025927 12.211938951661365 C37.08675885843962 12.415569170691043, 36.862539356619976 12.61919938972072, 36.50425772023242 12.944581292275275 M36.50425772023242 12.944581292275275 C36.16475032764936 13.215329403189118, 35.82524293506629 13.486077514102961, 35.652254018350675 13.62403157175526 M36.50425772023242 12.944581292275275 C36.16883321932643 13.212073405726962, 35.83340871842044 13.479565519178648, 35.652254018350675 13.62403157175526 M35.652254018350675 13.62403157175526 C35.43552121068427 13.775214996171314, 35.21878840301787 13.926398420587368, 34.75846832057934 14.247497783161286 M35.652254018350675 13.62403157175526 C35.32845076797515 13.849902702000437, 35.00464751759963 14.075773832245611, 34.75846832057934 14.247497783161286 M34.75846832057934 14.247497783161286 C34.42919045425458 14.447107960778883, 34.09991258792983 14.646718138396482, 33.82657338406695 14.81241797009762 M34.75846832057934 14.247497783161286 C34.4397468894756 14.440708587711402, 34.12102545837187 14.633919392261518, 33.82657338406695 14.81241797009762 M33.82657338406695 14.81241797009762 C33.54549792187604 14.959054858685189, 33.264422459685136 15.105691747272758, 32.86039856499849 15.316470754341124 M33.82657338406695 14.81241797009762 C33.55624647904871 14.953447343292988, 33.285919574030466 15.094476716488357, 32.86039856499849 15.316470754341124 M32.86039856499849 15.316470754341124 C32.53864976848054 15.458899402220682, 32.216900971962595 15.60132805010024, 31.863914082949368 15.757584874882367 M32.86039856499849 15.316470754341124 C32.54627867472397 15.45552231173018, 32.232158784449446 15.594573869119236, 31.863914082949368 15.757584874882367 M31.863914082949368 15.757584874882367 C31.64103106074883 15.839607887360236, 31.418148038548292 15.921630899838107, 30.841214706401562 16.133947699181363 M31.863914082949368 15.757584874882367 C31.6397777556401 15.840069115225674, 31.415641428330833 15.922553355568981, 30.841214706401562 16.133947699181363 M30.841214706401562 16.133947699181363 C30.465682765261192 16.245403608104443, 30.09015082412082 16.35685951702752, 29.796502926461642 16.444012671663497 M30.841214706401562 16.133947699181363 C30.491819486427087 16.237646366456854, 30.142424266452615 16.341345033732342, 29.796502926461642 16.444012671663497 M29.796502926461642 16.444012671663497 C29.445630967434447 16.52409690665794, 29.094759008407255 16.604181141652386, 28.734071687923333 16.68650566884811 M29.796502926461642 16.444012671663497 C29.53747689148269 16.503133673844598, 29.27845085650374 16.5622546760257, 28.734071687923333 16.68650566884811 M28.734071687923333 16.68650566884811 C28.353010038120694 16.74811276121097, 27.971948388318054 16.80971985357383, 27.658286748636613 16.86043023499518 M28.734071687923333 16.68650566884811 C28.33598231575637 16.750865671310876, 27.937892943589414 16.81522567377364, 27.658286748636613 16.86043023499518 M27.658286748636613 16.86043023499518 C27.299155722582764 16.895075173160347, 26.940024696528916 16.92972011132551, 26.57356873967212 16.965071676755716 M27.658286748636613 16.86043023499518 C27.300892889745246 16.894907590733432, 26.94349903085388 16.92938494647168, 26.57356873967212 16.965071676755716 M26.57356873967212 16.965071676755716 C26.237942321032413 16.9758345627443, 25.902315902392708 16.98659744873288, 25.484375000000004 17 M26.57356873967212 16.965071676755716 C26.22982923450043 16.976094733638213, 25.886089729328734 16.987117790520713, 25.484375000000004 17 M25.484375000000004 17 C25.484375000000004 17, 25.484375000000004 17, 25.484375 17 M25.484375000000004 17 C25.484375000000004 17, 25.484375 17, 25.484375 17 M25.484375 17 C5.603199887575606 17, -14.277975224848788 17, -25.484374999999996 17 M25.484375 17 C9.423527517539824 17, -6.637319964920351 17, -25.484374999999996 17 M-25.484374999999996 17 C-25.81330505573806 16.989451853335993, -26.142235111476126 16.978903706671986, -26.573568739672112 16.965071676755716 M-25.484374999999996 17 C-25.713887154257726 16.992639991931263, -25.943399308515456 16.985279983862522, -26.573568739672112 16.965071676755716 M-26.573568739672112 16.965071676755716 C-26.948153190702286 16.92893596526855, -27.32273764173246 16.89280025378138, -27.658286748636606 16.86043023499518 M-26.573568739672112 16.965071676755716 C-26.849432855818602 16.938459397246206, -27.125296971965092 16.91184711773669, -27.658286748636606 16.86043023499518 M-27.658286748636606 16.86043023499518 C-28.084085626091227 16.79159037460793, -28.509884503545848 16.72275051422068, -28.73407168792333 16.68650566884811 M-27.658286748636606 16.86043023499518 C-28.078574620615264 16.792481351234798, -28.498862492593926 16.724532467474415, -28.73407168792333 16.68650566884811 M-28.73407168792333 16.68650566884811 C-28.980821580860862 16.63018661597865, -29.227571473798395 16.57386756310919, -29.79650292646162 16.4440126716635 M-28.73407168792333 16.68650566884811 C-29.1250233214 16.59727350970489, -29.515974954876672 16.508041350561673, -29.79650292646162 16.4440126716635 M-29.79650292646162 16.4440126716635 C-30.13469214510706 16.34363988676097, -30.4728813637525 16.243267101858436, -30.841214706401544 16.13394769918137 M-29.79650292646162 16.4440126716635 C-30.02857426919985 16.37513511530613, -30.26064561193808 16.30625755894876, -30.841214706401544 16.13394769918137 M-30.841214706401544 16.13394769918137 C-31.068205492811614 16.050412991502636, -31.295196279221685 15.966878283823903, -31.86391408294936 15.757584874882369 M-30.841214706401544 16.13394769918137 C-31.05630687437397 16.05479179307731, -31.271399042346395 15.975635886973254, -31.86391408294936 15.757584874882369 M-31.86391408294936 15.757584874882369 C-32.236214619704796 15.592778471163772, -32.60851515646023 15.427972067445175, -32.86039856499848 15.316470754341127 M-31.86391408294936 15.757584874882369 C-32.092377426464985 15.656450929832296, -32.320840769980606 15.555316984782223, -32.86039856499848 15.316470754341127 M-32.86039856499848 15.316470754341127 C-33.20036774693791 15.139109049883983, -33.54033692887734 14.961747345426838, -33.82657338406693 14.812417970097624 M-32.86039856499848 15.316470754341127 C-33.12434406471618 15.178770556203563, -33.38828956443388 15.041070358066, -33.82657338406693 14.812417970097624 M-33.82657338406693 14.812417970097624 C-34.18601240206841 14.594523925087001, -34.545451420069874 14.376629880076381, -34.75846832057932 14.247497783161299 M-33.82657338406693 14.812417970097624 C-34.09178774612301 14.651643465246638, -34.357002108179096 14.490868960395652, -34.75846832057932 14.247497783161299 M-34.75846832057932 14.247497783161299 C-35.092994289433534 14.014146948684386, -35.42752025828776 13.780796114207476, -35.65225401835067 13.624031571755264 M-34.75846832057932 14.247497783161299 C-34.93800228231051 14.122262663357562, -35.1175362440417 13.997027543553823, -35.65225401835067 13.624031571755264 M-35.65225401835067 13.624031571755264 C-35.838661281442754 13.475376739944927, -36.02506854453483 13.32672190813459, -36.5042577202324 12.94458129227529 M-35.65225401835067 13.624031571755264 C-35.925454233939135 13.40616166998653, -36.1986544495276 13.188291768217793, -36.5042577202324 12.94458129227529 M-36.5042577202324 12.94458129227529 C-36.76432204229065 12.708397755906887, -37.0243863643489 12.472214219538484, -37.31097836025926 12.211938951661377 M-36.5042577202324 12.94458129227529 C-36.72163687708765 12.747163293556671, -36.93901603394289 12.549745294838052, -37.31097836025926 12.211938951661377 M-37.31097836025926 12.211938951661377 C-37.52837201150282 11.987462158401703, -37.74576566274638 11.762985365142027, -38.069100950280365 11.429115134442386 M-37.31097836025926 12.211938951661377 C-37.53040842487487 11.985359394402415, -37.74983848949047 11.758779837143454, -38.069100950280365 11.429115134442386 M-38.069100950280365 11.429115134442386 C-38.25638375543874 11.209122094809853, -38.443666560597116 10.98912905517732, -38.77551020195651 10.599326631598473 M-38.069100950280365 11.429115134442386 C-38.330660995555455 11.121871822074063, -38.59222104083055 10.814628509705742, -38.77551020195651 10.599326631598473 M-38.77551020195651 10.599326631598473 C-39.02687249786785 10.262524054653518, -39.2782347937792 9.925721477708564, -39.42730332814825 9.72598322207689 M-38.77551020195651 10.599326631598473 C-38.934504680946986 10.386288514446244, -39.093499159937465 10.173250397294016, -39.42730332814825 9.72598322207689 M-39.42730332814825 9.72598322207689 C-39.65657952325584 9.37375341711272, -39.885855718363445 9.021523612148552, -40.02180197109088 8.812673661278936 M-39.42730332814825 9.72598322207689 C-39.554562365121825 9.53047916744926, -39.6818214020954 9.33497511282163, -40.02180197109088 8.812673661278936 M-40.02180197109088 8.812673661278936 C-40.19312621338989 8.50847012061631, -40.364450455688896 8.204266579953686, -40.556563208341004 7.863150934094201 M-40.02180197109088 8.812673661278936 C-40.204517749722214 8.488243294340133, -40.38723352835355 8.16381292740133, -40.556563208341004 7.863150934094201 M-40.556563208341004 7.863150934094201 C-40.65399739298614 7.660826764920987, -40.75143157763129 7.458502595747773, -41.02938959126881 6.881316833080701 M-40.556563208341004 7.863150934094201 C-40.68603530232484 7.594299360677734, -40.81550739630868 7.325447787261266, -41.02938959126881 6.881316833080701 M-41.02938959126881 6.881316833080701 C-41.16875146274133 6.5370903161650915, -41.30811333421385 6.192863799249482, -41.438338174845924 5.87120592516224 M-41.02938959126881 6.881316833080701 C-41.14969814877789 6.5841523700255555, -41.27000670628696 6.286987906970409, -41.438338174845924 5.87120592516224 M-41.438338174845924 5.87120592516224 C-41.50905237116452 5.658226032627748, -41.57976656748312 5.445246140093254, -41.781728501623235 4.8369689727275516 M-41.438338174845924 5.87120592516224 C-41.54907924367916 5.537671470029732, -41.659820312512394 5.204137014897225, -41.781728501623235 4.8369689727275516 M-41.781728501623235 4.8369689727275516 C-41.84467080179005 4.596942702826034, -41.90761310195686 4.356916432924517, -42.058149507091 3.782855877257349 M-41.781728501623235 4.8369689727275516 C-41.85134292661284 4.571498999159547, -41.92095735160244 4.306029025591544, -42.058149507091 3.782855877257349 M-42.058149507091 3.782855877257349 C-42.1110012387682 3.5114734053123513, -42.163852970445404 3.2400909333673535, -42.26646531804565 2.713198215567455 M-42.058149507091 3.782855877257349 C-42.119352559070094 3.4685911406143366, -42.18055561104918 3.154326403971324, -42.26646531804565 2.713198215567455 M-42.26646531804565 2.713198215567455 C-42.310439234372 2.3721452041722446, -42.35441315069835 2.0310921927770336, -42.405819920136366 1.6323914404306026 M-42.26646531804565 2.713198215567455 C-42.30439024635905 2.419059960692907, -42.34231517467244 2.1249217058183585, -42.405819920136366 1.6323914404306026 M-42.405819920136366 1.6323914404306026 C-42.430050375469136 1.2549825401512331, -42.454280830801906 0.8775736398718635, -42.4756406754117 0.54487681871814 M-42.405819920136366 1.6323914404306026 C-42.43367033130231 1.1985988060738317, -42.461520742468245 0.7648061717170611, -42.4756406754117 0.54487681871814 M-42.4756406754117 0.54487681871814 C-42.4756406754117 0.2602503175408894, -42.4756406754117 -0.02437618363636118, -42.4756406754117 -0.5448768187181317 M-42.4756406754117 0.54487681871814 C-42.4756406754117 0.11309775106761732, -42.4756406754117 -0.3186813165829053, -42.4756406754117 -0.5448768187181317 M-42.4756406754117 -0.5448768187181317 C-42.4582213590869 -0.8161967310958477, -42.44080204276211 -1.0875166434735637, -42.405819920136366 -1.6323914404305793 M-42.4756406754117 -0.5448768187181317 C-42.45299285463958 -0.8976349082356869, -42.43034503386747 -1.2503929977532422, -42.405819920136366 -1.6323914404305793 M-42.405819920136366 -1.6323914404305793 C-42.36080028707955 -1.9815548242871919, -42.31578065402273 -2.3307182081438045, -42.266465318045654 -2.713198215567447 M-42.405819920136366 -1.6323914404305793 C-42.3707599177957 -1.9043098952042465, -42.33569991545504 -2.176228349977914, -42.266465318045654 -2.713198215567447 M-42.266465318045654 -2.713198215567447 C-42.21618791468686 -2.9713620556818645, -42.16591051132808 -3.2295258957962827, -42.058149507091 -3.782855877257341 M-42.266465318045654 -2.713198215567447 C-42.21836212537589 -2.9601979433133163, -42.170258932706126 -3.207197671059186, -42.058149507091 -3.782855877257341 M-42.058149507091 -3.782855877257341 C-41.96553282137843 -4.136043440204874, -41.87291613566586 -4.489231003152407, -41.781728501623235 -4.836968972727544 M-42.058149507091 -3.782855877257341 C-41.98641309433796 -4.056417909842654, -41.914676681584915 -4.329979942427968, -41.781728501623235 -4.836968972727544 M-41.781728501623235 -4.836968972727544 C-41.68362282712331 -5.13244763330483, -41.585517152623375 -5.427926293882117, -41.43833817484593 -5.871205925162218 M-41.781728501623235 -4.836968972727544 C-41.67110455209344 -5.170150683178524, -41.56048060256364 -5.503332393629505, -41.43833817484593 -5.871205925162218 M-41.43833817484593 -5.871205925162218 C-41.280013109788854 -6.262271896860091, -41.121688044731776 -6.653337868557965, -41.02938959126881 -6.881316833080692 M-41.43833817484593 -5.871205925162218 C-41.275132607087436 -6.274326832890695, -41.11192703932894 -6.677447740619173, -41.02938959126881 -6.881316833080692 M-41.02938959126881 -6.881316833080692 C-40.88294801270132 -7.185405904323916, -40.73650643413383 -7.489494975567139, -40.556563208341004 -7.863150934094194 M-41.02938959126881 -6.881316833080692 C-40.890101416610335 -7.170551708048519, -40.75081324195186 -7.459786583016345, -40.556563208341004 -7.863150934094194 M-40.556563208341004 -7.863150934094194 C-40.43215944982547 -8.084042404585075, -40.307755691309936 -8.304933875075957, -40.02180197109088 -8.812673661278929 M-40.556563208341004 -7.863150934094194 C-40.37169339938505 -8.191405999993583, -40.1868235904291 -8.51966106589297, -40.02180197109088 -8.812673661278929 M-40.02180197109088 -8.812673661278929 C-39.84634822913468 -9.082217724850219, -39.67089448717848 -9.35176178842151, -39.42730332814825 -9.725983222076884 M-40.02180197109088 -8.812673661278929 C-39.896543414038 -9.0051044415443, -39.77128485698511 -9.19753522180967, -39.42730332814825 -9.725983222076884 M-39.42730332814825 -9.725983222076884 C-39.17105983161948 -10.069326163162666, -38.914816335090705 -10.412669104248447, -38.77551020195651 -10.599326631598467 M-39.42730332814825 -9.725983222076884 C-39.2239726915645 -9.998427751297047, -39.02064205498075 -10.270872280517208, -38.77551020195651 -10.599326631598467 M-38.77551020195651 -10.599326631598467 C-38.56988047668647 -10.84087100756349, -38.364250751416435 -11.08241538352851, -38.06910095028037 -11.42911513444238 M-38.77551020195651 -10.599326631598467 C-38.60850536333697 -10.795500017885505, -38.44150052471742 -10.991673404172543, -38.06910095028037 -11.42911513444238 M-38.06910095028037 -11.42911513444238 C-37.80903927976518 -11.697650160709546, -37.54897760924999 -11.966185186976713, -37.31097836025928 -12.21193895166136 M-38.06910095028037 -11.42911513444238 C-37.916374013499265 -11.58681823578358, -37.76364707671815 -11.74452133712478, -37.31097836025928 -12.21193895166136 M-37.31097836025928 -12.21193895166136 C-37.104434731456486 -12.3995164104951, -36.8978911026537 -12.587093869328838, -36.50425772023242 -12.944581292275274 M-37.31097836025928 -12.21193895166136 C-36.99774316962756 -12.496410864044092, -36.68450797899585 -12.780882776426827, -36.50425772023242 -12.944581292275274 M-36.50425772023242 -12.944581292275274 C-36.19277617398541 -13.192979536535205, -35.881294627738406 -13.441377780795134, -35.652254018350675 -13.624031571755259 M-36.50425772023242 -12.944581292275274 C-36.18774155765146 -13.196994509084766, -35.871225395070496 -13.449407725894257, -35.652254018350675 -13.624031571755259 M-35.652254018350675 -13.624031571755259 C-35.40814452979702 -13.794311783640845, -35.164035041243366 -13.964591995526431, -34.75846832057934 -14.247497783161284 M-35.652254018350675 -13.624031571755259 C-35.32686144080351 -13.851011347834504, -35.001468863256356 -14.07799112391375, -34.75846832057934 -14.247497783161284 M-34.75846832057934 -14.247497783161284 C-34.423439754600615 -14.45059406870398, -34.08841118862189 -14.653690354246677, -33.82657338406695 -14.812417970097618 M-34.75846832057934 -14.247497783161284 C-34.453025015458444 -14.432659309709674, -34.14758171033755 -14.617820836258062, -33.82657338406695 -14.812417970097618 M-33.82657338406695 -14.812417970097618 C-33.479262032277006 -14.993610079862892, -33.131950680487066 -15.174802189628165, -32.86039856499849 -15.316470754341124 M-33.82657338406695 -14.812417970097618 C-33.536537770552286 -14.963729363891538, -33.246502157037625 -15.11504075768546, -32.86039856499849 -15.316470754341124 M-32.86039856499849 -15.316470754341124 C-32.46492077975302 -15.49153703843761, -32.069442994507554 -15.666603322534097, -31.863914082949368 -15.757584874882365 M-32.86039856499849 -15.316470754341124 C-32.54471740033528 -15.456213441588492, -32.22903623567207 -15.59595612883586, -31.863914082949368 -15.757584874882365 M-31.863914082949368 -15.757584874882365 C-31.577154880926905 -15.863114911999638, -31.290395678904442 -15.96864494911691, -30.841214706401566 -16.133947699181363 M-31.863914082949368 -15.757584874882365 C-31.55860098417283 -15.869942917515479, -31.253287885396293 -15.982300960148592, -30.841214706401566 -16.133947699181363 M-30.841214706401566 -16.133947699181363 C-30.50582928650107 -16.233488331333835, -30.17044386660057 -16.33302896348631, -29.796502926461642 -16.444012671663494 M-30.841214706401566 -16.133947699181363 C-30.49120170744334 -16.23782972001644, -30.141188708485117 -16.341711740851515, -29.796502926461642 -16.444012671663494 M-29.796502926461642 -16.444012671663494 C-29.40253276246338 -16.533933790700516, -29.00856259846512 -16.62385490973754, -28.734071687923336 -16.68650566884811 M-29.796502926461642 -16.444012671663494 C-29.478473065164156 -16.51660091216585, -29.16044320386667 -16.589189152668208, -28.734071687923336 -16.68650566884811 M-28.734071687923336 -16.68650566884811 C-28.45045988994179 -16.732357824903424, -28.166848091960247 -16.77820998095874, -27.658286748636613 -16.86043023499518 M-28.734071687923336 -16.68650566884811 C-28.51443508755868 -16.722014811087792, -28.294798487194022 -16.757523953327475, -27.658286748636613 -16.86043023499518 M-27.658286748636613 -16.86043023499518 C-27.252710268273084 -16.89955571027877, -26.84713378790956 -16.938681185562356, -26.57356873967212 -16.965071676755716 M-27.658286748636613 -16.86043023499518 C-27.247808407975246 -16.900028586846354, -26.837330067313875 -16.939626938697522, -26.57356873967212 -16.965071676755716 M-26.57356873967212 -16.965071676755716 C-26.22089693311291 -16.976381175158043, -25.868225126553707 -16.98769067356037, -25.484375000000004 -17 M-26.57356873967212 -16.965071676755716 C-26.14770236815084 -16.978728382391797, -25.721835996629554 -16.99238508802788, -25.484375000000004 -17 M-25.484375000000004 -17 C-25.484375000000004 -17, -25.484375 -17, -25.484375 -17 M-25.484375000000004 -17 C-25.484375000000004 -17, -25.484375 -17, -25.484375 -17" stroke="#555555" stroke-width="1.3" fill="none" stroke-dasharray="0 0" style=""></path></g><g class="label" style="" transform="translate(0, -9.5)"><rect></rect><g><rect class="background" style="stroke: none"></rect><text y="-10.1" style=""><tspan class="text-outer-tspan row" x="0" y="-0.1em" dy="1.1em"><tspan font-style="normal" class="text-inner-tspan" font-weight="normal">Attacker</tspan></tspan></text></g></g></g></g></g></g><defs><filter id="g7c93f8a1-e327-42dc-bbc2-73bdafcfa9f1-dark-drop-shadow" height="130%" width="130%"><feDropShadow dx="4" dy="4" stdDeviation="0" flood-opacity="0.06" flood-color="#000000"></feDropShadow></filter></defs><defs><filter id="g7c93f8a1-e327-42dc-bbc2-73bdafcfa9f1-dark-drop-shadow-small" height="150%" width="150%"><feDropShadow dx="2" dy="2" stdDeviation="0" flood-opacity="0.06" flood-color="#000000"></feDropShadow></filter></defs><linearGradient id="g7c93f8a1-e327-42dc-bbc2-73bdafcfa9f1-dark-gradient" gradientUnits="objectBoundingBox" x1="0%" y1="0%" x2="100%" y2="0%"><stop offset="0%" stop-color="#555555" stop-opacity="1"></stop><stop offset="100%" stop-color="#555555" stop-opacity="1"></stop></linearGradient></svg>