<svg id="g88512523-831e-4027-9254-82c5e6ec198a-flip" width="100%" xmlns="http://www.w3.org/2000/svg" xmlns:xlink="http://www.w3.org/1999/xlink" class="flowchart" style="max-width: 331.57421875px;" viewBox="0 0 331.57421875 703.3999633789062" role="graphics-document document" aria-roledescription="flowchart-v2"><style>#g88512523-831e-4027-9254-82c5e6ec198a-flip{font-family:"trebuchet ms",verdana,arial,sans-serif;font-size:16px;fill:#333;}@keyframes edge-animation-frame{from{stroke-dashoffset:0;}}@keyframes dash{to{stroke-dashoffset:0;}}#g88512523-831e-4027-9254-82c5e6ec198a-flip .edge-animation-slow{stroke-dasharray:9,5!important;stroke-dashoffset:900;animation:dash 50s linear infinite;stroke-linecap:round;}#g88512523-831e-4027-9254-82c5e6ec198a-flip .edge-animation-fast{stroke-dasharray:9,5!important;stroke-dashoffset:900;animation:dash 20s linear infinite;stroke-linecap:round;}#g88512523-831e-4027-9254-82c5e6ec198a-flip .error-icon{fill:#552222;}#g88512523-831e-4027-9254-82c5e6ec198a-flip .error-text{fill:#552222;stroke:#552222;}#g88512523-831e-4027-9254-82c5e6ec198a-flip .edge-thickness-normal{stroke-width:1px;}#g88512523-831e-4027-9254-82c5e6ec198a-flip .edge-thickness-thick{stroke-width:3.5px;}#g88512523-831e-4027-9254-82c5e6ec198a-flip .edge-pattern-solid{stroke-dasharray:0;}#g88512523-831e-4027-9254-82c5e6ec198a-flip .edge-thickness-invisible{stroke-width:0;fill:none;}#g88512523-831e-4027-9254-82c5e6ec198a-flip .edge-pattern-dashed{stroke-dasharray:3;}#g88512523-831e-4027-9254-82c5e6ec198a-flip .edge-pattern-dotted{stroke-dasharray:2;}#g88512523-831e-4027-9254-82c5e6ec198a-flip .marker{fill:#333333;stroke:#333333;}#g88512523-831e-4027-9254-82c5e6ec198a-flip .marker.cross{stroke:#333333;}#g88512523-831e-4027-9254-82c5e6ec198a-flip svg{font-family:"trebuchet ms",verdana,arial,sans-serif;font-size:16px;}#g88512523-831e-4027-9254-82c5e6ec198a-flip p{margin:0;}#g88512523-831e-4027-9254-82c5e6ec198a-flip .label{font-family:"trebuchet ms",verdana,arial,sans-serif;color:#333;}#g88512523-831e-4027-9254-82c5e6ec198a-flip .cluster-label text{fill:#333;}#g88512523-831e-4027-9254-82c5e6ec198a-flip .cluster-label span{color:#333;}#g88512523-831e-4027-9254-82c5e6ec198a-flip .cluster-label span p{background-color:transparent;}#g88512523-831e-4027-9254-82c5e6ec198a-flip .label text,#g88512523-831e-4027-9254-82c5e6ec198a-flip span{fill:#333;color:#333;}#g88512523-831e-4027-9254-82c5e6ec198a-flip .node rect,#g88512523-831e-4027-9254-82c5e6ec198a-flip .node circle,#g88512523-831e-4027-9254-82c5e6ec198a-flip .node ellipse,#g88512523-831e-4027-9254-82c5e6ec198a-flip .node polygon,#g88512523-831e-4027-9254-82c5e6ec198a-flip .node path{fill:#ECECFF;stroke:#9370DB;stroke-width:1px;}#g88512523-831e-4027-9254-82c5e6ec198a-flip .rough-node .label text,#g88512523-831e-4027-9254-82c5e6ec198a-flip .node .label text,#g88512523-831e-4027-9254-82c5e6ec198a-flip .image-shape .label,#g88512523-831e-4027-9254-82c5e6ec198a-flip .icon-shape .label{text-anchor:middle;}#g88512523-831e-4027-9254-82c5e6ec198a-flip .node .katex path{fill:#000;stroke:#000;stroke-width:1px;}#g88512523-831e-4027-9254-82c5e6ec198a-flip .rough-node .label,#g88512523-831e-4027-9254-82c5e6ec198a-flip .node .label,#g88512523-831e-4027-9254-82c5e6ec198a-flip .image-shape .label,#g88512523-831e-4027-9254-82c5e6ec198a-flip .icon-shape .label{text-align:center;}#g88512523-831e-4027-9254-82c5e6ec198a-flip .node.clickable{cursor:pointer;}#g88512523-831e-4027-9254-82c5e6ec198a-flip .root .anchor path{fill:#333333!important;stroke-width:0;stroke:#333333;}#g88512523-831e-4027-9254-82c5e6ec198a-flip .arrowheadPath{fill:#333333;}#g88512523-831e-4027-9254-82c5e6ec198a-flip .edgePath .path{stroke:#333333;stroke-width:1px;}#g88512523-831e-4027-9254-82c5e6ec198a-flip .flowchart-link{stroke:#333333;fill:none;}#g88512523-831e-4027-9254-82c5e6ec198a-flip .edgeLabel{background-color:rgba(232,232,232, 0.8);text-align:center;}#g88512523-831e-4027-9254-82c5e6ec198a-flip .edgeLabel p{background-color:rgba(232,232,232, 0.8);}#g88512523-831e-4027-9254-82c5e6ec198a-flip .edgeLabel rect{opacity:0.5;background-color:rgba(232,232,232, 0.8);fill:rgba(232,232,232, 0.8);}#g88512523-831e-4027-9254-82c5e6ec198a-flip .labelBkg{background-color:rgba(232, 232, 232, 0.5);}#g88512523-831e-4027-9254-82c5e6ec198a-flip .cluster rect{fill:#ffffde;stroke:#aaaa33;stroke-width:1px;}#g88512523-831e-4027-9254-82c5e6ec198a-flip .cluster text{fill:#333;}#g88512523-831e-4027-9254-82c5e6ec198a-flip .cluster span{color:#333;}#g88512523-831e-4027-9254-82c5e6ec198a-flip div.mermaidTooltip{position:absolute;text-align:center;max-width:200px;padding:2px;font-family:"trebuchet ms",verdana,arial,sans-serif;font-size:12px;background:hsl(80, 100%, 96.2745098039%);border:1px solid #aaaa33;border-radius:2px;pointer-events:none;z-index:100;}#g88512523-831e-4027-9254-82c5e6ec198a-flip .flowchartTitleText{text-anchor:middle;font-size:18px;fill:#333;}#g88512523-831e-4027-9254-82c5e6ec198a-flip rect.text{fill:none;stroke-width:0;}#g88512523-831e-4027-9254-82c5e6ec198a-flip .icon-shape,#g88512523-831e-4027-9254-82c5e6ec198a-flip .image-shape{background-color:rgba(232,232,232, 0.8);text-align:center;}#g88512523-831e-4027-9254-82c5e6ec198a-flip .icon-shape p,#g88512523-831e-4027-9254-82c5e6ec198a-flip .image-shape p{background-color:rgba(232,232,232, 0.8);padding:2px;}#g88512523-831e-4027-9254-82c5e6ec198a-flip .icon-shape .label rect,#g88512523-831e-4027-9254-82c5e6ec198a-flip .image-shape .label rect{opacity:0.5;background-color:rgba(232,232,232, 0.8);fill:rgba(232,232,232, 0.8);}#g88512523-831e-4027-9254-82c5e6ec198a-flip .label-icon{display:inline-block;height:1em;overflow:visible;vertical-align:-0.125em;}#g88512523-831e-4027-9254-82c5e6ec198a-flip .node .label-icon path{fill:currentColor;stroke:revert;stroke-width:revert;}#g88512523-831e-4027-9254-82c5e6ec198a-flip .node .neo-node{stroke:#9370DB;}#g88512523-831e-4027-9254-82c5e6ec198a-flip [data-look="neo"].node rect,#g88512523-831e-4027-9254-82c5e6ec198a-flip [data-look="neo"].cluster rect,#g88512523-831e-4027-9254-82c5e6ec198a-flip [data-look="neo"].node polygon{stroke:#9370DB;filter:drop-shadow(1px 2px 2px rgba(185, 185, 185, 1));}#g88512523-831e-4027-9254-82c5e6ec198a-flip [data-look="neo"].node path{stroke:#9370DB;stroke-width:1px;}#g88512523-831e-4027-9254-82c5e6ec198a-flip [data-look="neo"].node .outer-path{filter:drop-shadow(1px 2px 2px rgba(185, 185, 185, 1));}#g88512523-831e-4027-9254-82c5e6ec198a-flip [data-look="neo"].node .neo-line path{stroke:#9370DB;filter:none;}#g88512523-831e-4027-9254-82c5e6ec198a-flip [data-look="neo"].node circle{stroke:#9370DB;filter:drop-shadow(1px 2px 2px rgba(185, 185, 185, 1));}#g88512523-831e-4027-9254-82c5e6ec198a-flip [data-look="neo"].node circle .state-start{fill:#000000;}#g88512523-831e-4027-9254-82c5e6ec198a-flip [data-look="neo"].icon-shape .icon{fill:#9370DB;filter:drop-shadow(1px 2px 2px rgba(185, 185, 185, 1));}#g88512523-831e-4027-9254-82c5e6ec198a-flip [data-look="neo"].icon-shape .icon-neo path{stroke:#9370DB;filter:drop-shadow(1px 2px 2px rgba(185, 185, 185, 1));}#g88512523-831e-4027-9254-82c5e6ec198a-flip :root{--mermaid-font-family:"trebuchet ms",verdana,arial,sans-serif;}</style><g><marker id="g88512523-831e-4027-9254-82c5e6ec198a-flip_flowchart-v2-pointEnd" class="marker flowchart-v2" viewBox="0 0 10 10" refX="5" refY="5" markerUnits="userSpaceOnUse" markerWidth="8" markerHeight="8" orient="auto"><path d="M 0 0 L 10 5 L 0 10 z" class="arrowMarkerPath" style="stroke-width: 1; stroke-dasharray: 1, 0;"></path></marker><marker id="g88512523-831e-4027-9254-82c5e6ec198a-flip_flowchart-v2-pointStart" class="marker flowchart-v2" viewBox="0 0 10 10" refX="4.5" refY="5" markerUnits="userSpaceOnUse" markerWidth="8" markerHeight="8" orient="auto"><path d="M 0 5 L 10 10 L 10 0 z" class="arrowMarkerPath" style="stroke-width: 1; stroke-dasharray: 1, 0;"></path></marker><marker id="g88512523-831e-4027-9254-82c5e6ec198a-flip_flowchart-v2-pointEnd-margin" class="marker flowchart-v2" viewBox="0 0 11.5 14" refX="11.5" refY="7" markerUnits="userSpaceOnUse" markerWidth="10.5" markerHeight="14" orient="auto"><path d="M 0 0 L 11.5 7 L 0 14 z" class="arrowMarkerPath" style="stroke-width: 0; stroke-dasharray: 1, 0;"></path></marker><marker id="g88512523-831e-4027-9254-82c5e6ec198a-flip_flowchart-v2-pointStart-margin" class="marker flowchart-v2" viewBox="0 0 11.5 14" refX="1" refY="7" markerUnits="userSpaceOnUse" markerWidth="11.5" markerHeight="14" orient="auto"><polygon points="0,7 11.5,14 11.5,0" class="arrowMarkerPath" style="stroke-width: 0; stroke-dasharray: 1, 0;"></polygon></marker><marker id="g88512523-831e-4027-9254-82c5e6ec198a-flip_flowchart-v2-circleEnd" class="marker flowchart-v2" viewBox="0 0 10 10" refX="11" refY="5" markerUnits="userSpaceOnUse" markerWidth="11" markerHeight="11" orient="auto"><circle cx="5" cy="5" r="5" class="arrowMarkerPath" style="stroke-width: 1; stroke-dasharray: 1, 0;"></circle></marker><marker id="g88512523-831e-4027-9254-82c5e6ec198a-flip_flowchart-v2-circleStart" class="marker flowchart-v2" viewBox="0 0 10 10" refX="-1" refY="5" markerUnits="userSpaceOnUse" markerWidth="11" markerHeight="11" orient="auto"><circle cx="5" cy="5" r="5" class="arrowMarkerPath" style="stroke-width: 1; stroke-dasharray: 1, 0;"></circle></marker><marker id="g88512523-831e-4027-9254-82c5e6ec198a-flip_flowchart-v2-circleEnd-margin" class="marker flowchart-v2" viewBox="0 0 10 10" refY="5" refX="12.25" markerUnits="userSpaceOnUse" markerWidth="14" markerHeight="14" orient="auto"><circle cx="5" cy="5" r="5" class="arrowMarkerPath" style="stroke-width: 0; stroke-dasharray: 1, 0;"></circle></marker><marker id="g88512523-831e-4027-9254-82c5e6ec198a-flip_flowchart-v2-circleStart-margin" class="marker flowchart-v2" viewBox="0 0 10 10" refX="-2" refY="5" markerUnits="userSpaceOnUse" markerWidth="14" markerHeight="14" orient="auto"><circle cx="5" cy="5" r="5" class="arrowMarkerPath" style="stroke-width: 0; stroke-dasharray: 1, 0;"></circle></marker><marker id="g88512523-831e-4027-9254-82c5e6ec198a-flip_flowchart-v2-crossEnd" class="marker cross flowchart-v2" viewBox="0 0 11 11" refX="12" refY="5.2" markerUnits="userSpaceOnUse" markerWidth="11" markerHeight="11" orient="auto"><path d="M 1,1 l 9,9 M 10,1 l -9,9" class="arrowMarkerPath" style="stroke-width: 2; stroke-dasharray: 1, 0;"></path></marker><marker id="g88512523-831e-4027-9254-82c5e6ec198a-flip_flowchart-v2-crossStart" class="marker cross flowchart-v2" viewBox="0 0 11 11" refX="-1" refY="5.2" markerUnits="userSpaceOnUse" markerWidth="11" markerHeight="11" orient="auto"><path d="M 1,1 l 9,9 M 10,1 l -9,9" class="arrowMarkerPath" style="stroke-width: 2; stroke-dasharray: 1, 0;"></path></marker><marker id="g88512523-831e-4027-9254-82c5e6ec198a-flip_flowchart-v2-crossEnd-margin" class="marker cross flowchart-v2" viewBox="0 0 15 15" refX="17.7" refY="7.5" markerUnits="userSpaceOnUse" markerWidth="12" markerHeight="12" orient="auto"><path d="M 1,1 L 14,14 M 1,14 L 14,1" class="arrowMarkerPath" style="stroke-width: 2.5;"></path></marker><marker id="g88512523-831e-4027-9254-82c5e6ec198a-flip_flowchart-v2-crossStart-margin" class="marker cross flowchart-v2" viewBox="0 0 15 15" refX="-3.5" refY="7.5" markerUnits="userSpaceOnUse" markerWidth="12" markerHeight="12" orient="auto"><path d="M 1,1 L 14,14 M 1,14 L 14,1" class="arrowMarkerPath" style="stroke-width: 2.5; stroke-dasharray: 1, 0;"></path></marker><g class="root"><g class="clusters"></g><g class="edgePaths"><path d="M130.758,42.5L130.674,46.583C130.591,50.667,130.424,58.833,130.341,66.417C130.258,74,130.258,81,130.258,84.5L130.258,88" id="g88512523-831e-4027-9254-82c5e6ec198a-flip-L_Attacker_Edge_0" class="edge-thickness-normal edge-pattern-solid edge-thickness-normal edge-pattern-solid flowchart-link" style=";" data-edge="true" data-et="edge" data-id="L_Attacker_Edge_0" data-points="W3sieCI6MTMwLjc1NzgxMjUsInkiOjQyLjV9LHsieCI6MTMwLjI1NzgxMjUsInkiOjY3fSx7IngiOjEzMC4yNTc4MTI1LCJ5Ijo5Mn1d" data-look="classic" marker-end="url(#g88512523-831e-4027-9254-82c5e6ec198a-flip_flowchart-v2-pointEnd)"></path><path d="M130.258,158.6L130.258,162.767C130.258,166.933,130.258,175.267,130.258,182.933C130.258,190.6,130.258,197.6,130.258,201.1L130.258,204.6" id="g88512523-831e-4027-9254-82c5e6ec198a-flip-L_Edge_Browser_0" class="edge-thickness-normal edge-pattern-solid edge-thickness-normal edge-pattern-solid flowchart-link" style=";" data-edge="true" data-et="edge" data-id="L_Edge_Browser_0" data-points="W3sieCI6MTMwLjI1NzgxMjUsInkiOjE1OC41OTk5OTg0NzQxMjExfSx7IngiOjEzMC4yNTc4MTI1LCJ5IjoxODMuNTk5OTk4NDc0MTIxMX0seyJ4IjoxMzAuMjU3ODEyNSwieSI6MjA4LjU5OTk5ODQ3NDEyMTF9XQ==" data-look="classic" marker-end="url(#g88512523-831e-4027-9254-82c5e6ec198a-flip_flowchart-v2-pointEnd)"></path><path d="M130.258,310.4L130.258,314.567C130.258,318.733,130.258,327.067,130.258,334.733C130.258,342.4,130.258,349.4,130.258,352.9L130.258,356.4" id="g88512523-831e-4027-9254-82c5e6ec198a-flip-L_Browser_App_0" class="edge-thickness-normal edge-pattern-solid edge-thickness-normal edge-pattern-solid flowchart-link" style=";" data-edge="true" data-et="edge" data-id="L_Browser_App_0" data-points="W3sieCI6MTMwLjI1NzgxMjUsInkiOjMxMC40MDAwMDE1MjU4Nzg5fSx7IngiOjEzMC4yNTc4MTI1LCJ5IjozMzUuNDAwMDAxNTI1ODc4OX0seyJ4IjoxMzAuMjU3ODEyNSwieSI6MzYwLjQwMDAwMTUyNTg3ODl9XQ==" data-look="classic" marker-end="url(#g88512523-831e-4027-9254-82c5e6ec198a-flip_flowchart-v2-pointEnd)"></path><path d="M181.296,462.2L185.474,466.367C189.651,470.533,198.007,478.867,202.185,486.533C206.363,494.2,206.363,501.2,206.363,504.7L206.363,508.2" id="g88512523-831e-4027-9254-82c5e6ec198a-flip-L_App_Data_0" class="edge-thickness-normal edge-pattern-solid edge-thickness-normal edge-pattern-solid flowchart-link" style=";" data-edge="true" data-et="edge" data-id="L_App_Data_0" data-points="W3sieCI6MTgxLjI5NTYwNDMwMDA2OTA0LCJ5Ijo0NjIuMjAwMDA0NTc3NjM2N30seyJ4IjoyMDYuMzYzMjgxMjUsInkiOjQ4Ny4yMDAwMDQ1Nzc2MzY3fSx7IngiOjIwNi4zNjMyODEyNSwieSI6NTEyLjIwMDAwNDU3NzYzNjd9XQ==" data-look="classic" marker-end="url(#g88512523-831e-4027-9254-82c5e6ec198a-flip_flowchart-v2-pointEnd)"></path><path d="M79.22,462.2L75.042,466.367C70.864,470.533,62.508,478.867,58.33,492.75C54.152,506.633,54.152,526.067,54.152,545.5C54.152,564.933,54.152,584.367,59.062,597.845C63.972,611.323,73.792,618.845,78.702,622.606L83.612,626.368" id="g88512523-831e-4027-9254-82c5e6ec198a-flip-L_App_Ops_0" class="edge-thickness-normal edge-pattern-dotted edge-thickness-normal edge-pattern-solid flowchart-link" style=";" data-edge="true" data-et="edge" data-id="L_App_Ops_0" data-points="W3sieCI6NzkuMjIwMDIwNjk5OTMwOTcsInkiOjQ2Mi4yMDAwMDQ1Nzc2MzY3fSx7IngiOjU0LjE1MjM0Mzc1LCJ5Ijo0ODcuMjAwMDA0NTc3NjM2N30seyJ4Ijo1NC4xNTIzNDM3NSwieSI6NTQ1LjUwMDAwMzgxNDY5NzN9LHsieCI6NTQuMTUyMzQzNzUsInkiOjYwMy44MDAwMDMwNTE3NTc4fSx7IngiOjg2Ljc4NzYyMjM3MTc2MjMsInkiOjYyOC44MDAwMDMwNTE3NTc4fV0=" data-look="classic" marker-end="url(#g88512523-831e-4027-9254-82c5e6ec198a-flip_flowchart-v2-pointEnd)"></path><path d="M206.363,578.8L206.363,582.967C206.363,587.133,206.363,595.467,201.453,603.395C196.543,611.323,186.723,618.845,181.813,622.606L176.903,626.368" id="g88512523-831e-4027-9254-82c5e6ec198a-flip-L_Data_Ops_0" class="edge-thickness-normal edge-pattern-dotted edge-thickness-normal edge-pattern-solid flowchart-link" style=";" data-edge="true" data-et="edge" data-id="L_Data_Ops_0" data-points="W3sieCI6MjA2LjM2MzI4MTI1LCJ5Ijo1NzguODAwMDAzMDUxNzU3OH0seyJ4IjoyMDYuMzYzMjgxMjUsInkiOjYwMy44MDAwMDMwNTE3NTc4fSx7IngiOjE3My43MjgwMDI2MjgyMzc3LCJ5Ijo2MjguODAwMDAzMDUxNzU3OH1d" data-look="classic" marker-end="url(#g88512523-831e-4027-9254-82c5e6ec198a-flip_flowchart-v2-pointEnd)"></path></g><g class="edgeLabels"><g class="edgeLabel"><g class="label" data-id="L_Attacker_Edge_0" transform="translate(0, 0)"><text y="-10.1" text-anchor="middle"><tspan class="text-outer-tspan row" x="0" y="-0.1em" dy="1.1em" text-anchor="middle"></tspan></text></g></g><g><rect class="background" style="stroke: none"></rect></g><g class="edgeLabel"><g class="label" data-id="L_Edge_Browser_0" transform="translate(0, 0)"><text y="-10.1" text-anchor="middle"><tspan class="text-outer-tspan row" x="0" y="-0.1em" dy="1.1em" text-anchor="middle"></tspan></text></g></g><g><rect class="background" style="stroke: none"></rect></g><g class="edgeLabel"><g class="label" data-id="L_Browser_App_0" transform="translate(0, 0)"><text y="-10.1" text-anchor="middle"><tspan class="text-outer-tspan row" x="0" y="-0.1em" dy="1.1em" text-anchor="middle"></tspan></text></g></g><g><rect class="background" style="stroke: none"></rect></g><g class="edgeLabel"><g class="label" data-id="L_App_Data_0" transform="translate(0, 0)"><text y="-10.1" text-anchor="middle"><tspan class="text-outer-tspan row" x="0" y="-0.1em" dy="1.1em" text-anchor="middle"></tspan></text></g></g><g><rect class="background" style="stroke: none"></rect></g><g class="edgeLabel"><g class="label" data-id="L_App_Ops_0" transform="translate(0, 0)"><text y="-10.1" text-anchor="middle"><tspan class="text-outer-tspan row" x="0" y="-0.1em" dy="1.1em" text-anchor="middle"></tspan></text></g></g><g><rect class="background" style="stroke: none"></rect></g><g class="edgeLabel"><g class="label" data-id="L_Data_Ops_0" transform="translate(0, 0)"><text y="-10.1" text-anchor="middle"><tspan class="text-outer-tspan row" x="0" y="-0.1em" dy="1.1em" text-anchor="middle"></tspan></text></g></g><g><rect class="background" style="stroke: none"></rect></g></g><g class="nodes"><g class="node default" id="g88512523-831e-4027-9254-82c5e6ec198a-flip-flowchart-Attacker-0" data-look="classic" transform="translate(130.2578125, 25)"><g class="basic label-container outer-path"><path d="M-25.484375 -17 C-9.898789167286782 -17, 5.686796665426435 -17, 25.484375 -17 C25.484375 -17, 25.484375 -17, 25.484375 -17 C25.75007599461758 -16.991479486258225, 26.015776989235157 -16.982958972516453, 26.57356873967212 -16.965071676755716 C26.847153785076646 -16.9386792564597, 27.120738830481173 -16.91228683616368, 27.6582867486366 -16.860430234995185 C28.0000614726129 -16.805174748125268, 28.341836196589203 -16.74991926125535, 28.734071687923326 -16.686505668848113 C29.133166475944215 -16.595414887819224, 29.532261263965104 -16.504324106790335, 29.79650292646162 -16.4440126716635 C30.073111487350165 -16.361916702739745, 30.349720048238705 -16.279820733815992, 30.84121470640155 -16.133947699181366 C31.159786580236073 -16.016710304764143, 31.478358454070595 -15.899472910346919, 31.86391408294936 -15.757584874882369 C32.13426252396408 -15.63790963964672, 32.4046109649788 -15.51823440441107, 32.86039856499849 -15.316470754341125 C33.13722730501203 -15.17204937799333, 33.414056045025575 -15.027628001645537, 33.82657338406694 -14.812417970097622 C34.19307479103659 -14.590242663391287, 34.55957619800623 -14.368067356684952, 34.758468320579325 -14.247497783161291 C35.03205209761592 -14.056657583551395, 35.3056358746525 -13.865817383941499, 35.652254018350675 -13.624031571755262 C35.944878872738755 -13.39067103745518, 36.237503727126835 -13.157310503155097, 36.5042577202324 -12.944581292275288 C36.68536872405985 -12.78010107053377, 36.8664797278873 -12.61562084879225, 37.31097836025927 -12.21193895166137 C37.59481032926522 -11.918859140624694, 37.87864229827117 -11.625779329588017, 38.06910095028036 -11.42911513444239 C38.32258859700303 -11.131354120746227, 38.57607624372571 -10.833593107050065, 38.77551020195651 -10.59932663159847 C38.91416867012587 -10.413536916297844, 39.05282713829523 -10.227747200997216, 39.42730332814825 -9.725983222076888 C39.645034629218955 -9.39148947459151, 39.862765930289655 -9.056995727106132, 40.02180197109088 -8.812673661278927 C40.153353174267366 -8.579091179035276, 40.28490437744385 -8.345508696791622, 40.556563208341004 -7.863150934094199 C40.69794718938822 -7.569564072317073, 40.839331170435436 -7.2759772105399465, 41.02938959126881 -6.881316833080699 C41.14402088434262 -6.5981753229431055, 41.25865217741643 -6.315033812805512, 41.438338174845924 -5.871205925162238 C41.56950489779873 -5.476152654207613, 41.700671620751535 -5.081099383252988, 41.781728501623235 -4.836968972727556 C41.86833247102912 -4.50671050298515, 41.954936440435 -4.176452033242745, 42.058149507091 -3.7828558772573464 C42.12065596476803 -3.461898427830314, 42.18316242244506 -3.140940978403282, 42.26646531804565 -2.713198215567453 C42.30949529845412 -2.379466184750105, 42.352525278862586 -2.0457341539327563, 42.405819920136366 -1.632391440430593 C42.42160072212771 -1.3865927113814431, 42.43738152411904 -1.1407939823322932, 42.4756406754117 -0.5448768187181379 C42.4756406754117 -0.16067085780354978, 42.4756406754117 0.2235351031110383, 42.4756406754117 0.5448768187181336 C42.45031927186579 0.939278118014649, 42.424997868319885 1.3336794173111644, 42.405819920136366 1.6323914404305815 C42.352183826253054 2.0483823929448466, 42.29854773236974 2.4643733454591117, 42.266465318045654 2.7131982155674415 C42.21454902979558 2.979777383220183, 42.1626327415455 3.246356550872924, 42.058149507091 3.782855877257343 C41.95314820580599 4.183271346908956, 41.84814690452097 4.583686816560569, 41.781728501623235 4.836968972727545 C41.68598155817146 5.12534351120053, 41.5902346147197 5.413718049673515, 41.438338174845924 5.871205925162227 C41.29710709372567 6.2200494260464465, 41.155876012605425 6.568892926930667, 41.02938959126881 6.881316833080694 C40.93453871514991 7.078276706825223, 40.83968783903101 7.275236580569752, 40.556563208341004 7.863150934094196 C40.396052265776234 8.148154366113344, 40.23554132321147 8.433157798132493, 40.02180197109089 8.812673661278923 C39.8631694283694 9.056375845701234, 39.704536885647926 9.300078030123544, 39.427303328148255 9.725983222076879 C39.169739610342184 10.071095139399612, 38.91217589253611 10.416207056722344, 38.77551020195651 10.599326631598467 C38.54421906214558 10.87101436525907, 38.31292792233465 11.142702098919672, 38.06910095028037 11.42911513444238 C37.848077465333425 11.657340029015694, 37.62705398038647 11.885564923589008, 37.31097836025927 12.211938951661365 C37.02019211912518 12.476023322077014, 36.72940587799109 12.740107692492662, 36.50425772023242 12.944581292275275 C36.19475854459872 13.191398648724189, 35.88525936896502 13.438216005173102, 35.652254018350675 13.62403157175526 C35.29523299739478 13.873073980783193, 34.93821197643888 14.122116389811126, 34.75846832057934 14.247497783161286 C34.55972411234119 14.367977690145857, 34.360979904103054 14.488457597130427, 33.82657338406695 14.81241797009762 C33.53073660537708 14.966755828047623, 33.23489982668721 15.121093685997625, 32.86039856499849 15.316470754341124 C32.588822323391696 15.436689500477474, 32.31724608178491 15.556908246613824, 31.863914082949368 15.757584874882367 C31.596274010285008 15.856078895660563, 31.328633937620644 15.954572916438758, 30.841214706401562 16.133947699181363 C30.473358406965268 16.24312551793694, 30.10550210752897 16.35230333669251, 29.796502926461642 16.444012671663497 C29.575149207592744 16.494535213527314, 29.353795488723843 16.54505775539113, 28.734071687923333 16.68650566884811 C28.40708510674729 16.739370323473842, 28.080098525571245 16.792234978099575, 27.658286748636613 16.86043023499518 C27.3427731269219 16.890867454621354, 27.027259505207194 16.921304674247523, 26.57356873967212 16.965071676755716 C26.32412880359577 16.973070730000302, 26.07468886751942 16.98106978324489, 25.484375000000004 17 C25.484375000000004 17, 25.484375000000004 17, 25.484375 17 C14.799095944026707 17, 4.113816888053414 17, -25.484374999999996 17 C-25.81261796914741 16.98947388686562, -26.14086093829482 16.978947773731246, -26.573568739672112 16.965071676755716 C-26.903846657152663 16.933210163273678, -27.234124574633213 16.90134864979164, -27.658286748636606 16.86043023499518 C-28.07499570890614 16.793059961925056, -28.491704669175675 16.725689688854928, -28.73407168792333 16.68650566884811 C-29.1126797787307 16.600090842770015, -29.491287869538073 16.513676016691917, -29.79650292646162 16.4440126716635 C-30.183445648836518 16.32917010276643, -30.57038837121142 16.214327533869355, -30.841214706401544 16.13394769918137 C-31.23695178006603 15.98831279791943, -31.632688853730514 15.842677896657493, -31.86391408294936 15.757584874882369 C-32.22375035961388 15.598296029366882, -32.5835866362784 15.439007183851393, -32.86039856499848 15.316470754341127 C-33.13255133802397 15.174488826975901, -33.40470411104946 15.032506899610674, -33.82657338406693 14.812417970097624 C-34.05602791616396 14.673321284315902, -34.28548244826099 14.534224598534179, -34.75846832057932 14.247497783161299 C-35.09664741208237 14.011598688465693, -35.43482650358542 13.775699593770087, -35.65225401835067 13.624031571755264 C-35.917258905194814 13.412697226573265, -36.18226379203897 13.201362881391267, -36.5042577202324 12.94458129227529 C-36.75108433714337 12.720419889471163, -36.99791095405433 12.496258486667038, -37.31097836025926 12.211938951661377 C-37.564336362875366 11.950326012881392, -37.81769436549146 11.688713074101406, -38.069100950280365 11.429115134442386 C-38.31142391548128 11.144468790950064, -38.55374688068218 10.859822447457741, -38.77551020195651 10.599326631598473 C-38.976596523025385 10.32988928070689, -39.177682844094264 10.060451929815306, -39.42730332814825 9.72598322207689 C-39.65892865510404 9.370144519763672, -39.89055398205983 9.014305817450456, -40.02180197109088 8.812673661278936 C-40.22793417154555 8.446665066222968, -40.434066372000224 8.080656471166998, -40.556563208341004 7.863150934094201 C-40.704311535312634 7.556348371829846, -40.852059862284264 7.2495458095654906, -41.02938959126881 6.881316833080701 C-41.1921649610896 6.479258522575663, -41.354940330910395 6.077200212070625, -41.438338174845924 5.87120592516224 C-41.56597947816593 5.486770656442272, -41.69362078148593 5.102335387722304, -41.781728501623235 4.8369689727275516 C-41.88217703961105 4.453915162708253, -41.98262557759887 4.070861352688955, -42.058149507091 3.782855877257349 C-42.13868059763434 3.3693457475692994, -42.21921168817768 2.9558356178812497, -42.26646531804565 2.713198215567455 C-42.303361877107044 2.42703578953697, -42.34025843616844 2.140873363506485, -42.405819920136366 1.6323914404306026 C-42.423514239202156 1.3567881383836529, -42.441208558267945 1.0811848363367031, -42.4756406754117 0.54487681871814 C-42.4756406754117 0.14611298078278723, -42.4756406754117 -0.2526508571525655, -42.4756406754117 -0.5448768187181317 C-42.450977221125946 -0.9290300272006202, -42.426313766840195 -1.3131832356831086, -42.405819920136366 -1.6323914404305793 C-42.37365491612059 -1.8818568598784684, -42.34148991210482 -2.1313222793263575, -42.266465318045654 -2.713198215567447 C-42.20566108350201 -3.025415108969541, -42.14485684895836 -3.3376320023716355, -42.058149507091 -3.782855877257341 C-41.99808764357192 -4.011897793831917, -41.93802578005284 -4.240939710406493, -41.781728501623235 -4.836968972727544 C-41.662273019570634 -5.196749852023592, -41.54281753751803 -5.55653073131964, -41.43833817484593 -5.871205925162218 C-41.33272727929753 -6.132066879014532, -41.22711638374913 -6.392927832866847, -41.02938959126881 -6.881316833080692 C-40.855014281951746 -7.243410893911499, -40.68063897263468 -7.6055049547423055, -40.556563208341004 -7.863150934094194 C-40.416755661180254 -8.111393391127386, -40.27694811401951 -8.359635848160579, -40.02180197109088 -8.812673661278929 C-39.811728280098556 -9.135403263327694, -39.601654589106225 -9.45813286537646, -39.42730332814825 -9.725983222076884 C-39.22113231922255 -10.00223359147202, -39.01496131029684 -10.278483960867154, -38.77551020195651 -10.599326631598467 C-38.509698698716875 -10.911563948406751, -38.24388719547724 -11.223801265215036, -38.06910095028037 -11.42911513444238 C-37.88762508496909 -11.616503864821912, -37.70614921965781 -11.803892595201441, -37.31097836025928 -12.21193895166136 C-37.14913932692089 -12.358916879713108, -36.9873002935825 -12.505894807764859, -36.50425772023242 -12.944581292275274 C-36.30188723261022 -13.10596637084913, -36.09951674498803 -13.267351449422986, -35.652254018350675 -13.624031571755259 C-35.378222522803384 -13.815184080416799, -35.10419102725609 -14.006336589078341, -34.75846832057934 -14.247497783161284 C-34.43139558054754 -14.445771200261333, -34.104322840515735 -14.644044617361383, -33.82657338406695 -14.812417970097618 C-33.492103384930914 -14.986910754408628, -33.157633385794874 -15.16140353871964, -32.86039856499849 -15.316470754341124 C-32.529135314417296 -15.46311116879823, -32.197872063836094 -15.609751583255335, -31.863914082949368 -15.757584874882365 C-31.496832291630014 -15.89267436735477, -31.129750500310656 -16.027763859827175, -30.841214706401566 -16.133947699181363 C-30.544608361190722 -16.221978905521464, -30.24800201597988 -16.310010111861565, -29.796502926461642 -16.444012671663494 C-29.57996701837192 -16.49343557965612, -29.3634311102822 -16.542858487648743, -28.734071687923336 -16.68650566884811 C-28.35026443801545 -16.748556648543538, -27.96645718810757 -16.81060762823897, -27.658286748636613 -16.86043023499518 C-27.333741389950717 -16.89173873542471, -27.00919603126482 -16.923047235854238, -26.57356873967212 -16.965071676755716 C-26.19674488127719 -16.977155684451297, -25.819921022882262 -16.989239692146878, -25.484375000000004 -17 C-25.484375000000004 -17, -25.484375 -17, -25.484375 -17" stroke="none" stroke-width="0" fill="#ECECFF" style=""></path><path d="M-25.484375 -17 C-8.504608578183873 -17, 8.475157843632253 -17, 25.484375 -17 M-25.484375 -17 C-12.827243762964555 -17, -0.17011252592910964 -17, 25.484375 -17 M25.484375 -17 C25.484375 -17, 25.484375 -17, 25.484375 -17 M25.484375 -17 C25.484375 -17, 25.484375 -17, 25.484375 -17 M25.484375 -17 C25.895973153936023 -16.986800848330475, 26.30757130787205 -16.973601696660953, 26.57356873967212 -16.965071676755716 M25.484375 -17 C25.70956973595945 -16.992778443132742, 25.934764471918907 -16.985556886265485, 26.57356873967212 -16.965071676755716 M26.57356873967212 -16.965071676755716 C26.83467510852519 -16.939883059378815, 27.09578147737826 -16.91469444200191, 27.6582867486366 -16.860430234995185 M26.57356873967212 -16.965071676755716 C26.87959113627023 -16.935550064201678, 27.185613532868338 -16.906028451647636, 27.6582867486366 -16.860430234995185 M27.6582867486366 -16.860430234995185 C28.032444676121766 -16.799939282917446, 28.406602603606935 -16.73944833083971, 28.734071687923326 -16.686505668848113 M27.6582867486366 -16.860430234995185 C27.89091823748073 -16.822820179963006, 28.12354972632486 -16.785210124930828, 28.734071687923326 -16.686505668848113 M28.734071687923326 -16.686505668848113 C29.009415433525515 -16.623660255700273, 29.284759179127708 -16.56081484255243, 29.79650292646162 -16.4440126716635 M28.734071687923326 -16.686505668848113 C29.07146285841222 -16.60949833586717, 29.408854028901118 -16.53249100288622, 29.79650292646162 -16.4440126716635 M29.79650292646162 -16.4440126716635 C30.121558961047235 -16.347537746852435, 30.44661499563285 -16.25106282204137, 30.84121470640155 -16.133947699181366 M29.79650292646162 -16.4440126716635 C30.037697720238686 -16.372427322927777, 30.27889251401575 -16.30084197419205, 30.84121470640155 -16.133947699181366 M30.84121470640155 -16.133947699181366 C31.16403800406866 -16.015145741494017, 31.48686130173577 -15.896343783806671, 31.86391408294936 -15.757584874882369 M30.84121470640155 -16.133947699181366 C31.08987508003621 -16.042438383092513, 31.338535453670872 -15.950929067003663, 31.86391408294936 -15.757584874882369 M31.86391408294936 -15.757584874882369 C32.113697728321185 -15.647013064644842, 32.363481373693006 -15.536441254407315, 32.86039856499849 -15.316470754341125 M31.86391408294936 -15.757584874882369 C32.23314484512534 -15.59413736930847, 32.60237560730132 -15.43068986373457, 32.86039856499849 -15.316470754341125 M32.86039856499849 -15.316470754341125 C33.05616072739619 -15.214341759609894, 33.25192288979389 -15.112212764878663, 33.82657338406694 -14.812417970097622 M32.86039856499849 -15.316470754341125 C33.216717601788716 -15.130579341080901, 33.573036638578934 -14.944687927820677, 33.82657338406694 -14.812417970097622 M33.82657338406694 -14.812417970097622 C34.17820059393079 -14.599259489087302, 34.529827803794646 -14.386101008076983, 34.758468320579325 -14.247497783161291 M33.82657338406694 -14.812417970097622 C34.04160444909947 -14.6820648748121, 34.25663551413199 -14.55171177952658, 34.758468320579325 -14.247497783161291 M34.758468320579325 -14.247497783161291 C35.00222441799722 -14.07746408163396, 35.245980515415106 -13.907430380106629, 35.652254018350675 -13.624031571755262 M34.758468320579325 -14.247497783161291 C35.06425427955386 -14.034194735441476, 35.37004023852839 -13.82089168772166, 35.652254018350675 -13.624031571755262 M35.652254018350675 -13.624031571755262 C35.91591937446169 -13.413765466686526, 36.17958473057271 -13.203499361617789, 36.5042577202324 -12.944581292275288 M35.652254018350675 -13.624031571755262 C35.84131592007958 -13.47325973627496, 36.030377821808486 -13.322487900794656, 36.5042577202324 -12.944581292275288 M36.5042577202324 -12.944581292275288 C36.705815283490345 -12.761532046245312, 36.90737284674829 -12.578482800215335, 37.31097836025927 -12.21193895166137 M36.5042577202324 -12.944581292275288 C36.75552662353135 -12.716385522510052, 37.0067955268303 -12.488189752744816, 37.31097836025927 -12.21193895166137 M37.31097836025927 -12.21193895166137 C37.53089395059163 -11.984858049237452, 37.750809540923996 -11.757777146813536, 38.06910095028036 -11.42911513444239 M37.31097836025927 -12.21193895166137 C37.468755233159285 -12.049021376669929, 37.62653210605931 -11.886103801678486, 38.06910095028036 -11.42911513444239 M38.06910095028036 -11.42911513444239 C38.32019846744941 -11.134161702922139, 38.57129598461846 -10.839208271401889, 38.77551020195651 -10.59932663159847 M38.06910095028036 -11.42911513444239 C38.294168089103884 -11.164738466497283, 38.5192352279274 -10.90036179855218, 38.77551020195651 -10.59932663159847 M38.77551020195651 -10.59932663159847 C38.97545977217119 -10.331412423291376, 39.175409342385876 -10.06349821498428, 39.42730332814825 -9.725983222076888 M38.77551020195651 -10.59932663159847 C38.92507023319926 -10.398929814932327, 39.07463026444201 -10.198532998266185, 39.42730332814825 -9.725983222076888 M39.42730332814825 -9.725983222076888 C39.6597294161239 -9.368914335802714, 39.892155504099556 -9.01184544952854, 40.02180197109088 -8.812673661278927 M39.42730332814825 -9.725983222076888 C39.55500640594815 -9.529797001498364, 39.68270948374805 -9.333610780919841, 40.02180197109088 -8.812673661278927 M40.02180197109088 -8.812673661278927 C40.2328028093764 -8.438020306751246, 40.44380364766192 -8.063366952223568, 40.556563208341004 -7.863150934094199 M40.02180197109088 -8.812673661278927 C40.21939214137276 -8.461832305769098, 40.41698231165464 -8.110990950259271, 40.556563208341004 -7.863150934094199 M40.556563208341004 -7.863150934094199 C40.6728169445133 -7.621747563500955, 40.78907068068559 -7.380344192907711, 41.02938959126881 -6.881316833080699 M40.556563208341004 -7.863150934094199 C40.72861165168746 -7.505888660238319, 40.90066009503391 -7.148626386382438, 41.02938959126881 -6.881316833080699 M41.02938959126881 -6.881316833080699 C41.159044448651606 -6.561066828639061, 41.288699306034395 -6.240816824197422, 41.438338174845924 -5.871205925162238 M41.02938959126881 -6.881316833080699 C41.185451584541894 -6.495840692442798, 41.341513577814986 -6.110364551804896, 41.438338174845924 -5.871205925162238 M41.438338174845924 -5.871205925162238 C41.535392342153585 -5.578894236713143, 41.632446509461246 -5.286582548264049, 41.781728501623235 -4.836968972727556 M41.438338174845924 -5.871205925162238 C41.559876822676806 -5.5051508824494, 41.68141547050769 -5.139095839736561, 41.781728501623235 -4.836968972727556 M41.781728501623235 -4.836968972727556 C41.882829194803485 -4.451428212313654, 41.983929887983734 -4.065887451899751, 42.058149507091 -3.7828558772573464 M41.781728501623235 -4.836968972727556 C41.87298939694925 -4.488951626127221, 41.96425029227527 -4.140934279526886, 42.058149507091 -3.7828558772573464 M42.058149507091 -3.7828558772573464 C42.1103498079725 -3.514818364768365, 42.16255010885399 -3.246780852279383, 42.26646531804565 -2.713198215567453 M42.058149507091 -3.7828558772573464 C42.11640477883387 -3.48372736911377, 42.17466005057673 -3.184598860970193, 42.26646531804565 -2.713198215567453 M42.26646531804565 -2.713198215567453 C42.295628693296784 -2.4870128360794466, 42.32479206854792 -2.2608274565914406, 42.405819920136366 -1.632391440430593 M42.26646531804565 -2.713198215567453 C42.31370797045504 -2.3467935325971268, 42.36095062286443 -1.9803888496268005, 42.405819920136366 -1.632391440430593 M42.405819920136366 -1.632391440430593 C42.42462869524142 -1.339429585999424, 42.443437470346474 -1.0464677315682551, 42.4756406754117 -0.5448768187181379 M42.405819920136366 -1.632391440430593 C42.42723658470401 -1.2988096025690292, 42.44865324927166 -0.9652277647074656, 42.4756406754117 -0.5448768187181379 M42.4756406754117 -0.5448768187181379 C42.4756406754117 -0.1388068541677822, 42.4756406754117 0.26726311038257344, 42.4756406754117 0.5448768187181336 M42.4756406754117 -0.5448768187181379 C42.4756406754117 -0.17441115763077925, 42.4756406754117 0.19605450345657938, 42.4756406754117 0.5448768187181336 M42.4756406754117 0.5448768187181336 C42.44925478422359 0.9558583722808551, 42.422868893035485 1.3668399258435766, 42.405819920136366 1.6323914404305815 M42.4756406754117 0.5448768187181336 C42.46052488550783 0.7803174477167836, 42.44540909560397 1.0157580767154335, 42.405819920136366 1.6323914404305815 M42.405819920136366 1.6323914404305815 C42.36519957603596 1.9474348078791315, 42.32457923193555 2.2624781753276815, 42.266465318045654 2.7131982155674415 M42.405819920136366 1.6323914404305815 C42.36686815369922 1.9344936490207802, 42.32791638726208 2.236595857610979, 42.266465318045654 2.7131982155674415 M42.266465318045654 2.7131982155674415 C42.20163710152832 3.046077405935555, 42.13680888501098 3.378956596303668, 42.058149507091 3.782855877257343 M42.266465318045654 2.7131982155674415 C42.202892255348814 3.039632456344143, 42.13931919265198 3.3660666971208446, 42.058149507091 3.782855877257343 M42.058149507091 3.782855877257343 C41.99611570506794 4.019417649991142, 41.934081903044884 4.25597942272494, 41.781728501623235 4.836968972727545 M42.058149507091 3.782855877257343 C41.96718547831952 4.129741143022452, 41.87622144954804 4.476626408787561, 41.781728501623235 4.836968972727545 M41.781728501623235 4.836968972727545 C41.64979619276319 5.234328066455229, 41.51786388390314 5.6316871601829135, 41.438338174845924 5.871205925162227 M41.781728501623235 4.836968972727545 C41.68462518035342 5.129428705079029, 41.5875218590836 5.421888437430513, 41.438338174845924 5.871205925162227 M41.438338174845924 5.871205925162227 C41.31222215221733 6.182714939342282, 41.18610612958873 6.4942239535223365, 41.02938959126881 6.881316833080694 M41.438338174845924 5.871205925162227 C41.32100571452792 6.161019370616496, 41.20367325420992 6.450832816070766, 41.02938959126881 6.881316833080694 M41.02938959126881 6.881316833080694 C40.92609480581113 7.095810665237912, 40.822800020353455 7.31030449739513, 40.556563208341004 7.863150934094196 M41.02938959126881 6.881316833080694 C40.88740515808311 7.176150546570994, 40.745420724897414 7.470984260061293, 40.556563208341004 7.863150934094196 M40.556563208341004 7.863150934094196 C40.37821042547335 8.179834360253357, 40.1998576426057 8.496517786412518, 40.02180197109089 8.812673661278923 M40.556563208341004 7.863150934094196 C40.37232840494165 8.19027848332656, 40.18809360154229 8.517406032558924, 40.02180197109089 8.812673661278923 M40.02180197109089 8.812673661278923 C39.85398323971197 9.070488298316096, 39.68616450833306 9.328302935353271, 39.427303328148255 9.725983222076879 M40.02180197109089 8.812673661278923 C39.837437375957975 9.095907188228757, 39.65307278082506 9.379140715178591, 39.427303328148255 9.725983222076879 M39.427303328148255 9.725983222076879 C39.17284362076518 10.066936048213964, 38.9183839133821 10.40788887435105, 38.77551020195651 10.599326631598467 M39.427303328148255 9.725983222076879 C39.19742163603734 10.034003746852525, 38.96753994392642 10.34202427162817, 38.77551020195651 10.599326631598467 M38.77551020195651 10.599326631598467 C38.51819350062973 10.901585470711996, 38.26087679930294 11.203844309825525, 38.06910095028037 11.42911513444238 M38.77551020195651 10.599326631598467 C38.51777436175794 10.902077815080478, 38.26003852155936 11.20482899856249, 38.06910095028037 11.42911513444238 M38.06910095028037 11.42911513444238 C37.86269980676045 11.642241260975728, 37.656298663240534 11.855367387509078, 37.31097836025927 12.211938951661365 M38.06910095028037 11.42911513444238 C37.90757357504528 11.595905411016755, 37.74604619981018 11.76269568759113, 37.31097836025927 12.211938951661365 M37.31097836025927 12.211938951661365 C37.045480219815424 12.453057338116615, 36.77998207937157 12.694175724571867, 36.50425772023242 12.944581292275275 M37.31097836025927 12.211938951661365 C37.02049229272533 12.475750712355513, 36.730006225191396 12.739562473049663, 36.50425772023242 12.944581292275275 M36.50425772023242 12.944581292275275 C36.287317476170905 13.117585363891987, 36.07037723210939 13.2905894355087, 35.652254018350675 13.62403157175526 M36.50425772023242 12.944581292275275 C36.32521973403278 13.08735932186858, 36.14618174783315 13.230137351461885, 35.652254018350675 13.62403157175526 M35.652254018350675 13.62403157175526 C35.33142948384221 13.847824878758109, 35.01060494933374 14.07161818576096, 34.75846832057934 14.247497783161286 M35.652254018350675 13.62403157175526 C35.31496554286599 13.859309411270601, 34.97767706738131 14.09458725078594, 34.75846832057934 14.247497783161286 M34.75846832057934 14.247497783161286 C34.535215615054085 14.38283488522922, 34.31196290952883 14.518171987297157, 33.82657338406695 14.81241797009762 M34.75846832057934 14.247497783161286 C34.4578044241946 14.429762004046896, 34.15714052780985 14.612026224932505, 33.82657338406695 14.81241797009762 M33.82657338406695 14.81241797009762 C33.58194454607701 14.940040678184719, 33.337315708087075 15.06766338627182, 32.86039856499849 15.316470754341124 M33.82657338406695 14.81241797009762 C33.6118156926969 14.924456920126506, 33.397058001326855 15.036495870155392, 32.86039856499849 15.316470754341124 M32.86039856499849 15.316470754341124 C32.60872642558706 15.427878544869802, 32.357054286175625 15.539286335398481, 31.863914082949368 15.757584874882367 M32.86039856499849 15.316470754341124 C32.55359788310404 15.452282315296923, 32.246797201209596 15.588093876252724, 31.863914082949368 15.757584874882367 M31.863914082949368 15.757584874882367 C31.486942962350525 15.896313731945579, 31.109971841751687 16.035042589008793, 30.841214706401562 16.133947699181363 M31.863914082949368 15.757584874882367 C31.49871695439586 15.891980794035309, 31.13351982584235 16.02637671318825, 30.841214706401562 16.133947699181363 M30.841214706401562 16.133947699181363 C30.49298094698657 16.23730165105943, 30.14474718757158 16.340655602937495, 29.796502926461642 16.444012671663497 M30.841214706401562 16.133947699181363 C30.446825737274636 16.251000275028293, 30.052436768147714 16.36805285087522, 29.796502926461642 16.444012671663497 M29.796502926461642 16.444012671663497 C29.47264109898746 16.517932020388546, 29.148779271513273 16.5918513691136, 28.734071687923333 16.68650566884811 M29.796502926461642 16.444012671663497 C29.54809974869627 16.50070907600622, 29.299696570930895 16.55740548034894, 28.734071687923333 16.68650566884811 M28.734071687923333 16.68650566884811 C28.411528917619773 16.738651882594247, 28.088986147316216 16.790798096340385, 27.658286748636613 16.86043023499518 M28.734071687923333 16.68650566884811 C28.32431552190839 16.75275186806288, 27.914559355893445 16.818998067277647, 27.658286748636613 16.86043023499518 M27.658286748636613 16.86043023499518 C27.38272848046747 16.887013009718153, 27.107170212298332 16.913595784441128, 26.57356873967212 16.965071676755716 M27.658286748636613 16.86043023499518 C27.4075412405776 16.88461935259204, 27.156795732518592 16.908808470188898, 26.57356873967212 16.965071676755716 M26.57356873967212 16.965071676755716 C26.26585208961851 16.97493955078881, 25.9581354395649 16.984807424821906, 25.484375000000004 17 M26.57356873967212 16.965071676755716 C26.28353364514522 16.97437253771813, 25.99349855061832 16.983673398680544, 25.484375000000004 17 M25.484375000000004 17 C25.484375000000004 17, 25.484375 17, 25.484375 17 M25.484375000000004 17 C25.484375000000004 17, 25.484375 17, 25.484375 17 M25.484375 17 C13.722349823739858 17, 1.960324647479716 17, -25.484374999999996 17 M25.484375 17 C5.57871732716977 17, -14.32694034566046 17, -25.484374999999996 17 M-25.484374999999996 17 C-25.887452472941142 16.987074089985484, -26.29052994588229 16.974148179970964, -26.573568739672112 16.965071676755716 M-25.484374999999996 17 C-25.79829491187506 16.98993319943421, -26.112214823750126 16.979866398868413, -26.573568739672112 16.965071676755716 M-26.573568739672112 16.965071676755716 C-26.872910647826686 16.936194522887362, -27.172252555981256 16.907317369019005, -27.658286748636606 16.86043023499518 M-26.573568739672112 16.965071676755716 C-26.9166751085674 16.93197261799417, -27.25978147746269 16.89887355923262, -27.658286748636606 16.86043023499518 M-27.658286748636606 16.86043023499518 C-28.005103892497832 16.80435952878282, -28.35192103635906 16.748288822570455, -28.73407168792333 16.68650566884811 M-27.658286748636606 16.86043023499518 C-27.92606213024069 16.817138387926533, -28.193837511844777 16.773846540857882, -28.73407168792333 16.68650566884811 M-28.73407168792333 16.68650566884811 C-28.971607034920883 16.632289775958917, -29.20914238191844 16.578073883069727, -29.79650292646162 16.4440126716635 M-28.73407168792333 16.68650566884811 C-29.082671248914913 16.60694009387651, -29.431270809906497 16.52737451890491, -29.79650292646162 16.4440126716635 M-29.79650292646162 16.4440126716635 C-30.21355440310562 16.320233982543435, -30.630605879749616 16.19645529342337, -30.841214706401544 16.13394769918137 M-29.79650292646162 16.4440126716635 C-30.169715262263438 16.333245209429048, -30.54292759806526 16.222477747194596, -30.841214706401544 16.13394769918137 M-30.841214706401544 16.13394769918137 C-31.10683869609895 16.03619561557148, -31.372462685796354 15.93844353196159, -31.86391408294936 15.757584874882369 M-30.841214706401544 16.13394769918137 C-31.222084216694466 15.993784198674415, -31.602953726987387 15.853620698167461, -31.86391408294936 15.757584874882369 M-31.86391408294936 15.757584874882369 C-32.25417291128878 15.584828868193336, -32.64443173962819 15.412072861504301, -32.86039856499848 15.316470754341127 M-31.86391408294936 15.757584874882369 C-32.13817166433381 15.63617917916557, -32.41242924571826 15.514773483448769, -32.86039856499848 15.316470754341127 M-32.86039856499848 15.316470754341127 C-33.0669813675872 15.208696638553192, -33.273564170175916 15.10092252276526, -33.82657338406693 14.812417970097624 M-32.86039856499848 15.316470754341127 C-33.08820360369479 15.197625011569357, -33.31600864239108 15.07877926879759, -33.82657338406693 14.812417970097624 M-33.82657338406693 14.812417970097624 C-34.17198884345582 14.603025088729526, -34.51740430284472 14.393632207361428, -34.75846832057932 14.247497783161299 M-33.82657338406693 14.812417970097624 C-34.08006052695038 14.658752574425876, -34.333547669833834 14.50508717875413, -34.75846832057932 14.247497783161299 M-34.75846832057932 14.247497783161299 C-35.08521403470326 14.019574117582428, -35.41195974882721 13.791650452003557, -35.65225401835067 13.624031571755264 M-34.75846832057932 14.247497783161299 C-35.11478180177683 13.998948923239913, -35.471095282974346 13.750400063318528, -35.65225401835067 13.624031571755264 M-35.65225401835067 13.624031571755264 C-35.86950685269198 13.450778217708795, -36.086759687033286 13.277524863662325, -36.5042577202324 12.94458129227529 M-35.65225401835067 13.624031571755264 C-35.891929607377044 13.432896667542018, -36.13160519640341 13.24176176332877, -36.5042577202324 12.94458129227529 M-36.5042577202324 12.94458129227529 C-36.77252427038074 12.70094870937453, -37.04079082052908 12.457316126473769, -37.31097836025926 12.211938951661377 M-36.5042577202324 12.94458129227529 C-36.82022148399395 12.657631361970132, -37.13618524775549 12.370681431664975, -37.31097836025926 12.211938951661377 M-37.31097836025926 12.211938951661377 C-37.52601625201949 11.989894673479691, -37.74105414377972 11.767850395298003, -38.069100950280365 11.429115134442386 M-37.31097836025926 12.211938951661377 C-37.608944298591496 11.904264656874854, -37.90691023692372 11.59659036208833, -38.069100950280365 11.429115134442386 M-38.069100950280365 11.429115134442386 C-38.29548601491142 11.16319035585165, -38.52187107954247 10.897265577260917, -38.77551020195651 10.599326631598473 M-38.069100950280365 11.429115134442386 C-38.31588464660022 11.139228962354968, -38.56266834292006 10.84934279026755, -38.77551020195651 10.599326631598473 M-38.77551020195651 10.599326631598473 C-38.9756222022431 10.3311947817927, -39.175734202529696 10.063062931986927, -39.42730332814825 9.72598322207689 M-38.77551020195651 10.599326631598473 C-38.97689874700298 10.329484328110086, -39.178287292049454 10.059642024621699, -39.42730332814825 9.72598322207689 M-39.42730332814825 9.72598322207689 C-39.64206773198074 9.396047425472869, -39.85683213581323 9.066111628868846, -40.02180197109088 8.812673661278936 M-39.42730332814825 9.72598322207689 C-39.55160329897034 9.535025087678457, -39.675903269792435 9.344066953280027, -40.02180197109088 8.812673661278936 M-40.02180197109088 8.812673661278936 C-40.16674816835518 8.555307010642144, -40.31169436561947 8.29794036000535, -40.556563208341004 7.863150934094201 M-40.02180197109088 8.812673661278936 C-40.22293422501379 8.4555429775896, -40.424066478936695 8.098412293900262, -40.556563208341004 7.863150934094201 M-40.556563208341004 7.863150934094201 C-40.70870652414459 7.547222083482595, -40.86084983994817 7.231293232870988, -41.02938959126881 6.881316833080701 M-40.556563208341004 7.863150934094201 C-40.72635064019668 7.510583698976831, -40.896138072052345 7.158016463859461, -41.02938959126881 6.881316833080701 M-41.02938959126881 6.881316833080701 C-41.15182061114138 6.578909846952716, -41.27425163101395 6.276502860824731, -41.438338174845924 5.87120592516224 M-41.02938959126881 6.881316833080701 C-41.123684375580396 6.648406892765457, -41.217979159891975 6.415496952450213, -41.438338174845924 5.87120592516224 M-41.438338174845924 5.87120592516224 C-41.51498272063867 5.640364764884487, -41.591627266431416 5.4095236046067345, -41.781728501623235 4.8369689727275516 M-41.438338174845924 5.87120592516224 C-41.51731893365896 5.633328463492356, -41.59629969247201 5.395451001822472, -41.781728501623235 4.8369689727275516 M-41.781728501623235 4.8369689727275516 C-41.88272547950038 4.4518237237148846, -41.98372245737753 4.066678474702218, -42.058149507091 3.782855877257349 M-41.781728501623235 4.8369689727275516 C-41.84248013251028 4.605296674231858, -41.90323176339733 4.3736243757361635, -42.058149507091 3.782855877257349 M-42.058149507091 3.782855877257349 C-42.127405305660616 3.42724198882058, -42.19666110423023 3.0716281003838106, -42.26646531804565 2.713198215567455 M-42.058149507091 3.782855877257349 C-42.13133733457468 3.407051851381467, -42.20452516205836 3.0312478255055857, -42.26646531804565 2.713198215567455 M-42.26646531804565 2.713198215567455 C-42.30960211565963 2.3786377315975624, -42.35273891327362 2.04407724762767, -42.405819920136366 1.6323914404306026 M-42.26646531804565 2.713198215567455 C-42.29671059230558 2.4786218410123473, -42.32695586656552 2.2440454664572393, -42.405819920136366 1.6323914404306026 M-42.405819920136366 1.6323914404306026 C-42.4198417419593 1.4139902473275254, -42.43386356378224 1.1955890542244485, -42.4756406754117 0.54487681871814 M-42.405819920136366 1.6323914404306026 C-42.428947845419174 1.2721553356256154, -42.45207577070198 0.9119192308206281, -42.4756406754117 0.54487681871814 M-42.4756406754117 0.54487681871814 C-42.4756406754117 0.2677659542960529, -42.4756406754117 -0.009344910126034223, -42.4756406754117 -0.5448768187181317 M-42.4756406754117 0.54487681871814 C-42.4756406754117 0.3207280934205623, -42.4756406754117 0.09657936812298462, -42.4756406754117 -0.5448768187181317 M-42.4756406754117 -0.5448768187181317 C-42.45808735831441 -0.8182839012909331, -42.44053404121712 -1.0916909838637348, -42.405819920136366 -1.6323914404305793 M-42.4756406754117 -0.5448768187181317 C-42.45645681450005 -0.8436809373507753, -42.43727295358841 -1.142485055983419, -42.405819920136366 -1.6323914404305793 M-42.405819920136366 -1.6323914404305793 C-42.35321755079022 -2.0403650295665576, -42.30061518144408 -2.448338618702536, -42.266465318045654 -2.713198215567447 M-42.405819920136366 -1.6323914404305793 C-42.377384960486324 -1.8529273723584478, -42.348950000836275 -2.0734633042863164, -42.266465318045654 -2.713198215567447 M-42.266465318045654 -2.713198215567447 C-42.188057705211456 -3.1158047360162153, -42.10965009237726 -3.518411256464984, -42.058149507091 -3.782855877257341 M-42.266465318045654 -2.713198215567447 C-42.18600042841449 -3.1263684175630333, -42.10553553878332 -3.53953861955862, -42.058149507091 -3.782855877257341 M-42.058149507091 -3.782855877257341 C-41.99310438151497 -4.030901131814503, -41.92805925593894 -4.278946386371665, -41.781728501623235 -4.836968972727544 M-42.058149507091 -3.782855877257341 C-41.975820962878146 -4.096810297757734, -41.89349241866529 -4.410764718258125, -41.781728501623235 -4.836968972727544 M-41.781728501623235 -4.836968972727544 C-41.705853088682595 -5.065493627399438, -41.62997767574195 -5.294018282071334, -41.43833817484593 -5.871205925162218 M-41.781728501623235 -4.836968972727544 C-41.669158035935766 -5.176013279710211, -41.55658757024829 -5.515057586692878, -41.43833817484593 -5.871205925162218 M-41.43833817484593 -5.871205925162218 C-41.347610767274745 -6.095304375958136, -41.256883359703565 -6.319402826754055, -41.02938959126881 -6.881316833080692 M-41.43833817484593 -5.871205925162218 C-41.33372282211087 -6.129607869018061, -41.22910746937581 -6.388009812873905, -41.02938959126881 -6.881316833080692 M-41.02938959126881 -6.881316833080692 C-40.87511940631979 -7.201662172980502, -40.72084922137078 -7.522007512880312, -40.556563208341004 -7.863150934094194 M-41.02938959126881 -6.881316833080692 C-40.84711472980569 -7.25981448296613, -40.66483986834256 -7.638312132851568, -40.556563208341004 -7.863150934094194 M-40.556563208341004 -7.863150934094194 C-40.3577612083177 -8.216144016020996, -40.15895920829439 -8.569137097947797, -40.02180197109088 -8.812673661278929 M-40.556563208341004 -7.863150934094194 C-40.35496793143195 -8.22110376198159, -40.153372654522904 -8.579056589868985, -40.02180197109088 -8.812673661278929 M-40.02180197109088 -8.812673661278929 C-39.809396004280515 -9.13898626528795, -39.59699003747015 -9.465298869296973, -39.42730332814825 -9.725983222076884 M-40.02180197109088 -8.812673661278929 C-39.858863868422645 -9.062990341984184, -39.69592576575441 -9.313307022689441, -39.42730332814825 -9.725983222076884 M-39.42730332814825 -9.725983222076884 C-39.288790132488316 -9.911578285449478, -39.15027693682838 -10.097173348822071, -38.77551020195651 -10.599326631598467 M-39.42730332814825 -9.725983222076884 C-39.167693027443136 -10.073837374036794, -38.90808272673802 -10.421691525996705, -38.77551020195651 -10.599326631598467 M-38.77551020195651 -10.599326631598467 C-38.6127427036896 -10.790522596795808, -38.44997520542268 -10.981718561993148, -38.06910095028037 -11.42911513444238 M-38.77551020195651 -10.599326631598467 C-38.57809992406235 -10.83121597697597, -38.3806896461682 -11.063105322353474, -38.06910095028037 -11.42911513444238 M-38.06910095028037 -11.42911513444238 C-37.88070484187679 -11.623649583977237, -37.692308733473205 -11.818184033512093, -37.31097836025928 -12.21193895166136 M-38.06910095028037 -11.42911513444238 C-37.84130952750799 -11.664328480478485, -37.613518104735604 -11.899541826514591, -37.31097836025928 -12.21193895166136 M-37.31097836025928 -12.21193895166136 C-37.04884720704176 -12.449999529403259, -36.786716053824236 -12.688060107145157, -36.50425772023242 -12.944581292275274 M-37.31097836025928 -12.21193895166136 C-37.119066952050396 -12.386227814899057, -36.92715554384151 -12.560516678136754, -36.50425772023242 -12.944581292275274 M-36.50425772023242 -12.944581292275274 C-36.26802050325375 -13.132974186279398, -36.031783286275086 -13.321367080283524, -35.652254018350675 -13.624031571755259 M-36.50425772023242 -12.944581292275274 C-36.333767819688454 -13.080542451032292, -36.16327791914449 -13.21650360978931, -35.652254018350675 -13.624031571755259 M-35.652254018350675 -13.624031571755259 C-35.35743346938628 -13.829685624136953, -35.062612920421884 -14.035339676518648, -34.75846832057934 -14.247497783161284 M-35.652254018350675 -13.624031571755259 C-35.387735441113655 -13.808548280411152, -35.123216863876635 -13.993064989067044, -34.75846832057934 -14.247497783161284 M-34.75846832057934 -14.247497783161284 C-34.39513341122191 -14.467753540406688, -34.03179850186448 -14.688009297652092, -33.82657338406695 -14.812417970097618 M-34.75846832057934 -14.247497783161284 C-34.50541613171431 -14.400899507150994, -34.25236394284928 -14.554301231140702, -33.82657338406695 -14.812417970097618 M-33.82657338406695 -14.812417970097618 C-33.59404670655251 -14.933726988816455, -33.361520029038076 -15.055036007535291, -32.86039856499849 -15.316470754341124 M-33.82657338406695 -14.812417970097618 C-33.454888989066724 -15.006325480894017, -33.0832045940665 -15.200232991690417, -32.86039856499849 -15.316470754341124 M-32.86039856499849 -15.316470754341124 C-32.61776440650918 -15.423877698817758, -32.375130248019865 -15.531284643294391, -31.863914082949368 -15.757584874882365 M-32.86039856499849 -15.316470754341124 C-32.59976686460713 -15.431844676739681, -32.339135164215776 -15.547218599138237, -31.863914082949368 -15.757584874882365 M-31.863914082949368 -15.757584874882365 C-31.62721957729461 -15.844690640943341, -31.390525071639853 -15.931796407004319, -30.841214706401566 -16.133947699181363 M-31.863914082949368 -15.757584874882365 C-31.465541891411036 -15.904189523880643, -31.067169699872707 -16.05079417287892, -30.841214706401566 -16.133947699181363 M-30.841214706401566 -16.133947699181363 C-30.492080511642065 -16.237568895543195, -30.14294631688256 -16.34119009190503, -29.796502926461642 -16.444012671663494 M-30.841214706401566 -16.133947699181363 C-30.50735149317213 -16.23303654838409, -30.1734882799427 -16.332125397586818, -29.796502926461642 -16.444012671663494 M-29.796502926461642 -16.444012671663494 C-29.42027443125523 -16.529884370573985, -29.04404593604882 -16.615756069484473, -28.734071687923336 -16.68650566884811 M-29.796502926461642 -16.444012671663494 C-29.47792442459109 -16.51672613579644, -29.159345922720544 -16.58943959992938, -28.734071687923336 -16.68650566884811 M-28.734071687923336 -16.68650566884811 C-28.385586291712638 -16.742846085162846, -28.03710089550194 -16.799186501477582, -27.658286748636613 -16.86043023499518 M-28.734071687923336 -16.68650566884811 C-28.484207617597125 -16.726901754013646, -28.234343547270914 -16.767297839179182, -27.658286748636613 -16.86043023499518 M-27.658286748636613 -16.86043023499518 C-27.286277197338645 -16.896317549001953, -26.914267646040678 -16.932204863008725, -26.57356873967212 -16.965071676755716 M-27.658286748636613 -16.86043023499518 C-27.438177741471087 -16.88166388619663, -27.218068734305565 -16.902897537398076, -26.57356873967212 -16.965071676755716 M-26.57356873967212 -16.965071676755716 C-26.219884867906796 -16.97641363011934, -25.866200996141473 -16.987755583482958, -25.484375000000004 -17 M-26.57356873967212 -16.965071676755716 C-26.189663861254598 -16.97738275898105, -25.805758982837077 -16.98969384120639, -25.484375000000004 -17 M-25.484375000000004 -17 C-25.484375000000004 -17, -25.484375 -17, -25.484375 -17 M-25.484375000000004 -17 C-25.484375000000004 -17, -25.484375000000004 -17, -25.484375 -17" stroke="#9370DB" stroke-width="1.3" fill="none" stroke-dasharray="0 0" style=""></path></g><g class="label" style="" transform="translate(0, -9.5)"><rect></rect><g><rect class="background" style="stroke: none"></rect><text y="-10.1" style=""><tspan class="text-outer-tspan row" x="0" y="-0.1em" dy="1.1em"><tspan font-style="normal" class="text-inner-tspan" font-weight="normal">Attacker</tspan></tspan></text></g></g></g><g class="node default" id="g88512523-831e-4027-9254-82c5e6ec198a-flip-flowchart-Edge-1" data-look="classic" transform="translate(130.2578125, 125.29999923706055)"><rect class="basic label-container" style="" x="-106.7890625" y="-33.29999923706055" width="213.578125" height="66.5999984741211"></rect><g class="label" style="" transform="translate(0, -18.299999237060547)"><rect></rect><g><rect class="background" style="stroke: none"></rect><text y="-10.1" style=""><tspan class="text-outer-tspan row" x="0" y="-0.1em" dy="1.1em"><tspan font-style="normal" class="text-inner-tspan" font-weight="normal">Edge</tspan></tspan><tspan class="text-outer-tspan row" x="0" y="1em" dy="1.1em"><tspan font-style="normal" class="text-inner-tspan" font-weight="normal">WAF</tspan><tspan font-style="normal" class="text-inner-tspan" font-weight="normal"> +</tspan><tspan font-style="normal" class="text-inner-tspan" font-weight="normal"> TLS</tspan><tspan font-style="normal" class="text-inner-tspan" font-weight="normal"> 1.3</tspan><tspan font-style="normal" class="text-inner-tspan" font-weight="normal"> +</tspan><tspan font-style="normal" class="text-inner-tspan" font-weight="normal"> HSTS</tspan></tspan></text></g></g></g><g class="node default" id="g88512523-831e-4027-9254-82c5e6ec198a-flip-flowchart-Browser-3" data-look="classic" transform="translate(130.2578125, 259.5)"><rect class="basic label-container" style="" x="-122.2578125" y="-50.900001525878906" width="244.515625" height="101.80000305175781"></rect><g class="label" style="" transform="translate(0, -35.900001525878906)"><rect></rect><g><rect class="background" style="stroke: none"></rect><text y="-10.1" style=""><tspan class="text-outer-tspan row" x="0" y="-0.1em" dy="1.1em"><tspan font-style="normal" class="text-inner-tspan" font-weight="normal">Browser</tspan><tspan font-style="normal" class="text-inner-tspan" font-weight="normal"> policy</tspan></tspan><tspan class="text-outer-tspan row" x="0" y="1em" dy="1.1em"><tspan font-style="normal" class="text-inner-tspan" font-weight="normal">Strict</tspan><tspan font-style="normal" class="text-inner-tspan" font-weight="normal"> CSP</tspan><tspan font-style="normal" class="text-inner-tspan" font-weight="normal"> +</tspan><tspan font-style="normal" class="text-inner-tspan" font-weight="normal"> Trusted</tspan><tspan font-style="normal" class="text-inner-tspan" font-weight="normal"> Types</tspan></tspan><tspan class="text-outer-tspan row" x="0" y="2.1em" dy="1.1em"><tspan font-style="normal" class="text-inner-tspan" font-weight="normal">COOP/COEP,</tspan></tspan><tspan class="text-outer-tspan row" x="0" y="3.2em" dy="1.1em"><tspan font-style="normal" class="text-inner-tspan" font-weight="normal">Permissions-Policy</tspan></tspan></text></g></g></g><g class="node default" id="g88512523-831e-4027-9254-82c5e6ec198a-flip-flowchart-App-5" data-look="classic" transform="translate(130.2578125, 411.3000030517578)"><rect class="basic label-container" style="" x="-106.828125" y="-50.900001525878906" width="213.65625" height="101.80000305175781"></rect><g class="label" style="" transform="translate(0, -35.900001525878906)"><rect></rect><g><rect class="background" style="stroke: none"></rect><text y="-10.1" style=""><tspan class="text-outer-tspan row" x="0" y="-0.1em" dy="1.1em"><tspan font-style="normal" class="text-inner-tspan" font-weight="normal">Application</tspan></tspan><tspan class="text-outer-tspan row" x="0" y="1em" dy="1.1em"><tspan font-style="normal" class="text-inner-tspan" font-weight="normal">Passkeys</tspan><tspan font-style="normal" class="text-inner-tspan" font-weight="normal"> +</tspan><tspan font-style="normal" class="text-inner-tspan" font-weight="normal"> AuthZ</tspan></tspan><tspan class="text-outer-tspan row" x="0" y="2.1em" dy="1.1em"><tspan font-style="normal" class="text-inner-tspan" font-weight="normal">middleware</tspan></tspan><tspan class="text-outer-tspan row" x="0" y="3.2em" dy="1.1em"><tspan font-style="normal" class="text-inner-tspan" font-weight="normal">Validation</tspan><tspan font-style="normal" class="text-inner-tspan" font-weight="normal"> +</tspan><tspan font-style="normal" class="text-inner-tspan" font-weight="normal"> encoding</tspan></tspan></text></g></g></g><g class="node default" id="g88512523-831e-4027-9254-82c5e6ec198a-flip-flowchart-Data-7" data-look="classic" transform="translate(206.36328125, 545.5000038146973)"><rect class="basic label-container" style="" x="-117.2109375" y="-33.29999923706055" width="234.421875" height="66.5999984741211"></rect><g class="label" style="" transform="translate(0, -18.299999237060547)"><rect></rect><g><rect class="background" style="stroke: none"></rect><text y="-10.1" style=""><tspan class="text-outer-tspan row" x="0" y="-0.1em" dy="1.1em"><tspan font-style="normal" class="text-inner-tspan" font-weight="normal">Data</tspan></tspan><tspan class="text-outer-tspan row" x="0" y="1em" dy="1.1em"><tspan font-style="normal" class="text-inner-tspan" font-weight="normal">Argon2id</tspan><tspan font-style="normal" class="text-inner-tspan" font-weight="normal"> +</tspan><tspan font-style="normal" class="text-inner-tspan" font-weight="normal"> AES-256-GCM</tspan></tspan></text></g></g></g><g class="node default" id="g88512523-831e-4027-9254-82c5e6ec198a-flip-flowchart-Ops-9" data-look="classic" transform="translate(130.2578125, 662.1000022888184)"><rect class="basic label-container" style="" x="-92.703125" y="-33.29999923706055" width="185.40625" height="66.5999984741211"></rect><g class="label" style="" transform="translate(0, -18.299999237060547)"><rect></rect><g><rect class="background" style="stroke: none"></rect><text y="-10.1" style=""><tspan class="text-outer-tspan row" x="0" y="-0.1em" dy="1.1em"><tspan font-style="normal" class="text-inner-tspan" font-weight="normal">Detect</tspan><tspan font-style="normal" class="text-inner-tspan" font-weight="normal"> &amp;</tspan><tspan font-style="normal" class="text-inner-tspan" font-weight="normal"> respond</tspan></tspan><tspan class="text-outer-tspan row" x="0" y="1em" dy="1.1em"><tspan font-style="normal" class="text-inner-tspan" font-weight="normal">Audit</tspan><tspan font-style="normal" class="text-inner-tspan" font-weight="normal"> log</tspan><tspan font-style="normal" class="text-inner-tspan" font-weight="normal"> +</tspan><tspan font-style="normal" class="text-inner-tspan" font-weight="normal"> alerts</tspan></tspan></text></g></g></g></g></g></g><defs><filter id="g88512523-831e-4027-9254-82c5e6ec198a-flip-drop-shadow" height="130%" width="130%"><feDropShadow dx="4" dy="4" stdDeviation="0" flood-opacity="0.06" flood-color="#000000"></feDropShadow></filter></defs><defs><filter id="g88512523-831e-4027-9254-82c5e6ec198a-flip-drop-shadow-small" height="150%" width="150%"><feDropShadow dx="2" dy="2" stdDeviation="0" flood-opacity="0.06" flood-color="#000000"></feDropShadow></filter></defs></svg>