<svg id="g7c93f8a1-e327-42dc-bbc2-73bdafcfa9f1-flip" width="100%" xmlns="http://www.w3.org/2000/svg" xmlns:xlink="http://www.w3.org/1999/xlink" class="flowchart" style="max-width: 873.7421875px;" viewBox="0 0 873.7421875 990.3999633789062" role="graphics-document document" aria-roledescription="flowchart-v2"><style>#g7c93f8a1-e327-42dc-bbc2-73bdafcfa9f1-flip{font-family:"trebuchet ms",verdana,arial,sans-serif;font-size:16px;fill:#333;}@keyframes edge-animation-frame{from{stroke-dashoffset:0;}}@keyframes dash{to{stroke-dashoffset:0;}}#g7c93f8a1-e327-42dc-bbc2-73bdafcfa9f1-flip .edge-animation-slow{stroke-dasharray:9,5!important;stroke-dashoffset:900;animation:dash 50s linear infinite;stroke-linecap:round;}#g7c93f8a1-e327-42dc-bbc2-73bdafcfa9f1-flip .edge-animation-fast{stroke-dasharray:9,5!important;stroke-dashoffset:900;animation:dash 20s linear infinite;stroke-linecap:round;}#g7c93f8a1-e327-42dc-bbc2-73bdafcfa9f1-flip .error-icon{fill:#552222;}#g7c93f8a1-e327-42dc-bbc2-73bdafcfa9f1-flip .error-text{fill:#552222;stroke:#552222;}#g7c93f8a1-e327-42dc-bbc2-73bdafcfa9f1-flip .edge-thickness-normal{stroke-width:1px;}#g7c93f8a1-e327-42dc-bbc2-73bdafcfa9f1-flip .edge-thickness-thick{stroke-width:3.5px;}#g7c93f8a1-e327-42dc-bbc2-73bdafcfa9f1-flip .edge-pattern-solid{stroke-dasharray:0;}#g7c93f8a1-e327-42dc-bbc2-73bdafcfa9f1-flip .edge-thickness-invisible{stroke-width:0;fill:none;}#g7c93f8a1-e327-42dc-bbc2-73bdafcfa9f1-flip .edge-pattern-dashed{stroke-dasharray:3;}#g7c93f8a1-e327-42dc-bbc2-73bdafcfa9f1-flip .edge-pattern-dotted{stroke-dasharray:2;}#g7c93f8a1-e327-42dc-bbc2-73bdafcfa9f1-flip .marker{fill:#333333;stroke:#333333;}#g7c93f8a1-e327-42dc-bbc2-73bdafcfa9f1-flip .marker.cross{stroke:#333333;}#g7c93f8a1-e327-42dc-bbc2-73bdafcfa9f1-flip svg{font-family:"trebuchet ms",verdana,arial,sans-serif;font-size:16px;}#g7c93f8a1-e327-42dc-bbc2-73bdafcfa9f1-flip p{margin:0;}#g7c93f8a1-e327-42dc-bbc2-73bdafcfa9f1-flip .label{font-family:"trebuchet ms",verdana,arial,sans-serif;color:#333;}#g7c93f8a1-e327-42dc-bbc2-73bdafcfa9f1-flip .cluster-label text{fill:#333;}#g7c93f8a1-e327-42dc-bbc2-73bdafcfa9f1-flip .cluster-label span{color:#333;}#g7c93f8a1-e327-42dc-bbc2-73bdafcfa9f1-flip .cluster-label span p{background-color:transparent;}#g7c93f8a1-e327-42dc-bbc2-73bdafcfa9f1-flip .label text,#g7c93f8a1-e327-42dc-bbc2-73bdafcfa9f1-flip span{fill:#333;color:#333;}#g7c93f8a1-e327-42dc-bbc2-73bdafcfa9f1-flip .node rect,#g7c93f8a1-e327-42dc-bbc2-73bdafcfa9f1-flip .node circle,#g7c93f8a1-e327-42dc-bbc2-73bdafcfa9f1-flip .node ellipse,#g7c93f8a1-e327-42dc-bbc2-73bdafcfa9f1-flip .node polygon,#g7c93f8a1-e327-42dc-bbc2-73bdafcfa9f1-flip .node path{fill:#ECECFF;stroke:#9370DB;stroke-width:1px;}#g7c93f8a1-e327-42dc-bbc2-73bdafcfa9f1-flip .rough-node .label text,#g7c93f8a1-e327-42dc-bbc2-73bdafcfa9f1-flip .node .label text,#g7c93f8a1-e327-42dc-bbc2-73bdafcfa9f1-flip .image-shape .label,#g7c93f8a1-e327-42dc-bbc2-73bdafcfa9f1-flip .icon-shape .label{text-anchor:middle;}#g7c93f8a1-e327-42dc-bbc2-73bdafcfa9f1-flip .node .katex path{fill:#000;stroke:#000;stroke-width:1px;}#g7c93f8a1-e327-42dc-bbc2-73bdafcfa9f1-flip .rough-node .label,#g7c93f8a1-e327-42dc-bbc2-73bdafcfa9f1-flip .node .label,#g7c93f8a1-e327-42dc-bbc2-73bdafcfa9f1-flip .image-shape .label,#g7c93f8a1-e327-42dc-bbc2-73bdafcfa9f1-flip .icon-shape .label{text-align:center;}#g7c93f8a1-e327-42dc-bbc2-73bdafcfa9f1-flip .node.clickable{cursor:pointer;}#g7c93f8a1-e327-42dc-bbc2-73bdafcfa9f1-flip .root .anchor path{fill:#333333!important;stroke-width:0;stroke:#333333;}#g7c93f8a1-e327-42dc-bbc2-73bdafcfa9f1-flip .arrowheadPath{fill:#333333;}#g7c93f8a1-e327-42dc-bbc2-73bdafcfa9f1-flip .edgePath .path{stroke:#333333;stroke-width:1px;}#g7c93f8a1-e327-42dc-bbc2-73bdafcfa9f1-flip .flowchart-link{stroke:#333333;fill:none;}#g7c93f8a1-e327-42dc-bbc2-73bdafcfa9f1-flip .edgeLabel{background-color:rgba(232,232,232, 0.8);text-align:center;}#g7c93f8a1-e327-42dc-bbc2-73bdafcfa9f1-flip .edgeLabel p{background-color:rgba(232,232,232, 0.8);}#g7c93f8a1-e327-42dc-bbc2-73bdafcfa9f1-flip .edgeLabel rect{opacity:0.5;background-color:rgba(232,232,232, 0.8);fill:rgba(232,232,232, 0.8);}#g7c93f8a1-e327-42dc-bbc2-73bdafcfa9f1-flip .labelBkg{background-color:rgba(232, 232, 232, 0.5);}#g7c93f8a1-e327-42dc-bbc2-73bdafcfa9f1-flip .cluster rect{fill:#ffffde;stroke:#aaaa33;stroke-width:1px;}#g7c93f8a1-e327-42dc-bbc2-73bdafcfa9f1-flip .cluster text{fill:#333;}#g7c93f8a1-e327-42dc-bbc2-73bdafcfa9f1-flip .cluster span{color:#333;}#g7c93f8a1-e327-42dc-bbc2-73bdafcfa9f1-flip div.mermaidTooltip{position:absolute;text-align:center;max-width:200px;padding:2px;font-family:"trebuchet ms",verdana,arial,sans-serif;font-size:12px;background:hsl(80, 100%, 96.2745098039%);border:1px solid #aaaa33;border-radius:2px;pointer-events:none;z-index:100;}#g7c93f8a1-e327-42dc-bbc2-73bdafcfa9f1-flip .flowchartTitleText{text-anchor:middle;font-size:18px;fill:#333;}#g7c93f8a1-e327-42dc-bbc2-73bdafcfa9f1-flip rect.text{fill:none;stroke-width:0;}#g7c93f8a1-e327-42dc-bbc2-73bdafcfa9f1-flip .icon-shape,#g7c93f8a1-e327-42dc-bbc2-73bdafcfa9f1-flip .image-shape{background-color:rgba(232,232,232, 0.8);text-align:center;}#g7c93f8a1-e327-42dc-bbc2-73bdafcfa9f1-flip .icon-shape p,#g7c93f8a1-e327-42dc-bbc2-73bdafcfa9f1-flip .image-shape p{background-color:rgba(232,232,232, 0.8);padding:2px;}#g7c93f8a1-e327-42dc-bbc2-73bdafcfa9f1-flip .icon-shape .label rect,#g7c93f8a1-e327-42dc-bbc2-73bdafcfa9f1-flip .image-shape .label rect{opacity:0.5;background-color:rgba(232,232,232, 0.8);fill:rgba(232,232,232, 0.8);}#g7c93f8a1-e327-42dc-bbc2-73bdafcfa9f1-flip .label-icon{display:inline-block;height:1em;overflow:visible;vertical-align:-0.125em;}#g7c93f8a1-e327-42dc-bbc2-73bdafcfa9f1-flip .node .label-icon path{fill:currentColor;stroke:revert;stroke-width:revert;}#g7c93f8a1-e327-42dc-bbc2-73bdafcfa9f1-flip .node .neo-node{stroke:#9370DB;}#g7c93f8a1-e327-42dc-bbc2-73bdafcfa9f1-flip [data-look="neo"].node rect,#g7c93f8a1-e327-42dc-bbc2-73bdafcfa9f1-flip [data-look="neo"].cluster rect,#g7c93f8a1-e327-42dc-bbc2-73bdafcfa9f1-flip [data-look="neo"].node polygon{stroke:#9370DB;filter:drop-shadow(1px 2px 2px rgba(185, 185, 185, 1));}#g7c93f8a1-e327-42dc-bbc2-73bdafcfa9f1-flip [data-look="neo"].node path{stroke:#9370DB;stroke-width:1px;}#g7c93f8a1-e327-42dc-bbc2-73bdafcfa9f1-flip [data-look="neo"].node .outer-path{filter:drop-shadow(1px 2px 2px rgba(185, 185, 185, 1));}#g7c93f8a1-e327-42dc-bbc2-73bdafcfa9f1-flip [data-look="neo"].node .neo-line path{stroke:#9370DB;filter:none;}#g7c93f8a1-e327-42dc-bbc2-73bdafcfa9f1-flip [data-look="neo"].node circle{stroke:#9370DB;filter:drop-shadow(1px 2px 2px rgba(185, 185, 185, 1));}#g7c93f8a1-e327-42dc-bbc2-73bdafcfa9f1-flip [data-look="neo"].node circle .state-start{fill:#000000;}#g7c93f8a1-e327-42dc-bbc2-73bdafcfa9f1-flip [data-look="neo"].icon-shape .icon{fill:#9370DB;filter:drop-shadow(1px 2px 2px rgba(185, 185, 185, 1));}#g7c93f8a1-e327-42dc-bbc2-73bdafcfa9f1-flip [data-look="neo"].icon-shape .icon-neo path{stroke:#9370DB;filter:drop-shadow(1px 2px 2px rgba(185, 185, 185, 1));}#g7c93f8a1-e327-42dc-bbc2-73bdafcfa9f1-flip :root{--mermaid-font-family:"trebuchet ms",verdana,arial,sans-serif;}</style><g><marker id="g7c93f8a1-e327-42dc-bbc2-73bdafcfa9f1-flip_flowchart-v2-pointEnd" class="marker flowchart-v2" viewBox="0 0 10 10" refX="5" refY="5" markerUnits="userSpaceOnUse" markerWidth="8" markerHeight="8" orient="auto"><path d="M 0 0 L 10 5 L 0 10 z" class="arrowMarkerPath" style="stroke-width: 1; stroke-dasharray: 1, 0;"></path></marker><marker id="g7c93f8a1-e327-42dc-bbc2-73bdafcfa9f1-flip_flowchart-v2-pointStart" class="marker flowchart-v2" viewBox="0 0 10 10" refX="4.5" refY="5" markerUnits="userSpaceOnUse" markerWidth="8" markerHeight="8" orient="auto"><path d="M 0 5 L 10 10 L 10 0 z" class="arrowMarkerPath" style="stroke-width: 1; stroke-dasharray: 1, 0;"></path></marker><marker id="g7c93f8a1-e327-42dc-bbc2-73bdafcfa9f1-flip_flowchart-v2-pointEnd-margin" class="marker flowchart-v2" viewBox="0 0 11.5 14" refX="11.5" refY="7" markerUnits="userSpaceOnUse" markerWidth="10.5" markerHeight="14" orient="auto"><path d="M 0 0 L 11.5 7 L 0 14 z" class="arrowMarkerPath" style="stroke-width: 0; stroke-dasharray: 1, 0;"></path></marker><marker id="g7c93f8a1-e327-42dc-bbc2-73bdafcfa9f1-flip_flowchart-v2-pointStart-margin" class="marker flowchart-v2" viewBox="0 0 11.5 14" refX="1" refY="7" markerUnits="userSpaceOnUse" markerWidth="11.5" markerHeight="14" orient="auto"><polygon points="0,7 11.5,14 11.5,0" class="arrowMarkerPath" style="stroke-width: 0; stroke-dasharray: 1, 0;"></polygon></marker><marker id="g7c93f8a1-e327-42dc-bbc2-73bdafcfa9f1-flip_flowchart-v2-circleEnd" class="marker flowchart-v2" viewBox="0 0 10 10" refX="11" refY="5" markerUnits="userSpaceOnUse" markerWidth="11" markerHeight="11" orient="auto"><circle cx="5" cy="5" r="5" class="arrowMarkerPath" style="stroke-width: 1; stroke-dasharray: 1, 0;"></circle></marker><marker id="g7c93f8a1-e327-42dc-bbc2-73bdafcfa9f1-flip_flowchart-v2-circleStart" class="marker flowchart-v2" viewBox="0 0 10 10" refX="-1" refY="5" markerUnits="userSpaceOnUse" markerWidth="11" markerHeight="11" orient="auto"><circle cx="5" cy="5" r="5" class="arrowMarkerPath" style="stroke-width: 1; stroke-dasharray: 1, 0;"></circle></marker><marker id="g7c93f8a1-e327-42dc-bbc2-73bdafcfa9f1-flip_flowchart-v2-circleEnd-margin" class="marker flowchart-v2" viewBox="0 0 10 10" refY="5" refX="12.25" markerUnits="userSpaceOnUse" markerWidth="14" markerHeight="14" orient="auto"><circle cx="5" cy="5" r="5" class="arrowMarkerPath" style="stroke-width: 0; stroke-dasharray: 1, 0;"></circle></marker><marker id="g7c93f8a1-e327-42dc-bbc2-73bdafcfa9f1-flip_flowchart-v2-circleStart-margin" class="marker flowchart-v2" viewBox="0 0 10 10" refX="-2" refY="5" markerUnits="userSpaceOnUse" markerWidth="14" markerHeight="14" orient="auto"><circle cx="5" cy="5" r="5" class="arrowMarkerPath" style="stroke-width: 0; stroke-dasharray: 1, 0;"></circle></marker><marker id="g7c93f8a1-e327-42dc-bbc2-73bdafcfa9f1-flip_flowchart-v2-crossEnd" class="marker cross flowchart-v2" viewBox="0 0 11 11" refX="12" refY="5.2" markerUnits="userSpaceOnUse" markerWidth="11" markerHeight="11" orient="auto"><path d="M 1,1 l 9,9 M 10,1 l -9,9" class="arrowMarkerPath" style="stroke-width: 2; stroke-dasharray: 1, 0;"></path></marker><marker id="g7c93f8a1-e327-42dc-bbc2-73bdafcfa9f1-flip_flowchart-v2-crossStart" class="marker cross flowchart-v2" viewBox="0 0 11 11" refX="-1" refY="5.2" markerUnits="userSpaceOnUse" markerWidth="11" markerHeight="11" orient="auto"><path d="M 1,1 l 9,9 M 10,1 l -9,9" class="arrowMarkerPath" style="stroke-width: 2; stroke-dasharray: 1, 0;"></path></marker><marker id="g7c93f8a1-e327-42dc-bbc2-73bdafcfa9f1-flip_flowchart-v2-crossEnd-margin" class="marker cross flowchart-v2" viewBox="0 0 15 15" refX="17.7" refY="7.5" markerUnits="userSpaceOnUse" markerWidth="12" markerHeight="12" orient="auto"><path d="M 1,1 L 14,14 M 1,14 L 14,1" class="arrowMarkerPath" style="stroke-width: 2.5;"></path></marker><marker id="g7c93f8a1-e327-42dc-bbc2-73bdafcfa9f1-flip_flowchart-v2-crossStart-margin" class="marker cross flowchart-v2" viewBox="0 0 15 15" refX="-3.5" refY="7.5" markerUnits="userSpaceOnUse" markerWidth="12" markerHeight="12" orient="auto"><path d="M 1,1 L 14,14 M 1,14 L 14,1" class="arrowMarkerPath" style="stroke-width: 2.5; stroke-dasharray: 1, 0;"></path></marker><g class="root"><g class="clusters"></g><g class="edgePaths"><path d="M414.227,42L414.227,46.167C414.227,50.333,414.227,58.667,414.227,66.333C414.227,74,414.227,81,414.227,84.5L414.227,88" id="g7c93f8a1-e327-42dc-bbc2-73bdafcfa9f1-flip-L_Attacker_Edge_0" class="edge-thickness-normal edge-pattern-solid edge-thickness-normal edge-pattern-solid flowchart-link" style=";" data-edge="true" data-et="edge" data-id="L_Attacker_Edge_0" data-points="W3sieCI6NDE0LjIyNjU2MjUsInkiOjQyfSx7IngiOjQxNC4yMjY1NjI1LCJ5Ijo2N30seyJ4Ijo0MTQuMjI2NTYyNSwieSI6OTJ9XQ==" data-look="classic" marker-end="url(#g7c93f8a1-e327-42dc-bbc2-73bdafcfa9f1-flip_flowchart-v2-pointEnd)"></path><path d="M414.227,216L414.227,220.167C414.227,224.333,414.227,232.667,414.227,240.333C414.227,248,414.227,255,414.227,258.5L414.227,262" id="g7c93f8a1-e327-42dc-bbc2-73bdafcfa9f1-flip-L_Edge_Browser_0" class="edge-thickness-normal edge-pattern-solid edge-thickness-normal edge-pattern-solid flowchart-link" style=";" data-edge="true" data-et="edge" data-id="L_Edge_Browser_0" data-points="W3sieCI6NDE0LjIyNjU2MjUsInkiOjIxNn0seyJ4Ijo0MTQuMjI2NTYyNSwieSI6MjQxfSx7IngiOjQxNC4yMjY1NjI1LCJ5IjoyNjZ9XQ==" data-look="classic" marker-end="url(#g7c93f8a1-e327-42dc-bbc2-73bdafcfa9f1-flip_flowchart-v2-pointEnd)"></path><path d="M414.227,425.2L414.227,429.367C414.227,433.533,414.227,441.867,414.227,449.533C414.227,457.2,414.227,464.2,414.227,467.7L414.227,471.2" id="g7c93f8a1-e327-42dc-bbc2-73bdafcfa9f1-flip-L_Browser_App_0" class="edge-thickness-normal edge-pattern-solid edge-thickness-normal edge-pattern-solid flowchart-link" style=";" data-edge="true" data-et="edge" data-id="L_Browser_App_0" data-points="W3sieCI6NDE0LjIyNjU2MjUsInkiOjQyNS4xOTk5OTY5NDgyNDIyfSx7IngiOjQxNC4yMjY1NjI1LCJ5Ijo0NTAuMTk5OTk2OTQ4MjQyMn0seyJ4Ijo0MTQuMjI2NTYyNSwieSI6NDc1LjE5OTk5Njk0ODI0MjJ9XQ==" data-look="classic" marker-end="url(#g7c93f8a1-e327-42dc-bbc2-73bdafcfa9f1-flip_flowchart-v2-pointEnd)"></path><path d="M534.078,616.8L541.131,620.967C548.185,625.133,562.292,633.467,569.345,641.133C576.398,648.8,576.398,655.8,576.398,659.3L576.398,662.8" id="g7c93f8a1-e327-42dc-bbc2-73bdafcfa9f1-flip-L_App_Data_0" class="edge-thickness-normal edge-pattern-solid edge-thickness-normal edge-pattern-solid flowchart-link" style=";" data-edge="true" data-et="edge" data-id="L_App_Data_0" data-points="W3sieCI6NTM0LjA3ODAwODgwNzY0NTYsInkiOjYxNi43OTk5ODc3OTI5Njg4fSx7IngiOjU3Ni4zOTg0Mzc1LCJ5Ijo2NDEuNzk5OTg3NzkyOTY4OH0seyJ4Ijo1NzYuMzk4NDM3NSwieSI6NjY2Ljc5OTk4Nzc5Mjk2ODh9XQ==" data-look="classic" marker-end="url(#g7c93f8a1-e327-42dc-bbc2-73bdafcfa9f1-flip_flowchart-v2-pointEnd)"></path><path d="M294.375,616.8L287.322,620.967C280.268,625.133,266.161,633.467,259.108,652.133C252.055,670.8,252.055,699.8,252.055,728.8C252.055,757.8,252.055,786.8,258.534,805.128C265.014,823.455,277.972,831.11,284.452,834.938L290.931,838.766" id="g7c93f8a1-e327-42dc-bbc2-73bdafcfa9f1-flip-L_App_Ops_0" class="edge-thickness-normal edge-pattern-dotted edge-thickness-normal edge-pattern-solid flowchart-link" style=";" data-edge="true" data-et="edge" data-id="L_App_Ops_0" data-points="W3sieCI6Mjk0LjM3NTExNjE5MjM1NDM3LCJ5Ijo2MTYuNzk5OTg3NzkyOTY4OH0seyJ4IjoyNTIuMDU0Njg3NSwieSI6NjQxLjc5OTk4Nzc5Mjk2ODh9LHsieCI6MjUyLjA1NDY4NzUsInkiOjcyOC43OTk5ODc3OTI5Njg4fSx7IngiOjI1Mi4wNTQ2ODc1LCJ5Ijo4MTUuNzk5OTg3NzkyOTY4OH0seyJ4IjoyOTQuMzc1MTE2MTkyMzU0MzcsInkiOjg0MC43OTk5ODc3OTI5Njg4fV0=" data-look="classic" marker-end="url(#g7c93f8a1-e327-42dc-bbc2-73bdafcfa9f1-flip_flowchart-v2-pointEnd)"></path><path d="M576.398,790.8L576.398,794.967C576.398,799.133,576.398,807.467,569.919,815.461C563.44,823.455,550.481,831.11,544.001,834.938L537.522,838.766" id="g7c93f8a1-e327-42dc-bbc2-73bdafcfa9f1-flip-L_Data_Ops_0" class="edge-thickness-normal edge-pattern-dotted edge-thickness-normal edge-pattern-solid flowchart-link" style=";" data-edge="true" data-et="edge" data-id="L_Data_Ops_0" data-points="W3sieCI6NTc2LjM5ODQzNzUsInkiOjc5MC43OTk5ODc3OTI5Njg4fSx7IngiOjU3Ni4zOTg0Mzc1LCJ5Ijo4MTUuNzk5OTg3NzkyOTY4OH0seyJ4Ijo1MzQuMDc4MDA4ODA3NjQ1NiwieSI6ODQwLjc5OTk4Nzc5Mjk2ODh9XQ==" data-look="classic" marker-end="url(#g7c93f8a1-e327-42dc-bbc2-73bdafcfa9f1-flip_flowchart-v2-pointEnd)"></path></g><g class="edgeLabels"><g class="edgeLabel"><g class="label" data-id="L_Attacker_Edge_0" transform="translate(0, 0)"><text y="-10.1" text-anchor="middle"><tspan class="text-outer-tspan row" x="0" y="-0.1em" dy="1.1em" text-anchor="middle"></tspan></text></g></g><g><rect class="background" style="stroke: none"></rect></g><g class="edgeLabel"><g class="label" data-id="L_Edge_Browser_0" transform="translate(0, 0)"><text y="-10.1" text-anchor="middle"><tspan class="text-outer-tspan row" x="0" y="-0.1em" dy="1.1em" text-anchor="middle"></tspan></text></g></g><g><rect class="background" style="stroke: none"></rect></g><g class="edgeLabel"><g class="label" data-id="L_Browser_App_0" transform="translate(0, 0)"><text y="-10.1" text-anchor="middle"><tspan class="text-outer-tspan row" x="0" y="-0.1em" dy="1.1em" text-anchor="middle"></tspan></text></g></g><g><rect class="background" style="stroke: none"></rect></g><g class="edgeLabel"><g class="label" data-id="L_App_Data_0" transform="translate(0, 0)"><text y="-10.1" text-anchor="middle"><tspan class="text-outer-tspan row" x="0" y="-0.1em" dy="1.1em" text-anchor="middle"></tspan></text></g></g><g><rect class="background" style="stroke: none"></rect></g><g class="edgeLabel"><g class="label" data-id="L_App_Ops_0" transform="translate(0, 0)"><text y="-10.1" text-anchor="middle"><tspan class="text-outer-tspan row" x="0" y="-0.1em" dy="1.1em" text-anchor="middle"></tspan></text></g></g><g><rect class="background" style="stroke: none"></rect></g><g class="edgeLabel"><g class="label" data-id="L_Data_Ops_0" transform="translate(0, 0)"><text y="-10.1" text-anchor="middle"><tspan class="text-outer-tspan row" x="0" y="-0.1em" dy="1.1em" text-anchor="middle"></tspan></text></g></g><g><rect class="background" style="stroke: none"></rect></g></g><g class="nodes"><g class="root" transform="translate(153.8359375, 832.7999877929688)"><g class="clusters"><g class="cluster" id="g7c93f8a1-e327-42dc-bbc2-73bdafcfa9f1-flip-Ops" data-look="classic"><rect style="" x="8" y="8" width="504.78125" height="141.5999984741211"></rect><g class="cluster-label" transform="translate(197.6875, 8)"><g><rect class="background" style="stroke: none"></rect><text y="-10.1" style=""><tspan class="text-outer-tspan row" x="0" y="-0.1em" dy="1.1em"><tspan font-style="normal" class="text-inner-tspan" font-weight="normal">Detect</tspan><tspan font-style="normal" class="text-inner-tspan" font-weight="normal"> &amp;</tspan><tspan font-style="normal" class="text-inner-tspan" font-weight="normal"> respond</tspan></tspan></text></g></g></g></g><g class="edgePaths"></g><g class="edgeLabels"></g><g class="nodes"><g class="node default" id="g7c93f8a1-e327-42dc-bbc2-73bdafcfa9f1-flip-flowchart-Logs-10" data-look="classic" transform="translate(140.4453125, 78.79999923706055)"><rect class="basic label-container" style="" x="-97.4453125" y="-33.29999923706055" width="194.890625" height="66.5999984741211"></rect><g class="label" style="" transform="translate(0, -18.299999237060547)"><rect></rect><g><rect class="background" style="stroke: none"></rect><text y="-10.1" style=""><tspan class="text-outer-tspan row" x="0" y="-0.1em" dy="1.1em"><tspan font-style="normal" class="text-inner-tspan" font-weight="normal">Audit</tspan><tspan font-style="normal" class="text-inner-tspan" font-weight="normal"> log,</tspan><tspan font-style="normal" class="text-inner-tspan" font-weight="normal"> anomaly</tspan></tspan><tspan class="text-outer-tspan row" x="0" y="1em" dy="1.1em"><tspan font-style="normal" class="text-inner-tspan" font-weight="normal">detection</tspan></tspan></text></g></g></g><g class="node default" id="g7c93f8a1-e327-42dc-bbc2-73bdafcfa9f1-flip-flowchart-Alert-11" data-look="classic" transform="translate(382.8359375, 78.79999923706055)"><rect class="basic label-container" style="" x="-94.9453125" y="-24.5" width="189.890625" height="49"></rect><g class="label" style="" transform="translate(0, -9.5)"><rect></rect><g><rect class="background" style="stroke: none"></rect><text y="-10.1" style=""><tspan class="text-outer-tspan row" x="0" y="-0.1em" dy="1.1em"><tspan font-style="normal" class="text-inner-tspan" font-weight="normal">Real-time</tspan><tspan font-style="normal" class="text-inner-tspan" font-weight="normal"> alerting</tspan></tspan></text></g></g></g></g></g><g class="root" transform="translate(279.0546875, 658.7999877929688)"><g class="clusters"><g class="cluster" id="g7c93f8a1-e327-42dc-bbc2-73bdafcfa9f1-flip-Data" data-look="classic"><rect style="" x="8" y="8" width="578.6875" height="124"></rect><g class="cluster-label" transform="translate(280.859375, 8)"><g><rect class="background" style="stroke: none"></rect><text y="-10.1" style=""><tspan class="text-outer-tspan row" x="0" y="-0.1em" dy="1.1em"><tspan font-style="normal" class="text-inner-tspan" font-weight="normal">Data</tspan></tspan></text></g></g></g></g><g class="edgePaths"></g><g class="edgeLabels"></g><g class="nodes"><g class="node default" id="g7c93f8a1-e327-42dc-bbc2-73bdafcfa9f1-flip-flowchart-Hash-8" data-look="classic" transform="translate(169.0703125, 70)"><rect class="basic label-container" style="" x="-126.0703125" y="-24.5" width="252.140625" height="49"></rect><g class="label" style="" transform="translate(0, -9.5)"><rect></rect><g><rect class="background" style="stroke: none"></rect><text y="-10.1" style=""><tspan class="text-outer-tspan row" x="0" y="-0.1em" dy="1.1em"><tspan font-style="normal" class="text-inner-tspan" font-weight="normal">Argon2id</tspan><tspan font-style="normal" class="text-inner-tspan" font-weight="normal"> password</tspan><tspan font-style="normal" class="text-inner-tspan" font-weight="normal"> hashing</tspan></tspan></text></g></g></g><g class="node default" id="g7c93f8a1-e327-42dc-bbc2-73bdafcfa9f1-flip-flowchart-Crypto-9" data-look="classic" transform="translate(448.4140625, 70)"><rect class="basic label-container" style="" x="-103.2734375" y="-24.5" width="206.546875" height="49"></rect><g class="label" style="" transform="translate(0, -9.5)"><rect></rect><g><rect class="background" style="stroke: none"></rect><text y="-10.1" style=""><tspan class="text-outer-tspan row" x="0" y="-0.1em" dy="1.1em"><tspan font-style="normal" class="text-inner-tspan" font-weight="normal">AES-256-GCM</tspan><tspan font-style="normal" class="text-inner-tspan" font-weight="normal"> at</tspan><tspan font-style="normal" class="text-inner-tspan" font-weight="normal"> rest</tspan></tspan></text></g></g></g></g></g><g class="root" transform="translate(0, 467.1999969482422)"><g class="clusters"><g class="cluster" id="g7c93f8a1-e327-42dc-bbc2-73bdafcfa9f1-flip-App" data-look="classic"><rect style="" x="8" y="8" width="812.453125" height="141.5999984741211"></rect><g class="cluster-label" transform="translate(373.671875, 8)"><g><rect class="background" style="stroke: none"></rect><text y="-10.1" style=""><tspan class="text-outer-tspan row" x="0" y="-0.1em" dy="1.1em"><tspan font-style="normal" class="text-inner-tspan" font-weight="normal">Application</tspan></tspan></text></g></g></g></g><g class="edgePaths"></g><g class="edgeLabels"></g><g class="nodes"><g class="node default" id="g7c93f8a1-e327-42dc-bbc2-73bdafcfa9f1-flip-flowchart-AuthN-5" data-look="classic" transform="translate(149.90625, 78.79999923706055)"><rect class="basic label-container" style="" x="-106.90625" y="-24.5" width="213.8125" height="49"></rect><g class="label" style="" transform="translate(0, -9.5)"><rect></rect><g><rect class="background" style="stroke: none"></rect><text y="-10.1" style=""><tspan class="text-outer-tspan row" x="0" y="-0.1em" dy="1.1em"><tspan font-style="normal" class="text-inner-tspan" font-weight="normal">AuthN:</tspan><tspan font-style="normal" class="text-inner-tspan" font-weight="normal"> passkeys,</tspan><tspan font-style="normal" class="text-inner-tspan" font-weight="normal"> MFA</tspan></tspan></text></g></g></g><g class="node default" id="g7c93f8a1-e327-42dc-bbc2-73bdafcfa9f1-flip-flowchart-AuthZ-6" data-look="classic" transform="translate(405.390625, 78.79999923706055)"><rect class="basic label-container" style="" x="-98.578125" y="-33.29999923706055" width="197.15625" height="66.5999984741211"></rect><g class="label" style="" transform="translate(0, -18.299999237060547)"><rect></rect><g><rect class="background" style="stroke: none"></rect><text y="-10.1" style=""><tspan class="text-outer-tspan row" x="0" y="-0.1em" dy="1.1em"><tspan font-style="normal" class="text-inner-tspan" font-weight="normal">AuthZ</tspan><tspan font-style="normal" class="text-inner-tspan" font-weight="normal"> middleware:</tspan></tspan><tspan class="text-outer-tspan row" x="0" y="1em" dy="1.1em"><tspan font-style="normal" class="text-inner-tspan" font-weight="normal">ownership</tspan><tspan font-style="normal" class="text-inner-tspan" font-weight="normal"> +</tspan><tspan font-style="normal" class="text-inner-tspan" font-weight="normal"> role</tspan></tspan></text></g></g></g><g class="node default" id="g7c93f8a1-e327-42dc-bbc2-73bdafcfa9f1-flip-flowchart-IV-7" data-look="classic" transform="translate(669.7109375, 78.79999923706055)"><rect class="basic label-container" style="" x="-115.7421875" y="-33.29999923706055" width="231.484375" height="66.5999984741211"></rect><g class="label" style="" transform="translate(0, -18.299999237060547)"><rect></rect><g><rect class="background" style="stroke: none"></rect><text y="-10.1" style=""><tspan class="text-outer-tspan row" x="0" y="-0.1em" dy="1.1em"><tspan font-style="normal" class="text-inner-tspan" font-weight="normal">Input</tspan><tspan font-style="normal" class="text-inner-tspan" font-weight="normal"> validation,</tspan><tspan font-style="normal" class="text-inner-tspan" font-weight="normal"> output</tspan></tspan><tspan class="text-outer-tspan row" x="0" y="1em" dy="1.1em"><tspan font-style="normal" class="text-inner-tspan" font-weight="normal">encoding</tspan></tspan></text></g></g></g></g></g><g class="root" transform="translate(128.9609375, 258)"><g class="clusters"><g class="cluster" id="g7c93f8a1-e327-42dc-bbc2-73bdafcfa9f1-flip-Browser" data-look="classic"><rect style="" x="8" y="8" width="554.53125" height="159.1999969482422"></rect><g class="cluster-label" transform="translate(232.9609375, 8)"><g><rect class="background" style="stroke: none"></rect><text y="-10.1" style=""><tspan class="text-outer-tspan row" x="0" y="-0.1em" dy="1.1em"><tspan font-style="normal" class="text-inner-tspan" font-weight="normal">Browser</tspan><tspan font-style="normal" class="text-inner-tspan" font-weight="normal"> policy</tspan></tspan></text></g></g></g></g><g class="edgePaths"></g><g class="edgeLabels"></g><g class="nodes"><g class="node default" id="g7c93f8a1-e327-42dc-bbc2-73bdafcfa9f1-flip-flowchart-CSP-3" data-look="classic" transform="translate(165.2578125, 87.5999984741211)"><rect class="basic label-container" style="" x="-122.2578125" y="-24.5" width="244.515625" height="49"></rect><g class="label" style="" transform="translate(0, -9.5)"><rect></rect><g><rect class="background" style="stroke: none"></rect><text y="-10.1" style=""><tspan class="text-outer-tspan row" x="0" y="-0.1em" dy="1.1em"><tspan font-style="normal" class="text-inner-tspan" font-weight="normal">Strict</tspan><tspan font-style="normal" class="text-inner-tspan" font-weight="normal"> CSP</tspan><tspan font-style="normal" class="text-inner-tspan" font-weight="normal"> +</tspan><tspan font-style="normal" class="text-inner-tspan" font-weight="normal"> Trusted</tspan><tspan font-style="normal" class="text-inner-tspan" font-weight="normal"> Types</tspan></tspan></text></g></g></g><g class="node default" id="g7c93f8a1-e327-42dc-bbc2-73bdafcfa9f1-flip-flowchart-SH-4" data-look="classic" transform="translate(432.5234375, 87.5999984741211)"><rect class="basic label-container" style="" x="-95.0078125" y="-42.099998474121094" width="190.015625" height="84.19999694824219"></rect><g class="label" style="" transform="translate(0, -27.099998474121094)"><rect></rect><g><rect class="background" style="stroke: none"></rect><text y="-10.1" style=""><tspan class="text-outer-tspan row" x="0" y="-0.1em" dy="1.1em"><tspan font-style="normal" class="text-inner-tspan" font-weight="normal">X-Frame-Options,</tspan></tspan><tspan class="text-outer-tspan row" x="0" y="1em" dy="1.1em"><tspan font-style="normal" class="text-inner-tspan" font-weight="normal">COOP/COEP,</tspan></tspan><tspan class="text-outer-tspan row" x="0" y="2.1em" dy="1.1em"><tspan font-style="normal" class="text-inner-tspan" font-weight="normal">Permissions-Policy</tspan></tspan></text></g></g></g></g></g><g class="root" transform="translate(198.4609375, 84)"><g class="clusters"><g class="cluster" id="g7c93f8a1-e327-42dc-bbc2-73bdafcfa9f1-flip-Edge" data-look="classic"><rect style="" x="8" y="8" width="415.53125" height="124"></rect><g class="cluster-label" transform="translate(156.046875, 8)"><g><rect class="background" style="stroke: none"></rect><text y="-10.1" style=""><tspan class="text-outer-tspan row" x="0" y="-0.1em" dy="1.1em"><tspan font-style="normal" class="text-inner-tspan" font-weight="normal">Edge</tspan><tspan font-style="normal" class="text-inner-tspan" font-weight="normal"> /</tspan><tspan font-style="normal" class="text-inner-tspan" font-weight="normal"> Transport</tspan></tspan></text></g></g></g></g><g class="edgePaths"></g><g class="edgeLabels"></g><g class="nodes"><g class="node default" id="g7c93f8a1-e327-42dc-bbc2-73bdafcfa9f1-flip-flowchart-WAF-1" data-look="classic" transform="translate(107.8828125, 70)"><rect class="basic label-container" style="" x="-64.8828125" y="-24.5" width="129.765625" height="49"></rect><g class="label" style="" transform="translate(0, -9.5)"><rect></rect><g><rect class="background" style="stroke: none"></rect><text y="-10.1" style=""><tspan class="text-outer-tspan row" x="0" y="-0.1em" dy="1.1em"><tspan font-style="normal" class="text-inner-tspan" font-weight="normal">WAF</tspan><tspan font-style="normal" class="text-inner-tspan" font-weight="normal"> rules</tspan></tspan></text></g></g></g><g class="node default" id="g7c93f8a1-e327-42dc-bbc2-73bdafcfa9f1-flip-flowchart-TLS-2" data-look="classic" transform="translate(305.6484375, 70)"><rect class="basic label-container" style="" x="-82.8828125" y="-24.5" width="165.765625" height="49"></rect><g class="label" style="" transform="translate(0, -9.5)"><rect></rect><g><rect class="background" style="stroke: none"></rect><text y="-10.1" style=""><tspan class="text-outer-tspan row" x="0" y="-0.1em" dy="1.1em"><tspan font-style="normal" class="text-inner-tspan" font-weight="normal">TLS</tspan><tspan font-style="normal" class="text-inner-tspan" font-weight="normal"> 1.3</tspan><tspan font-style="normal" class="text-inner-tspan" font-weight="normal"> +</tspan><tspan font-style="normal" class="text-inner-tspan" font-weight="normal"> HSTS</tspan></tspan></text></g></g></g></g></g><g class="node default" id="g7c93f8a1-e327-42dc-bbc2-73bdafcfa9f1-flip-flowchart-Attacker-0" data-look="classic" transform="translate(414.2265625, 25)"><g class="basic label-container outer-path"><path d="M-25.484375 -17 C-6.782563864196703 -17, 11.919247271606594 -17, 25.484375 -17 C25.484375 -17, 25.484375 -17, 25.484375 -17 C25.771777899582723 -16.99078354840619, 26.059180799165446 -16.981567096812377, 26.57356873967212 -16.965071676755716 C26.805605219172314 -16.942687396643027, 27.037641698672513 -16.92030311653034, 27.6582867486366 -16.860430234995185 C27.892626132663622 -16.822544060714762, 28.126965516690646 -16.78465788643434, 28.734071687923326 -16.686505668848113 C29.1141632418055 -16.599752252003693, 29.494254795687677 -16.512998835159273, 29.79650292646162 -16.4440126716635 C30.190748294015698 -16.327002716009613, 30.584993661569776 -16.20999276035573, 30.84121470640155 -16.133947699181366 C31.17001263272793 -16.012947022918546, 31.49881055905431 -15.891946346655725, 31.86391408294936 -15.757584874882369 C32.08022114612161 -15.661832154537064, 32.29652820929386 -15.56607943419176, 32.86039856499849 -15.316470754341125 C33.18114833414996 -15.149135805224835, 33.50189810330143 -14.981800856108546, 33.82657338406694 -14.812417970097622 C34.08511704600344 -14.65568728286051, 34.34366070793994 -14.498956595623397, 34.758468320579325 -14.247497783161291 C35.05118208727501 -14.043313330889118, 35.343895853970686 -13.839128878616947, 35.652254018350675 -13.624031571755262 C35.86387530514072 -13.455269227019146, 36.07549659193078 -13.286506882283028, 36.5042577202324 -12.944581292275288 C36.81077002578345 -12.66621492624503, 37.117282331334486 -12.387848560214769, 37.31097836025927 -12.21193895166137 C37.54621917261545 -11.969033499273733, 37.78145998497163 -11.726128046886098, 38.06910095028036 -11.42911513444239 C38.22255901141795 -11.24885456381913, 38.37601707255554 -11.068593993195872, 38.77551020195651 -10.59932663159847 C38.971314149363295 -10.336967180179952, 39.167118096770075 -10.074607728761434, 39.42730332814825 -9.725983222076888 C39.630006393389685 -9.414576880471627, 39.83270945863112 -9.103170538866367, 40.02180197109088 -8.812673661278927 C40.13490527703691 -8.611847288620119, 40.24800858298293 -8.411020915961311, 40.556563208341004 -7.863150934094199 C40.66746510799486 -7.632860766542451, 40.77836700764871 -7.402570598990702, 41.02938959126881 -6.881316833080699 C41.192677461545244 -6.4779926365417, 41.35596533182168 -6.0746684400027, 41.438338174845924 -5.871205925162238 C41.57212472566688 -5.468262150081633, 41.70591127648783 -5.065318375001027, 41.781728501623235 -4.836968972727556 C41.88304294379966 -4.450613094751843, 41.98435738597608 -4.06425721677613, 42.058149507091 -3.7828558772573464 C42.12476980288872 -3.440774738540536, 42.19139009868645 -3.0986935998237257, 42.26646531804565 -2.713198215567453 C42.295600047052496 -2.487235010693345, 42.32473477605934 -2.2612718058192365, 42.405819920136366 -1.632391440430593 C42.42623594511784 -1.3143953718254047, 42.44665197009932 -0.9963993032202163, 42.4756406754117 -0.5448768187181379 C42.4756406754117 -0.1659430903607319, 42.4756406754117 0.21299063799667406, 42.4756406754117 0.5448768187181336 C42.46155683091451 0.7642440650364695, 42.447472986417324 0.9836113113548053, 42.405819920136366 1.6323914404305815 C42.362663831247744 1.9671015437170603, 42.31950774235913 2.3018116470035395, 42.266465318045654 2.7131982155674415 C42.20744843794755 3.0162374216491887, 42.14843155784944 3.3192766277309365, 42.058149507091 3.782855877257343 C41.979227678865584 4.083819013217598, 41.90030585064016 4.384782149177852, 41.781728501623235 4.836968972727545 C41.6902570699488 5.112466350937485, 41.598785638274364 5.387963729147425, 41.438338174845924 5.871205925162227 C41.29484449303552 6.2256380934955295, 41.15135081122512 6.5800702618288325, 41.02938959126881 6.881316833080694 C40.89986624029593 7.150274842731626, 40.770342889323054 7.419232852382559, 40.556563208341004 7.863150934094196 C40.4005666043916 8.140138700775413, 40.244570000442195 8.41712646745663, 40.02180197109089 8.812673661278923 C39.80247337790868 9.14962127838055, 39.58314478472648 9.48656889548218, 39.427303328148255 9.725983222076879 C39.18654035359343 10.048583674022135, 38.94577737903861 10.371184125967392, 38.77551020195651 10.599326631598467 C38.58326731206376 10.825146068996808, 38.391024422171014 11.05096550639515, 38.06910095028037 11.42911513444238 C37.78690694397212 11.72050361451444, 37.504712937663875 12.0118920945865, 37.31097836025927 12.211938951661365 C37.081488467475275 12.42035560031796, 36.85199857469129 12.628772248974554, 36.50425772023242 12.944581292275275 C36.23984591311308 13.155442672159255, 35.975434105993735 13.366304052043235, 35.652254018350675 13.62403157175526 C35.46171388807756 13.756944118284485, 35.27117375780445 13.88985666481371, 34.75846832057934 14.247497783161286 C34.56316849064238 14.365889687778264, 34.367868660705426 14.48428159239524, 33.82657338406695 14.81241797009762 C33.47641017934512 14.995097889710758, 33.1262469746233 15.177777809323896, 32.86039856499849 15.316470754341124 C32.63132224481395 15.417876045979217, 32.40224592462942 15.519281337617311, 31.863914082949368 15.757584874882367 C31.6031641575292 15.853543257782876, 31.342414232109036 15.949501640683385, 30.841214706401562 16.133947699181363 C30.598615236163848 16.20594994851731, 30.35601576592613 16.27795219785326, 29.796502926461642 16.444012671663497 C29.567705440904223 16.49623420469885, 29.3389079553468 16.54845573773421, 28.734071687923333 16.68650566884811 C28.46533472162977 16.729952977472152, 28.196597755336207 16.773400286096198, 27.658286748636613 16.86043023499518 C27.379962463526272 16.88727984404585, 27.101638178415932 16.914129453096518, 26.57356873967212 16.965071676755716 C26.287164958433777 16.97425608856889, 26.000761177195436 16.98344050038206, 25.484375000000004 17 C25.484375000000004 17, 25.484375 17, 25.484375 17 C7.0376129431138565 17, -11.409149113772287 17, -25.484374999999996 17 C-25.80186899410216 16.989818585573712, -26.119362988204323 16.979637171147427, -26.573568739672112 16.965071676755716 C-26.821889674947865 16.941116454779284, -27.070210610223615 16.91716123280285, -27.658286748636606 16.86043023499518 C-27.922536585448828 16.81770837066747, -28.18678642226105 16.77498650633976, -28.73407168792333 16.68650566884811 C-29.02361595583827 16.62041907914945, -29.31316022375321 16.554332489450793, -29.79650292646162 16.4440126716635 C-30.143480951565465 16.3410314151375, -30.490458976669306 16.2380501586115, -30.841214706401544 16.13394769918137 C-31.163645906627888 16.015290036976733, -31.486077106854232 15.896632374772096, -31.86391408294936 15.757584874882369 C-32.13196924528068 15.638924806092165, -32.400024407611994 15.520264737301963, -32.86039856499848 15.316470754341127 C-33.22284859796469 15.127380804302982, -33.5852986309309 14.938290854264839, -33.82657338406693 14.812417970097624 C-34.109261785122825 14.641050600116099, -34.391950186178725 14.469683230134574, -34.75846832057932 14.247497783161299 C-35.0302809574392 14.057893054267248, -35.30209359429909 13.868288325373198, -35.65225401835067 13.624031571755264 C-35.934999565860906 13.398549521790864, -36.21774511337115 13.173067471826464, -36.5042577202324 12.94458129227529 C-36.82074577692932 12.657155212998255, -37.13723383362624 12.369729133721222, -37.31097836025926 12.211938951661377 C-37.605976947170426 11.90732869084119, -37.90097553408158 11.602718430021003, -38.069100950280365 11.429115134442386 C-38.24751494965785 11.219539898729439, -38.425928949035324 11.00996466301649, -38.77551020195651 10.599326631598473 C-38.96188484079803 10.34960159462973, -39.14825947963954 10.099876557660986, -39.42730332814825 9.72598322207689 C-39.55763117894346 9.52576464532733, -39.68795902973868 9.325546068577772, -40.02180197109088 8.812673661278936 C-40.14985256111024 8.585306872171287, -40.27790315112959 8.357940083063639, -40.556563208341004 7.863150934094201 C-40.724174764977874 7.515101950424944, -40.891786321614745 7.167052966755687, -41.02938959126881 6.881316833080701 C-41.1415827811311 6.604197485013086, -41.25377597099339 6.32707813694547, -41.438338174845924 5.87120592516224 C-41.516215135742776 5.636652926949595, -41.594092096639635 5.40209992873695, -41.781728501623235 4.8369689727275516 C-41.85108470120913 4.572483724539477, -41.92044090079503 4.307998476351403, -42.058149507091 3.782855877257349 C-42.131556448096845 3.405926749754831, -42.20496338910268 3.028997622252313, -42.26646531804565 2.713198215567455 C-42.320455040715146 2.2944645880194865, -42.37444476338464 1.8757309604715178, -42.405819920136366 1.6323914404306026 C-42.433052378379955 1.2082239216421196, -42.46028483662354 0.7840564028536366, -42.4756406754117 0.54487681871814 C-42.4756406754117 0.22998446484399843, -42.4756406754117 -0.08490788903014312, -42.4756406754117 -0.5448768187181317 C-42.44908597182536 -0.9584877616461898, -42.42253126823903 -1.3720987045742477, -42.405819920136366 -1.6323914404305793 C-42.36400678685749 -1.9566858452044829, -42.32219365357861 -2.2809802499783864, -42.266465318045654 -2.713198215567447 C-42.194887724786895 -3.0807340290214875, -42.123310131528136 -3.4482698424755283, -42.058149507091 -3.782855877257341 C-41.9587815267083 -4.161789052811722, -41.85941354632559 -4.540722228366103, -41.781728501623235 -4.836968972727544 C-41.66284775256398 -5.195018847818923, -41.54396700350471 -5.553068722910303, -41.43833817484593 -5.871205925162218 C-41.28109203739185 -6.259606924821045, -41.12384589993777 -6.648007924479873, -41.02938959126881 -6.881316833080692 C-40.88332542552256 -7.184622198525273, -40.73726125977631 -7.487927563969853, -40.556563208341004 -7.863150934094194 C-40.431489614016506 -8.085231765892116, -40.30641601969201 -8.307312597690037, -40.02180197109088 -8.812673661278929 C-39.801863457958966 -9.150558279209754, -39.58192494482705 -9.488442897140578, -39.42730332814825 -9.725983222076884 C-39.216889610602536 -10.007918434504129, -39.006475893056816 -10.289853646931372, -38.77551020195651 -10.599326631598467 C-38.60318350808753 -10.801751371883633, -38.43085681421856 -11.004176112168798, -38.06910095028037 -11.42911513444238 C-37.90716099736324 -11.59633143134671, -37.74522104444612 -11.763547728251043, -37.31097836025928 -12.21193895166136 C-37.13378399358462 -12.372862187169249, -36.956589626909974 -12.533785422677138, -36.50425772023242 -12.944581292275274 C-36.16903180895477 -13.211915035783052, -35.83380589767712 -13.479248779290831, -35.652254018350675 -13.624031571755259 C-35.39764556670723 -13.801635405799495, -35.14303711506379 -13.979239239843729, -34.75846832057934 -14.247497783161284 C-34.53661756602629 -14.381985014311093, -34.314766811473234 -14.5164722454609, -33.82657338406695 -14.812417970097618 C-33.60491343112344 -14.928057825568269, -33.38325347817994 -15.043697681038918, -32.86039856499849 -15.316470754341124 C-32.48824432771908 -15.481212395621506, -32.11609009043966 -15.64595403690189, -31.863914082949368 -15.757584874882365 C-31.603043229814578 -15.8535877602997, -31.342172376679788 -15.949590645717034, -30.841214706401566 -16.133947699181363 C-30.428981635473228 -16.256296310777348, -30.01674856454489 -16.378644922373333, -29.796502926461642 -16.444012671663494 C-29.567591193255662 -16.496260280979097, -29.338679460049683 -16.548507890294704, -28.734071687923336 -16.68650566884811 C-28.444671535277973 -16.73329364119611, -28.15527138263261 -16.78008161354411, -27.658286748636613 -16.86043023499518 C-27.230047117885885 -16.901741997140196, -26.80180748713516 -16.94305375928521, -26.57356873967212 -16.965071676755716 C-26.32174225448339 -16.9731472619852, -26.06991576929466 -16.981222847214685, -25.484375000000004 -17 C-25.484375000000004 -17, -25.484375000000004 -17, -25.484375 -17" stroke="none" stroke-width="0" fill="#ECECFF" style=""></path><path d="M-25.484375 -17 C-8.670427936437967 -17, 8.143519127124065 -17, 25.484375 -17 M-25.484375 -17 C-14.507648195149788 -17, -3.530921390299575 -17, 25.484375 -17 M25.484375 -17 C25.484375 -17, 25.484375 -17, 25.484375 -17 M25.484375 -17 C25.484375 -17, 25.484375 -17, 25.484375 -17 M25.484375 -17 C25.914473562887228 -16.986207576224274, 26.34457212577446 -16.972415152448544, 26.57356873967212 -16.965071676755716 M25.484375 -17 C25.804849723634064 -16.989722999379264, 26.125324447268124 -16.979445998758525, 26.57356873967212 -16.965071676755716 M26.57356873967212 -16.965071676755716 C26.92991787170084 -16.93069510456144, 27.286267003729563 -16.896318532367165, 27.6582867486366 -16.860430234995185 M26.57356873967212 -16.965071676755716 C26.92527460657091 -16.93114303476418, 27.2769804734697 -16.897214392772646, 27.6582867486366 -16.860430234995185 M27.6582867486366 -16.860430234995185 C27.902095027753578 -16.821013203188993, 28.14590330687056 -16.781596171382805, 28.734071687923326 -16.686505668848113 M27.6582867486366 -16.860430234995185 C28.01838706203771 -16.80221200894413, 28.378487375438823 -16.743993782893078, 28.734071687923326 -16.686505668848113 M28.734071687923326 -16.686505668848113 C29.046061213836495 -16.615296095480353, 29.358050739749668 -16.544086522112597, 29.79650292646162 -16.4440126716635 M28.734071687923326 -16.686505668848113 C29.134799052791358 -16.595042262807425, 29.535526417659394 -16.503578856766733, 29.79650292646162 -16.4440126716635 M29.79650292646162 -16.4440126716635 C30.02731733794375 -16.375508165905174, 30.258131749425875 -16.307003660146847, 30.84121470640155 -16.133947699181366 M29.79650292646162 -16.4440126716635 C30.18841372715602 -16.327695603199174, 30.580324527850422 -16.21137853473485, 30.84121470640155 -16.133947699181366 M30.84121470640155 -16.133947699181366 C31.23091333569573 -15.990535001266469, 31.6206119649899 -15.847122303351574, 31.86391408294936 -15.757584874882369 M30.84121470640155 -16.133947699181366 C31.17030980272586 -16.0128376616123, 31.49940489905017 -15.89172762404323, 31.86391408294936 -15.757584874882369 M31.86391408294936 -15.757584874882369 C32.19507083900227 -15.610991602393888, 32.52622759505518 -15.464398329905407, 32.86039856499849 -15.316470754341125 M31.86391408294936 -15.757584874882369 C32.221858066535916 -15.599133691379615, 32.57980205012248 -15.44068250787686, 32.86039856499849 -15.316470754341125 M32.86039856499849 -15.316470754341125 C33.08045318492758 -15.201668400075832, 33.300507804856665 -15.086866045810536, 33.82657338406694 -14.812417970097622 M32.86039856499849 -15.316470754341125 C33.19923703188235 -15.139698943204214, 33.5380754987662 -14.962927132067303, 33.82657338406694 -14.812417970097622 M33.82657338406694 -14.812417970097622 C34.190217304834704 -14.59197488831932, 34.55386122560247 -14.37153180654102, 34.758468320579325 -14.247497783161291 M33.82657338406694 -14.812417970097622 C34.16848213821416 -14.60515087405471, 34.51039089236138 -14.3978837780118, 34.758468320579325 -14.247497783161291 M34.758468320579325 -14.247497783161291 C35.00216088242921 -14.077508401295793, 35.24585344427909 -13.907519019430293, 35.652254018350675 -13.624031571755262 M34.758468320579325 -14.247497783161291 C35.11215593655862 -14.000780613144261, 35.465843552537926 -13.75406344312723, 35.652254018350675 -13.624031571755262 M35.652254018350675 -13.624031571755262 C35.853477076336375 -13.463561537782123, 36.054700134322076 -13.303091503808986, 36.5042577202324 -12.944581292275288 M35.652254018350675 -13.624031571755262 C35.93952255085735 -13.394942561617892, 36.22679108336402 -13.165853551480522, 36.5042577202324 -12.944581292275288 M36.5042577202324 -12.944581292275288 C36.68791218517506 -12.777791166445233, 36.871566650117714 -12.61100104061518, 37.31097836025927 -12.21193895166137 M36.5042577202324 -12.944581292275288 C36.79102034903538 -12.68415106011981, 37.07778297783835 -12.423720827964331, 37.31097836025927 -12.21193895166137 M37.31097836025927 -12.21193895166137 C37.60809588217164 -11.905140716484636, 37.90521340408401 -11.598342481307903, 38.06910095028036 -11.42911513444239 M37.31097836025927 -12.21193895166137 C37.53330446926752 -11.982368990797333, 37.75563057827578 -11.752799029933296, 38.06910095028036 -11.42911513444239 M38.06910095028036 -11.42911513444239 C38.30435282453398 -11.15277489673323, 38.53960469878759 -10.876434659024074, 38.77551020195651 -10.59932663159847 M38.06910095028036 -11.42911513444239 C38.223920350000895 -11.247255458057237, 38.37873974972144 -11.065395781672086, 38.77551020195651 -10.59932663159847 M38.77551020195651 -10.59932663159847 C39.00513264161317 -10.291653481493137, 39.23475508126984 -9.983980331387803, 39.42730332814825 -9.725983222076888 M38.77551020195651 -10.59932663159847 C38.950028257616346 -10.365488335936234, 39.12454631327618 -10.131650040273996, 39.42730332814825 -9.725983222076888 M39.42730332814825 -9.725983222076888 C39.56560916707677 -9.513508313164788, 39.703915006005296 -9.301033404252689, 40.02180197109088 -8.812673661278927 M39.42730332814825 -9.725983222076888 C39.608450645815736 -9.447692297273907, 39.789597963483224 -9.169401372470926, 40.02180197109088 -8.812673661278927 M40.02180197109088 -8.812673661278927 C40.224061100545185 -8.45354209597507, 40.4263202299995 -8.094410530671215, 40.556563208341004 -7.863150934094199 M40.02180197109088 -8.812673661278927 C40.18682134665174 -8.519665049946875, 40.3518407222126 -8.226656438614823, 40.556563208341004 -7.863150934094199 M40.556563208341004 -7.863150934094199 C40.689069204262765 -7.587999398388537, 40.821575200184526 -7.312847862682874, 41.02938959126881 -6.881316833080699 M40.556563208341004 -7.863150934094199 C40.69872752556516 -7.567943687549142, 40.84089184278931 -7.272736441004084, 41.02938959126881 -6.881316833080699 M41.02938959126881 -6.881316833080699 C41.16434240294894 -6.547980779095671, 41.29929521462906 -6.214644725110642, 41.438338174845924 -5.871205925162238 M41.02938959126881 -6.881316833080699 C41.117596686158905 -6.6634436033340005, 41.205803781049 -6.445570373587303, 41.438338174845924 -5.871205925162238 M41.438338174845924 -5.871205925162238 C41.57099128252802 -5.471675900226244, 41.70364439021011 -5.07214587529025, 41.781728501623235 -4.836968972727556 M41.438338174845924 -5.871205925162238 C41.55284250078098 -5.526337139232632, 41.66734682671604 -5.181468353303027, 41.781728501623235 -4.836968972727556 M41.781728501623235 -4.836968972727556 C41.842888726564006 -4.603738528019239, 41.90404895150477 -4.370508083310923, 42.058149507091 -3.7828558772573464 M41.781728501623235 -4.836968972727556 C41.89110949119637 -4.419851853464451, 42.00049048076949 -4.002734734201346, 42.058149507091 -3.7828558772573464 M42.058149507091 -3.7828558772573464 C42.1101777269317 -3.515701964543484, 42.16220594677241 -3.2485480518296215, 42.26646531804565 -2.713198215567453 M42.058149507091 -3.7828558772573464 C42.13839564603944 -3.3708089137845647, 42.21864178498788 -2.9587619503117835, 42.26646531804565 -2.713198215567453 M42.26646531804565 -2.713198215567453 C42.30271416030178 -2.432059353172387, 42.338963002557925 -2.150920490777321, 42.405819920136366 -1.632391440430593 M42.26646531804565 -2.713198215567453 C42.31630973669638 -2.326614747406114, 42.36615415534712 -1.9400312792447751, 42.405819920136366 -1.632391440430593 M42.405819920136366 -1.632391440430593 C42.43241108582456 -1.2182125708343976, 42.45900225151275 -0.8040337012382022, 42.4756406754117 -0.5448768187181379 M42.405819920136366 -1.632391440430593 C42.429038657369915 -1.270740866190732, 42.452257394603464 -0.9090902919508708, 42.4756406754117 -0.5448768187181379 M42.4756406754117 -0.5448768187181379 C42.4756406754117 -0.1816724453564027, 42.4756406754117 0.18153192800533247, 42.4756406754117 0.5448768187181336 M42.4756406754117 -0.5448768187181379 C42.4756406754117 -0.2665559720183796, 42.4756406754117 0.011764874681378656, 42.4756406754117 0.5448768187181336 M42.4756406754117 0.5448768187181336 C42.452970886453805 0.8979770804615401, 42.430301097495914 1.2510773422049466, 42.405819920136366 1.6323914404305815 M42.4756406754117 0.5448768187181336 C42.44884848748802 0.962186771894213, 42.42205629956434 1.3794967250702923, 42.405819920136366 1.6323914404305815 M42.405819920136366 1.6323914404305815 C42.36365281921637 1.959431148330177, 42.32148571829637 2.2864708562297724, 42.266465318045654 2.7131982155674415 M42.405819920136366 1.6323914404305815 C42.35577964094021 2.020493964305176, 42.30573936174405 2.40859648817977, 42.266465318045654 2.7131982155674415 M42.266465318045654 2.7131982155674415 C42.21210596295136 2.992322015122856, 42.15774660785707 3.2714458146782706, 42.058149507091 3.782855877257343 M42.266465318045654 2.7131982155674415 C42.19244224607283 3.0932910453660845, 42.11841917410001 3.4733838751647275, 42.058149507091 3.782855877257343 M42.058149507091 3.782855877257343 C41.9613989669876 4.1518076186209285, 41.86464842688421 4.520759359984513, 41.781728501623235 4.836968972727545 M42.058149507091 3.782855877257343 C41.95150837888471 4.189524717665254, 41.844867250678426 4.596193558073165, 41.781728501623235 4.836968972727545 M41.781728501623235 4.836968972727545 C41.69063954169949 5.111314406963012, 41.599550581775745 5.385659841198478, 41.438338174845924 5.871205925162227 M41.781728501623235 4.836968972727545 C41.70374312101738 5.0718485138293525, 41.62575774041153 5.306728054931161, 41.438338174845924 5.871205925162227 M41.438338174845924 5.871205925162227 C41.33103316112578 6.1362513836522945, 41.22372814740563 6.4012968421423615, 41.02938959126881 6.881316833080694 M41.438338174845924 5.871205925162227 C41.27488600422863 6.274935946719682, 41.111433833611336 6.678665968277138, 41.02938959126881 6.881316833080694 M41.02938959126881 6.881316833080694 C40.87080003022659 7.210631449857881, 40.71221046918437 7.539946066635069, 40.556563208341004 7.863150934094196 M41.02938959126881 6.881316833080694 C40.887253856322914 7.176464727913381, 40.74511812137702 7.471612622746069, 40.556563208341004 7.863150934094196 M40.556563208341004 7.863150934094196 C40.37691684804037 8.182131237974533, 40.197270487739736 8.501111541854868, 40.02180197109089 8.812673661278923 M40.556563208341004 7.863150934094196 C40.375971535814315 8.18380973555514, 40.19537986328763 8.504468537016084, 40.02180197109089 8.812673661278923 M40.02180197109089 8.812673661278923 C39.810492854133166 9.137301209368857, 39.599183737175444 9.461928757458791, 39.427303328148255 9.725983222076879 M40.02180197109089 8.812673661278923 C39.8902030457039 9.014844949932769, 39.75860412031691 9.217016238586613, 39.427303328148255 9.725983222076879 M39.427303328148255 9.725983222076879 C39.29314881575709 9.905738046953534, 39.15899430336593 10.085492871830189, 38.77551020195651 10.599326631598467 M39.427303328148255 9.725983222076879 C39.27052663490996 9.936049708365614, 39.11374994167167 10.146116194654349, 38.77551020195651 10.599326631598467 M38.77551020195651 10.599326631598467 C38.503068947102435 10.91935163189663, 38.230627692248355 11.239376632194793, 38.06910095028037 11.42911513444238 M38.77551020195651 10.599326631598467 C38.58729285716326 10.820417434662927, 38.399075512370025 11.041508237727385, 38.06910095028037 11.42911513444238 M38.06910095028037 11.42911513444238 C37.783852252251364 11.723657834510977, 37.498603554222356 12.018200534579574, 37.31097836025927 12.211938951661365 M38.06910095028037 11.42911513444238 C37.867642772198984 11.637137243335436, 37.666184594117595 11.845159352228492, 37.31097836025927 12.211938951661365 M37.31097836025927 12.211938951661365 C36.99228645224805 12.501366510391337, 36.673594544236835 12.790794069121308, 36.50425772023242 12.944581292275275 M37.31097836025927 12.211938951661365 C37.085272741580255 12.416918822702227, 36.85956712290123 12.62189869374309, 36.50425772023242 12.944581292275275 M36.50425772023242 12.944581292275275 C36.302284247588666 13.105649761968833, 36.10031077494492 13.26671823166239, 35.652254018350675 13.62403157175526 M36.50425772023242 12.944581292275275 C36.1745304001971 13.20753005559095, 35.84480308016179 13.470478818906626, 35.652254018350675 13.62403157175526 M35.652254018350675 13.62403157175526 C35.32932842140778 13.84929048895884, 35.006402824464885 14.074549406162419, 34.75846832057934 14.247497783161286 M35.652254018350675 13.62403157175526 C35.33062205397137 13.848388106882933, 35.00899008959206 14.072744642010605, 34.75846832057934 14.247497783161286 M34.75846832057934 14.247497783161286 C34.486944242263704 14.412097275088822, 34.215420163948075 14.576696767016358, 33.82657338406695 14.81241797009762 M34.75846832057934 14.247497783161286 C34.45093512358528 14.433926214444753, 34.143401926591224 14.620354645728218, 33.82657338406695 14.81241797009762 M33.82657338406695 14.81241797009762 C33.48917911632017 14.988436343469768, 33.1517848485734 15.164454716841918, 32.86039856499849 15.316470754341124 M33.82657338406695 14.81241797009762 C33.48112089940976 14.992640310070396, 33.13566841475257 15.172862650043173, 32.86039856499849 15.316470754341124 M32.86039856499849 15.316470754341124 C32.494497815241566 15.478444162198418, 32.12859706548464 15.640417570055714, 31.863914082949368 15.757584874882367 M32.86039856499849 15.316470754341124 C32.55140420754102 15.453253390395602, 32.24240985008354 15.59003602645008, 31.863914082949368 15.757584874882367 M31.863914082949368 15.757584874882367 C31.595677172098572 15.856298537630282, 31.327440261247776 15.955012200378198, 30.841214706401562 16.133947699181363 M31.863914082949368 15.757584874882367 C31.510296541280002 15.887719399021416, 31.156678999610637 16.017853923160462, 30.841214706401562 16.133947699181363 M30.841214706401562 16.133947699181363 C30.44611081412614 16.251212460466057, 30.051006921850714 16.36847722175075, 29.796502926461642 16.444012671663497 M30.841214706401562 16.133947699181363 C30.473063680711057 16.243212991142137, 30.104912655020552 16.35247828310291, 29.796502926461642 16.444012671663497 M29.796502926461642 16.444012671663497 C29.54148337061986 16.502219221126257, 29.286463814778084 16.560425770589017, 28.734071687923333 16.68650566884811 M29.796502926461642 16.444012671663497 C29.41623474121794 16.530806403463558, 29.03596655597424 16.617600135263615, 28.734071687923333 16.68650566884811 M28.734071687923333 16.68650566884811 C28.392951091307392 16.74165540147924, 28.051830494691455 16.796805134110368, 27.658286748636613 16.86043023499518 M28.734071687923333 16.68650566884811 C28.3375519876261 16.750611898935965, 27.941032287328866 16.81471812902382, 27.658286748636613 16.86043023499518 M27.658286748636613 16.86043023499518 C27.290332978902786 16.89592629263225, 26.922379209168955 16.931422350269322, 26.57356873967212 16.965071676755716 M27.658286748636613 16.86043023499518 C27.334642240654073 16.89165183144079, 27.010997732671534 16.922873427886394, 26.57356873967212 16.965071676755716 M26.57356873967212 16.965071676755716 C26.193281973440026 16.977266733165493, 25.812995207207933 16.98946178957527, 25.484375000000004 17 M26.57356873967212 16.965071676755716 C26.224018635029058 16.976281068253616, 25.874468530385993 16.987490459751516, 25.484375000000004 17 M25.484375000000004 17 C25.484375000000004 17, 25.484375 17, 25.484375 17 M25.484375000000004 17 C25.484375000000004 17, 25.484375000000004 17, 25.484375 17 M25.484375 17 C10.066485045730806 17, -5.351404908538388 17, -25.484374999999996 17 M25.484375 17 C9.319330745653229 17, -6.845713508693542 17, -25.484374999999996 17 M-25.484374999999996 17 C-25.856356774067166 16.988071268524266, -26.228338548134335 16.97614253704853, -26.573568739672112 16.965071676755716 M-25.484374999999996 17 C-25.791194984398405 16.990160880289213, -26.098014968796814 16.980321760578427, -26.573568739672112 16.965071676755716 M-26.573568739672112 16.965071676755716 C-26.807405107073947 16.94251376362184, -27.04124147447578 16.91995585048796, -27.658286748636606 16.86043023499518 M-26.573568739672112 16.965071676755716 C-26.816739383257836 16.94161329722449, -27.05991002684356 16.91815491769326, -27.658286748636606 16.86043023499518 M-27.658286748636606 16.86043023499518 C-27.912164879893208 16.819385187587926, -28.16604301114981 16.778340140180674, -28.73407168792333 16.68650566884811 M-27.658286748636606 16.86043023499518 C-27.996613980428833 16.805732111925884, -28.33494121222106 16.751033988856584, -28.73407168792333 16.68650566884811 M-28.73407168792333 16.68650566884811 C-28.987019330964195 16.628772019961662, -29.239966974005057 16.57103837107522, -29.79650292646162 16.4440126716635 M-28.73407168792333 16.68650566884811 C-29.079407060163994 16.607685123658083, -29.424742432404663 16.52886457846806, -29.79650292646162 16.4440126716635 M-29.79650292646162 16.4440126716635 C-30.21243586837431 16.32056595778038, -30.628368810286997 16.19711924389726, -30.841214706401544 16.13394769918137 M-29.79650292646162 16.4440126716635 C-30.099428007043368 16.354106097833036, -30.402353087625116 16.264199524002567, -30.841214706401544 16.13394769918137 M-30.841214706401544 16.13394769918137 C-31.201617982362936 16.001315962096214, -31.562021258324332 15.868684225011059, -31.86391408294936 15.757584874882369 M-30.841214706401544 16.13394769918137 C-31.086720431683545 16.043599322847545, -31.33222615696555 15.953250946513721, -31.86391408294936 15.757584874882369 M-31.86391408294936 15.757584874882369 C-32.13027376039396 15.639675346956741, -32.39663343783857 15.521765819031115, -32.86039856499848 15.316470754341127 M-31.86391408294936 15.757584874882369 C-32.07252720544783 15.665238033840705, -32.2811403279463 15.572891192799043, -32.86039856499848 15.316470754341127 M-32.86039856499848 15.316470754341127 C-33.06733149428281 15.20851397768036, -33.274264423567146 15.10055720101959, -33.82657338406693 14.812417970097624 M-32.86039856499848 15.316470754341127 C-33.21976049577218 15.128991865238794, -33.57912242654587 14.94151297613646, -33.82657338406693 14.812417970097624 M-33.82657338406693 14.812417970097624 C-34.197528957568515 14.587542521464043, -34.5684845310701 14.362667072830462, -34.75846832057932 14.247497783161299 M-33.82657338406693 14.812417970097624 C-34.07207172053689 14.663595435821172, -34.317570057006854 14.514772901544719, -34.75846832057932 14.247497783161299 M-34.75846832057932 14.247497783161299 C-35.10000975981594 14.009253260240442, -35.44155119905256 13.771008737319583, -35.65225401835067 13.624031571755264 M-34.75846832057932 14.247497783161299 C-35.097494427471915 14.011007847196648, -35.43652053436452 13.774517911231998, -35.65225401835067 13.624031571755264 M-35.65225401835067 13.624031571755264 C-35.87945145230132 13.442847664157252, -36.106648886251975 13.26166375655924, -36.5042577202324 12.94458129227529 M-35.65225401835067 13.624031571755264 C-35.88405330187406 13.439177811583354, -36.11585258539745 13.254324051411443, -36.5042577202324 12.94458129227529 M-36.5042577202324 12.94458129227529 C-36.70249098170016 12.764551089174958, -36.90072424316791 12.584520886074628, -37.31097836025926 12.211938951661377 M-36.5042577202324 12.94458129227529 C-36.790605193354786 12.68452809352451, -37.07695266647717 12.424474894773727, -37.31097836025926 12.211938951661377 M-37.31097836025926 12.211938951661377 C-37.613184738717266 11.899886054298383, -37.915391117175275 11.587833156935389, -38.069100950280365 11.429115134442386 M-37.31097836025926 12.211938951661377 C-37.48349864597436 12.033797592481669, -37.65601893168945 11.85565623330196, -38.069100950280365 11.429115134442386 M-38.069100950280365 11.429115134442386 C-38.32177117375151 11.132314312610177, -38.57444139722265 10.835513490777966, -38.77551020195651 10.599326631598473 M-38.069100950280365 11.429115134442386 C-38.2970114694847 11.161398470109047, -38.524921988689044 10.893681805775708, -38.77551020195651 10.599326631598473 M-38.77551020195651 10.599326631598473 C-38.95351775746204 10.36081272404298, -39.13152531296757 10.122298816487486, -39.42730332814825 9.72598322207689 M-38.77551020195651 10.599326631598473 C-38.952930844683294 10.36159913369764, -39.13035148741009 10.123871635796805, -39.42730332814825 9.72598322207689 M-39.42730332814825 9.72598322207689 C-39.56986936025495 9.506963512421065, -39.71243539236165 9.287943802765238, -40.02180197109088 8.812673661278936 M-39.42730332814825 9.72598322207689 C-39.625582319582016 9.421373445870366, -39.82386131101579 9.11676366966384, -40.02180197109088 8.812673661278936 M-40.02180197109088 8.812673661278936 C-40.215202030285155 8.469272272299909, -40.40860208947943 8.12587088332088, -40.556563208341004 7.863150934094201 M-40.02180197109088 8.812673661278936 C-40.15952933518063 8.56812477992968, -40.29725669927038 8.323575898580424, -40.556563208341004 7.863150934094201 M-40.556563208341004 7.863150934094201 C-40.71898788705744 7.525872613408144, -40.881412565773864 7.188594292722087, -41.02938959126881 6.881316833080701 M-40.556563208341004 7.863150934094201 C-40.73768134200738 7.4870552542287285, -40.91879947567375 7.110959574363255, -41.02938959126881 6.881316833080701 M-41.02938959126881 6.881316833080701 C-41.14455947731381 6.5968449878912825, -41.25972936335881 6.312373142701864, -41.438338174845924 5.87120592516224 M-41.02938959126881 6.881316833080701 C-41.12606938088054 6.6425158835631635, -41.222749170492264 6.4037149340456265, -41.438338174845924 5.87120592516224 M-41.438338174845924 5.87120592516224 C-41.55270322010828 5.526756630427466, -41.667068265370624 5.182307335692691, -41.781728501623235 4.8369689727275516 M-41.438338174845924 5.87120592516224 C-41.54277509822753 5.556658551700853, -41.64721202160914 5.242111178239466, -41.781728501623235 4.8369689727275516 M-41.781728501623235 4.8369689727275516 C-41.877693596646495 4.471012473868574, -41.973658691669755 4.105055975009597, -42.058149507091 3.782855877257349 M-41.781728501623235 4.8369689727275516 C-41.8777607905951 4.470756234220527, -41.97379307956695 4.104543495713502, -42.058149507091 3.782855877257349 M-42.058149507091 3.782855877257349 C-42.13850788789716 3.3702325755674982, -42.21886626870332 2.957609273877648, -42.26646531804565 2.713198215567455 M-42.058149507091 3.782855877257349 C-42.134980541361756 3.3883447545218646, -42.21181157563251 2.99383363178638, -42.26646531804565 2.713198215567455 M-42.26646531804565 2.713198215567455 C-42.299503145024524 2.456963353576122, -42.33254097200341 2.2007284915847896, -42.405819920136366 1.6323914404306026 M-42.26646531804565 2.713198215567455 C-42.29585061419781 2.485291661394315, -42.32523591034998 2.257385107221175, -42.405819920136366 1.6323914404306026 M-42.405819920136366 1.6323914404306026 C-42.42376638406098 1.352860778679779, -42.4417128479856 1.0733301169289553, -42.4756406754117 0.54487681871814 M-42.405819920136366 1.6323914404306026 C-42.4300141803321 1.2555463086267036, -42.45420844052784 0.8787011768228045, -42.4756406754117 0.54487681871814 M-42.4756406754117 0.54487681871814 C-42.4756406754117 0.16538682832878676, -42.4756406754117 -0.21410316206056645, -42.4756406754117 -0.5448768187181317 M-42.4756406754117 0.54487681871814 C-42.4756406754117 0.2100085748386557, -42.4756406754117 -0.12485966904082857, -42.4756406754117 -0.5448768187181317 M-42.4756406754117 -0.5448768187181317 C-42.45385680592806 -0.8841781695487243, -42.43207293644442 -1.2234795203793167, -42.405819920136366 -1.6323914404305793 M-42.4756406754117 -0.5448768187181317 C-42.46017933409073 -0.7856996899622145, -42.44471799276977 -1.0265225612062974, -42.405819920136366 -1.6323914404305793 M-42.405819920136366 -1.6323914404305793 C-42.36650557725273 -1.937305720340963, -42.327191234369096 -2.2422200002513466, -42.266465318045654 -2.713198215567447 M-42.405819920136366 -1.6323914404305793 C-42.355882585382496 -2.019695547539498, -42.305945250628625 -2.406999654648417, -42.266465318045654 -2.713198215567447 M-42.266465318045654 -2.713198215567447 C-42.214417812210726 -2.980451157785549, -42.1623703063758 -3.2477041000036513, -42.058149507091 -3.782855877257341 M-42.266465318045654 -2.713198215567447 C-42.209308613261214 -3.0066858145616986, -42.15215190847678 -3.3001734135559504, -42.058149507091 -3.782855877257341 M-42.058149507091 -3.782855877257341 C-41.999230561622575 -4.007539351960943, -41.940311616154155 -4.232222826664545, -41.781728501623235 -4.836968972727544 M-42.058149507091 -3.782855877257341 C-41.95853834814594 -4.162716398064242, -41.85892718920088 -4.542576918871142, -41.781728501623235 -4.836968972727544 M-41.781728501623235 -4.836968972727544 C-41.70976501472584 -5.053711529437942, -41.63780152782845 -5.270454086148341, -41.43833817484593 -5.871205925162218 M-41.781728501623235 -4.836968972727544 C-41.65104854582499 -5.230556178568439, -41.520368590026756 -5.624143384409334, -41.43833817484593 -5.871205925162218 M-41.43833817484593 -5.871205925162218 C-41.33383757155999 -6.129324435660218, -41.22933696827404 -6.387442946158217, -41.02938959126881 -6.881316833080692 M-41.43833817484593 -5.871205925162218 C-41.343135987643336 -6.106357168161703, -41.24793380044074 -6.341508411161189, -41.02938959126881 -6.881316833080692 M-41.02938959126881 -6.881316833080692 C-40.86331143199533 -7.226181684315432, -40.697233272721846 -7.571046535550173, -40.556563208341004 -7.863150934094194 M-41.02938959126881 -6.881316833080692 C-40.889828062627615 -7.171119333442472, -40.75026653398643 -7.460921833804252, -40.556563208341004 -7.863150934094194 M-40.556563208341004 -7.863150934094194 C-40.363700190655926 -8.205598751492289, -40.170837172970856 -8.548046568890385, -40.02180197109088 -8.812673661278929 M-40.556563208341004 -7.863150934094194 C-40.44673395915278 -8.058163887445332, -40.33690470996456 -8.253176840796469, -40.02180197109088 -8.812673661278929 M-40.02180197109088 -8.812673661278929 C-39.79356042279764 -9.163313970894672, -39.565318874504406 -9.513954280510413, -39.42730332814825 -9.725983222076884 M-40.02180197109088 -8.812673661278929 C-39.902094983090834 -8.996575740674116, -39.782387995090794 -9.180477820069301, -39.42730332814825 -9.725983222076884 M-39.42730332814825 -9.725983222076884 C-39.17412474469274 -10.065219458863824, -38.920946161237225 -10.404455695650762, -38.77551020195651 -10.599326631598467 M-39.42730332814825 -9.725983222076884 C-39.18816504569438 -10.046406734619357, -38.94902676324051 -10.36683024716183, -38.77551020195651 -10.599326631598467 M-38.77551020195651 -10.599326631598467 C-38.52393356944436 -10.894842859263157, -38.27235693693221 -11.190359086927849, -38.06910095028037 -11.42911513444238 M-38.77551020195651 -10.599326631598467 C-38.63089939926039 -10.769194709033108, -38.48628859656427 -10.939062786467748, -38.06910095028037 -11.42911513444238 M-38.06910095028037 -11.42911513444238 C-37.91544669072935 -11.587775772678137, -37.761792431178314 -11.746436410913894, -37.31097836025928 -12.21193895166136 M-38.06910095028037 -11.42911513444238 C-37.854608948557704 -11.650595736341879, -37.640116946835036 -11.87207633824138, -37.31097836025928 -12.21193895166136 M-37.31097836025928 -12.21193895166136 C-37.13026315505826 -12.37605971956261, -36.94954794985724 -12.540180487463862, -36.50425772023242 -12.944581292275274 M-37.31097836025928 -12.21193895166136 C-36.989345816560665 -12.504037117917662, -36.66771327286206 -12.796135284173964, -36.50425772023242 -12.944581292275274 M-36.50425772023242 -12.944581292275274 C-36.27946461712847 -13.12384781000497, -36.05467151402452 -13.303114327734667, -35.652254018350675 -13.624031571755259 M-36.50425772023242 -12.944581292275274 C-36.23615435774862 -13.158386589325994, -35.96805099526482 -13.372191886376717, -35.652254018350675 -13.624031571755259 M-35.652254018350675 -13.624031571755259 C-35.42125267735607 -13.78516810734621, -35.19025133636148 -13.946304642937163, -34.75846832057934 -14.247497783161284 M-35.652254018350675 -13.624031571755259 C-35.43626069119316 -13.774699166579907, -35.22026736403564 -13.925366761404558, -34.75846832057934 -14.247497783161284 M-34.75846832057934 -14.247497783161284 C-34.543508926121575 -14.377807431323204, -34.3285495316638 -14.508117079485121, -33.82657338406695 -14.812417970097618 M-34.75846832057934 -14.247497783161284 C-34.394421224767285 -14.468185272020754, -34.03037412895523 -14.688872760880223, -33.82657338406695 -14.812417970097618 M-33.82657338406695 -14.812417970097618 C-33.6003034508973 -14.930462849299413, -33.37403351772765 -15.048507728501209, -32.86039856499849 -15.316470754341124 M-33.82657338406695 -14.812417970097618 C-33.536032365827914 -14.963993033212518, -33.24549134758888 -15.115568096327417, -32.86039856499849 -15.316470754341124 M-32.86039856499849 -15.316470754341124 C-32.47951408038137 -15.485077017144322, -32.09862959576426 -15.65368327994752, -31.863914082949368 -15.757584874882365 M-32.86039856499849 -15.316470754341124 C-32.642353456142494 -15.41299285595333, -32.42430834728649 -15.509514957565539, -31.863914082949368 -15.757584874882365 M-31.863914082949368 -15.757584874882365 C-31.48456918302349 -15.897187304680905, -31.10522428309761 -16.036789734479445, -30.841214706401566 -16.133947699181363 M-31.863914082949368 -15.757584874882365 C-31.458111661027026 -15.906923917346255, -31.05230923910468 -16.056262959810145, -30.841214706401566 -16.133947699181363 M-30.841214706401566 -16.133947699181363 C-30.590542942643783 -16.208345762861732, -30.339871178885996 -16.282743826542106, -29.796502926461642 -16.444012671663494 M-30.841214706401566 -16.133947699181363 C-30.575586702300033 -16.21278469648885, -30.309958698198496 -16.29162169379634, -29.796502926461642 -16.444012671663494 M-29.796502926461642 -16.444012671663494 C-29.56242826754656 -16.49743868508096, -29.328353608631485 -16.55086469849843, -28.734071687923336 -16.68650566884811 M-29.796502926461642 -16.444012671663494 C-29.435035017803795 -16.526515363016102, -29.073567109145948 -16.60901805436871, -28.734071687923336 -16.68650566884811 M-28.734071687923336 -16.68650566884811 C-28.304126514759695 -16.756015870170593, -27.874181341596053 -16.825526071493073, -27.658286748636613 -16.86043023499518 M-28.734071687923336 -16.68650566884811 C-28.42520352506799 -16.736441078110186, -28.11633536221264 -16.78637648737226, -27.658286748636613 -16.86043023499518 M-27.658286748636613 -16.86043023499518 C-27.380627581346655 -16.88721568092964, -27.102968414056697 -16.914001126864097, -26.57356873967212 -16.965071676755716 M-27.658286748636613 -16.86043023499518 C-27.398077829166294 -16.885532276509473, -27.13786890969597 -16.910634318023764, -26.57356873967212 -16.965071676755716 M-26.57356873967212 -16.965071676755716 C-26.214556970286925 -16.97658448542588, -25.855545200901734 -16.98809729409605, -25.484375000000004 -17 M-26.57356873967212 -16.965071676755716 C-26.219855573008 -16.97641456954972, -25.866142406343883 -16.98775746234373, -25.484375000000004 -17 M-25.484375000000004 -17 C-25.484375000000004 -17, -25.484375 -17, -25.484375 -17 M-25.484375000000004 -17 C-25.484375000000004 -17, -25.484375000000004 -17, -25.484375 -17" stroke="#9370DB" stroke-width="1.3" fill="none" stroke-dasharray="0 0" style=""></path></g><g class="label" style="" transform="translate(0, -9.5)"><rect></rect><g><rect class="background" style="stroke: none"></rect><text y="-10.1" style=""><tspan class="text-outer-tspan row" x="0" y="-0.1em" dy="1.1em"><tspan font-style="normal" class="text-inner-tspan" font-weight="normal">Attacker</tspan></tspan></text></g></g></g></g></g></g><defs><filter id="g7c93f8a1-e327-42dc-bbc2-73bdafcfa9f1-flip-drop-shadow" height="130%" width="130%"><feDropShadow dx="4" dy="4" stdDeviation="0" flood-opacity="0.06" flood-color="#000000"></feDropShadow></filter></defs><defs><filter id="g7c93f8a1-e327-42dc-bbc2-73bdafcfa9f1-flip-drop-shadow-small" height="150%" width="150%"><feDropShadow dx="2" dy="2" stdDeviation="0" flood-opacity="0.06" flood-color="#000000"></feDropShadow></filter></defs></svg>