<svg id="ga9af61a5-6a5b-4c52-8ff9-b652b75957f9-flip" width="100%" xmlns="http://www.w3.org/2000/svg" xmlns:xlink="http://www.w3.org/1999/xlink" class="flowchart" style="max-width: 2497.42041015625px;" viewBox="0 0 2497.42041015625 600.3687744140625" role="graphics-document document" aria-roledescription="flowchart-v2"><style>#ga9af61a5-6a5b-4c52-8ff9-b652b75957f9-flip{font-family:"trebuchet ms",verdana,arial,sans-serif;font-size:16px;fill:#333;}@keyframes edge-animation-frame{from{stroke-dashoffset:0;}}@keyframes dash{to{stroke-dashoffset:0;}}#ga9af61a5-6a5b-4c52-8ff9-b652b75957f9-flip .edge-animation-slow{stroke-dasharray:9,5!important;stroke-dashoffset:900;animation:dash 50s linear infinite;stroke-linecap:round;}#ga9af61a5-6a5b-4c52-8ff9-b652b75957f9-flip .edge-animation-fast{stroke-dasharray:9,5!important;stroke-dashoffset:900;animation:dash 20s linear infinite;stroke-linecap:round;}#ga9af61a5-6a5b-4c52-8ff9-b652b75957f9-flip .error-icon{fill:#552222;}#ga9af61a5-6a5b-4c52-8ff9-b652b75957f9-flip .error-text{fill:#552222;stroke:#552222;}#ga9af61a5-6a5b-4c52-8ff9-b652b75957f9-flip .edge-thickness-normal{stroke-width:1px;}#ga9af61a5-6a5b-4c52-8ff9-b652b75957f9-flip .edge-thickness-thick{stroke-width:3.5px;}#ga9af61a5-6a5b-4c52-8ff9-b652b75957f9-flip .edge-pattern-solid{stroke-dasharray:0;}#ga9af61a5-6a5b-4c52-8ff9-b652b75957f9-flip .edge-thickness-invisible{stroke-width:0;fill:none;}#ga9af61a5-6a5b-4c52-8ff9-b652b75957f9-flip .edge-pattern-dashed{stroke-dasharray:3;}#ga9af61a5-6a5b-4c52-8ff9-b652b75957f9-flip .edge-pattern-dotted{stroke-dasharray:2;}#ga9af61a5-6a5b-4c52-8ff9-b652b75957f9-flip .marker{fill:#333333;stroke:#333333;}#ga9af61a5-6a5b-4c52-8ff9-b652b75957f9-flip .marker.cross{stroke:#333333;}#ga9af61a5-6a5b-4c52-8ff9-b652b75957f9-flip svg{font-family:"trebuchet ms",verdana,arial,sans-serif;font-size:16px;}#ga9af61a5-6a5b-4c52-8ff9-b652b75957f9-flip p{margin:0;}#ga9af61a5-6a5b-4c52-8ff9-b652b75957f9-flip .label{font-family:"trebuchet ms",verdana,arial,sans-serif;color:#333;}#ga9af61a5-6a5b-4c52-8ff9-b652b75957f9-flip .cluster-label text{fill:#333;}#ga9af61a5-6a5b-4c52-8ff9-b652b75957f9-flip .cluster-label span{color:#333;}#ga9af61a5-6a5b-4c52-8ff9-b652b75957f9-flip .cluster-label span p{background-color:transparent;}#ga9af61a5-6a5b-4c52-8ff9-b652b75957f9-flip .label text,#ga9af61a5-6a5b-4c52-8ff9-b652b75957f9-flip span{fill:#333;color:#333;}#ga9af61a5-6a5b-4c52-8ff9-b652b75957f9-flip .node rect,#ga9af61a5-6a5b-4c52-8ff9-b652b75957f9-flip .node circle,#ga9af61a5-6a5b-4c52-8ff9-b652b75957f9-flip .node ellipse,#ga9af61a5-6a5b-4c52-8ff9-b652b75957f9-flip .node polygon,#ga9af61a5-6a5b-4c52-8ff9-b652b75957f9-flip .node path{fill:#ECECFF;stroke:#9370DB;stroke-width:1px;}#ga9af61a5-6a5b-4c52-8ff9-b652b75957f9-flip .rough-node .label text,#ga9af61a5-6a5b-4c52-8ff9-b652b75957f9-flip .node .label text,#ga9af61a5-6a5b-4c52-8ff9-b652b75957f9-flip .image-shape .label,#ga9af61a5-6a5b-4c52-8ff9-b652b75957f9-flip .icon-shape .label{text-anchor:middle;}#ga9af61a5-6a5b-4c52-8ff9-b652b75957f9-flip .node .katex path{fill:#000;stroke:#000;stroke-width:1px;}#ga9af61a5-6a5b-4c52-8ff9-b652b75957f9-flip .rough-node .label,#ga9af61a5-6a5b-4c52-8ff9-b652b75957f9-flip .node .label,#ga9af61a5-6a5b-4c52-8ff9-b652b75957f9-flip .image-shape .label,#ga9af61a5-6a5b-4c52-8ff9-b652b75957f9-flip .icon-shape .label{text-align:center;}#ga9af61a5-6a5b-4c52-8ff9-b652b75957f9-flip .node.clickable{cursor:pointer;}#ga9af61a5-6a5b-4c52-8ff9-b652b75957f9-flip .root .anchor path{fill:#333333!important;stroke-width:0;stroke:#333333;}#ga9af61a5-6a5b-4c52-8ff9-b652b75957f9-flip .arrowheadPath{fill:#333333;}#ga9af61a5-6a5b-4c52-8ff9-b652b75957f9-flip .edgePath .path{stroke:#333333;stroke-width:1px;}#ga9af61a5-6a5b-4c52-8ff9-b652b75957f9-flip .flowchart-link{stroke:#333333;fill:none;}#ga9af61a5-6a5b-4c52-8ff9-b652b75957f9-flip .edgeLabel{background-color:rgba(232,232,232, 0.8);text-align:center;}#ga9af61a5-6a5b-4c52-8ff9-b652b75957f9-flip .edgeLabel p{background-color:rgba(232,232,232, 0.8);}#ga9af61a5-6a5b-4c52-8ff9-b652b75957f9-flip .edgeLabel rect{opacity:0.5;background-color:rgba(232,232,232, 0.8);fill:rgba(232,232,232, 0.8);}#ga9af61a5-6a5b-4c52-8ff9-b652b75957f9-flip .labelBkg{background-color:rgba(232, 232, 232, 0.5);}#ga9af61a5-6a5b-4c52-8ff9-b652b75957f9-flip .cluster rect{fill:#ffffde;stroke:#aaaa33;stroke-width:1px;}#ga9af61a5-6a5b-4c52-8ff9-b652b75957f9-flip .cluster text{fill:#333;}#ga9af61a5-6a5b-4c52-8ff9-b652b75957f9-flip .cluster span{color:#333;}#ga9af61a5-6a5b-4c52-8ff9-b652b75957f9-flip div.mermaidTooltip{position:absolute;text-align:center;max-width:200px;padding:2px;font-family:"trebuchet ms",verdana,arial,sans-serif;font-size:12px;background:hsl(80, 100%, 96.2745098039%);border:1px solid #aaaa33;border-radius:2px;pointer-events:none;z-index:100;}#ga9af61a5-6a5b-4c52-8ff9-b652b75957f9-flip .flowchartTitleText{text-anchor:middle;font-size:18px;fill:#333;}#ga9af61a5-6a5b-4c52-8ff9-b652b75957f9-flip rect.text{fill:none;stroke-width:0;}#ga9af61a5-6a5b-4c52-8ff9-b652b75957f9-flip .icon-shape,#ga9af61a5-6a5b-4c52-8ff9-b652b75957f9-flip .image-shape{background-color:rgba(232,232,232, 0.8);text-align:center;}#ga9af61a5-6a5b-4c52-8ff9-b652b75957f9-flip .icon-shape p,#ga9af61a5-6a5b-4c52-8ff9-b652b75957f9-flip .image-shape p{background-color:rgba(232,232,232, 0.8);padding:2px;}#ga9af61a5-6a5b-4c52-8ff9-b652b75957f9-flip .icon-shape .label rect,#ga9af61a5-6a5b-4c52-8ff9-b652b75957f9-flip .image-shape .label rect{opacity:0.5;background-color:rgba(232,232,232, 0.8);fill:rgba(232,232,232, 0.8);}#ga9af61a5-6a5b-4c52-8ff9-b652b75957f9-flip .label-icon{display:inline-block;height:1em;overflow:visible;vertical-align:-0.125em;}#ga9af61a5-6a5b-4c52-8ff9-b652b75957f9-flip .node .label-icon path{fill:currentColor;stroke:revert;stroke-width:revert;}#ga9af61a5-6a5b-4c52-8ff9-b652b75957f9-flip .node .neo-node{stroke:#9370DB;}#ga9af61a5-6a5b-4c52-8ff9-b652b75957f9-flip [data-look="neo"].node rect,#ga9af61a5-6a5b-4c52-8ff9-b652b75957f9-flip [data-look="neo"].cluster rect,#ga9af61a5-6a5b-4c52-8ff9-b652b75957f9-flip [data-look="neo"].node polygon{stroke:#9370DB;filter:drop-shadow(1px 2px 2px rgba(185, 185, 185, 1));}#ga9af61a5-6a5b-4c52-8ff9-b652b75957f9-flip [data-look="neo"].node path{stroke:#9370DB;stroke-width:1px;}#ga9af61a5-6a5b-4c52-8ff9-b652b75957f9-flip [data-look="neo"].node .outer-path{filter:drop-shadow(1px 2px 2px rgba(185, 185, 185, 1));}#ga9af61a5-6a5b-4c52-8ff9-b652b75957f9-flip [data-look="neo"].node .neo-line path{stroke:#9370DB;filter:none;}#ga9af61a5-6a5b-4c52-8ff9-b652b75957f9-flip [data-look="neo"].node circle{stroke:#9370DB;filter:drop-shadow(1px 2px 2px rgba(185, 185, 185, 1));}#ga9af61a5-6a5b-4c52-8ff9-b652b75957f9-flip [data-look="neo"].node circle .state-start{fill:#000000;}#ga9af61a5-6a5b-4c52-8ff9-b652b75957f9-flip [data-look="neo"].icon-shape .icon{fill:#9370DB;filter:drop-shadow(1px 2px 2px rgba(185, 185, 185, 1));}#ga9af61a5-6a5b-4c52-8ff9-b652b75957f9-flip [data-look="neo"].icon-shape .icon-neo path{stroke:#9370DB;filter:drop-shadow(1px 2px 2px rgba(185, 185, 185, 1));}#ga9af61a5-6a5b-4c52-8ff9-b652b75957f9-flip :root{--mermaid-font-family:"trebuchet ms",verdana,arial,sans-serif;}#ga9af61a5-6a5b-4c52-8ff9-b652b75957f9-flip .reject rect{fill:#fee!important;stroke:#a00!important;color:#600!important;}#ga9af61a5-6a5b-4c52-8ff9-b652b75957f9-flip .reject polygon{fill:#fee!important;stroke:#a00!important;color:#600!important;}#ga9af61a5-6a5b-4c52-8ff9-b652b75957f9-flip .reject ellipse{fill:#fee!important;stroke:#a00!important;color:#600!important;}#ga9af61a5-6a5b-4c52-8ff9-b652b75957f9-flip .reject circle{fill:#fee!important;stroke:#a00!important;color:#600!important;}#ga9af61a5-6a5b-4c52-8ff9-b652b75957f9-flip .reject path{fill:#fee!important;stroke:#a00!important;color:#600!important;}#ga9af61a5-6a5b-4c52-8ff9-b652b75957f9-flip .reject tspan{fill:#600!important;}#ga9af61a5-6a5b-4c52-8ff9-b652b75957f9-flip .allow rect{fill:#efe!important;stroke:#070!important;color:#040!important;}#ga9af61a5-6a5b-4c52-8ff9-b652b75957f9-flip .allow polygon{fill:#efe!important;stroke:#070!important;color:#040!important;}#ga9af61a5-6a5b-4c52-8ff9-b652b75957f9-flip .allow ellipse{fill:#efe!important;stroke:#070!important;color:#040!important;}#ga9af61a5-6a5b-4c52-8ff9-b652b75957f9-flip .allow circle{fill:#efe!important;stroke:#070!important;color:#040!important;}#ga9af61a5-6a5b-4c52-8ff9-b652b75957f9-flip .allow path{fill:#efe!important;stroke:#070!important;color:#040!important;}#ga9af61a5-6a5b-4c52-8ff9-b652b75957f9-flip .allow tspan{fill:#040!important;}</style><g><marker id="ga9af61a5-6a5b-4c52-8ff9-b652b75957f9-flip_flowchart-v2-pointEnd" class="marker flowchart-v2" viewBox="0 0 10 10" refX="5" refY="5" markerUnits="userSpaceOnUse" markerWidth="8" markerHeight="8" orient="auto"><path d="M 0 0 L 10 5 L 0 10 z" class="arrowMarkerPath" style="stroke-width: 1; stroke-dasharray: 1, 0;"></path></marker><marker id="ga9af61a5-6a5b-4c52-8ff9-b652b75957f9-flip_flowchart-v2-pointStart" class="marker flowchart-v2" viewBox="0 0 10 10" refX="4.5" refY="5" markerUnits="userSpaceOnUse" markerWidth="8" markerHeight="8" orient="auto"><path d="M 0 5 L 10 10 L 10 0 z" class="arrowMarkerPath" style="stroke-width: 1; stroke-dasharray: 1, 0;"></path></marker><marker id="ga9af61a5-6a5b-4c52-8ff9-b652b75957f9-flip_flowchart-v2-pointEnd-margin" class="marker flowchart-v2" viewBox="0 0 11.5 14" refX="11.5" refY="7" markerUnits="userSpaceOnUse" markerWidth="10.5" markerHeight="14" orient="auto"><path d="M 0 0 L 11.5 7 L 0 14 z" class="arrowMarkerPath" style="stroke-width: 0; stroke-dasharray: 1, 0;"></path></marker><marker id="ga9af61a5-6a5b-4c52-8ff9-b652b75957f9-flip_flowchart-v2-pointStart-margin" class="marker flowchart-v2" viewBox="0 0 11.5 14" refX="1" refY="7" markerUnits="userSpaceOnUse" markerWidth="11.5" markerHeight="14" orient="auto"><polygon points="0,7 11.5,14 11.5,0" class="arrowMarkerPath" style="stroke-width: 0; stroke-dasharray: 1, 0;"></polygon></marker><marker id="ga9af61a5-6a5b-4c52-8ff9-b652b75957f9-flip_flowchart-v2-circleEnd" class="marker flowchart-v2" viewBox="0 0 10 10" refX="11" refY="5" markerUnits="userSpaceOnUse" markerWidth="11" markerHeight="11" orient="auto"><circle cx="5" cy="5" r="5" class="arrowMarkerPath" style="stroke-width: 1; stroke-dasharray: 1, 0;"></circle></marker><marker id="ga9af61a5-6a5b-4c52-8ff9-b652b75957f9-flip_flowchart-v2-circleStart" class="marker flowchart-v2" viewBox="0 0 10 10" refX="-1" refY="5" markerUnits="userSpaceOnUse" markerWidth="11" markerHeight="11" orient="auto"><circle cx="5" cy="5" r="5" class="arrowMarkerPath" style="stroke-width: 1; stroke-dasharray: 1, 0;"></circle></marker><marker id="ga9af61a5-6a5b-4c52-8ff9-b652b75957f9-flip_flowchart-v2-circleEnd-margin" class="marker flowchart-v2" viewBox="0 0 10 10" refY="5" refX="12.25" markerUnits="userSpaceOnUse" markerWidth="14" markerHeight="14" orient="auto"><circle cx="5" cy="5" r="5" class="arrowMarkerPath" style="stroke-width: 0; stroke-dasharray: 1, 0;"></circle></marker><marker id="ga9af61a5-6a5b-4c52-8ff9-b652b75957f9-flip_flowchart-v2-circleStart-margin" class="marker flowchart-v2" viewBox="0 0 10 10" refX="-2" refY="5" markerUnits="userSpaceOnUse" markerWidth="14" markerHeight="14" orient="auto"><circle cx="5" cy="5" r="5" class="arrowMarkerPath" style="stroke-width: 0; stroke-dasharray: 1, 0;"></circle></marker><marker id="ga9af61a5-6a5b-4c52-8ff9-b652b75957f9-flip_flowchart-v2-crossEnd" class="marker cross flowchart-v2" viewBox="0 0 11 11" refX="12" refY="5.2" markerUnits="userSpaceOnUse" markerWidth="11" markerHeight="11" orient="auto"><path d="M 1,1 l 9,9 M 10,1 l -9,9" class="arrowMarkerPath" style="stroke-width: 2; stroke-dasharray: 1, 0;"></path></marker><marker id="ga9af61a5-6a5b-4c52-8ff9-b652b75957f9-flip_flowchart-v2-crossStart" class="marker cross flowchart-v2" viewBox="0 0 11 11" refX="-1" refY="5.2" markerUnits="userSpaceOnUse" markerWidth="11" markerHeight="11" orient="auto"><path d="M 1,1 l 9,9 M 10,1 l -9,9" class="arrowMarkerPath" style="stroke-width: 2; stroke-dasharray: 1, 0;"></path></marker><marker id="ga9af61a5-6a5b-4c52-8ff9-b652b75957f9-flip_flowchart-v2-crossEnd-margin" class="marker cross flowchart-v2" viewBox="0 0 15 15" refX="17.7" refY="7.5" markerUnits="userSpaceOnUse" markerWidth="12" markerHeight="12" orient="auto"><path d="M 1,1 L 14,14 M 1,14 L 14,1" class="arrowMarkerPath" style="stroke-width: 2.5;"></path></marker><marker id="ga9af61a5-6a5b-4c52-8ff9-b652b75957f9-flip_flowchart-v2-crossStart-margin" class="marker cross flowchart-v2" viewBox="0 0 15 15" refX="-3.5" refY="7.5" markerUnits="userSpaceOnUse" markerWidth="12" markerHeight="12" orient="auto"><path d="M 1,1 L 14,14 M 1,14 L 14,1" class="arrowMarkerPath" style="stroke-width: 2.5; stroke-dasharray: 1, 0;"></path></marker><g class="root"><g class="clusters"></g><g class="edgePaths"><path d="M211.967,148.988L216.051,148.904C220.134,148.821,228.301,148.654,235.884,148.571C243.467,148.488,250.467,148.488,253.967,148.488L257.467,148.488" id="ga9af61a5-6a5b-4c52-8ff9-b652b75957f9-flip-L_Start_Parse_0" class="edge-thickness-normal edge-pattern-solid edge-thickness-normal edge-pattern-solid flowchart-link" style=";" data-edge="true" data-et="edge" data-id="L_Start_Parse_0" data-points="W3sieCI6MjExLjk2NzIzODM3NTI2OTksInkiOjE0OC45ODc1MDMwNTE3NTc4fSx7IngiOjIzNi40NjcyMzkzNzk4ODI4LCJ5IjoxNDguNDg3NTAzMDUxNzU3OH0seyJ4IjoyNjEuNDY3MjM5Mzc5ODgyOCwieSI6MTQ4LjQ4NzUwMzA1MTc1Nzh9XQ==" data-look="classic" marker-end="url(#ga9af61a5-6a5b-4c52-8ff9-b652b75957f9-flip_flowchart-v2-pointEnd)"></path><path d="M346.657,114.068L358.282,98.307C369.906,82.545,393.156,51.023,429.111,35.261C465.066,19.5,513.728,19.5,562.926,19.5C612.123,19.5,661.858,19.5,710.51,19.5C759.163,19.5,806.733,19.5,853.823,19.5C900.913,19.5,947.522,19.5,993.716,19.5C1039.91,19.5,1085.689,19.5,1131.991,19.5C1178.293,19.5,1225.118,19.5,1279.585,19.5C1334.051,19.5,1396.158,19.5,1458.223,19.5C1520.287,19.5,1582.308,19.5,1638.271,19.5C1694.233,19.5,1744.137,19.5,1793.56,19.5C1842.983,19.5,1891.926,19.5,1943.754,19.5C1995.582,19.5,2050.295,19.5,2107.197,19.5C2164.098,19.5,2223.189,19.5,2267.997,30.771C2312.804,42.041,2343.329,64.583,2358.591,75.853L2373.854,87.124" id="ga9af61a5-6a5b-4c52-8ff9-b652b75957f9-flip-L_Parse_Reject_0" class="edge-thickness-normal edge-pattern-solid edge-thickness-normal edge-pattern-solid flowchart-link" style=";" data-edge="true" data-et="edge" data-id="L_Parse_Reject_0" data-points="W3sieCI6MzQ2LjY1NzM0NTkwNjA1MTgzLCJ5IjoxMTQuMDY4MjM0NTc3OTI2ODJ9LHsieCI6NDE2LjQwNDczOTM3OTg4MjgsInkiOjE5LjV9LHsieCI6NTYyLjM4OTExNDM3OTg4MjgsInkiOjE5LjV9LHsieCI6NzExLjU5MjIzOTM3OTg4MjgsInkiOjE5LjV9LHsieCI6ODU0LjMwMzE3Njg3OTg4MjgsInkiOjE5LjV9LHsieCI6OTk0LjEzMTMwMTg3OTg4MjgsInkiOjE5LjV9LHsieCI6MTEzMS40NjcyMzkzNzk4ODI4LCJ5IjoxOS41fSx7IngiOjEyNzEuOTQzODAxODc5ODgyOCwieSI6MTkuNX0seyJ4IjoxNDU4LjI2NTY3MDc3NjM2NzIsInkiOjE5LjV9LHsieCI6MTY0NC4zMjk3MjcxNzI4NTE2LCJ5IjoxOS41fSx7IngiOjE3OTQuMDQwNjY0NjcyODUxNiwieSI6MTkuNX0seyJ4IjoxOTQwLjg2ODc4OTY3Mjg1MTYsInkiOjE5LjV9LHsieCI6MjEwNS4wMDc4NTgyNzYzNjcsInkiOjE5LjV9LHsieCI6MjI4Mi4yNzk3MzkzNzk4ODMsInkiOjE5LjV9LHsieCI6MjM3Ny4wNzE0MDYwNDY1NDkzLCJ5Ijo4OS41fV0=" data-look="classic" marker-end="url(#ga9af61a5-6a5b-4c52-8ff9-b652b75957f9-flip_flowchart-v2-pointEnd)"></path><path d="M355.145,174.419L365.355,182.235C375.565,190.051,395.985,205.683,411.416,213.5C426.847,221.316,437.29,221.316,442.512,221.316L447.733,221.316" id="ga9af61a5-6a5b-4c52-8ff9-b652b75957f9-flip-L_Parse_Scheme_0" class="edge-thickness-normal edge-pattern-solid edge-thickness-normal edge-pattern-solid flowchart-link" style=";" data-edge="true" data-et="edge" data-id="L_Parse_Scheme_0" data-points="W3sieCI6MzU1LjE0NTIwODQxMzMyNjIsInkiOjE3NC40MTg5MDkwMTgzMTQ0fSx7IngiOjQxNi40MDQ3MzkzNzk4ODI4LCJ5IjoyMjEuMzE1NjI4MDUxNzU3OH0seyJ4Ijo0NTEuNzMyODY0Mzc5ODgyOCwieSI6MjIxLjMxNTYyODA1MTc1Nzh9XQ==" data-look="classic" marker-end="url(#ga9af61a5-6a5b-4c52-8ff9-b652b75957f9-flip_flowchart-v2-pointEnd)"></path><path d="M625.3,173.57L639.682,162.655C654.064,151.739,682.828,129.909,720.995,118.993C759.163,108.078,806.733,108.078,853.823,108.078C900.913,108.078,947.522,108.078,993.716,108.078C1039.91,108.078,1085.689,108.078,1131.991,108.078C1178.293,108.078,1225.118,108.078,1279.585,108.078C1334.051,108.078,1396.158,108.078,1458.223,108.078C1520.287,108.078,1582.308,108.078,1638.271,108.078C1694.233,108.078,1744.137,108.078,1793.56,108.078C1842.983,108.078,1891.926,108.078,1943.754,108.078C1995.582,108.078,2050.295,108.078,2107.197,108.078C2164.098,108.078,2223.189,108.078,2264.542,108.625C2305.896,109.171,2329.512,110.264,2341.32,110.81L2353.128,111.357" id="ga9af61a5-6a5b-4c52-8ff9-b652b75957f9-flip-L_Scheme_Reject_0" class="edge-thickness-normal edge-pattern-solid edge-thickness-normal edge-pattern-solid flowchart-link" style=";" data-edge="true" data-et="edge" data-id="L_Scheme_Reject_0" data-points="W3sieCI6NjI1LjI5OTU2NTQ5MTYxMDcsInkiOjE3My41Njk4MjkxNjM0ODU2Mn0seyJ4Ijo3MTEuNTkyMjM5Mzc5ODgyOCwieSI6MTA4LjA3ODEyNX0seyJ4Ijo4NTQuMzAzMTc2ODc5ODgyOCwieSI6MTA4LjA3ODEyNX0seyJ4Ijo5OTQuMTMxMzAxODc5ODgyOCwieSI6MTA4LjA3ODEyNX0seyJ4IjoxMTMxLjQ2NzIzOTM3OTg4MjgsInkiOjEwOC4wNzgxMjV9LHsieCI6MTI3MS45NDM4MDE4Nzk4ODI4LCJ5IjoxMDguMDc4MTI1fSx7IngiOjE0NTguMjY1NjcwNzc2MzY3MiwieSI6MTA4LjA3ODEyNX0seyJ4IjoxNjQ0LjMyOTcyNzE3Mjg1MTYsInkiOjEwOC4wNzgxMjV9LHsieCI6MTc5NC4wNDA2NjQ2NzI4NTE2LCJ5IjoxMDguMDc4MTI1fSx7IngiOjE5NDAuODY4Nzg5NjcyODUxNiwieSI6MTA4LjA3ODEyNX0seyJ4IjoyMTA1LjAwNzg1ODI3NjM2NywieSI6MTA4LjA3ODEyNX0seyJ4IjoyMjgyLjI3OTczOTM3OTg4MywieSI6MTA4LjA3ODEyNX0seyJ4IjoyMzU3LjEyMzQ4OTM3OTg4MywieSI6MTExLjU0MTU5MDM1NDA5MDM2fV0=" data-look="classic" marker-end="url(#ga9af61a5-6a5b-4c52-8ff9-b652b75957f9-flip_flowchart-v2-pointEnd)"></path><path d="M637.852,256.509L650.142,262.24C662.432,267.972,687.012,279.435,705.06,285.166C723.108,290.898,734.623,290.898,740.381,290.898L746.139,290.898" id="ga9af61a5-6a5b-4c52-8ff9-b652b75957f9-flip-L_Scheme_HostList_0" class="edge-thickness-normal edge-pattern-solid edge-thickness-normal edge-pattern-solid flowchart-link" style=";" data-edge="true" data-et="edge" data-id="L_Scheme_HostList_0" data-points="W3sieCI6NjM3Ljg1MjQ1Mjg2MTE5ODMsInkiOjI1Ni41MDg1Mzk1NzA0NDIzNH0seyJ4Ijo3MTEuNTkyMjM5Mzc5ODgyOCwieSI6MjkwLjg5NzY1OTMwMTc1Nzh9LHsieCI6NzUwLjEzOTExNDM3OTg4MjksInkiOjI5MC44OTc2NTkzMDE3NTc4fV0=" data-look="classic" marker-end="url(#ga9af61a5-6a5b-4c52-8ff9-b652b75957f9-flip_flowchart-v2-pointEnd)"></path><path d="M915.677,248.108L928.753,238.992C941.829,229.875,967.98,211.643,1003.945,202.526C1039.91,193.41,1085.689,193.41,1131.991,193.41C1178.293,193.41,1225.118,193.41,1279.585,193.41C1334.051,193.41,1396.158,193.41,1458.223,193.41C1520.287,193.41,1582.308,193.41,1638.271,193.41C1694.233,193.41,1744.137,193.41,1793.56,193.41C1842.983,193.41,1891.926,193.41,1943.754,193.41C1995.582,193.41,2050.295,193.41,2107.197,193.41C2164.098,193.41,2223.189,193.41,2266.916,184.61C2310.643,175.81,2339.005,158.209,2353.187,149.409L2367.368,140.609" id="ga9af61a5-6a5b-4c52-8ff9-b652b75957f9-flip-L_HostList_Reject_0" class="edge-thickness-normal edge-pattern-solid edge-thickness-normal edge-pattern-solid flowchart-link" style=";" data-edge="true" data-et="edge" data-id="L_HostList_Reject_0" data-points="W3sieCI6OTE1LjY3NzQxMzY3NzIyMTgsInkiOjI0OC4xMDc4MzM1OTkwOTY4fSx7IngiOjk5NC4xMzEzMDE4Nzk4ODI4LCJ5IjoxOTMuNDEwMTU2MjV9LHsieCI6MTEzMS40NjcyMzkzNzk4ODI4LCJ5IjoxOTMuNDEwMTU2MjV9LHsieCI6MTI3MS45NDM4MDE4Nzk4ODI4LCJ5IjoxOTMuNDEwMTU2MjV9LHsieCI6MTQ1OC4yNjU2NzA3NzYzNjcyLCJ5IjoxOTMuNDEwMTU2MjV9LHsieCI6MTY0NC4zMjk3MjcxNzI4NTE2LCJ5IjoxOTMuNDEwMTU2MjV9LHsieCI6MTc5NC4wNDA2NjQ2NzI4NTE2LCJ5IjoxOTMuNDEwMTU2MjV9LHsieCI6MTk0MC44Njg3ODk2NzI4NTE2LCJ5IjoxOTMuNDEwMTU2MjV9LHsieCI6MjEwNS4wMDc4NTgyNzYzNjcsInkiOjE5My40MTAxNTYyNX0seyJ4IjoyMjgyLjI3OTczOTM3OTg4MywieSI6MTkzLjQxMDE1NjI1fSx7IngiOjIzNzAuNzY2OTYwNTI5NDcyMywieSI6MTM4LjV9XQ==" data-look="classic" marker-end="url(#ga9af61a5-6a5b-4c52-8ff9-b652b75957f9-flip_flowchart-v2-pointEnd)"></path><path d="M917.332,332.033L930.132,340.387C942.932,348.741,968.531,365.449,986.609,373.802C1004.686,382.156,1015.241,382.156,1020.518,382.156L1025.795,382.156" id="ga9af61a5-6a5b-4c52-8ff9-b652b75957f9-flip-L_HostList_Resolve_0" class="edge-thickness-normal edge-pattern-solid edge-thickness-normal edge-pattern-solid flowchart-link" style=";" data-edge="true" data-et="edge" data-id="L_HostList_Resolve_0" data-points="W3sieCI6OTE3LjMzMTc0ODI0NDMxMDMsInkiOjMzMi4wMzMxNTA0MzczMzA0fSx7IngiOjk5NC4xMzEzMDE4Nzk4ODI4LCJ5IjozODIuMTU2MjV9LHsieCI6MTAyOS43OTUzNjQzNzk4ODI4LCJ5IjozODIuMTU2MjV9XQ==" data-look="classic" marker-end="url(#ga9af61a5-6a5b-4c52-8ff9-b652b75957f9-flip_flowchart-v2-pointEnd)"></path><path d="M1233.139,382.156L1239.607,382.156C1246.074,382.156,1259.009,382.156,1271.277,382.156C1283.545,382.156,1295.147,382.156,1300.948,382.156L1306.748,382.156" id="ga9af61a5-6a5b-4c52-8ff9-b652b75957f9-flip-L_Resolve_AllResolved_0" class="edge-thickness-normal edge-pattern-solid edge-thickness-normal edge-pattern-solid flowchart-link" style=";" data-edge="true" data-et="edge" data-id="L_Resolve_AllResolved_0" data-points="W3sieCI6MTIzMy4xMzkxMTQzNzk4ODI4LCJ5IjozODIuMTU2MjV9LHsieCI6MTI3MS45NDM4MDE4Nzk4ODI4LCJ5IjozODIuMTU2MjV9LHsieCI6MTMxMC43NDg0ODkzNzk4ODI4LCJ5IjozODIuMTU2MjQ5OTk5OTk5OTR9XQ==" data-look="classic" marker-end="url(#ga9af61a5-6a5b-4c52-8ff9-b652b75957f9-flip_flowchart-v2-pointEnd)"></path><path d="M1560.758,337.132L1574.687,331.013C1588.615,324.894,1616.473,312.656,1655.353,306.538C1694.233,300.419,1744.137,300.419,1793.56,300.419C1842.983,300.419,1891.926,300.419,1943.754,300.419C1995.582,300.419,2050.295,300.419,2107.197,300.419C2164.098,300.419,2223.189,300.419,2270.882,273.982C2318.575,247.545,2354.871,194.671,2373.019,168.235L2391.166,141.798" id="ga9af61a5-6a5b-4c52-8ff9-b652b75957f9-flip-L_AllResolved_Reject_0" class="edge-thickness-normal edge-pattern-solid edge-thickness-normal edge-pattern-solid flowchart-link" style=";" data-edge="true" data-et="edge" data-id="L_AllResolved_Reject_0" data-points="W3sieCI6MTU2MC43NTgxNDc3MjU5Mjk2LCJ5IjozMzcuMTMxNTQ1NTUzMDc4Mn0seyJ4IjoxNjQ0LjMyOTcyNzE3Mjg1MTYsInkiOjMwMC40MTg3NDY5NDgyNDIyfSx7IngiOjE3OTQuMDQwNjY0NjcyODUxNiwieSI6MzAwLjQxODc0Njk0ODI0MjJ9LHsieCI6MTk0MC44Njg3ODk2NzI4NTE2LCJ5IjozMDAuNDE4NzQ2OTQ4MjQyMn0seyJ4IjoyMTA1LjAwNzg1ODI3NjM2NywieSI6MzAwLjQxODc0Njk0ODI0MjJ9LHsieCI6MjI4Mi4yNzk3MzkzNzk4ODMsInkiOjMwMC40MTg3NDY5NDgyNDIyfSx7IngiOjIzOTMuNDMwMjUzOTQ4NDk0MywieSI6MTM4LjV9XQ==" data-look="classic" marker-end="url(#ga9af61a5-6a5b-4c52-8ff9-b652b75957f9-flip_flowchart-v2-pointEnd)"></path><path d="M1560.758,427.181L1574.687,433.3C1588.615,439.419,1616.473,451.656,1636.159,457.775C1655.845,463.894,1667.361,463.894,1673.119,463.894L1678.877,463.894" id="ga9af61a5-6a5b-4c52-8ff9-b652b75957f9-flip-L_AllResolved_Connect_0" class="edge-thickness-normal edge-pattern-solid edge-thickness-normal edge-pattern-solid flowchart-link" style=";" data-edge="true" data-et="edge" data-id="L_AllResolved_Connect_0" data-points="W3sieCI6MTU2MC43NTgxNDc3MjU5Mjk4LCJ5Ijo0MjcuMTgwOTU0NDQ2OTIxNzZ9LHsieCI6MTY0NC4zMjk3MjcxNzI4NTE2LCJ5Ijo0NjMuODkzNzUzMDUxNzU3OH0seyJ4IjoxNjgyLjg3NjYwMjE3Mjg1MTYsInkiOjQ2My44OTM3NTMwNTE3NTc4fV0=" data-look="classic" marker-end="url(#ga9af61a5-6a5b-4c52-8ff9-b652b75957f9-flip_flowchart-v2-pointEnd)"></path><path d="M1905.205,463.894L1911.149,463.894C1917.093,463.894,1928.981,463.894,1940.202,463.894C1951.423,463.894,1961.978,463.894,1967.256,463.894L1972.533,463.894" id="ga9af61a5-6a5b-4c52-8ff9-b652b75957f9-flip-L_Connect_Recheck_0" class="edge-thickness-normal edge-pattern-solid edge-thickness-normal edge-pattern-solid flowchart-link" style=";" data-edge="true" data-et="edge" data-id="L_Connect_Recheck_0" data-points="W3sieCI6MTkwNS4yMDQ3MjcxNzI4NTE2LCJ5Ijo0NjMuODkzNzUzMDUxNzU3OH0seyJ4IjoxOTQwLjg2ODc4OTY3Mjg1MTYsInkiOjQ2My44OTM3NTMwNTE3NTc4fSx7IngiOjE5NzYuNTMyODUyMTcyODUxNiwieSI6NDYzLjg5Mzc1MzA1MTc1Nzh9XQ==" data-look="classic" marker-end="url(#ga9af61a5-6a5b-4c52-8ff9-b652b75957f9-flip_flowchart-v2-pointEnd)"></path><path d="M2198.632,429.043L2212.573,423.854C2226.515,418.664,2254.397,408.285,2287.552,360.469C2320.707,312.653,2359.134,227.4,2378.348,184.773L2397.562,142.147" id="ga9af61a5-6a5b-4c52-8ff9-b652b75957f9-flip-L_Recheck_Reject_0" class="edge-thickness-normal edge-pattern-solid edge-thickness-normal edge-pattern-solid flowchart-link" style=";" data-edge="true" data-et="edge" data-id="L_Recheck_Reject_0" data-points="W3sieCI6MjE5OC42MzIyMjU4ODY0NTA3LCJ5Ijo0MjkuMDQzMTE0NTU4MzI1ODR9LHsieCI6MjI4Mi4yNzk3MzkzNzk4ODMsInkiOjM5Ny45MDYyNX0seyJ4IjoyMzk5LjIwNTI4NjI5Nzg3OTQsInkiOjEzOC41fV0=" data-look="classic" marker-end="url(#ga9af61a5-6a5b-4c52-8ff9-b652b75957f9-flip_flowchart-v2-pointEnd)"></path><path d="M2219.586,477.79L2230.035,479.057C2240.484,480.325,2261.382,482.859,2279.297,484.126C2297.212,485.394,2312.144,485.394,2319.61,485.394L2327.077,485.394" id="ga9af61a5-6a5b-4c52-8ff9-b652b75957f9-flip-L_Recheck_Allow_0" class="edge-thickness-normal edge-pattern-solid edge-thickness-normal edge-pattern-solid flowchart-link" style=";" data-edge="true" data-et="edge" data-id="L_Recheck_Allow_0" data-points="W3sieCI6MjIxOS41ODY0NjkwOTU1NDY0LCJ5Ijo0NzcuNzkwMTQ4MzM2MDk0MjZ9LHsieCI6MjI4Mi4yNzk3MzkzNzk4ODMsInkiOjQ4NS4zOTM3NTMwNTE3NTc4fSx7IngiOjIzMzEuMDc2NjE0Mzc5ODgzLCJ5Ijo0ODUuMzkzNzUzMDUxNzU3OH1d" data-look="classic" marker-end="url(#ga9af61a5-6a5b-4c52-8ff9-b652b75957f9-flip_flowchart-v2-pointEnd)"></path></g><g class="edgeLabels"><g class="edgeLabel"><g class="label" data-id="L_Start_Parse_0" transform="translate(0, 0)"><text y="-10.1" text-anchor="middle"><tspan class="text-outer-tspan row" x="0" y="-0.1em" dy="1.1em" text-anchor="middle"></tspan></text></g></g><g><rect class="background" style="stroke: none"></rect></g><g class="edgeLabel" transform="translate(1271.9438018798828, 19.5)"><g class="label" data-id="L_Parse_Reject_0" transform="translate(0, -10.5)"><g><rect class="background" style="" x="-13.8046875" y="-1" width="27.609375" height="23"></rect><text y="-10.1" text-anchor="middle" style=""><tspan class="text-outer-tspan row" x="0" y="-0.1em" dy="1.1em" text-anchor="middle"><tspan font-style="normal" class="text-inner-tspan" font-weight="normal">fail</tspan></tspan></text></g></g></g><g class="edgeLabel" transform="translate(416.4047393798828, 221.3156280517578)"><g class="label" data-id="L_Parse_Scheme_0" transform="translate(0, -10.5)"><g><rect class="background" style="" x="-10.328125" y="-1" width="20.65625" height="23"></rect><text y="-10.1" text-anchor="middle" style=""><tspan class="text-outer-tspan row" x="0" y="-0.1em" dy="1.1em" text-anchor="middle"><tspan font-style="normal" class="text-inner-tspan" font-weight="normal">ok</tspan></tspan></text></g></g></g><g class="edgeLabel" transform="translate(1458.2656707763672, 108.078125)"><g class="label" data-id="L_Scheme_Reject_0" transform="translate(0, -10.5)"><g><rect class="background" style="" x="-10.6640625" y="-1" width="21.328125" height="23"></rect><text y="-10.1" text-anchor="middle" style=""><tspan class="text-outer-tspan row" x="0" y="-0.1em" dy="1.1em" text-anchor="middle"><tspan font-style="normal" class="text-inner-tspan" font-weight="normal">no</tspan></tspan></text></g></g></g><g class="edgeLabel" transform="translate(711.5922393798828, 290.8976593017578)"><g class="label" data-id="L_Scheme_HostList_0" transform="translate(0, -10.5)"><g><rect class="background" style="" x="-13.546875" y="-1" width="27.09375" height="23"></rect><text y="-10.1" text-anchor="middle" style=""><tspan class="text-outer-tspan row" x="0" y="-0.1em" dy="1.1em" text-anchor="middle"><tspan font-style="normal" class="text-inner-tspan" font-weight="normal">yes</tspan></tspan></text></g></g></g><g class="edgeLabel" transform="translate(1644.3297271728516, 193.41015625)"><g class="label" data-id="L_HostList_Reject_0" transform="translate(0, -10.5)"><g><rect class="background" style="" x="-13.546875" y="-1" width="27.09375" height="23"></rect><text y="-10.1" text-anchor="middle" style=""><tspan class="text-outer-tspan row" x="0" y="-0.1em" dy="1.1em" text-anchor="middle"><tspan font-style="normal" class="text-inner-tspan" font-weight="normal">yes</tspan></tspan></text></g></g></g><g class="edgeLabel" transform="translate(994.1313018798828, 382.15625)"><g class="label" data-id="L_HostList_Resolve_0" transform="translate(0, -10.5)"><g><rect class="background" style="" x="-10.6640625" y="-1" width="21.328125" height="23"></rect><text y="-10.1" text-anchor="middle" style=""><tspan class="text-outer-tspan row" x="0" y="-0.1em" dy="1.1em" text-anchor="middle"><tspan font-style="normal" class="text-inner-tspan" font-weight="normal">no</tspan></tspan></text></g></g></g><g class="edgeLabel"><g class="label" data-id="L_Resolve_AllResolved_0" transform="translate(0, 0)"><text y="-10.1" text-anchor="middle"><tspan class="text-outer-tspan row" x="0" y="-0.1em" dy="1.1em" text-anchor="middle"></tspan></text></g></g><g><rect class="background" style="stroke: none"></rect></g><g class="edgeLabel" transform="translate(1940.8687896728516, 300.4187469482422)"><g class="label" data-id="L_AllResolved_Reject_0" transform="translate(0, -10.5)"><g><rect class="background" style="" x="-10.6640625" y="-1" width="21.328125" height="23"></rect><text y="-10.1" text-anchor="middle" style=""><tspan class="text-outer-tspan row" x="0" y="-0.1em" dy="1.1em" text-anchor="middle"><tspan font-style="normal" class="text-inner-tspan" font-weight="normal">no</tspan></tspan></text></g></g></g><g class="edgeLabel" transform="translate(1644.3297271728516, 463.8937530517578)"><g class="label" data-id="L_AllResolved_Connect_0" transform="translate(0, -10.5)"><g><rect class="background" style="" x="-13.546875" y="-1" width="27.09375" height="23"></rect><text y="-10.1" text-anchor="middle" style=""><tspan class="text-outer-tspan row" x="0" y="-0.1em" dy="1.1em" text-anchor="middle"><tspan font-style="normal" class="text-inner-tspan" font-weight="normal">yes</tspan></tspan></text></g></g></g><g class="edgeLabel"><g class="label" data-id="L_Connect_Recheck_0" transform="translate(0, 0)"><text y="-10.1" text-anchor="middle"><tspan class="text-outer-tspan row" x="0" y="-0.1em" dy="1.1em" text-anchor="middle"></tspan></text></g></g><g><rect class="background" style="stroke: none"></rect></g><g class="edgeLabel" transform="translate(2282.279739379883, 397.90625)"><g class="label" data-id="L_Recheck_Reject_0" transform="translate(0, -10.5)"><g><rect class="background" style="" x="-17.9765625" y="-1" width="35.953125" height="23"></rect><text y="-10.1" text-anchor="middle" style=""><tspan class="text-outer-tspan row" x="0" y="-0.1em" dy="1.1em" text-anchor="middle"><tspan font-style="normal" class="text-inner-tspan" font-weight="normal">drift</tspan></tspan></text></g></g></g><g class="edgeLabel" transform="translate(2282.279739379883, 485.3937530517578)"><g class="label" data-id="L_Recheck_Allow_0" transform="translate(0, -10.5)"><g><rect class="background" style="" x="-23.796875" y="-1" width="47.59375" height="23"></rect><text y="-10.1" text-anchor="middle" style=""><tspan class="text-outer-tspan row" x="0" y="-0.1em" dy="1.1em" text-anchor="middle"><tspan font-style="normal" class="text-inner-tspan" font-weight="normal">stable</tspan></tspan></text></g></g></g></g><g class="nodes"><g class="node default" id="ga9af61a5-6a5b-4c52-8ff9-b652b75957f9-flip-flowchart-Start-0" data-look="classic" transform="translate(109.7336196899414, 148.4875030517578)"><g class="basic label-container outer-path"><path d="M-75.94687557220459 -25.799999237060547 C-30.462751204706755 -25.799999237060547, 15.021373162791079 -25.799999237060547, 75.94687557220459 -25.799999237060547 C75.94687557220459 -25.799999237060547, 75.94687557220459 -25.799999237060547, 75.94687557220459 -25.799999237060547 C76.37977308062983 -25.786117056549234, 76.81267058905507 -25.77223487603792, 77.59988719882529 -25.746990371586765 C78.02880132887094 -25.705613541305972, 78.4577154589166 -25.664236711025183, 79.24610624610231 -25.58818159996402 C79.73772788531596 -25.50870002591871, 80.22934952452962 -25.4292184518734, 80.87876804685753 -25.32422550149928 C81.31259039448646 -25.22520838160836, 81.74641274211538 -25.126191261717445, 82.49116364354678 -24.956206728419545 C82.87338570684994 -24.84276522635572, 83.25560777015309 -24.7293237242919, 84.07666735680552 -24.48563754880318 C84.63705843131709 -24.279408453184615, 85.19744950582864 -24.073179357566055, 85.62876401178644 -23.914451632345997 C86.10110489212626 -23.705360336113944, 86.57344577246609 -23.49626903988189, 87.14107571041056 -23.24499610449772 C87.44178853814651 -23.088114414883634, 87.74250136588246 -22.93123272526955, 88.6073880395184 -22.480021901620034 C88.96158538112178 -22.26530539164544, 89.31578272272516 -22.050588881670848, 90.02167560722664 -21.62267246679901 C90.3141668057291 -21.4186432684636, 90.60665800423158 -21.214614070128192, 91.37812680255584 -20.67647083276321 C91.73959243672284 -20.388211608519523, 92.10105807088985 -20.09995238427583, 92.6711676765865 -19.64530514498651 C93.14042587652796 -19.21913726369128, 93.60968407646942 -18.792969382396056, 93.89548484701088 -18.533412684464313 C94.26035288959284 -18.15665647427504, 94.62522093217478 -17.779900264085764, 95.04604733196044 -17.345362455817106 C95.44902298502579 -16.87200432376231, 95.85199863809113 -16.398646191707513, 96.11812722338968 -16.086036412270357 C96.47783649049775 -15.604058764533917, 96.83754575760582 -15.122081116797476, 97.10731911506427 -14.76060939466161 C97.33584547492528 -14.409531537995168, 97.56437183478627 -14.058453681328727, 98.00955820532036 -13.374527866909407 C98.22234487643452 -12.996703585359288, 98.43513154754869 -12.618879303809171, 98.8211370002064 -11.93348753532484 C99.01680992028912 -11.527168530043305, 99.21248284037182 -11.120849524761768, 99.53872054837109 -10.443409943732584 C99.72872983706304 -9.97408332708377, 99.918739125755 -9.504756710434954, 100.15936014509381 -8.910418140577123 C100.2961783011743 -8.498343653475528, 100.43299645725477 -8.086269166373933, 100.6805054491449 -7.340811518003323 C100.77650752542452 -6.974713993586065, 100.87250960170415 -6.608616469168807, 101.10001496268467 -5.741039926302914 C101.21316759065348 -5.160025096499477, 101.32632021862229 -4.57901026669604, 101.41616483113748 -4.117677170096137 C101.49459480502738 -3.509389780356259, 101.57302477891726 -2.901102390616381, 101.62765592687991 -2.4773939951584394 C101.6558667495866 -2.037987660135652, 101.68407757229328 -1.5985813251128653, 101.73361918763487 -0.8269306768952902 C101.73361918763487 -0.1739771022249581, 101.73361918763487 0.478976472445374, 101.73361918763487 0.826930676895284 C101.70409203743183 1.2868398751942742, 101.6745648872288 1.7467490734932642, 101.62765592687991 2.4773939951584216 C101.55923263122133 3.0080715645783913, 101.49080933556274 3.538749133998361, 101.41616483113748 4.117677170096119 C101.31111957301631 4.657062369225132, 101.20607431489515 5.196447568354144, 101.10001496268467 5.741039926302909 C100.99576691218972 6.138582924231034, 100.89151886169476 6.53612592215916, 100.6805054491449 7.340811518003306 C100.55267451350099 7.725817929069112, 100.42484357785706 8.110824340134917, 100.15936014509383 8.910418140577105 C100.0189836952257 9.257150685745428, 99.87860724535756 9.60388323091375, 99.53872054837109 10.443409943732577 C99.25791417767154 11.026510380784023, 98.97710780697199 11.609610817835469, 98.8211370002064 11.933487535324835 C98.5666964359905 12.385272521991167, 98.31225587177458 12.837057508657502, 98.00955820532037 13.374527866909402 C97.65372900549814 13.921177071355261, 97.2978998056759 14.467826275801123, 97.10731911506429 14.760609394661596 C96.8503101950783 15.104977933448541, 96.5933012750923 15.449346472235488, 96.11812722338968 16.086036412270353 C95.78530699910584 16.476985985721395, 95.45248677482202 16.867935559172434, 95.04604733196045 17.345362455817092 C94.70662766522463 17.695841128594722, 94.3672079984888 18.046319801372352, 93.89548484701088 18.533412684464306 C93.58988980293452 18.810946017892668, 93.28429475885815 19.088479351321034, 92.67116767658653 19.64530514498649 C92.40994094364432 19.853626512972596, 92.14871421070211 20.0619478809587, 91.37812680255584 20.676470832763208 C90.95848619493574 20.969193954689867, 90.53884558731565 21.261917076616527, 90.02167560722665 21.622672466799003 C89.57520476911658 21.89332571261521, 89.12873393100651 22.163978958431418, 88.60738803951841 22.48002190162003 C88.0799891956725 22.75516554063936, 87.55259035182658 23.030309179658694, 87.14107571041058 23.244996104497716 C86.61540691662576 23.477694086095518, 86.08973812284094 23.710392067693324, 85.62876401178644 23.914451632345994 C85.12204130788317 24.10093027147573, 84.61531860397989 24.287408910605464, 84.07666735680553 24.485637548803172 C83.74139194891514 24.585145529968514, 83.40611654102474 24.684653511133856, 82.49116364354681 24.95620672841954 C81.94367399049528 25.08116766902468, 81.39618433744374 25.206128609629822, 80.87876804685754 25.324225501499278 C80.35391516962787 25.409079644394918, 79.82906229239819 25.493933787290562, 79.24610624610233 25.588181599964017 C78.88271306277866 25.623237703315006, 78.519319879455 25.658293806665995, 77.59988719882529 25.746990371586765 C77.0564082191761 25.764418684646454, 76.51292923952691 25.781846997706143, 75.94687557220459 25.799999237060547 C75.94687557220459 25.799999237060547, 75.94687557220459 25.799999237060547, 75.94687557220459 25.799999237060547 C28.783706086485616 25.799999237060547, -18.37946339923336 25.799999237060547, -75.94687557220459 25.799999237060547 C-76.3122257401084 25.78828316828683, -76.67757590801222 25.77656709951312, -77.59988719882527 25.746990371586765 C-78.16941365017726 25.692048839780607, -78.73894010152927 25.63710730797445, -79.24610624610231 25.588181599964017 C-79.6807841578997 25.517906246162166, -80.11546206969709 25.44763089236032, -80.87876804685753 25.324225501499278 C-81.34801975736994 25.217121860728405, -81.81727146788235 25.11001821995753, -82.49116364354678 24.956206728419545 C-82.8886683159947 24.83822942818161, -83.28617298844262 24.72025212794367, -84.0766673568055 24.485637548803183 C-84.50683918112495 24.327330340988876, -84.93701100544439 24.169023133174566, -85.62876401178644 23.914451632345997 C-86.00225629908527 23.749117676013864, -86.3757485863841 23.583783719681726, -87.14107571041056 23.244996104497723 C-87.48105641083247 23.067628390855646, -87.82103711125438 22.89026067721357, -88.6073880395184 22.480021901620038 C-88.89818145718385 22.30374122293943, -89.18897487484931 22.127460544258824, -90.02167560722663 21.622672466799017 C-90.55995548930989 21.24719172281828, -91.09823537139313 20.87171097883754, -91.37812680255584 20.67647083276321 C-91.77009355539576 20.363887778046724, -92.1620603082357 20.05130472333024, -92.6711676765865 19.645305144986512 C-92.9333847416557 19.40716654437403, -93.1956018067249 19.169027943761545, -93.89548484701086 18.533412684464324 C-94.30133977003604 18.114334155131957, -94.70719469306121 17.695255625799593, -95.04604733196044 17.3453624558171 C-95.37272100051723 16.961632976471964, -95.69939466907404 16.57790349712683, -96.11812722338968 16.08603641227036 C-96.32235598072309 15.812388483066133, -96.5265847380565 15.538740553861906, -97.10731911506427 14.760609394661614 C-97.36913496695728 14.358389938753756, -97.6309508188503 13.956170482845899, -98.00955820532036 13.374527866909418 C-98.21590309336415 13.008141623502002, -98.42224798140795 12.641755380094585, -98.82113700020639 11.933487535324842 C-98.99145031646428 11.579828289994163, -99.16176363272216 11.226169044663484, -99.53872054837109 10.443409943732586 C-99.71339265101096 10.011966473156734, -99.88806475365082 9.580523002580883, -100.15936014509381 8.910418140577127 C-100.34982218542021 8.336776821119077, -100.5402842257466 7.7631355016610275, -100.6805054491449 7.340811518003316 C-100.79903984754962 6.88878848375288, -100.91757424595434 6.436765449502444, -101.10001496268467 5.741039926302918 C-101.16474940901519 5.40864222602581, -101.22948385534569 5.076244525748702, -101.41616483113748 4.117677170096139 C-101.49282227831743 3.5231371474935473, -101.56947972549739 2.9285971248909553, -101.62765592687991 2.477393995158454 C-101.64996278513047 2.129946672134146, -101.67226964338103 1.7824993491098384, -101.73361918763487 0.8269306768952934 C-101.73361918763487 0.2520962666148664, -101.73361918763487 -0.32273814366556064, -101.73361918763487 -0.8269306768952809 C-101.69386857695851 -1.446078524295182, -101.65411796628213 -2.0652263716950827, -101.62765592687991 -2.4773939951584185 C-101.57232808219914 -2.9065058327838154, -101.51700023751836 -3.335617670409212, -101.41616483113748 -4.117677170096128 C-101.31437213777257 -4.64036113663159, -101.21257944440765 -5.163045103167052, -101.10001496268467 -5.741039926302906 C-100.96516290216127 -6.255289278331384, -100.83031084163785 -6.769538630359862, -100.6805054491449 -7.340811518003303 C-100.47787226225694 -7.9511103916959405, -100.27523907536897 -8.561409265388578, -100.15936014509383 -8.910418140577093 C-100.02869792530167 -9.233156349645906, -99.8980357055095 -9.55589455871472, -99.53872054837109 -10.443409943732574 C-99.27604998610501 -10.988850986527762, -99.01337942383894 -11.534292029322952, -98.8211370002064 -11.933487535324831 C-98.49954270338259 -12.504510774289304, -98.17794840655876 -13.075534013253778, -98.00955820532036 -13.374527866909409 C-97.78752454440666 -13.715631194459007, -97.56549088349297 -14.056734522008604, -97.10731911506429 -14.760609394661605 C-96.80016249719624 -15.172171280061248, -96.49300587932818 -15.583733165460892, -96.11812722338968 -16.086036412270353 C-95.89260162366755 -16.350951614474138, -95.6670760239454 -16.615866816677922, -95.04604733196045 -17.345362455817092 C-94.76038715428298 -17.640330042405836, -94.47472697660551 -17.935297628994583, -93.89548484701089 -18.5334126844643 C-93.53808552015467 -18.857993296847116, -93.18068619329846 -19.182573909229937, -92.67116767658653 -19.645305144986487 C-92.25906066616193 -19.973949519172, -91.84695365573731 -20.302593893357514, -91.37812680255585 -20.676470832763204 C-91.0593148190175 -20.89886027133123, -90.74050283547913 -21.121249709899256, -90.02167560722665 -21.622672466799 C-89.72397148377223 -21.803142455940694, -89.42626736031781 -21.983612445082386, -88.60738803951841 -22.480021901620027 C-88.05079744783033 -22.770394856790407, -87.49420685614227 -23.060767811960787, -87.14107571041058 -23.244996104497716 C-86.58278053160612 -23.492136818916393, -86.02448535280165 -23.739277533335073, -85.62876401178646 -23.91445163234599 C-85.04111030167897 -24.130713629876894, -84.45345659157148 -24.346975627407794, -84.07666735680553 -24.485637548803172 C-83.52148042965995 -24.650414114544333, -82.96629350251436 -24.815190680285493, -82.49116364354681 -24.956206728419538 C-82.04470196354096 -25.058108693446137, -81.59824028353512 -25.160010658472736, -80.87876804685754 -25.324225501499278 C-80.2291712898234 -25.42924726747847, -79.57957453278925 -25.53426903345766, -79.24610624610233 -25.588181599964017 C-78.88918339003807 -25.622613518625997, -78.53226053397383 -25.65704543728798, -77.59988719882529 -25.746990371586765 C-77.15977680832093 -25.761103855187333, -76.71966641781657 -25.7752173387879, -75.9468755722046 -25.799999237060547 C-75.9468755722046 -25.799999237060547, -75.94687557220459 -25.799999237060547, -75.94687557220459 -25.799999237060547" stroke="none" stroke-width="0" fill="#ECECFF" style=""></path><path d="M-75.94687557220459 -25.799999237060547 C-33.615228603675426 -25.799999237060547, 8.716418364853737 -25.799999237060547, 75.94687557220459 -25.799999237060547 M-75.94687557220459 -25.799999237060547 C-34.23118081195936 -25.799999237060547, 7.484513948285866 -25.799999237060547, 75.94687557220459 -25.799999237060547 M75.94687557220459 -25.799999237060547 C75.94687557220459 -25.799999237060547, 75.94687557220459 -25.799999237060547, 75.94687557220459 -25.799999237060547 M75.94687557220459 -25.799999237060547 C75.94687557220459 -25.799999237060547, 75.94687557220459 -25.799999237060547, 75.94687557220459 -25.799999237060547 M75.94687557220459 -25.799999237060547 C76.39461648704109 -25.78564105739656, 76.84235740187759 -25.771282877732578, 77.59988719882529 -25.746990371586765 M75.94687557220459 -25.799999237060547 C76.40519170315315 -25.785301930799257, 76.86350783410171 -25.770604624537967, 77.59988719882529 -25.746990371586765 M77.59988719882529 -25.746990371586765 C77.96679173475016 -25.711595532273357, 78.33369627067503 -25.67620069295995, 79.24610624610231 -25.58818159996402 M77.59988719882529 -25.746990371586765 C78.03223241071925 -25.705282548966547, 78.46457762261322 -25.663574726346326, 79.24610624610231 -25.58818159996402 M79.24610624610231 -25.58818159996402 C79.85181987061968 -25.490254518531366, 80.45753349513704 -25.392327437098714, 80.87876804685753 -25.32422550149928 M79.24610624610231 -25.58818159996402 C79.68930246460799 -25.51652907239403, 80.13249868311365 -25.44487654482404, 80.87876804685753 -25.32422550149928 M80.87876804685753 -25.32422550149928 C81.51295376810513 -25.179476749073107, 82.14713948935272 -25.03472799664693, 82.49116364354678 -24.956206728419545 M80.87876804685753 -25.32422550149928 C81.51567059968603 -25.178856649993747, 82.15257315251452 -25.033487798488213, 82.49116364354678 -24.956206728419545 M82.49116364354678 -24.956206728419545 C82.90164952457553 -24.834376673614575, 83.31213540560427 -24.7125466188096, 84.07666735680552 -24.48563754880318 M82.49116364354678 -24.956206728419545 C83.09928990711563 -24.77571804551221, 83.70741617068447 -24.595229362604876, 84.07666735680552 -24.48563754880318 M84.07666735680552 -24.48563754880318 C84.47569970910347 -24.338789954542904, 84.87473206140142 -24.19194236028263, 85.62876401178644 -23.914451632345997 M84.07666735680552 -24.48563754880318 C84.59218159913061 -24.295923542266127, 85.10769584145571 -24.106209535729075, 85.62876401178644 -23.914451632345997 M85.62876401178644 -23.914451632345997 C86.05035406793522 -23.72782622051361, 86.47194412408399 -23.54120080868122, 87.14107571041056 -23.24499610449772 M85.62876401178644 -23.914451632345997 C86.1023079107811 -23.704827795441734, 86.57585180977573 -23.495203958537473, 87.14107571041056 -23.24499610449772 M87.14107571041056 -23.24499610449772 C87.72307814694345 -22.941365806148863, 88.30508058347635 -22.637735507800002, 88.6073880395184 -22.480021901620034 M87.14107571041056 -23.24499610449772 C87.46830717598573 -23.074279658508914, 87.79553864156088 -22.90356321252011, 88.6073880395184 -22.480021901620034 M88.6073880395184 -22.480021901620034 C89.1661738511784 -22.141282658801813, 89.72495966283842 -21.802543415983592, 90.02167560722664 -21.62267246679901 M88.6073880395184 -22.480021901620034 C89.07275411106644 -22.197914254253014, 89.53812018261449 -21.915806606885994, 90.02167560722664 -21.62267246679901 M90.02167560722664 -21.62267246679901 C90.50426906561665 -21.286036161360247, 90.98686252400667 -20.949399855921484, 91.37812680255584 -20.67647083276321 M90.02167560722664 -21.62267246679901 C90.37911988996895 -21.373334808671586, 90.73656417271125 -21.123997150544163, 91.37812680255584 -20.67647083276321 M91.37812680255584 -20.67647083276321 C91.80671482983709 -20.334683286212808, 92.23530285711834 -19.992895739662405, 92.6711676765865 -19.64530514498651 M91.37812680255584 -20.67647083276321 C91.65471059935874 -20.455902615016846, 91.93129439616163 -20.23533439727048, 92.6711676765865 -19.64530514498651 M92.6711676765865 -19.64530514498651 C93.08838818023916 -19.26639652261877, 93.50560868389184 -18.887487900251028, 93.89548484701088 -18.533412684464313 M92.6711676765865 -19.64530514498651 C92.99242961647218 -19.353543551307485, 93.31369155635784 -19.06178195762846, 93.89548484701088 -18.533412684464313 M93.89548484701088 -18.533412684464313 C94.30034625646294 -18.115360039465155, 94.70520766591503 -17.697307394465998, 95.04604733196044 -17.345362455817106 M93.89548484701088 -18.533412684464313 C94.15380056510907 -18.266680497413056, 94.41211628320727 -17.9999483103618, 95.04604733196044 -17.345362455817106 M95.04604733196044 -17.345362455817106 C95.43624494124056 -16.887014141083732, 95.82644255052067 -16.428665826350358, 96.11812722338968 -16.086036412270357 M95.04604733196044 -17.345362455817106 C95.34381420480685 -16.995588543556657, 95.64158107765327 -16.645814631296208, 96.11812722338968 -16.086036412270357 M96.11812722338968 -16.086036412270357 C96.34539003095392 -15.781524954201952, 96.57265283851818 -15.477013496133546, 97.10731911506427 -14.76060939466161 M96.11812722338968 -16.086036412270357 C96.45181723562132 -15.63892219566544, 96.78550724785298 -15.191807979060526, 97.10731911506427 -14.76060939466161 M97.10731911506427 -14.76060939466161 C97.29158557462866 -14.477526630298124, 97.47585203419304 -14.19444386593464, 98.00955820532036 -13.374527866909407 M97.10731911506427 -14.76060939466161 C97.3750992274047 -14.349227233078334, 97.64287933974514 -13.937845071495058, 98.00955820532036 -13.374527866909407 M98.00955820532036 -13.374527866909407 C98.25033241978439 -12.947008868095537, 98.49110663424841 -12.519489869281667, 98.8211370002064 -11.93348753532484 M98.00955820532036 -13.374527866909407 C98.18521879305311 -13.062624705826593, 98.36087938078586 -12.750721544743778, 98.8211370002064 -11.93348753532484 M98.8211370002064 -11.93348753532484 C99.04768655620143 -11.463052534917205, 99.27423611219646 -10.992617534509568, 99.53872054837109 -10.443409943732584 M98.8211370002064 -11.93348753532484 C99.10761702199547 -11.338605640389362, 99.39409704378451 -10.743723745453886, 99.53872054837109 -10.443409943732584 M99.53872054837109 -10.443409943732584 C99.68175456962223 -10.090113145867605, 99.82478859087335 -9.736816348002623, 100.15936014509381 -8.910418140577123 M99.53872054837109 -10.443409943732584 C99.66376173955723 -10.134555783995822, 99.78880293074339 -9.825701624259061, 100.15936014509381 -8.910418140577123 M100.15936014509381 -8.910418140577123 C100.32852817616873 -8.400910984244888, 100.49769620724366 -7.891403827912652, 100.6805054491449 -7.340811518003323 M100.15936014509381 -8.910418140577123 C100.3030433651418 -8.477667174604784, 100.4467265851898 -8.044916208632447, 100.6805054491449 -7.340811518003323 M100.6805054491449 -7.340811518003323 C100.8190862192565 -6.81234298028208, 100.95766698936811 -6.283874442560836, 101.10001496268467 -5.741039926302914 M100.6805054491449 -7.340811518003323 C100.78114281938711 -6.9570376087576165, 100.88178018962932 -6.573263699511909, 101.10001496268467 -5.741039926302914 M101.10001496268467 -5.741039926302914 C101.19096071410077 -5.2740527141726155, 101.28190646551687 -4.807065502042317, 101.41616483113748 -4.117677170096137 M101.10001496268467 -5.741039926302914 C101.17594073421614 -5.351177136406324, 101.25186650574761 -4.961314346509735, 101.41616483113748 -4.117677170096137 M101.41616483113748 -4.117677170096137 C101.46391102219037 -3.7473671408417166, 101.51165721324327 -3.3770571115872965, 101.62765592687991 -2.4773939951584394 M101.41616483113748 -4.117677170096137 C101.48574308733842 -3.578041954782405, 101.55532134353936 -3.0384067394686727, 101.62765592687991 -2.4773939951584394 M101.62765592687991 -2.4773939951584394 C101.66443029081624 -1.9046035931177525, 101.70120465475257 -1.3318131910770654, 101.73361918763487 -0.8269306768952902 M101.62765592687991 -2.4773939951584394 C101.65081294943984 -2.1167046767752975, 101.67396997199978 -1.7560153583921552, 101.73361918763487 -0.8269306768952902 M101.73361918763487 -0.8269306768952902 C101.73361918763487 -0.35468990774103604, 101.73361918763487 0.11755086141321813, 101.73361918763487 0.826930676895284 M101.73361918763487 -0.8269306768952902 C101.73361918763487 -0.437037082372294, 101.73361918763487 -0.04714348784929778, 101.73361918763487 0.826930676895284 M101.73361918763487 0.826930676895284 C101.69779333738572 1.3849472126316797, 101.66196748713656 1.9429637483680753, 101.62765592687991 2.4773939951584216 M101.73361918763487 0.826930676895284 C101.70974368066496 1.1988109699141618, 101.68586817369503 1.5706912629330396, 101.62765592687991 2.4773939951584216 M101.62765592687991 2.4773939951584216 C101.56187994655473 2.987539509624103, 101.49610396622954 3.497685024089784, 101.41616483113748 4.117677170096119 M101.62765592687991 2.4773939951584216 C101.54421594295006 3.124538033429838, 101.46077595902021 3.771682071701254, 101.41616483113748 4.117677170096119 M101.41616483113748 4.117677170096119 C101.31515689669622 4.636331565417479, 101.21414896225495 5.1549859607388395, 101.10001496268467 5.741039926302909 M101.41616483113748 4.117677170096119 C101.34891570834917 4.462987202506935, 101.28166658556087 4.808297234917751, 101.10001496268467 5.741039926302909 M101.10001496268467 5.741039926302909 C100.96756444007818 6.246131173421066, 100.83511391747169 6.751222420539223, 100.6805054491449 7.340811518003306 M101.10001496268467 5.741039926302909 C100.9694971649777 6.238760855730929, 100.83897936727072 6.736481785158948, 100.6805054491449 7.340811518003306 M100.6805054491449 7.340811518003306 C100.51903445322623 7.827136430800969, 100.35756345730753 8.313461343598634, 100.15936014509383 8.910418140577105 M100.6805054491449 7.340811518003306 C100.51567671728483 7.837249396473868, 100.35084798542475 8.333687274944431, 100.15936014509383 8.910418140577105 M100.15936014509383 8.910418140577105 C99.96449971112972 9.391727179838664, 99.76963927716561 9.873036219100223, 99.53872054837109 10.443409943732577 M100.15936014509383 8.910418140577105 C100.00358798753442 9.29517838139864, 99.847815829975 9.679938622220176, 99.53872054837109 10.443409943732577 M99.53872054837109 10.443409943732577 C99.2994591702962 10.94024131467846, 99.06019779222132 11.437072685624342, 98.8211370002064 11.933487535324835 M99.53872054837109 10.443409943732577 C99.33534529660766 10.86572300555263, 99.13197004484422 11.288036067372683, 98.8211370002064 11.933487535324835 M98.8211370002064 11.933487535324835 C98.64432656650243 12.247432364364094, 98.46751613279847 12.561377193403354, 98.00955820532037 13.374527866909402 M98.8211370002064 11.933487535324835 C98.54578613754138 12.422400874284884, 98.27043527487636 12.911314213244934, 98.00955820532037 13.374527866909402 M98.00955820532037 13.374527866909402 C97.68981895726792 13.865733213927886, 97.37007970921546 14.356938560946372, 97.10731911506429 14.760609394661596 M98.00955820532037 13.374527866909402 C97.74507045271501 13.78085207981724, 97.48058270010964 14.18717629272508, 97.10731911506429 14.760609394661596 M97.10731911506429 14.760609394661596 C96.74829490201681 15.241669132366548, 96.38927068896933 15.722728870071498, 96.11812722338968 16.086036412270353 M97.10731911506429 14.760609394661596 C96.90154693243008 15.036325373159947, 96.69577474979587 15.312041351658296, 96.11812722338968 16.086036412270353 M96.11812722338968 16.086036412270353 C95.7719814921386 16.492638884447963, 95.4258357608875 16.899241356625573, 95.04604733196045 17.345362455817092 M96.11812722338968 16.086036412270353 C95.70415167840649 16.572315643283424, 95.2901761334233 17.058594874296496, 95.04604733196045 17.345362455817092 M95.04604733196045 17.345362455817092 C94.7670215992599 17.633479433269105, 94.48799586655934 17.921596410721115, 93.89548484701088 18.533412684464306 M95.04604733196045 17.345362455817092 C94.68951998263277 17.713506215437675, 94.33299263330508 18.08164997505826, 93.89548484701088 18.533412684464306 M93.89548484701088 18.533412684464306 C93.46028241989254 18.928652013947953, 93.02507999277421 19.3238913434316, 92.67116767658653 19.64530514498649 M93.89548484701088 18.533412684464306 C93.41533261584608 18.969474236676305, 92.93518038468129 19.405535788888308, 92.67116767658653 19.64530514498649 M92.67116767658653 19.64530514498649 C92.39312522811397 19.867036598623066, 92.11508277964141 20.088768052259642, 91.37812680255584 20.676470832763208 M92.67116767658653 19.64530514498649 C92.27626258796204 19.960231444298774, 91.88135749933754 20.27515774361106, 91.37812680255584 20.676470832763208 M91.37812680255584 20.676470832763208 C90.8586260990256 21.038852034722908, 90.33912539549536 21.401233236682604, 90.02167560722665 21.622672466799003 M91.37812680255584 20.676470832763208 C91.0476767508609 20.906978483873417, 90.71722669916596 21.13748613498362, 90.02167560722665 21.622672466799003 M90.02167560722665 21.622672466799003 C89.71484024405773 21.808677867116746, 89.40800488088881 21.994683267434493, 88.60738803951841 22.48002190162003 M90.02167560722665 21.622672466799003 C89.46031755130713 21.962971019203536, 88.89895949538759 22.303269571608066, 88.60738803951841 22.48002190162003 M88.60738803951841 22.48002190162003 C88.07961278833343 22.755361912107052, 87.55183753714846 23.03070192259407, 87.14107571041058 23.244996104497716 M88.60738803951841 22.48002190162003 C88.05843227391837 22.766411772910622, 87.50947650831833 23.052801644201214, 87.14107571041058 23.244996104497716 M87.14107571041058 23.244996104497716 C86.76581250295568 23.411113994650457, 86.3905492955008 23.5772318848032, 85.62876401178644 23.914451632345994 M87.14107571041058 23.244996104497716 C86.57167051344578 23.497054894388995, 86.00226531648099 23.74911368428027, 85.62876401178644 23.914451632345994 M85.62876401178644 23.914451632345994 C85.2877962822342 24.039930908692362, 84.94682855268195 24.16541018503873, 84.07666735680553 24.485637548803172 M85.62876401178644 23.914451632345994 C85.09129018993013 24.11224696714266, 84.55381636807384 24.310042301939326, 84.07666735680553 24.485637548803172 M84.07666735680553 24.485637548803172 C83.59236620650674 24.629375588063244, 83.10806505620793 24.773113627323312, 82.49116364354681 24.95620672841954 M84.07666735680553 24.485637548803172 C83.6488229418873 24.612619525349743, 83.22097852696906 24.739601501896313, 82.49116364354681 24.95620672841954 M82.49116364354681 24.95620672841954 C82.14546434891386 25.035110336520788, 81.79976505428091 25.114013944622037, 80.87876804685754 25.324225501499278 M82.49116364354681 24.95620672841954 C82.01425982703697 25.065056912449673, 81.5373560105271 25.1739070964798, 80.87876804685754 25.324225501499278 M80.87876804685754 25.324225501499278 C80.35197541624895 25.40939324867821, 79.82518278564035 25.494560995857142, 79.24610624610233 25.588181599964017 M80.87876804685754 25.324225501499278 C80.42324645519491 25.397870699816586, 79.9677248635323 25.471515898133898, 79.24610624610233 25.588181599964017 M79.24610624610233 25.588181599964017 C78.6555816918297 25.645148793505015, 78.06505713755708 25.70211598704601, 77.59988719882529 25.746990371586765 M79.24610624610233 25.588181599964017 C78.86271257760865 25.625167126065254, 78.47931890911497 25.662152652166494, 77.59988719882529 25.746990371586765 M77.59988719882529 25.746990371586765 C77.19692427694963 25.75991260817157, 76.79396135507399 25.772834844756378, 75.94687557220459 25.799999237060547 M77.59988719882529 25.746990371586765 C77.14886570961498 25.761453752885668, 76.69784422040468 25.77591713418457, 75.94687557220459 25.799999237060547 M75.94687557220459 25.799999237060547 C75.94687557220459 25.799999237060547, 75.94687557220459 25.799999237060547, 75.94687557220459 25.799999237060547 M75.94687557220459 25.799999237060547 C75.94687557220459 25.799999237060547, 75.94687557220459 25.799999237060547, 75.94687557220459 25.799999237060547 M75.94687557220459 25.799999237060547 C34.591410356530076 25.799999237060547, -6.764054859144437 25.799999237060547, -75.94687557220459 25.799999237060547 M75.94687557220459 25.799999237060547 C31.499235938348427 25.799999237060547, -12.948403695507736 25.799999237060547, -75.94687557220459 25.799999237060547 M-75.94687557220459 25.799999237060547 C-76.37084162347044 25.78640347099631, -76.7948076747363 25.77280770493207, -77.59988719882527 25.746990371586765 M-75.94687557220459 25.799999237060547 C-76.38910269044509 25.78581787412144, -76.8313298086856 25.771636511182336, -77.59988719882527 25.746990371586765 M-77.59988719882527 25.746990371586765 C-78.23804447074264 25.685428107061306, -78.87620174266002 25.623865842535842, -79.24610624610231 25.588181599964017 M-77.59988719882527 25.746990371586765 C-78.12989875851969 25.695860793855203, -78.6599103182141 25.644731216123645, -79.24610624610231 25.588181599964017 M-79.24610624610231 25.588181599964017 C-79.65453453181998 25.522150082137845, -80.06296281753765 25.456118564311673, -80.87876804685753 25.324225501499278 M-79.24610624610231 25.588181599964017 C-79.81167749001493 25.496744427318728, -80.37724873392756 25.40530725467344, -80.87876804685753 25.324225501499278 M-80.87876804685753 25.324225501499278 C-81.359024933358 25.214610001124615, -81.83928181985848 25.10499450074995, -82.49116364354678 24.956206728419545 M-80.87876804685753 25.324225501499278 C-81.47988810902804 25.18702376998386, -82.08100817119855 25.04982203846844, -82.49116364354678 24.956206728419545 M-82.49116364354678 24.956206728419545 C-82.85692639326473 24.847650264231113, -83.22268914298267 24.739093800042678, -84.0766673568055 24.485637548803183 M-82.49116364354678 24.956206728419545 C-83.07273804506639 24.783598498794856, -83.65431244658599 24.61099026917017, -84.0766673568055 24.485637548803183 M-84.0766673568055 24.485637548803183 C-84.67234595613662 24.26642231785672, -85.26802455546775 24.04720708691026, -85.62876401178644 23.914451632345997 M-84.0766673568055 24.485637548803183 C-84.39887689434366 24.367061460516826, -84.72108643188183 24.248485372230466, -85.62876401178644 23.914451632345997 M-85.62876401178644 23.914451632345997 C-86.03286256062991 23.735569191930544, -86.43696110947336 23.55668675151509, -87.14107571041056 23.244996104497723 M-85.62876401178644 23.914451632345997 C-86.22192176655001 23.651878289711792, -86.81507952131359 23.38930494707759, -87.14107571041056 23.244996104497723 M-87.14107571041056 23.244996104497723 C-87.70499475438967 22.95079990046121, -88.26891379836877 22.656603696424696, -88.6073880395184 22.480021901620038 M-87.14107571041056 23.244996104497723 C-87.62441423288196 22.992838706917492, -88.10775275535337 22.74068130933726, -88.6073880395184 22.480021901620038 M-88.6073880395184 22.480021901620038 C-89.08067824728957 22.193110596307168, -89.55396845506073 21.906199290994298, -90.02167560722663 21.622672466799017 M-88.6073880395184 22.480021901620038 C-89.0837768568079 22.191232201007704, -89.56016567409739 21.90244250039537, -90.02167560722663 21.622672466799017 M-90.02167560722663 21.622672466799017 C-90.39589159261985 21.36163559493762, -90.77010757801308 21.100598723076224, -91.37812680255584 20.67647083276321 M-90.02167560722663 21.622672466799017 C-90.40410060567937 21.355909342789747, -90.78652560413211 21.08914621878048, -91.37812680255584 20.67647083276321 M-91.37812680255584 20.67647083276321 C-91.78840343540885 20.349286135982663, -92.19868006826185 20.022101439202114, -92.6711676765865 19.645305144986512 M-91.37812680255584 20.67647083276321 C-91.74063012485706 20.387384079846527, -92.10313344715829 20.098297326929845, -92.6711676765865 19.645305144986512 M-92.6711676765865 19.645305144986512 C-93.07891497773115 19.274999834489357, -93.48666227887578 18.904694523992198, -93.89548484701086 18.533412684464324 M-92.6711676765865 19.645305144986512 C-92.95334278379185 19.389041178566835, -93.23551789099719 19.132777212147158, -93.89548484701086 18.533412684464324 M-93.89548484701086 18.533412684464324 C-94.16513534464366 18.254976406940877, -94.43478584227647 17.976540129417426, -95.04604733196044 17.3453624558171 M-93.89548484701086 18.533412684464324 C-94.1689148353098 18.251073772526134, -94.44234482360875 17.96873486058794, -95.04604733196044 17.3453624558171 M-95.04604733196044 17.3453624558171 C-95.3865868736433 16.94534533290756, -95.72712641532615 16.545328209998026, -96.11812722338968 16.08603641227036 M-95.04604733196044 17.3453624558171 C-95.43146058480025 16.892634118396106, -95.81687383764006 16.439905780975113, -96.11812722338968 16.08603641227036 M-96.11812722338968 16.08603641227036 C-96.42632692961018 15.673076883505725, -96.73452663583069 15.260117354741089, -97.10731911506427 14.760609394661614 M-96.11812722338968 16.08603641227036 C-96.38886503809728 15.723272405284485, -96.6596028528049 15.36050839829861, -97.10731911506427 14.760609394661614 M-97.10731911506427 14.760609394661614 C-97.30259668549458 14.460610607110809, -97.49787425592487 14.160611819560003, -98.00955820532036 13.374527866909418 M-97.10731911506427 14.760609394661614 C-97.3531564376468 14.382937250610553, -97.59899376022932 14.005265106559492, -98.00955820532036 13.374527866909418 M-98.00955820532036 13.374527866909418 C-98.25526716822432 12.938246722542956, -98.50097613112828 12.501965578176495, -98.82113700020639 11.933487535324842 M-98.00955820532036 13.374527866909418 C-98.30076193181463 12.857466162943997, -98.59196565830891 12.340404458978574, -98.82113700020639 11.933487535324842 M-98.82113700020639 11.933487535324842 C-99.04706942712686 11.464334016644992, -99.27300185404732 10.995180497965142, -99.53872054837109 10.443409943732586 M-98.82113700020639 11.933487535324842 C-99.08019083261334 11.39555670946775, -99.3392446650203 10.857625883610657, -99.53872054837109 10.443409943732586 M-99.53872054837109 10.443409943732586 C-99.76034808959997 9.895985632020206, -99.98197563082887 9.348561320307827, -100.15936014509381 8.910418140577127 M-99.53872054837109 10.443409943732586 C-99.76449023534315 9.885754451951641, -99.9902599223152 9.328098960170694, -100.15936014509381 8.910418140577127 M-100.15936014509381 8.910418140577127 C-100.30775594106504 8.463473646771032, -100.45615173703625 8.016529152964937, -100.6805054491449 7.340811518003316 M-100.15936014509381 8.910418140577127 C-100.29594813404577 8.499036880194474, -100.43253612299773 8.087655619811821, -100.6805054491449 7.340811518003316 M-100.6805054491449 7.340811518003316 C-100.79394996991533 6.908198393139334, -100.90739449068577 6.475585268275351, -101.10001496268467 5.741039926302918 M-100.6805054491449 7.340811518003316 C-100.8061731910767 6.861585953273489, -100.9318409330085 6.382360388543662, -101.10001496268467 5.741039926302918 M-101.10001496268467 5.741039926302918 C-101.19889574245654 5.233308020634566, -101.29777652222842 4.725576114966214, -101.41616483113748 4.117677170096139 M-101.10001496268467 5.741039926302918 C-101.18646666737592 5.297128694287599, -101.27291837206718 4.85321746227228, -101.41616483113748 4.117677170096139 M-101.41616483113748 4.117677170096139 C-101.48687929140188 3.5692297804350677, -101.55759375166627 3.020782390773996, -101.62765592687991 2.477393995158454 M-101.41616483113748 4.117677170096139 C-101.49446110639516 3.51042672054586, -101.57275738165285 2.903176270995581, -101.62765592687991 2.477393995158454 M-101.62765592687991 2.477393995158454 C-101.6665004050863 1.8723598923956306, -101.70534488329267 1.2673257896328072, -101.73361918763487 0.8269306768952934 M-101.62765592687991 2.477393995158454 C-101.6531620740313 2.080115165084094, -101.67866822118269 1.6828363350097342, -101.73361918763487 0.8269306768952934 M-101.73361918763487 0.8269306768952934 C-101.73361918763487 0.3248734038297473, -101.73361918763487 -0.17718386923579887, -101.73361918763487 -0.8269306768952809 M-101.73361918763487 0.8269306768952934 C-101.73361918763487 0.3581672369278361, -101.73361918763487 -0.11059620303962125, -101.73361918763487 -0.8269306768952809 M-101.73361918763487 -0.8269306768952809 C-101.70732739947698 -1.2364464998038924, -101.68103561131909 -1.6459623227125038, -101.62765592687991 -2.4773939951584185 M-101.73361918763487 -0.8269306768952809 C-101.70573412535309 -1.2612630303510932, -101.67784906307132 -1.6955953838069053, -101.62765592687991 -2.4773939951584185 M-101.62765592687991 -2.4773939951584185 C-101.56041835245692 -2.9988753448223187, -101.49318077803392 -3.5203566944862184, -101.41616483113748 -4.117677170096128 M-101.62765592687991 -2.4773939951584185 C-101.5721530535501 -2.9078633204224604, -101.51665018022028 -3.338332645686502, -101.41616483113748 -4.117677170096128 M-101.41616483113748 -4.117677170096128 C-101.29862336402581 -4.721227761316615, -101.18108189691416 -5.324778352537102, -101.10001496268467 -5.741039926302906 M-101.41616483113748 -4.117677170096128 C-101.33376171318076 -4.540799764898674, -101.25135859522406 -4.963922359701221, -101.10001496268467 -5.741039926302906 M-101.10001496268467 -5.741039926302906 C-100.98094112431286 -6.195120078942617, -100.86186728594105 -6.649200231582327, -100.6805054491449 -7.340811518003303 M-101.10001496268467 -5.741039926302906 C-100.93916268455362 -6.354439376634883, -100.77831040642259 -6.96783882696686, -100.6805054491449 -7.340811518003303 M-100.6805054491449 -7.340811518003303 C-100.56170690274956 -7.6986138117681815, -100.44290835635422 -8.05641610553306, -100.15936014509383 -8.910418140577093 M-100.6805054491449 -7.340811518003303 C-100.48294749690338 -7.935824593569697, -100.28538954466185 -8.53083766913609, -100.15936014509383 -8.910418140577093 M-100.15936014509383 -8.910418140577093 C-99.96507042934456 -9.390317494813896, -99.7707807135953 -9.8702168490507, -99.53872054837109 -10.443409943732574 M-100.15936014509383 -8.910418140577093 C-99.91200108540454 -9.521399800371713, -99.66464202571525 -10.132381460166332, -99.53872054837109 -10.443409943732574 M-99.53872054837109 -10.443409943732574 C-99.27207138868947 -10.997112629189482, -99.00542222900786 -11.550815314646393, -98.8211370002064 -11.933487535324831 M-99.53872054837109 -10.443409943732574 C-99.38309633810597 -10.766566946172755, -99.22747212784085 -11.089723948612939, -98.8211370002064 -11.933487535324831 M-98.8211370002064 -11.933487535324831 C-98.52811305368233 -12.453781224270406, -98.23508910715827 -12.97407491321598, -98.00955820532036 -13.374527866909409 M-98.8211370002064 -11.933487535324831 C-98.56395471233947 -12.390140729963171, -98.30677242447254 -12.84679392460151, -98.00955820532036 -13.374527866909409 M-98.00955820532036 -13.374527866909409 C-97.6565770158012 -13.916801762731907, -97.30359582628203 -14.459075658554406, -97.10731911506429 -14.760609394661605 M-98.00955820532036 -13.374527866909409 C-97.73414856589514 -13.797631030909807, -97.45873892646992 -14.220734194910206, -97.10731911506429 -14.760609394661605 M-97.10731911506429 -14.760609394661605 C-96.76407147270082 -15.220529964925129, -96.42082383033735 -15.680450535188653, -96.11812722338968 -16.086036412270353 M-97.10731911506429 -14.760609394661605 C-96.72161973433455 -15.277411426902997, -96.33592035360483 -15.794213459144387, -96.11812722338968 -16.086036412270353 M-96.11812722338968 -16.086036412270353 C-95.76854381293813 -16.496676978046313, -95.41896040248658 -16.907317543822273, -95.04604733196045 -17.345362455817092 M-96.11812722338968 -16.086036412270353 C-95.87456273969242 -16.372141114032893, -95.63099825599515 -16.658245815795436, -95.04604733196045 -17.345362455817092 M-95.04604733196045 -17.345362455817092 C-94.65012709496752 -17.754182606168285, -94.25420685797457 -18.163002756519475, -93.89548484701089 -18.5334126844643 M-95.04604733196045 -17.345362455817092 C-94.5870341605407 -17.819331240990227, -94.12802098912093 -18.29330002616336, -93.89548484701089 -18.5334126844643 M-93.89548484701089 -18.5334126844643 C-93.51344081069342 -18.880374969916538, -93.13139677437597 -19.227337255368774, -92.67116767658653 -19.645305144986487 M-93.89548484701089 -18.5334126844643 C-93.56925372515519 -18.829687157731154, -93.2430226032995 -19.12596163099801, -92.67116767658653 -19.645305144986487 M-92.67116767658653 -19.645305144986487 C-92.37833209240766 -19.878833730686974, -92.08549650822879 -20.112362316387465, -91.37812680255585 -20.676470832763204 M-92.67116767658653 -19.645305144986487 C-92.4084840747559 -19.854788327142195, -92.14580047292527 -20.064271509297907, -91.37812680255585 -20.676470832763204 M-91.37812680255585 -20.676470832763204 C-91.02802568799015 -20.92068621465125, -90.67792457342445 -21.164901596539302, -90.02167560722665 -21.622672466799 M-91.37812680255585 -20.676470832763204 C-91.03588318526437 -20.91520516469833, -90.6936395679729 -21.153939496633463, -90.02167560722665 -21.622672466799 M-90.02167560722665 -21.622672466799 C-89.6826021436282 -21.82822079304923, -89.34352868002976 -22.033769119299457, -88.60738803951841 -22.480021901620027 M-90.02167560722665 -21.622672466799 C-89.671182714548 -21.83514331806567, -89.32068982186934 -22.047614169332338, -88.60738803951841 -22.480021901620027 M-88.60738803951841 -22.480021901620027 C-88.12272936528662 -22.732868021528063, -87.6380706910548 -22.985714141436098, -87.14107571041058 -23.244996104497716 M-88.60738803951841 -22.480021901620027 C-88.20824198580624 -22.688256142176417, -87.80909593209407 -22.896490382732807, -87.14107571041058 -23.244996104497716 M-87.14107571041058 -23.244996104497716 C-86.64044287351082 -23.466611410647776, -86.13981003661108 -23.688226716797836, -85.62876401178646 -23.91445163234599 M-87.14107571041058 -23.244996104497716 C-86.65218170949656 -23.461414976177092, -86.16328770858253 -23.677833847856466, -85.62876401178646 -23.91445163234599 M-85.62876401178646 -23.91445163234599 C-85.02104955755144 -24.13809616915531, -84.41333510331641 -24.361740705964632, -84.07666735680553 -24.485637548803172 M-85.62876401178646 -23.91445163234599 C-85.12877383754804 -24.098452638324233, -84.62878366330962 -24.28245364430248, -84.07666735680553 -24.485637548803172 M-84.07666735680553 -24.485637548803172 C-83.49127547442022 -24.659378786710437, -82.90588359203491 -24.833120024617706, -82.49116364354681 -24.956206728419538 M-84.07666735680553 -24.485637548803172 C-83.70230864588058 -24.596745249156726, -83.32794993495563 -24.70785294951028, -82.49116364354681 -24.956206728419538 M-82.49116364354681 -24.956206728419538 C-82.10129439389381 -25.04519184051822, -81.71142514424079 -25.134176952616905, -80.87876804685754 -25.324225501499278 M-82.49116364354681 -24.956206728419538 C-82.0201032900569 -25.06372318014753, -81.54904293656696 -25.171239631875522, -80.87876804685754 -25.324225501499278 M-80.87876804685754 -25.324225501499278 C-80.30435250690438 -25.417092551339863, -79.72993696695121 -25.509959601180448, -79.24610624610233 -25.588181599964017 M-80.87876804685754 -25.324225501499278 C-80.52742118842426 -25.38102853683519, -80.17607432999098 -25.437831572171103, -79.24610624610233 -25.588181599964017 M-79.24610624610233 -25.588181599964017 C-78.86497298578243 -25.624949067207268, -78.48383972546254 -25.66171653445052, -77.59988719882529 -25.746990371586765 M-79.24610624610233 -25.588181599964017 C-78.63490185471295 -25.647143752520524, -78.02369746332357 -25.70610590507703, -77.59988719882529 -25.746990371586765 M-77.59988719882529 -25.746990371586765 C-77.24629878306519 -25.75832926386209, -76.89271036730507 -25.76966815613742, -75.9468755722046 -25.799999237060547 M-77.59988719882529 -25.746990371586765 C-77.09549570661899 -25.76316522500334, -76.59110421441268 -25.779340078419914, -75.9468755722046 -25.799999237060547 M-75.9468755722046 -25.799999237060547 C-75.9468755722046 -25.799999237060547, -75.9468755722046 -25.799999237060547, -75.94687557220459 -25.799999237060547 M-75.9468755722046 -25.799999237060547 C-75.9468755722046 -25.799999237060547, -75.94687557220459 -25.799999237060547, -75.94687557220459 -25.799999237060547" stroke="#9370DB" stroke-width="1.3" fill="none" stroke-dasharray="0 0" style=""></path></g><g class="label" style="" transform="translate(0, -18.299999237060547)"><rect></rect><g><rect class="background" style="stroke: none"></rect><text y="-10.1" style=""><tspan class="text-outer-tspan row" x="0" y="-0.1em" dy="1.1em"><tspan font-style="normal" class="text-inner-tspan" font-weight="normal">Outbound</tspan><tspan font-style="normal" class="text-inner-tspan" font-weight="normal"> URL</tspan><tspan font-style="normal" class="text-inner-tspan" font-weight="normal"> from</tspan><tspan font-style="normal" class="text-inner-tspan" font-weight="normal"> user</tspan></tspan><tspan class="text-outer-tspan row" x="0" y="1em" dy="1.1em"><tspan font-style="normal" class="text-inner-tspan" font-weight="normal">input</tspan></tspan></text></g></g></g><g class="node default" id="ga9af61a5-6a5b-4c52-8ff9-b652b75957f9-flip-flowchart-Parse-1" data-look="classic" transform="translate(321.2719268798828, 148.4875030517578)"><polygon points="59.8046875,0 119.609375,-59.8046875 59.8046875,-119.609375 0,-59.8046875" class="label-container" transform="translate(-59.3046875, 59.8046875)"></polygon><g class="label" style="" transform="translate(0, -9.5)"><rect></rect><g><rect class="background" style="stroke: none"></rect><text y="-10.1" style=""><tspan class="text-outer-tspan row" x="0" y="-0.1em" dy="1.1em"><tspan font-style="normal" class="text-inner-tspan" font-weight="normal">Parse</tspan><tspan font-style="normal" class="text-inner-tspan" font-weight="normal"> URL</tspan></tspan></text></g></g></g><g class="node default reject" id="ga9af61a5-6a5b-4c52-8ff9-b652b75957f9-flip-flowchart-Reject-3" data-look="classic" transform="translate(2410.248489379883, 114)"><rect class="basic label-container" style="fill:#fee !important;stroke:#a00 !important" x="-53.125" y="-24.5" width="106.25" height="49"></rect><g class="label" style="color:#600 !important" transform="translate(0, -9.5)"><rect></rect><g><rect class="background" style="stroke: none"></rect><text y="-10.1" style="fill:#600 !important"><tspan class="text-outer-tspan row" x="0" y="-0.1em" dy="1.1em"><tspan font-style="normal" class="text-inner-tspan" font-weight="normal">Reject</tspan></tspan></text></g></g></g><g class="node default" id="ga9af61a5-6a5b-4c52-8ff9-b652b75957f9-flip-flowchart-Scheme-5" data-look="classic" transform="translate(562.3891143798828, 221.3156280517578)"><polygon points="110.65625,0 221.3125,-110.65625 110.65625,-221.3125 0,-110.65625" class="label-container" transform="translate(-110.15625, 110.65625)"></polygon><g class="label" style="" transform="translate(0, -9.5)"><rect></rect><g><rect class="background" style="stroke: none"></rect><text y="-10.1" style=""><tspan class="text-outer-tspan row" x="0" y="-0.1em" dy="1.1em"><tspan font-style="normal" class="text-inner-tspan" font-weight="normal">scheme</tspan><tspan font-style="normal" class="text-inner-tspan" font-weight="normal"> in</tspan><tspan font-style="normal" class="text-inner-tspan" font-weight="normal"> {http,</tspan><tspan font-style="normal" class="text-inner-tspan" font-weight="normal"> https}?</tspan></tspan></text></g></g></g><g class="node default" id="ga9af61a5-6a5b-4c52-8ff9-b652b75957f9-flip-flowchart-HostList-9" data-look="classic" transform="translate(854.3031768798828, 290.8976593017578)"><polygon points="104.1640625,0 208.328125,-104.1640625 104.1640625,-208.328125 0,-104.1640625" class="label-container" transform="translate(-103.6640625, 104.1640625)"></polygon><g class="label" style="" transform="translate(0, -9.5)"><rect></rect><g><rect class="background" style="stroke: none"></rect><text y="-10.1" style=""><tspan class="text-outer-tspan row" x="0" y="-0.1em" dy="1.1em"><tspan font-style="normal" class="text-inner-tspan" font-weight="normal">hostname</tspan><tspan font-style="normal" class="text-inner-tspan" font-weight="normal"> in</tspan><tspan font-style="normal" class="text-inner-tspan" font-weight="normal"> deny</tspan><tspan font-style="normal" class="text-inner-tspan" font-weight="normal"> list?</tspan></tspan></text></g></g></g><g class="node default" id="ga9af61a5-6a5b-4c52-8ff9-b652b75957f9-flip-flowchart-Resolve-13" data-look="classic" transform="translate(1131.4672393798828, 382.15625)"><rect class="basic label-container" style="" x="-101.671875" y="-33.29999923706055" width="203.34375" height="66.5999984741211"></rect><g class="label" style="" transform="translate(0, -18.299999237060547)"><rect></rect><g><rect class="background" style="stroke: none"></rect><text y="-10.1" style=""><tspan class="text-outer-tspan row" x="0" y="-0.1em" dy="1.1em"><tspan font-style="normal" class="text-inner-tspan" font-weight="normal">DNS</tspan><tspan font-style="normal" class="text-inner-tspan" font-weight="normal"> resolve</tspan><tspan font-style="normal" class="text-inner-tspan" font-weight="normal"> A/AAAA</tspan></tspan><tspan class="text-outer-tspan row" x="0" y="1em" dy="1.1em"><tspan font-style="normal" class="text-inner-tspan" font-weight="normal">records</tspan></tspan></text></g></g></g><g class="node default" id="ga9af61a5-6a5b-4c52-8ff9-b652b75957f9-flip-flowchart-AllResolved-15" data-look="classic" transform="translate(1458.2656707763672, 382.15625)"><polygon points="147.5171890258789,0 295.0343780517578,-147.5171890258789 147.5171890258789,-295.0343780517578 0,-147.5171890258789" class="label-container" transform="translate(-147.0171890258789, 147.5171890258789)"></polygon><g class="label" style="" transform="translate(0, -35.900001525878906)"><rect></rect><g><rect class="background" style="stroke: none"></rect><text y="-10.1" style=""><tspan class="text-outer-tspan row" x="0" y="-0.1em" dy="1.1em"><tspan font-style="normal" class="text-inner-tspan" font-weight="normal">every</tspan><tspan font-style="normal" class="text-inner-tspan" font-weight="normal"> resolved</tspan><tspan font-style="normal" class="text-inner-tspan" font-weight="normal"> IP</tspan></tspan><tspan class="text-outer-tspan row" x="0" y="1em" dy="1.1em"><tspan font-style="normal" class="text-inner-tspan" font-weight="normal">outside</tspan><tspan font-style="normal" class="text-inner-tspan" font-weight="normal"> RFC</tspan><tspan font-style="normal" class="text-inner-tspan" font-weight="normal"> 1918,</tspan></tspan><tspan class="text-outer-tspan row" x="0" y="2.1em" dy="1.1em"><tspan font-style="normal" class="text-inner-tspan" font-weight="normal">link-local,</tspan></tspan><tspan class="text-outer-tspan row" x="0" y="3.2em" dy="1.1em"><tspan font-style="normal" class="text-inner-tspan" font-weight="normal">cloud</tspan><tspan font-style="normal" class="text-inner-tspan" font-weight="normal"> metadata,</tspan><tspan font-style="normal" class="text-inner-tspan" font-weight="normal"> loopback?</tspan></tspan></text></g></g></g><g class="node default" id="ga9af61a5-6a5b-4c52-8ff9-b652b75957f9-flip-flowchart-Connect-19" data-look="classic" transform="translate(1794.0406646728516, 463.8937530517578)"><rect class="basic label-container" style="" x="-111.1640625" y="-42.099998474121094" width="222.328125" height="84.19999694824219"></rect><g class="label" style="" transform="translate(0, -27.099998474121094)"><rect></rect><g><rect class="background" style="stroke: none"></rect><text y="-10.1" style=""><tspan class="text-outer-tspan row" x="0" y="-0.1em" dy="1.1em"><tspan font-style="normal" class="text-inner-tspan" font-weight="normal">Open</tspan><tspan font-style="normal" class="text-inner-tspan" font-weight="normal"> TCP</tspan><tspan font-style="normal" class="text-inner-tspan" font-weight="normal"> socket</tspan></tspan><tspan class="text-outer-tspan row" x="0" y="1em" dy="1.1em"><tspan font-style="normal" class="text-inner-tspan" font-weight="normal">(pin</tspan><tspan font-style="normal" class="text-inner-tspan" font-weight="normal"> to</tspan><tspan font-style="normal" class="text-inner-tspan" font-weight="normal"> resolved</tspan><tspan font-style="normal" class="text-inner-tspan" font-weight="normal"> IP,</tspan><tspan font-style="normal" class="text-inner-tspan" font-weight="normal"> not</tspan></tspan><tspan class="text-outer-tspan row" x="0" y="2.1em" dy="1.1em"><tspan font-style="normal" class="text-inner-tspan" font-weight="normal">hostname)</tspan></tspan></text></g></g></g><g class="node default" id="ga9af61a5-6a5b-4c52-8ff9-b652b75957f9-flip-flowchart-Recheck-21" data-look="classic" transform="translate(2105.007858276367, 463.8937530517578)"><polygon points="128.4749984741211,0 256.9499969482422,-128.4749984741211 128.4749984741211,-256.9499969482422 0,-128.4749984741211" class="label-container" transform="translate(-127.9749984741211, 128.4749984741211)"></polygon><g class="label" style="" transform="translate(0, -27.099998474121094)"><rect></rect><g><rect class="background" style="stroke: none"></rect><text y="-10.1" style=""><tspan class="text-outer-tspan row" x="0" y="-0.1em" dy="1.1em"><tspan font-style="normal" class="text-inner-tspan" font-weight="normal">Re-resolve</tspan><tspan font-style="normal" class="text-inner-tspan" font-weight="normal"> before</tspan></tspan><tspan class="text-outer-tspan row" x="0" y="1em" dy="1.1em"><tspan font-style="normal" class="text-inner-tspan" font-weight="normal">reconnect?</tspan></tspan><tspan class="text-outer-tspan row" x="0" y="2.1em" dy="1.1em"><tspan font-style="normal" class="text-inner-tspan" font-weight="normal">(DNS</tspan><tspan font-style="normal" class="text-inner-tspan" font-weight="normal"> rebinding</tspan><tspan font-style="normal" class="text-inner-tspan" font-weight="normal"> defense)</tspan></tspan></text></g></g></g><g class="node default allow" id="ga9af61a5-6a5b-4c52-8ff9-b652b75957f9-flip-flowchart-Allow-25" data-look="classic" transform="translate(2410.248489379883, 485.3937530517578)"><rect class="basic label-container" style="fill:#efe !important;stroke:#070 !important" x="-79.171875" y="-24.5" width="158.34375" height="49"></rect><g class="label" style="color:#040 !important" transform="translate(0, -9.5)"><rect></rect><g><rect class="background" style="stroke: none"></rect><text y="-10.1" style="fill:#040 !important"><tspan class="text-outer-tspan row" x="0" y="-0.1em" dy="1.1em"><tspan font-style="normal" class="text-inner-tspan" font-weight="normal">Allow</tspan><tspan font-style="normal" class="text-inner-tspan" font-weight="normal"> request</tspan></tspan></text></g></g></g></g></g></g><defs><filter id="ga9af61a5-6a5b-4c52-8ff9-b652b75957f9-flip-drop-shadow" height="130%" width="130%"><feDropShadow dx="4" dy="4" stdDeviation="0" flood-opacity="0.06" flood-color="#000000"></feDropShadow></filter></defs><defs><filter id="ga9af61a5-6a5b-4c52-8ff9-b652b75957f9-flip-drop-shadow-small" height="150%" width="150%"><feDropShadow dx="2" dy="2" stdDeviation="0" flood-opacity="0.06" flood-color="#000000"></feDropShadow></filter></defs></svg>